G04*
G04 #@! TF.GenerationSoftware,Altium Limited,Altium Designer,18.1.9 (240)*
G04*
G04 Layer_Color=16711935*
%FSLAX25Y25*%
%MOIN*%
G70*
G01*
G75*
%ADD132C,0.06000*%
%ADD187O,0.17300X0.09050*%
G04:AMPARAMS|DCode=188|XSize=141mil|YSize=91mil|CornerRadius=0mil|HoleSize=0mil|Usage=FLASHONLY|Rotation=90.000|XOffset=0mil|YOffset=0mil|HoleType=Round|Shape=Octagon|*
%AMOCTAGOND188*
4,1,8,0.02275,0.07050,-0.02275,0.07050,-0.04550,0.04775,-0.04550,-0.04775,-0.02275,-0.07050,0.02275,-0.07050,0.04550,-0.04775,0.04550,0.04775,0.02275,0.07050,0.0*
%
%ADD188OCTAGOND188*%

%ADD189O,0.09050X0.17300*%
%ADD190P,0.08443X8X292.5*%
%ADD191C,0.10800*%
%ADD192C,0.06600*%
%ADD193C,0.13850*%
%ADD194O,0.06800X0.12800*%
%ADD195C,0.06706*%
%ADD196R,0.06706X0.06706*%
%ADD197O,0.12800X0.06800*%
%ADD199C,0.01000*%
%ADD300C,0.05800*%
%ADD340R,0.07045X0.03543*%
%ADD341R,0.03543X0.07045*%
G04:AMPARAMS|DCode=342|XSize=58mil|YSize=58mil|CornerRadius=29mil|HoleSize=0mil|Usage=FLASHONLY|Rotation=90.000|XOffset=0mil|YOffset=0mil|HoleType=Round|Shape=RoundedRectangle|*
%AMROUNDEDRECTD342*
21,1,0.05800,0.00000,0,0,90.0*
21,1,0.00000,0.05800,0,0,90.0*
1,1,0.05800,0.00000,0.00000*
1,1,0.05800,0.00000,0.00000*
1,1,0.05800,0.00000,0.00000*
1,1,0.05800,0.00000,0.00000*
%
%ADD342ROUNDEDRECTD342*%
G04:AMPARAMS|DCode=343|XSize=54mil|YSize=71mil|CornerRadius=15.5mil|HoleSize=0mil|Usage=FLASHONLY|Rotation=90.000|XOffset=0mil|YOffset=0mil|HoleType=Round|Shape=RoundedRectangle|*
%AMROUNDEDRECTD343*
21,1,0.05400,0.04000,0,0,90.0*
21,1,0.02300,0.07100,0,0,90.0*
1,1,0.03100,0.02000,0.01150*
1,1,0.03100,0.02000,-0.01150*
1,1,0.03100,-0.02000,-0.01150*
1,1,0.03100,-0.02000,0.01150*
%
%ADD343ROUNDEDRECTD343*%
G04:AMPARAMS|DCode=344|XSize=54mil|YSize=71mil|CornerRadius=15.5mil|HoleSize=0mil|Usage=FLASHONLY|Rotation=180.000|XOffset=0mil|YOffset=0mil|HoleType=Round|Shape=RoundedRectangle|*
%AMROUNDEDRECTD344*
21,1,0.05400,0.04000,0,0,180.0*
21,1,0.02300,0.07100,0,0,180.0*
1,1,0.03100,-0.01150,0.02000*
1,1,0.03100,0.01150,0.02000*
1,1,0.03100,0.01150,-0.02000*
1,1,0.03100,-0.01150,-0.02000*
%
%ADD344ROUNDEDRECTD344*%
G54D132*
X404449Y11063D02*
D03*
Y18937D02*
D03*
X398937Y24449D02*
D03*
X391063D02*
D03*
X385551Y18937D02*
D03*
Y11063D02*
D03*
X391063Y5551D02*
D03*
X398937D02*
D03*
X18937D02*
D03*
X11063D02*
D03*
X5551Y11063D02*
D03*
Y18937D02*
D03*
X11063Y24449D02*
D03*
X18937D02*
D03*
X24449Y18937D02*
D03*
Y11063D02*
D03*
X18937Y380551D02*
D03*
X11063D02*
D03*
X5551Y386063D02*
D03*
Y393937D02*
D03*
X11063Y399449D02*
D03*
X18937D02*
D03*
X24449Y393937D02*
D03*
Y386063D02*
D03*
X398937Y380551D02*
D03*
X391063D02*
D03*
X385551Y386063D02*
D03*
Y393937D02*
D03*
X391063Y399449D02*
D03*
X398937D02*
D03*
X404449Y393937D02*
D03*
Y386063D02*
D03*
G54D187*
X377063Y318248D02*
D03*
Y338248D02*
D03*
Y298248D02*
D03*
Y278248D02*
D03*
Y258248D02*
D03*
Y238248D02*
D03*
G54D188*
X311500Y285400D02*
D03*
X324900D02*
D03*
Y338400D02*
D03*
X311500D02*
D03*
X345100D02*
D03*
X358500D02*
D03*
Y285400D02*
D03*
X345100D02*
D03*
X398432Y202878D02*
D03*
X385032D02*
D03*
Y149878D02*
D03*
X398432D02*
D03*
G54D189*
X228000Y385200D02*
D03*
X208000D02*
D03*
X188000D02*
D03*
X168000D02*
D03*
X148000D02*
D03*
X128000D02*
D03*
X108000D02*
D03*
X88000D02*
D03*
X68000D02*
D03*
X48000D02*
D03*
G54D190*
X8600Y322400D02*
D03*
Y304600D02*
D03*
G54D191*
X18400Y327300D02*
D03*
Y299700D02*
D03*
G54D192*
X43600Y225000D02*
D03*
Y234921D02*
D03*
X35700D02*
D03*
Y225000D02*
D03*
G54D193*
X25000Y253622D02*
D03*
Y206300D02*
D03*
G54D194*
X275700Y230900D02*
D03*
X265700D02*
D03*
X255700D02*
D03*
X293000Y186300D02*
D03*
X303000D02*
D03*
X334500Y14500D02*
D03*
X344500D02*
D03*
X354500D02*
D03*
X364500D02*
D03*
X22400Y354500D02*
D03*
X12400D02*
D03*
X337800Y230900D02*
D03*
X347800D02*
D03*
X357800D02*
D03*
X296750D02*
D03*
X306750D02*
D03*
X316750D02*
D03*
X357800Y254900D02*
D03*
X347800D02*
D03*
X337800D02*
D03*
X316750D02*
D03*
X306750D02*
D03*
X296750D02*
D03*
X275700D02*
D03*
X265700D02*
D03*
X255700D02*
D03*
X365800Y186300D02*
D03*
X355800D02*
D03*
X334500D02*
D03*
X324500D02*
D03*
X271300D02*
D03*
X261300D02*
D03*
X305000Y14500D02*
D03*
X295000D02*
D03*
X285000D02*
D03*
X275000D02*
D03*
X246000D02*
D03*
X236000D02*
D03*
X226000D02*
D03*
X216000D02*
D03*
X195000D02*
D03*
X185000D02*
D03*
X175000D02*
D03*
X165000D02*
D03*
X135500D02*
D03*
X125500D02*
D03*
X115500D02*
D03*
X105500D02*
D03*
X75500D02*
D03*
X65500D02*
D03*
X55500D02*
D03*
X45500D02*
D03*
G54D195*
X80100Y140600D02*
D03*
Y150600D02*
D03*
X90100Y140600D02*
D03*
Y150600D02*
D03*
X100100Y140600D02*
D03*
Y150600D02*
D03*
X110100Y140600D02*
D03*
Y150600D02*
D03*
X120100Y140600D02*
D03*
Y150600D02*
D03*
X130100Y140600D02*
D03*
Y150600D02*
D03*
X140100Y140600D02*
D03*
Y150600D02*
D03*
X150100Y140600D02*
D03*
Y150600D02*
D03*
X160100Y140600D02*
D03*
Y150600D02*
D03*
X170100Y140600D02*
D03*
Y150600D02*
D03*
X180100Y140600D02*
D03*
Y150600D02*
D03*
X190100Y140600D02*
D03*
X203800Y320300D02*
D03*
X193800Y330300D02*
D03*
Y320300D02*
D03*
X183800Y330300D02*
D03*
Y320300D02*
D03*
X173800Y330300D02*
D03*
Y320300D02*
D03*
X314476Y155886D02*
D03*
X324476Y145886D02*
D03*
Y155886D02*
D03*
X334476Y145886D02*
D03*
Y155886D02*
D03*
X344476Y145886D02*
D03*
Y155886D02*
D03*
X354476Y145886D02*
D03*
Y155886D02*
D03*
X110300Y180300D02*
D03*
Y170300D02*
D03*
X100300Y180300D02*
D03*
Y170300D02*
D03*
X90300Y180300D02*
D03*
Y170300D02*
D03*
X80300Y180300D02*
D03*
Y170300D02*
D03*
X70300Y180300D02*
D03*
X110300Y217794D02*
D03*
Y207794D02*
D03*
X100300Y217794D02*
D03*
Y207794D02*
D03*
X90300Y217794D02*
D03*
Y207794D02*
D03*
X80300Y217794D02*
D03*
Y207794D02*
D03*
X70300Y217794D02*
D03*
G54D196*
X190100Y150600D02*
D03*
X203800Y330300D02*
D03*
X314476Y145886D02*
D03*
X70300Y170300D02*
D03*
Y207794D02*
D03*
G54D197*
X391800Y75500D02*
D03*
Y65500D02*
D03*
Y55500D02*
D03*
Y45500D02*
D03*
G54D199*
X137100Y346201D02*
D03*
Y350201D02*
D03*
Y342201D02*
D03*
Y338201D02*
D03*
X133100D02*
D03*
X129100D02*
D03*
Y342201D02*
D03*
X133100D02*
D03*
Y346201D02*
D03*
X129100D02*
D03*
Y350201D02*
D03*
X133100D02*
D03*
X141100D02*
D03*
X145100D02*
D03*
Y346201D02*
D03*
X141100D02*
D03*
Y342201D02*
D03*
X145100D02*
D03*
Y338201D02*
D03*
X141100D02*
D03*
X97000Y346201D02*
D03*
Y350201D02*
D03*
Y342201D02*
D03*
Y338201D02*
D03*
X93000D02*
D03*
X89000D02*
D03*
Y342201D02*
D03*
X93000D02*
D03*
Y346201D02*
D03*
X89000D02*
D03*
Y350201D02*
D03*
X93000D02*
D03*
X101000D02*
D03*
X105000D02*
D03*
Y346201D02*
D03*
X101000D02*
D03*
Y342201D02*
D03*
X105000D02*
D03*
Y338201D02*
D03*
X101000D02*
D03*
X222650D02*
D03*
Y342201D02*
D03*
Y334201D02*
D03*
Y330201D02*
D03*
X218650D02*
D03*
X214650D02*
D03*
Y334201D02*
D03*
X218650D02*
D03*
Y338201D02*
D03*
X214650D02*
D03*
Y342201D02*
D03*
X218650D02*
D03*
X226650D02*
D03*
X230650D02*
D03*
Y338201D02*
D03*
X226650D02*
D03*
Y334201D02*
D03*
X230650D02*
D03*
Y330201D02*
D03*
X226650D02*
D03*
X57150Y346201D02*
D03*
Y350201D02*
D03*
Y342201D02*
D03*
Y338201D02*
D03*
X53150D02*
D03*
X49150D02*
D03*
Y342201D02*
D03*
X53150D02*
D03*
Y346201D02*
D03*
X49150D02*
D03*
Y350201D02*
D03*
X53150D02*
D03*
X61150D02*
D03*
X65150D02*
D03*
Y346201D02*
D03*
X61150D02*
D03*
Y342201D02*
D03*
X65150D02*
D03*
Y338201D02*
D03*
X61150D02*
D03*
X180576Y77933D02*
D03*
X193569Y86595D02*
D03*
Y82264D02*
D03*
Y77933D02*
D03*
X189238Y86595D02*
D03*
Y82264D02*
D03*
Y77933D02*
D03*
X184907Y86595D02*
D03*
Y82264D02*
D03*
Y77933D02*
D03*
X180576Y86595D02*
D03*
Y82264D02*
D03*
X330569Y386349D02*
D03*
X334900D02*
D03*
X330569Y382018D02*
D03*
X334900D02*
D03*
X330569Y377687D02*
D03*
X334900D02*
D03*
X36088Y82264D02*
D03*
Y86595D02*
D03*
X40419Y77933D02*
D03*
Y82264D02*
D03*
Y86595D02*
D03*
X44750Y77933D02*
D03*
Y82264D02*
D03*
Y86595D02*
D03*
X49080Y77933D02*
D03*
Y82264D02*
D03*
Y86595D02*
D03*
X36088Y77933D02*
D03*
X252820D02*
D03*
X265813Y86595D02*
D03*
Y82264D02*
D03*
Y77933D02*
D03*
X261482Y86595D02*
D03*
Y82264D02*
D03*
Y77933D02*
D03*
X257151Y86595D02*
D03*
Y82264D02*
D03*
Y77933D02*
D03*
X252820Y86595D02*
D03*
Y82264D02*
D03*
X325065D02*
D03*
Y86595D02*
D03*
X329395Y77933D02*
D03*
Y82264D02*
D03*
Y86595D02*
D03*
X333726Y77933D02*
D03*
Y82264D02*
D03*
Y86595D02*
D03*
X338057Y77933D02*
D03*
Y82264D02*
D03*
Y86595D02*
D03*
X325065Y77933D02*
D03*
X108332D02*
D03*
X121324Y86595D02*
D03*
Y82264D02*
D03*
Y77933D02*
D03*
X116994Y86595D02*
D03*
Y82264D02*
D03*
Y77933D02*
D03*
X112663Y86595D02*
D03*
Y82264D02*
D03*
Y77933D02*
D03*
X108332Y86595D02*
D03*
Y82264D02*
D03*
G54D300*
X38600Y243348D02*
D03*
X44900Y251100D02*
D03*
X285500Y235748D02*
D03*
X275500Y145748D02*
D03*
X345500Y325748D02*
D03*
X105500Y25748D02*
D03*
X255500Y215748D02*
D03*
X315500Y265748D02*
D03*
X285500Y225748D02*
D03*
X355500Y265748D02*
D03*
X325500Y245748D02*
D03*
X245500Y335448D02*
D03*
X225500Y305748D02*
D03*
X365500Y25748D02*
D03*
X355500D02*
D03*
X345500D02*
D03*
X365500Y55748D02*
D03*
X345500D02*
D03*
Y45748D02*
D03*
X315500Y35748D02*
D03*
Y5748D02*
D03*
X295500Y25748D02*
D03*
X285500D02*
D03*
X275500D02*
D03*
X325500Y305748D02*
D03*
X345500D02*
D03*
X395500Y295748D02*
D03*
X325500Y375748D02*
D03*
X385500Y175748D02*
D03*
X38600Y213348D02*
D03*
X55413Y241398D02*
D03*
X175500Y365748D02*
D03*
X385500Y135748D02*
D03*
Y225748D02*
D03*
X185500Y365748D02*
D03*
X35500Y345748D02*
D03*
X255500Y305748D02*
D03*
X275500Y315748D02*
D03*
X245500Y145748D02*
D03*
X235500D02*
D03*
X55500Y355748D02*
D03*
X95500D02*
D03*
X135500D02*
D03*
X395500Y335748D02*
D03*
X205500Y5748D02*
D03*
X175500Y25748D02*
D03*
X255500Y15748D02*
D03*
X235500Y25748D02*
D03*
X255500Y165748D02*
D03*
X265500Y265748D02*
D03*
X165500Y255748D02*
D03*
X195500Y295748D02*
D03*
X185500Y285748D02*
D03*
Y295748D02*
D03*
X135500Y25748D02*
D03*
X125500D02*
D03*
X115500D02*
D03*
X75500D02*
D03*
X65500D02*
D03*
X55500D02*
D03*
X45507Y25755D02*
D03*
X75500Y55748D02*
D03*
X55500D02*
D03*
X35500Y45748D02*
D03*
X15500Y75748D02*
D03*
X145500Y55748D02*
D03*
X125500D02*
D03*
X95500Y85748D02*
D03*
X85500Y75748D02*
D03*
X225500Y55748D02*
D03*
X195500D02*
D03*
X165500Y65748D02*
D03*
X155500Y55748D02*
D03*
X295500D02*
D03*
X285500Y45748D02*
D03*
X235500Y65748D02*
D03*
X225500D02*
D03*
X295500Y155748D02*
D03*
X255500Y145748D02*
D03*
X245500Y165748D02*
D03*
X295500D02*
D03*
X265500Y145748D02*
D03*
X335500Y175748D02*
D03*
X315500Y185748D02*
D03*
X285500D02*
D03*
X225500Y284600D02*
D03*
X135500Y165748D02*
D03*
X55709Y185748D02*
D03*
X55500Y165748D02*
D03*
X375500Y185748D02*
D03*
X125500Y225748D02*
D03*
X26100Y136000D02*
D03*
X55500Y175748D02*
D03*
Y155748D02*
D03*
X29500Y175748D02*
D03*
X45709Y185748D02*
D03*
X65500Y225748D02*
D03*
X115500Y245748D02*
D03*
X145500D02*
D03*
X175500Y275748D02*
D03*
X155500Y295748D02*
D03*
X215500D02*
D03*
X185500Y345748D02*
D03*
X135500Y265748D02*
D03*
X115500D02*
D03*
X155500Y315748D02*
D03*
X165500Y335748D02*
D03*
X145500Y325748D02*
D03*
X105500D02*
D03*
X65500D02*
D03*
X55500Y315748D02*
D03*
X35500Y275748D02*
D03*
X335500Y25748D02*
D03*
X175500Y285748D02*
D03*
X205500Y355748D02*
D03*
G54D340*
X57656Y215965D02*
D03*
G54D341*
X68110Y241141D02*
D03*
G54D342*
X235924Y315637D02*
D03*
X355500Y385748D02*
D03*
X375828Y135925D02*
D03*
X335500Y125748D02*
D03*
G54D343*
X57579Y213063D02*
D03*
Y219063D02*
D03*
G54D344*
X71012Y241063D02*
D03*
X65012D02*
D03*
M02*
