G04*
G04 #@! TF.GenerationSoftware,Altium Limited,Altium Designer,18.1.9 (240)*
G04*
G04 Layer_Color=8388736*
%FSLAX25Y25*%
%MOIN*%
G70*
G01*
G75*
%ADD111C,0.12205*%
%ADD112R,0.10400X0.16800*%
%ADD113R,0.02054X0.02054*%
G04:AMPARAMS|DCode=114|XSize=26mil|YSize=28mil|CornerRadius=6.4mil|HoleSize=0mil|Usage=FLASHONLY|Rotation=180.000|XOffset=0mil|YOffset=0mil|HoleType=Round|Shape=RoundedRectangle|*
%AMROUNDEDRECTD114*
21,1,0.02600,0.01520,0,0,180.0*
21,1,0.01320,0.02800,0,0,180.0*
1,1,0.01280,-0.00660,0.00760*
1,1,0.01280,0.00660,0.00760*
1,1,0.01280,0.00660,-0.00760*
1,1,0.01280,-0.00660,-0.00760*
%
%ADD114ROUNDEDRECTD114*%
%ADD115R,0.02054X0.02054*%
%ADD116R,0.01981X0.02375*%
G04:AMPARAMS|DCode=117|XSize=26mil|YSize=28mil|CornerRadius=6.4mil|HoleSize=0mil|Usage=FLASHONLY|Rotation=90.000|XOffset=0mil|YOffset=0mil|HoleType=Round|Shape=RoundedRectangle|*
%AMROUNDEDRECTD117*
21,1,0.02600,0.01520,0,0,90.0*
21,1,0.01320,0.02800,0,0,90.0*
1,1,0.01280,0.00760,0.00660*
1,1,0.01280,0.00760,-0.00660*
1,1,0.01280,-0.00760,-0.00660*
1,1,0.01280,-0.00760,0.00660*
%
%ADD117ROUNDEDRECTD117*%
%ADD118R,0.03038X0.03865*%
%ADD119R,0.04737X0.02965*%
%ADD120R,0.03600X0.06400*%
G04:AMPARAMS|DCode=121|XSize=30mil|YSize=32mil|CornerRadius=8.4mil|HoleSize=0mil|Usage=FLASHONLY|Rotation=90.000|XOffset=0mil|YOffset=0mil|HoleType=Round|Shape=RoundedRectangle|*
%AMROUNDEDRECTD121*
21,1,0.03000,0.01520,0,0,90.0*
21,1,0.01320,0.03200,0,0,90.0*
1,1,0.01680,0.00760,0.00660*
1,1,0.01680,0.00760,-0.00660*
1,1,0.01680,-0.00760,-0.00660*
1,1,0.01680,-0.00760,0.00660*
%
%ADD121ROUNDEDRECTD121*%
G04:AMPARAMS|DCode=122|XSize=30mil|YSize=32mil|CornerRadius=8.4mil|HoleSize=0mil|Usage=FLASHONLY|Rotation=180.000|XOffset=0mil|YOffset=0mil|HoleType=Round|Shape=RoundedRectangle|*
%AMROUNDEDRECTD122*
21,1,0.03000,0.01520,0,0,180.0*
21,1,0.01320,0.03200,0,0,180.0*
1,1,0.01680,-0.00660,0.00760*
1,1,0.01680,0.00660,0.00760*
1,1,0.01680,0.00660,-0.00760*
1,1,0.01680,-0.00660,-0.00760*
%
%ADD122ROUNDEDRECTD122*%
%ADD123R,0.06312X0.14186*%
%ADD124R,0.04343X0.06312*%
%ADD125R,0.03531X0.04737*%
%ADD126R,0.05524X0.06509*%
%ADD127R,0.05524X0.05328*%
%ADD128R,0.05524X0.04934*%
%ADD129R,0.04737X0.03556*%
%ADD130R,0.08700X0.08700*%
%ADD131O,0.06706X0.03162*%
%ADD132C,0.06000*%
%ADD133R,0.03753X0.11824*%
%ADD134R,0.06063X0.02451*%
%ADD135R,0.02126X0.02598*%
%ADD136O,0.01781X0.07887*%
%ADD137O,0.07887X0.01781*%
%ADD138R,0.05524X0.04343*%
%ADD139O,0.09855X0.03162*%
G04:AMPARAMS|DCode=140|XSize=37.13mil|YSize=47.37mil|CornerRadius=9.83mil|HoleSize=0mil|Usage=FLASHONLY|Rotation=0.000|XOffset=0mil|YOffset=0mil|HoleType=Round|Shape=RoundedRectangle|*
%AMROUNDEDRECTD140*
21,1,0.03713,0.02772,0,0,0.0*
21,1,0.01748,0.04737,0,0,0.0*
1,1,0.01965,0.00874,-0.01386*
1,1,0.01965,-0.00874,-0.01386*
1,1,0.01965,-0.00874,0.01386*
1,1,0.01965,0.00874,0.01386*
%
%ADD140ROUNDEDRECTD140*%
G04:AMPARAMS|DCode=141|XSize=80mil|YSize=80mil|CornerRadius=40mil|HoleSize=0mil|Usage=FLASHONLY|Rotation=270.000|XOffset=0mil|YOffset=0mil|HoleType=Round|Shape=RoundedRectangle|*
%AMROUNDEDRECTD141*
21,1,0.08000,0.00000,0,0,270.0*
21,1,0.00000,0.08000,0,0,270.0*
1,1,0.08000,0.00000,0.00000*
1,1,0.08000,0.00000,0.00000*
1,1,0.08000,0.00000,0.00000*
1,1,0.08000,0.00000,0.00000*
%
%ADD141ROUNDEDRECTD141*%
%ADD142R,0.05600X0.05600*%
%ADD143R,0.05600X0.05600*%
%ADD144R,0.02565X0.02368*%
%ADD145R,0.05131X0.07493*%
G04:AMPARAMS|DCode=146|XSize=33.13mil|YSize=43.37mil|CornerRadius=7.83mil|HoleSize=0mil|Usage=FLASHONLY|Rotation=90.000|XOffset=0mil|YOffset=0mil|HoleType=Round|Shape=RoundedRectangle|*
%AMROUNDEDRECTD146*
21,1,0.03313,0.02772,0,0,90.0*
21,1,0.01748,0.04337,0,0,90.0*
1,1,0.01565,0.01386,0.00874*
1,1,0.01565,0.01386,-0.00874*
1,1,0.01565,-0.01386,-0.00874*
1,1,0.01565,-0.01386,0.00874*
%
%ADD146ROUNDEDRECTD146*%
%ADD147R,0.02762X0.03747*%
%ADD148R,0.04400X0.04000*%
%ADD149R,0.04737X0.04343*%
%ADD150R,0.03943X0.01975*%
%ADD151R,0.02080X0.01863*%
%ADD152R,0.02800X0.02800*%
%ADD153O,0.01502X0.03550*%
%ADD154O,0.03550X0.01502*%
%ADD155R,0.08400X0.08400*%
G04:AMPARAMS|DCode=156|XSize=33.13mil|YSize=43.37mil|CornerRadius=7.83mil|HoleSize=0mil|Usage=FLASHONLY|Rotation=0.000|XOffset=0mil|YOffset=0mil|HoleType=Round|Shape=RoundedRectangle|*
%AMROUNDEDRECTD156*
21,1,0.03313,0.02772,0,0,0.0*
21,1,0.01748,0.04337,0,0,0.0*
1,1,0.01565,0.00874,-0.01386*
1,1,0.01565,-0.00874,-0.01386*
1,1,0.01565,-0.00874,0.01386*
1,1,0.01565,0.00874,0.01386*
%
%ADD156ROUNDEDRECTD156*%
%ADD157R,0.14186X0.06312*%
%ADD158R,0.03162X0.03950*%
G04:AMPARAMS|DCode=159|XSize=71mil|YSize=79mil|CornerRadius=19.75mil|HoleSize=0mil|Usage=FLASHONLY|Rotation=0.000|XOffset=0mil|YOffset=0mil|HoleType=Round|Shape=RoundedRectangle|*
%AMROUNDEDRECTD159*
21,1,0.07100,0.03950,0,0,0.0*
21,1,0.03150,0.07900,0,0,0.0*
1,1,0.03950,0.01575,-0.01975*
1,1,0.03950,-0.01575,-0.01975*
1,1,0.03950,-0.01575,0.01975*
1,1,0.03950,0.01575,0.01975*
%
%ADD159ROUNDEDRECTD159*%
%ADD160R,0.16542X0.14573*%
%ADD161O,0.03747X0.01384*%
%ADD162O,0.01384X0.03747*%
%ADD163R,0.03550X0.02565*%
%ADD164O,0.06509X0.02965*%
%ADD165R,0.03865X0.03038*%
%ADD166R,0.05918X0.06312*%
%ADD167R,0.11430X0.04540*%
%ADD168R,0.05400X0.08700*%
%ADD169R,0.16942X0.14580*%
%ADD170R,0.10249X0.13005*%
%ADD171R,0.05721X0.02965*%
%ADD172R,0.05321X0.03550*%
%ADD173R,0.06312X0.03162*%
%ADD174R,0.07887X0.03162*%
%ADD175R,0.01384X0.02368*%
%ADD176R,0.06699X0.03943*%
%ADD177R,0.01975X0.01581*%
%ADD178R,0.04540X0.11430*%
%ADD179R,0.03950X0.03162*%
%ADD180R,0.02800X0.02800*%
%ADD181R,0.03747X0.02762*%
G04:AMPARAMS|DCode=182|XSize=80mil|YSize=80mil|CornerRadius=40mil|HoleSize=0mil|Usage=FLASHONLY|Rotation=0.000|XOffset=0mil|YOffset=0mil|HoleType=Round|Shape=RoundedRectangle|*
%AMROUNDEDRECTD182*
21,1,0.08000,0.00000,0,0,0.0*
21,1,0.00000,0.08000,0,0,0.0*
1,1,0.08000,0.00000,0.00000*
1,1,0.08000,0.00000,0.00000*
1,1,0.08000,0.00000,0.00000*
1,1,0.08000,0.00000,0.00000*
%
%ADD182ROUNDEDRECTD182*%
%ADD183R,0.07493X0.05131*%
%ADD184R,0.01581X0.01975*%
%ADD185R,0.08700X0.08700*%
%ADD186R,0.02368X0.02565*%
%ADD187O,0.17300X0.09050*%
G04:AMPARAMS|DCode=188|XSize=141mil|YSize=91mil|CornerRadius=0mil|HoleSize=0mil|Usage=FLASHONLY|Rotation=90.000|XOffset=0mil|YOffset=0mil|HoleType=Round|Shape=Octagon|*
%AMOCTAGOND188*
4,1,8,0.02275,0.07050,-0.02275,0.07050,-0.04550,0.04775,-0.04550,-0.04775,-0.02275,-0.07050,0.02275,-0.07050,0.04550,-0.04775,0.04550,0.04775,0.02275,0.07050,0.0*
%
%ADD188OCTAGOND188*%

%ADD189O,0.09050X0.17300*%
%ADD190P,0.08443X8X292.5*%
%ADD191C,0.10800*%
%ADD192C,0.06600*%
%ADD193C,0.13850*%
%ADD194O,0.06800X0.12800*%
%ADD195C,0.06706*%
%ADD196R,0.06706X0.06706*%
%ADD197O,0.12800X0.06800*%
%ADD198C,0.03000*%
%ADD199C,0.01000*%
G36*
X24384Y369414D02*
X22416D01*
Y371087D01*
X24384D01*
Y369414D01*
D02*
G37*
G36*
X397146Y369079D02*
X395472D01*
Y371047D01*
X397146D01*
Y369079D01*
D02*
G37*
G36*
X146352Y348785D02*
X145368D01*
Y335399D01*
X128832D01*
Y348785D01*
X127848D01*
Y352821D01*
X146352D01*
Y348785D01*
D02*
G37*
G36*
X106252D02*
X105268D01*
Y335399D01*
X88732D01*
Y348785D01*
X87748D01*
Y352821D01*
X106252D01*
Y348785D01*
D02*
G37*
G36*
X66402D02*
X65417D01*
Y335399D01*
X48882D01*
Y348785D01*
X47898D01*
Y352821D01*
X66402D01*
Y348785D01*
D02*
G37*
G36*
X11051Y330335D02*
X9378D01*
Y332303D01*
X11051D01*
Y330335D01*
D02*
G37*
G36*
X231902Y340785D02*
X230917D01*
Y327399D01*
X214382D01*
Y340785D01*
X213398D01*
Y344821D01*
X231902D01*
Y340785D01*
D02*
G37*
G36*
X300775Y320571D02*
X300813Y320560D01*
X300848Y320541D01*
X300878Y320516D01*
X303437Y317957D01*
X303462Y317927D01*
X303481Y317892D01*
X303492Y317854D01*
X303496Y317815D01*
Y315453D01*
X303492Y315414D01*
X303481Y315376D01*
X303462Y315341D01*
X303437Y315311D01*
X300878Y312752D01*
X300848Y312727D01*
X300813Y312708D01*
X300775Y312697D01*
X300736Y312693D01*
X293256D01*
X293217Y312697D01*
X293179Y312708D01*
X293144Y312727D01*
X293114Y312752D01*
X290535Y315330D01*
X290535Y315330D01*
X290524Y315344D01*
X290510Y315361D01*
X290498Y315384D01*
X290492Y315396D01*
X290480Y315433D01*
X290476Y315473D01*
X290476Y315473D01*
Y317795D01*
X290480Y317834D01*
X290492Y317872D01*
X290510Y317907D01*
X290535Y317937D01*
X293114Y320516D01*
X293114Y320516D01*
X293130Y320530D01*
X293144Y320541D01*
X293179Y320560D01*
X293217Y320571D01*
X293256Y320575D01*
X300736D01*
X300775Y320571D01*
D02*
G37*
G36*
X47633Y257388D02*
X42928D01*
X42929Y257388D01*
X42928D01*
Y263179D01*
X47633D01*
Y257388D01*
D02*
G37*
G36*
X223953Y252284D02*
X153069Y252284D01*
X153069Y260256D01*
X223934D01*
X223953Y252284D01*
D02*
G37*
G36*
X234083Y179882D02*
X232153D01*
X225913Y179867D01*
X225913Y250748D01*
X234083Y250748D01*
Y179882D01*
D02*
G37*
G36*
X151012Y179279D02*
X142842Y179279D01*
Y250144D01*
X151012Y250163D01*
X151012Y179279D01*
D02*
G37*
G36*
X223931Y177284D02*
X223931Y169213D01*
X153066D01*
X153047Y177284D01*
X223931Y177284D01*
D02*
G37*
G36*
X388187Y31816D02*
X386514D01*
Y33784D01*
X388187D01*
Y31816D01*
D02*
G37*
G36*
X34484Y9213D02*
X32516D01*
Y10886D01*
X34484D01*
Y9213D01*
D02*
G37*
G54D111*
X19146Y119566D02*
X19063Y120570D01*
X18815Y121547D01*
X18411Y122470D01*
X17859Y123314D01*
X17177Y124055D01*
X16382Y124674D01*
X15495Y125154D01*
X14542Y125481D01*
X13548Y125647D01*
X12540D01*
X11546Y125481D01*
X10593Y125154D01*
X9706Y124674D01*
X8911Y124055D01*
X8228Y123314D01*
X7677Y122470D01*
X7272Y121547D01*
X7025Y120570D01*
X6941Y119566D01*
X7025Y118561D01*
X7272Y117584D01*
X7677Y116661D01*
X8228Y115817D01*
X8911Y115076D01*
X9706Y114457D01*
X10593Y113977D01*
X11546Y113650D01*
X12540Y113484D01*
X13548D01*
X14542Y113650D01*
X15495Y113977D01*
X16382Y114457D01*
X17177Y115076D01*
X17859Y115817D01*
X18411Y116661D01*
X18815Y117584D01*
X19063Y118561D01*
X19146Y119566D01*
X221602Y144300D02*
X221519Y145304D01*
X221272Y146281D01*
X220867Y147204D01*
X220316Y148048D01*
X219633Y148790D01*
X218838Y149409D01*
X217951Y149888D01*
X216998Y150216D01*
X216004Y150382D01*
X214996D01*
X214002Y150216D01*
X213049Y149888D01*
X212162Y149409D01*
X211367Y148790D01*
X210684Y148048D01*
X210133Y147204D01*
X209728Y146281D01*
X209481Y145304D01*
X209398Y144300D01*
X209481Y143296D01*
X209728Y142319D01*
X210133Y141396D01*
X210684Y140552D01*
X211367Y139810D01*
X212162Y139191D01*
X213049Y138712D01*
X214002Y138384D01*
X214996Y138218D01*
X216004D01*
X216998Y138384D01*
X217951Y138712D01*
X218838Y139191D01*
X219633Y139810D01*
X220316Y140552D01*
X220867Y141396D01*
X221272Y142319D01*
X221519Y143296D01*
X221602Y144300D01*
X43002Y310500D02*
X42919Y311504D01*
X42672Y312481D01*
X42267Y313404D01*
X41716Y314248D01*
X41033Y314990D01*
X40238Y315609D01*
X39351Y316088D01*
X38398Y316416D01*
X37404Y316582D01*
X36396D01*
X35402Y316416D01*
X34449Y316088D01*
X33562Y315609D01*
X32767Y314990D01*
X32084Y314248D01*
X31533Y313404D01*
X31128Y312481D01*
X30881Y311504D01*
X30798Y310500D01*
X30881Y309496D01*
X31128Y308519D01*
X31533Y307596D01*
X32084Y306752D01*
X32767Y306010D01*
X33562Y305391D01*
X34449Y304912D01*
X35402Y304584D01*
X36396Y304418D01*
X37404D01*
X38398Y304584D01*
X39351Y304912D01*
X40238Y305391D01*
X41033Y306010D01*
X41716Y306752D01*
X42267Y307596D01*
X42672Y308519D01*
X42919Y309496D01*
X43002Y310500D01*
G54D112*
X243109Y278051D02*
D03*
G54D113*
X114161Y129469D02*
D03*
Y132225D02*
D03*
X110913Y129469D02*
D03*
Y132225D02*
D03*
X99496Y129567D02*
D03*
Y132323D02*
D03*
X314004Y214291D02*
D03*
Y211536D02*
D03*
X277783Y214488D02*
D03*
Y211732D02*
D03*
G54D114*
X95973Y131142D02*
D03*
X92183D02*
D03*
X151839Y161260D02*
D03*
X155628D02*
D03*
X387000Y102348D02*
D03*
X383210D02*
D03*
X31181Y125295D02*
D03*
X34971D02*
D03*
X325854Y394685D02*
D03*
X322065D02*
D03*
X246710Y306848D02*
D03*
X250500D02*
D03*
X138491Y183198D02*
D03*
X134702D02*
D03*
X336447Y106004D02*
D03*
X332658D02*
D03*
X240000Y249400D02*
D03*
X236210D02*
D03*
X137800Y203248D02*
D03*
X134010D02*
D03*
X90800Y235400D02*
D03*
X94590D02*
D03*
X104000D02*
D03*
X100210D02*
D03*
X235824Y240866D02*
D03*
X239614D02*
D03*
X336447Y112697D02*
D03*
X332658D02*
D03*
X230015Y161426D02*
D03*
X233805D02*
D03*
X233814Y165399D02*
D03*
X230024D02*
D03*
X229995Y153946D02*
D03*
X233785D02*
D03*
X287306Y213888D02*
D03*
X283516D02*
D03*
X276052Y166522D02*
D03*
X272262D02*
D03*
X223100Y286400D02*
D03*
X226890D02*
D03*
X138305Y175413D02*
D03*
X142095D02*
D03*
X36000Y188448D02*
D03*
X39790D02*
D03*
X36000Y184348D02*
D03*
X39790D02*
D03*
X35101Y160748D02*
D03*
X38891D02*
D03*
X38900Y148548D02*
D03*
X35110D02*
D03*
X38900Y152548D02*
D03*
X35110D02*
D03*
X297596Y213859D02*
D03*
X301385D02*
D03*
X54314Y299594D02*
D03*
X58104D02*
D03*
X54316Y303700D02*
D03*
X58105D02*
D03*
X108856Y328366D02*
D03*
X112646D02*
D03*
X68203Y327092D02*
D03*
X71993D02*
D03*
X58133Y307690D02*
D03*
X54343D02*
D03*
X64100Y257300D02*
D03*
X67890D02*
D03*
X64100Y261700D02*
D03*
X67890D02*
D03*
X119600Y259000D02*
D03*
X123390D02*
D03*
X119500Y253500D02*
D03*
X123290D02*
D03*
X130600Y234300D02*
D03*
X126810D02*
D03*
X208900Y311648D02*
D03*
X205110D02*
D03*
X259600Y275548D02*
D03*
X263390D02*
D03*
X271227Y201181D02*
D03*
X267437D02*
D03*
X271248Y213760D02*
D03*
X267458D02*
D03*
X263075Y200603D02*
D03*
X259286D02*
D03*
X49700Y320600D02*
D03*
X53490D02*
D03*
X310136Y201046D02*
D03*
X306346D02*
D03*
X297242Y201398D02*
D03*
X301031D02*
D03*
X287294Y201515D02*
D03*
X283504D02*
D03*
X36600Y98948D02*
D03*
X40390D02*
D03*
X47500Y113648D02*
D03*
X43710D02*
D03*
X188500Y118748D02*
D03*
X192290D02*
D03*
X116300Y118848D02*
D03*
X120090D02*
D03*
X14269Y140866D02*
D03*
X18059D02*
D03*
X43700Y117748D02*
D03*
X47490D02*
D03*
X261873Y213554D02*
D03*
X258083D02*
D03*
X212900Y311448D02*
D03*
X216690D02*
D03*
X188300Y277300D02*
D03*
X192090D02*
D03*
X182900Y277200D02*
D03*
X179110D02*
D03*
X267452Y157870D02*
D03*
X263662D02*
D03*
X260700Y118748D02*
D03*
X264490D02*
D03*
X264500Y114548D02*
D03*
X260710D02*
D03*
X264500Y106348D02*
D03*
X260710D02*
D03*
X253200Y99148D02*
D03*
X256990D02*
D03*
X323552Y213216D02*
D03*
X319762D02*
D03*
X321442Y201048D02*
D03*
X317652D02*
D03*
X286967Y157894D02*
D03*
X283177D02*
D03*
X332647Y116043D02*
D03*
X336437D02*
D03*
X333442Y205335D02*
D03*
X337232D02*
D03*
X337262Y209173D02*
D03*
X333472D02*
D03*
X333462Y201398D02*
D03*
X337252D02*
D03*
X355706Y204449D02*
D03*
X359496D02*
D03*
X359506Y208386D02*
D03*
X355716D02*
D03*
X355706Y200413D02*
D03*
X359496D02*
D03*
X325400Y99148D02*
D03*
X329190D02*
D03*
X47500Y105748D02*
D03*
X43710D02*
D03*
X120100Y114748D02*
D03*
X116310D02*
D03*
X120200Y106648D02*
D03*
X116410D02*
D03*
X108900Y99048D02*
D03*
X112690D02*
D03*
X192300Y114648D02*
D03*
X188510D02*
D03*
X192400Y106548D02*
D03*
X188610D02*
D03*
X181200Y99048D02*
D03*
X184990D02*
D03*
X40156Y281414D02*
D03*
X36366D02*
D03*
X55314Y284264D02*
D03*
X59104D02*
D03*
X310174Y213822D02*
D03*
X306384D02*
D03*
X316514Y396850D02*
D03*
X312724D02*
D03*
X312435Y392818D02*
D03*
X308645D02*
D03*
X239000Y306948D02*
D03*
X242790D02*
D03*
G54D115*
X94870Y127106D02*
D03*
X92114D02*
D03*
X263386Y269114D02*
D03*
X260630D02*
D03*
X298130Y269606D02*
D03*
X300886D02*
D03*
X344488Y270197D02*
D03*
X341732D02*
D03*
X367154Y213701D02*
D03*
X364398D02*
D03*
G54D116*
X61701Y154567D02*
D03*
X65244D02*
D03*
X72232Y133012D02*
D03*
X68689D02*
D03*
G54D117*
X181976Y162717D02*
D03*
Y166506D02*
D03*
X162784Y166595D02*
D03*
Y162805D02*
D03*
X395700Y99648D02*
D03*
Y95858D02*
D03*
X395600Y88048D02*
D03*
Y91838D02*
D03*
X400000Y88058D02*
D03*
Y91848D02*
D03*
X399900Y95848D02*
D03*
Y99638D02*
D03*
X225100Y269338D02*
D03*
Y265548D02*
D03*
X258861Y144642D02*
D03*
Y148432D02*
D03*
X52016Y142391D02*
D03*
Y146181D02*
D03*
X60567Y140500D02*
D03*
Y144290D02*
D03*
X176779Y162923D02*
D03*
Y166713D02*
D03*
X64433Y140500D02*
D03*
Y144290D02*
D03*
X68300Y140500D02*
D03*
Y144290D02*
D03*
X56700Y144300D02*
D03*
Y140510D02*
D03*
X167803Y166408D02*
D03*
Y162618D02*
D03*
X213400Y269448D02*
D03*
Y265658D02*
D03*
X221000Y266848D02*
D03*
Y270638D02*
D03*
X217300Y271148D02*
D03*
Y267358D02*
D03*
X209693Y165680D02*
D03*
Y161890D02*
D03*
X182429Y266861D02*
D03*
Y263071D02*
D03*
X187875Y267887D02*
D03*
Y264097D02*
D03*
X171894Y166309D02*
D03*
Y162520D02*
D03*
X291683Y162170D02*
D03*
Y158381D02*
D03*
X368413Y394195D02*
D03*
Y390406D02*
D03*
X209400Y264048D02*
D03*
Y267838D02*
D03*
X69801Y335114D02*
D03*
Y338903D02*
D03*
X136000Y245600D02*
D03*
Y249390D02*
D03*
X129500Y258900D02*
D03*
Y262690D02*
D03*
Y253400D02*
D03*
Y249610D02*
D03*
X72100Y316700D02*
D03*
Y320490D02*
D03*
X53600Y316400D02*
D03*
Y312610D02*
D03*
X239319Y294655D02*
D03*
Y298445D02*
D03*
X150000Y331400D02*
D03*
Y327610D02*
D03*
X182400Y347900D02*
D03*
Y351690D02*
D03*
X182500Y343900D02*
D03*
Y340110D02*
D03*
X201400Y344400D02*
D03*
Y348190D02*
D03*
X109902Y335206D02*
D03*
Y338996D02*
D03*
X149900Y335200D02*
D03*
Y338990D02*
D03*
X244043Y294655D02*
D03*
Y298445D02*
D03*
X202452Y295355D02*
D03*
Y291565D02*
D03*
X177409Y271290D02*
D03*
Y267500D02*
D03*
X271652Y162412D02*
D03*
Y158622D02*
D03*
X267126Y99735D02*
D03*
Y95945D02*
D03*
X291661Y169833D02*
D03*
Y166043D02*
D03*
X339567Y99833D02*
D03*
Y96043D02*
D03*
X50984Y100030D02*
D03*
Y96240D02*
D03*
X123031Y100227D02*
D03*
Y96437D02*
D03*
X195079Y99951D02*
D03*
Y96161D02*
D03*
X52016Y133041D02*
D03*
Y136831D02*
D03*
X22567Y279679D02*
D03*
Y283469D02*
D03*
X347835Y382518D02*
D03*
Y386308D02*
D03*
Y390318D02*
D03*
Y394108D02*
D03*
X235000Y306848D02*
D03*
Y310638D02*
D03*
G54D118*
X366791Y100886D02*
D03*
X361555D02*
D03*
X283622Y100886D02*
D03*
X278386D02*
D03*
X144724Y100787D02*
D03*
X149961D02*
D03*
X66870Y100886D02*
D03*
X72106D02*
D03*
X162818Y273100D02*
D03*
X157582D02*
D03*
X306535Y29331D02*
D03*
X311772D02*
D03*
X135605Y273093D02*
D03*
X130369D02*
D03*
X216870Y100787D02*
D03*
X222106D02*
D03*
X112842Y234607D02*
D03*
X107606D02*
D03*
G54D119*
X390115Y89408D02*
D03*
Y93148D02*
D03*
Y96888D02*
D03*
X379485D02*
D03*
Y89408D02*
D03*
G54D120*
X144600Y329661D02*
D03*
X139600D02*
D03*
X134600D02*
D03*
X129600D02*
D03*
X104500D02*
D03*
X99500D02*
D03*
X94500D02*
D03*
X89500D02*
D03*
X230150Y321661D02*
D03*
X225150D02*
D03*
X220150D02*
D03*
X215150D02*
D03*
X64650Y329661D02*
D03*
X59650D02*
D03*
X54650D02*
D03*
X49650D02*
D03*
G54D121*
X33500Y8110D02*
D03*
Y11900D02*
D03*
X23400Y372190D02*
D03*
Y368400D02*
D03*
G54D122*
X389290Y32800D02*
D03*
X385500D02*
D03*
X12154Y331319D02*
D03*
X8364D02*
D03*
X398248Y370063D02*
D03*
X394458D02*
D03*
X61028Y233776D02*
D03*
X64818D02*
D03*
G54D123*
X255100Y325812D02*
D03*
Y346284D02*
D03*
X279700Y275864D02*
D03*
Y296336D02*
D03*
G54D124*
X8269Y147146D02*
D03*
G54D125*
X12796Y146359D02*
D03*
G54D126*
X17324Y147245D02*
D03*
G54D127*
X8859Y188190D02*
D03*
G54D128*
X19056Y188387D02*
D03*
G54D129*
X23190Y153642D02*
D03*
Y157973D02*
D03*
Y162304D02*
D03*
Y166635D02*
D03*
Y170965D02*
D03*
Y175296D02*
D03*
Y179627D02*
D03*
Y183958D02*
D03*
G54D130*
X380362Y359547D02*
D03*
X396136D02*
D03*
X196274Y362448D02*
D03*
X180500D02*
D03*
X399600Y110648D02*
D03*
X383826D02*
D03*
G54D131*
X265354Y152776D02*
D03*
Y147776D02*
D03*
Y142776D02*
D03*
Y137776D02*
D03*
X286614Y152776D02*
D03*
Y147776D02*
D03*
Y142776D02*
D03*
Y137776D02*
D03*
G54D132*
X398937Y5551D02*
D03*
X391063D02*
D03*
X385551Y11063D02*
D03*
Y18937D02*
D03*
X391063Y24449D02*
D03*
X398937D02*
D03*
X404449Y18937D02*
D03*
Y11063D02*
D03*
X24449D02*
D03*
Y18937D02*
D03*
X18937Y24449D02*
D03*
X11063D02*
D03*
X5551Y18937D02*
D03*
Y11063D02*
D03*
X11063Y5551D02*
D03*
X18937D02*
D03*
X24449Y386063D02*
D03*
Y393937D02*
D03*
X18937Y399449D02*
D03*
X11063D02*
D03*
X5551Y393937D02*
D03*
Y386063D02*
D03*
X11063Y380551D02*
D03*
X18937D02*
D03*
X404449Y386063D02*
D03*
Y393937D02*
D03*
X398937Y399449D02*
D03*
X391063D02*
D03*
X385551Y393937D02*
D03*
Y386063D02*
D03*
X391063Y380551D02*
D03*
X398937D02*
D03*
G54D133*
X195900Y301092D02*
D03*
Y285108D02*
D03*
X190900Y301092D02*
D03*
Y285108D02*
D03*
X185900Y301092D02*
D03*
Y285108D02*
D03*
X180900Y301092D02*
D03*
Y285108D02*
D03*
X175900Y301092D02*
D03*
Y285108D02*
D03*
G54D134*
X257065Y293060D02*
D03*
G54D135*
X255096Y295619D02*
D03*
X257065D02*
D03*
X259033D02*
D03*
Y290501D02*
D03*
X257065D02*
D03*
X255096D02*
D03*
G54D136*
X222949Y256246D02*
D03*
X220980D02*
D03*
X219012D02*
D03*
X217043D02*
D03*
X215075D02*
D03*
X213106D02*
D03*
X211138D02*
D03*
X209169D02*
D03*
X207201D02*
D03*
X205232D02*
D03*
X203264D02*
D03*
X201295D02*
D03*
X199327D02*
D03*
X197358D02*
D03*
X195390D02*
D03*
X193421D02*
D03*
X191453D02*
D03*
X189484D02*
D03*
X187516D02*
D03*
X185547D02*
D03*
X183579D02*
D03*
X181610D02*
D03*
X179642D02*
D03*
X177673D02*
D03*
X175705D02*
D03*
X173736D02*
D03*
X171768D02*
D03*
X169799D02*
D03*
X167831D02*
D03*
X165862D02*
D03*
X163894D02*
D03*
X161925D02*
D03*
X159957D02*
D03*
X157988D02*
D03*
X156020D02*
D03*
X154051D02*
D03*
Y173175D02*
D03*
X156020D02*
D03*
X157988D02*
D03*
X159957D02*
D03*
X161925D02*
D03*
X163894D02*
D03*
X165862D02*
D03*
X167831D02*
D03*
X169799D02*
D03*
X171768D02*
D03*
X173736D02*
D03*
X175705D02*
D03*
X177673D02*
D03*
X179642D02*
D03*
X181610D02*
D03*
X183579D02*
D03*
X185547D02*
D03*
X187516D02*
D03*
X189484D02*
D03*
X191453D02*
D03*
X193421D02*
D03*
X195390D02*
D03*
X197358D02*
D03*
X199327D02*
D03*
X201295D02*
D03*
X203264D02*
D03*
X205232D02*
D03*
X207201D02*
D03*
X209169D02*
D03*
X211138D02*
D03*
X213106D02*
D03*
X215075D02*
D03*
X217043D02*
D03*
X219012D02*
D03*
X220980D02*
D03*
X222949D02*
D03*
G54D137*
X146965Y249159D02*
D03*
Y247190D02*
D03*
Y245222D02*
D03*
Y243253D02*
D03*
Y241285D02*
D03*
Y239317D02*
D03*
Y237348D02*
D03*
Y235380D02*
D03*
Y233411D02*
D03*
Y231442D02*
D03*
Y229474D02*
D03*
Y227505D02*
D03*
Y225537D02*
D03*
Y223569D02*
D03*
Y221600D02*
D03*
Y219632D02*
D03*
Y217663D02*
D03*
Y215694D02*
D03*
Y213726D02*
D03*
Y211757D02*
D03*
Y209789D02*
D03*
Y207821D02*
D03*
Y205852D02*
D03*
Y203884D02*
D03*
Y201915D02*
D03*
Y199946D02*
D03*
Y197978D02*
D03*
Y196009D02*
D03*
Y194041D02*
D03*
Y192072D02*
D03*
Y190104D02*
D03*
Y188135D02*
D03*
Y186167D02*
D03*
Y184198D02*
D03*
Y182230D02*
D03*
Y180261D02*
D03*
X230035D02*
D03*
Y182230D02*
D03*
Y184198D02*
D03*
Y186167D02*
D03*
Y188135D02*
D03*
Y190104D02*
D03*
Y192072D02*
D03*
Y194041D02*
D03*
Y196009D02*
D03*
Y197978D02*
D03*
Y199946D02*
D03*
Y201915D02*
D03*
Y203884D02*
D03*
Y205852D02*
D03*
Y207821D02*
D03*
Y209789D02*
D03*
Y211757D02*
D03*
Y213726D02*
D03*
Y215694D02*
D03*
Y217663D02*
D03*
Y219632D02*
D03*
Y221600D02*
D03*
Y223569D02*
D03*
Y225537D02*
D03*
Y227505D02*
D03*
Y229474D02*
D03*
Y231442D02*
D03*
Y233411D02*
D03*
Y235380D02*
D03*
Y237348D02*
D03*
Y239317D02*
D03*
Y241285D02*
D03*
Y243253D02*
D03*
Y245222D02*
D03*
Y247190D02*
D03*
Y249159D02*
D03*
G54D138*
X144214Y287016D02*
D03*
X158781D02*
D03*
Y295677D02*
D03*
X144214D02*
D03*
G54D139*
X75488Y286600D02*
D03*
Y281600D02*
D03*
Y276600D02*
D03*
Y271600D02*
D03*
Y266600D02*
D03*
Y261600D02*
D03*
Y256600D02*
D03*
Y251600D02*
D03*
X111512Y286600D02*
D03*
Y281600D02*
D03*
Y276600D02*
D03*
Y271600D02*
D03*
Y266600D02*
D03*
Y261600D02*
D03*
Y256600D02*
D03*
Y251600D02*
D03*
G54D140*
X46678Y364700D02*
D03*
X41323D02*
D03*
X164523Y364700D02*
D03*
X169877D02*
D03*
X66877Y364700D02*
D03*
X61523D02*
D03*
X101822Y364700D02*
D03*
X107177D02*
D03*
X147177Y364699D02*
D03*
X141823D02*
D03*
X215722Y359148D02*
D03*
X221077D02*
D03*
G54D141*
X375000Y395000D02*
D03*
X30000Y371800D02*
D03*
G54D142*
X36300Y364700D02*
D03*
Y356366D02*
D03*
X225900Y364682D02*
D03*
Y356348D02*
D03*
X164976Y350198D02*
D03*
Y358531D02*
D03*
G54D143*
X14101Y290076D02*
D03*
X5768D02*
D03*
X14101Y277876D02*
D03*
X5768D02*
D03*
Y283976D02*
D03*
X14101D02*
D03*
X138200Y358900D02*
D03*
X146534D02*
D03*
X106634D02*
D03*
X98300D02*
D03*
X58100D02*
D03*
X66434D02*
D03*
G54D144*
X35000Y129248D02*
D03*
X31230D02*
D03*
X263200Y299100D02*
D03*
X259430D02*
D03*
X133400Y179356D02*
D03*
X137170D02*
D03*
X260400Y317848D02*
D03*
X264170D02*
D03*
X188500Y110648D02*
D03*
X192270D02*
D03*
X184470Y116448D02*
D03*
X180700D02*
D03*
X120070Y110848D02*
D03*
X116300D02*
D03*
X108500Y116048D02*
D03*
X112270D02*
D03*
X256670Y116948D02*
D03*
X252900D02*
D03*
X43600Y109748D02*
D03*
X47370D02*
D03*
X391611Y132852D02*
D03*
X395381D02*
D03*
X300200Y292823D02*
D03*
X296430D02*
D03*
X255300Y286900D02*
D03*
X259070D02*
D03*
X271244Y209716D02*
D03*
X267474D02*
D03*
X258081Y209476D02*
D03*
X261851D02*
D03*
X166604Y284862D02*
D03*
X170374D02*
D03*
X140370Y241600D02*
D03*
X136600D02*
D03*
X64200Y276600D02*
D03*
X67970D02*
D03*
X137370Y195448D02*
D03*
X133600D02*
D03*
X197900Y263648D02*
D03*
X201670D02*
D03*
X138270Y199348D02*
D03*
X134500D02*
D03*
X161600Y262800D02*
D03*
X157830D02*
D03*
X255270Y299200D02*
D03*
X251500D02*
D03*
X71494Y308687D02*
D03*
X67724D02*
D03*
X200900Y340000D02*
D03*
X204670D02*
D03*
X245500Y352648D02*
D03*
X249270D02*
D03*
X325856Y116043D02*
D03*
X329626D02*
D03*
X80177Y326476D02*
D03*
X83947D02*
D03*
X124105Y326575D02*
D03*
X120335D02*
D03*
X160450Y326300D02*
D03*
X164220D02*
D03*
X213279Y292547D02*
D03*
X209509D02*
D03*
X37160Y28600D02*
D03*
X40930D02*
D03*
X264470Y110548D02*
D03*
X260700D02*
D03*
X156800Y34548D02*
D03*
X160570D02*
D03*
X215647Y59961D02*
D03*
X219417D02*
D03*
X198031Y48622D02*
D03*
X194261D02*
D03*
X160500Y28700D02*
D03*
X156730D02*
D03*
X199600D02*
D03*
X203370D02*
D03*
X71258Y59961D02*
D03*
X75028D02*
D03*
X55020Y44291D02*
D03*
X51250D02*
D03*
X320571D02*
D03*
X324341D02*
D03*
X332647Y109350D02*
D03*
X336417D02*
D03*
X364004Y59961D02*
D03*
X360234D02*
D03*
X36100Y115648D02*
D03*
X39870D02*
D03*
X343962Y44252D02*
D03*
X340192D02*
D03*
X143534Y33957D02*
D03*
X139764D02*
D03*
X124409Y44390D02*
D03*
X120639D02*
D03*
X97200Y28800D02*
D03*
X100970D02*
D03*
X143864Y28775D02*
D03*
X140094D02*
D03*
X224900Y34348D02*
D03*
X228670D02*
D03*
X287891Y59961D02*
D03*
X291661D02*
D03*
X268012Y44291D02*
D03*
X264242D02*
D03*
X270500Y28800D02*
D03*
X266730D02*
D03*
X287288Y209754D02*
D03*
X283519D02*
D03*
X300984Y205549D02*
D03*
X297214D02*
D03*
X310178Y209590D02*
D03*
X306408D02*
D03*
X319770Y209074D02*
D03*
X323539D02*
D03*
X333492Y213110D02*
D03*
X337262D02*
D03*
X359512Y212474D02*
D03*
X355742D02*
D03*
X195304Y309607D02*
D03*
X191534D02*
D03*
X315185Y129941D02*
D03*
X311415D02*
D03*
X57906Y154448D02*
D03*
X54136D02*
D03*
X329939Y394685D02*
D03*
X333709D02*
D03*
X308709Y388878D02*
D03*
X312479D02*
D03*
X343778Y394488D02*
D03*
X340008D02*
D03*
G54D145*
X248816Y317648D02*
D03*
X238384D02*
D03*
X396897Y120952D02*
D03*
X386464D02*
D03*
G54D146*
X238800Y324271D02*
D03*
Y329625D02*
D03*
X279900Y308271D02*
D03*
Y313625D02*
D03*
X312205Y360807D02*
D03*
Y366161D02*
D03*
X243667Y97677D02*
D03*
Y103031D02*
D03*
X171465Y97776D02*
D03*
Y103130D02*
D03*
X99213Y97716D02*
D03*
Y103071D02*
D03*
X316142Y104154D02*
D03*
Y98799D02*
D03*
X142300Y171325D02*
D03*
Y165971D02*
D03*
X138287Y287185D02*
D03*
Y292539D02*
D03*
X164798Y290170D02*
D03*
Y295524D02*
D03*
X35900Y174625D02*
D03*
Y169271D02*
D03*
X134600Y223125D02*
D03*
Y217771D02*
D03*
X27264Y98110D02*
D03*
Y103465D02*
D03*
X134600Y213025D02*
D03*
Y207671D02*
D03*
G54D147*
X207660Y296812D02*
D03*
X211400D02*
D03*
X215140D02*
D03*
Y306851D02*
D03*
X211400D02*
D03*
X207660D02*
D03*
G54D148*
X31937Y331860D02*
D03*
Y339400D02*
D03*
X23600Y335600D02*
D03*
X168700Y343600D02*
D03*
X177037Y347400D02*
D03*
Y339860D02*
D03*
G54D149*
X221869Y291029D02*
D03*
X230531Y307171D02*
D03*
Y291029D02*
D03*
X221869Y307171D02*
D03*
G54D150*
X59746Y258706D02*
D03*
X53053D02*
D03*
Y261856D02*
D03*
X59746D02*
D03*
G54D151*
X46627Y258313D02*
D03*
Y260281D02*
D03*
X43971Y258313D02*
D03*
Y260281D02*
D03*
X46627Y262250D02*
D03*
X43971D02*
D03*
G54D152*
X358513Y385765D02*
D03*
Y394495D02*
D03*
X125200Y365900D02*
D03*
Y357169D02*
D03*
X172938Y351376D02*
D03*
Y360106D02*
D03*
X85400Y365900D02*
D03*
Y357169D02*
D03*
G54D153*
X239272Y271654D02*
D03*
X241240D02*
D03*
X243209D02*
D03*
X245177D02*
D03*
X247146D02*
D03*
Y284449D02*
D03*
X245177D02*
D03*
X243209D02*
D03*
X241240D02*
D03*
X239272D02*
D03*
G54D154*
X249606Y275098D02*
D03*
Y281004D02*
D03*
X236811D02*
D03*
Y275098D02*
D03*
G54D155*
X243209Y278051D02*
D03*
G54D156*
X351620Y65512D02*
D03*
X356974D02*
D03*
X300854Y304035D02*
D03*
X295500D02*
D03*
X290421Y304134D02*
D03*
X285067D02*
D03*
X282106Y88583D02*
D03*
X276752D02*
D03*
X164654Y88445D02*
D03*
X170008D02*
D03*
X209134Y88420D02*
D03*
X203779D02*
D03*
X166816Y65512D02*
D03*
X161462D02*
D03*
X92311Y88543D02*
D03*
X97665D02*
D03*
X137618Y88583D02*
D03*
X132264D02*
D03*
X94606Y65551D02*
D03*
X89252D02*
D03*
X134929Y65512D02*
D03*
X140284D02*
D03*
X305950Y65512D02*
D03*
X311305D02*
D03*
X108077Y243500D02*
D03*
X102723D02*
D03*
Y294100D02*
D03*
X108077D02*
D03*
X162889Y267755D02*
D03*
X157534D02*
D03*
X122471Y234948D02*
D03*
X117117D02*
D03*
X300977Y298036D02*
D03*
X295623D02*
D03*
X396158Y127752D02*
D03*
X390804D02*
D03*
X27123Y326700D02*
D03*
X32477D02*
D03*
X192477Y353800D02*
D03*
X187123D02*
D03*
X56777Y364700D02*
D03*
X51423D02*
D03*
X96977D02*
D03*
X91623D02*
D03*
X131723Y364700D02*
D03*
X137077D02*
D03*
X236799Y88543D02*
D03*
X242154D02*
D03*
X239061Y65512D02*
D03*
X233706D02*
D03*
X279376D02*
D03*
X284730D02*
D03*
X354153Y88484D02*
D03*
X348799D02*
D03*
X308723Y88448D02*
D03*
X314077D02*
D03*
X64803Y88386D02*
D03*
X59449D02*
D03*
X20067Y88543D02*
D03*
X25421D02*
D03*
X22362Y65551D02*
D03*
X17008D02*
D03*
X62677D02*
D03*
X68032D02*
D03*
X207132Y65512D02*
D03*
X212486D02*
D03*
X220677Y364699D02*
D03*
X215323D02*
D03*
G54D157*
X60532Y117224D02*
D03*
X81004D02*
D03*
X152165D02*
D03*
X131693D02*
D03*
X296654D02*
D03*
X276181D02*
D03*
X368898D02*
D03*
X348425D02*
D03*
X224311D02*
D03*
X203839D02*
D03*
G54D158*
X363507Y203413D02*
D03*
X370200D02*
D03*
X363450Y209051D02*
D03*
X370143D02*
D03*
X348945Y208681D02*
D03*
X342252D02*
D03*
X342350Y213996D02*
D03*
X349043D02*
D03*
G54D159*
X97529Y72539D02*
D03*
X86331D02*
D03*
X158541Y72500D02*
D03*
X169739D02*
D03*
X143421Y72559D02*
D03*
X132223D02*
D03*
X230785Y72500D02*
D03*
X241984D02*
D03*
X287750D02*
D03*
X276551D02*
D03*
X302992Y72461D02*
D03*
X314191D02*
D03*
X360055Y72559D02*
D03*
X348857D02*
D03*
X14087Y72539D02*
D03*
X25285D02*
D03*
X71079Y72559D02*
D03*
X59880D02*
D03*
X215567Y72461D02*
D03*
X204368D02*
D03*
G54D160*
X187072Y82264D02*
D03*
X42584D02*
D03*
X259316D02*
D03*
X331561D02*
D03*
X114828D02*
D03*
G54D161*
X175557Y75374D02*
D03*
Y77343D02*
D03*
Y79311D02*
D03*
Y81280D02*
D03*
Y83248D02*
D03*
Y85217D02*
D03*
Y87185D02*
D03*
Y89154D02*
D03*
X198588D02*
D03*
Y87185D02*
D03*
Y85217D02*
D03*
Y83248D02*
D03*
Y81280D02*
D03*
Y79311D02*
D03*
Y77343D02*
D03*
Y75374D02*
D03*
X54100D02*
D03*
Y77343D02*
D03*
Y79311D02*
D03*
Y81280D02*
D03*
Y83248D02*
D03*
Y85217D02*
D03*
Y87185D02*
D03*
Y89154D02*
D03*
X31069D02*
D03*
Y87185D02*
D03*
Y85217D02*
D03*
Y83248D02*
D03*
Y81280D02*
D03*
Y79311D02*
D03*
Y77343D02*
D03*
Y75374D02*
D03*
X247801D02*
D03*
Y77343D02*
D03*
Y79311D02*
D03*
Y81280D02*
D03*
Y83248D02*
D03*
Y85217D02*
D03*
Y87185D02*
D03*
Y89154D02*
D03*
X270832D02*
D03*
Y87185D02*
D03*
Y85217D02*
D03*
Y83248D02*
D03*
Y81280D02*
D03*
Y79311D02*
D03*
Y77343D02*
D03*
Y75374D02*
D03*
X343076D02*
D03*
Y77343D02*
D03*
Y79311D02*
D03*
Y81280D02*
D03*
Y83248D02*
D03*
Y85217D02*
D03*
Y87185D02*
D03*
Y89154D02*
D03*
X320045D02*
D03*
Y87185D02*
D03*
Y85217D02*
D03*
Y83248D02*
D03*
Y81280D02*
D03*
Y79311D02*
D03*
Y77343D02*
D03*
Y75374D02*
D03*
X103313D02*
D03*
Y77343D02*
D03*
Y79311D02*
D03*
Y81280D02*
D03*
Y83248D02*
D03*
Y85217D02*
D03*
Y87185D02*
D03*
Y89154D02*
D03*
X126344D02*
D03*
Y87185D02*
D03*
Y85217D02*
D03*
Y83248D02*
D03*
Y81280D02*
D03*
Y79311D02*
D03*
Y77343D02*
D03*
Y75374D02*
D03*
G54D162*
X178214Y91831D02*
D03*
X180183D02*
D03*
X182151D02*
D03*
X184120D02*
D03*
X186088D02*
D03*
X188057D02*
D03*
X190025D02*
D03*
X191994D02*
D03*
X193962D02*
D03*
X195931D02*
D03*
Y72697D02*
D03*
X193962D02*
D03*
X191994D02*
D03*
X190025D02*
D03*
X188057D02*
D03*
X186088D02*
D03*
X184120D02*
D03*
X182151D02*
D03*
X180183D02*
D03*
X178214D02*
D03*
X33726D02*
D03*
X35695D02*
D03*
X37663D02*
D03*
X39632D02*
D03*
X41600D02*
D03*
X43569D02*
D03*
X45537D02*
D03*
X47506D02*
D03*
X49474D02*
D03*
X51442D02*
D03*
Y91831D02*
D03*
X49474D02*
D03*
X47506D02*
D03*
X45537D02*
D03*
X43569D02*
D03*
X41600D02*
D03*
X39632D02*
D03*
X37663D02*
D03*
X35695D02*
D03*
X33726D02*
D03*
X250458D02*
D03*
X252427D02*
D03*
X254395D02*
D03*
X256364D02*
D03*
X258332D02*
D03*
X260301D02*
D03*
X262269D02*
D03*
X264238D02*
D03*
X266206D02*
D03*
X268175D02*
D03*
Y72697D02*
D03*
X266206D02*
D03*
X264238D02*
D03*
X262269D02*
D03*
X260301D02*
D03*
X258332D02*
D03*
X256364D02*
D03*
X254395D02*
D03*
X252427D02*
D03*
X250458D02*
D03*
X322702D02*
D03*
X324671D02*
D03*
X326639D02*
D03*
X328608D02*
D03*
X330576D02*
D03*
X332545D02*
D03*
X334513D02*
D03*
X336482D02*
D03*
X338450D02*
D03*
X340419D02*
D03*
Y91831D02*
D03*
X338450D02*
D03*
X336482D02*
D03*
X334513D02*
D03*
X332545D02*
D03*
X330576D02*
D03*
X328608D02*
D03*
X326639D02*
D03*
X324671D02*
D03*
X322702D02*
D03*
X105970D02*
D03*
X107939D02*
D03*
X109907D02*
D03*
X111876D02*
D03*
X113844D02*
D03*
X115813D02*
D03*
X117781D02*
D03*
X119750D02*
D03*
X121718D02*
D03*
X123687D02*
D03*
Y72697D02*
D03*
X121718D02*
D03*
X119750D02*
D03*
X117781D02*
D03*
X115813D02*
D03*
X113844D02*
D03*
X111876D02*
D03*
X109907D02*
D03*
X107939D02*
D03*
X105970D02*
D03*
G54D163*
X35048Y277805D02*
D03*
X27961Y275837D02*
D03*
Y279774D02*
D03*
G54D164*
X22555Y292361D02*
D03*
Y287361D02*
D03*
X48342Y292361D02*
D03*
Y287361D02*
D03*
G54D165*
X52346Y242059D02*
D03*
Y236823D02*
D03*
X133295Y165807D02*
D03*
Y171043D02*
D03*
X364500Y33836D02*
D03*
Y28600D02*
D03*
X354500Y33836D02*
D03*
Y28600D02*
D03*
X344500Y33836D02*
D03*
Y28600D02*
D03*
X334500Y33836D02*
D03*
Y28600D02*
D03*
X295000Y33836D02*
D03*
Y28600D02*
D03*
X285000Y33818D02*
D03*
Y28582D02*
D03*
X275000Y33836D02*
D03*
Y28600D02*
D03*
X195000Y33836D02*
D03*
Y28600D02*
D03*
X185000Y33836D02*
D03*
Y28600D02*
D03*
X175000Y33818D02*
D03*
Y28582D02*
D03*
X165000Y33836D02*
D03*
Y28600D02*
D03*
X135500Y33836D02*
D03*
Y28600D02*
D03*
X125500Y33900D02*
D03*
Y28664D02*
D03*
X115300Y33900D02*
D03*
Y28664D02*
D03*
X105500Y33818D02*
D03*
Y28582D02*
D03*
X340400Y129866D02*
D03*
Y124630D02*
D03*
X65500Y33800D02*
D03*
Y28564D02*
D03*
X75300Y34318D02*
D03*
Y29082D02*
D03*
X55400Y34200D02*
D03*
Y28964D02*
D03*
X45500Y33818D02*
D03*
Y28582D02*
D03*
G54D166*
X70472Y55118D02*
D03*
Y43701D02*
D03*
X24437Y51201D02*
D03*
Y39783D02*
D03*
X61937Y55138D02*
D03*
Y43720D02*
D03*
X160461Y39882D02*
D03*
Y51299D02*
D03*
X169024D02*
D03*
Y39882D02*
D03*
X214988Y43622D02*
D03*
Y55039D02*
D03*
X206425D02*
D03*
Y43622D02*
D03*
X304949Y39882D02*
D03*
Y51299D02*
D03*
X313512D02*
D03*
Y39882D02*
D03*
X359378Y43720D02*
D03*
Y55138D02*
D03*
X350815D02*
D03*
Y43720D02*
D03*
X232643Y39724D02*
D03*
Y51142D02*
D03*
X241169Y51102D02*
D03*
Y39685D02*
D03*
X287232Y43720D02*
D03*
Y55138D02*
D03*
X278669D02*
D03*
Y43720D02*
D03*
X88118Y39783D02*
D03*
Y51201D02*
D03*
X96681D02*
D03*
Y39783D02*
D03*
X142717Y43701D02*
D03*
Y55118D02*
D03*
X134181Y55138D02*
D03*
Y43720D02*
D03*
X15945Y39764D02*
D03*
Y51181D02*
D03*
G54D167*
X356398Y357480D02*
D03*
Y370276D02*
D03*
X369488D02*
D03*
Y357480D02*
D03*
G54D168*
X321535Y362918D02*
D03*
X337135D02*
D03*
G54D169*
X266535Y375689D02*
D03*
X303937D02*
D03*
G54D170*
X332735Y382018D02*
D03*
G54D171*
X322400Y389518D02*
D03*
Y384518D02*
D03*
Y379518D02*
D03*
Y374518D02*
D03*
X343069Y389518D02*
D03*
Y384518D02*
D03*
Y379518D02*
D03*
Y374518D02*
D03*
G54D172*
X272094Y314862D02*
D03*
Y321949D02*
D03*
G54D173*
X286366Y310728D02*
D03*
Y322539D02*
D03*
G54D174*
X287154Y316634D02*
D03*
G54D175*
X257884Y314188D02*
D03*
X255916D02*
D03*
X253947D02*
D03*
X259853Y306708D02*
D03*
X257884D02*
D03*
X255916D02*
D03*
X253947D02*
D03*
X259853Y314188D02*
D03*
G54D176*
X256900Y310448D02*
D03*
G54D177*
X278079Y205630D02*
D03*
Y202087D02*
D03*
X105795Y132225D02*
D03*
Y128681D02*
D03*
G54D178*
X273721Y335236D02*
D03*
X286516D02*
D03*
X273721Y348327D02*
D03*
X286516D02*
D03*
G54D179*
X287452Y168195D02*
D03*
Y161502D02*
D03*
X282152Y161502D02*
D03*
Y168195D02*
D03*
X262252Y161776D02*
D03*
Y168468D02*
D03*
X267652Y168368D02*
D03*
Y161676D02*
D03*
G54D180*
X202400Y363800D02*
D03*
X211131D02*
D03*
X44100Y357700D02*
D03*
X52831D02*
D03*
X5361Y337026D02*
D03*
X14091D02*
D03*
X7869Y266200D02*
D03*
X16600D02*
D03*
G54D181*
X154100Y331660D02*
D03*
Y335400D02*
D03*
Y339140D02*
D03*
X164139D02*
D03*
Y335400D02*
D03*
Y331660D02*
D03*
X114035Y331594D02*
D03*
Y335335D02*
D03*
Y339075D02*
D03*
X124075D02*
D03*
Y335335D02*
D03*
Y331594D02*
D03*
X73878D02*
D03*
Y335335D02*
D03*
Y339075D02*
D03*
X83917D02*
D03*
Y335335D02*
D03*
Y331594D02*
D03*
X57708Y312047D02*
D03*
Y315787D02*
D03*
Y319528D02*
D03*
X67747D02*
D03*
Y315787D02*
D03*
Y312047D02*
D03*
X186780Y340560D02*
D03*
Y344300D02*
D03*
Y348040D02*
D03*
X196820D02*
D03*
Y344300D02*
D03*
Y340560D02*
D03*
G54D182*
X376600Y31600D02*
D03*
G54D183*
X298300Y277389D02*
D03*
Y287822D02*
D03*
G54D184*
X286697Y205724D02*
D03*
X283153D02*
D03*
X301539Y209574D02*
D03*
X297996D02*
D03*
X309547Y205369D02*
D03*
X306004D02*
D03*
X267163Y205496D02*
D03*
X270706D02*
D03*
X261703Y205117D02*
D03*
X258160D02*
D03*
X39372Y180241D02*
D03*
X35828D02*
D03*
X35028Y164748D02*
D03*
X38572D02*
D03*
Y140477D02*
D03*
X35028D02*
D03*
Y156648D02*
D03*
X38572D02*
D03*
Y144548D02*
D03*
X35028D02*
D03*
X317466Y205059D02*
D03*
X321010D02*
D03*
X348059Y200118D02*
D03*
X344516D02*
D03*
Y204252D02*
D03*
X348059D02*
D03*
X25750Y141053D02*
D03*
X22207D02*
D03*
X35828Y192448D02*
D03*
X39372D02*
D03*
G54D185*
X155300Y363374D02*
D03*
Y347600D02*
D03*
X115300Y347800D02*
D03*
Y363574D02*
D03*
X75400D02*
D03*
Y347800D02*
D03*
X40300Y332426D02*
D03*
Y348200D02*
D03*
X236700Y349748D02*
D03*
Y365522D02*
D03*
G54D186*
X184900Y102978D02*
D03*
Y106748D02*
D03*
X180700Y102948D02*
D03*
Y106718D02*
D03*
X166732Y103346D02*
D03*
Y99576D02*
D03*
X176378Y100227D02*
D03*
Y96457D02*
D03*
X193209Y66338D02*
D03*
Y62568D02*
D03*
X112700Y106848D02*
D03*
Y103078D02*
D03*
X108600Y106818D02*
D03*
Y103048D02*
D03*
X94390Y98002D02*
D03*
Y101772D02*
D03*
X104142Y96713D02*
D03*
Y100483D02*
D03*
X121000Y62548D02*
D03*
Y66318D02*
D03*
X377300Y51300D02*
D03*
Y47530D02*
D03*
Y68530D02*
D03*
Y72300D02*
D03*
X364413Y390395D02*
D03*
Y394165D02*
D03*
X339370Y66338D02*
D03*
Y62568D02*
D03*
X291554Y149189D02*
D03*
Y145419D02*
D03*
X257652Y161752D02*
D03*
Y165522D02*
D03*
X140200Y249300D02*
D03*
Y245530D02*
D03*
X147132Y169367D02*
D03*
Y165597D02*
D03*
X68000Y286470D02*
D03*
Y282700D02*
D03*
X118600Y282200D02*
D03*
Y285970D02*
D03*
X139400Y211518D02*
D03*
Y207748D02*
D03*
X139900Y226148D02*
D03*
Y222378D02*
D03*
X236708Y211100D02*
D03*
Y214870D02*
D03*
X222900Y162548D02*
D03*
Y166318D02*
D03*
X139900Y229948D02*
D03*
Y233718D02*
D03*
X216400Y166170D02*
D03*
Y162400D02*
D03*
X236600Y200100D02*
D03*
Y203870D02*
D03*
X205600Y263378D02*
D03*
Y267148D02*
D03*
X137626Y166033D02*
D03*
Y169803D02*
D03*
X265453Y66338D02*
D03*
Y62568D02*
D03*
X48720D02*
D03*
Y66338D02*
D03*
X47400Y196800D02*
D03*
Y200570D02*
D03*
X122736Y285980D02*
D03*
Y282210D02*
D03*
X151240Y169361D02*
D03*
Y165592D02*
D03*
X56960Y241495D02*
D03*
Y245265D02*
D03*
X56966Y237456D02*
D03*
Y233686D02*
D03*
X233200Y282148D02*
D03*
Y278378D02*
D03*
X60200Y28770D02*
D03*
Y32540D02*
D03*
X80100Y32470D02*
D03*
Y28700D02*
D03*
X70300Y28670D02*
D03*
Y32440D02*
D03*
X169900Y34409D02*
D03*
Y30639D02*
D03*
X180000Y32570D02*
D03*
Y28800D02*
D03*
X190000Y32470D02*
D03*
Y28700D02*
D03*
X248622Y100227D02*
D03*
Y96457D02*
D03*
X238976Y103445D02*
D03*
Y99675D02*
D03*
X30400Y28948D02*
D03*
Y32718D02*
D03*
X50500Y35200D02*
D03*
Y31430D02*
D03*
X329500Y28700D02*
D03*
Y32470D02*
D03*
X252800Y106918D02*
D03*
Y103148D02*
D03*
X257000Y106948D02*
D03*
Y103178D02*
D03*
X320832Y100384D02*
D03*
Y96614D02*
D03*
X311516Y104921D02*
D03*
Y101151D02*
D03*
X325100Y103148D02*
D03*
Y106918D02*
D03*
X329300Y103178D02*
D03*
Y106948D02*
D03*
X339500Y28600D02*
D03*
Y32370D02*
D03*
X349500D02*
D03*
Y28600D02*
D03*
X369500Y28700D02*
D03*
Y32470D02*
D03*
X359500Y32370D02*
D03*
Y28600D02*
D03*
X91240Y28513D02*
D03*
Y32283D02*
D03*
X110400Y35670D02*
D03*
Y31900D02*
D03*
X120400Y28830D02*
D03*
Y32600D02*
D03*
X130512Y28642D02*
D03*
Y32412D02*
D03*
X279900Y36570D02*
D03*
Y32800D02*
D03*
X290000Y32570D02*
D03*
Y28800D02*
D03*
X317717Y29065D02*
D03*
Y25295D02*
D03*
X300000Y32570D02*
D03*
Y28800D02*
D03*
X31890Y100424D02*
D03*
Y96654D02*
D03*
X22252Y99764D02*
D03*
Y95994D02*
D03*
X35800Y102948D02*
D03*
Y106718D02*
D03*
X39900Y102878D02*
D03*
Y106648D02*
D03*
X277952Y162248D02*
D03*
Y158478D02*
D03*
X72200Y140230D02*
D03*
Y144000D02*
D03*
X348177Y372736D02*
D03*
Y376506D02*
D03*
X316435Y388818D02*
D03*
Y392588D02*
D03*
X263600Y308578D02*
D03*
Y312348D02*
D03*
X279800Y321848D02*
D03*
Y318078D02*
D03*
G54D187*
X377063Y318248D02*
D03*
Y338248D02*
D03*
Y298248D02*
D03*
Y278248D02*
D03*
Y258248D02*
D03*
Y238248D02*
D03*
G54D188*
X311500Y285400D02*
D03*
X324900D02*
D03*
Y338400D02*
D03*
X311500D02*
D03*
X345100D02*
D03*
X358500D02*
D03*
Y285400D02*
D03*
X345100D02*
D03*
X398432Y202878D02*
D03*
X385032D02*
D03*
Y149878D02*
D03*
X398432D02*
D03*
G54D189*
X228000Y385200D02*
D03*
X208000D02*
D03*
X188000D02*
D03*
X168000D02*
D03*
X148000D02*
D03*
X128000D02*
D03*
X108000D02*
D03*
X88000D02*
D03*
X68000D02*
D03*
X48000D02*
D03*
G54D190*
X8600Y322400D02*
D03*
Y304600D02*
D03*
G54D191*
X18400Y327300D02*
D03*
Y299700D02*
D03*
G54D192*
X43600Y225000D02*
D03*
Y234921D02*
D03*
X35700D02*
D03*
Y225000D02*
D03*
G54D193*
X25000Y253622D02*
D03*
Y206300D02*
D03*
G54D194*
X275700Y230900D02*
D03*
X265700D02*
D03*
X255700D02*
D03*
X293000Y186300D02*
D03*
X303000D02*
D03*
X334500Y14500D02*
D03*
X344500D02*
D03*
X354500D02*
D03*
X364500D02*
D03*
X22400Y354500D02*
D03*
X12400D02*
D03*
X337800Y230900D02*
D03*
X347800D02*
D03*
X357800D02*
D03*
X296750D02*
D03*
X306750D02*
D03*
X316750D02*
D03*
X357800Y254900D02*
D03*
X347800D02*
D03*
X337800D02*
D03*
X316750D02*
D03*
X306750D02*
D03*
X296750D02*
D03*
X275700D02*
D03*
X265700D02*
D03*
X255700D02*
D03*
X365800Y186300D02*
D03*
X355800D02*
D03*
X334500D02*
D03*
X324500D02*
D03*
X271300D02*
D03*
X261300D02*
D03*
X305000Y14500D02*
D03*
X295000D02*
D03*
X285000D02*
D03*
X275000D02*
D03*
X246000D02*
D03*
X236000D02*
D03*
X226000D02*
D03*
X216000D02*
D03*
X195000D02*
D03*
X185000D02*
D03*
X175000D02*
D03*
X165000D02*
D03*
X135500D02*
D03*
X125500D02*
D03*
X115500D02*
D03*
X105500D02*
D03*
X75500D02*
D03*
X65500D02*
D03*
X55500D02*
D03*
X45500D02*
D03*
G54D195*
X80100Y140600D02*
D03*
Y150600D02*
D03*
X90100Y140600D02*
D03*
Y150600D02*
D03*
X100100Y140600D02*
D03*
Y150600D02*
D03*
X110100Y140600D02*
D03*
Y150600D02*
D03*
X120100Y140600D02*
D03*
Y150600D02*
D03*
X130100Y140600D02*
D03*
Y150600D02*
D03*
X140100Y140600D02*
D03*
Y150600D02*
D03*
X150100Y140600D02*
D03*
Y150600D02*
D03*
X160100Y140600D02*
D03*
Y150600D02*
D03*
X170100Y140600D02*
D03*
Y150600D02*
D03*
X180100Y140600D02*
D03*
Y150600D02*
D03*
X190100Y140600D02*
D03*
X203800Y320300D02*
D03*
X193800Y330300D02*
D03*
Y320300D02*
D03*
X183800Y330300D02*
D03*
Y320300D02*
D03*
X173800Y330300D02*
D03*
Y320300D02*
D03*
X314476Y155886D02*
D03*
X324476Y145886D02*
D03*
Y155886D02*
D03*
X334476Y145886D02*
D03*
Y155886D02*
D03*
X344476Y145886D02*
D03*
Y155886D02*
D03*
X354476Y145886D02*
D03*
Y155886D02*
D03*
X110300Y180300D02*
D03*
Y170300D02*
D03*
X100300Y180300D02*
D03*
Y170300D02*
D03*
X90300Y180300D02*
D03*
Y170300D02*
D03*
X80300Y180300D02*
D03*
Y170300D02*
D03*
X70300Y180300D02*
D03*
X110300Y217794D02*
D03*
Y207794D02*
D03*
X100300Y217794D02*
D03*
Y207794D02*
D03*
X90300Y217794D02*
D03*
Y207794D02*
D03*
X80300Y217794D02*
D03*
Y207794D02*
D03*
X70300Y217794D02*
D03*
G54D196*
X190100Y150600D02*
D03*
X203800Y330300D02*
D03*
X314476Y145886D02*
D03*
X70300Y170300D02*
D03*
Y207794D02*
D03*
G54D197*
X391800Y75500D02*
D03*
Y65500D02*
D03*
Y55500D02*
D03*
Y45500D02*
D03*
G54D198*
X137100Y346201D02*
D03*
Y350201D02*
D03*
Y342201D02*
D03*
Y338201D02*
D03*
X133100D02*
D03*
Y342201D02*
D03*
Y346201D02*
D03*
Y350201D02*
D03*
X141100D02*
D03*
Y346201D02*
D03*
Y342201D02*
D03*
Y338201D02*
D03*
X97000Y346201D02*
D03*
Y350201D02*
D03*
Y342201D02*
D03*
Y338201D02*
D03*
X93000D02*
D03*
Y342201D02*
D03*
Y346201D02*
D03*
Y350201D02*
D03*
X101000D02*
D03*
Y346201D02*
D03*
Y342201D02*
D03*
Y338201D02*
D03*
X222650D02*
D03*
Y342201D02*
D03*
Y334201D02*
D03*
Y330201D02*
D03*
X218650D02*
D03*
Y334201D02*
D03*
Y338201D02*
D03*
Y342201D02*
D03*
X226650D02*
D03*
Y338201D02*
D03*
Y334201D02*
D03*
Y330201D02*
D03*
X57150Y346201D02*
D03*
Y350201D02*
D03*
Y342201D02*
D03*
Y338201D02*
D03*
X53150D02*
D03*
Y342201D02*
D03*
Y346201D02*
D03*
Y350201D02*
D03*
X61150D02*
D03*
Y346201D02*
D03*
Y342201D02*
D03*
Y338201D02*
D03*
G54D199*
X180576Y77933D02*
D03*
X193569Y86595D02*
D03*
Y82264D02*
D03*
Y77933D02*
D03*
X189238Y86595D02*
D03*
Y82264D02*
D03*
Y77933D02*
D03*
X184907Y86595D02*
D03*
Y82264D02*
D03*
Y77933D02*
D03*
X180576Y86595D02*
D03*
Y82264D02*
D03*
X330569Y386349D02*
D03*
X334900D02*
D03*
X330569Y382018D02*
D03*
X334900D02*
D03*
X330569Y377687D02*
D03*
X334900D02*
D03*
X36088Y82264D02*
D03*
Y86595D02*
D03*
X40419Y77933D02*
D03*
Y82264D02*
D03*
Y86595D02*
D03*
X44750Y77933D02*
D03*
Y82264D02*
D03*
Y86595D02*
D03*
X49080Y77933D02*
D03*
Y82264D02*
D03*
Y86595D02*
D03*
X36088Y77933D02*
D03*
X252820D02*
D03*
X265813Y86595D02*
D03*
Y82264D02*
D03*
Y77933D02*
D03*
X261482Y86595D02*
D03*
Y82264D02*
D03*
Y77933D02*
D03*
X257151Y86595D02*
D03*
Y82264D02*
D03*
Y77933D02*
D03*
X252820Y86595D02*
D03*
Y82264D02*
D03*
X325065D02*
D03*
Y86595D02*
D03*
X329395Y77933D02*
D03*
Y82264D02*
D03*
Y86595D02*
D03*
X333726Y77933D02*
D03*
Y82264D02*
D03*
Y86595D02*
D03*
X338057Y77933D02*
D03*
Y82264D02*
D03*
Y86595D02*
D03*
X325065Y77933D02*
D03*
X108332D02*
D03*
X121324Y86595D02*
D03*
Y82264D02*
D03*
Y77933D02*
D03*
X116994Y86595D02*
D03*
Y82264D02*
D03*
Y77933D02*
D03*
X112663Y86595D02*
D03*
Y82264D02*
D03*
Y77933D02*
D03*
X108332Y86595D02*
D03*
Y82264D02*
D03*
M02*
