M48
;Layer_Color=9474304
;FILE_FORMAT=2:5
INCH,TZ
;TYPE=PLATED
T1F00S00C0.01000
T2F00S00C0.01500
T3F00S00C0.03543
T4F00S00C0.03800
T5F00S00C0.04000
T6F00S00C0.05500
T7F00S00C0.05900
T8F00S00C0.06300
T9F00S00C0.08700
;TYPE=NON_PLATED
T10F00S00C0.11811
T11F00S00C0.12992
%
T01
X36088Y77933
Y82264
X40419
Y77933
X44750
Y82264
Y86595
X40419
X36088
X49080
Y82264
Y77933
X108332
X112663
Y82264
X108332
Y86595
X112663
X116994
X121324
Y82264
Y77933
X116994
Y82264
X180576
Y77933
X184907
Y82264
X189238
Y77933
X193569
Y82264
Y86595
X189238
X184907
X180576
X252820
X257151
X261482
X265813
Y82264
Y77933
X261482
Y82264
X257151
Y77933
X252820
Y82264
X325065
X329395
Y77933
X325065
Y86595
X329395
X333726
Y82264
Y77933
X338057
Y82264
Y86595
X145100Y338201
Y342201
Y346201
Y350201
X141100
X137100
Y346201
Y342201
Y338201
X133100
X129100
Y342201
X133100
Y346201
X129100
Y350201
X133100
X141100Y346201
Y342201
Y338201
X105000
Y342201
Y346201
Y350201
X101000
X97000
Y346201
Y342201
Y338201
X93000
X89000
Y342201
X93000
Y346201
X89000
Y350201
X93000
X101000Y346201
Y342201
Y338201
X65150
Y342201
Y346201
Y350201
X61150
X57150
Y346201
Y342201
Y338201
X53150
X49150
Y342201
X53150
Y346201
X49150
Y350201
X53150
X61150Y346201
Y342201
Y338201
X214650
Y334201
Y330201
X218650
X222650
Y334201
Y338201
Y342201
X218650
Y338201
Y334201
X226650
Y338201
Y342201
X230650
Y338201
Y334201
Y330201
X226650
X214650Y342201
X254931Y310448
X258869
X308366Y360807
X330569Y377687
Y382018
Y386349
X334900
Y382018
Y377687
X340435Y370718
T02
X8000Y8000
X15000Y5000
Y25000
X8000Y22000
X8571Y29882
X10728Y34547
X5000Y15000
X15650Y55512
X13287Y63287
Y66339
X12303Y80905
X15256
X11122Y85335
X15362Y90315
X15264Y94350
X15354Y98622
X10728Y104232
X23032Y102314
X19094Y98228
X18898Y94440
X18996Y91634
X22736Y92618
X25500Y92579
X26409Y78307
X23456
X30316Y72982
X30413Y70079
X34786Y68529
X34949Y64921
Y61280
Y57638
X24705Y55512
X21654
X18647
X26083Y63287
Y66339
X45520Y66240
X44606Y62248
X48720Y59842
X48031Y69193
X54300Y70448
X54429Y73228
X58760Y78347
X61713
Y84252
X58740Y83917
X60042Y91881
X57187
X54528Y95079
X42423Y95916
X36911Y96507
X30618Y103801
X64093Y102640
Y99140
X67093Y97640
X71893
X74893Y99040
Y102540
X71893Y104040
X67093
X68012Y88386
X70965
X87504Y90897
X87540Y94587
X87598Y98622
X91441Y98869
X91240Y95079
Y92028
X94890Y92283
X97764
X98653Y78307
X95700
X87500Y80905
X84547
X78740Y73622
X85532Y66339
Y63287
X87894Y55512
X90891
X93898
X96949
X98327Y63287
Y66339
X102559Y70079
Y73032
X107185Y68405
Y64762
Y61119
Y57476
X117800Y62748
X117044Y66355
X120618Y68824
X126681Y70630
X126673Y73327
X131004Y78347
X133957
Y84252
X131004
X130020Y92028
X132972
X126772Y95079
X114670Y95916
X109252Y95768
X105400Y103948
X102559Y103939
X141905Y102640
Y99140
X144905Y97640
X149705
X152705Y99040
Y102540
X149705Y104040
X144905
X143904Y88534
X141043Y88583
X159751Y90897
X159843Y94587
X159949Y98583
X163984Y98771
X163549Y95039
Y91988
X167190Y92165
X170065
X170897Y78307
X167944
X159744Y80905
X156791
X151279Y73425
X157776Y66339
Y63287
X160244Y55472
X163135Y55512
X166142
X169193
X170571Y63287
Y66339
X143996Y66437
Y63386
X142224Y59500
X139173
X136167
X133169
X131299Y62992
X131209Y65610
X121000Y59948
X118504Y44685
X115204
X120500Y39300
Y36000
X130512Y35138
Y38438
X146260Y33957
X149560
X149953Y28740
X146653
X154000Y31848
X156791Y31890
X156700Y25500
Y22200
X168510Y25767
X170220Y28223
X153937Y8268
X120571Y8366
X110400Y25800
Y29000
X97200Y25400
Y22100
X91240Y22389
Y25689
X83500Y25700
Y28900
Y32100
X70200Y35300
Y38500
X59610
Y35300
X60566Y22605
X50900Y22100
X50700Y25148
X50600Y28600
X37900Y25500
X34400
X34260Y28898
X29700Y26000
X27200Y28500
X24200Y28948
X22000Y22000
X25000Y15000
X33600Y14800
X40453Y7874
X22000Y8000
X60532Y7874
X92913Y8268
X68701Y59500
X65650
X62643
X59648Y59301
X57488Y62854
X58965Y65512
X71752Y66437
Y63386
X48622Y44488
X45422Y44587
X180000Y39100
Y35800
X190000Y35200
X189969Y38445
X191535Y48622
X188235
X189181Y62165
X189909Y66142
X192520Y69193
X198631Y70718
X198917Y73425
X203248Y78347
X206201
Y84055
X203248
X204488Y91865
X201535
X199016Y95079
X186700Y95848
X181200Y96348
X177364Y103704
X174566Y103704
X174803Y73032
Y70079
X179536Y68651
X179634Y64626
X179535Y60886
X179646Y56906
X193209Y59941
X204154Y59465
X207132Y59500
X210138
X213189
X216240Y63386
Y66437
X203445Y66043
X203466Y63107
X230020Y63287
Y66339
X242815
Y63287
X241437Y55512
X238386
X235380
X232382
X251780Y57244
X251488Y61368
X251685Y65009
Y68760
X246535Y69579
Y72531
X243141Y78307
X240188
X231988Y80905
X229035
X223819Y75000
X215354Y88386
X212402
X214093Y99140
Y102640
X217093Y104040
X221893
X224893Y102540
Y99040
X221893Y97640
X217093
X232100Y98248
X232087Y94587
X232000Y90948
X235736Y92485
X236100Y95248
X236300Y98848
X239400Y92248
X242210Y92162
X253600Y96348
X259300Y96148
X271260Y95079
X274508Y91928
X277461
X278609Y97838
X275609Y99238
Y102738
X278609Y104138
X283409
X286409Y102638
Y99138
X283409Y97738
X285335Y88583
X288200Y88548
X278445Y84252
X275492
X275492Y78347
X278445
X271161Y73425
X271100Y70648
X265106Y68824
X262200Y66548
X262000Y62848
X265453Y59941
X276400Y59248
X279376Y59500
X282382
X285433
X288484Y63386
Y66437
X295768Y70965
X297736Y77953
Y80905
X304300Y90948
Y95148
X308037Y95039
Y91988
X311800Y93048
X314200Y91948
X308500Y98748
X304528Y98848
X319088Y105852
X321900Y105848
X325884Y95968
X325852Y68243
Y64565
X325886Y60922
Y57279
X313681Y55512
X310630
X307624
X304626
X302264Y63287
Y66339
X315059
Y63287
X318979Y70079
Y73032
X315385Y78307
X312432
X327113Y44488
X324114Y34163
X329500Y25400
Y22100
X317717Y22539
Y19239
X323425Y8071
X290256
X290111Y21355
X290000Y35306
X287697Y37598
X294980Y36713
Y39665
X293132Y45472
Y48425
X299680Y35225
X303543Y30709
Y27756
X280264Y26169
X280000Y29700
X263700Y28800
X260400
X252670Y28643
X241488Y28307
X230435Y28657
X219623Y28603
X219731Y36516
X222400Y36548
X209800Y28700
X206500
X207283Y17717
X261024Y8563
X269120Y21657
X274803Y44685
X272638Y46850
X261417Y44685
X258117
X275700Y63048
Y65748
X249600Y103848
X246810Y103805
X238976Y106102
X331300Y96048
X343504Y95079
X346555Y91929
X349508
X350689Y84252
X347736
X347736Y78347
X350689
X344000Y73248
X343260Y70758
X337008Y69193
X336221Y64665
X335500Y60948
X338900Y59248
X348772Y59340
X351620Y59500
X354626
X357677
X360728Y63386
Y66437
X347886Y65837
X347988Y62949
X349500Y38505
Y35205
X359500Y35402
Y38702
X369500Y38900
Y35600
X385600Y36200
X384700Y43000
X382700Y45500
X384800Y48000
X384700Y53000
X382700Y55500
X384800Y58000
X384700Y63000
X382700Y65500
X384800Y68000
X384700Y73000
X382700Y75500
X384800Y78000
X379485Y85833
X360335Y88484
X357382
X358778Y99238
Y102738
X361778Y104138
X366578
X369578Y102638
Y99138
X366578Y97738
X361778
X369783Y72146
X398800Y73000
X400900Y75500
X398900Y78000
Y68000
X400900Y65500
X398800Y63000
X398900Y58000
X400900Y55500
X398800Y53000
X398900Y48000
X400900Y45500
X398800Y43000
X399478Y38037
X395000Y25000
X402000Y22000
X405000Y15000
X402000Y8000
X395000Y5000
X388000Y8000
X385000Y15000
X388000Y22000
X349828Y21906
X349803Y7972
X339400Y34848
X342520Y38484
X337749Y44488
X334449
X330413
X393800Y93648
X400591Y103400
X403806Y103500
Y119000
X400481Y119752
X397306Y119000
X399581Y123052
Y126252
Y129452
Y132652
X397100Y135448
X396600Y139148
X400323Y140965
X393400Y141900
X390000Y139100
X390300Y135948
X387481Y132752
Y129452
Y126152
X382900Y124448
X382781Y121260
X391600Y120348
Y116348
Y112348
Y108348
X387600Y116148
X372700Y110548
X370100Y112875
X367700Y110748
X365200Y112848
X362295Y110848
X354471Y109895
X351332Y112794
X348271Y109895
X345132Y112794
X347700Y121648
X351900Y122048
X349600Y124548
X354500Y124448
X360335Y125000
X363500Y122248
X366400Y124048
X368900Y121448
X369100Y131148
X363400Y130948
X348800Y130548
X345400
X343400Y135348
X340200Y135248
X329900Y132700
X368600Y143348
X368700Y148548
X378100Y150200
X377900Y145900
X380000Y141800
X383300Y139100
X386740Y140965
X386665Y160600
X390000Y157956
X393400Y160656
X396583Y158681
X400100Y160656
X397394Y172278
X399739Y180270
X404600Y185200
X395009Y186142
X396766Y193650
X400000Y193701
X405217Y199555
Y202902
Y206248
X400098Y212106
X396752
X386698
X383352
X378248Y206201
Y202854
Y199508
X372560Y203413
X372764Y209051
X367646Y216654
X359575Y214980
X352193Y211145
X353079Y204449
X348158Y202185
X342350Y199921
X342153Y204255
X330933Y205335
X337331Y215571
X349043Y217343
X357794Y242925
X370177Y244488
X373650Y244606
X377067Y244488
X380413
X383760
X386516Y241732
X387894Y238189
X386614Y234646
X383949Y232008
X380504
X377059
X373713
X370366
Y252008
X373713
X377059
X380504
X383949
X386614Y254646
X387894Y258189
X386516Y261732
X397764Y221378
X386713Y193650
X383366
X382038Y186642
X381653Y171962
X380000Y160656
X383300Y157956
X378400Y155400
X372075Y195984
X330744Y242692
X328571Y255827
X326110Y222953
X323539Y215965
X322567Y206356
X314791Y209567
X312187Y207489
X310174Y216894
X295005Y213803
X295500Y208091
X288610Y205827
X287344Y216654
X274213Y214173
X274559Y210335
X272075Y207402
X278079
X277881Y200515
X264295Y203173
X264012Y207652
X262171Y216095
X271189Y219311
X241300Y219200
X241605Y224800
X244339Y227264
X239738Y229124
X236138Y229286
X235776Y236152
X239614Y236811
X242075Y233858
X239300Y213948
X237842Y207874
X236314Y197771
X238307Y195764
X223112Y195078
X219421Y195099
X219423Y188603
X219400Y184948
X220400Y179948
X214300Y180100
X214287Y183779
X210500Y184600
X206800Y184800
X206300Y181200
X207290Y162338
X207340Y158730
X213400Y161348
X213162Y166032
X219625Y164616
X219618Y161618
X223300Y160048
X229770Y157770
X233539Y157230
X232035Y150591
X235077Y148565
X239398Y138110
X224555Y144300
X206445
X205400Y134300
X199000Y133448
X200546Y124294
X203684Y121395
X206784Y124294
X209884Y121395
X220768Y121457
X223622Y124311
X229331
X226476Y121457
X226575Y112992
X223819Y110236
X221063Y112992
X218307Y110236
X209884Y109895
X206746Y112794
X203684Y109895
X200546Y112794
X184941Y112992
Y108858
X191535Y127559
X216634Y126279
X215500Y135245
Y153355
X230762Y168759
X235184Y178342
X223113Y188616
X223039Y201839
X219412Y201895
X215708Y201733
X212032Y201205
X212022Y209829
X215719Y209838
X219389Y209922
X223118Y209929
X215745Y215774
X212000Y219848
X206359Y215738
X200122Y220350
X198913Y207323
X192120Y212978
X192289Y200843
X185617Y194123
X176100Y196448
X177362Y185925
X189220Y166929
X188630Y163189
X183000Y159200
X257705Y159469
X258886Y151102
X270500Y145689
X272665Y141260
X277314Y142063
X279954Y139494
X280930Y147855
X276504Y151988
X275452Y158400
X275456Y162224
X278352Y167900
X282352Y171174
X287252Y170984
X291661Y172165
X299730Y165769
X302341Y162589
X302388Y158781
X297173Y161240
X304161Y168032
X291563Y151791
X291954Y142642
X297715Y143868
X295965Y124311
X301673
X298819Y121457
X293110
X289764Y125591
X282227Y121395
X279127Y124294
X276027Y121395
X272888Y124294
Y112794
X276027Y109895
X279088Y112794
X282227Y109895
X293307Y110335
X290650Y112992
X295965
X298622Y110335
X314469Y108071
X329429Y108858
X329085Y112648
X320669Y119095
X322300Y122648
X320669Y126181
X324902Y125295
X327095Y141260
X322567Y141162
X309968Y131417
X257185Y112992
Y108858
X244685Y120669
X257970Y169925
X256720Y173937
X262452Y171119
X267352
X278500Y182148
X257011Y197661
X216614Y226868
X208783Y229637
X216192Y238327
X220500Y235500
X220493Y242380
X211600Y247800
X206615Y249167
X206613Y245664
X201287Y246348
X201274Y242430
X201300Y238748
X194437Y238780
X194440Y242382
X194437Y246063
X182008Y246957
X182000Y243348
X182300Y250548
X226500Y257948
X229700Y255948
X279850Y246083
X171751Y246946
X171900Y242700
X161891Y243376
X161900Y247148
X162800Y238500
X156100Y235600
X153100Y235648
X153698Y232013
X157381Y232018
X156300Y222289
X153100Y222400
X153800Y217600
X153337Y211754
X156473Y211766
X156400Y201248
X152817Y201414
X153900Y184500
X157587Y184493
X164300Y183800
Y180100
X172701Y180087
X170374Y190453
X160169Y189493
X156020Y167657
X153800Y165800
X159818Y163274
X139693Y169606
X145008Y176693
X130800Y179156
X130224Y166299
X127171Y166294
X122871Y172109
X118100Y164300
X114700Y161800
X120500Y159600
X113353Y145659
X108354Y127894
X102744
X97626Y127697
X96457Y118602
X89075Y117224
X88779Y112992
X83268Y112992
X86024Y110236
X80512
X77756Y112992
X75000Y110236
X66577Y109895
X63439Y112794
X60377Y109895
X57239Y112794
X54331Y109843
X57185Y121358
X60039Y124213
X62894Y121358
X75787Y121457
X86701Y127795
X71000Y136900
X66100Y136848
X66425Y133012
X60600Y138148
X56900Y137800
X51819Y139469
X51900Y162100
X41400Y160448
X41000Y154348
X32500Y154948
Y149000
X30798Y141260
X23700Y145100
X22300Y136200
X22099Y119566
X32400Y106448
X40453Y108858
X40200Y112248
X38000Y127900
X32700Y167048
X27500Y170748
X30300Y180200
X32372Y185453
X30400Y189548
X24800Y190800
X18799Y192835
X42283Y190666
X42860Y206488
X34890Y206681
X49429Y210883
X60925Y230728
X60273Y237302
X60864Y242420
X56004Y249331
X68300Y247400
X68000Y251600
X78225Y247632
X78363Y239702
X66943Y235655
X93919Y232180
X97900Y231800
X107589Y237797
X112524Y238402
X116300Y238148
X111300Y243500
X111557Y248385
X123348Y248602
X132900Y249300
Y245500
X134000Y241600
X139500Y239248
X137211Y230766
X134330Y230800
X133600Y227000
X136400Y227148
X138800Y218700
X141200Y217248
X126831Y216823
X127800Y211600
X130900
X130635Y207800
X127594Y207794
X128660Y199343
X131700Y199348
X130800Y195800
X127760Y195794
X132438Y192209
X135275Y192232
X121900Y187000
X85400Y196148
X80500Y195100
X50900Y175800
X39372Y175148
X66425Y157520
X99417Y106949
X112697Y108858
X112606Y112697
X128400Y112794
X131539Y109895
X134600Y112794
X137739Y109895
X146161Y110236
X151673
X148917Y112992
X154429
X154331Y121457
X148622
X151476Y124311
X157185
X144454Y126048
X137739Y121395
X134639Y124294
X131539Y121395
X128400Y124294
X121839Y127795
X170283Y107146
X153000Y245222
X151130Y259350
X172385Y261811
X49200Y260281
X41400
X41900Y256581
X10270Y260205
X10334Y251633
X10249Y242861
Y233826
X10322Y224431
X10466Y215252
X10352Y206826
X9800Y193400
X14075Y194508
X5118Y197835
X12795Y172146
X15300Y150648
X14370Y136293
X9800Y135800
X13044Y128621
Y110511
X3989Y119566
X4800Y266200
X10776Y273425
X9078Y295182
X4500Y313900
X5200Y328900
Y333200
X10406Y337082
X10639Y365683
X15000Y380000
X8000Y383000
X5000Y390000
X8000Y397000
X15000Y400000
X22000Y397000
X25000Y390000
X22000Y383000
X20000Y368700
X37446Y372247
X45600Y369500
X47700Y356100
X41600Y357400
X32750Y350150
X28725Y347824
X31900Y336026
X36900Y319555
X23016Y318350
X27845Y310500
X27768Y292677
X28513Y286984
X18039Y283912
X17999Y277829
X22587Y275098
X27961Y272986
X25158Y268004
X33472Y268068
X35048Y274641
X41142Y270324
X41600Y263981
X46654Y275787
X48130Y280610
X52349Y281379
X59051Y288180
X65100Y286500
X64800Y282700
X61300Y276600
X60480Y300492
X60864Y304333
X62513Y307893
X67729Y306151
X71549Y306068
X82443Y306609
X95276Y307283
X94100Y299900
X110874Y293996
X119036Y288485
X122731Y288787
X125438Y294985
X119043Y300098
X126444Y306505
X133816Y300213
X138532Y297085
X133745Y291237
X128565Y284560
X129874Y276286
X127574Y274486
Y271586
X129973Y269886
X136100Y269900
X138400Y271700
Y274600
X136000Y276300
X145224Y271555
X148928Y271555
X145277Y264527
X145618Y282185
X149850Y285728
X158164Y282549
X157800Y276400
X165906Y275360
X165594Y271851
X165298Y267815
X164567Y282795
X163298Y286847
X170276Y287717
X170100Y281400
X173024Y296947
X173004Y300427
X172985Y304026
X168624Y300136
X150531Y300347
X140048Y311667
X140709Y325295
X137756
X134803
X131850
X128898
X131900Y329700
X137200Y329600
X144634Y325295
X154331Y324508
X160420Y329100
X164220Y329000
X164401Y321984
X165987Y318408
X164431Y314830
X160770Y314865
X164120Y342000
X159050Y355900
X154800Y369700
X154700Y381200
X154600Y385100
X154800Y389200
X157796Y397159
X138000Y396913
X141400Y389000
Y385100
Y381300
X141800Y369900
X124700Y368700
X123800Y362400
X123700Y353700
X118950Y355900
X123700Y344600
X120531Y339075
X117480Y326575
X123998Y321597
X104476Y325197
X100453Y325295
X97500
X94547
X91594
X88648Y325311
X92000Y329700
X96900Y329800
X84006Y321651
X75159Y320474
X76100Y316804
X77323Y326476
X64650Y324964
X60200Y325200
X56200
X52200
X48200
X47209Y329741
X52200Y329700
X57100
X50754Y317184
X51793Y307434
X51649Y303489
X51597Y299648
X51575Y295669
X45955Y310500
X36900Y301445
X40168Y284921
X17764Y290059
X18900Y265000
X76699Y290178
X76657Y294351
X62907Y315799
X80177Y338976
X83600Y344600
Y353700
X79100Y355900
X83900Y362200
X85200Y368900
X75423Y371097
X74700Y381200
X74600Y385100
X74800Y389200
X77309Y396371
X58005Y396837
X61400Y389000
Y385100
Y381300
X61554Y371009
X101800Y369900
X101400Y381300
Y385100
Y389000
X97716Y396711
X117888Y396597
X114800Y389200
X114600Y385100
X114700Y381200
X114800Y369700
X119036Y279430
X122674Y279322
X118585Y275826
X123081Y264622
X33265Y395808
X178153Y396878
X181400Y389000
Y385100
Y381300
X194700Y381200
X194600Y385100
X194800Y389200
X198386Y396663
X218005
X236499Y396265
X255559Y396457
X250939Y386221
Y375989
X250638Y366043
X246800Y358448
X251800Y355548
X250600Y346948
X245500Y349948
X259900Y349048
X260000Y343648
Y338548
X265700Y336848
X265200Y348148
X258300Y360048
X235100Y356148
X230000Y356048
X221100Y353948
X225000Y350000
X215000
X205800
X203800Y360200
X202400Y366800
X212000Y360048
X210000Y340000
X209900Y335200
X210000Y330000
X211900Y322900
Y320000
Y317100
X214940
X217980
X221020
X224060
X227100
X222700Y321600
X217500
X232743Y323882
X234500Y331348
X236200Y337348
Y343148
X242200Y329634
X249600Y328048
Y323448
X246200Y323248
X244900Y317948
X255804Y316919
X260100Y321148
X260000Y325448
Y329748
X266200Y319448
X270323Y311614
X270224Y308563
X273768
Y311811
X268800Y305248
X262890Y302429
X259300Y302300
X251900Y302448
X252200Y296100
X252400Y293100
X249500Y294600
X249600Y297848
X247159Y289707
X241975Y289765
X239121Y292029
X236516Y298524
X242700Y301745
X240500Y310048
X229672Y303053
X225144Y290946
X230900Y284600
X235600Y278253
X241043Y280217
X245374
Y275886
X241043
X241188Y268307
X237743Y270079
X245322Y266535
X250000Y266802
X250146Y270473
X250539Y278051
X261400Y284348
X263200Y287748
X261800Y290148
X261700Y293000
X261800Y296148
X286300Y296748
X283900Y300048
X290500Y300197
X292200Y296648
X293000Y292648
X284000Y293048
X286000Y288600
X285400Y280348
X285300Y276448
X291535Y277284
X291300Y284700
X304331Y284205
Y287453
Y280858
X306299Y277709
X311516Y276134
X317913Y276232
X324902
X318300Y293000
X318942Y298842
X305610Y298425
X303886Y304134
X301425Y310630
X298177Y310728
X294929Y310630
X294142Y322638
X297291Y322835
X300342Y322933
X306445Y325886
X306299Y330709
X304331Y333858
Y337205
Y340453
Y343701
X300126Y342736
X290059Y339075
Y335925
Y350295
Y353445
X293307
Y350295
X311516Y329134
X317913Y329232
X324902
X314349Y311901
X277700Y321248
X274100Y282200
Y278200
X274114Y273839
X267510Y274862
X221300Y274348
X217900Y276448
X214100Y276648
X215900Y272948
X211400Y273648
X209273Y270105
X205500Y270100
X205457Y272977
X201800Y269200
Y266100
X195848Y263648
X189709Y269587
X184617Y265992
X185700Y277148
X185862Y291825
X180926Y291825
X175900Y291800
X190878Y291795
X195904Y291875
X202500Y286400
X209495Y289855
X213275Y289876
X211366Y300095
X202508Y299508
X202523Y303176
X198768Y303642
X202603Y308467
X188386Y301083
X199745Y336663
X204700Y336600
X193178Y348040
X179419Y343401
X173863Y344263
X176563Y351614
X229700Y369648
X273768Y396260
X304969Y396063
X336957Y396654
X351031Y394193
X352213Y386221
X358418Y381895
X362316Y383092
X364413Y387795
X368413
X368379Y398244
X364379
X358479
X360236Y374016
X356398
X352658
X365748
X369488
X373327
X377705Y366339
X380756
X383807
X391658Y370063
X396110Y365846
X390402Y358268
X386516Y341732
X387894Y338189
X386614Y334646
X383949Y332008
X380504
X377059
X373713
X370366
X365687Y333858
Y337106
Y340453
Y343701
X370177Y344488
X373622
X377067
X380413
X383760
X373228Y353740
X369488
X365650
X360138
X356398
X352559
X338043Y343701
Y340457
Y337208
Y333862
X339899Y330709
X345116Y329134
X351513Y329232
X358502
X363521Y331004
X370177Y324488
X373622
X377067
X380413
X383760
X386516Y321732
X387894Y318189
X386614Y314646
X383949Y312008
X380504
X377059
X373713
X370366
X370177Y304488
X373622
X377067
X380413
X383760
X386516Y301732
X387894Y298189
X386614Y294646
X383949Y292008
X380504
X377059
X373713
X370366
X363500Y292700
X360000Y294500
X355300
X351900Y291800
X348300Y294500
X343500Y294400
X339500Y292300
X332087Y287453
Y284106
Y280858
X329921Y278004
X351700Y278200
X370177Y284488
X373622
X377067
X380413
X383760
X386516Y281732
X387894Y278189
X386614Y274646
X383949Y272008
X380504
X377059
X373713
X370366
X370177Y264488
X373622
X377067
X380413
X383760
X401000Y270448
X401100Y318948
X358662Y305446
X345922Y298811
X336911Y311878
X330067Y326181
X329921Y331004
X332087Y333858
Y337106
Y340453
Y343701
X388000Y383000
X395000Y380000
X402000Y383000
X405000Y390000
X402000Y397000
X395000Y400000
X388000Y397000
X385000Y390000
T03
X334476Y145886
Y155886
X344476
Y145886
X354476
Y155886
X324476
X314476
Y145886
X324476
X190100Y150600
X180100
Y140600
X190100
X170100
X160100
X150100
X140100
X130100
X120100
X110100
X100100
X90100
X80100
Y150600
X90100
X100100
X110100
X120100
X130100
X140100
X150100
X160100
X170100
X110300Y170300
Y180300
X100300
Y170300
X90300
Y180300
X80300
Y170300
X70300
Y180300
Y207794
X80300
X90300
X100300
X110300
Y217794
X100300
X90300
X80300
X70300
X173800Y320300
X183800
X193800
X203800
Y330300
X193800
X183800
X173800
T04
X35700Y225000
X43600
Y234921
X35700
T05
X45500Y14500
X55500
X65500
X75500
X105500
X115500
X125500
X135500
X165000
X175000
X185000
X195000
X216000
X226000
X236000
X246000
X275000
X285000
X295000
X305000
X334500
X344500
X354500
X364500
X391800Y45500
Y55500
Y65500
Y75500
X365800Y186300
X355800
X334500
X337800Y230900
X347800
X357800
Y254900
X347800
X337800
X316750
X306750
X296750
X275700
X265700
X255700
Y230900
X265700
X275700
X296750
X306750
X316750
X324500Y186300
X303000
X293000
X271300
X261300
X8600Y304600
Y322400
X12400Y354500
X22400
T06
X377063Y238248
Y258248
X168000Y385200
X148000
X128000
X108000
X88000
X68000
X48000
X188000
X208000
X228000
X377063Y338248
Y318248
Y298248
Y278248
T07
X18400Y299700
Y327300
T08
X385032Y149878
X398432
Y202878
X385032
X324900Y285400
X311500
Y338400
X324900
X345100
X358500
Y285400
X345100
T09
X25000Y206300
Y253622
T10
X15000Y15000
X395000
X15000Y390000
X395000
T11
X215500Y144300
X13044Y119566
X36900Y310500
M30
