G04*
G04 #@! TF.GenerationSoftware,Altium Limited,Altium Designer,18.1.7 (191)*
G04*
G04 Layer_Color=16711935*
%FSLAX25Y25*%
%MOIN*%
G70*
G01*
G75*
%ADD181C,0.06000*%
%ADD184O,0.06800X0.12800*%
%ADD185O,0.12800X0.06800*%
%ADD186C,0.06706*%
%ADD187R,0.06706X0.06706*%
G04:AMPARAMS|DCode=188|XSize=141mil|YSize=91mil|CornerRadius=0mil|HoleSize=0mil|Usage=FLASHONLY|Rotation=90.000|XOffset=0mil|YOffset=0mil|HoleType=Round|Shape=Octagon|*
%AMOCTAGOND188*
4,1,8,0.02275,0.07050,-0.02275,0.07050,-0.04550,0.04775,-0.04550,-0.04775,-0.02275,-0.07050,0.02275,-0.07050,0.04550,-0.04775,0.04550,0.04775,0.02275,0.07050,0.0*
%
%ADD188OCTAGOND188*%

%ADD189O,0.17300X0.09050*%
%ADD190O,0.09050X0.17300*%
%ADD191C,0.10800*%
%ADD192P,0.08443X8X292.5*%
%ADD193C,0.13850*%
%ADD194C,0.06600*%
%ADD195C,0.01000*%
%ADD301C,0.05800*%
%ADD336R,0.03543X0.07045*%
%ADD337R,0.07045X0.03543*%
G04:AMPARAMS|DCode=338|XSize=58mil|YSize=58mil|CornerRadius=29mil|HoleSize=0mil|Usage=FLASHONLY|Rotation=90.000|XOffset=0mil|YOffset=0mil|HoleType=Round|Shape=RoundedRectangle|*
%AMROUNDEDRECTD338*
21,1,0.05800,0.00000,0,0,90.0*
21,1,0.00000,0.05800,0,0,90.0*
1,1,0.05800,0.00000,0.00000*
1,1,0.05800,0.00000,0.00000*
1,1,0.05800,0.00000,0.00000*
1,1,0.05800,0.00000,0.00000*
%
%ADD338ROUNDEDRECTD338*%
G04:AMPARAMS|DCode=339|XSize=54mil|YSize=71mil|CornerRadius=15.5mil|HoleSize=0mil|Usage=FLASHONLY|Rotation=180.000|XOffset=0mil|YOffset=0mil|HoleType=Round|Shape=RoundedRectangle|*
%AMROUNDEDRECTD339*
21,1,0.05400,0.04000,0,0,180.0*
21,1,0.02300,0.07100,0,0,180.0*
1,1,0.03100,-0.01150,0.02000*
1,1,0.03100,0.01150,0.02000*
1,1,0.03100,0.01150,-0.02000*
1,1,0.03100,-0.01150,-0.02000*
%
%ADD339ROUNDEDRECTD339*%
G04:AMPARAMS|DCode=340|XSize=54mil|YSize=71mil|CornerRadius=15.5mil|HoleSize=0mil|Usage=FLASHONLY|Rotation=90.000|XOffset=0mil|YOffset=0mil|HoleType=Round|Shape=RoundedRectangle|*
%AMROUNDEDRECTD340*
21,1,0.05400,0.04000,0,0,90.0*
21,1,0.02300,0.07100,0,0,90.0*
1,1,0.03100,0.02000,0.01150*
1,1,0.03100,0.02000,-0.01150*
1,1,0.03100,-0.02000,-0.01150*
1,1,0.03100,-0.02000,0.01150*
%
%ADD340ROUNDEDRECTD340*%
G54D181*
X-326563Y-130197D02*
D03*
X-334437D02*
D03*
X-339949Y-124685D02*
D03*
Y-116811D02*
D03*
X-334437Y-111299D02*
D03*
X-326563D02*
D03*
X-321051Y-116811D02*
D03*
Y-124685D02*
D03*
X-326563Y244803D02*
D03*
X-334437D02*
D03*
X-339949Y250315D02*
D03*
Y258189D02*
D03*
X-334437Y263701D02*
D03*
X-326563D02*
D03*
X-321051Y258189D02*
D03*
Y250315D02*
D03*
X53437Y244803D02*
D03*
X45563D02*
D03*
X40051Y250315D02*
D03*
Y258189D02*
D03*
X45563Y263701D02*
D03*
X53437D02*
D03*
X58949Y258189D02*
D03*
Y250315D02*
D03*
X53437Y-130197D02*
D03*
X45563D02*
D03*
X40051Y-124685D02*
D03*
Y-116811D02*
D03*
X45563Y-111299D02*
D03*
X53437D02*
D03*
X58949Y-116811D02*
D03*
Y-124685D02*
D03*
G54D184*
X-323100Y218752D02*
D03*
X-333100D02*
D03*
X-7700Y95152D02*
D03*
X2300D02*
D03*
X12300D02*
D03*
X-48750D02*
D03*
X-38750D02*
D03*
X-28750D02*
D03*
X-89800D02*
D03*
X-79800D02*
D03*
X-69800D02*
D03*
X12300Y119152D02*
D03*
X2300D02*
D03*
X-7700D02*
D03*
X-28750D02*
D03*
X-38750D02*
D03*
X-48750D02*
D03*
X-69800D02*
D03*
X-79800D02*
D03*
X-89800D02*
D03*
X20300Y50552D02*
D03*
X10300D02*
D03*
X-11000D02*
D03*
X-21000D02*
D03*
X-42500D02*
D03*
X-52500D02*
D03*
X-74200D02*
D03*
X-84200D02*
D03*
X19000Y-121248D02*
D03*
X9000D02*
D03*
X-1000D02*
D03*
X-11000D02*
D03*
X-40500D02*
D03*
X-50500D02*
D03*
X-60500D02*
D03*
X-70500D02*
D03*
X-99500D02*
D03*
X-109500D02*
D03*
X-119500D02*
D03*
X-129500D02*
D03*
X-150500D02*
D03*
X-160500D02*
D03*
X-170500D02*
D03*
X-180500D02*
D03*
X-210000D02*
D03*
X-220000D02*
D03*
X-230000D02*
D03*
X-240000D02*
D03*
X-270000D02*
D03*
X-280000D02*
D03*
X-290000D02*
D03*
X-300000D02*
D03*
G54D185*
X46300Y-60248D02*
D03*
Y-70248D02*
D03*
Y-80248D02*
D03*
Y-90248D02*
D03*
G54D186*
X8976Y20138D02*
D03*
Y10138D02*
D03*
X-1024Y20138D02*
D03*
Y10138D02*
D03*
X-11024Y20138D02*
D03*
Y10138D02*
D03*
X-21024Y20138D02*
D03*
Y10138D02*
D03*
X-31024Y20138D02*
D03*
X-235200Y44552D02*
D03*
Y34552D02*
D03*
X-245200Y44552D02*
D03*
Y34552D02*
D03*
X-255200Y44552D02*
D03*
Y34552D02*
D03*
X-265200Y44552D02*
D03*
Y34552D02*
D03*
X-275200Y44552D02*
D03*
X-235200Y82046D02*
D03*
Y72046D02*
D03*
X-245200Y82046D02*
D03*
Y72046D02*
D03*
X-255200Y82046D02*
D03*
Y72046D02*
D03*
X-265200Y82046D02*
D03*
Y72046D02*
D03*
X-275200Y82046D02*
D03*
X-155400Y4852D02*
D03*
X-165400Y14852D02*
D03*
Y4852D02*
D03*
X-175400Y14852D02*
D03*
Y4852D02*
D03*
X-185400Y14852D02*
D03*
Y4852D02*
D03*
X-195400Y14852D02*
D03*
Y4852D02*
D03*
X-205400Y14852D02*
D03*
Y4852D02*
D03*
X-215400Y14852D02*
D03*
Y4852D02*
D03*
X-225400Y14852D02*
D03*
Y4852D02*
D03*
X-235400Y14852D02*
D03*
Y4852D02*
D03*
X-245400Y14852D02*
D03*
Y4852D02*
D03*
X-255400Y14852D02*
D03*
Y4852D02*
D03*
X-265400Y14852D02*
D03*
Y4852D02*
D03*
X-171700Y184552D02*
D03*
Y194552D02*
D03*
X-161700Y184552D02*
D03*
Y194552D02*
D03*
X-151700Y184552D02*
D03*
Y194552D02*
D03*
X-141700Y184552D02*
D03*
G54D187*
X-31024Y10138D02*
D03*
X-275200Y34552D02*
D03*
Y72046D02*
D03*
X-155400Y14852D02*
D03*
X-141700Y194552D02*
D03*
G54D188*
X-34000Y202652D02*
D03*
X-20600D02*
D03*
Y149652D02*
D03*
X-34000D02*
D03*
X-400Y202652D02*
D03*
X13000D02*
D03*
Y149652D02*
D03*
X-400D02*
D03*
X52932Y67130D02*
D03*
X39532D02*
D03*
Y14130D02*
D03*
X52932D02*
D03*
G54D189*
X31563Y102500D02*
D03*
Y122500D02*
D03*
Y142500D02*
D03*
Y162500D02*
D03*
Y202500D02*
D03*
Y182500D02*
D03*
G54D190*
X-297500Y249452D02*
D03*
X-277500D02*
D03*
X-257500D02*
D03*
X-237500D02*
D03*
X-217500D02*
D03*
X-197500D02*
D03*
X-177500D02*
D03*
X-157500D02*
D03*
X-137500D02*
D03*
X-117500D02*
D03*
G54D191*
X-327100Y163952D02*
D03*
Y191552D02*
D03*
G54D192*
X-336900Y168852D02*
D03*
Y186652D02*
D03*
G54D193*
X-320500Y70552D02*
D03*
Y117874D02*
D03*
G54D194*
X-309800Y89252D02*
D03*
Y99173D02*
D03*
X-301900D02*
D03*
Y89252D02*
D03*
G54D195*
X-309412Y-53484D02*
D03*
Y-49153D02*
D03*
X-305081Y-57815D02*
D03*
Y-53484D02*
D03*
Y-49153D02*
D03*
X-300750Y-57815D02*
D03*
Y-53484D02*
D03*
Y-49153D02*
D03*
X-296420Y-57815D02*
D03*
Y-53484D02*
D03*
Y-49153D02*
D03*
X-309412Y-57815D02*
D03*
X-92680D02*
D03*
X-79687Y-49153D02*
D03*
Y-53484D02*
D03*
Y-57815D02*
D03*
X-84018Y-49153D02*
D03*
Y-53484D02*
D03*
Y-57815D02*
D03*
X-88349Y-49153D02*
D03*
Y-53484D02*
D03*
Y-57815D02*
D03*
X-92680Y-49153D02*
D03*
Y-53484D02*
D03*
X-20435D02*
D03*
Y-49153D02*
D03*
X-16105Y-57815D02*
D03*
Y-53484D02*
D03*
Y-49153D02*
D03*
X-11774Y-57815D02*
D03*
Y-53484D02*
D03*
Y-49153D02*
D03*
X-7443Y-57815D02*
D03*
Y-53484D02*
D03*
Y-49153D02*
D03*
X-20435Y-57815D02*
D03*
X-237168D02*
D03*
X-224176Y-49153D02*
D03*
Y-53484D02*
D03*
Y-57815D02*
D03*
X-228506Y-49153D02*
D03*
Y-53484D02*
D03*
Y-57815D02*
D03*
X-232837Y-49153D02*
D03*
Y-53484D02*
D03*
Y-57815D02*
D03*
X-237168Y-49153D02*
D03*
Y-53484D02*
D03*
X-164924D02*
D03*
Y-49153D02*
D03*
X-160593Y-57815D02*
D03*
Y-53484D02*
D03*
Y-49153D02*
D03*
X-156262Y-57815D02*
D03*
Y-53484D02*
D03*
Y-49153D02*
D03*
X-151932Y-57815D02*
D03*
Y-53484D02*
D03*
Y-49153D02*
D03*
X-164924Y-57815D02*
D03*
X-118850Y194454D02*
D03*
X-114850D02*
D03*
Y198454D02*
D03*
X-118850D02*
D03*
Y202454D02*
D03*
X-114850D02*
D03*
Y206454D02*
D03*
X-118850D02*
D03*
X-126850D02*
D03*
X-130850D02*
D03*
Y202454D02*
D03*
X-126850D02*
D03*
Y198454D02*
D03*
X-130850D02*
D03*
Y194454D02*
D03*
X-126850D02*
D03*
X-122850D02*
D03*
Y198454D02*
D03*
Y206454D02*
D03*
Y202454D02*
D03*
X-208400Y210454D02*
D03*
Y214454D02*
D03*
Y206454D02*
D03*
Y202454D02*
D03*
X-212400D02*
D03*
X-216400D02*
D03*
Y206454D02*
D03*
X-212400D02*
D03*
Y210454D02*
D03*
X-216400D02*
D03*
Y214454D02*
D03*
X-212400D02*
D03*
X-204400D02*
D03*
X-200400D02*
D03*
Y210454D02*
D03*
X-204400D02*
D03*
Y206454D02*
D03*
X-200400D02*
D03*
Y202454D02*
D03*
X-204400D02*
D03*
X-244500D02*
D03*
X-240500D02*
D03*
Y206454D02*
D03*
X-244500D02*
D03*
Y210454D02*
D03*
X-240500D02*
D03*
Y214454D02*
D03*
X-244500D02*
D03*
X-252500D02*
D03*
X-256500D02*
D03*
Y210454D02*
D03*
X-252500D02*
D03*
Y206454D02*
D03*
X-256500D02*
D03*
Y202454D02*
D03*
X-252500D02*
D03*
X-248500D02*
D03*
Y206454D02*
D03*
Y214454D02*
D03*
Y210454D02*
D03*
X-288350D02*
D03*
Y214454D02*
D03*
Y206454D02*
D03*
Y202454D02*
D03*
X-292350D02*
D03*
X-296350D02*
D03*
Y206454D02*
D03*
X-292350D02*
D03*
Y210454D02*
D03*
X-296350D02*
D03*
Y214454D02*
D03*
X-292350D02*
D03*
X-284350D02*
D03*
X-280350D02*
D03*
Y210454D02*
D03*
X-284350D02*
D03*
Y206454D02*
D03*
X-280350D02*
D03*
Y202454D02*
D03*
X-284350D02*
D03*
X-10600Y241939D02*
D03*
X-14931D02*
D03*
X-10600Y246270D02*
D03*
X-14931D02*
D03*
X-10600Y250601D02*
D03*
X-14931D02*
D03*
G54D301*
X-60000Y100000D02*
D03*
X-90000Y80000D02*
D03*
X-30000Y130000D02*
D03*
X-60000Y90000D02*
D03*
X10000Y130000D02*
D03*
X-20000Y110000D02*
D03*
X-100000Y199700D02*
D03*
X-120000Y170000D02*
D03*
X20000Y-110000D02*
D03*
X10000D02*
D03*
X0D02*
D03*
X20000Y-80000D02*
D03*
X0D02*
D03*
Y-90000D02*
D03*
X-30000Y-100000D02*
D03*
Y-130000D02*
D03*
X-50000Y-110000D02*
D03*
X-60000D02*
D03*
X-70000D02*
D03*
X0Y190000D02*
D03*
X-20000Y170000D02*
D03*
X0D02*
D03*
X50000Y160000D02*
D03*
X-20000Y240000D02*
D03*
X40000Y40000D02*
D03*
X-330000Y100000D02*
D03*
X-290087Y105649D02*
D03*
X-170000Y230000D02*
D03*
X40000Y0D02*
D03*
Y90000D02*
D03*
X-160000Y230000D02*
D03*
X-310000Y210000D02*
D03*
X-90000Y170000D02*
D03*
X-70000Y180000D02*
D03*
X-100000Y10000D02*
D03*
X-110000D02*
D03*
X-290000Y220000D02*
D03*
X-250000D02*
D03*
X-210000D02*
D03*
X50000Y200000D02*
D03*
X-140000Y-130000D02*
D03*
X-170000Y-110000D02*
D03*
X-90000Y-120000D02*
D03*
X-110000Y-110000D02*
D03*
X-90000Y30000D02*
D03*
X-80000Y130000D02*
D03*
X-180000Y120000D02*
D03*
X-150000Y160000D02*
D03*
X-160000Y150000D02*
D03*
Y160000D02*
D03*
X-210000Y-110000D02*
D03*
X-220000D02*
D03*
X-230000D02*
D03*
X-240000D02*
D03*
X-270000D02*
D03*
X-280000D02*
D03*
X-290000D02*
D03*
X-299993Y-109993D02*
D03*
X-270000Y-80000D02*
D03*
X-290000D02*
D03*
X-310000Y-90000D02*
D03*
X-330000Y-60000D02*
D03*
X-200000Y-80000D02*
D03*
X-220000D02*
D03*
X-250000Y-50000D02*
D03*
X-260000Y-60000D02*
D03*
X-120000Y-80000D02*
D03*
X-150000D02*
D03*
X-180000Y-70000D02*
D03*
X-190000Y-80000D02*
D03*
X-50000D02*
D03*
X-60000Y-90000D02*
D03*
X-110000Y-70000D02*
D03*
X-120000D02*
D03*
X-50000Y20000D02*
D03*
X-90000Y10000D02*
D03*
X-70000D02*
D03*
X-100000Y30000D02*
D03*
X-50000D02*
D03*
X-80000Y10000D02*
D03*
X-10000Y40000D02*
D03*
X-30000Y50000D02*
D03*
X-60000D02*
D03*
X-120000Y148852D02*
D03*
X-210000Y30000D02*
D03*
X-289791Y50000D02*
D03*
X-290000Y30000D02*
D03*
X30000Y50000D02*
D03*
X-220000Y90000D02*
D03*
X-319400Y252D02*
D03*
X-290000Y40000D02*
D03*
Y20000D02*
D03*
X-316000Y40000D02*
D03*
X-299791Y50000D02*
D03*
X-280000Y90000D02*
D03*
X-230000Y110000D02*
D03*
X-200000D02*
D03*
X-170000Y140000D02*
D03*
X-190000Y160000D02*
D03*
X-130000D02*
D03*
X-160000Y210000D02*
D03*
X-210000Y130000D02*
D03*
X-230000D02*
D03*
X-190000Y180000D02*
D03*
X-180000Y200000D02*
D03*
X-200000Y190000D02*
D03*
X-240000D02*
D03*
X-280000D02*
D03*
X-290000Y180000D02*
D03*
X-310000Y140000D02*
D03*
X-10000Y-110000D02*
D03*
X-170000Y150000D02*
D03*
X-140000Y220000D02*
D03*
G54D336*
X-277390Y105393D02*
D03*
G54D337*
X-287844Y80216D02*
D03*
G54D338*
X30328Y177D02*
D03*
X-10000Y-10000D02*
D03*
X10000Y250000D02*
D03*
G54D339*
X-274488Y105315D02*
D03*
X-280488D02*
D03*
G54D340*
X-287921Y83315D02*
D03*
Y77315D02*
D03*
M02*
