G04*
G04 #@! TF.GenerationSoftware,Altium Limited,Altium Designer,18.1.7 (191)*
G04*
G04 Layer_Color=128*
%FSLAX25Y25*%
%MOIN*%
G70*
G01*
G75*
%ADD28C,0.00200*%
G54D28*
X-325100Y218752D02*
X-321100D01*
X-323100Y216752D02*
Y220752D01*
X-335100Y218752D02*
X-331100D01*
X-333100Y216752D02*
Y220752D01*
X-9700Y95152D02*
X-5700D01*
X-7700Y93152D02*
Y97152D01*
X300Y95152D02*
X4300D01*
X2300Y93152D02*
Y97152D01*
X10300Y95152D02*
X14300D01*
X12300Y93152D02*
Y97152D01*
X-50750Y95152D02*
X-46750D01*
X-48750Y93152D02*
Y97152D01*
X-40750Y95152D02*
X-36750D01*
X-38750Y93152D02*
Y97152D01*
X-30750Y95152D02*
X-26750D01*
X-28750Y93152D02*
Y97152D01*
X-91800Y95152D02*
X-87800D01*
X-89800Y93152D02*
Y97152D01*
X-81800Y95152D02*
X-77800D01*
X-79800Y93152D02*
Y97152D01*
X-71800Y95152D02*
X-67800D01*
X-69800Y93152D02*
Y97152D01*
X10300Y119152D02*
X14300D01*
X12300Y117152D02*
Y121152D01*
X300Y119152D02*
X4300D01*
X2300Y117152D02*
Y121152D01*
X-9700Y119152D02*
X-5700D01*
X-7700Y117152D02*
Y121152D01*
X-30750Y119152D02*
X-26750D01*
X-28750Y117152D02*
Y121152D01*
X-40750Y119152D02*
X-36750D01*
X-38750Y117152D02*
Y121152D01*
X-50750Y119152D02*
X-46750D01*
X-48750Y117152D02*
Y121152D01*
X-71800Y119152D02*
X-67800D01*
X-69800Y117152D02*
Y121152D01*
X-81800Y119152D02*
X-77800D01*
X-79800Y117152D02*
Y121152D01*
X-91800Y119152D02*
X-87800D01*
X-89800Y117152D02*
Y121152D01*
X18300Y50552D02*
X22300D01*
X20300Y48552D02*
Y52552D01*
X8300Y50552D02*
X12300D01*
X10300Y48552D02*
Y52552D01*
X-13000Y50552D02*
X-9000D01*
X-11000Y48552D02*
Y52552D01*
X-23000Y50552D02*
X-19000D01*
X-21000Y48552D02*
Y52552D01*
X-44500Y50552D02*
X-40500D01*
X-42500Y48552D02*
Y52552D01*
X-54500Y50552D02*
X-50500D01*
X-52500Y48552D02*
Y52552D01*
X-76200Y50552D02*
X-72200D01*
X-74200Y48552D02*
Y52552D01*
X-86200Y50552D02*
X-82200D01*
X-84200Y48552D02*
Y52552D01*
X44300Y-60248D02*
X48300D01*
X46300Y-62248D02*
Y-58248D01*
X44300Y-70248D02*
X48300D01*
X46300Y-72248D02*
Y-68248D01*
X44300Y-80248D02*
X48300D01*
X46300Y-82248D02*
Y-78248D01*
X44300Y-90248D02*
X48300D01*
X46300Y-92248D02*
Y-88248D01*
X17000Y-121248D02*
X21000D01*
X19000Y-123248D02*
Y-119248D01*
X7000Y-121248D02*
X11000D01*
X9000Y-123248D02*
Y-119248D01*
X-3000Y-121248D02*
X1000D01*
X-1000Y-123248D02*
Y-119248D01*
X-13000Y-121248D02*
X-9000D01*
X-11000Y-123248D02*
Y-119248D01*
X-42500Y-121248D02*
X-38500D01*
X-40500Y-123248D02*
Y-119248D01*
X-52500Y-121248D02*
X-48500D01*
X-50500Y-123248D02*
Y-119248D01*
X-62500Y-121248D02*
X-58500D01*
X-60500Y-123248D02*
Y-119248D01*
X-72500Y-121248D02*
X-68500D01*
X-70500Y-123248D02*
Y-119248D01*
X-101500Y-121248D02*
X-97500D01*
X-99500Y-123248D02*
Y-119248D01*
X-111500Y-121248D02*
X-107500D01*
X-109500Y-123248D02*
Y-119248D01*
X-121500Y-121248D02*
X-117500D01*
X-119500Y-123248D02*
Y-119248D01*
X-131500Y-121248D02*
X-127500D01*
X-129500Y-123248D02*
Y-119248D01*
X-152500Y-121248D02*
X-148500D01*
X-150500Y-123248D02*
Y-119248D01*
X-162500Y-121248D02*
X-158500D01*
X-160500Y-123248D02*
Y-119248D01*
X-172500Y-121248D02*
X-168500D01*
X-170500Y-123248D02*
Y-119248D01*
X-182500Y-121248D02*
X-178500D01*
X-180500Y-123248D02*
Y-119248D01*
X-212000Y-121248D02*
X-208000D01*
X-210000Y-123248D02*
Y-119248D01*
X-222000Y-121248D02*
X-218000D01*
X-220000Y-123248D02*
Y-119248D01*
X-232000Y-121248D02*
X-228000D01*
X-230000Y-123248D02*
Y-119248D01*
X-242000Y-121248D02*
X-238000D01*
X-240000Y-123248D02*
Y-119248D01*
X-272000Y-121248D02*
X-268000D01*
X-270000Y-123248D02*
Y-119248D01*
X-282000Y-121248D02*
X-278000D01*
X-280000Y-123248D02*
Y-119248D01*
X-292000Y-121248D02*
X-288000D01*
X-290000Y-123248D02*
Y-119248D01*
X-302000Y-121248D02*
X-298000D01*
X-300000Y-123248D02*
Y-119248D01*
X7205Y20138D02*
X10748D01*
X8976Y18366D02*
Y21910D01*
X7205Y10138D02*
X10748D01*
X8976Y8366D02*
Y11909D01*
X-2795Y20138D02*
X748D01*
X-1024Y18366D02*
Y21910D01*
X-2795Y10138D02*
X748D01*
X-1024Y8366D02*
Y11909D01*
X-12795Y20138D02*
X-9252D01*
X-11024Y18366D02*
Y21910D01*
X-12795Y10138D02*
X-9252D01*
X-11024Y8366D02*
Y11909D01*
X-22795Y20138D02*
X-19252D01*
X-21024Y18366D02*
Y21910D01*
X-22795Y10138D02*
X-19252D01*
X-21024Y8366D02*
Y11909D01*
X-32795Y20138D02*
X-29252D01*
X-31024Y18366D02*
Y21910D01*
X-32795Y10138D02*
X-29252D01*
X-31024Y8366D02*
Y11909D01*
X-338952Y-16183D02*
X-325960D01*
X-332456Y-22679D02*
Y-9686D01*
X-236972Y44552D02*
X-233428D01*
X-235200Y42780D02*
Y46324D01*
X-236972Y34552D02*
X-233428D01*
X-235200Y32780D02*
Y36324D01*
X-246972Y44552D02*
X-243428D01*
X-245200Y42780D02*
Y46324D01*
X-246972Y34552D02*
X-243428D01*
X-245200Y32780D02*
Y36324D01*
X-256972Y44552D02*
X-253428D01*
X-255200Y42780D02*
Y46324D01*
X-256972Y34552D02*
X-253428D01*
X-255200Y32780D02*
Y36324D01*
X-266972Y44552D02*
X-263428D01*
X-265200Y42780D02*
Y46324D01*
X-266972Y34552D02*
X-263428D01*
X-265200Y32780D02*
Y36324D01*
X-276972Y44552D02*
X-273428D01*
X-275200Y42780D02*
Y46324D01*
X-276972Y34552D02*
X-273428D01*
X-275200Y32780D02*
Y36324D01*
X-136496Y8552D02*
X-123504D01*
X-130000Y2056D02*
Y15048D01*
X-315096Y174752D02*
X-302104D01*
X-308600Y168256D02*
Y181248D01*
X-37150Y202652D02*
X-30850D01*
X-34000Y199502D02*
Y205802D01*
X-23750Y202652D02*
X-17450D01*
X-20600Y199502D02*
Y205802D01*
X-23750Y149652D02*
X-17450D01*
X-20600Y146502D02*
Y152802D01*
X-37150Y149652D02*
X-30850D01*
X-34000Y146502D02*
Y152802D01*
X-3550Y202652D02*
X2750D01*
X-400Y199502D02*
Y205802D01*
X9850Y202652D02*
X16150D01*
X13000Y199502D02*
Y205802D01*
X9850Y149652D02*
X16150D01*
X13000Y146502D02*
Y152802D01*
X-3550Y149652D02*
X2750D01*
X-400Y146502D02*
Y152802D01*
X-236972Y82046D02*
X-233428D01*
X-235200Y80274D02*
Y83817D01*
X-236972Y72046D02*
X-233428D01*
X-235200Y70274D02*
Y73817D01*
X-246972Y82046D02*
X-243428D01*
X-245200Y80274D02*
Y83817D01*
X-246972Y72046D02*
X-243428D01*
X-245200Y70274D02*
Y73817D01*
X-256972Y82046D02*
X-253428D01*
X-255200Y80274D02*
Y83817D01*
X-256972Y72046D02*
X-253428D01*
X-255200Y70274D02*
Y73817D01*
X-266972Y82046D02*
X-263428D01*
X-265200Y80274D02*
Y83817D01*
X-266972Y72046D02*
X-263428D01*
X-265200Y70274D02*
Y73817D01*
X-276972Y82046D02*
X-273428D01*
X-275200Y80274D02*
Y83817D01*
X-276972Y72046D02*
X-273428D01*
X-275200Y70274D02*
Y73817D01*
X28813Y102500D02*
X34313D01*
X31563Y99750D02*
Y105250D01*
X28813Y122500D02*
X34313D01*
X31563Y119750D02*
Y125250D01*
X28813Y142500D02*
X34313D01*
X31563Y139750D02*
Y145250D01*
X28813Y162500D02*
X34313D01*
X31563Y159750D02*
Y165250D01*
X28813Y202500D02*
X34313D01*
X31563Y199750D02*
Y205250D01*
X28813Y182500D02*
X34313D01*
X31563Y179750D02*
Y185250D01*
X49782Y67130D02*
X56082D01*
X52932Y63980D02*
Y70280D01*
X36382Y67130D02*
X42682D01*
X39532Y63980D02*
Y70280D01*
X36382Y14130D02*
X42682D01*
X39532Y10980D02*
Y17280D01*
X49782Y14130D02*
X56082D01*
X52932Y10980D02*
Y17280D01*
X-300250Y249452D02*
X-294750D01*
X-297500Y246702D02*
Y252202D01*
X-280250Y249452D02*
X-274750D01*
X-277500Y246702D02*
Y252202D01*
X-260250Y249452D02*
X-254750D01*
X-257500Y246702D02*
Y252202D01*
X-240250Y249452D02*
X-234750D01*
X-237500Y246702D02*
Y252202D01*
X-220250Y249452D02*
X-214750D01*
X-217500Y246702D02*
Y252202D01*
X-200250Y249452D02*
X-194750D01*
X-197500Y246702D02*
Y252202D01*
X-180250Y249452D02*
X-174750D01*
X-177500Y246702D02*
Y252202D01*
X-160250Y249452D02*
X-154750D01*
X-157500Y246702D02*
Y252202D01*
X-140250Y249452D02*
X-134750D01*
X-137500Y246702D02*
Y252202D01*
X-120250Y249452D02*
X-114750D01*
X-117500Y246702D02*
Y252202D01*
X-330050Y163952D02*
X-324150D01*
X-327100Y161002D02*
Y166902D01*
X-330050Y191552D02*
X-324150D01*
X-327100Y188602D02*
Y194502D01*
X-338900Y168852D02*
X-334900D01*
X-336900Y166852D02*
Y170852D01*
X-338900Y186652D02*
X-334900D01*
X-336900Y184652D02*
Y188652D01*
X-324850Y70552D02*
X-316150D01*
X-320500Y66202D02*
Y74902D01*
X-324850Y117874D02*
X-316150D01*
X-320500Y113524D02*
Y122224D01*
X-311700Y89252D02*
X-307900D01*
X-309800Y87352D02*
Y91152D01*
X-311700Y99173D02*
X-307900D01*
X-309800Y97273D02*
Y101073D01*
X-303800Y99173D02*
X-300000D01*
X-301900Y97273D02*
Y101073D01*
X-303800Y89252D02*
X-300000D01*
X-301900Y87352D02*
Y91152D01*
X-157172Y14852D02*
X-153628D01*
X-155400Y13080D02*
Y16624D01*
X-157172Y4852D02*
X-153628D01*
X-155400Y3080D02*
Y6624D01*
X-167172Y14852D02*
X-163628D01*
X-165400Y13080D02*
Y16624D01*
X-167172Y4852D02*
X-163628D01*
X-165400Y3080D02*
Y6624D01*
X-177172Y14852D02*
X-173628D01*
X-175400Y13080D02*
Y16624D01*
X-177172Y4852D02*
X-173628D01*
X-175400Y3080D02*
Y6624D01*
X-187172Y14852D02*
X-183628D01*
X-185400Y13080D02*
Y16624D01*
X-187172Y4852D02*
X-183628D01*
X-185400Y3080D02*
Y6624D01*
X-197172Y14852D02*
X-193628D01*
X-195400Y13080D02*
Y16624D01*
X-197172Y4852D02*
X-193628D01*
X-195400Y3080D02*
Y6624D01*
X-207172Y14852D02*
X-203628D01*
X-205400Y13080D02*
Y16624D01*
X-207172Y4852D02*
X-203628D01*
X-205400Y3080D02*
Y6624D01*
X-217172Y14852D02*
X-213628D01*
X-215400Y13080D02*
Y16624D01*
X-217172Y4852D02*
X-213628D01*
X-215400Y3080D02*
Y6624D01*
X-227172Y14852D02*
X-223628D01*
X-225400Y13080D02*
Y16624D01*
X-227172Y4852D02*
X-223628D01*
X-225400Y3080D02*
Y6624D01*
X-237172Y14852D02*
X-233628D01*
X-235400Y13080D02*
Y16624D01*
X-237172Y4852D02*
X-233628D01*
X-235400Y3080D02*
Y6624D01*
X-247172Y14852D02*
X-243628D01*
X-245400Y13080D02*
Y16624D01*
X-247172Y4852D02*
X-243628D01*
X-245400Y3080D02*
Y6624D01*
X-257172Y14852D02*
X-253628D01*
X-255400Y13080D02*
Y16624D01*
X-257172Y4852D02*
X-253628D01*
X-255400Y3080D02*
Y6624D01*
X-267172Y14852D02*
X-263628D01*
X-265400Y13080D02*
Y16624D01*
X-267172Y4852D02*
X-263628D01*
X-265400Y3080D02*
Y6624D01*
X-173472Y184552D02*
X-169928D01*
X-171700Y182780D02*
Y186324D01*
X-173472Y194552D02*
X-169928D01*
X-171700Y192780D02*
Y196324D01*
X-163472Y184552D02*
X-159928D01*
X-161700Y182780D02*
Y186324D01*
X-163472Y194552D02*
X-159928D01*
X-161700Y192780D02*
Y196324D01*
X-153472Y184552D02*
X-149928D01*
X-151700Y182780D02*
Y186324D01*
X-153472Y194552D02*
X-149928D01*
X-151700Y192780D02*
Y196324D01*
X-143472Y184552D02*
X-139928D01*
X-141700Y182780D02*
Y186324D01*
X-143472Y194552D02*
X-139928D01*
X-141700Y192780D02*
Y196324D01*
X-336405Y-120748D02*
X-324594D01*
X-330500Y-126654D02*
Y-114843D01*
X-331250Y-130748D02*
X-329750D01*
X-330500Y-131498D02*
Y-129998D01*
X-331250Y-110748D02*
X-329750D01*
X-330500Y-111498D02*
Y-109998D01*
X-321250Y-120748D02*
X-319750D01*
X-320500Y-121498D02*
Y-119998D01*
X-341250Y-120748D02*
X-339750D01*
X-340500Y-121498D02*
Y-119998D01*
X-338250Y-113748D02*
X-336750D01*
X-337500Y-114498D02*
Y-112998D01*
X-324250Y-113748D02*
X-322750D01*
X-323500Y-114498D02*
Y-112998D01*
X-324250Y-127748D02*
X-322750D01*
X-323500Y-128498D02*
Y-126998D01*
X-338250Y-127748D02*
X-336750D01*
X-337500Y-128498D02*
Y-126998D01*
X-336405Y254252D02*
X-324594D01*
X-330500Y248346D02*
Y260157D01*
X-331250Y244252D02*
X-329750D01*
X-330500Y243502D02*
Y245002D01*
X-331250Y264252D02*
X-329750D01*
X-330500Y263502D02*
Y265002D01*
X-321250Y254252D02*
X-319750D01*
X-320500Y253502D02*
Y255002D01*
X-341250Y254252D02*
X-339750D01*
X-340500Y253502D02*
Y255002D01*
X-338250Y261252D02*
X-336750D01*
X-337500Y260502D02*
Y262002D01*
X-324250Y261252D02*
X-322750D01*
X-323500Y260502D02*
Y262002D01*
X-324250Y247252D02*
X-322750D01*
X-323500Y246502D02*
Y248002D01*
X-338250Y247252D02*
X-336750D01*
X-337500Y246502D02*
Y248002D01*
X43595Y254252D02*
X55405D01*
X49500Y248346D02*
Y260157D01*
X48750Y244252D02*
X50250D01*
X49500Y243502D02*
Y245002D01*
X48750Y264252D02*
X50250D01*
X49500Y263502D02*
Y265002D01*
X58750Y254252D02*
X60250D01*
X59500Y253502D02*
Y255002D01*
X38750Y254252D02*
X40250D01*
X39500Y253502D02*
Y255002D01*
X41750Y261252D02*
X43250D01*
X42500Y260502D02*
Y262002D01*
X55750Y261252D02*
X57250D01*
X56500Y260502D02*
Y262002D01*
X55750Y247252D02*
X57250D01*
X56500Y246502D02*
Y248002D01*
X41750Y247252D02*
X43250D01*
X42500Y246502D02*
Y248002D01*
X43595Y-120748D02*
X55405D01*
X49500Y-126654D02*
Y-114843D01*
X48750Y-130748D02*
X50250D01*
X49500Y-131498D02*
Y-129998D01*
X48750Y-110748D02*
X50250D01*
X49500Y-111498D02*
Y-109998D01*
X58750Y-120748D02*
X60250D01*
X59500Y-121498D02*
Y-119998D01*
X38750Y-120748D02*
X40250D01*
X39500Y-121498D02*
Y-119998D01*
X41750Y-113748D02*
X43250D01*
X42500Y-114498D02*
Y-112998D01*
X55750Y-113748D02*
X57250D01*
X56500Y-114498D02*
Y-112998D01*
X55750Y-127748D02*
X57250D01*
X56500Y-128498D02*
Y-126998D01*
X41750Y-127748D02*
X43250D01*
X42500Y-128498D02*
Y-126998D01*
X-309912Y-53484D02*
X-308912D01*
X-309412Y-53984D02*
Y-52984D01*
X-309912Y-49153D02*
X-308912D01*
X-309412Y-49653D02*
Y-48653D01*
X-305581Y-57815D02*
X-304581D01*
X-305081Y-58315D02*
Y-57315D01*
X-305581Y-53484D02*
X-304581D01*
X-305081Y-53984D02*
Y-52984D01*
X-305581Y-49153D02*
X-304581D01*
X-305081Y-49653D02*
Y-48653D01*
X-301250Y-57815D02*
X-300250D01*
X-300750Y-58315D02*
Y-57315D01*
X-301250Y-53484D02*
X-300250D01*
X-300750Y-53984D02*
Y-52984D01*
X-301250Y-49153D02*
X-300250D01*
X-300750Y-49653D02*
Y-48653D01*
X-296920Y-57815D02*
X-295920D01*
X-296420Y-58315D02*
Y-57315D01*
X-296920Y-53484D02*
X-295920D01*
X-296420Y-53984D02*
Y-52984D01*
X-296920Y-49153D02*
X-295920D01*
X-296420Y-49653D02*
Y-48653D01*
X-309912Y-57815D02*
X-308912D01*
X-309412Y-58315D02*
Y-57315D01*
X-93180Y-57815D02*
X-92180D01*
X-92680Y-58315D02*
Y-57315D01*
X-80187Y-49153D02*
X-79187D01*
X-79687Y-49653D02*
Y-48653D01*
X-80187Y-53484D02*
X-79187D01*
X-79687Y-53984D02*
Y-52984D01*
X-80187Y-57815D02*
X-79187D01*
X-79687Y-58315D02*
Y-57315D01*
X-84518Y-49153D02*
X-83518D01*
X-84018Y-49653D02*
Y-48653D01*
X-84518Y-53484D02*
X-83518D01*
X-84018Y-53984D02*
Y-52984D01*
X-84518Y-57815D02*
X-83518D01*
X-84018Y-58315D02*
Y-57315D01*
X-88849Y-49153D02*
X-87849D01*
X-88349Y-49653D02*
Y-48653D01*
X-88849Y-53484D02*
X-87849D01*
X-88349Y-53984D02*
Y-52984D01*
X-88849Y-57815D02*
X-87849D01*
X-88349Y-58315D02*
Y-57315D01*
X-93180Y-49153D02*
X-92180D01*
X-92680Y-49653D02*
Y-48653D01*
X-93180Y-53484D02*
X-92180D01*
X-92680Y-53984D02*
Y-52984D01*
X-20935Y-53484D02*
X-19935D01*
X-20435Y-53984D02*
Y-52984D01*
X-20935Y-49153D02*
X-19935D01*
X-20435Y-49653D02*
Y-48653D01*
X-16605Y-57815D02*
X-15605D01*
X-16105Y-58315D02*
Y-57315D01*
X-16605Y-53484D02*
X-15605D01*
X-16105Y-53984D02*
Y-52984D01*
X-16605Y-49153D02*
X-15605D01*
X-16105Y-49653D02*
Y-48653D01*
X-12274Y-57815D02*
X-11274D01*
X-11774Y-58315D02*
Y-57315D01*
X-12274Y-53484D02*
X-11274D01*
X-11774Y-53984D02*
Y-52984D01*
X-12274Y-49153D02*
X-11274D01*
X-11774Y-49653D02*
Y-48653D01*
X-7943Y-57815D02*
X-6943D01*
X-7443Y-58315D02*
Y-57315D01*
X-7943Y-53484D02*
X-6943D01*
X-7443Y-53984D02*
Y-52984D01*
X-7943Y-49153D02*
X-6943D01*
X-7443Y-49653D02*
Y-48653D01*
X-20935Y-57815D02*
X-19935D01*
X-20435Y-58315D02*
Y-57315D01*
X-237668Y-57815D02*
X-236668D01*
X-237168Y-58315D02*
Y-57315D01*
X-224676Y-49153D02*
X-223676D01*
X-224176Y-49653D02*
Y-48653D01*
X-224676Y-53484D02*
X-223676D01*
X-224176Y-53984D02*
Y-52984D01*
X-224676Y-57815D02*
X-223676D01*
X-224176Y-58315D02*
Y-57315D01*
X-229006Y-49153D02*
X-228006D01*
X-228506Y-49653D02*
Y-48653D01*
X-229006Y-53484D02*
X-228006D01*
X-228506Y-53984D02*
Y-52984D01*
X-229006Y-57815D02*
X-228006D01*
X-228506Y-58315D02*
Y-57315D01*
X-233337Y-49153D02*
X-232337D01*
X-232837Y-49653D02*
Y-48653D01*
X-233337Y-53484D02*
X-232337D01*
X-232837Y-53984D02*
Y-52984D01*
X-233337Y-57815D02*
X-232337D01*
X-232837Y-58315D02*
Y-57315D01*
X-237668Y-49153D02*
X-236668D01*
X-237168Y-49653D02*
Y-48653D01*
X-237668Y-53484D02*
X-236668D01*
X-237168Y-53984D02*
Y-52984D01*
X-165424Y-53484D02*
X-164424D01*
X-164924Y-53984D02*
Y-52984D01*
X-165424Y-49153D02*
X-164424D01*
X-164924Y-49653D02*
Y-48653D01*
X-161093Y-57815D02*
X-160093D01*
X-160593Y-58315D02*
Y-57315D01*
X-161093Y-53484D02*
X-160093D01*
X-160593Y-53984D02*
Y-52984D01*
X-161093Y-49153D02*
X-160093D01*
X-160593Y-49653D02*
Y-48653D01*
X-156762Y-57815D02*
X-155762D01*
X-156262Y-58315D02*
Y-57315D01*
X-156762Y-53484D02*
X-155762D01*
X-156262Y-53984D02*
Y-52984D01*
X-156762Y-49153D02*
X-155762D01*
X-156262Y-49653D02*
Y-48653D01*
X-152431Y-57815D02*
X-151432D01*
X-151932Y-58315D02*
Y-57315D01*
X-152431Y-53484D02*
X-151432D01*
X-151932Y-53984D02*
Y-52984D01*
X-152431Y-49153D02*
X-151432D01*
X-151932Y-49653D02*
Y-48653D01*
X-165424Y-57815D02*
X-164424D01*
X-164924Y-58315D02*
Y-57315D01*
X-119350Y194454D02*
X-118350D01*
X-118850Y193954D02*
Y194954D01*
X-115350Y194454D02*
X-114350D01*
X-114850Y193954D02*
Y194954D01*
X-115350Y198454D02*
X-114350D01*
X-114850Y197954D02*
Y198954D01*
X-119350Y198454D02*
X-118350D01*
X-118850Y197954D02*
Y198954D01*
X-119350Y202454D02*
X-118350D01*
X-118850Y201954D02*
Y202954D01*
X-115350Y202454D02*
X-114350D01*
X-114850Y201954D02*
Y202954D01*
X-115350Y206454D02*
X-114350D01*
X-114850Y205954D02*
Y206954D01*
X-119350Y206454D02*
X-118350D01*
X-118850Y205954D02*
Y206954D01*
X-127350Y206454D02*
X-126350D01*
X-126850Y205954D02*
Y206954D01*
X-131350Y206454D02*
X-130350D01*
X-130850Y205954D02*
Y206954D01*
X-131350Y202454D02*
X-130350D01*
X-130850Y201954D02*
Y202954D01*
X-127350Y202454D02*
X-126350D01*
X-126850Y201954D02*
Y202954D01*
X-127350Y198454D02*
X-126350D01*
X-126850Y197954D02*
Y198954D01*
X-131350Y198454D02*
X-130350D01*
X-130850Y197954D02*
Y198954D01*
X-131350Y194454D02*
X-130350D01*
X-130850Y193954D02*
Y194954D01*
X-127350Y194454D02*
X-126350D01*
X-126850Y193954D02*
Y194954D01*
X-123350Y194454D02*
X-122350D01*
X-122850Y193954D02*
Y194954D01*
X-123350Y198454D02*
X-122350D01*
X-122850Y197954D02*
Y198954D01*
X-123350Y206454D02*
X-122350D01*
X-122850Y205954D02*
Y206954D01*
X-123350Y202454D02*
X-122350D01*
X-122850Y201954D02*
Y202954D01*
X-208900Y210454D02*
X-207900D01*
X-208400Y209954D02*
Y210954D01*
X-208900Y214454D02*
X-207900D01*
X-208400Y213954D02*
Y214954D01*
X-208900Y206454D02*
X-207900D01*
X-208400Y205954D02*
Y206954D01*
X-208900Y202454D02*
X-207900D01*
X-208400Y201954D02*
Y202954D01*
X-212900Y202454D02*
X-211900D01*
X-212400Y201954D02*
Y202954D01*
X-216900Y202454D02*
X-215900D01*
X-216400Y201954D02*
Y202954D01*
X-216900Y206454D02*
X-215900D01*
X-216400Y205954D02*
Y206954D01*
X-212900Y206454D02*
X-211900D01*
X-212400Y205954D02*
Y206954D01*
X-212900Y210454D02*
X-211900D01*
X-212400Y209954D02*
Y210954D01*
X-216900Y210454D02*
X-215900D01*
X-216400Y209954D02*
Y210954D01*
X-216900Y214454D02*
X-215900D01*
X-216400Y213954D02*
Y214954D01*
X-212900Y214454D02*
X-211900D01*
X-212400Y213954D02*
Y214954D01*
X-204900Y214454D02*
X-203900D01*
X-204400Y213954D02*
Y214954D01*
X-200900Y214454D02*
X-199900D01*
X-200400Y213954D02*
Y214954D01*
X-200900Y210454D02*
X-199900D01*
X-200400Y209954D02*
Y210954D01*
X-204900Y210454D02*
X-203900D01*
X-204400Y209954D02*
Y210954D01*
X-204900Y206454D02*
X-203900D01*
X-204400Y205954D02*
Y206954D01*
X-200900Y206454D02*
X-199900D01*
X-200400Y205954D02*
Y206954D01*
X-200900Y202454D02*
X-199900D01*
X-200400Y201954D02*
Y202954D01*
X-204900Y202454D02*
X-203900D01*
X-204400Y201954D02*
Y202954D01*
X-245000Y202454D02*
X-244000D01*
X-244500Y201954D02*
Y202954D01*
X-241000Y202454D02*
X-240000D01*
X-240500Y201954D02*
Y202954D01*
X-241000Y206454D02*
X-240000D01*
X-240500Y205954D02*
Y206954D01*
X-245000Y206454D02*
X-244000D01*
X-244500Y205954D02*
Y206954D01*
X-245000Y210454D02*
X-244000D01*
X-244500Y209954D02*
Y210954D01*
X-241000Y210454D02*
X-240000D01*
X-240500Y209954D02*
Y210954D01*
X-241000Y214454D02*
X-240000D01*
X-240500Y213954D02*
Y214954D01*
X-245000Y214454D02*
X-244000D01*
X-244500Y213954D02*
Y214954D01*
X-253000Y214454D02*
X-252000D01*
X-252500Y213954D02*
Y214954D01*
X-257000Y214454D02*
X-256000D01*
X-256500Y213954D02*
Y214954D01*
X-257000Y210454D02*
X-256000D01*
X-256500Y209954D02*
Y210954D01*
X-253000Y210454D02*
X-252000D01*
X-252500Y209954D02*
Y210954D01*
X-253000Y206454D02*
X-252000D01*
X-252500Y205954D02*
Y206954D01*
X-257000Y206454D02*
X-256000D01*
X-256500Y205954D02*
Y206954D01*
X-257000Y202454D02*
X-256000D01*
X-256500Y201954D02*
Y202954D01*
X-253000Y202454D02*
X-252000D01*
X-252500Y201954D02*
Y202954D01*
X-249000Y202454D02*
X-248000D01*
X-248500Y201954D02*
Y202954D01*
X-249000Y206454D02*
X-248000D01*
X-248500Y205954D02*
Y206954D01*
X-249000Y214454D02*
X-248000D01*
X-248500Y213954D02*
Y214954D01*
X-249000Y210454D02*
X-248000D01*
X-248500Y209954D02*
Y210954D01*
X-288850Y210454D02*
X-287850D01*
X-288350Y209954D02*
Y210954D01*
X-288850Y214454D02*
X-287850D01*
X-288350Y213954D02*
Y214954D01*
X-288850Y206454D02*
X-287850D01*
X-288350Y205954D02*
Y206954D01*
X-288850Y202454D02*
X-287850D01*
X-288350Y201954D02*
Y202954D01*
X-292850Y202454D02*
X-291850D01*
X-292350Y201954D02*
Y202954D01*
X-296850Y202454D02*
X-295850D01*
X-296350Y201954D02*
Y202954D01*
X-296850Y206454D02*
X-295850D01*
X-296350Y205954D02*
Y206954D01*
X-292850Y206454D02*
X-291850D01*
X-292350Y205954D02*
Y206954D01*
X-292850Y210454D02*
X-291850D01*
X-292350Y209954D02*
Y210954D01*
X-296850Y210454D02*
X-295850D01*
X-296350Y209954D02*
Y210954D01*
X-296850Y214454D02*
X-295850D01*
X-296350Y213954D02*
Y214954D01*
X-292850Y214454D02*
X-291850D01*
X-292350Y213954D02*
Y214954D01*
X-284850Y214454D02*
X-283850D01*
X-284350Y213954D02*
Y214954D01*
X-280850Y214454D02*
X-279850D01*
X-280350Y213954D02*
Y214954D01*
X-280850Y210454D02*
X-279850D01*
X-280350Y209954D02*
Y210954D01*
X-284850Y210454D02*
X-283850D01*
X-284350Y209954D02*
Y210954D01*
X-284850Y206454D02*
X-283850D01*
X-284350Y205954D02*
Y206954D01*
X-280850Y206454D02*
X-279850D01*
X-280350Y205954D02*
Y206954D01*
X-280850Y202454D02*
X-279850D01*
X-280350Y201954D02*
Y202954D01*
X-284850Y202454D02*
X-283850D01*
X-284350Y201954D02*
Y202954D01*
X-201242Y40945D02*
X-199742D01*
X-200492Y40195D02*
Y41695D01*
X-136977Y134357D02*
X-135477D01*
X-136227Y133607D02*
Y135107D01*
X-134850Y137900D02*
X-133350D01*
X-134100Y137150D02*
Y138650D01*
X-132150Y140900D02*
X-130650D01*
X-131400Y140150D02*
Y141650D01*
X-143750Y150652D02*
X-142250D01*
X-143000Y149902D02*
Y151402D01*
X-210975Y56483D02*
X-209475D01*
X-210225Y55733D02*
Y57233D01*
X-229206Y-69393D02*
X-227706D01*
X-228456Y-70143D02*
Y-68643D01*
X-159550Y-39900D02*
X-158050D01*
X-158800Y-40650D02*
Y-39150D01*
X-142095Y-76283D02*
X-140595D01*
X-141346Y-77033D02*
Y-75533D01*
X-142785Y-72641D02*
X-141285D01*
X-142034Y-73391D02*
Y-71891D01*
X-335128Y-50414D02*
X-333628D01*
X-334378Y-51164D02*
Y-49663D01*
X-330888Y-45433D02*
X-329388D01*
X-330138Y-46183D02*
Y-44683D01*
X-116578Y167305D02*
X-115078D01*
X-115829Y166555D02*
Y168055D01*
X-109734Y162776D02*
X-108234D01*
X-108984Y162025D02*
Y163525D01*
X-106850Y-43500D02*
X-105350D01*
X-106100Y-44250D02*
Y-42750D01*
X-279307Y99906D02*
X-277807D01*
X-278557Y99156D02*
Y100656D01*
X-70931Y159063D02*
X-69431D01*
X-70181Y158313D02*
Y159813D01*
X-81750Y157752D02*
X-80250D01*
X-81000Y157002D02*
Y158502D01*
X-81750Y160852D02*
X-80250D01*
X-81000Y160102D02*
Y161602D01*
X-70907Y162874D02*
X-69407D01*
X-70157Y162124D02*
Y163624D01*
X-70907Y166319D02*
X-69407D01*
X-70157Y165569D02*
Y167069D01*
X-43862Y23033D02*
X-42362D01*
X-43112Y22283D02*
Y23783D01*
X-49077Y25492D02*
X-47577D01*
X-48327Y24742D02*
Y26242D01*
X-43909Y26840D02*
X-42410D01*
X-43159Y26090D02*
Y27591D01*
X-51245Y78055D02*
X-49745D01*
X-50495Y77305D02*
Y78805D01*
X-206557Y33858D02*
X-205057D01*
X-205807Y33108D02*
Y34608D01*
X-166604Y-78842D02*
X-165104D01*
X-165855Y-79592D02*
Y-78092D01*
X-277549Y-76248D02*
X-276049D01*
X-276799Y-76998D02*
Y-75498D01*
X-280600Y-76248D02*
X-279100D01*
X-279850Y-76998D02*
Y-75498D01*
X40490Y5217D02*
X41990D01*
X41240Y4467D02*
Y5966D01*
X54073Y5217D02*
X55573D01*
X54823Y4467D02*
Y5966D01*
X50333Y22933D02*
X51833D01*
X51083Y22183D02*
Y23683D01*
X-46124Y206988D02*
X-44624D01*
X-45374Y206238D02*
Y207738D01*
X-20140Y87205D02*
X-18640D01*
X-19390Y86455D02*
Y87955D01*
X-75061Y83563D02*
X-73561D01*
X-74311Y82813D02*
Y84313D01*
X-66400Y110335D02*
X-64900D01*
X-65650Y109585D02*
Y111085D01*
X-17679Y120079D02*
X-16179D01*
X-16929Y119329D02*
Y120829D01*
X-106852Y2362D02*
X-105352D01*
X-106102Y1612D02*
Y3112D01*
X-68171Y71653D02*
X-66671D01*
X-67421Y70903D02*
Y72404D01*
X-36281Y-4331D02*
X-34782D01*
X-35531Y-5081D02*
Y-3581D01*
X-23950Y-13100D02*
X-22450D01*
X-23200Y-13850D02*
Y-12350D01*
X-44577Y-11437D02*
X-43077D01*
X-43827Y-12187D02*
Y-10687D01*
X-25581Y-9567D02*
X-24081D01*
X-24831Y-10317D02*
Y-8817D01*
X-21348Y-10453D02*
X-19848D01*
X-20598Y-11203D02*
Y-9703D01*
X-88280Y34176D02*
X-86780D01*
X-87530Y33426D02*
Y34927D01*
X-48535Y8120D02*
X-47035D01*
X-47785Y7370D02*
Y8870D01*
X-77896Y168422D02*
X-76396D01*
X-77146Y167672D02*
Y169172D01*
X-19155Y5512D02*
X-17655D01*
X-18406Y4762D02*
Y6262D01*
X-23683Y5413D02*
X-22183D01*
X-22933Y4663D02*
Y6163D01*
X-54589Y36417D02*
X-53089D01*
X-53839Y35667D02*
Y37167D01*
X-89530Y38189D02*
X-88029D01*
X-88779Y37439D02*
Y38939D01*
X-87364Y15354D02*
X-85864D01*
X-86614Y14604D02*
Y16104D01*
X-88545Y23720D02*
X-87045D01*
X-87795Y22971D02*
Y24471D01*
X-46520Y30021D02*
X-45020D01*
X-45770Y29271D02*
Y30771D01*
X1908Y66437D02*
X3407D01*
X2657Y65687D02*
Y67187D01*
X6829Y68701D02*
X8329D01*
X7579Y67951D02*
Y69451D01*
X-54687Y16043D02*
X-53187D01*
X-53937Y15293D02*
Y16793D01*
X-69746Y16240D02*
X-68246D01*
X-68996Y15490D02*
Y16990D01*
X-68936Y6315D02*
X-67436D01*
X-68186Y5565D02*
Y7065D01*
X-73585Y5512D02*
X-72085D01*
X-72835Y4762D02*
Y6262D01*
X-66296Y3746D02*
X-64796D01*
X-65546Y2996D02*
Y4496D01*
X-75750Y9941D02*
X-74250D01*
X-75000Y9191D02*
Y10691D01*
X-65320Y12107D02*
X-63820D01*
X-64570Y11357D02*
Y12857D01*
X-70798Y22652D02*
X-69298D01*
X-70048Y21902D02*
Y23402D01*
X-67898Y32152D02*
X-66398D01*
X-67148Y31402D02*
Y32902D01*
X-70794Y26476D02*
X-69294D01*
X-70044Y25726D02*
Y27226D01*
X-112711Y21482D02*
X-111211D01*
X-111961Y20732D02*
Y22232D01*
X-116480Y22022D02*
X-114980D01*
X-115730Y21272D02*
Y22772D01*
X-114215Y14842D02*
X-112715D01*
X-113465Y14093D02*
Y15593D01*
X-115488Y33011D02*
X-113988D01*
X-114738Y32261D02*
Y33761D01*
X-122950Y24300D02*
X-121450D01*
X-122200Y23550D02*
Y25050D01*
X-126632Y25870D02*
X-125132D01*
X-125882Y25120D02*
Y26620D01*
X-230387Y-7874D02*
X-228887D01*
X-229637Y-8624D02*
Y-7124D01*
X5943Y75397D02*
X7443D01*
X6693Y74647D02*
Y76147D01*
X2793Y81595D02*
X4293D01*
X3543Y80844D02*
Y82345D01*
X-3900Y64173D02*
X-2400D01*
X-3150Y63423D02*
Y64923D01*
X-4097Y68507D02*
X-2597D01*
X-3347Y67757D02*
Y69257D01*
X13325Y79232D02*
X14825D01*
X14075Y78482D02*
Y79982D01*
X-23683Y70608D02*
X-22183D01*
X-22933Y69858D02*
Y71358D01*
X-8919Y79823D02*
X-7419D01*
X-8169Y79073D02*
Y80573D01*
X-81955Y67424D02*
X-80455D01*
X-81205Y66675D02*
Y68174D01*
X-74175Y71653D02*
X-72675D01*
X-73425Y70903D02*
Y72404D01*
X-68369Y64767D02*
X-66869D01*
X-67619Y64017D02*
Y65517D01*
X-22711Y80216D02*
X-21211D01*
X-21960Y79466D02*
Y80967D01*
X-15317Y69587D02*
X-13817D01*
X-14567Y68837D02*
Y70337D01*
X-50750Y72342D02*
X-49250D01*
X-50000Y71592D02*
Y73093D01*
X-58906Y80905D02*
X-57406D01*
X-58156Y80155D02*
Y81656D01*
X-57640Y70079D02*
X-56140D01*
X-56890Y69329D02*
Y70829D01*
X26514Y73303D02*
X28014D01*
X27264Y72553D02*
Y74053D01*
X-36076Y81146D02*
X-34576D01*
X-35326Y80396D02*
Y81896D01*
X-31459Y73819D02*
X-29959D01*
X-30709Y73069D02*
Y74569D01*
X-82238Y71904D02*
X-80738D01*
X-81488Y71153D02*
Y72654D01*
X-89239Y61913D02*
X-87739D01*
X-88489Y61163D02*
Y62663D01*
X-342261Y-16183D02*
X-340761D01*
X-341511Y-16932D02*
Y-15432D01*
X-324151Y-16183D02*
X-322651D01*
X-323401Y-16932D02*
Y-15432D01*
X-333206Y-7127D02*
X-331706D01*
X-332456Y-7877D02*
Y-6377D01*
X-333206Y-25238D02*
X-331706D01*
X-332456Y-25988D02*
Y-24488D01*
X-84079Y80347D02*
X-82579D01*
X-83329Y79597D02*
Y81097D01*
X-39805Y190138D02*
X-38305D01*
X-39055Y189388D02*
Y190888D01*
X-16183Y190433D02*
X-14683D01*
X-15433Y189683D02*
Y191183D01*
X-8207Y201460D02*
X-6707D01*
X-7457Y200710D02*
Y202210D01*
X-8207Y198114D02*
X-6707D01*
X-7457Y197364D02*
Y198864D01*
X-8207Y207953D02*
X-6707D01*
X-7457Y207203D02*
Y208703D01*
X-8207Y204708D02*
X-6707D01*
X-7457Y203958D02*
Y205458D01*
X-14163Y201358D02*
X-12663D01*
X-13413Y200608D02*
Y202108D01*
X-14163Y204705D02*
X-12663D01*
X-13413Y203955D02*
Y205455D01*
X-16329Y195256D02*
X-14829D01*
X-15579Y194506D02*
Y196006D01*
X-21348Y193484D02*
X-19848D01*
X-20598Y192734D02*
Y194234D01*
X-65986Y-109579D02*
X-64486D01*
X-65236Y-110329D02*
Y-108829D01*
X-285386Y168585D02*
X-283886D01*
X-284636Y167835D02*
Y169335D01*
X-285770Y164744D02*
X-284270D01*
X-285020Y163994D02*
Y165494D01*
X-283737Y172145D02*
X-282237D01*
X-282987Y171395D02*
Y172895D01*
X-278521Y170403D02*
X-277021D01*
X-277771Y169653D02*
Y171153D01*
X-300730Y-69508D02*
X-299230D01*
X-299980Y-70258D02*
Y-68758D01*
X-110650Y142505D02*
X-109150D01*
X-109900Y141755D02*
Y143255D01*
X-108507Y134331D02*
X-107007D01*
X-107757Y133581D02*
Y135081D01*
X-105062Y132559D02*
X-103562D01*
X-104312Y131809D02*
Y133309D01*
X26310Y67665D02*
X27810D01*
X27060Y66915D02*
Y68415D01*
X-68840Y189252D02*
X-67340D01*
X-68090Y188502D02*
Y190002D01*
X18163Y252047D02*
X19663D01*
X18913Y251297D02*
Y252797D01*
X34254Y136260D02*
X35754D01*
X35004Y135510D02*
Y137010D01*
X37699Y136260D02*
X39199D01*
X38449Y135510D02*
Y137010D01*
X30809Y136260D02*
X32309D01*
X31559Y135510D02*
Y137010D01*
X-41919Y151705D02*
X-40419D01*
X-41169Y150955D02*
Y152455D01*
X2050Y158752D02*
X3550D01*
X2800Y158002D02*
Y159502D01*
X-328Y163063D02*
X1172D01*
X422Y162313D02*
Y163813D01*
X-2750Y158652D02*
X-1250D01*
X-2000Y157902D02*
Y159402D01*
X-72482Y260512D02*
X-70982D01*
X-71732Y259762D02*
Y261262D01*
X-109751Y260517D02*
X-108251D01*
X-109001Y259767D02*
Y261267D01*
X-90691Y260709D02*
X-89191D01*
X-89941Y259959D02*
Y261459D01*
X-180656Y136103D02*
X-179156D01*
X-179906Y135353D02*
Y136853D01*
X-161633Y130244D02*
X-160133D01*
X-160883Y129494D02*
Y130994D01*
X-173865Y126063D02*
X-172365D01*
X-173115Y125313D02*
Y126813D01*
X-180952Y132067D02*
X-179452D01*
X-180202Y131317D02*
Y132817D01*
X-153730Y-66555D02*
X-152230D01*
X-152980Y-67305D02*
Y-65805D01*
X-156341Y-69606D02*
X-154841D01*
X-155591Y-70356D02*
Y-68856D01*
X31455Y230591D02*
X32955D01*
X32205Y229840D02*
Y231341D01*
X-72482Y172815D02*
X-70982D01*
X-71732Y172065D02*
Y173565D01*
X-76026Y172815D02*
X-74526D01*
X-75276Y172065D02*
Y173565D01*
X-90592Y185807D02*
X-89092D01*
X-89842Y185057D02*
Y186557D01*
X12168Y246147D02*
X13668D01*
X12918Y245397D02*
Y246897D01*
X5963Y250472D02*
X7463D01*
X6713Y249722D02*
Y251222D01*
X-44825Y174882D02*
X-43325D01*
X-44075Y174132D02*
Y175632D01*
X-52108Y186890D02*
X-50608D01*
X-51358Y186140D02*
Y187640D01*
X-45908Y187185D02*
X-44407D01*
X-45158Y186435D02*
Y187935D01*
X-51321Y174882D02*
X-49821D01*
X-50571Y174132D02*
Y175632D01*
X-48073Y174980D02*
X-46573D01*
X-47323Y174230D02*
Y175730D01*
X-48959Y187087D02*
X-47459D01*
X-48209Y186337D02*
Y187837D01*
X-42364Y168386D02*
X-40864D01*
X-41614Y167636D02*
Y169136D01*
X-55750Y164449D02*
X-54250D01*
X-55000Y163699D02*
Y165199D01*
X-289350Y2052D02*
X-287850D01*
X-288600Y1302D02*
Y2802D01*
X-294431Y3720D02*
X-292931D01*
X-293681Y2970D02*
Y4470D01*
X-285650Y2400D02*
X-284150D01*
X-284900Y1650D02*
Y3150D01*
X-111066Y42594D02*
X-109566D01*
X-110316Y41844D02*
Y43344D01*
X-108407Y72126D02*
X-106907D01*
X-107658Y71376D02*
Y72876D01*
X-40640Y162677D02*
X-39140D01*
X-39890Y161927D02*
Y163427D01*
X-90789Y168681D02*
X-89289D01*
X-90039Y167931D02*
Y169431D01*
X-94529Y168976D02*
X-93029D01*
X-93779Y168226D02*
Y169726D01*
X-75927Y175866D02*
X-74427D01*
X-75177Y175116D02*
Y176616D01*
X-72482Y176063D02*
X-70982D01*
X-71732Y175313D02*
Y176813D01*
X-89410Y178130D02*
X-88410D01*
X-88910Y177630D02*
Y178630D01*
X-85473Y178130D02*
X-84473D01*
X-84973Y177630D02*
Y178630D01*
X-101616Y182461D02*
X-100116D01*
X-100866Y181711D02*
Y183211D01*
X-197322Y135807D02*
X-195822D01*
X-196572Y135057D02*
Y136557D01*
X-196400Y149980D02*
X-194900D01*
X-195650Y149230D02*
Y150730D01*
X-285386Y106672D02*
X-283886D01*
X-284636Y105922D02*
Y107422D01*
X-285977Y101554D02*
X-284476D01*
X-285226Y100804D02*
Y102304D01*
X-96250Y131053D02*
X-94750D01*
X-95500Y130304D02*
Y131804D01*
X-106512Y93376D02*
X-105012D01*
X-105762Y92626D02*
Y94126D01*
X-110112Y93537D02*
X-108612D01*
X-109362Y92787D02*
Y94288D01*
X-104175Y98110D02*
X-102675D01*
X-103425Y97360D02*
Y98860D01*
X-106636Y101063D02*
X-105136D01*
X-105886Y100313D02*
Y101813D01*
X-110474Y100404D02*
X-108974D01*
X-109724Y99654D02*
Y101154D01*
X-104645Y89052D02*
X-103145D01*
X-103895Y88302D02*
Y89802D01*
X-72037Y78425D02*
X-70537D01*
X-71287Y77675D02*
Y79175D01*
X-2990Y-64990D02*
X-1490D01*
X-2240Y-65740D02*
Y-64240D01*
X1636Y-69911D02*
X3136D01*
X2386Y-70661D02*
Y-69161D01*
X1738Y-72800D02*
X3238D01*
X2488Y-73550D02*
Y-72050D01*
X2522Y-76408D02*
X4022D01*
X3272Y-77158D02*
Y-75658D01*
X-157029Y31181D02*
X-155529D01*
X-156280Y30431D02*
Y31931D01*
X-157620Y27441D02*
X-156120D01*
X-156870Y26691D02*
Y28191D01*
X-126625Y28868D02*
X-125125D01*
X-125875Y28118D02*
Y29618D01*
X-133088Y30284D02*
X-131588D01*
X-132338Y29534D02*
Y31034D01*
X-131950Y44352D02*
X-130450D01*
X-131200Y43602D02*
Y45102D01*
X-111173Y12817D02*
X-109673D01*
X-110423Y12067D02*
Y13567D01*
X-72150Y142452D02*
X-70650D01*
X-71400Y141702D02*
Y143202D01*
X-72150Y146452D02*
X-70650D01*
X-71400Y145702D02*
Y147202D01*
X-72136Y138091D02*
X-70636D01*
X-71386Y137341D02*
Y138841D01*
X-71691Y74586D02*
X-70191D01*
X-70941Y73836D02*
Y75336D01*
X-54296Y6894D02*
X-52796D01*
X-53546Y6144D02*
Y7644D01*
X-144963Y110600D02*
X-143463D01*
X-144213Y109850D02*
Y111350D01*
X-101911Y91516D02*
X-100411D01*
X-101161Y90766D02*
Y92266D01*
X-99750Y167352D02*
X-98250D01*
X-99000Y166602D02*
Y168102D01*
X-104950Y83452D02*
X-103450D01*
X-104200Y82702D02*
Y84202D01*
X-106950Y78200D02*
X-105450D01*
X-106200Y77450D02*
Y78950D01*
X-134250Y84100D02*
X-132750D01*
X-133500Y83350D02*
Y84850D01*
X-123132Y74181D02*
X-121632D01*
X-122382Y73431D02*
Y74931D01*
X-123211Y66091D02*
X-121711D01*
X-122461Y65341D02*
Y66841D01*
X-125850Y44200D02*
X-124350D01*
X-125100Y43450D02*
Y44950D01*
X-126850Y49200D02*
X-125350D01*
X-126100Y48450D02*
Y49950D01*
X-126827Y52855D02*
X-125327D01*
X-126077Y52105D02*
Y53605D01*
X-126829Y59351D02*
X-125329D01*
X-126079Y58601D02*
Y60101D01*
X-132850Y25600D02*
X-131350D01*
X-132100Y24850D02*
Y26350D01*
X-138960Y26590D02*
X-137460D01*
X-138210Y25840D02*
Y27340D01*
X-135750Y48852D02*
X-134250D01*
X-135000Y48102D02*
Y49602D01*
X-131963Y48031D02*
X-130463D01*
X-131213Y47281D02*
Y48781D01*
X-139950Y45452D02*
X-138450D01*
X-139200Y44702D02*
Y46202D01*
X-138910Y22982D02*
X-137410D01*
X-138160Y22232D02*
Y23732D01*
X-139450Y49052D02*
X-137950D01*
X-138700Y48302D02*
Y49802D01*
X-229950Y102400D02*
X-228450D01*
X-229200Y101650D02*
Y103150D01*
X-17165Y-23100D02*
X-15665D01*
X-16415Y-23850D02*
Y-22350D01*
X-7350Y-76500D02*
X-5850D01*
X-6600Y-77250D02*
Y-75750D01*
X-10750Y-74800D02*
X-9250D01*
X-10000Y-75550D02*
Y-74050D01*
X-70550Y-70000D02*
X-69050D01*
X-69800Y-70750D02*
Y-69250D01*
X-75150Y-65100D02*
X-73650D01*
X-74400Y-65850D02*
Y-64350D01*
X-14950Y-39700D02*
X-13450D01*
X-14200Y-40450D02*
Y-38950D01*
X-20366Y-39780D02*
X-18866D01*
X-19616Y-40530D02*
Y-39030D01*
X-86950Y-39600D02*
X-85450D01*
X-86200Y-40350D02*
Y-38850D01*
X-114150Y-37500D02*
X-112650D01*
X-113400Y-38250D02*
Y-36750D01*
X-313750Y13252D02*
X-312250D01*
X-313000Y12502D02*
Y14002D01*
X-306878Y39400D02*
X-305378D01*
X-306128Y38650D02*
Y40150D01*
X-205050Y81500D02*
X-203550D01*
X-204300Y80750D02*
Y82250D01*
X-209850Y91400D02*
X-208350D01*
X-209100Y90650D02*
Y92150D01*
X-209039Y95017D02*
X-207539D01*
X-208289Y94267D02*
Y95767D01*
X-218655Y72046D02*
X-217156D01*
X-217905Y71296D02*
Y72796D01*
X-215615Y72052D02*
X-214115D01*
X-214865Y71302D02*
Y72802D01*
X-214550Y63600D02*
X-213050D01*
X-213800Y62850D02*
Y64350D01*
X-217590Y63595D02*
X-216090D01*
X-216840Y62845D02*
Y64345D01*
X-184450Y31800D02*
X-182950D01*
X-183700Y31050D02*
Y32550D01*
X-192450Y30052D02*
X-190950D01*
X-191700Y29302D02*
Y30802D01*
X-184350Y111400D02*
X-182850D01*
X-183600Y110650D02*
Y112150D01*
X-144950Y103000D02*
X-143450D01*
X-144200Y102250D02*
Y103750D01*
X-144976Y106682D02*
X-143476D01*
X-144226Y105932D02*
Y107432D01*
X-176150Y145652D02*
X-174650D01*
X-175400Y144902D02*
Y146402D01*
X-160550Y141400D02*
X-159050D01*
X-159800Y140650D02*
Y142150D01*
X-93850Y159352D02*
X-92350D01*
X-93100Y158602D02*
Y160102D01*
X-151810Y106634D02*
X-150310D01*
X-151060Y105884D02*
Y107384D01*
X-233726Y102654D02*
X-232226D01*
X-232976Y101903D02*
Y103403D01*
X-189850Y65500D02*
X-188350D01*
X-189100Y64750D02*
Y66250D01*
X-170150Y60700D02*
X-168650D01*
X-169400Y59950D02*
Y61450D01*
X-260850Y60400D02*
X-259350D01*
X-260100Y59650D02*
Y61150D01*
X-213812Y56461D02*
X-212312D01*
X-213062Y55711D02*
Y57211D01*
X-219419Y81075D02*
X-217918D01*
X-218669Y80325D02*
Y81825D01*
X-207450Y82952D02*
X-205950D01*
X-206700Y82202D02*
Y83702D01*
X-192450Y81852D02*
X-190950D01*
X-191700Y81102D02*
Y82602D01*
X-84450Y156400D02*
X-82950D01*
X-83700Y155650D02*
Y157150D01*
X-83950Y152652D02*
X-82450D01*
X-83200Y151902D02*
Y153402D01*
X-140750Y134352D02*
X-139250D01*
X-140000Y133602D02*
Y135102D01*
X-150402Y127900D02*
X-148902D01*
X-149652Y127150D02*
Y128650D01*
X-193150Y99900D02*
X-191650D01*
X-192400Y99150D02*
Y100650D01*
X-192552Y96265D02*
X-191052D01*
X-191802Y95515D02*
Y97015D01*
X-164242Y111209D02*
X-162742D01*
X-163493Y110459D02*
Y111959D01*
X-163950Y114800D02*
X-162450D01*
X-163200Y114050D02*
Y115550D01*
X-164250Y107600D02*
X-162750D01*
X-163500Y106850D02*
Y108350D01*
X-206750Y103500D02*
X-205250D01*
X-206000Y102750D02*
Y104250D01*
X-190150Y99852D02*
X-188650D01*
X-189400Y99102D02*
Y100602D01*
X-181683Y147047D02*
X-180183D01*
X-180933Y146297D02*
Y147797D01*
X-175974Y151969D02*
X-174474D01*
X-175224Y151218D02*
Y152718D01*
X-290246Y113583D02*
X-288746D01*
X-289496Y112833D02*
Y114333D01*
X-285325Y94980D02*
X-283825D01*
X-284575Y94230D02*
Y95730D01*
X-252330Y96432D02*
X-250831D01*
X-251581Y95682D02*
Y97182D01*
X-183450Y102752D02*
X-181950D01*
X-182700Y102002D02*
Y103502D01*
X41644Y182441D02*
X43144D01*
X42394Y181691D02*
Y183191D01*
X34254Y176260D02*
X35754D01*
X35004Y175510D02*
Y177010D01*
X24116Y176260D02*
X25616D01*
X24866Y175510D02*
Y177010D01*
X30809Y176260D02*
X32309D01*
X31559Y175510D02*
Y177010D01*
X27463Y176260D02*
X28963D01*
X28213Y175510D02*
Y177010D01*
X37699Y176260D02*
X39199D01*
X38449Y175510D02*
Y177010D01*
X40364Y178898D02*
X41864D01*
X41114Y178148D02*
Y179648D01*
X40266Y185984D02*
X41766D01*
X41016Y185234D02*
Y186734D01*
X23927Y188740D02*
X25427D01*
X24677Y187990D02*
Y189490D01*
X34163Y188740D02*
X35663D01*
X34913Y187990D02*
Y189490D01*
X30817Y188740D02*
X32317D01*
X31567Y187990D02*
Y189490D01*
X37510Y188740D02*
X39010D01*
X38260Y187990D02*
Y189490D01*
X27372Y188740D02*
X28872D01*
X28122Y187990D02*
Y189490D01*
X-41919Y148457D02*
X-40419D01*
X-41169Y147707D02*
Y149207D01*
X-39951Y141961D02*
X-38451D01*
X-39201Y141211D02*
Y142711D01*
X-28337Y140484D02*
X-26837D01*
X-27587Y139734D02*
Y141234D01*
X-16329Y142256D02*
X-14829D01*
X-15579Y141506D02*
Y143006D01*
X-41919Y145110D02*
X-40419D01*
X-41169Y144360D02*
Y145860D01*
X-34734Y140386D02*
X-33234D01*
X-33984Y139636D02*
Y141136D01*
X-21348Y140484D02*
X-19848D01*
X-20598Y139734D02*
Y141234D01*
X-14163Y145110D02*
X-12663D01*
X-13413Y144360D02*
Y145860D01*
X-14163Y151705D02*
X-12663D01*
X-13413Y150955D02*
Y152455D01*
X-14163Y148358D02*
X-12663D01*
X-13413Y147608D02*
Y149108D01*
X50516Y57902D02*
X52016D01*
X51266Y57152D02*
Y58652D01*
X40463Y57902D02*
X41963D01*
X41213Y57152D02*
Y58652D01*
X37116Y57902D02*
X38616D01*
X37866Y57152D02*
Y58652D01*
X37102Y76358D02*
X38602D01*
X37852Y75608D02*
Y77108D01*
X40448Y76358D02*
X41948D01*
X41198Y75608D02*
Y77108D01*
X58966Y67154D02*
X60466D01*
X59716Y66404D02*
Y67904D01*
X58966Y70500D02*
X60466D01*
X59716Y69750D02*
Y71250D01*
X58966Y63807D02*
X60466D01*
X59716Y63057D02*
Y64557D01*
X27400Y108858D02*
X28900D01*
X28150Y108108D02*
Y109608D01*
X37510Y108740D02*
X39010D01*
X38260Y107990D02*
Y109490D01*
X30817Y108740D02*
X32317D01*
X31567Y107990D02*
Y109490D01*
X34163Y108740D02*
X35663D01*
X34913Y107990D02*
Y109490D01*
X23927Y108740D02*
X25427D01*
X24677Y107990D02*
Y109490D01*
X41644Y102441D02*
X43144D01*
X42394Y101691D02*
Y103191D01*
X40266Y105984D02*
X41766D01*
X41016Y105234D02*
Y106734D01*
X40364Y98898D02*
X41864D01*
X41114Y98148D02*
Y99648D01*
X37699Y96260D02*
X39199D01*
X38449Y95510D02*
Y97010D01*
X27463Y96260D02*
X28963D01*
X28213Y95510D02*
Y97010D01*
X30809Y96260D02*
X32309D01*
X31559Y95510D02*
Y97010D01*
X24116Y96260D02*
X25616D01*
X24866Y95510D02*
Y97010D01*
X34254Y96260D02*
X35754D01*
X35004Y95510D02*
Y97010D01*
X27372Y148740D02*
X28872D01*
X28122Y147990D02*
Y149490D01*
X37510Y148740D02*
X39010D01*
X38260Y147990D02*
Y149490D01*
X30817Y148740D02*
X32317D01*
X31567Y147990D02*
Y149490D01*
X34163Y148740D02*
X35663D01*
X34913Y147990D02*
Y149490D01*
X23927Y148740D02*
X25427D01*
X24677Y147990D02*
Y149490D01*
X41644Y142441D02*
X43144D01*
X42394Y141691D02*
Y143191D01*
X40266Y145984D02*
X41766D01*
X41016Y145234D02*
Y146734D01*
X40364Y138898D02*
X41864D01*
X41114Y138148D02*
Y139648D01*
X27463Y136260D02*
X28963D01*
X28213Y135510D02*
Y137010D01*
X24116Y136260D02*
X25616D01*
X24866Y135510D02*
Y137010D01*
X27372Y128740D02*
X28872D01*
X28122Y127990D02*
Y129490D01*
X37510Y128740D02*
X39010D01*
X38260Y127990D02*
Y129490D01*
X30817Y128740D02*
X32317D01*
X31567Y127990D02*
Y129490D01*
X34163Y128740D02*
X35663D01*
X34913Y127990D02*
Y129490D01*
X23927Y128740D02*
X25427D01*
X24677Y127990D02*
Y129490D01*
X41644Y122441D02*
X43144D01*
X42394Y121691D02*
Y123191D01*
X40266Y125984D02*
X41766D01*
X41016Y125234D02*
Y126734D01*
X40364Y118898D02*
X41864D01*
X41114Y118148D02*
Y119648D01*
X37699Y116260D02*
X39199D01*
X38449Y115510D02*
Y117010D01*
X27463Y116260D02*
X28963D01*
X28213Y115510D02*
Y117010D01*
X30809Y116260D02*
X32309D01*
X31559Y115510D02*
Y117010D01*
X24116Y116260D02*
X25616D01*
X24866Y115510D02*
Y117010D01*
X34254Y116260D02*
X35754D01*
X35004Y115510D02*
Y117010D01*
X27372Y168740D02*
X28872D01*
X28122Y167990D02*
Y169490D01*
X37510Y168740D02*
X39010D01*
X38260Y167990D02*
Y169490D01*
X30817Y168740D02*
X32317D01*
X31567Y167990D02*
Y169490D01*
X34163Y168740D02*
X35663D01*
X34913Y167990D02*
Y169490D01*
X23927Y168740D02*
X25427D01*
X24677Y167990D02*
Y169490D01*
X41644Y162441D02*
X43144D01*
X42394Y161691D02*
Y163191D01*
X40266Y165984D02*
X41766D01*
X41016Y165234D02*
Y166734D01*
X40364Y158898D02*
X41864D01*
X41114Y158148D02*
Y159648D01*
X37699Y156260D02*
X39199D01*
X38449Y155510D02*
Y157010D01*
X27463Y156260D02*
X28963D01*
X28213Y155510D02*
Y157010D01*
X30809Y156260D02*
X32309D01*
X31559Y155510D02*
Y157010D01*
X24116Y156260D02*
X25616D01*
X24866Y155510D02*
Y157010D01*
X34254Y156260D02*
X35754D01*
X35004Y155510D02*
Y157010D01*
X34254Y196260D02*
X35754D01*
X35004Y195510D02*
Y197010D01*
X24116Y196260D02*
X25616D01*
X24866Y195510D02*
Y197010D01*
X30809Y196260D02*
X32309D01*
X31559Y195510D02*
Y197010D01*
X27463Y196260D02*
X28963D01*
X28213Y195510D02*
Y197010D01*
X37699Y196260D02*
X39199D01*
X38449Y195510D02*
Y197010D01*
X-6351Y194961D02*
X-4851D01*
X-5601Y194211D02*
Y195711D01*
X5263Y193484D02*
X6763D01*
X6013Y192734D02*
Y194234D01*
X17271Y195256D02*
X18771D01*
X18021Y194506D02*
Y196006D01*
X-1134Y193386D02*
X366D01*
X-384Y192636D02*
Y194136D01*
X12252Y193484D02*
X13752D01*
X13002Y192734D02*
Y194234D01*
X19437Y207953D02*
X20937D01*
X20187Y207203D02*
Y208703D01*
X19437Y198110D02*
X20937D01*
X20187Y197360D02*
Y198860D01*
X19437Y204705D02*
X20937D01*
X20187Y203955D02*
Y205455D01*
X19437Y201358D02*
X20937D01*
X20187Y200608D02*
Y202108D01*
X-14163Y198110D02*
X-12663D01*
X-13413Y197360D02*
Y198860D01*
X-14163Y207953D02*
X-12663D01*
X-13413Y207203D02*
Y208703D01*
X-120973Y233829D02*
X-119473D01*
X-120223Y233079D02*
Y234579D01*
X-85719Y217598D02*
X-84219D01*
X-84969Y216848D02*
Y218348D01*
X-78730Y210610D02*
X-77230D01*
X-77980Y209860D02*
Y211360D01*
X-80108Y203524D02*
X-78608D01*
X-79358Y202774D02*
Y204274D01*
X-78534Y193976D02*
X-77034D01*
X-77784Y193226D02*
Y194726D01*
X6408Y238268D02*
X7908D01*
X7158Y237518D02*
Y239018D01*
X13986Y238268D02*
X15486D01*
X14736Y237518D02*
Y239018D01*
X10148Y238268D02*
X11648D01*
X10898Y237518D02*
Y239018D01*
X23238Y238268D02*
X24738D01*
X23988Y237518D02*
Y239018D01*
X27077Y238268D02*
X28577D01*
X27827Y237518D02*
Y239018D01*
X19498Y238268D02*
X20998D01*
X20248Y237518D02*
Y239018D01*
X-56191Y200177D02*
X-54691D01*
X-55441Y199427D02*
Y200927D01*
X-56191Y203327D02*
X-54691D01*
X-55441Y202577D02*
Y204077D01*
X13888Y217992D02*
X15388D01*
X14638Y217242D02*
Y218742D01*
X6309Y217992D02*
X7809D01*
X7059Y217242D02*
Y218742D01*
X10148Y217992D02*
X11648D01*
X10898Y217242D02*
Y218742D01*
X23238Y217992D02*
X24738D01*
X23988Y217242D02*
Y218742D01*
X19400Y217992D02*
X20900D01*
X20150Y217242D02*
Y218742D01*
X26978Y217992D02*
X28478D01*
X27728Y217242D02*
Y218742D01*
X-52943Y214547D02*
X-51443D01*
X-52193Y213797D02*
Y215297D01*
X-52943Y217697D02*
X-51443D01*
X-52193Y216947D02*
Y218447D01*
X-56191Y214547D02*
X-54691D01*
X-55441Y213797D02*
Y215297D01*
X-56191Y217697D02*
X-54691D01*
X-55441Y216947D02*
Y218447D01*
X-95311Y250472D02*
X-93811D01*
X-94561Y249722D02*
Y251222D01*
X-87758Y227264D02*
X-86258D01*
X-87008Y226514D02*
Y228014D01*
X-80010Y185890D02*
X-78510D01*
X-79260Y185141D02*
Y186641D01*
X-37634Y225059D02*
X-36634D01*
X-37134Y224559D02*
Y225559D01*
X-5565Y234970D02*
X-4565D01*
X-5065Y234470D02*
Y235470D01*
X-341132Y62086D02*
X-339632D01*
X-340382Y61336D02*
Y62836D01*
X-107274Y-29646D02*
X-105774D01*
X-106524Y-30396D02*
Y-28896D01*
X-31782Y-27677D02*
X-30281D01*
X-31032Y-28427D02*
Y-26927D01*
X-80797Y-75807D02*
X-79297D01*
X-80047Y-76557D02*
Y-75057D01*
X-153041Y-75807D02*
X-151541D01*
X-152291Y-76557D02*
Y-75057D01*
X305Y-43819D02*
X1805D01*
X1055Y-44569D02*
Y-43069D01*
X3258Y-43819D02*
X4758D01*
X4008Y-44569D02*
Y-43069D01*
X-48514Y-54843D02*
X-47014D01*
X-47764Y-55593D02*
Y-54093D01*
X-124357Y-38109D02*
X-122857D01*
X-123607Y-38859D02*
Y-37358D01*
X-124357Y-31708D02*
X-122857D01*
X-123607Y-32458D02*
Y-30959D01*
X-121357Y-36709D02*
X-119857D01*
X-120607Y-37459D02*
Y-35958D01*
X-121357Y-33209D02*
X-119857D01*
X-120607Y-33959D02*
Y-32458D01*
X-132157Y-36608D02*
X-130657D01*
X-131407Y-37358D02*
Y-35859D01*
X-132157Y-33108D02*
X-130657D01*
X-131407Y-33858D02*
Y-32359D01*
X-129157Y-38109D02*
X-127657D01*
X-128407Y-38859D02*
Y-37358D01*
X-129157Y-31708D02*
X-127657D01*
X-128407Y-32458D02*
Y-30959D01*
X-38213Y-40709D02*
X-36713D01*
X-37463Y-41459D02*
Y-39959D01*
X-27162Y-29896D02*
X-25662D01*
X-26412Y-30646D02*
Y-29146D01*
X-74990Y-40669D02*
X-73490D01*
X-74240Y-41419D02*
Y-39919D01*
X-67162Y-22954D02*
X-65662D01*
X-66412Y-23704D02*
Y-22204D01*
X-64023Y-25854D02*
X-62523D01*
X-63273Y-26604D02*
Y-25104D01*
X-64023Y-14354D02*
X-62523D01*
X-63273Y-15104D02*
Y-13604D01*
X-67123Y-11454D02*
X-65623D01*
X-66373Y-12204D02*
Y-10704D01*
X-70223Y-25854D02*
X-68723D01*
X-69473Y-26604D02*
Y-25104D01*
X-73362Y-22954D02*
X-71862D01*
X-72612Y-23704D02*
Y-22204D01*
X-70223Y-14354D02*
X-68723D01*
X-69473Y-15104D02*
Y-13604D01*
X-73362Y-11454D02*
X-71862D01*
X-72612Y-12204D02*
Y-10704D01*
X-114262Y-54843D02*
X-112762D01*
X-113512Y-55593D02*
Y-54093D01*
X-117215Y-54843D02*
X-115715D01*
X-116465Y-55593D02*
Y-54093D01*
X-99440Y-31943D02*
X-97940D01*
X-98690Y-32693D02*
Y-31193D01*
X-129616Y-9469D02*
X-128116D01*
X-128866Y-10219D02*
Y-8719D01*
X-147234Y-40669D02*
X-145734D01*
X-146484Y-41419D02*
Y-39919D01*
X-145704Y-11454D02*
X-144204D01*
X-144954Y-12204D02*
Y-10704D01*
X-142566Y-14354D02*
X-141066D01*
X-141816Y-15104D02*
Y-13604D01*
X-145704Y-22954D02*
X-144204D01*
X-144954Y-23704D02*
Y-22204D01*
X-142566Y-25854D02*
X-141066D01*
X-141816Y-26604D02*
Y-25104D01*
X-139466Y-11454D02*
X-137966D01*
X-138716Y-12204D02*
Y-10704D01*
X-136366Y-14354D02*
X-134866D01*
X-135616Y-15104D02*
Y-13604D01*
X-136366Y-25854D02*
X-134866D01*
X-135616Y-26604D02*
Y-25104D01*
X-139504Y-22954D02*
X-138004D01*
X-138754Y-23704D02*
Y-22204D01*
X-144715Y-43883D02*
X-143215D01*
X-143965Y-44633D02*
Y-43134D01*
X-186506Y-54843D02*
X-185006D01*
X-185756Y-55593D02*
Y-54093D01*
X-189459Y-54843D02*
X-187959D01*
X-188709Y-55593D02*
Y-54093D01*
X-182701Y-43760D02*
X-181201D01*
X-181951Y-44510D02*
Y-43010D01*
X-182701Y-40709D02*
X-181201D01*
X-181951Y-41459D02*
Y-39959D01*
X-179060Y-43583D02*
X-177560D01*
X-178310Y-44333D02*
Y-42833D01*
X-176185Y-43583D02*
X-174685D01*
X-175435Y-44333D02*
Y-42833D01*
X-219478Y-40669D02*
X-217978D01*
X-218728Y-41419D02*
Y-39919D01*
X-201345Y-31708D02*
X-199845D01*
X-200595Y-32458D02*
Y-30959D01*
X-201345Y-38109D02*
X-199845D01*
X-200595Y-38859D02*
Y-37358D01*
X-204345Y-33108D02*
X-202845D01*
X-203595Y-33858D02*
Y-32359D01*
X-204345Y-36608D02*
X-202845D01*
X-203595Y-37358D02*
Y-35859D01*
X-193545Y-33209D02*
X-192045D01*
X-192795Y-33959D02*
Y-32458D01*
X-193545Y-36709D02*
X-192045D01*
X-192795Y-37459D02*
Y-35958D01*
X-196545Y-31708D02*
X-195045D01*
X-195795Y-32458D02*
Y-30959D01*
X-196545Y-38109D02*
X-195045D01*
X-195795Y-38859D02*
Y-37358D01*
X-211650Y-22954D02*
X-210150D01*
X-210900Y-23704D02*
Y-22204D01*
X-208511Y-25854D02*
X-207011D01*
X-207761Y-26604D02*
Y-25104D01*
X-208511Y-14354D02*
X-207011D01*
X-207761Y-15104D02*
Y-13604D01*
X-211611Y-11454D02*
X-210111D01*
X-210861Y-12204D02*
Y-10704D01*
X-214711Y-25854D02*
X-213211D01*
X-213961Y-26604D02*
Y-25104D01*
X-217850Y-22954D02*
X-216350D01*
X-217100Y-23704D02*
Y-22204D01*
X-214711Y-14354D02*
X-213211D01*
X-213961Y-15104D02*
Y-13604D01*
X-217850Y-11454D02*
X-216350D01*
X-217100Y-12204D02*
Y-10704D01*
X-261703Y-54843D02*
X-260203D01*
X-260953Y-55593D02*
Y-54093D01*
X-258750Y-54843D02*
X-257250D01*
X-258000Y-55593D02*
Y-54093D01*
X-213278Y-43720D02*
X-211778D01*
X-212528Y-44471D02*
Y-42970D01*
X-216230Y-43720D02*
X-214730D01*
X-215480Y-44471D02*
Y-42970D01*
X-196690Y-101791D02*
X-195190D01*
X-195940Y-102541D02*
Y-101041D01*
X-199990Y-101791D02*
X-198490D01*
X-199240Y-102541D02*
Y-101041D01*
X-196297Y-107008D02*
X-194797D01*
X-195546Y-107758D02*
Y-106258D01*
X-199597Y-107008D02*
X-198097D01*
X-198846Y-107758D02*
Y-106258D01*
X-297628Y-91260D02*
X-296128D01*
X-296878Y-92010D02*
Y-90510D01*
X-300828Y-91162D02*
X-299328D01*
X-300078Y-91912D02*
Y-90412D01*
X-43986Y-72461D02*
X-42486D01*
X-43236Y-73211D02*
Y-71711D01*
X-43986Y-69410D02*
X-42486D01*
X-43236Y-70160D02*
Y-68660D01*
X-31191Y-69410D02*
X-29691D01*
X-30441Y-70160D02*
Y-68660D01*
X-31191Y-72461D02*
X-29691D01*
X-30441Y-73211D02*
Y-71711D01*
X14478Y-72362D02*
X15978D01*
X15228Y-73112D02*
Y-71612D01*
X14478Y-69311D02*
X15978D01*
X15228Y-70061D02*
Y-68561D01*
X5370Y-76248D02*
X6870D01*
X6120Y-76998D02*
Y-75498D01*
X-27271Y-62717D02*
X-25771D01*
X-26521Y-63467D02*
Y-61967D01*
X-27271Y-65669D02*
X-25771D01*
X-26521Y-66419D02*
Y-64919D01*
X1486Y-57402D02*
X2986D01*
X2236Y-58152D02*
Y-56652D01*
X4439Y-51496D02*
X5939D01*
X5189Y-52246D02*
Y-50746D01*
X14085Y-47264D02*
X15585D01*
X14835Y-48014D02*
Y-46514D01*
X11132Y-47264D02*
X12632D01*
X11882Y-48014D02*
Y-46514D01*
X1486Y-51496D02*
X2986D01*
X2236Y-52246D02*
Y-50746D01*
X4439Y-57402D02*
X5939D01*
X5189Y-58152D02*
Y-56652D01*
X-30865Y-57441D02*
X-29365D01*
X-30115Y-58191D02*
Y-56691D01*
X-33818Y-57441D02*
X-32318D01*
X-33068Y-58191D02*
Y-56691D01*
X8376Y-76248D02*
X9876D01*
X9126Y-76998D02*
Y-75498D01*
X11427Y-76248D02*
X12927D01*
X12177Y-76998D02*
Y-75498D01*
X-35620Y-80236D02*
X-34120D01*
X-34870Y-80986D02*
Y-79486D01*
X-38626Y-80236D02*
X-37126D01*
X-37876Y-80986D02*
Y-79486D01*
X-41624Y-80236D02*
X-40124D01*
X-40874Y-80986D02*
Y-79486D01*
X-16821Y-26890D02*
X-15321D01*
X-16071Y-27640D02*
Y-26140D01*
X-75089Y-62323D02*
X-73589D01*
X-74339Y-63073D02*
Y-61573D01*
X-116230Y-72461D02*
X-114730D01*
X-115480Y-73211D02*
Y-71711D01*
X-116230Y-69410D02*
X-114730D01*
X-115480Y-70160D02*
Y-68660D01*
X-103435Y-69410D02*
X-101935D01*
X-102685Y-70160D02*
Y-68660D01*
X-103435Y-72461D02*
X-101935D01*
X-102685Y-73211D02*
Y-71711D01*
X-57766Y-72362D02*
X-56266D01*
X-57016Y-73112D02*
Y-71612D01*
X-57766Y-69311D02*
X-56266D01*
X-57016Y-70061D02*
Y-68561D01*
X-66874Y-76248D02*
X-65374D01*
X-66124Y-76998D02*
Y-75498D01*
X-99715Y-63217D02*
X-98215D01*
X-98965Y-63967D02*
Y-62467D01*
X-99715Y-66169D02*
X-98215D01*
X-98965Y-66919D02*
Y-65419D01*
X-70758Y-57402D02*
X-69258D01*
X-70008Y-58152D02*
Y-56652D01*
X-67805Y-51496D02*
X-66305D01*
X-67055Y-52246D02*
Y-50746D01*
X-60915Y-47165D02*
X-59415D01*
X-60165Y-47915D02*
Y-46415D01*
X-70758Y-51496D02*
X-69258D01*
X-70008Y-52246D02*
Y-50746D01*
X-67805Y-57402D02*
X-66305D01*
X-67055Y-58152D02*
Y-56652D01*
X-103109Y-57441D02*
X-101609D01*
X-102359Y-58191D02*
Y-56691D01*
X-106062Y-57441D02*
X-104562D01*
X-105312Y-58191D02*
Y-56691D01*
X-63868Y-76248D02*
X-62368D01*
X-63118Y-76998D02*
Y-75498D01*
X-60817Y-76248D02*
X-59317D01*
X-60067Y-76998D02*
Y-75498D01*
X-104813Y-80236D02*
X-103313D01*
X-104063Y-80986D02*
Y-79486D01*
X-107864Y-80236D02*
X-106364D01*
X-107114Y-80986D02*
Y-79486D01*
X-110871Y-80236D02*
X-109371D01*
X-110120Y-80986D02*
Y-79486D01*
X-113868Y-80236D02*
X-112368D01*
X-113118Y-80986D02*
Y-79486D01*
X-89065Y-26890D02*
X-87565D01*
X-88315Y-27640D02*
Y-26140D01*
X-89065Y-22756D02*
X-87565D01*
X-88315Y-23506D02*
Y-22006D01*
X-147333Y-62323D02*
X-145833D01*
X-146583Y-63073D02*
Y-61573D01*
X-188474Y-69410D02*
X-186974D01*
X-187724Y-70160D02*
Y-68660D01*
X-175679Y-69410D02*
X-174179D01*
X-174929Y-70160D02*
Y-68660D01*
X-130010Y-72362D02*
X-128510D01*
X-129260Y-73112D02*
Y-71612D01*
X-130010Y-69311D02*
X-128510D01*
X-129260Y-70061D02*
Y-68561D01*
X-139119Y-76248D02*
X-137619D01*
X-138368Y-76998D02*
Y-75498D01*
X-171447Y-65669D02*
X-169947D01*
X-170697Y-66419D02*
Y-64919D01*
X-143002Y-57402D02*
X-141502D01*
X-142252Y-58152D02*
Y-56652D01*
X-140049Y-51693D02*
X-138549D01*
X-139299Y-52443D02*
Y-50943D01*
X-133848Y-47362D02*
X-132348D01*
X-133098Y-48112D02*
Y-46612D01*
X-130896Y-47362D02*
X-129396D01*
X-130146Y-48112D02*
Y-46612D01*
X-143002Y-51693D02*
X-141502D01*
X-142252Y-52443D02*
Y-50943D01*
X-140049Y-57402D02*
X-138549D01*
X-139299Y-58152D02*
Y-56652D01*
X-175353Y-57441D02*
X-173853D01*
X-174603Y-58191D02*
Y-56691D01*
X-178306Y-57441D02*
X-176806D01*
X-177556Y-58191D02*
Y-56691D01*
X-142805Y-69705D02*
X-141305D01*
X-142055Y-70455D02*
Y-68955D01*
X-136112Y-76248D02*
X-134612D01*
X-135362Y-76998D02*
Y-75498D01*
X-133061Y-76248D02*
X-131561D01*
X-132311Y-76998D02*
Y-75498D01*
X-177057Y-80236D02*
X-175557D01*
X-176307Y-80986D02*
Y-79486D01*
X-180108Y-80236D02*
X-178608D01*
X-179358Y-80986D02*
Y-79486D01*
X-183115Y-80236D02*
X-181615D01*
X-182365Y-80986D02*
Y-79486D01*
X-161309Y-26890D02*
X-159809D01*
X-160559Y-27640D02*
Y-26140D01*
X-219577Y-62421D02*
X-218077D01*
X-218827Y-63171D02*
Y-61671D01*
X-260718Y-72461D02*
X-259219D01*
X-259968Y-73211D02*
Y-71711D01*
X-260718Y-69410D02*
X-259219D01*
X-259968Y-70160D02*
Y-68660D01*
X-247923Y-69410D02*
X-246423D01*
X-247173Y-70160D02*
Y-68660D01*
X-247923Y-72461D02*
X-246423D01*
X-247173Y-73211D02*
Y-71711D01*
X-202254Y-72362D02*
X-200754D01*
X-201504Y-73112D02*
Y-71612D01*
X-202254Y-69311D02*
X-200754D01*
X-201504Y-70061D02*
Y-68561D01*
X-210083Y-76248D02*
X-208583D01*
X-209333Y-76998D02*
Y-75498D01*
X-215246Y-57402D02*
X-213746D01*
X-214496Y-58152D02*
Y-56652D01*
X-212293Y-51496D02*
X-210793D01*
X-211543Y-52246D02*
Y-50746D01*
X-215246Y-51496D02*
X-213746D01*
X-214496Y-52246D02*
Y-50746D01*
X-212293Y-57402D02*
X-210793D01*
X-211543Y-58152D02*
Y-56652D01*
X-247597Y-57441D02*
X-246097D01*
X-246847Y-58191D02*
Y-56691D01*
X-250550Y-57441D02*
X-249050D01*
X-249800Y-58191D02*
Y-56691D01*
X-236998Y-39980D02*
X-235498D01*
X-236248Y-40730D02*
Y-39230D01*
X-207077Y-76248D02*
X-205577D01*
X-206327Y-76998D02*
Y-75498D01*
X-204026Y-76248D02*
X-202526D01*
X-203276Y-76998D02*
Y-75498D01*
X-249301Y-80236D02*
X-247801D01*
X-248551Y-80986D02*
Y-79486D01*
X-258356Y-80236D02*
X-256856D01*
X-257606Y-80986D02*
Y-79486D01*
X-233553Y-26890D02*
X-232053D01*
X-232803Y-27640D02*
Y-26140D01*
X-305797Y-26890D02*
X-304297D01*
X-305047Y-27640D02*
Y-26140D01*
X-330600Y-80236D02*
X-329100D01*
X-329850Y-80986D02*
Y-79486D01*
X-327603Y-80236D02*
X-326103D01*
X-326853Y-80986D02*
Y-79486D01*
X-324597Y-80236D02*
X-323096D01*
X-323847Y-80986D02*
Y-79486D01*
X-322794Y-57441D02*
X-321294D01*
X-322044Y-58191D02*
Y-56691D01*
X-319841Y-57441D02*
X-318341D01*
X-319091Y-58191D02*
Y-56691D01*
X-330994Y-54843D02*
X-329494D01*
X-330244Y-55593D02*
Y-54093D01*
X-333947Y-54843D02*
X-332447D01*
X-333197Y-55593D02*
Y-54093D01*
X-284537Y-51496D02*
X-283037D01*
X-283787Y-52246D02*
Y-50746D01*
X-287490Y-57402D02*
X-285990D01*
X-286740Y-58152D02*
Y-56652D01*
X58350Y49452D02*
X59850D01*
X59100Y48702D02*
Y50202D01*
X32150Y19652D02*
X33650D01*
X32900Y18902D02*
Y20402D01*
X31650Y10152D02*
X33150D01*
X32400Y9402D02*
Y10902D01*
X53489Y44522D02*
X54989D01*
X54239Y43772D02*
Y45272D01*
X-130750Y-503D02*
X-129250D01*
X-130000Y-1253D02*
Y247D01*
X-130750Y17607D02*
X-129250D01*
X-130000Y16857D02*
Y18357D01*
X-121695Y8552D02*
X-120195D01*
X-120945Y7802D02*
Y9302D01*
X-139805Y8552D02*
X-138305D01*
X-139055Y7802D02*
Y9302D01*
X-318405Y174752D02*
X-316905D01*
X-317655Y174002D02*
Y175502D01*
X-300295Y174752D02*
X-298795D01*
X-299545Y174002D02*
Y175502D01*
X-309350Y183807D02*
X-307850D01*
X-308600Y183057D02*
Y184557D01*
X-309350Y165697D02*
X-307850D01*
X-308600Y164947D02*
Y166447D01*
X-201026Y135807D02*
X-199526D01*
X-200276Y135057D02*
Y136557D01*
X-163250Y23452D02*
X-161750D01*
X-162500Y22702D02*
Y24202D01*
X-186081Y53745D02*
X-184581D01*
X-185331Y52995D02*
Y54495D01*
X-175876Y54705D02*
X-174376D01*
X-175126Y53955D02*
Y55455D01*
X-134218Y65457D02*
X-132718D01*
X-133468Y64707D02*
Y66207D01*
X-139892Y79990D02*
X-138391D01*
X-139141Y79240D02*
Y80740D01*
X-130058Y102578D02*
X-128558D01*
X-129308Y101829D02*
Y103329D01*
X-311202Y138893D02*
X-309702D01*
X-310452Y138143D02*
Y139643D01*
X-318289Y137238D02*
X-316789D01*
X-317539Y136488D02*
Y137988D01*
X-318482Y156929D02*
X-316982D01*
X-317732Y156179D02*
Y157679D01*
X-328251Y142081D02*
X-326751D01*
X-327501Y141331D02*
Y142831D01*
X-328211Y148164D02*
X-326711D01*
X-327461Y147414D02*
Y148914D01*
X-337172Y159434D02*
X-335672D01*
X-336422Y158684D02*
Y160184D01*
X-294457Y171686D02*
X-292956D01*
X-293706Y170936D02*
Y172436D01*
X-294601Y167741D02*
X-293101D01*
X-293851Y166991D02*
Y168491D01*
X-294653Y163900D02*
X-293153D01*
X-293903Y163150D02*
Y164650D01*
X31850Y14452D02*
X33350D01*
X32600Y13702D02*
Y15202D01*
X53850Y24908D02*
X55350D01*
X54600Y24158D02*
Y25658D01*
X37050Y22208D02*
X38550D01*
X37800Y21458D02*
Y22958D01*
X33750Y24908D02*
X35250D01*
X34500Y24158D02*
Y25658D01*
X33750Y6052D02*
X35250D01*
X34500Y5302D02*
Y6802D01*
X37050Y3352D02*
X38550D01*
X37800Y2602D02*
Y4102D01*
X47150Y24908D02*
X48650D01*
X47900Y24158D02*
Y25658D01*
X-107942Y60016D02*
X-106442D01*
X-107193Y59266D02*
Y60766D01*
X-109936Y62023D02*
X-108436D01*
X-109186Y61273D02*
Y62773D01*
X-134228Y74081D02*
X-132728D01*
X-133478Y73331D02*
Y74831D01*
X-126861Y74173D02*
X-125361D01*
X-126111Y73423D02*
Y74923D01*
X-130505Y80026D02*
X-129005D01*
X-129755Y79276D02*
Y80776D01*
X-189777Y76018D02*
X-188277D01*
X-189027Y75268D02*
Y76768D01*
X-139637Y109916D02*
X-138137D01*
X-138887Y109166D02*
Y110666D01*
X-248350Y96052D02*
X-246850D01*
X-247600Y95302D02*
Y96802D01*
X-192350Y48752D02*
X-190850D01*
X-191600Y48002D02*
Y49502D01*
X-130542Y65985D02*
X-129042D01*
X-129791Y65235D02*
Y66735D01*
X-123138Y59329D02*
X-121638D01*
X-122388Y58579D02*
Y60079D01*
X-130531Y74090D02*
X-129031D01*
X-129781Y73340D02*
Y74840D01*
X-126838Y66147D02*
X-125338D01*
X-126088Y65397D02*
Y66897D01*
X-125750Y99752D02*
X-124250D01*
X-125000Y99002D02*
Y100502D01*
X-34063Y71741D02*
X-32563D01*
X-33313Y70991D02*
Y72491D01*
X-58998Y35236D02*
X-57498D01*
X-58248Y34486D02*
Y35986D01*
X-63898Y35426D02*
X-62398D01*
X-63148Y34676D02*
Y36176D01*
X-274357Y-38109D02*
X-272857D01*
X-273607Y-38859D02*
Y-37358D01*
X-274357Y-31708D02*
X-272857D01*
X-273607Y-32458D02*
Y-30959D01*
X-271357Y-36709D02*
X-269857D01*
X-270607Y-37459D02*
Y-35958D01*
X-271357Y-33209D02*
X-269857D01*
X-270607Y-33959D02*
Y-32458D01*
X-289011Y-22954D02*
X-287511D01*
X-288261Y-23704D02*
Y-22204D01*
X-285873Y-25854D02*
X-284373D01*
X-285123Y-26604D02*
Y-25104D01*
X-279673Y-25854D02*
X-278173D01*
X-278923Y-26604D02*
Y-25104D01*
X-282811Y-22954D02*
X-281311D01*
X-282061Y-23704D02*
Y-22204D01*
X-282157Y-36608D02*
X-280657D01*
X-281407Y-37358D02*
Y-35859D01*
X-282157Y-33108D02*
X-280657D01*
X-281407Y-33858D02*
Y-32359D01*
X-279157Y-38109D02*
X-277657D01*
X-278407Y-38859D02*
Y-37358D01*
X-279157Y-31708D02*
X-277657D01*
X-278407Y-32458D02*
Y-30959D01*
X40415Y24852D02*
X41915D01*
X41165Y24102D02*
Y25602D01*
X43750Y22208D02*
X45250D01*
X44500Y21458D02*
Y22958D01*
X-56250Y-100442D02*
X-54750D01*
X-55500Y-101192D02*
Y-99692D01*
X-82550Y-106948D02*
X-81050D01*
X-81800Y-107698D02*
Y-106198D01*
X-85850Y-106948D02*
X-84350D01*
X-85100Y-107698D02*
Y-106198D01*
X-66250Y-106048D02*
X-64750D01*
X-65500Y-106798D02*
Y-105298D01*
X-136450Y-107048D02*
X-134950D01*
X-135700Y-107798D02*
Y-106298D01*
X-139750Y-107048D02*
X-138250D01*
X-139000Y-107798D02*
Y-106298D01*
X-189550Y-110248D02*
X-188050D01*
X-188800Y-110998D02*
Y-109498D01*
X-189550Y-113548D02*
X-188050D01*
X-188800Y-114298D02*
Y-112798D01*
X-166250Y-99948D02*
X-164750D01*
X-165500Y-100698D02*
Y-99198D01*
X-176030Y-107525D02*
X-174530D01*
X-175280Y-108275D02*
Y-106775D01*
X-262750Y-110048D02*
X-261250D01*
X-262000Y-110798D02*
Y-109298D01*
X-262750Y-106848D02*
X-261250D01*
X-262000Y-107598D02*
Y-106098D01*
X-262750Y-103648D02*
X-261250D01*
X-262000Y-104398D02*
Y-102898D01*
X-283607Y-76248D02*
X-282107D01*
X-282857Y-76998D02*
Y-75498D01*
X-276050Y-97248D02*
X-274550D01*
X-275300Y-97998D02*
Y-96498D01*
X-276050Y-100448D02*
X-274550D01*
X-275300Y-101198D02*
Y-99698D01*
X-286641Y-97248D02*
X-285140D01*
X-285891Y-97998D02*
Y-96498D01*
X-286641Y-100448D02*
X-285140D01*
X-285891Y-101198D02*
Y-99698D01*
X-295350Y-113648D02*
X-293850D01*
X-294600Y-114398D02*
Y-112898D01*
X-295650Y-107148D02*
X-294150D01*
X-294900Y-107898D02*
Y-106398D01*
X-322050Y-106800D02*
X-320550D01*
X-321300Y-107550D02*
Y-106050D01*
X-316550Y-109748D02*
X-315050D01*
X-315800Y-110498D02*
Y-108998D01*
X-311850Y-110248D02*
X-310350D01*
X-311100Y-110998D02*
Y-109498D01*
X-308350Y-110248D02*
X-306850D01*
X-307600Y-110998D02*
Y-109498D01*
X40364Y198898D02*
X41864D01*
X41114Y198148D02*
Y199648D01*
X40266Y205984D02*
X41766D01*
X41016Y205234D02*
Y206734D01*
X41644Y202441D02*
X43144D01*
X42394Y201691D02*
Y203191D01*
X23927Y208740D02*
X25427D01*
X24677Y207990D02*
Y209490D01*
X34163Y208740D02*
X35663D01*
X34913Y207990D02*
Y209490D01*
X30817Y208740D02*
X32317D01*
X31567Y207990D02*
Y209490D01*
X-34734Y193386D02*
X-33234D01*
X-33984Y192636D02*
Y194136D01*
X-41919Y198110D02*
X-40419D01*
X-41169Y197360D02*
Y198860D01*
X-28337Y193484D02*
X-26837D01*
X-27587Y192734D02*
Y194234D01*
X-41919Y207953D02*
X-40419D01*
X-41169Y207203D02*
Y208703D01*
X-39951Y194961D02*
X-38451D01*
X-39201Y194211D02*
Y195711D01*
X-41919Y201457D02*
X-40419D01*
X-41169Y200707D02*
Y202207D01*
X-41919Y204705D02*
X-40419D01*
X-41169Y203955D02*
Y205455D01*
X-27950Y157252D02*
X-26450D01*
X-27200Y156502D02*
Y158002D01*
X13750Y158752D02*
X15250D01*
X14500Y158002D02*
Y159502D01*
X-6750Y156552D02*
X-5250D01*
X-6000Y155802D02*
Y157302D01*
X17250Y156952D02*
X18750D01*
X18000Y156202D02*
Y157702D01*
X9050Y158752D02*
X10550D01*
X9800Y158002D02*
Y159502D01*
X5650Y156052D02*
X7150D01*
X6400Y155302D02*
Y156802D01*
X5450Y142452D02*
X6950D01*
X6200Y141702D02*
Y143202D01*
X-54715Y141535D02*
X-53215D01*
X-53965Y140785D02*
Y142285D01*
X-60250Y152852D02*
X-58750D01*
X-59500Y152102D02*
Y153602D01*
X-91774Y226358D02*
X-90274D01*
X-91024Y225608D02*
Y227108D01*
X-82450Y190452D02*
X-80950D01*
X-81700Y189702D02*
Y191202D01*
X-54950Y148952D02*
X-53450D01*
X-54200Y148202D02*
Y149702D01*
X-60350Y161352D02*
X-58850D01*
X-59600Y160602D02*
Y162102D01*
X-56050Y158252D02*
X-54550D01*
X-55300Y157502D02*
Y159002D01*
X-132975Y154128D02*
X-131475D01*
X-132225Y153378D02*
Y154878D01*
X-95612Y230295D02*
X-94112D01*
X-94862Y229545D02*
Y231045D01*
X-95311Y240241D02*
X-93811D01*
X-94561Y239491D02*
Y240991D01*
X-262244Y185903D02*
X-260744D01*
X-261494Y185153D02*
Y186653D01*
X-270150Y181056D02*
X-268650D01*
X-269400Y180306D02*
Y181806D01*
X-141550Y200852D02*
X-140050D01*
X-140800Y200102D02*
Y201602D01*
X-164850Y245552D02*
X-163350D01*
X-164100Y244802D02*
Y246302D01*
X-164850Y253252D02*
X-163350D01*
X-164100Y252502D02*
Y254002D01*
X-151450Y253452D02*
X-149950D01*
X-150700Y252702D02*
Y254202D01*
X-151550Y245452D02*
X-150050D01*
X-150800Y244702D02*
Y246202D01*
X-164850Y249352D02*
X-163350D01*
X-164100Y248602D02*
Y250102D01*
X-151650Y249352D02*
X-150150D01*
X-150900Y248602D02*
Y250102D01*
X-157864Y165335D02*
X-156364D01*
X-157114Y164585D02*
Y166085D01*
X51056Y-42748D02*
X52556D01*
X51806Y-43498D02*
Y-41998D01*
X51056Y-27148D02*
X52556D01*
X51806Y-27898D02*
Y-26398D01*
X16066Y247344D02*
X17566D01*
X16816Y246594D02*
Y248094D01*
X-297050Y124533D02*
X-295550D01*
X-296300Y123783D02*
Y125283D01*
X-252150Y164152D02*
X-250650D01*
X-251400Y163402D02*
Y164902D01*
X-287199Y152432D02*
X-285699D01*
X-286449Y151682D02*
Y153182D01*
X-220812Y159237D02*
X-219312D01*
X-220062Y158487D02*
Y159987D01*
X-234950Y107752D02*
X-233450D01*
X-234200Y107002D02*
Y108502D01*
X-281150Y150752D02*
X-279650D01*
X-280400Y150002D02*
Y151502D01*
X-234693Y112637D02*
X-233193D01*
X-233943Y111887D02*
Y113387D01*
X-304350Y120833D02*
X-302850D01*
X-303600Y120083D02*
Y121583D01*
X-304650Y128233D02*
X-303150D01*
X-303900Y127483D02*
Y128983D01*
X-304850Y124533D02*
X-303350D01*
X-304100Y123783D02*
Y125283D01*
X-341450Y130452D02*
X-339950D01*
X-340700Y129702D02*
Y131202D01*
X-173549Y44338D02*
X-172049D01*
X-172799Y43588D02*
Y45088D01*
X-181950Y48052D02*
X-180450D01*
X-181200Y47302D02*
Y48802D01*
X-181950Y44352D02*
X-180450D01*
X-181200Y43602D02*
Y45102D01*
X-184359Y107628D02*
X-182859D01*
X-183609Y106878D02*
Y108378D01*
X-174499Y111198D02*
X-172999D01*
X-173749Y110448D02*
Y111948D01*
X-182030Y193252D02*
X-180530D01*
X-181280Y192502D02*
Y194002D01*
X-134350Y187152D02*
X-132850D01*
X-133600Y186402D02*
Y187902D01*
X-125230Y181352D02*
X-123730D01*
X-124480Y180602D02*
Y182102D01*
X-274498Y-69311D02*
X-272998D01*
X-273748Y-70061D02*
Y-68561D01*
X-274498Y-72362D02*
X-272998D01*
X-273748Y-73112D02*
Y-71612D01*
X-320167Y-72461D02*
X-318667D01*
X-319417Y-73211D02*
Y-71711D01*
X-320167Y-69410D02*
X-318667D01*
X-319417Y-70160D02*
Y-68660D01*
X-332963Y-72461D02*
X-331463D01*
X-332213Y-73211D02*
Y-71711D01*
X-341050Y197452D02*
X-339550D01*
X-340300Y196702D02*
Y198202D01*
X53848Y76358D02*
X55348D01*
X54598Y75608D02*
Y77108D01*
X31998Y70453D02*
X33498D01*
X32748Y69703D02*
Y71203D01*
X57556Y-27148D02*
X59056D01*
X58306Y-27898D02*
Y-26398D01*
X54340Y-27148D02*
X55840D01*
X55090Y-27898D02*
Y-26398D01*
X57556Y-42648D02*
X59056D01*
X58306Y-43398D02*
Y-41898D01*
X52766Y-40148D02*
X54266D01*
X53516Y-40898D02*
Y-39398D01*
X54340Y-42748D02*
X55840D01*
X55090Y-43498D02*
Y-41998D01*
X-128270Y181352D02*
X-126770D01*
X-127520Y180602D02*
Y182102D01*
X-128750Y185852D02*
X-127250D01*
X-128000Y185102D02*
Y186602D01*
X-119150Y181352D02*
X-117650D01*
X-118400Y180602D02*
Y182102D01*
X-278250Y115852D02*
X-276750D01*
X-277500Y115102D02*
Y116602D01*
X-134350Y184252D02*
X-132850D01*
X-133600Y183502D02*
Y185002D01*
X-131310Y181352D02*
X-129810D01*
X-130560Y180602D02*
Y182102D01*
X-223519Y153039D02*
X-222019D01*
X-222769Y152289D02*
Y153789D01*
X-341050Y193152D02*
X-339550D01*
X-340300Y192402D02*
Y193902D01*
X-214350Y193952D02*
X-212850D01*
X-213600Y193202D02*
Y194702D01*
X-254656Y189547D02*
X-253155D01*
X-253906Y188797D02*
Y190297D01*
X-254250Y193952D02*
X-252750D01*
X-253500Y193202D02*
Y194702D01*
X-122190Y181352D02*
X-120690D01*
X-121440Y180602D02*
Y182102D01*
X-134350Y181352D02*
X-132850D01*
X-133600Y180602D02*
Y182102D01*
X-249350Y194052D02*
X-247850D01*
X-248600Y193302D02*
Y194802D01*
X-209050Y193852D02*
X-207550D01*
X-208300Y193102D02*
Y194602D01*
X-298050Y189452D02*
X-296550D01*
X-297300Y188702D02*
Y190202D01*
X-248750Y189547D02*
X-247250D01*
X-248000Y188797D02*
Y190297D01*
X-123550Y185852D02*
X-122050D01*
X-122800Y185102D02*
Y186602D01*
X31998Y63760D02*
X33498D01*
X32748Y63010D02*
Y64510D01*
X53750Y57953D02*
X55250D01*
X54500Y57203D02*
Y58703D01*
X50502Y76358D02*
X52002D01*
X51252Y75608D02*
Y77108D01*
X31998Y67106D02*
X33498D01*
X32748Y66356D02*
Y67856D01*
X-193250Y109474D02*
X-191750D01*
X-192500Y108724D02*
Y110224D01*
X-213350Y109752D02*
X-211850D01*
X-212600Y109002D02*
Y110502D01*
X-213350Y113552D02*
X-211850D01*
X-212600Y112802D02*
Y114302D01*
X-123137Y52868D02*
X-121637D01*
X-122387Y52118D02*
Y53618D01*
X-139635Y113419D02*
X-138135D01*
X-138885Y112669D02*
Y114169D01*
X-188663Y48745D02*
X-187163D01*
X-187913Y47995D02*
Y49495D01*
X-341750Y178152D02*
X-340250D01*
X-341000Y177402D02*
Y178902D01*
X-182130Y206252D02*
X-180630D01*
X-181380Y205502D02*
Y207002D01*
X39350Y-99548D02*
X40850D01*
X40100Y-100298D02*
Y-98798D01*
X-281450Y146952D02*
X-279950D01*
X-280700Y146202D02*
Y147702D01*
X-284950Y140852D02*
X-283450D01*
X-284200Y140102D02*
Y141602D01*
X-85550Y198452D02*
X-84050D01*
X-84800Y197702D02*
Y199202D01*
X-60950Y142552D02*
X-59450D01*
X-60200Y141802D02*
Y143302D01*
X-60950Y138352D02*
X-59450D01*
X-60200Y137602D02*
Y139102D01*
X-94050Y162352D02*
X-92550D01*
X-93300Y161602D02*
Y163102D01*
X-41282Y260315D02*
X-39781D01*
X-40532Y259565D02*
Y261065D01*
X4781Y258445D02*
X6282D01*
X5531Y257695D02*
Y259195D01*
X-9293Y260906D02*
X-7793D01*
X-8543Y260156D02*
Y261655D01*
X-88350Y210583D02*
X-86850D01*
X-87600Y209833D02*
Y211333D01*
X-88350Y205676D02*
X-86850D01*
X-87600Y204925D02*
Y206425D01*
X-267150Y220152D02*
X-265650D01*
X-266400Y219402D02*
Y220902D01*
X-191650Y249352D02*
X-190150D01*
X-190900Y248602D02*
Y250102D01*
X-204850Y249352D02*
X-203350D01*
X-204100Y248602D02*
Y250102D01*
X-221550Y232952D02*
X-220050D01*
X-220800Y232202D02*
Y233702D01*
X-191550Y245452D02*
X-190050D01*
X-190800Y244702D02*
Y246202D01*
X-191450Y253452D02*
X-189950D01*
X-190700Y252702D02*
Y254202D01*
X-204850Y253252D02*
X-203350D01*
X-204100Y252502D02*
Y254002D01*
X-204850Y245552D02*
X-203350D01*
X-204100Y244802D02*
Y246302D01*
X-261050Y233152D02*
X-259550D01*
X-260300Y232402D02*
Y233902D01*
X-304650Y221652D02*
X-303150D01*
X-303900Y220902D02*
Y222402D01*
X-204450Y234152D02*
X-202950D01*
X-203700Y233402D02*
Y234902D01*
X-191450Y233952D02*
X-189950D01*
X-190700Y233202D02*
Y234702D01*
X-231450Y233952D02*
X-229950D01*
X-230700Y233202D02*
Y234702D01*
X-244450Y234152D02*
X-242950D01*
X-243700Y233402D02*
Y234902D01*
X-244850Y245552D02*
X-243350D01*
X-244100Y244802D02*
Y246302D01*
X-244850Y253252D02*
X-243350D01*
X-244100Y252502D02*
Y254002D01*
X-231450Y253452D02*
X-229950D01*
X-230700Y252702D02*
Y254202D01*
X-231550Y245452D02*
X-230050D01*
X-230800Y244702D02*
Y246202D01*
X-244850Y249352D02*
X-243350D01*
X-244100Y248602D02*
Y250102D01*
X-231650Y249352D02*
X-230150D01*
X-230900Y248602D02*
Y250102D01*
X-270827Y235349D02*
X-269327D01*
X-270077Y234599D02*
Y236099D01*
X-284696Y235261D02*
X-283196D01*
X-283946Y234510D02*
Y236011D01*
X-284850Y245552D02*
X-283350D01*
X-284100Y244802D02*
Y246302D01*
X-284850Y253252D02*
X-283350D01*
X-284100Y252502D02*
Y254002D01*
X-271450Y253452D02*
X-269950D01*
X-270700Y252702D02*
Y254202D01*
X-271550Y245452D02*
X-270050D01*
X-270800Y244702D02*
Y246202D01*
X-284850Y249352D02*
X-283350D01*
X-284100Y248602D02*
Y250102D01*
X-271650Y249352D02*
X-270150D01*
X-270900Y248602D02*
Y250102D01*
X-298550Y220352D02*
X-297050D01*
X-297800Y219602D02*
Y221102D01*
X-227300Y220152D02*
X-225800D01*
X-226550Y219402D02*
Y220902D01*
X-262650Y217952D02*
X-261150D01*
X-261900Y217202D02*
Y218702D01*
X-262650Y208852D02*
X-261150D01*
X-261900Y208102D02*
Y209602D01*
X-222550Y208852D02*
X-221050D01*
X-221800Y208102D02*
Y209602D01*
X-222550Y217952D02*
X-221050D01*
X-221800Y217202D02*
Y218702D01*
X-187200Y220152D02*
X-185700D01*
X-186450Y219402D02*
Y220902D01*
X-142450Y224452D02*
X-140950D01*
X-141700Y223702D02*
Y225202D01*
X-262350Y226452D02*
X-260850D01*
X-261600Y225702D02*
Y227202D01*
X-222450Y226652D02*
X-220950D01*
X-221700Y225902D02*
Y227402D01*
X-97850Y223752D02*
X-96350D01*
X-97100Y223002D02*
Y224502D01*
X-92650Y192552D02*
X-91150D01*
X-91900Y191802D02*
Y193302D01*
X-106350Y192452D02*
X-104850D01*
X-105600Y191702D02*
Y193202D01*
X-121450Y224452D02*
X-119950D01*
X-120700Y223702D02*
Y225202D01*
X-136250Y194252D02*
X-134750D01*
X-135500Y193502D02*
Y195002D01*
X-136250Y204252D02*
X-134750D01*
X-135500Y203502D02*
Y205002D01*
X-136350Y199452D02*
X-134850D01*
X-135600Y198702D02*
Y200202D01*
X-140450Y214252D02*
X-138950D01*
X-139700Y213502D02*
Y215002D01*
X-131250Y214252D02*
X-129750D01*
X-130500Y213502D02*
Y215002D01*
X-121250Y214252D02*
X-119750D01*
X-120500Y213502D02*
Y215002D01*
X-111250Y214252D02*
X-109750D01*
X-110500Y213502D02*
Y215002D01*
X-101250Y214252D02*
X-99750D01*
X-100500Y213502D02*
Y215002D01*
X-91650Y214352D02*
X-90150D01*
X-90900Y213602D02*
Y215102D01*
X-101222Y204409D02*
X-99722D01*
X-100472Y203659D02*
Y205159D01*
X-101250Y194252D02*
X-99750D01*
X-100500Y193502D02*
Y195002D01*
X-111250Y204252D02*
X-109750D01*
X-110500Y203502D02*
Y205002D01*
X-91872Y204311D02*
X-90372D01*
X-91122Y203561D02*
Y205061D01*
X-131250Y224252D02*
X-129750D01*
X-130500Y223502D02*
Y225002D01*
X22129Y262496D02*
X23629D01*
X22879Y261746D02*
Y263246D01*
X18129Y262496D02*
X19629D01*
X18879Y261746D02*
Y263246D01*
X12229Y262496D02*
X13729D01*
X12979Y261746D02*
Y263246D01*
X22163Y252047D02*
X23663D01*
X22913Y251297D02*
Y252797D01*
X45408Y234315D02*
X46908D01*
X46158Y233565D02*
Y235065D01*
X-327350Y129252D02*
X-325850D01*
X-326600Y128502D02*
Y130002D01*
X-312650Y-120948D02*
X-311150D01*
X-311900Y-121698D02*
Y-120198D01*
X-140850Y-1448D02*
X-139350D01*
X-140100Y-2198D02*
Y-698D01*
X-225718Y203327D02*
X-224219D01*
X-224969Y202577D02*
Y204077D01*
X-185830Y193352D02*
X-184330D01*
X-185080Y192602D02*
Y194102D01*
X-214400Y189547D02*
X-212900D01*
X-213650Y188797D02*
Y190297D01*
X-217352Y189547D02*
X-215852D01*
X-216602Y188797D02*
Y190297D01*
X-268927Y190728D02*
X-267427D01*
X-268177Y189978D02*
Y191478D01*
X-228770Y190827D02*
X-227270D01*
X-228020Y190077D02*
Y191577D01*
X-208494Y189547D02*
X-206994D01*
X-207744Y188797D02*
Y190297D01*
X-211447Y189547D02*
X-209947D01*
X-210697Y188797D02*
Y190297D01*
X-205541Y189547D02*
X-204041D01*
X-204791Y188797D02*
Y190297D01*
X-251703Y189547D02*
X-250203D01*
X-250953Y188797D02*
Y190297D01*
X-245797Y189547D02*
X-244297D01*
X-245047Y188797D02*
Y190297D01*
X-294050Y189452D02*
X-292550D01*
X-293300Y188702D02*
Y190202D01*
X-286050Y189452D02*
X-284550D01*
X-285300Y188702D02*
Y190202D01*
X-290050Y189452D02*
X-288550D01*
X-289300Y188702D02*
Y190202D01*
X-299041Y193992D02*
X-297541D01*
X-298291Y193242D02*
Y194742D01*
X-294050Y193952D02*
X-292550D01*
X-293300Y193202D02*
Y194702D01*
X-289150Y193952D02*
X-287650D01*
X-288400Y193202D02*
Y194702D01*
X-181819Y179082D02*
X-180319D01*
X-181069Y178332D02*
Y179832D01*
X-257602Y189563D02*
X-256102D01*
X-256852Y188813D02*
Y190313D01*
X-271091Y184726D02*
X-269591D01*
X-270341Y183976D02*
Y185476D01*
X-266073Y203228D02*
X-264573D01*
X-265323Y202478D02*
Y203978D01*
X-153072Y212292D02*
X-151572D01*
X-152322Y211542D02*
Y213042D01*
X-172387Y208515D02*
X-170887D01*
X-171637Y207765D02*
Y209265D01*
X-171050Y217952D02*
X-169550D01*
X-170300Y217202D02*
Y218702D01*
X-326250Y232952D02*
X-324750D01*
X-325500Y232202D02*
Y233702D01*
X-314350Y200278D02*
X-312850D01*
X-313600Y199528D02*
Y201028D01*
X-300650Y233752D02*
X-299150D01*
X-299900Y233002D02*
Y234502D01*
X-313500Y214402D02*
X-312000D01*
X-312750Y213652D02*
Y215152D01*
X-142050Y231052D02*
X-140550D01*
X-141300Y230302D02*
Y231802D01*
X-249050Y-110348D02*
X-247550D01*
X-248300Y-111098D02*
Y-109598D01*
X-249050Y-113648D02*
X-247550D01*
X-248300Y-114398D02*
Y-112898D01*
X-235850Y-106748D02*
X-234350D01*
X-235100Y-107498D02*
Y-105998D01*
X-235850Y-109948D02*
X-234350D01*
X-235100Y-110698D02*
Y-109198D01*
X-225750Y-99748D02*
X-224250D01*
X-225000Y-100498D02*
Y-98998D01*
X-215738Y-100610D02*
X-214238D01*
X-214988Y-101360D02*
Y-99860D01*
X-215738Y-97310D02*
X-214238D01*
X-214988Y-98060D02*
Y-96560D01*
X-255010Y-110059D02*
X-253510D01*
X-254260Y-110809D02*
Y-109309D01*
X-255010Y-113359D02*
X-253510D01*
X-254260Y-114109D02*
Y-112609D01*
X-16750Y-113648D02*
X-15250D01*
X-16000Y-114398D02*
Y-112898D01*
X-16750Y-110348D02*
X-15250D01*
X-16000Y-111098D02*
Y-109598D01*
X3250Y-100543D02*
X4750D01*
X4000Y-101293D02*
Y-99793D01*
X13250Y-97047D02*
X14750D01*
X14000Y-97796D02*
Y-96297D01*
X13250Y-100347D02*
X14750D01*
X14000Y-101096D02*
Y-99597D01*
X23250Y-96848D02*
X24750D01*
X24000Y-97598D02*
Y-96098D01*
X23250Y-100148D02*
X24750D01*
X24000Y-100898D02*
Y-99398D01*
X32225Y-42748D02*
X33725D01*
X32975Y-43498D02*
Y-41998D01*
X35443Y-42748D02*
X36943D01*
X36193Y-43498D02*
Y-41998D01*
X32225Y-39587D02*
X33725D01*
X32975Y-40337D02*
Y-38837D01*
X38625Y-42748D02*
X40125D01*
X39375Y-43498D02*
Y-41998D01*
X32225Y-36437D02*
X33725D01*
X32975Y-37187D02*
Y-35687D01*
X32225Y-27148D02*
X33725D01*
X32975Y-27898D02*
Y-26398D01*
X35344Y-27148D02*
X36845D01*
X36094Y-27898D02*
Y-26398D01*
X49931Y-22396D02*
X51431D01*
X50681Y-23146D02*
Y-21646D01*
X53131Y-22396D02*
X54631D01*
X53881Y-23146D02*
Y-21646D01*
X54231Y-19296D02*
X55731D01*
X54981Y-20046D02*
Y-18546D01*
X54231Y-15996D02*
X55731D01*
X54981Y-16746D02*
Y-15246D01*
X53331Y-12696D02*
X54831D01*
X54081Y-13446D02*
Y-11946D01*
X53331Y-9496D02*
X54831D01*
X54081Y-10246D02*
Y-8746D01*
X53331Y-3096D02*
X54831D01*
X54081Y-3846D02*
Y-2346D01*
X53331Y-6296D02*
X54831D01*
X54081Y-7046D02*
Y-5546D01*
X50731Y-1196D02*
X52231D01*
X51481Y-1946D02*
Y-446D01*
X36450Y-80248D02*
X37950D01*
X37200Y-80998D02*
Y-79498D01*
X38450Y-82748D02*
X39950D01*
X39200Y-83498D02*
Y-81998D01*
X38550Y-77748D02*
X40050D01*
X39300Y-78498D02*
Y-76998D01*
X52550Y-82748D02*
X54050D01*
X53300Y-83498D02*
Y-81998D01*
X52650Y-77748D02*
X54150D01*
X53400Y-78498D02*
Y-76998D01*
X54650Y-80248D02*
X56150D01*
X55400Y-80998D02*
Y-79498D01*
X54650Y-90248D02*
X56150D01*
X55400Y-90998D02*
Y-89498D01*
X52650Y-87748D02*
X54150D01*
X53400Y-88498D02*
Y-86998D01*
X52550Y-92748D02*
X54050D01*
X53300Y-93498D02*
Y-91998D01*
X38550Y-87748D02*
X40050D01*
X39300Y-88498D02*
Y-86998D01*
X38450Y-92748D02*
X39950D01*
X39200Y-93498D02*
Y-91998D01*
X36450Y-90248D02*
X37950D01*
X37200Y-90998D02*
Y-89498D01*
X54650Y-70248D02*
X56150D01*
X55400Y-70998D02*
Y-69498D01*
X52650Y-67748D02*
X54150D01*
X53400Y-68498D02*
Y-66998D01*
X52550Y-72748D02*
X54050D01*
X53300Y-73498D02*
Y-71998D01*
X38550Y-67748D02*
X40050D01*
X39300Y-68498D02*
Y-66998D01*
X38450Y-72748D02*
X39950D01*
X39200Y-73498D02*
Y-71998D01*
X36450Y-70248D02*
X37950D01*
X37200Y-70998D02*
Y-69498D01*
X54650Y-60248D02*
X56150D01*
X55400Y-60998D02*
Y-59498D01*
X52650Y-57748D02*
X54150D01*
X53400Y-58498D02*
Y-56998D01*
X52550Y-62748D02*
X54050D01*
X53300Y-63498D02*
Y-61998D01*
X38550Y-57748D02*
X40050D01*
X39300Y-58498D02*
Y-56998D01*
X38450Y-62748D02*
X39950D01*
X39200Y-63498D02*
Y-61998D01*
X36450Y-60248D02*
X37950D01*
X37200Y-60998D02*
Y-59498D01*
X-83798Y35371D02*
X-82298D01*
X-83048Y34621D02*
Y36121D01*
X-78898Y35371D02*
X-77398D01*
X-78148Y34621D02*
Y36121D01*
X-193432Y65666D02*
X-191932D01*
X-192683Y64916D02*
Y66416D01*
X-192913Y76006D02*
X-191413D01*
X-192163Y75256D02*
Y76756D01*
X-182952Y151099D02*
X-181452D01*
X-182202Y150349D02*
Y151849D01*
X-207718Y161337D02*
X-206218D01*
X-206968Y160587D02*
Y162087D01*
X-170350Y156052D02*
X-168850D01*
X-169600Y155302D02*
Y156802D01*
X-165324Y156077D02*
X-163824D01*
X-164575Y155327D02*
Y156827D01*
X-160388Y156077D02*
X-158888D01*
X-159638Y155327D02*
Y156827D01*
X-155372Y156047D02*
X-153872D01*
X-154622Y155297D02*
Y156797D01*
X-150346Y156127D02*
X-148846D01*
X-149596Y155377D02*
Y156877D01*
X-212434Y164465D02*
X-210934D01*
X-211684Y163715D02*
Y165215D01*
X-212505Y155489D02*
X-211005D01*
X-211755Y154739D02*
Y156239D01*
X-223576Y143574D02*
X-222076D01*
X-222826Y142824D02*
Y144324D01*
X-200632Y146437D02*
X-199132D01*
X-199882Y145687D02*
Y147187D01*
X-195719Y164599D02*
X-194219D01*
X-194969Y163849D02*
Y165349D01*
X-177626Y164388D02*
X-176126D01*
X-176876Y163638D02*
Y165138D01*
X-188086Y146801D02*
X-186586D01*
X-187336Y146051D02*
Y147551D01*
X-84550Y159252D02*
X-83050D01*
X-83800Y158502D02*
Y160002D01*
X-136755Y154107D02*
X-135255D01*
X-136005Y153357D02*
Y154857D01*
X-173265Y168278D02*
X-171765D01*
X-172515Y167528D02*
Y169028D01*
X-173246Y164679D02*
X-171746D01*
X-172496Y163929D02*
Y165429D01*
X-173226Y161199D02*
X-171726D01*
X-172476Y160449D02*
Y161949D01*
X-146505Y200915D02*
X-145005D01*
X-145755Y200165D02*
Y201665D01*
X-222252Y185849D02*
X-220752D01*
X-221502Y185099D02*
Y186599D01*
X-274701Y170320D02*
X-273201D01*
X-273951Y169570D02*
Y171070D01*
X-144450Y130352D02*
X-142950D01*
X-143700Y129602D02*
Y131102D01*
X-335898Y71078D02*
X-334398D01*
X-335148Y70328D02*
Y71828D01*
X-311360Y70933D02*
X-309860D01*
X-310610Y70183D02*
Y71683D01*
X-303390Y70740D02*
X-301890D01*
X-302640Y69990D02*
Y71490D01*
X-296821Y75135D02*
X-295321D01*
X-296071Y74385D02*
Y75885D01*
X-335784Y79504D02*
X-334284D01*
X-335034Y78754D02*
Y80253D01*
X-335929Y88683D02*
X-334429D01*
X-335178Y87932D02*
Y89433D01*
X-336001Y98078D02*
X-334501D01*
X-335251Y97328D02*
Y98828D01*
X-336001Y107113D02*
X-334501D01*
X-335251Y106363D02*
Y107863D01*
X-335916Y115885D02*
X-334416D01*
X-335166Y115135D02*
Y116635D01*
X-335980Y124457D02*
X-334480D01*
X-335230Y123707D02*
Y125207D01*
X-321092Y132255D02*
X-319592D01*
X-320342Y131505D02*
Y133005D01*
X-312778Y132320D02*
X-311278D01*
X-312028Y131570D02*
Y133070D01*
X-305108Y134576D02*
X-303608D01*
X-304358Y133826D02*
Y135326D01*
X-299597Y140039D02*
X-298096D01*
X-298847Y139289D02*
Y140789D01*
X-293901Y145631D02*
X-292401D01*
X-293151Y144881D02*
Y146381D01*
X-277950Y111652D02*
X-276450D01*
X-277200Y110902D02*
Y112402D01*
X-267887Y103954D02*
X-266387D01*
X-267137Y103204D02*
Y104704D01*
X-268025Y111884D02*
X-266525D01*
X-267275Y111134D02*
Y112634D01*
X-269593Y158603D02*
X-268093D01*
X-268843Y157853D02*
Y159353D01*
X-269551Y154429D02*
X-268051D01*
X-268801Y153680D02*
Y155180D01*
X-210250Y140552D02*
X-208750D01*
X-209500Y139802D02*
Y141302D01*
X-207850Y138852D02*
X-206350D01*
X-207100Y138102D02*
Y139602D01*
X-207850Y135952D02*
X-206350D01*
X-207100Y135202D02*
Y136702D01*
X-210150Y134152D02*
X-208650D01*
X-209400Y133402D02*
Y134902D01*
X-227665Y140078D02*
X-226165D01*
X-226915Y139328D02*
Y140828D01*
X-216376Y140538D02*
X-214877D01*
X-215627Y139788D02*
Y141288D01*
X-218676Y138738D02*
X-217177D01*
X-217927Y137988D02*
Y139488D01*
X-218676Y135838D02*
X-217177D01*
X-217927Y135088D02*
Y136588D01*
X-216277Y134138D02*
X-214776D01*
X-215527Y133388D02*
Y134888D01*
X-174350Y106952D02*
X-172850D01*
X-173600Y106202D02*
Y107702D01*
X-151813Y103032D02*
X-150313D01*
X-151063Y102281D02*
Y103781D01*
X-143742Y163760D02*
X-142242D01*
X-142992Y163010D02*
Y164510D01*
X-181849Y186235D02*
X-180349D01*
X-181099Y185485D02*
Y186985D01*
X-113507Y188134D02*
X-112007D01*
X-112757Y187384D02*
Y188884D01*
X-134884Y164347D02*
X-133384D01*
X-134134Y163597D02*
Y165097D01*
X-281600Y189216D02*
X-280100D01*
X-280850Y188466D02*
Y189966D01*
X-166831Y207653D02*
X-165331D01*
X-166081Y206903D02*
Y208403D01*
X-295496Y181435D02*
X-293996D01*
X-294746Y180685D02*
Y182185D01*
X-238661Y102049D02*
X-237161D01*
X-237911Y101299D02*
Y102799D01*
X-188450Y140652D02*
X-186950D01*
X-187700Y139902D02*
Y141402D01*
X-86950Y168552D02*
X-85450D01*
X-86200Y167802D02*
Y169302D01*
X-305797Y-127874D02*
X-304297D01*
X-305047Y-128624D02*
Y-127124D01*
X-285718Y-127874D02*
X-284219D01*
X-284968Y-128624D02*
Y-127124D01*
X-285684Y-113143D02*
X-284184D01*
X-284934Y-113893D02*
Y-112393D01*
X-225679Y-127382D02*
X-224179D01*
X-224929Y-128132D02*
Y-126632D01*
X-308804Y236499D02*
X-307304D01*
X-308054Y235749D02*
Y237249D01*
X-192313Y-127480D02*
X-190813D01*
X-191563Y-128230D02*
Y-126730D01*
X-93580Y-107105D02*
X-92080D01*
X-92830Y-107855D02*
Y-106355D01*
X-126627Y-107145D02*
X-125127D01*
X-125876Y-107895D02*
Y-106395D01*
X-115815Y-107091D02*
X-114315D01*
X-115065Y-107841D02*
Y-106341D01*
X-55994Y-127677D02*
X-54494D01*
X-55244Y-128427D02*
Y-126927D01*
X3553Y-127776D02*
X5053D01*
X4303Y-128526D02*
Y-127026D01*
X3578Y-113842D02*
X5078D01*
X4328Y-114592D02*
Y-113092D01*
X-56139Y-114393D02*
X-54639D01*
X-55389Y-115143D02*
Y-113643D01*
X-77130Y-114091D02*
X-75630D01*
X-76380Y-114841D02*
Y-113341D01*
X-104762Y-107441D02*
X-103262D01*
X-104012Y-108191D02*
Y-106691D01*
X53228Y-97712D02*
X54728D01*
X53978Y-98462D02*
Y-96962D01*
X51144Y36530D02*
X52644D01*
X51894Y35780D02*
Y37280D01*
X35403Y36213D02*
X36903D01*
X36153Y35464D02*
Y36963D01*
X35789Y50894D02*
X37288D01*
X36538Y50144D02*
Y51644D01*
X48759Y50394D02*
X50259D01*
X49509Y49644D02*
Y51144D01*
X51514Y85630D02*
X53014D01*
X52264Y84880D02*
Y86380D01*
X-42089Y32283D02*
X-40589D01*
X-41339Y31534D02*
Y33033D01*
X-67750Y46400D02*
X-66250D01*
X-67000Y45650D02*
Y47150D01*
X-160633Y58375D02*
X-159133D01*
X-159883Y57625D02*
Y59125D01*
X-147337Y71574D02*
X-145837D01*
X-146587Y70824D02*
Y72325D01*
X-153961Y65095D02*
X-152461D01*
X-153211Y64345D02*
Y65845D01*
X-146128Y84601D02*
X-144628D01*
X-145378Y83851D02*
Y85352D01*
X-137467Y93889D02*
X-135967D01*
X-136717Y93139D02*
Y94639D01*
X-189950Y86541D02*
X-188450D01*
X-189200Y85791D02*
Y87291D01*
X-195120Y123602D02*
X-193620D01*
X-194370Y122852D02*
Y124352D01*
X-200973Y128779D02*
X-199473D01*
X-200223Y128029D02*
Y129529D01*
X-222902Y112854D02*
X-221402D01*
X-222152Y112104D02*
Y113604D01*
X-223169Y128874D02*
X-221669D01*
X-222419Y128124D02*
Y129624D01*
X-217685Y148812D02*
X-216185D01*
X-216935Y148062D02*
Y149562D01*
X-219806Y170757D02*
X-218306D01*
X-219056Y170007D02*
Y171507D01*
X-250974Y171535D02*
X-249474D01*
X-250224Y170785D02*
Y172285D01*
X-232897Y9911D02*
X-231397D01*
X-232147Y9161D02*
Y10661D01*
X-335474Y137677D02*
X-333974D01*
X-334724Y136927D02*
Y138427D01*
X-317737Y151236D02*
X-316237D01*
X-316987Y150486D02*
Y151986D01*
X-263807Y170861D02*
X-262307D01*
X-263057Y170111D02*
Y171611D01*
X-283343Y180051D02*
X-281843D01*
X-282593Y179301D02*
Y180801D01*
X-323234Y182602D02*
X-321734D01*
X-322484Y181852D02*
Y183352D01*
X-335611Y229935D02*
X-334111D01*
X-334861Y229185D02*
Y230685D01*
X-317525Y212075D02*
X-316025D01*
X-316775Y211326D02*
Y212825D01*
X-206202Y175919D02*
X-204702D01*
X-205452Y175169D02*
Y176669D01*
X-15506Y106944D02*
X-14006D01*
X-14756Y106194D02*
Y107694D01*
X11544Y107177D02*
X13044D01*
X12294Y106427D02*
Y107927D01*
X25825Y60236D02*
X27325D01*
X26575Y59486D02*
Y60986D01*
X21396Y80905D02*
X22896D01*
X22146Y80155D02*
Y81656D01*
X37510Y208740D02*
X39010D01*
X38260Y207990D02*
Y209490D01*
X-335844Y201334D02*
X-334344D01*
X-335094Y200584D02*
Y202084D01*
X-312985Y260059D02*
X-311485D01*
X-312235Y259310D02*
Y260809D01*
X-288245Y261089D02*
X-286745D01*
X-287495Y260339D02*
Y261839D01*
X-268941Y260623D02*
X-267441D01*
X-268191Y259873D02*
Y261373D01*
X-248534Y260963D02*
X-247034D01*
X-247784Y260213D02*
Y261713D01*
X-208250Y261165D02*
X-206750D01*
X-207500Y260415D02*
Y261915D01*
X-228362Y260849D02*
X-226862D01*
X-227612Y260099D02*
Y261599D01*
X-168097Y261130D02*
X-166597D01*
X-167347Y260380D02*
Y261880D01*
X-188454Y261411D02*
X-186954D01*
X-187705Y260661D02*
Y262161D01*
X-147864Y260915D02*
X-146364D01*
X-147114Y260165D02*
Y261665D01*
X-128245Y260915D02*
X-126745D01*
X-127495Y260165D02*
Y261665D01*
X-31901Y176153D02*
X-30401D01*
X-31151Y175403D02*
Y176903D01*
X-27308Y163094D02*
X-25808D01*
X-26558Y162344D02*
Y163844D01*
X-9339Y176130D02*
X-7839D01*
X-8589Y175380D02*
Y176880D01*
X12412Y169698D02*
X13912D01*
X13162Y168948D02*
Y170448D01*
X46378Y182389D02*
X47878D01*
X47128Y181639D02*
Y183139D01*
X36531Y-14488D02*
X38031D01*
X37281Y-15238D02*
Y-13738D01*
X41231Y-9596D02*
X42731D01*
X41981Y-10346D02*
Y-8846D01*
X41231Y-2996D02*
X42731D01*
X41981Y-3746D02*
Y-2246D01*
X43750Y3352D02*
X45250D01*
X44500Y2602D02*
Y4102D01*
X47150Y6152D02*
X48650D01*
X47900Y5402D02*
Y6902D01*
X50350Y3352D02*
X51850D01*
X51100Y2602D02*
Y4102D01*
X44031Y-1196D02*
X45531D01*
X44781Y-1946D02*
Y-446D01*
X41231Y-6296D02*
X42731D01*
X41981Y-7046D02*
Y-5546D01*
X40931Y-12796D02*
X42431D01*
X41681Y-13546D02*
Y-12046D01*
X-168888Y50177D02*
X-167388D01*
X-168138Y49427D02*
Y50927D01*
X-154130Y77230D02*
X-152630D01*
X-153380Y76480D02*
Y77980D01*
X-306082Y149173D02*
X-304582D01*
X-305332Y148423D02*
Y149923D01*
X-84450Y162400D02*
X-82950D01*
X-83700Y161650D02*
Y163150D01*
X-291722Y-40669D02*
X-290222D01*
X-290972Y-41419D02*
Y-39919D01*
X-278238Y-47362D02*
X-276738D01*
X-277488Y-48112D02*
Y-46612D01*
X-275285Y-47362D02*
X-273785D01*
X-274535Y-48112D02*
Y-46612D01*
X-255797Y-7992D02*
X-254297D01*
X-255047Y-8742D02*
Y-7242D01*
X-332963Y-69410D02*
X-331463D01*
X-332213Y-70160D02*
Y-68660D01*
X-1118Y-11454D02*
X382D01*
X-368Y-12204D02*
Y-10704D01*
X2021Y-14354D02*
X3521D01*
X2771Y-15104D02*
Y-13604D01*
X-1118Y-22954D02*
X382D01*
X-368Y-23704D02*
Y-22204D01*
X2021Y-25854D02*
X3521D01*
X2771Y-26604D02*
Y-25104D01*
X5121Y-11454D02*
X6621D01*
X5871Y-12204D02*
Y-10704D01*
X8221Y-14354D02*
X9721D01*
X8971Y-15104D02*
Y-13604D01*
X8221Y-25854D02*
X9721D01*
X8971Y-26604D02*
Y-25104D01*
X5082Y-22954D02*
X6582D01*
X5832Y-23704D02*
Y-22204D01*
X-2746Y-40669D02*
X-1246D01*
X-1996Y-41419D02*
Y-39919D01*
X-67641Y-31610D02*
X-66141D01*
X-66891Y-32360D02*
Y-30860D01*
X-70641Y-33010D02*
X-69141D01*
X-69891Y-33760D02*
Y-32260D01*
X-70641Y-36510D02*
X-69141D01*
X-69891Y-37260D02*
Y-35760D01*
X-59841Y-33110D02*
X-58341D01*
X-59091Y-33860D02*
Y-32360D01*
X-59841Y-36610D02*
X-58341D01*
X-59091Y-37360D02*
Y-35860D01*
X-62841Y-31610D02*
X-61341D01*
X-62091Y-32360D02*
Y-30860D01*
X-62841Y-38010D02*
X-61341D01*
X-62091Y-38760D02*
Y-37260D01*
X20328Y-38010D02*
X21828D01*
X21078Y-38760D02*
Y-37260D01*
X20328Y-31610D02*
X21828D01*
X21078Y-32360D02*
Y-30860D01*
X23328Y-36610D02*
X24828D01*
X24078Y-37360D02*
Y-35860D01*
X23328Y-33110D02*
X24828D01*
X24078Y-33860D02*
Y-32360D01*
X12528Y-36510D02*
X14028D01*
X13278Y-37260D02*
Y-35760D01*
X12528Y-33010D02*
X14028D01*
X13278Y-33760D02*
Y-32260D01*
X15528Y-38010D02*
X17028D01*
X16278Y-38760D02*
Y-37260D01*
X15528Y-31610D02*
X17028D01*
X16278Y-32360D02*
Y-30860D01*
X14085Y-10748D02*
X15585D01*
X14835Y-11498D02*
Y-9998D01*
X-48514Y-57795D02*
X-47014D01*
X-47764Y-58545D02*
Y-57045D01*
X-188474Y-72461D02*
X-186974D01*
X-187724Y-73211D02*
Y-71711D01*
X-175679Y-72461D02*
X-174179D01*
X-174929Y-73211D02*
Y-71711D01*
X-51270Y-99036D02*
X-49770D01*
X-50520Y-99786D02*
Y-98286D01*
X-71447Y-91063D02*
X-69947D01*
X-70697Y-91813D02*
Y-90313D01*
X-73612Y-88898D02*
X-72112D01*
X-72862Y-89648D02*
Y-88148D01*
X-42707Y-105039D02*
X-41207D01*
X-41957Y-105789D02*
Y-104289D01*
X-42707Y-107992D02*
X-41207D01*
X-41957Y-108742D02*
Y-107242D01*
X-53118Y-87323D02*
X-51618D01*
X-52368Y-88073D02*
Y-86573D01*
X-53118Y-90276D02*
X-51618D01*
X-52368Y-91026D02*
Y-89526D01*
X-58553Y-98150D02*
X-57053D01*
X-57803Y-98900D02*
Y-97400D01*
X-51270Y-96083D02*
X-49770D01*
X-50520Y-96833D02*
Y-95333D01*
X-28534Y-113209D02*
X-27033D01*
X-27784Y-113959D02*
Y-112459D01*
X-28534Y-116509D02*
X-27033D01*
X-27784Y-117259D02*
Y-115759D01*
X-189459Y-103858D02*
X-187959D01*
X-188709Y-104608D02*
Y-103108D01*
X-126518Y-99232D02*
X-125019D01*
X-125768Y-99982D02*
Y-98482D01*
X-19137Y-91260D02*
X-17637D01*
X-18387Y-92010D02*
Y-90510D01*
X-15837Y-91260D02*
X-14337D01*
X-15087Y-92010D02*
Y-90510D01*
X-11801Y-91260D02*
X-10301D01*
X-11051Y-92010D02*
Y-90510D01*
X-8501Y-91260D02*
X-7001D01*
X-7751Y-92010D02*
Y-90510D01*
X-271250Y-25512D02*
X-269750D01*
X-270500Y-26262D02*
Y-24762D01*
X-262982Y-22756D02*
X-261482D01*
X-262232Y-23506D02*
Y-22006D01*
X-268494Y-22756D02*
X-266994D01*
X-267744Y-23506D02*
Y-22006D01*
X-265738Y-25512D02*
X-264238D01*
X-264988Y-26262D02*
Y-24762D01*
X-197628Y-14291D02*
X-196128D01*
X-196878Y-15041D02*
Y-13541D01*
X-194577Y-25512D02*
X-193077D01*
X-193827Y-26262D02*
Y-24762D01*
X-197333Y-22756D02*
X-195833D01*
X-196583Y-23506D02*
Y-22006D01*
X-191821Y-22756D02*
X-190321D01*
X-191071Y-23506D02*
Y-22006D01*
X-200089Y-25512D02*
X-198589D01*
X-199339Y-26262D02*
Y-24762D01*
X-189065Y-11437D02*
X-187565D01*
X-188315Y-12187D02*
Y-10687D01*
X-194774Y-11437D02*
X-193274D01*
X-194024Y-12187D02*
Y-10687D01*
X-191919Y-14291D02*
X-190419D01*
X-191169Y-15041D02*
Y-13541D01*
X-125482Y-14291D02*
X-123982D01*
X-124732Y-15041D02*
Y-13541D01*
X-122431Y-25512D02*
X-120931D01*
X-121681Y-26262D02*
Y-24762D01*
X-125187Y-22756D02*
X-123687D01*
X-124437Y-23506D02*
Y-22006D01*
X-119675Y-22756D02*
X-118175D01*
X-118925Y-23506D02*
Y-22006D01*
X-127943Y-25512D02*
X-126443D01*
X-127193Y-26262D02*
Y-24762D01*
X-116919Y-11437D02*
X-115419D01*
X-116169Y-12187D02*
Y-10687D01*
X-122628Y-11437D02*
X-121128D01*
X-121878Y-12187D02*
Y-10687D01*
X-119774Y-14291D02*
X-118274D01*
X-119024Y-15041D02*
Y-13541D01*
X-53140Y-14291D02*
X-51640D01*
X-52390Y-15041D02*
Y-13541D01*
X-52943Y-25414D02*
X-51443D01*
X-52193Y-26164D02*
Y-24664D01*
X-55600Y-22756D02*
X-54100D01*
X-54850Y-23506D02*
Y-22006D01*
X-50285Y-22756D02*
X-48785D01*
X-49535Y-23506D02*
Y-22006D01*
X-50285Y-11437D02*
X-48785D01*
X-49535Y-12187D02*
Y-10687D01*
X-47431Y-14291D02*
X-45931D01*
X-46681Y-15041D02*
Y-13541D01*
X24813Y-14291D02*
X26313D01*
X25563Y-15041D02*
Y-13541D01*
X16644Y-25512D02*
X18144D01*
X17394Y-26262D02*
Y-24762D01*
X24911Y-22756D02*
X26411D01*
X25661Y-23506D02*
Y-22006D01*
X19400Y-22756D02*
X20900D01*
X20150Y-23506D02*
Y-22006D01*
X22155Y-25512D02*
X23655D01*
X22906Y-26262D02*
Y-24762D01*
X19104Y-14291D02*
X20604D01*
X19854Y-15041D02*
Y-13541D01*
X-88133Y-91063D02*
X-86633D01*
X-87383Y-91813D02*
Y-90313D01*
X-84833Y-91063D02*
X-83333D01*
X-84083Y-91813D02*
Y-90313D01*
X-166250Y-96648D02*
X-164750D01*
X-165500Y-97398D02*
Y-95898D01*
X-156250Y-100548D02*
X-154750D01*
X-155500Y-101298D02*
Y-99798D01*
X-158015Y-87126D02*
X-156515D01*
X-157265Y-87876D02*
Y-86376D01*
X-154715Y-87126D02*
X-153215D01*
X-153965Y-87876D02*
Y-86376D01*
X-22136Y-101585D02*
X-20636D01*
X-21386Y-102335D02*
Y-100835D01*
X-3730Y-97264D02*
X-2230D01*
X-2980Y-98014D02*
Y-96514D01*
X32884Y-7598D02*
X34384D01*
X33634Y-8348D02*
Y-6848D01*
X32884Y-10791D02*
X34384D01*
X33634Y-11541D02*
Y-10041D01*
X15518Y-5236D02*
X17018D01*
X16269Y-5986D02*
Y-4486D01*
X18711Y-5236D02*
X20211D01*
X19461Y-5986D02*
Y-4486D01*
X32225Y-30335D02*
X33725D01*
X32975Y-31085D02*
Y-29585D01*
X32293Y-33386D02*
X33793D01*
X33043Y-34136D02*
Y-32636D01*
X55915Y-40177D02*
X57415D01*
X56665Y-40927D02*
Y-39427D01*
X52667Y-29547D02*
X54167D01*
X53417Y-30297D02*
Y-28797D01*
X55915Y-29547D02*
X57415D01*
X56665Y-30297D02*
Y-28797D01*
X37557Y230591D02*
X39057D01*
X38307Y229840D02*
Y231341D01*
X34506Y230591D02*
X36006D01*
X35256Y229840D02*
Y231341D01*
X-94726Y226358D02*
X-93226D01*
X-93976Y225608D02*
Y227108D01*
X-253337Y-127480D02*
X-251837D01*
X-252587Y-128230D02*
Y-126730D01*
X-138967Y-118032D02*
X-137467D01*
X-138216Y-118782D02*
Y-117282D01*
X-85226Y-127185D02*
X-83726D01*
X-84476Y-127935D02*
Y-126435D01*
X-22825Y-127677D02*
X-21325D01*
X-22075Y-128427D02*
Y-126927D01*
X23534Y-63602D02*
X25034D01*
X24284Y-64352D02*
Y-62852D01*
X-122431Y-60748D02*
X-120931D01*
X-121681Y-61498D02*
Y-59998D01*
X-50482Y-64784D02*
X-48982D01*
X-49732Y-65534D02*
Y-64034D01*
X-194971Y-62323D02*
X-193471D01*
X-194220Y-63073D02*
Y-61573D01*
X-267510Y-62126D02*
X-266010D01*
X-266760Y-62876D02*
Y-61376D01*
X-333455Y36398D02*
X-331955D01*
X-332705Y35648D02*
Y37148D01*
X49860Y230098D02*
X51360D01*
X50610Y229348D02*
Y230848D01*
X27372Y208740D02*
X28872D01*
X28122Y207990D02*
Y209490D01*
X44152Y222520D02*
X45652D01*
X44902Y221770D02*
Y223270D01*
X56112Y134724D02*
X57612D01*
X56862Y133974D02*
Y135474D01*
X12018Y135216D02*
X13518D01*
X12768Y134467D02*
Y135967D01*
X-191919Y188760D02*
X-190419D01*
X-191169Y188010D02*
Y189510D01*
X-294675Y159921D02*
X-293175D01*
X-293925Y159171D02*
Y160671D01*
X-298120Y144862D02*
X-296620D01*
X-297370Y144112D02*
Y145612D01*
X-101565Y-15079D02*
X-100065D01*
X-100815Y-15829D02*
Y-14329D01*
X-249793Y-17146D02*
X-248293D01*
X-249043Y-17896D02*
Y-16396D01*
X-335522Y-101201D02*
X-334022D01*
X-334772Y-101951D02*
Y-100451D01*
X21959Y-11437D02*
X23459D01*
X22709Y-12187D02*
Y-10687D01*
X27667Y-25512D02*
X29167D01*
X28417Y-26262D02*
Y-24762D01*
X-47628Y-25414D02*
X-46128D01*
X-46878Y-26164D02*
Y-24664D01*
X-291919Y-25906D02*
X-290419D01*
X-291169Y-26656D02*
Y-25156D01*
X-289065Y-14390D02*
X-287565D01*
X-288315Y-15140D02*
Y-13640D01*
X-286211Y-11535D02*
X-284711D01*
X-285461Y-12286D02*
Y-10785D01*
X-283356Y-14390D02*
X-281856D01*
X-282606Y-15140D02*
Y-13640D01*
X-260226Y-25512D02*
X-258726D01*
X-259476Y-26262D02*
Y-24762D01*
X-270463Y-14291D02*
X-268963D01*
X-269713Y-15041D02*
Y-13541D01*
X-257175Y-18524D02*
X-255675D01*
X-256425Y-19274D02*
Y-17774D01*
X-336450Y52D02*
X-334950D01*
X-335700Y-698D02*
Y802D01*
X-332175Y58760D02*
X-330675D01*
X-331425Y58010D02*
Y59510D01*
X-327451Y57087D02*
X-325951D01*
X-326701Y56337D02*
Y57837D01*
X-321450Y55052D02*
X-319950D01*
X-320700Y54302D02*
Y55802D01*
X-336450Y57652D02*
X-334950D01*
X-335700Y56902D02*
Y58402D01*
X-315950Y44452D02*
X-314450D01*
X-315200Y43702D02*
Y45202D01*
X-308250Y-7848D02*
X-306750D01*
X-307500Y-8598D02*
Y-7098D01*
X-211920Y95052D02*
X-210420D01*
X-211170Y94302D02*
Y95802D01*
X-215450Y60052D02*
X-213950D01*
X-214700Y59302D02*
Y60802D01*
X-218490Y60046D02*
X-216990D01*
X-217740Y59296D02*
Y60796D01*
X-16350Y-3048D02*
X-14850D01*
X-15600Y-3798D02*
Y-2298D01*
X-119750Y122200D02*
X-118250D01*
X-119000Y121450D02*
Y122950D01*
X-144450Y133452D02*
X-142950D01*
X-143700Y132702D02*
Y134202D01*
X-188869Y96270D02*
X-187369D01*
X-188119Y95520D02*
Y97019D01*
X-134650Y112052D02*
X-133150D01*
X-133900Y111302D02*
Y112802D01*
X-125757Y106632D02*
X-124257D01*
X-125007Y105882D02*
Y107382D01*
X-129637Y91120D02*
X-128137D01*
X-128886Y90370D02*
Y91870D01*
X-212650Y91252D02*
X-211150D01*
X-211900Y90502D02*
Y92002D01*
X-212250Y105852D02*
X-210750D01*
X-211500Y105102D02*
Y106602D01*
X-215350Y75852D02*
X-213850D01*
X-214600Y75102D02*
Y76602D01*
X-218450Y75852D02*
X-216950D01*
X-217700Y75102D02*
Y76602D01*
X-231550Y26052D02*
X-230050D01*
X-230800Y25302D02*
Y26802D01*
X-193150Y86652D02*
X-191650D01*
X-192400Y85902D02*
Y87402D01*
X-323950Y452D02*
X-322450D01*
X-323200Y-298D02*
Y1202D01*
X-265750Y59352D02*
X-264250D01*
X-265000Y58602D02*
Y60102D01*
X-295350Y40052D02*
X-293850D01*
X-294600Y39302D02*
Y40802D01*
X-313878Y49705D02*
X-312378D01*
X-313128Y48955D02*
Y50455D01*
X-315452Y5512D02*
X-313952D01*
X-314702Y4762D02*
Y6262D01*
X-331880Y545D02*
X-330380D01*
X-331130Y-205D02*
Y1295D01*
X-233644Y-23051D02*
X-232144D01*
X-232894Y-23801D02*
Y-22301D01*
X-251360Y-43465D02*
X-249860D01*
X-250610Y-44215D02*
Y-42715D01*
X-255010Y-43720D02*
X-253510D01*
X-254260Y-44471D02*
Y-42970D01*
X-255010Y-40669D02*
X-253510D01*
X-254260Y-41419D02*
Y-39919D01*
X-258652Y-37126D02*
X-257152D01*
X-257902Y-37876D02*
Y-36376D01*
X-254809Y-36879D02*
X-253309D01*
X-254059Y-37629D02*
Y-36129D01*
X-258710Y-41162D02*
X-257210D01*
X-257960Y-41912D02*
Y-40411D01*
X-258746Y-44851D02*
X-257246D01*
X-257996Y-45601D02*
Y-44102D01*
X-337679Y-105866D02*
X-336179D01*
X-336929Y-106616D02*
Y-105116D01*
X-319050Y-107248D02*
X-317550D01*
X-318300Y-107998D02*
Y-106498D01*
X-11100Y241939D02*
X-10100D01*
X-10600Y241439D02*
Y242439D01*
X-15431Y241939D02*
X-14431D01*
X-14931Y241439D02*
Y242439D01*
X-11100Y246270D02*
X-10100D01*
X-10600Y245770D02*
Y246770D01*
X-15431Y246270D02*
X-14431D01*
X-14931Y245770D02*
Y246770D01*
X-11100Y250601D02*
X-10100D01*
X-10600Y250101D02*
Y251101D01*
X-15431Y250601D02*
X-14431D01*
X-14931Y250101D02*
Y251101D01*
X-311990Y-106850D02*
X-310490D01*
X-311240Y-107600D02*
Y-106100D01*
X-321545Y-80236D02*
X-320045D01*
X-320795Y-80986D02*
Y-79486D01*
X-297530Y-75906D02*
X-296029D01*
X-296779Y-76656D02*
Y-75156D01*
X-335522Y-31516D02*
X-334022D01*
X-334772Y-32266D02*
Y-30766D01*
X-330986Y-41398D02*
X-329486D01*
X-330236Y-42148D02*
Y-40648D01*
X-288762Y-72894D02*
X-287262D01*
X-288012Y-73644D02*
Y-72144D01*
X-286602Y-76448D02*
X-285102D01*
X-285852Y-77198D02*
Y-75698D01*
X-287510Y-51831D02*
X-286010D01*
X-286760Y-52581D02*
Y-51081D01*
X-284537Y-57402D02*
X-283037D01*
X-283787Y-58152D02*
Y-56652D01*
X-291821Y-62520D02*
X-290321D01*
X-291071Y-63270D02*
Y-61770D01*
X-287285Y-70236D02*
X-285785D01*
X-286535Y-70986D02*
Y-69486D01*
X-289063Y-43867D02*
X-287563D01*
X-288313Y-44617D02*
Y-43117D01*
X-286208Y-43867D02*
X-284708D01*
X-285458Y-44617D02*
Y-43117D01*
X-320750Y-43169D02*
X-319250D01*
X-320000Y-43919D02*
Y-42419D01*
X-327155Y-37520D02*
X-325656D01*
X-326406Y-38270D02*
Y-36770D01*
X-315632Y-31947D02*
X-314132D01*
X-314882Y-32697D02*
Y-31197D01*
X-323218Y-33434D02*
X-321718D01*
X-322468Y-34184D02*
Y-32684D01*
X-231046Y-91063D02*
X-229546D01*
X-230296Y-91813D02*
Y-90313D01*
X-225750Y-96448D02*
X-224250D01*
X-225000Y-97198D02*
Y-95698D01*
X-227746Y-91063D02*
X-226246D01*
X-226996Y-91813D02*
Y-90313D01*
X-248486Y-43465D02*
X-246986D01*
X-247736Y-44215D02*
Y-42715D01*
X-219569Y-65118D02*
X-218069D01*
X-218819Y-65868D02*
Y-64368D01*
X-225250Y-75800D02*
X-223750D01*
X-224500Y-76550D02*
Y-75050D01*
X-213081Y-76248D02*
X-211581D01*
X-212331Y-76998D02*
Y-75498D01*
X-214951Y-72756D02*
X-213451D01*
X-214201Y-73506D02*
Y-72006D01*
X-215041Y-70138D02*
X-213541D01*
X-214291Y-70888D02*
Y-69388D01*
X-205207Y-47165D02*
X-203707D01*
X-204457Y-47915D02*
Y-46415D01*
X-202346Y-47214D02*
X-200846D01*
X-201596Y-47964D02*
Y-46464D01*
X-243691Y-31809D02*
X-242191D01*
X-242941Y-32559D02*
Y-31060D01*
X-156281Y-97303D02*
X-154781D01*
X-155532Y-98053D02*
Y-96553D01*
X-166715Y-74862D02*
X-165215D01*
X-165965Y-75612D02*
Y-74112D01*
X-186407Y-41162D02*
X-184907D01*
X-185658Y-41912D02*
Y-40411D01*
X-311301Y-78110D02*
X-309801D01*
X-310551Y-78860D02*
Y-77360D01*
X-311301Y-74468D02*
X-309801D01*
X-310551Y-75218D02*
Y-73719D01*
X-311301Y-70827D02*
X-309801D01*
X-310551Y-71577D02*
Y-70077D01*
X-315837Y-65669D02*
X-314337D01*
X-315087Y-66419D02*
Y-64919D01*
X-311464Y-67219D02*
X-309964D01*
X-310714Y-67969D02*
Y-66469D01*
X-315934Y-62766D02*
X-314434D01*
X-315184Y-63516D02*
Y-62016D01*
X-330896Y-37126D02*
X-329396D01*
X-330146Y-37876D02*
Y-36376D01*
X-327352Y-41308D02*
X-325852D01*
X-326602Y-42058D02*
Y-40558D01*
X-327254Y-44114D02*
X-325754D01*
X-326504Y-44864D02*
Y-43364D01*
X-323514Y-43130D02*
X-322014D01*
X-322764Y-43880D02*
Y-42380D01*
X-166616Y-71122D02*
X-165116D01*
X-165866Y-71872D02*
Y-70372D01*
X-166714Y-67097D02*
X-165214D01*
X-165964Y-67847D02*
Y-66347D01*
X-171447Y-62717D02*
X-169947D01*
X-170697Y-63467D02*
Y-61967D01*
X-186499Y-44851D02*
X-184999D01*
X-185749Y-45601D02*
Y-44102D01*
X-182266Y-36977D02*
X-180766D01*
X-181516Y-37727D02*
Y-36227D01*
X-186301Y-37165D02*
X-184801D01*
X-185551Y-37915D02*
Y-36415D01*
X-231580Y-39832D02*
X-230080D01*
X-230830Y-40582D02*
Y-39082D01*
X-141762Y-43883D02*
X-140262D01*
X-141012Y-44633D02*
Y-43134D01*
X-46570Y-100523D02*
X-45070D01*
X-45820Y-101273D02*
Y-99773D01*
X-147619Y-65030D02*
X-146119D01*
X-146869Y-65780D02*
Y-64280D01*
X-252352Y-80236D02*
X-250852D01*
X-251602Y-80986D02*
Y-79486D01*
X-255359Y-80236D02*
X-253859D01*
X-254609Y-80986D02*
Y-79486D01*
X-243691Y-62717D02*
X-242191D01*
X-242941Y-63467D02*
Y-61967D01*
X-243691Y-65669D02*
X-242191D01*
X-242941Y-66419D02*
Y-64919D01*
X-239065Y-74629D02*
X-237565D01*
X-238315Y-75379D02*
Y-73879D01*
X-239065Y-78272D02*
X-237565D01*
X-238315Y-79023D02*
Y-77522D01*
X-239065Y-67343D02*
X-237565D01*
X-238315Y-68093D02*
Y-66593D01*
X-186006Y-80276D02*
X-184506D01*
X-185256Y-81026D02*
Y-79526D01*
X-94471Y-78504D02*
X-92971D01*
X-93721Y-79254D02*
Y-77754D01*
X-94762Y-74380D02*
X-93262D01*
X-94012Y-75130D02*
Y-73630D01*
X-94565Y-70739D02*
X-93065D01*
X-93815Y-71489D02*
Y-69989D01*
X-94565Y-66988D02*
X-93065D01*
X-93815Y-67738D02*
Y-66238D01*
X-104040Y-43586D02*
X-102540D01*
X-103290Y-44336D02*
Y-42836D01*
X-303827Y-39832D02*
X-302327D01*
X-303077Y-40582D02*
Y-39082D01*
X-309339Y-39241D02*
X-307839D01*
X-308589Y-39991D02*
Y-38491D01*
X-257470Y-22756D02*
X-255971D01*
X-256720Y-23506D02*
Y-22006D01*
X-171684Y-32044D02*
X-170184D01*
X-170934Y-32794D02*
Y-31294D01*
X-175967Y-28602D02*
X-174467D01*
X-175216Y-29352D02*
Y-27852D01*
X-161309Y-22756D02*
X-159809D01*
X-160559Y-23506D02*
Y-22006D01*
X-157069Y-73583D02*
X-155569D01*
X-156319Y-74333D02*
Y-72833D01*
X-177740Y-109981D02*
X-176240D01*
X-176990Y-110731D02*
Y-109231D01*
X-301644Y-73500D02*
X-300144D01*
X-300894Y-74250D02*
Y-72750D01*
X-298218Y-66555D02*
X-296719D01*
X-297468Y-67305D02*
Y-65805D01*
X-291950Y-65300D02*
X-290450D01*
X-291200Y-66050D02*
Y-64550D01*
X-228450Y-73000D02*
X-226950D01*
X-227700Y-73750D02*
Y-72250D01*
X-239065Y-70986D02*
X-237565D01*
X-238315Y-71736D02*
Y-70236D01*
X-225632Y-66925D02*
X-224132D01*
X-224882Y-67674D02*
Y-66175D01*
X-168886Y-32044D02*
X-167386D01*
X-168136Y-32794D02*
Y-31294D01*
X-165050Y-39400D02*
X-163550D01*
X-164300Y-40150D02*
Y-38650D01*
X-154715Y-8189D02*
X-153215D01*
X-153965Y-8939D02*
Y-7439D01*
X-239518Y-7702D02*
X-238018D01*
X-238768Y-8452D02*
Y-6952D01*
X-306050Y-23500D02*
X-304550D01*
X-305300Y-24250D02*
Y-22750D01*
X-313850Y-29300D02*
X-312350D01*
X-313100Y-30050D02*
Y-28550D01*
X-240850Y-31800D02*
X-239350D01*
X-240100Y-32550D02*
Y-31050D01*
X-192250Y-103900D02*
X-190750D01*
X-191500Y-104650D02*
Y-103150D01*
X-295550Y-110600D02*
X-294050D01*
X-294800Y-111350D02*
Y-109850D01*
X-201796Y-9700D02*
X-200296D01*
X-201046Y-10450D02*
Y-8950D01*
X-110514Y-43263D02*
X-109014D01*
X-109764Y-44013D02*
Y-42513D01*
X-114250Y-44800D02*
X-112750D01*
X-113500Y-45550D02*
Y-44050D01*
X-114163Y-41162D02*
X-112663D01*
X-113413Y-41912D02*
Y-40411D01*
X-110150Y-40500D02*
X-108650D01*
X-109400Y-41250D02*
Y-39750D01*
X-109950Y-36900D02*
X-108450D01*
X-109200Y-37650D02*
Y-36150D01*
X-96650Y-31900D02*
X-95150D01*
X-95900Y-32650D02*
Y-31150D01*
X-92650Y-39400D02*
X-91150D01*
X-91900Y-40150D02*
Y-38650D01*
X-123850Y-99200D02*
X-122350D01*
X-123100Y-99950D02*
Y-98450D01*
X-84250Y-72900D02*
X-82750D01*
X-83500Y-73650D02*
Y-72150D01*
X-81144Y-66925D02*
X-79644D01*
X-80394Y-67674D02*
Y-66175D01*
X-84050Y-69200D02*
X-82550D01*
X-83300Y-69950D02*
Y-68450D01*
X-69850Y-76500D02*
X-68350D01*
X-69100Y-77250D02*
Y-75750D01*
X-70550Y-72700D02*
X-69050D01*
X-69800Y-73450D02*
Y-71950D01*
X-58050Y-47200D02*
X-56550D01*
X-57300Y-47950D02*
Y-46450D01*
X-68789Y-43821D02*
X-67289D01*
X-68039Y-44570D02*
Y-43071D01*
X-71742Y-43821D02*
X-70242D01*
X-70992Y-44570D02*
Y-43071D01*
X-67641Y-37910D02*
X-66141D01*
X-66891Y-38660D02*
Y-37160D01*
X-6850Y-100900D02*
X-5350D01*
X-6100Y-101650D02*
Y-100150D01*
X-56486Y-10158D02*
X-54986D01*
X-55736Y-10908D02*
Y-9408D01*
X-38213Y-43760D02*
X-36713D01*
X-37463Y-44510D02*
Y-43010D01*
X-20364Y-74826D02*
X-18864D01*
X-19614Y-75576D02*
Y-74076D01*
X-20364Y-78469D02*
X-18864D01*
X-19614Y-79219D02*
Y-77719D01*
X-20398Y-71183D02*
X-18898D01*
X-19648Y-71933D02*
Y-70433D01*
X-32569Y-80236D02*
X-31069D01*
X-31819Y-80986D02*
Y-79486D01*
X-20398Y-67506D02*
X-18898D01*
X-19648Y-68256D02*
Y-66756D01*
X-37750Y-37000D02*
X-36250D01*
X-37000Y-37750D02*
Y-36250D01*
X-41950Y-44800D02*
X-40450D01*
X-41200Y-45550D02*
Y-44050D01*
X-34450Y-42700D02*
X-32950D01*
X-33700Y-43450D02*
Y-41950D01*
X-32050Y-43800D02*
X-30550D01*
X-31300Y-44550D02*
Y-43050D01*
X-24350Y-29900D02*
X-22850D01*
X-23600Y-30650D02*
Y-29150D01*
X-246833Y-28799D02*
X-245333D01*
X-246083Y-29549D02*
Y-28049D01*
X-41722Y-36900D02*
X-40222D01*
X-40972Y-37650D02*
Y-36150D01*
X-41950Y-40600D02*
X-40450D01*
X-41200Y-41350D02*
Y-39850D01*
X-2250Y-62500D02*
X-750D01*
X-1500Y-63250D02*
Y-61750D01*
X-10029Y-71083D02*
X-8529D01*
X-9279Y-71833D02*
Y-70333D01*
X-9242Y-66555D02*
X-7742D01*
X-8492Y-67305D02*
Y-65805D01*
X3250Y-97243D02*
X4750D01*
X4000Y-97993D02*
Y-96493D01*
X36650Y-11300D02*
X38150D01*
X37400Y-12050D02*
Y-10550D01*
X-25581Y-16654D02*
X-24081D01*
X-24831Y-17404D02*
Y-15904D01*
X-245659Y-7795D02*
X-244160D01*
X-244910Y-8545D02*
Y-7045D01*
X-147250Y-2300D02*
X-145750D01*
X-146500Y-3050D02*
Y-1550D01*
X-322550Y9352D02*
X-321050D01*
X-321800Y8602D02*
Y10102D01*
X-330950Y14900D02*
X-329450D01*
X-330200Y14150D02*
Y15650D01*
X-303967Y54918D02*
X-302467D01*
X-303217Y54168D02*
Y55668D01*
X-315850Y53800D02*
X-314350D01*
X-315100Y53050D02*
Y54550D01*
X-318750Y35000D02*
X-317250D01*
X-318000Y34250D02*
Y35750D01*
X-313550Y31300D02*
X-312050D01*
X-312800Y30550D02*
Y32050D01*
X-294350Y26352D02*
X-292850D01*
X-293600Y25602D02*
Y27102D01*
X-304850Y24700D02*
X-303350D01*
X-304100Y23950D02*
Y25450D01*
X-305250Y18600D02*
X-303750D01*
X-304500Y17850D02*
Y19350D01*
X-313750Y19200D02*
X-312250D01*
X-313000Y18450D02*
Y19950D01*
X-280150Y1100D02*
X-278650D01*
X-279400Y350D02*
Y1850D01*
X-275250Y1152D02*
X-273750D01*
X-274500Y402D02*
Y1902D01*
X-224350Y51252D02*
X-222850D01*
X-223600Y50502D02*
Y52002D01*
X-216026Y30551D02*
X-214526D01*
X-215276Y29801D02*
Y31301D01*
X-190230Y31909D02*
X-188730D01*
X-189480Y31159D02*
Y32659D01*
X-228150Y28552D02*
X-226650D01*
X-227400Y27802D02*
Y29302D01*
X-225750Y23852D02*
X-224250D01*
X-225000Y23102D02*
Y24602D01*
X-219079Y30546D02*
X-217579D01*
X-218329Y29796D02*
Y31296D01*
X-215450Y43408D02*
X-213950D01*
X-214700Y42658D02*
Y44158D01*
X-223379Y36361D02*
X-221879D01*
X-222629Y35611D02*
Y37111D01*
X-180344Y139612D02*
X-178844D01*
X-179594Y138862D02*
Y140362D01*
X-156541Y133839D02*
X-155041D01*
X-155791Y133089D02*
Y134589D01*
X-151813Y110315D02*
X-150313D01*
X-151063Y109565D02*
Y111065D01*
X-121106Y155198D02*
X-119606D01*
X-120356Y154448D02*
Y155948D01*
X-227207Y164350D02*
X-225707D01*
X-226457Y163600D02*
Y165100D01*
X-227214Y152737D02*
X-225714D01*
X-226464Y151987D02*
Y153487D01*
X-227214Y143682D02*
X-225714D01*
X-226464Y142932D02*
Y144432D01*
X-235376Y158248D02*
X-233876D01*
X-234626Y157498D02*
Y158998D01*
X-323663Y139350D02*
X-322163D01*
X-322913Y138600D02*
Y140100D01*
X-328486Y154311D02*
X-326986D01*
X-327736Y153561D02*
Y155061D01*
X-147482Y167894D02*
X-145982D01*
X-146732Y167144D02*
Y168644D01*
X-143727Y167428D02*
X-142227D01*
X-142976Y166678D02*
Y168178D01*
X-130350Y137200D02*
X-128850D01*
X-129600Y136450D02*
Y137950D01*
X-241774Y189449D02*
X-240274D01*
X-241024Y188699D02*
Y190199D01*
X-180263Y182660D02*
X-178763D01*
X-179513Y181910D02*
Y183410D01*
X-185479Y179117D02*
X-183979D01*
X-184730Y178367D02*
Y179867D01*
X-143647Y172719D02*
X-142147D01*
X-142897Y171969D02*
Y173469D01*
X-201616Y189547D02*
X-200116D01*
X-200866Y188797D02*
Y190297D01*
X-111362Y194275D02*
X-109862D01*
X-110612Y193525D02*
Y195025D01*
X-105207Y140138D02*
X-103707D01*
X-104457Y139388D02*
Y140888D01*
X-116550Y120200D02*
X-115050D01*
X-115800Y119450D02*
Y120950D01*
X-100928Y130787D02*
X-99428D01*
X-100178Y130037D02*
Y131537D01*
X-86163Y148110D02*
X-84663D01*
X-85413Y147360D02*
Y148860D01*
X-140793Y137229D02*
X-139293D01*
X-140043Y136479D02*
Y137979D01*
X-128350Y140700D02*
X-126850D01*
X-127600Y139950D02*
Y141450D01*
X-115350Y148852D02*
X-113850D01*
X-114600Y148102D02*
Y149602D01*
X-124950Y138600D02*
X-123450D01*
X-124200Y137850D02*
Y139350D01*
X-105207Y144468D02*
X-103707D01*
X-104457Y143718D02*
Y145218D01*
X-100876Y144468D02*
X-99376D01*
X-100126Y143718D02*
Y145218D01*
X-96750Y160852D02*
X-95250D01*
X-96000Y160102D02*
Y161602D01*
X-96104Y158150D02*
X-94604D01*
X-95354Y157400D02*
Y158900D01*
X-107129Y156281D02*
X-105629D01*
X-106379Y155531D02*
Y157031D01*
X-96104Y134724D02*
X-94604D01*
X-95354Y133974D02*
Y135474D01*
X-100876Y140138D02*
X-99376D01*
X-100126Y139388D02*
Y140888D01*
X-95711Y142303D02*
X-94211D01*
X-94961Y141553D02*
Y143053D01*
X-104275Y154017D02*
X-102775D01*
X-103525Y153267D02*
Y154767D01*
X-99091Y153959D02*
X-97591D01*
X-98341Y153209D02*
Y154709D01*
X-86867Y188762D02*
X-85367D01*
X-86117Y188012D02*
Y189512D01*
M02*
