G04*
G04 #@! TF.GenerationSoftware,Altium Limited,Altium Designer,18.1.7 (191)*
G04*
G04 Layer_Physical_Order=2*
G04 Layer_Color=8388736*
%FSLAX25Y25*%
%MOIN*%
G70*
G01*
G75*
%ADD18C,0.02000*%
%ADD274C,0.04000*%
G04:AMPARAMS|DCode=304|XSize=79.433mil|YSize=79.433mil|CornerRadius=0mil|HoleSize=0mil|Usage=FLASHONLY|Rotation=0.000|XOffset=0mil|YOffset=0mil|HoleType=Round|Shape=Relief|Width=14mil|Gap=10mil|Entries=4|*
%AMTHD304*
7,0,0,0.07943,0.05943,0.01400,45*
%
%ADD304THD304*%
%ADD305C,0.05943*%
%ADD306C,0.15392*%
%ADD307C,0.06400*%
G04:AMPARAMS|DCode=308|XSize=84mil|YSize=84mil|CornerRadius=0mil|HoleSize=0mil|Usage=FLASHONLY|Rotation=0.000|XOffset=0mil|YOffset=0mil|HoleType=Round|Shape=Relief|Width=14mil|Gap=10mil|Entries=4|*
%AMTHD308*
7,0,0,0.08400,0.06400,0.01400,45*
%
%ADD308THD308*%
%ADD309C,0.08700*%
%ADD310C,0.07900*%
G04:AMPARAMS|DCode=311|XSize=99mil|YSize=99mil|CornerRadius=0mil|HoleSize=0mil|Usage=FLASHONLY|Rotation=0.000|XOffset=0mil|YOffset=0mil|HoleType=Round|Shape=Relief|Width=14mil|Gap=10mil|Entries=4|*
%AMTHD311*
7,0,0,0.09900,0.07900,0.01400,45*
%
%ADD311THD311*%
%ADD312C,0.08300*%
%ADD313C,0.11100*%
G04:AMPARAMS|DCode=314|XSize=131mil|YSize=131mil|CornerRadius=0mil|HoleSize=0mil|Usage=FLASHONLY|Rotation=0.000|XOffset=0mil|YOffset=0mil|HoleType=Round|Shape=Relief|Width=14mil|Gap=10mil|Entries=4|*
%AMTHD314*
7,0,0,0.13100,0.11100,0.01400,45*
%
%ADD314THD314*%
G04:AMPARAMS|DCode=315|XSize=82mil|YSize=82mil|CornerRadius=0mil|HoleSize=0mil|Usage=FLASHONLY|Rotation=0.000|XOffset=0mil|YOffset=0mil|HoleType=Round|Shape=Relief|Width=14mil|Gap=10mil|Entries=4|*
%AMTHD315*
7,0,0,0.08200,0.06200,0.01400,45*
%
%ADD315THD315*%
%ADD316C,0.06200*%
%ADD317C,0.14211*%
G04:AMPARAMS|DCode=318|XSize=59mil|YSize=59mil|CornerRadius=0mil|HoleSize=0mil|Usage=FLASHONLY|Rotation=0.000|XOffset=0mil|YOffset=0mil|HoleType=Round|Shape=Relief|Width=14mil|Gap=10mil|Entries=4|*
%AMTHD318*
7,0,0,0.05900,0.03900,0.01400,45*
%
%ADD318THD318*%
%ADD319C,0.03900*%
%ADD320C,0.03400*%
G54D18*
X11142Y258642D02*
X24610D01*
X6632Y263152D02*
X11142Y258642D01*
X-315400Y263152D02*
X6632D01*
X-138146Y233052D02*
X-101779D01*
X-144160Y204672D02*
Y228515D01*
X-138146D02*
Y233055D01*
X-144141Y228515D02*
X-138146D01*
X-138391Y192637D02*
Y204672D01*
X-144160D02*
X-138391D01*
X-88300Y189738D02*
Y219773D01*
X-88386Y189652D02*
X-88300Y189738D01*
X-110000Y189652D02*
X-88386D01*
X-138532Y192452D02*
X-112800D01*
X-101679Y233152D02*
X-88300Y219773D01*
X-112800Y192452D02*
X-110000Y189652D01*
X-281116Y161452D02*
X-278800D01*
X-296916Y145652D02*
X-281116Y161452D01*
X-298800Y68252D02*
X-291400Y75652D01*
X-307816Y134752D02*
X-296916Y145652D01*
X-291400Y75652D02*
X-264300Y102752D01*
X-337672Y134752D02*
X-307816D01*
X-263189Y161452D02*
X-258803Y157066D01*
X-278800Y161452D02*
X-263189D01*
X-258803Y108249D02*
Y157066D01*
X-337672Y68252D02*
X-298800D01*
X-264300Y102752D02*
X-258803Y108249D01*
X-337672Y68251D02*
Y134646D01*
X24610Y258642D02*
X49000Y234252D01*
X-337700Y192831D02*
Y193552D01*
X-337000Y194252D01*
X-337700Y134752D02*
Y192831D01*
Y-107748D02*
Y134752D01*
X45500Y-100248D02*
X51630D01*
X29500Y-116248D02*
X45500Y-100248D01*
X-315400Y239652D02*
Y263152D01*
X-337000Y239652D02*
X-315400D01*
X51630Y-100248D02*
X56500D01*
X-337000Y194252D02*
Y239652D01*
X56500Y30252D02*
Y199752D01*
Y-100248D02*
Y30252D01*
Y199752D02*
Y220252D01*
X49000Y234252D02*
X54625D01*
Y222127D02*
Y234252D01*
Y222127D02*
X56500Y220252D01*
X29500Y-135548D02*
Y-116248D01*
X-337700Y-107748D02*
X-325000D01*
X-317200Y-115548D01*
Y-134848D02*
Y-115548D01*
X-299359Y197003D02*
X-277112D01*
X-259509D02*
X-237261D01*
X-219409D02*
X-197161D01*
Y217395D01*
X-219409D02*
X-197161D01*
X-219409Y197003D02*
Y217395D01*
X-237261Y197003D02*
Y217395D01*
X-259509D02*
X-237261D01*
X-259509Y197003D02*
Y217395D01*
X-277112Y197003D02*
Y217395D01*
X-299359Y197003D02*
Y217395D01*
X-277112D01*
G54D274*
X-345500Y-135748D02*
Y269252D01*
X64500D01*
Y-135748D02*
Y269252D01*
X-345500Y-135748D02*
X64500D01*
G54D304*
X8976Y20138D02*
D03*
X-31024Y10138D02*
D03*
X-275200Y44552D02*
D03*
Y82046D02*
D03*
X-265400Y14852D02*
D03*
X-171700Y184552D02*
D03*
X-161700D02*
D03*
X-151700D02*
D03*
X-141700D02*
D03*
G54D305*
X8976Y10138D02*
D03*
X-1024Y20138D02*
D03*
Y10138D02*
D03*
X-11024Y20138D02*
D03*
Y10138D02*
D03*
X-21024Y20138D02*
D03*
Y10138D02*
D03*
X-31024Y20138D02*
D03*
X-235200Y44552D02*
D03*
Y34552D02*
D03*
X-245200Y44552D02*
D03*
Y34552D02*
D03*
X-255200Y44552D02*
D03*
Y34552D02*
D03*
X-265200Y44552D02*
D03*
Y34552D02*
D03*
X-275200D02*
D03*
X-235200Y82046D02*
D03*
Y72046D02*
D03*
X-245200Y82046D02*
D03*
Y72046D02*
D03*
X-255200Y82046D02*
D03*
Y72046D02*
D03*
X-265200Y82046D02*
D03*
Y72046D02*
D03*
X-275200D02*
D03*
X-155400Y14852D02*
D03*
Y4852D02*
D03*
X-165400Y14852D02*
D03*
Y4852D02*
D03*
X-175400Y14852D02*
D03*
Y4852D02*
D03*
X-185400Y14852D02*
D03*
Y4852D02*
D03*
X-195400Y14852D02*
D03*
Y4852D02*
D03*
X-205400Y14852D02*
D03*
Y4852D02*
D03*
X-215400Y14852D02*
D03*
Y4852D02*
D03*
X-225400Y14852D02*
D03*
Y4852D02*
D03*
X-235400Y14852D02*
D03*
Y4852D02*
D03*
X-245400Y14852D02*
D03*
Y4852D02*
D03*
X-255400Y14852D02*
D03*
Y4852D02*
D03*
X-265400D02*
D03*
X-171700Y194552D02*
D03*
X-161700D02*
D03*
X-151700D02*
D03*
X-141700D02*
D03*
G54D306*
X-332456Y-16183D02*
D03*
X-130000Y8552D02*
D03*
X-308600Y174752D02*
D03*
G54D307*
X-11000Y50552D02*
D03*
X-74200D02*
D03*
X-42500D02*
D03*
X-7700Y119152D02*
D03*
X12300D02*
D03*
X-69800D02*
D03*
X-89800D02*
D03*
X12300Y95152D02*
D03*
X-7700D02*
D03*
X-48750D02*
D03*
X-28750D02*
D03*
X-69800D02*
D03*
X-89800D02*
D03*
X-11000Y-121248D02*
D03*
X-1000D02*
D03*
X9000D02*
D03*
X19000D02*
D03*
X-70500D02*
D03*
X-60500D02*
D03*
X-50500D02*
D03*
X-40500D02*
D03*
X-180500D02*
D03*
X-170500D02*
D03*
X-160500D02*
D03*
X-150500D02*
D03*
X-129500D02*
D03*
X-119500D02*
D03*
X-109500D02*
D03*
X-99500D02*
D03*
X-240000D02*
D03*
X-230000D02*
D03*
X-220000D02*
D03*
X-210000D02*
D03*
X-270000D02*
D03*
X-280000D02*
D03*
X-290000D02*
D03*
X-300000D02*
D03*
X46300Y-60248D02*
D03*
Y-80248D02*
D03*
X-28750Y119152D02*
D03*
X-48750D02*
D03*
X20300Y50552D02*
D03*
X-336900Y168852D02*
D03*
Y186652D02*
D03*
X-333100Y218752D02*
D03*
X-323100D02*
D03*
G54D308*
X-21000Y50552D02*
D03*
X-84200D02*
D03*
X-52500D02*
D03*
X2300Y119152D02*
D03*
X-79800D02*
D03*
X2300Y95152D02*
D03*
X-38750D02*
D03*
X-79800D02*
D03*
X46300Y-70248D02*
D03*
Y-90248D02*
D03*
X-38750Y119152D02*
D03*
X10300Y50552D02*
D03*
G54D309*
X-34000Y202652D02*
D03*
X-20600D02*
D03*
Y149652D02*
D03*
X-34000D02*
D03*
X-400Y202652D02*
D03*
X13000D02*
D03*
Y149652D02*
D03*
X-400D02*
D03*
X52932Y67130D02*
D03*
X39532D02*
D03*
Y14130D02*
D03*
X52932D02*
D03*
G54D310*
X31563Y102500D02*
D03*
Y142500D02*
D03*
Y182500D02*
D03*
X-297500Y249452D02*
D03*
X-277500D02*
D03*
X-257500D02*
D03*
X-237500D02*
D03*
X-217500D02*
D03*
X-197500D02*
D03*
X-177500D02*
D03*
X-157500D02*
D03*
X-137500D02*
D03*
X-117500D02*
D03*
G54D311*
X31563Y122500D02*
D03*
Y162500D02*
D03*
Y202500D02*
D03*
G54D312*
X-327100Y163952D02*
D03*
Y191552D02*
D03*
G54D313*
X-320500Y70552D02*
D03*
G54D314*
Y117874D02*
D03*
G54D315*
X-309800Y89252D02*
D03*
G54D316*
Y99173D02*
D03*
X-301900D02*
D03*
Y89252D02*
D03*
G54D317*
X-330500Y-120748D02*
D03*
Y254252D02*
D03*
X49500D02*
D03*
Y-120748D02*
D03*
G54D318*
X-330500Y-130748D02*
D03*
Y-110748D02*
D03*
X-320500Y-120748D02*
D03*
X-340500D02*
D03*
X-337500Y-113748D02*
D03*
X-323500D02*
D03*
Y-127748D02*
D03*
X-337500D02*
D03*
X-330500Y244252D02*
D03*
Y264252D02*
D03*
X-320500Y254252D02*
D03*
X-340500D02*
D03*
X-337500Y261252D02*
D03*
X-323500D02*
D03*
Y247252D02*
D03*
X-337500D02*
D03*
X49500Y244252D02*
D03*
Y264252D02*
D03*
X59500Y254252D02*
D03*
X39500D02*
D03*
X42500Y261252D02*
D03*
X56500D02*
D03*
Y247252D02*
D03*
X42500D02*
D03*
X49500Y-130748D02*
D03*
Y-110748D02*
D03*
X59500Y-120748D02*
D03*
X39500D02*
D03*
X42500Y-113748D02*
D03*
X56500D02*
D03*
Y-127748D02*
D03*
X42500D02*
D03*
G54D319*
X-200492Y40945D02*
D03*
X-136227Y134357D02*
D03*
X-134100Y137900D02*
D03*
X-210225Y56483D02*
D03*
X-228456Y-69393D02*
D03*
X-142034Y-72641D02*
D03*
X-330138Y-45433D02*
D03*
X-106100Y-43500D02*
D03*
X-278557Y99906D02*
D03*
X-70181Y159063D02*
D03*
X-70157Y162874D02*
D03*
Y166319D02*
D03*
X-43159Y26840D02*
D03*
X-50495Y78055D02*
D03*
X-205807Y33858D02*
D03*
X-165855Y-78842D02*
D03*
X41240Y5217D02*
D03*
X54823D02*
D03*
X51083Y22933D02*
D03*
X-23200Y-13100D02*
D03*
X-24831Y-9567D02*
D03*
X-47785Y8120D02*
D03*
X-77146Y168422D02*
D03*
X-18406Y5512D02*
D03*
X-22933Y5413D02*
D03*
X-53839Y36417D02*
D03*
X-88779Y38189D02*
D03*
X-86614Y15354D02*
D03*
X-87795Y23720D02*
D03*
X-45770Y30021D02*
D03*
X7579Y68701D02*
D03*
X-53937Y16043D02*
D03*
X-68996Y16240D02*
D03*
X-68186Y6315D02*
D03*
X-65546Y3746D02*
D03*
X-75000Y9941D02*
D03*
X-64570Y12107D02*
D03*
X-70048Y22652D02*
D03*
X-67148Y32152D02*
D03*
X-111961Y21482D02*
D03*
X-115730Y22022D02*
D03*
X-114738Y33011D02*
D03*
X-125882Y25870D02*
D03*
X-229637Y-7874D02*
D03*
X3543Y81595D02*
D03*
X-3150Y64173D02*
D03*
X-3347Y68507D02*
D03*
X-81205Y67424D02*
D03*
X-67619Y64767D02*
D03*
X-21960Y80216D02*
D03*
X-14567Y69587D02*
D03*
X-58156Y80905D02*
D03*
X27264Y73303D02*
D03*
X-35326Y81146D02*
D03*
X-88489Y61913D02*
D03*
X-323401Y-16183D02*
D03*
X-332456Y-7127D02*
D03*
Y-25238D02*
D03*
X-83329Y80347D02*
D03*
X-7457Y201460D02*
D03*
Y198114D02*
D03*
Y207953D02*
D03*
Y204708D02*
D03*
X-13413Y201358D02*
D03*
Y204705D02*
D03*
X-15579Y195256D02*
D03*
X-20598Y193484D02*
D03*
X-284636Y168585D02*
D03*
X-285020Y164744D02*
D03*
X-282987Y172145D02*
D03*
X-277771Y170403D02*
D03*
X-299980Y-69508D02*
D03*
X-107757Y134331D02*
D03*
X-104312Y132559D02*
D03*
X-68090Y189252D02*
D03*
X35004Y136260D02*
D03*
X38449D02*
D03*
X31559D02*
D03*
X-41169Y151705D02*
D03*
X2800Y158752D02*
D03*
X-2000Y158652D02*
D03*
X-179906Y136103D02*
D03*
X-160883Y130244D02*
D03*
X-173115Y126063D02*
D03*
X-152980Y-66555D02*
D03*
X-155591Y-69606D02*
D03*
X32205Y230591D02*
D03*
X-71732Y172815D02*
D03*
X-75276D02*
D03*
X-89842Y185807D02*
D03*
X6713Y250472D02*
D03*
X-288600Y2052D02*
D03*
X-293681Y3720D02*
D03*
X-284900Y2400D02*
D03*
X-110316Y42594D02*
D03*
X-107658Y72126D02*
D03*
X-90039Y168681D02*
D03*
X-93779Y168976D02*
D03*
X-75177Y175866D02*
D03*
X-71732Y176063D02*
D03*
X-100866Y182461D02*
D03*
X-196572Y135807D02*
D03*
X-285226Y101554D02*
D03*
X-95500Y131053D02*
D03*
X-105762Y93376D02*
D03*
X-109362Y93537D02*
D03*
X-103425Y98110D02*
D03*
X-105886Y101063D02*
D03*
X-109724Y100404D02*
D03*
X-103895Y89052D02*
D03*
X-71287Y78425D02*
D03*
X2386Y-69911D02*
D03*
X2488Y-72800D02*
D03*
X-156280Y31181D02*
D03*
X-156870Y27441D02*
D03*
X-125875Y28868D02*
D03*
X-132338Y30284D02*
D03*
X-131200Y44352D02*
D03*
X-110423Y12817D02*
D03*
X-70941Y74586D02*
D03*
X-144213Y110600D02*
D03*
X-99000Y167352D02*
D03*
X-104200Y83452D02*
D03*
X-133500Y84100D02*
D03*
X-122382Y74181D02*
D03*
X-122461Y66091D02*
D03*
X-126100Y49200D02*
D03*
X-126077Y52855D02*
D03*
X-126079Y59351D02*
D03*
X-138210Y26590D02*
D03*
X-135000Y48852D02*
D03*
X-131213Y48031D02*
D03*
X-139200Y45452D02*
D03*
X-138160Y22982D02*
D03*
X-138700Y49052D02*
D03*
X-10000Y-74800D02*
D03*
X-69800Y-70000D02*
D03*
X-19616Y-39780D02*
D03*
X-113400Y-37500D02*
D03*
X-313000Y13252D02*
D03*
X-209100Y91400D02*
D03*
X-183700Y31800D02*
D03*
X-183600Y111400D02*
D03*
X-144226Y106682D02*
D03*
X-175400Y145652D02*
D03*
X-159800Y141400D02*
D03*
X-151060Y106634D02*
D03*
X-232976Y102654D02*
D03*
X-189100Y65500D02*
D03*
X-260100Y60400D02*
D03*
X-213062Y56461D02*
D03*
X-218669Y81075D02*
D03*
X-191700Y81852D02*
D03*
X-83200Y152652D02*
D03*
X-191802Y96265D02*
D03*
X-163493Y111209D02*
D03*
X-163500Y107600D02*
D03*
X-206000Y103500D02*
D03*
X-180933Y147047D02*
D03*
X-175224Y151969D02*
D03*
X-289496Y113583D02*
D03*
X-251581Y96432D02*
D03*
X-182700Y102752D02*
D03*
X42394Y182441D02*
D03*
X35004Y176260D02*
D03*
X24866D02*
D03*
X31559D02*
D03*
X28213D02*
D03*
X38449D02*
D03*
X41114Y178898D02*
D03*
X41016Y185984D02*
D03*
X24677Y188740D02*
D03*
X34913D02*
D03*
X31567D02*
D03*
X38260D02*
D03*
X28122D02*
D03*
X-41169Y148457D02*
D03*
X-39201Y141961D02*
D03*
X-27587Y140484D02*
D03*
X-15579Y142256D02*
D03*
X-41169Y145110D02*
D03*
X-33984Y140386D02*
D03*
X-20598Y140484D02*
D03*
X-13413Y145110D02*
D03*
Y151705D02*
D03*
Y148358D02*
D03*
X51266Y57902D02*
D03*
X41213D02*
D03*
X37866D02*
D03*
X37852Y76358D02*
D03*
X41198D02*
D03*
X59716Y67154D02*
D03*
Y70500D02*
D03*
Y63807D02*
D03*
X28150Y108858D02*
D03*
X38260Y108740D02*
D03*
X31567D02*
D03*
X34913D02*
D03*
X24677D02*
D03*
X42394Y102441D02*
D03*
X41016Y105984D02*
D03*
X41114Y98898D02*
D03*
X38449Y96260D02*
D03*
X28213D02*
D03*
X31559D02*
D03*
X24866D02*
D03*
X35004D02*
D03*
X28122Y148740D02*
D03*
X38260D02*
D03*
X31567D02*
D03*
X34913D02*
D03*
X24677D02*
D03*
X42394Y142441D02*
D03*
X41016Y145984D02*
D03*
X41114Y138898D02*
D03*
X28213Y136260D02*
D03*
X24866D02*
D03*
X-5601Y194961D02*
D03*
X6013Y193484D02*
D03*
X18021Y195256D02*
D03*
X-384Y193386D02*
D03*
X13002Y193484D02*
D03*
X20187Y207953D02*
D03*
Y198110D02*
D03*
Y204705D02*
D03*
Y201358D02*
D03*
X-13413Y198110D02*
D03*
Y207953D02*
D03*
X-120223Y233829D02*
D03*
X-84969Y217598D02*
D03*
X-77980Y210610D02*
D03*
X-79358Y203524D02*
D03*
X-77784Y193976D02*
D03*
X7158Y238268D02*
D03*
X14736D02*
D03*
X10898D02*
D03*
X23988D02*
D03*
X27827D02*
D03*
X20248D02*
D03*
X1055Y-43819D02*
D03*
X4008D02*
D03*
X-47764Y-54843D02*
D03*
X-123607Y-38109D02*
D03*
Y-31708D02*
D03*
X-120607Y-36709D02*
D03*
Y-33209D02*
D03*
X-131407Y-36608D02*
D03*
Y-33108D02*
D03*
X-128407Y-38109D02*
D03*
Y-31708D02*
D03*
X-26412Y-29896D02*
D03*
X-74240Y-40669D02*
D03*
X-66412Y-22954D02*
D03*
X-63273Y-25854D02*
D03*
Y-14354D02*
D03*
X-66373Y-11454D02*
D03*
X-69473Y-25854D02*
D03*
X-72612Y-22954D02*
D03*
X-69473Y-14354D02*
D03*
X-72612Y-11454D02*
D03*
X-113512Y-54843D02*
D03*
X-116465D02*
D03*
X-98690Y-31943D02*
D03*
X-128866Y-9469D02*
D03*
X-146484Y-40669D02*
D03*
X-144954Y-11454D02*
D03*
X-141816Y-14354D02*
D03*
X-144954Y-22954D02*
D03*
X-141816Y-25854D02*
D03*
X-138716Y-11454D02*
D03*
X-135616Y-14354D02*
D03*
Y-25854D02*
D03*
X-138754Y-22954D02*
D03*
X-143965Y-43883D02*
D03*
X-185756Y-54843D02*
D03*
X-188709D02*
D03*
X-178310Y-43583D02*
D03*
X-175435D02*
D03*
X-218728Y-40669D02*
D03*
X-200595Y-31708D02*
D03*
Y-38109D02*
D03*
X-203595Y-33108D02*
D03*
Y-36608D02*
D03*
X-192795Y-33209D02*
D03*
Y-36709D02*
D03*
X-195795Y-31708D02*
D03*
Y-38109D02*
D03*
X-210900Y-22954D02*
D03*
X-207761Y-25854D02*
D03*
Y-14354D02*
D03*
X-210861Y-11454D02*
D03*
X-213961Y-25854D02*
D03*
X-217100Y-22954D02*
D03*
X-213961Y-14354D02*
D03*
X-217100Y-11454D02*
D03*
X-260953Y-54843D02*
D03*
X-258000D02*
D03*
X-212528Y-43720D02*
D03*
X-215480D02*
D03*
X-43236Y-72461D02*
D03*
Y-69410D02*
D03*
X-30441D02*
D03*
Y-72461D02*
D03*
X15228Y-72362D02*
D03*
Y-69311D02*
D03*
X2236Y-57402D02*
D03*
X5189Y-51496D02*
D03*
X2236D02*
D03*
X5189Y-57402D02*
D03*
X-30115Y-57441D02*
D03*
X-33068D02*
D03*
X-115480Y-72461D02*
D03*
Y-69410D02*
D03*
X-102685D02*
D03*
Y-72461D02*
D03*
X-57016Y-72362D02*
D03*
Y-69311D02*
D03*
X-70008Y-57402D02*
D03*
X-67055Y-51496D02*
D03*
X-70008D02*
D03*
X-67055Y-57402D02*
D03*
X-102359Y-57441D02*
D03*
X-105312D02*
D03*
X-187724Y-69410D02*
D03*
X-174929D02*
D03*
X-129260Y-72362D02*
D03*
Y-69311D02*
D03*
X-142252Y-57402D02*
D03*
X-139299Y-51693D02*
D03*
X-142252D02*
D03*
X-139299Y-57402D02*
D03*
X-174603Y-57441D02*
D03*
X-177556D02*
D03*
X-142055Y-69705D02*
D03*
X-259968Y-72461D02*
D03*
Y-69410D02*
D03*
X-247173D02*
D03*
Y-72461D02*
D03*
X-201504Y-72362D02*
D03*
Y-69311D02*
D03*
X-214496Y-57402D02*
D03*
X-211543Y-51496D02*
D03*
X-214496D02*
D03*
X-211543Y-57402D02*
D03*
X-246847Y-57441D02*
D03*
X-249800D02*
D03*
X-236248Y-39980D02*
D03*
X-322044Y-57441D02*
D03*
X-319091D02*
D03*
X-330244Y-54843D02*
D03*
X-333197D02*
D03*
X-283787Y-51496D02*
D03*
X-286740Y-57402D02*
D03*
X32900Y19652D02*
D03*
X32400Y10152D02*
D03*
X-317655Y174752D02*
D03*
X-299545D02*
D03*
X-308600Y183807D02*
D03*
Y165697D02*
D03*
X-310452Y138893D02*
D03*
X-327501Y142081D02*
D03*
X-327461Y148164D02*
D03*
X-293706Y171686D02*
D03*
X-293851Y167741D02*
D03*
X-293903Y163900D02*
D03*
X32600Y14452D02*
D03*
X54600Y24908D02*
D03*
X37800Y22208D02*
D03*
X34500Y24908D02*
D03*
Y6052D02*
D03*
X37800Y3352D02*
D03*
X47900Y24908D02*
D03*
X-133478Y74081D02*
D03*
X-126111Y74173D02*
D03*
X-129755Y80026D02*
D03*
X-189027Y76018D02*
D03*
X-138887Y109916D02*
D03*
X-247600Y96052D02*
D03*
X-191600Y48752D02*
D03*
X-129791Y65985D02*
D03*
X-122388Y59329D02*
D03*
X-129781Y74090D02*
D03*
X-126088Y66147D02*
D03*
X-125000Y99752D02*
D03*
X-63148Y35426D02*
D03*
X-273607Y-38109D02*
D03*
Y-31708D02*
D03*
X-270607Y-36709D02*
D03*
Y-33209D02*
D03*
X-288261Y-22954D02*
D03*
X-285123Y-25854D02*
D03*
X-278923D02*
D03*
X-282061Y-22954D02*
D03*
X-281407Y-36608D02*
D03*
Y-33108D02*
D03*
X-278407Y-38109D02*
D03*
Y-31708D02*
D03*
X41165Y24852D02*
D03*
X44500Y22208D02*
D03*
X-33984Y193386D02*
D03*
X-41169Y198110D02*
D03*
X-27587Y193484D02*
D03*
X-41169Y207953D02*
D03*
X-39201Y194961D02*
D03*
X-41169Y201457D02*
D03*
Y204705D02*
D03*
X-27200Y157252D02*
D03*
X14500Y158752D02*
D03*
X-6000Y156552D02*
D03*
X18000Y156952D02*
D03*
X9800Y158752D02*
D03*
X6400Y156052D02*
D03*
X6200Y142452D02*
D03*
X-59500Y152852D02*
D03*
X-91024Y226358D02*
D03*
X-81700Y190452D02*
D03*
X-54200Y148952D02*
D03*
X-59600Y161352D02*
D03*
X-55300Y158252D02*
D03*
X-261494Y185903D02*
D03*
X-269400Y181056D02*
D03*
X-164100Y245552D02*
D03*
Y253252D02*
D03*
X-150700Y253452D02*
D03*
X-150800Y245452D02*
D03*
X-164100Y249352D02*
D03*
X-150900D02*
D03*
X-296300Y124533D02*
D03*
X-280400Y150752D02*
D03*
X-303600Y120833D02*
D03*
X-303900Y128233D02*
D03*
X-172799Y44338D02*
D03*
X-181200Y48052D02*
D03*
Y44352D02*
D03*
X-183609Y107628D02*
D03*
X-173749Y111198D02*
D03*
X-181280Y193252D02*
D03*
X-273748Y-69311D02*
D03*
Y-72362D02*
D03*
X-319417Y-72461D02*
D03*
Y-69410D02*
D03*
X-332213Y-72461D02*
D03*
X54598Y76358D02*
D03*
X32748Y70453D02*
D03*
X58306Y-27148D02*
D03*
Y-42648D02*
D03*
X-222769Y153039D02*
D03*
X32748Y63760D02*
D03*
X54500Y57953D02*
D03*
X51252Y76358D02*
D03*
X32748Y67106D02*
D03*
X-192500Y109474D02*
D03*
X-212600Y109752D02*
D03*
X-122387Y52868D02*
D03*
X-138885Y113419D02*
D03*
X-187913Y48745D02*
D03*
X-87600Y210583D02*
D03*
Y205676D02*
D03*
X-266400Y220152D02*
D03*
X-190900Y249352D02*
D03*
X-204100D02*
D03*
X-190800Y245452D02*
D03*
X-190700Y253452D02*
D03*
X-204100Y253252D02*
D03*
Y245552D02*
D03*
X-203700Y234152D02*
D03*
X-190700Y233952D02*
D03*
X-230700D02*
D03*
X-243700Y234152D02*
D03*
X-244100Y245552D02*
D03*
Y253252D02*
D03*
X-230700Y253452D02*
D03*
X-230800Y245452D02*
D03*
X-244100Y249352D02*
D03*
X-230900D02*
D03*
X-270077Y235349D02*
D03*
X-283946Y235261D02*
D03*
X-284100Y245552D02*
D03*
Y253252D02*
D03*
X-270700Y253452D02*
D03*
X-270800Y245452D02*
D03*
X-284100Y249352D02*
D03*
X-270900D02*
D03*
X-297800Y220352D02*
D03*
X-226550Y220152D02*
D03*
X-261900Y217952D02*
D03*
Y208852D02*
D03*
X-221800D02*
D03*
Y217952D02*
D03*
X-186450Y220152D02*
D03*
X-261600Y226452D02*
D03*
X-221700Y226652D02*
D03*
X-181069Y179082D02*
D03*
X-299900Y233752D02*
D03*
X-312750Y214402D02*
D03*
X32975Y-42748D02*
D03*
X36193D02*
D03*
X32975Y-39587D02*
D03*
X39375Y-42748D02*
D03*
X32975Y-36437D02*
D03*
Y-27148D02*
D03*
X36094D02*
D03*
X37200Y-80248D02*
D03*
X39200Y-82748D02*
D03*
X39300Y-77748D02*
D03*
X53300Y-82748D02*
D03*
X53400Y-77748D02*
D03*
X55400Y-80248D02*
D03*
Y-60248D02*
D03*
X53400Y-57748D02*
D03*
X53300Y-62748D02*
D03*
X39300Y-57748D02*
D03*
X39200Y-62748D02*
D03*
X37200Y-60248D02*
D03*
X-83048Y35371D02*
D03*
X-192683Y65666D02*
D03*
X-192163Y76006D02*
D03*
X-169600Y156052D02*
D03*
X-164575Y156077D02*
D03*
X-159638Y156077D02*
D03*
X-154622Y156047D02*
D03*
X-149596Y156127D02*
D03*
X-136005Y154107D02*
D03*
X-145755Y200915D02*
D03*
X-221502Y185849D02*
D03*
X-143700Y130352D02*
D03*
X-209500Y140552D02*
D03*
X-207100Y138852D02*
D03*
Y135952D02*
D03*
X-209400Y134152D02*
D03*
X-226915Y140078D02*
D03*
X-215627Y140538D02*
D03*
X-217927Y138738D02*
D03*
Y135838D02*
D03*
X-215527Y134138D02*
D03*
X-112757Y188134D02*
D03*
X-134134Y164347D02*
D03*
X-280850Y189216D02*
D03*
X-166081Y207653D02*
D03*
X-294746Y181435D02*
D03*
X-237911Y102049D02*
D03*
X-187700Y140652D02*
D03*
X-86200Y168552D02*
D03*
X37281Y-14488D02*
D03*
X41981Y-9596D02*
D03*
Y-2996D02*
D03*
X44500Y3352D02*
D03*
X47900Y6152D02*
D03*
X51100Y3352D02*
D03*
X44781Y-1196D02*
D03*
X41981Y-6296D02*
D03*
X41681Y-12796D02*
D03*
X-305332Y149173D02*
D03*
X-290972Y-40669D02*
D03*
X-255047Y-7992D02*
D03*
X-332213Y-69410D02*
D03*
X-368Y-11454D02*
D03*
X2771Y-14354D02*
D03*
X-368Y-22954D02*
D03*
X2771Y-25854D02*
D03*
X5871Y-11454D02*
D03*
X8971Y-14354D02*
D03*
Y-25854D02*
D03*
X5832Y-22954D02*
D03*
X-1996Y-40669D02*
D03*
X-66891Y-31610D02*
D03*
X-69891Y-33010D02*
D03*
Y-36510D02*
D03*
X-59091Y-33110D02*
D03*
Y-36610D02*
D03*
X-62091Y-31610D02*
D03*
Y-38010D02*
D03*
X21078Y-38010D02*
D03*
Y-31610D02*
D03*
X24078Y-36610D02*
D03*
Y-33110D02*
D03*
X13278Y-36510D02*
D03*
Y-33010D02*
D03*
X16278Y-38010D02*
D03*
Y-31610D02*
D03*
X14835Y-10748D02*
D03*
X-47764Y-57795D02*
D03*
X-187724Y-72461D02*
D03*
X-174929D02*
D03*
X-50520Y-99036D02*
D03*
X-70697Y-91063D02*
D03*
X-72862Y-88898D02*
D03*
X-41957Y-105039D02*
D03*
Y-107992D02*
D03*
X-52368Y-87323D02*
D03*
Y-90276D02*
D03*
X-50520Y-96083D02*
D03*
X-21386Y-101585D02*
D03*
X-2980Y-97264D02*
D03*
X33634Y-7598D02*
D03*
Y-10791D02*
D03*
X16269Y-5236D02*
D03*
X19461D02*
D03*
X32975Y-30335D02*
D03*
X33043Y-33386D02*
D03*
X56665Y-40177D02*
D03*
Y-29547D02*
D03*
X38307Y230591D02*
D03*
X35256D02*
D03*
X-93976Y226358D02*
D03*
X56862Y134724D02*
D03*
X-297370Y144862D02*
D03*
X-291169Y-25906D02*
D03*
X-288315Y-14390D02*
D03*
X-285461Y-11535D02*
D03*
X-282606Y-14390D02*
D03*
X-331425Y58760D02*
D03*
X-326701Y57087D02*
D03*
X-320700Y55052D02*
D03*
X-335700Y57652D02*
D03*
X-315200Y44452D02*
D03*
X-15600Y-3048D02*
D03*
X-143700Y133452D02*
D03*
X-188119Y96270D02*
D03*
X-133900Y112052D02*
D03*
X-125007Y106632D02*
D03*
X-211900Y91252D02*
D03*
X-214600Y75852D02*
D03*
X-217700D02*
D03*
X-230800Y26052D02*
D03*
X-323200Y452D02*
D03*
X-265000Y59352D02*
D03*
X-294600Y40052D02*
D03*
X-313128Y49705D02*
D03*
X-314702Y5512D02*
D03*
X-331130Y545D02*
D03*
X-250610Y-43465D02*
D03*
X-257902Y-37126D02*
D03*
X-254059Y-36879D02*
D03*
X-257960Y-41162D02*
D03*
X-257996Y-44851D02*
D03*
X-336929Y-105866D02*
D03*
X-330236Y-41398D02*
D03*
X-288012Y-72894D02*
D03*
X-286760Y-51831D02*
D03*
X-283787Y-57402D02*
D03*
X-286535Y-70236D02*
D03*
X-288313Y-43867D02*
D03*
X-285458D02*
D03*
X-320000Y-43169D02*
D03*
X-326406Y-37520D02*
D03*
X-314882Y-31947D02*
D03*
X-247736Y-43465D02*
D03*
X-214201Y-72756D02*
D03*
X-214291Y-70138D02*
D03*
X-242941Y-31809D02*
D03*
X-165965Y-74862D02*
D03*
X-185658Y-41162D02*
D03*
X-310551Y-78110D02*
D03*
Y-74468D02*
D03*
Y-70827D02*
D03*
X-310714Y-67219D02*
D03*
X-330146Y-37126D02*
D03*
X-322764Y-43130D02*
D03*
X-165866Y-71122D02*
D03*
X-165964Y-67097D02*
D03*
X-185749Y-44851D02*
D03*
X-181516Y-36977D02*
D03*
X-185551Y-37165D02*
D03*
X-141012Y-43883D02*
D03*
X-238315Y-74629D02*
D03*
Y-78272D02*
D03*
Y-67343D02*
D03*
X-93721Y-78504D02*
D03*
X-94012Y-74380D02*
D03*
X-93815Y-70739D02*
D03*
Y-66988D02*
D03*
X-103290Y-43586D02*
D03*
X-308589Y-39241D02*
D03*
X-170934Y-32044D02*
D03*
X-156319Y-73583D02*
D03*
X-300894Y-73500D02*
D03*
X-297468Y-66555D02*
D03*
X-227700Y-73000D02*
D03*
X-238315Y-70986D02*
D03*
X-224882Y-66925D02*
D03*
X-168136Y-32044D02*
D03*
X-164300Y-39400D02*
D03*
X-153965Y-8189D02*
D03*
X-313100Y-29300D02*
D03*
X-240100Y-31800D02*
D03*
X-201046Y-9700D02*
D03*
X-113500Y-44800D02*
D03*
X-113413Y-41162D02*
D03*
X-109200Y-36900D02*
D03*
X-95900Y-31900D02*
D03*
X-91900Y-39400D02*
D03*
X-83500Y-72900D02*
D03*
X-80394Y-66925D02*
D03*
X-83300Y-69200D02*
D03*
X-69800Y-72700D02*
D03*
X-68039Y-43821D02*
D03*
X-70992D02*
D03*
X-66891Y-37910D02*
D03*
X-55736Y-10158D02*
D03*
X-19614Y-74826D02*
D03*
Y-78469D02*
D03*
X-19648Y-71183D02*
D03*
Y-67506D02*
D03*
X-37000Y-37000D02*
D03*
X-41200Y-44800D02*
D03*
X-33700Y-42700D02*
D03*
X-31300Y-43800D02*
D03*
X-23600Y-29900D02*
D03*
X-40972Y-36900D02*
D03*
X-41200Y-40600D02*
D03*
X-9279Y-71083D02*
D03*
X-8492Y-66555D02*
D03*
X37400Y-11300D02*
D03*
X-24831Y-16654D02*
D03*
X-244910Y-7795D02*
D03*
X-146500Y-2300D02*
D03*
X-321800Y9352D02*
D03*
X-330200Y14900D02*
D03*
X-303217Y54918D02*
D03*
X-318000Y35000D02*
D03*
X-312800Y31300D02*
D03*
X-293600Y26352D02*
D03*
X-304100Y24700D02*
D03*
X-304500Y18600D02*
D03*
X-313000Y19200D02*
D03*
X-279400Y1100D02*
D03*
X-274500Y1152D02*
D03*
X-223600Y51252D02*
D03*
X-215276Y30551D02*
D03*
X-227400Y28552D02*
D03*
X-225000Y23852D02*
D03*
X-218329Y30546D02*
D03*
X-222629Y36361D02*
D03*
X-179594Y139612D02*
D03*
X-155791Y133839D02*
D03*
X-151063Y110315D02*
D03*
X-120356Y155198D02*
D03*
X-226464Y152737D02*
D03*
X-322913Y139350D02*
D03*
X-327736Y154311D02*
D03*
X-146732Y167894D02*
D03*
X-142976Y167428D02*
D03*
X-129600Y137200D02*
D03*
X-241024Y189449D02*
D03*
X-179513Y182660D02*
D03*
X-184730Y179117D02*
D03*
X-142897Y172719D02*
D03*
X-200866Y189547D02*
D03*
X-104457Y140138D02*
D03*
X-115800Y120200D02*
D03*
X-127600Y140700D02*
D03*
X-114600Y148852D02*
D03*
X-124200Y138600D02*
D03*
X-104457Y144468D02*
D03*
X-100126D02*
D03*
X-106379Y156281D02*
D03*
X-95354Y134724D02*
D03*
X-100126Y140138D02*
D03*
X-103525Y154017D02*
D03*
X-98341Y153959D02*
D03*
X-86117Y188762D02*
D03*
G54D320*
X-37134Y225059D02*
D03*
X-5065Y234970D02*
D03*
M02*
