M48
;Layer_Color=9474304
;FILE_FORMAT=2:5
INCH,TZ
;TYPE=PLATED
T1F00S00C0.01000
T2F00S00C0.01500
T3F00S00C0.03543
T4F00S00C0.03800
T5F00S00C0.04000
T6F00S00C0.05500
T7F00S00C0.05900
T8F00S00C0.06300
T9F00S00C0.08700
;TYPE=NON_PLATED
T10F00S00C0.11811
T11F00S00C0.12992
%
T01
X-309412Y-57815
Y-53484
X-305081
Y-57815
X-300750
Y-53484
Y-49153
X-305081
X-309412
X-296420
Y-53484
Y-57815
X-237168
X-232837
Y-53484
X-237168
Y-49153
X-232837
X-228506
X-224176
Y-53484
Y-57815
X-228506
Y-53484
X-164924
X-160593
Y-57815
X-164924
Y-49153
X-160593
X-156262
Y-53484
Y-57815
X-151932
Y-53484
Y-49153
X-92680
X-88349
X-84018
X-79687
Y-53484
Y-57815
X-84018
Y-53484
X-88349
Y-57815
X-92680
Y-53484
X-20435
X-16105
Y-57815
X-20435
Y-49153
X-16105
X-11774
Y-53484
Y-57815
X-7443
Y-53484
Y-49153
X-200400Y202454
Y206454
Y210454
Y214454
X-204400
X-208400
Y210454
Y206454
Y202454
X-212400
X-216400
Y206454
X-212400
Y210454
X-216400
Y214454
X-212400
X-204400Y210454
Y206454
Y202454
X-240500
X-244500
Y206454
X-240500
Y210454
X-244500
Y214454
X-240500
X-248500
X-252500
X-256500
Y210454
X-252500
Y206454
X-256500
Y202454
X-252500
X-248500
Y206454
Y210454
X-280350
Y214454
X-284350
X-288350
Y210454
Y206454
Y202454
X-292350
X-296350
Y206454
X-292350
Y210454
X-296350
Y214454
X-292350
X-284350Y210454
Y206454
X-280350
Y202454
X-284350
X-130850
Y206454
X-126850
Y202454
Y198454
X-130850
Y194454
X-126850
X-122850
X-118850
X-114850
Y198454
X-118850
Y202454
X-114850
Y206454
X-118850
X-122850
Y202454
Y198454
X-88910Y178130
X-84973
X-37134Y225059
X-14931Y241939
X-10600
Y246270
X-14931
Y250601
X-10600
X-5065Y234970
T02
X-337500Y-127748
X-330500Y-130748
Y-110748
X-337500Y-113748
X-336929Y-105866
X-334772Y-101201
X-340500Y-120748
X-329850Y-80236
X-332213Y-72461
Y-69410
X-333197Y-54843
X-330244
X-334378Y-50414
X-330138Y-45433
X-330236Y-41398
X-330146Y-37126
X-334772Y-31516
X-322468Y-33434
X-326406Y-37520
X-326602Y-41308
X-326504Y-44114
X-322764Y-43130
X-320000Y-43169
X-319091Y-57441
X-322044
X-315184Y-62766
X-315087Y-65669
X-310714Y-67219
X-310551Y-70827
Y-74468
Y-78110
X-320795Y-80236
X-323847
X-326853
X-319417Y-72461
Y-69410
X-299980Y-69508
X-300894Y-73500
X-296779Y-75906
X-297468Y-66555
X-291200Y-65300
X-291071Y-62520
X-286740Y-57402
X-283787
Y-51496
X-286760Y-51831
X-285458Y-43867
X-288313
X-290972Y-40669
X-303077Y-39832
X-308589Y-39241
X-314882Y-31947
X-281407Y-33108
Y-36608
X-278407Y-38109
X-273607
X-270607Y-36709
Y-33209
X-273607Y-31708
X-278407
X-277488Y-47362
X-274535
X-257996Y-44851
X-257960Y-41162
X-257902Y-37126
X-254059Y-36879
X-254260Y-40669
Y-43720
X-250610Y-43465
X-247736
X-246847Y-57441
X-249800
X-258000Y-54843
X-260953
X-266760Y-62126
X-259968Y-69410
Y-72461
X-257606Y-80236
X-254609
X-251602
X-248551
X-247173Y-72461
Y-69410
X-242941Y-65669
Y-62717
X-238315Y-67343
Y-70986
Y-74629
Y-78272
X-227700Y-73000
X-228456Y-69393
X-224882Y-66925
X-218819Y-65118
X-218827Y-62421
X-214496Y-57402
X-211543
Y-51496
X-214496
X-215480Y-43720
X-212528
X-218728Y-40669
X-230830Y-39832
X-236248Y-39980
X-240100Y-31800
X-242941Y-31809
X-203595Y-33108
Y-36608
X-200595Y-38109
X-195795
X-192795Y-36709
Y-33209
X-195795Y-31708
X-200595
X-201596Y-47214
X-204457Y-47165
X-185749Y-44851
X-185658Y-41162
X-185551Y-37165
X-181516Y-36977
X-181951Y-40709
Y-43760
X-178310Y-43583
X-175435
X-174603Y-57441
X-177556
X-185756Y-54843
X-188709
X-194220Y-62323
X-187724Y-69410
Y-72461
X-185256Y-80276
X-182365Y-80236
X-179358
X-176307
X-174929Y-72461
Y-69410
X-201504Y-69311
Y-72362
X-203276Y-76248
X-206327
X-209333
X-212331
X-214201Y-72756
X-214291Y-70138
X-224500Y-75800
X-226996Y-91063
X-230296
X-225000Y-96448
Y-99748
X-214988Y-100610
Y-97310
X-199240Y-101791
X-195940
X-195546Y-107008
X-198846
X-191500Y-103900
X-188709Y-103858
X-188800Y-110248
Y-113548
X-176990Y-109981
X-175280Y-107525
X-191563Y-127480
X-224929Y-127382
X-235100Y-109948
Y-106748
X-248300Y-110348
Y-113648
X-254260Y-113359
Y-110059
X-262000Y-110048
Y-106848
Y-103648
X-275300Y-100448
Y-97248
X-285891
Y-100448
X-284934Y-113143
X-294600Y-113648
X-294800Y-110600
X-294900Y-107148
X-307600Y-110248
X-311100
X-311240Y-106850
X-315800Y-109748
X-318300Y-107248
X-321300Y-106800
X-323500Y-113748
X-320500Y-120748
X-311900Y-120948
X-305047Y-127874
X-323500Y-127748
X-284968Y-127874
X-252587Y-127480
X-276799Y-76248
X-279850
X-282857
X-285852Y-76448
X-288012Y-72894
X-286535Y-70236
X-273748Y-69311
Y-72362
X-296878Y-91260
X-300078Y-91162
X-165500Y-96648
Y-99948
X-155500Y-100548
X-155532Y-97303
X-153965Y-87126
X-157265
X-156319Y-73583
X-155591Y-69606
X-152980Y-66555
X-146869Y-65030
X-146583Y-62323
X-142252Y-57402
X-139299
Y-51693
X-142252
X-141012Y-43883
X-143965
X-146484Y-40669
X-158800Y-39900
X-164300Y-39400
X-168136Y-32044
X-170934Y-32044
X-170697Y-62717
Y-65669
X-165964Y-67097
X-165866Y-71122
X-165965Y-74862
X-165855Y-78842
X-152291Y-75807
X-141346Y-76283
X-138368Y-76248
X-135362
X-132311
X-129260Y-72362
Y-69311
X-142055Y-69705
X-142034Y-72641
X-115480Y-72461
Y-69410
X-102685
Y-72461
X-104063Y-80236
X-107114
X-110120
X-113118
X-93721Y-78504
X-94012Y-74380
X-93815Y-70739
Y-66988
X-98965Y-66169
Y-63217
X-102359Y-57441
X-105312
X-113512Y-54843
X-116465
X-121681Y-60748
X-130146Y-47362
X-133098
X-131407Y-36608
Y-33108
X-128407Y-31708
X-123607
X-120607Y-33209
Y-36709
X-123607Y-38109
X-128407
X-113400Y-37500
X-113413Y-41162
X-113500Y-44800
X-109764Y-43263
X-109400Y-40500
X-109200Y-36900
X-106100Y-43500
X-103290Y-43586
X-91900Y-39400
X-86200Y-39600
X-74240Y-40669
X-70992Y-43821
X-68039
X-66891Y-37910
X-69891Y-36510
Y-33010
X-66891Y-31610
X-62091
X-59091Y-33110
Y-36610
X-62091Y-38010
X-60165Y-47165
X-57300Y-47200
X-67055Y-51496
X-70008
X-70008Y-57402
X-67055
X-74339Y-62323
X-74400Y-65100
X-80394Y-66925
X-83300Y-69200
X-83500Y-72900
X-80047Y-75807
X-69100Y-76500
X-66124Y-76248
X-63118
X-60067
X-57016Y-72362
Y-69311
X-49732Y-64784
X-47764Y-57795
Y-54843
X-41200Y-44800
Y-40600
X-37463Y-40709
Y-43760
X-33700Y-42700
X-31300Y-43800
X-37000Y-37000
X-40972Y-36900
X-26412Y-29896
X-23600Y-29900
X-19616Y-39780
X-19648Y-67506
Y-71183
X-19614Y-74826
Y-78469
X-31819Y-80236
X-34870
X-37876
X-40874
X-43236Y-72461
Y-69410
X-30441
Y-72461
X-26521Y-65669
Y-62717
X-30115Y-57441
X-33068
X-18387Y-91260
X-21386Y-101585
X-16000Y-110348
Y-113648
X-27784Y-113209
Y-116509
X-22075Y-127677
X-55244
X-55389Y-114393
X-55500Y-100442
X-57803Y-98150
X-50520Y-99036
Y-96083
X-52368Y-90276
Y-87323
X-45820Y-100523
X-41957Y-105039
Y-107992
X-65236Y-109579
X-65500Y-106048
X-81800Y-106948
X-85100
X-92830Y-107105
X-104012Y-107441
X-115065Y-107091
X-125876Y-107145
X-125768Y-99232
X-123100Y-99200
X-135700Y-107048
X-139000
X-138216Y-118032
X-84476Y-127185
X-76380Y-114091
X-70697Y-91063
X-72862Y-88898
X-84083Y-91063
X-87383
X-69800Y-72700
Y-70000
X-95900Y-31900
X-98690Y-31943
X-106524Y-29646
X-14200Y-39700
X-1996Y-40669
X1055Y-43819
X4008
X5189Y-51496
X2236
X2236Y-57402
X5189
X-1500Y-62500
X-2240Y-64990
X-8492Y-66555
X-9279Y-71083
X-10000Y-74800
X-6600Y-76500
X3272Y-76408
X6120Y-76248
X9126
X12177
X15228Y-72362
Y-69311
X2386Y-69911
X2488Y-72800
X4000Y-97243
Y-100543
X14000Y-100347
Y-97047
X24000Y-96848
Y-100148
X40100Y-99548
X39200Y-92748
X37200Y-90248
X39300Y-87748
X39200Y-82748
X37200Y-80248
X39300Y-77748
X39200Y-72748
X37200Y-70248
X39300Y-67748
X39200Y-62748
X37200Y-60248
X39300Y-57748
X53400
X55400Y-60248
X53300Y-62748
X53400Y-67748
X55400Y-70248
X53300Y-72748
X53400Y-77748
X55400Y-80248
X53300Y-82748
X53400Y-87748
X55400Y-90248
X53300Y-92748
X53978Y-97712
X49500Y-110748
X42500Y-113748
X39500Y-120748
X42500Y-127748
X49500Y-130748
X56500Y-127748
X59500Y-120748
X56500Y-113748
X4328Y-113842
X4303Y-127776
X-6100Y-100900
X-2980Y-97264
X-7751Y-91260
X-11051
X-15087
X24284Y-63602
X14835Y-47264
X11882
X13278Y-36510
Y-33010
X16278Y-31610
X21078
X24078Y-33110
Y-36610
X21078Y-38010
X16278
X32975Y-36437
X33043Y-33386
X32975Y-30335
Y-39587
Y-42748
X36193
X39375
X51806
X55090
X58306Y-42648
X56665Y-40177
X53516Y-40148
X53417Y-29547
X56665
X55090Y-27148
X58306
X51806
X50681Y-22396
X53881
X54981Y-19296
Y-15996
X54081Y-12696
Y-9496
Y-6296
Y-3096
X51481Y-1196
X51100Y3352
X54823Y5217
X47900Y6152
X44500Y3352
X44781Y-1196
X41981Y-2996
Y-6296
Y-9596
X41681Y-12796
X37400Y-11300
X37281Y-14488
X33634Y-10791
Y-7598
X34500Y6052
X37800Y3352
X41240Y5217
X32400Y10152
X32600Y14452
X32900Y19652
X34500Y24908
X37800Y22208
X41165Y24852
X44500Y22208
X47900Y24908
X51083Y22933
X54600Y24908
X51894Y36530
X54239Y44522
X59100Y49452
X49509Y50394
X51266Y57902
X54500Y57953
X59716Y63807
Y67154
Y70500
X54598Y76358
X51252
X41198
X37852
X32748Y70453
Y67106
Y63760
X27060Y67665
X27264Y73303
X22146Y80905
X14075Y79232
X6693Y75397
X7579Y68701
X2657Y66437
X-3150Y64173
X-3347Y68507
X-14567Y69587
X-8169Y79823
X3543Y81595
X12294Y107177
X24677Y108740
X28150Y108858
X31567Y108740
X34913
X38260
X41016Y105984
X42394Y102441
X41114Y98898
X38449Y96260
X35004
X31559
X28213
X24866
Y116260
X28213
X31559
X35004
X38449
X41114Y118898
X42394Y122441
X41016Y125984
X52264Y85630
X41213Y57902
X37866
X36538Y50894
X36153Y36213
X26575Y60236
X19461Y-5236
X16269
X14835Y-10748
X19854Y-14291
X25563
X22709Y-11437
X20150Y-22756
X22906Y-25512
X17394
X8971Y-25854
X5832Y-22954
X2771Y-25854
X-368Y-22954
Y-11454
X2771Y-14354
X5871Y-11454
X8971Y-14354
X25661Y-22756
X28417Y-25512
X32975Y-27148
X36094
X-15600Y-3048
X-14756Y106944
X-16929Y120079
X-19390Y87205
X-21960Y80216
X-22933Y70608
X-30709Y73819
X-33313Y71741
X-35326Y81146
X-50495Y78055
X-50000Y72342
X-56890Y70079
X-58156Y80905
X-71287Y78425
X-70941Y74586
X-73425Y71653
X-67421
X-67619Y64767
X-81205Y67424
X-81488Y71904
X-83329Y80347
X-74311Y83563
X-104200Y83452
X-103895Y89052
X-101161Y91516
X-105762Y93376
X-109362Y93537
X-109724Y100404
X-105886Y101063
X-103425Y98110
X-106200Y78200
X-107658Y72126
X-109186Y62023
X-107193Y60016
X-122388Y59329
X-126079Y59351
X-126077Y52855
X-126100Y49200
X-125100Y44200
X-131200Y44352
X-131213Y48031
X-135000Y48852
X-138700Y49052
X-139200Y45452
X-138210Y26590
X-138160Y22982
X-132100Y25600
X-132338Y30284
X-125875Y28868
X-125882Y25870
X-122200Y24300
X-115730Y22022
X-111961Y21482
X-113465Y14842
X-110423Y12817
X-106102Y2362
X-120945Y8552
X-130000Y-503
X-128866Y-9469
X-124732Y-14291
X-121878Y-11437
X-116169
X-119024Y-14291
X-118925Y-22756
X-121681Y-25512
X-124437Y-22756
X-127193Y-25512
X-135616Y-25854
X-138754Y-22954
X-141816Y-25854
X-144954Y-22954
Y-11454
X-141816Y-14354
X-138716Y-11454
X-135616Y-14354
X-140100Y-1448
X-146500Y-2300
X-153965Y-8189
X-160559Y-22756
Y-26890
X-162500Y23452
X-156870Y27441
X-156280Y31181
X-159883Y58375
X-169400Y60700
X-168138Y50177
X-153211Y65095
X-153380Y77230
X-146587Y71574
X-145378Y84601
X-139141Y79990
X-129755Y80026
X-129781Y74090
X-133478Y74081
X-126111Y74173
X-122382Y74181
X-122461Y66091
X-126088Y66147
X-129791Y65985
X-133468Y65457
X-133500Y84100
X-128886Y91120
X-136717Y93889
X-129308Y102578
X-125000Y99752
X-125007Y106632
X-133900Y112052
X-138885Y113419
X-138887Y109916
X-144213Y110600
X-144226Y106682
X-144200Y103000
X-151063Y103032
X-151060Y106634
X-151063Y110315
X-163493Y111209
X-163500Y107600
X-163200Y114800
X-119000Y122200
X-115800Y120200
X-65650Y110335
X-67000Y46400
X-67148Y32152
X-63148Y35426
X-58248Y35236
X-53839Y36417
X-45770Y30021
X-43159Y26840
X-43112Y23033
X-48327Y25492
X-41339Y32283
X-53937Y16043
X-53546Y6894
X-47785Y8120
X-64570Y12107
X-68996Y16240
X-70048Y22652
X-70044Y26476
X-78148Y35371
X-83048
X-87530Y34176
X-88779Y38189
X-87795Y23720
X-86614Y15354
X-75000Y9941
X-72835Y5512
X-68186Y6315
X-65546Y3746
X-66373Y-11454
X-63273Y-14354
X-69473
X-72612Y-11454
Y-22954
X-69473Y-25854
X-66412Y-22954
X-63273Y-25854
X-52193Y-25414
X-54850Y-22756
X-49535
X-46878Y-25414
X-46681Y-14291
X-43827Y-11437
X-49535
X-52390Y-14291
X-55736Y-10158
X-35531Y-4331
X-24831Y-9567
X-20598Y-10453
X-23200Y-13100
X-24831Y-16654
X-16415Y-23100
X-16071Y-26890
X-31032Y-27677
X-22933Y5413
X-18406Y5512
X-88315Y-22756
Y-26890
X-100815Y-15079
X-130000Y17607
X-139055Y8552
X-114738Y33011
X-110316Y42594
X-122387Y52868
X-88489Y61913
X-175126Y54705
X-185331Y53745
X-187913Y48745
X-191600Y48752
X-181200Y48052
Y44352
X-172799Y44338
X-183700Y31800
X-189480Y31909
X-191700Y30052
X-205807Y33858
X-200492Y40945
X-214700Y43408
X-215276Y30551
X-218329Y30546
X-222629Y36361
X-227400Y28552
X-230800Y26052
X-225000Y23852
X-232147Y9911
X-229637Y-7874
X-238768Y-7702
X-244910Y-7795
X-255047Y-7992
X-256425Y-18524
X-256720Y-22756
X-262232Y-22756
X-259476Y-25512
X-264988
X-267744Y-22756
X-270500Y-25512
X-278923Y-25854
X-282061Y-22954
X-285123Y-25854
X-288261Y-22954
X-291169Y-25906
X-288315Y-14390
X-285461Y-11535
X-282606Y-14390
X-269713Y-14291
X-274500Y1152
X-279400Y1100
X-284900Y2400
X-288600Y2052
X-293681Y3720
X-293600Y26352
X-304100Y24700
X-304500Y18600
X-313000Y19200
Y13252
X-314702Y5512
X-321800Y9352
X-323200Y452
X-323401Y-16183
X-313100Y-29300
X-305047Y-26890
X-305300Y-23500
X-307500Y-7848
X-312800Y31300
X-318000Y35000
X-315200Y44452
X-313128Y49705
X-315100Y53800
X-320700Y55052
X-326701Y57087
X-303217Y54918
X-302640Y70740
X-310610Y70933
X-296071Y75135
X-284575Y94980
X-285226Y101554
X-284636Y106672
X-289496Y113583
X-277200Y111652
X-277500Y115852
X-267275Y111884
X-267137Y103954
X-278557Y99906
X-251581Y96432
X-247600Y96052
X-237911Y102049
X-232976Y102654
X-229200Y102400
X-234200Y107752
X-233943Y112637
X-222152Y112854
X-212600Y113552
Y109752
X-211500Y105852
X-206000Y103500
X-208289Y95017
X-211170Y95052
X-211900Y91252
X-209100Y91400
X-206700Y82952
X-204300Y81500
X-191700Y81852
X-192400Y86652
X-189200Y86541
X-189027Y76018
X-192163Y76006
X-192683Y65666
X-189100Y65500
X-213800Y63600
X-216840Y63595
X-217740Y60046
X-214700Y60052
X-213062Y56461
X-210225Y56483
X-223600Y51252
X-217905Y72046
X-214865Y72052
X-214600Y75852
X-217700
X-218669Y81075
X-191802Y96265
X-188119Y96270
X-189400Y99852
X-192400Y99900
X-192500Y109474
X-183609Y107628
X-183600Y111400
X-182700Y102752
X-173600Y106952
X-173749Y111198
X-173115Y126063
X-194370Y123602
X-296300Y124533
X-304100
X-303600Y120833
X-306128Y39400
X-294600Y40052
X-265000Y59352
X-260100Y60400
X-249043Y-17146
X-246083Y-28799
X-232803Y-26890
X-232894Y-23051
X-217100Y-22954
X-213961Y-25854
X-210900Y-22954
X-207761Y-25854
X-199339Y-25512
X-193827
X-196583Y-22756
X-191071
X-191169Y-14291
X-196878
X-194024Y-11437
X-188315
X-201046Y-9700
X-207761Y-14354
X-210861Y-11454
X-213961Y-14354
X-217100Y-11454
X-175216Y-28602
X-332456Y-25238
X-341511Y-16183
X-332456Y-7127
X-331130Y545
X-335700Y52
X-330200Y14900
X-332705Y36398
X-331425Y58760
X-335700Y57652
X-340382Y62086
X-335148Y71078
X-335034Y79504
X-335178Y88683
X-335251Y98078
Y107113
X-335166Y115885
X-335230Y124457
X-340700Y130452
X-334724Y137677
X-336422Y159434
X-341000Y178152
X-340300Y193152
Y197452
X-335094Y201334
X-334861Y229935
X-330500Y244252
X-337500Y247252
X-340500Y254252
X-337500Y261252
X-330500Y264252
X-323500Y261252
X-320500Y254252
X-323500Y247252
X-325500Y232952
X-308054Y236499
X-299900Y233752
X-297800Y220352
X-303900Y221652
X-312750Y214402
X-316775Y212075
X-313600Y200278
X-308600Y183807
X-322484Y182602
X-317655Y174752
X-317732Y156929
X-316987Y151236
X-327461Y148164
X-327501Y142081
X-322913Y139350
X-317539Y137238
X-320342Y132255
X-312028Y132320
X-310452Y138893
X-304358Y134576
X-303900Y128233
X-298847Y140039
X-297370Y144862
X-293151Y145631
X-286449Y152432
X-280400Y150752
X-280700Y146952
X-284200Y140852
X-285020Y164744
X-284636Y168585
X-282987Y172145
X-277771Y170403
X-273951Y170320
X-263057Y170861
X-250224Y171535
X-251400Y164152
X-234626Y158248
X-226464Y152737
X-222769Y153039
X-220062Y159237
X-226457Y164350
X-219056Y170757
X-211684Y164465
X-206968Y161337
X-211755Y155489
X-216935Y148812
X-215627Y140538
X-217927Y138738
Y135838
X-215527Y134138
X-209400Y134152
X-207100Y135952
Y138852
X-209500Y140552
X-200276Y135807
X-196572Y135807
X-200223Y128779
X-199882Y146437
X-195650Y149980
X-187336Y146801
X-187700Y140652
X-179594Y139612
X-179906Y136103
X-180202Y132067
X-180933Y147047
X-182202Y151099
X-175224Y151969
X-175400Y145652
X-172476Y161199
X-172496Y164679
X-172515Y168278
X-176876Y164388
X-194969Y164599
X-205452Y175919
X-204791Y189547
X-207744
X-210697
X-213650
X-216602
X-213600Y193952
X-208300Y193852
X-200866Y189547
X-191169Y188760
X-185080Y193352
X-181280Y193252
X-181099Y186235
X-179513Y182660
X-181069Y179082
X-184730Y179117
X-181380Y206252
X-186450Y220152
X-190700Y233952
X-190800Y245452
X-190900Y249352
X-190700Y253452
X-187705Y261411
X-207500Y261165
X-204100Y253252
Y249352
Y245552
X-203700Y234152
X-220800Y232952
X-221700Y226652
X-221800Y217952
X-226550Y220152
X-221800Y208852
X-224969Y203327
X-228020Y190827
X-221502Y185849
X-241024Y189449
X-245047Y189547
X-248000
X-250953
X-253906
X-256852Y189563
X-253500Y193952
X-248600Y194052
X-261494Y185903
X-270341Y184726
X-269400Y181056
X-268177Y190728
X-280850Y189216
X-285300Y189452
X-289300
X-293300
X-297300
X-298291Y193992
X-293300Y193952
X-288400
X-294746Y181435
X-293706Y171686
X-293851Y167741
X-293903Y163900
X-293925Y159921
X-299545Y174752
X-308600Y165697
X-305332Y149173
X-327736Y154311
X-326600Y129252
X-268801Y154429
X-268843Y158603
X-282593Y180051
X-265323Y203228
X-261900Y208852
Y217952
X-266400Y220152
X-261600Y226452
X-260300Y233152
X-270077Y235349
X-270800Y245452
X-270900Y249352
X-270700Y253452
X-268191Y260623
X-287495Y261089
X-284100Y253252
Y249352
Y245552
X-283946Y235261
X-243700Y234152
X-244100Y245552
Y249352
Y253252
X-247784Y260963
X-227612Y260849
X-230700Y253452
X-230900Y249352
X-230800Y245452
X-230700Y233952
X-226464Y143682
X-222826Y143574
X-226915Y140078
X-222419Y128874
X-312235Y260059
X-167347Y261130
X-164100Y253252
Y249352
Y245552
X-150800Y245452
X-150900Y249352
X-150700Y253452
X-147114Y260915
X-127495
X-109001Y260517
X-89941Y260709
X-94561Y250472
Y240241
X-94862Y230295
X-93976Y226358
X-91024
X-87008Y227264
X-84969Y217598
X-90900Y214352
X-87600Y210583
Y205676
X-91122Y204311
X-100472Y204409
X-100500Y214252
X-110500
X-120500
X-130500
X-139700
X-141700Y224452
X-141300Y231052
X-130500Y224252
X-120700Y224452
X-120223Y233829
X-97100Y223752
X-77980Y210610
X-79358Y203524
X-84800Y198452
X-86117Y188762
X-81700Y190452
X-79260Y185890
X-77784Y193976
X-68090Y189252
X-71732Y176063
Y172815
X-75276
X-75177Y175866
X-77146Y168422
X-70157Y166319
Y162874
X-70181Y159063
X-81000Y157752
Y160852
X-83700Y162400
X-83800Y159252
X-83700Y156400
X-83200Y152652
X-85413Y148110
X-94961Y142303
X-100126Y144468
X-104457
Y140138
X-100126
X-100178Y130787
X-95500Y131053
X-95354Y134724
X-104312Y132559
X-107757Y134331
X-109900Y142505
X-114600Y148852
X-120356Y155198
X-132225Y154128
X-136005Y154107
X-143000Y150652
X-149596Y156127
X-154622Y156047
X-159638Y156077
X-164575Y156077
X-169600Y156052
X-157114Y165335
X-146732Y167894
X-142976Y167428
X-142992Y163760
X-142897Y172719
X-134134Y164347
X-133600Y181352
Y184252
Y187152
X-128000Y185852
X-127520Y181352
X-124480
X-121440
X-118400
X-122800Y185852
X-130560Y181352
X-135500Y194252
X-135600Y199452
X-135500Y204252
X-140800Y200852
X-145755Y200915
X-152322Y212292
X-166081Y207653
X-171637Y208515
X-170300Y217952
X-110500Y204252
X-110612Y194275
X-105600Y192452
X-100500Y194252
X-91900Y192552
X-89842Y185807
X-100866Y182461
X-99000Y167352
X-93779Y168976
X-90039Y168681
X-86200Y168552
X-93300Y162352
X-93100Y159352
X-95354Y158150
X-96000Y160852
X-98341Y153959
X-103525Y154017
X-106379Y156281
X-108984Y162776
X-115829Y167305
X-112757Y188134
X-124200Y138600
X-127600Y140700
X-131400Y140900
X-129600Y137200
X-134100Y137900
X-136227Y134357
X-140000Y134352
X-140043Y137229
X-143700Y133452
Y130352
X-149652Y127900
X-155791Y133839
X-160883Y130244
X-159800Y141400
X-71400Y142452
Y146452
X-71386Y138091
X-60200Y138352
Y142552
X-53965Y141535
X-54200Y148952
X-59500Y152852
X-59600Y161352
X-55300Y158252
X-55000Y164449
X-50571Y174882
X-47323Y174980
X-44075Y174882
X-41614Y168386
X-39890Y162677
X-41169Y151705
Y148457
Y145110
X-39201Y141961
X-33984Y140386
X-27587Y140484
X-20598
X-27200Y157252
X-26558Y163094
X-31151Y176153
X-33984Y193386
X-27587Y193484
X-20598
X-39201Y194961
X-39055Y190138
X-45158Y187185
X-48209Y187087
X-51358Y186890
X-55441Y200177
Y203327
Y214547
Y217697
X-52193
Y214547
X-45374Y206988
X-41169Y207953
Y204705
Y201457
Y198110
X-40532Y260315
X-71732Y260512
X-8543Y260906
X5531Y258445
X6713Y250472
X12918Y246147
X16816Y247344
X18913Y252047
X22913
X22879Y262496
X18879
X12979
X14736Y238268
X10898
X7158
X20248
X23988
X27827
X32205Y230591
X35256
X38307
X46158Y234315
X50610Y230098
X44902Y222520
X41016Y205984
X42394Y202441
X41114Y198898
X38449Y196260
X35004
X31559
X28213
X24866
X20187Y198110
Y201358
Y204705
Y207953
X24677Y208740
X28122
X31567
X34913
X38260
X27728Y217992
X23988
X20150
X14638
X10898
X7059
X-7457Y207953
Y204708
Y201460
Y198114
X-5601Y194961
X-384Y193386
X6013Y193484
X13002
X18021Y195256
X24677Y188740
X28122
X31567
X34913
X38260
X41016Y185984
X42394Y182441
X47128Y182389
X41114Y178898
X38449Y176260
X35004
X31559
X28213
X24866
X24677Y168740
X28122
X31567
X34913
X38260
X41016Y165984
X42394Y162441
X41114Y158898
X38449Y156260
X35004
X31559
X28213
X24866
X18000Y156952
X14500Y158752
X9800
X6400Y156052
X2800Y158752
X-2000Y158652
X-6000Y156552
X-13413Y151705
Y148358
Y145110
X-15579Y142256
X6200Y142452
X12768Y135216
X24866Y136260
X28213
X31559
X35004
X38449
X41114Y138898
X42394Y142441
X41016Y145984
X38260Y148740
X34913
X31567
X28122
X24677
Y128740
X28122
X31567
X34913
X38260
X56862Y134724
X13162Y169698
X422Y163063
X-8589Y176130
X-15433Y190433
X-15579Y195256
X-13413Y198110
Y201358
Y204705
Y207953
X42500Y247252
X49500Y244252
X56500Y247252
X59500Y254252
X56500Y261252
X49500Y264252
X42500Y261252
X39500Y254252
T03
X-11024Y10138
X-1024
X8976
Y20138
X-1024
X-11024
X-21024
Y10138
X-31024
Y20138
X-155400Y14852
Y4852
X-165400
Y14852
X-175400
Y4852
X-185400
Y14852
X-195400
Y4852
X-205400
Y14852
X-215400
Y4852
X-225400
Y14852
X-235400
Y4852
X-245400
Y14852
X-255400
Y4852
X-265400
Y14852
X-265200Y34552
X-255200
X-245200
X-235200
Y44552
X-245200
X-255200
X-265200
X-275200
Y34552
Y72046
X-265200
X-255200
X-245200
X-235200
Y82046
X-245200
X-255200
X-265200
X-275200
X-171700Y184552
Y194552
X-161700
Y184552
X-151700
Y194552
X-141700
Y184552
T04
X-309800Y89252
X-301900
Y99173
X-309800
T05
X-300000Y-121248
X-290000
X-280000
X-270000
X-240000
X-230000
X-220000
X-210000
X-180500
X-170500
X-160500
X-150500
X-129500
X-119500
X-109500
X-99500
X-70500
X-60500
X-50500
X-40500
X-11000
X-1000
X9000
X19000
X46300Y-90248
Y-80248
Y-70248
Y-60248
X20300Y50552
X10300
X-11000
X-7700Y95152
X2300
X12300
Y119152
X2300
X-7700
X-28750
X-38750
X-48750
X-69800
X-79800
X-89800
Y95152
X-79800
X-69800
X-48750
X-38750
X-28750
X-21000Y50552
X-42500
X-52500
X-74200
X-84200
X-336900Y168852
Y186652
X-333100Y218752
X-323100
T06
X31563Y102500
Y122500
X-177500Y249452
X-197500
X-217500
X-237500
X-257500
X-277500
X-297500
X-157500
X-137500
X-117500
X31563Y202500
Y182500
Y162500
Y142500
T07
X-327100Y163952
Y191552
T08
X39532Y14130
X52932
Y67130
X39532
X-20600Y149652
X-34000
Y202652
X-20600
X-400
X13000
Y149652
X-400
T09
X-320500Y70552
Y117874
T10
X-330500Y-120748
X49500
X-330500Y254252
X49500
T11
X-130000Y8552
X-332456Y-16183
X-308600Y174752
M30
