G04*
G04 #@! TF.GenerationSoftware,Altium Limited,Altium Designer,18.1.9 (240)*
G04*
G04 Layer_Color=32896*
%FSLAX25Y25*%
%MOIN*%
G70*
G01*
G75*
%ADD12C,0.00600*%
%ADD15C,0.00400*%
%ADD17C,0.00800*%
%ADD21C,0.00500*%
%ADD30C,0.00200*%
%ADD32C,0.00700*%
G54D12*
X61579Y221563D02*
X61286Y222270D01*
X60579Y222563D01*
Y209563D02*
X61286Y209856D01*
X61579Y210563D01*
X53579D02*
X53872Y209856D01*
X54579Y209563D01*
Y222563D02*
X53872Y222270D01*
X53579Y221563D01*
X62512Y245063D02*
X61805Y244770D01*
X61512Y244063D01*
X74512D02*
X74219Y244770D01*
X73512Y245063D01*
Y237063D02*
X74219Y237356D01*
X74512Y238063D01*
X61512D02*
X61805Y237356D01*
X62512Y237063D01*
X53579Y210563D02*
Y221563D01*
X54579Y222563D02*
X60579D01*
X54579Y209563D02*
X60579D01*
X61579Y210563D02*
Y221563D01*
X62512Y237063D02*
X73512D01*
X61512Y238063D02*
Y244063D01*
X74512Y238063D02*
Y244063D01*
X62512Y245063D02*
X73512D01*
X296161Y54724D02*
Y61811D01*
X293504Y64468D02*
X296161Y61811D01*
X293504Y64468D02*
Y96653D01*
X218898Y66142D02*
X233465Y51575D01*
X218898Y66142D02*
Y95472D01*
X151969Y52362D02*
Y60925D01*
X147441Y65453D02*
X151969Y60925D01*
X147441Y65453D02*
Y94882D01*
X82284Y57874D02*
Y68701D01*
X77362Y73622D02*
X82284Y68701D01*
X77362Y73622D02*
Y75886D01*
Y94980D01*
X378678Y77151D02*
X380677D01*
Y75652D01*
X379677Y76151D01*
X379177D01*
X378678Y75652D01*
Y74652D01*
X379177Y74152D01*
X380177D01*
X380677Y74652D01*
X377678Y77151D02*
Y75152D01*
X376678Y74152D01*
X375678Y75152D01*
Y77151D01*
X268501Y315913D02*
X270500D01*
Y314413D01*
X269500Y314913D01*
X269001D01*
X268501Y314413D01*
Y313413D01*
X269001Y312913D01*
X270000D01*
X270500Y313413D01*
X267501Y315913D02*
Y313913D01*
X266501Y312913D01*
X265502Y313913D01*
Y315913D01*
X368205Y137468D02*
X370205D01*
Y135968D01*
X369205Y136468D01*
X368705D01*
X368205Y135968D01*
Y134968D01*
X368705Y134469D01*
X369705D01*
X370205Y134968D01*
X367206Y137468D02*
Y135468D01*
X366206Y134469D01*
X365206Y135468D01*
Y137468D01*
X346038Y128791D02*
Y126791D01*
X343039D01*
Y128791D01*
X344539Y126791D02*
Y127791D01*
X343039Y129790D02*
X346038D01*
Y131290D01*
X345539Y131790D01*
X344539D01*
X344039Y131290D01*
Y129790D01*
Y130790D02*
X343039Y131790D01*
Y132790D02*
X345039D01*
X346038Y133789D01*
X345039Y134789D01*
X343039D01*
X344539D01*
Y132790D01*
X345539Y137788D02*
X346038Y137288D01*
Y136288D01*
X345539Y135789D01*
X345039D01*
X344539Y136288D01*
Y137288D01*
X344039Y137788D01*
X343539D01*
X343039Y137288D01*
Y136288D01*
X343539Y135789D01*
X346038Y140787D02*
Y138787D01*
X343039D01*
Y140787D01*
X344539Y138787D02*
Y139787D01*
X315519Y135385D02*
X316019Y134885D01*
Y133886D01*
X315519Y133386D01*
X313520D01*
X313020Y133886D01*
Y134885D01*
X313520Y135385D01*
X314519D01*
Y134386D01*
X313020Y136385D02*
X316019D01*
X313020Y138384D01*
X316019D01*
Y139384D02*
X313020D01*
Y140884D01*
X313520Y141383D01*
X315519D01*
X316019Y140884D01*
Y139384D01*
X335302Y131024D02*
X335802Y131524D01*
Y132523D01*
X335302Y133023D01*
X334803D01*
X334303Y132523D01*
Y132023D01*
Y132523D01*
X333803Y133023D01*
X333303D01*
X332803Y132523D01*
Y131524D01*
X333303Y131024D01*
X332803Y134023D02*
X333303D01*
Y134523D01*
X332803D01*
Y134023D01*
X335302Y136522D02*
X335802Y137022D01*
Y138021D01*
X335302Y138521D01*
X334803D01*
X334303Y138021D01*
Y137522D01*
Y138021D01*
X333803Y138521D01*
X333303D01*
X332803Y138021D01*
Y137022D01*
X333303Y136522D01*
X335802Y139521D02*
X333803D01*
X332803Y140521D01*
X333803Y141520D01*
X335802D01*
X325763Y136665D02*
Y134665D01*
X324263D01*
X324763Y135665D01*
Y136165D01*
X324263Y136665D01*
X323264D01*
X322764Y136165D01*
Y135165D01*
X323264Y134665D01*
X325763Y137664D02*
X323763D01*
X322764Y138664D01*
X323763Y139664D01*
X325763D01*
X401575Y243701D02*
X405574D01*
X404241Y245034D01*
X405574Y246367D01*
X401575D01*
X405574Y249699D02*
Y248366D01*
X404907Y247699D01*
X402241D01*
X401575Y248366D01*
Y249699D01*
X402241Y250365D01*
X404907D01*
X405574Y249699D01*
Y251698D02*
Y254364D01*
Y253031D01*
X401575D01*
X404589Y285244D02*
Y282579D01*
X402590D01*
Y283912D01*
Y282579D01*
X400591D01*
X404589Y289243D02*
Y286577D01*
X400591D01*
Y289243D01*
X402590Y286577D02*
Y287910D01*
X404589Y290576D02*
Y293242D01*
Y291909D01*
X400591D01*
X405278Y322736D02*
X401279D01*
Y324736D01*
X401946Y325402D01*
X402612D01*
X403279Y324736D01*
Y322736D01*
Y324736D01*
X403945Y325402D01*
X404612D01*
X405278Y324736D01*
Y322736D01*
Y329401D02*
Y326735D01*
X401279D01*
Y329401D01*
X403279Y326735D02*
Y328068D01*
X405278Y330734D02*
X401279D01*
Y332733D01*
X401946Y333399D01*
X404612D01*
X405278Y332733D01*
Y330734D01*
X398228Y318436D02*
X395563D01*
X396895Y319769D02*
Y317104D01*
X398327Y278181D02*
X395661D01*
X396994Y279513D02*
Y276848D01*
X399410Y238023D02*
X396744D01*
X398077Y239356D02*
Y236690D01*
X398228Y257905D02*
X395563D01*
X398917Y297964D02*
X396252D01*
X399213Y338220D02*
X396547D01*
X332803Y160453D02*
X334803D01*
Y161952D01*
X334303Y162452D01*
X332803D01*
Y163452D02*
X335802D01*
Y164951D01*
X335302Y165451D01*
X334303D01*
X333803Y164951D01*
Y163452D01*
Y164452D02*
X332803Y165451D01*
X335302Y168450D02*
X335802Y167950D01*
Y166951D01*
X335302Y166451D01*
X334803D01*
X334303Y166951D01*
Y167950D01*
X333803Y168450D01*
X333303D01*
X332803Y167950D01*
Y166951D01*
X333303Y166451D01*
X335802Y169450D02*
Y171449D01*
Y170450D01*
X332803D01*
X329947Y277135D02*
Y275136D01*
X328947Y274136D01*
X327948Y275136D01*
Y277135D01*
X326948D02*
X325948D01*
X326448D01*
Y274136D01*
X326948D01*
X325948D01*
X324449D02*
Y277135D01*
X322449Y274136D01*
Y277135D01*
X316451D02*
X318451D01*
Y275636D01*
X317451D01*
X318451D01*
Y274136D01*
X313452Y277135D02*
X315452D01*
Y274136D01*
X313452D01*
X315452Y275636D02*
X314452D01*
X312453Y277135D02*
X310453D01*
X311453D01*
Y274136D01*
X309454D02*
X307954D01*
X307454Y274636D01*
X307954Y275136D01*
X308954D01*
X309454Y275636D01*
X308954Y276136D01*
X307454D01*
X362108Y276054D02*
Y274054D01*
X361109Y273054D01*
X360109Y274054D01*
Y276054D01*
X359109D02*
X358110D01*
X358610D01*
Y273054D01*
X359109D01*
X358110D01*
X356610D02*
Y276054D01*
X354611Y273054D01*
Y276054D01*
X350612D02*
Y273054D01*
X349113D01*
X348613Y273554D01*
Y274054D01*
X349113Y274554D01*
X350612D01*
X349113D01*
X348613Y275054D01*
Y275554D01*
X349113Y276054D01*
X350612D01*
X345614D02*
X347613D01*
Y273054D01*
X345614D01*
X347613Y274554D02*
X346613D01*
X344614Y276054D02*
Y273054D01*
X343114D01*
X342615Y273554D01*
Y275554D01*
X343114Y276054D01*
X344614D01*
X378797Y66790D02*
X379297Y67290D01*
X380297D01*
X380797Y66790D01*
Y64791D01*
X380297Y64291D01*
X379297D01*
X378797Y64791D01*
Y65790D01*
X379797D01*
X377798Y64291D02*
Y67290D01*
X375798Y64291D01*
Y67290D01*
X374799D02*
Y64291D01*
X373299D01*
X372799Y64791D01*
Y66790D01*
X373299Y67290D01*
X374799D01*
X396524Y324842D02*
X397024Y325342D01*
X398024D01*
X398524Y324842D01*
Y322842D01*
X398024Y322342D01*
X397024D01*
X396524Y322842D01*
Y323842D01*
X397524D01*
X395525Y322342D02*
Y325342D01*
X393525Y322342D01*
Y325342D01*
X392526D02*
Y322342D01*
X391026D01*
X390526Y322842D01*
Y324842D01*
X391026Y325342D01*
X392526D01*
X284575Y265913D02*
X282575Y262913D01*
Y265913D02*
X284575Y262913D01*
X281576Y264413D02*
X279576D01*
X278577Y262913D02*
Y265913D01*
X277577Y264913D01*
X276577Y265913D01*
Y262913D01*
X275578Y265913D02*
X274578D01*
X275078D01*
Y262913D01*
X275578D01*
X274578D01*
X273078D02*
Y265913D01*
X271079Y262913D01*
Y265913D01*
X74500Y399999D02*
Y398000D01*
X73500Y397000D01*
X72501Y398000D01*
Y399999D01*
X71501D02*
Y397000D01*
Y398499D01*
X69502D01*
Y399999D01*
Y397000D01*
X66503Y399999D02*
X68502D01*
Y397000D01*
X66503D01*
X68502Y398499D02*
X67502D01*
X65503Y397000D02*
Y398999D01*
X64503Y399999D01*
X63504Y398999D01*
Y397000D01*
Y398499D01*
X65503D01*
X62504Y399999D02*
X60505D01*
X61504D01*
Y397000D01*
X315723Y160453D02*
X313224D01*
X312724Y160953D01*
Y161952D01*
X313224Y162452D01*
X315723D01*
Y163452D02*
Y165451D01*
Y164452D01*
X312724D01*
X315723Y166451D02*
X312724Y168450D01*
X315723D02*
X312724Y166451D01*
X315723Y169450D02*
X312724D01*
Y170949D01*
X313224Y171449D01*
X315224D01*
X315723Y170949D01*
Y169450D01*
X380970Y56769D02*
Y54769D01*
X379970Y53770D01*
X378970Y54769D01*
Y56769D01*
X377971Y53770D02*
Y56769D01*
X376971Y55769D01*
X375971Y56769D01*
Y53770D01*
X373472Y56769D02*
X374472D01*
X374972Y56269D01*
Y54269D01*
X374472Y53770D01*
X373472D01*
X372972Y54269D01*
Y56269D01*
X373472Y56769D01*
X371973D02*
X369973D01*
X370973D01*
Y53770D01*
X114500Y399599D02*
Y397600D01*
X113500Y396600D01*
X112501Y397600D01*
Y399599D01*
X111501D02*
Y396600D01*
Y398099D01*
X109502D01*
Y399599D01*
Y396600D01*
X106503Y399599D02*
X108502D01*
Y396600D01*
X106503D01*
X108502Y398099D02*
X107502D01*
X105503Y396600D02*
Y398599D01*
X104503Y399599D01*
X103504Y398599D01*
Y396600D01*
Y398099D01*
X105503D01*
X102504Y399599D02*
X100505D01*
X101504D01*
Y396600D01*
X234000Y400199D02*
Y398200D01*
X233000Y397200D01*
X232001Y398200D01*
Y400199D01*
X231001D02*
Y397200D01*
X229502D01*
X229002Y397700D01*
Y398200D01*
X229502Y398699D01*
X231001D01*
X229502D01*
X229002Y399199D01*
Y399699D01*
X229502Y400199D01*
X231001D01*
X226003D02*
X228002D01*
Y397200D01*
X226003D01*
X228002Y398699D02*
X227002D01*
X225003Y400199D02*
Y397200D01*
X223503D01*
X223004Y397700D01*
Y399699D01*
X223503Y400199D01*
X225003D01*
X195200D02*
Y398200D01*
X194200Y397200D01*
X193201Y398200D01*
Y400199D01*
X192201D02*
Y397200D01*
Y398699D01*
X190202D01*
Y400199D01*
Y397200D01*
X187203Y400199D02*
X189202D01*
Y397200D01*
X187203D01*
X189202Y398699D02*
X188202D01*
X186203Y397200D02*
Y399199D01*
X185203Y400199D01*
X184204Y399199D01*
Y397200D01*
Y398699D01*
X186203D01*
X183204Y400199D02*
X181204D01*
X182204D01*
Y397200D01*
X154500Y399999D02*
Y398000D01*
X153500Y397000D01*
X152501Y398000D01*
Y399999D01*
X151501D02*
Y397000D01*
Y398499D01*
X149502D01*
Y399999D01*
Y397000D01*
X146503Y399999D02*
X148502D01*
Y397000D01*
X146503D01*
X148502Y398499D02*
X147502D01*
X145503Y397000D02*
Y398999D01*
X144503Y399999D01*
X143504Y398999D01*
Y397000D01*
Y398499D01*
X145503D01*
X142504Y399999D02*
X140505D01*
X141504D01*
Y397000D01*
X326000Y327299D02*
Y325300D01*
X325000Y324300D01*
X324001Y325300D01*
Y327299D01*
X323001D02*
Y324300D01*
Y325799D01*
X321002D01*
Y327299D01*
Y324300D01*
X318003Y327299D02*
X320002D01*
Y324300D01*
X318003D01*
X320002Y325799D02*
X319002D01*
X317003Y324300D02*
Y326299D01*
X316003Y327299D01*
X315004Y326299D01*
Y324300D01*
Y325799D01*
X317003D01*
X314004Y327299D02*
X312004D01*
X313004D01*
Y324300D01*
X317401Y372899D02*
X317900Y373399D01*
X318900D01*
X319400Y372899D01*
Y370900D01*
X318900Y370400D01*
X317900D01*
X317401Y370900D01*
Y371900D01*
X318400D01*
X316401Y370400D02*
Y373399D01*
X314402Y370400D01*
Y373399D01*
X313402D02*
Y370400D01*
X311902D01*
X311403Y370900D01*
Y372899D01*
X311902Y373399D01*
X313402D01*
X377064Y174672D02*
X379063D01*
Y173173D01*
X378063D01*
X379063D01*
Y171673D01*
X374065Y174172D02*
X374564Y174672D01*
X375564D01*
X376064Y174172D01*
Y172173D01*
X375564Y171673D01*
X374564D01*
X374065Y172173D01*
Y173173D01*
X375064D01*
X373065Y171673D02*
Y174672D01*
X371066Y171673D01*
Y174672D01*
X370066D02*
Y171673D01*
X368566D01*
X368067Y172173D01*
Y174172D01*
X368566Y174672D01*
X370066D01*
X378797Y46621D02*
X379297Y47121D01*
X380297D01*
X380797Y46621D01*
Y44622D01*
X380297Y44122D01*
X379297D01*
X378797Y44622D01*
Y45621D01*
X379797D01*
X377798Y44122D02*
Y47121D01*
X375798Y44122D01*
Y47121D01*
X374799D02*
Y44122D01*
X373299D01*
X372799Y44622D01*
Y46621D01*
X373299Y47121D01*
X374799D01*
X345546Y162846D02*
Y160846D01*
X344047D01*
X344547Y161846D01*
Y162346D01*
X344047Y162846D01*
X343047D01*
X342547Y162346D01*
Y161346D01*
X343047Y160846D01*
X345546Y163846D02*
X343547D01*
X342547Y164845D01*
X343547Y165845D01*
X345546D01*
X395245Y291869D02*
X395745Y292369D01*
X396744D01*
X397244Y291869D01*
Y289870D01*
X396744Y289370D01*
X395745D01*
X395245Y289870D01*
Y290870D01*
X396244D01*
X394245Y289370D02*
Y292369D01*
X392246Y289370D01*
Y292369D01*
X391246D02*
Y289370D01*
X389746D01*
X389247Y289870D01*
Y291869D01*
X389746Y292369D01*
X391246D01*
X312473Y265937D02*
Y265437D01*
X311473Y264437D01*
X310474Y265437D01*
Y265937D01*
X311473Y264437D02*
Y262938D01*
X309474Y264437D02*
X307475D01*
X306475Y262938D02*
Y265937D01*
X305475Y264937D01*
X304475Y265937D01*
Y262938D01*
X303476Y265937D02*
X302476D01*
X302976D01*
Y262938D01*
X303476D01*
X302476D01*
X300977D02*
Y265937D01*
X298977Y262938D01*
Y265937D01*
X314567Y223471D02*
Y222972D01*
X313567Y221972D01*
X312568Y222972D01*
Y223471D01*
X313567Y221972D02*
Y220472D01*
X311568Y221972D02*
X309569D01*
X308569Y220472D02*
Y223471D01*
X307569Y222472D01*
X306570Y223471D01*
Y220472D01*
X305570D02*
Y222472D01*
X304570Y223471D01*
X303571Y222472D01*
Y220472D01*
Y221972D01*
X305570D01*
X302571Y223471D02*
X300571Y220472D01*
Y223471D02*
X302571Y220472D01*
X354047Y266051D02*
X352048D01*
Y265551D01*
X354047Y263551D01*
Y263052D01*
X352048D01*
X351048Y264551D02*
X349049D01*
X348049Y263052D02*
Y266051D01*
X347050Y265051D01*
X346050Y266051D01*
Y263052D01*
X345050Y266051D02*
X344051D01*
X344550D01*
Y263052D01*
X345050D01*
X344051D01*
X342551D02*
Y266051D01*
X340552Y263052D01*
Y266051D01*
X273104Y222599D02*
X271105Y219600D01*
Y222599D02*
X273104Y219600D01*
X270105Y221100D02*
X268106D01*
X267106Y219600D02*
Y222599D01*
X266106Y221599D01*
X265107Y222599D01*
Y219600D01*
X264107D02*
Y221599D01*
X263107Y222599D01*
X262107Y221599D01*
Y219600D01*
Y221100D01*
X264107D01*
X261108Y222599D02*
X259108Y219600D01*
Y222599D02*
X261108Y219600D01*
X247558Y29877D02*
Y31877D01*
X247059D01*
X245059Y29877D01*
X244559D01*
Y31877D01*
X246059Y32876D02*
Y34876D01*
X247558Y35875D02*
X244559D01*
Y37375D01*
X245059Y37875D01*
X245559D01*
X246059Y37375D01*
Y35875D01*
Y37375D01*
X246559Y37875D01*
X247059D01*
X247558Y37375D01*
Y35875D01*
X244559Y40874D02*
Y38875D01*
X246559Y40874D01*
X247059D01*
X247558Y40374D01*
Y39374D01*
X247059Y38875D01*
X237130Y29656D02*
Y31655D01*
X236630D01*
X234631Y29656D01*
X234131D01*
Y31655D01*
X235630Y32655D02*
Y34654D01*
X237130Y35654D02*
X234131D01*
Y37153D01*
X234631Y37653D01*
X235131D01*
X235630Y37153D01*
Y35654D01*
Y37153D01*
X236130Y37653D01*
X236630D01*
X237130Y37153D01*
Y35654D01*
X234131Y38653D02*
Y39652D01*
Y39152D01*
X237130D01*
X236630Y38653D01*
X227515Y22185D02*
Y24185D01*
X227015D01*
X225016Y22185D01*
X224516D01*
Y24185D01*
X226016Y25185D02*
Y27184D01*
X224516Y28184D02*
X226516D01*
X227515Y29183D01*
X226516Y30183D01*
X224516D01*
X226016D01*
Y28184D01*
X224516Y33182D02*
Y31183D01*
X226516Y33182D01*
X227015D01*
X227515Y32682D01*
Y31682D01*
X227015Y31183D01*
X217457Y22038D02*
Y24037D01*
X216957D01*
X214957Y22038D01*
X214458D01*
Y24037D01*
X215957Y25037D02*
Y27036D01*
X214458Y28036D02*
X216457D01*
X217457Y29035D01*
X216457Y30035D01*
X214458D01*
X215957D01*
Y28036D01*
X214458Y31035D02*
Y32034D01*
Y31534D01*
X217457D01*
X216957Y31035D01*
X276571Y31498D02*
Y29499D01*
X273572D01*
Y31498D01*
X275071Y29499D02*
Y30499D01*
X273572Y32498D02*
Y33498D01*
Y32998D01*
X276571D01*
X276071Y32498D01*
X275071Y34997D02*
Y36996D01*
X273572Y37996D02*
X275571D01*
X276571Y38996D01*
X275571Y39996D01*
X273572D01*
X275071D01*
Y37996D01*
X273572Y40995D02*
Y41995D01*
Y41495D01*
X276571D01*
X276071Y40995D01*
X286482Y31604D02*
Y29604D01*
X283483D01*
Y31604D01*
X284982Y29604D02*
Y30604D01*
X283483Y32603D02*
Y33603D01*
Y33103D01*
X286482D01*
X285982Y32603D01*
X284982Y35102D02*
Y37102D01*
X283483Y38102D02*
X285482D01*
X286482Y39101D01*
X285482Y40101D01*
X283483D01*
X284982D01*
Y38102D01*
X283483Y43100D02*
Y41101D01*
X285482Y43100D01*
X285982D01*
X286482Y42600D01*
Y41600D01*
X285982Y41101D01*
X295251Y32334D02*
Y30335D01*
X292252D01*
Y32334D01*
X293752Y30335D02*
Y31334D01*
X292252Y33334D02*
Y34333D01*
Y33834D01*
X295251D01*
X294751Y33334D01*
X293752Y35833D02*
Y37832D01*
X295251Y38832D02*
X292252D01*
Y40332D01*
X292752Y40831D01*
X293252D01*
X293752Y40332D01*
Y38832D01*
Y40332D01*
X294251Y40831D01*
X294751D01*
X295251Y40332D01*
Y38832D01*
X292252Y41831D02*
Y42831D01*
Y42331D01*
X295251D01*
X294751Y41831D01*
X306668Y31645D02*
Y29646D01*
X303669D01*
Y31645D01*
X305169Y29646D02*
Y30645D01*
X303669Y32645D02*
Y33645D01*
Y33145D01*
X306668D01*
X306169Y32645D01*
X305169Y35144D02*
Y37143D01*
X306668Y38143D02*
X303669D01*
Y39643D01*
X304169Y40142D01*
X304669D01*
X305169Y39643D01*
Y38143D01*
Y39643D01*
X305669Y40142D01*
X306169D01*
X306668Y39643D01*
Y38143D01*
X303669Y43141D02*
Y41142D01*
X305669Y43141D01*
X306169D01*
X306668Y42641D01*
Y41642D01*
X306169Y41142D01*
X335887Y31689D02*
Y29689D01*
X332888D01*
Y31689D01*
X334388Y29689D02*
Y30689D01*
X332888Y34688D02*
Y32689D01*
X334887Y34688D01*
X335387D01*
X335887Y34188D01*
Y33188D01*
X335387Y32689D01*
X334388Y35688D02*
Y37687D01*
X332888Y38687D02*
X334887D01*
X335887Y39686D01*
X334887Y40686D01*
X332888D01*
X334388D01*
Y38687D01*
X332888Y41686D02*
Y42685D01*
Y42185D01*
X335887D01*
X335387Y41686D01*
X347094Y30936D02*
Y28937D01*
X344094D01*
Y30936D01*
X345594Y28937D02*
Y29937D01*
X344094Y33935D02*
Y31936D01*
X346094Y33935D01*
X346594D01*
X347094Y33436D01*
Y32436D01*
X346594Y31936D01*
X345594Y34935D02*
Y36934D01*
X344094Y37934D02*
X346094D01*
X347094Y38934D01*
X346094Y39933D01*
X344094D01*
X345594D01*
Y37934D01*
X344094Y42933D02*
Y40933D01*
X346094Y42933D01*
X346594D01*
X347094Y42433D01*
Y41433D01*
X346594Y40933D01*
X355910Y31487D02*
Y29488D01*
X352911D01*
Y31487D01*
X354411Y29488D02*
Y30488D01*
X352911Y34486D02*
Y32487D01*
X354911Y34486D01*
X355410D01*
X355910Y33986D01*
Y32987D01*
X355410Y32487D01*
X354411Y35486D02*
Y37485D01*
X355910Y38485D02*
X352911D01*
Y39985D01*
X353411Y40484D01*
X353911D01*
X354411Y39985D01*
Y38485D01*
Y39985D01*
X354911Y40484D01*
X355410D01*
X355910Y39985D01*
Y38485D01*
X352911Y41484D02*
Y42484D01*
Y41984D01*
X355910D01*
X355410Y41484D01*
X365922Y31622D02*
Y29622D01*
X362923D01*
Y31622D01*
X364422Y29622D02*
Y30622D01*
X362923Y34621D02*
Y32621D01*
X364922Y34621D01*
X365422D01*
X365922Y34121D01*
Y33121D01*
X365422Y32621D01*
X364422Y35620D02*
Y37620D01*
X365922Y38619D02*
X362923D01*
Y40119D01*
X363423Y40619D01*
X363923D01*
X364422Y40119D01*
Y38619D01*
Y40119D01*
X364922Y40619D01*
X365422D01*
X365922Y40119D01*
Y38619D01*
X362923Y43618D02*
Y41618D01*
X364922Y43618D01*
X365422D01*
X365922Y43118D01*
Y42118D01*
X365422Y41618D01*
X166369Y22468D02*
Y24468D01*
X165869D01*
X163870Y22468D01*
X163370D01*
Y24468D01*
X164870Y25468D02*
Y27467D01*
X163370Y28467D02*
X165369D01*
X166369Y29466D01*
X165369Y30466D01*
X163370D01*
X164870D01*
Y28467D01*
X163370Y31466D02*
Y32465D01*
Y31965D01*
X166369D01*
X165869Y31466D01*
X177212Y33563D02*
Y35562D01*
X176712D01*
X174712Y33563D01*
X174213D01*
Y35562D01*
X175712Y36562D02*
Y38561D01*
X174213Y39561D02*
X176212D01*
X177212Y40561D01*
X176212Y41560D01*
X174213D01*
X175712D01*
Y39561D01*
X174213Y44559D02*
Y42560D01*
X176212Y44559D01*
X176712D01*
X177212Y44060D01*
Y43060D01*
X176712Y42560D01*
X186369Y22468D02*
Y24468D01*
X185869D01*
X183870Y22468D01*
X183370D01*
Y24468D01*
X184870Y25468D02*
Y27467D01*
X186369Y28467D02*
X183370D01*
Y29966D01*
X183870Y30466D01*
X184370D01*
X184870Y29966D01*
Y28467D01*
Y29966D01*
X185369Y30466D01*
X185869D01*
X186369Y29966D01*
Y28467D01*
X183370Y31466D02*
Y32465D01*
Y31965D01*
X186369D01*
X185869Y31466D01*
X196369Y22468D02*
Y24468D01*
X195869D01*
X193870Y22468D01*
X193370D01*
Y24468D01*
X194870Y25468D02*
Y27467D01*
X196369Y28467D02*
X193370D01*
Y29966D01*
X193870Y30466D01*
X194370D01*
X194870Y29966D01*
Y28467D01*
Y29966D01*
X195369Y30466D01*
X195869D01*
X196369Y29966D01*
Y28467D01*
X193370Y33465D02*
Y31466D01*
X195369Y33465D01*
X195869D01*
X196369Y32965D01*
Y31965D01*
X195869Y31466D01*
X107018Y29588D02*
X106518D01*
X105519Y30588D01*
X106518Y31588D01*
X107018D01*
X105519Y30588D02*
X104019D01*
X105519Y32587D02*
Y34587D01*
X104019Y35586D02*
X106018D01*
X107018Y36586D01*
X106018Y37586D01*
X104019D01*
X105519D01*
Y35586D01*
X104019Y38585D02*
Y39585D01*
Y39085D01*
X107018D01*
X106518Y38585D01*
X116711Y29912D02*
X116211D01*
X115211Y30911D01*
X116211Y31911D01*
X116711D01*
X115211Y30911D02*
X113712D01*
X115211Y32910D02*
Y34910D01*
X113712Y35910D02*
X115711D01*
X116711Y36909D01*
X115711Y37909D01*
X113712D01*
X115211D01*
Y35910D01*
X113712Y40908D02*
Y38908D01*
X115711Y40908D01*
X116211D01*
X116711Y40408D01*
Y39408D01*
X116211Y38908D01*
X127265Y29535D02*
X126765D01*
X125766Y30534D01*
X126765Y31534D01*
X127265D01*
X125766Y30534D02*
X124266D01*
X125766Y32533D02*
Y34533D01*
X127265Y35533D02*
X124266D01*
Y37032D01*
X124766Y37532D01*
X125266D01*
X125766Y37032D01*
Y35533D01*
Y37032D01*
X126266Y37532D01*
X126765D01*
X127265Y37032D01*
Y35533D01*
X124266Y38532D02*
Y39531D01*
Y39031D01*
X127265D01*
X126765Y38532D01*
X135343Y29696D02*
X134843D01*
X133843Y30696D01*
X134843Y31695D01*
X135343D01*
X133843Y30696D02*
X132343D01*
X133843Y32695D02*
Y34694D01*
X135343Y35694D02*
X132343D01*
Y37194D01*
X132843Y37694D01*
X133343D01*
X133843Y37194D01*
Y35694D01*
Y37194D01*
X134343Y37694D01*
X134843D01*
X135343Y37194D01*
Y35694D01*
X132343Y40692D02*
Y38693D01*
X134343Y40692D01*
X134843D01*
X135343Y40193D01*
Y39193D01*
X134843Y38693D01*
X77053Y29524D02*
X74054Y31523D01*
X77053D02*
X74054Y29524D01*
X75553Y32522D02*
Y34522D01*
X77053Y35522D02*
X74054D01*
Y37021D01*
X74554Y37521D01*
X75054D01*
X75553Y37021D01*
Y35522D01*
Y37021D01*
X76053Y37521D01*
X76553D01*
X77053Y37021D01*
Y35522D01*
X74054Y40520D02*
Y38521D01*
X76053Y40520D01*
X76553D01*
X77053Y40020D01*
Y39020D01*
X76553Y38521D01*
X67052Y29794D02*
X64052Y31793D01*
X67052D02*
X64052Y29794D01*
X65552Y32793D02*
Y34792D01*
X67052Y35792D02*
X64052D01*
Y37291D01*
X64552Y37791D01*
X65052D01*
X65552Y37291D01*
Y35792D01*
Y37291D01*
X66052Y37791D01*
X66552D01*
X67052Y37291D01*
Y35792D01*
X64052Y38791D02*
Y39791D01*
Y39291D01*
X67052D01*
X66552Y38791D01*
X56942Y29794D02*
X53943Y31793D01*
X56942D02*
X53943Y29794D01*
X55443Y32793D02*
Y34792D01*
X53943Y35792D02*
X55942D01*
X56942Y36792D01*
X55942Y37791D01*
X53943D01*
X55443D01*
Y35792D01*
X53943Y40790D02*
Y38791D01*
X55942Y40790D01*
X56442D01*
X56942Y40290D01*
Y39291D01*
X56442Y38791D01*
X46941Y29632D02*
X43942Y31631D01*
X46941D02*
X43942Y29632D01*
X45441Y32631D02*
Y34630D01*
X43942Y35630D02*
X45941D01*
X46941Y36629D01*
X45941Y37629D01*
X43942D01*
X45441D01*
Y35630D01*
X43942Y38629D02*
Y39628D01*
Y39129D01*
X46941D01*
X46441Y38629D01*
X52900Y399599D02*
Y396600D01*
Y398099D01*
X50901D01*
Y399599D01*
Y396600D01*
X49901Y399599D02*
X47902D01*
X48901D01*
Y396600D01*
X46902D02*
Y399599D01*
X45402D01*
X44903Y399099D01*
Y398099D01*
X45402Y397600D01*
X46902D01*
X45902D02*
X44903Y396600D01*
X43903D02*
X42903D01*
X43403D01*
Y399599D01*
X43903Y399099D01*
X133400Y399999D02*
Y397000D01*
Y398499D01*
X131401D01*
Y399999D01*
Y397000D01*
X130401Y399999D02*
X128402D01*
X129401D01*
Y397000D01*
X127402D02*
Y399999D01*
X125902D01*
X125403Y399499D01*
Y398499D01*
X125902Y398000D01*
X127402D01*
X126402D02*
X125403Y397000D01*
X124403Y399499D02*
X123903Y399999D01*
X122903D01*
X122404Y399499D01*
Y398999D01*
X122903Y398499D01*
X123403D01*
X122903D01*
X122404Y398000D01*
Y397500D01*
X122903Y397000D01*
X123903D01*
X124403Y397500D01*
X93200Y399899D02*
Y396900D01*
Y398399D01*
X91201D01*
Y399899D01*
Y396900D01*
X90201Y399899D02*
X88202D01*
X89201D01*
Y396900D01*
X87202D02*
Y399899D01*
X85702D01*
X85203Y399399D01*
Y398399D01*
X85702Y397900D01*
X87202D01*
X86202D02*
X85203Y396900D01*
X82204D02*
X84203D01*
X82204Y398899D01*
Y399399D01*
X82703Y399899D01*
X83703D01*
X84203Y399399D01*
X214100Y400199D02*
Y397200D01*
Y398699D01*
X212101D01*
Y400199D01*
Y397200D01*
X211101Y400199D02*
X209102D01*
X210101D01*
Y397200D01*
X208102Y400199D02*
Y397200D01*
X206602D01*
X206103Y397700D01*
Y398200D01*
X206602Y398699D01*
X208102D01*
X206602D01*
X206103Y399199D01*
Y399699D01*
X206602Y400199D01*
X208102D01*
X205103D02*
Y397200D01*
X203603D01*
X203104Y397700D01*
Y399699D01*
X203603Y400199D01*
X205103D01*
X400886Y168452D02*
Y166452D01*
X399886Y165453D01*
X398886Y166452D01*
Y168452D01*
X397887D02*
X396887D01*
X397387D01*
Y165453D01*
X397887D01*
X396887D01*
X395388D02*
Y168452D01*
X393388Y165453D01*
Y168452D01*
X389390Y165453D02*
Y168452D01*
X388390Y167452D01*
X387390Y168452D01*
Y165453D01*
X384891Y168452D02*
X385891D01*
X386390Y167952D01*
Y165953D01*
X385891Y165453D01*
X384891D01*
X384391Y165953D01*
Y167952D01*
X384891Y168452D01*
X383391D02*
X381392D01*
X382392D01*
Y165453D01*
X359410Y353977D02*
Y351978D01*
X358410Y350978D01*
X357410Y351978D01*
Y353977D01*
X356411D02*
Y350978D01*
X354911D01*
X354411Y351478D01*
Y351978D01*
X354911Y352477D01*
X356411D01*
X354911D01*
X354411Y352977D01*
Y353477D01*
X354911Y353977D01*
X356411D01*
X351412D02*
X353412D01*
Y350978D01*
X351412D01*
X353412Y352477D02*
X352412D01*
X350413Y353977D02*
Y350978D01*
X348913D01*
X348413Y351478D01*
Y353477D01*
X348913Y353977D01*
X350413D01*
X171101Y400199D02*
X173100D01*
Y398699D01*
X172100D01*
X173100D01*
Y397200D01*
X170101D02*
Y399199D01*
X169101Y400199D01*
X168102Y399199D01*
Y397200D01*
Y398699D01*
X170101D01*
X167102Y397200D02*
Y400199D01*
X165103Y397200D01*
Y400199D01*
X164103Y397200D02*
X163103D01*
X163603D01*
Y400199D01*
X164103Y399699D01*
X20676Y344962D02*
X22675D01*
Y343462D01*
X21676D01*
X22675D01*
Y341963D01*
X19676D02*
Y343962D01*
X18677Y344962D01*
X17677Y343962D01*
Y341963D01*
Y343462D01*
X19676D01*
X16677Y341963D02*
Y344962D01*
X14678Y341963D01*
Y344962D01*
X11679Y341963D02*
X13678D01*
X11679Y343962D01*
Y344462D01*
X12179Y344962D01*
X13178D01*
X13678Y344462D01*
X372601Y386947D02*
X374600D01*
Y385448D01*
X373600Y385947D01*
X373100D01*
X372601Y385448D01*
Y384448D01*
X373100Y383948D01*
X374100D01*
X374600Y384448D01*
X371601Y386947D02*
Y384948D01*
X370601Y383948D01*
X369602Y384948D01*
Y386947D01*
X368602Y383448D02*
X366603D01*
X363604Y386947D02*
X365603D01*
Y383948D01*
X363604D01*
X365603Y385448D02*
X364603D01*
X362604Y383948D02*
Y386947D01*
X360605Y383948D01*
Y386947D01*
X355594Y222877D02*
X353595D01*
Y222377D01*
X355594Y220377D01*
Y219878D01*
X353595D01*
X352595Y221377D02*
X350596D01*
X349596Y219878D02*
Y222877D01*
X348597Y221877D01*
X347597Y222877D01*
Y219878D01*
X346597D02*
Y221877D01*
X345598Y222877D01*
X344598Y221877D01*
Y219878D01*
Y221377D01*
X346597D01*
X343598Y222877D02*
X341599Y219878D01*
Y222877D02*
X343598Y219878D01*
X325664Y159764D02*
X323165D01*
X322665Y160264D01*
Y161263D01*
X323165Y161763D01*
X325664D01*
X322665Y162763D02*
X325664D01*
Y164262D01*
X325165Y164762D01*
X324165D01*
X323665Y164262D01*
Y162763D01*
Y163763D02*
X322665Y164762D01*
X325664Y165762D02*
X322665Y167761D01*
X325664D02*
X322665Y165762D01*
X325664Y168761D02*
X322665D01*
Y170261D01*
X323165Y170760D01*
X325165D01*
X325664Y170261D01*
Y168761D01*
X355283Y162649D02*
X355783Y162149D01*
Y161150D01*
X355283Y160650D01*
X353283D01*
X352783Y161150D01*
Y162149D01*
X353283Y162649D01*
X354283D01*
Y161649D01*
X352783Y163649D02*
X355783D01*
X352783Y165648D01*
X355783D01*
Y166648D02*
X352783D01*
Y168147D01*
X353283Y168647D01*
X355283D01*
X355783Y168147D01*
Y166648D01*
X164426Y242338D02*
X167425D01*
Y243837D01*
X166925Y244337D01*
X165926D01*
X165426Y243837D01*
Y242338D01*
Y243337D02*
X164426Y244337D01*
X167425Y247336D02*
Y245337D01*
X164426D01*
Y247336D01*
X165926Y245337D02*
Y246336D01*
X166925Y250335D02*
X167425Y249835D01*
Y248835D01*
X166925Y248336D01*
X166426D01*
X165926Y248835D01*
Y249835D01*
X165426Y250335D01*
X164926D01*
X164426Y249835D01*
Y248835D01*
X164926Y248336D01*
X167425Y253334D02*
Y251335D01*
X164426D01*
Y253334D01*
X165926Y251335D02*
Y252334D01*
X167425Y254334D02*
Y256333D01*
Y255333D01*
X164426D01*
X182027Y298653D02*
X182527Y298153D01*
Y297153D01*
X182027Y296654D01*
X181527D01*
X181027Y297153D01*
Y298153D01*
X180527Y298653D01*
X180027D01*
X179528Y298153D01*
Y297153D01*
X180027Y296654D01*
X182527Y299653D02*
X179528D01*
X180527Y300652D01*
X179528Y301652D01*
X182527D01*
Y304151D02*
Y303151D01*
X182027Y302652D01*
X180027D01*
X179528Y303151D01*
Y304151D01*
X180027Y304651D01*
X182027D01*
X182527Y304151D01*
X179528Y305651D02*
X181527Y307650D01*
X182527Y308650D02*
Y310649D01*
Y309649D01*
X179528D01*
X182527Y311649D02*
X179528D01*
Y313148D01*
X180027Y313648D01*
X182027D01*
X182527Y313148D01*
Y311649D01*
Y316147D02*
Y315148D01*
X182027Y314648D01*
X180027D01*
X179528Y315148D01*
Y316147D01*
X180027Y316647D01*
X182027D01*
X182527Y316147D01*
X181444Y275984D02*
Y277984D01*
Y276984D01*
X178445D01*
X181444Y278983D02*
X178445D01*
Y280483D01*
X178945Y280983D01*
X180944D01*
X181444Y280483D01*
Y278983D01*
Y281982D02*
Y282982D01*
Y282482D01*
X178445D01*
Y281982D01*
Y282982D01*
X195497Y256935D02*
Y258934D01*
Y257934D01*
X192498D01*
X194998Y261933D02*
X195497Y261433D01*
Y260434D01*
X194998Y259934D01*
X192998D01*
X192498Y260434D01*
Y261433D01*
X192998Y261933D01*
X195497Y262933D02*
X192498D01*
X193498D01*
X195497Y264932D01*
X193998Y263433D01*
X192498Y264932D01*
Y265932D02*
X194498Y267931D01*
X194998Y270930D02*
X195497Y270430D01*
Y269431D01*
X194998Y268931D01*
X194498D01*
X193998Y269431D01*
Y270430D01*
X193498Y270930D01*
X192998D01*
X192498Y270430D01*
Y269431D01*
X192998Y268931D01*
X195497Y271930D02*
X192498D01*
X193498Y272930D01*
X192498Y273929D01*
X195497D01*
X194998Y276928D02*
X195497Y276428D01*
Y275429D01*
X194998Y274929D01*
X192998D01*
X192498Y275429D01*
Y276428D01*
X192998Y276928D01*
X195497Y277928D02*
X192498D01*
Y279927D01*
X195497Y280927D02*
X192498D01*
X193498D01*
X195497Y282926D01*
X193998Y281427D01*
X192498Y282926D01*
X266511Y272590D02*
Y270591D01*
X263512D01*
Y272590D01*
X265011Y270591D02*
Y271590D01*
X263512Y273590D02*
X266511D01*
Y275089D01*
X266011Y275589D01*
X265011D01*
X264511Y275089D01*
Y273590D01*
Y274589D02*
X263512Y275589D01*
Y276589D02*
X265511D01*
X266511Y277588D01*
X265511Y278588D01*
X263512D01*
X265011D01*
Y276589D01*
X266011Y281587D02*
X266511Y281087D01*
Y280088D01*
X266011Y279588D01*
X265511D01*
X265011Y280088D01*
Y281087D01*
X264511Y281587D01*
X264012D01*
X263512Y281087D01*
Y280088D01*
X264012Y279588D01*
X266511Y284586D02*
Y282587D01*
X263512D01*
Y284586D01*
X265011Y282587D02*
Y283586D01*
G54D15*
X231246Y320503D02*
X232579D01*
Y319504D01*
X231912Y319837D01*
X231579D01*
X231246Y319504D01*
Y318837D01*
X231579Y318504D01*
X232245D01*
X232579Y318837D01*
X230579Y320503D02*
Y319170D01*
X229913Y318504D01*
X229246Y319170D01*
Y320503D01*
X228580Y320170D02*
X228247Y320503D01*
X227580D01*
X227247Y320170D01*
Y318837D01*
X227580Y318504D01*
X228247D01*
X228580Y318837D01*
Y320170D01*
X226581Y318171D02*
X225248D01*
X224581Y318504D02*
Y319837D01*
X223915Y320503D01*
X223248Y319837D01*
Y318504D01*
Y319504D01*
X224581D01*
X222582Y320503D02*
Y318837D01*
X222249Y318504D01*
X221582D01*
X221249Y318837D01*
Y320503D01*
X220583D02*
X219250Y318504D01*
Y320503D02*
X220583Y318504D01*
X239075Y321487D02*
X237742D01*
X238408D01*
Y319488D01*
X237075D02*
Y321487D01*
X236076D01*
X235742Y321154D01*
Y320488D01*
X236076Y320155D01*
X237075D01*
X235076Y321487D02*
X233743D01*
Y321154D01*
X235076Y319821D01*
Y319488D01*
X383591Y190799D02*
X382258D01*
X382924D01*
Y188799D01*
X380258Y190465D02*
X380592Y190799D01*
X381258D01*
X381591Y190465D01*
Y189132D01*
X381258Y188799D01*
X380592D01*
X380258Y189132D01*
X378592Y188799D02*
Y190799D01*
X379592Y189799D01*
X378259D01*
X347272Y176921D02*
X345939D01*
X346605D01*
Y174921D01*
X343939Y176587D02*
X344273Y176921D01*
X344939D01*
X345272Y176587D01*
Y175255D01*
X344939Y174921D01*
X344273D01*
X343939Y175255D01*
X343273Y176587D02*
X342940Y176921D01*
X342273D01*
X341940Y176587D01*
Y176254D01*
X342273Y175921D01*
X342606D01*
X342273D01*
X341940Y175588D01*
Y175255D01*
X342273Y174921D01*
X342940D01*
X343273Y175255D01*
X286937Y177118D02*
X285604D01*
X286271D01*
Y175118D01*
X283605Y176784D02*
X283938Y177118D01*
X284604D01*
X284938Y176784D01*
Y175451D01*
X284604Y175118D01*
X283938D01*
X283605Y175451D01*
X282938Y175118D02*
X282272D01*
X282605D01*
Y177118D01*
X282938Y176784D01*
X291071Y153397D02*
X289738D01*
X290404D01*
Y151398D01*
X287739Y153064D02*
X288072Y153397D01*
X288738D01*
X289071Y153064D01*
Y151731D01*
X288738Y151398D01*
X288072D01*
X287739Y151731D01*
X286072Y151398D02*
Y153397D01*
X287072Y152397D01*
X285739D01*
X317646Y178299D02*
X316313D01*
X316979D01*
Y176299D01*
X314313Y177965D02*
X314647Y178299D01*
X315313D01*
X315646Y177965D01*
Y176632D01*
X315313Y176299D01*
X314647D01*
X314313Y176632D01*
X312314Y176299D02*
X313647D01*
X312314Y177632D01*
Y177965D01*
X312647Y178299D01*
X313314D01*
X313647Y177965D01*
X264988Y164913D02*
X263655D01*
X264322D01*
Y162913D01*
X261656Y164580D02*
X261989Y164913D01*
X262656D01*
X262989Y164580D01*
Y163247D01*
X262656Y162913D01*
X261989D01*
X261656Y163247D01*
X260989Y162913D02*
X260323D01*
X260656D01*
Y164913D01*
X260989Y164580D01*
X240874Y166389D02*
X239541D01*
X240208D01*
Y164390D01*
X237542Y166056D02*
X237875Y166389D01*
X238541D01*
X238875Y166056D01*
Y164723D01*
X238541Y164390D01*
X237875D01*
X237542Y164723D01*
X235542Y164390D02*
X236875D01*
X235542Y165723D01*
Y166056D01*
X235876Y166389D01*
X236542D01*
X236875Y166056D01*
X291071Y165799D02*
X289738D01*
X290404D01*
Y163799D01*
X287739Y165465D02*
X288072Y165799D01*
X288738D01*
X289071Y165465D01*
Y164132D01*
X288738Y163799D01*
X288072D01*
X287739Y164132D01*
X287072Y165465D02*
X286739Y165799D01*
X286072D01*
X285739Y165465D01*
Y165132D01*
X286072Y164799D01*
X286406D01*
X286072D01*
X285739Y164466D01*
Y164132D01*
X286072Y163799D01*
X286739D01*
X287072Y164132D01*
X233228Y127239D02*
Y125906D01*
X232228D01*
Y126572D01*
Y125906D01*
X231228D01*
X233228Y127905D02*
X231228D01*
Y129238D01*
Y129904D02*
X232561D01*
X233228Y130571D01*
X232561Y131237D01*
X231228D01*
X232228D01*
Y129904D01*
X232894Y133237D02*
X233228Y132903D01*
Y132237D01*
X232894Y131904D01*
X232561D01*
X232228Y132237D01*
Y132903D01*
X231895Y133237D01*
X231562D01*
X231228Y132903D01*
Y132237D01*
X231562Y131904D01*
X233228Y133903D02*
X231228D01*
X232228D01*
Y135236D01*
X233228D01*
X231228D01*
X230895Y135902D02*
Y137235D01*
X232894Y139235D02*
X233228Y138901D01*
Y138235D01*
X232894Y137902D01*
X231562D01*
X231228Y138235D01*
Y138901D01*
X231562Y139235D01*
X232894Y141234D02*
X233228Y140901D01*
Y140234D01*
X232894Y139901D01*
X232561D01*
X232228Y140234D01*
Y140901D01*
X231895Y141234D01*
X231562D01*
X231228Y140901D01*
Y140234D01*
X231562Y139901D01*
X253374Y124724D02*
X255373D01*
Y125724D01*
X255040Y126057D01*
X254374D01*
X254041Y125724D01*
Y124724D01*
X253374Y126724D02*
X254707D01*
X255373Y127390D01*
X254707Y128057D01*
X253374D01*
X254374D01*
Y126724D01*
X253374Y130056D02*
Y128723D01*
X254707Y130056D01*
X255040D01*
X255373Y129723D01*
Y129056D01*
X255040Y128723D01*
X255373Y132055D02*
X255040Y131389D01*
X254374Y130722D01*
X253707D01*
X253374Y131056D01*
Y131722D01*
X253707Y132055D01*
X254041D01*
X254374Y131722D01*
Y130722D01*
X253041Y132722D02*
Y134055D01*
X253374Y134721D02*
X255373D01*
X254707Y135388D01*
X255373Y136054D01*
X253374D01*
X255373Y137720D02*
Y137054D01*
X255040Y136721D01*
X253707D01*
X253374Y137054D01*
Y137720D01*
X253707Y138054D01*
X255040D01*
X255373Y137720D01*
X255040Y140053D02*
X255373Y139720D01*
Y139053D01*
X255040Y138720D01*
X254707D01*
X254374Y139053D01*
Y139720D01*
X254041Y140053D01*
X253707D01*
X253374Y139720D01*
Y139053D01*
X253707Y138720D01*
X255373Y140719D02*
Y141386D01*
Y141052D01*
X253374D01*
Y140719D01*
Y141386D01*
X274634Y124294D02*
X276633D01*
Y125294D01*
X276300Y125627D01*
X275634D01*
X275300Y125294D01*
Y124294D01*
X274634Y126294D02*
X275967D01*
X276633Y126960D01*
X275967Y127627D01*
X274634D01*
X275634D01*
Y126294D01*
X274634Y129626D02*
Y128293D01*
X275967Y129626D01*
X276300D01*
X276633Y129293D01*
Y128626D01*
X276300Y128293D01*
X276633Y131625D02*
Y130292D01*
X275634D01*
X275967Y130959D01*
Y131292D01*
X275634Y131625D01*
X274967D01*
X274634Y131292D01*
Y130626D01*
X274967Y130292D01*
X274301Y132292D02*
Y133625D01*
X274634Y134291D02*
X276633D01*
X275967Y134958D01*
X276633Y135624D01*
X274634D01*
X276633Y136291D02*
Y136957D01*
Y136624D01*
X274634D01*
Y136291D01*
Y136957D01*
X276300Y139290D02*
X276633Y138956D01*
Y138290D01*
X276300Y137957D01*
X275967D01*
X275634Y138290D01*
Y138956D01*
X275300Y139290D01*
X274967D01*
X274634Y138956D01*
Y138290D01*
X274967Y137957D01*
X276633Y140956D02*
Y140289D01*
X276300Y139956D01*
X274967D01*
X274634Y140289D01*
Y140956D01*
X274967Y141289D01*
X276300D01*
X276633Y140956D01*
X262134Y124724D02*
X264133D01*
Y125724D01*
X263800Y126057D01*
X263134D01*
X262800Y125724D01*
Y124724D01*
X262134Y126724D02*
X263467D01*
X264133Y127390D01*
X263467Y128057D01*
X262134D01*
X263134D01*
Y126724D01*
X262134Y130056D02*
Y128723D01*
X263467Y130056D01*
X263800D01*
X264133Y129723D01*
Y129056D01*
X263800Y128723D01*
X264133Y130722D02*
Y132055D01*
X263800D01*
X262467Y130722D01*
X262134D01*
X261801Y132722D02*
Y134055D01*
X263800Y136054D02*
X264133Y135721D01*
Y135055D01*
X263800Y134721D01*
X263467D01*
X263134Y135055D01*
Y135721D01*
X262800Y136054D01*
X262467D01*
X262134Y135721D01*
Y135055D01*
X262467Y134721D01*
X263800Y138054D02*
X264133Y137720D01*
Y137054D01*
X263800Y136721D01*
X262467D01*
X262134Y137054D01*
Y137720D01*
X262467Y138054D01*
X264133Y138720D02*
X262134D01*
Y140053D01*
X264133Y140719D02*
X262134D01*
X262800D01*
X264133Y142052D01*
X263134Y141052D01*
X262134Y142052D01*
X244743Y134567D02*
X242744D01*
X243744D01*
Y135900D01*
X244743D01*
X242744D01*
X244743Y137566D02*
Y136900D01*
X244410Y136566D01*
X243077D01*
X242744Y136900D01*
Y137566D01*
X243077Y137899D01*
X244410D01*
X244743Y137566D01*
Y138566D02*
X242744D01*
Y139899D01*
X244743Y140565D02*
X242744D01*
Y141565D01*
X243077Y141898D01*
X244410D01*
X244743Y141565D01*
Y140565D01*
X69784Y213614D02*
Y212281D01*
X69117Y211614D01*
X68451Y212281D01*
Y213614D01*
X67784D02*
Y211947D01*
X67451Y211614D01*
X66784D01*
X66451Y211947D01*
Y213614D01*
X64452Y213280D02*
X64785Y213614D01*
X65452D01*
X65785Y213280D01*
Y212947D01*
X65452Y212614D01*
X64785D01*
X64452Y212281D01*
Y211947D01*
X64785Y211614D01*
X65452D01*
X65785Y211947D01*
X63785Y213614D02*
Y211614D01*
X62786D01*
X62453Y211947D01*
Y212281D01*
X62786Y212614D01*
X63785D01*
X62786D01*
X62453Y212947D01*
Y213280D01*
X62786Y213614D01*
X63785D01*
X53195Y202552D02*
X53528Y202885D01*
X54194D01*
X54528Y202552D01*
Y202219D01*
X54194Y201886D01*
X53528D01*
X53195Y201552D01*
Y201219D01*
X53528Y200886D01*
X54194D01*
X54528Y201219D01*
X52528Y202885D02*
Y200886D01*
X51529D01*
X51195Y201219D01*
Y202552D01*
X51529Y202885D01*
X52528D01*
X49196Y202552D02*
X49529Y202885D01*
X50196D01*
X50529Y202552D01*
Y201219D01*
X50196Y200886D01*
X49529D01*
X49196Y201219D01*
X48529Y202885D02*
Y200886D01*
X47530D01*
X47197Y201219D01*
Y202552D01*
X47530Y202885D01*
X48529D01*
X66563Y185256D02*
Y187255D01*
X65896Y186589D01*
X65230Y187255D01*
Y185256D01*
X63231Y186922D02*
X63564Y187255D01*
X64230D01*
X64564Y186922D01*
Y185589D01*
X64230Y185256D01*
X63564D01*
X63231Y185589D01*
X61231Y186922D02*
X61565Y187255D01*
X62231D01*
X62564Y186922D01*
Y185589D01*
X62231Y185256D01*
X61565D01*
X61231Y185589D01*
X60565Y187255D02*
Y185256D01*
Y185922D01*
X59232Y187255D01*
X60232Y186256D01*
X59232Y185256D01*
X68433Y174528D02*
Y176527D01*
X67767Y175861D01*
X67100Y176527D01*
Y174528D01*
X65101Y176194D02*
X65434Y176527D01*
X66101D01*
X66434Y176194D01*
Y174861D01*
X66101Y174528D01*
X65434D01*
X65101Y174861D01*
X63102Y176194D02*
X63435Y176527D01*
X64101D01*
X64434Y176194D01*
Y174861D01*
X64101Y174528D01*
X63435D01*
X63102Y174861D01*
X62435Y176527D02*
Y174528D01*
X61435D01*
X61102Y174861D01*
Y176194D01*
X61435Y176527D01*
X62435D01*
X60436Y174528D02*
Y175861D01*
X59769Y176527D01*
X59103Y175861D01*
Y174528D01*
Y175527D01*
X60436D01*
X40382Y182402D02*
Y184401D01*
X39715Y183735D01*
X39049Y184401D01*
Y182402D01*
X37050Y184068D02*
X37383Y184401D01*
X38049D01*
X38383Y184068D01*
Y182735D01*
X38049Y182402D01*
X37383D01*
X37050Y182735D01*
X36383Y184401D02*
Y182402D01*
X35383D01*
X35050Y182735D01*
Y184068D01*
X35383Y184401D01*
X36383D01*
X34384Y182402D02*
Y183735D01*
X33717Y184401D01*
X33051Y183735D01*
Y182402D01*
Y183401D01*
X34384D01*
X32384Y182402D02*
X31718D01*
X32051D01*
Y184401D01*
X32384Y184068D01*
X41858Y172067D02*
Y174066D01*
X41192Y173400D01*
X40525Y174066D01*
Y172067D01*
X38526Y173733D02*
X38859Y174066D01*
X39526D01*
X39859Y173733D01*
Y172400D01*
X39526Y172067D01*
X38859D01*
X38526Y172400D01*
X37860Y174066D02*
Y172067D01*
X36860D01*
X36527Y172400D01*
Y173733D01*
X36860Y174066D01*
X37860D01*
X35860Y172067D02*
Y173400D01*
X35194Y174066D01*
X34527Y173400D01*
Y172067D01*
Y173067D01*
X35860D01*
X33861Y173733D02*
X33528Y174066D01*
X32861D01*
X32528Y173733D01*
Y172400D01*
X32861Y172067D01*
X33528D01*
X33861Y172400D01*
Y173733D01*
X51209Y165079D02*
Y167078D01*
X50542Y166412D01*
X49876Y167078D01*
Y165079D01*
X47876Y166745D02*
X48210Y167078D01*
X48876D01*
X49209Y166745D01*
Y165412D01*
X48876Y165079D01*
X48210D01*
X47876Y165412D01*
X47210Y167078D02*
Y165079D01*
X46210D01*
X45877Y165412D01*
Y166745D01*
X46210Y167078D01*
X47210D01*
X45211Y165079D02*
Y166412D01*
X44544Y167078D01*
X43878Y166412D01*
Y165079D01*
Y166078D01*
X45211D01*
X43211Y166745D02*
X42878Y167078D01*
X42212D01*
X41878Y166745D01*
Y166412D01*
X42212Y166078D01*
X42545D01*
X42212D01*
X41878Y165745D01*
Y165412D01*
X42212Y165079D01*
X42878D01*
X43211Y165412D01*
X68827Y153563D02*
Y155562D01*
X68160Y154896D01*
X67494Y155562D01*
Y153563D01*
X65495Y155229D02*
X65828Y155562D01*
X66494D01*
X66827Y155229D01*
Y153896D01*
X66494Y153563D01*
X65828D01*
X65495Y153896D01*
X64828Y155562D02*
Y153563D01*
X63828D01*
X63495Y153896D01*
Y155229D01*
X63828Y155562D01*
X64828D01*
X62829Y153563D02*
Y154896D01*
X62162Y155562D01*
X61496Y154896D01*
Y153563D01*
Y154563D01*
X62829D01*
X59496Y153563D02*
X60829D01*
X59496Y154896D01*
Y155229D01*
X59830Y155562D01*
X60496D01*
X60829Y155229D01*
X128248Y173123D02*
X127915Y173456D01*
X127248D01*
X126915Y173123D01*
Y172790D01*
X127248Y172456D01*
X127582D01*
X127248D01*
X126915Y172123D01*
Y171790D01*
X127248Y171457D01*
X127915D01*
X128248Y171790D01*
X126249Y171457D02*
Y171790D01*
X125916D01*
Y171457D01*
X126249D01*
X124583Y173123D02*
X124249Y173456D01*
X123583D01*
X123250Y173123D01*
Y172790D01*
X123583Y172456D01*
X123916D01*
X123583D01*
X123250Y172123D01*
Y171790D01*
X123583Y171457D01*
X124249D01*
X124583Y171790D01*
X122583Y173456D02*
Y172123D01*
X121917Y171457D01*
X121250Y172123D01*
Y173456D01*
X147764Y172590D02*
Y171257D01*
X147097Y170591D01*
X146431Y171257D01*
Y172590D01*
X145764D02*
Y170591D01*
X144765D01*
X144431Y170924D01*
Y172257D01*
X144765Y172590D01*
X145764D01*
X143765D02*
Y170591D01*
X142765D01*
X142432Y170924D01*
Y172257D01*
X142765Y172590D01*
X143765D01*
X139766Y170591D02*
Y171923D01*
X139100Y172590D01*
X138434Y171923D01*
Y170591D01*
Y171590D01*
X139766D01*
X137767Y170591D02*
Y172590D01*
X136434Y170591D01*
Y172590D01*
X135768Y170591D02*
Y171923D01*
X135101Y172590D01*
X134435Y171923D01*
Y170591D01*
Y171590D01*
X135768D01*
X143602Y206292D02*
X143269Y206625D01*
X142603D01*
X142270Y206292D01*
Y205959D01*
X142603Y205626D01*
X142936D01*
X142603D01*
X142270Y205292D01*
Y204959D01*
X142603Y204626D01*
X143269D01*
X143602Y204959D01*
X141603Y204626D02*
Y204959D01*
X141270D01*
Y204626D01*
X141603D01*
X139937Y206292D02*
X139604Y206625D01*
X138937D01*
X138604Y206292D01*
Y205959D01*
X138937Y205626D01*
X139270D01*
X138937D01*
X138604Y205292D01*
Y204959D01*
X138937Y204626D01*
X139604D01*
X139937Y204959D01*
X137937Y206625D02*
Y205292D01*
X137271Y204626D01*
X136605Y205292D01*
Y206625D01*
X123721Y233200D02*
Y231867D01*
X123054Y231201D01*
X122388Y231867D01*
Y233200D01*
X121721D02*
Y231201D01*
X120721D01*
X120388Y231534D01*
Y232867D01*
X120721Y233200D01*
X121721D01*
X119722D02*
Y231201D01*
X118722D01*
X118389Y231534D01*
Y232867D01*
X118722Y233200D01*
X119722D01*
X117722D02*
Y231534D01*
X117389Y231201D01*
X116723D01*
X116390Y231534D01*
Y233200D01*
X115723D02*
X114390D01*
X115057D01*
Y231201D01*
X113724D02*
Y233200D01*
X113057Y232534D01*
X112391Y233200D01*
Y231201D01*
X111724Y233200D02*
X111058D01*
X111391D01*
Y231201D01*
X111724D01*
X111058D01*
X110067Y262513D02*
X109734Y262846D01*
X109067D01*
X108734Y262513D01*
Y262179D01*
X109067Y261846D01*
X109400D01*
X109067D01*
X108734Y261513D01*
Y261180D01*
X109067Y260846D01*
X109734D01*
X110067Y261180D01*
X108068Y260846D02*
Y261180D01*
X107734D01*
Y260846D01*
X108068D01*
X106401Y262513D02*
X106068Y262846D01*
X105402D01*
X105069Y262513D01*
Y262179D01*
X105402Y261846D01*
X105735D01*
X105402D01*
X105069Y261513D01*
Y261180D01*
X105402Y260846D01*
X106068D01*
X106401Y261180D01*
X104402Y262846D02*
Y261513D01*
X103736Y260846D01*
X103069Y261513D01*
Y262846D01*
X144291Y261410D02*
X143958Y261743D01*
X143292D01*
X142958Y261410D01*
Y261077D01*
X143292Y260744D01*
X143625D01*
X143292D01*
X142958Y260410D01*
Y260077D01*
X143292Y259744D01*
X143958D01*
X144291Y260077D01*
X142292Y259744D02*
Y260077D01*
X141959D01*
Y259744D01*
X142292D01*
X140626Y261410D02*
X140293Y261743D01*
X139626D01*
X139293Y261410D01*
Y261077D01*
X139626Y260744D01*
X139959D01*
X139626D01*
X139293Y260410D01*
Y260077D01*
X139626Y259744D01*
X140293D01*
X140626Y260077D01*
X138627Y261743D02*
Y260410D01*
X137960Y259744D01*
X137294Y260410D01*
Y261743D01*
X136627D02*
X135961D01*
X136294D01*
Y259744D01*
X136627D01*
X135961D01*
X133961Y261743D02*
X134628D01*
X134961Y261410D01*
Y260077D01*
X134628Y259744D01*
X133961D01*
X133628Y260077D01*
Y261410D01*
X133961Y261743D01*
X158889Y262894D02*
X157556D01*
X156890Y263560D01*
X157556Y264227D01*
X158889D01*
Y264893D02*
X156890D01*
Y265893D01*
X157223Y266226D01*
X158556D01*
X158889Y265893D01*
Y264893D01*
Y266892D02*
X156890D01*
Y267892D01*
X157223Y268225D01*
X158556D01*
X158889Y267892D01*
Y266892D01*
X156890Y268892D02*
X158889D01*
Y269891D01*
X158556Y270225D01*
X157889D01*
X157556Y269891D01*
Y268892D01*
X158889Y270891D02*
X156890D01*
Y272224D01*
X158889Y272890D02*
X156890D01*
Y274223D01*
X179232Y267157D02*
Y265824D01*
X178566Y265158D01*
X177899Y265824D01*
Y267157D01*
X177233D02*
Y265158D01*
X176233D01*
X175900Y265491D01*
Y266824D01*
X176233Y267157D01*
X177233D01*
X175234D02*
Y265158D01*
X174234D01*
X173901Y265491D01*
Y266824D01*
X174234Y267157D01*
X175234D01*
X172234D02*
X172901D01*
X173234Y266824D01*
Y265491D01*
X172901Y265158D01*
X172234D01*
X171901Y265491D01*
Y266824D01*
X172234Y267157D01*
X171235D02*
Y265491D01*
X170902Y265158D01*
X170235D01*
X169902Y265491D01*
Y267157D01*
X169236D02*
X167903D01*
X168569D01*
Y265158D01*
X224750Y296495D02*
Y297828D01*
X225083Y298161D01*
X225749D01*
X226083Y297828D01*
Y296495D01*
X225749Y296161D01*
X225083D01*
X225416Y296828D02*
X224750Y296161D01*
X225083D02*
X224750Y296495D01*
X222750Y298161D02*
X224083D01*
Y297161D01*
X223417Y297494D01*
X223084D01*
X222750Y297161D01*
Y296495D01*
X223084Y296161D01*
X223750D01*
X224083Y296495D01*
X220085Y298161D02*
Y296161D01*
X219085D01*
X218752Y296495D01*
Y297828D01*
X219085Y298161D01*
X220085D01*
X218085Y296161D02*
Y298161D01*
X217086D01*
X216752Y297828D01*
Y297161D01*
X217086Y296828D01*
X218085D01*
X217419D02*
X216752Y296161D01*
X216086Y298161D02*
Y296828D01*
X215420Y296161D01*
X214753Y296828D01*
Y298161D01*
X220222Y308010D02*
Y309343D01*
X220555Y309677D01*
X221222D01*
X221555Y309343D01*
Y308010D01*
X221222Y307677D01*
X220555D01*
X220889Y308344D02*
X220222Y307677D01*
X220555D02*
X220222Y308010D01*
X218556Y307677D02*
Y309677D01*
X219556Y308677D01*
X218223D01*
X214224Y309343D02*
X214557Y309677D01*
X215224D01*
X215557Y309343D01*
Y308010D01*
X215224Y307677D01*
X214557D01*
X214224Y308010D01*
Y308677D01*
X214891D01*
X213558Y307677D02*
Y309010D01*
X212891Y309677D01*
X212225Y309010D01*
Y307677D01*
Y308677D01*
X213558D01*
X211558Y309677D02*
X210226D01*
X210892D01*
Y307677D01*
X208226Y309677D02*
X209559D01*
Y307677D01*
X208226D01*
X209559Y308677D02*
X208893D01*
X393057Y230838D02*
X394390D01*
Y229838D01*
X393723D01*
X394390D01*
Y228839D01*
X392390Y230505D02*
X392057Y230838D01*
X391391D01*
X391057Y230505D01*
Y230171D01*
X391391Y229838D01*
X391724D01*
X391391D01*
X391057Y229505D01*
Y229172D01*
X391391Y228839D01*
X392057D01*
X392390Y229172D01*
X325636Y304558D02*
X326969D01*
Y303559D01*
X326302D01*
X326969D01*
Y302559D01*
X323636D02*
X324969D01*
X323636Y303892D01*
Y304225D01*
X323970Y304558D01*
X324636D01*
X324969Y304225D01*
X345813Y309873D02*
X347146D01*
Y308874D01*
X346479D01*
X347146D01*
Y307874D01*
X345146D02*
X344480D01*
X344813D01*
Y309873D01*
X345146Y309540D01*
X341437Y321472D02*
X340104D01*
X340771Y322139D02*
Y320806D01*
X339438Y320472D02*
X338771D01*
X339104D01*
Y322472D01*
X339438Y322139D01*
X336439Y320472D02*
X337772D01*
X336439Y321805D01*
Y322139D01*
X336772Y322472D01*
X337438D01*
X337772Y322139D01*
X335772Y322472D02*
Y321139D01*
X335106Y320472D01*
X334439Y321139D01*
Y322472D01*
X332440Y322139D02*
X332773Y322472D01*
X333440D01*
X333773Y322139D01*
Y320806D01*
X333440Y320472D01*
X332773D01*
X332440Y320806D01*
X330441Y322139D02*
X330774Y322472D01*
X331440D01*
X331773Y322139D01*
Y320806D01*
X331440Y320472D01*
X330774D01*
X330441Y320806D01*
X329774Y322139D02*
X329441Y322472D01*
X328774D01*
X328441Y322139D01*
Y321805D01*
X328774Y321472D01*
X329108D01*
X328774D01*
X328441Y321139D01*
Y320806D01*
X328774Y320472D01*
X329441D01*
X329774Y320806D01*
X298622Y331413D02*
X297289D01*
X297956Y332080D02*
Y330747D01*
X296623Y330413D02*
X295956D01*
X296289D01*
Y332413D01*
X296623Y332080D01*
X293624Y330413D02*
X294957D01*
X293624Y331746D01*
Y332080D01*
X293957Y332413D01*
X294623D01*
X294957Y332080D01*
X292957Y332413D02*
Y331080D01*
X292291Y330413D01*
X291624Y331080D01*
Y332413D01*
X289625Y332080D02*
X289958Y332413D01*
X290625D01*
X290958Y332080D01*
Y330747D01*
X290625Y330413D01*
X289958D01*
X289625Y330747D01*
X287626Y332080D02*
X287959Y332413D01*
X288625D01*
X288959Y332080D01*
Y330747D01*
X288625Y330413D01*
X287959D01*
X287626Y330747D01*
X285626Y330413D02*
X286959D01*
X285626Y331746D01*
Y332080D01*
X285960Y332413D01*
X286626D01*
X286959Y332080D01*
X252882Y310741D02*
X252549Y311074D01*
X251882D01*
X251549Y310741D01*
Y310408D01*
X251882Y310074D01*
X252215D01*
X251882D01*
X251549Y309741D01*
Y309408D01*
X251882Y309075D01*
X252549D01*
X252882Y309408D01*
X250883Y309075D02*
Y309408D01*
X250549D01*
Y309075D01*
X250883D01*
X249216Y310741D02*
X248883Y311074D01*
X248217D01*
X247884Y310741D01*
Y310408D01*
X248217Y310074D01*
X248550D01*
X248217D01*
X247884Y309741D01*
Y309408D01*
X248217Y309075D01*
X248883D01*
X249216Y309408D01*
X247217Y311074D02*
Y309741D01*
X246551Y309075D01*
X245884Y309741D01*
Y311074D01*
X328177Y241389D02*
X326844D01*
Y241056D01*
X328177Y239723D01*
Y239390D01*
X326844D01*
X326178D02*
Y240723D01*
X325845D01*
X325511Y240389D01*
Y239390D01*
Y240389D01*
X325178Y240723D01*
X324845Y240389D01*
Y239390D01*
X323845Y240723D02*
X323179D01*
X322846Y240389D01*
Y239390D01*
X323845D01*
X324179Y239723D01*
X323845Y240056D01*
X322846D01*
X322179Y240723D02*
X320846Y239390D01*
X321513Y240056D01*
X320846Y240723D01*
X322179Y239390D01*
X327491Y228543D02*
Y229876D01*
X327158D01*
X325825Y228543D01*
X325492D01*
Y229876D01*
Y230543D02*
X326825D01*
Y230876D01*
X326492Y231209D01*
X325492D01*
X326492D01*
X326825Y231542D01*
X326492Y231876D01*
X325492D01*
Y232542D02*
Y233208D01*
Y232875D01*
X326825D01*
Y232542D01*
X325492Y234208D02*
X326825D01*
Y235208D01*
X326492Y235541D01*
X325492D01*
X289890Y221310D02*
Y220977D01*
X289223Y220311D01*
X288557Y220977D01*
Y221310D01*
X289223Y220311D02*
Y219311D01*
X287890D02*
Y220644D01*
X287557D01*
X287224Y220311D01*
Y219311D01*
Y220311D01*
X286891Y220644D01*
X286558Y220311D01*
Y219311D01*
X285558Y220644D02*
X284891D01*
X284558Y220311D01*
Y219311D01*
X285558D01*
X285891Y219644D01*
X285558Y219977D01*
X284558D01*
X283892Y220644D02*
X282559Y219311D01*
X283225Y219977D01*
X282559Y220644D01*
X283892Y219311D01*
X321976Y271212D02*
Y270879D01*
X321310Y270212D01*
X320643Y270879D01*
Y271212D01*
X321310Y270212D02*
Y269213D01*
X319977D02*
Y270546D01*
X319644D01*
X319311Y270212D01*
Y269213D01*
Y270212D01*
X318977Y270546D01*
X318644Y270212D01*
Y269213D01*
X317978D02*
X317311D01*
X317645D01*
Y270546D01*
X317978D01*
X316312Y269213D02*
Y270546D01*
X315312D01*
X314979Y270212D01*
Y269213D01*
X258591Y211074D02*
X257258Y209075D01*
Y211074D02*
X258591Y209075D01*
X256591D02*
Y210408D01*
X256258D01*
X255925Y210074D01*
Y209075D01*
Y210074D01*
X255592Y210408D01*
X255258Y210074D01*
Y209075D01*
X254259Y210408D02*
X253592D01*
X253259Y210074D01*
Y209075D01*
X254259D01*
X254592Y209408D01*
X254259Y209741D01*
X253259D01*
X252592Y210408D02*
X251260Y209075D01*
X251926Y209741D01*
X251260Y210408D01*
X252592Y209075D01*
X289398Y242767D02*
X288065Y240768D01*
Y242767D02*
X289398Y240768D01*
X287398D02*
Y242101D01*
X287065D01*
X286732Y241768D01*
Y240768D01*
Y241768D01*
X286399Y242101D01*
X286065Y241768D01*
Y240768D01*
X285399D02*
X284733D01*
X285066D01*
Y242101D01*
X285399D01*
X283733Y240768D02*
Y242101D01*
X282733D01*
X282400Y241768D01*
Y240768D01*
X400126Y127890D02*
X398793D01*
X399460Y128556D02*
Y127223D01*
X398127Y126890D02*
X397460D01*
X397793D01*
Y128889D01*
X398127Y128556D01*
X395128Y126890D02*
X396461D01*
X395128Y128223D01*
Y128556D01*
X395461Y128889D01*
X396127D01*
X396461Y128556D01*
X394461Y128889D02*
Y127556D01*
X393795Y126890D01*
X393128Y127556D01*
Y128889D01*
X391129Y128556D02*
X391462Y128889D01*
X392129D01*
X392462Y128556D01*
Y127223D01*
X392129Y126890D01*
X391462D01*
X391129Y127223D01*
X389130Y128556D02*
X389463Y128889D01*
X390129D01*
X390462Y128556D01*
Y127223D01*
X390129Y126890D01*
X389463D01*
X389130Y127223D01*
X388463Y126890D02*
X387797D01*
X388130D01*
Y128889D01*
X388463Y128556D01*
X30933Y48635D02*
X30600Y48968D01*
X29933D01*
X29600Y48635D01*
Y47302D01*
X29933Y46969D01*
X30600D01*
X30933Y47302D01*
Y48635D01*
X28934Y46969D02*
Y48302D01*
X28267Y48968D01*
X27601Y48302D01*
Y46969D01*
Y47968D01*
X28934D01*
X26934Y46969D02*
X26268D01*
X26601D01*
Y48968D01*
X26934Y48635D01*
X21287Y81902D02*
X20954Y82236D01*
X20288D01*
X19954Y81902D01*
Y80569D01*
X20288Y80236D01*
X20954D01*
X21287Y80569D01*
Y81902D01*
X19288Y80236D02*
Y81569D01*
X18622Y82236D01*
X17955Y81569D01*
Y80236D01*
Y81236D01*
X19288D01*
X15956Y80236D02*
X17289D01*
X15956Y81569D01*
Y81902D01*
X16289Y82236D01*
X16955D01*
X17289Y81902D01*
X56917Y48438D02*
X56584Y48771D01*
X55918D01*
X55584Y48438D01*
Y47105D01*
X55918Y46772D01*
X56584D01*
X56917Y47105D01*
Y48438D01*
X54918Y48771D02*
Y46772D01*
X53918D01*
X53585Y47105D01*
Y47438D01*
X53918Y47771D01*
X54918D01*
X53918D01*
X53585Y48105D01*
Y48438D01*
X53918Y48771D01*
X54918D01*
X52919Y46772D02*
X52252D01*
X52585D01*
Y48771D01*
X52919Y48438D01*
X75815Y48044D02*
X75482Y48377D01*
X74815D01*
X74482Y48044D01*
Y46711D01*
X74815Y46378D01*
X75482D01*
X75815Y46711D01*
Y48044D01*
X73816Y48377D02*
Y46378D01*
X72816D01*
X72483Y46711D01*
Y47045D01*
X72816Y47378D01*
X73816D01*
X72816D01*
X72483Y47711D01*
Y48044D01*
X72816Y48377D01*
X73816D01*
X70483Y46378D02*
X71816D01*
X70483Y47711D01*
Y48044D01*
X70817Y48377D01*
X71483D01*
X71816Y48044D01*
X80933Y76981D02*
X80600Y77314D01*
X79933D01*
X79600Y76981D01*
Y75648D01*
X79933Y75315D01*
X80600D01*
X80933Y75648D01*
Y76981D01*
X78934Y75315D02*
Y76648D01*
X78267Y77314D01*
X77601Y76648D01*
Y75315D01*
Y76315D01*
X78934D01*
X75602Y75315D02*
X76934D01*
X75602Y76648D01*
Y76981D01*
X75935Y77314D01*
X76601D01*
X76934Y76981D01*
X103669Y86824D02*
X103336Y87157D01*
X102670D01*
X102336Y86824D01*
Y85491D01*
X102670Y85158D01*
X103336D01*
X103669Y85491D01*
Y86824D01*
X101670Y85158D02*
Y86490D01*
X101004Y87157D01*
X100337Y86490D01*
Y85158D01*
Y86157D01*
X101670D01*
X99671Y85158D02*
X99004D01*
X99337D01*
Y87157D01*
X99671Y86824D01*
X127784Y48241D02*
X127450Y48574D01*
X126784D01*
X126451Y48241D01*
Y46908D01*
X126784Y46575D01*
X127450D01*
X127784Y46908D01*
Y48241D01*
X125784Y48574D02*
Y46575D01*
X124784D01*
X124451Y46908D01*
Y47241D01*
X124784Y47574D01*
X125784D01*
X124784D01*
X124451Y47908D01*
Y48241D01*
X124784Y48574D01*
X125784D01*
X123785Y46575D02*
X123118D01*
X123451D01*
Y48574D01*
X123785Y48241D01*
X146878Y46765D02*
X146545Y47098D01*
X145878D01*
X145545Y46765D01*
Y45432D01*
X145878Y45099D01*
X146545D01*
X146878Y45432D01*
Y46765D01*
X144879Y47098D02*
Y45099D01*
X143879D01*
X143546Y45432D01*
Y45765D01*
X143879Y46098D01*
X144879D01*
X143879D01*
X143546Y46431D01*
Y46765D01*
X143879Y47098D01*
X144879D01*
X141546Y45099D02*
X142879D01*
X141546Y46431D01*
Y46765D01*
X141880Y47098D01*
X142546D01*
X142879Y46765D01*
X164988Y53950D02*
X164655Y54283D01*
X163988D01*
X163655Y53950D01*
Y52617D01*
X163988Y52284D01*
X164655D01*
X164988Y52617D01*
Y53950D01*
X162989Y52284D02*
Y53616D01*
X162322Y54283D01*
X161656Y53616D01*
Y52284D01*
Y53283D01*
X162989D01*
X159657Y52284D02*
X160989D01*
X159657Y53616D01*
Y53950D01*
X159990Y54283D01*
X160656D01*
X160989Y53950D01*
X166732Y71450D02*
X166399Y71783D01*
X165733D01*
X165399Y71450D01*
Y70117D01*
X165733Y69784D01*
X166399D01*
X166732Y70117D01*
Y71450D01*
X164733Y69784D02*
Y71116D01*
X164067Y71783D01*
X163400Y71116D01*
Y69784D01*
Y70783D01*
X164733D01*
X162734Y69784D02*
X162067D01*
X162400D01*
Y71783D01*
X162734Y71450D01*
X201110Y49324D02*
X200777Y49657D01*
X200111D01*
X199777Y49324D01*
Y47991D01*
X200111Y47657D01*
X200777D01*
X201110Y47991D01*
Y49324D01*
X199111Y49657D02*
Y47657D01*
X198111D01*
X197778Y47991D01*
Y48324D01*
X198111Y48657D01*
X199111D01*
X198111D01*
X197778Y48990D01*
Y49324D01*
X198111Y49657D01*
X199111D01*
X197111Y47657D02*
X196445D01*
X196778D01*
Y49657D01*
X197111Y49324D01*
X220992Y54737D02*
X220659Y55070D01*
X219992D01*
X219659Y54737D01*
Y53404D01*
X219992Y53071D01*
X220659D01*
X220992Y53404D01*
Y54737D01*
X218993Y55070D02*
Y53071D01*
X217993D01*
X217660Y53404D01*
Y53737D01*
X217993Y54071D01*
X218993D01*
X217993D01*
X217660Y54404D01*
Y54737D01*
X217993Y55070D01*
X218993D01*
X215661Y53071D02*
X216993D01*
X215661Y54404D01*
Y54737D01*
X215994Y55070D01*
X216660D01*
X216993Y54737D01*
X226969Y71843D02*
X226635Y72176D01*
X225969D01*
X225636Y71843D01*
Y70510D01*
X225969Y70177D01*
X226635D01*
X226969Y70510D01*
Y71843D01*
X224969Y70177D02*
Y71510D01*
X224303Y72176D01*
X223636Y71510D01*
Y70177D01*
Y71177D01*
X224969D01*
X221637Y70177D02*
X222970D01*
X221637Y71510D01*
Y71843D01*
X221970Y72176D01*
X222637D01*
X222970Y71843D01*
X239398Y71245D02*
X239064Y71578D01*
X238398D01*
X238065Y71245D01*
Y69912D01*
X238398Y69579D01*
X239064D01*
X239398Y69912D01*
Y71245D01*
X237398Y69579D02*
Y70912D01*
X236732Y71578D01*
X236065Y70912D01*
Y69579D01*
Y70578D01*
X237398D01*
X235399Y69579D02*
X234733D01*
X235066D01*
Y71578D01*
X235399Y71245D01*
X302783Y48930D02*
X302450Y49263D01*
X301784D01*
X301451Y48930D01*
Y47597D01*
X301784Y47264D01*
X302450D01*
X302783Y47597D01*
Y48930D01*
X300784Y49263D02*
Y47264D01*
X299784D01*
X299451Y47597D01*
Y47930D01*
X299784Y48263D01*
X300784D01*
X299784D01*
X299451Y48597D01*
Y48930D01*
X299784Y49263D01*
X300784D01*
X297452Y47264D02*
X298785D01*
X297452Y48597D01*
Y48930D01*
X297785Y49263D01*
X298451D01*
X298785Y48930D01*
X281622Y49127D02*
X281289Y49460D01*
X280622D01*
X280289Y49127D01*
Y47794D01*
X280622Y47461D01*
X281289D01*
X281622Y47794D01*
Y49127D01*
X279623Y49460D02*
Y47461D01*
X278623D01*
X278290Y47794D01*
Y48127D01*
X278623Y48460D01*
X279623D01*
X278623D01*
X278290Y48794D01*
Y49127D01*
X278623Y49460D01*
X279623D01*
X277623Y47461D02*
X276957D01*
X277290D01*
Y49460D01*
X277623Y49127D01*
X318335Y41154D02*
X318001Y41488D01*
X317335D01*
X317002Y41154D01*
Y39821D01*
X317335Y39488D01*
X318001D01*
X318335Y39821D01*
Y41154D01*
X316335Y39488D02*
Y40821D01*
X315669Y41488D01*
X315002Y40821D01*
Y39488D01*
Y40488D01*
X316335D01*
X313003Y39488D02*
X314336D01*
X313003Y40821D01*
Y41154D01*
X313336Y41488D01*
X314003D01*
X314336Y41154D01*
X341661Y55328D02*
X341328Y55661D01*
X340662D01*
X340329Y55328D01*
Y53995D01*
X340662Y53662D01*
X341328D01*
X341661Y53995D01*
Y55328D01*
X339662Y55661D02*
Y53662D01*
X338662D01*
X338329Y53995D01*
Y54328D01*
X338662Y54661D01*
X339662D01*
X338662D01*
X338329Y54994D01*
Y55328D01*
X338662Y55661D01*
X339662D01*
X337663Y53662D02*
X336996D01*
X337330D01*
Y55661D01*
X337663Y55328D01*
X364587Y60847D02*
X364921Y61180D01*
Y61846D01*
X364587Y62179D01*
X363254D01*
X362921Y61846D01*
Y61180D01*
X363254Y60847D01*
X364587D01*
X364921Y62846D02*
X362921D01*
Y63846D01*
X363254Y64179D01*
X363588D01*
X363921Y63846D01*
Y62846D01*
Y63846D01*
X364254Y64179D01*
X364587D01*
X364921Y63846D01*
Y62846D01*
X362921Y66178D02*
Y64845D01*
X364254Y66178D01*
X364587D01*
X364921Y65845D01*
Y65179D01*
X364587Y64845D01*
X338878Y48123D02*
X338545Y48456D01*
X337878D01*
X337545Y48123D01*
Y46790D01*
X337878Y46457D01*
X338545D01*
X338878Y46790D01*
Y48123D01*
X336879Y46457D02*
Y47790D01*
X336212Y48456D01*
X335546Y47790D01*
Y46457D01*
Y47456D01*
X336879D01*
X334879Y46457D02*
X334213D01*
X334546D01*
Y48456D01*
X334879Y48123D01*
X196250Y299597D02*
Y300929D01*
Y300263D01*
X194251D01*
Y301596D02*
X196250D01*
X195584Y302262D01*
X196250Y302929D01*
X194251D01*
X195917Y304928D02*
X196250Y304595D01*
Y303929D01*
X195917Y303595D01*
X195584D01*
X195250Y303929D01*
Y304595D01*
X194917Y304928D01*
X194584D01*
X194251Y304595D01*
Y303929D01*
X194584Y303595D01*
X194251Y305595D02*
X195584Y306928D01*
X195917Y308927D02*
X196250Y308594D01*
Y307927D01*
X195917Y307594D01*
X195584D01*
X195250Y307927D01*
Y308594D01*
X194917Y308927D01*
X194584D01*
X194251Y308594D01*
Y307927D01*
X194584Y307594D01*
X196250Y309593D02*
X194251D01*
X194917Y310260D01*
X194251Y310926D01*
X196250D01*
Y311593D02*
X194251D01*
Y312592D01*
X194584Y312926D01*
X195917D01*
X196250Y312592D01*
Y311593D01*
Y313592D02*
Y314259D01*
Y313925D01*
X194251D01*
Y313592D01*
Y314259D01*
X196250Y316258D02*
Y315591D01*
X195917Y315258D01*
X194584D01*
X194251Y315591D01*
Y316258D01*
X194584Y316591D01*
X195917D01*
X196250Y316258D01*
X47400Y258399D02*
X46067D01*
X46734D01*
Y256400D01*
X45401D02*
Y258399D01*
X44401D01*
X44068Y258066D01*
Y257400D01*
X44401Y257066D01*
X45401D01*
X42068Y258399D02*
X42735Y258066D01*
X43401Y257400D01*
Y256733D01*
X43068Y256400D01*
X42402D01*
X42068Y256733D01*
Y257066D01*
X42402Y257400D01*
X43401D01*
X41100Y250599D02*
X39767D01*
X40434D01*
Y248600D01*
X39101D02*
Y250599D01*
X38101D01*
X37768Y250266D01*
Y249600D01*
X38101Y249266D01*
X39101D01*
X35768Y250599D02*
X37101D01*
Y249600D01*
X36435Y249933D01*
X36102D01*
X35768Y249600D01*
Y248933D01*
X36102Y248600D01*
X36768D01*
X37101Y248933D01*
X358000Y392999D02*
X356667D01*
X357334D01*
Y391000D01*
X356001D02*
Y392999D01*
X355001D01*
X354668Y392666D01*
Y392000D01*
X355001Y391666D01*
X356001D01*
X352668Y392999D02*
X353335Y392666D01*
X354001Y392000D01*
Y391333D01*
X353668Y391000D01*
X353002D01*
X352668Y391333D01*
Y391666D01*
X353002Y392000D01*
X354001D01*
X352002Y391333D02*
X351669Y391000D01*
X351002D01*
X350669Y391333D01*
Y392666D01*
X351002Y392999D01*
X351669D01*
X352002Y392666D01*
Y392333D01*
X351669Y392000D01*
X350669D01*
X371976Y141291D02*
X370643D01*
X371310D01*
Y139291D01*
X369977D02*
Y141291D01*
X368977D01*
X368644Y140957D01*
Y140291D01*
X368977Y139958D01*
X369977D01*
X366978Y139291D02*
Y141291D01*
X367978Y140291D01*
X366645D01*
X337823Y120228D02*
X336490D01*
X337156D01*
Y118228D01*
X335823D02*
Y120228D01*
X334824D01*
X334491Y119895D01*
Y119228D01*
X334824Y118895D01*
X335823D01*
X333824Y119895D02*
X333491Y120228D01*
X332824D01*
X332491Y119895D01*
Y119561D01*
X332824Y119228D01*
X333158D01*
X332824D01*
X332491Y118895D01*
Y118562D01*
X332824Y118228D01*
X333491D01*
X333824Y118562D01*
X101857Y23430D02*
Y24763D01*
Y24096D01*
X99858D01*
Y25429D02*
X101857D01*
Y26429D01*
X101524Y26762D01*
X100857D01*
X100524Y26429D01*
Y25429D01*
X99858Y27428D02*
Y28095D01*
Y27762D01*
X101857D01*
X101524Y27428D01*
Y29095D02*
X101857Y29428D01*
Y30094D01*
X101524Y30428D01*
X100191D01*
X99858Y30094D01*
Y29428D01*
X100191Y29095D01*
X101524D01*
Y31094D02*
X101857Y31427D01*
Y32094D01*
X101524Y32427D01*
X100191D01*
X99858Y32094D01*
Y31427D01*
X100191Y31094D01*
X101524D01*
X121347Y24693D02*
Y26026D01*
Y25360D01*
X119347D01*
Y26693D02*
X121347D01*
Y27692D01*
X121013Y28026D01*
X120347D01*
X120014Y27692D01*
Y26693D01*
X119681Y28692D02*
X119347Y29025D01*
Y29692D01*
X119681Y30025D01*
X121013D01*
X121347Y29692D01*
Y29025D01*
X121013Y28692D01*
X120680D01*
X120347Y29025D01*
Y30025D01*
X119681Y30691D02*
X119347Y31025D01*
Y31691D01*
X119681Y32024D01*
X121013D01*
X121347Y31691D01*
Y31025D01*
X121013Y30691D01*
X120680D01*
X120347Y31025D01*
Y32024D01*
X131084Y24606D02*
Y25938D01*
Y25272D01*
X129084D01*
Y26605D02*
X131084D01*
Y27605D01*
X130750Y27938D01*
X130084D01*
X129751Y27605D01*
Y26605D01*
X129417Y28604D02*
X129084Y28938D01*
Y29604D01*
X129417Y29937D01*
X130750D01*
X131084Y29604D01*
Y28938D01*
X130750Y28604D01*
X130417D01*
X130084Y28938D01*
Y29937D01*
X130750Y30604D02*
X131084Y30937D01*
Y31603D01*
X130750Y31936D01*
X130417D01*
X130084Y31603D01*
X129751Y31936D01*
X129417D01*
X129084Y31603D01*
Y30937D01*
X129417Y30604D01*
X129751D01*
X130084Y30937D01*
X130417Y30604D01*
X130750D01*
X130084Y30937D02*
Y31603D01*
X141355Y24816D02*
Y26149D01*
Y25483D01*
X139356D01*
Y26816D02*
X141355D01*
Y27815D01*
X141022Y28148D01*
X140355D01*
X140022Y27815D01*
Y26816D01*
X139689Y28815D02*
X139356Y29148D01*
Y29815D01*
X139689Y30148D01*
X141022D01*
X141355Y29815D01*
Y29148D01*
X141022Y28815D01*
X140689D01*
X140355Y29148D01*
Y30148D01*
X141355Y30814D02*
Y32147D01*
X141022D01*
X139689Y30814D01*
X139356D01*
X272090Y23198D02*
Y24531D01*
Y23865D01*
X270091D01*
Y25198D02*
X272090D01*
Y26197D01*
X271757Y26531D01*
X271091D01*
X270757Y26197D01*
Y25198D01*
X270424Y27197D02*
X270091Y27530D01*
Y28197D01*
X270424Y28530D01*
X271757D01*
X272090Y28197D01*
Y27530D01*
X271757Y27197D01*
X271424D01*
X271091Y27530D01*
Y28530D01*
X270091Y30529D02*
Y29196D01*
X271424Y30529D01*
X271757D01*
X272090Y30196D01*
Y29530D01*
X271757Y29196D01*
X290884Y23287D02*
Y24619D01*
Y23953D01*
X288885D01*
Y25286D02*
X290884D01*
Y26286D01*
X290551Y26619D01*
X289885D01*
X289552Y26286D01*
Y25286D01*
X289218Y27285D02*
X288885Y27619D01*
Y28285D01*
X289218Y28618D01*
X290551D01*
X290884Y28285D01*
Y27619D01*
X290551Y27285D01*
X290218D01*
X289885Y27619D01*
Y28618D01*
X288885Y29285D02*
Y29951D01*
Y29618D01*
X290884D01*
X290551Y29285D01*
X300944Y22067D02*
Y23400D01*
Y22733D01*
X298945D01*
Y24066D02*
X300944D01*
Y25066D01*
X300611Y25399D01*
X299945D01*
X299611Y25066D01*
Y24066D01*
X299278Y26066D02*
X298945Y26399D01*
Y27065D01*
X299278Y27399D01*
X300611D01*
X300944Y27065D01*
Y26399D01*
X300611Y26066D01*
X300278D01*
X299945Y26399D01*
Y27399D01*
X300611Y28065D02*
X300944Y28398D01*
Y29065D01*
X300611Y29398D01*
X299278D01*
X298945Y29065D01*
Y28398D01*
X299278Y28065D01*
X300611D01*
X317204Y8996D02*
Y10329D01*
Y9663D01*
X315205D01*
Y10995D02*
X317204D01*
Y11995D01*
X316871Y12328D01*
X316204D01*
X315871Y11995D01*
Y10995D01*
X316871Y12995D02*
X317204Y13328D01*
Y13995D01*
X316871Y14328D01*
X316538D01*
X316204Y13995D01*
X315871Y14328D01*
X315538D01*
X315205Y13995D01*
Y13328D01*
X315538Y12995D01*
X315871D01*
X316204Y13328D01*
X316538Y12995D01*
X316871D01*
X316204Y13328D02*
Y13995D01*
X315538Y14994D02*
X315205Y15327D01*
Y15994D01*
X315538Y16327D01*
X316871D01*
X317204Y15994D01*
Y15327D01*
X316871Y14994D01*
X316538D01*
X316204Y15327D01*
Y16327D01*
X351021Y24206D02*
Y25539D01*
Y24873D01*
X349022D01*
Y26206D02*
X351021D01*
Y27206D01*
X350688Y27539D01*
X350021D01*
X349688Y27206D01*
Y26206D01*
X350688Y28205D02*
X351021Y28538D01*
Y29205D01*
X350688Y29538D01*
X350355D01*
X350021Y29205D01*
X349688Y29538D01*
X349355D01*
X349022Y29205D01*
Y28538D01*
X349355Y28205D01*
X349688D01*
X350021Y28538D01*
X350355Y28205D01*
X350688D01*
X350021Y28538D02*
Y29205D01*
X351021Y30204D02*
Y31537D01*
X350688D01*
X349355Y30204D01*
X349022D01*
X361060Y24236D02*
Y25569D01*
Y24902D01*
X359061D01*
Y26235D02*
X361060D01*
Y27235D01*
X360727Y27568D01*
X360060D01*
X359727Y27235D01*
Y26235D01*
X360727Y28234D02*
X361060Y28567D01*
Y29234D01*
X360727Y29567D01*
X360394D01*
X360060Y29234D01*
X359727Y29567D01*
X359394D01*
X359061Y29234D01*
Y28567D01*
X359394Y28234D01*
X359727D01*
X360060Y28567D01*
X360394Y28234D01*
X360727D01*
X360060Y28567D02*
Y29234D01*
X361060Y31567D02*
X360727Y30900D01*
X360060Y30234D01*
X359394D01*
X359061Y30567D01*
Y31233D01*
X359394Y31567D01*
X359727D01*
X360060Y31233D01*
Y30234D01*
X371219Y24774D02*
Y26107D01*
Y25440D01*
X369219D01*
Y26773D02*
X371219D01*
Y27773D01*
X370886Y28106D01*
X370219D01*
X369886Y27773D01*
Y26773D01*
X370886Y28773D02*
X371219Y29106D01*
Y29772D01*
X370886Y30105D01*
X370552D01*
X370219Y29772D01*
X369886Y30105D01*
X369553D01*
X369219Y29772D01*
Y29106D01*
X369553Y28773D01*
X369886D01*
X370219Y29106D01*
X370552Y28773D01*
X370886D01*
X370219Y29106D02*
Y29772D01*
X371219Y32105D02*
Y30772D01*
X370219D01*
X370552Y31438D01*
Y31772D01*
X370219Y32105D01*
X369553D01*
X369219Y31772D01*
Y31105D01*
X369553Y30772D01*
X71349Y22915D02*
Y24248D01*
Y23582D01*
X69349D01*
Y24915D02*
X71349D01*
Y25914D01*
X71016Y26248D01*
X70349D01*
X70016Y25914D01*
Y24915D01*
X69349Y26914D02*
Y27580D01*
Y27247D01*
X71349D01*
X71016Y26914D01*
X69683Y28580D02*
X69349Y28913D01*
Y29580D01*
X69683Y29913D01*
X71016D01*
X71349Y29580D01*
Y28913D01*
X71016Y28580D01*
X70682D01*
X70349Y28913D01*
Y29913D01*
X81115Y22449D02*
Y23782D01*
Y23116D01*
X79115D01*
Y24449D02*
X81115D01*
Y25449D01*
X80781Y25782D01*
X80115D01*
X79782Y25449D01*
Y24449D01*
X79115Y26448D02*
Y27115D01*
Y26781D01*
X81115D01*
X80781Y26448D01*
Y28114D02*
X81115Y28447D01*
Y29114D01*
X80781Y29447D01*
X80448D01*
X80115Y29114D01*
X79782Y29447D01*
X79448D01*
X79115Y29114D01*
Y28447D01*
X79448Y28114D01*
X79782D01*
X80115Y28447D01*
X80448Y28114D01*
X80781D01*
X80115Y28447D02*
Y29114D01*
X291794Y156939D02*
X290461D01*
X291128D01*
Y154939D01*
X289795D02*
Y156939D01*
X288795D01*
X288462Y156605D01*
Y155939D01*
X288795Y155606D01*
X289795D01*
X287795Y154939D02*
X287129D01*
X287462D01*
Y156939D01*
X287795Y156605D01*
X284796Y154939D02*
X286129D01*
X284796Y156272D01*
Y156605D01*
X285130Y156939D01*
X285796D01*
X286129Y156605D01*
X291268Y168948D02*
X289935D01*
X290601D01*
Y166949D01*
X289268D02*
Y168948D01*
X288269D01*
X287935Y168615D01*
Y167949D01*
X288269Y167615D01*
X289268D01*
X287269Y166949D02*
X286603D01*
X286936D01*
Y168948D01*
X287269Y168615D01*
X285603D02*
X285270Y168948D01*
X284603D01*
X284270Y168615D01*
Y167282D01*
X284603Y166949D01*
X285270D01*
X285603Y167282D01*
Y168615D01*
X241071Y170129D02*
X239738D01*
X240404D01*
Y168130D01*
X239071D02*
Y170129D01*
X238072D01*
X237739Y169796D01*
Y169130D01*
X238072Y168796D01*
X239071D01*
X237072Y168463D02*
X236739Y168130D01*
X236072D01*
X235739Y168463D01*
Y169796D01*
X236072Y170129D01*
X236739D01*
X237072Y169796D01*
Y169463D01*
X236739Y169130D01*
X235739D01*
X61445Y24843D02*
Y26175D01*
Y25509D01*
X59446D01*
Y26842D02*
X61445D01*
Y27841D01*
X61112Y28175D01*
X60446D01*
X60113Y27841D01*
Y26842D01*
X59446Y30174D02*
Y28841D01*
X60779Y30174D01*
X61112D01*
X61445Y29841D01*
Y29174D01*
X61112Y28841D01*
X41763Y26476D02*
Y27809D01*
Y27143D01*
X39764D01*
Y28476D02*
X41763D01*
Y29475D01*
X41430Y29809D01*
X40764D01*
X40430Y29475D01*
Y28476D01*
X39764Y30475D02*
Y31141D01*
Y30808D01*
X41763D01*
X41430Y30475D01*
X341661Y327216D02*
X340329D01*
X340995D01*
Y325217D01*
X339662D02*
Y327216D01*
X338662D01*
X338329Y326883D01*
Y326216D01*
X338662Y325883D01*
X339662D01*
X336663Y325217D02*
Y327216D01*
X337663Y326216D01*
X336330D01*
X335663Y326883D02*
X335330Y327216D01*
X334664D01*
X334331Y326883D01*
Y326550D01*
X334664Y326216D01*
X334997D01*
X334664D01*
X334331Y325883D01*
Y325550D01*
X334664Y325217D01*
X335330D01*
X335663Y325550D01*
X329532Y313758D02*
X328199D01*
X328866D01*
Y311758D01*
X327533D02*
Y313758D01*
X326533D01*
X326200Y313424D01*
Y312758D01*
X326533Y312425D01*
X327533D01*
X324534Y311758D02*
Y313758D01*
X325534Y312758D01*
X324201D01*
X323534Y313424D02*
X323201Y313758D01*
X322534D01*
X322201Y313424D01*
Y313091D01*
X322534Y312758D01*
X322201Y312425D01*
Y312092D01*
X322534Y311758D01*
X323201D01*
X323534Y312092D01*
Y312425D01*
X323201Y312758D01*
X323534Y313091D01*
Y313424D01*
X323201Y312758D02*
X322534D01*
X349510Y314068D02*
X348177D01*
X348843D01*
Y312069D01*
X347510D02*
Y314068D01*
X346510D01*
X346177Y313735D01*
Y313068D01*
X346510Y312735D01*
X347510D01*
X344511Y312069D02*
Y314068D01*
X345511Y313068D01*
X344178D01*
X342512Y312069D02*
Y314068D01*
X343511Y313068D01*
X342179D01*
X399065Y292756D02*
X397732D01*
X398398D01*
Y290757D01*
X397065D02*
Y292756D01*
X396065D01*
X395732Y292423D01*
Y291756D01*
X396065Y291423D01*
X397065D01*
X393733Y292756D02*
X395066D01*
Y291756D01*
X394399Y292090D01*
X394066D01*
X393733Y291756D01*
Y291090D01*
X394066Y290757D01*
X394733D01*
X395066Y291090D01*
X393067Y290757D02*
X392400D01*
X392733D01*
Y292756D01*
X393067Y292423D01*
X322553Y377297D02*
X321221D01*
X321887D01*
Y375298D01*
X320554D02*
Y377297D01*
X319554D01*
X319221Y376964D01*
Y376297D01*
X319554Y375964D01*
X320554D01*
X317555Y375298D02*
Y377297D01*
X318555Y376297D01*
X317222D01*
X315223Y377297D02*
X316556D01*
Y376297D01*
X315889Y376631D01*
X315556D01*
X315223Y376297D01*
Y375631D01*
X315556Y375298D01*
X316222D01*
X316556Y375631D01*
X380539Y177118D02*
X379206D01*
X379873D01*
Y175118D01*
X378540D02*
Y177118D01*
X377540D01*
X377207Y176784D01*
Y176118D01*
X377540Y175785D01*
X378540D01*
X375208Y177118D02*
X375874Y176784D01*
X376541Y176118D01*
Y175451D01*
X376207Y175118D01*
X375541D01*
X375208Y175451D01*
Y175785D01*
X375541Y176118D01*
X376541D01*
X374541Y176784D02*
X374208Y177118D01*
X373542D01*
X373208Y176784D01*
Y176451D01*
X373542Y176118D01*
X373208Y175785D01*
Y175451D01*
X373542Y175118D01*
X374208D01*
X374541Y175451D01*
Y175785D01*
X374208Y176118D01*
X374541Y176451D01*
Y176784D01*
X374208Y176118D02*
X373542D01*
X48245Y217715D02*
X46912D01*
X47579D01*
Y215716D01*
X46246D02*
Y217715D01*
X45246D01*
X44913Y217382D01*
Y216715D01*
X45246Y216382D01*
X46246D01*
X42913Y217715D02*
X43580Y217382D01*
X44246Y216715D01*
Y216049D01*
X43913Y215716D01*
X43247D01*
X42913Y216049D01*
Y216382D01*
X43247Y216715D01*
X44246D01*
X42247Y217382D02*
X41914Y217715D01*
X41247D01*
X40914Y217382D01*
Y216049D01*
X41247Y215716D01*
X41914D01*
X42247Y216049D01*
Y217382D01*
X56288Y238269D02*
X54955D01*
X55622D01*
Y236270D01*
X54289D02*
Y238269D01*
X53289D01*
X52956Y237936D01*
Y237269D01*
X53289Y236936D01*
X54289D01*
X50956Y238269D02*
X51623Y237936D01*
X52289Y237269D01*
Y236603D01*
X51956Y236270D01*
X51290D01*
X50956Y236603D01*
Y236936D01*
X51290Y237269D01*
X52289D01*
X50290Y236270D02*
X49624D01*
X49957D01*
Y238269D01*
X50290Y237936D01*
X171933Y367586D02*
X170600D01*
X171267D01*
Y365586D01*
X169934D02*
Y367586D01*
X168934D01*
X168601Y367253D01*
Y366586D01*
X168934Y366253D01*
X169934D01*
X166935Y365586D02*
Y367586D01*
X167935Y366586D01*
X166602D01*
X165935Y365586D02*
X165269D01*
X165602D01*
Y367586D01*
X165935Y367253D01*
X396484Y132629D02*
X395151D01*
X395818D01*
Y130630D01*
X394485D02*
Y132629D01*
X393485D01*
X393152Y132296D01*
Y131630D01*
X393485Y131296D01*
X394485D01*
X392486Y132629D02*
X391153D01*
Y132296D01*
X392486Y130963D01*
Y130630D01*
X390486Y130963D02*
X390153Y130630D01*
X389487D01*
X389153Y130963D01*
Y132296D01*
X389487Y132629D01*
X390153D01*
X390486Y132296D01*
Y131963D01*
X390153Y131630D01*
X389153D01*
X392749Y233937D02*
X391416D01*
X392082D01*
Y231938D01*
X390750D02*
Y233937D01*
X389750D01*
X389417Y233604D01*
Y232938D01*
X389750Y232604D01*
X390750D01*
X387417Y233937D02*
X388750D01*
Y232938D01*
X388084Y233271D01*
X387750D01*
X387417Y232938D01*
Y232271D01*
X387750Y231938D01*
X388417D01*
X388750Y232271D01*
X386751Y233937D02*
X385418D01*
Y233604D01*
X386751Y232271D01*
Y231938D01*
X189474Y362712D02*
X188141D01*
X188808D01*
Y360713D01*
X187475D02*
Y362712D01*
X186475D01*
X186142Y362379D01*
Y361712D01*
X186475Y361379D01*
X187475D01*
X184476Y360713D02*
Y362712D01*
X185475Y361712D01*
X184142D01*
X182143Y362712D02*
X182809Y362379D01*
X183476Y361712D01*
Y361046D01*
X183143Y360713D01*
X182476D01*
X182143Y361046D01*
Y361379D01*
X182476Y361712D01*
X183476D01*
X40624Y351750D02*
X39291D01*
X39958D01*
Y349751D01*
X38625D02*
Y351750D01*
X37625D01*
X37292Y351417D01*
Y350751D01*
X37625Y350417D01*
X38625D01*
X35626Y349751D02*
Y351750D01*
X36625Y350751D01*
X35292D01*
X33293Y349751D02*
X34626D01*
X33293Y351084D01*
Y351417D01*
X33626Y351750D01*
X34293D01*
X34626Y351417D01*
X253276Y314814D02*
X251943D01*
X252609D01*
Y312815D01*
X251276D02*
Y314814D01*
X250277D01*
X249943Y314481D01*
Y313815D01*
X250277Y313481D01*
X251276D01*
X248277Y312815D02*
Y314814D01*
X249277Y313815D01*
X247944D01*
X247277Y314814D02*
X245945D01*
Y314481D01*
X247277Y313148D01*
Y312815D01*
X272075Y319342D02*
X270742D01*
X271408D01*
Y317343D01*
X270075D02*
Y319342D01*
X269076D01*
X268742Y319009D01*
Y318342D01*
X269076Y318009D01*
X270075D01*
X268076Y319009D02*
X267743Y319342D01*
X267076D01*
X266743Y319009D01*
Y318675D01*
X267076Y318342D01*
X267410D01*
X267076D01*
X266743Y318009D01*
Y317676D01*
X267076Y317343D01*
X267743D01*
X268076Y317676D01*
X264744Y319342D02*
X265410Y319009D01*
X266077Y318342D01*
Y317676D01*
X265743Y317343D01*
X265077D01*
X264744Y317676D01*
Y318009D01*
X265077Y318342D01*
X266077D01*
X248287Y134469D02*
Y135801D01*
Y135135D01*
X246287D01*
Y136468D02*
X248287D01*
Y137468D01*
X247954Y137801D01*
X247287D01*
X246954Y137468D01*
Y136468D01*
X248287Y138467D02*
Y139800D01*
X247954D01*
X246621Y138467D01*
X246287D01*
X247954Y140467D02*
X248287Y140800D01*
Y141466D01*
X247954Y141799D01*
X247620D01*
X247287Y141466D01*
X246954Y141799D01*
X246621D01*
X246287Y141466D01*
Y140800D01*
X246621Y140467D01*
X246954D01*
X247287Y140800D01*
X247620Y140467D01*
X247954D01*
X247287Y140800D02*
Y141466D01*
X236476Y134764D02*
Y136097D01*
Y135430D01*
X234476D01*
Y136763D02*
X236476D01*
Y137763D01*
X236142Y138096D01*
X235476D01*
X235143Y137763D01*
Y136763D01*
X236476Y138763D02*
Y140095D01*
X236142D01*
X234810Y138763D01*
X234476D01*
Y141762D02*
X236476D01*
X235476Y140762D01*
Y142095D01*
X259015Y134370D02*
Y135703D01*
Y135037D01*
X257016D01*
Y136370D02*
X259015D01*
Y137369D01*
X258682Y137702D01*
X258015D01*
X257682Y137369D01*
Y136370D01*
X259015Y138369D02*
Y139702D01*
X258682D01*
X257349Y138369D01*
X257016D01*
X259015Y141701D02*
Y140368D01*
X258015D01*
X258349Y141035D01*
Y141368D01*
X258015Y141701D01*
X257349D01*
X257016Y141368D01*
Y140701D01*
X257349Y140368D01*
X273385Y132598D02*
Y133931D01*
Y133265D01*
X271386D01*
Y134598D02*
X273385D01*
Y135598D01*
X273052Y135931D01*
X272386D01*
X272052Y135598D01*
Y134598D01*
X273385Y136597D02*
Y137930D01*
X273052D01*
X271719Y136597D01*
X271386D01*
X273385Y139929D02*
X273052Y139263D01*
X272386Y138596D01*
X271719D01*
X271386Y138930D01*
Y139596D01*
X271719Y139929D01*
X272052D01*
X272386Y139596D01*
Y138596D01*
X267381Y134469D02*
Y135801D01*
Y135135D01*
X265382D01*
Y136468D02*
X267381D01*
Y137468D01*
X267048Y137801D01*
X266382D01*
X266048Y137468D01*
Y136468D01*
X267381Y138467D02*
Y139800D01*
X267048D01*
X265715Y138467D01*
X265382D01*
X267381Y140467D02*
Y141799D01*
X267048D01*
X265715Y140467D01*
X265382D01*
X65909Y356367D02*
X64576D01*
X65242D01*
Y354367D01*
X63910D02*
Y356367D01*
X62910D01*
X62577Y356033D01*
Y355367D01*
X62910Y355034D01*
X63910D01*
X60911Y354367D02*
Y356367D01*
X61910Y355367D01*
X60577D01*
X59911Y356033D02*
X59578Y356367D01*
X58911D01*
X58578Y356033D01*
Y354701D01*
X58911Y354367D01*
X59578D01*
X59911Y354701D01*
Y356033D01*
X100797Y352248D02*
X99464D01*
X100131D01*
Y350249D01*
X98798D02*
Y352248D01*
X97798D01*
X97465Y351915D01*
Y351249D01*
X97798Y350915D01*
X98798D01*
X96799Y351915D02*
X96465Y352248D01*
X95799D01*
X95466Y351915D01*
Y351582D01*
X95799Y351249D01*
X96132D01*
X95799D01*
X95466Y350915D01*
Y350582D01*
X95799Y350249D01*
X96465D01*
X96799Y350582D01*
X94799D02*
X94466Y350249D01*
X93800D01*
X93466Y350582D01*
Y351915D01*
X93800Y352248D01*
X94466D01*
X94799Y351915D01*
Y351582D01*
X94466Y351249D01*
X93466D01*
X140129Y352485D02*
X138796D01*
X139462D01*
Y350485D01*
X138129D02*
Y352485D01*
X137130D01*
X136797Y352152D01*
Y351485D01*
X137130Y351152D01*
X138129D01*
X136130Y352152D02*
X135797Y352485D01*
X135131D01*
X134797Y352152D01*
Y351818D01*
X135131Y351485D01*
X135464D01*
X135131D01*
X134797Y351152D01*
Y350819D01*
X135131Y350485D01*
X135797D01*
X136130Y350819D01*
X134131Y352152D02*
X133798Y352485D01*
X133131D01*
X132798Y352152D01*
Y351818D01*
X133131Y351485D01*
X132798Y351152D01*
Y350819D01*
X133131Y350485D01*
X133798D01*
X134131Y350819D01*
Y351152D01*
X133798Y351485D01*
X134131Y351818D01*
Y352152D01*
X133798Y351485D02*
X133131D01*
X207884Y345104D02*
Y346437D01*
Y345771D01*
X205885D01*
Y347104D02*
X207884D01*
Y348103D01*
X207551Y348437D01*
X206885D01*
X206551Y348103D01*
Y347104D01*
X207551Y349103D02*
X207884Y349436D01*
Y350103D01*
X207551Y350436D01*
X207218D01*
X206885Y350103D01*
Y349769D01*
Y350103D01*
X206551Y350436D01*
X206218D01*
X205885Y350103D01*
Y349436D01*
X206218Y349103D01*
X207884Y351102D02*
Y352435D01*
X207551D01*
X206218Y351102D01*
X205885D01*
X399444Y332927D02*
X398111D01*
X398778D01*
Y330928D01*
X397445D02*
Y332927D01*
X396445D01*
X396112Y332594D01*
Y331927D01*
X396445Y331594D01*
X397445D01*
X394112Y332927D02*
X395445D01*
Y331927D01*
X394779Y332260D01*
X394446D01*
X394112Y331927D01*
Y331261D01*
X394446Y330928D01*
X395112D01*
X395445Y331261D01*
X392113Y332927D02*
X393446D01*
Y331927D01*
X392780Y332260D01*
X392446D01*
X392113Y331927D01*
Y331261D01*
X392446Y330928D01*
X393113D01*
X393446Y331261D01*
X209018Y11559D02*
X207685D01*
X208351D01*
Y9560D01*
X207019D02*
Y11559D01*
X206019D01*
X205686Y11226D01*
Y10559D01*
X206019Y10226D01*
X207019D01*
X205019Y9893D02*
X204686Y9560D01*
X204020D01*
X203686Y9893D01*
Y11226D01*
X204020Y11559D01*
X204686D01*
X205019Y11226D01*
Y10893D01*
X204686Y10559D01*
X203686D01*
X201687Y11559D02*
X203020D01*
Y10559D01*
X202353Y10893D01*
X202020D01*
X201687Y10559D01*
Y9893D01*
X202020Y9560D01*
X202687D01*
X203020Y9893D01*
X173365Y28602D02*
Y29935D01*
Y29269D01*
X171366D01*
Y30602D02*
X173365D01*
Y31602D01*
X173032Y31935D01*
X172366D01*
X172033Y31602D01*
Y30602D01*
X171699Y32601D02*
X171366Y32934D01*
Y33601D01*
X171699Y33934D01*
X173032D01*
X173365Y33601D01*
Y32934D01*
X173032Y32601D01*
X172699D01*
X172366Y32934D01*
Y33934D01*
X173365Y35933D02*
X173032Y35267D01*
X172366Y34600D01*
X171699D01*
X171366Y34934D01*
Y35600D01*
X171699Y35933D01*
X172033D01*
X172366Y35600D01*
Y34600D01*
X260944Y12402D02*
Y13735D01*
Y13068D01*
X258945D01*
Y14401D02*
X260944D01*
Y15401D01*
X260611Y15734D01*
X259945D01*
X259611Y15401D01*
Y14401D01*
X259278Y16400D02*
X258945Y16734D01*
Y17400D01*
X259278Y17733D01*
X260611D01*
X260944Y17400D01*
Y16734D01*
X260611Y16400D01*
X260278D01*
X259945Y16734D01*
Y17733D01*
X260611Y18400D02*
X260944Y18733D01*
Y19399D01*
X260611Y19733D01*
X260278D01*
X259945Y19399D01*
Y19066D01*
Y19399D01*
X259611Y19733D01*
X259278D01*
X258945Y19399D01*
Y18733D01*
X259278Y18400D01*
X240846Y18268D02*
Y19601D01*
Y18934D01*
X238846D01*
Y20267D02*
X240846D01*
Y21267D01*
X240513Y21600D01*
X239846D01*
X239513Y21267D01*
Y20267D01*
X239180Y22266D02*
X238846Y22600D01*
Y23266D01*
X239180Y23599D01*
X240513D01*
X240846Y23266D01*
Y22600D01*
X240513Y22266D01*
X240179D01*
X239846Y22600D01*
Y23599D01*
X238846Y25265D02*
X240846D01*
X239846Y24266D01*
Y25599D01*
X267843Y168456D02*
X266510D01*
X267176D01*
Y166457D01*
X265843D02*
Y168456D01*
X264844D01*
X264510Y168123D01*
Y167456D01*
X264844Y167123D01*
X265843D01*
X263844Y166457D02*
X263177D01*
X263511D01*
Y168456D01*
X263844Y168123D01*
X262178D02*
X261844Y168456D01*
X261178D01*
X260845Y168123D01*
Y166790D01*
X261178Y166457D01*
X261844D01*
X262178Y166790D01*
Y168123D01*
X260178Y166457D02*
X259512D01*
X259845D01*
Y168456D01*
X260178Y168123D01*
X269836Y252315D02*
Y253648D01*
Y252981D01*
X267836D01*
Y254314D02*
X269836D01*
Y255314D01*
X269502Y255647D01*
X268836D01*
X268503Y255314D01*
Y254314D01*
X269836Y257647D02*
Y256314D01*
X268836D01*
X269169Y256980D01*
Y257313D01*
X268836Y257647D01*
X268169D01*
X267836Y257313D01*
Y256647D01*
X268169Y256314D01*
X267836Y259313D02*
X269836D01*
X268836Y258313D01*
Y259646D01*
X164021Y245169D02*
Y246501D01*
Y245835D01*
X162022D01*
Y247168D02*
X164021D01*
Y248168D01*
X163688Y248501D01*
X163022D01*
X162689Y248168D01*
Y247168D01*
X164021Y250500D02*
Y249167D01*
X163022D01*
X163355Y249834D01*
Y250167D01*
X163022Y250500D01*
X162355D01*
X162022Y250167D01*
Y249500D01*
X162355Y249167D01*
X164021Y252500D02*
X163688Y251833D01*
X163022Y251167D01*
X162355D01*
X162022Y251500D01*
Y252166D01*
X162355Y252500D01*
X162689D01*
X163022Y252166D01*
Y251167D01*
X192648Y298612D02*
Y299945D01*
Y299278D01*
X190649D01*
Y300611D02*
X192648D01*
Y301611D01*
X192315Y301944D01*
X191649D01*
X191315Y301611D01*
Y300611D01*
X190649Y303610D02*
X192648D01*
X191649Y302610D01*
Y303943D01*
X190982Y304610D02*
X190649Y304943D01*
Y305609D01*
X190982Y305943D01*
X192315D01*
X192648Y305609D01*
Y304943D01*
X192315Y304610D01*
X191982D01*
X191649Y304943D01*
Y305943D01*
X185773Y274350D02*
Y275683D01*
Y275016D01*
X183773D01*
Y276349D02*
X185773D01*
Y277349D01*
X185439Y277682D01*
X184773D01*
X184440Y277349D01*
Y276349D01*
X185773Y279681D02*
Y278348D01*
X184773D01*
X185106Y279015D01*
Y279348D01*
X184773Y279681D01*
X184107D01*
X183773Y279348D01*
Y278682D01*
X184107Y278348D01*
X183773Y281681D02*
Y280348D01*
X185106Y281681D01*
X185439D01*
X185773Y281347D01*
Y280681D01*
X185439Y280348D01*
X185945Y299478D02*
Y300811D01*
Y300144D01*
X183946D01*
Y301477D02*
X185945D01*
Y302477D01*
X185612Y302810D01*
X184945D01*
X184612Y302477D01*
Y301477D01*
X185945Y304809D02*
Y303476D01*
X184945D01*
X185279Y304143D01*
Y304476D01*
X184945Y304809D01*
X184279D01*
X183946Y304476D01*
Y303810D01*
X184279Y303476D01*
X185612Y305476D02*
X185945Y305809D01*
Y306475D01*
X185612Y306809D01*
X184279D01*
X183946Y306475D01*
Y305809D01*
X184279Y305476D01*
X185612D01*
X171796Y280649D02*
Y281982D01*
Y281315D01*
X169797D01*
Y282648D02*
X171796D01*
Y283648D01*
X171463Y283981D01*
X170797D01*
X170463Y283648D01*
Y282648D01*
X171796Y285981D02*
Y284648D01*
X170797D01*
X171130Y285314D01*
Y285647D01*
X170797Y285981D01*
X170130D01*
X169797Y285647D01*
Y284981D01*
X170130Y284648D01*
X171463Y286647D02*
X171796Y286980D01*
Y287647D01*
X171463Y287980D01*
X171130D01*
X170797Y287647D01*
Y287313D01*
Y287647D01*
X170463Y287980D01*
X170130D01*
X169797Y287647D01*
Y286980D01*
X170130Y286647D01*
X22655Y138984D02*
X21322D01*
X21989D01*
Y136984D01*
X20656D02*
Y138984D01*
X19656D01*
X19323Y138650D01*
Y137984D01*
X19656Y137651D01*
X20656D01*
X18656Y136984D02*
X17990D01*
X18323D01*
Y138984D01*
X18656Y138650D01*
X16990D02*
X16657Y138984D01*
X15991D01*
X15657Y138650D01*
Y138317D01*
X15991Y137984D01*
X16324D01*
X15991D01*
X15657Y137651D01*
Y137318D01*
X15991Y136984D01*
X16657D01*
X16990Y137318D01*
X40185Y178692D02*
X38852D01*
X39519D01*
Y176693D01*
X38186D02*
Y178692D01*
X37186D01*
X36853Y178359D01*
Y177693D01*
X37186Y177359D01*
X38186D01*
X36186Y176693D02*
X35520D01*
X35853D01*
Y178692D01*
X36186Y178359D01*
X33520Y176693D02*
Y178692D01*
X34520Y177693D01*
X33187D01*
X65677Y179873D02*
X64344D01*
X65011D01*
Y177874D01*
X63678D02*
Y179873D01*
X62678D01*
X62345Y179540D01*
Y178874D01*
X62678Y178541D01*
X63678D01*
X61678Y177874D02*
X61012D01*
X61345D01*
Y179873D01*
X61678Y179540D01*
X58679Y179873D02*
X60012D01*
Y178874D01*
X59346Y179207D01*
X59013D01*
X58679Y178874D01*
Y178207D01*
X59013Y177874D01*
X59679D01*
X60012Y178207D01*
X66760Y158712D02*
X65427D01*
X66093D01*
Y156713D01*
X64761D02*
Y158712D01*
X63761D01*
X63428Y158379D01*
Y157712D01*
X63761Y157379D01*
X64761D01*
X62761Y156713D02*
X62095D01*
X62428D01*
Y158712D01*
X62761Y158379D01*
X59762Y158712D02*
X60429Y158379D01*
X61095Y157712D01*
Y157046D01*
X60762Y156713D01*
X60095D01*
X59762Y157046D01*
Y157379D01*
X60095Y157712D01*
X61095D01*
X42165Y189814D02*
X40832D01*
X41499D01*
Y187815D01*
X40166D02*
Y189814D01*
X39166D01*
X38833Y189481D01*
Y188815D01*
X39166Y188481D01*
X40166D01*
X36834Y187815D02*
X38167D01*
X36834Y189148D01*
Y189481D01*
X37167Y189814D01*
X37833D01*
X38167Y189481D01*
X36167D02*
X35834Y189814D01*
X35168D01*
X34834Y189481D01*
Y188148D01*
X35168Y187815D01*
X35834D01*
X36167Y188148D01*
Y189481D01*
X66071Y190208D02*
X64738D01*
X65404D01*
Y188209D01*
X64072D02*
Y190208D01*
X63072D01*
X62739Y189875D01*
Y189208D01*
X63072Y188875D01*
X64072D01*
X60739Y188209D02*
X62072D01*
X60739Y189542D01*
Y189875D01*
X61072Y190208D01*
X61739D01*
X62072Y189875D01*
X60073Y188209D02*
X59406D01*
X59740D01*
Y190208D01*
X60073Y189875D01*
X52252Y170011D02*
X50919D01*
X51586D01*
Y168012D01*
X50253D02*
Y170011D01*
X49253D01*
X48920Y169678D01*
Y169012D01*
X49253Y168678D01*
X50253D01*
X46920Y168012D02*
X48253D01*
X46920Y169345D01*
Y169678D01*
X47254Y170011D01*
X47920D01*
X48253Y169678D01*
X44921Y168012D02*
X46254D01*
X44921Y169345D01*
Y169678D01*
X45254Y170011D01*
X45921D01*
X46254Y169678D01*
X136178Y226663D02*
X134845D01*
X135511D01*
Y224663D01*
X134178D02*
Y226663D01*
X133179D01*
X132845Y226329D01*
Y225663D01*
X133179Y225330D01*
X134178D01*
X130846Y224663D02*
X132179D01*
X130846Y225996D01*
Y226329D01*
X131179Y226663D01*
X131846D01*
X132179Y226329D01*
X130180D02*
X129846Y226663D01*
X129180D01*
X128847Y226329D01*
Y225996D01*
X129180Y225663D01*
X129513D01*
X129180D01*
X128847Y225330D01*
Y224997D01*
X129180Y224663D01*
X129846D01*
X130180Y224997D01*
X156856Y284918D02*
Y286251D01*
Y285584D01*
X154857D01*
Y286917D02*
X156856D01*
Y287917D01*
X156523Y288250D01*
X155857D01*
X155523Y287917D01*
Y286917D01*
X154857Y290249D02*
Y288916D01*
X156190Y290249D01*
X156523D01*
X156856Y289916D01*
Y289250D01*
X156523Y288916D01*
X154857Y291915D02*
X156856D01*
X155857Y290916D01*
Y292249D01*
X181953Y272159D02*
X180620D01*
X181286D01*
Y270159D01*
X179953D02*
Y272159D01*
X178954D01*
X178621Y271825D01*
Y271159D01*
X178954Y270826D01*
X179953D01*
X176621Y270159D02*
X177954D01*
X176621Y271492D01*
Y271825D01*
X176954Y272159D01*
X177621D01*
X177954Y271825D01*
X174622Y272159D02*
X175288Y271825D01*
X175955Y271159D01*
Y270493D01*
X175621Y270159D01*
X174955D01*
X174622Y270493D01*
Y270826D01*
X174955Y271159D01*
X175955D01*
X140382Y175543D02*
X139049D01*
X139715D01*
Y173543D01*
X138382D02*
Y175543D01*
X137383D01*
X137050Y175209D01*
Y174543D01*
X137383Y174210D01*
X138382D01*
X135050Y173543D02*
X136383D01*
X135050Y174876D01*
Y175209D01*
X135383Y175543D01*
X136050D01*
X136383Y175209D01*
X134384Y175543D02*
X133051D01*
Y175209D01*
X134384Y173877D01*
Y173543D01*
X230754Y292643D02*
X229421D01*
X230088D01*
Y290644D01*
X228755D02*
Y292643D01*
X227755D01*
X227422Y292310D01*
Y291643D01*
X227755Y291310D01*
X228755D01*
X225423Y290644D02*
X226756D01*
X225423Y291977D01*
Y292310D01*
X225756Y292643D01*
X226423D01*
X226756Y292310D01*
X224756D02*
X224423Y292643D01*
X223757D01*
X223424Y292310D01*
Y291977D01*
X223757Y291643D01*
X223424Y291310D01*
Y290977D01*
X223757Y290644D01*
X224423D01*
X224756Y290977D01*
Y291310D01*
X224423Y291643D01*
X224756Y291977D01*
Y292310D01*
X224423Y291643D02*
X223757D01*
X114519Y242693D02*
X113186D01*
X113852D01*
Y240693D01*
X112520D02*
Y242693D01*
X111520D01*
X111187Y242359D01*
Y241693D01*
X111520Y241360D01*
X112520D01*
X109187Y240693D02*
X110520D01*
X109187Y242026D01*
Y242359D01*
X109520Y242693D01*
X110187D01*
X110520Y242359D01*
X108521Y241027D02*
X108188Y240693D01*
X107521D01*
X107188Y241027D01*
Y242359D01*
X107521Y242693D01*
X108188D01*
X108521Y242359D01*
Y242026D01*
X108188Y241693D01*
X107188D01*
X36764Y281268D02*
X35431D01*
X36098D01*
Y279269D01*
X34765D02*
Y281268D01*
X33765D01*
X33432Y280935D01*
Y280269D01*
X33765Y279936D01*
X34765D01*
X32765Y280935D02*
X32432Y281268D01*
X31766D01*
X31433Y280935D01*
Y280602D01*
X31766Y280269D01*
X32099D01*
X31766D01*
X31433Y279936D01*
Y279602D01*
X31766Y279269D01*
X32432D01*
X32765Y279602D01*
X30766Y280935D02*
X30433Y281268D01*
X29766D01*
X29433Y280935D01*
Y279602D01*
X29766Y279269D01*
X30433D01*
X30766Y279602D01*
Y280935D01*
X75556Y225479D02*
X74223D01*
X74890D01*
Y223479D01*
X73557D02*
Y225479D01*
X72557D01*
X72224Y225145D01*
Y224479D01*
X72557Y224146D01*
X73557D01*
X71558Y225145D02*
X71224Y225479D01*
X70558D01*
X70225Y225145D01*
Y224812D01*
X70558Y224479D01*
X70891D01*
X70558D01*
X70225Y224146D01*
Y223812D01*
X70558Y223479D01*
X71224D01*
X71558Y223812D01*
X69558Y223479D02*
X68892D01*
X69225D01*
Y225479D01*
X69558Y225145D01*
X146287Y251625D02*
X144955D01*
X145621D01*
Y249626D01*
X144288D02*
Y251625D01*
X143288D01*
X142955Y251292D01*
Y250626D01*
X143288Y250292D01*
X144288D01*
X142289Y251292D02*
X141955Y251625D01*
X141289D01*
X140956Y251292D01*
Y250959D01*
X141289Y250626D01*
X141622D01*
X141289D01*
X140956Y250292D01*
Y249959D01*
X141289Y249626D01*
X141955D01*
X142289Y249959D01*
X138956Y249626D02*
X140289D01*
X138956Y250959D01*
Y251292D01*
X139290Y251625D01*
X139956D01*
X140289Y251292D01*
X59078Y311936D02*
X57745D01*
X58411D01*
Y309936D01*
X57078D02*
Y311936D01*
X56079D01*
X55746Y311602D01*
Y310936D01*
X56079Y310603D01*
X57078D01*
X55079Y311602D02*
X54746Y311936D01*
X54079D01*
X53746Y311602D01*
Y311269D01*
X54079Y310936D01*
X54413D01*
X54079D01*
X53746Y310603D01*
Y310269D01*
X54079Y309936D01*
X54746D01*
X55079Y310269D01*
X53080Y311602D02*
X52746Y311936D01*
X52080D01*
X51747Y311602D01*
Y311269D01*
X52080Y310936D01*
X52413D01*
X52080D01*
X51747Y310603D01*
Y310269D01*
X52080Y309936D01*
X52746D01*
X53080Y310269D01*
X181680Y345365D02*
X180347D01*
X181014D01*
Y343366D01*
X179681D02*
Y345365D01*
X178681D01*
X178348Y345032D01*
Y344365D01*
X178681Y344032D01*
X179681D01*
X177681Y345032D02*
X177348Y345365D01*
X176682D01*
X176348Y345032D01*
Y344699D01*
X176682Y344365D01*
X177015D01*
X176682D01*
X176348Y344032D01*
Y343699D01*
X176682Y343366D01*
X177348D01*
X177681Y343699D01*
X174682Y343366D02*
Y345365D01*
X175682Y344365D01*
X174349D01*
X151906Y316516D02*
X150573D01*
X151240D01*
Y314516D01*
X149907D02*
Y316516D01*
X148907D01*
X148574Y316183D01*
Y315516D01*
X148907Y315183D01*
X149907D01*
X147907Y316183D02*
X147574Y316516D01*
X146908D01*
X146575Y316183D01*
Y315849D01*
X146908Y315516D01*
X147241D01*
X146908D01*
X146575Y315183D01*
Y314850D01*
X146908Y314516D01*
X147574D01*
X147907Y314850D01*
X144575Y316516D02*
X145908D01*
Y315516D01*
X145242Y315849D01*
X144908D01*
X144575Y315516D01*
Y314850D01*
X144908Y314516D01*
X145575D01*
X145908Y314850D01*
X71190Y331774D02*
X69857D01*
X70523D01*
Y329775D01*
X69190D02*
Y331774D01*
X68191D01*
X67857Y331441D01*
Y330775D01*
X68191Y330441D01*
X69190D01*
X65858Y331774D02*
X67191D01*
Y330775D01*
X66524Y331108D01*
X66191D01*
X65858Y330775D01*
Y330108D01*
X66191Y329775D01*
X66858D01*
X67191Y330108D01*
X65192Y331441D02*
X64858Y331774D01*
X64192D01*
X63859Y331441D01*
Y331108D01*
X64192Y330775D01*
X63859Y330441D01*
Y330108D01*
X64192Y329775D01*
X64858D01*
X65192Y330108D01*
Y330441D01*
X64858Y330775D01*
X65192Y331108D01*
Y331441D01*
X64858Y330775D02*
X64192D01*
X228000Y312999D02*
X226667D01*
X227334D01*
Y311000D01*
X226001D02*
Y312999D01*
X225001D01*
X224668Y312666D01*
Y312000D01*
X225001Y311666D01*
X226001D01*
X222668Y312999D02*
X224001D01*
Y312000D01*
X223335Y312333D01*
X223002D01*
X222668Y312000D01*
Y311333D01*
X223002Y311000D01*
X223668D01*
X224001Y311333D01*
X222002D02*
X221669Y311000D01*
X221002D01*
X220669Y311333D01*
Y312666D01*
X221002Y312999D01*
X221669D01*
X222002Y312666D01*
Y312333D01*
X221669Y312000D01*
X220669D01*
X109317Y321998D02*
X107984D01*
X108650D01*
Y319999D01*
X107317D02*
Y321998D01*
X106318D01*
X105984Y321665D01*
Y320998D01*
X106318Y320665D01*
X107317D01*
X103985Y321998D02*
X104651Y321665D01*
X105318Y320998D01*
Y320332D01*
X104985Y319999D01*
X104318D01*
X103985Y320332D01*
Y320665D01*
X104318Y320998D01*
X105318D01*
X101986Y319999D02*
X103319D01*
X101986Y321331D01*
Y321665D01*
X102319Y321998D01*
X102985D01*
X103319Y321665D01*
X162257Y333910D02*
X160924D01*
X161591D01*
Y331911D01*
X160258D02*
Y333910D01*
X159258D01*
X158925Y333577D01*
Y332911D01*
X159258Y332577D01*
X160258D01*
X156926Y333910D02*
X157592Y333577D01*
X158259Y332911D01*
Y332244D01*
X157925Y331911D01*
X157259D01*
X156926Y332244D01*
Y332577D01*
X157259Y332911D01*
X158259D01*
X156259Y333577D02*
X155926Y333910D01*
X155260D01*
X154926Y333577D01*
Y333244D01*
X155260Y332911D01*
X155593D01*
X155260D01*
X154926Y332577D01*
Y332244D01*
X155260Y331911D01*
X155926D01*
X156259Y332244D01*
X156178Y327347D02*
X154845D01*
X155512D01*
Y325348D01*
X154179D02*
Y327347D01*
X153179D01*
X152846Y327014D01*
Y326348D01*
X153179Y326015D01*
X154179D01*
X150847Y327347D02*
X151513Y327014D01*
X152180Y326348D01*
Y325681D01*
X151846Y325348D01*
X151180D01*
X150847Y325681D01*
Y326015D01*
X151180Y326348D01*
X152180D01*
X149180Y325348D02*
Y327347D01*
X150180Y326348D01*
X148847D01*
X225619Y300843D02*
X224286D01*
X224952D01*
Y298844D01*
X223619D02*
Y300843D01*
X222620D01*
X222287Y300510D01*
Y299844D01*
X222620Y299510D01*
X223619D01*
X220287Y300843D02*
X220954Y300510D01*
X221620Y299844D01*
Y299177D01*
X221287Y298844D01*
X220620D01*
X220287Y299177D01*
Y299510D01*
X220620Y299844D01*
X221620D01*
X218288Y300843D02*
X219621D01*
Y299844D01*
X218954Y300177D01*
X218621D01*
X218288Y299844D01*
Y299177D01*
X218621Y298844D01*
X219287D01*
X219621Y299177D01*
X248239Y324527D02*
Y325860D01*
Y325194D01*
X246240D01*
Y326526D02*
X248239D01*
Y327526D01*
X247906Y327859D01*
X247239D01*
X246906Y327526D01*
Y326526D01*
X248239Y329859D02*
X247906Y329192D01*
X247239Y328526D01*
X246573D01*
X246240Y328859D01*
Y329526D01*
X246573Y329859D01*
X246906D01*
X247239Y329526D01*
Y328526D01*
X248239Y331858D02*
X247906Y331192D01*
X247239Y330525D01*
X246573D01*
X246240Y330858D01*
Y331525D01*
X246573Y331858D01*
X246906D01*
X247239Y331525D01*
Y330525D01*
X166760Y59401D02*
X165427D01*
X166093D01*
Y57402D01*
X164760D02*
Y59401D01*
X163761D01*
X163428Y59068D01*
Y58401D01*
X163761Y58068D01*
X164760D01*
X162761Y59401D02*
X161428D01*
Y59068D01*
X162761Y57735D01*
Y57402D01*
X160762Y59068D02*
X160429Y59401D01*
X159762D01*
X159429Y59068D01*
Y57735D01*
X159762Y57402D01*
X160429D01*
X160762Y57735D01*
Y59068D01*
X168236Y74559D02*
X166903D01*
X167570D01*
Y72559D01*
X166237D02*
Y74559D01*
X165237D01*
X164904Y74225D01*
Y73559D01*
X165237Y73226D01*
X166237D01*
X164237Y74559D02*
X162905D01*
Y74225D01*
X164237Y72892D01*
Y72559D01*
X162238D02*
X161572D01*
X161905D01*
Y74559D01*
X162238Y74225D01*
X221287Y58220D02*
X219954D01*
X220621D01*
Y56221D01*
X219288D02*
Y58220D01*
X218288D01*
X217955Y57887D01*
Y57220D01*
X218288Y56887D01*
X219288D01*
X217289Y58220D02*
X215956D01*
Y57887D01*
X217289Y56554D01*
Y56221D01*
X213956D02*
X215289D01*
X213956Y57553D01*
Y57887D01*
X214290Y58220D01*
X214956D01*
X215289Y57887D01*
X201898Y52610D02*
X200565D01*
X201231D01*
Y50610D01*
X199898D02*
Y52610D01*
X198899D01*
X198565Y52276D01*
Y51610D01*
X198899Y51277D01*
X199898D01*
X197899Y52610D02*
X196566D01*
Y52276D01*
X197899Y50943D01*
Y50610D01*
X195900Y52276D02*
X195566Y52610D01*
X194900D01*
X194567Y52276D01*
Y51943D01*
X194900Y51610D01*
X195233D01*
X194900D01*
X194567Y51277D01*
Y50943D01*
X194900Y50610D01*
X195566D01*
X195900Y50943D01*
X20323Y84440D02*
X18990D01*
X19656D01*
Y82441D01*
X18324D02*
Y84440D01*
X17324D01*
X16991Y84107D01*
Y83441D01*
X17324Y83108D01*
X18324D01*
X16324Y84107D02*
X15991Y84440D01*
X15325D01*
X14991Y84107D01*
Y83774D01*
X15325Y83441D01*
X14991Y83108D01*
Y82774D01*
X15325Y82441D01*
X15991D01*
X16324Y82774D01*
Y83108D01*
X15991Y83441D01*
X16324Y83774D01*
Y84107D01*
X15991Y83441D02*
X15325D01*
X12992Y82441D02*
X14325D01*
X12992Y83774D01*
Y84107D01*
X13325Y84440D01*
X13992D01*
X14325Y84107D01*
X37823Y52019D02*
X36490D01*
X37156D01*
Y50020D01*
X35824D02*
Y52019D01*
X34824D01*
X34491Y51686D01*
Y51019D01*
X34824Y50686D01*
X35824D01*
X33824Y50020D02*
X33158D01*
X33491D01*
Y52019D01*
X33824Y51686D01*
X32158D02*
X31825Y52019D01*
X31158D01*
X30825Y51686D01*
Y50353D01*
X31158Y50020D01*
X31825D01*
X32158Y50353D01*
Y51686D01*
X28826Y50020D02*
X30159D01*
X28826Y51353D01*
Y51686D01*
X29159Y52019D01*
X29825D01*
X30159Y51686D01*
X78177Y51429D02*
X76844D01*
X77511D01*
Y49429D01*
X76178D02*
Y51429D01*
X75178D01*
X74845Y51095D01*
Y50429D01*
X75178Y50096D01*
X76178D01*
X74178Y49429D02*
X73512D01*
X73845D01*
Y51429D01*
X74178Y51095D01*
X72512D02*
X72179Y51429D01*
X71513D01*
X71179Y51095D01*
Y49762D01*
X71513Y49429D01*
X72179D01*
X72512Y49762D01*
Y51095D01*
X70513D02*
X70180Y51429D01*
X69513D01*
X69180Y51095D01*
Y50762D01*
X69513Y50429D01*
X69846D01*
X69513D01*
X69180Y50096D01*
Y49762D01*
X69513Y49429D01*
X70180D01*
X70513Y49762D01*
X58689Y51625D02*
X57356D01*
X58022D01*
Y49626D01*
X56690D02*
Y51625D01*
X55690D01*
X55357Y51292D01*
Y50626D01*
X55690Y50292D01*
X56690D01*
X54690Y49626D02*
X54024D01*
X54357D01*
Y51625D01*
X54690Y51292D01*
X53024D02*
X52691Y51625D01*
X52025D01*
X51691Y51292D01*
Y49959D01*
X52025Y49626D01*
X52691D01*
X53024Y49959D01*
Y51292D01*
X50025Y49626D02*
Y51625D01*
X51025Y50626D01*
X49692D01*
X288807Y180858D02*
X287474D01*
X288141D01*
Y178858D01*
X286808D02*
Y180858D01*
X285808D01*
X285475Y180525D01*
Y179858D01*
X285808Y179525D01*
X286808D01*
X284808Y178858D02*
X284142D01*
X284475D01*
Y180858D01*
X284808Y180525D01*
X283142D02*
X282809Y180858D01*
X282143D01*
X281809Y180525D01*
Y179192D01*
X282143Y178858D01*
X282809D01*
X283142Y179192D01*
Y180525D01*
X279810Y180858D02*
X280476Y180525D01*
X281143Y179858D01*
Y179192D01*
X280810Y178858D01*
X280143D01*
X279810Y179192D01*
Y179525D01*
X280143Y179858D01*
X281143D01*
X317843Y181547D02*
X316510D01*
X317176D01*
Y179547D01*
X315843D02*
Y181547D01*
X314844D01*
X314510Y181213D01*
Y180547D01*
X314844Y180214D01*
X315843D01*
X313844Y179547D02*
X313177D01*
X313511D01*
Y181547D01*
X313844Y181213D01*
X312178D02*
X311844Y181547D01*
X311178D01*
X310845Y181213D01*
Y179880D01*
X311178Y179547D01*
X311844D01*
X312178Y179880D01*
Y181213D01*
X310178Y181547D02*
X308845D01*
Y181213D01*
X310178Y179880D01*
Y179547D01*
X348453Y180366D02*
X347120D01*
X347786D01*
Y178366D01*
X346453D02*
Y180366D01*
X345454D01*
X345121Y180032D01*
Y179366D01*
X345454Y179033D01*
X346453D01*
X344454Y178366D02*
X343788D01*
X344121D01*
Y180366D01*
X344454Y180032D01*
X342788D02*
X342455Y180366D01*
X341788D01*
X341455Y180032D01*
Y178699D01*
X341788Y178366D01*
X342455D01*
X342788Y178699D01*
Y180032D01*
X340789D02*
X340455Y180366D01*
X339789D01*
X339456Y180032D01*
Y179699D01*
X339789Y179366D01*
X339456Y179033D01*
Y178699D01*
X339789Y178366D01*
X340455D01*
X340789Y178699D01*
Y179033D01*
X340455Y179366D01*
X340789Y179699D01*
Y180032D01*
X340455Y179366D02*
X339789D01*
X380441Y194047D02*
X379108D01*
X379774D01*
Y192047D01*
X378442D02*
Y194047D01*
X377442D01*
X377109Y193713D01*
Y193047D01*
X377442Y192714D01*
X378442D01*
X376442Y192047D02*
X375776D01*
X376109D01*
Y194047D01*
X376442Y193713D01*
X374776D02*
X374443Y194047D01*
X373776D01*
X373443Y193713D01*
Y192380D01*
X373776Y192047D01*
X374443D01*
X374776Y192380D01*
Y193713D01*
X372777Y192380D02*
X372444Y192047D01*
X371777D01*
X371444Y192380D01*
Y193713D01*
X371777Y194047D01*
X372444D01*
X372777Y193713D01*
Y193380D01*
X372444Y193047D01*
X371444D01*
X81425Y80464D02*
X80092D01*
X80759D01*
Y78465D01*
X79426D02*
Y80464D01*
X78426D01*
X78093Y80131D01*
Y79464D01*
X78426Y79131D01*
X79426D01*
X77426Y78465D02*
X76760D01*
X77093D01*
Y80464D01*
X77426Y80131D01*
X75760Y78465D02*
X75094D01*
X75427D01*
Y80464D01*
X75760Y80131D01*
X72761Y78465D02*
X74094D01*
X72761Y79798D01*
Y80131D01*
X73095Y80464D01*
X73761D01*
X74094Y80131D01*
X106917Y90110D02*
X105584D01*
X106251D01*
Y88110D01*
X104918D02*
Y90110D01*
X103918D01*
X103585Y89776D01*
Y89110D01*
X103918Y88777D01*
X104918D01*
X102919Y88110D02*
X102252D01*
X102585D01*
Y90110D01*
X102919Y89776D01*
X101252Y88110D02*
X100586D01*
X100919D01*
Y90110D01*
X101252Y89776D01*
X99586D02*
X99253Y90110D01*
X98587D01*
X98254Y89776D01*
Y89443D01*
X98587Y89110D01*
X98920D01*
X98587D01*
X98254Y88777D01*
Y88443D01*
X98587Y88110D01*
X99253D01*
X99586Y88443D01*
X148453Y50464D02*
X147120D01*
X147786D01*
Y48465D01*
X146453D02*
Y50464D01*
X145454D01*
X145121Y50131D01*
Y49464D01*
X145454Y49131D01*
X146453D01*
X144454Y48465D02*
X143788D01*
X144121D01*
Y50464D01*
X144454Y50131D01*
X142788Y48465D02*
X142122D01*
X142455D01*
Y50464D01*
X142788Y50131D01*
X140122Y48465D02*
Y50464D01*
X141122Y49464D01*
X139789D01*
X128866Y51822D02*
X127533D01*
X128200D01*
Y49823D01*
X126867D02*
Y51822D01*
X125867D01*
X125534Y51489D01*
Y50823D01*
X125867Y50489D01*
X126867D01*
X124867Y49823D02*
X124201D01*
X124534D01*
Y51822D01*
X124867Y51489D01*
X123201Y49823D02*
X122535D01*
X122868D01*
Y51822D01*
X123201Y51489D01*
X120202Y51822D02*
X121535D01*
Y50823D01*
X120869Y51156D01*
X120536D01*
X120202Y50823D01*
Y50156D01*
X120536Y49823D01*
X121202D01*
X121535Y50156D01*
X229634Y74736D02*
X228301D01*
X228967D01*
Y72736D01*
X227635D02*
Y74736D01*
X226635D01*
X226302Y74402D01*
Y73736D01*
X226635Y73403D01*
X227635D01*
X225635Y72736D02*
X224969D01*
X225302D01*
Y74736D01*
X225635Y74402D01*
X223969Y72736D02*
X223303D01*
X223636D01*
Y74736D01*
X223969Y74402D01*
X222303D02*
X221970Y74736D01*
X221303D01*
X220970Y74402D01*
Y74069D01*
X221303Y73736D01*
X220970Y73403D01*
Y73070D01*
X221303Y72736D01*
X221970D01*
X222303Y73070D01*
Y73403D01*
X221970Y73736D01*
X222303Y74069D01*
Y74402D01*
X221970Y73736D02*
X221303D01*
X240677Y74657D02*
X239344D01*
X240011D01*
Y72658D01*
X238678D02*
Y74657D01*
X237678D01*
X237345Y74324D01*
Y73657D01*
X237678Y73324D01*
X238678D01*
X236679Y72658D02*
X236012D01*
X236345D01*
Y74657D01*
X236679Y74324D01*
X235012Y72658D02*
X234346D01*
X234679D01*
Y74657D01*
X235012Y74324D01*
X233346Y72991D02*
X233013Y72658D01*
X232347D01*
X232013Y72991D01*
Y74324D01*
X232347Y74657D01*
X233013D01*
X233346Y74324D01*
Y73990D01*
X233013Y73657D01*
X232013D01*
X305343Y52413D02*
X304010D01*
X304676D01*
Y50414D01*
X303343D02*
Y52413D01*
X302344D01*
X302010Y52080D01*
Y51413D01*
X302344Y51080D01*
X303343D01*
X301344Y50414D02*
X300677D01*
X301011D01*
Y52413D01*
X301344Y52080D01*
X298345Y50414D02*
X299678D01*
X298345Y51746D01*
Y52080D01*
X298678Y52413D01*
X299344D01*
X299678Y52080D01*
X297678D02*
X297345Y52413D01*
X296679D01*
X296345Y52080D01*
Y50747D01*
X296679Y50414D01*
X297345D01*
X297678Y50747D01*
Y52080D01*
X282508Y52905D02*
X281175D01*
X281841D01*
Y50906D01*
X280508D02*
Y52905D01*
X279509D01*
X279176Y52572D01*
Y51905D01*
X279509Y51572D01*
X280508D01*
X278509Y50906D02*
X277843D01*
X278176D01*
Y52905D01*
X278509Y52572D01*
X275510Y50906D02*
X276843D01*
X275510Y52239D01*
Y52572D01*
X275843Y52905D01*
X276510D01*
X276843Y52572D01*
X274844Y50906D02*
X274177D01*
X274511D01*
Y52905D01*
X274844Y52572D01*
X319516Y44736D02*
X318183D01*
X318849D01*
Y42736D01*
X317516D02*
Y44736D01*
X316517D01*
X316183Y44402D01*
Y43736D01*
X316517Y43403D01*
X317516D01*
X315517Y42736D02*
X314851D01*
X315184D01*
Y44736D01*
X315517Y44402D01*
X312518Y42736D02*
X313851D01*
X312518Y44069D01*
Y44402D01*
X312851Y44736D01*
X313518D01*
X313851Y44402D01*
X310852Y42736D02*
Y44736D01*
X311852Y43736D01*
X310519D01*
X341858Y51586D02*
X340525D01*
X341192D01*
Y49587D01*
X339859D02*
Y51586D01*
X338859D01*
X338526Y51253D01*
Y50586D01*
X338859Y50253D01*
X339859D01*
X337860Y49587D02*
X337193D01*
X337526D01*
Y51586D01*
X337860Y51253D01*
X334860Y49587D02*
X336193D01*
X334860Y50920D01*
Y51253D01*
X335194Y51586D01*
X335860D01*
X336193Y51253D01*
X332861Y51586D02*
X334194D01*
Y50586D01*
X333528Y50920D01*
X333194D01*
X332861Y50586D01*
Y49920D01*
X333194Y49587D01*
X333861D01*
X334194Y49920D01*
X368681Y59390D02*
Y60723D01*
Y60056D01*
X366681D01*
Y61389D02*
X368681D01*
Y62389D01*
X368347Y62722D01*
X367681D01*
X367348Y62389D01*
Y61389D01*
X366681Y63389D02*
Y64055D01*
Y63722D01*
X368681D01*
X368347Y63389D01*
X366681Y66388D02*
Y65055D01*
X368014Y66388D01*
X368347D01*
X368681Y66054D01*
Y65388D01*
X368347Y65055D01*
X368681Y68387D02*
X368347Y67721D01*
X367681Y67054D01*
X367014D01*
X366681Y67387D01*
Y68054D01*
X367014Y68387D01*
X367348D01*
X367681Y68054D01*
Y67054D01*
X342055Y58909D02*
X340722D01*
X341389D01*
Y56910D01*
X340056D02*
Y58909D01*
X339056D01*
X338723Y58576D01*
Y57909D01*
X339056Y57576D01*
X340056D01*
X338056Y56910D02*
X337390D01*
X337723D01*
Y58909D01*
X338056Y58576D01*
X335057Y56910D02*
X336390D01*
X335057Y58242D01*
Y58576D01*
X335391Y58909D01*
X336057D01*
X336390Y58576D01*
X334391Y58909D02*
X333058D01*
Y58576D01*
X334391Y57243D01*
Y56910D01*
X148059Y264814D02*
X146726D01*
X147393D01*
Y262815D01*
X146060D02*
Y264814D01*
X145060D01*
X144727Y264481D01*
Y263815D01*
X145060Y263481D01*
X146060D01*
X144060Y262815D02*
X143394D01*
X143727D01*
Y264814D01*
X144060Y264481D01*
X141061Y262815D02*
X142394D01*
X141061Y264148D01*
Y264481D01*
X141395Y264814D01*
X142061D01*
X142394Y264481D01*
X140395D02*
X140062Y264814D01*
X139395D01*
X139062Y264481D01*
Y264148D01*
X139395Y263815D01*
X139062Y263481D01*
Y263148D01*
X139395Y262815D01*
X140062D01*
X140395Y263148D01*
Y263481D01*
X140062Y263815D01*
X140395Y264148D01*
Y264481D01*
X140062Y263815D02*
X139395D01*
X111591Y266306D02*
X110258D01*
X110925D01*
Y264306D01*
X109592D02*
Y266306D01*
X108592D01*
X108259Y265972D01*
Y265306D01*
X108592Y264973D01*
X109592D01*
X107592Y264306D02*
X106926D01*
X107259D01*
Y266306D01*
X107592Y265972D01*
X104593Y264306D02*
X105926D01*
X104593Y265639D01*
Y265972D01*
X104927Y266306D01*
X105593D01*
X105926Y265972D01*
X103927Y264639D02*
X103594Y264306D01*
X102927D01*
X102594Y264639D01*
Y265972D01*
X102927Y266306D01*
X103594D01*
X103927Y265972D01*
Y265639D01*
X103594Y265306D01*
X102594D01*
X341212Y23721D02*
Y25054D01*
Y24388D01*
X339212D01*
Y25721D02*
X341212D01*
Y26720D01*
X340878Y27053D01*
X340212D01*
X339879Y26720D01*
Y25721D01*
X340878Y27720D02*
X341212Y28053D01*
Y28719D01*
X340878Y29053D01*
X340545D01*
X340212Y28719D01*
X339879Y29053D01*
X339545D01*
X339212Y28719D01*
Y28053D01*
X339545Y27720D01*
X339879D01*
X340212Y28053D01*
X340545Y27720D01*
X340878D01*
X340212Y28053D02*
Y28719D01*
X340878Y29719D02*
X341212Y30052D01*
Y30719D01*
X340878Y31052D01*
X340545D01*
X340212Y30719D01*
X339879Y31052D01*
X339545D01*
X339212Y30719D01*
Y30052D01*
X339545Y29719D01*
X339879D01*
X340212Y30052D01*
X340545Y29719D01*
X340878D01*
X340212Y30052D02*
Y30719D01*
X73067Y249799D02*
X73734D01*
X73400D01*
Y248133D01*
X73734Y247800D01*
X74067D01*
X74400Y248133D01*
X72401Y247800D02*
Y249799D01*
X71401D01*
X71068Y249466D01*
Y248800D01*
X71401Y248466D01*
X72401D01*
X69068Y247800D02*
X70401D01*
X69068Y249133D01*
Y249466D01*
X69402Y249799D01*
X70068D01*
X70401Y249466D01*
G54D17*
X24606Y363909D02*
X21940D01*
X23273Y365242D02*
Y362576D01*
X12610Y363909D02*
X9944D01*
G54D21*
X284979Y371839D02*
Y369007D01*
X284412Y368440D01*
X283279D01*
X282713Y369007D01*
Y371839D01*
X279314Y371273D02*
X279880Y371839D01*
X281013D01*
X281580Y371273D01*
Y370706D01*
X281013Y370140D01*
X279880D01*
X279314Y369573D01*
Y369007D01*
X279880Y368440D01*
X281013D01*
X281580Y369007D01*
X278181Y371273D02*
X277614Y371839D01*
X276482D01*
X275915Y371273D01*
Y369007D01*
X276482Y368440D01*
X277614D01*
X278181Y369007D01*
Y371273D01*
X274782D02*
X274216Y371839D01*
X273083D01*
X272516Y371273D01*
Y369007D01*
X273083Y368440D01*
X274216D01*
X274782Y369007D01*
Y371273D01*
X271383D02*
X270817Y371839D01*
X269684D01*
X269117Y371273D01*
Y369007D01*
X269684Y368440D01*
X270817D01*
X271383Y369007D01*
Y371273D01*
X267984D02*
X267418Y371839D01*
X266285D01*
X265718Y371273D01*
Y369007D01*
X266285Y368440D01*
X267418D01*
X267984Y369007D01*
Y371273D01*
X262319Y368440D02*
X264585D01*
X262319Y370706D01*
Y371273D01*
X262886Y371839D01*
X264019D01*
X264585Y371273D01*
X258921Y368440D02*
X261186D01*
X258921Y370706D01*
Y371273D01*
X259487Y371839D01*
X260620D01*
X261186Y371273D01*
X170499Y126766D02*
Y125100D01*
X168000D01*
Y126766D01*
X169250Y125100D02*
Y125933D01*
X170499Y127599D02*
Y129265D01*
Y128432D01*
X168000D01*
X170499Y130098D02*
X168000Y131764D01*
X170499D02*
X168000Y130098D01*
X170083Y134264D02*
X170499Y133847D01*
Y133014D01*
X170083Y132598D01*
X168417D01*
X168000Y133014D01*
Y133847D01*
X168417Y134264D01*
X170499Y135097D02*
X168000D01*
X168833D01*
X170499Y136763D01*
X169250Y135513D01*
X168000Y136763D01*
X161299Y128966D02*
Y127300D01*
X158800D01*
Y128966D01*
X160050Y127300D02*
Y128133D01*
X161299Y129799D02*
Y131465D01*
Y130632D01*
X158800D01*
X161299Y132298D02*
X158800Y133965D01*
X161299D02*
X158800Y132298D01*
X160883Y134798D02*
X161299Y135214D01*
Y136047D01*
X160883Y136464D01*
X159216D01*
X158800Y136047D01*
Y135214D01*
X159216Y134798D01*
X160883D01*
X151299Y129066D02*
Y127400D01*
X148800D01*
Y129066D01*
X150050Y127400D02*
Y128233D01*
X148800Y129899D02*
X151299D01*
Y131149D01*
X150883Y131565D01*
X150050D01*
X149633Y131149D01*
Y129899D01*
Y130732D02*
X148800Y131565D01*
X151299Y132398D02*
X148800Y134064D01*
X151299D02*
X148800Y132398D01*
X150883Y134898D02*
X151299Y135314D01*
Y136147D01*
X150883Y136564D01*
X149216D01*
X148800Y136147D01*
Y135314D01*
X149216Y134898D01*
X150883D01*
X141299Y123866D02*
Y122200D01*
X138800D01*
Y123866D01*
X140050Y122200D02*
Y123033D01*
X140883Y126365D02*
X141299Y125949D01*
Y125116D01*
X140883Y124699D01*
X139216D01*
X138800Y125116D01*
Y125949D01*
X139216Y126365D01*
X138800Y127198D02*
X141299D01*
Y128448D01*
X140883Y128865D01*
X140050D01*
X139633Y128448D01*
Y127198D01*
Y128031D02*
X138800Y128865D01*
X140883Y131364D02*
X141299Y130947D01*
Y130114D01*
X140883Y129698D01*
X140466D01*
X140050Y130114D01*
Y130947D01*
X139633Y131364D01*
X139216D01*
X138800Y130947D01*
Y130114D01*
X139216Y129698D01*
X141299Y132197D02*
X138800D01*
Y133446D01*
X139216Y133863D01*
X140883D01*
X141299Y133446D01*
Y132197D01*
Y134696D02*
X139633D01*
X138800Y135529D01*
X139633Y136362D01*
X141299D01*
X131299Y126566D02*
Y124900D01*
X128800D01*
Y126566D01*
X130050Y124900D02*
Y125733D01*
X128800Y127399D02*
X131299D01*
Y128649D01*
X130883Y129065D01*
X130050D01*
X129633Y128649D01*
Y127399D01*
Y128232D02*
X128800Y129065D01*
X131299Y129898D02*
X128800Y131564D01*
X131299D02*
X128800Y129898D01*
X131299Y134064D02*
Y132398D01*
X128800D01*
Y134064D01*
X130050Y132398D02*
Y133231D01*
X128800Y134897D02*
X131299D01*
Y136146D01*
X130883Y136563D01*
X130050D01*
X129633Y136146D01*
Y134897D01*
Y135730D02*
X128800Y136563D01*
X178800Y127600D02*
X181299D01*
X180466Y128433D01*
X181299Y129266D01*
X178800D01*
X181299Y130099D02*
Y130932D01*
Y130516D01*
X178800D01*
Y130099D01*
Y130932D01*
X180883Y133848D02*
X181299Y133431D01*
Y132598D01*
X180883Y132182D01*
X180466D01*
X180050Y132598D01*
Y133431D01*
X179633Y133848D01*
X179217D01*
X178800Y133431D01*
Y132598D01*
X179217Y132182D01*
X181299Y135931D02*
Y135098D01*
X180883Y134681D01*
X179217D01*
X178800Y135098D01*
Y135931D01*
X179217Y136347D01*
X180883D01*
X181299Y135931D01*
X190583Y128866D02*
X190999Y128450D01*
Y127617D01*
X190583Y127200D01*
X190166D01*
X189750Y127617D01*
Y128450D01*
X189333Y128866D01*
X188917D01*
X188500Y128450D01*
Y127617D01*
X188917Y127200D01*
X190583Y131365D02*
X190999Y130949D01*
Y130116D01*
X190583Y129699D01*
X188917D01*
X188500Y130116D01*
Y130949D01*
X188917Y131365D01*
X190999Y132198D02*
X188500D01*
Y133864D01*
X190999Y134698D02*
X188500D01*
X189333D01*
X190999Y136364D01*
X189750Y135114D01*
X188500Y136364D01*
X193097Y156138D02*
X193513Y155722D01*
Y154889D01*
X193097Y154472D01*
X191430D01*
X191014Y154889D01*
Y155722D01*
X191430Y156138D01*
X193097Y158637D02*
X193513Y158221D01*
Y157388D01*
X193097Y156971D01*
X192680D01*
X192263Y157388D01*
Y158221D01*
X191847Y158637D01*
X191430D01*
X191014Y158221D01*
Y157388D01*
X191430Y156971D01*
X191014Y161137D02*
Y159470D01*
X192680Y161137D01*
X193097D01*
X193513Y160720D01*
Y159887D01*
X193097Y159470D01*
X178900Y155000D02*
X181399D01*
X180566Y155833D01*
X181399Y156666D01*
X178900D01*
X181399Y158749D02*
Y157916D01*
X180983Y157499D01*
X179316D01*
X178900Y157916D01*
Y158749D01*
X179316Y159165D01*
X180983D01*
X181399Y158749D01*
X180983Y161664D02*
X181399Y161248D01*
Y160415D01*
X180983Y159998D01*
X180566D01*
X180150Y160415D01*
Y161248D01*
X179733Y161664D01*
X179316D01*
X178900Y161248D01*
Y160415D01*
X179316Y159998D01*
X181399Y162498D02*
Y163331D01*
Y162914D01*
X178900D01*
Y162498D01*
Y163331D01*
X130873Y156804D02*
Y155138D01*
X128374D01*
Y156804D01*
X129624Y155138D02*
Y155971D01*
X128374Y157637D02*
X130873D01*
X130040Y158470D01*
X130873Y159303D01*
X128374D01*
X130873Y160136D02*
X128374D01*
Y161386D01*
X128791Y161802D01*
X130457D01*
X130873Y161386D01*
Y160136D01*
Y162635D02*
Y163469D01*
Y163052D01*
X128374D01*
Y162635D01*
Y163469D01*
X130873Y165968D02*
Y165135D01*
X130457Y164718D01*
X128791D01*
X128374Y165135D01*
Y165968D01*
X128791Y166384D01*
X130457D01*
X130873Y165968D01*
X141299Y156566D02*
Y154900D01*
X138800D01*
Y156566D01*
X140050Y154900D02*
Y155733D01*
X138800Y157399D02*
X141299D01*
X140466Y158232D01*
X141299Y159065D01*
X138800D01*
X141299Y159898D02*
X138800D01*
Y161148D01*
X139216Y161565D01*
X140883D01*
X141299Y161148D01*
Y159898D01*
X140883Y164064D02*
X141299Y163647D01*
Y162814D01*
X140883Y162398D01*
X139216D01*
X138800Y162814D01*
Y163647D01*
X139216Y164064D01*
X151381Y156068D02*
Y154402D01*
X148881D01*
Y156068D01*
X150131Y154402D02*
Y155235D01*
X148881Y156901D02*
X151381D01*
Y158151D01*
X150964Y158567D01*
X150131D01*
X149715Y158151D01*
Y156901D01*
Y157734D02*
X148881Y158567D01*
X151381Y159400D02*
X148881Y161066D01*
X151381D02*
X148881Y159400D01*
Y161900D02*
Y162733D01*
Y162316D01*
X151381D01*
X150964Y161900D01*
X161199Y156366D02*
Y154700D01*
X158700D01*
Y156366D01*
X159950Y154700D02*
Y155533D01*
X161199Y157199D02*
Y158865D01*
Y158032D01*
X158700D01*
X161199Y159698D02*
X158700Y161364D01*
X161199D02*
X158700Y159698D01*
Y162198D02*
Y163031D01*
Y162614D01*
X161199D01*
X160783Y162198D01*
X171514Y156375D02*
Y154709D01*
X169015D01*
Y156375D01*
X170264Y154709D02*
Y155542D01*
X171514Y157208D02*
Y158874D01*
Y158041D01*
X169015D01*
X171514Y159707D02*
X169015Y161373D01*
X171514D02*
X169015Y159707D01*
X171514Y163873D02*
Y162206D01*
X169015D01*
Y163873D01*
X170264Y162206D02*
Y163040D01*
X169015Y164706D02*
X171514D01*
X169015Y166372D01*
X171514D01*
X80743Y129978D02*
X81159Y130395D01*
Y131228D01*
X80743Y131644D01*
X80326D01*
X79910Y131228D01*
Y130811D01*
Y131228D01*
X79493Y131644D01*
X79077D01*
X78660Y131228D01*
Y130395D01*
X79077Y129978D01*
X81159Y132477D02*
X79493D01*
X78660Y133311D01*
X79493Y134144D01*
X81159D01*
X80743Y134977D02*
X81159Y135393D01*
Y136226D01*
X80743Y136643D01*
X80326D01*
X79910Y136226D01*
Y135810D01*
Y136226D01*
X79493Y136643D01*
X79077D01*
X78660Y136226D01*
Y135393D01*
X79077Y134977D01*
X91183Y131566D02*
X91599Y131150D01*
Y130316D01*
X91183Y129900D01*
X90766D01*
X90350Y130316D01*
Y131150D01*
X89933Y131566D01*
X89517D01*
X89100Y131150D01*
Y130316D01*
X89517Y129900D01*
X91599Y132399D02*
X89100D01*
Y133649D01*
X89517Y134065D01*
X91183D01*
X91599Y133649D01*
Y132399D01*
X89100Y134898D02*
X90766D01*
X91599Y135731D01*
X90766Y136565D01*
X89100D01*
X90350D01*
Y134898D01*
X98800Y129900D02*
X100466D01*
X101299Y130733D01*
X100466Y131566D01*
X98800D01*
X100050D01*
Y129900D01*
X101299Y132399D02*
X98800D01*
Y133649D01*
X99217Y134065D01*
X100883D01*
X101299Y133649D01*
Y132399D01*
X100883Y134898D02*
X101299Y135315D01*
Y136148D01*
X100883Y136565D01*
X100466D01*
X100050Y136148D01*
X99633Y136565D01*
X99217D01*
X98800Y136148D01*
Y135315D01*
X99217Y134898D01*
X99633D01*
X100050Y135315D01*
X100466Y134898D01*
X100883D01*
X100050Y135315D02*
Y136148D01*
X109058Y127627D02*
X110724D01*
Y128876D01*
X110308Y129293D01*
X109058D01*
Y130126D02*
X111557D01*
Y131376D01*
X111141Y131792D01*
X110308D01*
X109891Y131376D01*
Y130126D01*
Y130959D02*
X109058Y131792D01*
X111141Y134291D02*
X111557Y133875D01*
Y133042D01*
X111141Y132625D01*
X110724D01*
X110308Y133042D01*
Y133875D01*
X109891Y134291D01*
X109475D01*
X109058Y133875D01*
Y133042D01*
X109475Y132625D01*
X111557Y135124D02*
Y136791D01*
Y135957D01*
X109058D01*
X121399Y128200D02*
X118900D01*
Y129450D01*
X119316Y129866D01*
X120983D01*
X121399Y129450D01*
Y128200D01*
X118900Y130699D02*
X120566D01*
X121399Y131532D01*
X120566Y132365D01*
X118900D01*
X120150D01*
Y130699D01*
X120983Y134864D02*
X121399Y134448D01*
Y133615D01*
X120983Y133198D01*
X119316D01*
X118900Y133615D01*
Y134448D01*
X119316Y134864D01*
X118900Y135698D02*
Y136531D01*
Y136114D01*
X121399D01*
X120983Y135698D01*
X119554Y157894D02*
X117055D01*
Y159143D01*
X117472Y159560D01*
X119138D01*
X119554Y159143D01*
Y157894D01*
X117055Y160393D02*
X118721D01*
X119554Y161226D01*
X118721Y162059D01*
X117055D01*
X118305D01*
Y160393D01*
X119138Y164558D02*
X119554Y164142D01*
Y163309D01*
X119138Y162892D01*
X117472D01*
X117055Y163309D01*
Y164142D01*
X117472Y164558D01*
X119138Y165391D02*
X119554Y165808D01*
Y166641D01*
X119138Y167058D01*
X117472D01*
X117055Y166641D01*
Y165808D01*
X117472Y165391D01*
X119138D01*
X108671Y154384D02*
X111171D01*
Y155634D01*
X110754Y156050D01*
X109921D01*
X109504Y155634D01*
Y154384D01*
X111171Y156883D02*
X108671D01*
X109504Y157716D01*
X108671Y158549D01*
X111171D01*
X108671Y159382D02*
X111171D01*
X110338Y160216D01*
X111171Y161049D01*
X108671D01*
X111171Y161882D02*
X108671D01*
X109921D01*
Y163548D01*
X111171D01*
X108671D01*
Y166047D02*
Y164381D01*
X110338Y166047D01*
X110754D01*
X111171Y165630D01*
Y164797D01*
X110754Y164381D01*
X98996Y154299D02*
X100662D01*
X101495Y155132D01*
X100662Y155965D01*
X98996D01*
X100245D01*
Y154299D01*
X101495Y156798D02*
X98996D01*
Y158048D01*
X99412Y158465D01*
X101078D01*
X101495Y158048D01*
Y156798D01*
X99412Y159298D02*
X98996Y159714D01*
Y160547D01*
X99412Y160964D01*
X101078D01*
X101495Y160547D01*
Y159714D01*
X101078Y159298D01*
X100662D01*
X100245Y159714D01*
Y160964D01*
X90978Y156135D02*
X91394Y155719D01*
Y154885D01*
X90978Y154469D01*
X90561D01*
X90145Y154885D01*
Y155719D01*
X89728Y156135D01*
X89312D01*
X88895Y155719D01*
Y154885D01*
X89312Y154469D01*
X90978Y158634D02*
X91394Y158218D01*
Y157385D01*
X90978Y156968D01*
X89312D01*
X88895Y157385D01*
Y158218D01*
X89312Y158634D01*
X91394Y159467D02*
X88895D01*
Y161134D01*
X80623Y156390D02*
X81039Y155973D01*
Y155140D01*
X80623Y154724D01*
X78957D01*
X78540Y155140D01*
Y155973D01*
X78957Y156390D01*
X79790D01*
Y155557D01*
X78540Y157223D02*
X81039D01*
X78540Y158889D01*
X81039D01*
Y159722D02*
X78540D01*
Y160972D01*
X78957Y161388D01*
X80623D01*
X81039Y160972D01*
Y159722D01*
X50234Y222116D02*
Y222950D01*
Y222533D01*
X52316D01*
X52733Y222950D01*
Y223366D01*
X52316Y223783D01*
X52733Y221283D02*
X50234D01*
Y220034D01*
X50650Y219617D01*
X51483D01*
X51900Y220034D01*
Y221283D01*
X52733Y218784D02*
Y217951D01*
Y218368D01*
X50234D01*
X50650Y218784D01*
G54D30*
X257812Y375721D02*
X258812D01*
X257812Y383721D02*
X258812D01*
X260812D02*
X261412D01*
X284012Y375721D02*
X285012D01*
X284012Y383721D02*
X285012D01*
X257812Y374321D02*
X285012D01*
X257812Y374521D02*
X285012D01*
X257812Y374721D02*
X285012D01*
X257812Y374921D02*
X285012D01*
X257812Y375121D02*
X285012D01*
X262612Y385921D02*
X285012D01*
X262612Y386121D02*
X285012D01*
X262612Y386321D02*
X285012D01*
X262612Y386521D02*
X285012D01*
X257812Y375321D02*
X258812D01*
X257812Y375521D02*
X258812D01*
X257812Y375921D02*
X258812D01*
X257812Y376121D02*
X258812D01*
X257812Y376321D02*
X258812D01*
X257812Y376521D02*
X258812D01*
X257812Y376721D02*
X258812D01*
X257812Y376921D02*
X258812D01*
X257812Y377121D02*
X258812D01*
X257812Y377321D02*
X258812D01*
X257812Y377521D02*
X258812D01*
X257812Y377721D02*
X258812D01*
X257812Y377921D02*
X258812D01*
X257812Y378121D02*
X258812D01*
X257812Y378321D02*
X258812D01*
X257812Y378521D02*
X258812D01*
X257812Y378721D02*
X258812D01*
X257812Y378921D02*
X258812D01*
X257812Y379121D02*
X258812D01*
X257812Y379321D02*
X258812D01*
X257812Y379521D02*
X258812D01*
X257812Y379721D02*
X258812D01*
X257812Y379921D02*
X258812D01*
X257812Y380121D02*
X258812D01*
X257812Y380321D02*
X258812D01*
X257812Y380521D02*
X258812D01*
X257812Y380721D02*
X258812D01*
X257812Y380921D02*
X258812D01*
X257812Y381121D02*
X258812D01*
X257812Y381321D02*
X258812D01*
X257812Y381521D02*
X258812D01*
X257812Y381721D02*
X258812D01*
X257812Y381921D02*
X258812D01*
X257812Y382121D02*
X258812D01*
X257812Y382321D02*
X258812D01*
X257812Y382521D02*
X258812D01*
X257812Y382721D02*
X258812D01*
X257812Y382921D02*
X258812D01*
X257812Y383121D02*
X258812D01*
X257812Y383321D02*
X258812D01*
X257812Y383521D02*
X258812D01*
X273812Y377121D02*
X275812D01*
X273412Y377321D02*
X276412D01*
X273012Y377521D02*
X276612D01*
X273012Y380121D02*
X275012D01*
X273212Y380321D02*
X275612D01*
X273612Y380521D02*
X276012D01*
X274212Y380721D02*
X276212D01*
X273012Y383121D02*
X276012D01*
X273012Y383321D02*
X275812D01*
X273412Y383521D02*
X275412D01*
X257812Y383921D02*
X258812D01*
X257812Y384121D02*
X258812D01*
X257812Y384321D02*
X258812D01*
X257812Y384521D02*
X258812D01*
X257812Y384721D02*
X258812D01*
X257812Y384921D02*
X258812D01*
X257812Y385121D02*
X258812D01*
X257812Y385321D02*
X258812D01*
X257812Y385521D02*
X258812D01*
X257812Y385721D02*
X258812D01*
X257812Y385921D02*
X258812D01*
X257812Y386121D02*
X258812D01*
X257812Y386321D02*
X258812D01*
X257812Y386521D02*
X258812D01*
X257812Y386721D02*
X258612D01*
X262812Y385721D02*
X285012D01*
X262812Y386721D02*
X285012D01*
X284012Y375321D02*
X285012D01*
X284012Y375521D02*
X285012D01*
X262212Y377321D02*
X263012D01*
X264812D02*
X265612D01*
X262212Y377521D02*
X263012D01*
X264812D02*
X265612D01*
X262012Y377721D02*
X263212D01*
X264612D02*
X265612D01*
X262012Y377921D02*
X263212D01*
X264612D02*
X265612D01*
X262012Y378121D02*
X263212D01*
X264612D02*
X265812D01*
X262012Y378321D02*
X263212D01*
X264612D02*
X265812D01*
X262012Y378521D02*
X262612D01*
X262812D02*
X263212D01*
X264412D02*
X265812D01*
X261812Y378721D02*
X262612D01*
X262812D02*
X263412D01*
X264412D02*
X265012D01*
X265212D02*
X265812D01*
X261812Y378921D02*
X262412D01*
X262812D02*
X263412D01*
X264412D02*
X265012D01*
X265212D02*
X265812D01*
X261812Y379121D02*
X262412D01*
X263012D02*
X263412D01*
X264412D02*
X264812D01*
X265212D02*
X265812D01*
X261812Y379321D02*
X262412D01*
X263012D02*
X263412D01*
X264412D02*
X264812D01*
X265212D02*
X265812D01*
X261612Y379521D02*
X262412D01*
X263012D02*
X263612D01*
X264212D02*
X264812D01*
X265212D02*
X266012D01*
X261612Y379721D02*
X262412D01*
X263012D02*
X263612D01*
X264212D02*
X264812D01*
X265412D02*
X266012D01*
X261612Y379921D02*
X262212D01*
X263012D02*
X263612D01*
X264212D02*
X264612D01*
X265412D02*
X266012D01*
X261612Y380121D02*
X262212D01*
X263212D02*
X263612D01*
X264212D02*
X264612D01*
X265412D02*
X266012D01*
X261612Y380321D02*
X262212D01*
X263212D02*
X263612D01*
X264012D02*
X264612D01*
X265412D02*
X266012D01*
X261412Y380521D02*
X262212D01*
X263212D02*
X263812D01*
X264012D02*
X264612D01*
X265412D02*
X266012D01*
X261412Y380721D02*
X262212D01*
X263212D02*
X263812D01*
X264012D02*
X264612D01*
X265412D02*
X266012D01*
X261412Y380921D02*
X262012D01*
X263212D02*
X264412D01*
X265412D02*
X266212D01*
X261412Y381121D02*
X262012D01*
X263412D02*
X264412D01*
X265412D02*
X266212D01*
X261212Y381321D02*
X262012D01*
X263412D02*
X264412D01*
X265412D02*
X266212D01*
X261212Y381521D02*
X262012D01*
X263412D02*
X264412D01*
X265612D02*
X266212D01*
X261212Y381721D02*
X262012D01*
X263412D02*
X264212D01*
X265612D02*
X266212D01*
X261212Y381921D02*
X261812D01*
X265612D02*
X266212D01*
X261212Y382121D02*
X261812D01*
X265612D02*
X266412D01*
X261012Y382321D02*
X261812D01*
X265612D02*
X266412D01*
X261012Y382521D02*
X261812D01*
X265612D02*
X266412D01*
X261012Y382721D02*
X261812D01*
X265612D02*
X266412D01*
X261012Y382921D02*
X261612D01*
X265612D02*
X266412D01*
X261012Y383121D02*
X261612D01*
X265612D02*
X266412D01*
X260812Y383321D02*
X261612D01*
X265812D02*
X266412D01*
X260812Y383521D02*
X261612D01*
X265812D02*
X266412D01*
X267612Y377121D02*
X267812D01*
X267212Y377321D02*
X268012D01*
X270612D02*
X271212D01*
X267212Y377521D02*
X268012D01*
X270412D02*
X271212D01*
X267212Y377721D02*
X268012D01*
X270412D02*
X271212D01*
X272812D02*
X274212D01*
X267212Y377921D02*
X268012D01*
X270412D02*
X271212D01*
X272812D02*
X273612D01*
X267212Y378121D02*
X268012D01*
X270412D02*
X271212D01*
X272612D02*
X273412D01*
X267212Y378321D02*
X268012D01*
X270412D02*
X271212D01*
X272612D02*
X273412D01*
X267212Y378521D02*
X268012D01*
X270412D02*
X271212D01*
X272612D02*
X273412D01*
X267212Y378721D02*
X268012D01*
X270412D02*
X271212D01*
X272612D02*
X273212D01*
X267212Y378921D02*
X268012D01*
X270412D02*
X271212D01*
X272612D02*
X273212D01*
X267212Y379121D02*
X268012D01*
X270412D02*
X271212D01*
X272612D02*
X273412D01*
X267212Y379321D02*
X268012D01*
X270412D02*
X271212D01*
X272612D02*
X273412D01*
X267212Y379521D02*
X268012D01*
X270412D02*
X271212D01*
X272612D02*
X273612D01*
X267212Y379721D02*
X268012D01*
X270412D02*
X271212D01*
X272812D02*
X273812D01*
X267212Y379921D02*
X268012D01*
X270412D02*
X271212D01*
X272812D02*
X274212D01*
X267212Y380121D02*
X268012D01*
X270412D02*
X271212D01*
X267212Y380321D02*
X271212D01*
X267212Y380521D02*
X271212D01*
X267212Y380721D02*
X271212D01*
X267212Y380921D02*
X268012D01*
X270412D02*
X271212D01*
X267212Y381121D02*
X268012D01*
X270412D02*
X271212D01*
X267212Y381321D02*
X268012D01*
X270412D02*
X271212D01*
X267212Y381521D02*
X268012D01*
X270412D02*
X271212D01*
X267212Y381721D02*
X268012D01*
X270412D02*
X271212D01*
X267212Y381921D02*
X268012D01*
X270412D02*
X271212D01*
X267212Y382121D02*
X268012D01*
X270412D02*
X271212D01*
X267212Y382321D02*
X268012D01*
X270412D02*
X271212D01*
X267212Y382521D02*
X268012D01*
X270412D02*
X271212D01*
X267212Y382721D02*
X268012D01*
X270412D02*
X271212D01*
X272812D02*
X273212D01*
X267212Y382921D02*
X268012D01*
X270412D02*
X271212D01*
X273012D02*
X273812D01*
X267212Y383121D02*
X268012D01*
X270412D02*
X271212D01*
X267212Y383321D02*
X268012D01*
X270412D02*
X271212D01*
X267212Y383521D02*
X267812D01*
X270612D02*
X271212D01*
X278812Y377321D02*
X281012D01*
X278612Y377521D02*
X281212D01*
X275412Y377721D02*
X276612D01*
X278412D02*
X279612D01*
X280412D02*
X281412D01*
X276012Y377921D02*
X276612D01*
X278212D02*
X279212D01*
X280612D02*
X281612D01*
X278212Y378121D02*
X279012D01*
X280812D02*
X281612D01*
X278212Y378321D02*
X279012D01*
X281012D02*
X281812D01*
X278012Y378521D02*
X278812D01*
X281012D02*
X281812D01*
X278012Y378721D02*
X278812D01*
X281012D02*
X281812D01*
X278012Y378921D02*
X278812D01*
X281212D02*
X282012D01*
X277812Y379121D02*
X278812D01*
X281212D02*
X282012D01*
X277812Y379321D02*
X278612D01*
X281212D02*
X282012D01*
X277812Y379521D02*
X278612D01*
X281212D02*
X282012D01*
X277812Y379721D02*
X278612D01*
X281212D02*
X282012D01*
X277812Y379921D02*
X278612D01*
X281212D02*
X282012D01*
X277812Y380121D02*
X278612D01*
X281212D02*
X282012D01*
X277812Y380321D02*
X278612D01*
X281212D02*
X282012D01*
X277812Y380521D02*
X278612D01*
X281212D02*
X282012D01*
X277812Y380721D02*
X278612D01*
X281212D02*
X282012D01*
X275012Y380921D02*
X276412D01*
X277812D02*
X278612D01*
X281212D02*
X282012D01*
X275612Y381121D02*
X276412D01*
X277812D02*
X278612D01*
X281212D02*
X282012D01*
X275612Y381321D02*
X276612D01*
X277812D02*
X278612D01*
X281212D02*
X282012D01*
X275812Y381521D02*
X276612D01*
X277812D02*
X278812D01*
X281212D02*
X282012D01*
X275812Y381721D02*
X276612D01*
X278012D02*
X278812D01*
X281212D02*
X282012D01*
X275812Y381921D02*
X276612D01*
X278012D02*
X278812D01*
X281012D02*
X281812D01*
X275812Y382121D02*
X276612D01*
X278012D02*
X278812D01*
X281012D02*
X281812D01*
X275812Y382321D02*
X276612D01*
X278012D02*
X279012D01*
X281012D02*
X281812D01*
X275612Y382521D02*
X276412D01*
X278212D02*
X279012D01*
X280812D02*
X281612D01*
X275612Y382721D02*
X276412D01*
X278212D02*
X279212D01*
X280612D02*
X281612D01*
X275012Y382921D02*
X276212D01*
X278412D02*
X279412D01*
X280412D02*
X281412D01*
X278612Y383121D02*
X281212D01*
X278812Y383321D02*
X281012D01*
X279212Y383521D02*
X280812D01*
X284012Y375921D02*
X285012D01*
X284012Y376121D02*
X285012D01*
X284012Y376321D02*
X285012D01*
X284012Y376521D02*
X285012D01*
X284012Y376721D02*
X285012D01*
X284012Y376921D02*
X285012D01*
X284012Y377121D02*
X285012D01*
X284012Y377321D02*
X285012D01*
X284012Y377521D02*
X285012D01*
X284012Y377721D02*
X285012D01*
X284012Y377921D02*
X285012D01*
X284012Y378121D02*
X285012D01*
X284012Y378321D02*
X285012D01*
X284012Y378521D02*
X285012D01*
X284012Y378721D02*
X285012D01*
X284012Y378921D02*
X285012D01*
X284012Y379121D02*
X285012D01*
X284012Y379321D02*
X285012D01*
X284012Y379521D02*
X285012D01*
X284012Y379721D02*
X285012D01*
X284012Y379921D02*
X285012D01*
X284012Y380121D02*
X285012D01*
X284012Y380321D02*
X285012D01*
X284012Y380521D02*
X285012D01*
X284012Y380721D02*
X285012D01*
X284012Y380921D02*
X285012D01*
X284012Y381121D02*
X285012D01*
X284012Y381321D02*
X285012D01*
X284012Y381521D02*
X285012D01*
X284012Y381721D02*
X285012D01*
X284012Y381921D02*
X285012D01*
X284012Y382121D02*
X285012D01*
X284012Y382321D02*
X285012D01*
X284012Y382521D02*
X285012D01*
X284012Y382721D02*
X285012D01*
X284012Y382921D02*
X285012D01*
X284012Y383121D02*
X285012D01*
X284012Y383321D02*
X285012D01*
X284012Y383521D02*
X285012D01*
X260812Y383921D02*
X261412D01*
X260612Y384121D02*
X261412D01*
X260612Y384321D02*
X261412D01*
X260612Y384521D02*
X261412D01*
X260612Y384721D02*
X261212D01*
X260612Y384921D02*
X261212D01*
X260412Y385121D02*
X261212D01*
X260412Y385321D02*
X261212D01*
X260412Y385521D02*
X261212D01*
X260412Y385721D02*
X261212D01*
X260412Y385921D02*
X261012D01*
X260212Y386121D02*
X261012D01*
X260212Y386321D02*
X261012D01*
X260212Y386521D02*
X261012D01*
X260212Y386721D02*
X260812D01*
X260012Y386921D02*
X260812D01*
X260012Y387121D02*
X260812D01*
X260012Y387321D02*
X260812D01*
X260012Y387521D02*
X260812D01*
X260012Y387721D02*
X260612D01*
X259812Y387921D02*
X260612D01*
X259812Y388121D02*
X260612D01*
X259812Y388321D02*
X260412D01*
X284012Y383921D02*
X285012D01*
X284012Y384121D02*
X285012D01*
X284012Y384321D02*
X285012D01*
X284012Y384521D02*
X285012D01*
X284012Y384721D02*
X285012D01*
X284012Y384921D02*
X285012D01*
X284012Y385121D02*
X285012D01*
X284012Y385321D02*
X285012D01*
X284012Y385521D02*
X285012D01*
G54D32*
X44390Y93483D02*
X41058Y88484D01*
Y93483D02*
X44390Y88484D01*
X116535Y93483D02*
Y92650D01*
X114869Y90983D01*
X113203Y92650D01*
Y93483D01*
X114869Y90983D02*
Y88484D01*
X188583Y93483D02*
X185250D01*
Y92650D01*
X188583Y89317D01*
Y88484D01*
X185250D01*
X258873Y93384D02*
X262205D01*
Y88386D01*
X258873D01*
X262205Y90885D02*
X260539D01*
X257206Y88386D02*
X255540D01*
X256373D01*
Y93384D01*
X257206Y92551D01*
X331707Y93483D02*
X335039D01*
Y88484D01*
X331707D01*
X335039Y90983D02*
X333373D01*
X326709Y88484D02*
X330041D01*
X326709Y91817D01*
Y92650D01*
X327542Y93483D01*
X329208D01*
X330041Y92650D01*
M02*
