G04*
G04 #@! TF.GenerationSoftware,Altium Limited,Altium Designer,18.1.9 (240)*
G04*
G04 Layer_Physical_Order=3*
G04 Layer_Color=128*
%FSLAX25Y25*%
%MOIN*%
G70*
G01*
G75*
%ADD14C,0.01000*%
%ADD20C,0.01200*%
%ADD22C,0.02000*%
%ADD277C,0.01500*%
%ADD310C,0.07900*%
G04:AMPARAMS|DCode=311|XSize=99mil|YSize=99mil|CornerRadius=0mil|HoleSize=0mil|Usage=FLASHONLY|Rotation=0.000|XOffset=0mil|YOffset=0mil|HoleType=Round|Shape=Relief|Width=14mil|Gap=10mil|Entries=4|*
%AMTHD311*
7,0,0,0.09900,0.07900,0.01400,45*
%
%ADD311THD311*%
%ADD313C,0.14211*%
%ADD314C,0.08700*%
%ADD315C,0.06400*%
%ADD316C,0.08300*%
%ADD317C,0.06200*%
%ADD320C,0.11100*%
G04:AMPARAMS|DCode=321|XSize=84mil|YSize=84mil|CornerRadius=0mil|HoleSize=0mil|Usage=FLASHONLY|Rotation=0.000|XOffset=0mil|YOffset=0mil|HoleType=Round|Shape=Relief|Width=14mil|Gap=10mil|Entries=4|*
%AMTHD321*
7,0,0,0.08400,0.06400,0.01400,45*
%
%ADD321THD321*%
%ADD322C,0.05943*%
G04:AMPARAMS|DCode=323|XSize=79.433mil|YSize=79.433mil|CornerRadius=0mil|HoleSize=0mil|Usage=FLASHONLY|Rotation=0.000|XOffset=0mil|YOffset=0mil|HoleType=Round|Shape=Relief|Width=14mil|Gap=10mil|Entries=4|*
%AMTHD323*
7,0,0,0.07943,0.05943,0.01400,45*
%
%ADD323THD323*%
%ADD324C,0.15392*%
%ADD325C,0.03900*%
%ADD326C,0.03400*%
%ADD327C,0.12000*%
%ADD328R,0.02657X0.04134*%
G04:AMPARAMS|DCode=329|XSize=107mil|YSize=107mil|CornerRadius=0mil|HoleSize=0mil|Usage=FLASHONLY|Rotation=0.000|XOffset=0mil|YOffset=0mil|HoleType=Round|Shape=Relief|Width=14mil|Gap=10mil|Entries=4|*
%AMTHD329*
7,0,0,0.10700,0.08700,0.01400,45*
%
%ADD329THD329*%
G54D14*
X403323Y149878D02*
X403223Y150862D01*
X402926Y151806D01*
X402446Y152672D01*
X401802Y153422D01*
X401019Y154028D01*
X400131Y154464D01*
X399173Y154712D01*
X398185Y154762D01*
X397206Y154612D01*
X396279Y154269D01*
X395439Y153745D01*
X394722Y153063D01*
X394156Y152251D01*
X393766Y151342D01*
X393567Y150373D01*
Y149383D01*
X393766Y148414D01*
X394156Y147505D01*
X394722Y146693D01*
X395439Y146011D01*
X396279Y145487D01*
X397206Y145144D01*
X398185Y144994D01*
X399173Y145044D01*
X400131Y145292D01*
X401019Y145728D01*
X401802Y146333D01*
X402446Y147084D01*
X402926Y147949D01*
X403223Y148893D01*
X403323Y149878D01*
X389965D02*
X389864Y150871D01*
X389565Y151823D01*
X389081Y152696D01*
X388431Y153453D01*
X387642Y154064D01*
X386746Y154504D01*
X385779Y154754D01*
X384782Y154804D01*
X383796Y154653D01*
X382860Y154307D01*
X382013Y153779D01*
X381290Y153091D01*
X380719Y152272D01*
X380326Y151355D01*
X380125Y150377D01*
Y149379D01*
X380326Y148401D01*
X380719Y147484D01*
X381290Y146665D01*
X382013Y145977D01*
X382860Y145449D01*
X383796Y145103D01*
X384782Y144951D01*
X385779Y145002D01*
X386746Y145252D01*
X387642Y145692D01*
X388431Y146303D01*
X389081Y147060D01*
X389565Y147933D01*
X389864Y148885D01*
X389965Y149878D01*
X192000Y385200D02*
X191874Y386195D01*
X191505Y387127D01*
X190916Y387938D01*
X190143Y388577D01*
X189236Y389004D01*
X188251Y389192D01*
X187250Y389129D01*
X186297Y388819D01*
X185450Y388282D01*
X184764Y387551D01*
X184281Y386672D01*
X184031Y385701D01*
Y384699D01*
X184281Y383728D01*
X184764Y382849D01*
X185450Y382118D01*
X186297Y381581D01*
X187250Y381271D01*
X188251Y381208D01*
X189236Y381396D01*
X190143Y381823D01*
X190916Y382462D01*
X191505Y383273D01*
X191874Y384205D01*
X192000Y385200D01*
X152000Y385200D02*
X151874Y386195D01*
X151505Y387127D01*
X150916Y387938D01*
X150143Y388577D01*
X149236Y389004D01*
X148251Y389192D01*
X147250Y389129D01*
X146297Y388819D01*
X145450Y388282D01*
X144764Y387551D01*
X144281Y386672D01*
X144032Y385701D01*
Y384699D01*
X144281Y383728D01*
X144764Y382849D01*
X145450Y382118D01*
X146297Y381581D01*
X147250Y381271D01*
X148251Y381208D01*
X149236Y381396D01*
X150143Y381823D01*
X150916Y382462D01*
X151505Y383273D01*
X151874Y384205D01*
X152000Y385200D01*
X112000Y385200D02*
X111874Y386195D01*
X111505Y387127D01*
X110916Y387938D01*
X110143Y388577D01*
X109236Y389004D01*
X108251Y389192D01*
X107250Y389129D01*
X106297Y388819D01*
X105450Y388282D01*
X104764Y387551D01*
X104281Y386672D01*
X104032Y385701D01*
Y384699D01*
X104281Y383728D01*
X104764Y382849D01*
X105450Y382118D01*
X106297Y381581D01*
X107250Y381271D01*
X108251Y381208D01*
X109236Y381396D01*
X110143Y381823D01*
X110916Y382462D01*
X111505Y383273D01*
X111874Y384205D01*
X112000Y385200D01*
X72000Y385200D02*
X71874Y386195D01*
X71505Y387127D01*
X70916Y387938D01*
X70143Y388577D01*
X69236Y389004D01*
X68251Y389192D01*
X67251Y389129D01*
X66297Y388819D01*
X65450Y388282D01*
X64764Y387551D01*
X64281Y386672D01*
X64031Y385701D01*
Y384699D01*
X64281Y383728D01*
X64764Y382849D01*
X65450Y382118D01*
X66297Y381581D01*
X67251Y381271D01*
X68251Y381208D01*
X69236Y381396D01*
X70143Y381823D01*
X70916Y382462D01*
X71505Y383273D01*
X71874Y384205D01*
X72000Y385200D01*
X389032Y202878D02*
X388907Y203873D01*
X388538Y204805D01*
X387948Y205616D01*
X387176Y206255D01*
X386268Y206682D01*
X385283Y206870D01*
X384283Y206807D01*
X383329Y206497D01*
X382483Y205960D01*
X381796Y205229D01*
X381313Y204350D01*
X381064Y203379D01*
Y202377D01*
X381313Y201405D01*
X381796Y200527D01*
X382483Y199796D01*
X383329Y199259D01*
X384283Y198949D01*
X385283Y198886D01*
X386268Y199074D01*
X387176Y199501D01*
X387948Y200140D01*
X388538Y200951D01*
X388907Y201883D01*
X389032Y202878D01*
X402432Y202878D02*
X402307Y203873D01*
X401937Y204805D01*
X401348Y205616D01*
X400576Y206255D01*
X399668Y206682D01*
X398683Y206870D01*
X397683Y206807D01*
X396729Y206497D01*
X395883Y205960D01*
X395196Y205229D01*
X394713Y204350D01*
X394464Y203379D01*
Y202377D01*
X394713Y201405D01*
X395196Y200527D01*
X395883Y199796D01*
X396729Y199259D01*
X397683Y198949D01*
X398683Y198886D01*
X399668Y199074D01*
X400576Y199501D01*
X401348Y200140D01*
X401937Y200951D01*
X402307Y201883D01*
X402432Y202878D01*
X192000Y385200D02*
X191874Y386195D01*
X191505Y387127D01*
X190916Y387938D01*
X190143Y388577D01*
X189236Y389004D01*
X188251Y389192D01*
X187250Y389129D01*
X186297Y388819D01*
X185450Y388282D01*
X184764Y387551D01*
X184281Y386672D01*
X184031Y385701D01*
Y384699D01*
X184281Y383728D01*
X184764Y382849D01*
X185450Y382118D01*
X186297Y381581D01*
X187250Y381271D01*
X188251Y381208D01*
X189236Y381396D01*
X190143Y381823D01*
X190916Y382462D01*
X191505Y383273D01*
X191874Y384205D01*
X192000Y385200D01*
X152000Y385200D02*
X151874Y386195D01*
X151505Y387127D01*
X150916Y387938D01*
X150143Y388577D01*
X149236Y389004D01*
X148251Y389192D01*
X147250Y389129D01*
X146297Y388819D01*
X145450Y388282D01*
X144764Y387551D01*
X144281Y386672D01*
X144032Y385701D01*
Y384699D01*
X144281Y383728D01*
X144764Y382849D01*
X145450Y382118D01*
X146297Y381581D01*
X147250Y381271D01*
X148251Y381208D01*
X149236Y381396D01*
X150143Y381823D01*
X150916Y382462D01*
X151505Y383273D01*
X151874Y384205D01*
X152000Y385200D01*
X111900Y385300D02*
X111774Y386295D01*
X111405Y387227D01*
X110816Y388038D01*
X110043Y388677D01*
X109136Y389104D01*
X108151Y389292D01*
X107150Y389229D01*
X106197Y388919D01*
X105350Y388382D01*
X104664Y387651D01*
X104181Y386772D01*
X103931Y385801D01*
Y384799D01*
X104181Y383827D01*
X104664Y382949D01*
X105350Y382218D01*
X106197Y381681D01*
X107150Y381371D01*
X108151Y381308D01*
X109136Y381496D01*
X110043Y381923D01*
X110816Y382562D01*
X111405Y383373D01*
X111774Y384305D01*
X111900Y385300D01*
X72000Y385200D02*
X71874Y386195D01*
X71505Y387127D01*
X70916Y387938D01*
X70143Y388577D01*
X69236Y389004D01*
X68251Y389192D01*
X67251Y389129D01*
X66297Y388819D01*
X65450Y388282D01*
X64764Y387551D01*
X64281Y386672D01*
X64031Y385701D01*
Y384699D01*
X64281Y383728D01*
X64764Y382849D01*
X65450Y382118D01*
X66297Y381581D01*
X67251Y381271D01*
X68251Y381208D01*
X69236Y381396D01*
X70143Y381823D01*
X70916Y382462D01*
X71505Y383273D01*
X71874Y384205D01*
X72000Y385200D01*
X310320Y297300D02*
X317400D01*
X410000Y266000D02*
Y268200D01*
X212650Y328200D02*
X232650D01*
X34500Y1000D02*
X35500Y0D01*
X410000Y355500D02*
Y363000D01*
X0Y0D02*
X116Y103500D01*
X1000Y344500D02*
Y368000D01*
G54D20*
X364300Y126048D02*
X375500D01*
X360200Y121948D02*
X364300Y126048D01*
X358300Y121948D02*
X360200D01*
X361831Y108248D02*
X374607D01*
G54D22*
X375600Y109241D01*
Y138339D01*
X372800Y141139D02*
X375600Y138339D01*
X281000Y317448D02*
X282000Y318448D01*
Y323948D01*
X273748Y325400D02*
X273996Y325648D01*
X280300D01*
X282000Y323948D01*
X264272Y325400D02*
X273748D01*
X257112Y332560D02*
X264272Y325400D01*
X257318Y332766D02*
Y355403D01*
X249952Y325400D02*
X257318Y332766D01*
X235500Y325400D02*
X249952D01*
X281000Y289090D02*
Y317448D01*
Y289090D02*
X288501Y281588D01*
X132600Y196018D02*
Y224370D01*
Y230965D02*
Y292465D01*
X180645D01*
X132600Y230965D02*
X139476D01*
Y224370D02*
Y230965D01*
X132600Y224370D02*
X139476D01*
X128281Y196018D02*
X132600D01*
X372800Y141139D02*
Y163993D01*
X375937Y167130D01*
X409827D01*
X149539Y241980D02*
X156233D01*
X149500Y242019D02*
X149539Y241980D01*
X201480Y362899D02*
X249822D01*
X302165Y289046D02*
X303320Y290200D01*
X207717Y326306D02*
Y328214D01*
X198973Y326306D02*
X207717D01*
X198973Y326243D02*
Y326306D01*
X201480Y334088D02*
Y362899D01*
X201470Y334088D02*
X201480D01*
X201467Y334096D02*
X207742D01*
Y328219D02*
Y334096D01*
X156233Y256257D02*
X159770D01*
X156233Y241980D02*
Y256257D01*
X149500Y172761D02*
Y242019D01*
X126091Y353143D02*
X148339D01*
Y332751D02*
Y353143D01*
X126091Y332751D02*
X148339D01*
X126091D02*
Y353143D01*
X85991D02*
X108239D01*
Y332751D02*
Y353143D01*
X85991Y332751D02*
X108239D01*
X85991D02*
Y353143D01*
X108239D01*
Y332751D02*
Y353143D01*
X85991Y332751D02*
X108239D01*
X85991D02*
Y353143D01*
X0Y108700D02*
Y110100D01*
X366100Y288500D02*
X369400D01*
X390000D01*
X391400Y287100D01*
Y269500D02*
Y287100D01*
X385900Y264000D02*
X391400Y269500D01*
X370100Y264000D02*
X385900D01*
X367400Y261300D02*
X370100Y264000D01*
X313000Y261300D02*
X367400D01*
X308700D02*
X313000D01*
X302165Y267835D02*
X308700Y261300D01*
X302165Y267835D02*
Y289046D01*
X335335Y315700D02*
X345500D01*
X358200Y328400D01*
X387600D01*
X390700Y325300D01*
Y311000D02*
Y325300D01*
X387000Y307300D02*
X390700Y311000D01*
X369900Y307300D02*
X387000D01*
X365900Y303300D02*
X369900Y307300D01*
X365900Y279200D02*
Y303300D01*
X362300Y275600D02*
X365900Y279200D01*
X342300Y275600D02*
X362300D01*
X336700Y281200D02*
X342300Y275600D01*
X336700Y281200D02*
Y305800D01*
X331300Y311200D02*
X336700Y305800D01*
X317400Y297300D02*
X335100Y315000D01*
X310320Y297300D02*
X317400D01*
X294520Y281500D02*
X310320Y297300D01*
X335100Y315000D02*
X335335Y315235D01*
X232700Y328200D02*
X235500Y325400D01*
X207759Y328200D02*
X212700D01*
X46141Y332751D02*
Y353143D01*
Y332751D02*
X68388D01*
Y353143D01*
X46141D02*
X68388D01*
X335335Y355500D02*
X410000Y355500D01*
X30000Y332600D02*
Y344000D01*
X1000Y344500D02*
X30000D01*
X249822Y362899D02*
X257200Y355521D01*
X30000Y332600D02*
X165800D01*
X172100Y326300D01*
X199000D01*
X212700Y328200D02*
X232700D01*
X149500Y172761D02*
X230102D01*
X172638Y253600D02*
Y278931D01*
X159841D02*
X172638D01*
X159841Y256333D02*
Y278931D01*
X223685Y155978D02*
X245062D01*
X214448Y269687D02*
Y272183D01*
X206667D02*
X214448D01*
X206667Y271470D02*
Y272183D01*
X127681Y171255D02*
Y195518D01*
Y171255D02*
X133012D01*
Y155700D02*
Y171255D01*
Y155700D02*
X204279D01*
Y158525D01*
X223685D01*
Y155978D02*
Y158525D01*
X245062Y155978D02*
X246946D01*
X335335Y315235D02*
Y355500D01*
X288501Y281588D02*
X294431D01*
X197170Y271470D02*
X206667D01*
X183800Y262400D02*
X188100D01*
X197170Y271470D01*
X206667D01*
X246946Y155978D02*
Y256095D01*
X240268Y262773D02*
X246946Y256095D01*
X214448Y269687D02*
X233354D01*
X240268Y262773D01*
X230102Y172761D02*
Y247398D01*
X223900Y253600D02*
X230102Y247398D01*
X172638Y253600D02*
X223900D01*
X180645Y264855D02*
Y292465D01*
Y264855D02*
X183100Y262400D01*
X183800D01*
G54D277*
X358100Y113160D02*
X358465Y112795D01*
X339567Y129331D02*
X341849Y127048D01*
X69488Y123800D02*
X69724Y124036D01*
X213976Y123500D02*
X261492D01*
X267323Y129331D01*
X256102Y118110D02*
Y123500D01*
X250098Y112106D02*
X256102Y118110D01*
X141732Y123500D02*
X189248D01*
X195079Y129331D01*
X183858Y118110D02*
Y123500D01*
X177854Y112106D02*
X183858Y118110D01*
X111614D02*
Y123800D01*
X105610Y112106D02*
X111614Y118110D01*
X122488Y124036D02*
X127783Y129331D01*
X45079Y123819D02*
X50591Y129331D01*
X33366Y112106D02*
X39370Y118110D01*
X45079Y123800D02*
Y123819D01*
X39370Y118110D02*
Y123800D01*
X307579Y91043D02*
X318695D01*
X322700Y95048D01*
X339960D01*
X346032Y88976D01*
X353740D01*
X300984Y115847D02*
Y129331D01*
X162894Y91240D02*
Y106595D01*
X168405Y112106D01*
X177854D01*
X162894Y91240D02*
X165748Y88386D01*
X173228D01*
X173819Y88976D01*
X205807D01*
X213976Y112795D02*
Y127756D01*
X212402Y129331D02*
X213976Y127756D01*
X195079Y129331D02*
X212402D01*
X127783D02*
X140157D01*
X141732Y127756D01*
Y112795D02*
Y127756D01*
X101575Y88976D02*
X133563D01*
X100984Y88386D02*
X101575Y88976D01*
X93504Y88386D02*
X100984D01*
X90650Y91240D02*
X93504Y88386D01*
X96161Y112106D02*
X105610D01*
X90650Y106595D02*
X96161Y112106D01*
X90650Y91240D02*
Y106595D01*
X69724Y124036D02*
X122488D01*
X100Y123800D02*
X45079D01*
X18406Y91240D02*
Y106595D01*
X23917Y112106D01*
X33366D01*
X18406Y91240D02*
X21260Y88386D01*
X28740D01*
X29331Y88976D01*
X61319D01*
X69488Y97146D02*
Y112795D01*
X61319Y88976D02*
X69488Y97146D01*
Y112795D02*
Y127756D01*
X67913Y129331D02*
X69488Y127756D01*
X50591Y129331D02*
X67913D01*
X267323D02*
X284646D01*
X286221Y127756D01*
Y112795D02*
Y127756D01*
X246063Y88976D02*
X278051D01*
X245472Y88386D02*
X246063Y88976D01*
X237992Y88386D02*
X245472D01*
X235138Y91240D02*
X237992Y88386D01*
X240650Y112106D02*
X250098D01*
X235138Y106595D02*
X240650Y112106D01*
X235138Y91240D02*
Y106595D01*
X356490Y127048D02*
X358100Y125438D01*
Y113160D02*
Y125438D01*
X353740Y88976D02*
X358465Y93701D01*
X300984Y115847D02*
Y123500D01*
X286221Y115847D02*
X300984D01*
X307382Y91240D02*
Y97146D01*
X330020Y119783D02*
Y129331D01*
X300984D02*
X339567D01*
X341849Y127048D02*
X356490D01*
X307382Y97146D02*
X330020Y119783D01*
X358465Y93701D02*
X362205D01*
X364173Y95669D01*
Y105905D01*
X358465Y111614D02*
X364173Y105905D01*
X358465Y111614D02*
Y112303D01*
X278051Y88976D02*
X281004Y91929D01*
Y105020D01*
X286221Y110236D01*
Y115847D01*
X205807Y88976D02*
X209646D01*
X211417Y90748D01*
X215748D01*
X219488Y94488D01*
Y105709D01*
X213976Y111221D02*
X219488Y105709D01*
X213976Y111221D02*
Y120079D01*
X133563Y88976D02*
X137598D01*
X139961Y91339D01*
X144095D01*
X147343Y94587D01*
Y105905D01*
X141732Y111516D02*
X147343Y105905D01*
X141732Y111516D02*
Y120669D01*
G54D310*
X377063Y338248D02*
D03*
Y298248D02*
D03*
Y258248D02*
D03*
Y238248D02*
D03*
X228000Y385200D02*
D03*
X208000D02*
D03*
X188000D02*
D03*
X168000D02*
D03*
X148000D02*
D03*
X128000D02*
D03*
X108000D02*
D03*
X88000D02*
D03*
X68000D02*
D03*
X48000D02*
D03*
G54D311*
X377063Y318248D02*
D03*
Y278248D02*
D03*
G54D313*
X395000Y15000D02*
D03*
X15000D02*
D03*
Y390000D02*
D03*
X395000D02*
D03*
G54D314*
X345100Y338400D02*
D03*
X358500D02*
D03*
X398432Y202878D02*
D03*
X385032D02*
D03*
Y149878D02*
D03*
X398432D02*
D03*
G54D315*
X8600Y322400D02*
D03*
Y304600D02*
D03*
X265700Y230900D02*
D03*
X255700D02*
D03*
X293000Y186300D02*
D03*
X303000D02*
D03*
X334500Y14500D02*
D03*
X344500D02*
D03*
X354500D02*
D03*
X364500D02*
D03*
X12400Y354500D02*
D03*
X337800Y230900D02*
D03*
X347800D02*
D03*
X296750D02*
D03*
X306750D02*
D03*
X357800Y254900D02*
D03*
X347800D02*
D03*
X316750D02*
D03*
X306750D02*
D03*
X275700D02*
D03*
X265700D02*
D03*
X365800Y186300D02*
D03*
X355800D02*
D03*
X334500D02*
D03*
X324500D02*
D03*
X271300D02*
D03*
X261300D02*
D03*
X391800Y75500D02*
D03*
Y65500D02*
D03*
Y45500D02*
D03*
X305000Y14500D02*
D03*
X295000D02*
D03*
X285000D02*
D03*
X275000D02*
D03*
X246000D02*
D03*
X236000D02*
D03*
X226000D02*
D03*
X216000D02*
D03*
X195000D02*
D03*
X185000D02*
D03*
X175000D02*
D03*
X165000D02*
D03*
X135500D02*
D03*
X125500D02*
D03*
X115500D02*
D03*
X105500D02*
D03*
X75500D02*
D03*
X65500D02*
D03*
X55500D02*
D03*
X45500D02*
D03*
G54D316*
X18400Y327300D02*
D03*
Y299700D02*
D03*
G54D317*
X43600Y225000D02*
D03*
Y234921D02*
D03*
X35700D02*
D03*
Y225000D02*
D03*
G54D320*
X25000Y253622D02*
D03*
Y206300D02*
D03*
G54D321*
X275700Y230900D02*
D03*
X22400Y354500D02*
D03*
X357800Y230900D02*
D03*
X316750D02*
D03*
X337800Y254900D02*
D03*
X296750D02*
D03*
X255700D02*
D03*
X391800Y55500D02*
D03*
G54D322*
X80100Y150600D02*
D03*
X90100Y140600D02*
D03*
Y150600D02*
D03*
X100100Y140600D02*
D03*
Y150600D02*
D03*
X110100Y140600D02*
D03*
Y150600D02*
D03*
X120100Y140600D02*
D03*
Y150600D02*
D03*
X130100Y140600D02*
D03*
Y150600D02*
D03*
X140100Y140600D02*
D03*
Y150600D02*
D03*
X150100Y140600D02*
D03*
Y150600D02*
D03*
X160100Y140600D02*
D03*
Y150600D02*
D03*
X170100Y140600D02*
D03*
Y150600D02*
D03*
X180100Y140600D02*
D03*
Y150600D02*
D03*
X190100Y140600D02*
D03*
Y150600D02*
D03*
X203800Y320300D02*
D03*
X193800D02*
D03*
X183800D02*
D03*
X173800D02*
D03*
X314476Y145886D02*
D03*
Y155886D02*
D03*
X324476Y145886D02*
D03*
Y155886D02*
D03*
X334476D02*
D03*
X344476Y145886D02*
D03*
Y155886D02*
D03*
X354476Y145886D02*
D03*
Y155886D02*
D03*
X110300Y180300D02*
D03*
Y170300D02*
D03*
X100300Y180300D02*
D03*
Y170300D02*
D03*
X90300Y180300D02*
D03*
Y170300D02*
D03*
X80300Y180300D02*
D03*
Y170300D02*
D03*
X70300Y180300D02*
D03*
Y170300D02*
D03*
X110300Y217794D02*
D03*
Y207794D02*
D03*
X100300Y217794D02*
D03*
Y207794D02*
D03*
X90300Y217794D02*
D03*
Y207794D02*
D03*
X80300Y217794D02*
D03*
Y207794D02*
D03*
X70300Y217794D02*
D03*
Y207794D02*
D03*
G54D323*
X80100Y140600D02*
D03*
X203800Y330300D02*
D03*
X193800D02*
D03*
X183800D02*
D03*
X173800D02*
D03*
X334476Y145886D02*
D03*
G54D324*
X13044Y119566D02*
D03*
X215500Y144300D02*
D03*
X36900Y310500D02*
D03*
G54D325*
X388000Y8000D02*
D03*
X402000D02*
D03*
Y22000D02*
D03*
X388000D02*
D03*
X385000Y15000D02*
D03*
X405000D02*
D03*
X395000Y25000D02*
D03*
Y5000D02*
D03*
X15000D02*
D03*
Y25000D02*
D03*
X25000Y15000D02*
D03*
X5000D02*
D03*
X8000Y22000D02*
D03*
X22000D02*
D03*
Y8000D02*
D03*
X8000D02*
D03*
X15000Y380000D02*
D03*
Y400000D02*
D03*
X25000Y390000D02*
D03*
X5000D02*
D03*
X8000Y397000D02*
D03*
X22000D02*
D03*
Y383000D02*
D03*
X8000D02*
D03*
X395000Y380000D02*
D03*
Y400000D02*
D03*
X405000Y390000D02*
D03*
X385000D02*
D03*
X388000Y397000D02*
D03*
X402000D02*
D03*
Y383000D02*
D03*
X388000D02*
D03*
X176563Y351614D02*
D03*
X66425Y133012D02*
D03*
Y157520D02*
D03*
X97626Y127697D02*
D03*
X102744Y127894D02*
D03*
X108354D02*
D03*
X113353Y145659D02*
D03*
X121839Y127795D02*
D03*
X242200Y329634D02*
D03*
X265700Y336848D02*
D03*
X265200Y348148D02*
D03*
X245500Y349948D02*
D03*
X263200Y287748D02*
D03*
X274100Y282200D02*
D03*
X260000Y329748D02*
D03*
Y325448D02*
D03*
X244900Y317948D02*
D03*
X246200Y323248D02*
D03*
X249600Y328048D02*
D03*
Y323448D02*
D03*
X277700Y321248D02*
D03*
X242700Y301745D02*
D03*
X240500Y310048D02*
D03*
X255804Y316919D02*
D03*
X260100Y321148D02*
D03*
X249600Y297848D02*
D03*
X260000Y343648D02*
D03*
Y338548D02*
D03*
X268800Y305248D02*
D03*
X267510Y274862D02*
D03*
X250539Y278051D02*
D03*
X247159Y289707D02*
D03*
X241975Y289765D02*
D03*
X241043Y280217D02*
D03*
X245374Y275886D02*
D03*
Y280217D02*
D03*
X250146Y270473D02*
D03*
X237743Y270079D02*
D03*
X368700Y148548D02*
D03*
X401100Y318948D02*
D03*
X363400Y130948D02*
D03*
X379485Y85833D02*
D03*
X369100Y131148D02*
D03*
X343400Y135348D02*
D03*
X340200Y135248D02*
D03*
X348800Y130548D02*
D03*
X345400D02*
D03*
X368600Y143348D02*
D03*
X393800Y93648D02*
D03*
X342153Y204255D02*
D03*
X342350Y199921D02*
D03*
X285400Y280348D02*
D03*
X261800Y296148D02*
D03*
X400591Y103400D02*
D03*
X397100Y135448D02*
D03*
X49200Y260281D02*
D03*
X13044Y110511D02*
D03*
Y128621D02*
D03*
X22099Y119566D02*
D03*
X3989D02*
D03*
X206445Y144300D02*
D03*
X224555D02*
D03*
X215500Y153355D02*
D03*
Y135245D02*
D03*
X241043Y275886D02*
D03*
X211400Y273648D02*
D03*
X214100Y276648D02*
D03*
X202500Y286400D02*
D03*
X117044Y66355D02*
D03*
X186700Y95848D02*
D03*
X204154Y59465D02*
D03*
X203466Y63107D02*
D03*
X11122Y85335D02*
D03*
X15362Y90315D02*
D03*
X229672Y303053D02*
D03*
X236516Y298524D02*
D03*
X66943Y235655D02*
D03*
X302388Y158781D02*
D03*
X297173Y161240D02*
D03*
X302341Y162589D02*
D03*
X139693Y169606D02*
D03*
X179646Y56906D02*
D03*
X68701Y59500D02*
D03*
X65650D02*
D03*
X300126Y342736D02*
D03*
X326110Y222953D02*
D03*
X271189Y219311D02*
D03*
X279850Y246083D02*
D03*
X328571Y255827D02*
D03*
X239398Y138110D02*
D03*
X278079Y207402D02*
D03*
X309968Y131417D02*
D03*
X322300Y122648D02*
D03*
X301673Y124311D02*
D03*
X320669Y126181D02*
D03*
X324902Y125295D02*
D03*
X257970Y169925D02*
D03*
X297715Y143868D02*
D03*
X327095Y141260D02*
D03*
X322567Y141162D02*
D03*
X256720Y173937D02*
D03*
X257705Y159469D02*
D03*
X299730Y165769D02*
D03*
X348158Y202185D02*
D03*
X276504Y151988D02*
D03*
X277314Y142063D02*
D03*
X272665Y141260D02*
D03*
X279954Y139494D02*
D03*
X270500Y145689D02*
D03*
X280930Y147855D02*
D03*
X275452Y158400D02*
D03*
X275456Y162224D02*
D03*
X233539Y157230D02*
D03*
X229770Y157770D02*
D03*
X232035Y150591D02*
D03*
X230762Y168759D02*
D03*
X223300Y160048D02*
D03*
X352193Y211145D02*
D03*
X359575Y214980D02*
D03*
X322567Y206356D02*
D03*
X337331Y215571D02*
D03*
X272075Y207402D02*
D03*
X277881Y200515D02*
D03*
X295500Y208091D02*
D03*
X288610Y205827D02*
D03*
X314791Y209567D02*
D03*
X264012Y207652D02*
D03*
X257011Y197661D02*
D03*
X262171Y216095D02*
D03*
X306445Y325886D02*
D03*
X330067Y326181D02*
D03*
X338043Y337208D02*
D03*
Y333862D02*
D03*
Y343701D02*
D03*
Y340457D02*
D03*
X280264Y26169D02*
D03*
X60864Y304333D02*
D03*
X60480Y300492D02*
D03*
X67729Y306151D02*
D03*
X45520Y66240D02*
D03*
X235600Y278253D02*
D03*
X241188Y268307D02*
D03*
X372560Y203413D02*
D03*
X364413Y387795D02*
D03*
X345922Y298811D02*
D03*
X273768Y396260D02*
D03*
X236499Y396265D02*
D03*
X255559Y396457D02*
D03*
X184617Y265992D02*
D03*
X172385Y261811D02*
D03*
X165298Y267815D02*
D03*
X192520Y69193D02*
D03*
X189909Y66142D02*
D03*
X273768Y308563D02*
D03*
X270224D02*
D03*
X358418Y381895D02*
D03*
X352213Y386221D02*
D03*
X301425Y310630D02*
D03*
X294142Y322638D02*
D03*
X300342Y322933D02*
D03*
X294929Y310630D02*
D03*
X298177Y310728D02*
D03*
X297291Y322835D02*
D03*
X303886Y304134D02*
D03*
X290500Y300197D02*
D03*
X56900Y137800D02*
D03*
X51819Y139469D02*
D03*
X60600Y138148D02*
D03*
X235184Y178342D02*
D03*
X305610Y298425D02*
D03*
X270323Y311614D02*
D03*
X273768Y311811D02*
D03*
X148928Y271555D02*
D03*
X149850Y285728D02*
D03*
X60864Y242420D02*
D03*
X60273Y237302D02*
D03*
X250000Y266802D02*
D03*
X239738Y229124D02*
D03*
X236138Y229286D02*
D03*
X242075Y233858D02*
D03*
X239614Y236811D02*
D03*
X235776Y236152D02*
D03*
X241605Y224800D02*
D03*
X343260Y70758D02*
D03*
X347886Y65837D02*
D03*
X347988Y62949D02*
D03*
X348772Y59340D02*
D03*
X189220Y166929D02*
D03*
X188630Y163189D02*
D03*
X213162Y166032D02*
D03*
X235077Y148565D02*
D03*
X274100Y278200D02*
D03*
X274114Y273839D02*
D03*
X274559Y210335D02*
D03*
X291954Y142642D02*
D03*
X201287Y246348D02*
D03*
X244339Y227264D02*
D03*
X241300Y219200D02*
D03*
X239300Y213948D02*
D03*
X212000Y219848D02*
D03*
X223039Y201839D02*
D03*
X220400Y179948D02*
D03*
X219400Y184948D02*
D03*
X219423Y188603D02*
D03*
X219421Y195099D02*
D03*
X213400Y161348D02*
D03*
X207290Y162338D02*
D03*
X210500Y184600D02*
D03*
X206300Y181200D02*
D03*
X207340Y158730D02*
D03*
X206800Y184800D02*
D03*
X116300Y238148D02*
D03*
X329085Y112648D02*
D03*
X338900Y59248D02*
D03*
X335500Y60948D02*
D03*
X275700Y65748D02*
D03*
X271100Y70648D02*
D03*
X331300Y96048D02*
D03*
X325884Y95968D02*
D03*
X259300Y96148D02*
D03*
X232100Y98248D02*
D03*
X32500Y149000D02*
D03*
X39372Y175148D02*
D03*
X141200Y217248D02*
D03*
X137211Y230766D02*
D03*
X127594Y207794D02*
D03*
X130635Y207800D02*
D03*
X131700Y199348D02*
D03*
X128660Y199343D02*
D03*
X159818Y163274D02*
D03*
X153800Y165800D02*
D03*
X161900Y247148D02*
D03*
X201300Y238748D02*
D03*
X201274Y242430D02*
D03*
X170100Y281400D02*
D03*
X252400Y293100D02*
D03*
X194440Y242382D02*
D03*
X112524Y238402D02*
D03*
X176100Y196448D02*
D03*
X85400Y196148D02*
D03*
X126831Y216823D02*
D03*
X138800Y218700D02*
D03*
X153800Y217600D02*
D03*
X261800Y290148D02*
D03*
X261400Y284348D02*
D03*
X205500Y270100D02*
D03*
X195848Y263648D02*
D03*
X153100Y235648D02*
D03*
X182008Y246957D02*
D03*
X182300Y250548D02*
D03*
X182000Y243348D02*
D03*
X139500Y239248D02*
D03*
X156100Y235600D02*
D03*
X170276Y287717D02*
D03*
X56004Y249331D02*
D03*
X60925Y230728D02*
D03*
X93919Y232180D02*
D03*
X162800Y238500D02*
D03*
X396766Y193650D02*
D03*
X386713D02*
D03*
X383366D02*
D03*
X383352Y212106D02*
D03*
X386698D02*
D03*
X405217Y202902D02*
D03*
Y206248D02*
D03*
Y199555D02*
D03*
X373650Y244606D02*
D03*
X383760Y244488D02*
D03*
X377067D02*
D03*
X380413D02*
D03*
X370177D02*
D03*
X387894Y238189D02*
D03*
X386516Y241732D02*
D03*
X386614Y234646D02*
D03*
X383949Y232008D02*
D03*
X373713D02*
D03*
X377059D02*
D03*
X370366D02*
D03*
X380504D02*
D03*
X373622Y264488D02*
D03*
X383760D02*
D03*
X377067D02*
D03*
X380413D02*
D03*
X370177D02*
D03*
X387894Y258189D02*
D03*
X386516Y261732D02*
D03*
X386614Y254646D02*
D03*
X383949Y252008D02*
D03*
X373713D02*
D03*
X377059D02*
D03*
X370366D02*
D03*
X380504D02*
D03*
X373622Y304488D02*
D03*
X383760D02*
D03*
X377067D02*
D03*
X380413D02*
D03*
X370177D02*
D03*
X387894Y298189D02*
D03*
X386516Y301732D02*
D03*
X386614Y294646D02*
D03*
X383949Y292008D02*
D03*
X373713D02*
D03*
X377059D02*
D03*
X370366D02*
D03*
X380504D02*
D03*
Y332008D02*
D03*
X370366D02*
D03*
X377059D02*
D03*
X373713D02*
D03*
X383949D02*
D03*
X339899Y330709D02*
D03*
X351513Y329232D02*
D03*
X363521Y331004D02*
D03*
X345116Y329134D02*
D03*
X358502Y329232D02*
D03*
X365687Y343701D02*
D03*
Y333858D02*
D03*
Y340453D02*
D03*
Y337106D02*
D03*
X229700Y369648D02*
D03*
X250600Y346948D02*
D03*
X259900Y349048D02*
D03*
X290059Y335925D02*
D03*
Y339075D02*
D03*
X360138Y353740D02*
D03*
X352559D02*
D03*
X356398D02*
D03*
X369488D02*
D03*
X365650D02*
D03*
X373228D02*
D03*
X293307Y350295D02*
D03*
Y353445D02*
D03*
X290059Y350295D02*
D03*
Y353445D02*
D03*
X250939Y386221D02*
D03*
X258300Y360048D02*
D03*
X266200Y319448D02*
D03*
X5118Y197835D02*
D03*
X238976Y106102D02*
D03*
X314469Y108071D02*
D03*
X265453Y59941D02*
D03*
X193209D02*
D03*
X297736Y80905D02*
D03*
X308037Y95039D02*
D03*
X271260Y95079D02*
D03*
X231988Y80905D02*
D03*
X229035D02*
D03*
X199016Y95079D02*
D03*
X159744Y80905D02*
D03*
X156791D02*
D03*
X163549Y91988D02*
D03*
Y95039D02*
D03*
X126772Y95079D02*
D03*
X84547Y80905D02*
D03*
X87500D02*
D03*
X149560Y33957D02*
D03*
X146260D02*
D03*
X149953Y28740D02*
D03*
X146653D02*
D03*
X48622Y44488D02*
D03*
X45422Y44587D02*
D03*
X302264Y63287D02*
D03*
Y66339D02*
D03*
X315059D02*
D03*
Y63287D02*
D03*
X360728Y63386D02*
D03*
Y66437D02*
D03*
X351620Y59500D02*
D03*
X318979Y73032D02*
D03*
Y70079D02*
D03*
X347736Y78347D02*
D03*
X350689Y84252D02*
D03*
X360335Y88484D02*
D03*
X357382D02*
D03*
X347736Y84252D02*
D03*
X350689Y78347D02*
D03*
X315385Y78307D02*
D03*
X312432D02*
D03*
X354626Y59500D02*
D03*
X357677D02*
D03*
X310630Y55512D02*
D03*
X307624D02*
D03*
X304626D02*
D03*
X329429Y108858D02*
D03*
X271161Y73425D02*
D03*
X230020Y63287D02*
D03*
Y66339D02*
D03*
X242815D02*
D03*
Y63287D02*
D03*
X288484Y63386D02*
D03*
Y66437D02*
D03*
X279376Y59500D02*
D03*
X246535Y72531D02*
D03*
Y69579D02*
D03*
X275492Y78347D02*
D03*
X278445Y84252D02*
D03*
X285335Y88583D02*
D03*
X275492Y84252D02*
D03*
X278445Y78347D02*
D03*
X243141Y78307D02*
D03*
X240188D02*
D03*
X282382Y59500D02*
D03*
X285433D02*
D03*
X241437Y55512D02*
D03*
X238386D02*
D03*
X235380D02*
D03*
X232382D02*
D03*
X257185Y108858D02*
D03*
Y112992D02*
D03*
X198917Y73425D02*
D03*
X157776Y66339D02*
D03*
X170571D02*
D03*
X216240Y63386D02*
D03*
Y66437D02*
D03*
X207132Y59500D02*
D03*
X174803Y70079D02*
D03*
X203248Y78347D02*
D03*
X206201Y84055D02*
D03*
X212402Y88386D02*
D03*
X215354D02*
D03*
X203248Y84055D02*
D03*
X206201Y78347D02*
D03*
X170897Y78307D02*
D03*
X167944D02*
D03*
X203445Y66043D02*
D03*
X210138Y59500D02*
D03*
X213189D02*
D03*
X169193Y55512D02*
D03*
X166142D02*
D03*
X163135D02*
D03*
X184941Y108858D02*
D03*
X126673Y73327D02*
D03*
X85532Y63287D02*
D03*
Y66339D02*
D03*
X98327D02*
D03*
Y63287D02*
D03*
X143996Y63386D02*
D03*
Y66437D02*
D03*
X136167Y59500D02*
D03*
X131004Y78347D02*
D03*
X133957Y84252D02*
D03*
X131004D02*
D03*
X133957Y78347D02*
D03*
X98653Y78307D02*
D03*
X95700D02*
D03*
X109252Y95768D02*
D03*
X139173Y59500D02*
D03*
X142224D02*
D03*
X96949Y55512D02*
D03*
X87894D02*
D03*
X112697Y108858D02*
D03*
X40453D02*
D03*
X15650Y55512D02*
D03*
X18647D02*
D03*
X21654D02*
D03*
X23456Y78307D02*
D03*
X26409D02*
D03*
X15256Y80905D02*
D03*
X12303D02*
D03*
X61713Y84252D02*
D03*
X58760Y78347D02*
D03*
X404600Y185200D02*
D03*
X399739Y180270D02*
D03*
X27845Y310500D02*
D03*
X45955D02*
D03*
X36900Y319555D02*
D03*
Y301445D02*
D03*
X145224Y271555D02*
D03*
X183000Y159200D02*
D03*
X160169Y189493D02*
D03*
X170374Y190453D02*
D03*
X212032Y201205D02*
D03*
X206359Y215738D02*
D03*
X216192Y238327D02*
D03*
X35048Y274641D02*
D03*
X27961Y272986D02*
D03*
X27768Y292677D02*
D03*
X17999Y277829D02*
D03*
X18039Y283912D02*
D03*
X9078Y295182D02*
D03*
X51793Y307434D02*
D03*
X51649Y303489D02*
D03*
X51597Y299648D02*
D03*
X238307Y195764D02*
D03*
X236314Y197771D02*
D03*
X212022Y209829D02*
D03*
X215745Y215774D02*
D03*
X97900Y231800D02*
D03*
X153900Y184500D02*
D03*
X215708Y201733D02*
D03*
X223112Y195078D02*
D03*
X215719Y209838D02*
D03*
X219412Y201895D02*
D03*
X220500Y235500D02*
D03*
X312187Y207489D02*
D03*
X287252Y170984D02*
D03*
X290000Y35306D02*
D03*
X263700Y28800D02*
D03*
X260400D02*
D03*
X280000Y29700D02*
D03*
X209800Y28700D02*
D03*
X206500D02*
D03*
X156700Y25500D02*
D03*
Y22200D02*
D03*
X180000Y35800D02*
D03*
X170220Y28223D02*
D03*
X83500Y25700D02*
D03*
Y28900D02*
D03*
Y32100D02*
D03*
X62643Y59500D02*
D03*
X70200Y38500D02*
D03*
Y35300D02*
D03*
X59610Y38500D02*
D03*
Y35300D02*
D03*
X50900Y22100D02*
D03*
X50600Y28600D02*
D03*
X24200Y28948D02*
D03*
X29700Y26000D02*
D03*
X34400Y25500D02*
D03*
X37900D02*
D03*
X386614Y334646D02*
D03*
X386516Y341732D02*
D03*
X387894Y338189D02*
D03*
X370177Y344488D02*
D03*
X380413D02*
D03*
X377067D02*
D03*
X291535Y277284D02*
D03*
X246800Y358448D02*
D03*
X213275Y289876D02*
D03*
X250638Y366043D02*
D03*
X250939Y375989D02*
D03*
X84006Y321651D02*
D03*
X76100Y316804D02*
D03*
X204700Y336600D02*
D03*
X188386Y301083D02*
D03*
X397306Y119000D02*
D03*
X362316Y383092D02*
D03*
X94100Y299900D02*
D03*
X59051Y288180D02*
D03*
X125438Y294985D02*
D03*
X111300Y243500D02*
D03*
X65100Y286500D02*
D03*
X111557Y248385D02*
D03*
X41900Y256581D02*
D03*
X41600Y263981D02*
D03*
X41400Y260281D02*
D03*
X4800Y266200D02*
D03*
X172701Y180087D02*
D03*
X164300Y183800D02*
D03*
Y180100D02*
D03*
X161891Y243376D02*
D03*
X171751Y246946D02*
D03*
X164220Y329000D02*
D03*
X211900Y322900D02*
D03*
X221020Y317100D02*
D03*
X71752Y66437D02*
D03*
Y63386D02*
D03*
X26083Y63287D02*
D03*
Y66339D02*
D03*
X13287Y63287D02*
D03*
X5200Y333200D02*
D03*
X400098Y212106D02*
D03*
X378248Y206201D02*
D03*
X403806Y119000D02*
D03*
Y103500D02*
D03*
X217980Y317100D02*
D03*
X217500Y321600D02*
D03*
X227100Y317100D02*
D03*
X68000Y251600D02*
D03*
X211900Y320000D02*
D03*
X214940Y317100D02*
D03*
X5200Y328900D02*
D03*
X131900Y329700D02*
D03*
X91594Y325295D02*
D03*
X92000Y329700D02*
D03*
X224060Y317100D02*
D03*
X211900D02*
D03*
X96900Y329800D02*
D03*
X137200Y329600D02*
D03*
X48200Y325200D02*
D03*
X97500Y325295D02*
D03*
X222700Y321600D02*
D03*
X378248Y199508D02*
D03*
X400000Y193701D02*
D03*
X396752Y212106D02*
D03*
X378248Y202854D02*
D03*
X153000Y245222D02*
D03*
X132900Y245500D02*
D03*
Y249300D02*
D03*
X223113Y188616D02*
D03*
X157587Y184493D02*
D03*
X4500Y313900D02*
D03*
X164120Y342000D02*
D03*
X385600Y36200D02*
D03*
X64800Y282700D02*
D03*
X61300Y276600D02*
D03*
X285300Y276448D02*
D03*
X252200Y296100D02*
D03*
X304969Y396063D02*
D03*
X351031Y394193D02*
D03*
X336957Y396654D02*
D03*
X79100Y355900D02*
D03*
X124700Y368700D02*
D03*
X85200Y368900D02*
D03*
X41600Y357400D02*
D03*
X47700Y356100D02*
D03*
X118950Y355900D02*
D03*
X83600Y353700D02*
D03*
Y344600D02*
D03*
X123700D02*
D03*
Y353700D02*
D03*
X159050Y355900D02*
D03*
X83900Y362200D02*
D03*
X123800Y362400D02*
D03*
X368379Y398244D02*
D03*
X364379D02*
D03*
X358479D02*
D03*
X368413Y387795D02*
D03*
X391658Y370063D02*
D03*
X18900Y265000D02*
D03*
X33600Y14800D02*
D03*
X205400Y134300D02*
D03*
X120531Y339075D02*
D03*
X160420Y329100D02*
D03*
X131850Y325295D02*
D03*
X128898D02*
D03*
X77323Y326476D02*
D03*
X117480Y326575D02*
D03*
X137756Y325295D02*
D03*
X134803D02*
D03*
X140709D02*
D03*
X94547Y325295D02*
D03*
X100453D02*
D03*
X52200Y325200D02*
D03*
X60200D02*
D03*
X56200D02*
D03*
X47209Y329741D02*
D03*
X52200Y329700D02*
D03*
X57100D02*
D03*
X164431Y314830D02*
D03*
X88648Y325311D02*
D03*
X75159Y320474D02*
D03*
X80177Y338976D02*
D03*
X193178Y348040D02*
D03*
X173863Y344263D02*
D03*
X20000Y368700D02*
D03*
X31900Y336026D02*
D03*
X32750Y350150D02*
D03*
X202400Y366800D02*
D03*
X97200Y25400D02*
D03*
Y22100D02*
D03*
X110400Y29000D02*
D03*
Y25800D02*
D03*
X120500Y36000D02*
D03*
X130512Y35138D02*
D03*
Y38438D02*
D03*
X91240Y25689D02*
D03*
Y22389D02*
D03*
X329500Y22100D02*
D03*
Y25400D02*
D03*
X349500Y35205D02*
D03*
X359500Y38702D02*
D03*
Y35402D02*
D03*
X369500Y38900D02*
D03*
Y35600D02*
D03*
X400481Y119752D02*
D03*
X399581Y123052D02*
D03*
Y126252D02*
D03*
Y132652D02*
D03*
Y129452D02*
D03*
X400900Y45500D02*
D03*
X398900Y48000D02*
D03*
X398800Y43000D02*
D03*
X384800Y48000D02*
D03*
X384700Y43000D02*
D03*
X382700Y45500D02*
D03*
X400900Y65500D02*
D03*
X398900Y68000D02*
D03*
X398800Y63000D02*
D03*
X384800Y68000D02*
D03*
X384700Y63000D02*
D03*
X382700Y65500D02*
D03*
X400900Y75500D02*
D03*
X398900Y78000D02*
D03*
X398800Y73000D02*
D03*
X384800Y78000D02*
D03*
X384700Y73000D02*
D03*
X382700Y75500D02*
D03*
X267352Y171119D02*
D03*
X163298Y286847D02*
D03*
X138532Y297085D02*
D03*
X175900Y291800D02*
D03*
X180926Y291825D02*
D03*
X185862Y291825D02*
D03*
X190878Y291795D02*
D03*
X195904Y291875D02*
D03*
X133816Y300213D02*
D03*
X133745Y291237D02*
D03*
X122674Y279322D02*
D03*
X145618Y282185D02*
D03*
X150531Y300347D02*
D03*
X168624Y300136D02*
D03*
X158164Y282549D02*
D03*
X261700Y293000D02*
D03*
X209495Y289855D02*
D03*
X172985Y304026D02*
D03*
X173004Y300427D02*
D03*
X173024Y296947D02*
D03*
X199745Y336663D02*
D03*
X123998Y321597D02*
D03*
X71549Y306068D02*
D03*
X10352Y206826D02*
D03*
X34890Y206681D02*
D03*
X42860Y206488D02*
D03*
X49429Y210883D02*
D03*
X10466Y215252D02*
D03*
X10322Y224431D02*
D03*
X10249Y233826D02*
D03*
Y242861D02*
D03*
X10334Y251633D02*
D03*
X10270Y260205D02*
D03*
X25158Y268004D02*
D03*
X33472Y268068D02*
D03*
X41142Y270324D02*
D03*
X46654Y275787D02*
D03*
X52349Y281379D02*
D03*
X68300Y247400D02*
D03*
X78363Y239702D02*
D03*
X78225Y247632D02*
D03*
X76657Y294351D02*
D03*
X76699Y290178D02*
D03*
X171900Y242700D02*
D03*
X194437Y238780D02*
D03*
X202508Y299508D02*
D03*
X164401Y321984D02*
D03*
X232743Y323882D02*
D03*
X211366Y300095D02*
D03*
X64650Y324964D02*
D03*
X179419Y343401D02*
D03*
X50754Y317184D02*
D03*
X157800Y276400D02*
D03*
X40453Y7874D02*
D03*
X60532D02*
D03*
X60566Y22605D02*
D03*
X120571Y8366D02*
D03*
X37446Y372247D02*
D03*
X153937Y8268D02*
D03*
X252670Y28643D02*
D03*
X219623Y28603D02*
D03*
X230435Y28657D02*
D03*
X290256Y8071D02*
D03*
X349803Y7972D02*
D03*
X349828Y21906D02*
D03*
X290111Y21355D02*
D03*
X269120Y21657D02*
D03*
X241488Y28307D02*
D03*
X399478Y38037D02*
D03*
X397394Y172278D02*
D03*
X381653Y171962D02*
D03*
X382038Y186642D02*
D03*
X395009Y186142D02*
D03*
X397764Y221378D02*
D03*
X304161Y168032D02*
D03*
X278500Y182148D02*
D03*
X185617Y194123D02*
D03*
X198913Y207323D02*
D03*
X192289Y200843D02*
D03*
X200122Y220350D02*
D03*
X208783Y229637D02*
D03*
X156300Y222289D02*
D03*
X151130Y259350D02*
D03*
X145277Y264527D02*
D03*
X123348Y248602D02*
D03*
X123081Y264622D02*
D03*
X128565Y284560D02*
D03*
X126444Y306505D02*
D03*
X95276Y307283D02*
D03*
X10776Y273425D02*
D03*
X28513Y286984D02*
D03*
X82443Y306609D02*
D03*
X62907Y315799D02*
D03*
X23016Y318350D02*
D03*
X10639Y365683D02*
D03*
X28725Y347824D02*
D03*
X140048Y311667D02*
D03*
X330744Y242692D02*
D03*
X357794Y242925D02*
D03*
X372075Y195984D02*
D03*
X367646Y216654D02*
D03*
X383760Y344488D02*
D03*
X10406Y337082D02*
D03*
X33265Y395808D02*
D03*
X58005Y396837D02*
D03*
X77309Y396371D02*
D03*
X97716Y396711D02*
D03*
X138000Y396913D02*
D03*
X117888Y396597D02*
D03*
X178153Y396878D02*
D03*
X157796Y397159D02*
D03*
X198386Y396663D02*
D03*
X218005D02*
D03*
X314349Y311901D02*
D03*
X318942Y298842D02*
D03*
X336911Y311878D02*
D03*
X358662Y305446D02*
D03*
X177362Y185925D02*
D03*
X192120Y212978D02*
D03*
X40168Y284921D02*
D03*
X54528Y95079D02*
D03*
X68012Y88386D02*
D03*
X70965D02*
D03*
X13287Y66339D02*
D03*
X343504Y95079D02*
D03*
X297736Y77953D02*
D03*
X157776Y63287D02*
D03*
X170571D02*
D03*
X294980Y36713D02*
D03*
X274803Y44685D02*
D03*
X272638Y46850D02*
D03*
X303543Y30709D02*
D03*
Y27756D02*
D03*
X293132Y48425D02*
D03*
Y45472D02*
D03*
X287697Y37598D02*
D03*
X294980Y39665D02*
D03*
X317717Y22539D02*
D03*
Y19239D02*
D03*
X156791Y31890D02*
D03*
X219731Y36516D02*
D03*
X327113Y44488D02*
D03*
X330413D02*
D03*
X334449D02*
D03*
X337749D02*
D03*
X75000Y110236D02*
D03*
X83268Y112992D02*
D03*
X77756D02*
D03*
X80512Y110236D02*
D03*
X148622Y121457D02*
D03*
X151673Y110236D02*
D03*
X148917Y112992D02*
D03*
X154429D02*
D03*
X146161Y110236D02*
D03*
X157185Y124311D02*
D03*
X151476D02*
D03*
X154331Y121457D02*
D03*
X220768D02*
D03*
X223819Y110236D02*
D03*
X221063Y112992D02*
D03*
X226575D02*
D03*
X218307Y110236D02*
D03*
X229331Y124311D02*
D03*
X223622D02*
D03*
X226476Y121457D02*
D03*
X293110D02*
D03*
X293307Y110335D02*
D03*
X290650Y112992D02*
D03*
X295965D02*
D03*
Y124311D02*
D03*
X298819Y121457D02*
D03*
X258117Y44685D02*
D03*
X261417D02*
D03*
X180000Y39100D02*
D03*
X190000Y35200D02*
D03*
X188235Y48622D02*
D03*
X191535D02*
D03*
X324114Y34163D02*
D03*
X342520Y38484D02*
D03*
X251800Y355548D02*
D03*
X92913Y8268D02*
D03*
X207283Y17717D02*
D03*
X261024Y8563D02*
D03*
X323425Y8071D02*
D03*
X369783Y72146D02*
D03*
X223819Y75000D02*
D03*
X295768Y70965D02*
D03*
X151279Y73425D02*
D03*
X78740Y73622D02*
D03*
X12795Y172146D02*
D03*
X396110Y365846D02*
D03*
X373622Y344488D02*
D03*
X390402Y358268D02*
D03*
X401000Y270448D02*
D03*
X154331Y324508D02*
D03*
X51575Y295669D02*
D03*
X48130Y280610D02*
D03*
X244685Y120669D02*
D03*
X96457Y118602D02*
D03*
X10728Y34547D02*
D03*
X298622Y110335D02*
D03*
X86024Y110236D02*
D03*
X75787Y121457D02*
D03*
X89075Y117224D02*
D03*
X9800Y135800D02*
D03*
X14075Y194508D02*
D03*
X18799Y192835D02*
D03*
X24800Y190800D02*
D03*
X9800Y193400D02*
D03*
X30300Y180200D02*
D03*
X38000Y127900D02*
D03*
X134330Y230800D02*
D03*
X130800Y195800D02*
D03*
X127760Y195794D02*
D03*
X329900Y132700D02*
D03*
X226500Y257948D02*
D03*
X211600Y247800D02*
D03*
X220493Y242380D02*
D03*
X216614Y226868D02*
D03*
X134000Y241600D02*
D03*
X114700Y161800D02*
D03*
X153100Y222400D02*
D03*
X22300Y136200D02*
D03*
X80500Y195100D02*
D03*
X50900Y175800D02*
D03*
X32372Y185453D02*
D03*
X30798Y141260D02*
D03*
X112606Y112697D02*
D03*
X91240Y92028D02*
D03*
Y95079D02*
D03*
X87598Y98622D02*
D03*
X91441Y98869D02*
D03*
X87540Y94587D02*
D03*
X87504Y90897D02*
D03*
X8571Y29882D02*
D03*
X27200Y28500D02*
D03*
X34260Y28898D02*
D03*
X24705Y55512D02*
D03*
X48720Y59842D02*
D03*
X10728Y104232D02*
D03*
X15264Y94350D02*
D03*
X57488Y62854D02*
D03*
X59648Y59301D02*
D03*
X58740Y83917D02*
D03*
X61713Y78347D02*
D03*
X54429Y73228D02*
D03*
X58965Y65512D02*
D03*
X19094Y98228D02*
D03*
X23032Y102314D02*
D03*
X115204Y44685D02*
D03*
X120500Y39300D02*
D03*
X118504Y44685D02*
D03*
X126681Y70630D02*
D03*
X121000Y59948D02*
D03*
X133169Y59500D02*
D03*
X131299Y62992D02*
D03*
X131209Y65610D02*
D03*
X141043Y88583D02*
D03*
X143904Y88534D02*
D03*
X189969Y38445D02*
D03*
X179535Y60886D02*
D03*
X159843Y94587D02*
D03*
X34949Y57638D02*
D03*
Y61280D02*
D03*
Y64921D02*
D03*
X30413Y70079D02*
D03*
X34786Y68529D02*
D03*
X30316Y72982D02*
D03*
X15354Y98622D02*
D03*
X18898Y94440D02*
D03*
X18996Y91634D02*
D03*
X179634Y64626D02*
D03*
X179536Y68651D02*
D03*
X174803Y73032D02*
D03*
X159751Y90897D02*
D03*
X163984Y98771D02*
D03*
X159949Y98583D02*
D03*
X114670Y95916D02*
D03*
X299680Y35225D02*
D03*
X198631Y70718D02*
D03*
X93898Y55512D02*
D03*
X90891D02*
D03*
X102559Y73032D02*
D03*
Y70079D02*
D03*
X107185Y61119D02*
D03*
Y57476D02*
D03*
Y68405D02*
D03*
X160244Y55472D02*
D03*
X251780Y57244D02*
D03*
X251488Y61368D02*
D03*
X251685Y65009D02*
D03*
Y68760D02*
D03*
X42423Y95916D02*
D03*
X36911Y96507D02*
D03*
X88779Y112992D02*
D03*
X170283Y107146D02*
D03*
X184941Y112992D02*
D03*
X189181Y62165D02*
D03*
X168510Y25767D02*
D03*
X44606Y62248D02*
D03*
X48031Y69193D02*
D03*
X54300Y70448D02*
D03*
X117800Y62748D02*
D03*
X107185Y64762D02*
D03*
X120618Y68824D02*
D03*
X181200Y96348D02*
D03*
X191535Y127559D02*
D03*
X40200Y112248D02*
D03*
X154000Y31848D02*
D03*
X50700Y25148D02*
D03*
X235736Y92485D02*
D03*
X232000Y90948D02*
D03*
X232087Y94587D02*
D03*
X236100Y95248D02*
D03*
X236300Y98848D02*
D03*
X253600Y96348D02*
D03*
X222400Y36548D02*
D03*
X262000Y62848D02*
D03*
X265106Y68824D02*
D03*
X262200Y66548D02*
D03*
X276400Y59248D02*
D03*
X275700Y63048D02*
D03*
X288200Y88548D02*
D03*
X339400Y34848D02*
D03*
X308037Y91988D02*
D03*
X325886Y60922D02*
D03*
Y57279D02*
D03*
X325852Y64565D02*
D03*
X313681Y55512D02*
D03*
X325852Y68243D02*
D03*
X308500Y98748D02*
D03*
X304300Y90948D02*
D03*
X314200Y91948D02*
D03*
X99417Y106949D02*
D03*
X304528Y98848D02*
D03*
X304300Y95148D02*
D03*
X344000Y73248D02*
D03*
X336221Y64665D02*
D03*
X337008Y69193D02*
D03*
X349500Y38505D02*
D03*
X320669Y119095D02*
D03*
X199000Y133448D02*
D03*
X23700Y145100D02*
D03*
X15300Y150648D02*
D03*
X30400Y189548D02*
D03*
X27500Y170748D02*
D03*
X51900Y162100D02*
D03*
X32500Y154948D02*
D03*
X66100Y136848D02*
D03*
X71000Y136900D02*
D03*
X121900Y187000D02*
D03*
X156020Y167657D02*
D03*
X118100Y164300D02*
D03*
X120500Y159600D02*
D03*
X130800Y179156D02*
D03*
X122871Y172109D02*
D03*
X189709Y269587D02*
D03*
X194437Y246063D02*
D03*
X119043Y300098D02*
D03*
X119036Y279430D02*
D03*
X110874Y293996D02*
D03*
X22587Y275098D02*
D03*
X17764Y290059D02*
D03*
X202523Y303176D02*
D03*
X215900Y272948D02*
D03*
X104476Y325197D02*
D03*
X165987Y318408D02*
D03*
X160770Y314865D02*
D03*
X202603Y308467D02*
D03*
X144634Y325295D02*
D03*
X229700Y255948D02*
D03*
X245322Y266535D02*
D03*
X205457Y272977D02*
D03*
X217900Y276448D02*
D03*
X230900Y284600D02*
D03*
X221300Y274348D02*
D03*
X249500Y294600D02*
D03*
X239121Y292029D02*
D03*
G54D326*
X254931Y310448D02*
D03*
X180576Y77933D02*
D03*
X193569Y86595D02*
D03*
Y82264D02*
D03*
Y77933D02*
D03*
X189238Y86595D02*
D03*
Y82264D02*
D03*
Y77933D02*
D03*
X184907Y86595D02*
D03*
Y82264D02*
D03*
Y77933D02*
D03*
X180576Y86595D02*
D03*
Y82264D02*
D03*
X330569Y386349D02*
D03*
X334900D02*
D03*
X330569Y382018D02*
D03*
X334900D02*
D03*
X330569Y377687D02*
D03*
X334900D02*
D03*
X258869Y310448D02*
D03*
X36088Y82264D02*
D03*
Y86595D02*
D03*
X40419Y77933D02*
D03*
Y82264D02*
D03*
Y86595D02*
D03*
X44750Y77933D02*
D03*
Y82264D02*
D03*
Y86595D02*
D03*
X49080Y77933D02*
D03*
Y82264D02*
D03*
Y86595D02*
D03*
X36088Y77933D02*
D03*
X252820D02*
D03*
X265813Y86595D02*
D03*
Y82264D02*
D03*
Y77933D02*
D03*
X261482Y86595D02*
D03*
Y82264D02*
D03*
Y77933D02*
D03*
X257151Y86595D02*
D03*
Y82264D02*
D03*
Y77933D02*
D03*
X252820Y86595D02*
D03*
Y82264D02*
D03*
X325065D02*
D03*
Y86595D02*
D03*
X329395Y77933D02*
D03*
Y82264D02*
D03*
Y86595D02*
D03*
X333726Y77933D02*
D03*
Y82264D02*
D03*
Y86595D02*
D03*
X338057Y77933D02*
D03*
Y82264D02*
D03*
Y86595D02*
D03*
X325065Y77933D02*
D03*
X108332D02*
D03*
X121324Y86595D02*
D03*
Y82264D02*
D03*
Y77933D02*
D03*
X116994Y86595D02*
D03*
Y82264D02*
D03*
Y77933D02*
D03*
X112663Y86595D02*
D03*
Y82264D02*
D03*
Y77933D02*
D03*
X108332Y86595D02*
D03*
Y82264D02*
D03*
X308366Y360807D02*
D03*
X340435Y370718D02*
D03*
G54D327*
X0Y0D02*
X410000D01*
Y405000D01*
X0D02*
X410000D01*
X0Y0D02*
Y405000D01*
G54D328*
X71408Y122343D02*
D03*
G54D329*
X311500Y285400D02*
D03*
X324900D02*
D03*
Y338400D02*
D03*
X311500D02*
D03*
X358500Y285400D02*
D03*
X345100D02*
D03*
M02*
