G04*
G04 #@! TF.GenerationSoftware,Altium Limited,Altium Designer,18.1.7 (191)*
G04*
G04 Layer_Color=32896*
%FSLAX25Y25*%
%MOIN*%
G70*
G01*
G75*
%ADD12C,0.00800*%
%ADD17C,0.00500*%
%ADD21C,0.00600*%
%ADD23C,0.00400*%
%ADD31C,0.00700*%
G54D12*
X-320894Y228161D02*
X-323559D01*
X-322227Y229494D02*
Y226828D01*
X-332890Y228161D02*
X-335556D01*
G54D17*
X-175001Y-8982D02*
Y-10648D01*
X-177500D01*
Y-8982D01*
X-176250Y-10648D02*
Y-9815D01*
X-175001Y-8149D02*
Y-6483D01*
Y-7316D01*
X-177500D01*
X-175001Y-5650D02*
X-177500Y-3984D01*
X-175001D02*
X-177500Y-5650D01*
X-175417Y-1484D02*
X-175001Y-1901D01*
Y-2734D01*
X-175417Y-3150D01*
X-177084D01*
X-177500Y-2734D01*
Y-1901D01*
X-177084Y-1484D01*
X-175001Y-651D02*
X-177500D01*
X-176667D01*
X-175001Y1015D01*
X-176250Y-235D01*
X-177500Y1015D01*
X-184201Y-6782D02*
Y-8448D01*
X-186700D01*
Y-6782D01*
X-185450Y-8448D02*
Y-7615D01*
X-184201Y-5949D02*
Y-4283D01*
Y-5116D01*
X-186700D01*
X-184201Y-3450D02*
X-186700Y-1784D01*
X-184201D02*
X-186700Y-3450D01*
X-184617Y-950D02*
X-184201Y-534D01*
Y299D01*
X-184617Y716D01*
X-186284D01*
X-186700Y299D01*
Y-534D01*
X-186284Y-950D01*
X-184617D01*
X-194201Y-6682D02*
Y-8348D01*
X-196700D01*
Y-6682D01*
X-195450Y-8348D02*
Y-7515D01*
X-196700Y-5849D02*
X-194201D01*
Y-4599D01*
X-194617Y-4183D01*
X-195450D01*
X-195867Y-4599D01*
Y-5849D01*
Y-5016D02*
X-196700Y-4183D01*
X-194201Y-3350D02*
X-196700Y-1684D01*
X-194201D02*
X-196700Y-3350D01*
X-194617Y-850D02*
X-194201Y-434D01*
Y399D01*
X-194617Y816D01*
X-196283D01*
X-196700Y399D01*
Y-434D01*
X-196283Y-850D01*
X-194617D01*
X-204201Y-11882D02*
Y-13548D01*
X-206700D01*
Y-11882D01*
X-205450Y-13548D02*
Y-12715D01*
X-204617Y-9383D02*
X-204201Y-9799D01*
Y-10632D01*
X-204617Y-11049D01*
X-206283D01*
X-206700Y-10632D01*
Y-9799D01*
X-206283Y-9383D01*
X-206700Y-8550D02*
X-204201D01*
Y-7300D01*
X-204617Y-6884D01*
X-205450D01*
X-205867Y-7300D01*
Y-8550D01*
Y-7717D02*
X-206700Y-6884D01*
X-204617Y-4384D02*
X-204201Y-4801D01*
Y-5634D01*
X-204617Y-6050D01*
X-205034D01*
X-205450Y-5634D01*
Y-4801D01*
X-205867Y-4384D01*
X-206283D01*
X-206700Y-4801D01*
Y-5634D01*
X-206283Y-6050D01*
X-204201Y-3551D02*
X-206700D01*
Y-2302D01*
X-206283Y-1885D01*
X-204617D01*
X-204201Y-2302D01*
Y-3551D01*
Y-1052D02*
X-205867D01*
X-206700Y-219D01*
X-205867Y614D01*
X-204201D01*
X-214201Y-9182D02*
Y-10848D01*
X-216700D01*
Y-9182D01*
X-215450Y-10848D02*
Y-10015D01*
X-216700Y-8349D02*
X-214201D01*
Y-7099D01*
X-214617Y-6683D01*
X-215450D01*
X-215867Y-7099D01*
Y-8349D01*
Y-7516D02*
X-216700Y-6683D01*
X-214201Y-5850D02*
X-216700Y-4184D01*
X-214201D02*
X-216700Y-5850D01*
X-214201Y-1684D02*
Y-3351D01*
X-216700D01*
Y-1684D01*
X-215450Y-3351D02*
Y-2517D01*
X-216700Y-851D02*
X-214201D01*
Y398D01*
X-214617Y815D01*
X-215450D01*
X-215867Y398D01*
Y-851D01*
Y-18D02*
X-216700Y815D01*
X-166700Y-8148D02*
X-164201D01*
X-165034Y-7315D01*
X-164201Y-6482D01*
X-166700D01*
X-164201Y-5649D02*
Y-4816D01*
Y-5232D01*
X-166700D01*
Y-5649D01*
Y-4816D01*
X-164617Y-1900D02*
X-164201Y-2317D01*
Y-3150D01*
X-164617Y-3566D01*
X-165034D01*
X-165450Y-3150D01*
Y-2317D01*
X-165867Y-1900D01*
X-166284D01*
X-166700Y-2317D01*
Y-3150D01*
X-166284Y-3566D01*
X-164201Y183D02*
Y-650D01*
X-164617Y-1067D01*
X-166284D01*
X-166700Y-650D01*
Y183D01*
X-166284Y599D01*
X-164617D01*
X-164201Y183D01*
X-154917Y-6882D02*
X-154501Y-7299D01*
Y-8132D01*
X-154917Y-8548D01*
X-155334D01*
X-155750Y-8132D01*
Y-7299D01*
X-156167Y-6882D01*
X-156583D01*
X-157000Y-7299D01*
Y-8132D01*
X-156583Y-8548D01*
X-154917Y-4383D02*
X-154501Y-4799D01*
Y-5632D01*
X-154917Y-6049D01*
X-156583D01*
X-157000Y-5632D01*
Y-4799D01*
X-156583Y-4383D01*
X-154501Y-3550D02*
X-157000D01*
Y-1884D01*
X-154501Y-1051D02*
X-157000D01*
X-156167D01*
X-154501Y616D01*
X-155750Y-634D01*
X-157000Y616D01*
X-152403Y20390D02*
X-151987Y19974D01*
Y19140D01*
X-152403Y18724D01*
X-154069D01*
X-154486Y19140D01*
Y19974D01*
X-154069Y20390D01*
X-152403Y22889D02*
X-151987Y22473D01*
Y21640D01*
X-152403Y21223D01*
X-152820D01*
X-153236Y21640D01*
Y22473D01*
X-153653Y22889D01*
X-154069D01*
X-154486Y22473D01*
Y21640D01*
X-154069Y21223D01*
X-154486Y25389D02*
Y23722D01*
X-152820Y25389D01*
X-152403D01*
X-151987Y24972D01*
Y24139D01*
X-152403Y23722D01*
X-166600Y19252D02*
X-164101D01*
X-164934Y20085D01*
X-164101Y20918D01*
X-166600D01*
X-164101Y23001D02*
Y22168D01*
X-164517Y21751D01*
X-166183D01*
X-166600Y22168D01*
Y23001D01*
X-166183Y23417D01*
X-164517D01*
X-164101Y23001D01*
X-164517Y25916D02*
X-164101Y25500D01*
Y24667D01*
X-164517Y24250D01*
X-164934D01*
X-165350Y24667D01*
Y25500D01*
X-165767Y25916D01*
X-166183D01*
X-166600Y25500D01*
Y24667D01*
X-166183Y24250D01*
X-164101Y26750D02*
Y27582D01*
Y27166D01*
X-166600D01*
Y26750D01*
Y27582D01*
X-214627Y21056D02*
Y19390D01*
X-217126D01*
Y21056D01*
X-215876Y19390D02*
Y20223D01*
X-217126Y21889D02*
X-214627D01*
X-215460Y22722D01*
X-214627Y23555D01*
X-217126D01*
X-214627Y24388D02*
X-217126D01*
Y25638D01*
X-216709Y26054D01*
X-215043D01*
X-214627Y25638D01*
Y24388D01*
Y26887D02*
Y27720D01*
Y27304D01*
X-217126D01*
Y26887D01*
Y27720D01*
X-214627Y30220D02*
Y29386D01*
X-215043Y28970D01*
X-216709D01*
X-217126Y29386D01*
Y30220D01*
X-216709Y30636D01*
X-215043D01*
X-214627Y30220D01*
X-204201Y20818D02*
Y19152D01*
X-206700D01*
Y20818D01*
X-205450Y19152D02*
Y19985D01*
X-206700Y21651D02*
X-204201D01*
X-205034Y22484D01*
X-204201Y23317D01*
X-206700D01*
X-204201Y24150D02*
X-206700D01*
Y25400D01*
X-206283Y25816D01*
X-204617D01*
X-204201Y25400D01*
Y24150D01*
X-204617Y28316D02*
X-204201Y27899D01*
Y27066D01*
X-204617Y26649D01*
X-206283D01*
X-206700Y27066D01*
Y27899D01*
X-206283Y28316D01*
X-194119Y20320D02*
Y18654D01*
X-196618D01*
Y20320D01*
X-195369Y18654D02*
Y19487D01*
X-196618Y21153D02*
X-194119D01*
Y22403D01*
X-194536Y22819D01*
X-195369D01*
X-195785Y22403D01*
Y21153D01*
Y21986D02*
X-196618Y22819D01*
X-194119Y23652D02*
X-196618Y25318D01*
X-194119D02*
X-196618Y23652D01*
Y26151D02*
Y26985D01*
Y26568D01*
X-194119D01*
X-194536Y26151D01*
X-184301Y20618D02*
Y18952D01*
X-186800D01*
Y20618D01*
X-185550Y18952D02*
Y19785D01*
X-184301Y21451D02*
Y23117D01*
Y22284D01*
X-186800D01*
X-184301Y23950D02*
X-186800Y25616D01*
X-184301D02*
X-186800Y23950D01*
Y26449D02*
Y27283D01*
Y26866D01*
X-184301D01*
X-184717Y26449D01*
X-173986Y20627D02*
Y18961D01*
X-176485D01*
Y20627D01*
X-175236Y18961D02*
Y19794D01*
X-173986Y21460D02*
Y23126D01*
Y22293D01*
X-176485D01*
X-173986Y23959D02*
X-176485Y25625D01*
X-173986D02*
X-176485Y23959D01*
X-173986Y28124D02*
Y26458D01*
X-176485D01*
Y28124D01*
X-175236Y26458D02*
Y27292D01*
X-176485Y28958D02*
X-173986D01*
X-176485Y30624D01*
X-173986D01*
X-264757Y-5770D02*
X-264341Y-5353D01*
Y-4520D01*
X-264757Y-4104D01*
X-265174D01*
X-265590Y-4520D01*
Y-4937D01*
Y-4520D01*
X-266007Y-4104D01*
X-266423D01*
X-266840Y-4520D01*
Y-5353D01*
X-266423Y-5770D01*
X-264341Y-3271D02*
X-266007D01*
X-266840Y-2437D01*
X-266007Y-1604D01*
X-264341D01*
X-264757Y-771D02*
X-264341Y-355D01*
Y478D01*
X-264757Y895D01*
X-265174D01*
X-265590Y478D01*
Y62D01*
Y478D01*
X-266007Y895D01*
X-266423D01*
X-266840Y478D01*
Y-355D01*
X-266423Y-771D01*
X-254317Y-4182D02*
X-253901Y-4598D01*
Y-5432D01*
X-254317Y-5848D01*
X-254734D01*
X-255150Y-5432D01*
Y-4598D01*
X-255567Y-4182D01*
X-255983D01*
X-256400Y-4598D01*
Y-5432D01*
X-255983Y-5848D01*
X-253901Y-3349D02*
X-256400D01*
Y-2099D01*
X-255983Y-1683D01*
X-254317D01*
X-253901Y-2099D01*
Y-3349D01*
X-256400Y-850D02*
X-254734D01*
X-253901Y-17D01*
X-254734Y816D01*
X-256400D01*
X-255150D01*
Y-850D01*
X-246700Y-5848D02*
X-245034D01*
X-244201Y-5015D01*
X-245034Y-4182D01*
X-246700D01*
X-245450D01*
Y-5848D01*
X-244201Y-3349D02*
X-246700D01*
Y-2099D01*
X-246284Y-1683D01*
X-244617D01*
X-244201Y-2099D01*
Y-3349D01*
X-244617Y-850D02*
X-244201Y-433D01*
Y400D01*
X-244617Y816D01*
X-245034D01*
X-245450Y400D01*
X-245867Y816D01*
X-246284D01*
X-246700Y400D01*
Y-433D01*
X-246284Y-850D01*
X-245867D01*
X-245450Y-433D01*
X-245034Y-850D01*
X-244617D01*
X-245450Y-433D02*
Y400D01*
X-236442Y-8121D02*
X-234776D01*
Y-6872D01*
X-235192Y-6455D01*
X-236442D01*
Y-5622D02*
X-233943D01*
Y-4372D01*
X-234359Y-3956D01*
X-235192D01*
X-235609Y-4372D01*
Y-5622D01*
Y-4789D02*
X-236442Y-3956D01*
X-234359Y-1457D02*
X-233943Y-1873D01*
Y-2706D01*
X-234359Y-3123D01*
X-234776D01*
X-235192Y-2706D01*
Y-1873D01*
X-235609Y-1457D01*
X-236025D01*
X-236442Y-1873D01*
Y-2706D01*
X-236025Y-3123D01*
X-233943Y-624D02*
Y1042D01*
Y209D01*
X-236442D01*
X-224101Y-7548D02*
X-226600D01*
Y-6299D01*
X-226184Y-5882D01*
X-224517D01*
X-224101Y-6299D01*
Y-7548D01*
X-226600Y-5049D02*
X-224934D01*
X-224101Y-4216D01*
X-224934Y-3383D01*
X-226600D01*
X-225350D01*
Y-5049D01*
X-224517Y-884D02*
X-224101Y-1300D01*
Y-2133D01*
X-224517Y-2550D01*
X-226184D01*
X-226600Y-2133D01*
Y-1300D01*
X-226184Y-884D01*
X-226600Y-51D02*
Y783D01*
Y366D01*
X-224101D01*
X-224517Y-51D01*
X-225946Y22146D02*
X-228445D01*
Y23395D01*
X-228028Y23812D01*
X-226362D01*
X-225946Y23395D01*
Y22146D01*
X-228445Y24645D02*
X-226779D01*
X-225946Y25478D01*
X-226779Y26311D01*
X-228445D01*
X-227195D01*
Y24645D01*
X-226362Y28810D02*
X-225946Y28394D01*
Y27561D01*
X-226362Y27144D01*
X-228028D01*
X-228445Y27561D01*
Y28394D01*
X-228028Y28810D01*
X-226362Y29643D02*
X-225946Y30060D01*
Y30893D01*
X-226362Y31309D01*
X-228028D01*
X-228445Y30893D01*
Y30060D01*
X-228028Y29643D01*
X-226362D01*
X-236828Y18636D02*
X-234329D01*
Y19886D01*
X-234746Y20302D01*
X-235579D01*
X-235996Y19886D01*
Y18636D01*
X-234329Y21135D02*
X-236828D01*
X-235996Y21968D01*
X-236828Y22801D01*
X-234329D01*
X-236828Y23634D02*
X-234329D01*
X-235162Y24467D01*
X-234329Y25300D01*
X-236828D01*
X-234329Y26134D02*
X-236828D01*
X-235579D01*
Y27800D01*
X-234329D01*
X-236828D01*
Y30299D02*
Y28633D01*
X-235162Y30299D01*
X-234746D01*
X-234329Y29882D01*
Y29049D01*
X-234746Y28633D01*
X-246504Y18551D02*
X-244838D01*
X-244005Y19384D01*
X-244838Y20217D01*
X-246504D01*
X-245255D01*
Y18551D01*
X-244005Y21050D02*
X-246504D01*
Y22300D01*
X-246088Y22716D01*
X-244422D01*
X-244005Y22300D01*
Y21050D01*
X-246088Y23550D02*
X-246504Y23966D01*
Y24799D01*
X-246088Y25216D01*
X-244422D01*
X-244005Y24799D01*
Y23966D01*
X-244422Y23550D01*
X-244838D01*
X-245255Y23966D01*
Y25216D01*
X-254522Y20387D02*
X-254106Y19971D01*
Y19137D01*
X-254522Y18721D01*
X-254939D01*
X-255355Y19137D01*
Y19971D01*
X-255772Y20387D01*
X-256188D01*
X-256605Y19971D01*
Y19137D01*
X-256188Y18721D01*
X-254522Y22886D02*
X-254106Y22470D01*
Y21637D01*
X-254522Y21220D01*
X-256188D01*
X-256605Y21637D01*
Y22470D01*
X-256188Y22886D01*
X-254106Y23719D02*
X-256605D01*
Y25385D01*
X-264877Y20642D02*
X-264461Y20225D01*
Y19392D01*
X-264877Y18975D01*
X-266543D01*
X-266960Y19392D01*
Y20225D01*
X-266543Y20642D01*
X-265710D01*
Y19809D01*
X-266960Y21475D02*
X-264461D01*
X-266960Y23141D01*
X-264461D01*
Y23974D02*
X-266960D01*
Y25223D01*
X-266543Y25640D01*
X-264877D01*
X-264461Y25223D01*
Y23974D01*
X-295267Y86368D02*
Y87201D01*
Y86785D01*
X-293184D01*
X-292767Y87201D01*
Y87618D01*
X-293184Y88034D01*
X-292767Y85535D02*
X-295267D01*
Y84286D01*
X-294850Y83869D01*
X-294017D01*
X-293600Y84286D01*
Y85535D01*
X-292767Y83036D02*
Y82203D01*
Y82620D01*
X-295267D01*
X-294850Y83036D01*
G54D21*
X-282988Y109315D02*
X-283695Y109022D01*
X-283988Y108315D01*
X-270988D02*
X-271281Y109022D01*
X-271988Y109315D01*
Y101315D02*
X-271281Y101608D01*
X-270988Y102315D01*
X-283988D02*
X-283695Y101608D01*
X-282988Y101315D01*
X-290921Y86815D02*
X-291628Y86522D01*
X-291921Y85815D01*
Y74815D02*
X-291628Y74108D01*
X-290921Y73815D01*
X-284921D02*
X-284214Y74108D01*
X-283921Y74815D01*
Y85815D02*
X-284214Y86522D01*
X-284921Y86815D01*
X-282988Y101315D02*
X-271988D01*
X-283988Y102315D02*
Y108315D01*
X-270988Y102315D02*
Y108315D01*
X-282988Y109315D02*
X-271988D01*
X-283921Y74815D02*
Y85815D01*
X-290921Y73815D02*
X-284921D01*
X-290921Y86815D02*
X-284921D01*
X-291921Y74815D02*
Y85815D01*
X-49339Y-81024D02*
Y-73937D01*
X-51996Y-71280D02*
X-49339Y-73937D01*
X-51996Y-71280D02*
Y-39095D01*
X-126602Y-69606D02*
X-112035Y-84173D01*
X-126602Y-69606D02*
Y-40276D01*
X-193532Y-83386D02*
Y-74823D01*
X-198059Y-70295D02*
X-193532Y-74823D01*
X-198059Y-70295D02*
Y-40866D01*
X-263216Y-77874D02*
Y-67047D01*
X-268138Y-62126D02*
X-263216Y-67047D01*
X-268138Y-62126D02*
Y-59862D01*
Y-40768D01*
X33178Y-58597D02*
X35177D01*
Y-60097D01*
X34177Y-59597D01*
X33677D01*
X33178Y-60097D01*
Y-61096D01*
X33677Y-61596D01*
X34677D01*
X35177Y-61096D01*
X32178Y-58597D02*
Y-60596D01*
X31178Y-61596D01*
X30178Y-60596D01*
Y-58597D01*
X-76999Y180164D02*
X-75000D01*
Y178665D01*
X-76000Y179165D01*
X-76499D01*
X-76999Y178665D01*
Y177665D01*
X-76499Y177165D01*
X-75500D01*
X-75000Y177665D01*
X-77999Y180164D02*
Y178165D01*
X-78999Y177165D01*
X-79998Y178165D01*
Y180164D01*
X22705Y1719D02*
X24705D01*
Y220D01*
X23705Y720D01*
X23205D01*
X22705Y220D01*
Y-780D01*
X23205Y-1280D01*
X24205D01*
X24705Y-780D01*
X21706Y1719D02*
Y-280D01*
X20706Y-1280D01*
X19706Y-280D01*
Y1719D01*
X538Y-6957D02*
Y-8957D01*
X-2461D01*
Y-6957D01*
X-961Y-8957D02*
Y-7957D01*
X-2461Y-5958D02*
X538D01*
Y-4458D01*
X39Y-3958D01*
X-961D01*
X-1461Y-4458D01*
Y-5958D01*
Y-4958D02*
X-2461Y-3958D01*
Y-2959D02*
X-461D01*
X538Y-1959D01*
X-461Y-959D01*
X-2461D01*
X-961D01*
Y-2959D01*
X39Y2040D02*
X538Y1540D01*
Y540D01*
X39Y40D01*
X-461D01*
X-961Y540D01*
Y1540D01*
X-1461Y2040D01*
X-1961D01*
X-2461Y1540D01*
Y540D01*
X-1961Y40D01*
X538Y5039D02*
Y3039D01*
X-2461D01*
Y5039D01*
X-961Y3039D02*
Y4039D01*
X-29981Y-363D02*
X-29481Y-863D01*
Y-1862D01*
X-29981Y-2362D01*
X-31980D01*
X-32480Y-1862D01*
Y-863D01*
X-31980Y-363D01*
X-30981D01*
Y-1362D01*
X-32480Y637D02*
X-29481D01*
X-32480Y2636D01*
X-29481D01*
Y3636D02*
X-32480D01*
Y5135D01*
X-31980Y5635D01*
X-29981D01*
X-29481Y5135D01*
Y3636D01*
X-10198Y-4724D02*
X-9698Y-4225D01*
Y-3225D01*
X-10198Y-2725D01*
X-10697D01*
X-11197Y-3225D01*
Y-3725D01*
Y-3225D01*
X-11697Y-2725D01*
X-12197D01*
X-12697Y-3225D01*
Y-4225D01*
X-12197Y-4724D01*
X-12697Y-1725D02*
X-12197D01*
Y-1225D01*
X-12697D01*
Y-1725D01*
X-10198Y774D02*
X-9698Y1274D01*
Y2273D01*
X-10198Y2773D01*
X-10697D01*
X-11197Y2273D01*
Y1774D01*
Y2273D01*
X-11697Y2773D01*
X-12197D01*
X-12697Y2273D01*
Y1274D01*
X-12197Y774D01*
X-9698Y3773D02*
X-11697D01*
X-12697Y4772D01*
X-11697Y5772D01*
X-9698D01*
X-19737Y917D02*
Y-1083D01*
X-21237D01*
X-20737Y-83D01*
Y417D01*
X-21237Y917D01*
X-22236D01*
X-22736Y417D01*
Y-583D01*
X-22236Y-1083D01*
X-19737Y1916D02*
X-21736D01*
X-22736Y2916D01*
X-21736Y3916D01*
X-19737D01*
X56075Y107953D02*
X60074D01*
X58741Y109286D01*
X60074Y110618D01*
X56075D01*
X60074Y113951D02*
Y112618D01*
X59407Y111951D01*
X56741D01*
X56075Y112618D01*
Y113951D01*
X56741Y114617D01*
X59407D01*
X60074Y113951D01*
Y115950D02*
Y118616D01*
Y117283D01*
X56075D01*
X59089Y149496D02*
Y146831D01*
X57090D01*
Y148163D01*
Y146831D01*
X55090D01*
X59089Y153495D02*
Y150829D01*
X55090D01*
Y153495D01*
X57090Y150829D02*
Y152162D01*
X59089Y154828D02*
Y157494D01*
Y156161D01*
X55090D01*
X59778Y186988D02*
X55779D01*
Y188988D01*
X56446Y189654D01*
X57112D01*
X57779Y188988D01*
Y186988D01*
Y188988D01*
X58445Y189654D01*
X59112D01*
X59778Y188988D01*
Y186988D01*
Y193653D02*
Y190987D01*
X55779D01*
Y193653D01*
X57779Y190987D02*
Y192320D01*
X59778Y194985D02*
X55779D01*
Y196985D01*
X56446Y197651D01*
X59112D01*
X59778Y196985D01*
Y194985D01*
X52728Y182688D02*
X50063D01*
X51395Y184021D02*
Y181355D01*
X52827Y142432D02*
X50161D01*
X51494Y143765D02*
Y141100D01*
X53909Y102275D02*
X51244D01*
X52577Y103608D02*
Y100942D01*
X52728Y122157D02*
X50063D01*
X53417Y162216D02*
X50752D01*
X53713Y202472D02*
X51047D01*
X-12697Y24705D02*
X-10697D01*
Y26204D01*
X-11197Y26704D01*
X-12697D01*
Y27704D02*
X-9698D01*
Y29203D01*
X-10198Y29703D01*
X-11197D01*
X-11697Y29203D01*
Y27704D01*
Y28703D02*
X-12697Y29703D01*
X-10198Y32702D02*
X-9698Y32202D01*
Y31203D01*
X-10198Y30703D01*
X-10697D01*
X-11197Y31203D01*
Y32202D01*
X-11697Y32702D01*
X-12197D01*
X-12697Y32202D01*
Y31203D01*
X-12197Y30703D01*
X-9698Y33702D02*
Y35701D01*
Y34701D01*
X-12697D01*
X-15553Y141387D02*
Y139388D01*
X-16553Y138388D01*
X-17552Y139388D01*
Y141387D01*
X-18552D02*
X-19552D01*
X-19052D01*
Y138388D01*
X-18552D01*
X-19552D01*
X-21051D02*
Y141387D01*
X-23051Y138388D01*
Y141387D01*
X-29049D02*
X-27049D01*
Y139888D01*
X-28049D01*
X-27049D01*
Y138388D01*
X-32048Y141387D02*
X-30048D01*
Y138388D01*
X-32048D01*
X-30048Y139888D02*
X-31048D01*
X-33047Y141387D02*
X-35047D01*
X-34047D01*
Y138388D01*
X-36046D02*
X-37546D01*
X-38046Y138888D01*
X-37546Y139388D01*
X-36546D01*
X-36046Y139888D01*
X-36546Y140388D01*
X-38046D01*
X16608Y140305D02*
Y138306D01*
X15609Y137306D01*
X14609Y138306D01*
Y140305D01*
X13609D02*
X12610D01*
X13110D01*
Y137306D01*
X13609D01*
X12610D01*
X11110D02*
Y140305D01*
X9111Y137306D01*
Y140305D01*
X5112D02*
Y137306D01*
X3613D01*
X3113Y137806D01*
Y138306D01*
X3613Y138806D01*
X5112D01*
X3613D01*
X3113Y139306D01*
Y139805D01*
X3613Y140305D01*
X5112D01*
X114D02*
X2113D01*
Y137306D01*
X114D01*
X2113Y138806D02*
X1113D01*
X-886Y140305D02*
Y137306D01*
X-2386D01*
X-2885Y137806D01*
Y139805D01*
X-2386Y140305D01*
X-886D01*
X33297Y-68958D02*
X33797Y-68458D01*
X34797D01*
X35297Y-68958D01*
Y-70957D01*
X34797Y-71457D01*
X33797D01*
X33297Y-70957D01*
Y-69958D01*
X34297D01*
X32298Y-71457D02*
Y-68458D01*
X30298Y-71457D01*
Y-68458D01*
X29299D02*
Y-71457D01*
X27799D01*
X27299Y-70957D01*
Y-68958D01*
X27799Y-68458D01*
X29299D01*
X51024Y189094D02*
X51524Y189594D01*
X52524D01*
X53024Y189094D01*
Y187094D01*
X52524Y186594D01*
X51524D01*
X51024Y187094D01*
Y188094D01*
X52024D01*
X50025Y186594D02*
Y189594D01*
X48025Y186594D01*
Y189594D01*
X47026D02*
Y186594D01*
X45526D01*
X45026Y187094D01*
Y189094D01*
X45526Y189594D01*
X47026D01*
X-60925Y130164D02*
X-62924Y127165D01*
Y130164D02*
X-60925Y127165D01*
X-63924Y128665D02*
X-65924D01*
X-66923Y127165D02*
Y130164D01*
X-67923Y129165D01*
X-68923Y130164D01*
Y127165D01*
X-69922Y130164D02*
X-70922D01*
X-70422D01*
Y127165D01*
X-69922D01*
X-70922D01*
X-72421D02*
Y130164D01*
X-74421Y127165D01*
Y130164D01*
X-271000Y264251D02*
Y262252D01*
X-272000Y261252D01*
X-272999Y262252D01*
Y264251D01*
X-273999D02*
Y261252D01*
Y262751D01*
X-275998D01*
Y264251D01*
Y261252D01*
X-278997Y264251D02*
X-276998D01*
Y261252D01*
X-278997D01*
X-276998Y262751D02*
X-277998D01*
X-279997Y261252D02*
Y263251D01*
X-280997Y264251D01*
X-281996Y263251D01*
Y261252D01*
Y262751D01*
X-279997D01*
X-282996Y264251D02*
X-284996D01*
X-283996D01*
Y261252D01*
X-29777Y24705D02*
X-32276D01*
X-32776Y25205D01*
Y26204D01*
X-32276Y26704D01*
X-29777D01*
Y27704D02*
Y29703D01*
Y28703D01*
X-32776D01*
X-29777Y30703D02*
X-32776Y32702D01*
X-29777D02*
X-32776Y30703D01*
X-29777Y33702D02*
X-32776D01*
Y35201D01*
X-32276Y35701D01*
X-30276D01*
X-29777Y35201D01*
Y33702D01*
X35470Y-78979D02*
Y-80979D01*
X34470Y-81978D01*
X33470Y-80979D01*
Y-78979D01*
X32471Y-81978D02*
Y-78979D01*
X31471Y-79979D01*
X30471Y-78979D01*
Y-81978D01*
X27972Y-78979D02*
X28972D01*
X29472Y-79479D01*
Y-81479D01*
X28972Y-81978D01*
X27972D01*
X27472Y-81479D01*
Y-79479D01*
X27972Y-78979D01*
X26473D02*
X24473D01*
X25473D01*
Y-81978D01*
X-231000Y263851D02*
Y261852D01*
X-232000Y260852D01*
X-232999Y261852D01*
Y263851D01*
X-233999D02*
Y260852D01*
Y262351D01*
X-235998D01*
Y263851D01*
Y260852D01*
X-238997Y263851D02*
X-236998D01*
Y260852D01*
X-238997D01*
X-236998Y262351D02*
X-237998D01*
X-239997Y260852D02*
Y262851D01*
X-240997Y263851D01*
X-241996Y262851D01*
Y260852D01*
Y262351D01*
X-239997D01*
X-242996Y263851D02*
X-244995D01*
X-243996D01*
Y260852D01*
X-111500Y264451D02*
Y262452D01*
X-112500Y261452D01*
X-113499Y262452D01*
Y264451D01*
X-114499D02*
Y261452D01*
X-115999D01*
X-116498Y261952D01*
Y262452D01*
X-115999Y262951D01*
X-114499D01*
X-115999D01*
X-116498Y263451D01*
Y263951D01*
X-115999Y264451D01*
X-114499D01*
X-119497D02*
X-117498D01*
Y261452D01*
X-119497D01*
X-117498Y262951D02*
X-118498D01*
X-120497Y264451D02*
Y261452D01*
X-121997D01*
X-122496Y261952D01*
Y263951D01*
X-121997Y264451D01*
X-120497D01*
X-150300D02*
Y262452D01*
X-151300Y261452D01*
X-152299Y262452D01*
Y264451D01*
X-153299D02*
Y261452D01*
Y262951D01*
X-155298D01*
Y264451D01*
Y261452D01*
X-158297Y264451D02*
X-156298D01*
Y261452D01*
X-158297D01*
X-156298Y262951D02*
X-157298D01*
X-159297Y261452D02*
Y263451D01*
X-160297Y264451D01*
X-161296Y263451D01*
Y261452D01*
Y262951D01*
X-159297D01*
X-162296Y264451D02*
X-164295D01*
X-163296D01*
Y261452D01*
X-191000Y264251D02*
Y262252D01*
X-192000Y261252D01*
X-192999Y262252D01*
Y264251D01*
X-193999D02*
Y261252D01*
Y262751D01*
X-195998D01*
Y264251D01*
Y261252D01*
X-198997Y264251D02*
X-196998D01*
Y261252D01*
X-198997D01*
X-196998Y262751D02*
X-197998D01*
X-199997Y261252D02*
Y263251D01*
X-200997Y264251D01*
X-201996Y263251D01*
Y261252D01*
Y262751D01*
X-199997D01*
X-202996Y264251D02*
X-204995D01*
X-203996D01*
Y261252D01*
X-19500Y191551D02*
Y189552D01*
X-20500Y188552D01*
X-21499Y189552D01*
Y191551D01*
X-22499D02*
Y188552D01*
Y190051D01*
X-24498D01*
Y191551D01*
Y188552D01*
X-27497Y191551D02*
X-25498D01*
Y188552D01*
X-27497D01*
X-25498Y190051D02*
X-26498D01*
X-28497Y188552D02*
Y190551D01*
X-29497Y191551D01*
X-30496Y190551D01*
Y188552D01*
Y190051D01*
X-28497D01*
X-31496Y191551D02*
X-33496D01*
X-32496D01*
Y188552D01*
X-28099Y237151D02*
X-27599Y237651D01*
X-26600D01*
X-26100Y237151D01*
Y235152D01*
X-26600Y234652D01*
X-27599D01*
X-28099Y235152D01*
Y236151D01*
X-27100D01*
X-29099Y234652D02*
Y237651D01*
X-31098Y234652D01*
Y237651D01*
X-32098D02*
Y234652D01*
X-33598D01*
X-34097Y235152D01*
Y237151D01*
X-33598Y237651D01*
X-32098D01*
X31564Y38924D02*
X33563D01*
Y37425D01*
X32563D01*
X33563D01*
Y35925D01*
X28565Y38424D02*
X29064Y38924D01*
X30064D01*
X30564Y38424D01*
Y36425D01*
X30064Y35925D01*
X29064D01*
X28565Y36425D01*
Y37425D01*
X29564D01*
X27565Y35925D02*
Y38924D01*
X25566Y35925D01*
Y38924D01*
X24566D02*
Y35925D01*
X23066D01*
X22567Y36425D01*
Y38424D01*
X23066Y38924D01*
X24566D01*
X33297Y-89127D02*
X33797Y-88627D01*
X34797D01*
X35297Y-89127D01*
Y-91126D01*
X34797Y-91626D01*
X33797D01*
X33297Y-91126D01*
Y-90127D01*
X34297D01*
X32298Y-91626D02*
Y-88627D01*
X30298Y-91626D01*
Y-88627D01*
X29299D02*
Y-91626D01*
X27799D01*
X27299Y-91126D01*
Y-89127D01*
X27799Y-88627D01*
X29299D01*
X46Y27098D02*
Y25098D01*
X-1453D01*
X-953Y26098D01*
Y26598D01*
X-1453Y27098D01*
X-2453D01*
X-2953Y26598D01*
Y25598D01*
X-2453Y25098D01*
X46Y28098D02*
X-1953D01*
X-2953Y29097D01*
X-1953Y30097D01*
X46D01*
X49745Y156121D02*
X50245Y156621D01*
X51244D01*
X51744Y156121D01*
Y154122D01*
X51244Y153622D01*
X50245D01*
X49745Y154122D01*
Y155122D01*
X50744D01*
X48745Y153622D02*
Y156621D01*
X46746Y153622D01*
Y156621D01*
X45746D02*
Y153622D01*
X44247D01*
X43747Y154122D01*
Y156121D01*
X44247Y156621D01*
X45746D01*
X-33027Y130189D02*
Y129689D01*
X-34027Y128689D01*
X-35026Y129689D01*
Y130189D01*
X-34027Y128689D02*
Y127190D01*
X-36026Y128689D02*
X-38025D01*
X-39025Y127190D02*
Y130189D01*
X-40025Y129189D01*
X-41025Y130189D01*
Y127190D01*
X-42024Y130189D02*
X-43024D01*
X-42524D01*
Y127190D01*
X-42024D01*
X-43024D01*
X-44523D02*
Y130189D01*
X-46523Y127190D01*
Y130189D01*
X-30933Y87723D02*
Y87224D01*
X-31933Y86224D01*
X-32932Y87224D01*
Y87723D01*
X-31933Y86224D02*
Y84724D01*
X-33932Y86224D02*
X-35932D01*
X-36931Y84724D02*
Y87723D01*
X-37931Y86724D01*
X-38930Y87723D01*
Y84724D01*
X-39930D02*
Y86724D01*
X-40930Y87723D01*
X-41930Y86724D01*
Y84724D01*
Y86224D01*
X-39930D01*
X-42929Y87723D02*
X-44929Y84724D01*
Y87723D02*
X-42929Y84724D01*
X8547Y130303D02*
X6548D01*
Y129803D01*
X8547Y127803D01*
Y127304D01*
X6548D01*
X5548Y128803D02*
X3549D01*
X2549Y127304D02*
Y130303D01*
X1550Y129303D01*
X550Y130303D01*
Y127304D01*
X-450Y130303D02*
X-1450D01*
X-950D01*
Y127304D01*
X-450D01*
X-1450D01*
X-2949D02*
Y130303D01*
X-4948Y127304D01*
Y130303D01*
X-72396Y86851D02*
X-74395Y83852D01*
Y86851D02*
X-72396Y83852D01*
X-75395Y85352D02*
X-77394D01*
X-78394Y83852D02*
Y86851D01*
X-79394Y85851D01*
X-80393Y86851D01*
Y83852D01*
X-81393D02*
Y85851D01*
X-82393Y86851D01*
X-83393Y85851D01*
Y83852D01*
Y85352D01*
X-81393D01*
X-84392Y86851D02*
X-86392Y83852D01*
Y86851D02*
X-84392Y83852D01*
X-97942Y-105871D02*
Y-103871D01*
X-98441D01*
X-100441Y-105871D01*
X-100941D01*
Y-103871D01*
X-99441Y-102872D02*
Y-100872D01*
X-97942Y-99873D02*
X-100941D01*
Y-98373D01*
X-100441Y-97873D01*
X-99941D01*
X-99441Y-98373D01*
Y-99873D01*
Y-98373D01*
X-98941Y-97873D01*
X-98441D01*
X-97942Y-98373D01*
Y-99873D01*
X-100941Y-94874D02*
Y-96874D01*
X-98941Y-94874D01*
X-98441D01*
X-97942Y-95374D01*
Y-96374D01*
X-98441Y-96874D01*
X-108370Y-106093D02*
Y-104093D01*
X-108870D01*
X-110869Y-106093D01*
X-111369D01*
Y-104093D01*
X-109870Y-103094D02*
Y-101094D01*
X-108370Y-100094D02*
X-111369D01*
Y-98595D01*
X-110869Y-98095D01*
X-110369D01*
X-109870Y-98595D01*
Y-100094D01*
Y-98595D01*
X-109370Y-98095D01*
X-108870D01*
X-108370Y-98595D01*
Y-100094D01*
X-111369Y-97096D02*
Y-96096D01*
Y-96596D01*
X-108370D01*
X-108870Y-97096D01*
X-117985Y-113563D02*
Y-111563D01*
X-118485D01*
X-120484Y-113563D01*
X-120984D01*
Y-111563D01*
X-119484Y-110564D02*
Y-108564D01*
X-120984Y-107564D02*
X-118984D01*
X-117985Y-106565D01*
X-118984Y-105565D01*
X-120984D01*
X-119484D01*
Y-107564D01*
X-120984Y-102566D02*
Y-104566D01*
X-118984Y-102566D01*
X-118485D01*
X-117985Y-103066D01*
Y-104066D01*
X-118485Y-104566D01*
X-128043Y-113710D02*
Y-111711D01*
X-128543D01*
X-130543Y-113710D01*
X-131043D01*
Y-111711D01*
X-129543Y-110712D02*
Y-108712D01*
X-131043Y-107712D02*
X-129043D01*
X-128043Y-106713D01*
X-129043Y-105713D01*
X-131043D01*
X-129543D01*
Y-107712D01*
X-131043Y-104713D02*
Y-103714D01*
Y-104214D01*
X-128043D01*
X-128543Y-104713D01*
X-68929Y-104250D02*
Y-106249D01*
X-71928D01*
Y-104250D01*
X-70429Y-106249D02*
Y-105250D01*
X-71928Y-103250D02*
Y-102251D01*
Y-102750D01*
X-68929D01*
X-69429Y-103250D01*
X-70429Y-100751D02*
Y-98752D01*
X-71928Y-97752D02*
X-69929D01*
X-68929Y-96752D01*
X-69929Y-95753D01*
X-71928D01*
X-70429D01*
Y-97752D01*
X-71928Y-94753D02*
Y-93753D01*
Y-94253D01*
X-68929D01*
X-69429Y-94753D01*
X-59018Y-104145D02*
Y-106144D01*
X-62017D01*
Y-104145D01*
X-60518Y-106144D02*
Y-105144D01*
X-62017Y-103145D02*
Y-102145D01*
Y-102645D01*
X-59018D01*
X-59518Y-103145D01*
X-60518Y-100646D02*
Y-98646D01*
X-62017Y-97647D02*
X-60018D01*
X-59018Y-96647D01*
X-60018Y-95647D01*
X-62017D01*
X-60518D01*
Y-97647D01*
X-62017Y-92648D02*
Y-94648D01*
X-60018Y-92648D01*
X-59518D01*
X-59018Y-93148D01*
Y-94148D01*
X-59518Y-94648D01*
X-50249Y-103414D02*
Y-105413D01*
X-53248D01*
Y-103414D01*
X-51749Y-105413D02*
Y-104414D01*
X-53248Y-102414D02*
Y-101415D01*
Y-101915D01*
X-50249D01*
X-50749Y-102414D01*
X-51749Y-99915D02*
Y-97916D01*
X-50249Y-96916D02*
X-53248D01*
Y-95417D01*
X-52748Y-94917D01*
X-52248D01*
X-51749Y-95417D01*
Y-96916D01*
Y-95417D01*
X-51249Y-94917D01*
X-50749D01*
X-50249Y-95417D01*
Y-96916D01*
X-53248Y-93917D02*
Y-92917D01*
Y-93417D01*
X-50249D01*
X-50749Y-93917D01*
X-38832Y-104103D02*
Y-106102D01*
X-41831D01*
Y-104103D01*
X-40331Y-106102D02*
Y-105103D01*
X-41831Y-103103D02*
Y-102104D01*
Y-102603D01*
X-38832D01*
X-39331Y-103103D01*
X-40331Y-100604D02*
Y-98605D01*
X-38832Y-97605D02*
X-41831D01*
Y-96106D01*
X-41331Y-95606D01*
X-40831D01*
X-40331Y-96106D01*
Y-97605D01*
Y-96106D01*
X-39831Y-95606D01*
X-39331D01*
X-38832Y-96106D01*
Y-97605D01*
X-41831Y-92607D02*
Y-94606D01*
X-39831Y-92607D01*
X-39331D01*
X-38832Y-93107D01*
Y-94106D01*
X-39331Y-94606D01*
X-9613Y-104059D02*
Y-106059D01*
X-12612D01*
Y-104059D01*
X-11112Y-106059D02*
Y-105059D01*
X-12612Y-101060D02*
Y-103060D01*
X-10613Y-101060D01*
X-10113D01*
X-9613Y-101560D01*
Y-102560D01*
X-10113Y-103060D01*
X-11112Y-100061D02*
Y-98061D01*
X-12612Y-97062D02*
X-10613D01*
X-9613Y-96062D01*
X-10613Y-95062D01*
X-12612D01*
X-11112D01*
Y-97062D01*
X-12612Y-94063D02*
Y-93063D01*
Y-93563D01*
X-9613D01*
X-10113Y-94063D01*
X1594Y-104812D02*
Y-106811D01*
X-1405D01*
Y-104812D01*
X94Y-106811D02*
Y-105811D01*
X-1405Y-101813D02*
Y-103812D01*
X594Y-101813D01*
X1094D01*
X1594Y-102313D01*
Y-103312D01*
X1094Y-103812D01*
X94Y-100813D02*
Y-98814D01*
X-1405Y-97814D02*
X594D01*
X1594Y-96814D01*
X594Y-95815D01*
X-1405D01*
X94D01*
Y-97814D01*
X-1405Y-92816D02*
Y-94815D01*
X594Y-92816D01*
X1094D01*
X1594Y-93315D01*
Y-94315D01*
X1094Y-94815D01*
X10410Y-104261D02*
Y-106260D01*
X7411D01*
Y-104261D01*
X8911Y-106260D02*
Y-105261D01*
X7411Y-101262D02*
Y-103261D01*
X9411Y-101262D01*
X9910D01*
X10410Y-101762D01*
Y-102761D01*
X9910Y-103261D01*
X8911Y-100262D02*
Y-98263D01*
X10410Y-97263D02*
X7411D01*
Y-95764D01*
X7911Y-95264D01*
X8411D01*
X8911Y-95764D01*
Y-97263D01*
Y-95764D01*
X9411Y-95264D01*
X9910D01*
X10410Y-95764D01*
Y-97263D01*
X7411Y-94264D02*
Y-93264D01*
Y-93764D01*
X10410D01*
X9910Y-94264D01*
X20422Y-104126D02*
Y-106126D01*
X17423D01*
Y-104126D01*
X18922Y-106126D02*
Y-105126D01*
X17423Y-101127D02*
Y-103127D01*
X19422Y-101127D01*
X19922D01*
X20422Y-101627D01*
Y-102627D01*
X19922Y-103127D01*
X18922Y-100128D02*
Y-98128D01*
X20422Y-97129D02*
X17423D01*
Y-95629D01*
X17923Y-95129D01*
X18422D01*
X18922Y-95629D01*
Y-97129D01*
Y-95629D01*
X19422Y-95129D01*
X19922D01*
X20422Y-95629D01*
Y-97129D01*
X17423Y-92130D02*
Y-94130D01*
X19422Y-92130D01*
X19922D01*
X20422Y-92630D01*
Y-93630D01*
X19922Y-94130D01*
X-179131Y-113280D02*
Y-111280D01*
X-179631D01*
X-181630Y-113280D01*
X-182130D01*
Y-111280D01*
X-180630Y-110281D02*
Y-108281D01*
X-182130Y-107281D02*
X-180131D01*
X-179131Y-106282D01*
X-180131Y-105282D01*
X-182130D01*
X-180630D01*
Y-107281D01*
X-182130Y-104282D02*
Y-103283D01*
Y-103783D01*
X-179131D01*
X-179631Y-104282D01*
X-168288Y-102185D02*
Y-100186D01*
X-168788D01*
X-170788Y-102185D01*
X-171287D01*
Y-100186D01*
X-169788Y-99186D02*
Y-97187D01*
X-171287Y-96187D02*
X-169288D01*
X-168288Y-95187D01*
X-169288Y-94188D01*
X-171287D01*
X-169788D01*
Y-96187D01*
X-171287Y-91189D02*
Y-93188D01*
X-169288Y-91189D01*
X-168788D01*
X-168288Y-91689D01*
Y-92688D01*
X-168788Y-93188D01*
X-159131Y-113280D02*
Y-111280D01*
X-159631D01*
X-161630Y-113280D01*
X-162130D01*
Y-111280D01*
X-160630Y-110281D02*
Y-108281D01*
X-159131Y-107281D02*
X-162130D01*
Y-105782D01*
X-161630Y-105282D01*
X-161130D01*
X-160630Y-105782D01*
Y-107281D01*
Y-105782D01*
X-160131Y-105282D01*
X-159631D01*
X-159131Y-105782D01*
Y-107281D01*
X-162130Y-104282D02*
Y-103283D01*
Y-103783D01*
X-159131D01*
X-159631Y-104282D01*
X-149131Y-113280D02*
Y-111280D01*
X-149631D01*
X-151630Y-113280D01*
X-152130D01*
Y-111280D01*
X-150630Y-110281D02*
Y-108281D01*
X-149131Y-107281D02*
X-152130D01*
Y-105782D01*
X-151630Y-105282D01*
X-151130D01*
X-150630Y-105782D01*
Y-107281D01*
Y-105782D01*
X-150131Y-105282D01*
X-149631D01*
X-149131Y-105782D01*
Y-107281D01*
X-152130Y-102283D02*
Y-104282D01*
X-150131Y-102283D01*
X-149631D01*
X-149131Y-102783D01*
Y-103783D01*
X-149631Y-104282D01*
X-238482Y-106160D02*
X-238982D01*
X-239981Y-105160D01*
X-238982Y-104160D01*
X-238482D01*
X-239981Y-105160D02*
X-241481D01*
X-239981Y-103161D02*
Y-101161D01*
X-241481Y-100162D02*
X-239481D01*
X-238482Y-99162D01*
X-239481Y-98162D01*
X-241481D01*
X-239981D01*
Y-100162D01*
X-241481Y-97163D02*
Y-96163D01*
Y-96663D01*
X-238482D01*
X-238982Y-97163D01*
X-228789Y-105837D02*
X-229289D01*
X-230289Y-104837D01*
X-229289Y-103837D01*
X-228789D01*
X-230289Y-104837D02*
X-231788D01*
X-230289Y-102838D02*
Y-100838D01*
X-231788Y-99839D02*
X-229789D01*
X-228789Y-98839D01*
X-229789Y-97839D01*
X-231788D01*
X-230289D01*
Y-99839D01*
X-231788Y-94840D02*
Y-96840D01*
X-229789Y-94840D01*
X-229289D01*
X-228789Y-95340D01*
Y-96340D01*
X-229289Y-96840D01*
X-218235Y-106214D02*
X-218735D01*
X-219734Y-105214D01*
X-218735Y-104214D01*
X-218235D01*
X-219734Y-105214D02*
X-221234D01*
X-219734Y-103215D02*
Y-101215D01*
X-218235Y-100215D02*
X-221234D01*
Y-98716D01*
X-220734Y-98216D01*
X-220234D01*
X-219734Y-98716D01*
Y-100215D01*
Y-98716D01*
X-219234Y-98216D01*
X-218735D01*
X-218235Y-98716D01*
Y-100215D01*
X-221234Y-97216D02*
Y-96217D01*
Y-96717D01*
X-218235D01*
X-218735Y-97216D01*
X-210157Y-106052D02*
X-210657D01*
X-211657Y-105052D01*
X-210657Y-104053D01*
X-210157D01*
X-211657Y-105052D02*
X-213157D01*
X-211657Y-103053D02*
Y-101054D01*
X-210157Y-100054D02*
X-213157D01*
Y-98554D01*
X-212657Y-98055D01*
X-212157D01*
X-211657Y-98554D01*
Y-100054D01*
Y-98554D01*
X-211157Y-98055D01*
X-210657D01*
X-210157Y-98554D01*
Y-100054D01*
X-213157Y-95056D02*
Y-97055D01*
X-211157Y-95056D01*
X-210657D01*
X-210157Y-95555D01*
Y-96555D01*
X-210657Y-97055D01*
X-268447Y-106225D02*
X-271446Y-104225D01*
X-268447D02*
X-271446Y-106225D01*
X-269947Y-103226D02*
Y-101226D01*
X-268447Y-100226D02*
X-271446D01*
Y-98727D01*
X-270946Y-98227D01*
X-270446D01*
X-269947Y-98727D01*
Y-100226D01*
Y-98727D01*
X-269447Y-98227D01*
X-268947D01*
X-268447Y-98727D01*
Y-100226D01*
X-271446Y-95228D02*
Y-97228D01*
X-269447Y-95228D01*
X-268947D01*
X-268447Y-95728D01*
Y-96728D01*
X-268947Y-97228D01*
X-278448Y-105954D02*
X-281448Y-103955D01*
X-278448D02*
X-281448Y-105954D01*
X-279948Y-102955D02*
Y-100956D01*
X-278448Y-99956D02*
X-281448D01*
Y-98457D01*
X-280948Y-97957D01*
X-280448D01*
X-279948Y-98457D01*
Y-99956D01*
Y-98457D01*
X-279448Y-97957D01*
X-278948D01*
X-278448Y-98457D01*
Y-99956D01*
X-281448Y-96957D02*
Y-95957D01*
Y-96457D01*
X-278448D01*
X-278948Y-96957D01*
X-288558Y-105954D02*
X-291557Y-103955D01*
X-288558D02*
X-291557Y-105954D01*
X-290057Y-102955D02*
Y-100956D01*
X-291557Y-99956D02*
X-289558D01*
X-288558Y-98957D01*
X-289558Y-97957D01*
X-291557D01*
X-290057D01*
Y-99956D01*
X-291557Y-94958D02*
Y-96957D01*
X-289558Y-94958D01*
X-289058D01*
X-288558Y-95458D01*
Y-96457D01*
X-289058Y-96957D01*
X-298559Y-106116D02*
X-301558Y-104117D01*
X-298559D02*
X-301558Y-106116D01*
X-300059Y-103118D02*
Y-101118D01*
X-301558Y-100118D02*
X-299559D01*
X-298559Y-99119D01*
X-299559Y-98119D01*
X-301558D01*
X-300059D01*
Y-100118D01*
X-301558Y-97119D02*
Y-96120D01*
Y-96620D01*
X-298559D01*
X-299059Y-97119D01*
X-292600Y263851D02*
Y260852D01*
Y262351D01*
X-294599D01*
Y263851D01*
Y260852D01*
X-295599Y263851D02*
X-297598D01*
X-296599D01*
Y260852D01*
X-298598D02*
Y263851D01*
X-300098D01*
X-300597Y263351D01*
Y262351D01*
X-300098Y261852D01*
X-298598D01*
X-299598D02*
X-300597Y260852D01*
X-301597D02*
X-302597D01*
X-302097D01*
Y263851D01*
X-301597Y263351D01*
X-212100Y264251D02*
Y261252D01*
Y262751D01*
X-214099D01*
Y264251D01*
Y261252D01*
X-215099Y264251D02*
X-217098D01*
X-216099D01*
Y261252D01*
X-218098D02*
Y264251D01*
X-219598D01*
X-220097Y263751D01*
Y262751D01*
X-219598Y262252D01*
X-218098D01*
X-219098D02*
X-220097Y261252D01*
X-221097Y263751D02*
X-221597Y264251D01*
X-222597D01*
X-223096Y263751D01*
Y263251D01*
X-222597Y262751D01*
X-222097D01*
X-222597D01*
X-223096Y262252D01*
Y261752D01*
X-222597Y261252D01*
X-221597D01*
X-221097Y261752D01*
X-252300Y264151D02*
Y261152D01*
Y262651D01*
X-254299D01*
Y264151D01*
Y261152D01*
X-255299Y264151D02*
X-257298D01*
X-256299D01*
Y261152D01*
X-258298D02*
Y264151D01*
X-259798D01*
X-260297Y263651D01*
Y262651D01*
X-259798Y262152D01*
X-258298D01*
X-259298D02*
X-260297Y261152D01*
X-263296D02*
X-261297D01*
X-263296Y263151D01*
Y263651D01*
X-262797Y264151D01*
X-261797D01*
X-261297Y263651D01*
X-131400Y264451D02*
Y261452D01*
Y262951D01*
X-133399D01*
Y264451D01*
Y261452D01*
X-134399Y264451D02*
X-136398D01*
X-135399D01*
Y261452D01*
X-137398Y264451D02*
Y261452D01*
X-138898D01*
X-139397Y261952D01*
Y262452D01*
X-138898Y262951D01*
X-137398D01*
X-138898D01*
X-139397Y263451D01*
Y263951D01*
X-138898Y264451D01*
X-137398D01*
X-140397D02*
Y261452D01*
X-141897D01*
X-142396Y261952D01*
Y263951D01*
X-141897Y264451D01*
X-140397D01*
X55386Y32704D02*
Y30704D01*
X54386Y29705D01*
X53386Y30704D01*
Y32704D01*
X52387D02*
X51387D01*
X51887D01*
Y29705D01*
X52387D01*
X51387D01*
X49888D02*
Y32704D01*
X47888Y29705D01*
Y32704D01*
X43890Y29705D02*
Y32704D01*
X42890Y31704D01*
X41890Y32704D01*
Y29705D01*
X39391Y32704D02*
X40391D01*
X40890Y32204D01*
Y30204D01*
X40391Y29705D01*
X39391D01*
X38891Y30204D01*
Y32204D01*
X39391Y32704D01*
X37892D02*
X35892D01*
X36892D01*
Y29705D01*
X13910Y218229D02*
Y216229D01*
X12910Y215230D01*
X11910Y216229D01*
Y218229D01*
X10911D02*
Y215230D01*
X9411D01*
X8911Y215730D01*
Y216229D01*
X9411Y216729D01*
X10911D01*
X9411D01*
X8911Y217229D01*
Y217729D01*
X9411Y218229D01*
X10911D01*
X5912D02*
X7912D01*
Y215230D01*
X5912D01*
X7912Y216729D02*
X6912D01*
X4913Y218229D02*
Y215230D01*
X3413D01*
X2913Y215730D01*
Y217729D01*
X3413Y218229D01*
X4913D01*
X-174399Y264451D02*
X-172400D01*
Y262951D01*
X-173400D01*
X-172400D01*
Y261452D01*
X-175399D02*
Y263451D01*
X-176399Y264451D01*
X-177398Y263451D01*
Y261452D01*
Y262951D01*
X-175399D01*
X-178398Y261452D02*
Y264451D01*
X-180397Y261452D01*
Y264451D01*
X-181397Y261452D02*
X-182397D01*
X-181897D01*
Y264451D01*
X-181397Y263951D01*
X-324824Y209214D02*
X-322825D01*
Y207714D01*
X-323824D01*
X-322825D01*
Y206215D01*
X-325824D02*
Y208214D01*
X-326823Y209214D01*
X-327823Y208214D01*
Y206215D01*
Y207714D01*
X-325824D01*
X-328823Y206215D02*
Y209214D01*
X-330822Y206215D01*
Y209214D01*
X-333821Y206215D02*
X-331822D01*
X-333821Y208214D01*
Y208714D01*
X-333321Y209214D01*
X-332322D01*
X-331822Y208714D01*
X18911Y252344D02*
X20911D01*
Y250845D01*
X19911Y251344D01*
X19411D01*
X18911Y250845D01*
Y249845D01*
X19411Y249345D01*
X20411D01*
X20911Y249845D01*
X17912Y252344D02*
Y250345D01*
X16912Y249345D01*
X15912Y250345D01*
Y252344D01*
X10094Y87128D02*
X8095D01*
Y86629D01*
X10094Y84629D01*
Y84129D01*
X8095D01*
X7095Y85629D02*
X5096D01*
X4096Y84129D02*
Y87128D01*
X3097Y86129D01*
X2097Y87128D01*
Y84129D01*
X1097D02*
Y86129D01*
X98Y87128D01*
X-902Y86129D01*
Y84129D01*
Y85629D01*
X1097D01*
X-1902Y87128D02*
X-3901Y84129D01*
Y87128D02*
X-1902Y84129D01*
X-19836Y24016D02*
X-22335D01*
X-22835Y24516D01*
Y25515D01*
X-22335Y26015D01*
X-19836D01*
X-22835Y27015D02*
X-19836D01*
Y28514D01*
X-20335Y29014D01*
X-21335D01*
X-21835Y28514D01*
Y27015D01*
Y28014D02*
X-22835Y29014D01*
X-19836Y30014D02*
X-22835Y32013D01*
X-19836D02*
X-22835Y30014D01*
X-19836Y33013D02*
X-22835D01*
Y34512D01*
X-22335Y35012D01*
X-20335D01*
X-19836Y34512D01*
Y33013D01*
X9783Y26901D02*
X10283Y26401D01*
Y25401D01*
X9783Y24902D01*
X7783D01*
X7283Y25401D01*
Y26401D01*
X7783Y26901D01*
X8783D01*
Y25901D01*
X7283Y27901D02*
X10283D01*
X7283Y29900D01*
X10283D01*
Y30900D02*
X7283D01*
Y32399D01*
X7783Y32899D01*
X9783D01*
X10283Y32399D01*
Y30900D01*
X-181074Y106589D02*
X-178075D01*
Y108089D01*
X-178575Y108589D01*
X-179574D01*
X-180074Y108089D01*
Y106589D01*
Y107589D02*
X-181074Y108589D01*
X-178075Y111588D02*
Y109589D01*
X-181074D01*
Y111588D01*
X-179574Y109589D02*
Y110588D01*
X-178575Y114587D02*
X-178075Y114087D01*
Y113087D01*
X-178575Y112587D01*
X-179074D01*
X-179574Y113087D01*
Y114087D01*
X-180074Y114587D01*
X-180574D01*
X-181074Y114087D01*
Y113087D01*
X-180574Y112587D01*
X-178075Y117586D02*
Y115587D01*
X-181074D01*
Y117586D01*
X-179574Y115587D02*
Y116586D01*
X-178075Y118586D02*
Y120585D01*
Y119585D01*
X-181074D01*
X-163473Y162905D02*
X-162973Y162405D01*
Y161405D01*
X-163473Y160905D01*
X-163973D01*
X-164473Y161405D01*
Y162405D01*
X-164973Y162905D01*
X-165473D01*
X-165972Y162405D01*
Y161405D01*
X-165473Y160905D01*
X-162973Y163905D02*
X-165972D01*
X-164973Y164904D01*
X-165972Y165904D01*
X-162973D01*
Y168403D02*
Y167403D01*
X-163473Y166903D01*
X-165473D01*
X-165972Y167403D01*
Y168403D01*
X-165473Y168903D01*
X-163473D01*
X-162973Y168403D01*
X-165972Y169903D02*
X-163973Y171902D01*
X-162973Y172902D02*
Y174901D01*
Y173901D01*
X-165972D01*
X-162973Y175901D02*
X-165972D01*
Y177400D01*
X-165473Y177900D01*
X-163473D01*
X-162973Y177400D01*
Y175901D01*
Y180399D02*
Y179400D01*
X-163473Y178900D01*
X-165473D01*
X-165972Y179400D01*
Y180399D01*
X-165473Y180899D01*
X-163473D01*
X-162973Y180399D01*
X-164056Y140236D02*
Y142236D01*
Y141236D01*
X-167055D01*
X-164056Y143235D02*
X-167055D01*
Y144735D01*
X-166555Y145235D01*
X-164556D01*
X-164056Y144735D01*
Y143235D01*
Y146234D02*
Y147234D01*
Y146734D01*
X-167055D01*
Y146234D01*
Y147234D01*
X-150003Y121187D02*
Y123186D01*
Y122186D01*
X-153002D01*
X-150502Y126185D02*
X-150003Y125685D01*
Y124685D01*
X-150502Y124186D01*
X-152502D01*
X-153002Y124685D01*
Y125685D01*
X-152502Y126185D01*
X-150003Y127185D02*
X-153002D01*
X-152002D01*
X-150003Y129184D01*
X-151502Y127684D01*
X-153002Y129184D01*
Y130184D02*
X-151002Y132183D01*
X-150502Y135182D02*
X-150003Y134682D01*
Y133683D01*
X-150502Y133183D01*
X-151002D01*
X-151502Y133683D01*
Y134682D01*
X-152002Y135182D01*
X-152502D01*
X-153002Y134682D01*
Y133683D01*
X-152502Y133183D01*
X-150003Y136182D02*
X-153002D01*
X-152002Y137181D01*
X-153002Y138181D01*
X-150003D01*
X-150502Y141180D02*
X-150003Y140680D01*
Y139681D01*
X-150502Y139181D01*
X-152502D01*
X-153002Y139681D01*
Y140680D01*
X-152502Y141180D01*
X-150003Y142180D02*
X-153002D01*
Y144179D01*
X-150003Y145179D02*
X-153002D01*
X-152002D01*
X-150003Y147178D01*
X-151502Y145679D01*
X-153002Y147178D01*
X-78989Y136842D02*
Y134843D01*
X-81988D01*
Y136842D01*
X-80489Y134843D02*
Y135842D01*
X-81988Y137842D02*
X-78989D01*
Y139341D01*
X-79489Y139841D01*
X-80489D01*
X-80989Y139341D01*
Y137842D01*
Y138841D02*
X-81988Y139841D01*
Y140841D02*
X-79989D01*
X-78989Y141840D01*
X-79989Y142840D01*
X-81988D01*
X-80489D01*
Y140841D01*
X-79489Y145839D02*
X-78989Y145339D01*
Y144340D01*
X-79489Y143840D01*
X-79989D01*
X-80489Y144340D01*
Y145339D01*
X-80989Y145839D01*
X-81488D01*
X-81988Y145339D01*
Y144340D01*
X-81488Y143840D01*
X-78989Y148838D02*
Y146839D01*
X-81988D01*
Y148838D01*
X-80489Y146839D02*
Y147838D01*
G54D23*
X38091Y55050D02*
X36758D01*
X37424D01*
Y53051D01*
X34758Y54717D02*
X35092Y55050D01*
X35758D01*
X36091Y54717D01*
Y53384D01*
X35758Y53051D01*
X35092D01*
X34758Y53384D01*
X33092Y53051D02*
Y55050D01*
X34092Y54051D01*
X32759D01*
X1772Y41173D02*
X439D01*
X1105D01*
Y39173D01*
X-1561Y40839D02*
X-1227Y41173D01*
X-561D01*
X-228Y40839D01*
Y39507D01*
X-561Y39173D01*
X-1227D01*
X-1561Y39507D01*
X-2227Y40839D02*
X-2560Y41173D01*
X-3227D01*
X-3560Y40839D01*
Y40506D01*
X-3227Y40173D01*
X-2894D01*
X-3227D01*
X-3560Y39840D01*
Y39507D01*
X-3227Y39173D01*
X-2560D01*
X-2227Y39507D01*
X-58563Y41369D02*
X-59896D01*
X-59229D01*
Y39370D01*
X-61895Y41036D02*
X-61562Y41369D01*
X-60896D01*
X-60562Y41036D01*
Y39703D01*
X-60896Y39370D01*
X-61562D01*
X-61895Y39703D01*
X-62562Y39370D02*
X-63228D01*
X-62895D01*
Y41369D01*
X-62562Y41036D01*
X-54429Y17649D02*
X-55762D01*
X-55096D01*
Y15650D01*
X-57761Y17316D02*
X-57428Y17649D01*
X-56762D01*
X-56428Y17316D01*
Y15983D01*
X-56762Y15650D01*
X-57428D01*
X-57761Y15983D01*
X-59427Y15650D02*
Y17649D01*
X-58428Y16649D01*
X-59761D01*
X-27854Y42551D02*
X-29187D01*
X-28521D01*
Y40551D01*
X-31187Y42217D02*
X-30853Y42551D01*
X-30187D01*
X-29854Y42217D01*
Y40884D01*
X-30187Y40551D01*
X-30853D01*
X-31187Y40884D01*
X-33186Y40551D02*
X-31853D01*
X-33186Y41884D01*
Y42217D01*
X-32853Y42551D01*
X-32186D01*
X-31853Y42217D01*
X-80512Y29165D02*
X-81845D01*
X-81178D01*
Y27165D01*
X-83844Y28831D02*
X-83511Y29165D01*
X-82844D01*
X-82511Y28831D01*
Y27499D01*
X-82844Y27165D01*
X-83511D01*
X-83844Y27499D01*
X-84510Y27165D02*
X-85177D01*
X-84844D01*
Y29165D01*
X-84510Y28831D01*
X-104626Y30641D02*
X-105959D01*
X-105292D01*
Y28642D01*
X-107958Y30308D02*
X-107625Y30641D01*
X-106959D01*
X-106625Y30308D01*
Y28975D01*
X-106959Y28642D01*
X-107625D01*
X-107958Y28975D01*
X-109958Y28642D02*
X-108625D01*
X-109958Y29975D01*
Y30308D01*
X-109624Y30641D01*
X-108958D01*
X-108625Y30308D01*
X-54429Y30051D02*
X-55762D01*
X-55096D01*
Y28051D01*
X-57761Y29717D02*
X-57428Y30051D01*
X-56762D01*
X-56428Y29717D01*
Y28384D01*
X-56762Y28051D01*
X-57428D01*
X-57761Y28384D01*
X-58428Y29717D02*
X-58761Y30051D01*
X-59427D01*
X-59761Y29717D01*
Y29384D01*
X-59427Y29051D01*
X-59094D01*
X-59427D01*
X-59761Y28718D01*
Y28384D01*
X-59427Y28051D01*
X-58761D01*
X-58428Y28384D01*
X-112272Y-8510D02*
Y-9843D01*
X-113272D01*
Y-9176D01*
Y-9843D01*
X-114272D01*
X-112272Y-7843D02*
X-114272D01*
Y-6510D01*
Y-5844D02*
X-112939D01*
X-112272Y-5177D01*
X-112939Y-4511D01*
X-114272D01*
X-113272D01*
Y-5844D01*
X-112606Y-2512D02*
X-112272Y-2845D01*
Y-3511D01*
X-112606Y-3844D01*
X-112939D01*
X-113272Y-3511D01*
Y-2845D01*
X-113605Y-2512D01*
X-113938D01*
X-114272Y-2845D01*
Y-3511D01*
X-113938Y-3844D01*
X-112272Y-1845D02*
X-114272D01*
X-113272D01*
Y-512D01*
X-112272D01*
X-114272D01*
X-114605Y154D02*
Y1487D01*
X-112606Y3486D02*
X-112272Y3153D01*
Y2487D01*
X-112606Y2154D01*
X-113938D01*
X-114272Y2487D01*
Y3153D01*
X-113938Y3486D01*
X-112606Y5486D02*
X-112272Y5153D01*
Y4486D01*
X-112606Y4153D01*
X-112939D01*
X-113272Y4486D01*
Y5153D01*
X-113605Y5486D01*
X-113938D01*
X-114272Y5153D01*
Y4486D01*
X-113938Y4153D01*
X-92126Y-11024D02*
X-90127D01*
Y-10024D01*
X-90460Y-9691D01*
X-91126D01*
X-91460Y-10024D01*
Y-11024D01*
X-92126Y-9024D02*
X-90793D01*
X-90127Y-8358D01*
X-90793Y-7691D01*
X-92126D01*
X-91126D01*
Y-9024D01*
X-92126Y-5692D02*
Y-7025D01*
X-90793Y-5692D01*
X-90460D01*
X-90127Y-6025D01*
Y-6692D01*
X-90460Y-7025D01*
X-90127Y-3693D02*
X-90460Y-4359D01*
X-91126Y-5026D01*
X-91793D01*
X-92126Y-4692D01*
Y-4026D01*
X-91793Y-3693D01*
X-91460D01*
X-91126Y-4026D01*
Y-5026D01*
X-92459Y-3026D02*
Y-1693D01*
X-92126Y-1027D02*
X-90127D01*
X-90793Y-360D01*
X-90127Y306D01*
X-92126D01*
X-90127Y1972D02*
Y1306D01*
X-90460Y972D01*
X-91793D01*
X-92126Y1306D01*
Y1972D01*
X-91793Y2305D01*
X-90460D01*
X-90127Y1972D01*
X-90460Y4305D02*
X-90127Y3971D01*
Y3305D01*
X-90460Y2972D01*
X-90793D01*
X-91126Y3305D01*
Y3971D01*
X-91460Y4305D01*
X-91793D01*
X-92126Y3971D01*
Y3305D01*
X-91793Y2972D01*
X-90127Y4971D02*
Y5638D01*
Y5304D01*
X-92126D01*
Y4971D01*
Y5638D01*
X-70866Y-11454D02*
X-68867D01*
Y-10454D01*
X-69200Y-10121D01*
X-69867D01*
X-70200Y-10454D01*
Y-11454D01*
X-70866Y-9454D02*
X-69533D01*
X-68867Y-8788D01*
X-69533Y-8121D01*
X-70866D01*
X-69867D01*
Y-9454D01*
X-70866Y-6122D02*
Y-7455D01*
X-69533Y-6122D01*
X-69200D01*
X-68867Y-6455D01*
Y-7122D01*
X-69200Y-7455D01*
X-68867Y-4123D02*
Y-5456D01*
X-69867D01*
X-69533Y-4789D01*
Y-4456D01*
X-69867Y-4123D01*
X-70533D01*
X-70866Y-4456D01*
Y-5122D01*
X-70533Y-5456D01*
X-71199Y-3456D02*
Y-2123D01*
X-70866Y-1457D02*
X-68867D01*
X-69533Y-790D01*
X-68867Y-124D01*
X-70866D01*
X-68867Y543D02*
Y1209D01*
Y876D01*
X-70866D01*
Y543D01*
Y1209D01*
X-69200Y3542D02*
X-68867Y3208D01*
Y2542D01*
X-69200Y2209D01*
X-69533D01*
X-69867Y2542D01*
Y3208D01*
X-70200Y3542D01*
X-70533D01*
X-70866Y3208D01*
Y2542D01*
X-70533Y2209D01*
X-68867Y5208D02*
Y4541D01*
X-69200Y4208D01*
X-70533D01*
X-70866Y4541D01*
Y5208D01*
X-70533Y5541D01*
X-69200D01*
X-68867Y5208D01*
X-83366Y-11024D02*
X-81367D01*
Y-10024D01*
X-81700Y-9691D01*
X-82367D01*
X-82700Y-10024D01*
Y-11024D01*
X-83366Y-9024D02*
X-82033D01*
X-81367Y-8358D01*
X-82033Y-7691D01*
X-83366D01*
X-82367D01*
Y-9024D01*
X-83366Y-5692D02*
Y-7025D01*
X-82033Y-5692D01*
X-81700D01*
X-81367Y-6025D01*
Y-6692D01*
X-81700Y-7025D01*
X-81367Y-5026D02*
Y-3693D01*
X-81700D01*
X-83033Y-5026D01*
X-83366D01*
X-83699Y-3026D02*
Y-1693D01*
X-81700Y306D02*
X-81367Y-27D01*
Y-694D01*
X-81700Y-1027D01*
X-82033D01*
X-82367Y-694D01*
Y-27D01*
X-82700Y306D01*
X-83033D01*
X-83366Y-27D01*
Y-694D01*
X-83033Y-1027D01*
X-81700Y2305D02*
X-81367Y1972D01*
Y1306D01*
X-81700Y972D01*
X-83033D01*
X-83366Y1306D01*
Y1972D01*
X-83033Y2305D01*
X-81367Y2972D02*
X-83366D01*
Y4305D01*
X-81367Y4971D02*
X-83366D01*
X-82700D01*
X-81367Y6304D01*
X-82367Y5304D01*
X-83366Y6304D01*
X-100757Y-1181D02*
X-102756D01*
X-101756D01*
Y152D01*
X-100757D01*
X-102756D01*
X-100757Y1818D02*
Y1151D01*
X-101090Y818D01*
X-102423D01*
X-102756Y1151D01*
Y1818D01*
X-102423Y2151D01*
X-101090D01*
X-100757Y1818D01*
Y2818D02*
X-102756D01*
Y4151D01*
X-100757Y4817D02*
X-102756D01*
Y5817D01*
X-102423Y6150D01*
X-101090D01*
X-100757Y5817D01*
Y4817D01*
X-275716Y77865D02*
Y76533D01*
X-276383Y75866D01*
X-277049Y76533D01*
Y77865D01*
X-277716D02*
Y76199D01*
X-278049Y75866D01*
X-278716D01*
X-279049Y76199D01*
Y77865D01*
X-281048Y77532D02*
X-280715Y77865D01*
X-280048D01*
X-279715Y77532D01*
Y77199D01*
X-280048Y76866D01*
X-280715D01*
X-281048Y76533D01*
Y76199D01*
X-280715Y75866D01*
X-280048D01*
X-279715Y76199D01*
X-281715Y77865D02*
Y75866D01*
X-282714D01*
X-283048Y76199D01*
Y76533D01*
X-282714Y76866D01*
X-281715D01*
X-282714D01*
X-283048Y77199D01*
Y77532D01*
X-282714Y77865D01*
X-281715D01*
X-292305Y66804D02*
X-291972Y67137D01*
X-291306D01*
X-290972Y66804D01*
Y66471D01*
X-291306Y66137D01*
X-291972D01*
X-292305Y65804D01*
Y65471D01*
X-291972Y65138D01*
X-291306D01*
X-290972Y65471D01*
X-292972Y67137D02*
Y65138D01*
X-293971D01*
X-294305Y65471D01*
Y66804D01*
X-293971Y67137D01*
X-292972D01*
X-296304Y66804D02*
X-295971Y67137D01*
X-295304D01*
X-294971Y66804D01*
Y65471D01*
X-295304Y65138D01*
X-295971D01*
X-296304Y65471D01*
X-296971Y67137D02*
Y65138D01*
X-297970D01*
X-298303Y65471D01*
Y66804D01*
X-297970Y67137D01*
X-296971D01*
X-278937Y49508D02*
Y51507D01*
X-279604Y50841D01*
X-280270Y51507D01*
Y49508D01*
X-282269Y51174D02*
X-281936Y51507D01*
X-281270D01*
X-280936Y51174D01*
Y49841D01*
X-281270Y49508D01*
X-281936D01*
X-282269Y49841D01*
X-284269Y51174D02*
X-283935Y51507D01*
X-283269D01*
X-282936Y51174D01*
Y49841D01*
X-283269Y49508D01*
X-283935D01*
X-284269Y49841D01*
X-284935Y51507D02*
Y49508D01*
Y50174D01*
X-286268Y51507D01*
X-285268Y50507D01*
X-286268Y49508D01*
X-277067Y38780D02*
Y40779D01*
X-277733Y40112D01*
X-278400Y40779D01*
Y38780D01*
X-280399Y40446D02*
X-280066Y40779D01*
X-279399D01*
X-279066Y40446D01*
Y39113D01*
X-279399Y38780D01*
X-280066D01*
X-280399Y39113D01*
X-282399Y40446D02*
X-282065Y40779D01*
X-281399D01*
X-281066Y40446D01*
Y39113D01*
X-281399Y38780D01*
X-282065D01*
X-282399Y39113D01*
X-283065Y40779D02*
Y38780D01*
X-284065D01*
X-284398Y39113D01*
Y40446D01*
X-284065Y40779D01*
X-283065D01*
X-285064Y38780D02*
Y40112D01*
X-285731Y40779D01*
X-286397Y40112D01*
Y38780D01*
Y39779D01*
X-285064D01*
X-305118Y46654D02*
Y48653D01*
X-305785Y47986D01*
X-306451Y48653D01*
Y46654D01*
X-308450Y48320D02*
X-308117Y48653D01*
X-307451D01*
X-307118Y48320D01*
Y46987D01*
X-307451Y46654D01*
X-308117D01*
X-308450Y46987D01*
X-309117Y48653D02*
Y46654D01*
X-310117D01*
X-310450Y46987D01*
Y48320D01*
X-310117Y48653D01*
X-309117D01*
X-311116Y46654D02*
Y47986D01*
X-311783Y48653D01*
X-312449Y47986D01*
Y46654D01*
Y47653D01*
X-311116D01*
X-313116Y46654D02*
X-313782D01*
X-313449D01*
Y48653D01*
X-313116Y48320D01*
X-303642Y36319D02*
Y38318D01*
X-304308Y37652D01*
X-304975Y38318D01*
Y36319D01*
X-306974Y37985D02*
X-306641Y38318D01*
X-305974D01*
X-305641Y37985D01*
Y36652D01*
X-305974Y36319D01*
X-306641D01*
X-306974Y36652D01*
X-307640Y38318D02*
Y36319D01*
X-308640D01*
X-308973Y36652D01*
Y37985D01*
X-308640Y38318D01*
X-307640D01*
X-309640Y36319D02*
Y37652D01*
X-310306Y38318D01*
X-310973Y37652D01*
Y36319D01*
Y37319D01*
X-309640D01*
X-311639Y37985D02*
X-311972Y38318D01*
X-312639D01*
X-312972Y37985D01*
Y36652D01*
X-312639Y36319D01*
X-311972D01*
X-311639Y36652D01*
Y37985D01*
X-294291Y29331D02*
Y31330D01*
X-294958Y30664D01*
X-295624Y31330D01*
Y29331D01*
X-297624Y30997D02*
X-297290Y31330D01*
X-296624D01*
X-296291Y30997D01*
Y29664D01*
X-296624Y29331D01*
X-297290D01*
X-297624Y29664D01*
X-298290Y31330D02*
Y29331D01*
X-299290D01*
X-299623Y29664D01*
Y30997D01*
X-299290Y31330D01*
X-298290D01*
X-300289Y29331D02*
Y30664D01*
X-300956Y31330D01*
X-301622Y30664D01*
Y29331D01*
Y30330D01*
X-300289D01*
X-302289Y30997D02*
X-302622Y31330D01*
X-303288D01*
X-303622Y30997D01*
Y30664D01*
X-303288Y30330D01*
X-302955D01*
X-303288D01*
X-303622Y29997D01*
Y29664D01*
X-303288Y29331D01*
X-302622D01*
X-302289Y29664D01*
X-276673Y17815D02*
Y19814D01*
X-277340Y19148D01*
X-278006Y19814D01*
Y17815D01*
X-280006Y19481D02*
X-279672Y19814D01*
X-279006D01*
X-278673Y19481D01*
Y18148D01*
X-279006Y17815D01*
X-279672D01*
X-280006Y18148D01*
X-280672Y19814D02*
Y17815D01*
X-281672D01*
X-282005Y18148D01*
Y19481D01*
X-281672Y19814D01*
X-280672D01*
X-282671Y17815D02*
Y19148D01*
X-283338Y19814D01*
X-284004Y19148D01*
Y17815D01*
Y18815D01*
X-282671D01*
X-286003Y17815D02*
X-284671D01*
X-286003Y19148D01*
Y19481D01*
X-285670Y19814D01*
X-285004D01*
X-284671Y19481D01*
X-217252Y37375D02*
X-217585Y37708D01*
X-218252D01*
X-218585Y37375D01*
Y37042D01*
X-218252Y36708D01*
X-217918D01*
X-218252D01*
X-218585Y36375D01*
Y36042D01*
X-218252Y35709D01*
X-217585D01*
X-217252Y36042D01*
X-219251Y35709D02*
Y36042D01*
X-219584D01*
Y35709D01*
X-219251D01*
X-220918Y37375D02*
X-221251Y37708D01*
X-221917D01*
X-222250Y37375D01*
Y37042D01*
X-221917Y36708D01*
X-221584D01*
X-221917D01*
X-222250Y36375D01*
Y36042D01*
X-221917Y35709D01*
X-221251D01*
X-220918Y36042D01*
X-222917Y37708D02*
Y36375D01*
X-223583Y35709D01*
X-224250Y36375D01*
Y37708D01*
X-197736Y36842D02*
Y35509D01*
X-198403Y34843D01*
X-199069Y35509D01*
Y36842D01*
X-199736D02*
Y34843D01*
X-200735D01*
X-201068Y35176D01*
Y36509D01*
X-200735Y36842D01*
X-199736D01*
X-201735D02*
Y34843D01*
X-202735D01*
X-203068Y35176D01*
Y36509D01*
X-202735Y36842D01*
X-201735D01*
X-205734Y34843D02*
Y36175D01*
X-206400Y36842D01*
X-207066Y36175D01*
Y34843D01*
Y35842D01*
X-205734D01*
X-207733Y34843D02*
Y36842D01*
X-209066Y34843D01*
Y36842D01*
X-209732Y34843D02*
Y36175D01*
X-210399Y36842D01*
X-211065Y36175D01*
Y34843D01*
Y35842D01*
X-209732D01*
X-201898Y70544D02*
X-202231Y70877D01*
X-202897D01*
X-203231Y70544D01*
Y70211D01*
X-202897Y69878D01*
X-202564D01*
X-202897D01*
X-203231Y69544D01*
Y69211D01*
X-202897Y68878D01*
X-202231D01*
X-201898Y69211D01*
X-203897Y68878D02*
Y69211D01*
X-204230D01*
Y68878D01*
X-203897D01*
X-205563Y70544D02*
X-205896Y70877D01*
X-206563D01*
X-206896Y70544D01*
Y70211D01*
X-206563Y69878D01*
X-206230D01*
X-206563D01*
X-206896Y69544D01*
Y69211D01*
X-206563Y68878D01*
X-205896D01*
X-205563Y69211D01*
X-207562Y70877D02*
Y69544D01*
X-208229Y68878D01*
X-208895Y69544D01*
Y70877D01*
X-221779Y97452D02*
Y96119D01*
X-222446Y95453D01*
X-223112Y96119D01*
Y97452D01*
X-223779D02*
Y95453D01*
X-224779D01*
X-225112Y95786D01*
Y97119D01*
X-224779Y97452D01*
X-223779D01*
X-225778D02*
Y95453D01*
X-226778D01*
X-227111Y95786D01*
Y97119D01*
X-226778Y97452D01*
X-225778D01*
X-227778D02*
Y95786D01*
X-228111Y95453D01*
X-228777D01*
X-229111Y95786D01*
Y97452D01*
X-229777D02*
X-231110D01*
X-230443D01*
Y95453D01*
X-231776D02*
Y97452D01*
X-232443Y96786D01*
X-233109Y97452D01*
Y95453D01*
X-233776Y97452D02*
X-234442D01*
X-234109D01*
Y95453D01*
X-233776D01*
X-234442D01*
X-235433Y126765D02*
X-235766Y127098D01*
X-236433D01*
X-236766Y126765D01*
Y126431D01*
X-236433Y126098D01*
X-236100D01*
X-236433D01*
X-236766Y125765D01*
Y125432D01*
X-236433Y125098D01*
X-235766D01*
X-235433Y125432D01*
X-237432Y125098D02*
Y125432D01*
X-237766D01*
Y125098D01*
X-237432D01*
X-239099Y126765D02*
X-239432Y127098D01*
X-240098D01*
X-240431Y126765D01*
Y126431D01*
X-240098Y126098D01*
X-239765D01*
X-240098D01*
X-240431Y125765D01*
Y125432D01*
X-240098Y125098D01*
X-239432D01*
X-239099Y125432D01*
X-241098Y127098D02*
Y125765D01*
X-241764Y125098D01*
X-242431Y125765D01*
Y127098D01*
X-201209Y125662D02*
X-201542Y125995D01*
X-202208D01*
X-202542Y125662D01*
Y125329D01*
X-202208Y124996D01*
X-201875D01*
X-202208D01*
X-202542Y124662D01*
Y124329D01*
X-202208Y123996D01*
X-201542D01*
X-201209Y124329D01*
X-203208Y123996D02*
Y124329D01*
X-203541D01*
Y123996D01*
X-203208D01*
X-204874Y125662D02*
X-205207Y125995D01*
X-205874D01*
X-206207Y125662D01*
Y125329D01*
X-205874Y124996D01*
X-205541D01*
X-205874D01*
X-206207Y124662D01*
Y124329D01*
X-205874Y123996D01*
X-205207D01*
X-204874Y124329D01*
X-206873Y125995D02*
Y124662D01*
X-207540Y123996D01*
X-208206Y124662D01*
Y125995D01*
X-208873D02*
X-209539D01*
X-209206D01*
Y123996D01*
X-208873D01*
X-209539D01*
X-211539Y125995D02*
X-210872D01*
X-210539Y125662D01*
Y124329D01*
X-210872Y123996D01*
X-211539D01*
X-211872Y124329D01*
Y125662D01*
X-211539Y125995D01*
X-186611Y127146D02*
X-187944D01*
X-188610Y127812D01*
X-187944Y128479D01*
X-186611D01*
Y129145D02*
X-188610D01*
Y130145D01*
X-188277Y130478D01*
X-186944D01*
X-186611Y130145D01*
Y129145D01*
Y131144D02*
X-188610D01*
Y132144D01*
X-188277Y132477D01*
X-186944D01*
X-186611Y132144D01*
Y131144D01*
X-188610Y133144D02*
X-186611D01*
Y134143D01*
X-186944Y134476D01*
X-187611D01*
X-187944Y134143D01*
Y133144D01*
X-186611Y135143D02*
X-188610D01*
Y136476D01*
X-186611Y137142D02*
X-188610D01*
Y138475D01*
X-166268Y131409D02*
Y130076D01*
X-166934Y129409D01*
X-167601Y130076D01*
Y131409D01*
X-168267D02*
Y129409D01*
X-169267D01*
X-169600Y129743D01*
Y131076D01*
X-169267Y131409D01*
X-168267D01*
X-170266D02*
Y129409D01*
X-171266D01*
X-171599Y129743D01*
Y131076D01*
X-171266Y131409D01*
X-170266D01*
X-173266D02*
X-172599D01*
X-172266Y131076D01*
Y129743D01*
X-172599Y129409D01*
X-173266D01*
X-173599Y129743D01*
Y131076D01*
X-173266Y131409D01*
X-174265D02*
Y129743D01*
X-174598Y129409D01*
X-175265D01*
X-175598Y129743D01*
Y131409D01*
X-176265D02*
X-177597D01*
X-176931D01*
Y129409D01*
X-120750Y160747D02*
Y162079D01*
X-120417Y162413D01*
X-119750D01*
X-119417Y162079D01*
Y160747D01*
X-119750Y160413D01*
X-120417D01*
X-120084Y161080D02*
X-120750Y160413D01*
X-120417D02*
X-120750Y160747D01*
X-122750Y162413D02*
X-121417D01*
Y161413D01*
X-122083Y161746D01*
X-122416D01*
X-122750Y161413D01*
Y160747D01*
X-122416Y160413D01*
X-121750D01*
X-121417Y160747D01*
X-125415Y162413D02*
Y160413D01*
X-126415D01*
X-126748Y160747D01*
Y162079D01*
X-126415Y162413D01*
X-125415D01*
X-127415Y160413D02*
Y162413D01*
X-128414D01*
X-128748Y162079D01*
Y161413D01*
X-128414Y161080D01*
X-127415D01*
X-128081D02*
X-128748Y160413D01*
X-129414Y162413D02*
Y161080D01*
X-130080Y160413D01*
X-130747Y161080D01*
Y162413D01*
X-114458Y169423D02*
X-113125D01*
X-112792Y169090D01*
Y168424D01*
X-113125Y168090D01*
X-114458D01*
X-114791Y168424D01*
Y169090D01*
X-114125Y168757D02*
X-114791Y169423D01*
Y169090D02*
X-114458Y169423D01*
X-114791Y171089D02*
X-112792D01*
X-113792Y170090D01*
Y171423D01*
X-113125Y175421D02*
X-112792Y175088D01*
Y174422D01*
X-113125Y174089D01*
X-114458D01*
X-114791Y174422D01*
Y175088D01*
X-114458Y175421D01*
X-113792D01*
Y174755D01*
X-114791Y176088D02*
X-113458D01*
X-112792Y176754D01*
X-113458Y177421D01*
X-114791D01*
X-113792D01*
Y176088D01*
X-112792Y178087D02*
Y179420D01*
Y178754D01*
X-114791D01*
X-112792Y181420D02*
Y180087D01*
X-114791D01*
Y181420D01*
X-113792Y180087D02*
Y180753D01*
X47557Y95090D02*
X48890D01*
Y94090D01*
X48223D01*
X48890D01*
Y93090D01*
X46890Y94757D02*
X46557Y95090D01*
X45891D01*
X45557Y94757D01*
Y94423D01*
X45891Y94090D01*
X46224D01*
X45891D01*
X45557Y93757D01*
Y93424D01*
X45891Y93090D01*
X46557D01*
X46890Y93424D01*
X-19864Y168810D02*
X-18531D01*
Y167811D01*
X-19198D01*
X-18531D01*
Y166811D01*
X-21864D02*
X-20531D01*
X-21864Y168144D01*
Y168477D01*
X-21531Y168810D01*
X-20864D01*
X-20531Y168477D01*
X313Y174125D02*
X1646D01*
Y173126D01*
X979D01*
X1646D01*
Y172126D01*
X-354D02*
X-1020D01*
X-687D01*
Y174125D01*
X-354Y173792D01*
X-4063Y185724D02*
X-5396D01*
X-4729Y186390D02*
Y185058D01*
X-6062Y184724D02*
X-6729D01*
X-6396D01*
Y186724D01*
X-6062Y186390D01*
X-9061Y184724D02*
X-7728D01*
X-9061Y186057D01*
Y186390D01*
X-8728Y186724D01*
X-8062D01*
X-7728Y186390D01*
X-9728Y186724D02*
Y185391D01*
X-10394Y184724D01*
X-11061Y185391D01*
Y186724D01*
X-13060Y186390D02*
X-12727Y186724D01*
X-12060D01*
X-11727Y186390D01*
Y185058D01*
X-12060Y184724D01*
X-12727D01*
X-13060Y185058D01*
X-15059Y186390D02*
X-14726Y186724D01*
X-14060D01*
X-13726Y186390D01*
Y185058D01*
X-14060Y184724D01*
X-14726D01*
X-15059Y185058D01*
X-15726Y186390D02*
X-16059Y186724D01*
X-16726D01*
X-17059Y186390D01*
Y186057D01*
X-16726Y185724D01*
X-16392D01*
X-16726D01*
X-17059Y185391D01*
Y185058D01*
X-16726Y184724D01*
X-16059D01*
X-15726Y185058D01*
X-46878Y195665D02*
X-48211D01*
X-47544Y196331D02*
Y194999D01*
X-48877Y194665D02*
X-49544D01*
X-49211D01*
Y196665D01*
X-48877Y196331D01*
X-51876Y194665D02*
X-50543D01*
X-51876Y195998D01*
Y196331D01*
X-51543Y196665D01*
X-50877D01*
X-50543Y196331D01*
X-52543Y196665D02*
Y195332D01*
X-53209Y194665D01*
X-53876Y195332D01*
Y196665D01*
X-55875Y196331D02*
X-55542Y196665D01*
X-54875D01*
X-54542Y196331D01*
Y194999D01*
X-54875Y194665D01*
X-55542D01*
X-55875Y194999D01*
X-57874Y196331D02*
X-57541Y196665D01*
X-56875D01*
X-56542Y196331D01*
Y194999D01*
X-56875Y194665D01*
X-57541D01*
X-57874Y194999D01*
X-59874Y194665D02*
X-58541D01*
X-59874Y195998D01*
Y196331D01*
X-59540Y196665D01*
X-58874D01*
X-58541Y196331D01*
X-92618Y174993D02*
X-92951Y175326D01*
X-93618D01*
X-93951Y174993D01*
Y174660D01*
X-93618Y174326D01*
X-93285D01*
X-93618D01*
X-93951Y173993D01*
Y173660D01*
X-93618Y173327D01*
X-92951D01*
X-92618Y173660D01*
X-94617Y173327D02*
Y173660D01*
X-94951D01*
Y173327D01*
X-94617D01*
X-96284Y174993D02*
X-96617Y175326D01*
X-97283D01*
X-97616Y174993D01*
Y174660D01*
X-97283Y174326D01*
X-96950D01*
X-97283D01*
X-97616Y173993D01*
Y173660D01*
X-97283Y173327D01*
X-96617D01*
X-96284Y173660D01*
X-98283Y175326D02*
Y173993D01*
X-98949Y173327D01*
X-99616Y173993D01*
Y175326D01*
X-17323Y105641D02*
X-18656D01*
Y105308D01*
X-17323Y103975D01*
Y103642D01*
X-18656D01*
X-19322D02*
Y104975D01*
X-19655D01*
X-19989Y104641D01*
Y103642D01*
Y104641D01*
X-20322Y104975D01*
X-20655Y104641D01*
Y103642D01*
X-21655Y104975D02*
X-22321D01*
X-22654Y104641D01*
Y103642D01*
X-21655D01*
X-21321Y103975D01*
X-21655Y104308D01*
X-22654D01*
X-23321Y104975D02*
X-24654Y103642D01*
X-23987Y104308D01*
X-24654Y104975D01*
X-23321Y103642D01*
X-18009Y92795D02*
Y94128D01*
X-18342D01*
X-19675Y92795D01*
X-20008D01*
Y94128D01*
Y94795D02*
X-18675D01*
Y95128D01*
X-19008Y95461D01*
X-20008D01*
X-19008D01*
X-18675Y95794D01*
X-19008Y96127D01*
X-20008D01*
Y96794D02*
Y97460D01*
Y97127D01*
X-18675D01*
Y96794D01*
X-20008Y98460D02*
X-18675D01*
Y99460D01*
X-19008Y99793D01*
X-20008D01*
X-55610Y85562D02*
Y85229D01*
X-56277Y84563D01*
X-56943Y85229D01*
Y85562D01*
X-56277Y84563D02*
Y83563D01*
X-57610D02*
Y84896D01*
X-57943D01*
X-58276Y84563D01*
Y83563D01*
Y84563D01*
X-58609Y84896D01*
X-58943Y84563D01*
Y83563D01*
X-59942Y84896D02*
X-60609D01*
X-60942Y84563D01*
Y83563D01*
X-59942D01*
X-59609Y83896D01*
X-59942Y84229D01*
X-60942D01*
X-61608Y84896D02*
X-62941Y83563D01*
X-62275Y84229D01*
X-62941Y84896D01*
X-61608Y83563D01*
X-23524Y135464D02*
Y135131D01*
X-24190Y134464D01*
X-24857Y135131D01*
Y135464D01*
X-24190Y134464D02*
Y133465D01*
X-25523D02*
Y134798D01*
X-25856D01*
X-26189Y134464D01*
Y133465D01*
Y134464D01*
X-26523Y134798D01*
X-26856Y134464D01*
Y133465D01*
X-27522D02*
X-28189D01*
X-27856D01*
Y134798D01*
X-27522D01*
X-29188Y133465D02*
Y134798D01*
X-30188D01*
X-30521Y134464D01*
Y133465D01*
X-86910Y75326D02*
X-88242Y73327D01*
Y75326D02*
X-86910Y73327D01*
X-88909D02*
Y74660D01*
X-89242D01*
X-89575Y74326D01*
Y73327D01*
Y74326D01*
X-89908Y74660D01*
X-90242Y74326D01*
Y73327D01*
X-91241Y74660D02*
X-91908D01*
X-92241Y74326D01*
Y73327D01*
X-91241D01*
X-90908Y73660D01*
X-91241Y73993D01*
X-92241D01*
X-92908Y74660D02*
X-94240Y73327D01*
X-93574Y73993D01*
X-94240Y74660D01*
X-92908Y73327D01*
X-56102Y107019D02*
X-57435Y105020D01*
Y107019D02*
X-56102Y105020D01*
X-58102D02*
Y106353D01*
X-58435D01*
X-58768Y106019D01*
Y105020D01*
Y106019D01*
X-59101Y106353D01*
X-59435Y106019D01*
Y105020D01*
X-60101D02*
X-60768D01*
X-60434D01*
Y106353D01*
X-60101D01*
X-61767Y105020D02*
Y106353D01*
X-62767D01*
X-63100Y106019D01*
Y105020D01*
X54626Y-7859D02*
X53293D01*
X53960Y-7192D02*
Y-8525D01*
X52627Y-8858D02*
X51960D01*
X52293D01*
Y-6859D01*
X52627Y-7192D01*
X49628Y-8858D02*
X50960D01*
X49628Y-7525D01*
Y-7192D01*
X49961Y-6859D01*
X50627D01*
X50960Y-7192D01*
X48961Y-6859D02*
Y-8192D01*
X48295Y-8858D01*
X47628Y-8192D01*
Y-6859D01*
X45629Y-7192D02*
X45962Y-6859D01*
X46629D01*
X46962Y-7192D01*
Y-8525D01*
X46629Y-8858D01*
X45962D01*
X45629Y-8525D01*
X43630Y-7192D02*
X43963Y-6859D01*
X44629D01*
X44962Y-7192D01*
Y-8525D01*
X44629Y-8858D01*
X43963D01*
X43630Y-8525D01*
X42963Y-8858D02*
X42297D01*
X42630D01*
Y-6859D01*
X42963Y-7192D01*
X-314567Y-87113D02*
X-314900Y-86780D01*
X-315567D01*
X-315900Y-87113D01*
Y-88446D01*
X-315567Y-88779D01*
X-314900D01*
X-314567Y-88446D01*
Y-87113D01*
X-316566Y-88779D02*
Y-87447D01*
X-317233Y-86780D01*
X-317899Y-87447D01*
Y-88779D01*
Y-87780D01*
X-316566D01*
X-318566Y-88779D02*
X-319232D01*
X-318899D01*
Y-86780D01*
X-318566Y-87113D01*
X-324213Y-53846D02*
X-324546Y-53513D01*
X-325212D01*
X-325546Y-53846D01*
Y-55179D01*
X-325212Y-55512D01*
X-324546D01*
X-324213Y-55179D01*
Y-53846D01*
X-326212Y-55512D02*
Y-54179D01*
X-326878Y-53513D01*
X-327545Y-54179D01*
Y-55512D01*
Y-54512D01*
X-326212D01*
X-329544Y-55512D02*
X-328211D01*
X-329544Y-54179D01*
Y-53846D01*
X-329211Y-53513D01*
X-328544D01*
X-328211Y-53846D01*
X-288583Y-87310D02*
X-288916Y-86977D01*
X-289582D01*
X-289916Y-87310D01*
Y-88643D01*
X-289582Y-88976D01*
X-288916D01*
X-288583Y-88643D01*
Y-87310D01*
X-290582Y-86977D02*
Y-88976D01*
X-291582D01*
X-291915Y-88643D01*
Y-88310D01*
X-291582Y-87977D01*
X-290582D01*
X-291582D01*
X-291915Y-87643D01*
Y-87310D01*
X-291582Y-86977D01*
X-290582D01*
X-292581Y-88976D02*
X-293248D01*
X-292915D01*
Y-86977D01*
X-292581Y-87310D01*
X-269685Y-87704D02*
X-270018Y-87371D01*
X-270685D01*
X-271018Y-87704D01*
Y-89037D01*
X-270685Y-89370D01*
X-270018D01*
X-269685Y-89037D01*
Y-87704D01*
X-271684Y-87371D02*
Y-89370D01*
X-272684D01*
X-273017Y-89037D01*
Y-88704D01*
X-272684Y-88370D01*
X-271684D01*
X-272684D01*
X-273017Y-88037D01*
Y-87704D01*
X-272684Y-87371D01*
X-271684D01*
X-275017Y-89370D02*
X-273684D01*
X-275017Y-88037D01*
Y-87704D01*
X-274683Y-87371D01*
X-274017D01*
X-273684Y-87704D01*
X-264567Y-58767D02*
X-264900Y-58434D01*
X-265567D01*
X-265900Y-58767D01*
Y-60100D01*
X-265567Y-60433D01*
X-264900D01*
X-264567Y-60100D01*
Y-58767D01*
X-266566Y-60433D02*
Y-59100D01*
X-267233Y-58434D01*
X-267899Y-59100D01*
Y-60433D01*
Y-59433D01*
X-266566D01*
X-269899Y-60433D02*
X-268566D01*
X-269899Y-59100D01*
Y-58767D01*
X-269565Y-58434D01*
X-268899D01*
X-268566Y-58767D01*
X-241831Y-48924D02*
X-242164Y-48591D01*
X-242830D01*
X-243164Y-48924D01*
Y-50257D01*
X-242830Y-50591D01*
X-242164D01*
X-241831Y-50257D01*
Y-48924D01*
X-243830Y-50591D02*
Y-49258D01*
X-244496Y-48591D01*
X-245163Y-49258D01*
Y-50591D01*
Y-49591D01*
X-243830D01*
X-245829Y-50591D02*
X-246496D01*
X-246163D01*
Y-48591D01*
X-245829Y-48924D01*
X-217717Y-87507D02*
X-218050Y-87174D01*
X-218716D01*
X-219049Y-87507D01*
Y-88840D01*
X-218716Y-89173D01*
X-218050D01*
X-217717Y-88840D01*
Y-87507D01*
X-219716Y-87174D02*
Y-89173D01*
X-220716D01*
X-221049Y-88840D01*
Y-88507D01*
X-220716Y-88174D01*
X-219716D01*
X-220716D01*
X-221049Y-87840D01*
Y-87507D01*
X-220716Y-87174D01*
X-219716D01*
X-221715Y-89173D02*
X-222382D01*
X-222048D01*
Y-87174D01*
X-221715Y-87507D01*
X-198622Y-88984D02*
X-198955Y-88650D01*
X-199622D01*
X-199955Y-88984D01*
Y-90316D01*
X-199622Y-90650D01*
X-198955D01*
X-198622Y-90316D01*
Y-88984D01*
X-200621Y-88650D02*
Y-90650D01*
X-201621D01*
X-201954Y-90316D01*
Y-89983D01*
X-201621Y-89650D01*
X-200621D01*
X-201621D01*
X-201954Y-89317D01*
Y-88984D01*
X-201621Y-88650D01*
X-200621D01*
X-203954Y-90650D02*
X-202621D01*
X-203954Y-89317D01*
Y-88984D01*
X-203620Y-88650D01*
X-202954D01*
X-202621Y-88984D01*
X-180512Y-81798D02*
X-180845Y-81465D01*
X-181511D01*
X-181845Y-81798D01*
Y-83131D01*
X-181511Y-83465D01*
X-180845D01*
X-180512Y-83131D01*
Y-81798D01*
X-182511Y-83465D02*
Y-82132D01*
X-183178Y-81465D01*
X-183844Y-82132D01*
Y-83465D01*
Y-82465D01*
X-182511D01*
X-185843Y-83465D02*
X-184511D01*
X-185843Y-82132D01*
Y-81798D01*
X-185510Y-81465D01*
X-184844D01*
X-184511Y-81798D01*
X-178768Y-64298D02*
X-179101Y-63965D01*
X-179767D01*
X-180101Y-64298D01*
Y-65631D01*
X-179767Y-65965D01*
X-179101D01*
X-178768Y-65631D01*
Y-64298D01*
X-180767Y-65965D02*
Y-64632D01*
X-181433Y-63965D01*
X-182100Y-64632D01*
Y-65965D01*
Y-64965D01*
X-180767D01*
X-182766Y-65965D02*
X-183433D01*
X-183100D01*
Y-63965D01*
X-182766Y-64298D01*
X-144390Y-86424D02*
X-144723Y-86091D01*
X-145389D01*
X-145723Y-86424D01*
Y-87757D01*
X-145389Y-88090D01*
X-144723D01*
X-144390Y-87757D01*
Y-86424D01*
X-146389Y-86091D02*
Y-88090D01*
X-147389D01*
X-147722Y-87757D01*
Y-87424D01*
X-147389Y-87091D01*
X-146389D01*
X-147389D01*
X-147722Y-86758D01*
Y-86424D01*
X-147389Y-86091D01*
X-146389D01*
X-148389Y-88090D02*
X-149055D01*
X-148722D01*
Y-86091D01*
X-148389Y-86424D01*
X-124508Y-81011D02*
X-124841Y-80678D01*
X-125507D01*
X-125841Y-81011D01*
Y-82344D01*
X-125507Y-82677D01*
X-124841D01*
X-124508Y-82344D01*
Y-81011D01*
X-126507Y-80678D02*
Y-82677D01*
X-127507D01*
X-127840Y-82344D01*
Y-82011D01*
X-127507Y-81678D01*
X-126507D01*
X-127507D01*
X-127840Y-81344D01*
Y-81011D01*
X-127507Y-80678D01*
X-126507D01*
X-129840Y-82677D02*
X-128507D01*
X-129840Y-81344D01*
Y-81011D01*
X-129506Y-80678D01*
X-128840D01*
X-128507Y-81011D01*
X-118532Y-63905D02*
X-118865Y-63572D01*
X-119531D01*
X-119864Y-63905D01*
Y-65238D01*
X-119531Y-65571D01*
X-118865D01*
X-118532Y-65238D01*
Y-63905D01*
X-120531Y-65571D02*
Y-64238D01*
X-121197Y-63572D01*
X-121864Y-64238D01*
Y-65571D01*
Y-64571D01*
X-120531D01*
X-123863Y-65571D02*
X-122530D01*
X-123863Y-64238D01*
Y-63905D01*
X-123530Y-63572D01*
X-122863D01*
X-122530Y-63905D01*
X-106102Y-64503D02*
X-106436Y-64170D01*
X-107102D01*
X-107435Y-64503D01*
Y-65836D01*
X-107102Y-66169D01*
X-106436D01*
X-106102Y-65836D01*
Y-64503D01*
X-108102Y-66169D02*
Y-64837D01*
X-108768Y-64170D01*
X-109435Y-64837D01*
Y-66169D01*
Y-65170D01*
X-108102D01*
X-110101Y-66169D02*
X-110767D01*
X-110434D01*
Y-64170D01*
X-110101Y-64503D01*
X-42717Y-86818D02*
X-43050Y-86485D01*
X-43716D01*
X-44049Y-86818D01*
Y-88151D01*
X-43716Y-88484D01*
X-43050D01*
X-42717Y-88151D01*
Y-86818D01*
X-44716Y-86485D02*
Y-88484D01*
X-45716D01*
X-46049Y-88151D01*
Y-87818D01*
X-45716Y-87485D01*
X-44716D01*
X-45716D01*
X-46049Y-87151D01*
Y-86818D01*
X-45716Y-86485D01*
X-44716D01*
X-48048Y-88484D02*
X-46715D01*
X-48048Y-87151D01*
Y-86818D01*
X-47715Y-86485D01*
X-47049D01*
X-46715Y-86818D01*
X-63878Y-86621D02*
X-64211Y-86288D01*
X-64878D01*
X-65211Y-86621D01*
Y-87954D01*
X-64878Y-88287D01*
X-64211D01*
X-63878Y-87954D01*
Y-86621D01*
X-65877Y-86288D02*
Y-88287D01*
X-66877D01*
X-67210Y-87954D01*
Y-87621D01*
X-66877Y-87288D01*
X-65877D01*
X-66877D01*
X-67210Y-86954D01*
Y-86621D01*
X-66877Y-86288D01*
X-65877D01*
X-67877Y-88287D02*
X-68543D01*
X-68210D01*
Y-86288D01*
X-67877Y-86621D01*
X-27165Y-94594D02*
X-27499Y-94261D01*
X-28165D01*
X-28498Y-94594D01*
Y-95927D01*
X-28165Y-96260D01*
X-27499D01*
X-27165Y-95927D01*
Y-94594D01*
X-29165Y-96260D02*
Y-94927D01*
X-29831Y-94261D01*
X-30498Y-94927D01*
Y-96260D01*
Y-95260D01*
X-29165D01*
X-32497Y-96260D02*
X-31164D01*
X-32497Y-94927D01*
Y-94594D01*
X-32164Y-94261D01*
X-31497D01*
X-31164Y-94594D01*
X-3839Y-80421D02*
X-4172Y-80087D01*
X-4838D01*
X-5172Y-80421D01*
Y-81753D01*
X-4838Y-82087D01*
X-4172D01*
X-3839Y-81753D01*
Y-80421D01*
X-5838Y-80087D02*
Y-82087D01*
X-6838D01*
X-7171Y-81753D01*
Y-81420D01*
X-6838Y-81087D01*
X-5838D01*
X-6838D01*
X-7171Y-80754D01*
Y-80421D01*
X-6838Y-80087D01*
X-5838D01*
X-7837Y-82087D02*
X-8504D01*
X-8170D01*
Y-80087D01*
X-7837Y-80421D01*
X19087Y-74902D02*
X19421Y-74568D01*
Y-73902D01*
X19087Y-73569D01*
X17754D01*
X17421Y-73902D01*
Y-74568D01*
X17754Y-74902D01*
X19087D01*
X19421Y-72902D02*
X17421D01*
Y-71903D01*
X17754Y-71569D01*
X18088D01*
X18421Y-71903D01*
Y-72902D01*
Y-71903D01*
X18754Y-71569D01*
X19087D01*
X19421Y-71903D01*
Y-72902D01*
X17421Y-69570D02*
Y-70903D01*
X18754Y-69570D01*
X19087D01*
X19421Y-69903D01*
Y-70570D01*
X19087Y-70903D01*
X-6622Y-87625D02*
X-6955Y-87292D01*
X-7622D01*
X-7955Y-87625D01*
Y-88958D01*
X-7622Y-89291D01*
X-6955D01*
X-6622Y-88958D01*
Y-87625D01*
X-8621Y-89291D02*
Y-87959D01*
X-9288Y-87292D01*
X-9954Y-87959D01*
Y-89291D01*
Y-88292D01*
X-8621D01*
X-10621Y-89291D02*
X-11287D01*
X-10954D01*
Y-87292D01*
X-10621Y-87625D01*
X-149250Y163848D02*
Y165181D01*
Y164515D01*
X-151249D01*
Y165848D02*
X-149250D01*
X-149916Y166514D01*
X-149250Y167181D01*
X-151249D01*
X-149583Y169180D02*
X-149250Y168847D01*
Y168181D01*
X-149583Y167847D01*
X-149916D01*
X-150250Y168181D01*
Y168847D01*
X-150583Y169180D01*
X-150916D01*
X-151249Y168847D01*
Y168181D01*
X-150916Y167847D01*
X-151249Y169847D02*
X-149916Y171179D01*
X-149583Y173179D02*
X-149250Y172846D01*
Y172179D01*
X-149583Y171846D01*
X-149916D01*
X-150250Y172179D01*
Y172846D01*
X-150583Y173179D01*
X-150916D01*
X-151249Y172846D01*
Y172179D01*
X-150916Y171846D01*
X-149250Y173845D02*
X-151249D01*
X-150583Y174512D01*
X-151249Y175178D01*
X-149250D01*
Y175845D02*
X-151249D01*
Y176844D01*
X-150916Y177178D01*
X-149583D01*
X-149250Y176844D01*
Y175845D01*
Y177844D02*
Y178510D01*
Y178177D01*
X-151249D01*
Y177844D01*
Y178510D01*
X-149250Y180510D02*
Y179843D01*
X-149583Y179510D01*
X-150916D01*
X-151249Y179843D01*
Y180510D01*
X-150916Y180843D01*
X-149583D01*
X-149250Y180510D01*
X12500Y257251D02*
X11167D01*
X11834D01*
Y255252D01*
X10501D02*
Y257251D01*
X9501D01*
X9168Y256918D01*
Y256252D01*
X9501Y255918D01*
X10501D01*
X7168Y257251D02*
X7835Y256918D01*
X8501Y256252D01*
Y255585D01*
X8168Y255252D01*
X7502D01*
X7168Y255585D01*
Y255918D01*
X7502Y256252D01*
X8501D01*
X6502Y255585D02*
X6169Y255252D01*
X5502D01*
X5169Y255585D01*
Y256918D01*
X5502Y257251D01*
X6169D01*
X6502Y256918D01*
Y256585D01*
X6169Y256252D01*
X5169D01*
X26476Y5543D02*
X25144D01*
X25810D01*
Y3543D01*
X24477D02*
Y5543D01*
X23477D01*
X23144Y5209D01*
Y4543D01*
X23477Y4210D01*
X24477D01*
X21478Y3543D02*
Y5543D01*
X22478Y4543D01*
X21145D01*
X-7677Y-15520D02*
X-9010D01*
X-8344D01*
Y-17520D01*
X-9676D02*
Y-15520D01*
X-10676D01*
X-11009Y-15854D01*
Y-16520D01*
X-10676Y-16853D01*
X-9676D01*
X-11676Y-15854D02*
X-12009Y-15520D01*
X-12675D01*
X-13009Y-15854D01*
Y-16187D01*
X-12675Y-16520D01*
X-12342D01*
X-12675D01*
X-13009Y-16853D01*
Y-17187D01*
X-12675Y-17520D01*
X-12009D01*
X-11676Y-17187D01*
X-243643Y-112318D02*
Y-110985D01*
Y-111652D01*
X-245642D01*
Y-110319D02*
X-243643D01*
Y-109319D01*
X-243976Y-108986D01*
X-244642D01*
X-244976Y-109319D01*
Y-110319D01*
X-245642Y-108320D02*
Y-107653D01*
Y-107986D01*
X-243643D01*
X-243976Y-108320D01*
Y-106653D02*
X-243643Y-106320D01*
Y-105654D01*
X-243976Y-105321D01*
X-245309D01*
X-245642Y-105654D01*
Y-106320D01*
X-245309Y-106653D01*
X-243976D01*
Y-104654D02*
X-243643Y-104321D01*
Y-103654D01*
X-243976Y-103321D01*
X-245309D01*
X-245642Y-103654D01*
Y-104321D01*
X-245309Y-104654D01*
X-243976D01*
X-224153Y-111055D02*
Y-109722D01*
Y-110388D01*
X-226153D01*
Y-109055D02*
X-224153D01*
Y-108056D01*
X-224486Y-107722D01*
X-225153D01*
X-225486Y-108056D01*
Y-109055D01*
X-225819Y-107056D02*
X-226153Y-106723D01*
Y-106056D01*
X-225819Y-105723D01*
X-224486D01*
X-224153Y-106056D01*
Y-106723D01*
X-224486Y-107056D01*
X-224820D01*
X-225153Y-106723D01*
Y-105723D01*
X-225819Y-105057D02*
X-226153Y-104724D01*
Y-104057D01*
X-225819Y-103724D01*
X-224486D01*
X-224153Y-104057D01*
Y-104724D01*
X-224486Y-105057D01*
X-224820D01*
X-225153Y-104724D01*
Y-103724D01*
X-214417Y-111143D02*
Y-109810D01*
Y-110476D01*
X-216416D01*
Y-109143D02*
X-214417D01*
Y-108143D01*
X-214750Y-107810D01*
X-215416D01*
X-215749Y-108143D01*
Y-109143D01*
X-216083Y-107144D02*
X-216416Y-106811D01*
Y-106144D01*
X-216083Y-105811D01*
X-214750D01*
X-214417Y-106144D01*
Y-106811D01*
X-214750Y-107144D01*
X-215083D01*
X-215416Y-106811D01*
Y-105811D01*
X-214750Y-105145D02*
X-214417Y-104811D01*
Y-104145D01*
X-214750Y-103812D01*
X-215083D01*
X-215416Y-104145D01*
X-215749Y-103812D01*
X-216083D01*
X-216416Y-104145D01*
Y-104811D01*
X-216083Y-105145D01*
X-215749D01*
X-215416Y-104811D01*
X-215083Y-105145D01*
X-214750D01*
X-215416Y-104811D02*
Y-104145D01*
X-204145Y-110932D02*
Y-109599D01*
Y-110265D01*
X-206144D01*
Y-108932D02*
X-204145D01*
Y-107933D01*
X-204478Y-107600D01*
X-205145D01*
X-205478Y-107933D01*
Y-108932D01*
X-205811Y-106933D02*
X-206144Y-106600D01*
Y-105933D01*
X-205811Y-105600D01*
X-204478D01*
X-204145Y-105933D01*
Y-106600D01*
X-204478Y-106933D01*
X-204811D01*
X-205145Y-106600D01*
Y-105600D01*
X-204145Y-104934D02*
Y-103601D01*
X-204478D01*
X-205811Y-104934D01*
X-206144D01*
X-73410Y-112550D02*
Y-111217D01*
Y-111883D01*
X-75409D01*
Y-110550D02*
X-73410D01*
Y-109551D01*
X-73743Y-109218D01*
X-74410D01*
X-74743Y-109551D01*
Y-110550D01*
X-75076Y-108551D02*
X-75409Y-108218D01*
Y-107552D01*
X-75076Y-107218D01*
X-73743D01*
X-73410Y-107552D01*
Y-108218D01*
X-73743Y-108551D01*
X-74076D01*
X-74410Y-108218D01*
Y-107218D01*
X-75409Y-105219D02*
Y-106552D01*
X-74076Y-105219D01*
X-73743D01*
X-73410Y-105552D01*
Y-106219D01*
X-73743Y-106552D01*
X-54615Y-112462D02*
Y-111129D01*
Y-111795D01*
X-56615D01*
Y-110462D02*
X-54615D01*
Y-109462D01*
X-54949Y-109129D01*
X-55615D01*
X-55948Y-109462D01*
Y-110462D01*
X-56282Y-108463D02*
X-56615Y-108130D01*
Y-107463D01*
X-56282Y-107130D01*
X-54949D01*
X-54615Y-107463D01*
Y-108130D01*
X-54949Y-108463D01*
X-55282D01*
X-55615Y-108130D01*
Y-107130D01*
X-56615Y-106464D02*
Y-105797D01*
Y-106130D01*
X-54615D01*
X-54949Y-106464D01*
X-44556Y-113681D02*
Y-112348D01*
Y-113015D01*
X-46555D01*
Y-111682D02*
X-44556D01*
Y-110682D01*
X-44889Y-110349D01*
X-45555D01*
X-45889Y-110682D01*
Y-111682D01*
X-46222Y-109682D02*
X-46555Y-109349D01*
Y-108683D01*
X-46222Y-108350D01*
X-44889D01*
X-44556Y-108683D01*
Y-109349D01*
X-44889Y-109682D01*
X-45222D01*
X-45555Y-109349D01*
Y-108350D01*
X-44889Y-107683D02*
X-44556Y-107350D01*
Y-106683D01*
X-44889Y-106350D01*
X-46222D01*
X-46555Y-106683D01*
Y-107350D01*
X-46222Y-107683D01*
X-44889D01*
X-28296Y-126752D02*
Y-125419D01*
Y-126085D01*
X-30295D01*
Y-124753D02*
X-28296D01*
Y-123753D01*
X-28629Y-123420D01*
X-29296D01*
X-29629Y-123753D01*
Y-124753D01*
X-28629Y-122753D02*
X-28296Y-122420D01*
Y-121754D01*
X-28629Y-121420D01*
X-28962D01*
X-29296Y-121754D01*
X-29629Y-121420D01*
X-29962D01*
X-30295Y-121754D01*
Y-122420D01*
X-29962Y-122753D01*
X-29629D01*
X-29296Y-122420D01*
X-28962Y-122753D01*
X-28629D01*
X-29296Y-122420D02*
Y-121754D01*
X-29962Y-120754D02*
X-30295Y-120421D01*
Y-119754D01*
X-29962Y-119421D01*
X-28629D01*
X-28296Y-119754D01*
Y-120421D01*
X-28629Y-120754D01*
X-28962D01*
X-29296Y-120421D01*
Y-119421D01*
X5521Y-111542D02*
Y-110209D01*
Y-110875D01*
X3522D01*
Y-109542D02*
X5521D01*
Y-108543D01*
X5188Y-108209D01*
X4521D01*
X4188Y-108543D01*
Y-109542D01*
X5188Y-107543D02*
X5521Y-107210D01*
Y-106543D01*
X5188Y-106210D01*
X4855D01*
X4521Y-106543D01*
X4188Y-106210D01*
X3855D01*
X3522Y-106543D01*
Y-107210D01*
X3855Y-107543D01*
X4188D01*
X4521Y-107210D01*
X4855Y-107543D01*
X5188D01*
X4521Y-107210D02*
Y-106543D01*
X5521Y-105544D02*
Y-104211D01*
X5188D01*
X3855Y-105544D01*
X3522D01*
X15560Y-111512D02*
Y-110180D01*
Y-110846D01*
X13561D01*
Y-109513D02*
X15560D01*
Y-108513D01*
X15227Y-108180D01*
X14560D01*
X14227Y-108513D01*
Y-109513D01*
X15227Y-107514D02*
X15560Y-107181D01*
Y-106514D01*
X15227Y-106181D01*
X14894D01*
X14560Y-106514D01*
X14227Y-106181D01*
X13894D01*
X13561Y-106514D01*
Y-107181D01*
X13894Y-107514D01*
X14227D01*
X14560Y-107181D01*
X14894Y-107514D01*
X15227D01*
X14560Y-107181D02*
Y-106514D01*
X15560Y-104182D02*
X15227Y-104848D01*
X14560Y-105515D01*
X13894D01*
X13561Y-105181D01*
Y-104515D01*
X13894Y-104182D01*
X14227D01*
X14560Y-104515D01*
Y-105515D01*
X25719Y-110974D02*
Y-109641D01*
Y-110308D01*
X23720D01*
Y-108975D02*
X25719D01*
Y-107975D01*
X25386Y-107642D01*
X24719D01*
X24386Y-107975D01*
Y-108975D01*
X25386Y-106976D02*
X25719Y-106642D01*
Y-105976D01*
X25386Y-105643D01*
X25052D01*
X24719Y-105976D01*
X24386Y-105643D01*
X24053D01*
X23720Y-105976D01*
Y-106642D01*
X24053Y-106976D01*
X24386D01*
X24719Y-106642D01*
X25052Y-106976D01*
X25386D01*
X24719Y-106642D02*
Y-105976D01*
X25719Y-103643D02*
Y-104976D01*
X24719D01*
X25052Y-104310D01*
Y-103977D01*
X24719Y-103643D01*
X24053D01*
X23720Y-103977D01*
Y-104643D01*
X24053Y-104976D01*
X-274151Y-112833D02*
Y-111500D01*
Y-112166D01*
X-276151D01*
Y-110833D02*
X-274151D01*
Y-109834D01*
X-274484Y-109501D01*
X-275151D01*
X-275484Y-109834D01*
Y-110833D01*
X-276151Y-108834D02*
Y-108168D01*
Y-108501D01*
X-274151D01*
X-274484Y-108834D01*
X-275817Y-107168D02*
X-276151Y-106835D01*
Y-106168D01*
X-275817Y-105835D01*
X-274484D01*
X-274151Y-106168D01*
Y-106835D01*
X-274484Y-107168D01*
X-274818D01*
X-275151Y-106835D01*
Y-105835D01*
X-264386Y-113299D02*
Y-111966D01*
Y-112632D01*
X-266385D01*
Y-111299D02*
X-264386D01*
Y-110300D01*
X-264719Y-109966D01*
X-265385D01*
X-265718Y-110300D01*
Y-111299D01*
X-266385Y-109300D02*
Y-108633D01*
Y-108967D01*
X-264386D01*
X-264719Y-109300D01*
Y-107634D02*
X-264386Y-107301D01*
Y-106634D01*
X-264719Y-106301D01*
X-265052D01*
X-265385Y-106634D01*
X-265718Y-106301D01*
X-266052D01*
X-266385Y-106634D01*
Y-107301D01*
X-266052Y-107634D01*
X-265718D01*
X-265385Y-107301D01*
X-265052Y-107634D01*
X-264719D01*
X-265385Y-107301D02*
Y-106634D01*
X-53706Y21190D02*
X-55039D01*
X-54372D01*
Y19191D01*
X-55705D02*
Y21190D01*
X-56705D01*
X-57038Y20857D01*
Y20191D01*
X-56705Y19858D01*
X-55705D01*
X-57705Y19191D02*
X-58371D01*
X-58038D01*
Y21190D01*
X-57705Y20857D01*
X-60704Y19191D02*
X-59371D01*
X-60704Y20524D01*
Y20857D01*
X-60370Y21190D01*
X-59704D01*
X-59371Y20857D01*
X-54232Y33200D02*
X-55565D01*
X-54899D01*
Y31201D01*
X-56232D02*
Y33200D01*
X-57231D01*
X-57565Y32867D01*
Y32201D01*
X-57231Y31867D01*
X-56232D01*
X-58231Y31201D02*
X-58897D01*
X-58564D01*
Y33200D01*
X-58231Y32867D01*
X-59897D02*
X-60230Y33200D01*
X-60897D01*
X-61230Y32867D01*
Y31534D01*
X-60897Y31201D01*
X-60230D01*
X-59897Y31534D01*
Y32867D01*
X-104429Y34381D02*
X-105762D01*
X-105096D01*
Y32382D01*
X-106429D02*
Y34381D01*
X-107428D01*
X-107761Y34048D01*
Y33382D01*
X-107428Y33048D01*
X-106429D01*
X-108428Y32715D02*
X-108761Y32382D01*
X-109427D01*
X-109761Y32715D01*
Y34048D01*
X-109427Y34381D01*
X-108761D01*
X-108428Y34048D01*
Y33715D01*
X-108761Y33382D01*
X-109761D01*
X-284055Y-110906D02*
Y-109573D01*
Y-110239D01*
X-286054D01*
Y-108906D02*
X-284055D01*
Y-107907D01*
X-284388Y-107573D01*
X-285054D01*
X-285388Y-107907D01*
Y-108906D01*
X-286054Y-105574D02*
Y-106907D01*
X-284721Y-105574D01*
X-284388D01*
X-284055Y-105907D01*
Y-106574D01*
X-284388Y-106907D01*
X-303737Y-109272D02*
Y-107939D01*
Y-108605D01*
X-305736D01*
Y-107272D02*
X-303737D01*
Y-106273D01*
X-304070Y-105939D01*
X-304736D01*
X-305070Y-106273D01*
Y-107272D01*
X-305736Y-105273D02*
Y-104607D01*
Y-104940D01*
X-303737D01*
X-304070Y-105273D01*
X-3839Y191468D02*
X-5172D01*
X-4505D01*
Y189469D01*
X-5838D02*
Y191468D01*
X-6838D01*
X-7171Y191135D01*
Y190468D01*
X-6838Y190135D01*
X-5838D01*
X-8837Y189469D02*
Y191468D01*
X-7837Y190468D01*
X-9170D01*
X-9837Y191135D02*
X-10170Y191468D01*
X-10836D01*
X-11169Y191135D01*
Y190801D01*
X-10836Y190468D01*
X-10503D01*
X-10836D01*
X-11169Y190135D01*
Y189802D01*
X-10836Y189469D01*
X-10170D01*
X-9837Y189802D01*
X-15968Y178010D02*
X-17301D01*
X-16634D01*
Y176010D01*
X-17967D02*
Y178010D01*
X-18967D01*
X-19300Y177676D01*
Y177010D01*
X-18967Y176677D01*
X-17967D01*
X-20966Y176010D02*
Y178010D01*
X-19966Y177010D01*
X-21299D01*
X-21966Y177676D02*
X-22299Y178010D01*
X-22965D01*
X-23299Y177676D01*
Y177343D01*
X-22965Y177010D01*
X-23299Y176677D01*
Y176344D01*
X-22965Y176010D01*
X-22299D01*
X-21966Y176344D01*
Y176677D01*
X-22299Y177010D01*
X-21966Y177343D01*
Y177676D01*
X-22299Y177010D02*
X-22965D01*
X4009Y178320D02*
X2677D01*
X3343D01*
Y176321D01*
X2010D02*
Y178320D01*
X1010D01*
X677Y177987D01*
Y177320D01*
X1010Y176987D01*
X2010D01*
X-989Y176321D02*
Y178320D01*
X11Y177320D01*
X-1322D01*
X-2988Y176321D02*
Y178320D01*
X-1989Y177320D01*
X-3322D01*
X53565Y157008D02*
X52232D01*
X52898D01*
Y155009D01*
X51565D02*
Y157008D01*
X50565D01*
X50232Y156675D01*
Y156008D01*
X50565Y155675D01*
X51565D01*
X48233Y157008D02*
X49566D01*
Y156008D01*
X48899Y156342D01*
X48566D01*
X48233Y156008D01*
Y155342D01*
X48566Y155009D01*
X49233D01*
X49566Y155342D01*
X47567Y155009D02*
X46900D01*
X47233D01*
Y157008D01*
X47567Y156675D01*
X-22946Y241549D02*
X-24279D01*
X-23613D01*
Y239550D01*
X-24946D02*
Y241549D01*
X-25945D01*
X-26279Y241216D01*
Y240549D01*
X-25945Y240216D01*
X-24946D01*
X-27945Y239550D02*
Y241549D01*
X-26945Y240549D01*
X-28278D01*
X-30277Y241549D02*
X-28945D01*
Y240549D01*
X-29611Y240882D01*
X-29944D01*
X-30277Y240549D01*
Y239883D01*
X-29944Y239550D01*
X-29278D01*
X-28945Y239883D01*
X35039Y41369D02*
X33707D01*
X34373D01*
Y39370D01*
X33040D02*
Y41369D01*
X32040D01*
X31707Y41036D01*
Y40370D01*
X32040Y40036D01*
X33040D01*
X29708Y41369D02*
X30374Y41036D01*
X31041Y40370D01*
Y39703D01*
X30707Y39370D01*
X30041D01*
X29708Y39703D01*
Y40036D01*
X30041Y40370D01*
X31041D01*
X29041Y41036D02*
X28708Y41369D01*
X28042D01*
X27708Y41036D01*
Y40703D01*
X28042Y40370D01*
X27708Y40036D01*
Y39703D01*
X28042Y39370D01*
X28708D01*
X29041Y39703D01*
Y40036D01*
X28708Y40370D01*
X29041Y40703D01*
Y41036D01*
X28708Y40370D02*
X28042D01*
X-320355Y104367D02*
X-321688D01*
X-321021D01*
Y102368D01*
X-322354D02*
Y104367D01*
X-323354D01*
X-323687Y104034D01*
Y103367D01*
X-323354Y103034D01*
X-322354D01*
X-325687Y104367D02*
X-325020Y104034D01*
X-324354Y103367D01*
Y102701D01*
X-324687Y102368D01*
X-325353D01*
X-325687Y102701D01*
Y103034D01*
X-325353Y103367D01*
X-324354D01*
X-326353Y104034D02*
X-326686Y104367D01*
X-327353D01*
X-327686Y104034D01*
Y102701D01*
X-327353Y102368D01*
X-326686D01*
X-326353Y102701D01*
Y104034D01*
X-289212Y102521D02*
X-290545D01*
X-289878D01*
Y100522D01*
X-291211D02*
Y102521D01*
X-292211D01*
X-292544Y102188D01*
Y101521D01*
X-292211Y101188D01*
X-291211D01*
X-294544Y102521D02*
X-293877Y102188D01*
X-293211Y101521D01*
Y100855D01*
X-293544Y100522D01*
X-294210D01*
X-294544Y100855D01*
Y101188D01*
X-294210Y101521D01*
X-293211D01*
X-295210Y100522D02*
X-295876D01*
X-295543D01*
Y102521D01*
X-295210Y102188D01*
X-173567Y231838D02*
X-174900D01*
X-174233D01*
Y229838D01*
X-175566D02*
Y231838D01*
X-176566D01*
X-176899Y231505D01*
Y230838D01*
X-176566Y230505D01*
X-175566D01*
X-178565Y229838D02*
Y231838D01*
X-177565Y230838D01*
X-178898D01*
X-179565Y229838D02*
X-180231D01*
X-179898D01*
Y231838D01*
X-179565Y231505D01*
X50984Y-3119D02*
X49651D01*
X50318D01*
Y-5118D01*
X48985D02*
Y-3119D01*
X47985D01*
X47652Y-3452D01*
Y-4118D01*
X47985Y-4452D01*
X48985D01*
X46986Y-3119D02*
X45653D01*
Y-3452D01*
X46986Y-4785D01*
Y-5118D01*
X44986Y-4785D02*
X44653Y-5118D01*
X43986D01*
X43653Y-4785D01*
Y-3452D01*
X43986Y-3119D01*
X44653D01*
X44986Y-3452D01*
Y-3785D01*
X44653Y-4118D01*
X43653D01*
X47249Y98189D02*
X45916D01*
X46582D01*
Y96190D01*
X45250D02*
Y98189D01*
X44250D01*
X43917Y97856D01*
Y97189D01*
X44250Y96856D01*
X45250D01*
X41917Y98189D02*
X43250D01*
Y97189D01*
X42584Y97523D01*
X42250D01*
X41917Y97189D01*
Y96523D01*
X42250Y96190D01*
X42917D01*
X43250Y96523D01*
X41251Y98189D02*
X39918D01*
Y97856D01*
X41251Y96523D01*
Y96190D01*
X-156026Y226964D02*
X-157359D01*
X-156692D01*
Y224965D01*
X-158025D02*
Y226964D01*
X-159025D01*
X-159358Y226631D01*
Y225964D01*
X-159025Y225631D01*
X-158025D01*
X-161024Y224965D02*
Y226964D01*
X-160025Y225964D01*
X-161358D01*
X-163357Y226964D02*
X-162690Y226631D01*
X-162024Y225964D01*
Y225298D01*
X-162357Y224965D01*
X-163024D01*
X-163357Y225298D01*
Y225631D01*
X-163024Y225964D01*
X-162024D01*
X-304876Y216002D02*
X-306209D01*
X-305542D01*
Y214003D01*
X-306875D02*
Y216002D01*
X-307875D01*
X-308208Y215669D01*
Y215003D01*
X-307875Y214669D01*
X-306875D01*
X-309874Y214003D02*
Y216002D01*
X-308875Y215003D01*
X-310208D01*
X-312207Y214003D02*
X-310874D01*
X-312207Y215336D01*
Y215669D01*
X-311874Y216002D01*
X-311207D01*
X-310874Y215669D01*
X-92224Y179066D02*
X-93557D01*
X-92891D01*
Y177067D01*
X-94224D02*
Y179066D01*
X-95223D01*
X-95557Y178733D01*
Y178067D01*
X-95223Y177733D01*
X-94224D01*
X-97223Y177067D02*
Y179066D01*
X-96223Y178067D01*
X-97556D01*
X-98223Y179066D02*
X-99555D01*
Y178733D01*
X-98223Y177400D01*
Y177067D01*
X-73425Y183594D02*
X-74758D01*
X-74092D01*
Y181595D01*
X-75424D02*
Y183594D01*
X-76424D01*
X-76757Y183261D01*
Y182594D01*
X-76424Y182261D01*
X-75424D01*
X-77424Y183261D02*
X-77757Y183594D01*
X-78424D01*
X-78757Y183261D01*
Y182927D01*
X-78424Y182594D01*
X-78090D01*
X-78424D01*
X-78757Y182261D01*
Y181928D01*
X-78424Y181595D01*
X-77757D01*
X-77424Y181928D01*
X-80756Y183594D02*
X-80090Y183261D01*
X-79423Y182594D01*
Y181928D01*
X-79756Y181595D01*
X-80423D01*
X-80756Y181928D01*
Y182261D01*
X-80423Y182594D01*
X-79423D01*
X-97213Y-1280D02*
Y53D01*
Y-613D01*
X-99213D01*
Y720D02*
X-97213D01*
Y1719D01*
X-97546Y2053D01*
X-98213D01*
X-98546Y1719D01*
Y720D01*
X-97213Y2719D02*
Y4052D01*
X-97546D01*
X-98879Y2719D01*
X-99213D01*
X-97546Y4719D02*
X-97213Y5052D01*
Y5718D01*
X-97546Y6051D01*
X-97880D01*
X-98213Y5718D01*
X-98546Y6051D01*
X-98879D01*
X-99213Y5718D01*
Y5052D01*
X-98879Y4719D01*
X-98546D01*
X-98213Y5052D01*
X-97880Y4719D01*
X-97546D01*
X-98213Y5052D02*
Y5718D01*
X-109024Y-984D02*
Y349D01*
Y-318D01*
X-111024D01*
Y1015D02*
X-109024D01*
Y2015D01*
X-109358Y2348D01*
X-110024D01*
X-110357Y2015D01*
Y1015D01*
X-109024Y3015D02*
Y4347D01*
X-109358D01*
X-110690Y3015D01*
X-111024D01*
Y6013D02*
X-109024D01*
X-110024Y5014D01*
Y6347D01*
X-86485Y-1378D02*
Y-45D01*
Y-711D01*
X-88484D01*
Y621D02*
X-86485D01*
Y1621D01*
X-86818Y1954D01*
X-87485D01*
X-87818Y1621D01*
Y621D01*
X-86485Y2621D02*
Y3954D01*
X-86818D01*
X-88151Y2621D01*
X-88484D01*
X-86485Y5953D02*
Y4620D01*
X-87485D01*
X-87151Y5286D01*
Y5620D01*
X-87485Y5953D01*
X-88151D01*
X-88484Y5620D01*
Y4953D01*
X-88151Y4620D01*
X-72115Y-3150D02*
Y-1817D01*
Y-2483D01*
X-74114D01*
Y-1150D02*
X-72115D01*
Y-151D01*
X-72448Y183D01*
X-73115D01*
X-73448Y-151D01*
Y-1150D01*
X-72115Y849D02*
Y2182D01*
X-72448D01*
X-73781Y849D01*
X-74114D01*
X-72115Y4181D02*
X-72448Y3515D01*
X-73115Y2848D01*
X-73781D01*
X-74114Y3182D01*
Y3848D01*
X-73781Y4181D01*
X-73448D01*
X-73115Y3848D01*
Y2848D01*
X-78119Y-1280D02*
Y53D01*
Y-613D01*
X-80118D01*
Y720D02*
X-78119D01*
Y1719D01*
X-78452Y2053D01*
X-79118D01*
X-79452Y1719D01*
Y720D01*
X-78119Y2719D02*
Y4052D01*
X-78452D01*
X-79785Y2719D01*
X-80118D01*
X-78119Y4719D02*
Y6051D01*
X-78452D01*
X-79785Y4719D01*
X-80118D01*
X-279591Y220619D02*
X-280924D01*
X-280258D01*
Y218619D01*
X-281590D02*
Y220619D01*
X-282590D01*
X-282923Y220285D01*
Y219619D01*
X-282590Y219286D01*
X-281590D01*
X-284589Y218619D02*
Y220619D01*
X-283590Y219619D01*
X-284923D01*
X-285589Y220285D02*
X-285922Y220619D01*
X-286589D01*
X-286922Y220285D01*
Y218952D01*
X-286589Y218619D01*
X-285922D01*
X-285589Y218952D01*
Y220285D01*
X-244703Y216500D02*
X-246036D01*
X-245369D01*
Y214501D01*
X-246702D02*
Y216500D01*
X-247702D01*
X-248035Y216167D01*
Y215501D01*
X-247702Y215167D01*
X-246702D01*
X-248701Y216167D02*
X-249035Y216500D01*
X-249701D01*
X-250034Y216167D01*
Y215834D01*
X-249701Y215501D01*
X-249368D01*
X-249701D01*
X-250034Y215167D01*
Y214834D01*
X-249701Y214501D01*
X-249035D01*
X-248701Y214834D01*
X-250701D02*
X-251034Y214501D01*
X-251700D01*
X-252034Y214834D01*
Y216167D01*
X-251700Y216500D01*
X-251034D01*
X-250701Y216167D01*
Y215834D01*
X-251034Y215501D01*
X-252034D01*
X-205371Y216737D02*
X-206704D01*
X-206038D01*
Y214737D01*
X-207370D02*
Y216737D01*
X-208370D01*
X-208703Y216404D01*
Y215737D01*
X-208370Y215404D01*
X-207370D01*
X-209370Y216404D02*
X-209703Y216737D01*
X-210369D01*
X-210703Y216404D01*
Y216070D01*
X-210369Y215737D01*
X-210036D01*
X-210369D01*
X-210703Y215404D01*
Y215071D01*
X-210369Y214737D01*
X-209703D01*
X-209370Y215071D01*
X-211369Y216404D02*
X-211702Y216737D01*
X-212369D01*
X-212702Y216404D01*
Y216070D01*
X-212369Y215737D01*
X-212702Y215404D01*
Y215071D01*
X-212369Y214737D01*
X-211702D01*
X-211369Y215071D01*
Y215404D01*
X-211702Y215737D01*
X-211369Y216070D01*
Y216404D01*
X-211702Y215737D02*
X-212369D01*
X-137616Y209356D02*
Y210689D01*
Y210023D01*
X-139615D01*
Y211356D02*
X-137616D01*
Y212355D01*
X-137949Y212688D01*
X-138615D01*
X-138949Y212355D01*
Y211356D01*
X-137949Y213355D02*
X-137616Y213688D01*
Y214355D01*
X-137949Y214688D01*
X-138282D01*
X-138615Y214355D01*
Y214021D01*
Y214355D01*
X-138949Y214688D01*
X-139282D01*
X-139615Y214355D01*
Y213688D01*
X-139282Y213355D01*
X-137616Y215354D02*
Y216687D01*
X-137949D01*
X-139282Y215354D01*
X-139615D01*
X53944Y197179D02*
X52611D01*
X53278D01*
Y195179D01*
X51945D02*
Y197179D01*
X50945D01*
X50612Y196846D01*
Y196179D01*
X50945Y195846D01*
X51945D01*
X48612Y197179D02*
X49945D01*
Y196179D01*
X49279Y196512D01*
X48946D01*
X48612Y196179D01*
Y195513D01*
X48946Y195179D01*
X49612D01*
X49945Y195513D01*
X46613Y197179D02*
X47946D01*
Y196179D01*
X47280Y196512D01*
X46946D01*
X46613Y196179D01*
Y195513D01*
X46946Y195179D01*
X47613D01*
X47946Y195513D01*
X-136482Y-124189D02*
X-137815D01*
X-137148D01*
Y-126188D01*
X-138481D02*
Y-124189D01*
X-139481D01*
X-139814Y-124522D01*
Y-125189D01*
X-139481Y-125522D01*
X-138481D01*
X-140481Y-125855D02*
X-140814Y-126188D01*
X-141480D01*
X-141814Y-125855D01*
Y-124522D01*
X-141480Y-124189D01*
X-140814D01*
X-140481Y-124522D01*
Y-124855D01*
X-140814Y-125189D01*
X-141814D01*
X-143813Y-124189D02*
X-142480D01*
Y-125189D01*
X-143147Y-124855D01*
X-143480D01*
X-143813Y-125189D01*
Y-125855D01*
X-143480Y-126188D01*
X-142813D01*
X-142480Y-125855D01*
X-172134Y-107146D02*
Y-105813D01*
Y-106479D01*
X-174134D01*
Y-105146D02*
X-172134D01*
Y-104147D01*
X-172468Y-103813D01*
X-173134D01*
X-173467Y-104147D01*
Y-105146D01*
X-173801Y-103147D02*
X-174134Y-102814D01*
Y-102147D01*
X-173801Y-101814D01*
X-172468D01*
X-172134Y-102147D01*
Y-102814D01*
X-172468Y-103147D01*
X-172801D01*
X-173134Y-102814D01*
Y-101814D01*
X-172134Y-99815D02*
X-172468Y-100481D01*
X-173134Y-101148D01*
X-173801D01*
X-174134Y-100814D01*
Y-100148D01*
X-173801Y-99815D01*
X-173467D01*
X-173134Y-100148D01*
Y-101148D01*
X-84556Y-123346D02*
Y-122014D01*
Y-122680D01*
X-86555D01*
Y-121347D02*
X-84556D01*
Y-120347D01*
X-84889Y-120014D01*
X-85555D01*
X-85889Y-120347D01*
Y-121347D01*
X-86222Y-119348D02*
X-86555Y-119015D01*
Y-118348D01*
X-86222Y-118015D01*
X-84889D01*
X-84556Y-118348D01*
Y-119015D01*
X-84889Y-119348D01*
X-85222D01*
X-85555Y-119015D01*
Y-118015D01*
X-84889Y-117348D02*
X-84556Y-117015D01*
Y-116349D01*
X-84889Y-116016D01*
X-85222D01*
X-85555Y-116349D01*
Y-116682D01*
Y-116349D01*
X-85889Y-116016D01*
X-86222D01*
X-86555Y-116349D01*
Y-117015D01*
X-86222Y-117348D01*
X-104654Y-117480D02*
Y-116147D01*
Y-116814D01*
X-106653D01*
Y-115481D02*
X-104654D01*
Y-114481D01*
X-104987Y-114148D01*
X-105654D01*
X-105987Y-114481D01*
Y-115481D01*
X-106320Y-113482D02*
X-106653Y-113148D01*
Y-112482D01*
X-106320Y-112149D01*
X-104987D01*
X-104654Y-112482D01*
Y-113148D01*
X-104987Y-113482D01*
X-105321D01*
X-105654Y-113148D01*
Y-112149D01*
X-106653Y-110483D02*
X-104654D01*
X-105654Y-111482D01*
Y-110149D01*
X-77658Y32708D02*
X-78990D01*
X-78324D01*
Y30709D01*
X-79657D02*
Y32708D01*
X-80656D01*
X-80990Y32375D01*
Y31708D01*
X-80656Y31375D01*
X-79657D01*
X-81656Y30709D02*
X-82323D01*
X-81989D01*
Y32708D01*
X-81656Y32375D01*
X-83322D02*
X-83656Y32708D01*
X-84322D01*
X-84655Y32375D01*
Y31042D01*
X-84322Y30709D01*
X-83656D01*
X-83322Y31042D01*
Y32375D01*
X-85322Y30709D02*
X-85988D01*
X-85655D01*
Y32708D01*
X-85322Y32375D01*
X-75664Y116567D02*
Y117900D01*
Y117233D01*
X-77664D01*
Y118566D02*
X-75664D01*
Y119566D01*
X-75998Y119899D01*
X-76664D01*
X-76997Y119566D01*
Y118566D01*
X-75664Y121898D02*
Y120566D01*
X-76664D01*
X-76331Y121232D01*
Y121565D01*
X-76664Y121898D01*
X-77331D01*
X-77664Y121565D01*
Y120899D01*
X-77331Y120566D01*
X-77664Y123565D02*
X-75664D01*
X-76664Y122565D01*
Y123898D01*
X-181479Y109421D02*
Y110753D01*
Y110087D01*
X-183478D01*
Y111420D02*
X-181479D01*
Y112419D01*
X-181812Y112753D01*
X-182478D01*
X-182811Y112419D01*
Y111420D01*
X-181479Y114752D02*
Y113419D01*
X-182478D01*
X-182145Y114086D01*
Y114419D01*
X-182478Y114752D01*
X-183145D01*
X-183478Y114419D01*
Y113752D01*
X-183145Y113419D01*
X-181479Y116751D02*
X-181812Y116085D01*
X-182478Y115419D01*
X-183145D01*
X-183478Y115752D01*
Y116418D01*
X-183145Y116751D01*
X-182811D01*
X-182478Y116418D01*
Y115419D01*
X-152852Y162864D02*
Y164197D01*
Y163530D01*
X-154851D01*
Y164863D02*
X-152852D01*
Y165863D01*
X-153185Y166196D01*
X-153851D01*
X-154184Y165863D01*
Y164863D01*
X-154851Y167862D02*
X-152852D01*
X-153851Y166862D01*
Y168195D01*
X-154518Y168862D02*
X-154851Y169195D01*
Y169861D01*
X-154518Y170195D01*
X-153185D01*
X-152852Y169861D01*
Y169195D01*
X-153185Y168862D01*
X-153518D01*
X-153851Y169195D01*
Y170195D01*
X-159727Y138602D02*
Y139935D01*
Y139268D01*
X-161727D01*
Y140601D02*
X-159727D01*
Y141601D01*
X-160061Y141934D01*
X-160727D01*
X-161060Y141601D01*
Y140601D01*
X-159727Y143933D02*
Y142600D01*
X-160727D01*
X-160394Y143267D01*
Y143600D01*
X-160727Y143933D01*
X-161393D01*
X-161727Y143600D01*
Y142933D01*
X-161393Y142600D01*
X-161727Y145932D02*
Y144600D01*
X-160394Y145932D01*
X-160061D01*
X-159727Y145599D01*
Y144933D01*
X-160061Y144600D01*
X-159555Y163730D02*
Y165062D01*
Y164396D01*
X-161554D01*
Y165729D02*
X-159555D01*
Y166729D01*
X-159888Y167062D01*
X-160555D01*
X-160888Y166729D01*
Y165729D01*
X-159555Y169061D02*
Y167728D01*
X-160555D01*
X-160221Y168395D01*
Y168728D01*
X-160555Y169061D01*
X-161221D01*
X-161554Y168728D01*
Y168062D01*
X-161221Y167728D01*
X-159888Y169728D02*
X-159555Y170061D01*
Y170727D01*
X-159888Y171061D01*
X-161221D01*
X-161554Y170727D01*
Y170061D01*
X-161221Y169728D01*
X-159888D01*
X-173704Y144901D02*
Y146234D01*
Y145567D01*
X-175703D01*
Y146900D02*
X-173704D01*
Y147900D01*
X-174037Y148233D01*
X-174704D01*
X-175037Y147900D01*
Y146900D01*
X-173704Y150232D02*
Y148899D01*
X-174704D01*
X-174370Y149566D01*
Y149899D01*
X-174704Y150232D01*
X-175370D01*
X-175703Y149899D01*
Y149233D01*
X-175370Y148899D01*
X-174037Y150899D02*
X-173704Y151232D01*
Y151899D01*
X-174037Y152232D01*
X-174370D01*
X-174704Y151899D01*
Y151565D01*
Y151899D01*
X-175037Y152232D01*
X-175370D01*
X-175703Y151899D01*
Y151232D01*
X-175370Y150899D01*
X-322845Y3235D02*
X-324178D01*
X-323511D01*
Y1236D01*
X-324844D02*
Y3235D01*
X-325844D01*
X-326177Y2902D01*
Y2236D01*
X-325844Y1903D01*
X-324844D01*
X-326844Y1236D02*
X-327510D01*
X-327177D01*
Y3235D01*
X-326844Y2902D01*
X-328510D02*
X-328843Y3235D01*
X-329509D01*
X-329843Y2902D01*
Y2569D01*
X-329509Y2236D01*
X-329176D01*
X-329509D01*
X-329843Y1903D01*
Y1569D01*
X-329509Y1236D01*
X-328843D01*
X-328510Y1569D01*
X-305315Y42944D02*
X-306648D01*
X-305981D01*
Y40945D01*
X-307314D02*
Y42944D01*
X-308314D01*
X-308647Y42611D01*
Y41945D01*
X-308314Y41611D01*
X-307314D01*
X-309314Y40945D02*
X-309980D01*
X-309647D01*
Y42944D01*
X-309314Y42611D01*
X-311980Y40945D02*
Y42944D01*
X-310980Y41945D01*
X-312313D01*
X-279823Y44125D02*
X-281156D01*
X-280489D01*
Y42126D01*
X-281822D02*
Y44125D01*
X-282822D01*
X-283155Y43792D01*
Y43126D01*
X-282822Y42792D01*
X-281822D01*
X-283822Y42126D02*
X-284488D01*
X-284155D01*
Y44125D01*
X-283822Y43792D01*
X-286821Y44125D02*
X-285488D01*
Y43126D01*
X-286154Y43459D01*
X-286487D01*
X-286821Y43126D01*
Y42459D01*
X-286487Y42126D01*
X-285821D01*
X-285488Y42459D01*
X-278740Y22964D02*
X-280073D01*
X-279407D01*
Y20965D01*
X-280739D02*
Y22964D01*
X-281739D01*
X-282072Y22631D01*
Y21964D01*
X-281739Y21631D01*
X-280739D01*
X-282739Y20965D02*
X-283405D01*
X-283072D01*
Y22964D01*
X-282739Y22631D01*
X-285738Y22964D02*
X-285071Y22631D01*
X-284405Y21964D01*
Y21298D01*
X-284738Y20965D01*
X-285405D01*
X-285738Y21298D01*
Y21631D01*
X-285405Y21964D01*
X-284405D01*
X-303335Y54066D02*
X-304667D01*
X-304001D01*
Y52067D01*
X-305334D02*
Y54066D01*
X-306334D01*
X-306667Y53733D01*
Y53067D01*
X-306334Y52733D01*
X-305334D01*
X-308666Y52067D02*
X-307333D01*
X-308666Y53400D01*
Y53733D01*
X-308333Y54066D01*
X-307667D01*
X-307333Y53733D01*
X-309333D02*
X-309666Y54066D01*
X-310332D01*
X-310666Y53733D01*
Y52400D01*
X-310332Y52067D01*
X-309666D01*
X-309333Y52400D01*
Y53733D01*
X-279429Y54460D02*
X-280762D01*
X-280096D01*
Y52461D01*
X-281429D02*
Y54460D01*
X-282428D01*
X-282761Y54127D01*
Y53460D01*
X-282428Y53127D01*
X-281429D01*
X-284761Y52461D02*
X-283428D01*
X-284761Y53794D01*
Y54127D01*
X-284427Y54460D01*
X-283761D01*
X-283428Y54127D01*
X-285427Y52461D02*
X-286094D01*
X-285760D01*
Y54460D01*
X-285427Y54127D01*
X-293248Y34263D02*
X-294581D01*
X-293915D01*
Y32264D01*
X-295247D02*
Y34263D01*
X-296247D01*
X-296580Y33930D01*
Y33263D01*
X-296247Y32930D01*
X-295247D01*
X-298580Y32264D02*
X-297247D01*
X-298580Y33597D01*
Y33930D01*
X-298246Y34263D01*
X-297580D01*
X-297247Y33930D01*
X-300579Y32264D02*
X-299246D01*
X-300579Y33597D01*
Y33930D01*
X-300246Y34263D01*
X-299579D01*
X-299246Y33930D01*
X-209322Y90915D02*
X-210655D01*
X-209989D01*
Y88915D01*
X-211322D02*
Y90915D01*
X-212321D01*
X-212655Y90581D01*
Y89915D01*
X-212321Y89582D01*
X-211322D01*
X-214654Y88915D02*
X-213321D01*
X-214654Y90248D01*
Y90581D01*
X-214321Y90915D01*
X-213654D01*
X-213321Y90581D01*
X-215320D02*
X-215654Y90915D01*
X-216320D01*
X-216653Y90581D01*
Y90248D01*
X-216320Y89915D01*
X-215987D01*
X-216320D01*
X-216653Y89582D01*
Y89249D01*
X-216320Y88915D01*
X-215654D01*
X-215320Y89249D01*
X-188644Y149170D02*
Y150503D01*
Y149836D01*
X-190643D01*
Y151169D02*
X-188644D01*
Y152169D01*
X-188977Y152502D01*
X-189644D01*
X-189977Y152169D01*
Y151169D01*
X-190643Y154501D02*
Y153168D01*
X-189310Y154501D01*
X-188977D01*
X-188644Y154168D01*
Y153502D01*
X-188977Y153168D01*
X-190643Y156167D02*
X-188644D01*
X-189644Y155168D01*
Y156501D01*
X-163547Y136410D02*
X-164880D01*
X-164214D01*
Y134411D01*
X-165547D02*
Y136410D01*
X-166546D01*
X-166879Y136077D01*
Y135411D01*
X-166546Y135078D01*
X-165547D01*
X-168879Y134411D02*
X-167546D01*
X-168879Y135744D01*
Y136077D01*
X-168546Y136410D01*
X-167879D01*
X-167546Y136077D01*
X-170878Y136410D02*
X-170212Y136077D01*
X-169545Y135411D01*
Y134744D01*
X-169878Y134411D01*
X-170545D01*
X-170878Y134744D01*
Y135078D01*
X-170545Y135411D01*
X-169545D01*
X-205118Y39795D02*
X-206451D01*
X-205785D01*
Y37795D01*
X-207118D02*
Y39795D01*
X-208117D01*
X-208450Y39461D01*
Y38795D01*
X-208117Y38462D01*
X-207118D01*
X-210450Y37795D02*
X-209117D01*
X-210450Y39128D01*
Y39461D01*
X-210117Y39795D01*
X-209450D01*
X-209117Y39461D01*
X-211116Y39795D02*
X-212449D01*
Y39461D01*
X-211116Y38129D01*
Y37795D01*
X-114746Y156895D02*
X-116078D01*
X-115412D01*
Y154896D01*
X-116745D02*
Y156895D01*
X-117745D01*
X-118078Y156562D01*
Y155895D01*
X-117745Y155562D01*
X-116745D01*
X-120077Y154896D02*
X-118744D01*
X-120077Y156229D01*
Y156562D01*
X-119744Y156895D01*
X-119078D01*
X-118744Y156562D01*
X-120744D02*
X-121077Y156895D01*
X-121743D01*
X-122076Y156562D01*
Y156229D01*
X-121743Y155895D01*
X-122076Y155562D01*
Y155229D01*
X-121743Y154896D01*
X-121077D01*
X-120744Y155229D01*
Y155562D01*
X-121077Y155895D01*
X-120744Y156229D01*
Y156562D01*
X-121077Y155895D02*
X-121743D01*
X-230981Y106945D02*
X-232314D01*
X-231648D01*
Y104945D01*
X-232980D02*
Y106945D01*
X-233980D01*
X-234313Y106611D01*
Y105945D01*
X-233980Y105612D01*
X-232980D01*
X-236313Y104945D02*
X-234980D01*
X-236313Y106278D01*
Y106611D01*
X-235980Y106945D01*
X-235313D01*
X-234980Y106611D01*
X-236979Y105279D02*
X-237312Y104945D01*
X-237979D01*
X-238312Y105279D01*
Y106611D01*
X-237979Y106945D01*
X-237312D01*
X-236979Y106611D01*
Y106278D01*
X-237312Y105945D01*
X-238312D01*
X-308736Y145520D02*
X-310069D01*
X-309402D01*
Y143521D01*
X-310735D02*
Y145520D01*
X-311735D01*
X-312068Y145187D01*
Y144521D01*
X-311735Y144187D01*
X-310735D01*
X-312735Y145187D02*
X-313068Y145520D01*
X-313734D01*
X-314068Y145187D01*
Y144854D01*
X-313734Y144521D01*
X-313401D01*
X-313734D01*
X-314068Y144187D01*
Y143854D01*
X-313734Y143521D01*
X-313068D01*
X-312735Y143854D01*
X-314734Y145187D02*
X-315067Y145520D01*
X-315734D01*
X-316067Y145187D01*
Y143854D01*
X-315734Y143521D01*
X-315067D01*
X-314734Y143854D01*
Y145187D01*
X-269944Y89730D02*
X-271277D01*
X-270610D01*
Y87731D01*
X-271943D02*
Y89730D01*
X-272943D01*
X-273276Y89397D01*
Y88731D01*
X-272943Y88398D01*
X-271943D01*
X-273942Y89397D02*
X-274276Y89730D01*
X-274942D01*
X-275275Y89397D01*
Y89064D01*
X-274942Y88731D01*
X-274609D01*
X-274942D01*
X-275275Y88398D01*
Y88064D01*
X-274942Y87731D01*
X-274276D01*
X-273942Y88064D01*
X-275942Y87731D02*
X-276608D01*
X-276275D01*
Y89730D01*
X-275942Y89397D01*
X-199213Y115877D02*
X-200546D01*
X-199879D01*
Y113878D01*
X-201212D02*
Y115877D01*
X-202212D01*
X-202545Y115544D01*
Y114878D01*
X-202212Y114544D01*
X-201212D01*
X-203211Y115544D02*
X-203544Y115877D01*
X-204211D01*
X-204544Y115544D01*
Y115211D01*
X-204211Y114878D01*
X-203878D01*
X-204211D01*
X-204544Y114544D01*
Y114211D01*
X-204211Y113878D01*
X-203544D01*
X-203211Y114211D01*
X-206544Y113878D02*
X-205211D01*
X-206544Y115211D01*
Y115544D01*
X-206210Y115877D01*
X-205544D01*
X-205211Y115544D01*
X-286422Y176187D02*
X-287755D01*
X-287089D01*
Y174188D01*
X-288422D02*
Y176187D01*
X-289421D01*
X-289755Y175854D01*
Y175188D01*
X-289421Y174855D01*
X-288422D01*
X-290421Y175854D02*
X-290754Y176187D01*
X-291421D01*
X-291754Y175854D01*
Y175521D01*
X-291421Y175188D01*
X-291087D01*
X-291421D01*
X-291754Y174855D01*
Y174521D01*
X-291421Y174188D01*
X-290754D01*
X-290421Y174521D01*
X-292420Y175854D02*
X-292754Y176187D01*
X-293420D01*
X-293753Y175854D01*
Y175521D01*
X-293420Y175188D01*
X-293087D01*
X-293420D01*
X-293753Y174855D01*
Y174521D01*
X-293420Y174188D01*
X-292754D01*
X-292420Y174521D01*
X-163820Y209617D02*
X-165153D01*
X-164486D01*
Y207618D01*
X-165819D02*
Y209617D01*
X-166819D01*
X-167152Y209284D01*
Y208617D01*
X-166819Y208284D01*
X-165819D01*
X-167819Y209284D02*
X-168152Y209617D01*
X-168818D01*
X-169152Y209284D01*
Y208950D01*
X-168818Y208617D01*
X-168485D01*
X-168818D01*
X-169152Y208284D01*
Y207951D01*
X-168818Y207618D01*
X-168152D01*
X-167819Y207951D01*
X-170818Y207618D02*
Y209617D01*
X-169818Y208617D01*
X-171151D01*
X-193594Y180768D02*
X-194927D01*
X-194260D01*
Y178768D01*
X-195593D02*
Y180768D01*
X-196593D01*
X-196926Y180435D01*
Y179768D01*
X-196593Y179435D01*
X-195593D01*
X-197592Y180435D02*
X-197926Y180768D01*
X-198592D01*
X-198925Y180435D01*
Y180101D01*
X-198592Y179768D01*
X-198259D01*
X-198592D01*
X-198925Y179435D01*
Y179102D01*
X-198592Y178768D01*
X-197926D01*
X-197592Y179102D01*
X-200925Y180768D02*
X-199592D01*
Y179768D01*
X-200258Y180101D01*
X-200592D01*
X-200925Y179768D01*
Y179102D01*
X-200592Y178768D01*
X-199925D01*
X-199592Y179102D01*
X-274310Y196026D02*
X-275643D01*
X-274977D01*
Y194027D01*
X-276310D02*
Y196026D01*
X-277309D01*
X-277643Y195693D01*
Y195027D01*
X-277309Y194693D01*
X-276310D01*
X-279642Y196026D02*
X-278309D01*
Y195027D01*
X-278976Y195360D01*
X-279309D01*
X-279642Y195027D01*
Y194360D01*
X-279309Y194027D01*
X-278642D01*
X-278309Y194360D01*
X-280308Y195693D02*
X-280642Y196026D01*
X-281308D01*
X-281641Y195693D01*
Y195360D01*
X-281308Y195027D01*
X-281641Y194693D01*
Y194360D01*
X-281308Y194027D01*
X-280642D01*
X-280308Y194360D01*
Y194693D01*
X-280642Y195027D01*
X-280308Y195360D01*
Y195693D01*
X-280642Y195027D02*
X-281308D01*
X-117500Y177251D02*
X-118833D01*
X-118166D01*
Y175252D01*
X-119499D02*
Y177251D01*
X-120499D01*
X-120832Y176918D01*
Y176252D01*
X-120499Y175918D01*
X-119499D01*
X-122832Y177251D02*
X-121499D01*
Y176252D01*
X-122165Y176585D01*
X-122498D01*
X-122832Y176252D01*
Y175585D01*
X-122498Y175252D01*
X-121832D01*
X-121499Y175585D01*
X-123498D02*
X-123831Y175252D01*
X-124498D01*
X-124831Y175585D01*
Y176918D01*
X-124498Y177251D01*
X-123831D01*
X-123498Y176918D01*
Y176585D01*
X-123831Y176252D01*
X-124831D01*
X-236183Y186250D02*
X-237516D01*
X-236850D01*
Y184250D01*
X-238183D02*
Y186250D01*
X-239182D01*
X-239515Y185916D01*
Y185250D01*
X-239182Y184917D01*
X-238183D01*
X-241515Y186250D02*
X-240848Y185916D01*
X-240182Y185250D01*
Y184584D01*
X-240515Y184250D01*
X-241182D01*
X-241515Y184584D01*
Y184917D01*
X-241182Y185250D01*
X-240182D01*
X-243514Y184250D02*
X-242181D01*
X-243514Y185583D01*
Y185916D01*
X-243181Y186250D01*
X-242515D01*
X-242181Y185916D01*
X-183243Y198162D02*
X-184576D01*
X-183909D01*
Y196163D01*
X-185242D02*
Y198162D01*
X-186242D01*
X-186575Y197829D01*
Y197162D01*
X-186242Y196829D01*
X-185242D01*
X-188574Y198162D02*
X-187908Y197829D01*
X-187241Y197162D01*
Y196496D01*
X-187575Y196163D01*
X-188241D01*
X-188574Y196496D01*
Y196829D01*
X-188241Y197162D01*
X-187241D01*
X-189241Y197829D02*
X-189574Y198162D01*
X-190240D01*
X-190574Y197829D01*
Y197496D01*
X-190240Y197162D01*
X-189907D01*
X-190240D01*
X-190574Y196829D01*
Y196496D01*
X-190240Y196163D01*
X-189574D01*
X-189241Y196496D01*
X-189322Y191599D02*
X-190655D01*
X-189988D01*
Y189600D01*
X-191321D02*
Y191599D01*
X-192321D01*
X-192654Y191266D01*
Y190600D01*
X-192321Y190267D01*
X-191321D01*
X-194653Y191599D02*
X-193987Y191266D01*
X-193321Y190600D01*
Y189933D01*
X-193654Y189600D01*
X-194320D01*
X-194653Y189933D01*
Y190267D01*
X-194320Y190600D01*
X-193321D01*
X-196319Y189600D02*
Y191599D01*
X-195320Y190600D01*
X-196653D01*
X-119881Y165095D02*
X-121214D01*
X-120548D01*
Y163096D01*
X-121881D02*
Y165095D01*
X-122880D01*
X-123214Y164762D01*
Y164095D01*
X-122880Y163762D01*
X-121881D01*
X-125213Y165095D02*
X-124546Y164762D01*
X-123880Y164095D01*
Y163429D01*
X-124213Y163096D01*
X-124880D01*
X-125213Y163429D01*
Y163762D01*
X-124880Y164095D01*
X-123880D01*
X-127212Y165095D02*
X-125879D01*
Y164095D01*
X-126546Y164429D01*
X-126879D01*
X-127212Y164095D01*
Y163429D01*
X-126879Y163096D01*
X-126213D01*
X-125879Y163429D01*
X-97261Y188779D02*
Y190112D01*
Y189445D01*
X-99260D01*
Y190778D02*
X-97261D01*
Y191778D01*
X-97594Y192111D01*
X-98261D01*
X-98594Y191778D01*
Y190778D01*
X-97261Y194111D02*
X-97594Y193444D01*
X-98261Y192778D01*
X-98927D01*
X-99260Y193111D01*
Y193778D01*
X-98927Y194111D01*
X-98594D01*
X-98261Y193778D01*
Y192778D01*
X-97261Y196110D02*
X-97594Y195444D01*
X-98261Y194777D01*
X-98927D01*
X-99260Y195110D01*
Y195777D01*
X-98927Y196110D01*
X-98594D01*
X-98261Y195777D01*
Y194777D01*
X-178740Y-76347D02*
X-180073D01*
X-179407D01*
Y-78347D01*
X-180739D02*
Y-76347D01*
X-181739D01*
X-182072Y-76680D01*
Y-77347D01*
X-181739Y-77680D01*
X-180739D01*
X-182739Y-76347D02*
X-184072D01*
Y-76680D01*
X-182739Y-78013D01*
Y-78347D01*
X-184738Y-76680D02*
X-185071Y-76347D01*
X-185738D01*
X-186071Y-76680D01*
Y-78013D01*
X-185738Y-78347D01*
X-185071D01*
X-184738Y-78013D01*
Y-76680D01*
X-177264Y-61190D02*
X-178597D01*
X-177930D01*
Y-63189D01*
X-179263D02*
Y-61190D01*
X-180263D01*
X-180596Y-61523D01*
Y-62189D01*
X-180263Y-62523D01*
X-179263D01*
X-181263Y-61190D02*
X-182595D01*
Y-61523D01*
X-181263Y-62856D01*
Y-63189D01*
X-183262D02*
X-183928D01*
X-183595D01*
Y-61190D01*
X-183262Y-61523D01*
X-124213Y-77528D02*
X-125546D01*
X-124879D01*
Y-79528D01*
X-126212D02*
Y-77528D01*
X-127212D01*
X-127545Y-77861D01*
Y-78528D01*
X-127212Y-78861D01*
X-126212D01*
X-128211Y-77528D02*
X-129544D01*
Y-77861D01*
X-128211Y-79194D01*
Y-79528D01*
X-131544D02*
X-130211D01*
X-131544Y-78195D01*
Y-77861D01*
X-131210Y-77528D01*
X-130544D01*
X-130211Y-77861D01*
X-143602Y-83139D02*
X-144935D01*
X-144269D01*
Y-85138D01*
X-145602D02*
Y-83139D01*
X-146601D01*
X-146935Y-83472D01*
Y-84138D01*
X-146601Y-84471D01*
X-145602D01*
X-147601Y-83139D02*
X-148934D01*
Y-83472D01*
X-147601Y-84805D01*
Y-85138D01*
X-149600Y-83472D02*
X-149934Y-83139D01*
X-150600D01*
X-150933Y-83472D01*
Y-83805D01*
X-150600Y-84138D01*
X-150267D01*
X-150600D01*
X-150933Y-84471D01*
Y-84805D01*
X-150600Y-85138D01*
X-149934D01*
X-149600Y-84805D01*
X-325177Y-51308D02*
X-326510D01*
X-325844D01*
Y-53307D01*
X-327176D02*
Y-51308D01*
X-328176D01*
X-328509Y-51641D01*
Y-52307D01*
X-328176Y-52641D01*
X-327176D01*
X-329176Y-51641D02*
X-329509Y-51308D01*
X-330175D01*
X-330509Y-51641D01*
Y-51974D01*
X-330175Y-52307D01*
X-330509Y-52641D01*
Y-52974D01*
X-330175Y-53307D01*
X-329509D01*
X-329176Y-52974D01*
Y-52641D01*
X-329509Y-52307D01*
X-329176Y-51974D01*
Y-51641D01*
X-329509Y-52307D02*
X-330175D01*
X-332508Y-53307D02*
X-331175D01*
X-332508Y-51974D01*
Y-51641D01*
X-332175Y-51308D01*
X-331508D01*
X-331175Y-51641D01*
X-307677Y-83729D02*
X-309010D01*
X-308344D01*
Y-85728D01*
X-309677D02*
Y-83729D01*
X-310676D01*
X-311009Y-84062D01*
Y-84729D01*
X-310676Y-85062D01*
X-309677D01*
X-311676Y-85728D02*
X-312342D01*
X-312009D01*
Y-83729D01*
X-311676Y-84062D01*
X-313342D02*
X-313675Y-83729D01*
X-314342D01*
X-314675Y-84062D01*
Y-85395D01*
X-314342Y-85728D01*
X-313675D01*
X-313342Y-85395D01*
Y-84062D01*
X-316674Y-85728D02*
X-315341D01*
X-316674Y-84395D01*
Y-84062D01*
X-316341Y-83729D01*
X-315675D01*
X-315341Y-84062D01*
X-267323Y-84320D02*
X-268656D01*
X-267989D01*
Y-86319D01*
X-269322D02*
Y-84320D01*
X-270322D01*
X-270655Y-84653D01*
Y-85319D01*
X-270322Y-85652D01*
X-269322D01*
X-271322Y-86319D02*
X-271988D01*
X-271655D01*
Y-84320D01*
X-271322Y-84653D01*
X-272988D02*
X-273321Y-84320D01*
X-273987D01*
X-274321Y-84653D01*
Y-85986D01*
X-273987Y-86319D01*
X-273321D01*
X-272988Y-85986D01*
Y-84653D01*
X-274987D02*
X-275320Y-84320D01*
X-275987D01*
X-276320Y-84653D01*
Y-84986D01*
X-275987Y-85319D01*
X-275654D01*
X-275987D01*
X-276320Y-85652D01*
Y-85986D01*
X-275987Y-86319D01*
X-275320D01*
X-274987Y-85986D01*
X-286811Y-84123D02*
X-288144D01*
X-287477D01*
Y-86122D01*
X-288810D02*
Y-84123D01*
X-289810D01*
X-290143Y-84456D01*
Y-85122D01*
X-289810Y-85456D01*
X-288810D01*
X-290810Y-86122D02*
X-291476D01*
X-291143D01*
Y-84123D01*
X-290810Y-84456D01*
X-292476D02*
X-292809Y-84123D01*
X-293476D01*
X-293809Y-84456D01*
Y-85789D01*
X-293476Y-86122D01*
X-292809D01*
X-292476Y-85789D01*
Y-84456D01*
X-295475Y-86122D02*
Y-84123D01*
X-294475Y-85122D01*
X-295808D01*
X-56693Y45110D02*
X-58026D01*
X-57359D01*
Y43110D01*
X-58692D02*
Y45110D01*
X-59692D01*
X-60025Y44776D01*
Y44110D01*
X-59692Y43777D01*
X-58692D01*
X-60692Y43110D02*
X-61358D01*
X-61025D01*
Y45110D01*
X-60692Y44776D01*
X-62358D02*
X-62691Y45110D01*
X-63357D01*
X-63691Y44776D01*
Y43444D01*
X-63357Y43110D01*
X-62691D01*
X-62358Y43444D01*
Y44776D01*
X-65690Y45110D02*
X-65023Y44776D01*
X-64357Y44110D01*
Y43444D01*
X-64690Y43110D01*
X-65357D01*
X-65690Y43444D01*
Y43777D01*
X-65357Y44110D01*
X-64357D01*
X-27657Y45799D02*
X-28990D01*
X-28324D01*
Y43799D01*
X-29657D02*
Y45799D01*
X-30656D01*
X-30990Y45465D01*
Y44799D01*
X-30656Y44466D01*
X-29657D01*
X-31656Y43799D02*
X-32323D01*
X-31989D01*
Y45799D01*
X-31656Y45465D01*
X-33322D02*
X-33656Y45799D01*
X-34322D01*
X-34655Y45465D01*
Y44132D01*
X-34322Y43799D01*
X-33656D01*
X-33322Y44132D01*
Y45465D01*
X-35322Y45799D02*
X-36655D01*
Y45465D01*
X-35322Y44132D01*
Y43799D01*
X2953Y44618D02*
X1620D01*
X2286D01*
Y42618D01*
X953D02*
Y44618D01*
X-46D01*
X-380Y44284D01*
Y43618D01*
X-46Y43285D01*
X953D01*
X-1046Y42618D02*
X-1712D01*
X-1379D01*
Y44618D01*
X-1046Y44284D01*
X-2712D02*
X-3045Y44618D01*
X-3712D01*
X-4045Y44284D01*
Y42951D01*
X-3712Y42618D01*
X-3045D01*
X-2712Y42951D01*
Y44284D01*
X-4711D02*
X-5045Y44618D01*
X-5711D01*
X-6044Y44284D01*
Y43951D01*
X-5711Y43618D01*
X-6044Y43285D01*
Y42951D01*
X-5711Y42618D01*
X-5045D01*
X-4711Y42951D01*
Y43285D01*
X-5045Y43618D01*
X-4711Y43951D01*
Y44284D01*
X-5045Y43618D02*
X-5711D01*
X34941Y58299D02*
X33608D01*
X34275D01*
Y56299D01*
X32942D02*
Y58299D01*
X31942D01*
X31609Y57965D01*
Y57299D01*
X31942Y56966D01*
X32942D01*
X30942Y56299D02*
X30276D01*
X30609D01*
Y58299D01*
X30942Y57965D01*
X29276D02*
X28943Y58299D01*
X28276D01*
X27943Y57965D01*
Y56632D01*
X28276Y56299D01*
X28943D01*
X29276Y56632D01*
Y57965D01*
X27277Y56632D02*
X26943Y56299D01*
X26277D01*
X25944Y56632D01*
Y57965D01*
X26277Y58299D01*
X26943D01*
X27277Y57965D01*
Y57632D01*
X26943Y57299D01*
X25944D01*
X-264075Y-55284D02*
X-265408D01*
X-264741D01*
Y-57284D01*
X-266074D02*
Y-55284D01*
X-267074D01*
X-267407Y-55617D01*
Y-56284D01*
X-267074Y-56617D01*
X-266074D01*
X-268074Y-57284D02*
X-268740D01*
X-268407D01*
Y-55284D01*
X-268074Y-55617D01*
X-269740Y-57284D02*
X-270406D01*
X-270073D01*
Y-55284D01*
X-269740Y-55617D01*
X-272739Y-57284D02*
X-271406D01*
X-272739Y-55951D01*
Y-55617D01*
X-272405Y-55284D01*
X-271739D01*
X-271406Y-55617D01*
X-238583Y-45638D02*
X-239916D01*
X-239249D01*
Y-47638D01*
X-240582D02*
Y-45638D01*
X-241582D01*
X-241915Y-45972D01*
Y-46638D01*
X-241582Y-46971D01*
X-240582D01*
X-242581Y-47638D02*
X-243248D01*
X-242915D01*
Y-45638D01*
X-242581Y-45972D01*
X-244248Y-47638D02*
X-244914D01*
X-244581D01*
Y-45638D01*
X-244248Y-45972D01*
X-245914D02*
X-246247Y-45638D01*
X-246913D01*
X-247247Y-45972D01*
Y-46305D01*
X-246913Y-46638D01*
X-246580D01*
X-246913D01*
X-247247Y-46971D01*
Y-47305D01*
X-246913Y-47638D01*
X-246247D01*
X-245914Y-47305D01*
X-197047Y-85284D02*
X-198380D01*
X-197714D01*
Y-87283D01*
X-199047D02*
Y-85284D01*
X-200046D01*
X-200379Y-85617D01*
Y-86284D01*
X-200046Y-86617D01*
X-199047D01*
X-201046Y-87283D02*
X-201712D01*
X-201379D01*
Y-85284D01*
X-201046Y-85617D01*
X-202712Y-87283D02*
X-203379D01*
X-203045D01*
Y-85284D01*
X-202712Y-85617D01*
X-205378Y-87283D02*
Y-85284D01*
X-204378Y-86284D01*
X-205711D01*
X-216634Y-83926D02*
X-217967D01*
X-217300D01*
Y-85925D01*
X-218633D02*
Y-83926D01*
X-219633D01*
X-219966Y-84259D01*
Y-84926D01*
X-219633Y-85259D01*
X-218633D01*
X-220633Y-85925D02*
X-221299D01*
X-220966D01*
Y-83926D01*
X-220633Y-84259D01*
X-222299Y-85925D02*
X-222965D01*
X-222632D01*
Y-83926D01*
X-222299Y-84259D01*
X-225298Y-83926D02*
X-223965D01*
Y-84926D01*
X-224631Y-84592D01*
X-224964D01*
X-225298Y-84926D01*
Y-85592D01*
X-224964Y-85925D01*
X-224298D01*
X-223965Y-85592D01*
X-115866Y-61013D02*
X-117199D01*
X-116533D01*
Y-63012D01*
X-117866D02*
Y-61013D01*
X-118865D01*
X-119198Y-61346D01*
Y-62012D01*
X-118865Y-62345D01*
X-117866D01*
X-119865Y-63012D02*
X-120531D01*
X-120198D01*
Y-61013D01*
X-119865Y-61346D01*
X-121531Y-63012D02*
X-122197D01*
X-121864D01*
Y-61013D01*
X-121531Y-61346D01*
X-123197D02*
X-123530Y-61013D01*
X-124197D01*
X-124530Y-61346D01*
Y-61679D01*
X-124197Y-62012D01*
X-124530Y-62345D01*
Y-62679D01*
X-124197Y-63012D01*
X-123530D01*
X-123197Y-62679D01*
Y-62345D01*
X-123530Y-62012D01*
X-123197Y-61679D01*
Y-61346D01*
X-123530Y-62012D02*
X-124197D01*
X-104823Y-61091D02*
X-106156D01*
X-105489D01*
Y-63090D01*
X-106822D02*
Y-61091D01*
X-107822D01*
X-108155Y-61424D01*
Y-62091D01*
X-107822Y-62424D01*
X-106822D01*
X-108821Y-63090D02*
X-109488D01*
X-109155D01*
Y-61091D01*
X-108821Y-61424D01*
X-110488Y-63090D02*
X-111154D01*
X-110821D01*
Y-61091D01*
X-110488Y-61424D01*
X-112154Y-62757D02*
X-112487Y-63090D01*
X-113154D01*
X-113487Y-62757D01*
Y-61424D01*
X-113154Y-61091D01*
X-112487D01*
X-112154Y-61424D01*
Y-61758D01*
X-112487Y-62091D01*
X-113487D01*
X-40157Y-83335D02*
X-41490D01*
X-40824D01*
Y-85335D01*
X-42157D02*
Y-83335D01*
X-43156D01*
X-43490Y-83669D01*
Y-84335D01*
X-43156Y-84668D01*
X-42157D01*
X-44156Y-85335D02*
X-44823D01*
X-44489D01*
Y-83335D01*
X-44156Y-83669D01*
X-47155Y-85335D02*
X-45822D01*
X-47155Y-84002D01*
Y-83669D01*
X-46822Y-83335D01*
X-46156D01*
X-45822Y-83669D01*
X-47822D02*
X-48155Y-83335D01*
X-48821D01*
X-49155Y-83669D01*
Y-85001D01*
X-48821Y-85335D01*
X-48155D01*
X-47822Y-85001D01*
Y-83669D01*
X-62992Y-82843D02*
X-64325D01*
X-63659D01*
Y-84842D01*
X-64991D02*
Y-82843D01*
X-65991D01*
X-66324Y-83176D01*
Y-83843D01*
X-65991Y-84176D01*
X-64991D01*
X-66991Y-84842D02*
X-67657D01*
X-67324D01*
Y-82843D01*
X-66991Y-83176D01*
X-69990Y-84842D02*
X-68657D01*
X-69990Y-83510D01*
Y-83176D01*
X-69657Y-82843D01*
X-68990D01*
X-68657Y-83176D01*
X-70656Y-84842D02*
X-71323D01*
X-70990D01*
Y-82843D01*
X-70656Y-83176D01*
X-25984Y-91013D02*
X-27317D01*
X-26651D01*
Y-93012D01*
X-27984D02*
Y-91013D01*
X-28983D01*
X-29316Y-91346D01*
Y-92012D01*
X-28983Y-92345D01*
X-27984D01*
X-29983Y-93012D02*
X-30649D01*
X-30316D01*
Y-91013D01*
X-29983Y-91346D01*
X-32982Y-93012D02*
X-31649D01*
X-32982Y-91679D01*
Y-91346D01*
X-32649Y-91013D01*
X-31982D01*
X-31649Y-91346D01*
X-34648Y-93012D02*
Y-91013D01*
X-33648Y-92012D01*
X-34981D01*
X-3642Y-84162D02*
X-4975D01*
X-4308D01*
Y-86161D01*
X-5641D02*
Y-84162D01*
X-6641D01*
X-6974Y-84495D01*
Y-85162D01*
X-6641Y-85495D01*
X-5641D01*
X-7640Y-86161D02*
X-8307D01*
X-7974D01*
Y-84162D01*
X-7640Y-84495D01*
X-10639Y-86161D02*
X-9307D01*
X-10639Y-84829D01*
Y-84495D01*
X-10306Y-84162D01*
X-9640D01*
X-9307Y-84495D01*
X-12639Y-84162D02*
X-11306D01*
Y-85162D01*
X-11972Y-84829D01*
X-12306D01*
X-12639Y-85162D01*
Y-85828D01*
X-12306Y-86161D01*
X-11639D01*
X-11306Y-85828D01*
X23180Y-76358D02*
Y-75025D01*
Y-75692D01*
X21181D01*
Y-74359D02*
X23180D01*
Y-73359D01*
X22847Y-73026D01*
X22181D01*
X21848Y-73359D01*
Y-74359D01*
X21181Y-72360D02*
Y-71693D01*
Y-72026D01*
X23180D01*
X22847Y-72360D01*
X21181Y-69361D02*
Y-70693D01*
X22514Y-69361D01*
X22847D01*
X23180Y-69694D01*
Y-70360D01*
X22847Y-70693D01*
X23180Y-67361D02*
X22847Y-68028D01*
X22181Y-68694D01*
X21514D01*
X21181Y-68361D01*
Y-67694D01*
X21514Y-67361D01*
X21848D01*
X22181Y-67694D01*
Y-68694D01*
X-3445Y-76839D02*
X-4778D01*
X-4111D01*
Y-78839D01*
X-5444D02*
Y-76839D01*
X-6444D01*
X-6777Y-77172D01*
Y-77839D01*
X-6444Y-78172D01*
X-5444D01*
X-7444Y-78839D02*
X-8110D01*
X-7777D01*
Y-76839D01*
X-7444Y-77172D01*
X-10443Y-78839D02*
X-9110D01*
X-10443Y-77506D01*
Y-77172D01*
X-10109Y-76839D01*
X-9443D01*
X-9110Y-77172D01*
X-11109Y-76839D02*
X-12442D01*
Y-77172D01*
X-11109Y-78505D01*
Y-78839D01*
X-197441Y129066D02*
X-198774D01*
X-198107D01*
Y127067D01*
X-199440D02*
Y129066D01*
X-200440D01*
X-200773Y128733D01*
Y128067D01*
X-200440Y127733D01*
X-199440D01*
X-201440Y127067D02*
X-202106D01*
X-201773D01*
Y129066D01*
X-201440Y128733D01*
X-204439Y127067D02*
X-203106D01*
X-204439Y128400D01*
Y128733D01*
X-204105Y129066D01*
X-203439D01*
X-203106Y128733D01*
X-205105D02*
X-205438Y129066D01*
X-206105D01*
X-206438Y128733D01*
Y128400D01*
X-206105Y128067D01*
X-206438Y127733D01*
Y127400D01*
X-206105Y127067D01*
X-205438D01*
X-205105Y127400D01*
Y127733D01*
X-205438Y128067D01*
X-205105Y128400D01*
Y128733D01*
X-205438Y128067D02*
X-206105D01*
X-233909Y130558D02*
X-235242D01*
X-234575D01*
Y128558D01*
X-235908D02*
Y130558D01*
X-236908D01*
X-237241Y130224D01*
Y129558D01*
X-236908Y129225D01*
X-235908D01*
X-237908Y128558D02*
X-238574D01*
X-238241D01*
Y130558D01*
X-237908Y130224D01*
X-240907Y128558D02*
X-239574D01*
X-240907Y129891D01*
Y130224D01*
X-240574Y130558D01*
X-239907D01*
X-239574Y130224D01*
X-241573Y128891D02*
X-241906Y128558D01*
X-242573D01*
X-242906Y128891D01*
Y130224D01*
X-242573Y130558D01*
X-241906D01*
X-241573Y130224D01*
Y129891D01*
X-241906Y129558D01*
X-242906D01*
X-4288Y-112027D02*
Y-110694D01*
Y-111361D01*
X-6288D01*
Y-110028D02*
X-4288D01*
Y-109028D01*
X-4622Y-108695D01*
X-5288D01*
X-5621Y-109028D01*
Y-110028D01*
X-4622Y-108028D02*
X-4288Y-107695D01*
Y-107029D01*
X-4622Y-106695D01*
X-4955D01*
X-5288Y-107029D01*
X-5621Y-106695D01*
X-5954D01*
X-6288Y-107029D01*
Y-107695D01*
X-5954Y-108028D01*
X-5621D01*
X-5288Y-107695D01*
X-4955Y-108028D01*
X-4622D01*
X-5288Y-107695D02*
Y-107029D01*
X-4622Y-106029D02*
X-4288Y-105696D01*
Y-105029D01*
X-4622Y-104696D01*
X-4955D01*
X-5288Y-105029D01*
X-5621Y-104696D01*
X-5954D01*
X-6288Y-105029D01*
Y-105696D01*
X-5954Y-106029D01*
X-5621D01*
X-5288Y-105696D01*
X-4955Y-106029D01*
X-4622D01*
X-5288Y-105696D02*
Y-105029D01*
X-272433Y114051D02*
X-271766D01*
X-272100D01*
Y112385D01*
X-271766Y112052D01*
X-271433D01*
X-271100Y112385D01*
X-273099Y112052D02*
Y114051D01*
X-274099D01*
X-274432Y113718D01*
Y113052D01*
X-274099Y112718D01*
X-273099D01*
X-276432Y112052D02*
X-275099D01*
X-276432Y113385D01*
Y113718D01*
X-276098Y114051D01*
X-275432D01*
X-275099Y113718D01*
G54D31*
X-301110Y-42265D02*
X-304443Y-47264D01*
Y-42265D02*
X-301110Y-47264D01*
X-228965Y-42265D02*
Y-43099D01*
X-230631Y-44765D01*
X-232297Y-43099D01*
Y-42265D01*
X-230631Y-44765D02*
Y-47264D01*
X-156917Y-42265D02*
X-160250D01*
Y-43099D01*
X-156917Y-46431D01*
Y-47264D01*
X-160250D01*
X-86628Y-42364D02*
X-83295D01*
Y-47362D01*
X-86628D01*
X-83295Y-44863D02*
X-84961D01*
X-88294Y-47362D02*
X-89960D01*
X-89127D01*
Y-42364D01*
X-88294Y-43197D01*
X-13793Y-42265D02*
X-10461D01*
Y-47264D01*
X-13793D01*
X-10461Y-44765D02*
X-12127D01*
X-18791Y-47264D02*
X-15459D01*
X-18791Y-43932D01*
Y-43099D01*
X-17958Y-42265D01*
X-16292D01*
X-15459Y-43099D01*
M02*
