G04*
G04 #@! TF.GenerationSoftware,Altium Limited,Altium Designer,18.1.9 (240)*
G04*
G04 Layer_Color=128*
%FSLAX25Y25*%
%MOIN*%
G70*
G01*
G75*
%ADD30C,0.00200*%
G54D30*
X374313Y318248D02*
X379813D01*
X377063Y315498D02*
Y320998D01*
X374313Y338248D02*
X379813D01*
X377063Y335498D02*
Y340998D01*
X374313Y298248D02*
X379813D01*
X377063Y295498D02*
Y300998D01*
X374313Y278248D02*
X379813D01*
X377063Y275498D02*
Y280998D01*
X374313Y258248D02*
X379813D01*
X377063Y255498D02*
Y260998D01*
X374313Y238248D02*
X379813D01*
X377063Y235498D02*
Y240998D01*
X387250Y8000D02*
X388750D01*
X388000Y7250D02*
Y8750D01*
X401250Y8000D02*
X402750D01*
X402000Y7250D02*
Y8750D01*
X401250Y22000D02*
X402750D01*
X402000Y21250D02*
Y22750D01*
X387250Y22000D02*
X388750D01*
X388000Y21250D02*
Y22750D01*
X384250Y15000D02*
X385750D01*
X385000Y14250D02*
Y15750D01*
X404250Y15000D02*
X405750D01*
X405000Y14250D02*
Y15750D01*
X394250Y25000D02*
X395750D01*
X395000Y24250D02*
Y25750D01*
X394250Y5000D02*
X395750D01*
X395000Y4250D02*
Y5750D01*
X389094Y15000D02*
X400906D01*
X395000Y9094D02*
Y20906D01*
X308350Y285400D02*
X314650D01*
X311500Y282250D02*
Y288550D01*
X321750Y285400D02*
X328050D01*
X324900Y282250D02*
Y288550D01*
X321750Y338400D02*
X328050D01*
X324900Y335250D02*
Y341550D01*
X308350Y338400D02*
X314650D01*
X311500Y335250D02*
Y341550D01*
X225250Y385200D02*
X230750D01*
X228000Y382450D02*
Y387950D01*
X205250Y385200D02*
X210750D01*
X208000Y382450D02*
Y387950D01*
X185250Y385200D02*
X190750D01*
X188000Y382450D02*
Y387950D01*
X165250Y385200D02*
X170750D01*
X168000Y382450D02*
Y387950D01*
X145250Y385200D02*
X150750D01*
X148000Y382450D02*
Y387950D01*
X125250Y385200D02*
X130750D01*
X128000Y382450D02*
Y387950D01*
X105250Y385200D02*
X110750D01*
X108000Y382450D02*
Y387950D01*
X85250Y385200D02*
X90750D01*
X88000Y382450D02*
Y387950D01*
X65250Y385200D02*
X70750D01*
X68000Y382450D02*
Y387950D01*
X45250Y385200D02*
X50750D01*
X48000Y382450D02*
Y387950D01*
X6600Y322400D02*
X10600D01*
X8600Y320400D02*
Y324400D01*
X6600Y304600D02*
X10600D01*
X8600Y302600D02*
Y306600D01*
X15450Y327300D02*
X21350D01*
X18400Y324350D02*
Y330250D01*
X15450Y299700D02*
X21350D01*
X18400Y296750D02*
Y302650D01*
X41700Y225000D02*
X45500D01*
X43600Y223100D02*
Y226900D01*
X41700Y234921D02*
X45500D01*
X43600Y233021D02*
Y236821D01*
X33800Y234921D02*
X37600D01*
X35700Y233021D02*
Y236821D01*
X33800Y225000D02*
X37600D01*
X35700Y223100D02*
Y226900D01*
X20650Y253622D02*
X29350D01*
X25000Y249272D02*
Y257972D01*
X20650Y206300D02*
X29350D01*
X25000Y201950D02*
Y210650D01*
X273700Y230900D02*
X277700D01*
X275700Y228900D02*
Y232900D01*
X263700Y230900D02*
X267700D01*
X265700Y228900D02*
Y232900D01*
X253700Y230900D02*
X257700D01*
X255700Y228900D02*
Y232900D01*
X291000Y186300D02*
X295000D01*
X293000Y184300D02*
Y188300D01*
X301000Y186300D02*
X305000D01*
X303000Y184300D02*
Y188300D01*
X78328Y140600D02*
X81872D01*
X80100Y138828D02*
Y142372D01*
X78328Y150600D02*
X81872D01*
X80100Y148828D02*
Y152372D01*
X88328Y140600D02*
X91872D01*
X90100Y138828D02*
Y142372D01*
X88328Y150600D02*
X91872D01*
X90100Y148828D02*
Y152372D01*
X98328Y140600D02*
X101872D01*
X100100Y138828D02*
Y142372D01*
X98328Y150600D02*
X101872D01*
X100100Y148828D02*
Y152372D01*
X108328Y140600D02*
X111872D01*
X110100Y138828D02*
Y142372D01*
X108328Y150600D02*
X111872D01*
X110100Y148828D02*
Y152372D01*
X118328Y140600D02*
X121872D01*
X120100Y138828D02*
Y142372D01*
X118328Y150600D02*
X121872D01*
X120100Y148828D02*
Y152372D01*
X128328Y140600D02*
X131872D01*
X130100Y138828D02*
Y142372D01*
X128328Y150600D02*
X131872D01*
X130100Y148828D02*
Y152372D01*
X138328Y140600D02*
X141872D01*
X140100Y138828D02*
Y142372D01*
X138328Y150600D02*
X141872D01*
X140100Y148828D02*
Y152372D01*
X148328Y140600D02*
X151872D01*
X150100Y138828D02*
Y142372D01*
X148328Y150600D02*
X151872D01*
X150100Y148828D02*
Y152372D01*
X158328Y140600D02*
X161872D01*
X160100Y138828D02*
Y142372D01*
X158328Y150600D02*
X161872D01*
X160100Y148828D02*
Y152372D01*
X168328Y140600D02*
X171872D01*
X170100Y138828D02*
Y142372D01*
X168328Y150600D02*
X171872D01*
X170100Y148828D02*
Y152372D01*
X178328Y140600D02*
X181872D01*
X180100Y138828D02*
Y142372D01*
X178328Y150600D02*
X181872D01*
X180100Y148828D02*
Y152372D01*
X188328Y140600D02*
X191872D01*
X190100Y138828D02*
Y142372D01*
X188328Y150600D02*
X191872D01*
X190100Y148828D02*
Y152372D01*
X6548Y119566D02*
X19540D01*
X13044Y113069D02*
Y126062D01*
X209004Y144300D02*
X221996D01*
X215500Y137804D02*
Y150796D01*
X202028Y330300D02*
X205572D01*
X203800Y328528D02*
Y332072D01*
X202028Y320300D02*
X205572D01*
X203800Y318528D02*
Y322072D01*
X192028Y330300D02*
X195572D01*
X193800Y328528D02*
Y332072D01*
X192028Y320300D02*
X195572D01*
X193800Y318528D02*
Y322072D01*
X182028Y330300D02*
X185572D01*
X183800Y328528D02*
Y332072D01*
X182028Y320300D02*
X185572D01*
X183800Y318528D02*
Y322072D01*
X172028Y330300D02*
X175572D01*
X173800Y328528D02*
Y332072D01*
X172028Y320300D02*
X175572D01*
X173800Y318528D02*
Y322072D01*
X332500Y14500D02*
X336500D01*
X334500Y12500D02*
Y16500D01*
X342500Y14500D02*
X346500D01*
X344500Y12500D02*
Y16500D01*
X352500Y14500D02*
X356500D01*
X354500Y12500D02*
Y16500D01*
X362500Y14500D02*
X366500D01*
X364500Y12500D02*
Y16500D01*
X312705Y145886D02*
X316248D01*
X314476Y144114D02*
Y147658D01*
X312705Y155886D02*
X316248D01*
X314476Y154114D02*
Y157658D01*
X322705Y145886D02*
X326248D01*
X324476Y144114D02*
Y147658D01*
X322705Y155886D02*
X326248D01*
X324476Y154114D02*
Y157658D01*
X332705Y145886D02*
X336248D01*
X334476Y144114D02*
Y147658D01*
X332705Y155886D02*
X336248D01*
X334476Y154114D02*
Y157658D01*
X342705Y145886D02*
X346248D01*
X344476Y144114D02*
Y147658D01*
X342705Y155886D02*
X346248D01*
X344476Y154114D02*
Y157658D01*
X352705Y145886D02*
X356248D01*
X354476Y144114D02*
Y147658D01*
X352705Y155886D02*
X356248D01*
X354476Y154114D02*
Y157658D01*
X20400Y354500D02*
X24400D01*
X22400Y352500D02*
Y356500D01*
X10400Y354500D02*
X14400D01*
X12400Y352500D02*
Y356500D01*
X335800Y230900D02*
X339800D01*
X337800Y228900D02*
Y232900D01*
X345800Y230900D02*
X349800D01*
X347800Y228900D02*
Y232900D01*
X355800Y230900D02*
X359800D01*
X357800Y228900D02*
Y232900D01*
X294750Y230900D02*
X298750D01*
X296750Y228900D02*
Y232900D01*
X304750Y230900D02*
X308750D01*
X306750Y228900D02*
Y232900D01*
X314750Y230900D02*
X318750D01*
X316750Y228900D02*
Y232900D01*
X355800Y254900D02*
X359800D01*
X357800Y252900D02*
Y256900D01*
X345800Y254900D02*
X349800D01*
X347800Y252900D02*
Y256900D01*
X335800Y254900D02*
X339800D01*
X337800Y252900D02*
Y256900D01*
X314750Y254900D02*
X318750D01*
X316750Y252900D02*
Y256900D01*
X304750Y254900D02*
X308750D01*
X306750Y252900D02*
Y256900D01*
X294750Y254900D02*
X298750D01*
X296750Y252900D02*
Y256900D01*
X273700Y254900D02*
X277700D01*
X275700Y252900D02*
Y256900D01*
X263700Y254900D02*
X267700D01*
X265700Y252900D02*
Y256900D01*
X253700Y254900D02*
X257700D01*
X255700Y252900D02*
Y256900D01*
X363800Y186300D02*
X367800D01*
X365800Y184300D02*
Y188300D01*
X353800Y186300D02*
X357800D01*
X355800Y184300D02*
Y188300D01*
X332500Y186300D02*
X336500D01*
X334500Y184300D02*
Y188300D01*
X322500Y186300D02*
X326500D01*
X324500Y184300D02*
Y188300D01*
X269300Y186300D02*
X273300D01*
X271300Y184300D02*
Y188300D01*
X259300Y186300D02*
X263300D01*
X261300Y184300D02*
Y188300D01*
X389800Y75500D02*
X393800D01*
X391800Y73500D02*
Y77500D01*
X389800Y65500D02*
X393800D01*
X391800Y63500D02*
Y67500D01*
X389800Y55500D02*
X393800D01*
X391800Y53500D02*
Y57500D01*
X389800Y45500D02*
X393800D01*
X391800Y43500D02*
Y47500D01*
X303000Y14500D02*
X307000D01*
X305000Y12500D02*
Y16500D01*
X293000Y14500D02*
X297000D01*
X295000Y12500D02*
Y16500D01*
X283000Y14500D02*
X287000D01*
X285000Y12500D02*
Y16500D01*
X273000Y14500D02*
X277000D01*
X275000Y12500D02*
Y16500D01*
X244000Y14500D02*
X248000D01*
X246000Y12500D02*
Y16500D01*
X234000Y14500D02*
X238000D01*
X236000Y12500D02*
Y16500D01*
X224000Y14500D02*
X228000D01*
X226000Y12500D02*
Y16500D01*
X214000Y14500D02*
X218000D01*
X216000Y12500D02*
Y16500D01*
X193000Y14500D02*
X197000D01*
X195000Y12500D02*
Y16500D01*
X183000Y14500D02*
X187000D01*
X185000Y12500D02*
Y16500D01*
X173000Y14500D02*
X177000D01*
X175000Y12500D02*
Y16500D01*
X163000Y14500D02*
X167000D01*
X165000Y12500D02*
Y16500D01*
X133500Y14500D02*
X137500D01*
X135500Y12500D02*
Y16500D01*
X123500Y14500D02*
X127500D01*
X125500Y12500D02*
Y16500D01*
X113500Y14500D02*
X117500D01*
X115500Y12500D02*
Y16500D01*
X103500Y14500D02*
X107500D01*
X105500Y12500D02*
Y16500D01*
X73500Y14500D02*
X77500D01*
X75500Y12500D02*
Y16500D01*
X63500Y14500D02*
X67500D01*
X65500Y12500D02*
Y16500D01*
X53500Y14500D02*
X57500D01*
X55500Y12500D02*
Y16500D01*
X43500Y14500D02*
X47500D01*
X45500Y12500D02*
Y16500D01*
X108528Y180300D02*
X112072D01*
X110300Y178528D02*
Y182072D01*
X108528Y170300D02*
X112072D01*
X110300Y168528D02*
Y172072D01*
X98528Y180300D02*
X102072D01*
X100300Y178528D02*
Y182072D01*
X98528Y170300D02*
X102072D01*
X100300Y168528D02*
Y172072D01*
X88528Y180300D02*
X92072D01*
X90300Y178528D02*
Y182072D01*
X88528Y170300D02*
X92072D01*
X90300Y168528D02*
Y172072D01*
X78528Y180300D02*
X82072D01*
X80300Y178528D02*
Y182072D01*
X78528Y170300D02*
X82072D01*
X80300Y168528D02*
Y172072D01*
X68528Y180300D02*
X72072D01*
X70300Y178528D02*
Y182072D01*
X68528Y170300D02*
X72072D01*
X70300Y168528D02*
Y172072D01*
X30404Y310500D02*
X43396D01*
X36900Y304004D02*
Y316996D01*
X341950Y338400D02*
X348250D01*
X345100Y335250D02*
Y341550D01*
X355350Y338400D02*
X361650D01*
X358500Y335250D02*
Y341550D01*
X355350Y285400D02*
X361650D01*
X358500Y282250D02*
Y288550D01*
X341950Y285400D02*
X348250D01*
X345100Y282250D02*
Y288550D01*
X108528Y217794D02*
X112072D01*
X110300Y216022D02*
Y219565D01*
X108528Y207794D02*
X112072D01*
X110300Y206022D02*
Y209565D01*
X98528Y217794D02*
X102072D01*
X100300Y216022D02*
Y219565D01*
X98528Y207794D02*
X102072D01*
X100300Y206022D02*
Y209565D01*
X88528Y217794D02*
X92072D01*
X90300Y216022D02*
Y219565D01*
X88528Y207794D02*
X92072D01*
X90300Y206022D02*
Y209565D01*
X78528Y217794D02*
X82072D01*
X80300Y216022D02*
Y219565D01*
X78528Y207794D02*
X82072D01*
X80300Y206022D02*
Y209565D01*
X68528Y217794D02*
X72072D01*
X70300Y216022D02*
Y219565D01*
X68528Y207794D02*
X72072D01*
X70300Y206022D02*
Y209565D01*
X395282Y202878D02*
X401582D01*
X398432Y199728D02*
Y206028D01*
X381882Y202878D02*
X388182D01*
X385032Y199728D02*
Y206028D01*
X381882Y149878D02*
X388182D01*
X385032Y146728D02*
Y153028D01*
X395282Y149878D02*
X401582D01*
X398432Y146728D02*
Y153028D01*
X9094Y15000D02*
X20906D01*
X15000Y9094D02*
Y20906D01*
X14250Y5000D02*
X15750D01*
X15000Y4250D02*
Y5750D01*
X14250Y25000D02*
X15750D01*
X15000Y24250D02*
Y25750D01*
X24250Y15000D02*
X25750D01*
X25000Y14250D02*
Y15750D01*
X4250Y15000D02*
X5750D01*
X5000Y14250D02*
Y15750D01*
X7250Y22000D02*
X8750D01*
X8000Y21250D02*
Y22750D01*
X21250Y22000D02*
X22750D01*
X22000Y21250D02*
Y22750D01*
X21250Y8000D02*
X22750D01*
X22000Y7250D02*
Y8750D01*
X7250Y8000D02*
X8750D01*
X8000Y7250D02*
Y8750D01*
X9094Y390000D02*
X20906D01*
X15000Y384095D02*
Y395905D01*
X14250Y380000D02*
X15750D01*
X15000Y379250D02*
Y380750D01*
X14250Y400000D02*
X15750D01*
X15000Y399250D02*
Y400750D01*
X24250Y390000D02*
X25750D01*
X25000Y389250D02*
Y390750D01*
X4250Y390000D02*
X5750D01*
X5000Y389250D02*
Y390750D01*
X7250Y397000D02*
X8750D01*
X8000Y396250D02*
Y397750D01*
X21250Y397000D02*
X22750D01*
X22000Y396250D02*
Y397750D01*
X21250Y383000D02*
X22750D01*
X22000Y382250D02*
Y383750D01*
X7250Y383000D02*
X8750D01*
X8000Y382250D02*
Y383750D01*
X389094Y390000D02*
X400906D01*
X395000Y384095D02*
Y395905D01*
X394250Y380000D02*
X395750D01*
X395000Y379250D02*
Y380750D01*
X394250Y400000D02*
X395750D01*
X395000Y399250D02*
Y400750D01*
X404250Y390000D02*
X405750D01*
X405000Y389250D02*
Y390750D01*
X384250Y390000D02*
X385750D01*
X385000Y389250D02*
Y390750D01*
X387250Y397000D02*
X388750D01*
X388000Y396250D02*
Y397750D01*
X401250Y397000D02*
X402750D01*
X402000Y396250D02*
Y397750D01*
X401250Y383000D02*
X402750D01*
X402000Y382250D02*
Y383750D01*
X387250Y383000D02*
X388750D01*
X388000Y382250D02*
Y383750D01*
X175813Y351614D02*
X177313D01*
X176563Y350864D02*
Y352364D01*
X65675Y133012D02*
X67175D01*
X66425Y132262D02*
Y133762D01*
X65675Y157520D02*
X67175D01*
X66425Y156770D02*
Y158270D01*
X85951Y127795D02*
X87451D01*
X86701Y127045D02*
Y128545D01*
X96876Y127697D02*
X98376D01*
X97626Y126947D02*
Y128447D01*
X101994Y127894D02*
X103494D01*
X102744Y127144D02*
Y128644D01*
X107604Y127894D02*
X109104D01*
X108354Y127144D02*
Y128644D01*
X112603Y145659D02*
X114103D01*
X113353Y144909D02*
Y146409D01*
X121089Y127795D02*
X122589D01*
X121839Y127045D02*
Y128545D01*
X136600Y346201D02*
X137600D01*
X137100Y345701D02*
Y346701D01*
X136600Y350201D02*
X137600D01*
X137100Y349701D02*
Y350701D01*
X136600Y342201D02*
X137600D01*
X137100Y341701D02*
Y342701D01*
X136600Y338201D02*
X137600D01*
X137100Y337701D02*
Y338701D01*
X132600Y338201D02*
X133600D01*
X133100Y337701D02*
Y338701D01*
X128600Y338201D02*
X129600D01*
X129100Y337701D02*
Y338701D01*
X128600Y342201D02*
X129600D01*
X129100Y341701D02*
Y342701D01*
X132600Y342201D02*
X133600D01*
X133100Y341701D02*
Y342701D01*
X132600Y346201D02*
X133600D01*
X133100Y345701D02*
Y346701D01*
X128600Y346201D02*
X129600D01*
X129100Y345701D02*
Y346701D01*
X128600Y350201D02*
X129600D01*
X129100Y349701D02*
Y350701D01*
X132600Y350201D02*
X133600D01*
X133100Y349701D02*
Y350701D01*
X140600Y350201D02*
X141600D01*
X141100Y349701D02*
Y350701D01*
X144600Y350201D02*
X145600D01*
X145100Y349701D02*
Y350701D01*
X144600Y346201D02*
X145600D01*
X145100Y345701D02*
Y346701D01*
X140600Y346201D02*
X141600D01*
X141100Y345701D02*
Y346701D01*
X140600Y342201D02*
X141600D01*
X141100Y341701D02*
Y342701D01*
X144600Y342201D02*
X145600D01*
X145100Y341701D02*
Y342701D01*
X144600Y338201D02*
X145600D01*
X145100Y337701D02*
Y338701D01*
X140600Y338201D02*
X141600D01*
X141100Y337701D02*
Y338701D01*
X96500Y346201D02*
X97500D01*
X97000Y345701D02*
Y346701D01*
X96500Y350201D02*
X97500D01*
X97000Y349701D02*
Y350701D01*
X96500Y342201D02*
X97500D01*
X97000Y341701D02*
Y342701D01*
X96500Y338201D02*
X97500D01*
X97000Y337701D02*
Y338701D01*
X92500Y338201D02*
X93500D01*
X93000Y337701D02*
Y338701D01*
X88500Y338201D02*
X89500D01*
X89000Y337701D02*
Y338701D01*
X88500Y342201D02*
X89500D01*
X89000Y341701D02*
Y342701D01*
X92500Y342201D02*
X93500D01*
X93000Y341701D02*
Y342701D01*
X92500Y346201D02*
X93500D01*
X93000Y345701D02*
Y346701D01*
X88500Y346201D02*
X89500D01*
X89000Y345701D02*
Y346701D01*
X88500Y350201D02*
X89500D01*
X89000Y349701D02*
Y350701D01*
X92500Y350201D02*
X93500D01*
X93000Y349701D02*
Y350701D01*
X100500Y350201D02*
X101500D01*
X101000Y349701D02*
Y350701D01*
X104500Y350201D02*
X105500D01*
X105000Y349701D02*
Y350701D01*
X104500Y346201D02*
X105500D01*
X105000Y345701D02*
Y346701D01*
X100500Y346201D02*
X101500D01*
X101000Y345701D02*
Y346701D01*
X100500Y342201D02*
X101500D01*
X101000Y341701D02*
Y342701D01*
X104500Y342201D02*
X105500D01*
X105000Y341701D02*
Y342701D01*
X104500Y338201D02*
X105500D01*
X105000Y337701D02*
Y338701D01*
X100500Y338201D02*
X101500D01*
X101000Y337701D02*
Y338701D01*
X222150Y338201D02*
X223150D01*
X222650Y337701D02*
Y338701D01*
X222150Y342201D02*
X223150D01*
X222650Y341701D02*
Y342701D01*
X222150Y334201D02*
X223150D01*
X222650Y333701D02*
Y334701D01*
X222150Y330201D02*
X223150D01*
X222650Y329701D02*
Y330701D01*
X218150Y330201D02*
X219150D01*
X218650Y329701D02*
Y330701D01*
X214150Y330201D02*
X215150D01*
X214650Y329701D02*
Y330701D01*
X214150Y334201D02*
X215150D01*
X214650Y333701D02*
Y334701D01*
X218150Y334201D02*
X219150D01*
X218650Y333701D02*
Y334701D01*
X218150Y338201D02*
X219150D01*
X218650Y337701D02*
Y338701D01*
X214150Y338201D02*
X215150D01*
X214650Y337701D02*
Y338701D01*
X214150Y342201D02*
X215150D01*
X214650Y341701D02*
Y342701D01*
X218150Y342201D02*
X219150D01*
X218650Y341701D02*
Y342701D01*
X226150Y342201D02*
X227150D01*
X226650Y341701D02*
Y342701D01*
X230150Y342201D02*
X231150D01*
X230650Y341701D02*
Y342701D01*
X230150Y338201D02*
X231150D01*
X230650Y337701D02*
Y338701D01*
X226150Y338201D02*
X227150D01*
X226650Y337701D02*
Y338701D01*
X226150Y334201D02*
X227150D01*
X226650Y333701D02*
Y334701D01*
X230150Y334201D02*
X231150D01*
X230650Y333701D02*
Y334701D01*
X230150Y330201D02*
X231150D01*
X230650Y329701D02*
Y330701D01*
X226150Y330201D02*
X227150D01*
X226650Y329701D02*
Y330701D01*
X56650Y346201D02*
X57650D01*
X57150Y345701D02*
Y346701D01*
X56650Y350201D02*
X57650D01*
X57150Y349701D02*
Y350701D01*
X56650Y342201D02*
X57650D01*
X57150Y341701D02*
Y342701D01*
X56650Y338201D02*
X57650D01*
X57150Y337701D02*
Y338701D01*
X52650Y338201D02*
X53650D01*
X53150Y337701D02*
Y338701D01*
X48650Y338201D02*
X49650D01*
X49150Y337701D02*
Y338701D01*
X48650Y342201D02*
X49650D01*
X49150Y341701D02*
Y342701D01*
X52650Y342201D02*
X53650D01*
X53150Y341701D02*
Y342701D01*
X52650Y346201D02*
X53650D01*
X53150Y345701D02*
Y346701D01*
X48650Y346201D02*
X49650D01*
X49150Y345701D02*
Y346701D01*
X48650Y350201D02*
X49650D01*
X49150Y349701D02*
Y350701D01*
X52650Y350201D02*
X53650D01*
X53150Y349701D02*
Y350701D01*
X60650Y350201D02*
X61650D01*
X61150Y349701D02*
Y350701D01*
X64650Y350201D02*
X65650D01*
X65150Y349701D02*
Y350701D01*
X64650Y346201D02*
X65650D01*
X65150Y345701D02*
Y346701D01*
X60650Y346201D02*
X61650D01*
X61150Y345701D02*
Y346701D01*
X60650Y342201D02*
X61650D01*
X61150Y341701D02*
Y342701D01*
X64650Y342201D02*
X65650D01*
X65150Y341701D02*
Y342701D01*
X64650Y338201D02*
X65650D01*
X65150Y337701D02*
Y338701D01*
X60650Y338201D02*
X61650D01*
X61150Y337701D02*
Y338701D01*
X241450Y329634D02*
X242950D01*
X242200Y328884D02*
Y330384D01*
X264950Y336848D02*
X266450D01*
X265700Y336098D02*
Y337598D01*
X264450Y348148D02*
X265950D01*
X265200Y347398D02*
Y348898D01*
X244750Y349948D02*
X246250D01*
X245500Y349198D02*
Y350698D01*
X211250Y360048D02*
X212750D01*
X212000Y359298D02*
Y360798D01*
X262450Y287748D02*
X263950D01*
X263200Y286998D02*
Y288498D01*
X273350Y282200D02*
X274850D01*
X274100Y281450D02*
Y282950D01*
X229250Y356048D02*
X230750D01*
X230000Y355298D02*
Y356798D01*
X259250Y329748D02*
X260750D01*
X260000Y328998D02*
Y330498D01*
X259250Y325448D02*
X260750D01*
X260000Y324698D02*
Y326198D01*
X244150Y317948D02*
X245650D01*
X244900Y317198D02*
Y318698D01*
X245450Y323248D02*
X246950D01*
X246200Y322498D02*
Y323998D01*
X248850Y328048D02*
X250350D01*
X249600Y327298D02*
Y328798D01*
X248850Y323448D02*
X250350D01*
X249600Y322698D02*
Y324198D01*
X276950Y321248D02*
X278450D01*
X277700Y320498D02*
Y321998D01*
X241950Y301745D02*
X243450D01*
X242700Y300995D02*
Y302495D01*
X239750Y310048D02*
X241250D01*
X240500Y309298D02*
Y310798D01*
X235450Y337348D02*
X236950D01*
X236200Y336598D02*
Y338098D01*
X255054Y316919D02*
X256554D01*
X255804Y316169D02*
Y317669D01*
X254432Y310448D02*
X255432D01*
X254931Y309948D02*
Y310948D01*
X259350Y321148D02*
X260850D01*
X260100Y320398D02*
Y321898D01*
X251150Y302448D02*
X252650D01*
X251900Y301698D02*
Y303198D01*
X262140Y302429D02*
X263640D01*
X262890Y301679D02*
Y303179D01*
X248850Y297848D02*
X250350D01*
X249600Y297098D02*
Y298598D01*
X259250Y343648D02*
X260750D01*
X260000Y342898D02*
Y344398D01*
X259250Y338548D02*
X260750D01*
X260000Y337798D02*
Y339298D01*
X386850Y116148D02*
X388350D01*
X387600Y115398D02*
Y116898D01*
X268050Y305248D02*
X269550D01*
X268800Y304498D02*
Y305998D01*
X292250Y292648D02*
X293750D01*
X293000Y291898D02*
Y293398D01*
X283250Y293048D02*
X284750D01*
X284000Y292298D02*
Y293798D01*
X266760Y274862D02*
X268260D01*
X267510Y274112D02*
Y275611D01*
X249789Y278051D02*
X251289D01*
X250539Y277301D02*
Y278801D01*
X246409Y289707D02*
X247909D01*
X247159Y288958D02*
Y290458D01*
X241225Y289765D02*
X242725D01*
X241975Y289015D02*
Y290515D01*
X240293Y280217D02*
X241793D01*
X241043Y279467D02*
Y280966D01*
X244624Y275886D02*
X246124D01*
X245374Y275136D02*
Y276636D01*
X244624Y280217D02*
X246124D01*
X245374Y279467D02*
Y280966D01*
X249396Y270473D02*
X250896D01*
X250146Y269723D02*
Y271222D01*
X236993Y270079D02*
X238493D01*
X237743Y269329D02*
Y270829D01*
X367950Y148548D02*
X369450D01*
X368700Y147798D02*
Y149298D01*
X400350Y318948D02*
X401850D01*
X401100Y318198D02*
Y319698D01*
X364450Y112848D02*
X365950D01*
X365200Y112098D02*
Y113598D01*
X371950Y110548D02*
X373450D01*
X372700Y109798D02*
Y111298D01*
X369350Y112875D02*
X370850D01*
X370100Y112125D02*
Y113625D01*
X362650Y130948D02*
X364150D01*
X363400Y130198D02*
Y131698D01*
X390850Y120348D02*
X392350D01*
X391600Y119598D02*
Y121098D01*
X390850Y116348D02*
X392350D01*
X391600Y115598D02*
Y117098D01*
X390850Y112348D02*
X392350D01*
X391600Y111598D02*
Y113098D01*
X390850Y108348D02*
X392350D01*
X391600Y107598D02*
Y109098D01*
X346950Y121648D02*
X348450D01*
X347700Y120898D02*
Y122398D01*
X348850Y124548D02*
X350350D01*
X349600Y123798D02*
Y125298D01*
X351150Y122048D02*
X352650D01*
X351900Y121298D02*
Y122798D01*
X378735Y85833D02*
X380235D01*
X379485Y85083D02*
Y86583D01*
X382031Y121260D02*
X383531D01*
X382781Y120510D02*
Y122010D01*
X368350Y131148D02*
X369850D01*
X369100Y130398D02*
Y131898D01*
X342650Y135348D02*
X344150D01*
X343400Y134598D02*
Y136098D01*
X339450Y135248D02*
X340950D01*
X340200Y134498D02*
Y135998D01*
X348050Y130548D02*
X349550D01*
X348800Y129798D02*
Y131298D01*
X344650Y130548D02*
X346150D01*
X345400Y129798D02*
Y131298D01*
X353750Y124448D02*
X355250D01*
X354500Y123698D02*
Y125198D01*
X367850Y143348D02*
X369350D01*
X368600Y142598D02*
Y144098D01*
X366950Y110748D02*
X368450D01*
X367700Y109998D02*
Y111498D01*
X361545Y110848D02*
X363045D01*
X362295Y110098D02*
Y111598D01*
X368150Y121448D02*
X369650D01*
X368900Y120698D02*
Y122198D01*
X365650Y124048D02*
X367150D01*
X366400Y123298D02*
Y124798D01*
X362750Y122248D02*
X364250D01*
X363500Y121498D02*
Y122998D01*
X393050Y93648D02*
X394550D01*
X393800Y92898D02*
Y94398D01*
X341403Y204255D02*
X342903D01*
X342153Y203505D02*
Y205005D01*
X341600Y199921D02*
X343100D01*
X342350Y199171D02*
Y200671D01*
X284650Y280348D02*
X286150D01*
X285400Y279598D02*
Y281098D01*
X261050Y296148D02*
X262550D01*
X261800Y295398D02*
Y296898D01*
X386731Y129452D02*
X388231D01*
X387481Y128702D02*
Y130202D01*
X386731Y126152D02*
X388231D01*
X387481Y125402D02*
Y126902D01*
X389550Y135948D02*
X391050D01*
X390300Y135198D02*
Y136698D01*
X382150Y124448D02*
X383650D01*
X382900Y123698D02*
Y125198D01*
X399840Y103400D02*
X401340D01*
X400591Y102650D02*
Y104150D01*
X395850Y139148D02*
X397350D01*
X396600Y138398D02*
Y139898D01*
X396350Y135448D02*
X397850D01*
X397100Y134698D02*
Y136198D01*
X48450Y260281D02*
X49950D01*
X49200Y259531D02*
Y261031D01*
X12294Y110511D02*
X13794D01*
X13044Y109760D02*
Y111260D01*
X12294Y128621D02*
X13794D01*
X13044Y127871D02*
Y129371D01*
X21349Y119566D02*
X22849D01*
X22099Y118816D02*
Y120316D01*
X3239Y119566D02*
X4739D01*
X3989Y118816D02*
Y120316D01*
X205695Y144300D02*
X207195D01*
X206445Y143550D02*
Y145050D01*
X223805Y144300D02*
X225305D01*
X224555Y143550D02*
Y145050D01*
X214750Y153355D02*
X216250D01*
X215500Y152605D02*
Y154105D01*
X214750Y135245D02*
X216250D01*
X215500Y134495D02*
Y135995D01*
X240293Y275886D02*
X241793D01*
X241043Y275136D02*
Y276636D01*
X180076Y77933D02*
X181076D01*
X180576Y77433D02*
Y78433D01*
X193069Y86595D02*
X194069D01*
X193569Y86095D02*
Y87095D01*
X193069Y82264D02*
X194069D01*
X193569Y81764D02*
Y82764D01*
X193069Y77933D02*
X194069D01*
X193569Y77433D02*
Y78433D01*
X188738Y86595D02*
X189738D01*
X189238Y86095D02*
Y87095D01*
X188738Y82264D02*
X189738D01*
X189238Y81764D02*
Y82764D01*
X188738Y77933D02*
X189738D01*
X189238Y77433D02*
Y78433D01*
X184407Y86595D02*
X185407D01*
X184907Y86095D02*
Y87095D01*
X184407Y82264D02*
X185407D01*
X184907Y81764D02*
Y82764D01*
X184407Y77933D02*
X185407D01*
X184907Y77433D02*
Y78433D01*
X180076Y86595D02*
X181076D01*
X180576Y86095D02*
Y87095D01*
X180076Y82264D02*
X181076D01*
X180576Y81764D02*
Y82764D01*
X330069Y386349D02*
X331069D01*
X330569Y385849D02*
Y386849D01*
X334400Y386349D02*
X335400D01*
X334900Y385849D02*
Y386849D01*
X330069Y382018D02*
X331069D01*
X330569Y381518D02*
Y382518D01*
X334400Y382018D02*
X335400D01*
X334900Y381518D02*
Y382518D01*
X330069Y377687D02*
X331069D01*
X330569Y377187D02*
Y378187D01*
X334400Y377687D02*
X335400D01*
X334900Y377187D02*
Y378187D01*
X258368Y310448D02*
X259368D01*
X258869Y309948D02*
Y310948D01*
X35588Y82264D02*
X36588D01*
X36088Y81764D02*
Y82764D01*
X35588Y86595D02*
X36588D01*
X36088Y86095D02*
Y87095D01*
X39919Y77933D02*
X40919D01*
X40419Y77433D02*
Y78433D01*
X39919Y82264D02*
X40919D01*
X40419Y81764D02*
Y82764D01*
X39919Y86595D02*
X40919D01*
X40419Y86095D02*
Y87095D01*
X44250Y77933D02*
X45250D01*
X44750Y77433D02*
Y78433D01*
X44250Y82264D02*
X45250D01*
X44750Y81764D02*
Y82764D01*
X44250Y86595D02*
X45250D01*
X44750Y86095D02*
Y87095D01*
X48580Y77933D02*
X49580D01*
X49080Y77433D02*
Y78433D01*
X48580Y82264D02*
X49580D01*
X49080Y81764D02*
Y82764D01*
X48580Y86595D02*
X49580D01*
X49080Y86095D02*
Y87095D01*
X35588Y77933D02*
X36588D01*
X36088Y77433D02*
Y78433D01*
X252321Y77933D02*
X253321D01*
X252820Y77433D02*
Y78433D01*
X265313Y86595D02*
X266313D01*
X265813Y86095D02*
Y87095D01*
X265313Y82264D02*
X266313D01*
X265813Y81764D02*
Y82764D01*
X265313Y77933D02*
X266313D01*
X265813Y77433D02*
Y78433D01*
X260982Y86595D02*
X261982D01*
X261482Y86095D02*
Y87095D01*
X260982Y82264D02*
X261982D01*
X261482Y81764D02*
Y82764D01*
X260982Y77933D02*
X261982D01*
X261482Y77433D02*
Y78433D01*
X256651Y86595D02*
X257651D01*
X257151Y86095D02*
Y87095D01*
X256651Y82264D02*
X257651D01*
X257151Y81764D02*
Y82764D01*
X256651Y77933D02*
X257651D01*
X257151Y77433D02*
Y78433D01*
X252321Y86595D02*
X253321D01*
X252820Y86095D02*
Y87095D01*
X252321Y82264D02*
X253321D01*
X252820Y81764D02*
Y82764D01*
X324565Y82264D02*
X325565D01*
X325065Y81764D02*
Y82764D01*
X324565Y86595D02*
X325565D01*
X325065Y86095D02*
Y87095D01*
X328895Y77933D02*
X329895D01*
X329395Y77433D02*
Y78433D01*
X328895Y82264D02*
X329895D01*
X329395Y81764D02*
Y82764D01*
X328895Y86595D02*
X329895D01*
X329395Y86095D02*
Y87095D01*
X333226Y77933D02*
X334226D01*
X333726Y77433D02*
Y78433D01*
X333226Y82264D02*
X334226D01*
X333726Y81764D02*
Y82764D01*
X333226Y86595D02*
X334226D01*
X333726Y86095D02*
Y87095D01*
X337557Y77933D02*
X338557D01*
X338057Y77433D02*
Y78433D01*
X337557Y82264D02*
X338557D01*
X338057Y81764D02*
Y82764D01*
X337557Y86595D02*
X338557D01*
X338057Y86095D02*
Y87095D01*
X324565Y77933D02*
X325565D01*
X325065Y77433D02*
Y78433D01*
X107832Y77933D02*
X108832D01*
X108332Y77433D02*
Y78433D01*
X120824Y86595D02*
X121824D01*
X121324Y86095D02*
Y87095D01*
X120824Y82264D02*
X121824D01*
X121324Y81764D02*
Y82764D01*
X120824Y77933D02*
X121824D01*
X121324Y77433D02*
Y78433D01*
X116494Y86595D02*
X117494D01*
X116994Y86095D02*
Y87095D01*
X116494Y82264D02*
X117494D01*
X116994Y81764D02*
Y82764D01*
X116494Y77933D02*
X117494D01*
X116994Y77433D02*
Y78433D01*
X112163Y86595D02*
X113163D01*
X112663Y86095D02*
Y87095D01*
X112163Y82264D02*
X113163D01*
X112663Y81764D02*
Y82764D01*
X112163Y77933D02*
X113163D01*
X112663Y77433D02*
Y78433D01*
X107832Y86595D02*
X108832D01*
X108332Y86095D02*
Y87095D01*
X107832Y82264D02*
X108832D01*
X108332Y81764D02*
Y82764D01*
X144258Y176693D02*
X145758D01*
X145008Y175943D02*
Y177443D01*
X208523Y270105D02*
X210023D01*
X209273Y269355D02*
Y270855D01*
X210650Y273648D02*
X212150D01*
X211400Y272898D02*
Y274398D01*
X213350Y276648D02*
X214850D01*
X214100Y275898D02*
Y277398D01*
X201750Y286400D02*
X203250D01*
X202500Y285650D02*
Y287150D01*
X134525Y192232D02*
X136025D01*
X135275Y191481D02*
Y192982D01*
X116294Y66355D02*
X117794D01*
X117044Y65605D02*
Y67105D01*
X185950Y95848D02*
X187450D01*
X186700Y95098D02*
Y96598D01*
X203404Y59465D02*
X204905D01*
X204154Y58715D02*
Y60215D01*
X202715Y63107D02*
X204216D01*
X203466Y62357D02*
Y63857D01*
X10372Y85335D02*
X11872D01*
X11122Y84585D02*
Y86085D01*
X14612Y90315D02*
X16112D01*
X15362Y89565D02*
Y91065D01*
X228922Y303053D02*
X230421D01*
X229672Y302303D02*
Y303803D01*
X235766Y298524D02*
X237266D01*
X236516Y297774D02*
Y299274D01*
X238650Y92248D02*
X240150D01*
X239400Y91498D02*
Y92998D01*
X66193Y235655D02*
X67693D01*
X66943Y234905D02*
Y236405D01*
X283150Y300048D02*
X284650D01*
X283900Y299298D02*
Y300798D01*
X301638Y158781D02*
X303138D01*
X302388Y158031D02*
Y159531D01*
X296423Y161240D02*
X297923D01*
X297173Y160490D02*
Y161990D01*
X301590Y162589D02*
X303091D01*
X302341Y161839D02*
Y163339D01*
X294255Y213803D02*
X295755D01*
X295005Y213053D02*
Y214553D01*
X138943Y169606D02*
X140443D01*
X139693Y168856D02*
Y170356D01*
X178895Y56906D02*
X180395D01*
X179646Y56156D02*
Y57656D01*
X67951Y59500D02*
X69451D01*
X68701Y58750D02*
Y60250D01*
X64900Y59500D02*
X66400D01*
X65650Y58750D02*
Y60250D01*
X385990Y140965D02*
X387490D01*
X386740Y140215D02*
Y141715D01*
X399573Y140965D02*
X401073D01*
X400323Y140215D02*
Y141715D01*
X395833Y158681D02*
X397333D01*
X396583Y157931D02*
Y159431D01*
X299376Y342736D02*
X300876D01*
X300126Y341986D02*
Y343486D01*
X325360Y222953D02*
X326860D01*
X326110Y222203D02*
Y223703D01*
X270439Y219311D02*
X271939D01*
X271189Y218561D02*
Y220061D01*
X279100Y246083D02*
X280600D01*
X279850Y245333D02*
Y246833D01*
X327821Y255827D02*
X329321D01*
X328571Y255077D02*
Y256577D01*
X238648Y138110D02*
X240148D01*
X239398Y137360D02*
Y138860D01*
X277329Y207402D02*
X278829D01*
X278079Y206652D02*
Y208152D01*
X309219Y131417D02*
X310718D01*
X309968Y130667D02*
Y132167D01*
X321550Y122648D02*
X323050D01*
X322300Y121898D02*
Y123398D01*
X300923Y124311D02*
X302423D01*
X301673Y123561D02*
Y125061D01*
X319919Y126181D02*
X321419D01*
X320669Y125431D02*
Y126931D01*
X324152Y125295D02*
X325652D01*
X324902Y124545D02*
Y126045D01*
X257220Y169925D02*
X258720D01*
X257970Y169175D02*
Y170675D01*
X296965Y143868D02*
X298465D01*
X297715Y143118D02*
Y144618D01*
X326344Y141260D02*
X327845D01*
X327095Y140510D02*
Y142010D01*
X321817Y141162D02*
X323317D01*
X322567Y140411D02*
Y141911D01*
X290911Y172165D02*
X292411D01*
X291661Y171415D02*
Y172915D01*
X255971Y173937D02*
X257470D01*
X256720Y173187D02*
Y174687D01*
X258136Y151102D02*
X259636D01*
X258886Y150352D02*
Y151852D01*
X256955Y159469D02*
X258455D01*
X257705Y158719D02*
Y160219D01*
X298980Y165769D02*
X300480D01*
X299730Y165019D02*
Y166519D01*
X347408Y202185D02*
X348907D01*
X348158Y201435D02*
Y202935D01*
X352329Y204449D02*
X353829D01*
X353079Y203699D02*
Y205199D01*
X290813Y151791D02*
X292313D01*
X291563Y151041D02*
Y152541D01*
X275754Y151988D02*
X277254D01*
X276504Y151238D02*
Y152738D01*
X276564Y142063D02*
X278064D01*
X277314Y141313D02*
Y142813D01*
X271915Y141260D02*
X273415D01*
X272665Y140510D02*
Y142010D01*
X279204Y139494D02*
X280704D01*
X279954Y138744D02*
Y140244D01*
X269750Y145689D02*
X271250D01*
X270500Y144939D02*
Y146439D01*
X280180Y147855D02*
X281680D01*
X280930Y147105D02*
Y148605D01*
X274702Y158400D02*
X276202D01*
X275452Y157650D02*
Y159150D01*
X277602Y167900D02*
X279102D01*
X278352Y167150D02*
Y168650D01*
X274706Y162224D02*
X276206D01*
X275456Y161474D02*
Y162974D01*
X232789Y157230D02*
X234289D01*
X233539Y156480D02*
Y157980D01*
X229020Y157770D02*
X230520D01*
X229770Y157020D02*
Y158520D01*
X231285Y150591D02*
X232785D01*
X232035Y149841D02*
Y151341D01*
X230012Y168759D02*
X231512D01*
X230762Y168009D02*
Y169509D01*
X222550Y160048D02*
X224050D01*
X223300Y159298D02*
Y160798D01*
X218868Y161618D02*
X220368D01*
X219618Y160869D02*
Y162369D01*
X351443Y211145D02*
X352943D01*
X352193Y210396D02*
Y211895D01*
X348293Y217343D02*
X349793D01*
X349043Y216593D02*
Y218093D01*
X358825Y214980D02*
X360325D01*
X359575Y214230D02*
Y215730D01*
X321817Y206356D02*
X323317D01*
X322567Y205606D02*
Y207106D01*
X336581Y215571D02*
X338081D01*
X337331Y214821D02*
Y216321D01*
X263545Y203173D02*
X265045D01*
X264295Y202423D02*
Y203923D01*
X271325Y207402D02*
X272825D01*
X272075Y206652D02*
Y208152D01*
X277131Y200515D02*
X278631D01*
X277881Y199765D02*
Y201265D01*
X322790Y215965D02*
X324289D01*
X323539Y215215D02*
Y216715D01*
X330183Y205335D02*
X331683D01*
X330933Y204585D02*
Y206085D01*
X294750Y208091D02*
X296250D01*
X295500Y207341D02*
Y208841D01*
X286594Y216654D02*
X288094D01*
X287344Y215904D02*
Y217404D01*
X287860Y205827D02*
X289360D01*
X288610Y205077D02*
Y206577D01*
X372014Y209051D02*
X373514D01*
X372764Y208301D02*
Y209801D01*
X309424Y216894D02*
X310924D01*
X310174Y216144D02*
Y217644D01*
X314041Y209567D02*
X315541D01*
X314791Y208817D02*
Y210317D01*
X263262Y207652D02*
X264762D01*
X264012Y206902D02*
Y208402D01*
X256261Y197661D02*
X257761D01*
X257011Y196911D02*
Y198411D01*
X261421Y216095D02*
X262921D01*
X262171Y215345D02*
Y216845D01*
X305695Y325886D02*
X307195D01*
X306445Y325136D02*
Y326636D01*
X329317Y326181D02*
X330817D01*
X330067Y325431D02*
Y326931D01*
X337293Y337208D02*
X338793D01*
X338043Y336458D02*
Y337958D01*
X337293Y333862D02*
X338793D01*
X338043Y333112D02*
Y334612D01*
X337293Y343701D02*
X338793D01*
X338043Y342951D02*
Y344451D01*
X337293Y340457D02*
X338793D01*
X338043Y339706D02*
Y341207D01*
X331337Y337106D02*
X332837D01*
X332087Y336356D02*
Y337856D01*
X331337Y340453D02*
X332837D01*
X332087Y339703D02*
Y341203D01*
X329171Y331004D02*
X330671D01*
X329921Y330254D02*
Y331754D01*
X324152Y329232D02*
X325652D01*
X324902Y328482D02*
Y329982D01*
X279515Y26169D02*
X281014D01*
X280264Y25420D02*
Y26919D01*
X60114Y304333D02*
X61614D01*
X60864Y303583D02*
Y305083D01*
X59730Y300492D02*
X61230D01*
X60480Y299742D02*
Y301242D01*
X61763Y307893D02*
X63263D01*
X62513Y307143D02*
Y308643D01*
X66979Y306151D02*
X68479D01*
X67729Y305401D02*
Y306901D01*
X44770Y66240D02*
X46270D01*
X45520Y65490D02*
Y66990D01*
X234850Y278253D02*
X236350D01*
X235600Y277503D02*
Y279003D01*
X240438Y268307D02*
X241938D01*
X241188Y267557D02*
Y269057D01*
X371810Y203413D02*
X373310D01*
X372560Y202663D02*
Y204163D01*
X363663Y387795D02*
X365163D01*
X364413Y387045D02*
Y388545D01*
X379754Y272008D02*
X381254D01*
X380504Y271258D02*
Y272758D01*
X383199Y272008D02*
X384699D01*
X383949Y271258D02*
Y272758D01*
X376309Y272008D02*
X377809D01*
X377059Y271258D02*
Y272758D01*
X303581Y287453D02*
X305081D01*
X304331Y286703D02*
Y288203D01*
X347550Y294500D02*
X349050D01*
X348300Y293750D02*
Y295250D01*
X345172Y298811D02*
X346672D01*
X345922Y298061D02*
Y299561D01*
X342750Y294400D02*
X344250D01*
X343500Y293650D02*
Y295150D01*
X273018Y396260D02*
X274518D01*
X273768Y395510D02*
Y397010D01*
X235749Y396265D02*
X237249D01*
X236499Y395515D02*
Y397015D01*
X254809Y396457D02*
X256309D01*
X255559Y395707D02*
Y397207D01*
X164844Y271851D02*
X166344D01*
X165594Y271101D02*
Y272601D01*
X183867Y265992D02*
X185367D01*
X184617Y265242D02*
Y266742D01*
X171635Y261811D02*
X173135D01*
X172385Y261061D02*
Y262561D01*
X164548Y267815D02*
X166048D01*
X165298Y267065D02*
Y268565D01*
X191770Y69193D02*
X193270D01*
X192520Y68443D02*
Y69943D01*
X189159Y66142D02*
X190659D01*
X189909Y65392D02*
Y66892D01*
X376955Y366339D02*
X378455D01*
X377705Y365589D02*
Y367089D01*
X273018Y308563D02*
X274518D01*
X273768Y307813D02*
Y309313D01*
X269474Y308563D02*
X270974D01*
X270224Y307813D02*
Y309313D01*
X357668Y381895D02*
X359168D01*
X358418Y381146D02*
Y382646D01*
X351463Y386221D02*
X352963D01*
X352213Y385471D02*
Y386970D01*
X300675Y310630D02*
X302175D01*
X301425Y309880D02*
Y311380D01*
X293392Y322638D02*
X294892D01*
X294142Y321888D02*
Y323388D01*
X299592Y322933D02*
X301093D01*
X300342Y322183D02*
Y323683D01*
X294179Y310630D02*
X295679D01*
X294929Y309880D02*
Y311380D01*
X297427Y310728D02*
X298927D01*
X298177Y309978D02*
Y311478D01*
X296541Y322835D02*
X298041D01*
X297291Y322085D02*
Y323585D01*
X303136Y304134D02*
X304636D01*
X303886Y303384D02*
Y304884D01*
X289750Y300197D02*
X291250D01*
X290500Y299447D02*
Y300947D01*
X56150Y137800D02*
X57650D01*
X56900Y137050D02*
Y138550D01*
X51069Y139469D02*
X52569D01*
X51819Y138719D02*
Y140219D01*
X59850Y138148D02*
X61350D01*
X60600Y137398D02*
Y138898D01*
X234434Y178342D02*
X235934D01*
X235184Y177592D02*
Y179092D01*
X237092Y207874D02*
X238593D01*
X237842Y207124D02*
Y208624D01*
X304860Y298425D02*
X306360D01*
X305610Y297675D02*
Y299175D01*
X269573Y311614D02*
X271073D01*
X270323Y310864D02*
Y312364D01*
X273018Y311811D02*
X274518D01*
X273768Y311061D02*
Y312561D01*
X148178Y271555D02*
X149678D01*
X148928Y270805D02*
Y272305D01*
X149100Y285728D02*
X150600D01*
X149850Y284978D02*
Y286478D01*
X60114Y242420D02*
X61614D01*
X60864Y241670D02*
Y243170D01*
X59523Y237302D02*
X61023D01*
X60273Y236552D02*
Y238052D01*
X249250Y266802D02*
X250750D01*
X250000Y266052D02*
Y267552D01*
X238988Y229124D02*
X240488D01*
X239738Y228374D02*
Y229874D01*
X235388Y229286D02*
X236888D01*
X236138Y228536D02*
Y230036D01*
X241325Y233858D02*
X242825D01*
X242075Y233108D02*
Y234608D01*
X238864Y236811D02*
X240364D01*
X239614Y236061D02*
Y237561D01*
X235026Y236152D02*
X236526D01*
X235776Y235402D02*
Y236902D01*
X240855Y224800D02*
X242355D01*
X241605Y224050D02*
Y225550D01*
X273463Y214173D02*
X274963D01*
X274213Y213423D02*
Y214923D01*
X342510Y70758D02*
X344010D01*
X343260Y70008D02*
Y71508D01*
X347136Y65837D02*
X348636D01*
X347886Y65087D02*
Y66587D01*
X347238Y62949D02*
X348738D01*
X347988Y62199D02*
Y63699D01*
X348022Y59340D02*
X349522D01*
X348772Y58590D02*
Y60090D01*
X188470Y166929D02*
X189971D01*
X189220Y166179D02*
Y167679D01*
X187880Y163189D02*
X189380D01*
X188630Y162439D02*
Y163939D01*
X218875Y164616D02*
X220375D01*
X219625Y163866D02*
Y165366D01*
X212412Y166032D02*
X213912D01*
X213162Y165282D02*
Y166782D01*
X213550Y180100D02*
X215050D01*
X214300Y179350D02*
Y180850D01*
X234327Y148565D02*
X235827D01*
X235077Y147815D02*
Y149315D01*
X273350Y278200D02*
X274850D01*
X274100Y277450D02*
Y278950D01*
X273364Y273839D02*
X274864D01*
X274114Y273089D02*
Y274589D01*
X273809Y210335D02*
X275309D01*
X274559Y209585D02*
Y211085D01*
X291204Y142642D02*
X292704D01*
X291954Y141892D02*
Y143392D01*
X200537Y246348D02*
X202037D01*
X201287Y245598D02*
Y247098D01*
X243589Y227264D02*
X245089D01*
X244339Y226514D02*
Y228014D01*
X240550Y219200D02*
X242050D01*
X241300Y218450D02*
Y219950D01*
X238550Y213948D02*
X240050D01*
X239300Y213198D02*
Y214698D01*
X211250Y219848D02*
X212750D01*
X212000Y219098D02*
Y220598D01*
X222368Y209929D02*
X223868D01*
X223118Y209179D02*
Y210679D01*
X222289Y201839D02*
X223789D01*
X223039Y201089D02*
Y202589D01*
X219650Y179948D02*
X221150D01*
X220400Y179198D02*
Y180698D01*
X218650Y184948D02*
X220150D01*
X219400Y184198D02*
Y185698D01*
X218673Y188603D02*
X220173D01*
X219423Y187854D02*
Y189354D01*
X218671Y195099D02*
X220171D01*
X219421Y194349D02*
Y195849D01*
X212650Y161348D02*
X214150D01*
X213400Y160598D02*
Y162098D01*
X206540Y162338D02*
X208040D01*
X207290Y161588D02*
Y163088D01*
X209750Y184600D02*
X211250D01*
X210500Y183850D02*
Y185350D01*
X213537Y183779D02*
X215037D01*
X214287Y183029D02*
Y184529D01*
X205550Y181200D02*
X207050D01*
X206300Y180450D02*
Y181950D01*
X206590Y158730D02*
X208090D01*
X207340Y157980D02*
Y159480D01*
X206050Y184800D02*
X207550D01*
X206800Y184050D02*
Y185550D01*
X115550Y238148D02*
X117050D01*
X116300Y237398D02*
Y238898D01*
X328335Y112648D02*
X329835D01*
X329085Y111898D02*
Y113398D01*
X338150Y59248D02*
X339650D01*
X338900Y58498D02*
Y59998D01*
X334750Y60948D02*
X336250D01*
X335500Y60198D02*
Y61698D01*
X274950Y65748D02*
X276450D01*
X275700Y64998D02*
Y66498D01*
X270350Y70648D02*
X271850D01*
X271100Y69898D02*
Y71398D01*
X330550Y96048D02*
X332050D01*
X331300Y95298D02*
Y96798D01*
X325134Y95968D02*
X326634D01*
X325884Y95218D02*
Y96718D01*
X258550Y96148D02*
X260050D01*
X259300Y95398D02*
Y96898D01*
X231350Y98248D02*
X232850D01*
X232100Y97498D02*
Y98998D01*
X31750Y149000D02*
X33250D01*
X32500Y148250D02*
Y149750D01*
X38622Y175148D02*
X40122D01*
X39372Y174398D02*
Y175898D01*
X140450Y217248D02*
X141950D01*
X141200Y216498D02*
Y217998D01*
X135650Y227148D02*
X137150D01*
X136400Y226398D02*
Y227898D01*
X136461Y230766D02*
X137961D01*
X137211Y230016D02*
Y231516D01*
X126845Y207794D02*
X128345D01*
X127594Y207045D02*
Y208544D01*
X129885Y207800D02*
X131385D01*
X130635Y207050D02*
Y208550D01*
X130950Y199348D02*
X132450D01*
X131700Y198598D02*
Y200098D01*
X127910Y199343D02*
X129410D01*
X128660Y198593D02*
Y200093D01*
X159069Y163274D02*
X160568D01*
X159818Y162524D02*
Y164024D01*
X153050Y165800D02*
X154550D01*
X153800Y165050D02*
Y166550D01*
X161150Y247148D02*
X162650D01*
X161900Y246398D02*
Y247898D01*
X200550Y238748D02*
X202050D01*
X201300Y237998D02*
Y239498D01*
X200524Y242430D02*
X202024D01*
X201274Y241680D02*
Y243180D01*
X169350Y281400D02*
X170850D01*
X170100Y280650D02*
Y282150D01*
X184950Y277148D02*
X186450D01*
X185700Y276398D02*
Y277898D01*
X251650Y293100D02*
X253150D01*
X252400Y292350D02*
Y293850D01*
X193690Y242382D02*
X195190D01*
X194440Y241632D02*
Y243132D01*
X111774Y238402D02*
X113274D01*
X112524Y237652D02*
Y239152D01*
X155650Y201248D02*
X157150D01*
X156400Y200498D02*
Y201998D01*
X175350Y196448D02*
X176850D01*
X176100Y195698D02*
Y197198D01*
X84650Y196148D02*
X86150D01*
X85400Y195398D02*
Y196898D01*
X131688Y192209D02*
X133188D01*
X132438Y191459D02*
Y192959D01*
X126082Y216823D02*
X127582D01*
X126831Y216073D02*
Y217573D01*
X138050Y218700D02*
X139550D01*
X138800Y217950D02*
Y219450D01*
X153050Y217600D02*
X154550D01*
X153800Y216850D02*
Y218350D01*
X261050Y290148D02*
X262550D01*
X261800Y289398D02*
Y290898D01*
X260650Y284348D02*
X262150D01*
X261400Y283598D02*
Y285098D01*
X204750Y270100D02*
X206250D01*
X205500Y269350D02*
Y270850D01*
X195098Y263648D02*
X196598D01*
X195848Y262898D02*
Y264398D01*
X152350Y235648D02*
X153850D01*
X153100Y234898D02*
Y236398D01*
X152948Y232013D02*
X154448D01*
X153698Y231263D02*
Y232763D01*
X181257Y246957D02*
X182757D01*
X182008Y246207D02*
Y247707D01*
X181550Y250548D02*
X183050D01*
X182300Y249798D02*
Y251298D01*
X181250Y243348D02*
X182750D01*
X182000Y242598D02*
Y244098D01*
X138750Y239248D02*
X140250D01*
X139500Y238498D02*
Y239998D01*
X155350Y235600D02*
X156850D01*
X156100Y234850D02*
Y236350D01*
X163817Y282795D02*
X165317D01*
X164567Y282045D02*
Y283545D01*
X169526Y287717D02*
X171026D01*
X170276Y286967D02*
Y288467D01*
X55254Y249331D02*
X56754D01*
X56004Y248581D02*
Y250081D01*
X60175Y230728D02*
X61675D01*
X60925Y229978D02*
Y231478D01*
X93169Y232180D02*
X94670D01*
X93919Y231430D02*
Y232930D01*
X162050Y238500D02*
X163550D01*
X162800Y237750D02*
Y239250D01*
X387144Y318189D02*
X388644D01*
X387894Y317439D02*
Y318939D01*
X379754Y312008D02*
X381254D01*
X380504Y311258D02*
Y312758D01*
X369616Y312008D02*
X371116D01*
X370366Y311258D02*
Y312758D01*
X376309Y312008D02*
X377809D01*
X377059Y311258D02*
Y312758D01*
X372963Y312008D02*
X374463D01*
X373713Y311258D02*
Y312758D01*
X383199Y312008D02*
X384699D01*
X383949Y311258D02*
Y312758D01*
X385864Y314646D02*
X387364D01*
X386614Y313896D02*
Y315396D01*
X385766Y321732D02*
X387266D01*
X386516Y320982D02*
Y322482D01*
X369427Y324488D02*
X370927D01*
X370177Y323738D02*
Y325238D01*
X379663Y324488D02*
X381163D01*
X380413Y323738D02*
Y325238D01*
X376317Y324488D02*
X377817D01*
X377067Y323738D02*
Y325238D01*
X383010Y324488D02*
X384510D01*
X383760Y323738D02*
Y325238D01*
X372872Y324488D02*
X374372D01*
X373622Y323738D02*
Y325238D01*
X303581Y284205D02*
X305081D01*
X304331Y283455D02*
Y284955D01*
X305549Y277709D02*
X307049D01*
X306299Y276959D02*
Y278459D01*
X317163Y276232D02*
X318663D01*
X317913Y275482D02*
Y276982D01*
X329171Y278004D02*
X330671D01*
X329921Y277254D02*
Y278754D01*
X303581Y280858D02*
X305081D01*
X304331Y280108D02*
Y281608D01*
X310766Y276134D02*
X312266D01*
X311516Y275384D02*
Y276884D01*
X324152Y276232D02*
X325652D01*
X324902Y275482D02*
Y276982D01*
X331337Y280858D02*
X332837D01*
X332087Y280108D02*
Y281608D01*
X331337Y287453D02*
X332837D01*
X332087Y286703D02*
Y288203D01*
X331337Y284106D02*
X332837D01*
X332087Y283356D02*
Y284856D01*
X396016Y193650D02*
X397516D01*
X396766Y192900D02*
Y194400D01*
X385963Y193650D02*
X387463D01*
X386713Y192900D02*
Y194400D01*
X382616Y193650D02*
X384116D01*
X383366Y192900D02*
Y194400D01*
X382602Y212106D02*
X384102D01*
X383352Y211356D02*
Y212856D01*
X385948Y212106D02*
X387448D01*
X386698Y211356D02*
Y212856D01*
X404466Y202902D02*
X405967D01*
X405217Y202152D02*
Y203652D01*
X404466Y206248D02*
X405967D01*
X405217Y205498D02*
Y206998D01*
X404466Y199555D02*
X405967D01*
X405217Y198805D02*
Y200305D01*
X372900Y244606D02*
X374400D01*
X373650Y243856D02*
Y245356D01*
X383010Y244488D02*
X384510D01*
X383760Y243738D02*
Y245238D01*
X376317Y244488D02*
X377817D01*
X377067Y243738D02*
Y245238D01*
X379663Y244488D02*
X381163D01*
X380413Y243738D02*
Y245238D01*
X369427Y244488D02*
X370927D01*
X370177Y243738D02*
Y245238D01*
X387144Y238189D02*
X388644D01*
X387894Y237439D02*
Y238939D01*
X385766Y241732D02*
X387266D01*
X386516Y240982D02*
Y242482D01*
X385864Y234646D02*
X387364D01*
X386614Y233896D02*
Y235396D01*
X383199Y232008D02*
X384699D01*
X383949Y231258D02*
Y232758D01*
X372963Y232008D02*
X374463D01*
X373713Y231258D02*
Y232758D01*
X376309Y232008D02*
X377809D01*
X377059Y231258D02*
Y232758D01*
X369616Y232008D02*
X371116D01*
X370366Y231258D02*
Y232758D01*
X379754Y232008D02*
X381254D01*
X380504Y231258D02*
Y232758D01*
X372872Y284488D02*
X374372D01*
X373622Y283738D02*
Y285238D01*
X383010Y284488D02*
X384510D01*
X383760Y283738D02*
Y285238D01*
X376317Y284488D02*
X377817D01*
X377067Y283738D02*
Y285238D01*
X379663Y284488D02*
X381163D01*
X380413Y283738D02*
Y285238D01*
X369427Y284488D02*
X370927D01*
X370177Y283738D02*
Y285238D01*
X387144Y278189D02*
X388644D01*
X387894Y277439D02*
Y278939D01*
X385766Y281732D02*
X387266D01*
X386516Y280982D02*
Y282482D01*
X385864Y274646D02*
X387364D01*
X386614Y273896D02*
Y275396D01*
X372963Y272008D02*
X374463D01*
X373713Y271258D02*
Y272758D01*
X369616Y272008D02*
X371116D01*
X370366Y271258D02*
Y272758D01*
X372872Y264488D02*
X374372D01*
X373622Y263738D02*
Y265238D01*
X383010Y264488D02*
X384510D01*
X383760Y263738D02*
Y265238D01*
X376317Y264488D02*
X377817D01*
X377067Y263738D02*
Y265238D01*
X379663Y264488D02*
X381163D01*
X380413Y263738D02*
Y265238D01*
X369427Y264488D02*
X370927D01*
X370177Y263738D02*
Y265238D01*
X387144Y258189D02*
X388644D01*
X387894Y257439D02*
Y258939D01*
X385766Y261732D02*
X387266D01*
X386516Y260982D02*
Y262482D01*
X385864Y254646D02*
X387364D01*
X386614Y253896D02*
Y255396D01*
X383199Y252008D02*
X384699D01*
X383949Y251258D02*
Y252758D01*
X372963Y252008D02*
X374463D01*
X373713Y251258D02*
Y252758D01*
X376309Y252008D02*
X377809D01*
X377059Y251258D02*
Y252758D01*
X369616Y252008D02*
X371116D01*
X370366Y251258D02*
Y252758D01*
X379754Y252008D02*
X381254D01*
X380504Y251258D02*
Y252758D01*
X372872Y304488D02*
X374372D01*
X373622Y303738D02*
Y305238D01*
X383010Y304488D02*
X384510D01*
X383760Y303738D02*
Y305238D01*
X376317Y304488D02*
X377817D01*
X377067Y303738D02*
Y305238D01*
X379663Y304488D02*
X381163D01*
X380413Y303738D02*
Y305238D01*
X369427Y304488D02*
X370927D01*
X370177Y303738D02*
Y305238D01*
X387144Y298189D02*
X388644D01*
X387894Y297439D02*
Y298939D01*
X385766Y301732D02*
X387266D01*
X386516Y300982D02*
Y302482D01*
X385864Y294646D02*
X387364D01*
X386614Y293896D02*
Y295396D01*
X383199Y292008D02*
X384699D01*
X383949Y291258D02*
Y292758D01*
X372963Y292008D02*
X374463D01*
X373713Y291258D02*
Y292758D01*
X376309Y292008D02*
X377809D01*
X377059Y291258D02*
Y292758D01*
X369616Y292008D02*
X371116D01*
X370366Y291258D02*
Y292758D01*
X379754Y292008D02*
X381254D01*
X380504Y291258D02*
Y292758D01*
X379754Y332008D02*
X381254D01*
X380504Y331258D02*
Y332758D01*
X369616Y332008D02*
X371116D01*
X370366Y331258D02*
Y332758D01*
X376309Y332008D02*
X377809D01*
X377059Y331258D02*
Y332758D01*
X372963Y332008D02*
X374463D01*
X373713Y331258D02*
Y332758D01*
X383199Y332008D02*
X384699D01*
X383949Y331258D02*
Y332758D01*
X339149Y330709D02*
X340649D01*
X339899Y329959D02*
Y331459D01*
X350763Y329232D02*
X352263D01*
X351513Y328482D02*
Y329982D01*
X362771Y331004D02*
X364271D01*
X363521Y330254D02*
Y331754D01*
X344366Y329134D02*
X345866D01*
X345116Y328384D02*
Y329884D01*
X357752Y329232D02*
X359252D01*
X358502Y328482D02*
Y329982D01*
X364937Y343701D02*
X366437D01*
X365687Y342951D02*
Y344451D01*
X364937Y333858D02*
X366437D01*
X365687Y333108D02*
Y334608D01*
X364937Y340453D02*
X366437D01*
X365687Y339703D02*
Y341203D01*
X364937Y337106D02*
X366437D01*
X365687Y336356D02*
Y337856D01*
X331337Y333858D02*
X332837D01*
X332087Y333108D02*
Y334608D01*
X331337Y343701D02*
X332837D01*
X332087Y342951D02*
Y344451D01*
X228950Y369648D02*
X230450D01*
X229700Y368898D02*
Y370398D01*
X249850Y346948D02*
X251350D01*
X250600Y346198D02*
Y347698D01*
X259150Y349048D02*
X260650D01*
X259900Y348298D02*
Y349798D01*
X351907Y374016D02*
X353408D01*
X352658Y373266D02*
Y374766D01*
X359486Y374016D02*
X360986D01*
X360236Y373266D02*
Y374766D01*
X355648Y374016D02*
X357148D01*
X356398Y373266D02*
Y374766D01*
X368738Y374016D02*
X370238D01*
X369488Y373266D02*
Y374766D01*
X372577Y374016D02*
X374077D01*
X373327Y373266D02*
Y374766D01*
X364998Y374016D02*
X366498D01*
X365748Y373266D02*
Y374766D01*
X289309Y335925D02*
X290809D01*
X290059Y335175D02*
Y336675D01*
X289309Y339075D02*
X290809D01*
X290059Y338325D02*
Y339825D01*
X359388Y353740D02*
X360888D01*
X360138Y352990D02*
Y354490D01*
X351809Y353740D02*
X353309D01*
X352559Y352990D02*
Y354490D01*
X355648Y353740D02*
X357148D01*
X356398Y352990D02*
Y354490D01*
X368738Y353740D02*
X370238D01*
X369488Y352990D02*
Y354490D01*
X364900Y353740D02*
X366400D01*
X365650Y352990D02*
Y354490D01*
X372478Y353740D02*
X373978D01*
X373228Y352990D02*
Y354490D01*
X292557Y350295D02*
X294057D01*
X293307Y349545D02*
Y351045D01*
X292557Y353445D02*
X294057D01*
X293307Y352695D02*
Y354195D01*
X289309Y350295D02*
X290809D01*
X290059Y349545D02*
Y351045D01*
X289309Y353445D02*
X290809D01*
X290059Y352695D02*
Y354195D01*
X250189Y386221D02*
X251689D01*
X250939Y385471D02*
Y386970D01*
X257550Y360048D02*
X259050D01*
X258300Y359298D02*
Y360798D01*
X265450Y319448D02*
X266950D01*
X266200Y318698D02*
Y320198D01*
X307866Y360807D02*
X308866D01*
X308366Y360307D02*
Y361307D01*
X339935Y370718D02*
X340935D01*
X340435Y370218D02*
Y371218D01*
X4368Y197835D02*
X5868D01*
X5118Y197085D02*
Y198585D01*
X238226Y106102D02*
X239726D01*
X238976Y105352D02*
Y106852D01*
X313719Y108071D02*
X315218D01*
X314469Y107321D02*
Y108821D01*
X264703Y59941D02*
X266203D01*
X265453Y59191D02*
Y60691D01*
X192459Y59941D02*
X193959D01*
X193209Y59191D02*
Y60691D01*
X345805Y91929D02*
X347305D01*
X346555Y91179D02*
Y92679D01*
X348758Y91929D02*
X350258D01*
X349508Y91179D02*
Y92679D01*
X296986Y80905D02*
X298486D01*
X297736Y80155D02*
Y81656D01*
X221143Y97640D02*
X222643D01*
X221893Y96890D02*
Y98390D01*
X221143Y104040D02*
X222643D01*
X221893Y103290D02*
Y104790D01*
X224143Y99040D02*
X225643D01*
X224893Y98290D02*
Y99790D01*
X224143Y102540D02*
X225643D01*
X224893Y101790D02*
Y103290D01*
X213343Y99140D02*
X214843D01*
X214093Y98390D02*
Y99890D01*
X213343Y102640D02*
X214843D01*
X214093Y101890D02*
Y103390D01*
X216343Y97640D02*
X217843D01*
X217093Y96890D02*
Y98390D01*
X216343Y104040D02*
X217843D01*
X217093Y103290D02*
Y104790D01*
X307287Y95039D02*
X308787D01*
X308037Y94289D02*
Y95789D01*
X318338Y105852D02*
X319838D01*
X319088Y105102D02*
Y106602D01*
X270510Y95079D02*
X272010D01*
X271260Y94329D02*
Y95829D01*
X278338Y112794D02*
X279838D01*
X279088Y112045D02*
Y113544D01*
X281477Y109895D02*
X282977D01*
X282227Y109144D02*
Y110644D01*
X281477Y121395D02*
X282977D01*
X282227Y120644D02*
Y122144D01*
X278377Y124294D02*
X279877D01*
X279127Y123545D02*
Y125045D01*
X275277Y109895D02*
X276777D01*
X276027Y109144D02*
Y110644D01*
X272138Y112794D02*
X273638D01*
X272888Y112045D02*
Y113544D01*
X275277Y121395D02*
X276777D01*
X276027Y120644D02*
Y122144D01*
X272138Y124294D02*
X273638D01*
X272888Y123545D02*
Y125045D01*
X231238Y80905D02*
X232738D01*
X231988Y80155D02*
Y81656D01*
X228285Y80905D02*
X229785D01*
X229035Y80155D02*
Y81656D01*
X246060Y103805D02*
X247560D01*
X246810Y103055D02*
Y104555D01*
X215884Y126279D02*
X217384D01*
X216634Y125530D02*
Y127030D01*
X198266Y95079D02*
X199766D01*
X199016Y94329D02*
Y95829D01*
X199796Y124294D02*
X201296D01*
X200546Y123545D02*
Y125045D01*
X202934Y121395D02*
X204434D01*
X203684Y120644D02*
Y122144D01*
X199796Y112794D02*
X201296D01*
X200546Y112045D02*
Y113544D01*
X202934Y109895D02*
X204434D01*
X203684Y109144D02*
Y110644D01*
X206034Y124294D02*
X207534D01*
X206784Y123545D02*
Y125045D01*
X209134Y121395D02*
X210634D01*
X209884Y120644D02*
Y122144D01*
X209134Y109895D02*
X210634D01*
X209884Y109144D02*
Y110644D01*
X205996Y112794D02*
X207496D01*
X206746Y112045D02*
Y113544D01*
X200785Y91865D02*
X202285D01*
X201535Y91115D02*
Y92615D01*
X158994Y80905D02*
X160494D01*
X159744Y80155D02*
Y81656D01*
X156041Y80905D02*
X157541D01*
X156791Y80155D02*
Y81656D01*
X162799Y91988D02*
X164299D01*
X163549Y91238D02*
Y92738D01*
X162799Y95039D02*
X164299D01*
X163549Y94289D02*
Y95789D01*
X166440Y92165D02*
X167940D01*
X167190Y91415D02*
Y92915D01*
X169315Y92165D02*
X170815D01*
X170065Y91415D02*
Y92915D01*
X126022Y95079D02*
X127522D01*
X126772Y94329D02*
Y95829D01*
X144155Y104040D02*
X145655D01*
X144905Y103290D02*
Y104790D01*
X144155Y97640D02*
X145655D01*
X144905Y96890D02*
Y98390D01*
X141155Y102640D02*
X142655D01*
X141905Y101890D02*
Y103390D01*
X141155Y99140D02*
X142655D01*
X141905Y98390D02*
Y99890D01*
X151955Y102540D02*
X153455D01*
X152705Y101790D02*
Y103290D01*
X151955Y99040D02*
X153455D01*
X152705Y98290D02*
Y99790D01*
X148955Y104040D02*
X150455D01*
X149705Y103290D02*
Y104790D01*
X148955Y97640D02*
X150455D01*
X149705Y96890D02*
Y98390D01*
X133850Y112794D02*
X135350D01*
X134600Y112045D02*
Y113544D01*
X136989Y109895D02*
X138489D01*
X137739Y109144D02*
Y110644D01*
X136989Y121395D02*
X138489D01*
X137739Y120644D02*
Y122144D01*
X133889Y124294D02*
X135389D01*
X134639Y123545D02*
Y125045D01*
X130789Y109895D02*
X132289D01*
X131539Y109144D02*
Y110644D01*
X127650Y112794D02*
X129150D01*
X128400Y112045D02*
Y113544D01*
X130789Y121395D02*
X132289D01*
X131539Y120644D02*
Y122144D01*
X127650Y124294D02*
X129150D01*
X128400Y123545D02*
Y125045D01*
X83797Y80905D02*
X85297D01*
X84547Y80155D02*
Y81656D01*
X86750Y80905D02*
X88250D01*
X87500Y80155D02*
Y81656D01*
X132222Y92028D02*
X133722D01*
X132972Y91278D02*
Y92778D01*
X129270Y92028D02*
X130770D01*
X130020Y91278D02*
Y92778D01*
X148810Y33957D02*
X150310D01*
X149560Y33207D02*
Y34707D01*
X145510Y33957D02*
X147010D01*
X146260Y33207D02*
Y34707D01*
X149204Y28740D02*
X150704D01*
X149953Y27990D02*
Y29490D01*
X145904Y28740D02*
X147404D01*
X146653Y27990D02*
Y29490D01*
X47872Y44488D02*
X49372D01*
X48622Y43738D02*
Y45238D01*
X44672Y44587D02*
X46172D01*
X45422Y43837D02*
Y45337D01*
X301514Y63287D02*
X303014D01*
X302264Y62537D02*
Y64037D01*
X301514Y66339D02*
X303014D01*
X302264Y65589D02*
Y67089D01*
X314309Y66339D02*
X315809D01*
X315059Y65589D02*
Y67089D01*
X314309Y63287D02*
X315809D01*
X315059Y62537D02*
Y64037D01*
X359978Y63386D02*
X361478D01*
X360728Y62636D02*
Y64136D01*
X359978Y66437D02*
X361478D01*
X360728Y65687D02*
Y67187D01*
X350870Y59500D02*
X352370D01*
X351620Y58750D02*
Y60250D01*
X318229Y73032D02*
X319729D01*
X318979Y72281D02*
Y73782D01*
X318229Y70079D02*
X319729D01*
X318979Y69329D02*
Y70829D01*
X346986Y78347D02*
X348486D01*
X347736Y77596D02*
Y79097D01*
X349939Y84252D02*
X351439D01*
X350689Y83502D02*
Y85002D01*
X359585Y88484D02*
X361085D01*
X360335Y87734D02*
Y89234D01*
X356632Y88484D02*
X358132D01*
X357382Y87734D02*
Y89234D01*
X346986Y84252D02*
X348486D01*
X347736Y83502D02*
Y85002D01*
X349939Y78347D02*
X351439D01*
X350689Y77596D02*
Y79097D01*
X314635Y78307D02*
X316135D01*
X315385Y77557D02*
Y79058D01*
X311682Y78307D02*
X313182D01*
X312432Y77557D02*
Y79058D01*
X353876Y59500D02*
X355376D01*
X354626Y58750D02*
Y60250D01*
X356927Y59500D02*
X358427D01*
X357677Y58750D02*
Y60250D01*
X309880Y55512D02*
X311380D01*
X310630Y54762D02*
Y56262D01*
X306874Y55512D02*
X308374D01*
X307624Y54762D02*
Y56262D01*
X303876Y55512D02*
X305376D01*
X304626Y54762D02*
Y56262D01*
X328679Y108858D02*
X330179D01*
X329429Y108108D02*
Y109608D01*
X270411Y73425D02*
X271911D01*
X271161Y72675D02*
Y74175D01*
X229270Y63287D02*
X230770D01*
X230020Y62537D02*
Y64037D01*
X229270Y66339D02*
X230770D01*
X230020Y65589D02*
Y67089D01*
X242065Y66339D02*
X243565D01*
X242815Y65589D02*
Y67089D01*
X242065Y63287D02*
X243565D01*
X242815Y62537D02*
Y64037D01*
X287734Y63386D02*
X289234D01*
X288484Y62636D02*
Y64136D01*
X287734Y66437D02*
X289234D01*
X288484Y65687D02*
Y67187D01*
X278626Y59500D02*
X280126D01*
X279376Y58750D02*
Y60250D01*
X245785Y72531D02*
X247285D01*
X246535Y71781D02*
Y73282D01*
X245785Y69579D02*
X247285D01*
X246535Y68829D02*
Y70329D01*
X274742Y78347D02*
X276242D01*
X275492Y77596D02*
Y79097D01*
X277695Y84252D02*
X279195D01*
X278445Y83502D02*
Y85002D01*
X284585Y88583D02*
X286085D01*
X285335Y87833D02*
Y89333D01*
X274742Y84252D02*
X276242D01*
X275492Y83502D02*
Y85002D01*
X277695Y78347D02*
X279195D01*
X278445Y77596D02*
Y79097D01*
X242391Y78307D02*
X243891D01*
X243141Y77557D02*
Y79058D01*
X239438Y78307D02*
X240938D01*
X240188Y77557D02*
Y79058D01*
X281632Y59500D02*
X283132D01*
X282382Y58750D02*
Y60250D01*
X284683Y59500D02*
X286183D01*
X285433Y58750D02*
Y60250D01*
X240687Y55512D02*
X242187D01*
X241437Y54762D02*
Y56262D01*
X237636Y55512D02*
X239136D01*
X238386Y54762D02*
Y56262D01*
X234630Y55512D02*
X236129D01*
X235380Y54762D02*
Y56262D01*
X231632Y55512D02*
X233132D01*
X232382Y54762D02*
Y56262D01*
X256435Y108858D02*
X257935D01*
X257185Y108108D02*
Y109608D01*
X256435Y112992D02*
X257935D01*
X257185Y112242D02*
Y113742D01*
X198167Y73425D02*
X199667D01*
X198917Y72675D02*
Y74175D01*
X157026Y66339D02*
X158526D01*
X157776Y65589D02*
Y67089D01*
X169821Y66339D02*
X171321D01*
X170571Y65589D02*
Y67089D01*
X215490Y63386D02*
X216990D01*
X216240Y62636D02*
Y64136D01*
X215490Y66437D02*
X216990D01*
X216240Y65687D02*
Y67187D01*
X206382Y59500D02*
X207881D01*
X207132Y58750D02*
Y60250D01*
X174053Y70079D02*
X175553D01*
X174803Y69329D02*
Y70829D01*
X202498Y78347D02*
X203998D01*
X203248Y77596D02*
Y79097D01*
X205451Y84055D02*
X206951D01*
X206201Y83305D02*
Y84805D01*
X211652Y88386D02*
X213152D01*
X212402Y87636D02*
Y89136D01*
X214604Y88386D02*
X216104D01*
X215354Y87636D02*
Y89136D01*
X202498Y84055D02*
X203998D01*
X203248Y83305D02*
Y84805D01*
X205451Y78347D02*
X206951D01*
X206201Y77596D02*
Y79097D01*
X170147Y78307D02*
X171647D01*
X170897Y77557D02*
Y79058D01*
X167194Y78307D02*
X168694D01*
X167944Y77557D02*
Y79058D01*
X202695Y66043D02*
X204195D01*
X203445Y65293D02*
Y66793D01*
X209388Y59500D02*
X210888D01*
X210138Y58750D02*
Y60250D01*
X212439Y59500D02*
X213939D01*
X213189Y58750D02*
Y60250D01*
X168443Y55512D02*
X169943D01*
X169193Y54762D02*
Y56262D01*
X165392Y55512D02*
X166892D01*
X166142Y54762D02*
Y56262D01*
X162385Y55512D02*
X163885D01*
X163135Y54762D02*
Y56262D01*
X184191Y108858D02*
X185691D01*
X184941Y108108D02*
Y109608D01*
X125923Y73327D02*
X127423D01*
X126673Y72577D02*
Y74077D01*
X84781Y63287D02*
X86282D01*
X85532Y62537D02*
Y64037D01*
X84781Y66339D02*
X86282D01*
X85532Y65589D02*
Y67089D01*
X97577Y66339D02*
X99077D01*
X98327Y65589D02*
Y67089D01*
X97577Y63287D02*
X99077D01*
X98327Y62537D02*
Y64037D01*
X143246Y63386D02*
X144746D01*
X143996Y62636D02*
Y64136D01*
X143246Y66437D02*
X144746D01*
X143996Y65687D02*
Y67187D01*
X135417Y59500D02*
X136917D01*
X136167Y58750D02*
Y60250D01*
X130254Y78347D02*
X131754D01*
X131004Y77596D02*
Y79097D01*
X133207Y84252D02*
X134707D01*
X133957Y83502D02*
Y85002D01*
X130254Y84252D02*
X131754D01*
X131004Y83502D02*
Y85002D01*
X133207Y78347D02*
X134707D01*
X133957Y77596D02*
Y79097D01*
X97903Y78307D02*
X99403D01*
X98653Y77557D02*
Y79058D01*
X94950Y78307D02*
X96450D01*
X95700Y77557D02*
Y79058D01*
X108502Y95768D02*
X110002D01*
X109252Y95018D02*
Y96518D01*
X138423Y59500D02*
X139923D01*
X139173Y58750D02*
Y60250D01*
X141474Y59500D02*
X142974D01*
X142224Y58750D02*
Y60250D01*
X96199Y55512D02*
X97699D01*
X96949Y54762D02*
Y56262D01*
X87144Y55512D02*
X88644D01*
X87894Y54762D02*
Y56262D01*
X111947Y108858D02*
X113447D01*
X112697Y108108D02*
Y109608D01*
X39703Y108858D02*
X41203D01*
X40453Y108108D02*
Y109608D01*
X14900Y55512D02*
X16400D01*
X15650Y54762D02*
Y56262D01*
X17897Y55512D02*
X19397D01*
X18647Y54762D02*
Y56262D01*
X20903Y55512D02*
X22403D01*
X21654Y54762D02*
Y56262D01*
X22706Y78307D02*
X24206D01*
X23456Y77557D02*
Y79058D01*
X25659Y78307D02*
X27159D01*
X26409Y77557D02*
Y79058D01*
X14506Y80905D02*
X16006D01*
X15256Y80155D02*
Y81656D01*
X11553Y80905D02*
X13053D01*
X12303Y80155D02*
Y81656D01*
X60963Y84252D02*
X62463D01*
X61713Y83502D02*
Y85002D01*
X58010Y78347D02*
X59510D01*
X58760Y77596D02*
Y79097D01*
X403850Y185200D02*
X405350D01*
X404600Y184450D02*
Y185950D01*
X377650Y155400D02*
X379150D01*
X378400Y154650D02*
Y156150D01*
X377150Y145900D02*
X378650D01*
X377900Y145150D02*
Y146650D01*
X398989Y180270D02*
X400489D01*
X399739Y179520D02*
Y181020D01*
X27095Y310500D02*
X28595D01*
X27845Y309750D02*
Y311250D01*
X45205Y310500D02*
X46705D01*
X45955Y309750D02*
Y311250D01*
X36150Y319555D02*
X37650D01*
X36900Y318805D02*
Y320305D01*
X36150Y301445D02*
X37650D01*
X36900Y300695D02*
Y302195D01*
X144474Y271555D02*
X145974D01*
X145224Y270805D02*
Y272305D01*
X182250Y159200D02*
X183750D01*
X183000Y158450D02*
Y159950D01*
X159419Y189493D02*
X160919D01*
X160169Y188743D02*
Y190243D01*
X169624Y190453D02*
X171124D01*
X170374Y189703D02*
Y191203D01*
X211282Y201205D02*
X212782D01*
X212032Y200455D02*
Y201955D01*
X205609Y215738D02*
X207108D01*
X206359Y214988D02*
Y216488D01*
X215442Y238327D02*
X216942D01*
X216192Y237577D02*
Y239077D01*
X34298Y274641D02*
X35798D01*
X35048Y273891D02*
Y275391D01*
X27211Y272986D02*
X28711D01*
X27961Y272236D02*
Y273736D01*
X27018Y292677D02*
X28518D01*
X27768Y291928D02*
Y293427D01*
X17249Y277829D02*
X18749D01*
X17999Y277079D02*
Y278579D01*
X17289Y283912D02*
X18789D01*
X18039Y283162D02*
Y284662D01*
X8328Y295182D02*
X9828D01*
X9078Y294432D02*
Y295932D01*
X51043Y307434D02*
X52543D01*
X51793Y306684D02*
Y308184D01*
X50899Y303489D02*
X52399D01*
X51649Y302739D02*
Y304239D01*
X50847Y299648D02*
X52347D01*
X51597Y298898D02*
Y300398D01*
X377350Y150200D02*
X378850D01*
X378100Y149450D02*
Y150950D01*
X399350Y160656D02*
X400850D01*
X400100Y159906D02*
Y161406D01*
X382550Y157956D02*
X384050D01*
X383300Y157206D02*
Y158706D01*
X379250Y160656D02*
X380750D01*
X380000Y159906D02*
Y161406D01*
X379250Y141800D02*
X380750D01*
X380000Y141050D02*
Y142550D01*
X382550Y139100D02*
X384050D01*
X383300Y138350D02*
Y139850D01*
X392650Y160656D02*
X394150D01*
X393400Y159906D02*
Y161406D01*
X237558Y195764D02*
X239057D01*
X238307Y195014D02*
Y196514D01*
X235564Y197771D02*
X237064D01*
X236314Y197021D02*
Y198521D01*
X211272Y209829D02*
X212772D01*
X212022Y209079D02*
Y210579D01*
X218639Y209922D02*
X220139D01*
X219389Y209172D02*
Y210672D01*
X214995Y215774D02*
X216495D01*
X215745Y215024D02*
Y216525D01*
X155723Y211766D02*
X157223D01*
X156473Y211016D02*
Y212516D01*
X205863Y245664D02*
X207363D01*
X206613Y244914D02*
Y246414D01*
X97150Y231800D02*
X98650D01*
X97900Y231050D02*
Y232550D01*
X153150Y184500D02*
X154650D01*
X153900Y183750D02*
Y185250D01*
X214959Y201733D02*
X216459D01*
X215708Y200983D02*
Y202483D01*
X222362Y195078D02*
X223862D01*
X223112Y194327D02*
Y195827D01*
X214969Y209838D02*
X216469D01*
X215719Y209088D02*
Y210588D01*
X218662Y201895D02*
X220162D01*
X219412Y201146D02*
Y202645D01*
X219750Y235500D02*
X221250D01*
X220500Y234750D02*
Y236250D01*
X311437Y207489D02*
X312937D01*
X312187Y206739D02*
Y208239D01*
X286502Y170984D02*
X288002D01*
X287252Y170235D02*
Y171734D01*
X281602Y171174D02*
X283102D01*
X282352Y170424D02*
Y171924D01*
X71143Y97640D02*
X72643D01*
X71893Y96890D02*
Y98390D01*
X71143Y104040D02*
X72643D01*
X71893Y103290D02*
Y104790D01*
X74143Y99040D02*
X75643D01*
X74893Y98290D02*
Y99790D01*
X74143Y102540D02*
X75643D01*
X74893Y101790D02*
Y103290D01*
X56489Y112794D02*
X57989D01*
X57239Y112045D02*
Y113544D01*
X59627Y109895D02*
X61127D01*
X60377Y109144D02*
Y110644D01*
X65827Y109895D02*
X67327D01*
X66577Y109144D02*
Y110644D01*
X62689Y112794D02*
X64189D01*
X63439Y112045D02*
Y113544D01*
X63343Y99140D02*
X64843D01*
X64093Y98390D02*
Y99890D01*
X63343Y102640D02*
X64843D01*
X64093Y101890D02*
Y103390D01*
X66343Y97640D02*
X67843D01*
X67093Y96890D02*
Y98390D01*
X66343Y104040D02*
X67843D01*
X67093Y103290D02*
Y104790D01*
X385915Y160600D02*
X387415D01*
X386665Y159850D02*
Y161350D01*
X389250Y157956D02*
X390750D01*
X390000Y157206D02*
Y158706D01*
X289250Y35306D02*
X290750D01*
X290000Y34556D02*
Y36056D01*
X262950Y28800D02*
X264450D01*
X263700Y28050D02*
Y29550D01*
X259650Y28800D02*
X261150D01*
X260400Y28050D02*
Y29550D01*
X279250Y29700D02*
X280750D01*
X280000Y28950D02*
Y30450D01*
X209050Y28700D02*
X210550D01*
X209800Y27950D02*
Y29450D01*
X205750Y28700D02*
X207250D01*
X206500Y27950D02*
Y29450D01*
X155950Y25500D02*
X157450D01*
X156700Y24750D02*
Y26250D01*
X155950Y22200D02*
X157450D01*
X156700Y21450D02*
Y22950D01*
X179250Y35800D02*
X180750D01*
X180000Y35050D02*
Y36550D01*
X169470Y28223D02*
X170970D01*
X170220Y27473D02*
Y28973D01*
X82750Y25700D02*
X84250D01*
X83500Y24950D02*
Y26450D01*
X82750Y28900D02*
X84250D01*
X83500Y28150D02*
Y29650D01*
X82750Y32100D02*
X84250D01*
X83500Y31350D02*
Y32850D01*
X61893Y59500D02*
X63393D01*
X62643Y58750D02*
Y60250D01*
X69450Y38500D02*
X70950D01*
X70200Y37750D02*
Y39250D01*
X69450Y35300D02*
X70950D01*
X70200Y34550D02*
Y36050D01*
X58859Y38500D02*
X60360D01*
X59610Y37750D02*
Y39250D01*
X58859Y35300D02*
X60360D01*
X59610Y34550D02*
Y36050D01*
X50150Y22100D02*
X51650D01*
X50900Y21350D02*
Y22850D01*
X49850Y28600D02*
X51350D01*
X50600Y27850D02*
Y29350D01*
X23450Y28948D02*
X24950D01*
X24200Y28198D02*
Y29698D01*
X28950Y26000D02*
X30450D01*
X29700Y25250D02*
Y26750D01*
X33650Y25500D02*
X35150D01*
X34400Y24750D02*
Y26250D01*
X37150Y25500D02*
X38650D01*
X37900Y24750D02*
Y26250D01*
X385864Y334646D02*
X387364D01*
X386614Y333896D02*
Y335396D01*
X385766Y341732D02*
X387266D01*
X386516Y340982D02*
Y342482D01*
X387144Y338189D02*
X388644D01*
X387894Y337439D02*
Y338939D01*
X369427Y344488D02*
X370927D01*
X370177Y343738D02*
Y345238D01*
X379663Y344488D02*
X381163D01*
X380413Y343738D02*
Y345238D01*
X376317Y344488D02*
X377817D01*
X377067Y343738D02*
Y345238D01*
X310766Y329134D02*
X312266D01*
X311516Y328384D02*
Y329884D01*
X303581Y333858D02*
X305081D01*
X304331Y333108D02*
Y334608D01*
X317163Y329232D02*
X318663D01*
X317913Y328482D02*
Y329982D01*
X303581Y343701D02*
X305081D01*
X304331Y342951D02*
Y344451D01*
X305549Y330709D02*
X307049D01*
X306299Y329959D02*
Y331459D01*
X303581Y337205D02*
X305081D01*
X304331Y336455D02*
Y337955D01*
X303581Y340453D02*
X305081D01*
X304331Y339703D02*
Y341203D01*
X317550Y293000D02*
X319050D01*
X318300Y292250D02*
Y293750D01*
X359250Y294500D02*
X360750D01*
X360000Y293750D02*
Y295250D01*
X338750Y292300D02*
X340250D01*
X339500Y291550D02*
Y293050D01*
X362750Y292700D02*
X364250D01*
X363500Y291950D02*
Y293450D01*
X354550Y294500D02*
X356050D01*
X355300Y293750D02*
Y295250D01*
X351150Y291800D02*
X352650D01*
X351900Y291050D02*
Y292550D01*
X350950Y278200D02*
X352450D01*
X351700Y277450D02*
Y278950D01*
X290785Y277284D02*
X292285D01*
X291535Y276534D02*
Y278033D01*
X285250Y288600D02*
X286750D01*
X286000Y287850D02*
Y289350D01*
X246050Y358448D02*
X247550D01*
X246800Y357698D02*
Y359198D01*
X290550Y284700D02*
X292050D01*
X291300Y283950D02*
Y285450D01*
X285550Y296748D02*
X287050D01*
X286300Y295998D02*
Y297498D01*
X291450Y296648D02*
X292950D01*
X292200Y295898D02*
Y297398D01*
X212525Y289876D02*
X214025D01*
X213275Y289126D02*
Y290626D01*
X249888Y366043D02*
X251388D01*
X250638Y365293D02*
Y366793D01*
X250189Y375989D02*
X251689D01*
X250939Y375239D02*
Y376739D01*
X83256Y321651D02*
X84756D01*
X84006Y320901D02*
Y322401D01*
X75350Y316804D02*
X76850D01*
X76100Y316054D02*
Y317554D01*
X203950Y336600D02*
X205450D01*
X204700Y335850D02*
Y337350D01*
X180650Y381300D02*
X182150D01*
X181400Y380550D02*
Y382050D01*
X180650Y389000D02*
X182150D01*
X181400Y388250D02*
Y389750D01*
X194050Y389200D02*
X195550D01*
X194800Y388450D02*
Y389950D01*
X193950Y381200D02*
X195450D01*
X194700Y380450D02*
Y381950D01*
X180650Y385100D02*
X182150D01*
X181400Y384350D02*
Y385850D01*
X193850Y385100D02*
X195350D01*
X194600Y384350D02*
Y385850D01*
X187636Y301083D02*
X189136D01*
X188386Y300333D02*
Y301833D01*
X396556Y119000D02*
X398056D01*
X397306Y118250D02*
Y119750D01*
X361566Y383092D02*
X363066D01*
X362316Y382342D02*
Y383842D01*
X93350Y299900D02*
X94850D01*
X94100Y299150D02*
Y300650D01*
X58301Y288180D02*
X59801D01*
X59051Y287430D02*
Y288930D01*
X124688Y294985D02*
X126188D01*
X125438Y294235D02*
Y295735D01*
X110550Y243500D02*
X112050D01*
X111300Y242750D02*
Y244250D01*
X64350Y286500D02*
X65850D01*
X65100Y285750D02*
Y287250D01*
X110807Y248385D02*
X112307D01*
X111557Y247635D02*
Y249135D01*
X41150Y256581D02*
X42650D01*
X41900Y255831D02*
Y257331D01*
X40850Y263981D02*
X42350D01*
X41600Y263231D02*
Y264731D01*
X40650Y260281D02*
X42150D01*
X41400Y259531D02*
Y261031D01*
X4050Y266200D02*
X5550D01*
X4800Y265450D02*
Y266950D01*
X171951Y180087D02*
X173451D01*
X172701Y179337D02*
Y180836D01*
X163550Y183800D02*
X165050D01*
X164300Y183050D02*
Y184550D01*
X163550Y180100D02*
X165050D01*
X164300Y179350D02*
Y180850D01*
X161141Y243376D02*
X162641D01*
X161891Y242626D02*
Y244126D01*
X171001Y246946D02*
X172501D01*
X171751Y246196D02*
Y247696D01*
X163470Y329000D02*
X164970D01*
X164220Y328250D02*
Y329750D01*
X211150Y322900D02*
X212650D01*
X211900Y322150D02*
Y323650D01*
X220270Y317100D02*
X221770D01*
X221020Y316350D02*
Y317850D01*
X71002Y66437D02*
X72502D01*
X71752Y65687D02*
Y67187D01*
X71002Y63386D02*
X72502D01*
X71752Y62636D02*
Y64136D01*
X25333Y63287D02*
X26833D01*
X26083Y62537D02*
Y64037D01*
X25333Y66339D02*
X26833D01*
X26083Y65589D02*
Y67089D01*
X12537Y63287D02*
X14037D01*
X13287Y62537D02*
Y64037D01*
X4450Y333200D02*
X5950D01*
X5200Y332450D02*
Y333950D01*
X399348Y212106D02*
X400848D01*
X400098Y211356D02*
Y212856D01*
X377498Y206201D02*
X378998D01*
X378248Y205451D02*
Y206951D01*
X403056Y119000D02*
X404556D01*
X403806Y118250D02*
Y119750D01*
X403056Y103500D02*
X404556D01*
X403806Y102750D02*
Y104250D01*
X217230Y317100D02*
X218730D01*
X217980Y316350D02*
Y317850D01*
X216750Y321600D02*
X218250D01*
X217500Y320850D02*
Y322350D01*
X226350Y317100D02*
X227850D01*
X227100Y316350D02*
Y317850D01*
X67250Y251600D02*
X68750D01*
X68000Y250850D02*
Y252350D01*
X211150Y320000D02*
X212650D01*
X211900Y319250D02*
Y320750D01*
X214190Y317100D02*
X215690D01*
X214940Y316350D02*
Y317850D01*
X121981Y288787D02*
X123481D01*
X122731Y288037D02*
Y289537D01*
X4450Y328900D02*
X5950D01*
X5200Y328150D02*
Y329650D01*
X131150Y329700D02*
X132650D01*
X131900Y328950D02*
Y330450D01*
X90845Y325295D02*
X92344D01*
X91594Y324545D02*
Y326045D01*
X91250Y329700D02*
X92750D01*
X92000Y328950D02*
Y330450D01*
X223310Y317100D02*
X224810D01*
X224060Y316350D02*
Y317850D01*
X211150Y317100D02*
X212650D01*
X211900Y316350D02*
Y317850D01*
X96150Y329800D02*
X97650D01*
X96900Y329050D02*
Y330550D01*
X136450Y329600D02*
X137950D01*
X137200Y328850D02*
Y330350D01*
X47450Y325200D02*
X48950D01*
X48200Y324450D02*
Y325950D01*
X96750Y325295D02*
X98250D01*
X97500Y324545D02*
Y326045D01*
X221950Y321600D02*
X223450D01*
X222700Y320850D02*
Y322350D01*
X377498Y199508D02*
X378998D01*
X378248Y198758D02*
Y200258D01*
X399250Y193701D02*
X400750D01*
X400000Y192951D02*
Y194451D01*
X396002Y212106D02*
X397502D01*
X396752Y211356D02*
Y212856D01*
X377498Y202854D02*
X378998D01*
X378248Y202104D02*
Y203604D01*
X152250Y245222D02*
X153750D01*
X153000Y244472D02*
Y245972D01*
X132150Y245500D02*
X133650D01*
X132900Y244750D02*
Y246250D01*
X132150Y249300D02*
X133650D01*
X132900Y248550D02*
Y250050D01*
X222363Y188616D02*
X223863D01*
X223113Y187866D02*
Y189366D01*
X205865Y249167D02*
X207365D01*
X206615Y248417D02*
Y249917D01*
X156837Y184493D02*
X158337D01*
X157587Y183743D02*
Y185243D01*
X3750Y313900D02*
X5250D01*
X4500Y313150D02*
Y314650D01*
X163370Y342000D02*
X164870D01*
X164120Y341250D02*
Y342750D01*
X384850Y36200D02*
X386350D01*
X385600Y35450D02*
Y36950D01*
X64050Y282700D02*
X65550D01*
X64800Y281950D02*
Y283450D01*
X60550Y276600D02*
X62050D01*
X61300Y275850D02*
Y277350D01*
X284550Y276448D02*
X286050D01*
X285300Y275698D02*
Y277198D01*
X251450Y296100D02*
X252950D01*
X252200Y295350D02*
Y296850D01*
X304219Y396063D02*
X305718D01*
X304969Y395313D02*
Y396813D01*
X350282Y394193D02*
X351782D01*
X351031Y393443D02*
Y394943D01*
X336207Y396654D02*
X337707D01*
X336957Y395904D02*
Y397404D01*
X78350Y355900D02*
X79850D01*
X79100Y355150D02*
Y356650D01*
X153850Y385100D02*
X155350D01*
X154600Y384350D02*
Y385850D01*
X140650Y385100D02*
X142150D01*
X141400Y384350D02*
Y385850D01*
X123950Y368700D02*
X125450D01*
X124700Y367950D02*
Y369450D01*
X153950Y381200D02*
X155450D01*
X154700Y380450D02*
Y381950D01*
X154050Y389200D02*
X155550D01*
X154800Y388450D02*
Y389950D01*
X140650Y389000D02*
X142150D01*
X141400Y388250D02*
Y389750D01*
X140650Y381300D02*
X142150D01*
X141400Y380550D02*
Y382050D01*
X84450Y368900D02*
X85950D01*
X85200Y368150D02*
Y369650D01*
X40850Y357400D02*
X42350D01*
X41600Y356650D02*
Y358150D01*
X141050Y369900D02*
X142550D01*
X141800Y369150D02*
Y370650D01*
X154050Y369700D02*
X155550D01*
X154800Y368950D02*
Y370450D01*
X114050Y369700D02*
X115550D01*
X114800Y368950D02*
Y370450D01*
X101050Y369900D02*
X102550D01*
X101800Y369150D02*
Y370650D01*
X100650Y381300D02*
X102150D01*
X101400Y380550D02*
Y382050D01*
X100650Y389000D02*
X102150D01*
X101400Y388250D02*
Y389750D01*
X114050Y389200D02*
X115550D01*
X114800Y388450D02*
Y389950D01*
X113950Y381200D02*
X115450D01*
X114700Y380450D02*
Y381950D01*
X100650Y385100D02*
X102150D01*
X101400Y384350D02*
Y385850D01*
X113850Y385100D02*
X115350D01*
X114600Y384350D02*
Y385850D01*
X74673Y371097D02*
X76173D01*
X75423Y370347D02*
Y371847D01*
X60804Y371009D02*
X62304D01*
X61554Y370259D02*
Y371759D01*
X60650Y381300D02*
X62150D01*
X61400Y380550D02*
Y382050D01*
X60650Y389000D02*
X62150D01*
X61400Y388250D02*
Y389750D01*
X74050Y389200D02*
X75550D01*
X74800Y388450D02*
Y389950D01*
X73950Y381200D02*
X75450D01*
X74700Y380450D02*
Y381950D01*
X60650Y385100D02*
X62150D01*
X61400Y384350D02*
Y385850D01*
X73850Y385100D02*
X75350D01*
X74600Y384350D02*
Y385850D01*
X46950Y356100D02*
X48450D01*
X47700Y355350D02*
Y356850D01*
X118200Y355900D02*
X119700D01*
X118950Y355150D02*
Y356650D01*
X82850Y353700D02*
X84350D01*
X83600Y352950D02*
Y354450D01*
X82850Y344600D02*
X84350D01*
X83600Y343850D02*
Y345350D01*
X122950Y344600D02*
X124450D01*
X123700Y343850D02*
Y345350D01*
X122950Y353700D02*
X124450D01*
X123700Y352950D02*
Y354450D01*
X158300Y355900D02*
X159800D01*
X159050Y355150D02*
Y356650D01*
X203050Y360200D02*
X204550D01*
X203800Y359450D02*
Y360950D01*
X83150Y362200D02*
X84650D01*
X83900Y361450D02*
Y362950D01*
X123050Y362400D02*
X124550D01*
X123800Y361650D02*
Y363150D01*
X234350Y356148D02*
X235850D01*
X235100Y355398D02*
Y356898D01*
X220350Y353948D02*
X221850D01*
X221100Y353198D02*
Y354698D01*
X209250Y330000D02*
X210750D01*
X210000Y329250D02*
Y330750D01*
X209250Y340000D02*
X210750D01*
X210000Y339250D02*
Y340750D01*
X209150Y335200D02*
X210650D01*
X209900Y334450D02*
Y335950D01*
X205050Y350000D02*
X206550D01*
X205800Y349250D02*
Y350750D01*
X214250Y350000D02*
X215750D01*
X215000Y349250D02*
Y350750D01*
X224250Y350000D02*
X225750D01*
X225000Y349250D02*
Y350750D01*
X235450Y343148D02*
X236950D01*
X236200Y342398D02*
Y343898D01*
X367629Y398244D02*
X369129D01*
X368379Y397494D02*
Y398994D01*
X363629Y398244D02*
X365129D01*
X364379Y397494D02*
Y398994D01*
X357729Y398244D02*
X359229D01*
X358479Y397494D02*
Y398994D01*
X367663Y387795D02*
X369163D01*
X368413Y387045D02*
Y388545D01*
X390908Y370063D02*
X392408D01*
X391658Y369313D02*
Y370813D01*
X18150Y265000D02*
X19650D01*
X18900Y264250D02*
Y265750D01*
X32850Y14800D02*
X34350D01*
X33600Y14050D02*
Y15550D01*
X204650Y134300D02*
X206150D01*
X205400Y133550D02*
Y135050D01*
X119781Y339075D02*
X121282D01*
X120531Y338325D02*
Y339825D01*
X159670Y329100D02*
X161170D01*
X160420Y328350D02*
Y329850D01*
X131100Y325295D02*
X132600D01*
X131850Y324545D02*
Y326045D01*
X128148Y325295D02*
X129648D01*
X128898Y324545D02*
Y326045D01*
X76573Y326476D02*
X78073D01*
X77323Y325726D02*
Y327226D01*
X116730Y326575D02*
X118230D01*
X117480Y325825D02*
Y327325D01*
X137006Y325295D02*
X138506D01*
X137756Y324545D02*
Y326045D01*
X134053Y325295D02*
X135553D01*
X134803Y324545D02*
Y326045D01*
X139959Y325295D02*
X141459D01*
X140709Y324545D02*
Y326045D01*
X93797Y325295D02*
X95297D01*
X94547Y324545D02*
Y326045D01*
X99703Y325295D02*
X101203D01*
X100453Y324545D02*
Y326045D01*
X51450Y325200D02*
X52950D01*
X52200Y324450D02*
Y325950D01*
X59450Y325200D02*
X60950D01*
X60200Y324450D02*
Y325950D01*
X55450Y325200D02*
X56950D01*
X56200Y324450D02*
Y325950D01*
X46459Y329741D02*
X47959D01*
X47209Y328991D02*
Y330490D01*
X51450Y329700D02*
X52950D01*
X52200Y328950D02*
Y330450D01*
X56350Y329700D02*
X57850D01*
X57100Y328950D02*
Y330450D01*
X163681Y314830D02*
X165181D01*
X164431Y314080D02*
Y315580D01*
X87898Y325311D02*
X89398D01*
X88648Y324561D02*
Y326061D01*
X74409Y320474D02*
X75909D01*
X75159Y319724D02*
Y321224D01*
X79427Y338976D02*
X80927D01*
X80177Y338226D02*
Y339726D01*
X192428Y348040D02*
X193928D01*
X193178Y347290D02*
Y348790D01*
X173113Y344263D02*
X174613D01*
X173863Y343513D02*
Y345013D01*
X19250Y368700D02*
X20750D01*
X20000Y367950D02*
Y369450D01*
X31150Y336026D02*
X32650D01*
X31900Y335276D02*
Y336776D01*
X44850Y369500D02*
X46350D01*
X45600Y368750D02*
Y370250D01*
X32000Y350150D02*
X33500D01*
X32750Y349400D02*
Y350900D01*
X201650Y366800D02*
X203150D01*
X202400Y366050D02*
Y367550D01*
X96450Y25400D02*
X97950D01*
X97200Y24650D02*
Y26150D01*
X96450Y22100D02*
X97950D01*
X97200Y21350D02*
Y22850D01*
X109650Y29000D02*
X111150D01*
X110400Y28250D02*
Y29750D01*
X109650Y25800D02*
X111150D01*
X110400Y25050D02*
Y26550D01*
X119750Y36000D02*
X121250D01*
X120500Y35250D02*
Y36750D01*
X129762Y35138D02*
X131262D01*
X130512Y34388D02*
Y35888D01*
X129762Y38438D02*
X131262D01*
X130512Y37688D02*
Y39188D01*
X90490Y25689D02*
X91990D01*
X91240Y24939D02*
Y26439D01*
X90490Y22389D02*
X91990D01*
X91240Y21639D02*
Y23139D01*
X328750Y22100D02*
X330250D01*
X329500Y21350D02*
Y22850D01*
X328750Y25400D02*
X330250D01*
X329500Y24650D02*
Y26150D01*
X348750Y35205D02*
X350250D01*
X349500Y34455D02*
Y35955D01*
X358750Y38702D02*
X360250D01*
X359500Y37952D02*
Y39452D01*
X358750Y35402D02*
X360250D01*
X359500Y34652D02*
Y36152D01*
X368750Y38900D02*
X370250D01*
X369500Y38150D02*
Y39650D01*
X368750Y35600D02*
X370250D01*
X369500Y34850D02*
Y36350D01*
X399731Y119752D02*
X401231D01*
X400481Y119002D02*
Y120502D01*
X398831Y123052D02*
X400331D01*
X399581Y122302D02*
Y123802D01*
X398831Y126252D02*
X400331D01*
X399581Y125502D02*
Y127002D01*
X398831Y132652D02*
X400331D01*
X399581Y131902D02*
Y133402D01*
X398831Y129452D02*
X400331D01*
X399581Y128702D02*
Y130202D01*
X381950Y55500D02*
X383450D01*
X382700Y54750D02*
Y56250D01*
X383950Y53000D02*
X385450D01*
X384700Y52250D02*
Y53750D01*
X384050Y58000D02*
X385550D01*
X384800Y57250D02*
Y58750D01*
X398050Y53000D02*
X399550D01*
X398800Y52250D02*
Y53750D01*
X398150Y58000D02*
X399650D01*
X398900Y57250D02*
Y58750D01*
X400150Y55500D02*
X401650D01*
X400900Y54750D02*
Y56250D01*
X400150Y45500D02*
X401650D01*
X400900Y44750D02*
Y46250D01*
X398150Y48000D02*
X399650D01*
X398900Y47250D02*
Y48750D01*
X398050Y43000D02*
X399550D01*
X398800Y42250D02*
Y43750D01*
X384050Y48000D02*
X385550D01*
X384800Y47250D02*
Y48750D01*
X383950Y43000D02*
X385450D01*
X384700Y42250D02*
Y43750D01*
X381950Y45500D02*
X383450D01*
X382700Y44750D02*
Y46250D01*
X400150Y65500D02*
X401650D01*
X400900Y64750D02*
Y66250D01*
X398150Y68000D02*
X399650D01*
X398900Y67250D02*
Y68750D01*
X398050Y63000D02*
X399550D01*
X398800Y62250D02*
Y63750D01*
X384050Y68000D02*
X385550D01*
X384800Y67250D02*
Y68750D01*
X383950Y63000D02*
X385450D01*
X384700Y62250D02*
Y63750D01*
X381950Y65500D02*
X383450D01*
X382700Y64750D02*
Y66250D01*
X400150Y75500D02*
X401650D01*
X400900Y74750D02*
Y76250D01*
X398150Y78000D02*
X399650D01*
X398900Y77250D02*
Y78750D01*
X398050Y73000D02*
X399550D01*
X398800Y72250D02*
Y73750D01*
X384050Y78000D02*
X385550D01*
X384800Y77250D02*
Y78750D01*
X383950Y73000D02*
X385450D01*
X384700Y72250D02*
Y73750D01*
X381950Y75500D02*
X383450D01*
X382700Y74750D02*
Y76250D01*
X261702Y171119D02*
X263202D01*
X262452Y170369D02*
Y171869D01*
X266602Y171119D02*
X268102D01*
X267352Y170369D02*
Y171869D01*
X152067Y201414D02*
X153568D01*
X152817Y200664D02*
Y202164D01*
X152587Y211754D02*
X154087D01*
X153337Y211004D02*
Y212504D01*
X162548Y286847D02*
X164048D01*
X163298Y286097D02*
Y287597D01*
X137782Y297085D02*
X139282D01*
X138532Y296336D02*
Y297835D01*
X175150Y291800D02*
X176650D01*
X175900Y291050D02*
Y292550D01*
X180175Y291825D02*
X181676D01*
X180926Y291075D02*
Y292575D01*
X185112Y291825D02*
X186612D01*
X185862Y291075D02*
Y292575D01*
X190128Y291795D02*
X191628D01*
X190878Y291045D02*
Y292545D01*
X195154Y291875D02*
X196654D01*
X195904Y291125D02*
Y292625D01*
X133066Y300213D02*
X134566D01*
X133816Y299463D02*
Y300963D01*
X132995Y291237D02*
X134495D01*
X133745Y290487D02*
Y291987D01*
X121924Y279322D02*
X123424D01*
X122674Y278572D02*
Y280072D01*
X144868Y282185D02*
X146368D01*
X145618Y281435D02*
Y282935D01*
X149781Y300347D02*
X151281D01*
X150531Y299597D02*
Y301097D01*
X167874Y300136D02*
X169374D01*
X168624Y299386D02*
Y300886D01*
X157414Y282549D02*
X158914D01*
X158164Y281799D02*
Y283299D01*
X260950Y293000D02*
X262450D01*
X261700Y292250D02*
Y293750D01*
X208745Y289855D02*
X210245D01*
X209495Y289105D02*
Y290605D01*
X172235Y304026D02*
X173735D01*
X172985Y303276D02*
Y304776D01*
X172254Y300427D02*
X173754D01*
X173004Y299677D02*
Y301177D01*
X172274Y296947D02*
X173774D01*
X173024Y296197D02*
Y297697D01*
X198995Y336663D02*
X200495D01*
X199745Y335913D02*
Y337413D01*
X123248Y321597D02*
X124748D01*
X123998Y320847D02*
Y322347D01*
X70799Y306068D02*
X72299D01*
X71549Y305318D02*
Y306818D01*
X201050Y266100D02*
X202550D01*
X201800Y265350D02*
Y266850D01*
X9602Y206826D02*
X11102D01*
X10352Y206076D02*
Y207576D01*
X34140Y206681D02*
X35640D01*
X34890Y205931D02*
Y207431D01*
X42110Y206488D02*
X43610D01*
X42860Y205738D02*
Y207238D01*
X48679Y210883D02*
X50179D01*
X49429Y210134D02*
Y211633D01*
X9716Y215252D02*
X11216D01*
X10466Y214502D02*
Y216002D01*
X9572Y224431D02*
X11072D01*
X10322Y223681D02*
Y225181D01*
X9499Y233826D02*
X10999D01*
X10249Y233076D02*
Y234576D01*
X9499Y242861D02*
X10999D01*
X10249Y242111D02*
Y243611D01*
X9584Y251633D02*
X11084D01*
X10334Y250883D02*
Y252383D01*
X9520Y260205D02*
X11020D01*
X10270Y259455D02*
Y260955D01*
X24408Y268004D02*
X25908D01*
X25158Y267253D02*
Y268754D01*
X32722Y268068D02*
X34222D01*
X33472Y267318D02*
Y268818D01*
X40392Y270324D02*
X41892D01*
X41142Y269574D02*
Y271074D01*
X45904Y275787D02*
X47403D01*
X46654Y275037D02*
Y276537D01*
X51599Y281379D02*
X53099D01*
X52349Y280629D02*
Y282129D01*
X67550Y247400D02*
X69050D01*
X68300Y246650D02*
Y248150D01*
X77613Y239702D02*
X79113D01*
X78363Y238952D02*
Y240452D01*
X77475Y247632D02*
X78975D01*
X78225Y246882D02*
Y248382D01*
X75907Y294351D02*
X77407D01*
X76657Y293601D02*
Y295101D01*
X75949Y290178D02*
X77449D01*
X76699Y289428D02*
Y290928D01*
X135250Y276300D02*
X136750D01*
X136000Y275550D02*
Y277050D01*
X137650Y274600D02*
X139150D01*
X138400Y273850D02*
Y275350D01*
X137650Y271700D02*
X139150D01*
X138400Y270950D02*
Y272450D01*
X135350Y269900D02*
X136850D01*
X136100Y269150D02*
Y270650D01*
X117835Y275826D02*
X119335D01*
X118585Y275076D02*
Y276576D01*
X129123Y276286D02*
X130623D01*
X129874Y275536D02*
Y277036D01*
X126823Y274486D02*
X128323D01*
X127574Y273736D02*
Y275236D01*
X126823Y271586D02*
X128323D01*
X127574Y270836D02*
Y272336D01*
X129224Y269886D02*
X130724D01*
X129973Y269136D02*
Y270636D01*
X171150Y242700D02*
X172650D01*
X171900Y241950D02*
Y243450D01*
X193687Y238780D02*
X195187D01*
X194437Y238030D02*
Y239530D01*
X201758Y299508D02*
X203258D01*
X202508Y298758D02*
Y300258D01*
X163651Y321984D02*
X165151D01*
X164401Y321234D02*
Y322733D01*
X231993Y323882D02*
X233493D01*
X232743Y323132D02*
Y324632D01*
X210616Y300095D02*
X212116D01*
X211366Y299345D02*
Y300845D01*
X63900Y324964D02*
X65400D01*
X64650Y324214D02*
Y325714D01*
X178669Y343401D02*
X180169D01*
X179419Y342651D02*
Y344151D01*
X50004Y317184D02*
X51504D01*
X50754Y316434D02*
Y317934D01*
X106839Y237797D02*
X108339D01*
X107589Y237047D02*
Y238547D01*
X157050Y276400D02*
X158550D01*
X157800Y275650D02*
Y277150D01*
X258550Y302300D02*
X260050D01*
X259300Y301550D02*
Y303050D01*
X39703Y7874D02*
X41203D01*
X40453Y7124D02*
Y8624D01*
X59781Y7874D02*
X61282D01*
X60532Y7124D02*
Y8624D01*
X59816Y22605D02*
X61316D01*
X60566Y21855D02*
Y23355D01*
X119821Y8366D02*
X121321D01*
X120571Y7616D02*
Y9116D01*
X36696Y372247D02*
X38196D01*
X37446Y371497D02*
Y372997D01*
X153187Y8268D02*
X154687D01*
X153937Y7518D02*
Y9018D01*
X251920Y28643D02*
X253420D01*
X252670Y27893D02*
Y29393D01*
X218874Y28603D02*
X220374D01*
X219623Y27853D02*
Y29353D01*
X229685Y28657D02*
X231185D01*
X230435Y27907D02*
Y29407D01*
X289506Y8071D02*
X291006D01*
X290256Y7321D02*
Y8821D01*
X349053Y7972D02*
X350553D01*
X349803Y7222D02*
Y8722D01*
X349078Y21906D02*
X350578D01*
X349828Y21156D02*
Y22656D01*
X289361Y21355D02*
X290861D01*
X290111Y20605D02*
Y22105D01*
X268370Y21657D02*
X269870D01*
X269120Y20907D02*
Y22407D01*
X240738Y28307D02*
X242238D01*
X241488Y27557D02*
Y29057D01*
X398728Y38037D02*
X400228D01*
X399478Y37286D02*
Y38787D01*
X396644Y172278D02*
X398144D01*
X397394Y171528D02*
Y173028D01*
X380903Y171962D02*
X382403D01*
X381653Y171212D02*
Y172712D01*
X381289Y186642D02*
X382788D01*
X382038Y185892D02*
Y187392D01*
X394259Y186142D02*
X395759D01*
X395009Y185392D02*
Y186892D01*
X397014Y221378D02*
X398514D01*
X397764Y220628D02*
Y222128D01*
X303411Y168032D02*
X304911D01*
X304161Y167282D02*
Y168782D01*
X277750Y182148D02*
X279250D01*
X278500Y181398D02*
Y182898D01*
X184867Y194123D02*
X186367D01*
X185617Y193373D02*
Y194873D01*
X198163Y207323D02*
X199663D01*
X198913Y206573D02*
Y208073D01*
X191539Y200843D02*
X193039D01*
X192289Y200093D02*
Y201593D01*
X199372Y220350D02*
X200872D01*
X200122Y219600D02*
Y221100D01*
X208033Y229637D02*
X209533D01*
X208783Y228887D02*
Y230387D01*
X155550Y222289D02*
X157050D01*
X156300Y221539D02*
Y223039D01*
X150380Y259350D02*
X151880D01*
X151130Y258600D02*
Y260101D01*
X144527Y264527D02*
X146027D01*
X145277Y263777D02*
Y265277D01*
X122598Y248602D02*
X124098D01*
X123348Y247852D02*
Y249352D01*
X122331Y264622D02*
X123831D01*
X123081Y263872D02*
Y265372D01*
X127815Y284560D02*
X129315D01*
X128565Y283810D02*
Y285310D01*
X125694Y306505D02*
X127194D01*
X126444Y305755D02*
Y307255D01*
X94526Y307283D02*
X96026D01*
X95276Y306534D02*
Y308033D01*
X10026Y273425D02*
X11526D01*
X10776Y272675D02*
Y274175D01*
X27763Y286984D02*
X29263D01*
X28513Y286234D02*
Y287734D01*
X81693Y306609D02*
X83193D01*
X82443Y305859D02*
Y307359D01*
X62157Y315799D02*
X63657D01*
X62907Y315050D02*
Y316549D01*
X22266Y318350D02*
X23766D01*
X23016Y317600D02*
Y319100D01*
X9889Y365683D02*
X11389D01*
X10639Y364933D02*
Y366433D01*
X27975Y347824D02*
X29475D01*
X28725Y347074D02*
Y348574D01*
X139298Y311667D02*
X140798D01*
X140048Y310917D02*
Y312417D01*
X329994Y242692D02*
X331494D01*
X330744Y241942D02*
Y243442D01*
X357044Y242925D02*
X358544D01*
X357794Y242175D02*
Y243675D01*
X371325Y195984D02*
X372825D01*
X372075Y195234D02*
Y196734D01*
X366896Y216654D02*
X368396D01*
X367646Y215904D02*
Y217404D01*
X383010Y344488D02*
X384510D01*
X383760Y343738D02*
Y345238D01*
X9656Y337082D02*
X11156D01*
X10406Y336332D02*
Y337832D01*
X32515Y395808D02*
X34015D01*
X33265Y395058D02*
Y396558D01*
X57255Y396837D02*
X58755D01*
X58005Y396087D02*
Y397587D01*
X76559Y396371D02*
X78059D01*
X77309Y395621D02*
Y397121D01*
X96966Y396711D02*
X98466D01*
X97716Y395961D02*
Y397461D01*
X137250Y396913D02*
X138750D01*
X138000Y396163D02*
Y397663D01*
X117138Y396597D02*
X118638D01*
X117888Y395847D02*
Y397347D01*
X177403Y396878D02*
X178903D01*
X178153Y396128D02*
Y397628D01*
X157045Y397159D02*
X158545D01*
X157796Y396409D02*
Y397909D01*
X197636Y396663D02*
X199136D01*
X198386Y395913D02*
Y397413D01*
X217255Y396663D02*
X218755D01*
X218005Y395913D02*
Y397413D01*
X313599Y311901D02*
X315099D01*
X314349Y311151D02*
Y312651D01*
X318192Y298842D02*
X319692D01*
X318942Y298092D02*
Y299592D01*
X336161Y311878D02*
X337661D01*
X336911Y311128D02*
Y312628D01*
X357912Y305446D02*
X359412D01*
X358662Y304696D02*
Y306196D01*
X386731Y132752D02*
X388231D01*
X387481Y132002D02*
Y133502D01*
X389250Y139100D02*
X390750D01*
X390000Y138350D02*
Y139850D01*
X392650Y141900D02*
X394150D01*
X393400Y141150D02*
Y142650D01*
X176612Y185925D02*
X178112D01*
X177362Y185175D02*
Y186675D01*
X191370Y212978D02*
X192870D01*
X192120Y212228D02*
Y213728D01*
X39418Y284921D02*
X40918D01*
X40168Y284171D02*
Y285671D01*
X53778Y95079D02*
X55278D01*
X54528Y94329D02*
Y95829D01*
X67262Y88386D02*
X68762D01*
X68012Y87636D02*
Y89136D01*
X70215Y88386D02*
X71715D01*
X70965Y87636D02*
Y89136D01*
X12537Y66339D02*
X14037D01*
X13287Y65589D02*
Y67089D01*
X344382Y112794D02*
X345882D01*
X345132Y112045D02*
Y113544D01*
X347521Y109895D02*
X349021D01*
X348271Y109144D02*
Y110644D01*
X353721Y109895D02*
X355221D01*
X354471Y109144D02*
Y110644D01*
X350582Y112794D02*
X352082D01*
X351332Y112045D02*
Y113544D01*
X342754Y95079D02*
X344254D01*
X343504Y94329D02*
Y95829D01*
X277859Y104138D02*
X279359D01*
X278609Y103388D02*
Y104888D01*
X274859Y102738D02*
X276359D01*
X275609Y101988D02*
Y103488D01*
X274859Y99238D02*
X276359D01*
X275609Y98488D02*
Y99988D01*
X285659Y102638D02*
X287159D01*
X286409Y101888D02*
Y103388D01*
X285659Y99138D02*
X287159D01*
X286409Y98388D02*
Y99888D01*
X282659Y104138D02*
X284159D01*
X283409Y103388D02*
Y104888D01*
X282659Y97738D02*
X284159D01*
X283409Y96988D02*
Y98488D01*
X365828Y97738D02*
X367328D01*
X366578Y96988D02*
Y98488D01*
X365828Y104138D02*
X367328D01*
X366578Y103388D02*
Y104888D01*
X368828Y99138D02*
X370328D01*
X369578Y98388D02*
Y99888D01*
X368828Y102638D02*
X370328D01*
X369578Y101888D02*
Y103388D01*
X358028Y99238D02*
X359528D01*
X358778Y98488D02*
Y99988D01*
X358028Y102738D02*
X359528D01*
X358778Y101988D02*
Y103488D01*
X361028Y97738D02*
X362528D01*
X361778Y96988D02*
Y98488D01*
X361028Y104138D02*
X362528D01*
X361778Y103388D02*
Y104888D01*
X359585Y125000D02*
X361085D01*
X360335Y124250D02*
Y125750D01*
X296986Y77953D02*
X298486D01*
X297736Y77203D02*
Y78703D01*
X157026Y63287D02*
X158526D01*
X157776Y62537D02*
Y64037D01*
X169821Y63287D02*
X171321D01*
X170571Y62537D02*
Y64037D01*
X294230Y36713D02*
X295730D01*
X294980Y35963D02*
Y37463D01*
X274053Y44685D02*
X275553D01*
X274803Y43935D02*
Y45435D01*
X271888Y46850D02*
X273388D01*
X272638Y46100D02*
Y47600D01*
X302793Y30709D02*
X304293D01*
X303543Y29959D02*
Y31459D01*
X302793Y27756D02*
X304293D01*
X303543Y27006D02*
Y28506D01*
X292382Y48425D02*
X293882D01*
X293132Y47675D02*
Y49175D01*
X292382Y45472D02*
X293882D01*
X293132Y44722D02*
Y46222D01*
X286947Y37598D02*
X288447D01*
X287697Y36848D02*
Y38348D01*
X294230Y39665D02*
X295730D01*
X294980Y38915D02*
Y40415D01*
X316967Y22539D02*
X318466D01*
X317717Y21789D02*
Y23289D01*
X316967Y19239D02*
X318466D01*
X317717Y18489D02*
Y19989D01*
X156041Y31890D02*
X157541D01*
X156791Y31140D02*
Y32640D01*
X218982Y36516D02*
X220481D01*
X219731Y35766D02*
Y37266D01*
X326363Y44488D02*
X327863D01*
X327113Y43738D02*
Y45238D01*
X329663Y44488D02*
X331163D01*
X330413Y43738D02*
Y45238D01*
X333699Y44488D02*
X335199D01*
X334449Y43738D02*
Y45238D01*
X336999Y44488D02*
X338499D01*
X337749Y43738D02*
Y45238D01*
X74250Y110236D02*
X75750D01*
X75000Y109486D02*
Y110986D01*
X82518Y112992D02*
X84018D01*
X83268Y112242D02*
Y113742D01*
X77006Y112992D02*
X78506D01*
X77756Y112242D02*
Y113742D01*
X79762Y110236D02*
X81262D01*
X80512Y109486D02*
Y110986D01*
X147872Y121457D02*
X149372D01*
X148622Y120707D02*
Y122207D01*
X150923Y110236D02*
X152423D01*
X151673Y109486D02*
Y110986D01*
X148167Y112992D02*
X149667D01*
X148917Y112242D02*
Y113742D01*
X153679Y112992D02*
X155179D01*
X154429Y112242D02*
Y113742D01*
X145411Y110236D02*
X146911D01*
X146161Y109486D02*
Y110986D01*
X156435Y124311D02*
X157935D01*
X157185Y123561D02*
Y125061D01*
X150726Y124311D02*
X152226D01*
X151476Y123561D02*
Y125061D01*
X153581Y121457D02*
X155081D01*
X154331Y120707D02*
Y122207D01*
X220018Y121457D02*
X221518D01*
X220768Y120707D02*
Y122207D01*
X223069Y110236D02*
X224569D01*
X223819Y109486D02*
Y110986D01*
X220313Y112992D02*
X221813D01*
X221063Y112242D02*
Y113742D01*
X225825Y112992D02*
X227325D01*
X226575Y112242D02*
Y113742D01*
X217557Y110236D02*
X219057D01*
X218307Y109486D02*
Y110986D01*
X228581Y124311D02*
X230081D01*
X229331Y123561D02*
Y125061D01*
X222872Y124311D02*
X224372D01*
X223622Y123561D02*
Y125061D01*
X225726Y121457D02*
X227226D01*
X226476Y120707D02*
Y122207D01*
X292360Y121457D02*
X293860D01*
X293110Y120707D02*
Y122207D01*
X292557Y110335D02*
X294057D01*
X293307Y109585D02*
Y111085D01*
X289900Y112992D02*
X291400D01*
X290650Y112242D02*
Y113742D01*
X295215Y112992D02*
X296715D01*
X295965Y112242D02*
Y113742D01*
X295215Y124311D02*
X296715D01*
X295965Y123561D02*
Y125061D01*
X298069Y121457D02*
X299569D01*
X298819Y120707D02*
Y122207D01*
X257367Y44685D02*
X258867D01*
X258117Y43935D02*
Y45435D01*
X260667Y44685D02*
X262167D01*
X261417Y43935D02*
Y45435D01*
X179250Y39100D02*
X180750D01*
X180000Y38350D02*
Y39850D01*
X189250Y35200D02*
X190750D01*
X190000Y34450D02*
Y35950D01*
X187485Y48622D02*
X188985D01*
X188235Y47872D02*
Y49372D01*
X190785Y48622D02*
X192285D01*
X191535Y47872D02*
Y49372D01*
X323364Y34163D02*
X324864D01*
X324114Y33413D02*
Y34913D01*
X341770Y38484D02*
X343270D01*
X342520Y37734D02*
Y39234D01*
X383057Y366339D02*
X384557D01*
X383807Y365589D02*
Y367089D01*
X380006Y366339D02*
X381506D01*
X380756Y365589D02*
Y367089D01*
X251050Y355548D02*
X252550D01*
X251800Y354798D02*
Y356298D01*
X92163Y8268D02*
X93663D01*
X92913Y7518D02*
Y9018D01*
X206534Y17717D02*
X208033D01*
X207283Y16966D02*
Y18466D01*
X260274Y8563D02*
X261774D01*
X261024Y7813D02*
Y9313D01*
X322675Y8071D02*
X324175D01*
X323425Y7321D02*
Y8821D01*
X369034Y72146D02*
X370533D01*
X369783Y71396D02*
Y72896D01*
X223069Y75000D02*
X224569D01*
X223819Y74250D02*
Y75750D01*
X295018Y70965D02*
X296518D01*
X295768Y70215D02*
Y71715D01*
X150530Y73425D02*
X152030D01*
X151279Y72675D02*
Y74175D01*
X77990Y73622D02*
X79490D01*
X78740Y72872D02*
Y74372D01*
X12045Y172146D02*
X13545D01*
X12795Y171396D02*
Y172896D01*
X395360Y365846D02*
X396860D01*
X396110Y365096D02*
Y366597D01*
X372872Y344488D02*
X374372D01*
X373622Y343738D02*
Y345238D01*
X389652Y358268D02*
X391152D01*
X390402Y357518D02*
Y359018D01*
X400250Y270448D02*
X401750D01*
X401000Y269698D02*
Y271198D01*
X153581Y324508D02*
X155081D01*
X154331Y323758D02*
Y325258D01*
X50825Y295669D02*
X52325D01*
X51575Y294919D02*
Y296419D01*
X47380Y280610D02*
X48880D01*
X48130Y279860D02*
Y281360D01*
X243935Y120669D02*
X245435D01*
X244685Y119919D02*
Y121419D01*
X95707Y118602D02*
X97207D01*
X96457Y117852D02*
Y119352D01*
X9978Y34547D02*
X11478D01*
X10728Y33797D02*
Y35297D01*
X297872Y110335D02*
X299372D01*
X298622Y109585D02*
Y111085D01*
X53581Y109843D02*
X55081D01*
X54331Y109092D02*
Y110592D01*
X56435Y121358D02*
X57935D01*
X57185Y120608D02*
Y122108D01*
X59289Y124213D02*
X60789D01*
X60039Y123463D02*
Y124963D01*
X62144Y121358D02*
X63644D01*
X62894Y120608D02*
Y122108D01*
X85274Y110236D02*
X86774D01*
X86024Y109486D02*
Y110986D01*
X75037Y121457D02*
X76537D01*
X75787Y120707D02*
Y122207D01*
X88325Y117224D02*
X89825D01*
X89075Y116474D02*
Y117974D01*
X9050Y135800D02*
X10550D01*
X9800Y135050D02*
Y136550D01*
X13325Y194508D02*
X14825D01*
X14075Y193758D02*
Y195258D01*
X18049Y192835D02*
X19549D01*
X18799Y192085D02*
Y193585D01*
X24050Y190800D02*
X25550D01*
X24800Y190050D02*
Y191550D01*
X9050Y193400D02*
X10550D01*
X9800Y192650D02*
Y194150D01*
X29550Y180200D02*
X31050D01*
X30300Y179450D02*
Y180950D01*
X37250Y127900D02*
X38750D01*
X38000Y127150D02*
Y128650D01*
X133580Y230800D02*
X135080D01*
X134330Y230050D02*
Y231550D01*
X130050Y195800D02*
X131550D01*
X130800Y195050D02*
Y196550D01*
X127010Y195794D02*
X128510D01*
X127760Y195045D02*
Y196545D01*
X329150Y132700D02*
X330650D01*
X329900Y131950D02*
Y133450D01*
X225750Y257948D02*
X227250D01*
X226500Y257198D02*
Y258698D01*
X201050Y269200D02*
X202550D01*
X201800Y268450D02*
Y269950D01*
X156631Y232018D02*
X158131D01*
X157381Y231268D02*
Y232768D01*
X210850Y247800D02*
X212350D01*
X211600Y247050D02*
Y248550D01*
X219743Y242380D02*
X221243D01*
X220493Y241630D02*
Y243130D01*
X215863Y226868D02*
X217364D01*
X216614Y226118D02*
Y227618D01*
X132850Y227000D02*
X134350D01*
X133600Y226250D02*
Y227750D01*
X133250Y241600D02*
X134750D01*
X134000Y240850D02*
Y242350D01*
X130150Y211600D02*
X131650D01*
X130900Y210850D02*
Y212350D01*
X127050Y211600D02*
X128550D01*
X127800Y210850D02*
Y212350D01*
X113950Y161800D02*
X115450D01*
X114700Y161050D02*
Y162550D01*
X152350Y222400D02*
X153850D01*
X153100Y221650D02*
Y223150D01*
X21550Y136200D02*
X23050D01*
X22300Y135450D02*
Y136950D01*
X79750Y195100D02*
X81250D01*
X80500Y194350D02*
Y195850D01*
X50150Y175800D02*
X51650D01*
X50900Y175050D02*
Y176550D01*
X31622Y185453D02*
X33122D01*
X32372Y184703D02*
Y186203D01*
X30048Y141260D02*
X31548D01*
X30798Y140510D02*
Y142010D01*
X13620Y136293D02*
X15120D01*
X14370Y135543D02*
Y137043D01*
X111856Y112697D02*
X113356D01*
X112606Y111947D02*
Y113447D01*
X94140Y92283D02*
X95640D01*
X94890Y91533D02*
Y93033D01*
X90490Y92028D02*
X91990D01*
X91240Y91278D02*
Y92778D01*
X90490Y95079D02*
X91990D01*
X91240Y94329D02*
Y95829D01*
X86848Y98622D02*
X88348D01*
X87598Y97872D02*
Y99372D01*
X90691Y98869D02*
X92191D01*
X91441Y98119D02*
Y99619D01*
X86790Y94587D02*
X88290D01*
X87540Y93837D02*
Y95337D01*
X86754Y90897D02*
X88254D01*
X87504Y90147D02*
Y91647D01*
X7821Y29882D02*
X9321D01*
X8571Y29132D02*
Y30632D01*
X26450Y28500D02*
X27950D01*
X27200Y27750D02*
Y29250D01*
X33510Y28898D02*
X35010D01*
X34260Y28148D02*
Y29648D01*
X23955Y55512D02*
X25455D01*
X24705Y54762D02*
Y56262D01*
X47971Y59842D02*
X49470D01*
X48720Y59092D02*
Y60593D01*
X9978Y104232D02*
X11478D01*
X10728Y103482D02*
Y104982D01*
X14514Y94350D02*
X16014D01*
X15264Y93600D02*
Y95100D01*
X56738Y62854D02*
X58238D01*
X57488Y62104D02*
Y63604D01*
X58898Y59301D02*
X60398D01*
X59648Y58551D02*
Y60050D01*
X57990Y83917D02*
X59490D01*
X58740Y83167D02*
Y84667D01*
X60963Y78347D02*
X62463D01*
X61713Y77596D02*
Y79097D01*
X53679Y73228D02*
X55179D01*
X54429Y72478D02*
Y73978D01*
X58215Y65512D02*
X59715D01*
X58965Y64762D02*
Y66262D01*
X56437Y91881D02*
X57937D01*
X57187Y91131D02*
Y92631D01*
X59292Y91881D02*
X60792D01*
X60042Y91131D02*
Y92631D01*
X24750Y92579D02*
X26250D01*
X25500Y91829D02*
Y93329D01*
X18345Y98228D02*
X19845D01*
X19094Y97478D02*
Y98978D01*
X29868Y103801D02*
X31368D01*
X30618Y103051D02*
Y104551D01*
X22282Y102314D02*
X23782D01*
X23032Y101564D02*
Y103064D01*
X114454Y44685D02*
X115954D01*
X115204Y43935D02*
Y45435D01*
X119750Y39300D02*
X121250D01*
X120500Y38550D02*
Y40050D01*
X117754Y44685D02*
X119254D01*
X118504Y43935D02*
Y45435D01*
X97014Y92283D02*
X98514D01*
X97764Y91533D02*
Y93033D01*
X125931Y70630D02*
X127431D01*
X126681Y69880D02*
Y71380D01*
X120250Y59948D02*
X121750D01*
X121000Y59198D02*
Y60698D01*
X132419Y59500D02*
X133919D01*
X133169Y58750D02*
Y60250D01*
X130549Y62992D02*
X132049D01*
X131299Y62242D02*
Y63742D01*
X130459Y65610D02*
X131959D01*
X131209Y64860D02*
Y66360D01*
X140293Y88583D02*
X141793D01*
X141043Y87833D02*
Y89333D01*
X143154Y88534D02*
X144654D01*
X143904Y87784D02*
Y89284D01*
X101809Y103939D02*
X103309D01*
X102559Y103189D02*
Y104689D01*
X189218Y38445D02*
X190718D01*
X189969Y37695D02*
Y39195D01*
X178785Y60886D02*
X180285D01*
X179535Y60136D02*
Y61636D01*
X159092Y94587D02*
X160592D01*
X159843Y93837D02*
Y95337D01*
X34199Y57638D02*
X35699D01*
X34949Y56888D02*
Y58388D01*
X34199Y61280D02*
X35699D01*
X34949Y60530D02*
Y62030D01*
X34199Y64921D02*
X35699D01*
X34949Y64171D02*
Y65671D01*
X29663Y70079D02*
X31163D01*
X30413Y69329D02*
Y70829D01*
X34036Y68529D02*
X35536D01*
X34786Y67779D02*
Y69279D01*
X29566Y72982D02*
X31066D01*
X30316Y72232D02*
Y73732D01*
X14604Y98622D02*
X16104D01*
X15354Y97872D02*
Y99372D01*
X18148Y94440D02*
X19648D01*
X18898Y93690D02*
Y95190D01*
X18246Y91634D02*
X19746D01*
X18996Y90884D02*
Y92384D01*
X21986Y92618D02*
X23486D01*
X22736Y91868D02*
Y93368D01*
X178884Y64626D02*
X180384D01*
X179634Y63876D02*
Y65376D01*
X178786Y68651D02*
X180286D01*
X179536Y67901D02*
Y69401D01*
X174053Y73032D02*
X175553D01*
X174803Y72281D02*
Y73782D01*
X159001Y90897D02*
X160501D01*
X159751Y90147D02*
Y91647D01*
X163234Y98771D02*
X164734D01*
X163984Y98021D02*
Y99521D01*
X159199Y98583D02*
X160699D01*
X159949Y97833D02*
Y99333D01*
X113920Y95916D02*
X115420D01*
X114670Y95166D02*
Y96667D01*
X203738Y91865D02*
X205238D01*
X204488Y91115D02*
Y92615D01*
X298930Y35225D02*
X300430D01*
X299680Y34475D02*
Y35975D01*
X197881Y70718D02*
X199381D01*
X198631Y69968D02*
Y71468D01*
X93148Y55512D02*
X94648D01*
X93898Y54762D02*
Y56262D01*
X90141Y55512D02*
X91641D01*
X90891Y54762D02*
Y56262D01*
X101809Y73032D02*
X103309D01*
X102559Y72281D02*
Y73782D01*
X101809Y70079D02*
X103309D01*
X102559Y69329D02*
Y70829D01*
X106435Y61119D02*
X107935D01*
X107185Y60369D02*
Y61869D01*
X106435Y57476D02*
X107935D01*
X107185Y56726D02*
Y58226D01*
X106435Y68405D02*
X107935D01*
X107185Y67655D02*
Y69156D01*
X159494Y55472D02*
X160994D01*
X160244Y54722D02*
Y56222D01*
X251029Y57244D02*
X252530D01*
X251780Y56494D02*
Y57994D01*
X250738Y61368D02*
X252238D01*
X251488Y60618D02*
Y62118D01*
X250935Y65009D02*
X252435D01*
X251685Y64259D02*
Y65759D01*
X250935Y68760D02*
X252435D01*
X251685Y68010D02*
Y69510D01*
X241460Y92162D02*
X242960D01*
X242210Y91412D02*
Y92912D01*
X41673Y95916D02*
X43173D01*
X42423Y95166D02*
Y96667D01*
X36161Y96507D02*
X37661D01*
X36911Y95757D02*
Y97257D01*
X88029Y112992D02*
X89530D01*
X88779Y112242D02*
Y113742D01*
X173816Y103704D02*
X175316D01*
X174566Y102954D02*
Y104454D01*
X169534Y107146D02*
X171034D01*
X170283Y106396D02*
Y107896D01*
X184191Y112992D02*
X185691D01*
X184941Y112242D02*
Y113742D01*
X188431Y62165D02*
X189931D01*
X189181Y61415D02*
Y62915D01*
X167760Y25767D02*
X169260D01*
X168510Y25017D02*
Y26517D01*
X43856Y62248D02*
X45356D01*
X44606Y61498D02*
Y62998D01*
X47282Y69193D02*
X48781D01*
X48031Y68443D02*
Y69943D01*
X53550Y70448D02*
X55050D01*
X54300Y69698D02*
Y71198D01*
X117050Y62748D02*
X118550D01*
X117800Y61998D02*
Y63498D01*
X106435Y64762D02*
X107935D01*
X107185Y64012D02*
Y65512D01*
X119868Y68824D02*
X121368D01*
X120618Y68074D02*
Y69574D01*
X176614Y103704D02*
X178114D01*
X177364Y102954D02*
Y104454D01*
X180450Y96348D02*
X181950D01*
X181200Y95598D02*
Y97098D01*
X190785Y127559D02*
X192285D01*
X191535Y126809D02*
Y128309D01*
X39450Y112248D02*
X40950D01*
X40200Y111498D02*
Y112998D01*
X31650Y106448D02*
X33150D01*
X32400Y105698D02*
Y107198D01*
X104650Y103948D02*
X106150D01*
X105400Y103198D02*
Y104698D01*
X153250Y31848D02*
X154750D01*
X154000Y31098D02*
Y32598D01*
X49950Y25148D02*
X51450D01*
X50700Y24398D02*
Y25898D01*
X143704Y126048D02*
X145204D01*
X144454Y125298D02*
Y126798D01*
X234986Y92485D02*
X236486D01*
X235736Y91735D02*
Y93235D01*
X231250Y90948D02*
X232750D01*
X232000Y90198D02*
Y91698D01*
X231337Y94587D02*
X232837D01*
X232087Y93837D02*
Y95337D01*
X235350Y95248D02*
X236850D01*
X236100Y94498D02*
Y95998D01*
X235550Y98848D02*
X237050D01*
X236300Y98098D02*
Y99598D01*
X248850Y103848D02*
X250350D01*
X249600Y103098D02*
Y104598D01*
X252850Y96348D02*
X254350D01*
X253600Y95598D02*
Y97098D01*
X221650Y36548D02*
X223150D01*
X222400Y35798D02*
Y37298D01*
X261250Y62848D02*
X262750D01*
X262000Y62098D02*
Y63598D01*
X264356Y68824D02*
X265856D01*
X265106Y68074D02*
Y69574D01*
X261450Y66548D02*
X262950D01*
X262200Y65798D02*
Y67298D01*
X275650Y59248D02*
X277150D01*
X276400Y58498D02*
Y59998D01*
X274950Y63048D02*
X276450D01*
X275700Y62298D02*
Y63798D01*
X287450Y88548D02*
X288950D01*
X288200Y87798D02*
Y89298D01*
X276711Y91928D02*
X278211D01*
X277461Y91178D02*
Y92678D01*
X273758Y91928D02*
X275258D01*
X274508Y91178D02*
Y92678D01*
X277859Y97838D02*
X279359D01*
X278609Y97088D02*
Y98588D01*
X338650Y34848D02*
X340150D01*
X339400Y34098D02*
Y35598D01*
X289014Y125591D02*
X290514D01*
X289764Y124841D02*
Y126341D01*
X307287Y91988D02*
X308787D01*
X308037Y91238D02*
Y92738D01*
X325136Y60922D02*
X326636D01*
X325886Y60172D02*
Y61672D01*
X325136Y57279D02*
X326636D01*
X325886Y56529D02*
Y58029D01*
X325102Y64565D02*
X326602D01*
X325852Y63815D02*
Y65315D01*
X312931Y55512D02*
X314431D01*
X313681Y54762D02*
Y56262D01*
X325102Y68243D02*
X326602D01*
X325852Y67493D02*
Y68993D01*
X307750Y98748D02*
X309250D01*
X308500Y97998D02*
Y99498D01*
X303550Y90948D02*
X305050D01*
X304300Y90198D02*
Y91698D01*
X311050Y93048D02*
X312550D01*
X311800Y92298D02*
Y93798D01*
X313450Y91948D02*
X314950D01*
X314200Y91198D02*
Y92698D01*
X321150Y105848D02*
X322650D01*
X321900Y105098D02*
Y106598D01*
X98667Y106949D02*
X100167D01*
X99417Y106199D02*
Y107699D01*
X303778Y98848D02*
X305278D01*
X304528Y98098D02*
Y99598D01*
X303550Y95148D02*
X305050D01*
X304300Y94398D02*
Y95898D01*
X343250Y73248D02*
X344750D01*
X344000Y72498D02*
Y73998D01*
X335471Y64665D02*
X336970D01*
X336221Y63915D02*
Y65415D01*
X336258Y69193D02*
X337758D01*
X337008Y68443D02*
Y69943D01*
X348750Y38505D02*
X350250D01*
X349500Y37755D02*
Y39255D01*
X319919Y119095D02*
X321419D01*
X320669Y118344D02*
Y119844D01*
X198250Y133448D02*
X199750D01*
X199000Y132698D02*
Y134198D01*
X22950Y145100D02*
X24450D01*
X23700Y144350D02*
Y145850D01*
X14550Y150648D02*
X16050D01*
X15300Y149898D02*
Y151398D01*
X41533Y190666D02*
X43033D01*
X42283Y189916D02*
Y191416D01*
X29650Y189548D02*
X31150D01*
X30400Y188798D02*
Y190298D01*
X26750Y170748D02*
X28250D01*
X27500Y169998D02*
Y171498D01*
X31950Y167048D02*
X33450D01*
X32700Y166298D02*
Y167798D01*
X51150Y162100D02*
X52650D01*
X51900Y161350D02*
Y162850D01*
X40650Y160448D02*
X42150D01*
X41400Y159698D02*
Y161198D01*
X40250Y154348D02*
X41750D01*
X41000Y153598D02*
Y155098D01*
X31750Y154948D02*
X33250D01*
X32500Y154198D02*
Y155698D01*
X65350Y136848D02*
X66850D01*
X66100Y136098D02*
Y137598D01*
X70250Y136900D02*
X71750D01*
X71000Y136150D02*
Y137650D01*
X121150Y187000D02*
X122650D01*
X121900Y186250D02*
Y187750D01*
X129474Y166299D02*
X130974D01*
X130224Y165549D02*
Y167049D01*
X155270Y167657D02*
X156770D01*
X156020Y166908D02*
Y168407D01*
X117350Y164300D02*
X118850D01*
X118100Y163550D02*
Y165050D01*
X119750Y159600D02*
X121250D01*
X120500Y158850D02*
Y160350D01*
X126421Y166294D02*
X127921D01*
X127171Y165544D02*
Y167044D01*
X130050Y179156D02*
X131550D01*
X130800Y178406D02*
Y179906D01*
X122121Y172109D02*
X123621D01*
X122871Y171360D02*
Y172860D01*
X165156Y275360D02*
X166656D01*
X165906Y274610D02*
Y276110D01*
X188959Y269587D02*
X190459D01*
X189709Y268837D02*
Y270337D01*
X193687Y246063D02*
X195187D01*
X194437Y245313D02*
Y246813D01*
X224394Y290946D02*
X225894D01*
X225144Y290196D02*
Y291696D01*
X118293Y300098D02*
X119793D01*
X119043Y299348D02*
Y300849D01*
X118286Y288485D02*
X119786D01*
X119036Y287735D02*
Y289235D01*
X118286Y279430D02*
X119786D01*
X119036Y278680D02*
Y280180D01*
X110124Y293996D02*
X111624D01*
X110874Y293246D02*
Y294746D01*
X21837Y275098D02*
X23337D01*
X22587Y274348D02*
Y275849D01*
X17014Y290059D02*
X18514D01*
X17764Y289309D02*
Y290809D01*
X198018Y303642D02*
X199518D01*
X198768Y302892D02*
Y304392D01*
X201774Y303176D02*
X203274D01*
X202523Y302427D02*
Y303926D01*
X215150Y272948D02*
X216650D01*
X215900Y272198D02*
Y273698D01*
X103726Y325197D02*
X105226D01*
X104476Y324447D02*
Y325947D01*
X165237Y318408D02*
X166737D01*
X165987Y317658D02*
Y319158D01*
X160020Y314865D02*
X161521D01*
X160770Y314115D02*
Y315615D01*
X201853Y308467D02*
X203353D01*
X202603Y307717D02*
Y309217D01*
X143884Y325295D02*
X145384D01*
X144634Y324545D02*
Y326045D01*
X233750Y331348D02*
X235250D01*
X234500Y330598D02*
Y332098D01*
X228950Y255948D02*
X230450D01*
X229700Y255198D02*
Y256698D01*
X244572Y266535D02*
X246072D01*
X245322Y265786D02*
Y267285D01*
X204707Y272977D02*
X206207D01*
X205457Y272227D02*
Y273727D01*
X217150Y276448D02*
X218650D01*
X217900Y275698D02*
Y277198D01*
X230150Y284600D02*
X231650D01*
X230900Y283850D02*
Y285350D01*
X220550Y274348D02*
X222050D01*
X221300Y273598D02*
Y275098D01*
X248750Y294600D02*
X250250D01*
X249500Y293850D02*
Y295350D01*
X238371Y292029D02*
X239871D01*
X239121Y291279D02*
Y292779D01*
M02*
