G04 Layer_Color=16711935*
%FSLAX24Y24*%
%MOIN*%
G70*
G01*
G75*
G04:AMPARAMS|DCode=184|XSize=118.7mil|YSize=118.7mil|CornerRadius=59.4mil|HoleSize=0mil|Usage=FLASHONLY|Rotation=90.000|XOffset=0mil|YOffset=0mil|HoleType=Round|Shape=RoundedRectangle|*
%AMROUNDEDRECTD184*
21,1,0.1187,0.0000,0,0,90.0*
21,1,0.0000,0.1187,0,0,90.0*
1,1,0.1187,0.0000,0.0000*
1,1,0.1187,0.0000,0.0000*
1,1,0.1187,0.0000,0.0000*
1,1,0.1187,0.0000,0.0000*
%
%ADD184ROUNDEDRECTD184*%
%ADD188C,0.0580*%
%ADD233R,0.0671X0.0671*%
%ADD234C,0.0671*%
%ADD235O,0.1280X0.0680*%
%ADD236O,0.1730X0.0905*%
%ADD237P,0.0844X8X292.5*%
%ADD238C,0.1080*%
%ADD239O,0.0680X0.1280*%
%ADD240C,0.0620*%
%ADD241C,0.1385*%
%ADD242O,0.0905X0.1730*%
G04:AMPARAMS|DCode=243|XSize=141mil|YSize=91mil|CornerRadius=0mil|HoleSize=0mil|Usage=FLASHONLY|Rotation=270.000|XOffset=0mil|YOffset=0mil|HoleType=Round|Shape=Octagon|*
%AMOCTAGOND243*
4,1,8,-0.0228,-0.0705,0.0228,-0.0705,0.0455,-0.0478,0.0455,0.0478,0.0228,0.0705,-0.0228,0.0705,-0.0455,0.0478,-0.0455,-0.0478,-0.0228,-0.0705,0.0*
%
%ADD243OCTAGOND243*%

G04:AMPARAMS|DCode=244|XSize=141mil|YSize=91mil|CornerRadius=0mil|HoleSize=0mil|Usage=FLASHONLY|Rotation=180.000|XOffset=0mil|YOffset=0mil|HoleType=Round|Shape=Octagon|*
%AMOCTAGOND244*
4,1,8,-0.0705,0.0228,-0.0705,-0.0228,-0.0478,-0.0455,0.0478,-0.0455,0.0705,-0.0228,0.0705,0.0228,0.0478,0.0455,-0.0478,0.0455,-0.0705,0.0228,0.0*
%
%ADD244OCTAGOND244*%

%ADD245C,0.0460*%
%ADD246C,0.0580*%
D184*
X3811Y84819D02*
D03*
X42400D02*
D03*
Y1341D02*
D03*
X3811Y1311D02*
D03*
D188*
X35947Y32098D02*
D03*
Y35839D02*
D03*
X41596Y21094D02*
D03*
X5179Y26035D02*
D03*
X8102Y25701D02*
D03*
X9061Y37061D02*
D03*
X42325Y15868D02*
D03*
X40189Y28381D02*
D03*
X31721Y32941D02*
D03*
X40189Y32374D02*
D03*
X34581Y36531D02*
D03*
X40189Y36386D02*
D03*
X7311Y37061D02*
D03*
X28581Y31721D02*
D03*
X39011Y40841D02*
D03*
X28811Y16216D02*
D03*
X33111Y17621D02*
D03*
X23501Y10231D02*
D03*
X30611Y18871D02*
D03*
X28831Y18951D02*
D03*
X29811Y17531D02*
D03*
X30811Y16751D02*
D03*
X32111Y19621D02*
D03*
X30001Y24441D02*
D03*
X33171D02*
D03*
X37291D02*
D03*
X27581Y23261D02*
D03*
X31801Y24441D02*
D03*
X35741D02*
D03*
X11341Y38621D02*
D03*
X15361D02*
D03*
X19331D02*
D03*
X23351D02*
D03*
X9431Y10291D02*
D03*
X16421Y10241D02*
D03*
X30631D02*
D03*
X37681D02*
D03*
X33321Y18831D02*
D03*
X35851Y18861D02*
D03*
X37787Y29106D02*
D03*
X20396Y9181D02*
D03*
X19396D02*
D03*
X22396D02*
D03*
X21396D02*
D03*
X5337D02*
D03*
X12305D02*
D03*
X26482D02*
D03*
X33571D02*
D03*
X6337D02*
D03*
X13305D02*
D03*
X27482D02*
D03*
X34571D02*
D03*
X8337D02*
D03*
X15305D02*
D03*
X29482D02*
D03*
X36571D02*
D03*
X7337D02*
D03*
X14305D02*
D03*
X28482D02*
D03*
X35571D02*
D03*
X27311Y30381D02*
D03*
X6421Y27551D02*
D03*
X7381Y26761D02*
D03*
X19021Y28491D02*
D03*
X22141Y32191D02*
D03*
X21651Y31191D02*
D03*
X21151Y32191D02*
D03*
X20651Y31191D02*
D03*
X29811Y16561D02*
D03*
X35947Y72598D02*
D03*
Y76339D02*
D03*
X41596Y61594D02*
D03*
X5179Y66535D02*
D03*
X8102Y66201D02*
D03*
X9061Y77561D02*
D03*
X42325Y56368D02*
D03*
X40189Y68881D02*
D03*
X31721Y73441D02*
D03*
X40189Y72874D02*
D03*
X34581Y77031D02*
D03*
X40189Y76886D02*
D03*
X7311Y77561D02*
D03*
X28581Y72221D02*
D03*
X39011Y81341D02*
D03*
X28811Y56716D02*
D03*
X33111Y58121D02*
D03*
X23501Y50731D02*
D03*
X30611Y59371D02*
D03*
X28831Y59451D02*
D03*
X29811Y58031D02*
D03*
X30811Y57251D02*
D03*
X32111Y60121D02*
D03*
X30001Y64941D02*
D03*
X33171D02*
D03*
X37291D02*
D03*
X27581Y63761D02*
D03*
X31801Y64941D02*
D03*
X35741D02*
D03*
X11341Y79121D02*
D03*
X15361D02*
D03*
X19331D02*
D03*
X23351D02*
D03*
X9431Y50791D02*
D03*
X16421Y50741D02*
D03*
X30631D02*
D03*
X37681D02*
D03*
X33321Y59331D02*
D03*
X35851Y59361D02*
D03*
X37787Y69606D02*
D03*
X20396Y49681D02*
D03*
X19396D02*
D03*
X22396D02*
D03*
X21396D02*
D03*
X5337D02*
D03*
X12305D02*
D03*
X26482D02*
D03*
X33571D02*
D03*
X6337D02*
D03*
X13305D02*
D03*
X27482D02*
D03*
X34571D02*
D03*
X8337D02*
D03*
X15305D02*
D03*
X29482D02*
D03*
X36571D02*
D03*
X7337D02*
D03*
X14305D02*
D03*
X28482D02*
D03*
X35571D02*
D03*
X27311Y70881D02*
D03*
X6421Y68051D02*
D03*
X7381Y67261D02*
D03*
X19021Y68991D02*
D03*
X22141Y72691D02*
D03*
X21651Y71691D02*
D03*
X21151Y72691D02*
D03*
X20651Y71691D02*
D03*
X29811Y57061D02*
D03*
D233*
X14571Y24711D02*
D03*
Y21861D02*
D03*
X21571Y17621D02*
D03*
X14571Y65211D02*
D03*
Y62361D02*
D03*
X21571Y58121D02*
D03*
D234*
X14571Y23711D02*
D03*
X13571Y24711D02*
D03*
Y23711D02*
D03*
X12571Y24711D02*
D03*
Y23711D02*
D03*
X11571Y24711D02*
D03*
Y23711D02*
D03*
X10571Y24711D02*
D03*
Y23711D02*
D03*
X14571Y20861D02*
D03*
X13571Y21861D02*
D03*
Y20861D02*
D03*
X12571Y21861D02*
D03*
Y20861D02*
D03*
X11571Y21861D02*
D03*
Y20861D02*
D03*
X10571Y21861D02*
D03*
Y20861D02*
D03*
Y16621D02*
D03*
Y17621D02*
D03*
X11571Y16621D02*
D03*
Y17621D02*
D03*
X12571Y16621D02*
D03*
Y17621D02*
D03*
X13571Y16621D02*
D03*
Y17621D02*
D03*
X14571Y16621D02*
D03*
Y17621D02*
D03*
X15571Y16621D02*
D03*
Y17621D02*
D03*
X16571Y16621D02*
D03*
Y17621D02*
D03*
X17571Y16621D02*
D03*
Y17621D02*
D03*
X18571Y16621D02*
D03*
Y17621D02*
D03*
X19571Y16621D02*
D03*
Y17621D02*
D03*
X20571Y16621D02*
D03*
Y17621D02*
D03*
X21571Y16621D02*
D03*
X14571Y64211D02*
D03*
X13571Y65211D02*
D03*
Y64211D02*
D03*
X12571Y65211D02*
D03*
Y64211D02*
D03*
X11571Y65211D02*
D03*
Y64211D02*
D03*
X10571Y65211D02*
D03*
Y64211D02*
D03*
X14571Y61361D02*
D03*
X13571Y62361D02*
D03*
Y61361D02*
D03*
X12571Y62361D02*
D03*
Y61361D02*
D03*
X11571Y62361D02*
D03*
Y61361D02*
D03*
X10571Y62361D02*
D03*
Y61361D02*
D03*
Y57121D02*
D03*
Y58121D02*
D03*
X11571Y57121D02*
D03*
Y58121D02*
D03*
X12571Y57121D02*
D03*
Y58121D02*
D03*
X13571Y57121D02*
D03*
Y58121D02*
D03*
X14571Y57121D02*
D03*
Y58121D02*
D03*
X15571Y57121D02*
D03*
Y58121D02*
D03*
X16571Y57121D02*
D03*
Y58121D02*
D03*
X17571Y57121D02*
D03*
Y58121D02*
D03*
X18571Y57121D02*
D03*
Y58121D02*
D03*
X19571Y57121D02*
D03*
Y58121D02*
D03*
X20571Y57121D02*
D03*
Y58121D02*
D03*
X21571Y57121D02*
D03*
D235*
X41741Y7111D02*
D03*
Y8111D02*
D03*
Y9111D02*
D03*
Y10111D02*
D03*
Y47611D02*
D03*
Y48611D02*
D03*
Y49611D02*
D03*
Y50611D02*
D03*
D236*
X41511Y26386D02*
D03*
Y28386D02*
D03*
Y30386D02*
D03*
Y36386D02*
D03*
Y34386D02*
D03*
Y32386D02*
D03*
Y66886D02*
D03*
Y68886D02*
D03*
Y70886D02*
D03*
Y76886D02*
D03*
Y74886D02*
D03*
Y72886D02*
D03*
D237*
X3421Y34801D02*
D03*
Y33021D02*
D03*
Y75301D02*
D03*
Y73521D02*
D03*
D238*
X4401Y35291D02*
D03*
Y32531D02*
D03*
Y75791D02*
D03*
Y73031D02*
D03*
D239*
X36011Y4011D02*
D03*
X37011D02*
D03*
X38011D02*
D03*
X39011D02*
D03*
X30061D02*
D03*
X31061D02*
D03*
X32061D02*
D03*
X33061D02*
D03*
X13011D02*
D03*
X14011D02*
D03*
X15011D02*
D03*
X16011D02*
D03*
X7111D02*
D03*
X8111D02*
D03*
X9111D02*
D03*
X10111D02*
D03*
X38711Y17111D02*
D03*
X37711D02*
D03*
X36711D02*
D03*
X35711D02*
D03*
X39141Y21191D02*
D03*
X38141D02*
D03*
X36011D02*
D03*
X35011D02*
D03*
X32861D02*
D03*
X31861D02*
D03*
X29691D02*
D03*
X28691D02*
D03*
X22061Y4011D02*
D03*
X21061D02*
D03*
X20061D02*
D03*
X19061D02*
D03*
X27161D02*
D03*
X26161D02*
D03*
X25161D02*
D03*
X24161D02*
D03*
X28511Y25651D02*
D03*
X29511D02*
D03*
X30511D02*
D03*
X34646D02*
D03*
X33646D02*
D03*
X32646D02*
D03*
X36781D02*
D03*
X37781D02*
D03*
X38781D02*
D03*
X28511Y28051D02*
D03*
X29511D02*
D03*
X30511D02*
D03*
X38781D02*
D03*
X37781D02*
D03*
X36781D02*
D03*
X32646D02*
D03*
X33646D02*
D03*
X34646D02*
D03*
X4761Y37911D02*
D03*
X3761D02*
D03*
X36011Y44511D02*
D03*
X37011D02*
D03*
X38011D02*
D03*
X39011D02*
D03*
X30061D02*
D03*
X31061D02*
D03*
X32061D02*
D03*
X33061D02*
D03*
X13011D02*
D03*
X14011D02*
D03*
X15011D02*
D03*
X16011D02*
D03*
X7111D02*
D03*
X8111D02*
D03*
X9111D02*
D03*
X10111D02*
D03*
X38711Y57611D02*
D03*
X37711D02*
D03*
X36711D02*
D03*
X35711D02*
D03*
X39141Y61691D02*
D03*
X38141D02*
D03*
X36011D02*
D03*
X35011D02*
D03*
X32861D02*
D03*
X31861D02*
D03*
X29691D02*
D03*
X28691D02*
D03*
X22061Y44511D02*
D03*
X21061D02*
D03*
X20061D02*
D03*
X19061D02*
D03*
X27161D02*
D03*
X26161D02*
D03*
X25161D02*
D03*
X24161D02*
D03*
X28511Y66151D02*
D03*
X29511D02*
D03*
X30511D02*
D03*
X34646D02*
D03*
X33646D02*
D03*
X32646D02*
D03*
X36781D02*
D03*
X37781D02*
D03*
X38781D02*
D03*
X28511Y68551D02*
D03*
X29511D02*
D03*
X30511D02*
D03*
X38781D02*
D03*
X37781D02*
D03*
X36781D02*
D03*
X32646D02*
D03*
X33646D02*
D03*
X34646D02*
D03*
X4761Y78411D02*
D03*
X3761D02*
D03*
D240*
X6921Y25061D02*
D03*
Y26053D02*
D03*
X6131D02*
D03*
Y25061D02*
D03*
X6921Y65561D02*
D03*
Y66553D02*
D03*
X6131D02*
D03*
Y65561D02*
D03*
D241*
X5061Y27923D02*
D03*
Y23191D02*
D03*
Y68423D02*
D03*
Y63691D02*
D03*
D242*
X25361Y41181D02*
D03*
X23361D02*
D03*
X21361D02*
D03*
X19361D02*
D03*
X17361D02*
D03*
X15361D02*
D03*
X13361D02*
D03*
X11361D02*
D03*
X9361D02*
D03*
X7361D02*
D03*
X25361Y81681D02*
D03*
X23361D02*
D03*
X21361D02*
D03*
X19361D02*
D03*
X17361D02*
D03*
X15361D02*
D03*
X13361D02*
D03*
X11361D02*
D03*
X9361D02*
D03*
X7361D02*
D03*
D243*
X42404Y17549D02*
D03*
X41064D02*
D03*
Y22849D02*
D03*
X42404D02*
D03*
Y58049D02*
D03*
X41064D02*
D03*
Y63349D02*
D03*
X42404D02*
D03*
D244*
X38621Y31591D02*
D03*
Y32931D02*
D03*
X33321D02*
D03*
Y31591D02*
D03*
X38621Y35491D02*
D03*
Y36831D02*
D03*
X33321D02*
D03*
Y35491D02*
D03*
X38621Y72091D02*
D03*
Y73431D02*
D03*
X33321D02*
D03*
Y72091D02*
D03*
X38621Y75991D02*
D03*
Y77331D02*
D03*
X33321D02*
D03*
Y75991D02*
D03*
D245*
X36031Y38521D02*
D03*
Y79021D02*
D03*
D246*
X35120Y38614D02*
D03*
X35140Y39411D02*
D03*
X35120Y79114D02*
D03*
X35140Y79911D02*
D03*
M02*
