G04 Layer_Physical_Order=2*
G04 Layer_Color=32768*
%FSLAX24Y24*%
%MOIN*%
G70*
G01*
G75*
%ADD70C,0.0100*%
%ADD80C,0.0400*%
%ADD90C,0.0540*%
%ADD95C,0.0290*%
%ADD96C,0.0380*%
%ADD101C,0.0494*%
G04:AMPARAMS|DCode=102|XSize=79.433mil|YSize=79.433mil|CornerRadius=0mil|HoleSize=0mil|Usage=FLASHONLY|Rotation=0.000|XOffset=0mil|YOffset=0mil|HoleType=Round|Shape=Relief|Width=14mil|Gap=10mil|Entries=4|*
%AMTHD102*
7,0,0,0.0794,0.0594,0.0140,45*
%
%ADD102THD102*%
G04:AMPARAMS|DCode=103|XSize=59mil|YSize=59mil|CornerRadius=0mil|HoleSize=0mil|Usage=FLASHONLY|Rotation=0.000|XOffset=0mil|YOffset=0mil|HoleType=Round|Shape=Relief|Width=14mil|Gap=10mil|Entries=4|*
%AMTHD103*
7,0,0,0.0590,0.0390,0.0140,45*
%
%ADD103THD103*%
%ADD104C,0.1321*%
G04:AMPARAMS|DCode=105|XSize=84mil|YSize=84mil|CornerRadius=0mil|HoleSize=0mil|Usage=FLASHONLY|Rotation=0.000|XOffset=0mil|YOffset=0mil|HoleType=Round|Shape=Relief|Width=14mil|Gap=10mil|Entries=4|*
%AMTHD105*
7,0,0,0.0840,0.0640,0.0140,45*
%
%ADD105THD105*%
%ADD106C,0.0770*%
%ADD107C,0.1439*%
%ADD108C,0.0690*%
%ADD109C,0.1010*%
%ADD110C,0.0520*%
%ADD111C,0.0730*%
G04:AMPARAMS|DCode=112|XSize=99mil|YSize=99mil|CornerRadius=0mil|HoleSize=0mil|Usage=FLASHONLY|Rotation=0.000|XOffset=0mil|YOffset=0mil|HoleType=Round|Shape=Relief|Width=14mil|Gap=10mil|Entries=4|*
%AMTHD112*
7,0,0,0.0990,0.0790,0.0140,45*
%
%ADD112THD112*%
%ADD113C,0.0360*%
D70*
X39300Y31825D02*
G03*
X39300Y31825I-350J0D01*
G01*
Y27825D02*
G03*
X39300Y27825I-350J0D01*
G01*
X8750Y35180D02*
X10650D01*
Y33680D02*
Y35180D01*
X8750Y33680D02*
X10650D01*
X8750D02*
Y35180D01*
X12735D02*
X14635D01*
Y33680D02*
Y35180D01*
X12735Y33680D02*
X14635D01*
X12735D02*
Y35180D01*
X16745D02*
X18645D01*
Y33680D02*
Y35180D01*
X16745Y33680D02*
X18645D01*
X16745D02*
Y35180D01*
X21300Y32880D02*
Y34380D01*
Y32880D02*
X23200D01*
Y34380D01*
X21300D02*
X23200D01*
X2830Y90D02*
Y2020D01*
X2050Y2800D02*
X2830Y2020D01*
X780Y2800D02*
X2050D01*
X37500Y20D02*
Y1950D01*
X780Y20400D02*
X4670D01*
X40012Y35787D02*
X40200Y35600D01*
X40012Y35787D02*
Y37000D01*
X39450D02*
X40012D01*
X40200Y33550D02*
Y35600D01*
X37949Y38501D02*
X37950D01*
X8120Y24380D02*
Y29500D01*
X6670Y29720D02*
X7900D01*
X8120Y29500D01*
X780Y27050D02*
X3190D01*
X5410Y21140D02*
X8120Y23850D01*
X3190Y27050D02*
X4280Y28140D01*
X4670Y20400D02*
X5410Y21140D01*
X8120Y23850D02*
Y24380D01*
X4280Y28140D02*
X5860Y29720D01*
X6670D01*
X40200Y3550D02*
Y16600D01*
Y24100D01*
Y27850D02*
Y33550D01*
X3010Y39890D02*
X37950D01*
X850Y33000D02*
Y37540D01*
X39713Y3550D02*
X40200D01*
X37950Y38501D02*
Y39890D01*
X850Y37540D02*
X3010D01*
Y39890D01*
X40200Y24100D02*
Y27850D01*
X37500Y1950D02*
X39100Y3550D01*
X39713D01*
X780Y2800D02*
Y27050D01*
X0Y20500D02*
X100Y20400D01*
X780Y27050D02*
Y32858D01*
Y32930D02*
X850Y33000D01*
X780Y32858D02*
Y32930D01*
X0Y28800D02*
Y32078D01*
X37949Y38501D02*
X39450Y37000D01*
D80*
X0Y0D02*
Y40500D01*
X41000D01*
Y0D02*
Y40500D01*
X0Y0D02*
X41000D01*
D90*
X1200Y35350D02*
D03*
X2200D02*
D03*
X32085Y25490D02*
D03*
X30085D02*
D03*
X34220D02*
D03*
X36220D02*
D03*
X27950D02*
D03*
X25950D02*
D03*
X36220Y23090D02*
D03*
X34220D02*
D03*
X30085D02*
D03*
X32085D02*
D03*
X27950D02*
D03*
X25950D02*
D03*
X21600Y1450D02*
D03*
X22600D02*
D03*
X23600D02*
D03*
X24600D02*
D03*
X16500D02*
D03*
X17500D02*
D03*
X18500D02*
D03*
X19500D02*
D03*
X26130Y18630D02*
D03*
X29300D02*
D03*
X32450D02*
D03*
X35580D02*
D03*
X33150Y14550D02*
D03*
X34150D02*
D03*
X35150D02*
D03*
X7550Y1450D02*
D03*
X6550D02*
D03*
X5550D02*
D03*
X4550D02*
D03*
X13450D02*
D03*
X12450D02*
D03*
X11450D02*
D03*
X10450D02*
D03*
X30500D02*
D03*
X29500D02*
D03*
X28500D02*
D03*
X27500D02*
D03*
X36450D02*
D03*
X35450D02*
D03*
X34450D02*
D03*
X33450D02*
D03*
X860Y30460D02*
D03*
Y32240D02*
D03*
X39180Y7550D02*
D03*
Y6550D02*
D03*
Y5550D02*
D03*
D95*
X5266Y32018D02*
D03*
X5148Y19045D02*
D03*
X37904Y33435D02*
D03*
X1890Y3524D02*
D03*
X1713Y3711D02*
D03*
X5971Y5520D02*
D03*
X7736Y16476D02*
D03*
X4920Y25910D02*
D03*
X39950Y10860D02*
D03*
X39920Y8440D02*
D03*
X39250Y10050D02*
D03*
X38940Y9380D02*
D03*
Y8840D02*
D03*
X38540Y8170D02*
D03*
X38470Y5060D02*
D03*
X39950Y4200D02*
D03*
X6040Y38650D02*
D03*
X6810Y37560D02*
D03*
X7520Y38650D02*
D03*
X6000Y37260D02*
D03*
X6110Y39660D02*
D03*
X7120Y7480D02*
D03*
X14290Y26680D02*
D03*
X13650Y26970D02*
D03*
X15790Y26530D02*
D03*
X17260Y27000D02*
D03*
X17010Y28140D02*
D03*
X19090Y29220D02*
D03*
X18470Y27560D02*
D03*
X19960Y30070D02*
D03*
X15450Y31000D02*
D03*
X15660Y31330D02*
D03*
X15990Y31590D02*
D03*
X17400Y31680D02*
D03*
X12470Y27520D02*
D03*
X5550Y28180D02*
D03*
X6510Y28650D02*
D03*
X5550Y26750D02*
D03*
X4190Y25540D02*
D03*
X4160Y26280D02*
D03*
X4140Y25910D02*
D03*
X3550Y25560D02*
D03*
X3090Y27790D02*
D03*
X3260Y28390D02*
D03*
X15810Y21720D02*
D03*
X9860Y23130D02*
D03*
X13370Y19260D02*
D03*
X12660Y19940D02*
D03*
X17500Y19020D02*
D03*
X6710Y20660D02*
D03*
X8540Y19960D02*
D03*
X13720Y22230D02*
D03*
X15210Y20580D02*
D03*
X7030Y19640D02*
D03*
X8080Y12270D02*
D03*
X12070Y15770D02*
D03*
X12490Y16220D02*
D03*
X11550Y15900D02*
D03*
X17220Y18760D02*
D03*
X16980Y18490D02*
D03*
X16710Y18250D02*
D03*
X16430Y18010D02*
D03*
X20750Y24350D02*
D03*
X20780Y24710D02*
D03*
X21530Y24850D02*
D03*
X21860Y24670D02*
D03*
X21810Y24210D02*
D03*
X30780Y37240D02*
D03*
X20560Y29580D02*
D03*
X17790Y27580D02*
D03*
X18360Y25040D02*
D03*
X13510Y20700D02*
D03*
X21650Y22150D02*
D03*
X21510Y18160D02*
D03*
X31760Y15050D02*
D03*
X29670Y14150D02*
D03*
X21800Y16060D02*
D03*
X13130Y23520D02*
D03*
X18850Y25070D02*
D03*
X15640Y23660D02*
D03*
X15850Y24250D02*
D03*
X16190Y24590D02*
D03*
X16740Y25000D02*
D03*
X20320Y31340D02*
D03*
X18090Y29190D02*
D03*
X18590Y29230D02*
D03*
X19580Y29210D02*
D03*
X4456Y7860D02*
D03*
X4096D02*
D03*
Y7600D02*
D03*
X4456D02*
D03*
X5111Y7790D02*
D03*
Y7510D02*
D03*
X3491Y7800D02*
D03*
Y7530D02*
D03*
X2621Y7410D02*
D03*
X2891D02*
D03*
X6431Y5870D02*
D03*
X6241Y6050D02*
D03*
X6141Y5330D02*
D03*
X2577Y5520D02*
D03*
X2407Y5330D02*
D03*
X2307Y6050D02*
D03*
X2117Y5870D02*
D03*
X5871Y7260D02*
D03*
X5621Y7350D02*
D03*
X6141Y7250D02*
D03*
X32690Y7860D02*
D03*
X32330D02*
D03*
Y7600D02*
D03*
X33346Y7790D02*
D03*
Y7510D02*
D03*
X31726Y7800D02*
D03*
Y7530D02*
D03*
X30856Y7410D02*
D03*
X31126D02*
D03*
X34666Y5870D02*
D03*
X34476Y6050D02*
D03*
X34376Y5330D02*
D03*
X30812Y5520D02*
D03*
X30642Y5330D02*
D03*
X30542Y6050D02*
D03*
X30352Y5870D02*
D03*
X34106Y7260D02*
D03*
X33856Y7350D02*
D03*
X34376Y7250D02*
D03*
X25601Y7860D02*
D03*
X25241D02*
D03*
Y7600D02*
D03*
X25601D02*
D03*
X26257Y7790D02*
D03*
Y7510D02*
D03*
X24637Y7800D02*
D03*
Y7530D02*
D03*
X23767Y7410D02*
D03*
X24037D02*
D03*
X27577Y5870D02*
D03*
X27387Y6050D02*
D03*
X27287Y5330D02*
D03*
X27117Y5520D02*
D03*
X23723D02*
D03*
X23553Y5330D02*
D03*
X23453Y6050D02*
D03*
X23263Y5870D02*
D03*
X27017Y7260D02*
D03*
X26767Y7350D02*
D03*
X27287Y7250D02*
D03*
X18515Y7860D02*
D03*
X18155D02*
D03*
Y7600D02*
D03*
X18515D02*
D03*
X19171Y7790D02*
D03*
Y7510D02*
D03*
X17551Y7800D02*
D03*
Y7530D02*
D03*
X16681Y7410D02*
D03*
X16951D02*
D03*
X20491Y5870D02*
D03*
X20301Y6050D02*
D03*
X20201Y5330D02*
D03*
X20031Y5520D02*
D03*
X16637D02*
D03*
X16467Y5330D02*
D03*
X16367Y6050D02*
D03*
X16177Y5870D02*
D03*
X19931Y7260D02*
D03*
X19681Y7350D02*
D03*
X20201Y7250D02*
D03*
X12840Y7260D02*
D03*
X12590Y7350D02*
D03*
X9086Y5870D02*
D03*
X9276Y6050D02*
D03*
X9376Y5330D02*
D03*
X9546Y5520D02*
D03*
X12940D02*
D03*
X13110Y5330D02*
D03*
X13210Y6050D02*
D03*
X13400Y5870D02*
D03*
X9860Y7410D02*
D03*
X9590D02*
D03*
X13110Y7250D02*
D03*
X10460Y7530D02*
D03*
Y7800D02*
D03*
X12080Y7510D02*
D03*
Y7790D02*
D03*
X5470Y12050D02*
D03*
X11424Y7600D02*
D03*
X11064D02*
D03*
X12454Y12080D02*
D03*
X11064Y7860D02*
D03*
X11424D02*
D03*
X19550Y12080D02*
D03*
X40000Y21270D02*
D03*
X39144Y20305D02*
D03*
X31310Y35770D02*
D03*
X3130Y29010D02*
D03*
X19940Y24800D02*
D03*
X30200Y35300D02*
D03*
X30800Y34950D02*
D03*
X29800Y34300D02*
D03*
Y32950D02*
D03*
X12230Y28560D02*
D03*
X35420Y38750D02*
D03*
X35150Y34250D02*
D03*
Y32950D02*
D03*
X36100Y32250D02*
D03*
X37050Y32950D02*
D03*
Y34300D02*
D03*
X35150Y33600D02*
D03*
X37050D02*
D03*
X35150Y32250D02*
D03*
X37050D02*
D03*
X34650Y34250D02*
D03*
Y33600D02*
D03*
Y32950D02*
D03*
Y32250D02*
D03*
X31800Y34300D02*
D03*
Y32950D02*
D03*
X30800Y33600D02*
D03*
Y32250D02*
D03*
X29800D02*
D03*
X31800Y33550D02*
D03*
X29800Y33650D02*
D03*
X31820Y34850D02*
D03*
X31780Y32240D02*
D03*
X39203Y19380D02*
D03*
X38898Y21250D02*
D03*
X38050Y19400D02*
D03*
X40000Y19370D02*
D03*
X37350Y25450D02*
D03*
Y24900D02*
D03*
Y24250D02*
D03*
Y23650D02*
D03*
Y26250D02*
D03*
X38100Y21750D02*
D03*
X38950D02*
D03*
X36100Y29700D02*
D03*
X35200Y30400D02*
D03*
Y29050D02*
D03*
X36100Y28350D02*
D03*
X37000Y29000D02*
D03*
Y30350D02*
D03*
X36100Y31050D02*
D03*
X37000Y29700D02*
D03*
X35200Y29750D02*
D03*
Y31050D02*
D03*
Y28350D02*
D03*
X34650Y30400D02*
D03*
Y29750D02*
D03*
Y29050D02*
D03*
X30800Y29700D02*
D03*
X31750Y30350D02*
D03*
Y29700D02*
D03*
Y29000D02*
D03*
X29850Y29700D02*
D03*
Y30350D02*
D03*
X30800Y28400D02*
D03*
X31750D02*
D03*
X30850Y31050D02*
D03*
X29850D02*
D03*
X38356Y15965D02*
D03*
X40000Y15950D02*
D03*
X38829Y14016D02*
D03*
X39459D02*
D03*
X40098D02*
D03*
X39350Y15950D02*
D03*
Y16350D02*
D03*
X40000D02*
D03*
X38356Y16339D02*
D03*
X39606Y21260D02*
D03*
X38169D02*
D03*
X15300Y24522D02*
D03*
X13290Y24550D02*
D03*
X39183Y14990D02*
D03*
X38858Y16142D02*
D03*
X38140Y14006D02*
D03*
X33720Y12080D02*
D03*
X26631D02*
D03*
X25600Y29160D02*
D03*
X13890Y23880D02*
D03*
X30350Y14510D02*
D03*
X29180Y15060D02*
D03*
X27800Y17180D02*
D03*
X30300D02*
D03*
X29280Y17450D02*
D03*
X32760Y17120D02*
D03*
X34280Y17430D02*
D03*
X31780Y17450D02*
D03*
X9420Y12210D02*
D03*
X26760Y17430D02*
D03*
X28570Y15980D02*
D03*
X31320Y15970D02*
D03*
X29210Y14540D02*
D03*
X22430Y18580D02*
D03*
X22220Y18880D02*
D03*
X22430Y19190D02*
D03*
X15290Y18950D02*
D03*
X15580Y18620D02*
D03*
X23640Y23640D02*
D03*
X24520Y13910D02*
D03*
X22060Y19480D02*
D03*
X22280Y19770D02*
D03*
X23730Y20740D02*
D03*
X30210Y13910D02*
D03*
X14150Y7680D02*
D03*
X19660Y25050D02*
D03*
X19340Y24830D02*
D03*
X33780Y15990D02*
D03*
X22240Y20860D02*
D03*
X22010Y27860D02*
D03*
X20290Y25050D02*
D03*
X20250Y26610D02*
D03*
X19530Y26120D02*
D03*
X20340Y24690D02*
D03*
X23620Y22740D02*
D03*
X24000Y23550D02*
D03*
X24190Y22480D02*
D03*
X24200Y23180D02*
D03*
X23900Y22970D02*
D03*
X21764Y23640D02*
D03*
X23660Y24960D02*
D03*
X33520Y15470D02*
D03*
X24130Y21920D02*
D03*
X26270Y15990D02*
D03*
X17180Y25130D02*
D03*
X21920Y19820D02*
D03*
X21970Y20580D02*
D03*
X21670Y20140D02*
D03*
X15280Y18330D02*
D03*
X15640Y18240D02*
D03*
X19900Y13330D02*
D03*
X23380Y13320D02*
D03*
X19430Y17905D02*
D03*
X16193Y16663D02*
D03*
X14340Y17270D02*
D03*
X14680Y17450D02*
D03*
X13630Y16290D02*
D03*
X3460Y19050D02*
D03*
X6455Y19055D02*
D03*
X5830Y19050D02*
D03*
X3880Y19030D02*
D03*
X2000Y19900D02*
D03*
X21240Y7660D02*
D03*
X28370Y7590D02*
D03*
X35430Y7650D02*
D03*
X13500Y12335D02*
D03*
X33040Y13450D02*
D03*
X37320Y13410D02*
D03*
X35560Y9674D02*
D03*
Y8794D02*
D03*
Y9230D02*
D03*
X28430D02*
D03*
Y8794D02*
D03*
Y9674D02*
D03*
X21360Y9230D02*
D03*
Y8794D02*
D03*
Y9674D02*
D03*
X14300Y9230D02*
D03*
Y8794D02*
D03*
Y9674D02*
D03*
X7200Y9230D02*
D03*
X7220Y8794D02*
D03*
X7200Y9674D02*
D03*
X16960Y32010D02*
D03*
X9020D02*
D03*
X12920D02*
D03*
X25230Y27310D02*
D03*
X20960Y31150D02*
D03*
X24290Y27920D02*
D03*
X23970Y28260D02*
D03*
X23120Y31120D02*
D03*
X24120Y29220D02*
D03*
X3070Y34730D02*
D03*
X3360D02*
D03*
X22150Y21210D02*
D03*
X21810Y21570D02*
D03*
X8550Y16880D02*
D03*
X2270Y16630D02*
D03*
X5100Y19710D02*
D03*
X6455Y19985D02*
D03*
X27810Y20240D02*
D03*
X29610D02*
D03*
X35230Y20230D02*
D03*
X35667Y21280D02*
D03*
X31697Y21290D02*
D03*
X34007D02*
D03*
X30047D02*
D03*
X28237D02*
D03*
X31260Y20240D02*
D03*
X33550Y20250D02*
D03*
X32050Y21610D02*
D03*
X28590Y21540D02*
D03*
X25910Y20230D02*
D03*
X26220Y21300D02*
D03*
X26620Y21280D02*
D03*
X25720Y13910D02*
D03*
X28130Y14690D02*
D03*
X27440Y22280D02*
D03*
X29240D02*
D03*
X30610D02*
D03*
X33180D02*
D03*
X34730D02*
D03*
X22000Y26510D02*
D03*
X15750Y20240D02*
D03*
X21020Y16280D02*
D03*
X20770Y16020D02*
D03*
X20730Y15630D02*
D03*
X18860Y16370D02*
D03*
X18660Y16710D02*
D03*
X18520Y16200D02*
D03*
X18260Y15915D02*
D03*
X26360Y17550D02*
D03*
X25740Y19270D02*
D03*
X25700Y17700D02*
D03*
X22960Y16940D02*
D03*
X22980Y15820D02*
D03*
X23340Y15810D02*
D03*
X23310Y14720D02*
D03*
X17680Y24860D02*
D03*
X18040Y24820D02*
D03*
X38940Y33090D02*
D03*
X40000Y33830D02*
D03*
X38970Y34710D02*
D03*
X38081Y32982D02*
D03*
X37880Y34330D02*
D03*
X39960Y34400D02*
D03*
X39950Y33290D02*
D03*
X39990Y29310D02*
D03*
X40000Y30320D02*
D03*
X37880Y30330D02*
D03*
X37870Y29390D02*
D03*
X38980Y30580D02*
D03*
X40000Y29830D02*
D03*
X38940Y29090D02*
D03*
X38960Y26500D02*
D03*
X39440Y26520D02*
D03*
X39930Y25850D02*
D03*
X39920Y25230D02*
D03*
Y26320D02*
D03*
X38400Y26520D02*
D03*
X37940Y26440D02*
D03*
X37980Y25260D02*
D03*
X38910Y25120D02*
D03*
X39360Y25130D02*
D03*
X38440Y25120D02*
D03*
X39620Y21760D02*
D03*
X29820Y28410D02*
D03*
X29830Y29010D02*
D03*
X31740Y31040D02*
D03*
X11910Y35590D02*
D03*
X19460Y38610D02*
D03*
X18140D02*
D03*
X19470Y38220D02*
D03*
X19480Y39020D02*
D03*
X18140Y39000D02*
D03*
Y38230D02*
D03*
X18180Y37090D02*
D03*
X19480Y37070D02*
D03*
X15480D02*
D03*
X14180Y37090D02*
D03*
X14140Y38230D02*
D03*
Y39000D02*
D03*
X15480Y39020D02*
D03*
X15470Y38220D02*
D03*
X14140Y38610D02*
D03*
X15460D02*
D03*
X11480Y37070D02*
D03*
X10180Y37090D02*
D03*
X10140Y38230D02*
D03*
Y39000D02*
D03*
X11480Y39020D02*
D03*
X11470Y38220D02*
D03*
X10140Y38610D02*
D03*
X11460D02*
D03*
X8440Y36190D02*
D03*
X11910Y33550D02*
D03*
X8210Y33530D02*
D03*
Y35350D02*
D03*
Y34440D02*
D03*
X11910Y34310D02*
D03*
X15895Y33550D02*
D03*
Y35590D02*
D03*
X12360Y35370D02*
D03*
Y33530D02*
D03*
Y34460D02*
D03*
X15900Y34220D02*
D03*
X19910D02*
D03*
X16370Y34460D02*
D03*
Y33530D02*
D03*
Y35370D02*
D03*
X19905Y35590D02*
D03*
Y33550D02*
D03*
X20380Y33030D02*
D03*
Y36020D02*
D03*
X12390Y36220D02*
D03*
X16380Y36240D02*
D03*
X24840Y35950D02*
D03*
X25360Y32830D02*
D03*
X23990Y32790D02*
D03*
X22480Y36020D02*
D03*
X21000Y33000D02*
D03*
Y34000D02*
D03*
X20380D02*
D03*
Y35000D02*
D03*
X21500D02*
D03*
X22500D02*
D03*
X23500D02*
D03*
X24500D02*
D03*
X25460Y35010D02*
D03*
X24500Y34000D02*
D03*
Y33000D02*
D03*
X23500D02*
D03*
Y34000D02*
D03*
X25500D02*
D03*
X21500Y36000D02*
D03*
X800Y12920D02*
D03*
X40000Y21760D02*
D03*
X34640Y31370D02*
D03*
X34650Y28340D02*
D03*
Y34960D02*
D03*
X35160D02*
D03*
X1890Y26500D02*
D03*
X32700Y7600D02*
D03*
X30750Y7180D02*
D03*
X23660Y7170D02*
D03*
X16570D02*
D03*
X2510D02*
D03*
X9480Y7180D02*
D03*
X2784Y31050D02*
D03*
X4596D02*
D03*
X3690Y31956D02*
D03*
Y30144D02*
D03*
X1480Y10784D02*
D03*
Y12596D02*
D03*
X2386Y11690D02*
D03*
X10085Y20145D02*
D03*
X8100Y16407D02*
D03*
X8110Y16821D02*
D03*
X7746Y16870D02*
D03*
X7382Y16968D02*
D03*
X6486Y17608D02*
D03*
X5128Y34705D02*
D03*
X6220Y34793D02*
D03*
D96*
X36470Y38750D02*
D03*
D101*
X19010Y15060D02*
D03*
Y14060D02*
D03*
X18010Y15060D02*
D03*
Y14060D02*
D03*
X17010Y15060D02*
D03*
Y14060D02*
D03*
X16010Y15060D02*
D03*
Y14060D02*
D03*
X15010Y15060D02*
D03*
Y14060D02*
D03*
X14010Y15060D02*
D03*
Y14060D02*
D03*
X13010Y15060D02*
D03*
Y14060D02*
D03*
X12010Y15060D02*
D03*
Y14060D02*
D03*
X11010Y15060D02*
D03*
Y14060D02*
D03*
X10010Y15060D02*
D03*
Y14060D02*
D03*
X9010Y15060D02*
D03*
Y14060D02*
D03*
X8010D02*
D03*
Y18300D02*
D03*
X9010D02*
D03*
Y19300D02*
D03*
X10010Y18300D02*
D03*
Y19300D02*
D03*
X11010Y18300D02*
D03*
Y19300D02*
D03*
X12010Y18300D02*
D03*
Y19300D02*
D03*
X8010Y21150D02*
D03*
X9010D02*
D03*
Y22150D02*
D03*
X10010Y21150D02*
D03*
Y22150D02*
D03*
X11010Y21150D02*
D03*
Y22150D02*
D03*
X12010Y21150D02*
D03*
Y22150D02*
D03*
D102*
X8010Y15060D02*
D03*
Y19300D02*
D03*
Y22150D02*
D03*
D103*
X800Y800D02*
D03*
X2200D02*
D03*
Y2200D02*
D03*
X800D02*
D03*
X500Y1500D02*
D03*
X2500D02*
D03*
X1500Y2500D02*
D03*
Y500D02*
D03*
X800Y38300D02*
D03*
X2200D02*
D03*
Y39700D02*
D03*
X800D02*
D03*
X500Y39000D02*
D03*
X2500D02*
D03*
X1500Y40000D02*
D03*
Y38000D02*
D03*
X38800Y38300D02*
D03*
X40200D02*
D03*
Y39700D02*
D03*
X38800D02*
D03*
X38500Y39000D02*
D03*
X40500D02*
D03*
X39500Y40000D02*
D03*
Y38000D02*
D03*
X38800Y800D02*
D03*
X40200D02*
D03*
Y2200D02*
D03*
X38800D02*
D03*
X38500Y1500D02*
D03*
X40500D02*
D03*
X39500Y2500D02*
D03*
Y500D02*
D03*
D104*
X1500Y1500D02*
D03*
Y39000D02*
D03*
X39500D02*
D03*
Y1500D02*
D03*
D105*
X31085Y25490D02*
D03*
X35220D02*
D03*
X26950D02*
D03*
X35220Y23090D02*
D03*
X31085D02*
D03*
X26950D02*
D03*
X27130Y18630D02*
D03*
X30300D02*
D03*
X33450D02*
D03*
X36580D02*
D03*
X36150Y14550D02*
D03*
X39180Y4550D02*
D03*
D106*
X30760Y32930D02*
D03*
Y34270D02*
D03*
X36060D02*
D03*
Y32930D02*
D03*
X30760Y29030D02*
D03*
Y30370D02*
D03*
X36060D02*
D03*
Y29030D02*
D03*
X39843Y20288D02*
D03*
X38503D02*
D03*
Y14988D02*
D03*
X39843D02*
D03*
D107*
X3690Y31050D02*
D03*
X21550Y14430D02*
D03*
X1480Y11690D02*
D03*
D108*
X4800Y38620D02*
D03*
X6800D02*
D03*
X8800D02*
D03*
X10800D02*
D03*
X12800D02*
D03*
X14800D02*
D03*
X16800D02*
D03*
X18800D02*
D03*
X20800D02*
D03*
X22800D02*
D03*
X38950Y29825D02*
D03*
Y31825D02*
D03*
Y33825D02*
D03*
Y27825D02*
D03*
Y25825D02*
D03*
D109*
X2500Y20630D02*
D03*
Y25362D02*
D03*
D110*
X3570Y22500D02*
D03*
Y23492D02*
D03*
X4360D02*
D03*
Y22500D02*
D03*
D111*
X1840Y29970D02*
D03*
Y32730D02*
D03*
D112*
X38950Y23825D02*
D03*
D113*
X6713Y16634D02*
D03*
X33470Y35960D02*
D03*
M02*
