G04 Layer_Physical_Order=3*
G04 Layer_Color=128*
%FSLAX24Y24*%
%MOIN*%
G70*
G01*
G75*
%ADD12C,0.0100*%
%ADD75C,0.0400*%
%ADD91C,0.0540*%
%ADD96C,0.0290*%
%ADD99C,0.0380*%
%ADD100C,0.0340*%
%ADD102C,0.1581*%
%ADD103C,0.1439*%
%ADD104C,0.0494*%
G04:AMPARAMS|DCode=105|XSize=79.433mil|YSize=79.433mil|CornerRadius=0mil|HoleSize=0mil|Usage=FLASHONLY|Rotation=0.000|XOffset=0mil|YOffset=0mil|HoleType=Round|Shape=Relief|Width=14mil|Gap=10mil|Entries=4|*
%AMTHD105*
7,0,0,0.0794,0.0594,0.0140,45*
%
%ADD105THD105*%
G04:AMPARAMS|DCode=106|XSize=84mil|YSize=84mil|CornerRadius=0mil|HoleSize=0mil|Usage=FLASHONLY|Rotation=0.000|XOffset=0mil|YOffset=0mil|HoleType=Round|Shape=Relief|Width=14mil|Gap=10mil|Entries=4|*
%AMTHD106*
7,0,0,0.0840,0.0640,0.0140,45*
%
%ADD106THD106*%
%ADD108C,0.0690*%
%ADD109C,0.0730*%
%ADD110C,0.0520*%
%ADD111C,0.1010*%
%ADD112C,0.0770*%
%ADD113C,0.1321*%
%ADD115C,0.0360*%
%ADD116C,0.0440*%
D12*
X42804Y17549D02*
G03*
X42804Y17549I-400J0D01*
G01*
X41464D02*
G03*
X41464Y17549I-400J0D01*
G01*
X42804Y22849D02*
G03*
X42804Y22849I-400J0D01*
G01*
X41464D02*
G03*
X41464Y22849I-400J0D01*
G01*
X9761Y41181D02*
G03*
X9761Y41181I-400J0D01*
G01*
X13761D02*
G03*
X13761Y41181I-400J0D01*
G01*
X17761D02*
G03*
X17761Y41181I-400J0D01*
G01*
X21761D02*
G03*
X21761Y41181I-400J0D01*
G01*
X34071Y38331D02*
G03*
X34071Y38331I-200J0D01*
G01*
X41911Y28386D02*
G03*
X41911Y28386I-400J0D01*
G01*
Y32386D02*
G03*
X41911Y32386I-400J0D01*
G01*
X38181Y41311D02*
G03*
X38181Y41311I-200J0D01*
G01*
X39061Y36831D02*
G03*
X39061Y36831I-400J0D01*
G01*
X39060Y35516D02*
G03*
X39061Y35491I-399J-25D01*
G01*
X41911Y36386D02*
G03*
X41911Y36386I-400J0D01*
G01*
X39061Y32931D02*
G03*
X39061Y32931I-400J0D01*
G01*
Y31591D02*
G03*
X39061Y31591I-400J0D01*
G01*
X22701Y39441D02*
X26933D01*
X22701Y35271D02*
Y39441D01*
X23181Y35101D02*
X28230D01*
X23011Y35271D02*
X23181Y35101D01*
X21371Y35271D02*
X23011D01*
X20821Y35821D02*
X21371Y35271D01*
X5561Y35821D02*
X20821D01*
X26943Y39451D02*
X28281Y38113D01*
Y32011D02*
Y38113D01*
X32611Y34311D02*
X35511D01*
X32161Y34761D02*
X32611Y34311D01*
X32161Y34761D02*
Y38101D01*
X32944D01*
X37371Y12911D02*
X40361Y15901D01*
X29867Y30425D02*
X39561D01*
X28281Y32011D02*
X29867Y30425D01*
X39561Y29811D02*
X40061D01*
X39561Y25561D02*
Y26211D01*
Y25561D02*
X40161Y24961D01*
X40361Y18199D02*
Y23311D01*
X39561Y26211D02*
Y30425D01*
X40361Y15901D02*
Y18199D01*
X43461Y29811D02*
Y30211D01*
X43561Y30311D02*
Y31261D01*
X43461Y30211D02*
X43561Y30311D01*
X40061Y29811D02*
X43461D01*
X5561Y36961D02*
Y37011D01*
X2661D02*
X5561D01*
X2661D02*
Y39361D01*
X43511Y15461D02*
Y29711D01*
X2573Y12911D02*
X37371D01*
X2561Y2561D02*
X2573Y12911D01*
X5561Y35821D02*
Y36961D01*
X35839Y34639D02*
Y38111D01*
X35511D02*
X43561D01*
Y38861D01*
X32441Y38111D02*
X35839D01*
X40161Y23511D02*
Y24961D01*
X40361Y21111D02*
X43461D01*
X35511Y34311D02*
X43561D01*
X6011Y2661D02*
X6111Y2561D01*
X40161Y23511D02*
X40361Y23311D01*
X32441Y38111D02*
Y43041D01*
X35839Y30425D02*
Y34639D01*
X2541Y29611D02*
X5751D01*
X6841Y30701D01*
X8421Y32281D01*
X12971D01*
X13101Y32151D01*
Y26721D02*
Y32151D01*
X12951Y26571D02*
X13101Y26721D01*
X10841Y26571D02*
X12951D01*
X8081Y23811D02*
X10841Y26571D01*
X7231Y22961D02*
X8081Y23811D01*
X2561Y22961D02*
X7231D01*
X11311Y36251D02*
Y37721D01*
Y36251D02*
X13211D01*
Y37721D01*
X11311D02*
X13211D01*
X15296Y36251D02*
Y37711D01*
Y36251D02*
X17196D01*
Y37711D01*
X15296D02*
X17196D01*
X19306Y36241D02*
Y37711D01*
Y36241D02*
X21206D01*
Y37711D01*
X19306D02*
X21206D01*
X23861Y35451D02*
Y36911D01*
Y35451D02*
X25761D01*
Y36911D01*
X23861D02*
X25761D01*
X42804Y58049D02*
G03*
X42804Y58049I-400J0D01*
G01*
X41464D02*
G03*
X41464Y58049I-400J0D01*
G01*
X42804Y63349D02*
G03*
X42804Y63349I-400J0D01*
G01*
X41464D02*
G03*
X41464Y63349I-400J0D01*
G01*
X9761Y81681D02*
G03*
X9761Y81681I-400J0D01*
G01*
X13761D02*
G03*
X13761Y81681I-400J0D01*
G01*
X17761D02*
G03*
X17761Y81681I-400J0D01*
G01*
X21761D02*
G03*
X21761Y81681I-400J0D01*
G01*
X34071Y78831D02*
G03*
X34071Y78831I-200J0D01*
G01*
X41911Y68886D02*
G03*
X41911Y68886I-400J0D01*
G01*
Y72886D02*
G03*
X41911Y72886I-400J0D01*
G01*
X38181Y81811D02*
G03*
X38181Y81811I-200J0D01*
G01*
X39061Y77331D02*
G03*
X39061Y77331I-400J0D01*
G01*
X39060Y76016D02*
G03*
X39061Y75991I-399J-25D01*
G01*
X41911Y76886D02*
G03*
X41911Y76886I-400J0D01*
G01*
X39061Y73431D02*
G03*
X39061Y73431I-400J0D01*
G01*
Y72091D02*
G03*
X39061Y72091I-400J0D01*
G01*
X22701Y79941D02*
X26933D01*
X22701Y75771D02*
Y79941D01*
X23181Y75601D02*
X28230D01*
X23011Y75771D02*
X23181Y75601D01*
X21371Y75771D02*
X23011D01*
X20821Y76321D02*
X21371Y75771D01*
X5561Y76321D02*
X20821D01*
X26943Y79951D02*
X28281Y78613D01*
Y72511D02*
Y78613D01*
X32611Y74811D02*
X35511D01*
X32161Y75261D02*
X32611Y74811D01*
X32161Y75261D02*
Y78601D01*
X32944D01*
X37371Y53411D02*
X40361Y56401D01*
X29867Y70925D02*
X39561D01*
X28281Y72511D02*
X29867Y70925D01*
X39561Y70311D02*
X40061D01*
X39561Y66061D02*
Y66711D01*
Y66061D02*
X40161Y65461D01*
X40361Y58699D02*
Y63811D01*
X39561Y66711D02*
Y70925D01*
X40361Y56401D02*
Y58699D01*
X43461Y70311D02*
Y70711D01*
X43561Y70811D02*
Y71761D01*
X43461Y70711D02*
X43561Y70811D01*
X40061Y70311D02*
X43461D01*
X5561Y77461D02*
Y77511D01*
X2661D02*
X5561D01*
X2661D02*
Y79861D01*
X43511Y55961D02*
Y70211D01*
X2573Y53411D02*
X37371D01*
X2561Y43061D02*
X2573Y53411D01*
X5561Y76321D02*
Y77461D01*
X35839Y75139D02*
Y78611D01*
X35511D02*
X43561D01*
Y79361D01*
X32441Y78611D02*
X35839D01*
X40161Y64011D02*
Y65461D01*
X40361Y61611D02*
X43461D01*
X35511Y74811D02*
X43561D01*
X6011Y43161D02*
X6111Y43061D01*
X40161Y64011D02*
X40361Y63811D01*
X32441Y78611D02*
Y83541D01*
X35839Y70925D02*
Y75139D01*
X2541Y70111D02*
X5751D01*
X6841Y71201D01*
X8421Y72781D01*
X12971D01*
X13101Y72651D01*
Y67221D02*
Y72651D01*
X12951Y67071D02*
X13101Y67221D01*
X10841Y67071D02*
X12951D01*
X8081Y64311D02*
X10841Y67071D01*
X7231Y63461D02*
X8081Y64311D01*
X2561Y63461D02*
X7231D01*
X11311Y76751D02*
Y78221D01*
Y76751D02*
X13211D01*
Y78221D01*
X11311D02*
X13211D01*
X15296Y76751D02*
Y78211D01*
Y76751D02*
X17196D01*
Y78211D01*
X15296D02*
X17196D01*
X19306Y76741D02*
Y78211D01*
Y76741D02*
X21206D01*
Y78211D01*
X19306D02*
X21206D01*
X23861Y75951D02*
Y77411D01*
Y75951D02*
X25761D01*
Y77411D01*
X23861D02*
X25761D01*
D75*
X22Y22D02*
X46150D01*
Y86119D01*
X22D02*
X46150D01*
X22Y22D02*
Y86119D01*
X2561Y2561D02*
Y43061D01*
X43561D01*
Y2561D02*
Y43061D01*
X2561Y2561D02*
X43561D01*
X2561Y43061D02*
Y83561D01*
X43561D01*
Y43061D02*
Y83561D01*
X2561Y43061D02*
X43561D01*
D91*
X41741Y7111D02*
D03*
Y8111D02*
D03*
Y9111D02*
D03*
Y10111D02*
D03*
X3421Y34801D02*
D03*
Y33021D02*
D03*
X36011Y4011D02*
D03*
X37011D02*
D03*
X38011D02*
D03*
X39011D02*
D03*
X30061D02*
D03*
X31061D02*
D03*
X32061D02*
D03*
X33061D02*
D03*
X13011D02*
D03*
X14011D02*
D03*
X15011D02*
D03*
X16011D02*
D03*
X7111D02*
D03*
X8111D02*
D03*
X9111D02*
D03*
X10111D02*
D03*
X38711Y17111D02*
D03*
X37711D02*
D03*
X36711D02*
D03*
X35711D02*
D03*
X39141Y21191D02*
D03*
X38141D02*
D03*
X36011D02*
D03*
X35011D02*
D03*
X32861D02*
D03*
X31861D02*
D03*
X29691D02*
D03*
X28691D02*
D03*
X22061Y4011D02*
D03*
X21061D02*
D03*
X20061D02*
D03*
X19061D02*
D03*
X27161D02*
D03*
X26161D02*
D03*
X25161D02*
D03*
X24161D02*
D03*
X28511Y25651D02*
D03*
X29511D02*
D03*
X33646D02*
D03*
X32646D02*
D03*
X36781D02*
D03*
X37781D02*
D03*
X29511Y28051D02*
D03*
X30511D02*
D03*
X38781D02*
D03*
X37781D02*
D03*
X33646D02*
D03*
X34646D02*
D03*
X4761Y37911D02*
D03*
X3761D02*
D03*
X41741Y47611D02*
D03*
Y48611D02*
D03*
Y49611D02*
D03*
Y50611D02*
D03*
X3421Y75301D02*
D03*
Y73521D02*
D03*
X36011Y44511D02*
D03*
X37011D02*
D03*
X38011D02*
D03*
X39011D02*
D03*
X30061D02*
D03*
X31061D02*
D03*
X32061D02*
D03*
X33061D02*
D03*
X13011D02*
D03*
X14011D02*
D03*
X15011D02*
D03*
X16011D02*
D03*
X7111D02*
D03*
X8111D02*
D03*
X9111D02*
D03*
X10111D02*
D03*
X38711Y57611D02*
D03*
X37711D02*
D03*
X36711D02*
D03*
X35711D02*
D03*
X39141Y61691D02*
D03*
X38141D02*
D03*
X36011D02*
D03*
X35011D02*
D03*
X32861D02*
D03*
X31861D02*
D03*
X29691D02*
D03*
X28691D02*
D03*
X22061Y44511D02*
D03*
X21061D02*
D03*
X20061D02*
D03*
X19061D02*
D03*
X27161D02*
D03*
X26161D02*
D03*
X25161D02*
D03*
X24161D02*
D03*
X28511Y66151D02*
D03*
X29511D02*
D03*
X33646D02*
D03*
X32646D02*
D03*
X36781D02*
D03*
X37781D02*
D03*
X29511Y68551D02*
D03*
X30511D02*
D03*
X38781D02*
D03*
X37781D02*
D03*
X33646D02*
D03*
X34646D02*
D03*
X4761Y78411D02*
D03*
X3761D02*
D03*
D96*
X42061Y3061D02*
D03*
Y5061D02*
D03*
X43061Y4061D02*
D03*
X41061D02*
D03*
X41361Y4761D02*
D03*
X42761D02*
D03*
Y3361D02*
D03*
X41361D02*
D03*
X42061Y40561D02*
D03*
Y42561D02*
D03*
X43061Y41561D02*
D03*
X41061D02*
D03*
X41361Y42261D02*
D03*
X42761D02*
D03*
Y40861D02*
D03*
X41361D02*
D03*
X4061Y40561D02*
D03*
Y42561D02*
D03*
X5061Y41561D02*
D03*
X3061D02*
D03*
X3361Y42261D02*
D03*
X4761D02*
D03*
Y40861D02*
D03*
X3361D02*
D03*
X4061Y3061D02*
D03*
Y5061D02*
D03*
X5061Y4061D02*
D03*
X3061D02*
D03*
X3361Y4761D02*
D03*
X4761D02*
D03*
Y3361D02*
D03*
X3361D02*
D03*
X8781Y37354D02*
D03*
X7689Y37266D02*
D03*
X9293Y35917D02*
D03*
X9972Y35937D02*
D03*
X8132Y36429D02*
D03*
X8112Y37118D02*
D03*
X9047Y20169D02*
D03*
X9943Y19530D02*
D03*
X10307Y19431D02*
D03*
X10671Y19382D02*
D03*
X10661Y18968D02*
D03*
X12646Y22706D02*
D03*
X7702Y12584D02*
D03*
Y12151D02*
D03*
Y11718D02*
D03*
X7269Y12584D02*
D03*
Y12151D02*
D03*
Y11718D02*
D03*
X6835Y12584D02*
D03*
Y12151D02*
D03*
Y11718D02*
D03*
X6402Y12584D02*
D03*
Y12151D02*
D03*
Y11718D02*
D03*
X5969Y12584D02*
D03*
Y12151D02*
D03*
Y11718D02*
D03*
X12938D02*
D03*
Y12151D02*
D03*
Y12584D02*
D03*
X13371Y11718D02*
D03*
Y12151D02*
D03*
Y12584D02*
D03*
X13804Y11718D02*
D03*
Y12151D02*
D03*
Y12584D02*
D03*
X14237Y11718D02*
D03*
Y12151D02*
D03*
Y12584D02*
D03*
X14670Y11718D02*
D03*
Y12151D02*
D03*
Y12584D02*
D03*
X21761D02*
D03*
Y12151D02*
D03*
Y11718D02*
D03*
X21328Y12584D02*
D03*
Y12151D02*
D03*
Y11718D02*
D03*
X20895Y12584D02*
D03*
Y12151D02*
D03*
Y11718D02*
D03*
X20462Y12584D02*
D03*
Y12151D02*
D03*
Y11718D02*
D03*
X20029Y12584D02*
D03*
Y12151D02*
D03*
Y11718D02*
D03*
X27115D02*
D03*
Y12151D02*
D03*
Y12584D02*
D03*
X27548Y11718D02*
D03*
Y12151D02*
D03*
Y12584D02*
D03*
X27981Y11718D02*
D03*
Y12151D02*
D03*
Y12584D02*
D03*
X28414Y11718D02*
D03*
Y12151D02*
D03*
Y12584D02*
D03*
X28847Y11718D02*
D03*
Y12151D02*
D03*
Y12584D02*
D03*
X35936D02*
D03*
Y12151D02*
D03*
Y11718D02*
D03*
X35503Y12584D02*
D03*
Y12151D02*
D03*
Y11718D02*
D03*
X35070Y12584D02*
D03*
Y12151D02*
D03*
Y11718D02*
D03*
X34637Y12584D02*
D03*
Y12151D02*
D03*
Y11718D02*
D03*
X34204Y12584D02*
D03*
Y12151D02*
D03*
Y11718D02*
D03*
X3136Y14251D02*
D03*
X4947D02*
D03*
X4041Y15157D02*
D03*
Y13346D02*
D03*
X35268Y41199D02*
D03*
X34874D02*
D03*
X34480D02*
D03*
Y40805D02*
D03*
Y40412D02*
D03*
X34874D02*
D03*
X35268D02*
D03*
Y40805D02*
D03*
X34874D02*
D03*
X23206Y16991D02*
D03*
X25017D02*
D03*
X24111Y17897D02*
D03*
Y16086D02*
D03*
X6251Y32706D02*
D03*
Y34517D02*
D03*
X7157Y33611D02*
D03*
X5346D02*
D03*
X35261Y10161D02*
D03*
X5921Y4041D02*
D03*
X4901Y39021D02*
D03*
X4451Y29061D02*
D03*
X40281Y11921D02*
D03*
Y11381D02*
D03*
X39891Y12581D02*
D03*
X41727Y39567D02*
D03*
X35211Y37391D02*
D03*
Y36841D02*
D03*
Y36241D02*
D03*
Y35691D02*
D03*
Y35141D02*
D03*
Y34681D02*
D03*
X41916Y38028D02*
D03*
Y38428D02*
D03*
X41436Y39018D02*
D03*
X42961Y39021D02*
D03*
Y38431D02*
D03*
Y38031D02*
D03*
X5481Y32111D02*
D03*
X3361Y15481D02*
D03*
X24061Y38561D02*
D03*
X28061Y36561D02*
D03*
X26061D02*
D03*
Y35561D02*
D03*
X27061D02*
D03*
Y36561D02*
D03*
X28021Y37571D02*
D03*
X27061Y37561D02*
D03*
X26061D02*
D03*
X25061D02*
D03*
X24061D02*
D03*
X22941D02*
D03*
Y36561D02*
D03*
X23561D02*
D03*
Y35561D02*
D03*
X25041Y38581D02*
D03*
X26551Y35351D02*
D03*
X27921Y35391D02*
D03*
X27401Y38511D02*
D03*
X18941Y38801D02*
D03*
X14951Y38781D02*
D03*
X22941Y38581D02*
D03*
Y35591D02*
D03*
X22466Y36111D02*
D03*
Y38151D02*
D03*
X18931Y37931D02*
D03*
Y36091D02*
D03*
Y37021D02*
D03*
X22471Y36781D02*
D03*
X18461D02*
D03*
X14921Y37021D02*
D03*
Y36091D02*
D03*
Y37931D02*
D03*
X18456Y38151D02*
D03*
Y36111D02*
D03*
X14471Y36871D02*
D03*
X10771Y37001D02*
D03*
Y37911D02*
D03*
Y36091D02*
D03*
X14471Y36111D02*
D03*
X11001Y38751D02*
D03*
X29671Y42171D02*
D03*
X11131Y39361D02*
D03*
X15081Y39451D02*
D03*
X19031Y39431D02*
D03*
X29671Y41811D02*
D03*
Y41441D02*
D03*
X22981Y39311D02*
D03*
X14471Y38151D02*
D03*
X28351Y36851D02*
D03*
Y37391D02*
D03*
X29341Y33974D02*
D03*
Y34386D02*
D03*
Y34799D02*
D03*
X28331Y33984D02*
D03*
X29341Y33561D02*
D03*
X28621D02*
D03*
X28331Y33571D02*
D03*
X29341Y35211D02*
D03*
X28621Y35221D02*
D03*
X28331D02*
D03*
X28771Y29831D02*
D03*
X28791Y30201D02*
D03*
X28761Y30591D02*
D03*
X29921Y30781D02*
D03*
X31041Y29971D02*
D03*
Y30391D02*
D03*
X29921Y30381D02*
D03*
Y29901D02*
D03*
X29301Y36171D02*
D03*
X34331Y30241D02*
D03*
X32611Y29931D02*
D03*
X33451Y29921D02*
D03*
X30021Y42241D02*
D03*
X30041Y41441D02*
D03*
X32191Y41431D02*
D03*
Y42261D02*
D03*
X31841Y41421D02*
D03*
Y41841D02*
D03*
X31831Y42271D02*
D03*
X30891Y41821D02*
D03*
Y42241D02*
D03*
Y41431D02*
D03*
X29341Y42171D02*
D03*
X29331Y41801D02*
D03*
X29341Y41441D02*
D03*
X27611Y42201D02*
D03*
X35461Y30651D02*
D03*
X40441Y30341D02*
D03*
X41531Y31111D02*
D03*
X41551Y29651D02*
D03*
X42561Y30391D02*
D03*
Y29971D02*
D03*
X42551Y30841D02*
D03*
X42001Y31091D02*
D03*
X41111D02*
D03*
X40511Y30711D02*
D03*
X40571Y29951D02*
D03*
X41131Y29681D02*
D03*
X41951Y29691D02*
D03*
Y33691D02*
D03*
X41131Y33681D02*
D03*
X40571Y33951D02*
D03*
X40511Y34711D02*
D03*
X41111Y35091D02*
D03*
X42001D02*
D03*
X42551Y34841D02*
D03*
X42561Y33971D02*
D03*
Y34391D02*
D03*
X41551Y33651D02*
D03*
X41531Y35111D02*
D03*
X40441Y34341D02*
D03*
X9321Y33561D02*
D03*
X20601Y27381D02*
D03*
X20241Y27421D02*
D03*
X25871Y17281D02*
D03*
X25901Y18371D02*
D03*
X25541Y18381D02*
D03*
X25521Y19501D02*
D03*
X28261Y20261D02*
D03*
X28301Y21831D02*
D03*
X28921Y20111D02*
D03*
X28851Y19511D02*
D03*
X20821Y18476D02*
D03*
X21081Y18761D02*
D03*
X21221Y19271D02*
D03*
X21421Y18931D02*
D03*
X23291Y18191D02*
D03*
X23331Y18581D02*
D03*
X23581Y18841D02*
D03*
X23811Y18561D02*
D03*
X8691Y30221D02*
D03*
X9041Y30831D02*
D03*
X14751Y30731D02*
D03*
X15011Y19301D02*
D03*
X16941Y19321D02*
D03*
X18311Y22801D02*
D03*
X16691Y23071D02*
D03*
X41121Y6181D02*
D03*
X43091Y20781D02*
D03*
Y21381D02*
D03*
Y21081D02*
D03*
X37291Y24841D02*
D03*
X35741D02*
D03*
X33171D02*
D03*
X31801D02*
D03*
X30001D02*
D03*
X28281Y16471D02*
D03*
X29181Y23841D02*
D03*
X28831Y22791D02*
D03*
X28471D02*
D03*
X31151Y24101D02*
D03*
X34611Y24171D02*
D03*
X30798Y23851D02*
D03*
X32608D02*
D03*
X36568D02*
D03*
X34258D02*
D03*
X38228Y23841D02*
D03*
X37791Y23831D02*
D03*
X36111D02*
D03*
X33821D02*
D03*
X32171Y23841D02*
D03*
X30371D02*
D03*
X4831Y19191D02*
D03*
X3121Y17081D02*
D03*
Y20041D02*
D03*
Y20481D02*
D03*
Y16651D02*
D03*
X11111Y19441D02*
D03*
X24371Y24131D02*
D03*
X24711Y23771D02*
D03*
X5541Y36551D02*
D03*
Y35901D02*
D03*
X28071Y32531D02*
D03*
X26631Y32401D02*
D03*
X26681Y31781D02*
D03*
X26531Y30821D02*
D03*
X26851Y30481D02*
D03*
X23521Y33711D02*
D03*
X27791Y29871D02*
D03*
X22871Y35201D02*
D03*
X20571Y34551D02*
D03*
X18921Y34241D02*
D03*
X15481Y34571D02*
D03*
X10981Y34251D02*
D03*
X11581Y34571D02*
D03*
X12401Y34251D02*
D03*
X14861D02*
D03*
X16271D02*
D03*
X19521Y34571D02*
D03*
X18811Y35651D02*
D03*
X14841Y35661D02*
D03*
X10861D02*
D03*
X7291Y39291D02*
D03*
X7881Y33351D02*
D03*
X5411Y21471D02*
D03*
X3721D02*
D03*
X3071Y22651D02*
D03*
X4851Y19631D02*
D03*
X9801Y13825D02*
D03*
Y13388D02*
D03*
Y14268D02*
D03*
X16901Y13825D02*
D03*
Y13388D02*
D03*
Y14268D02*
D03*
X23961Y13825D02*
D03*
Y13388D02*
D03*
Y14268D02*
D03*
X31031Y13825D02*
D03*
Y13388D02*
D03*
Y14268D02*
D03*
X38161D02*
D03*
Y13388D02*
D03*
Y13825D02*
D03*
X35601Y16011D02*
D03*
X33011Y13651D02*
D03*
X26111Y13831D02*
D03*
X5421Y13841D02*
D03*
X16061Y14896D02*
D03*
X38691Y9721D02*
D03*
X37991Y10211D02*
D03*
X30931Y10151D02*
D03*
X31571Y9711D02*
D03*
X22566Y11571D02*
D03*
X23801Y10221D02*
D03*
X24511Y9731D02*
D03*
X3051Y15251D02*
D03*
X23101Y15991D02*
D03*
X3011Y33951D02*
D03*
X3061Y13141D02*
D03*
X6441Y21591D02*
D03*
X8391Y21611D02*
D03*
X9016Y21616D02*
D03*
X6021Y21611D02*
D03*
X16191Y18851D02*
D03*
X17241Y20011D02*
D03*
X17441Y19501D02*
D03*
X17791Y19371D02*
D03*
X18754Y19224D02*
D03*
X21991Y20466D02*
D03*
X21691Y14611D02*
D03*
X25941Y15881D02*
D03*
X22461Y15891D02*
D03*
X18201Y20801D02*
D03*
X17841Y20891D02*
D03*
X24231Y22701D02*
D03*
X24531Y23141D02*
D03*
X24481Y22381D02*
D03*
X19741Y27691D02*
D03*
X26491Y23951D02*
D03*
X28831Y18551D02*
D03*
X26691Y24481D02*
D03*
X36081Y18031D02*
D03*
X26221Y27521D02*
D03*
X24325Y26201D02*
D03*
X31771Y16111D02*
D03*
X26461Y25531D02*
D03*
X26761Y25741D02*
D03*
X26751Y25041D02*
D03*
X26561Y26111D02*
D03*
X26181Y25301D02*
D03*
X23381Y30131D02*
D03*
X22901Y27251D02*
D03*
X22451Y29271D02*
D03*
X22091Y28681D02*
D03*
X22851Y27611D02*
D03*
X24571Y30421D02*
D03*
X23211Y29531D02*
D03*
X24801Y23421D02*
D03*
X36341Y18551D02*
D03*
X21901Y27391D02*
D03*
X22221Y27611D02*
D03*
X16711Y10241D02*
D03*
X17421Y9721D02*
D03*
X8507Y11571D02*
D03*
X10311Y9731D02*
D03*
X32771Y16471D02*
D03*
X24841Y22331D02*
D03*
X24621Y22041D02*
D03*
X27081Y16471D02*
D03*
X26201Y26201D02*
D03*
X26221Y22311D02*
D03*
X18141Y21181D02*
D03*
X17851Y21511D02*
D03*
X24721Y18621D02*
D03*
X24991Y21751D02*
D03*
X24781Y21441D02*
D03*
X24991Y21141D02*
D03*
X31771Y17101D02*
D03*
X33881Y18531D02*
D03*
X31131Y18541D02*
D03*
X38341Y19721D02*
D03*
X11981Y14771D02*
D03*
X15851Y27491D02*
D03*
X31051Y19241D02*
D03*
X36351Y19531D02*
D03*
X33821D02*
D03*
X35321Y19681D02*
D03*
X32861Y19741D02*
D03*
X30361D02*
D03*
X31741Y17621D02*
D03*
X32911Y17071D02*
D03*
X16451Y26441D02*
D03*
X29662Y14641D02*
D03*
X28772D02*
D03*
X36751D02*
D03*
X32679Y38378D02*
D03*
X15851Y27111D02*
D03*
X17861Y27083D02*
D03*
X7069Y20701D02*
D03*
X39961Y34321D02*
D03*
X36511Y34061D02*
D03*
X39261Y34321D02*
D03*
X38561D02*
D03*
X37861D02*
D03*
X37161D02*
D03*
X36511Y33361D02*
D03*
X36461Y32811D02*
D03*
Y32211D02*
D03*
Y31611D02*
D03*
Y31111D02*
D03*
Y37461D02*
D03*
X36511Y34811D02*
D03*
Y35511D02*
D03*
X36461Y36161D02*
D03*
Y36861D02*
D03*
X37761Y30511D02*
D03*
X35461Y31111D02*
D03*
Y31661D02*
D03*
Y32211D02*
D03*
Y32811D02*
D03*
Y33361D02*
D03*
X24831Y34721D02*
D03*
X19381Y35081D02*
D03*
X15231Y35521D02*
D03*
X11381Y35081D02*
D03*
X20281Y35521D02*
D03*
X16251Y35541D02*
D03*
X12271Y35531D02*
D03*
X12581Y35081D02*
D03*
X11261Y35531D02*
D03*
X11781D02*
D03*
X12181Y35081D02*
D03*
X11781D02*
D03*
X23751Y34271D02*
D03*
X24967D02*
D03*
X16191Y35081D02*
D03*
X16591D02*
D03*
X15761Y35531D02*
D03*
X15791Y35081D02*
D03*
X15391D02*
D03*
X19781D02*
D03*
X20181D02*
D03*
X19751Y35531D02*
D03*
X19231Y35521D02*
D03*
X20581Y35081D02*
D03*
X36035Y39913D02*
D03*
X33994Y40125D02*
D03*
X37981Y41311D02*
D03*
X3081Y35451D02*
D03*
X34021Y16911D02*
D03*
X39481Y41361D02*
D03*
X24055Y34271D02*
D03*
X23751Y34561D02*
D03*
X9361Y27721D02*
D03*
X25271Y34271D02*
D03*
X24311Y34721D02*
D03*
X24359Y34271D02*
D03*
X41261Y15211D02*
D03*
Y14611D02*
D03*
Y13861D02*
D03*
Y13261D02*
D03*
X40761Y13211D02*
D03*
Y13861D02*
D03*
Y14611D02*
D03*
Y15211D02*
D03*
X28331Y34809D02*
D03*
Y34396D02*
D03*
X37481Y41311D02*
D03*
X4191Y22651D02*
D03*
X22501Y27361D02*
D03*
X15961Y26721D02*
D03*
X33201Y38881D02*
D03*
X34603Y41985D02*
D03*
X35881Y14641D02*
D03*
X22581D02*
D03*
X19081Y13851D02*
D03*
X13985Y10421D02*
D03*
X13625D02*
D03*
X15901Y10241D02*
D03*
X15485Y14641D02*
D03*
X14595D02*
D03*
X13625Y10161D02*
D03*
X13985D02*
D03*
X12786Y6591D02*
D03*
X12031Y13871D02*
D03*
X8501Y14611D02*
D03*
X5172Y12761D02*
D03*
X13046Y6591D02*
D03*
X14641Y10351D02*
D03*
Y10071D02*
D03*
X10991Y10101D02*
D03*
X13021Y10361D02*
D03*
Y10091D02*
D03*
X15961Y8431D02*
D03*
X15771Y8611D02*
D03*
X15671Y7891D02*
D03*
X15501Y8081D02*
D03*
X16541Y8781D02*
D03*
X15126Y6591D02*
D03*
X12107Y8081D02*
D03*
X11937Y7891D02*
D03*
X11837Y8611D02*
D03*
X11647Y8431D02*
D03*
X12551Y7451D02*
D03*
X12878D02*
D03*
X13204D02*
D03*
X13531D02*
D03*
X14031D02*
D03*
X14368D02*
D03*
X14704D02*
D03*
X15041D02*
D03*
X13491Y8711D02*
D03*
X14171D02*
D03*
X10951Y8761D02*
D03*
X10681D02*
D03*
X17186Y5571D02*
D03*
X23982D02*
D03*
X17802Y5551D02*
D03*
X17772Y8761D02*
D03*
X18042D02*
D03*
X21262Y8711D02*
D03*
X20582D02*
D03*
X22132Y7451D02*
D03*
X21796D02*
D03*
X21459D02*
D03*
X21122D02*
D03*
X20622D02*
D03*
X20296D02*
D03*
X19969D02*
D03*
X19642D02*
D03*
X18208Y6651D02*
D03*
X18738Y8431D02*
D03*
X18928Y8611D02*
D03*
X19028Y7891D02*
D03*
X19198Y8081D02*
D03*
X21922Y6591D02*
D03*
X22192D02*
D03*
X23632Y8781D02*
D03*
X22592Y8081D02*
D03*
X22762Y7891D02*
D03*
X22862Y8611D02*
D03*
X23052Y8431D02*
D03*
X20112Y10091D02*
D03*
Y10361D02*
D03*
X18082Y10081D02*
D03*
X21732Y10071D02*
D03*
Y10351D02*
D03*
X19842Y6591D02*
D03*
X23582Y6651D02*
D03*
X19582Y6591D02*
D03*
X21076Y10161D02*
D03*
X20716D02*
D03*
X22992Y10241D02*
D03*
X20716Y10421D02*
D03*
X21076D02*
D03*
X24888Y5551D02*
D03*
X24858Y8761D02*
D03*
X25128D02*
D03*
X28348Y8711D02*
D03*
X27668D02*
D03*
X29218Y7451D02*
D03*
X28882D02*
D03*
X28545D02*
D03*
X28208D02*
D03*
X27708D02*
D03*
X27382D02*
D03*
X27055D02*
D03*
X26728D02*
D03*
X25294Y6651D02*
D03*
X25824Y8431D02*
D03*
X26014Y8611D02*
D03*
X26114Y7891D02*
D03*
X26284Y8081D02*
D03*
X29008Y6591D02*
D03*
X29278D02*
D03*
X30718Y8781D02*
D03*
X29678Y8081D02*
D03*
X29848Y7891D02*
D03*
X29948Y8611D02*
D03*
X30138Y8431D02*
D03*
X27198Y10091D02*
D03*
Y10361D02*
D03*
X25168Y10101D02*
D03*
X28818Y10071D02*
D03*
Y10351D02*
D03*
X26928Y6591D02*
D03*
X30668Y6651D02*
D03*
X26668Y6591D02*
D03*
X28162Y10161D02*
D03*
X27802D02*
D03*
X29652Y11571D02*
D03*
X30078Y10241D02*
D03*
X27802Y10421D02*
D03*
X28162D02*
D03*
X38157Y5571D02*
D03*
X31947Y8761D02*
D03*
X32217D02*
D03*
X35431Y8711D02*
D03*
X34757D02*
D03*
X36307Y7451D02*
D03*
X35970D02*
D03*
X35633D02*
D03*
X35297D02*
D03*
X34797D02*
D03*
X34470D02*
D03*
X34143D02*
D03*
X33817D02*
D03*
X32383Y6651D02*
D03*
X32913Y8431D02*
D03*
X33103Y8611D02*
D03*
X33203Y7891D02*
D03*
X33373Y8081D02*
D03*
X36097Y6591D02*
D03*
X36367D02*
D03*
X37807Y8781D02*
D03*
X36937Y7891D02*
D03*
X37037Y8611D02*
D03*
X37227Y8431D02*
D03*
X34287Y10091D02*
D03*
Y10361D02*
D03*
X32257Y10101D02*
D03*
X35907Y10071D02*
D03*
Y10351D02*
D03*
X34017Y6591D02*
D03*
X37757Y6651D02*
D03*
X33757Y6591D02*
D03*
X34891Y10161D02*
D03*
X36741Y11571D02*
D03*
X37167Y10241D02*
D03*
X34891Y10421D02*
D03*
X35251D02*
D03*
X3081Y35881D02*
D03*
X10318Y5571D02*
D03*
X3712Y8761D02*
D03*
X9942Y8791D02*
D03*
X3982Y8761D02*
D03*
X7202Y8711D02*
D03*
X6522D02*
D03*
X8072Y7451D02*
D03*
X7736D02*
D03*
X7399D02*
D03*
X7062D02*
D03*
X6562D02*
D03*
X6236D02*
D03*
X5909D02*
D03*
X5582D02*
D03*
X4678Y8431D02*
D03*
X4868Y8611D02*
D03*
X4968Y7891D02*
D03*
X5138Y8081D02*
D03*
X8256Y6591D02*
D03*
X8526D02*
D03*
X9672Y8781D02*
D03*
X8702Y7891D02*
D03*
X8802Y8611D02*
D03*
X8992Y8431D02*
D03*
X6052Y10091D02*
D03*
Y10361D02*
D03*
X4022Y10101D02*
D03*
X7672Y10071D02*
D03*
Y10351D02*
D03*
X6176Y6591D02*
D03*
X5916D02*
D03*
X7017Y10161D02*
D03*
X6657D02*
D03*
X8932Y10241D02*
D03*
X6657Y10421D02*
D03*
X7017D02*
D03*
X31101Y5551D02*
D03*
X32041Y5601D02*
D03*
X7611Y14621D02*
D03*
X36820Y12151D02*
D03*
Y12651D02*
D03*
X33320Y12151D02*
D03*
X33570Y11651D02*
D03*
X25481Y12901D02*
D03*
Y12151D02*
D03*
X26481Y11651D02*
D03*
X26231Y12151D02*
D03*
X29731Y12651D02*
D03*
Y12151D02*
D03*
X19395Y11651D02*
D03*
X19145Y12151D02*
D03*
X22645Y12651D02*
D03*
Y12151D02*
D03*
X11304Y12901D02*
D03*
Y12151D02*
D03*
X12304Y11651D02*
D03*
X12054Y12151D02*
D03*
X15554Y12651D02*
D03*
Y12151D02*
D03*
X15475Y11571D02*
D03*
X3585Y10401D02*
D03*
Y11401D02*
D03*
Y12151D02*
D03*
Y12901D02*
D03*
X4331Y12881D02*
D03*
X4335Y12151D02*
D03*
X5335Y11651D02*
D03*
X5085Y12151D02*
D03*
X8585Y12651D02*
D03*
Y12151D02*
D03*
X5335Y15151D02*
D03*
X11304Y13651D02*
D03*
X3604Y6026D02*
D03*
X3641Y32021D02*
D03*
X22141Y31771D02*
D03*
X21151Y31791D02*
D03*
X20651Y31751D02*
D03*
X21401Y32671D02*
D03*
X24663Y34271D02*
D03*
X23751Y34851D02*
D03*
X22881Y33901D02*
D03*
X22501Y33911D02*
D03*
X19301Y27561D02*
D03*
X18751Y27151D02*
D03*
X18411Y26811D02*
D03*
X17781Y26101D02*
D03*
X18201Y26221D02*
D03*
X21411Y27631D02*
D03*
X15691Y26081D02*
D03*
X32231Y16711D02*
D03*
X24071Y20721D02*
D03*
X24211Y24711D02*
D03*
X15631Y22081D02*
D03*
X15591Y22451D02*
D03*
X20921Y27601D02*
D03*
X9711Y22761D02*
D03*
X24371Y26771D02*
D03*
X24421Y27231D02*
D03*
X24091Y27411D02*
D03*
X23341Y27271D02*
D03*
X23311Y26911D02*
D03*
X16001Y23771D02*
D03*
X18991Y20571D02*
D03*
X19271Y20811D02*
D03*
X19541Y21051D02*
D03*
X19781Y21321D02*
D03*
X14111Y18461D02*
D03*
X15051Y18781D02*
D03*
X14631Y18331D02*
D03*
X10641Y14831D02*
D03*
X9591Y22201D02*
D03*
X17771Y23141D02*
D03*
X16611Y23961D02*
D03*
X11101Y22521D02*
D03*
X9271Y23221D02*
D03*
X20061Y21581D02*
D03*
X14551Y26081D02*
D03*
X15641Y24931D02*
D03*
X15221Y22501D02*
D03*
X18371Y24281D02*
D03*
X5821Y30951D02*
D03*
X5651Y30351D02*
D03*
X6121Y29011D02*
D03*
X3041Y29181D02*
D03*
X5561Y29071D02*
D03*
X6701Y28471D02*
D03*
X6721Y28841D02*
D03*
X6751Y28101D02*
D03*
X14401Y27561D02*
D03*
X8111Y29311D02*
D03*
X7421Y30491D02*
D03*
X7401Y29581D02*
D03*
X13691Y26911D02*
D03*
X13701Y31971D02*
D03*
X10031Y25241D02*
D03*
X9061Y32631D02*
D03*
X15171Y32531D02*
D03*
X8381Y31771D02*
D03*
X7671Y23871D02*
D03*
X13971Y26471D02*
D03*
X19381Y27111D02*
D03*
X24201Y25821D02*
D03*
X22341Y20831D02*
D03*
X18141Y21981D02*
D03*
X18771Y21591D02*
D03*
X18671Y23101D02*
D03*
X18411Y24751D02*
D03*
X17861Y24731D02*
D03*
X17951Y23491D02*
D03*
X21471Y27221D02*
D03*
X24651Y20591D02*
D03*
X18131Y26581D02*
D03*
X21171Y24701D02*
D03*
X19961Y34241D02*
D03*
X18551Y34151D02*
D03*
X18221Y33891D02*
D03*
X18011Y33561D02*
D03*
X19811Y32661D02*
D03*
X21651Y31781D02*
D03*
X19571Y30701D02*
D03*
X19821Y29561D02*
D03*
X18721Y29091D02*
D03*
X18351D02*
D03*
X16851Y29241D02*
D03*
X11971Y32551D02*
D03*
X10941Y26251D02*
D03*
X36871Y37906D02*
D03*
X37961D02*
D03*
X38931D02*
D03*
X40111D02*
D03*
X36801Y30511D02*
D03*
X39711D02*
D03*
X38811D02*
D03*
X9681Y10041D02*
D03*
X23901Y8781D02*
D03*
X16811D02*
D03*
X30991D02*
D03*
X38071D02*
D03*
X4311Y11561D02*
D03*
X9311D02*
D03*
Y12311D02*
D03*
Y13061D02*
D03*
Y13811D02*
D03*
Y14561D02*
D03*
X16311Y11561D02*
D03*
Y12311D02*
D03*
Y13061D02*
D03*
Y13811D02*
D03*
Y14561D02*
D03*
X18561Y11561D02*
D03*
Y12311D02*
D03*
Y13061D02*
D03*
Y13811D02*
D03*
X18061Y14811D02*
D03*
X25311Y13811D02*
D03*
Y11561D02*
D03*
X23311D02*
D03*
Y12311D02*
D03*
Y13061D02*
D03*
Y13811D02*
D03*
Y14561D02*
D03*
X24061Y14811D02*
D03*
X30311Y11561D02*
D03*
Y12311D02*
D03*
Y13061D02*
D03*
Y13811D02*
D03*
X32561Y11561D02*
D03*
Y12311D02*
D03*
Y13061D02*
D03*
Y13811D02*
D03*
X32231Y14191D02*
D03*
X37561Y11561D02*
D03*
Y12311D02*
D03*
Y13061D02*
D03*
Y13811D02*
D03*
Y14561D02*
D03*
X37811Y15311D02*
D03*
X7481Y28471D02*
D03*
X41409Y37906D02*
D03*
X10297Y19037D02*
D03*
X16733Y6755D02*
D03*
X15396Y6591D02*
D03*
X11409Y6616D02*
D03*
X9764Y6755D02*
D03*
X11006Y5504D02*
D03*
X8532Y8081D02*
D03*
X4411Y6636D02*
D03*
X4274Y6272D02*
D03*
X4451Y6085D02*
D03*
X7709Y21606D02*
D03*
X32512Y17335D02*
D03*
X7827Y34579D02*
D03*
X42061Y43561D02*
D03*
Y45561D02*
D03*
X43061Y44561D02*
D03*
X41061D02*
D03*
X41361Y45261D02*
D03*
X42761D02*
D03*
Y43861D02*
D03*
X41361D02*
D03*
X42061Y81061D02*
D03*
Y83061D02*
D03*
X43061Y82061D02*
D03*
X41061D02*
D03*
X41361Y82761D02*
D03*
X42761D02*
D03*
Y81361D02*
D03*
X41361D02*
D03*
X4061Y81061D02*
D03*
Y83061D02*
D03*
X5061Y82061D02*
D03*
X3061D02*
D03*
X3361Y82761D02*
D03*
X4761D02*
D03*
Y81361D02*
D03*
X3361D02*
D03*
X4061Y43561D02*
D03*
Y45561D02*
D03*
X5061Y44561D02*
D03*
X3061D02*
D03*
X3361Y45261D02*
D03*
X4761D02*
D03*
Y43861D02*
D03*
X3361D02*
D03*
X8781Y77854D02*
D03*
X7689Y77766D02*
D03*
X9293Y76417D02*
D03*
X9972Y76437D02*
D03*
X8132Y76929D02*
D03*
X8112Y77618D02*
D03*
X9047Y60669D02*
D03*
X9943Y60030D02*
D03*
X10307Y59931D02*
D03*
X10671Y59882D02*
D03*
X10661Y59468D02*
D03*
X12646Y63206D02*
D03*
X7702Y53084D02*
D03*
Y52651D02*
D03*
Y52218D02*
D03*
X7269Y53084D02*
D03*
Y52651D02*
D03*
Y52218D02*
D03*
X6835Y53084D02*
D03*
Y52651D02*
D03*
Y52218D02*
D03*
X6402Y53084D02*
D03*
Y52651D02*
D03*
Y52218D02*
D03*
X5969Y53084D02*
D03*
Y52651D02*
D03*
Y52218D02*
D03*
X12938D02*
D03*
Y52651D02*
D03*
Y53084D02*
D03*
X13371Y52218D02*
D03*
Y52651D02*
D03*
Y53084D02*
D03*
X13804Y52218D02*
D03*
Y52651D02*
D03*
Y53084D02*
D03*
X14237Y52218D02*
D03*
Y52651D02*
D03*
Y53084D02*
D03*
X14670Y52218D02*
D03*
Y52651D02*
D03*
Y53084D02*
D03*
X21761D02*
D03*
Y52651D02*
D03*
Y52218D02*
D03*
X21328Y53084D02*
D03*
Y52651D02*
D03*
Y52218D02*
D03*
X20895Y53084D02*
D03*
Y52651D02*
D03*
Y52218D02*
D03*
X20462Y53084D02*
D03*
Y52651D02*
D03*
Y52218D02*
D03*
X20029Y53084D02*
D03*
Y52651D02*
D03*
Y52218D02*
D03*
X27115D02*
D03*
Y52651D02*
D03*
Y53084D02*
D03*
X27548Y52218D02*
D03*
Y52651D02*
D03*
Y53084D02*
D03*
X27981Y52218D02*
D03*
Y52651D02*
D03*
Y53084D02*
D03*
X28414Y52218D02*
D03*
Y52651D02*
D03*
Y53084D02*
D03*
X28847Y52218D02*
D03*
Y52651D02*
D03*
Y53084D02*
D03*
X35936D02*
D03*
Y52651D02*
D03*
Y52218D02*
D03*
X35503Y53084D02*
D03*
Y52651D02*
D03*
Y52218D02*
D03*
X35070Y53084D02*
D03*
Y52651D02*
D03*
Y52218D02*
D03*
X34637Y53084D02*
D03*
Y52651D02*
D03*
Y52218D02*
D03*
X34204Y53084D02*
D03*
Y52651D02*
D03*
Y52218D02*
D03*
X3136Y54751D02*
D03*
X4947D02*
D03*
X4041Y55657D02*
D03*
Y53846D02*
D03*
X35268Y81699D02*
D03*
X34874D02*
D03*
X34480D02*
D03*
Y81305D02*
D03*
Y80912D02*
D03*
X34874D02*
D03*
X35268D02*
D03*
Y81305D02*
D03*
X34874D02*
D03*
X23206Y57491D02*
D03*
X25017D02*
D03*
X24111Y58397D02*
D03*
Y56586D02*
D03*
X6251Y73206D02*
D03*
Y75017D02*
D03*
X7157Y74111D02*
D03*
X5346D02*
D03*
X35261Y50661D02*
D03*
X5921Y44541D02*
D03*
X4901Y79521D02*
D03*
X4451Y69561D02*
D03*
X40281Y52421D02*
D03*
Y51881D02*
D03*
X39891Y53081D02*
D03*
X41727Y80067D02*
D03*
X35211Y77891D02*
D03*
Y77341D02*
D03*
Y76741D02*
D03*
Y76191D02*
D03*
Y75641D02*
D03*
Y75181D02*
D03*
X41916Y78528D02*
D03*
Y78928D02*
D03*
X41436Y79518D02*
D03*
X42961Y79521D02*
D03*
Y78931D02*
D03*
Y78531D02*
D03*
X5481Y72611D02*
D03*
X3361Y55981D02*
D03*
X24061Y79061D02*
D03*
X28061Y77061D02*
D03*
X26061D02*
D03*
Y76061D02*
D03*
X27061D02*
D03*
Y77061D02*
D03*
X28021Y78071D02*
D03*
X27061Y78061D02*
D03*
X26061D02*
D03*
X25061D02*
D03*
X24061D02*
D03*
X22941D02*
D03*
Y77061D02*
D03*
X23561D02*
D03*
Y76061D02*
D03*
X25041Y79081D02*
D03*
X26551Y75851D02*
D03*
X27921Y75891D02*
D03*
X27401Y79011D02*
D03*
X18941Y79301D02*
D03*
X14951Y79281D02*
D03*
X22941Y79081D02*
D03*
Y76091D02*
D03*
X22466Y76611D02*
D03*
Y78651D02*
D03*
X18931Y78431D02*
D03*
Y76591D02*
D03*
Y77521D02*
D03*
X22471Y77281D02*
D03*
X18461D02*
D03*
X14921Y77521D02*
D03*
Y76591D02*
D03*
Y78431D02*
D03*
X18456Y78651D02*
D03*
Y76611D02*
D03*
X14471Y77371D02*
D03*
X10771Y77501D02*
D03*
Y78411D02*
D03*
Y76591D02*
D03*
X14471Y76611D02*
D03*
X11001Y79251D02*
D03*
X29671Y82671D02*
D03*
X11131Y79861D02*
D03*
X15081Y79951D02*
D03*
X19031Y79931D02*
D03*
X29671Y82311D02*
D03*
Y81941D02*
D03*
X22981Y79811D02*
D03*
X14471Y78651D02*
D03*
X28351Y77351D02*
D03*
Y77891D02*
D03*
X29341Y74474D02*
D03*
Y74886D02*
D03*
Y75299D02*
D03*
X28331Y74484D02*
D03*
X29341Y74061D02*
D03*
X28621D02*
D03*
X28331Y74071D02*
D03*
X29341Y75711D02*
D03*
X28621Y75721D02*
D03*
X28331D02*
D03*
X28771Y70331D02*
D03*
X28791Y70701D02*
D03*
X28761Y71091D02*
D03*
X29921Y71281D02*
D03*
X31041Y70471D02*
D03*
Y70891D02*
D03*
X29921Y70881D02*
D03*
Y70401D02*
D03*
X29301Y76671D02*
D03*
X34331Y70741D02*
D03*
X32611Y70431D02*
D03*
X33451Y70421D02*
D03*
X30021Y82741D02*
D03*
X30041Y81941D02*
D03*
X32191Y81931D02*
D03*
Y82761D02*
D03*
X31841Y81921D02*
D03*
Y82341D02*
D03*
X31831Y82771D02*
D03*
X30891Y82321D02*
D03*
Y82741D02*
D03*
Y81931D02*
D03*
X29341Y82671D02*
D03*
X29331Y82301D02*
D03*
X29341Y81941D02*
D03*
X27611Y82701D02*
D03*
X35461Y71151D02*
D03*
X40441Y70841D02*
D03*
X41531Y71611D02*
D03*
X41551Y70151D02*
D03*
X42561Y70891D02*
D03*
Y70471D02*
D03*
X42551Y71341D02*
D03*
X42001Y71591D02*
D03*
X41111D02*
D03*
X40511Y71211D02*
D03*
X40571Y70451D02*
D03*
X41131Y70181D02*
D03*
X41951Y70191D02*
D03*
Y74191D02*
D03*
X41131Y74181D02*
D03*
X40571Y74451D02*
D03*
X40511Y75211D02*
D03*
X41111Y75591D02*
D03*
X42001D02*
D03*
X42551Y75341D02*
D03*
X42561Y74471D02*
D03*
Y74891D02*
D03*
X41551Y74151D02*
D03*
X41531Y75611D02*
D03*
X40441Y74841D02*
D03*
X9321Y74061D02*
D03*
X20601Y67881D02*
D03*
X20241Y67921D02*
D03*
X25871Y57781D02*
D03*
X25901Y58871D02*
D03*
X25541Y58881D02*
D03*
X25521Y60001D02*
D03*
X28261Y60761D02*
D03*
X28301Y62331D02*
D03*
X28921Y60611D02*
D03*
X28851Y60011D02*
D03*
X20821Y58976D02*
D03*
X21081Y59261D02*
D03*
X21221Y59771D02*
D03*
X21421Y59431D02*
D03*
X23291Y58691D02*
D03*
X23331Y59081D02*
D03*
X23581Y59341D02*
D03*
X23811Y59061D02*
D03*
X8691Y70721D02*
D03*
X9041Y71331D02*
D03*
X14751Y71231D02*
D03*
X15011Y59801D02*
D03*
X16941Y59821D02*
D03*
X18311Y63301D02*
D03*
X16691Y63571D02*
D03*
X41121Y46681D02*
D03*
X43091Y61281D02*
D03*
Y61881D02*
D03*
Y61581D02*
D03*
X37291Y65341D02*
D03*
X35741D02*
D03*
X33171D02*
D03*
X31801D02*
D03*
X30001D02*
D03*
X28281Y56971D02*
D03*
X29181Y64341D02*
D03*
X28831Y63291D02*
D03*
X28471D02*
D03*
X31151Y64601D02*
D03*
X34611Y64671D02*
D03*
X30798Y64351D02*
D03*
X32608D02*
D03*
X36568D02*
D03*
X34258D02*
D03*
X38228Y64341D02*
D03*
X37791Y64331D02*
D03*
X36111D02*
D03*
X33821D02*
D03*
X32171Y64341D02*
D03*
X30371D02*
D03*
X4831Y59691D02*
D03*
X3121Y57581D02*
D03*
Y60541D02*
D03*
Y60981D02*
D03*
Y57151D02*
D03*
X11111Y59941D02*
D03*
X24371Y64631D02*
D03*
X24711Y64271D02*
D03*
X5541Y77051D02*
D03*
Y76401D02*
D03*
X28071Y73031D02*
D03*
X26631Y72901D02*
D03*
X26681Y72281D02*
D03*
X26531Y71321D02*
D03*
X26851Y70981D02*
D03*
X23521Y74211D02*
D03*
X27791Y70371D02*
D03*
X22871Y75701D02*
D03*
X20571Y75051D02*
D03*
X18921Y74741D02*
D03*
X15481Y75071D02*
D03*
X10981Y74751D02*
D03*
X11581Y75071D02*
D03*
X12401Y74751D02*
D03*
X14861D02*
D03*
X16271D02*
D03*
X19521Y75071D02*
D03*
X18811Y76151D02*
D03*
X14841Y76161D02*
D03*
X10861D02*
D03*
X7291Y79791D02*
D03*
X7881Y73851D02*
D03*
X5411Y61971D02*
D03*
X3721D02*
D03*
X3071Y63151D02*
D03*
X4851Y60131D02*
D03*
X9801Y54325D02*
D03*
Y53888D02*
D03*
Y54768D02*
D03*
X16901Y54325D02*
D03*
Y53888D02*
D03*
Y54768D02*
D03*
X23961Y54325D02*
D03*
Y53888D02*
D03*
Y54768D02*
D03*
X31031Y54325D02*
D03*
Y53888D02*
D03*
Y54768D02*
D03*
X38161D02*
D03*
Y53888D02*
D03*
Y54325D02*
D03*
X35601Y56511D02*
D03*
X33011Y54151D02*
D03*
X26111Y54331D02*
D03*
X5421Y54341D02*
D03*
X16061Y55396D02*
D03*
X38691Y50221D02*
D03*
X37991Y50711D02*
D03*
X30931Y50651D02*
D03*
X31571Y50211D02*
D03*
X22566Y52071D02*
D03*
X23801Y50721D02*
D03*
X24511Y50231D02*
D03*
X3051Y55751D02*
D03*
X23101Y56491D02*
D03*
X3011Y74451D02*
D03*
X3061Y53641D02*
D03*
X6441Y62091D02*
D03*
X8391Y62111D02*
D03*
X9016Y62116D02*
D03*
X6021Y62111D02*
D03*
X16191Y59351D02*
D03*
X17241Y60511D02*
D03*
X17441Y60001D02*
D03*
X17791Y59871D02*
D03*
X18754Y59724D02*
D03*
X21991Y60966D02*
D03*
X21691Y55111D02*
D03*
X25941Y56381D02*
D03*
X22461Y56391D02*
D03*
X18201Y61301D02*
D03*
X17841Y61391D02*
D03*
X24231Y63201D02*
D03*
X24531Y63641D02*
D03*
X24481Y62881D02*
D03*
X19741Y68191D02*
D03*
X26491Y64451D02*
D03*
X28831Y59051D02*
D03*
X26691Y64981D02*
D03*
X36081Y58531D02*
D03*
X26221Y68021D02*
D03*
X24325Y66701D02*
D03*
X31771Y56611D02*
D03*
X26461Y66031D02*
D03*
X26761Y66241D02*
D03*
X26751Y65541D02*
D03*
X26561Y66611D02*
D03*
X26181Y65801D02*
D03*
X23381Y70631D02*
D03*
X22901Y67751D02*
D03*
X22451Y69771D02*
D03*
X22091Y69181D02*
D03*
X22851Y68111D02*
D03*
X24571Y70921D02*
D03*
X23211Y70031D02*
D03*
X24801Y63921D02*
D03*
X36341Y59051D02*
D03*
X21901Y67891D02*
D03*
X22221Y68111D02*
D03*
X16711Y50741D02*
D03*
X17421Y50221D02*
D03*
X8507Y52071D02*
D03*
X10311Y50231D02*
D03*
X32771Y56971D02*
D03*
X24841Y62831D02*
D03*
X24621Y62541D02*
D03*
X27081Y56971D02*
D03*
X26201Y66701D02*
D03*
X26221Y62811D02*
D03*
X18141Y61681D02*
D03*
X17851Y62011D02*
D03*
X24721Y59121D02*
D03*
X24991Y62251D02*
D03*
X24781Y61941D02*
D03*
X24991Y61641D02*
D03*
X31771Y57601D02*
D03*
X33881Y59031D02*
D03*
X31131Y59041D02*
D03*
X38341Y60221D02*
D03*
X11981Y55271D02*
D03*
X15851Y67991D02*
D03*
X31051Y59741D02*
D03*
X36351Y60031D02*
D03*
X33821D02*
D03*
X35321Y60181D02*
D03*
X32861Y60241D02*
D03*
X30361D02*
D03*
X31741Y58121D02*
D03*
X32911Y57571D02*
D03*
X16451Y66941D02*
D03*
X29662Y55141D02*
D03*
X28772D02*
D03*
X36751D02*
D03*
X32679Y78878D02*
D03*
X15851Y67611D02*
D03*
X17861Y67583D02*
D03*
X7069Y61201D02*
D03*
X39961Y74821D02*
D03*
X36511Y74561D02*
D03*
X39261Y74821D02*
D03*
X38561D02*
D03*
X37861D02*
D03*
X37161D02*
D03*
X36511Y73861D02*
D03*
X36461Y73311D02*
D03*
Y72711D02*
D03*
Y72111D02*
D03*
Y71611D02*
D03*
Y77961D02*
D03*
X36511Y75311D02*
D03*
Y76011D02*
D03*
X36461Y76661D02*
D03*
Y77361D02*
D03*
X37761Y71011D02*
D03*
X35461Y71611D02*
D03*
Y72161D02*
D03*
Y72711D02*
D03*
Y73311D02*
D03*
Y73861D02*
D03*
X24831Y75221D02*
D03*
X19381Y75581D02*
D03*
X15231Y76021D02*
D03*
X11381Y75581D02*
D03*
X20281Y76021D02*
D03*
X16251Y76041D02*
D03*
X12271Y76031D02*
D03*
X12581Y75581D02*
D03*
X11261Y76031D02*
D03*
X11781D02*
D03*
X12181Y75581D02*
D03*
X11781D02*
D03*
X23751Y74771D02*
D03*
X24967D02*
D03*
X16191Y75581D02*
D03*
X16591D02*
D03*
X15761Y76031D02*
D03*
X15791Y75581D02*
D03*
X15391D02*
D03*
X19781D02*
D03*
X20181D02*
D03*
X19751Y76031D02*
D03*
X19231Y76021D02*
D03*
X20581Y75581D02*
D03*
X36035Y80413D02*
D03*
X33994Y80625D02*
D03*
X37981Y81811D02*
D03*
X3081Y75951D02*
D03*
X34021Y57411D02*
D03*
X39481Y81861D02*
D03*
X24055Y74771D02*
D03*
X23751Y75061D02*
D03*
X9361Y68221D02*
D03*
X25271Y74771D02*
D03*
X24311Y75221D02*
D03*
X24359Y74771D02*
D03*
X41261Y55711D02*
D03*
Y55111D02*
D03*
Y54361D02*
D03*
Y53761D02*
D03*
X40761Y53711D02*
D03*
Y54361D02*
D03*
Y55111D02*
D03*
Y55711D02*
D03*
X28331Y75309D02*
D03*
Y74896D02*
D03*
X37481Y81811D02*
D03*
X4191Y63151D02*
D03*
X22501Y67861D02*
D03*
X15961Y67221D02*
D03*
X33201Y79381D02*
D03*
X34603Y82485D02*
D03*
X35881Y55141D02*
D03*
X22581D02*
D03*
X19081Y54351D02*
D03*
X13985Y50921D02*
D03*
X13625D02*
D03*
X15901Y50741D02*
D03*
X15485Y55141D02*
D03*
X14595D02*
D03*
X13625Y50661D02*
D03*
X13985D02*
D03*
X12786Y47091D02*
D03*
X12031Y54371D02*
D03*
X8501Y55111D02*
D03*
X5172Y53261D02*
D03*
X13046Y47091D02*
D03*
X14641Y50851D02*
D03*
Y50571D02*
D03*
X10991Y50601D02*
D03*
X13021Y50861D02*
D03*
Y50591D02*
D03*
X15961Y48931D02*
D03*
X15771Y49111D02*
D03*
X15671Y48391D02*
D03*
X15501Y48581D02*
D03*
X16541Y49281D02*
D03*
X15126Y47091D02*
D03*
X12107Y48581D02*
D03*
X11937Y48391D02*
D03*
X11837Y49111D02*
D03*
X11647Y48931D02*
D03*
X12551Y47951D02*
D03*
X12878D02*
D03*
X13204D02*
D03*
X13531D02*
D03*
X14031D02*
D03*
X14368D02*
D03*
X14704D02*
D03*
X15041D02*
D03*
X13491Y49211D02*
D03*
X14171D02*
D03*
X10951Y49261D02*
D03*
X10681D02*
D03*
X17186Y46071D02*
D03*
X23982D02*
D03*
X17802Y46051D02*
D03*
X17772Y49261D02*
D03*
X18042D02*
D03*
X21262Y49211D02*
D03*
X20582D02*
D03*
X22132Y47951D02*
D03*
X21796D02*
D03*
X21459D02*
D03*
X21122D02*
D03*
X20622D02*
D03*
X20296D02*
D03*
X19969D02*
D03*
X19642D02*
D03*
X18208Y47151D02*
D03*
X18738Y48931D02*
D03*
X18928Y49111D02*
D03*
X19028Y48391D02*
D03*
X19198Y48581D02*
D03*
X21922Y47091D02*
D03*
X22192D02*
D03*
X23632Y49281D02*
D03*
X22592Y48581D02*
D03*
X22762Y48391D02*
D03*
X22862Y49111D02*
D03*
X23052Y48931D02*
D03*
X20112Y50591D02*
D03*
Y50861D02*
D03*
X18082Y50581D02*
D03*
X21732Y50571D02*
D03*
Y50851D02*
D03*
X19842Y47091D02*
D03*
X23582Y47151D02*
D03*
X19582Y47091D02*
D03*
X21076Y50661D02*
D03*
X20716D02*
D03*
X22992Y50741D02*
D03*
X20716Y50921D02*
D03*
X21076D02*
D03*
X24888Y46051D02*
D03*
X24858Y49261D02*
D03*
X25128D02*
D03*
X28348Y49211D02*
D03*
X27668D02*
D03*
X29218Y47951D02*
D03*
X28882D02*
D03*
X28545D02*
D03*
X28208D02*
D03*
X27708D02*
D03*
X27382D02*
D03*
X27055D02*
D03*
X26728D02*
D03*
X25294Y47151D02*
D03*
X25824Y48931D02*
D03*
X26014Y49111D02*
D03*
X26114Y48391D02*
D03*
X26284Y48581D02*
D03*
X29008Y47091D02*
D03*
X29278D02*
D03*
X30718Y49281D02*
D03*
X29678Y48581D02*
D03*
X29848Y48391D02*
D03*
X29948Y49111D02*
D03*
X30138Y48931D02*
D03*
X27198Y50591D02*
D03*
Y50861D02*
D03*
X25168Y50601D02*
D03*
X28818Y50571D02*
D03*
Y50851D02*
D03*
X26928Y47091D02*
D03*
X30668Y47151D02*
D03*
X26668Y47091D02*
D03*
X28162Y50661D02*
D03*
X27802D02*
D03*
X29652Y52071D02*
D03*
X30078Y50741D02*
D03*
X27802Y50921D02*
D03*
X28162D02*
D03*
X38157Y46071D02*
D03*
X31947Y49261D02*
D03*
X32217D02*
D03*
X35431Y49211D02*
D03*
X34757D02*
D03*
X36307Y47951D02*
D03*
X35970D02*
D03*
X35633D02*
D03*
X35297D02*
D03*
X34797D02*
D03*
X34470D02*
D03*
X34143D02*
D03*
X33817D02*
D03*
X32383Y47151D02*
D03*
X32913Y48931D02*
D03*
X33103Y49111D02*
D03*
X33203Y48391D02*
D03*
X33373Y48581D02*
D03*
X36097Y47091D02*
D03*
X36367D02*
D03*
X37807Y49281D02*
D03*
X36937Y48391D02*
D03*
X37037Y49111D02*
D03*
X37227Y48931D02*
D03*
X34287Y50591D02*
D03*
Y50861D02*
D03*
X32257Y50601D02*
D03*
X35907Y50571D02*
D03*
Y50851D02*
D03*
X34017Y47091D02*
D03*
X37757Y47151D02*
D03*
X33757Y47091D02*
D03*
X34891Y50661D02*
D03*
X36741Y52071D02*
D03*
X37167Y50741D02*
D03*
X34891Y50921D02*
D03*
X35251D02*
D03*
X3081Y76381D02*
D03*
X10318Y46071D02*
D03*
X3712Y49261D02*
D03*
X9942Y49291D02*
D03*
X3982Y49261D02*
D03*
X7202Y49211D02*
D03*
X6522D02*
D03*
X8072Y47951D02*
D03*
X7736D02*
D03*
X7399D02*
D03*
X7062D02*
D03*
X6562D02*
D03*
X6236D02*
D03*
X5909D02*
D03*
X5582D02*
D03*
X4678Y48931D02*
D03*
X4868Y49111D02*
D03*
X4968Y48391D02*
D03*
X5138Y48581D02*
D03*
X8256Y47091D02*
D03*
X8526D02*
D03*
X9672Y49281D02*
D03*
X8702Y48391D02*
D03*
X8802Y49111D02*
D03*
X8992Y48931D02*
D03*
X6052Y50591D02*
D03*
Y50861D02*
D03*
X4022Y50601D02*
D03*
X7672Y50571D02*
D03*
Y50851D02*
D03*
X6176Y47091D02*
D03*
X5916D02*
D03*
X7017Y50661D02*
D03*
X6657D02*
D03*
X8932Y50741D02*
D03*
X6657Y50921D02*
D03*
X7017D02*
D03*
X31101Y46051D02*
D03*
X32041Y46101D02*
D03*
X7611Y55121D02*
D03*
X36820Y52651D02*
D03*
Y53151D02*
D03*
X33320Y52651D02*
D03*
X33570Y52151D02*
D03*
X25481Y53401D02*
D03*
Y52651D02*
D03*
X26481Y52151D02*
D03*
X26231Y52651D02*
D03*
X29731Y53151D02*
D03*
Y52651D02*
D03*
X19395Y52151D02*
D03*
X19145Y52651D02*
D03*
X22645Y53151D02*
D03*
Y52651D02*
D03*
X11304Y53401D02*
D03*
Y52651D02*
D03*
X12304Y52151D02*
D03*
X12054Y52651D02*
D03*
X15554Y53151D02*
D03*
Y52651D02*
D03*
X15475Y52071D02*
D03*
X3585Y50901D02*
D03*
Y51901D02*
D03*
Y52651D02*
D03*
Y53401D02*
D03*
X4331Y53381D02*
D03*
X4335Y52651D02*
D03*
X5335Y52151D02*
D03*
X5085Y52651D02*
D03*
X8585Y53151D02*
D03*
Y52651D02*
D03*
X5335Y55651D02*
D03*
X11304Y54151D02*
D03*
X3604Y46526D02*
D03*
X3641Y72521D02*
D03*
X22141Y72271D02*
D03*
X21151Y72291D02*
D03*
X20651Y72251D02*
D03*
X21401Y73171D02*
D03*
X24663Y74771D02*
D03*
X23751Y75351D02*
D03*
X22881Y74401D02*
D03*
X22501Y74411D02*
D03*
X19301Y68061D02*
D03*
X18751Y67651D02*
D03*
X18411Y67311D02*
D03*
X17781Y66601D02*
D03*
X18201Y66721D02*
D03*
X21411Y68131D02*
D03*
X15691Y66581D02*
D03*
X32231Y57211D02*
D03*
X24071Y61221D02*
D03*
X24211Y65211D02*
D03*
X15631Y62581D02*
D03*
X15591Y62951D02*
D03*
X20921Y68101D02*
D03*
X9711Y63261D02*
D03*
X24371Y67271D02*
D03*
X24421Y67731D02*
D03*
X24091Y67911D02*
D03*
X23341Y67771D02*
D03*
X23311Y67411D02*
D03*
X16001Y64271D02*
D03*
X18991Y61071D02*
D03*
X19271Y61311D02*
D03*
X19541Y61551D02*
D03*
X19781Y61821D02*
D03*
X14111Y58961D02*
D03*
X15051Y59281D02*
D03*
X14631Y58831D02*
D03*
X10641Y55331D02*
D03*
X9591Y62701D02*
D03*
X17771Y63641D02*
D03*
X16611Y64461D02*
D03*
X11101Y63021D02*
D03*
X9271Y63721D02*
D03*
X20061Y62081D02*
D03*
X14551Y66581D02*
D03*
X15641Y65431D02*
D03*
X15221Y63001D02*
D03*
X18371Y64781D02*
D03*
X5821Y71451D02*
D03*
X5651Y70851D02*
D03*
X6121Y69511D02*
D03*
X3041Y69681D02*
D03*
X5561Y69571D02*
D03*
X6701Y68971D02*
D03*
X6721Y69341D02*
D03*
X6751Y68601D02*
D03*
X14401Y68061D02*
D03*
X8111Y69811D02*
D03*
X7421Y70991D02*
D03*
X7401Y70081D02*
D03*
X13691Y67411D02*
D03*
X13701Y72471D02*
D03*
X10031Y65741D02*
D03*
X9061Y73131D02*
D03*
X15171Y73031D02*
D03*
X8381Y72271D02*
D03*
X7671Y64371D02*
D03*
X13971Y66971D02*
D03*
X19381Y67611D02*
D03*
X24201Y66321D02*
D03*
X22341Y61331D02*
D03*
X18141Y62481D02*
D03*
X18771Y62091D02*
D03*
X18671Y63601D02*
D03*
X18411Y65251D02*
D03*
X17861Y65231D02*
D03*
X17951Y63991D02*
D03*
X21471Y67721D02*
D03*
X24651Y61091D02*
D03*
X18131Y67081D02*
D03*
X21171Y65201D02*
D03*
X19961Y74741D02*
D03*
X18551Y74651D02*
D03*
X18221Y74391D02*
D03*
X18011Y74061D02*
D03*
X19811Y73161D02*
D03*
X21651Y72281D02*
D03*
X19571Y71201D02*
D03*
X19821Y70061D02*
D03*
X18721Y69591D02*
D03*
X18351D02*
D03*
X16851Y69741D02*
D03*
X11971Y73051D02*
D03*
X10941Y66751D02*
D03*
X36871Y78406D02*
D03*
X37961D02*
D03*
X38931D02*
D03*
X40111D02*
D03*
X36801Y71011D02*
D03*
X39711D02*
D03*
X38811D02*
D03*
X9681Y50541D02*
D03*
X23901Y49281D02*
D03*
X16811D02*
D03*
X30991D02*
D03*
X38071D02*
D03*
X4311Y52061D02*
D03*
X9311D02*
D03*
Y52811D02*
D03*
Y53561D02*
D03*
Y54311D02*
D03*
Y55061D02*
D03*
X16311Y52061D02*
D03*
Y52811D02*
D03*
Y53561D02*
D03*
Y54311D02*
D03*
Y55061D02*
D03*
X18561Y52061D02*
D03*
Y52811D02*
D03*
Y53561D02*
D03*
Y54311D02*
D03*
X18061Y55311D02*
D03*
X25311Y54311D02*
D03*
Y52061D02*
D03*
X23311D02*
D03*
Y52811D02*
D03*
Y53561D02*
D03*
Y54311D02*
D03*
Y55061D02*
D03*
X24061Y55311D02*
D03*
X30311Y52061D02*
D03*
Y52811D02*
D03*
Y53561D02*
D03*
Y54311D02*
D03*
X32561Y52061D02*
D03*
Y52811D02*
D03*
Y53561D02*
D03*
Y54311D02*
D03*
X32231Y54691D02*
D03*
X37561Y52061D02*
D03*
Y52811D02*
D03*
Y53561D02*
D03*
Y54311D02*
D03*
Y55061D02*
D03*
X37811Y55811D02*
D03*
X7481Y68971D02*
D03*
X41409Y78406D02*
D03*
X10297Y59537D02*
D03*
X16733Y47255D02*
D03*
X15396Y47091D02*
D03*
X11409Y47116D02*
D03*
X9764Y47255D02*
D03*
X11006Y46004D02*
D03*
X8532Y48581D02*
D03*
X4411Y47136D02*
D03*
X4274Y46772D02*
D03*
X4451Y46585D02*
D03*
X7709Y62106D02*
D03*
X32512Y57835D02*
D03*
X7827Y75079D02*
D03*
D99*
X41111Y25721D02*
D03*
X41911D02*
D03*
X41111Y27081D02*
D03*
X41891D02*
D03*
X41511Y25721D02*
D03*
Y27081D02*
D03*
X41111Y66221D02*
D03*
X41911D02*
D03*
X41111Y67581D02*
D03*
X41891D02*
D03*
X41511Y66221D02*
D03*
Y67581D02*
D03*
D100*
X32771Y41774D02*
D03*
Y82274D02*
D03*
D102*
X1350Y84739D02*
D03*
X44750Y84850D02*
D03*
X44821Y1380D02*
D03*
X1350Y1350D02*
D03*
D103*
X4041Y14251D02*
D03*
X24111Y16991D02*
D03*
X6251Y33611D02*
D03*
X4041Y54751D02*
D03*
X24111Y57491D02*
D03*
X6251Y74111D02*
D03*
D104*
X14571Y24711D02*
D03*
Y23711D02*
D03*
X13571Y24711D02*
D03*
Y23711D02*
D03*
X12571Y24711D02*
D03*
Y23711D02*
D03*
X11571Y24711D02*
D03*
Y23711D02*
D03*
X10571Y24711D02*
D03*
Y23711D02*
D03*
X14571Y21861D02*
D03*
Y20861D02*
D03*
X13571Y21861D02*
D03*
Y20861D02*
D03*
X12571Y21861D02*
D03*
Y20861D02*
D03*
X11571Y21861D02*
D03*
Y20861D02*
D03*
X10571Y21861D02*
D03*
Y17621D02*
D03*
X11571Y16621D02*
D03*
Y17621D02*
D03*
X12571Y16621D02*
D03*
Y17621D02*
D03*
X13571Y16621D02*
D03*
Y17621D02*
D03*
X14571Y16621D02*
D03*
Y17621D02*
D03*
X15571Y16621D02*
D03*
Y17621D02*
D03*
X16571Y16621D02*
D03*
Y17621D02*
D03*
X17571Y16621D02*
D03*
Y17621D02*
D03*
X18571Y16621D02*
D03*
Y17621D02*
D03*
X19571Y16621D02*
D03*
Y17621D02*
D03*
X20571Y16621D02*
D03*
Y17621D02*
D03*
X21571Y16621D02*
D03*
Y17621D02*
D03*
X14571Y65211D02*
D03*
Y64211D02*
D03*
X13571Y65211D02*
D03*
Y64211D02*
D03*
X12571Y65211D02*
D03*
Y64211D02*
D03*
X11571Y65211D02*
D03*
Y64211D02*
D03*
X10571Y65211D02*
D03*
Y64211D02*
D03*
X14571Y62361D02*
D03*
Y61361D02*
D03*
X13571Y62361D02*
D03*
Y61361D02*
D03*
X12571Y62361D02*
D03*
Y61361D02*
D03*
X11571Y62361D02*
D03*
Y61361D02*
D03*
X10571Y62361D02*
D03*
Y58121D02*
D03*
X11571Y57121D02*
D03*
Y58121D02*
D03*
X12571Y57121D02*
D03*
Y58121D02*
D03*
X13571Y57121D02*
D03*
Y58121D02*
D03*
X14571Y57121D02*
D03*
Y58121D02*
D03*
X15571Y57121D02*
D03*
Y58121D02*
D03*
X16571Y57121D02*
D03*
Y58121D02*
D03*
X17571Y57121D02*
D03*
Y58121D02*
D03*
X18571Y57121D02*
D03*
Y58121D02*
D03*
X19571Y57121D02*
D03*
Y58121D02*
D03*
X20571Y57121D02*
D03*
Y58121D02*
D03*
X21571Y57121D02*
D03*
Y58121D02*
D03*
D105*
X10571Y20861D02*
D03*
Y16621D02*
D03*
Y61361D02*
D03*
Y57121D02*
D03*
D106*
X30511Y25651D02*
D03*
X34646D02*
D03*
X38781D02*
D03*
X28511Y28051D02*
D03*
X36781D02*
D03*
X32646D02*
D03*
X30511Y66151D02*
D03*
X34646D02*
D03*
X38781D02*
D03*
X28511Y68551D02*
D03*
X36781D02*
D03*
X32646D02*
D03*
D108*
X41511Y26386D02*
D03*
Y28386D02*
D03*
Y30386D02*
D03*
Y36386D02*
D03*
Y34386D02*
D03*
Y32386D02*
D03*
X25361Y41181D02*
D03*
X23361D02*
D03*
X21361D02*
D03*
X19361D02*
D03*
X17361D02*
D03*
X15361D02*
D03*
X13361D02*
D03*
X11361D02*
D03*
X9361D02*
D03*
X7361D02*
D03*
X41511Y66886D02*
D03*
Y68886D02*
D03*
Y70886D02*
D03*
Y76886D02*
D03*
Y74886D02*
D03*
Y72886D02*
D03*
X25361Y81681D02*
D03*
X23361D02*
D03*
X21361D02*
D03*
X19361D02*
D03*
X17361D02*
D03*
X15361D02*
D03*
X13361D02*
D03*
X11361D02*
D03*
X9361D02*
D03*
X7361D02*
D03*
D109*
X4401Y35291D02*
D03*
Y32531D02*
D03*
Y75791D02*
D03*
Y73031D02*
D03*
D110*
X6921Y25061D02*
D03*
Y26053D02*
D03*
X6131D02*
D03*
Y25061D02*
D03*
X6921Y65561D02*
D03*
Y66553D02*
D03*
X6131D02*
D03*
Y65561D02*
D03*
D111*
X5061Y27923D02*
D03*
Y23191D02*
D03*
Y68423D02*
D03*
Y63691D02*
D03*
D112*
X42404Y17549D02*
D03*
X41064D02*
D03*
Y22849D02*
D03*
X42404D02*
D03*
X38621Y31591D02*
D03*
Y32931D02*
D03*
X33321D02*
D03*
Y31591D02*
D03*
X38621Y35491D02*
D03*
Y36831D02*
D03*
X33321D02*
D03*
Y35491D02*
D03*
X42404Y58049D02*
D03*
X41064D02*
D03*
Y63349D02*
D03*
X42404D02*
D03*
X38621Y72091D02*
D03*
Y73431D02*
D03*
X33321D02*
D03*
Y72091D02*
D03*
X38621Y75991D02*
D03*
Y77331D02*
D03*
X33321D02*
D03*
Y75991D02*
D03*
D113*
X42061Y4061D02*
D03*
Y41561D02*
D03*
X4061D02*
D03*
Y4061D02*
D03*
X42061Y44561D02*
D03*
Y82061D02*
D03*
X4061D02*
D03*
Y44561D02*
D03*
D115*
X9274Y19195D02*
D03*
Y59695D02*
D03*
D116*
X35120Y38614D02*
D03*
X35140Y39411D02*
D03*
X35120Y79114D02*
D03*
X35140Y79911D02*
D03*
M02*
