G04 Layer_Physical_Order=3*
G04 Layer_Color=128*
%FSLAX25Y25*%
%MOIN*%
G70*
G01*
G75*
%ADD77C,0.02000*%
%ADD85C,0.01000*%
%ADD110C,0.06400*%
G04:AMPARAMS|DCode=111|XSize=84mil|YSize=84mil|CornerRadius=0mil|HoleSize=0mil|Usage=FLASHONLY|Rotation=0.000|XOffset=0mil|YOffset=0mil|HoleType=Round|Shape=Relief|Width=14mil|Gap=10mil|Entries=4|*
%AMTHD111*
7,0,0,0.08400,0.06400,0.01400,45*
%
%ADD111THD111*%
G04:AMPARAMS|DCode=112|XSize=79.433mil|YSize=79.433mil|CornerRadius=0mil|HoleSize=0mil|Usage=FLASHONLY|Rotation=0.000|XOffset=0mil|YOffset=0mil|HoleType=Round|Shape=Relief|Width=14mil|Gap=10mil|Entries=4|*
%AMTHD112*
7,0,0,0.07943,0.05943,0.01400,45*
%
%ADD112THD112*%
%ADD113C,0.05943*%
%ADD114C,0.15392*%
%ADD115C,0.11100*%
%ADD118C,0.06200*%
%ADD119C,0.08300*%
%ADD120C,0.07900*%
%ADD121C,0.08700*%
%ADD123C,0.14211*%
G04:AMPARAMS|DCode=124|XSize=99mil|YSize=99mil|CornerRadius=0mil|HoleSize=0mil|Usage=FLASHONLY|Rotation=0.000|XOffset=0mil|YOffset=0mil|HoleType=Round|Shape=Relief|Width=14mil|Gap=10mil|Entries=4|*
%AMTHD124*
7,0,0,0.09900,0.07900,0.01400,45*
%
%ADD124THD124*%
%ADD125C,0.03900*%
%ADD126C,0.12000*%
G04:AMPARAMS|DCode=127|XSize=107mil|YSize=107mil|CornerRadius=0mil|HoleSize=0mil|Usage=FLASHONLY|Rotation=0.000|XOffset=0mil|YOffset=0mil|HoleType=Round|Shape=Relief|Width=14mil|Gap=10mil|Entries=4|*
%AMTHD127*
7,0,0,0.10700,0.08700,0.01400,45*
%
%ADD127THD127*%
G54D77*
X116335Y121635D02*
X116338Y121638D01*
Y123800D01*
X85500D02*
X116338D01*
X207717Y326306D02*
Y328214D01*
X198973Y326306D02*
X207717D01*
X198973Y326243D02*
Y326306D01*
X201480Y334088D02*
Y368773D01*
X201470Y334088D02*
X201480D01*
X201467Y334096D02*
X207742D01*
Y328219D02*
Y334096D01*
X156233Y256257D02*
X159770D01*
X156233Y241980D02*
Y256257D01*
X147141Y241980D02*
X156233D01*
X147118Y241956D02*
X147141Y241980D01*
X147118Y172761D02*
Y241956D01*
X223000Y390100D02*
X233000D01*
Y380200D02*
Y390100D01*
X223000Y380200D02*
X233000D01*
X223000D02*
Y390100D01*
X379400Y155900D02*
X410000D01*
X379400Y144000D02*
Y155900D01*
Y144000D02*
X409500D01*
X126091Y353143D02*
X148339D01*
Y332751D02*
Y353143D01*
X126091Y332751D02*
X148339D01*
X126091D02*
Y353143D01*
X85991D02*
X108239D01*
Y332751D02*
Y353143D01*
X85991Y332751D02*
X108239D01*
X85991D02*
Y353143D01*
X108239D01*
Y332751D02*
Y353143D01*
X85991Y332751D02*
X108239D01*
X85991D02*
Y353143D01*
X116335Y105565D02*
Y121635D01*
X312400Y0D02*
Y33800D01*
X253000Y100D02*
Y19900D01*
X229700Y43200D02*
X253000Y19900D01*
X160200Y200D02*
Y105700D01*
X85500Y100D02*
Y19600D01*
X87000Y21100D01*
Y33200D01*
X83700Y36500D02*
X87000Y33200D01*
X83700Y36500D02*
Y61800D01*
X88300Y66400D01*
X0Y108700D02*
Y110100D01*
X366100Y288500D02*
X369400D01*
X390000D01*
X392900Y285600D01*
Y271000D02*
Y285600D01*
X385900Y264000D02*
X392900Y271000D01*
X370100Y264000D02*
X385900D01*
X367400Y261300D02*
X370100Y264000D01*
X313000Y261300D02*
X367400D01*
X308700D02*
X313000D01*
X303320Y266680D02*
X308700Y261300D01*
X303320Y266680D02*
Y290200D01*
X338400Y318300D02*
X341000Y315700D01*
X345500D01*
X358200Y328400D01*
X387600D01*
X391500Y324500D01*
Y311800D02*
Y324500D01*
X387000Y307300D02*
X391500Y311800D01*
X369900Y307300D02*
X387000D01*
X365900Y303300D02*
X369900Y307300D01*
X365900Y279200D02*
Y303300D01*
X362300Y275600D02*
X365900Y279200D01*
X342300Y275600D02*
X362300D01*
X336700Y281200D02*
X342300Y275600D01*
X336700Y281200D02*
Y305800D01*
X331300Y311200D02*
X336700Y305800D01*
X317400Y297300D02*
X335100Y315000D01*
X310320Y297300D02*
X317400D01*
X294520Y281500D02*
X310320Y297300D01*
X335100Y315000D02*
X338600Y318500D01*
X232700Y328200D02*
X235500Y325400D01*
X207759Y328200D02*
X212700D01*
X46141Y332751D02*
Y353143D01*
Y332751D02*
X68388D01*
Y353143D01*
X46141D02*
X68388D01*
X298800Y355500D02*
Y404800D01*
X329500Y355500D02*
X410000D01*
X30000Y332600D02*
Y344000D01*
X1000Y344500D02*
X30000D01*
X243821Y368900D02*
X257200Y355521D01*
X30000Y332600D02*
X165800D01*
X172100Y326300D01*
X199000D01*
X212700Y328200D02*
X232700D01*
X201400Y368800D02*
X243721D01*
X304100Y42100D02*
X312300Y33900D01*
X42000Y106900D02*
Y123800D01*
Y106900D02*
X50800Y98100D01*
X53900D01*
X56600Y100800D01*
Y123800D01*
X81300D01*
X116335Y105565D02*
X123700Y98200D01*
X126700D01*
X129500Y101000D01*
Y117488D01*
X143888D01*
X189000Y103600D02*
X194600Y98000D01*
X197700D01*
X199700Y100000D01*
X143901Y117476D02*
X152597D01*
X81300Y123800D02*
X85500D01*
X259100Y104000D02*
X265400Y97700D01*
X268500D01*
X270700Y99900D01*
Y125800D01*
X229714Y125768D02*
X252148Y125792D01*
X331400Y102600D02*
X336400Y97600D01*
X339400D01*
X341600Y99800D01*
Y125700D01*
X372800Y0D02*
Y125600D01*
X372700Y125700D02*
X372800Y125600D01*
X341600Y125700D02*
X372700D01*
X100Y123800D02*
X42000D01*
X88300Y107600D02*
X96000D01*
Y123800D01*
X162400Y105700D02*
Y123500D01*
X160200Y105700D02*
X162400D01*
Y123500D02*
X181032D01*
X229700Y43200D02*
Y125800D01*
X270700D02*
X322624D01*
X304100Y42100D02*
Y125800D01*
X230102Y172761D02*
Y256342D01*
X147118Y172761D02*
X230102D01*
X170962Y256330D02*
Y278931D01*
X159841D02*
X170962D01*
X159841Y256333D02*
Y278931D01*
X170967Y256342D02*
X230102D01*
X223685Y155978D02*
X245062D01*
X214448Y269687D02*
X245062D01*
X214448Y266608D02*
Y269687D01*
X206667Y266608D02*
X214448D01*
X206667D02*
Y271470D01*
X180645D02*
X206667D01*
X180645D02*
Y292465D01*
X133012D02*
X180645D01*
X133012Y195518D02*
Y292465D01*
X127681Y195518D02*
X133012D01*
X127681Y171255D02*
Y195518D01*
Y171255D02*
X133012D01*
Y155968D02*
Y171255D01*
Y155968D02*
X204279D01*
Y158525D01*
X223685D01*
Y155978D02*
Y158525D01*
X245062Y155978D02*
X246946D01*
Y269687D01*
X245062D02*
X246946D01*
X372800Y125600D02*
Y167130D01*
X409827D01*
X298800Y355500D02*
X330900D01*
X338600Y318500D02*
Y355489D01*
X257318Y310987D02*
X286716Y281588D01*
X294431D01*
X235500Y325400D02*
X257318D01*
Y310987D02*
Y325400D01*
Y355403D01*
X181051Y111579D02*
X189387Y103244D01*
X181051Y111579D02*
Y123417D01*
X252215Y110748D02*
X259605Y103358D01*
X252215Y110748D02*
Y125757D01*
X322674Y111433D02*
X332123Y101984D01*
X322674Y111433D02*
Y125606D01*
X199714Y100770D02*
X229582D01*
X152597Y115438D02*
Y117476D01*
Y115438D02*
X162442D01*
X79724Y87660D02*
X88287D01*
X79724Y80606D02*
Y87660D01*
Y80606D02*
X88287D01*
X88294Y87624D02*
Y107516D01*
X88238Y66389D02*
Y80629D01*
X143888Y117488D02*
X143901Y117476D01*
G54D85*
X381015Y238200D02*
X380889Y239195D01*
X380520Y240127D01*
X379931Y240938D01*
X379158Y241577D01*
X378251Y242004D01*
X377266Y242192D01*
X376266Y242129D01*
X375312Y241819D01*
X374465Y241282D01*
X373779Y240551D01*
X373296Y239672D01*
X373046Y238701D01*
Y237699D01*
X373296Y236727D01*
X373779Y235849D01*
X374465Y235118D01*
X375312Y234581D01*
X376266Y234271D01*
X377266Y234208D01*
X378251Y234396D01*
X379158Y234823D01*
X379931Y235462D01*
X380520Y236273D01*
X380889Y237205D01*
X381015Y238200D01*
X192000Y385200D02*
X191874Y386195D01*
X191505Y387127D01*
X190916Y387938D01*
X190143Y388577D01*
X189236Y389004D01*
X188251Y389192D01*
X187250Y389129D01*
X186297Y388819D01*
X185450Y388282D01*
X184764Y387551D01*
X184281Y386672D01*
X184031Y385701D01*
Y384699D01*
X184281Y383728D01*
X184764Y382849D01*
X185450Y382118D01*
X186297Y381581D01*
X187250Y381271D01*
X188251Y381208D01*
X189236Y381396D01*
X190143Y381823D01*
X190916Y382462D01*
X191505Y383273D01*
X191874Y384205D01*
X192000Y385200D01*
X152000Y385200D02*
X151874Y386195D01*
X151505Y387127D01*
X150916Y387938D01*
X150143Y388577D01*
X149236Y389004D01*
X148251Y389192D01*
X147250Y389129D01*
X146297Y388819D01*
X145450Y388282D01*
X144764Y387551D01*
X144281Y386672D01*
X144032Y385701D01*
Y384699D01*
X144281Y383728D01*
X144764Y382849D01*
X145450Y382118D01*
X146297Y381581D01*
X147250Y381271D01*
X148251Y381208D01*
X149236Y381396D01*
X150143Y381823D01*
X150916Y382462D01*
X151505Y383273D01*
X151874Y384205D01*
X152000Y385200D01*
X112000Y385200D02*
X111874Y386195D01*
X111505Y387127D01*
X110916Y387938D01*
X110143Y388577D01*
X109236Y389004D01*
X108251Y389192D01*
X107250Y389129D01*
X106297Y388819D01*
X105450Y388282D01*
X104764Y387551D01*
X104281Y386672D01*
X104032Y385701D01*
Y384699D01*
X104281Y383728D01*
X104764Y382849D01*
X105450Y382118D01*
X106297Y381581D01*
X107250Y381271D01*
X108251Y381208D01*
X109236Y381396D01*
X110143Y381823D01*
X110916Y382462D01*
X111505Y383273D01*
X111874Y384205D01*
X112000Y385200D01*
X72000Y385200D02*
X71874Y386195D01*
X71505Y387127D01*
X70916Y387938D01*
X70143Y388577D01*
X69236Y389004D01*
X68251Y389192D01*
X67251Y389129D01*
X66297Y388819D01*
X65450Y388282D01*
X64764Y387551D01*
X64281Y386672D01*
X64031Y385701D01*
Y384699D01*
X64281Y383728D01*
X64764Y382849D01*
X65450Y382118D01*
X66297Y381581D01*
X67251Y381271D01*
X68251Y381208D01*
X69236Y381396D01*
X70143Y381823D01*
X70916Y382462D01*
X71505Y383273D01*
X71874Y384205D01*
X72000Y385200D01*
X389032Y202878D02*
X388907Y203873D01*
X388538Y204805D01*
X387948Y205616D01*
X387176Y206255D01*
X386268Y206682D01*
X385283Y206870D01*
X384283Y206807D01*
X383329Y206497D01*
X382483Y205960D01*
X381796Y205229D01*
X381313Y204350D01*
X381064Y203379D01*
Y202377D01*
X381313Y201405D01*
X381796Y200527D01*
X382483Y199796D01*
X383329Y199259D01*
X384283Y198949D01*
X385283Y198886D01*
X386268Y199074D01*
X387176Y199501D01*
X387948Y200140D01*
X388538Y200951D01*
X388907Y201883D01*
X389032Y202878D01*
X402432Y202878D02*
X402307Y203873D01*
X401937Y204805D01*
X401348Y205616D01*
X400576Y206255D01*
X399668Y206682D01*
X398683Y206870D01*
X397683Y206807D01*
X396729Y206497D01*
X395883Y205960D01*
X395196Y205229D01*
X394713Y204350D01*
X394464Y203379D01*
Y202377D01*
X394713Y201405D01*
X395196Y200527D01*
X395883Y199796D01*
X396729Y199259D01*
X397683Y198949D01*
X398683Y198886D01*
X399668Y199074D01*
X400576Y199501D01*
X401348Y200140D01*
X401937Y200951D01*
X402307Y201883D01*
X402432Y202878D01*
X192000Y385200D02*
X191874Y386195D01*
X191505Y387127D01*
X190916Y387938D01*
X190143Y388577D01*
X189236Y389004D01*
X188251Y389192D01*
X187250Y389129D01*
X186297Y388819D01*
X185450Y388282D01*
X184764Y387551D01*
X184281Y386672D01*
X184031Y385701D01*
Y384699D01*
X184281Y383728D01*
X184764Y382849D01*
X185450Y382118D01*
X186297Y381581D01*
X187250Y381271D01*
X188251Y381208D01*
X189236Y381396D01*
X190143Y381823D01*
X190916Y382462D01*
X191505Y383273D01*
X191874Y384205D01*
X192000Y385200D01*
X152000Y385200D02*
X151874Y386195D01*
X151505Y387127D01*
X150916Y387938D01*
X150143Y388577D01*
X149236Y389004D01*
X148251Y389192D01*
X147250Y389129D01*
X146297Y388819D01*
X145450Y388282D01*
X144764Y387551D01*
X144281Y386672D01*
X144032Y385701D01*
Y384699D01*
X144281Y383728D01*
X144764Y382849D01*
X145450Y382118D01*
X146297Y381581D01*
X147250Y381271D01*
X148251Y381208D01*
X149236Y381396D01*
X150143Y381823D01*
X150916Y382462D01*
X151505Y383273D01*
X151874Y384205D01*
X152000Y385200D01*
X111900Y385300D02*
X111774Y386295D01*
X111405Y387227D01*
X110816Y388038D01*
X110043Y388677D01*
X109136Y389104D01*
X108151Y389292D01*
X107150Y389229D01*
X106197Y388919D01*
X105350Y388382D01*
X104664Y387651D01*
X104181Y386772D01*
X103931Y385801D01*
Y384799D01*
X104181Y383827D01*
X104664Y382949D01*
X105350Y382218D01*
X106197Y381681D01*
X107150Y381371D01*
X108151Y381308D01*
X109136Y381496D01*
X110043Y381923D01*
X110816Y382562D01*
X111405Y383373D01*
X111774Y384305D01*
X111900Y385300D01*
X72000Y385200D02*
X71874Y386195D01*
X71505Y387127D01*
X70916Y387938D01*
X70143Y388577D01*
X69236Y389004D01*
X68251Y389192D01*
X67251Y389129D01*
X66297Y388819D01*
X65450Y388282D01*
X64764Y387551D01*
X64281Y386672D01*
X64031Y385701D01*
Y384699D01*
X64281Y383728D01*
X64764Y382849D01*
X65450Y382118D01*
X66297Y381581D01*
X67251Y381271D01*
X68251Y381208D01*
X69236Y381396D01*
X70143Y381823D01*
X70916Y382462D01*
X71505Y383273D01*
X71874Y384205D01*
X72000Y385200D01*
X310320Y297300D02*
X317400D01*
X410000Y266000D02*
Y268200D01*
X212650Y328200D02*
X232650D01*
X34500Y1000D02*
X35500Y0D01*
X410000Y355500D02*
Y363000D01*
X0Y0D02*
X116Y103500D01*
X409500Y129000D02*
Y271500D01*
X1000Y344500D02*
Y368000D01*
G54D110*
X355800Y186300D02*
D03*
X365800D02*
D03*
X334500D02*
D03*
X324500D02*
D03*
X12400Y354500D02*
D03*
X271300Y186300D02*
D03*
X261300D02*
D03*
X293000D02*
D03*
X303000D02*
D03*
X316750Y254900D02*
D03*
X306750D02*
D03*
X347800D02*
D03*
X357800D02*
D03*
X275700D02*
D03*
X265700D02*
D03*
X347800Y230900D02*
D03*
X337800D02*
D03*
X296750D02*
D03*
X306750D02*
D03*
X265700D02*
D03*
X255700D02*
D03*
X334500Y14500D02*
D03*
X344500D02*
D03*
X354500D02*
D03*
X364500D02*
D03*
X275000D02*
D03*
X285000D02*
D03*
X295000D02*
D03*
X305000D02*
D03*
X165000D02*
D03*
X175000D02*
D03*
X185000D02*
D03*
X195000D02*
D03*
X216000D02*
D03*
X226000D02*
D03*
X236000D02*
D03*
X246000D02*
D03*
X105500D02*
D03*
X115500D02*
D03*
X125500D02*
D03*
X135500D02*
D03*
X75500D02*
D03*
X65500D02*
D03*
X55500D02*
D03*
X45500D02*
D03*
X8600Y304600D02*
D03*
Y322400D02*
D03*
X391800Y75500D02*
D03*
Y65500D02*
D03*
Y45500D02*
D03*
X356500Y145500D02*
D03*
X346500D02*
D03*
X336500D02*
D03*
X326500D02*
D03*
X366500D02*
D03*
G54D111*
X22400Y354500D02*
D03*
X296750Y254900D02*
D03*
X337800D02*
D03*
X255700D02*
D03*
X357800Y230900D02*
D03*
X316750D02*
D03*
X275700D02*
D03*
X391800Y55500D02*
D03*
G54D112*
X173800Y330300D02*
D03*
X183800D02*
D03*
X193800D02*
D03*
X203800D02*
D03*
X80100Y140600D02*
D03*
X79300Y182000D02*
D03*
G54D113*
X173800Y320300D02*
D03*
X183800D02*
D03*
X193800D02*
D03*
X203800D02*
D03*
X190100Y150600D02*
D03*
Y140600D02*
D03*
X180100Y150600D02*
D03*
Y140600D02*
D03*
X170100Y150600D02*
D03*
Y140600D02*
D03*
X160100Y150600D02*
D03*
Y140600D02*
D03*
X150100Y150600D02*
D03*
Y140600D02*
D03*
X140100Y150600D02*
D03*
Y140600D02*
D03*
X130100Y150600D02*
D03*
Y140600D02*
D03*
X120100Y150600D02*
D03*
Y140600D02*
D03*
X110100Y150600D02*
D03*
Y140600D02*
D03*
X100100Y150600D02*
D03*
Y140600D02*
D03*
X90100Y150600D02*
D03*
Y140600D02*
D03*
X80100Y150600D02*
D03*
X79300Y192000D02*
D03*
X89300Y182000D02*
D03*
Y192000D02*
D03*
X99300Y182000D02*
D03*
Y192000D02*
D03*
X109300Y182000D02*
D03*
Y192000D02*
D03*
X119300Y182000D02*
D03*
Y192000D02*
D03*
X80100Y211500D02*
D03*
Y221500D02*
D03*
X90100Y211500D02*
D03*
Y221500D02*
D03*
X100100Y211500D02*
D03*
Y221500D02*
D03*
X110100Y211500D02*
D03*
Y221500D02*
D03*
X120100Y211500D02*
D03*
Y221500D02*
D03*
G54D114*
X215500Y144300D02*
D03*
X36900Y310500D02*
D03*
X13044Y119566D02*
D03*
G54D115*
X25000Y206300D02*
D03*
Y253622D02*
D03*
G54D118*
X35700Y225000D02*
D03*
Y234921D02*
D03*
X43600D02*
D03*
Y225000D02*
D03*
G54D119*
X18400Y299700D02*
D03*
Y327300D02*
D03*
G54D120*
X48000Y385200D02*
D03*
X68000D02*
D03*
X88000D02*
D03*
X108000D02*
D03*
X128000D02*
D03*
X148000D02*
D03*
X168000D02*
D03*
X188000D02*
D03*
X208000D02*
D03*
X228000D02*
D03*
X377063Y238248D02*
D03*
Y258248D02*
D03*
Y298248D02*
D03*
Y338248D02*
D03*
G54D121*
X345100Y338400D02*
D03*
X358500D02*
D03*
X398432Y202878D02*
D03*
X385032D02*
D03*
Y149878D02*
D03*
X398432D02*
D03*
G54D123*
X395000Y15000D02*
D03*
X15000D02*
D03*
Y390000D02*
D03*
X395000D02*
D03*
G54D124*
X377063Y278248D02*
D03*
Y318248D02*
D03*
G54D125*
X388000Y8000D02*
D03*
X402000D02*
D03*
Y22000D02*
D03*
X388000D02*
D03*
X385000Y15000D02*
D03*
X405000D02*
D03*
X395000Y25000D02*
D03*
Y5000D02*
D03*
X8000Y8000D02*
D03*
X22000D02*
D03*
Y22000D02*
D03*
X8000D02*
D03*
X5000Y15000D02*
D03*
X25000D02*
D03*
X15000Y25000D02*
D03*
Y5000D02*
D03*
X8000Y383000D02*
D03*
X22000D02*
D03*
Y397000D02*
D03*
X8000D02*
D03*
X5000Y390000D02*
D03*
X25000D02*
D03*
X15000Y400000D02*
D03*
Y380000D02*
D03*
X388000Y383000D02*
D03*
X402000D02*
D03*
Y397000D02*
D03*
X388000D02*
D03*
X385000Y390000D02*
D03*
X405000D02*
D03*
X395000Y400000D02*
D03*
Y380000D02*
D03*
X404600Y185200D02*
D03*
X313500Y25900D02*
D03*
X76300Y81100D02*
D03*
X274810Y170890D02*
D03*
X316426Y91569D02*
D03*
Y95900D02*
D03*
Y100231D02*
D03*
X320757Y91569D02*
D03*
Y95900D02*
D03*
Y100231D02*
D03*
X325088Y91569D02*
D03*
Y95900D02*
D03*
Y100231D02*
D03*
X329418Y91569D02*
D03*
Y95900D02*
D03*
Y100231D02*
D03*
X333749Y91569D02*
D03*
Y95900D02*
D03*
Y100231D02*
D03*
X399739Y180270D02*
D03*
X245540Y91569D02*
D03*
Y95900D02*
D03*
Y100231D02*
D03*
X249871Y91569D02*
D03*
Y95900D02*
D03*
Y100231D02*
D03*
X254202Y91569D02*
D03*
Y95900D02*
D03*
Y100231D02*
D03*
X258533Y91569D02*
D03*
Y95900D02*
D03*
Y100231D02*
D03*
X262863Y91569D02*
D03*
Y95900D02*
D03*
Y100231D02*
D03*
X103769Y91569D02*
D03*
Y95900D02*
D03*
Y100231D02*
D03*
X108099Y91569D02*
D03*
Y95900D02*
D03*
Y100231D02*
D03*
X112430Y91569D02*
D03*
Y95900D02*
D03*
Y100231D02*
D03*
X116761Y91569D02*
D03*
Y95900D02*
D03*
Y100231D02*
D03*
X121092Y91569D02*
D03*
Y95900D02*
D03*
Y100231D02*
D03*
X31083Y91569D02*
D03*
Y95900D02*
D03*
Y100231D02*
D03*
X35414Y91569D02*
D03*
Y95900D02*
D03*
Y100231D02*
D03*
X39744Y91569D02*
D03*
Y95900D02*
D03*
Y100231D02*
D03*
X44075Y91569D02*
D03*
Y95900D02*
D03*
Y100231D02*
D03*
X48406Y91569D02*
D03*
Y95900D02*
D03*
Y100231D02*
D03*
X245374Y280217D02*
D03*
Y275886D02*
D03*
X241043Y280217D02*
D03*
Y275886D02*
D03*
X215500Y135245D02*
D03*
Y153355D02*
D03*
X224555Y144300D02*
D03*
X206445D02*
D03*
X27845Y310500D02*
D03*
X45955D02*
D03*
X36900Y319555D02*
D03*
Y301445D02*
D03*
X13044Y110511D02*
D03*
Y128621D02*
D03*
X22099Y119566D02*
D03*
X3989D02*
D03*
X323131Y382442D02*
D03*
X327068D02*
D03*
Y378505D02*
D03*
X323131D02*
D03*
X319195D02*
D03*
Y382442D02*
D03*
Y386380D02*
D03*
X323131D02*
D03*
X327068D02*
D03*
X174681Y91569D02*
D03*
Y95900D02*
D03*
Y100231D02*
D03*
X179011Y91569D02*
D03*
Y95900D02*
D03*
Y100231D02*
D03*
X183342Y91569D02*
D03*
Y95900D02*
D03*
Y100231D02*
D03*
X187673Y91569D02*
D03*
Y95900D02*
D03*
Y100231D02*
D03*
X192003Y91569D02*
D03*
Y95900D02*
D03*
Y100231D02*
D03*
X167730Y284199D02*
D03*
X145379Y271539D02*
D03*
X44157Y188641D02*
D03*
X90414Y232465D02*
D03*
X82288Y206086D02*
D03*
X100647Y205238D02*
D03*
X183642Y160132D02*
D03*
X194394Y118070D02*
D03*
X295860Y141983D02*
D03*
X317933Y154895D02*
D03*
X350027Y137389D02*
D03*
X331448Y130040D02*
D03*
X265526Y130036D02*
D03*
X246763Y137969D02*
D03*
X260561Y140950D02*
D03*
X237635Y133114D02*
D03*
X232225Y150511D02*
D03*
X267241Y216044D02*
D03*
X215158Y265058D02*
D03*
X160192Y207040D02*
D03*
X160169Y189493D02*
D03*
X176665Y188971D02*
D03*
X220900Y180600D02*
D03*
X211999Y194978D02*
D03*
X212032Y201205D02*
D03*
X62000Y93170D02*
D03*
X350700Y73200D02*
D03*
X327175Y225921D02*
D03*
X282605Y71738D02*
D03*
X206359Y215738D02*
D03*
X216192Y238327D02*
D03*
X81951Y169892D02*
D03*
X85399Y169963D02*
D03*
X75884Y168828D02*
D03*
X148928Y271555D02*
D03*
X35048Y274641D02*
D03*
X27961Y272986D02*
D03*
X22567Y275240D02*
D03*
X27768Y292677D02*
D03*
X59615Y220265D02*
D03*
X60114Y225266D02*
D03*
X17999Y277829D02*
D03*
X18039Y283912D02*
D03*
X17893Y290101D02*
D03*
X9078Y295182D02*
D03*
X51793Y307434D02*
D03*
X51649Y303489D02*
D03*
X51597Y299648D02*
D03*
X238208Y195764D02*
D03*
X236214Y197771D02*
D03*
X129483Y200061D02*
D03*
X125713Y212578D02*
D03*
X206457Y272977D02*
D03*
X212022Y209829D02*
D03*
X215745Y215774D02*
D03*
X208925Y239893D02*
D03*
X113532Y205372D02*
D03*
X124605Y206654D02*
D03*
X127800Y218400D02*
D03*
X127172Y226996D02*
D03*
X105213Y225240D02*
D03*
X97900Y231800D02*
D03*
X93919Y232180D02*
D03*
X104321Y194383D02*
D03*
X108600Y197500D02*
D03*
X77314Y163074D02*
D03*
X97278Y204447D02*
D03*
X82800Y199400D02*
D03*
X124482Y119219D02*
D03*
X90443Y105853D02*
D03*
X203617Y112561D02*
D03*
X184624Y266537D02*
D03*
X212032Y219764D02*
D03*
X156217Y118667D02*
D03*
X156094Y164834D02*
D03*
X161950Y167714D02*
D03*
X153900Y184500D02*
D03*
X328737Y160023D02*
D03*
X106732Y128046D02*
D03*
X239690Y229275D02*
D03*
X215708Y201733D02*
D03*
X223112Y195078D02*
D03*
X219421Y195099D02*
D03*
X213162Y166032D02*
D03*
X207290Y162338D02*
D03*
X257185Y141535D02*
D03*
X246457D02*
D03*
X291800Y150600D02*
D03*
X235077Y148565D02*
D03*
X199000Y133300D02*
D03*
X70907Y169662D02*
D03*
X262965Y173640D02*
D03*
X233539Y157230D02*
D03*
X229706Y157244D02*
D03*
X230762Y168759D02*
D03*
X223331Y159965D02*
D03*
X213190Y161308D02*
D03*
X156020Y167657D02*
D03*
X215719Y209838D02*
D03*
X219412Y201895D02*
D03*
X220500Y235500D02*
D03*
X262700Y159900D02*
D03*
X279300Y158400D02*
D03*
X132523Y200067D02*
D03*
X215900Y246500D02*
D03*
X152798Y235380D02*
D03*
X332955Y207489D02*
D03*
X307607Y207661D02*
D03*
X298307Y201970D02*
D03*
X295320Y208030D02*
D03*
X285646Y201958D02*
D03*
X279510Y205760D02*
D03*
X279441Y201980D02*
D03*
X264799Y207652D02*
D03*
X256790Y202090D02*
D03*
X262959Y216095D02*
D03*
X353464Y164062D02*
D03*
X341131Y167053D02*
D03*
X309389Y169286D02*
D03*
X298277Y160808D02*
D03*
X298311Y156971D02*
D03*
X290500Y170394D02*
D03*
X279304Y162224D02*
D03*
X346591Y90088D02*
D03*
X364300Y117400D02*
D03*
Y111200D02*
D03*
X355700Y108100D02*
D03*
Y114339D02*
D03*
X367200D02*
D03*
Y108100D02*
D03*
X352800Y111200D02*
D03*
Y117439D02*
D03*
X293500Y117400D02*
D03*
Y111200D02*
D03*
X284900Y108100D02*
D03*
Y114339D02*
D03*
X296400D02*
D03*
Y108100D02*
D03*
X282000Y111200D02*
D03*
Y117439D02*
D03*
X222900Y117300D02*
D03*
Y111100D02*
D03*
X214300Y108000D02*
D03*
Y114239D02*
D03*
X225800D02*
D03*
Y108000D02*
D03*
X211400Y111100D02*
D03*
Y117339D02*
D03*
X65800Y92400D02*
D03*
X142700Y84800D02*
D03*
X81300Y119800D02*
D03*
Y113600D02*
D03*
X72700Y110500D02*
D03*
Y116739D02*
D03*
X84200D02*
D03*
Y110500D02*
D03*
X69800Y113600D02*
D03*
Y119839D02*
D03*
X140300Y117439D02*
D03*
Y111200D02*
D03*
X154700Y108100D02*
D03*
X163000Y119500D02*
D03*
Y113100D02*
D03*
X160000Y114600D02*
D03*
Y118100D02*
D03*
X301200Y116500D02*
D03*
Y120000D02*
D03*
X304200Y115000D02*
D03*
Y121400D02*
D03*
X233300Y117600D02*
D03*
Y121100D02*
D03*
X236300Y116100D02*
D03*
Y122500D02*
D03*
X92600Y118200D02*
D03*
Y111800D02*
D03*
X89600Y116800D02*
D03*
Y113300D02*
D03*
X11687Y93030D02*
D03*
X8187D02*
D03*
X13187Y96030D02*
D03*
X6787D02*
D03*
X97200Y120300D02*
D03*
X345300Y126200D02*
D03*
X191900Y123100D02*
D03*
X334900Y112900D02*
D03*
X331485Y126085D02*
D03*
X122200Y112900D02*
D03*
X52600Y116400D02*
D03*
X307614Y98700D02*
D03*
Y101800D02*
D03*
X346800Y76200D02*
D03*
Y79300D02*
D03*
X274800Y77700D02*
D03*
Y75200D02*
D03*
X9800Y73300D02*
D03*
Y76500D02*
D03*
X59000Y74000D02*
D03*
X65790Y78600D02*
D03*
X226000Y78000D02*
D03*
X222100Y79200D02*
D03*
X204200Y77000D02*
D03*
X207500D02*
D03*
X154820Y76500D02*
D03*
Y73200D02*
D03*
X155000Y68600D02*
D03*
X297400Y76600D02*
D03*
Y73300D02*
D03*
X364100Y70900D02*
D03*
X366300Y68700D02*
D03*
X359800Y55600D02*
D03*
X356500D02*
D03*
X306700Y58700D02*
D03*
X303700D02*
D03*
X318100Y18000D02*
D03*
X321400D02*
D03*
X302100Y68000D02*
D03*
Y64700D02*
D03*
X288900Y76500D02*
D03*
X278600Y71500D02*
D03*
X290500Y66400D02*
D03*
Y63100D02*
D03*
X300000Y39300D02*
D03*
Y36000D02*
D03*
X287300Y53500D02*
D03*
Y50200D02*
D03*
X290000Y39000D02*
D03*
Y35700D02*
D03*
X263700Y28800D02*
D03*
X260400D02*
D03*
X280000Y26400D02*
D03*
Y29700D02*
D03*
X222700Y70600D02*
D03*
X226000D02*
D03*
X218300Y50400D02*
D03*
Y53700D02*
D03*
X231900Y60600D02*
D03*
X234700Y58800D02*
D03*
Y55600D02*
D03*
X268600D02*
D03*
Y58700D02*
D03*
X270500Y64400D02*
D03*
Y67800D02*
D03*
X239500Y55600D02*
D03*
Y58700D02*
D03*
X237800Y64400D02*
D03*
Y67800D02*
D03*
X271658Y93000D02*
D03*
Y89900D02*
D03*
X200400Y97300D02*
D03*
X200798Y93000D02*
D03*
Y89900D02*
D03*
X236728Y101800D02*
D03*
Y98700D02*
D03*
X165888Y101900D02*
D03*
Y98800D02*
D03*
X265500Y126400D02*
D03*
X209800Y28700D02*
D03*
X206500D02*
D03*
X190000Y35200D02*
D03*
X207600Y40000D02*
D03*
X156700Y25500D02*
D03*
Y22200D02*
D03*
X212100Y79200D02*
D03*
X180000Y39100D02*
D03*
Y35800D02*
D03*
X169900Y29900D02*
D03*
Y26600D02*
D03*
X79200Y68400D02*
D03*
Y71700D02*
D03*
X83500Y25700D02*
D03*
Y28900D02*
D03*
Y32100D02*
D03*
X71600Y59500D02*
D03*
X68300D02*
D03*
X65100Y47800D02*
D03*
Y51100D02*
D03*
Y54400D02*
D03*
X70200Y38500D02*
D03*
Y35300D02*
D03*
X60200Y38500D02*
D03*
Y35300D02*
D03*
X50900Y22100D02*
D03*
Y25300D02*
D03*
Y28500D02*
D03*
X27200Y25400D02*
D03*
X27000Y28800D02*
D03*
X29700Y22900D02*
D03*
X34400Y25500D02*
D03*
X37900D02*
D03*
X34400Y29000D02*
D03*
X7000Y70000D02*
D03*
X10200D02*
D03*
X13200Y55400D02*
D03*
X16500D02*
D03*
X193200Y112900D02*
D03*
X46142Y116442D02*
D03*
X398900Y245400D02*
D03*
X395300Y249300D02*
D03*
X382000Y249200D02*
D03*
X387800Y242900D02*
D03*
X387400Y233500D02*
D03*
X383700Y230900D02*
D03*
X388300Y238200D02*
D03*
X384600Y245600D02*
D03*
X379000Y245700D02*
D03*
X377900Y230800D02*
D03*
X392200Y254500D02*
D03*
X392300Y261200D02*
D03*
X387200Y261100D02*
D03*
X387500Y254800D02*
D03*
X377100Y252100D02*
D03*
X373600Y248600D02*
D03*
X368900Y248700D02*
D03*
X369000Y252600D02*
D03*
X387700Y298300D02*
D03*
X386519Y292467D02*
D03*
X381086Y304958D02*
D03*
X387415Y301821D02*
D03*
X384800Y304800D02*
D03*
X377000Y304900D02*
D03*
X372000D02*
D03*
X382300Y291600D02*
D03*
X372400D02*
D03*
X368700Y292000D02*
D03*
X377000Y291800D02*
D03*
X387300Y334800D02*
D03*
X390900Y335500D02*
D03*
X389000Y331600D02*
D03*
X385300Y332000D02*
D03*
X387700Y338300D02*
D03*
X380800Y331300D02*
D03*
X373700Y331600D02*
D03*
X377100Y332400D02*
D03*
X373100Y346300D02*
D03*
X379700Y346600D02*
D03*
X377000Y344300D02*
D03*
X343100Y319900D02*
D03*
X365600Y338200D02*
D03*
X365500Y346700D02*
D03*
X350200Y324900D02*
D03*
X351900Y332600D02*
D03*
X351898Y337852D02*
D03*
X345400Y328600D02*
D03*
X365800Y331200D02*
D03*
X351898Y328567D02*
D03*
X359000Y348400D02*
D03*
X352100Y348500D02*
D03*
X345200Y348300D02*
D03*
X291600Y271500D02*
D03*
X303300Y289000D02*
D03*
X213275Y289876D02*
D03*
X237008Y297933D02*
D03*
X247900Y308900D02*
D03*
X246200Y301800D02*
D03*
X255024Y306417D02*
D03*
X202523Y303176D02*
D03*
X240700Y308000D02*
D03*
X237800Y308100D02*
D03*
Y312225D02*
D03*
X84006Y321651D02*
D03*
X76100Y316804D02*
D03*
X164418Y318273D02*
D03*
X204700Y336600D02*
D03*
X188386Y301083D02*
D03*
X5020Y197441D02*
D03*
X15661Y201219D02*
D03*
X50334Y199705D02*
D03*
X396400Y95600D02*
D03*
Y106000D02*
D03*
X66834Y200502D02*
D03*
X70300Y196400D02*
D03*
X57776Y199705D02*
D03*
X54429Y205118D02*
D03*
X39653Y199622D02*
D03*
X64468Y190551D02*
D03*
X38013Y190300D02*
D03*
X50689Y190453D02*
D03*
X72326Y166270D02*
D03*
X33813Y190500D02*
D03*
X236626Y271470D02*
D03*
X238988Y291451D02*
D03*
X242039Y289384D02*
D03*
X246973Y289139D02*
D03*
X249902Y272539D02*
D03*
X241300Y219200D02*
D03*
X239295Y213987D02*
D03*
X241900Y224800D02*
D03*
X242204Y233633D02*
D03*
X247835Y268110D02*
D03*
X245965Y262500D02*
D03*
X243110Y265453D02*
D03*
X240563Y268025D02*
D03*
X232656Y252849D02*
D03*
X300057Y146547D02*
D03*
X54514Y57200D02*
D03*
X388848Y360763D02*
D03*
X49200Y260281D02*
D03*
X345258Y122785D02*
D03*
X301200Y100300D02*
D03*
X264000Y112900D02*
D03*
X207500Y112500D02*
D03*
Y105000D02*
D03*
Y97500D02*
D03*
X205700Y89200D02*
D03*
X160098Y98000D02*
D03*
X160000Y105000D02*
D03*
X64500Y97500D02*
D03*
X94100Y299900D02*
D03*
X165700Y267700D02*
D03*
X170100Y281400D02*
D03*
X53198Y216100D02*
D03*
X59051Y288180D02*
D03*
X125438Y294985D02*
D03*
X111400Y294100D02*
D03*
X111300Y243500D02*
D03*
X65100Y286500D02*
D03*
X111557Y248385D02*
D03*
X41900Y256581D02*
D03*
X41600Y263981D02*
D03*
X41400Y260281D02*
D03*
X4800Y266200D02*
D03*
X60942Y301260D02*
D03*
X61006Y304688D02*
D03*
X85381Y207854D02*
D03*
X172698Y183752D02*
D03*
X172701Y180087D02*
D03*
X164300Y183800D02*
D03*
Y180100D02*
D03*
X209026Y246942D02*
D03*
X215874Y250050D02*
D03*
X220493Y242380D02*
D03*
X127705Y193803D02*
D03*
X292717Y145374D02*
D03*
X112524Y238402D02*
D03*
X131136Y235083D02*
D03*
X134670Y235076D02*
D03*
X161891Y243376D02*
D03*
X161902Y246967D02*
D03*
X171751Y246946D02*
D03*
X164220Y329000D02*
D03*
X211900Y322900D02*
D03*
X221020Y317100D02*
D03*
X57200Y93000D02*
D03*
X129800Y97100D02*
D03*
X129930Y100900D02*
D03*
X200842D02*
D03*
X271600Y97400D02*
D03*
X271702Y100900D02*
D03*
X342588D02*
D03*
Y95900D02*
D03*
X41557Y78600D02*
D03*
X37957D02*
D03*
X60000Y77400D02*
D03*
X37957Y76000D02*
D03*
X41557D02*
D03*
X31914Y78000D02*
D03*
Y75300D02*
D03*
X58414Y61600D02*
D03*
X56000Y64014D02*
D03*
X56914Y54800D02*
D03*
X23600Y55826D02*
D03*
X21300Y53400D02*
D03*
X21700Y62187D02*
D03*
X18600Y60600D02*
D03*
X27214Y48900D02*
D03*
X30481D02*
D03*
X33747D02*
D03*
X37014D02*
D03*
X42200D02*
D03*
X45567D02*
D03*
X48933D02*
D03*
X52300D02*
D03*
X5200Y333200D02*
D03*
X326900Y78600D02*
D03*
X323300D02*
D03*
X341800Y90100D02*
D03*
X323300Y76000D02*
D03*
X333458Y77900D02*
D03*
Y75100D02*
D03*
X317258Y78000D02*
D03*
Y75300D02*
D03*
X256014Y78600D02*
D03*
X252414D02*
D03*
Y76000D02*
D03*
X256014D02*
D03*
X262572Y77900D02*
D03*
Y75100D02*
D03*
X226072Y74800D02*
D03*
X246372Y78000D02*
D03*
Y75300D02*
D03*
X241672Y48900D02*
D03*
X244938D02*
D03*
X248205D02*
D03*
X251472D02*
D03*
X256472D02*
D03*
X259838D02*
D03*
X263205D02*
D03*
X266572D02*
D03*
X250691Y55491D02*
D03*
X257846Y55565D02*
D03*
X185154Y78600D02*
D03*
X181554D02*
D03*
Y76000D02*
D03*
X185154D02*
D03*
X191712Y77900D02*
D03*
Y75100D02*
D03*
X175512Y78000D02*
D03*
Y75300D02*
D03*
X199700Y64400D02*
D03*
Y67800D02*
D03*
X197800Y55600D02*
D03*
X197900Y58700D02*
D03*
X168600D02*
D03*
Y55600D02*
D03*
X167000Y67800D02*
D03*
Y64400D02*
D03*
X170812Y48900D02*
D03*
X174079D02*
D03*
X177345D02*
D03*
X180612D02*
D03*
X185612D02*
D03*
X188979D02*
D03*
X192345D02*
D03*
X195712D02*
D03*
X203001Y18484D02*
D03*
X187490Y54151D02*
D03*
X124800Y48900D02*
D03*
X121433D02*
D03*
X118067D02*
D03*
X114700D02*
D03*
X109700D02*
D03*
X106433D02*
D03*
X103167D02*
D03*
X99900D02*
D03*
X96100Y63900D02*
D03*
Y67300D02*
D03*
X97600Y55100D02*
D03*
X97500Y58500D02*
D03*
X127800Y61200D02*
D03*
Y57700D02*
D03*
X128700Y68500D02*
D03*
Y65100D02*
D03*
X104600Y75300D02*
D03*
Y78000D02*
D03*
X84000Y76900D02*
D03*
X120800Y75100D02*
D03*
Y77900D02*
D03*
X114242Y76000D02*
D03*
X110642D02*
D03*
Y78600D02*
D03*
X114242D02*
D03*
X400000Y212700D02*
D03*
X391437Y203051D02*
D03*
X320424Y394243D02*
D03*
X306400Y363200D02*
D03*
X134000Y241600D02*
D03*
X198274Y243430D02*
D03*
X349200Y387500D02*
D03*
X237800Y316350D02*
D03*
Y320475D02*
D03*
X402900Y108600D02*
D03*
X399200D02*
D03*
X402800Y93000D02*
D03*
X396400Y102500D02*
D03*
Y99000D02*
D03*
X217980Y317100D02*
D03*
X217500Y321600D02*
D03*
X227100Y317100D02*
D03*
X68000Y251600D02*
D03*
X211900Y320000D02*
D03*
X214940Y317100D02*
D03*
X369200Y388000D02*
D03*
X5200Y328900D02*
D03*
X314332Y375642D02*
D03*
X334781Y374195D02*
D03*
X131900Y329700D02*
D03*
X91594Y325197D02*
D03*
X92000Y329700D02*
D03*
X224060Y317100D02*
D03*
X211900D02*
D03*
X96900Y329800D02*
D03*
X137200Y329600D02*
D03*
X48200Y325200D02*
D03*
X97500Y325197D02*
D03*
X222700Y321600D02*
D03*
X302096Y392126D02*
D03*
X392028Y193799D02*
D03*
X388976Y212500D02*
D03*
X380500Y194000D02*
D03*
X400000Y193701D02*
D03*
X381000Y217500D02*
D03*
X389500D02*
D03*
X44291Y181398D02*
D03*
X396063Y212598D02*
D03*
X381693D02*
D03*
X153000Y245222D02*
D03*
X132900Y245500D02*
D03*
X138900Y238800D02*
D03*
X303500Y145100D02*
D03*
X132900Y249300D02*
D03*
X219423Y188603D02*
D03*
X223113Y188616D02*
D03*
X152900Y189500D02*
D03*
X156489Y189506D02*
D03*
X236129Y236152D02*
D03*
X302100Y139100D02*
D03*
X198287Y246954D02*
D03*
X191439Y246940D02*
D03*
X337800Y159900D02*
D03*
X206500Y269700D02*
D03*
X198700Y266900D02*
D03*
X239717Y236134D02*
D03*
X236138Y229286D02*
D03*
X292100Y135500D02*
D03*
X223107Y201907D02*
D03*
X157587Y184493D02*
D03*
X233800Y133200D02*
D03*
X57513Y190500D02*
D03*
X4500Y313900D02*
D03*
X22113Y170700D02*
D03*
X5100Y200900D02*
D03*
X10658Y193470D02*
D03*
X27713Y189100D02*
D03*
X164120Y342000D02*
D03*
X4813Y140900D02*
D03*
Y179200D02*
D03*
Y174800D02*
D03*
Y145200D02*
D03*
X21913Y166300D02*
D03*
X385600Y36200D02*
D03*
X118564Y279281D02*
D03*
X64800Y282700D02*
D03*
X61300Y276600D02*
D03*
X207240Y158830D02*
D03*
X188700Y163500D02*
D03*
X184889Y163392D02*
D03*
X256800Y192600D02*
D03*
X258344Y176669D02*
D03*
X396200Y217600D02*
D03*
X250500Y396400D02*
D03*
X267800Y388800D02*
D03*
X267700Y392400D02*
D03*
X267800Y396100D02*
D03*
X283300Y388700D02*
D03*
Y396800D02*
D03*
Y392600D02*
D03*
X292700Y397100D02*
D03*
X292800Y392800D02*
D03*
Y388600D02*
D03*
X296300Y388700D02*
D03*
X274800Y388800D02*
D03*
X274600Y396800D02*
D03*
X301000Y298100D02*
D03*
X260700Y334200D02*
D03*
X274100Y273400D02*
D03*
Y278200D02*
D03*
X285300Y278300D02*
D03*
Y274100D02*
D03*
X274100Y282200D02*
D03*
X263265Y287660D02*
D03*
X262955Y284191D02*
D03*
X263018Y280463D02*
D03*
X237800Y324600D02*
D03*
X240700D02*
D03*
X247900Y324500D02*
D03*
Y320375D02*
D03*
Y316250D02*
D03*
Y312125D02*
D03*
X257900Y348300D02*
D03*
Y342900D02*
D03*
X79100Y355900D02*
D03*
X271100Y388800D02*
D03*
X124700Y368700D02*
D03*
X85200Y368900D02*
D03*
X41600Y357400D02*
D03*
X271100Y396100D02*
D03*
X47700Y356100D02*
D03*
X118950Y355900D02*
D03*
X83600Y353700D02*
D03*
Y344600D02*
D03*
X123700D02*
D03*
Y353700D02*
D03*
X159050Y355900D02*
D03*
X83900Y362200D02*
D03*
X123800Y362400D02*
D03*
X404000Y354700D02*
D03*
Y358700D02*
D03*
Y364600D02*
D03*
X400000Y217600D02*
D03*
X388751Y364566D02*
D03*
X393551Y358666D02*
D03*
Y354666D02*
D03*
X391658Y370063D02*
D03*
X18900Y265000D02*
D03*
X33600Y14800D02*
D03*
X327000Y76000D02*
D03*
X299508Y142913D02*
D03*
X205400Y134300D02*
D03*
X120531Y339075D02*
D03*
X160420Y329100D02*
D03*
X131850Y325295D02*
D03*
X128898D02*
D03*
X77323Y326476D02*
D03*
X117480Y326575D02*
D03*
X137756Y325295D02*
D03*
X134803D02*
D03*
X140709D02*
D03*
X94547Y325197D02*
D03*
X100453D02*
D03*
X52200Y325200D02*
D03*
X60200D02*
D03*
X56200D02*
D03*
X47209Y329741D02*
D03*
X52200Y329700D02*
D03*
X57100D02*
D03*
X160863Y314853D02*
D03*
X164431Y314830D02*
D03*
X88648Y325213D02*
D03*
X75159Y320474D02*
D03*
X80177Y338976D02*
D03*
X193178Y348040D02*
D03*
X173863Y344263D02*
D03*
X175200Y353700D02*
D03*
X20000Y368700D02*
D03*
X31900Y336026D02*
D03*
X32750Y350150D02*
D03*
X204200Y366800D02*
D03*
X86900Y59900D02*
D03*
X92300Y57400D02*
D03*
X90200Y59900D02*
D03*
X84000Y73900D02*
D03*
X84300Y70300D02*
D03*
X97200Y25400D02*
D03*
Y22100D02*
D03*
X110400Y29000D02*
D03*
Y25800D02*
D03*
Y22600D02*
D03*
X120500Y39300D02*
D03*
Y36000D02*
D03*
X135200Y58300D02*
D03*
X132700Y60800D02*
D03*
X137100Y37600D02*
D03*
X130500Y22100D02*
D03*
Y25400D02*
D03*
X48114Y75100D02*
D03*
Y77900D02*
D03*
X22200Y101400D02*
D03*
Y98300D02*
D03*
X57200Y89900D02*
D03*
X92200Y17900D02*
D03*
X88900D02*
D03*
X148900Y68600D02*
D03*
Y65300D02*
D03*
X143200Y114339D02*
D03*
Y108100D02*
D03*
X94900Y98700D02*
D03*
Y101800D02*
D03*
X129886Y89900D02*
D03*
Y93000D02*
D03*
X143300Y72200D02*
D03*
Y75300D02*
D03*
X142700Y78800D02*
D03*
X149900Y75400D02*
D03*
X147500Y61700D02*
D03*
X163900Y55600D02*
D03*
Y58800D02*
D03*
X161100Y60600D02*
D03*
X147500Y29900D02*
D03*
X150800D02*
D03*
X202600Y55600D02*
D03*
Y58800D02*
D03*
X205400Y60600D02*
D03*
X218500Y70000D02*
D03*
X215400D02*
D03*
X312600Y67586D02*
D03*
Y64186D02*
D03*
X325300Y39700D02*
D03*
X322000D02*
D03*
X345000Y67800D02*
D03*
Y64500D02*
D03*
X344955Y54812D02*
D03*
X65100Y57900D02*
D03*
X329500Y22100D02*
D03*
Y25400D02*
D03*
X339500Y34900D02*
D03*
X349500Y35500D02*
D03*
Y38800D02*
D03*
X359500D02*
D03*
Y35500D02*
D03*
X369500Y38900D02*
D03*
Y35600D02*
D03*
X345100Y47900D02*
D03*
X359500Y51600D02*
D03*
Y48300D02*
D03*
X369500Y49100D02*
D03*
Y52400D02*
D03*
X326272Y48700D02*
D03*
X323005D02*
D03*
X319738D02*
D03*
X340972D02*
D03*
X337705D02*
D03*
X334438D02*
D03*
X331172D02*
D03*
X316700D02*
D03*
X396181Y113352D02*
D03*
X399381D02*
D03*
X400481Y116452D02*
D03*
Y119752D02*
D03*
X399581Y123052D02*
D03*
Y126252D02*
D03*
Y132652D02*
D03*
Y129452D02*
D03*
X396981Y134552D02*
D03*
X400900Y45500D02*
D03*
X398900Y48000D02*
D03*
X398800Y43000D02*
D03*
X384800Y48000D02*
D03*
X384700Y43000D02*
D03*
X382700Y45500D02*
D03*
X400900Y65500D02*
D03*
X398900Y68000D02*
D03*
X398800Y63000D02*
D03*
X384800Y68000D02*
D03*
X384700Y63000D02*
D03*
X382700Y65500D02*
D03*
X400900Y75500D02*
D03*
X398900Y78000D02*
D03*
X398800Y73000D02*
D03*
X384800Y78000D02*
D03*
X384700Y73000D02*
D03*
X382700Y75500D02*
D03*
X262800Y169900D02*
D03*
X270600Y172300D02*
D03*
X163963Y208768D02*
D03*
X153519Y207693D02*
D03*
X153133Y222289D02*
D03*
X140981Y214623D02*
D03*
X127921Y214794D02*
D03*
X183508Y246957D02*
D03*
X171750Y250516D02*
D03*
X208933Y243408D02*
D03*
X163298Y286847D02*
D03*
X138532Y297085D02*
D03*
X175900Y291800D02*
D03*
X180926Y291825D02*
D03*
X185862Y291825D02*
D03*
X190878Y291795D02*
D03*
X195904Y291875D02*
D03*
X183472Y243494D02*
D03*
X191440Y243382D02*
D03*
X320458Y152392D02*
D03*
X347835Y134744D02*
D03*
X189687Y269666D02*
D03*
X188735Y167075D02*
D03*
X205455Y183770D02*
D03*
X205478Y180090D02*
D03*
X172582Y127096D02*
D03*
X151915Y110042D02*
D03*
X154674Y112274D02*
D03*
X151853Y115993D02*
D03*
X73745Y162587D02*
D03*
X116209Y238194D02*
D03*
X95548Y162290D02*
D03*
X113682Y197345D02*
D03*
X70954Y191442D02*
D03*
X78689Y126712D02*
D03*
X133816Y300213D02*
D03*
X133745Y291237D02*
D03*
X122674Y279322D02*
D03*
X145639Y282381D02*
D03*
X150531Y300347D02*
D03*
X168624Y300136D02*
D03*
X169214Y291659D02*
D03*
X158164Y282549D02*
D03*
X149898Y285291D02*
D03*
X317102Y146600D02*
D03*
X322776Y371492D02*
D03*
X323700Y358600D02*
D03*
Y361900D02*
D03*
Y365400D02*
D03*
Y368800D02*
D03*
X256328Y277528D02*
D03*
X266592Y289116D02*
D03*
X266569Y292079D02*
D03*
X230200Y275100D02*
D03*
Y280000D02*
D03*
X209495Y289855D02*
D03*
X172985Y304026D02*
D03*
X173004Y300427D02*
D03*
X173024Y296947D02*
D03*
X202557Y308659D02*
D03*
X199745Y336663D02*
D03*
X123998Y321597D02*
D03*
X71549Y306068D02*
D03*
X67729Y306151D02*
D03*
X74731Y206009D02*
D03*
X130327Y204935D02*
D03*
X66298Y218466D02*
D03*
X10352Y206826D02*
D03*
X34890Y206681D02*
D03*
X42860Y206488D02*
D03*
X49429Y210883D02*
D03*
X10466Y215252D02*
D03*
X10322Y224431D02*
D03*
X10249Y233826D02*
D03*
Y242861D02*
D03*
X10334Y251633D02*
D03*
X10270Y260205D02*
D03*
X25158Y268004D02*
D03*
X33472Y268068D02*
D03*
X41142Y270324D02*
D03*
X47523Y276511D02*
D03*
X52349Y281379D02*
D03*
X67900Y230800D02*
D03*
X78363Y239702D02*
D03*
X78225Y247632D02*
D03*
X76657Y294351D02*
D03*
X76699Y290178D02*
D03*
X172047Y241716D02*
D03*
X183598Y250391D02*
D03*
X191469Y239897D02*
D03*
X198294Y239936D02*
D03*
X322872Y209889D02*
D03*
X267188Y243003D02*
D03*
X135844Y89956D02*
D03*
X94894Y145449D02*
D03*
X202500Y299700D02*
D03*
X164401Y321984D02*
D03*
X232743Y323882D02*
D03*
X211366Y300095D02*
D03*
X144600Y325173D02*
D03*
X104500Y325100D02*
D03*
X64650Y324964D02*
D03*
X179419Y343401D02*
D03*
X50754Y317184D02*
D03*
X270800Y115981D02*
D03*
X341700Y115736D02*
D03*
X56400Y115950D02*
D03*
X132210Y112940D02*
D03*
X200000Y115918D02*
D03*
X139300Y171800D02*
D03*
X157800Y276400D02*
D03*
X39692Y61565D02*
D03*
X50377Y5777D02*
D03*
X70555Y5692D02*
D03*
X60566Y22605D02*
D03*
X35526Y55805D02*
D03*
X43836Y55981D02*
D03*
X130495Y5847D02*
D03*
X110468Y5715D02*
D03*
X8858Y29668D02*
D03*
X11372Y157379D02*
D03*
X37446Y372247D02*
D03*
X150964Y9930D02*
D03*
X112420Y62374D02*
D03*
X108426Y55053D02*
D03*
X117657Y54706D02*
D03*
X170150Y6160D02*
D03*
X252670Y28643D02*
D03*
X179084Y54190D02*
D03*
X160891Y40142D02*
D03*
X219623Y28603D02*
D03*
X240845Y6103D02*
D03*
X230435Y28657D02*
D03*
X260913Y15654D02*
D03*
X280271Y5726D02*
D03*
X299927Y6076D02*
D03*
X254453Y61393D02*
D03*
X183424Y61619D02*
D03*
X327523Y61662D02*
D03*
X331389Y53303D02*
D03*
X323139Y53657D02*
D03*
X339757Y5985D02*
D03*
X359529Y6355D02*
D03*
X349828Y21906D02*
D03*
X370489Y22202D02*
D03*
X310196Y22185D02*
D03*
X290111Y21355D02*
D03*
X269120Y21657D02*
D03*
X241488Y28307D02*
D03*
X372680Y81010D02*
D03*
X370792Y7082D02*
D03*
X399478Y38037D02*
D03*
X384221Y87048D02*
D03*
X397394Y172278D02*
D03*
X382061Y129979D02*
D03*
X373490Y130196D02*
D03*
X381653Y171962D02*
D03*
X382038Y186642D02*
D03*
X395009Y186142D02*
D03*
X315994Y138083D02*
D03*
X350548Y154107D02*
D03*
X331480Y137549D02*
D03*
X373466Y158961D02*
D03*
X365169Y171530D02*
D03*
X335310Y171183D02*
D03*
X325175Y166314D02*
D03*
X303674Y174981D02*
D03*
X313213Y188194D02*
D03*
X282284Y185943D02*
D03*
X285246Y178240D02*
D03*
X275885Y175929D02*
D03*
X185617Y194123D02*
D03*
X176676Y198274D02*
D03*
X198913Y207323D02*
D03*
X192289Y200843D02*
D03*
X176771Y206649D02*
D03*
X182388Y201767D02*
D03*
X183517Y207635D02*
D03*
X200122Y220350D02*
D03*
X208783Y229637D02*
D03*
X216614Y226868D02*
D03*
X185658Y230622D02*
D03*
X193381Y232818D02*
D03*
X159254Y222307D02*
D03*
X167786Y222497D02*
D03*
X177810Y222438D02*
D03*
X158251Y240129D02*
D03*
X167856Y235327D02*
D03*
X177752Y234739D02*
D03*
X151404Y259408D02*
D03*
X145277Y264527D02*
D03*
X123348Y248602D02*
D03*
X123081Y264622D02*
D03*
X128565Y284560D02*
D03*
X118728Y299991D02*
D03*
X126444Y306505D02*
D03*
X106391Y307054D02*
D03*
X93129Y127882D02*
D03*
X66292Y137190D02*
D03*
X113353Y145659D02*
D03*
X10794Y273632D02*
D03*
X28513Y286984D02*
D03*
X82443Y306609D02*
D03*
X62907Y315799D02*
D03*
X23016Y318350D02*
D03*
X10639Y365683D02*
D03*
X28725Y347824D02*
D03*
X140048Y311667D02*
D03*
X227753Y285707D02*
D03*
X202538Y285835D02*
D03*
X220128Y278402D02*
D03*
X286389Y254611D02*
D03*
X330744Y242692D02*
D03*
X278972Y222051D02*
D03*
X317058Y218664D02*
D03*
X314896Y207496D02*
D03*
X357794Y242925D02*
D03*
X353810Y202096D02*
D03*
X356310Y213991D02*
D03*
X372414Y202138D02*
D03*
Y215249D02*
D03*
X369953Y231417D02*
D03*
X382821Y223782D02*
D03*
X400148Y347681D02*
D03*
X10406Y337082D02*
D03*
X33265Y395808D02*
D03*
X58005Y396837D02*
D03*
X77309Y396371D02*
D03*
X97716Y396711D02*
D03*
X138000Y396913D02*
D03*
X117888Y396597D02*
D03*
X178153Y396878D02*
D03*
X157796Y397159D02*
D03*
X198386Y396663D02*
D03*
X218005D02*
D03*
X239047Y396612D02*
D03*
X239166Y372451D02*
D03*
X258945Y381657D02*
D03*
X256208Y363743D02*
D03*
X274868Y362126D02*
D03*
X273126Y381781D02*
D03*
X294539Y361509D02*
D03*
X300156Y345766D02*
D03*
X275575Y339972D02*
D03*
X301882Y328555D02*
D03*
X277495Y312461D02*
D03*
X300661Y314347D02*
D03*
X314349Y311901D02*
D03*
X335301Y327634D02*
D03*
X318942Y298842D02*
D03*
X345922Y298811D02*
D03*
X336911Y311878D02*
D03*
X359379Y320202D02*
D03*
X358662Y305446D02*
D03*
X392628Y318137D02*
D03*
X394714Y238727D02*
D03*
X388141Y192562D02*
D03*
X32110Y172818D02*
D03*
X12181Y138641D02*
D03*
X38792Y138832D02*
D03*
X59469Y137556D02*
D03*
X54938Y158616D02*
D03*
X32476Y157379D02*
D03*
X48920Y174188D02*
D03*
X33481Y126592D02*
D03*
X24254Y130337D02*
D03*
X182363Y190111D02*
D03*
X166955Y198431D02*
D03*
X177746Y212755D02*
D03*
X192120Y212978D02*
D03*
X183631D02*
D03*
X183482Y222673D02*
D03*
X177752Y245434D02*
D03*
X348255Y54812D02*
D03*
X215643Y280356D02*
D03*
X129389Y160594D02*
D03*
X120955Y163981D02*
D03*
X124527Y161411D02*
D03*
X40168Y284921D02*
D03*
X345376Y207334D02*
D03*
G54D126*
X0Y0D02*
X410000D01*
Y405000D01*
X0D02*
X410000D01*
X0Y0D02*
Y405000D01*
G54D127*
X311500Y338400D02*
D03*
X324900D02*
D03*
Y285400D02*
D03*
X311500D02*
D03*
X358500D02*
D03*
X345100D02*
D03*
M02*
