G04 Layer_Color=8421504*
%FSLAX25Y25*%
%MOIN*%
G70*
G01*
G75*
%ADD28R,0.05905X0.04528*%
%ADD130C,0.05000*%
%ADD156R,0.01201X0.01024*%
%ADD157R,0.02359X0.01181*%
%ADD158O,0.05509X0.01965*%
G04:AMPARAMS|DCode=159|XSize=20mil|YSize=22mil|CornerRadius=3.4mil|HoleSize=0mil|Usage=FLASHONLY|Rotation=0.000|XOffset=0mil|YOffset=0mil|HoleType=Round|Shape=RoundedRectangle|*
%AMROUNDEDRECTD159*
21,1,0.02000,0.01520,0,0,0.0*
21,1,0.01320,0.02200,0,0,0.0*
1,1,0.00680,0.00660,-0.00760*
1,1,0.00680,-0.00660,-0.00760*
1,1,0.00680,-0.00660,0.00760*
1,1,0.00680,0.00660,0.00760*
%
%ADD159ROUNDEDRECTD159*%
%ADD160R,0.02950X0.01965*%
G04:AMPARAMS|DCode=161|XSize=20mil|YSize=22mil|CornerRadius=3.4mil|HoleSize=0mil|Usage=FLASHONLY|Rotation=270.000|XOffset=0mil|YOffset=0mil|HoleType=Round|Shape=RoundedRectangle|*
%AMROUNDEDRECTD161*
21,1,0.02000,0.01520,0,0,270.0*
21,1,0.01320,0.02200,0,0,270.0*
1,1,0.00680,-0.00760,-0.00660*
1,1,0.00680,-0.00760,0.00660*
1,1,0.00680,0.00760,0.00660*
1,1,0.00680,0.00760,-0.00660*
%
%ADD161ROUNDEDRECTD161*%
G04:AMPARAMS|DCode=162|XSize=27.13mil|YSize=37.37mil|CornerRadius=4.83mil|HoleSize=0mil|Usage=FLASHONLY|Rotation=0.000|XOffset=0mil|YOffset=0mil|HoleType=Round|Shape=RoundedRectangle|*
%AMROUNDEDRECTD162*
21,1,0.02713,0.02772,0,0,0.0*
21,1,0.01748,0.03737,0,0,0.0*
1,1,0.00965,0.00874,-0.01386*
1,1,0.00965,-0.00874,-0.01386*
1,1,0.00965,-0.00874,0.01386*
1,1,0.00965,0.00874,0.01386*
%
%ADD162ROUNDEDRECTD162*%
%ADD163R,0.03265X0.02438*%
%ADD164R,0.02438X0.03265*%
%ADD165R,0.01800X0.02600*%
%ADD166O,0.01178X0.06493*%
%ADD167R,0.20351X0.12005*%
%ADD168R,0.05312X0.13186*%
%ADD169R,0.12792X0.03343*%
%ADD170R,0.07871X0.07871*%
%ADD171O,0.02950X0.00902*%
%ADD172O,0.00902X0.02950*%
%ADD173R,0.06493X0.05312*%
%ADD174R,0.04328X0.05706*%
%ADD175R,0.05706X0.02950*%
%ADD176R,0.02200X0.02200*%
%ADD177R,0.03343X0.01375*%
%ADD178R,0.03737X0.03343*%
%ADD179R,0.03400X0.03000*%
%ADD180R,0.02200X0.02200*%
%ADD181R,0.02162X0.03146*%
%ADD182R,0.03146X0.02162*%
%ADD183R,0.04131X0.06493*%
G04:AMPARAMS|DCode=184|XSize=50mil|YSize=58mil|CornerRadius=12mil|HoleSize=0mil|Usage=FLASHONLY|Rotation=270.000|XOffset=0mil|YOffset=0mil|HoleType=Round|Shape=RoundedRectangle|*
%AMROUNDEDRECTD184*
21,1,0.05000,0.03400,0,0,270.0*
21,1,0.02600,0.05800,0,0,270.0*
1,1,0.02400,-0.01700,-0.01300*
1,1,0.02400,-0.01700,0.01300*
1,1,0.02400,0.01700,0.01300*
1,1,0.02400,0.01700,-0.01300*
%
%ADD184ROUNDEDRECTD184*%
%ADD185R,0.12400X0.06100*%
%ADD186R,0.06100X0.12400*%
%ADD187R,0.02600X0.05400*%
%ADD188R,0.19500X0.16800*%
G04:AMPARAMS|DCode=189|XSize=27.13mil|YSize=37.37mil|CornerRadius=4.83mil|HoleSize=0mil|Usage=FLASHONLY|Rotation=90.000|XOffset=0mil|YOffset=0mil|HoleType=Round|Shape=RoundedRectangle|*
%AMROUNDEDRECTD189*
21,1,0.02713,0.02772,0,0,90.0*
21,1,0.01748,0.03737,0,0,90.0*
1,1,0.00965,0.01386,0.00874*
1,1,0.00965,0.01386,-0.00874*
1,1,0.00965,-0.01386,-0.00874*
1,1,0.00965,-0.01386,0.00874*
%
%ADD189ROUNDEDRECTD189*%
%ADD190O,0.08855X0.02162*%
%ADD191O,0.06887X0.00981*%
%ADD192O,0.00981X0.06887*%
G04:AMPARAMS|DCode=193|XSize=50mil|YSize=58mil|CornerRadius=12mil|HoleSize=0mil|Usage=FLASHONLY|Rotation=180.000|XOffset=0mil|YOffset=0mil|HoleType=Round|Shape=RoundedRectangle|*
%AMROUNDEDRECTD193*
21,1,0.05000,0.03400,0,0,180.0*
21,1,0.02600,0.05800,0,0,180.0*
1,1,0.02400,-0.01300,0.01700*
1,1,0.02400,0.01300,0.01700*
1,1,0.02400,0.01300,-0.01700*
1,1,0.02400,-0.01300,-0.01700*
%
%ADD193ROUNDEDRECTD193*%
%ADD194R,0.03816X0.00981*%
G04:AMPARAMS|DCode=195|XSize=103mil|YSize=103mil|CornerRadius=25.25mil|HoleSize=0mil|Usage=FLASHONLY|Rotation=0.000|XOffset=0mil|YOffset=0mil|HoleType=Round|Shape=RoundedRectangle|*
%AMROUNDEDRECTD195*
21,1,0.10300,0.05250,0,0,0.0*
21,1,0.05250,0.10300,0,0,0.0*
1,1,0.05050,0.02625,-0.02625*
1,1,0.05050,-0.02625,-0.02625*
1,1,0.05050,-0.02625,0.02625*
1,1,0.05050,0.02625,0.02625*
%
%ADD195ROUNDEDRECTD195*%
%ADD196R,0.00902X0.01375*%
%ADD197R,0.16532X0.04446*%
%ADD198R,0.03343X0.12792*%
%ADD199R,0.02753X0.10824*%
%ADD200O,0.05706X0.02162*%
%ADD201R,0.06493X0.04131*%
%ADD202R,0.02600X0.01800*%
%ADD203R,0.00984X0.01378*%
%ADD204R,0.01378X0.00984*%
%ADD205R,0.05312X0.04918*%
%ADD206R,0.04918X0.05312*%
%ADD207R,0.04524X0.03343*%
%ADD208R,0.04600X0.04600*%
%ADD209R,0.04600X0.04600*%
%ADD210R,0.07700X0.07700*%
%ADD211R,0.07700X0.07700*%
G36*
X136313Y336435D02*
Y335923D01*
X134187D01*
Y336435D01*
X134541Y336789D01*
X135958D01*
X136313Y336435D01*
D02*
G37*
G36*
X140100D02*
Y335923D01*
X138000D01*
Y336435D01*
X138400Y336789D01*
X139800D01*
X140100Y336435D01*
D02*
G37*
G36*
X132572Y336395D02*
Y335923D01*
X131155D01*
Y336828D01*
X132139D01*
X132572Y336395D01*
D02*
G37*
G36*
X100000Y336435D02*
Y335923D01*
X97900D01*
Y336435D01*
X98300Y336789D01*
X99700D01*
X100000Y336435D01*
D02*
G37*
G36*
X103000Y335923D02*
X101700D01*
Y336395D01*
X102100Y336828D01*
X103000D01*
Y335923D01*
D02*
G37*
G36*
X218083Y342003D02*
X217728Y341703D01*
X216232D01*
X215839Y342103D01*
Y344502D01*
X218083D01*
Y342003D01*
D02*
G37*
G36*
X221862D02*
X221508Y341703D01*
X220012D01*
X219618Y342103D01*
Y344502D01*
X221862D01*
Y342003D01*
D02*
G37*
G36*
X232350Y339302D02*
X231350D01*
Y344502D01*
X232350D01*
Y339302D01*
D02*
G37*
G36*
X143100Y335923D02*
X141800D01*
Y336395D01*
X142200Y336828D01*
X143100D01*
Y335923D01*
D02*
G37*
G36*
X214146Y339302D02*
X213043D01*
Y344502D01*
X214146D01*
Y339302D01*
D02*
G37*
G36*
X228650Y327923D02*
X227350D01*
Y328395D01*
X227750Y328829D01*
X228650D01*
Y327923D01*
D02*
G37*
G36*
X52622Y336395D02*
Y335923D01*
X51205D01*
Y336828D01*
X52189D01*
X52622Y336395D01*
D02*
G37*
G36*
X225650Y328435D02*
Y327923D01*
X223550D01*
Y328435D01*
X223950Y328789D01*
X225350D01*
X225650Y328435D01*
D02*
G37*
G36*
X218122Y328395D02*
Y327923D01*
X216705D01*
Y328829D01*
X217689D01*
X218122Y328395D01*
D02*
G37*
G36*
X221862Y328435D02*
Y327923D01*
X219736D01*
Y328435D01*
X220091Y328789D01*
X221508D01*
X221862Y328435D01*
D02*
G37*
G36*
X92472Y336395D02*
Y335923D01*
X91055D01*
Y336828D01*
X92039D01*
X92472Y336395D01*
D02*
G37*
G36*
X96213Y336435D02*
Y335923D01*
X94087D01*
Y336435D01*
X94441Y336789D01*
X95858D01*
X96213Y336435D01*
D02*
G37*
G36*
X63150Y335923D02*
X61850D01*
Y336395D01*
X62250Y336828D01*
X63150D01*
Y335923D01*
D02*
G37*
G36*
X56362Y336435D02*
Y335923D01*
X54236D01*
Y336435D01*
X54590Y336789D01*
X56008D01*
X56362Y336435D01*
D02*
G37*
G36*
X60150D02*
Y335923D01*
X58050D01*
Y336435D01*
X58450Y336789D01*
X59850D01*
X60150Y336435D01*
D02*
G37*
G36*
X96213Y350003D02*
X95858Y349703D01*
X94362D01*
X93968Y350102D01*
Y352502D01*
X96213D01*
Y350003D01*
D02*
G37*
G36*
X100000Y350102D02*
X99600Y349703D01*
X98200D01*
X97800Y350102D01*
Y352502D01*
X100000D01*
Y350102D01*
D02*
G37*
G36*
X92433Y350003D02*
X92079Y349703D01*
X90583D01*
X90189Y350102D01*
Y352502D01*
X92433D01*
Y350003D01*
D02*
G37*
G36*
X60150Y350102D02*
X59750Y349703D01*
X58350D01*
X57950Y350102D01*
Y352502D01*
X60150D01*
Y350102D01*
D02*
G37*
G36*
X63850D02*
X63550Y349703D01*
X62050D01*
X61650Y350102D01*
Y352502D01*
X63850D01*
Y350102D01*
D02*
G37*
G36*
X140100D02*
X139700Y349703D01*
X138300D01*
X137900Y350102D01*
Y352502D01*
X140100D01*
Y350102D01*
D02*
G37*
G36*
X143800D02*
X143500Y349703D01*
X142000D01*
X141600Y350102D01*
Y352502D01*
X143800D01*
Y350102D01*
D02*
G37*
G36*
X136313Y350003D02*
X135958Y349703D01*
X134462D01*
X134069Y350102D01*
Y352502D01*
X136313D01*
Y350003D01*
D02*
G37*
G36*
X103700Y350102D02*
X103400Y349703D01*
X101900D01*
X101500Y350102D01*
Y352502D01*
X103700D01*
Y350102D01*
D02*
G37*
G36*
X132533Y350003D02*
X132179Y349703D01*
X130683D01*
X130289Y350102D01*
Y352502D01*
X132533D01*
Y350003D01*
D02*
G37*
G36*
X66850Y347303D02*
X65850D01*
Y352502D01*
X66850D01*
Y347303D01*
D02*
G37*
G36*
X88496D02*
X87394D01*
Y352502D01*
X88496D01*
Y347303D01*
D02*
G37*
G36*
X48646D02*
X47543D01*
Y352502D01*
X48646D01*
Y347303D01*
D02*
G37*
G36*
X225650Y342103D02*
X225250Y341703D01*
X223850D01*
X223450Y342103D01*
Y344502D01*
X225650D01*
Y342103D01*
D02*
G37*
G36*
X229350D02*
X229050Y341703D01*
X227550D01*
X227150Y342103D01*
Y344502D01*
X229350D01*
Y342103D01*
D02*
G37*
G36*
X52583Y350003D02*
X52228Y349703D01*
X50732D01*
X50339Y350102D01*
Y352502D01*
X52583D01*
Y350003D01*
D02*
G37*
G36*
X56362D02*
X56008Y349703D01*
X54512D01*
X54118Y350102D01*
Y352502D01*
X56362D01*
Y350003D01*
D02*
G37*
G36*
X146800Y347303D02*
X145800D01*
Y352502D01*
X146800D01*
Y347303D01*
D02*
G37*
G36*
X106700D02*
X105700D01*
Y352502D01*
X106700D01*
Y347303D01*
D02*
G37*
G36*
X128596D02*
X127494D01*
Y352502D01*
X128596D01*
Y347303D01*
D02*
G37*
G54D28*
X44146Y185486D02*
D03*
G54D130*
X398937Y5551D02*
D03*
X391063D02*
D03*
X385551Y11063D02*
D03*
Y18937D02*
D03*
X391063Y24449D02*
D03*
X398937D02*
D03*
X404449Y18937D02*
D03*
Y11063D02*
D03*
X18937Y5551D02*
D03*
X11063D02*
D03*
X5551Y11063D02*
D03*
Y18937D02*
D03*
X11063Y24449D02*
D03*
X18937D02*
D03*
X24449Y18937D02*
D03*
Y11063D02*
D03*
X18937Y380551D02*
D03*
X11063D02*
D03*
X5551Y386063D02*
D03*
Y393937D02*
D03*
X11063Y399449D02*
D03*
X18937D02*
D03*
X24449Y393937D02*
D03*
Y386063D02*
D03*
X398937Y380551D02*
D03*
X391063D02*
D03*
X385551Y386063D02*
D03*
Y393937D02*
D03*
X391063Y399449D02*
D03*
X398937D02*
D03*
X404449Y393937D02*
D03*
Y386063D02*
D03*
G54D156*
X46627Y262249D02*
D03*
X46627Y260281D02*
D03*
Y258313D02*
D03*
X43971Y258313D02*
D03*
Y260281D02*
D03*
X43971Y262249D02*
D03*
G54D157*
X253085Y291060D02*
D03*
X255844D02*
D03*
G54D158*
X48342Y287361D02*
D03*
Y292361D02*
D03*
X22555Y287361D02*
D03*
Y292361D02*
D03*
G54D159*
X36366Y281414D02*
D03*
X40156D02*
D03*
X59104Y284264D02*
D03*
X55314D02*
D03*
X85394Y174096D02*
D03*
X89184D02*
D03*
X93277Y174063D02*
D03*
X97067D02*
D03*
X110241Y174543D02*
D03*
X114031D02*
D03*
X120768Y199430D02*
D03*
X116978D02*
D03*
X109100Y199600D02*
D03*
X112890D02*
D03*
X105043Y199522D02*
D03*
X101254D02*
D03*
X93445Y199635D02*
D03*
X97234D02*
D03*
X93894Y203953D02*
D03*
X90104D02*
D03*
X89399Y199609D02*
D03*
X85609D02*
D03*
X90118Y229147D02*
D03*
X93908D02*
D03*
X101715Y229059D02*
D03*
X97925D02*
D03*
X109557Y229061D02*
D03*
X105767D02*
D03*
X121848Y229154D02*
D03*
X125638D02*
D03*
X171048Y167013D02*
D03*
X167258D02*
D03*
X195304Y309607D02*
D03*
X191534D02*
D03*
X235535Y240831D02*
D03*
X239325D02*
D03*
X292702Y209754D02*
D03*
X288932D02*
D03*
X305400Y209648D02*
D03*
X301630D02*
D03*
X330946Y209590D02*
D03*
X327176D02*
D03*
X339152Y213216D02*
D03*
X342941D02*
D03*
X342929Y209074D02*
D03*
X339159D02*
D03*
X339130Y201048D02*
D03*
X342919D02*
D03*
X317310Y164769D02*
D03*
X313520D02*
D03*
X305674Y156954D02*
D03*
X309464D02*
D03*
X298329Y166199D02*
D03*
X294539D02*
D03*
X286738Y158388D02*
D03*
X290527D02*
D03*
X266900Y160000D02*
D03*
X270690D02*
D03*
X354490Y76400D02*
D03*
X350700D02*
D03*
X341700Y112900D02*
D03*
X337930D02*
D03*
X309922Y78000D02*
D03*
X313712D02*
D03*
X301800Y79900D02*
D03*
X305570D02*
D03*
X270800Y112900D02*
D03*
X267030D02*
D03*
X286390Y74700D02*
D03*
X282600D02*
D03*
X289800Y49800D02*
D03*
X293570D02*
D03*
X313500Y28700D02*
D03*
X309730D02*
D03*
X266700Y28800D02*
D03*
X270470D02*
D03*
X234690Y80400D02*
D03*
X230900D02*
D03*
X242800Y77900D02*
D03*
X239030D02*
D03*
X229000Y70600D02*
D03*
X232770D02*
D03*
X211400Y72200D02*
D03*
X207630D02*
D03*
X157100Y70400D02*
D03*
X160870D02*
D03*
X205300Y40100D02*
D03*
X201530D02*
D03*
X203400Y28700D02*
D03*
X199630D02*
D03*
X156700D02*
D03*
X160470D02*
D03*
X129000Y112900D02*
D03*
X125230D02*
D03*
X135800Y87000D02*
D03*
X139570D02*
D03*
X139590Y82900D02*
D03*
X135800D02*
D03*
X149890D02*
D03*
X146100D02*
D03*
Y78800D02*
D03*
X149870D02*
D03*
X139590D02*
D03*
X135800D02*
D03*
X133900Y37700D02*
D03*
X130130D02*
D03*
X143864Y28775D02*
D03*
X140094D02*
D03*
X16890Y78100D02*
D03*
X13100D02*
D03*
X65790Y81100D02*
D03*
X62000D02*
D03*
X65790Y85200D02*
D03*
X62000D02*
D03*
X73590D02*
D03*
X69800D02*
D03*
X62000Y89300D02*
D03*
X65770D02*
D03*
X97200Y28800D02*
D03*
X100970D02*
D03*
X87600Y70300D02*
D03*
X91370D02*
D03*
X72970Y76300D02*
D03*
X69200D02*
D03*
X56400Y112900D02*
D03*
X52630D02*
D03*
X13100Y82200D02*
D03*
X16870D02*
D03*
X69800Y81100D02*
D03*
X73570D02*
D03*
X37130Y28600D02*
D03*
X40900D02*
D03*
X180170Y277162D02*
D03*
X183959D02*
D03*
X191771Y277254D02*
D03*
X187981D02*
D03*
X258871Y213554D02*
D03*
X262661D02*
D03*
X209509Y292547D02*
D03*
X213279D02*
D03*
X164220Y326300D02*
D03*
X160450D02*
D03*
X120335Y326575D02*
D03*
X124105D02*
D03*
X83947Y326476D02*
D03*
X80177D02*
D03*
X219470Y78300D02*
D03*
X215700D02*
D03*
X16277Y198481D02*
D03*
X20046D02*
D03*
X265270Y348400D02*
D03*
X261500D02*
D03*
X8527Y198505D02*
D03*
X12317D02*
D03*
Y202505D02*
D03*
X8547D02*
D03*
X215700Y82342D02*
D03*
X219490D02*
D03*
X219470Y74500D02*
D03*
X215700D02*
D03*
X200000Y112900D02*
D03*
X196230D02*
D03*
X171942Y77700D02*
D03*
X168172D02*
D03*
X204670Y340000D02*
D03*
X200900D02*
D03*
X67724Y308687D02*
D03*
X71494D02*
D03*
X292707Y201515D02*
D03*
X288917D02*
D03*
X305387Y201360D02*
D03*
X301597D02*
D03*
X330904Y201046D02*
D03*
X327114D02*
D03*
X49700Y320600D02*
D03*
X53490D02*
D03*
X260073Y200603D02*
D03*
X263863D02*
D03*
X276216Y213760D02*
D03*
X272426D02*
D03*
X272405Y201181D02*
D03*
X276195D02*
D03*
X256565Y270965D02*
D03*
X260354D02*
D03*
X207710Y311600D02*
D03*
X211500D02*
D03*
X253150Y297539D02*
D03*
X249379D02*
D03*
X161600Y262800D02*
D03*
X157830D02*
D03*
X138970Y200100D02*
D03*
X135200D02*
D03*
X198700Y263200D02*
D03*
X202470D02*
D03*
X137070Y196000D02*
D03*
X133300D02*
D03*
X260365Y284760D02*
D03*
X256595D02*
D03*
X67970Y276600D02*
D03*
X64200D02*
D03*
X136600Y241600D02*
D03*
X140370D02*
D03*
X119500Y253500D02*
D03*
X123290D02*
D03*
X123390Y259000D02*
D03*
X119600D02*
D03*
X64100Y261700D02*
D03*
X67890D02*
D03*
X67890Y257300D02*
D03*
X64100D02*
D03*
X311962Y372543D02*
D03*
X315732D02*
D03*
X58133Y307690D02*
D03*
X54343D02*
D03*
X304331Y383343D02*
D03*
X308121D02*
D03*
X258869Y209476D02*
D03*
X262639D02*
D03*
X276213Y209716D02*
D03*
X272443D02*
D03*
X64417Y216585D02*
D03*
X60628D02*
D03*
X68203Y327092D02*
D03*
X71993D02*
D03*
X112631Y328556D02*
D03*
X108841D02*
D03*
X260365Y280460D02*
D03*
X256595D02*
D03*
X58105Y303700D02*
D03*
X54316D02*
D03*
X54314Y299594D02*
D03*
X58104D02*
D03*
X330942Y213822D02*
D03*
X327152D02*
D03*
X305412Y213828D02*
D03*
X301623D02*
D03*
X296430Y288000D02*
D03*
X300200D02*
D03*
X391611Y130752D02*
D03*
X395381D02*
D03*
X111446Y161053D02*
D03*
X115236D02*
D03*
X227168Y271784D02*
D03*
X230958D02*
D03*
X278600Y167900D02*
D03*
X274810D02*
D03*
X292720Y213888D02*
D03*
X288930D02*
D03*
X399921Y358666D02*
D03*
X396151D02*
D03*
X396161Y354666D02*
D03*
X399951D02*
D03*
X389300Y32800D02*
D03*
X385510D02*
D03*
X394468Y370063D02*
D03*
X398258D02*
D03*
X8410Y331100D02*
D03*
X12200D02*
D03*
X229995Y153946D02*
D03*
X233785D02*
D03*
X230024Y165399D02*
D03*
X233814D02*
D03*
X230015Y161426D02*
D03*
X233805D02*
D03*
X345178Y160031D02*
D03*
X348968D02*
D03*
X353040Y160038D02*
D03*
X356829D02*
D03*
X365930Y160042D02*
D03*
X362160D02*
D03*
X79672Y171453D02*
D03*
X75902D02*
D03*
X79706Y166277D02*
D03*
X75916D02*
D03*
X110907Y203968D02*
D03*
X107117D02*
D03*
X120800Y203800D02*
D03*
X117010D02*
D03*
G54D160*
X27961Y279774D02*
D03*
Y275837D02*
D03*
X35048Y277805D02*
D03*
G54D161*
X22567Y283469D02*
D03*
Y279679D02*
D03*
X128980Y220091D02*
D03*
Y223881D02*
D03*
X78689Y129320D02*
D03*
Y133090D02*
D03*
X209956Y165872D02*
D03*
Y162083D02*
D03*
X182155Y266868D02*
D03*
Y263078D02*
D03*
X187875Y267887D02*
D03*
Y264097D02*
D03*
X341131Y163813D02*
D03*
Y160043D02*
D03*
X313609Y156962D02*
D03*
Y160752D02*
D03*
X301649Y160758D02*
D03*
Y156988D02*
D03*
X282700Y162200D02*
D03*
Y158430D02*
D03*
X274900Y160000D02*
D03*
Y163790D02*
D03*
X303200Y90100D02*
D03*
Y86330D02*
D03*
X362600Y80090D02*
D03*
Y76300D02*
D03*
X358500D02*
D03*
Y80070D02*
D03*
X354400Y80400D02*
D03*
Y84170D02*
D03*
X350300Y84190D02*
D03*
Y80400D02*
D03*
X326373Y112882D02*
D03*
Y116672D02*
D03*
X377300Y68530D02*
D03*
Y72300D02*
D03*
Y47530D02*
D03*
Y51300D02*
D03*
X359500Y45900D02*
D03*
Y42130D02*
D03*
X369500Y46000D02*
D03*
Y42230D02*
D03*
Y32500D02*
D03*
Y28730D02*
D03*
X359500Y32400D02*
D03*
Y28630D02*
D03*
X349500Y32400D02*
D03*
Y28630D02*
D03*
X345100Y44700D02*
D03*
Y40930D02*
D03*
X339500Y32400D02*
D03*
Y28630D02*
D03*
X329500Y28700D02*
D03*
Y32470D02*
D03*
X286800Y82500D02*
D03*
Y78730D02*
D03*
X282600Y82490D02*
D03*
Y78700D02*
D03*
X278500Y86290D02*
D03*
Y82500D02*
D03*
X255486Y113797D02*
D03*
Y117587D02*
D03*
X278600Y78500D02*
D03*
Y74730D02*
D03*
X293400Y63400D02*
D03*
Y59630D02*
D03*
X300000Y32600D02*
D03*
Y28830D02*
D03*
X290000Y32600D02*
D03*
Y28830D02*
D03*
X279900Y32800D02*
D03*
Y36570D02*
D03*
X232400Y89600D02*
D03*
Y85830D02*
D03*
X161500Y90300D02*
D03*
Y86530D02*
D03*
X190000Y32500D02*
D03*
Y28730D02*
D03*
X180000Y32600D02*
D03*
Y28830D02*
D03*
X169900Y33100D02*
D03*
Y36870D02*
D03*
X90300Y91770D02*
D03*
Y88000D02*
D03*
Y84000D02*
D03*
Y80230D02*
D03*
X147500Y58600D02*
D03*
Y54830D02*
D03*
X130500Y28800D02*
D03*
Y32570D02*
D03*
X120400Y32600D02*
D03*
Y28830D02*
D03*
X110400Y31900D02*
D03*
Y35670D02*
D03*
X41167Y117266D02*
D03*
Y121055D02*
D03*
X86200Y80210D02*
D03*
Y84000D02*
D03*
X114816Y116608D02*
D03*
Y120397D02*
D03*
X61600Y54400D02*
D03*
Y50630D02*
D03*
X50500Y31430D02*
D03*
Y35200D02*
D03*
X30400Y25900D02*
D03*
Y29670D02*
D03*
X17600Y91700D02*
D03*
Y87930D02*
D03*
X70300Y32470D02*
D03*
Y28700D02*
D03*
X80100Y32500D02*
D03*
Y28730D02*
D03*
X60200Y32570D02*
D03*
Y28800D02*
D03*
X233201Y276237D02*
D03*
Y280007D02*
D03*
X56566Y216495D02*
D03*
Y220265D02*
D03*
X56560Y228075D02*
D03*
Y224305D02*
D03*
X176300Y262700D02*
D03*
Y266490D02*
D03*
X202452Y295355D02*
D03*
Y291565D02*
D03*
X281400Y144200D02*
D03*
Y140410D02*
D03*
X151240Y167092D02*
D03*
Y170861D02*
D03*
X244390Y297854D02*
D03*
Y294065D02*
D03*
X234100Y315700D02*
D03*
Y311910D02*
D03*
X149900Y338990D02*
D03*
Y335200D02*
D03*
X109902Y335206D02*
D03*
Y338996D02*
D03*
X201400Y344400D02*
D03*
Y348190D02*
D03*
X205700Y84990D02*
D03*
Y81200D02*
D03*
X70691Y203451D02*
D03*
Y199661D02*
D03*
X122736Y285980D02*
D03*
Y282210D02*
D03*
X72235Y214793D02*
D03*
Y218563D02*
D03*
X209700Y81200D02*
D03*
Y84990D02*
D03*
X157300Y81900D02*
D03*
Y85690D02*
D03*
X182500Y340110D02*
D03*
Y343900D02*
D03*
X182400Y347900D02*
D03*
Y351690D02*
D03*
X150000Y327610D02*
D03*
Y331400D02*
D03*
X239862Y294065D02*
D03*
Y297854D02*
D03*
X53600Y316400D02*
D03*
Y312610D02*
D03*
X72100Y320490D02*
D03*
Y316700D02*
D03*
X137282Y167515D02*
D03*
Y171285D02*
D03*
X206500Y263130D02*
D03*
Y266900D02*
D03*
X236600Y200100D02*
D03*
Y203870D02*
D03*
X216400Y166170D02*
D03*
Y162400D02*
D03*
X139900Y230000D02*
D03*
Y233770D02*
D03*
X222800Y162600D02*
D03*
Y166370D02*
D03*
X236708Y211100D02*
D03*
Y214870D02*
D03*
X140000Y223900D02*
D03*
Y220130D02*
D03*
X140509Y208765D02*
D03*
Y204995D02*
D03*
X118600Y285970D02*
D03*
Y282200D02*
D03*
X68000Y282700D02*
D03*
Y286470D02*
D03*
X130773Y231719D02*
D03*
Y227949D02*
D03*
X147132Y167097D02*
D03*
Y170867D02*
D03*
X140200Y245530D02*
D03*
Y249300D02*
D03*
X129500Y253400D02*
D03*
Y249610D02*
D03*
X133100Y220110D02*
D03*
Y223900D02*
D03*
X129500Y258900D02*
D03*
Y262690D02*
D03*
X136000Y249390D02*
D03*
Y245600D02*
D03*
X373800Y393000D02*
D03*
Y389230D02*
D03*
X307800Y375300D02*
D03*
Y379090D02*
D03*
X315332Y361410D02*
D03*
Y365199D02*
D03*
X309800Y365190D02*
D03*
Y361400D02*
D03*
X262800Y163130D02*
D03*
Y166900D02*
D03*
X69801Y338903D02*
D03*
Y335114D02*
D03*
X313700Y150370D02*
D03*
Y146600D02*
D03*
X54035Y193189D02*
D03*
Y196979D02*
D03*
X61811D02*
D03*
Y193189D02*
D03*
X61713Y203228D02*
D03*
Y207018D02*
D03*
X45866Y193179D02*
D03*
Y196968D02*
D03*
X33813Y196990D02*
D03*
Y193200D02*
D03*
X210506Y263101D02*
D03*
Y266891D02*
D03*
X33500Y8100D02*
D03*
Y11890D02*
D03*
X23400Y368410D02*
D03*
Y372200D02*
D03*
X294631Y158381D02*
D03*
Y162170D02*
D03*
X184823Y113614D02*
D03*
Y117403D02*
D03*
X356836Y168000D02*
D03*
Y164211D02*
D03*
X71366Y184379D02*
D03*
Y188149D02*
D03*
G54D162*
X13753Y193503D02*
D03*
X19107D02*
D03*
X343677Y76900D02*
D03*
X338323D02*
D03*
X300023Y74900D02*
D03*
X305377D02*
D03*
X271777Y76700D02*
D03*
X266423D02*
D03*
X229223Y75400D02*
D03*
X234577D02*
D03*
X139577Y73900D02*
D03*
X134223D02*
D03*
X57254Y76900D02*
D03*
X51900D02*
D03*
X87523Y75300D02*
D03*
X92877D02*
D03*
X14923Y73100D02*
D03*
X20277D02*
D03*
X108077Y243500D02*
D03*
X102723D02*
D03*
Y294100D02*
D03*
X108077D02*
D03*
X260723Y342900D02*
D03*
X266077D02*
D03*
X41323Y364700D02*
D03*
X46678D02*
D03*
X164523Y364700D02*
D03*
X169877D02*
D03*
X66877Y364700D02*
D03*
X61523D02*
D03*
X101822Y364700D02*
D03*
X107177D02*
D03*
X147177Y364699D02*
D03*
X141823D02*
D03*
X242178D02*
D03*
X236823D02*
D03*
X162889Y267755D02*
D03*
X157534D02*
D03*
X122471Y234948D02*
D03*
X117117D02*
D03*
X300977Y294000D02*
D03*
X295623D02*
D03*
X396158Y124952D02*
D03*
X390804D02*
D03*
X29327Y193513D02*
D03*
X23973D02*
D03*
X158423Y75300D02*
D03*
X163777D02*
D03*
X195763Y77000D02*
D03*
X201117D02*
D03*
X130823Y215200D02*
D03*
X136177D02*
D03*
X27123Y326700D02*
D03*
X32477D02*
D03*
X192477Y353800D02*
D03*
X187123D02*
D03*
X56777Y364700D02*
D03*
X51423D02*
D03*
X96977D02*
D03*
X91623D02*
D03*
X131723Y364700D02*
D03*
X137077D02*
D03*
X225277Y364699D02*
D03*
X219923D02*
D03*
G54D163*
X51946Y219633D02*
D03*
Y224869D02*
D03*
X132773Y167329D02*
D03*
Y172565D02*
D03*
X364500Y33836D02*
D03*
Y28600D02*
D03*
X354500Y33836D02*
D03*
Y28600D02*
D03*
X344500Y33836D02*
D03*
Y28600D02*
D03*
X334500Y33836D02*
D03*
Y28600D02*
D03*
X305000Y33818D02*
D03*
Y28582D02*
D03*
X295000Y33836D02*
D03*
Y28600D02*
D03*
X285000Y33818D02*
D03*
Y28582D02*
D03*
X275000Y33836D02*
D03*
Y28600D02*
D03*
X195000Y33836D02*
D03*
Y28600D02*
D03*
X185000Y33836D02*
D03*
Y28600D02*
D03*
X175000Y33818D02*
D03*
Y28582D02*
D03*
X165000Y33836D02*
D03*
Y28600D02*
D03*
X135500Y33836D02*
D03*
Y28600D02*
D03*
X125500Y33900D02*
D03*
Y28664D02*
D03*
X115300Y33900D02*
D03*
Y28664D02*
D03*
X105500Y33818D02*
D03*
Y28582D02*
D03*
X9987Y101048D02*
D03*
Y95812D02*
D03*
X65500Y33800D02*
D03*
Y28564D02*
D03*
X75300Y34318D02*
D03*
Y29082D02*
D03*
X55400Y34200D02*
D03*
Y28964D02*
D03*
X45500Y33818D02*
D03*
Y28582D02*
D03*
G54D164*
X162818Y273100D02*
D03*
X157582D02*
D03*
X97618Y115000D02*
D03*
X92382D02*
D03*
X135605Y273093D02*
D03*
X130369D02*
D03*
X309218Y118200D02*
D03*
X303982D02*
D03*
X241318Y119300D02*
D03*
X236082D02*
D03*
X168018Y116300D02*
D03*
X162782D02*
D03*
X112842Y234607D02*
D03*
X107606D02*
D03*
G54D165*
X309700Y160944D02*
D03*
Y166456D02*
D03*
X305500Y160944D02*
D03*
Y166456D02*
D03*
X290700Y162044D02*
D03*
Y167556D02*
D03*
X286500Y162144D02*
D03*
Y167656D02*
D03*
X266600Y169256D02*
D03*
Y163744D02*
D03*
X270900Y169156D02*
D03*
Y163644D02*
D03*
G54D166*
X308454Y84680D02*
D03*
X311013D02*
D03*
X313572D02*
D03*
X316131D02*
D03*
X318690D02*
D03*
X321249D02*
D03*
X323808D02*
D03*
X326367D02*
D03*
X328926D02*
D03*
X331485D02*
D03*
X334045D02*
D03*
X336603D02*
D03*
X339163D02*
D03*
X341722D02*
D03*
X308454Y107121D02*
D03*
X311013D02*
D03*
X313572D02*
D03*
X316131D02*
D03*
X318690D02*
D03*
X321249D02*
D03*
X323808D02*
D03*
X326367D02*
D03*
X328926D02*
D03*
X331485D02*
D03*
X334045D02*
D03*
X336603D02*
D03*
X339163D02*
D03*
X341722D02*
D03*
X237568Y84680D02*
D03*
X240127D02*
D03*
X242686D02*
D03*
X245245D02*
D03*
X247804D02*
D03*
X250363D02*
D03*
X252922D02*
D03*
X255481D02*
D03*
X258040D02*
D03*
X260599D02*
D03*
X263159D02*
D03*
X265718D02*
D03*
X268277D02*
D03*
X270836D02*
D03*
X237568Y107121D02*
D03*
X240127D02*
D03*
X242686D02*
D03*
X245245D02*
D03*
X247804D02*
D03*
X250363D02*
D03*
X252922D02*
D03*
X255481D02*
D03*
X258040D02*
D03*
X260599D02*
D03*
X263159D02*
D03*
X265718D02*
D03*
X268277D02*
D03*
X270836D02*
D03*
X95796Y84680D02*
D03*
X98355D02*
D03*
X100914D02*
D03*
X103473D02*
D03*
X106033D02*
D03*
X108592D02*
D03*
X111151D02*
D03*
X113710D02*
D03*
X116269D02*
D03*
X118828D02*
D03*
X121387D02*
D03*
X123946D02*
D03*
X126505D02*
D03*
X129064D02*
D03*
X95796Y107121D02*
D03*
X98355D02*
D03*
X100914D02*
D03*
X103473D02*
D03*
X106033D02*
D03*
X108592D02*
D03*
X111151D02*
D03*
X113710D02*
D03*
X116269D02*
D03*
X118828D02*
D03*
X121387D02*
D03*
X123946D02*
D03*
X126505D02*
D03*
X129064D02*
D03*
X23110Y84680D02*
D03*
X25670D02*
D03*
X28229D02*
D03*
X30788D02*
D03*
X33347D02*
D03*
X35906D02*
D03*
X38465D02*
D03*
X41024D02*
D03*
X43583D02*
D03*
X46142D02*
D03*
X48701D02*
D03*
X51260D02*
D03*
X53819D02*
D03*
X56378D02*
D03*
X23110Y107121D02*
D03*
X25670D02*
D03*
X28229D02*
D03*
X30788D02*
D03*
X33347D02*
D03*
X35906D02*
D03*
X38465D02*
D03*
X41024D02*
D03*
X43583D02*
D03*
X46142D02*
D03*
X48701D02*
D03*
X51260D02*
D03*
X53819D02*
D03*
X56378D02*
D03*
X166708Y84680D02*
D03*
X169267D02*
D03*
X171826D02*
D03*
X174385D02*
D03*
X176944D02*
D03*
X179503D02*
D03*
X182062D02*
D03*
X184622D02*
D03*
X187181D02*
D03*
X189740D02*
D03*
X192299D02*
D03*
X194858D02*
D03*
X197417D02*
D03*
X199976D02*
D03*
X166708Y107121D02*
D03*
X169267D02*
D03*
X171826D02*
D03*
X174385D02*
D03*
X176944D02*
D03*
X179503D02*
D03*
X182062D02*
D03*
X184622D02*
D03*
X187181D02*
D03*
X189740D02*
D03*
X192299D02*
D03*
X194858D02*
D03*
X197417D02*
D03*
X199976D02*
D03*
G54D167*
X325088Y95900D02*
D03*
X254202D02*
D03*
X112430D02*
D03*
X39744D02*
D03*
X183342D02*
D03*
G54D168*
X360000Y92364D02*
D03*
Y112836D02*
D03*
X289200Y92364D02*
D03*
Y112836D02*
D03*
X147500Y92364D02*
D03*
Y112836D02*
D03*
X77000Y94764D02*
D03*
Y115236D02*
D03*
X287900Y372464D02*
D03*
Y392936D02*
D03*
X279700Y296336D02*
D03*
Y275864D02*
D03*
X218600Y112736D02*
D03*
Y92264D02*
D03*
G54D169*
X336000Y67800D02*
D03*
Y44572D02*
D03*
X321300Y67800D02*
D03*
Y44572D02*
D03*
X261500Y68114D02*
D03*
Y44886D02*
D03*
X246500Y68014D02*
D03*
Y44786D02*
D03*
X119900Y68214D02*
D03*
Y44986D02*
D03*
X104800Y68200D02*
D03*
Y44972D02*
D03*
X47300Y68100D02*
D03*
Y44872D02*
D03*
X32000Y68114D02*
D03*
Y44886D02*
D03*
X175712Y44986D02*
D03*
Y68214D02*
D03*
X190912Y44986D02*
D03*
Y68214D02*
D03*
G54D170*
X243209Y278051D02*
D03*
G54D171*
X236811Y275098D02*
D03*
Y281004D02*
D03*
X249606D02*
D03*
Y275098D02*
D03*
G54D172*
X239272Y284449D02*
D03*
X241240D02*
D03*
X243209D02*
D03*
X245177D02*
D03*
X247146D02*
D03*
Y271654D02*
D03*
X245177D02*
D03*
X243209D02*
D03*
X241240D02*
D03*
X239272D02*
D03*
G54D173*
X5760Y184994D02*
D03*
Y134206D02*
D03*
G54D174*
X62748Y184797D02*
D03*
Y157238D02*
D03*
Y148183D02*
D03*
G54D175*
X17177Y148970D02*
D03*
Y153301D02*
D03*
Y157632D02*
D03*
Y161962D02*
D03*
Y166293D02*
D03*
Y170624D02*
D03*
Y174954D02*
D03*
Y179285D02*
D03*
G54D176*
X400251Y364566D02*
D03*
X391520D02*
D03*
X204200Y363800D02*
D03*
X212931D02*
D03*
X44100Y357700D02*
D03*
X52831D02*
D03*
X5361Y337026D02*
D03*
X14091D02*
D03*
X7869Y266200D02*
D03*
X16600D02*
D03*
X178772Y353786D02*
D03*
X170042D02*
D03*
G54D177*
X59746Y261856D02*
D03*
X53053D02*
D03*
Y258706D02*
D03*
X59746D02*
D03*
G54D178*
X221869Y307171D02*
D03*
X230531Y291029D02*
D03*
Y307171D02*
D03*
X221869Y291029D02*
D03*
G54D179*
X23600Y335600D02*
D03*
X31937Y339400D02*
D03*
Y331860D02*
D03*
X168700Y343600D02*
D03*
X177037Y347400D02*
D03*
Y339860D02*
D03*
G54D180*
X125200Y365900D02*
D03*
Y357169D02*
D03*
X85400Y365900D02*
D03*
Y357169D02*
D03*
G54D181*
X207660Y306851D02*
D03*
X211400D02*
D03*
X215140D02*
D03*
Y296812D02*
D03*
X211400D02*
D03*
X207660D02*
D03*
G54D182*
X154100Y331660D02*
D03*
Y335400D02*
D03*
Y339140D02*
D03*
X164139D02*
D03*
Y335400D02*
D03*
Y331660D02*
D03*
X114035Y331594D02*
D03*
Y335335D02*
D03*
Y339075D02*
D03*
X124075D02*
D03*
Y335335D02*
D03*
Y331594D02*
D03*
X73878D02*
D03*
Y335335D02*
D03*
Y339075D02*
D03*
X83917D02*
D03*
Y335335D02*
D03*
Y331594D02*
D03*
X57708Y312047D02*
D03*
Y315787D02*
D03*
Y319528D02*
D03*
X67747D02*
D03*
Y315787D02*
D03*
Y312047D02*
D03*
X186780Y340560D02*
D03*
Y344300D02*
D03*
Y348040D02*
D03*
X196820D02*
D03*
Y344300D02*
D03*
Y340560D02*
D03*
G54D183*
X256583Y334300D02*
D03*
X267017D02*
D03*
X314115Y394243D02*
D03*
X324548D02*
D03*
X386464Y118152D02*
D03*
X396897D02*
D03*
G54D184*
X262165Y299000D02*
D03*
Y291460D02*
D03*
X306618Y388209D02*
D03*
Y395749D02*
D03*
G54D185*
X258700Y370289D02*
D03*
Y394000D02*
D03*
G54D186*
X266611Y316300D02*
D03*
X242900D02*
D03*
X377326Y100768D02*
D03*
X401037D02*
D03*
G54D187*
X49650Y329663D02*
D03*
X54650D02*
D03*
X59650D02*
D03*
X64650D02*
D03*
X89500D02*
D03*
X94500D02*
D03*
X99500D02*
D03*
X104500D02*
D03*
X129600D02*
D03*
X134600D02*
D03*
X139600D02*
D03*
X144600D02*
D03*
X215150Y321663D02*
D03*
X220150D02*
D03*
X225150D02*
D03*
X230150D02*
D03*
G54D188*
X57150Y344103D02*
D03*
X97000D02*
D03*
X137100D02*
D03*
X222650Y336103D02*
D03*
G54D189*
X142260Y172889D02*
D03*
Y167535D02*
D03*
X138198Y292601D02*
D03*
Y287247D02*
D03*
X164798Y295524D02*
D03*
Y290170D02*
D03*
X342932Y388020D02*
D03*
Y382665D02*
D03*
X135550Y209931D02*
D03*
Y204576D02*
D03*
G54D190*
X111512Y251600D02*
D03*
Y256600D02*
D03*
Y261600D02*
D03*
Y266600D02*
D03*
Y271600D02*
D03*
Y276600D02*
D03*
Y281600D02*
D03*
Y286600D02*
D03*
X75488Y251600D02*
D03*
Y256600D02*
D03*
Y261600D02*
D03*
Y266600D02*
D03*
Y271600D02*
D03*
Y276600D02*
D03*
Y281600D02*
D03*
Y286600D02*
D03*
G54D191*
X230035Y249159D02*
D03*
Y247190D02*
D03*
Y245222D02*
D03*
Y243253D02*
D03*
Y241285D02*
D03*
Y239317D02*
D03*
Y237348D02*
D03*
Y235380D02*
D03*
Y233411D02*
D03*
Y231442D02*
D03*
Y229474D02*
D03*
Y227505D02*
D03*
Y225537D02*
D03*
Y223569D02*
D03*
Y221600D02*
D03*
Y219632D02*
D03*
Y217663D02*
D03*
Y215694D02*
D03*
Y213726D02*
D03*
Y211757D02*
D03*
Y209789D02*
D03*
Y207821D02*
D03*
Y205852D02*
D03*
Y203884D02*
D03*
Y201915D02*
D03*
Y199946D02*
D03*
Y197978D02*
D03*
Y196009D02*
D03*
Y194041D02*
D03*
Y192072D02*
D03*
Y190104D02*
D03*
Y188135D02*
D03*
Y186167D02*
D03*
Y184198D02*
D03*
Y182230D02*
D03*
Y180261D02*
D03*
X146965D02*
D03*
Y182230D02*
D03*
Y184198D02*
D03*
Y186167D02*
D03*
Y188135D02*
D03*
Y190104D02*
D03*
Y192072D02*
D03*
Y194041D02*
D03*
Y196009D02*
D03*
Y197978D02*
D03*
Y199946D02*
D03*
Y201915D02*
D03*
Y203884D02*
D03*
Y205852D02*
D03*
Y207821D02*
D03*
Y209789D02*
D03*
Y211757D02*
D03*
Y213726D02*
D03*
Y215694D02*
D03*
Y217663D02*
D03*
Y219632D02*
D03*
Y221600D02*
D03*
Y223569D02*
D03*
Y225537D02*
D03*
Y227505D02*
D03*
Y229474D02*
D03*
Y231442D02*
D03*
Y233411D02*
D03*
Y235380D02*
D03*
Y237348D02*
D03*
Y239317D02*
D03*
Y241285D02*
D03*
Y243253D02*
D03*
Y245222D02*
D03*
Y247190D02*
D03*
Y249159D02*
D03*
G54D192*
X222949Y173175D02*
D03*
X220980D02*
D03*
X219012D02*
D03*
X217043D02*
D03*
X215075D02*
D03*
X213106D02*
D03*
X211138D02*
D03*
X209169D02*
D03*
X207201D02*
D03*
X205232D02*
D03*
X203264D02*
D03*
X201295D02*
D03*
X199327D02*
D03*
X197358D02*
D03*
X195390D02*
D03*
X193421D02*
D03*
X191453D02*
D03*
X189484D02*
D03*
X187516D02*
D03*
X185547D02*
D03*
X183579D02*
D03*
X181610D02*
D03*
X179642D02*
D03*
X177673D02*
D03*
X175705D02*
D03*
X173736D02*
D03*
X171768D02*
D03*
X169799D02*
D03*
X167831D02*
D03*
X165862D02*
D03*
X163894D02*
D03*
X161925D02*
D03*
X159957D02*
D03*
X157988D02*
D03*
X156020D02*
D03*
X154051D02*
D03*
Y256246D02*
D03*
X156020D02*
D03*
X157988D02*
D03*
X159957D02*
D03*
X161925D02*
D03*
X163894D02*
D03*
X165862D02*
D03*
X167831D02*
D03*
X169799D02*
D03*
X171768D02*
D03*
X173736D02*
D03*
X175705D02*
D03*
X177673D02*
D03*
X179642D02*
D03*
X181610D02*
D03*
X183579D02*
D03*
X185547D02*
D03*
X187516D02*
D03*
X189484D02*
D03*
X191453D02*
D03*
X193421D02*
D03*
X195390D02*
D03*
X197358D02*
D03*
X199327D02*
D03*
X201295D02*
D03*
X203264D02*
D03*
X205232D02*
D03*
X207201D02*
D03*
X209169D02*
D03*
X211138D02*
D03*
X213106D02*
D03*
X215075D02*
D03*
X217043D02*
D03*
X219012D02*
D03*
X220980D02*
D03*
X222949D02*
D03*
G54D193*
X343072Y394843D02*
D03*
X335531D02*
D03*
G54D194*
X313683Y386380D02*
D03*
Y384411D02*
D03*
Y382442D02*
D03*
Y380474D02*
D03*
Y378505D02*
D03*
X332580Y386380D02*
D03*
Y384411D02*
D03*
Y382442D02*
D03*
Y380474D02*
D03*
Y378505D02*
D03*
G54D195*
X323131Y382442D02*
D03*
G54D196*
X252496Y288501D02*
D03*
X254465D02*
D03*
X256433D02*
D03*
Y293619D02*
D03*
X254465D02*
D03*
X252496D02*
D03*
G54D197*
X359631Y379627D02*
D03*
Y392658D02*
D03*
G54D198*
X343746Y363742D02*
D03*
X320517D02*
D03*
G54D199*
X175900Y285108D02*
D03*
Y301092D02*
D03*
X180900Y285108D02*
D03*
Y301092D02*
D03*
X185900Y285108D02*
D03*
Y301092D02*
D03*
X190900Y285108D02*
D03*
Y301092D02*
D03*
X195900Y285108D02*
D03*
Y301092D02*
D03*
G54D200*
X308730Y135400D02*
D03*
Y140400D02*
D03*
Y145400D02*
D03*
Y150400D02*
D03*
X287470Y135400D02*
D03*
Y140400D02*
D03*
Y145400D02*
D03*
Y150400D02*
D03*
G54D201*
X298300Y281916D02*
D03*
Y271483D02*
D03*
G54D202*
X345002Y164062D02*
D03*
X350513D02*
D03*
X345044Y168500D02*
D03*
X350556D02*
D03*
G54D203*
X288567Y205724D02*
D03*
X292110D02*
D03*
X304618Y205623D02*
D03*
X301075D02*
D03*
X326771Y205369D02*
D03*
X330315D02*
D03*
X275675Y205496D02*
D03*
X272131D02*
D03*
X258948Y205117D02*
D03*
X262491D02*
D03*
X342487Y205059D02*
D03*
X338944D02*
D03*
X106747Y132906D02*
D03*
X110291D02*
D03*
X323228Y159500D02*
D03*
X326772D02*
D03*
X330728D02*
D03*
X334272D02*
D03*
G54D204*
X37903Y196447D02*
D03*
Y192904D02*
D03*
X41929Y193602D02*
D03*
Y197146D02*
D03*
X57480Y206398D02*
D03*
Y202854D02*
D03*
X66634Y202953D02*
D03*
Y206496D02*
D03*
X49973Y196090D02*
D03*
Y192547D02*
D03*
X57941Y192628D02*
D03*
Y196171D02*
D03*
X74731Y200158D02*
D03*
Y203701D02*
D03*
G54D205*
X20009Y66100D02*
D03*
X8591D02*
D03*
X63500Y70100D02*
D03*
X74917D02*
D03*
X205591Y66100D02*
D03*
X217009D02*
D03*
X358509Y59600D02*
D03*
X347091D02*
D03*
X274691Y64200D02*
D03*
X286109D02*
D03*
X283009Y51200D02*
D03*
X271591D02*
D03*
X133391Y66900D02*
D03*
X144809D02*
D03*
G54D206*
X14800Y51209D02*
D03*
Y39791D02*
D03*
X70500Y55117D02*
D03*
Y43700D02*
D03*
X149100Y45509D02*
D03*
Y34091D02*
D03*
X159900Y56409D02*
D03*
Y44991D02*
D03*
X206400Y56409D02*
D03*
Y44991D02*
D03*
X319800Y33309D02*
D03*
Y21891D02*
D03*
X305700Y66309D02*
D03*
Y54891D02*
D03*
X370300Y57491D02*
D03*
Y68909D02*
D03*
X218300Y34191D02*
D03*
Y45609D02*
D03*
X230700Y56409D02*
D03*
Y44991D02*
D03*
X90500Y33509D02*
D03*
Y22091D02*
D03*
X88200Y55609D02*
D03*
Y44191D02*
D03*
X136100Y54009D02*
D03*
Y42591D02*
D03*
G54D207*
X144214Y295677D02*
D03*
X158781D02*
D03*
Y287016D02*
D03*
X144214D02*
D03*
G54D208*
X164976Y350198D02*
D03*
Y358531D02*
D03*
X231100Y364734D02*
D03*
Y356400D02*
D03*
X36300Y356366D02*
D03*
Y364700D02*
D03*
G54D209*
X14101Y277876D02*
D03*
X5768D02*
D03*
Y283976D02*
D03*
X14101D02*
D03*
X138200Y358900D02*
D03*
X146534D02*
D03*
X106634D02*
D03*
X98300D02*
D03*
X58100D02*
D03*
X66434D02*
D03*
X5768Y290076D02*
D03*
X14101D02*
D03*
G54D210*
X239700Y356300D02*
D03*
X255474D02*
D03*
X351731Y363543D02*
D03*
X367506D02*
D03*
X181400Y362400D02*
D03*
X197174D02*
D03*
G54D211*
X155300Y363374D02*
D03*
Y347600D02*
D03*
X115300Y347800D02*
D03*
Y363574D02*
D03*
X75400D02*
D03*
Y347800D02*
D03*
X40300Y332426D02*
D03*
Y348200D02*
D03*
M02*
