G04 Layer_Color=16711935*
%FSLAX25Y25*%
%MOIN*%
G70*
G01*
G75*
%ADD101C,0.05800*%
%ADD274O,0.06800X0.12800*%
%ADD275C,0.06706*%
%ADD276R,0.06706X0.06706*%
%ADD277C,0.13850*%
%ADD278C,0.06600*%
%ADD279C,0.10800*%
%ADD280P,0.08443X8X292.5*%
%ADD281O,0.09050X0.17300*%
G04:AMPARAMS|DCode=282|XSize=141mil|YSize=91mil|CornerRadius=0mil|HoleSize=0mil|Usage=FLASHONLY|Rotation=90.000|XOffset=0mil|YOffset=0mil|HoleType=Round|Shape=Octagon|*
%AMOCTAGOND282*
4,1,8,0.02275,0.07050,-0.02275,0.07050,-0.04550,0.04775,-0.04550,-0.04775,-0.02275,-0.07050,0.02275,-0.07050,0.04550,-0.04775,0.04550,0.04775,0.02275,0.07050,0.0*
%
%ADD282OCTAGOND282*%

%ADD283O,0.12800X0.06800*%
%ADD284O,0.17300X0.09050*%
G54D101*
X221643Y310228D02*
D03*
X233020Y320763D02*
D03*
X364503Y25750D02*
D03*
X354497Y25719D02*
D03*
X344514Y25749D02*
D03*
X334514Y25736D02*
D03*
X353871Y73173D02*
D03*
X348212Y63822D02*
D03*
X335148Y56196D02*
D03*
X321327Y59591D02*
D03*
X309409Y66221D02*
D03*
X305017Y25772D02*
D03*
X294994Y25780D02*
D03*
X285001Y25690D02*
D03*
X274996Y25581D02*
D03*
X325395Y129454D02*
D03*
X345400Y323400D02*
D03*
X325200Y299600D02*
D03*
X345400Y304900D02*
D03*
X392400Y298200D02*
D03*
X312100Y366100D02*
D03*
X400100Y185000D02*
D03*
X11376Y237099D02*
D03*
X55413Y231398D02*
D03*
X168100Y371500D02*
D03*
X383305Y135675D02*
D03*
X389700Y225700D02*
D03*
X291400Y338500D02*
D03*
X29900Y354500D02*
D03*
X268500Y296200D02*
D03*
X365108Y392082D02*
D03*
X262500Y136550D02*
D03*
X305512Y150098D02*
D03*
X49000Y359500D02*
D03*
X88000Y360600D02*
D03*
X127700D02*
D03*
X207900D02*
D03*
X393300Y331100D02*
D03*
X205549Y9788D02*
D03*
X180151Y26169D02*
D03*
X246031Y25864D02*
D03*
X235956Y25904D02*
D03*
X259881Y162003D02*
D03*
X257900Y286760D02*
D03*
X164600Y259300D02*
D03*
X195800Y296300D02*
D03*
X190900Y286300D02*
D03*
X185900Y296300D02*
D03*
X180900Y286300D02*
D03*
X135514Y25833D02*
D03*
X125550Y25847D02*
D03*
X115444Y25858D02*
D03*
X105515Y25768D02*
D03*
X75520Y25740D02*
D03*
X65501Y25707D02*
D03*
X55511Y25726D02*
D03*
X45507Y25755D02*
D03*
X61995Y63618D02*
D03*
X49647Y56023D02*
D03*
X29901Y55902D02*
D03*
X18254Y65037D02*
D03*
X132050Y66498D02*
D03*
X121948Y56504D02*
D03*
X102653Y55891D02*
D03*
X92868Y65269D02*
D03*
X202983Y66119D02*
D03*
X193634Y55363D02*
D03*
X173842Y56095D02*
D03*
X164000Y66123D02*
D03*
X282614Y68441D02*
D03*
X273245Y63087D02*
D03*
X263138Y56432D02*
D03*
X244274Y55909D02*
D03*
X234482Y65956D02*
D03*
X364415Y99661D02*
D03*
X341682Y118948D02*
D03*
X336110Y162972D02*
D03*
X282500Y141900D02*
D03*
X270812Y119236D02*
D03*
X272500Y149700D02*
D03*
X274174Y159523D02*
D03*
X292938Y158021D02*
D03*
X293935Y100152D02*
D03*
X272500Y140000D02*
D03*
X223017Y99283D02*
D03*
X213400Y82400D02*
D03*
X203063Y117373D02*
D03*
X135457Y114479D02*
D03*
X152305Y99811D02*
D03*
X135220Y93266D02*
D03*
X81767Y102134D02*
D03*
X61888Y89809D02*
D03*
X59914Y115951D02*
D03*
X324548Y176637D02*
D03*
X293016Y176862D02*
D03*
X253730Y186329D02*
D03*
X123486Y168267D02*
D03*
X142439Y170234D02*
D03*
X25226Y166280D02*
D03*
X67164Y174499D02*
D03*
X355815Y176998D02*
D03*
X327176Y222609D02*
D03*
X319657Y209889D02*
D03*
X300538Y204612D02*
D03*
X285528Y205198D02*
D03*
X253095Y202532D02*
D03*
X133165Y208716D02*
D03*
X76361Y198594D02*
D03*
X64195Y192357D02*
D03*
X58120Y188172D02*
D03*
X49936Y183774D02*
D03*
X32610Y187372D02*
D03*
X59826Y216737D02*
D03*
X124997Y239307D02*
D03*
X129687Y245468D02*
D03*
X169350Y273488D02*
D03*
X160533Y278513D02*
D03*
X211436Y296117D02*
D03*
X177474Y339425D02*
D03*
X139019Y268296D02*
D03*
X126887Y268503D02*
D03*
X160782Y311530D02*
D03*
X159981Y319525D02*
D03*
X148867Y324228D02*
D03*
X108847Y323610D02*
D03*
X68201Y322755D02*
D03*
X55336Y317695D02*
D03*
X32583Y272828D02*
D03*
X263926Y243044D02*
D03*
G54D274*
X355800Y186300D02*
D03*
X365800D02*
D03*
X334500D02*
D03*
X324500D02*
D03*
X12400Y354500D02*
D03*
X22400D02*
D03*
X271300Y186300D02*
D03*
X261300D02*
D03*
X293000D02*
D03*
X303000D02*
D03*
X316750Y254900D02*
D03*
X306750D02*
D03*
X296750D02*
D03*
X337800D02*
D03*
X347800D02*
D03*
X357800D02*
D03*
X275700D02*
D03*
X265700D02*
D03*
X255700D02*
D03*
X357800Y230900D02*
D03*
X347800D02*
D03*
X337800D02*
D03*
X296750D02*
D03*
X306750D02*
D03*
X316750D02*
D03*
X275700D02*
D03*
X265700D02*
D03*
X255700D02*
D03*
X334500Y14500D02*
D03*
X344500D02*
D03*
X354500D02*
D03*
X364500D02*
D03*
X275000D02*
D03*
X285000D02*
D03*
X295000D02*
D03*
X305000D02*
D03*
X165000D02*
D03*
X175000D02*
D03*
X185000D02*
D03*
X195000D02*
D03*
X216000D02*
D03*
X226000D02*
D03*
X236000D02*
D03*
X246000D02*
D03*
X105500D02*
D03*
X115500D02*
D03*
X125500D02*
D03*
X135500D02*
D03*
X75500D02*
D03*
X65500D02*
D03*
X55500D02*
D03*
X45500D02*
D03*
X356500Y145500D02*
D03*
X346500D02*
D03*
X336500D02*
D03*
X326500D02*
D03*
X366500D02*
D03*
G54D275*
X173800Y320300D02*
D03*
Y330300D02*
D03*
X183800Y320300D02*
D03*
Y330300D02*
D03*
X193800Y320300D02*
D03*
Y330300D02*
D03*
X203800Y320300D02*
D03*
X190100Y140600D02*
D03*
X180100Y150600D02*
D03*
Y140600D02*
D03*
X170100Y150600D02*
D03*
Y140600D02*
D03*
X160100Y150600D02*
D03*
Y140600D02*
D03*
X150100Y150600D02*
D03*
Y140600D02*
D03*
X140100Y150600D02*
D03*
Y140600D02*
D03*
X130100Y150600D02*
D03*
Y140600D02*
D03*
X120100Y150600D02*
D03*
Y140600D02*
D03*
X110100Y150600D02*
D03*
Y140600D02*
D03*
X100100Y150600D02*
D03*
Y140600D02*
D03*
X90100Y150600D02*
D03*
Y140600D02*
D03*
X80100Y150600D02*
D03*
Y140600D02*
D03*
X79300Y182000D02*
D03*
Y192000D02*
D03*
X89300Y182000D02*
D03*
Y192000D02*
D03*
X99300Y182000D02*
D03*
Y192000D02*
D03*
X109300Y182000D02*
D03*
Y192000D02*
D03*
X119300Y182000D02*
D03*
X80100Y211500D02*
D03*
Y221500D02*
D03*
X90100Y211500D02*
D03*
Y221500D02*
D03*
X100100Y211500D02*
D03*
Y221500D02*
D03*
X110100Y211500D02*
D03*
Y221500D02*
D03*
X120100Y211500D02*
D03*
G54D276*
X203800Y330300D02*
D03*
X190100Y150600D02*
D03*
X119300Y192000D02*
D03*
X120100Y221500D02*
D03*
G54D277*
X25000Y206300D02*
D03*
Y253622D02*
D03*
G54D278*
X35700Y225000D02*
D03*
Y234921D02*
D03*
X43600D02*
D03*
Y225000D02*
D03*
G54D279*
X18400Y299700D02*
D03*
Y327300D02*
D03*
G54D280*
X8600Y304600D02*
D03*
Y322400D02*
D03*
G54D281*
X48000Y385200D02*
D03*
X68000D02*
D03*
X88000D02*
D03*
X108000D02*
D03*
X128000D02*
D03*
X148000D02*
D03*
X168000D02*
D03*
X188000D02*
D03*
X208000D02*
D03*
X228000D02*
D03*
G54D282*
X311500Y338400D02*
D03*
X324900D02*
D03*
Y285400D02*
D03*
X311500D02*
D03*
X345100Y338400D02*
D03*
X358500D02*
D03*
Y285400D02*
D03*
X345100D02*
D03*
X398432Y202878D02*
D03*
X385032D02*
D03*
Y149878D02*
D03*
X398432D02*
D03*
G54D283*
X391800Y75500D02*
D03*
Y65500D02*
D03*
Y55500D02*
D03*
Y45500D02*
D03*
G54D284*
X377063Y238248D02*
D03*
Y258248D02*
D03*
Y278248D02*
D03*
Y298248D02*
D03*
Y338248D02*
D03*
Y318248D02*
D03*
M02*
