G04 Layer_Color=32896*
%FSLAX24Y24*%
%MOIN*%
G70*
G01*
G75*
%ADD67C,0.0080*%
%ADD71C,0.0100*%
%ADD122C,0.0039*%
%ADD125C,0.0060*%
%ADD127C,0.0040*%
%ADD129R,0.0879X0.0295*%
%ADD136R,0.0295X0.0879*%
%ADD253C,0.0020*%
%ADD254R,0.0110X0.0240*%
%ADD255R,0.0118X0.0240*%
%ADD256R,0.0079X0.0556*%
%ADD257R,0.0138X0.0315*%
%ADD258R,0.0315X0.0138*%
%ADD259R,0.0240X0.0118*%
%ADD260R,0.0240X0.0110*%
%ADD261R,0.0118X0.0240*%
%ADD262R,0.0240X0.0118*%
%ADD263R,0.0556X0.0079*%
%ADD264R,0.0635X0.0165*%
%ADD265R,0.0645X0.0170*%
%ADD266R,0.0575X0.0295*%
%ADD267R,0.0575X0.0300*%
%ADD268R,0.0010X0.0010*%
%ADD269R,0.0020X0.0010*%
%ADD270R,0.0011X0.0010*%
%ADD271R,0.0021X0.0010*%
%ADD272R,0.0187X0.0194*%
%ADD273R,0.0190X0.0194*%
%ADD274R,0.0194X0.0194*%
%ADD275R,0.0295X0.0575*%
%ADD276R,0.0300X0.0575*%
%ADD277R,0.0236X0.0536*%
%ADD278R,0.0240X0.0536*%
%ADD279R,0.0536X0.0236*%
%ADD280R,0.0536X0.0240*%
%ADD281R,0.0165X0.0635*%
%ADD282R,0.0170X0.0645*%
%ADD283R,0.0860X0.0210*%
%ADD284R,0.0210X0.0860*%
%ADD285R,0.0137X0.0083*%
%ADD286R,0.0137X0.0080*%
%ADD287R,0.0317X0.0114*%
%ADD288R,0.0197X0.0413*%
%ADD289R,0.0236X0.0246*%
%ADD290R,0.0190X0.0413*%
%ADD291R,0.0230X0.0246*%
G36*
X25651Y18005D02*
X25602D01*
Y18316D01*
X25602Y18315D01*
X25599Y18313D01*
X25595Y18310D01*
X25590Y18306D01*
X25583Y18300D01*
X25575Y18295D01*
X25566Y18288D01*
X25556Y18282D01*
X25555D01*
X25555Y18281D01*
X25551Y18279D01*
X25546Y18276D01*
X25539Y18272D01*
X25531Y18268D01*
X25523Y18265D01*
X25513Y18260D01*
X25505Y18257D01*
Y18304D01*
X25506D01*
X25507Y18305D01*
X25509Y18306D01*
X25512Y18308D01*
X25515Y18310D01*
X25520Y18312D01*
X25529Y18317D01*
X25540Y18324D01*
X25552Y18332D01*
X25564Y18341D01*
X25576Y18350D01*
X25576Y18351D01*
X25577Y18352D01*
X25581Y18355D01*
X25586Y18361D01*
X25593Y18367D01*
X25600Y18376D01*
X25607Y18385D01*
X25614Y18395D01*
X25619Y18404D01*
X25651D01*
Y18005D01*
D02*
G37*
G36*
X25471Y22465D02*
X25422D01*
Y22776D01*
X25422Y22775D01*
X25419Y22773D01*
X25415Y22770D01*
X25410Y22766D01*
X25403Y22760D01*
X25395Y22755D01*
X25386Y22748D01*
X25376Y22742D01*
X25375D01*
X25375Y22741D01*
X25371Y22739D01*
X25366Y22736D01*
X25359Y22732D01*
X25351Y22728D01*
X25343Y22725D01*
X25333Y22720D01*
X25325Y22717D01*
Y22764D01*
X25326D01*
X25327Y22765D01*
X25329Y22766D01*
X25332Y22768D01*
X25335Y22770D01*
X25340Y22772D01*
X25349Y22777D01*
X25360Y22784D01*
X25372Y22792D01*
X25384Y22801D01*
X25396Y22810D01*
X25396Y22811D01*
X25397Y22812D01*
X25401Y22815D01*
X25406Y22821D01*
X25413Y22827D01*
X25420Y22836D01*
X25427Y22845D01*
X25434Y22855D01*
X25439Y22864D01*
X25471D01*
Y22465D01*
D02*
G37*
G36*
X28821Y18005D02*
X28772D01*
Y18316D01*
X28772Y18315D01*
X28769Y18313D01*
X28765Y18310D01*
X28760Y18306D01*
X28753Y18300D01*
X28745Y18295D01*
X28736Y18288D01*
X28726Y18282D01*
X28725D01*
X28725Y18281D01*
X28721Y18279D01*
X28716Y18276D01*
X28709Y18272D01*
X28701Y18268D01*
X28693Y18265D01*
X28683Y18260D01*
X28675Y18257D01*
Y18304D01*
X28676D01*
X28677Y18305D01*
X28679Y18306D01*
X28682Y18308D01*
X28685Y18310D01*
X28690Y18312D01*
X28699Y18317D01*
X28710Y18324D01*
X28722Y18332D01*
X28734Y18341D01*
X28746Y18350D01*
X28746Y18351D01*
X28747Y18352D01*
X28751Y18355D01*
X28756Y18361D01*
X28763Y18367D01*
X28770Y18376D01*
X28777Y18385D01*
X28784Y18395D01*
X28789Y18404D01*
X28821D01*
Y18005D01*
D02*
G37*
G36*
X35101D02*
X35052D01*
Y18316D01*
X35052Y18315D01*
X35049Y18313D01*
X35045Y18310D01*
X35040Y18306D01*
X35033Y18300D01*
X35025Y18295D01*
X35016Y18288D01*
X35006Y18282D01*
X35005D01*
X35005Y18281D01*
X35001Y18279D01*
X34996Y18276D01*
X34989Y18272D01*
X34981Y18268D01*
X34973Y18265D01*
X34963Y18260D01*
X34955Y18257D01*
Y18304D01*
X34956D01*
X34957Y18305D01*
X34959Y18306D01*
X34962Y18308D01*
X34965Y18310D01*
X34970Y18312D01*
X34979Y18317D01*
X34990Y18324D01*
X35002Y18332D01*
X35014Y18341D01*
X35026Y18350D01*
X35026Y18351D01*
X35027Y18352D01*
X35031Y18355D01*
X35036Y18361D01*
X35043Y18367D01*
X35050Y18376D01*
X35057Y18385D01*
X35064Y18395D01*
X35069Y18404D01*
X35101D01*
Y18005D01*
D02*
G37*
G36*
X31971D02*
X31922D01*
Y18316D01*
X31922Y18315D01*
X31919Y18313D01*
X31915Y18310D01*
X31910Y18306D01*
X31903Y18300D01*
X31895Y18295D01*
X31886Y18288D01*
X31876Y18282D01*
X31875D01*
X31875Y18281D01*
X31871Y18279D01*
X31866Y18276D01*
X31859Y18272D01*
X31851Y18268D01*
X31843Y18265D01*
X31833Y18260D01*
X31825Y18257D01*
Y18304D01*
X31826D01*
X31827Y18305D01*
X31829Y18306D01*
X31832Y18308D01*
X31835Y18310D01*
X31840Y18312D01*
X31849Y18317D01*
X31860Y18324D01*
X31872Y18332D01*
X31884Y18341D01*
X31896Y18350D01*
X31896Y18351D01*
X31897Y18352D01*
X31901Y18355D01*
X31906Y18361D01*
X31913Y18367D01*
X31920Y18376D01*
X31927Y18385D01*
X31934Y18395D01*
X31939Y18404D01*
X31971D01*
Y18005D01*
D02*
G37*
G36*
X29606Y22465D02*
X29557D01*
Y22776D01*
X29557Y22775D01*
X29554Y22773D01*
X29550Y22770D01*
X29545Y22766D01*
X29538Y22760D01*
X29530Y22755D01*
X29521Y22748D01*
X29511Y22742D01*
X29510D01*
X29510Y22741D01*
X29506Y22739D01*
X29501Y22736D01*
X29494Y22732D01*
X29486Y22728D01*
X29478Y22725D01*
X29468Y22720D01*
X29460Y22717D01*
Y22764D01*
X29461D01*
X29462Y22765D01*
X29464Y22766D01*
X29467Y22768D01*
X29470Y22770D01*
X29475Y22772D01*
X29484Y22777D01*
X29495Y22784D01*
X29507Y22792D01*
X29519Y22801D01*
X29531Y22810D01*
X29531Y22811D01*
X29532Y22812D01*
X29536Y22815D01*
X29541Y22821D01*
X29548Y22827D01*
X29555Y22836D01*
X29562Y22845D01*
X29569Y22855D01*
X29574Y22864D01*
X29606D01*
Y22465D01*
D02*
G37*
G36*
X32613Y25804D02*
X32613Y25805D01*
X32616Y25807D01*
X32620Y25810D01*
X32625Y25814D01*
X32632Y25820D01*
X32640Y25825D01*
X32649Y25832D01*
X32659Y25838D01*
X32660D01*
X32660Y25839D01*
X32664Y25841D01*
X32669Y25844D01*
X32676Y25848D01*
X32684Y25852D01*
X32692Y25855D01*
X32702Y25860D01*
X32710Y25863D01*
Y25816D01*
X32709D01*
X32708Y25815D01*
X32706Y25814D01*
X32703Y25812D01*
X32700Y25810D01*
X32695Y25808D01*
X32686Y25803D01*
X32675Y25796D01*
X32663Y25788D01*
X32651Y25779D01*
X32639Y25770D01*
X32639Y25769D01*
X32638Y25768D01*
X32634Y25765D01*
X32629Y25759D01*
X32622Y25753D01*
X32615Y25744D01*
X32608Y25735D01*
X32601Y25725D01*
X32596Y25716D01*
X32564D01*
Y26115D01*
X32613D01*
Y25804D01*
D02*
G37*
G36*
X721Y34725D02*
X672D01*
Y35036D01*
X672Y35035D01*
X669Y35033D01*
X665Y35030D01*
X660Y35026D01*
X653Y35020D01*
X645Y35015D01*
X636Y35008D01*
X626Y35002D01*
X625D01*
X625Y35001D01*
X621Y34999D01*
X616Y34996D01*
X609Y34992D01*
X601Y34988D01*
X593Y34985D01*
X583Y34980D01*
X575Y34977D01*
Y35024D01*
X576D01*
X577Y35025D01*
X579Y35026D01*
X582Y35028D01*
X585Y35030D01*
X590Y35032D01*
X599Y35037D01*
X610Y35044D01*
X622Y35052D01*
X634Y35061D01*
X646Y35070D01*
X646Y35071D01*
X647Y35072D01*
X651Y35075D01*
X656Y35081D01*
X663Y35087D01*
X670Y35096D01*
X677Y35105D01*
X684Y35115D01*
X689Y35124D01*
X721D01*
Y34725D01*
D02*
G37*
G36*
X36748Y25804D02*
X36748Y25805D01*
X36751Y25807D01*
X36755Y25810D01*
X36760Y25814D01*
X36767Y25820D01*
X36775Y25825D01*
X36784Y25832D01*
X36794Y25838D01*
X36795D01*
X36795Y25839D01*
X36799Y25841D01*
X36804Y25844D01*
X36811Y25848D01*
X36819Y25852D01*
X36827Y25855D01*
X36837Y25860D01*
X36845Y25863D01*
Y25816D01*
X36844D01*
X36843Y25815D01*
X36841Y25814D01*
X36838Y25812D01*
X36835Y25810D01*
X36830Y25808D01*
X36821Y25803D01*
X36810Y25796D01*
X36798Y25788D01*
X36786Y25779D01*
X36774Y25770D01*
X36774Y25769D01*
X36773Y25768D01*
X36769Y25765D01*
X36764Y25759D01*
X36757Y25753D01*
X36750Y25744D01*
X36743Y25735D01*
X36736Y25725D01*
X36731Y25716D01*
X36699D01*
Y26115D01*
X36748D01*
Y25804D01*
D02*
G37*
G36*
X33741Y22465D02*
X33692D01*
Y22776D01*
X33692Y22775D01*
X33689Y22773D01*
X33685Y22770D01*
X33680Y22766D01*
X33673Y22760D01*
X33665Y22755D01*
X33656Y22748D01*
X33646Y22742D01*
X33645D01*
X33645Y22741D01*
X33641Y22739D01*
X33636Y22736D01*
X33629Y22732D01*
X33621Y22728D01*
X33613Y22725D01*
X33603Y22720D01*
X33595Y22717D01*
Y22764D01*
X33596D01*
X33597Y22765D01*
X33599Y22766D01*
X33602Y22768D01*
X33605Y22770D01*
X33610Y22772D01*
X33619Y22777D01*
X33630Y22784D01*
X33642Y22792D01*
X33654Y22801D01*
X33666Y22810D01*
X33666Y22811D01*
X33667Y22812D01*
X33671Y22815D01*
X33676Y22821D01*
X33683Y22827D01*
X33690Y22836D01*
X33697Y22845D01*
X33704Y22855D01*
X33709Y22864D01*
X33741D01*
Y22465D01*
D02*
G37*
G36*
X28478Y25804D02*
X28478Y25805D01*
X28481Y25807D01*
X28485Y25810D01*
X28490Y25814D01*
X28497Y25820D01*
X28505Y25825D01*
X28514Y25832D01*
X28524Y25838D01*
X28525D01*
X28525Y25839D01*
X28529Y25841D01*
X28534Y25844D01*
X28541Y25848D01*
X28549Y25852D01*
X28557Y25855D01*
X28567Y25860D01*
X28575Y25863D01*
Y25816D01*
X28574D01*
X28573Y25815D01*
X28571Y25814D01*
X28568Y25812D01*
X28565Y25810D01*
X28560Y25808D01*
X28551Y25803D01*
X28540Y25796D01*
X28528Y25788D01*
X28516Y25779D01*
X28504Y25770D01*
X28504Y25769D01*
X28503Y25768D01*
X28499Y25765D01*
X28494Y25759D01*
X28487Y25753D01*
X28480Y25744D01*
X28473Y25735D01*
X28466Y25725D01*
X28461Y25716D01*
X28429D01*
Y26115D01*
X28478D01*
Y25804D01*
D02*
G37*
D67*
X8705Y32970D02*
G03*
X8705Y32970I-130J0D01*
G01*
X12690D02*
G03*
X12690Y32970I-130J0D01*
G01*
X16700D02*
G03*
X16700Y32970I-130J0D01*
G01*
X21255Y32170D02*
G03*
X21255Y32170I-130J0D01*
G01*
X10665Y33203D02*
Y34740D01*
X8770Y33203D02*
X10665D01*
X8770D02*
Y34740D01*
X14650Y33203D02*
Y34740D01*
X12755Y33203D02*
X14650D01*
X12755D02*
Y34740D01*
X18660Y33203D02*
Y34740D01*
X16765Y33203D02*
X18660D01*
X16765D02*
Y34740D01*
X23215Y32403D02*
Y33940D01*
X21320Y32403D02*
X23215D01*
X21320D02*
Y33940D01*
D71*
X-5870Y0D02*
X-100D01*
X-5870Y31350D02*
X-280D01*
X-5770Y0D02*
Y14005D01*
Y17025D02*
Y31350D01*
Y0D02*
X-5570Y600D01*
X-5970D02*
X-5770Y0D01*
X-5970Y30750D02*
X-5770Y31350D01*
X-5570Y30750D01*
X-1720Y39000D02*
X739D01*
X-1720Y40500D02*
X-150D01*
X-1620Y39000D02*
Y39750D01*
Y40500D01*
Y39000D02*
X-1420Y39600D01*
X-1820D02*
X-1620Y39000D01*
X-1820Y39900D02*
X-1620Y40500D01*
X-1420Y39900D01*
X1500Y39761D02*
Y42060D01*
X0Y40650D02*
Y42060D01*
X750Y41960D02*
X1500D01*
X0D02*
X750D01*
X900Y42160D02*
X1500Y41960D01*
X900Y41760D02*
X1500Y41960D01*
X0D02*
X600Y41760D01*
X0Y41960D02*
X600Y42160D01*
X-7150Y40500D02*
X-100D01*
X-7150Y0D02*
X-100D01*
X-7050Y21849D02*
Y40500D01*
Y0D02*
Y18331D01*
X-7250Y39900D02*
X-7050Y40500D01*
X-6850Y39900D01*
X-7050Y0D02*
X-6850Y600D01*
X-7250D02*
X-7050Y0D01*
X-4570Y1500D02*
X739D01*
X-4570Y39000D02*
X739D01*
X-4470Y1500D02*
Y18580D01*
Y21600D02*
Y39000D01*
Y1500D02*
X-4270Y2100D01*
X-4670D02*
X-4470Y1500D01*
X-4670Y38400D02*
X-4470Y39000D01*
X-4270Y38400D01*
X1500Y39761D02*
Y43520D01*
X39500Y39761D02*
Y43520D01*
X1500Y43420D02*
X18830D01*
X21850D02*
X39500D01*
X1500D02*
X2100Y43220D01*
X1500Y43420D02*
X2100Y43620D01*
X38900D02*
X39500Y43420D01*
X38900Y43220D02*
X39500Y43420D01*
X41000Y40650D02*
Y45050D01*
X0Y40650D02*
Y45050D01*
X22050Y44950D02*
X41000D01*
X0D02*
X18630D01*
X40400Y45150D02*
X41000Y44950D01*
X40400Y44750D02*
X41000Y44950D01*
X0D02*
X600Y44750D01*
X0Y44950D02*
X600Y45150D01*
X7136Y36516D02*
X8128D01*
X7136Y34740D02*
X8128D01*
X3465Y36339D02*
X4457D01*
X3465Y34563D02*
X4457D01*
X11048Y36456D02*
X12040D01*
X11048Y34680D02*
X12040D01*
X15038Y36456D02*
X16030D01*
X15038Y34680D02*
X16030D01*
X19038Y36436D02*
X20030D01*
X19038Y34660D02*
X20030D01*
X25646Y35130D02*
Y36122D01*
X23870Y35130D02*
Y36122D01*
X14991Y6890D02*
X15983D01*
X14991Y5114D02*
X15983D01*
X17981Y3108D02*
Y4100D01*
X16205Y3108D02*
Y4100D01*
X20571Y6890D02*
X21563D01*
X20571Y5114D02*
X21563D01*
X18706Y3102D02*
Y4094D01*
X20482Y3102D02*
Y4094D01*
X36849Y35854D02*
Y36846D01*
X35073Y35854D02*
Y36846D01*
X931Y5114D02*
X1924D01*
X931Y6890D02*
X1924D01*
X7900Y5114D02*
X8892D01*
X7900Y6890D02*
X8892D01*
X22077Y5114D02*
X23069D01*
X22077Y6890D02*
X23069D01*
X29166Y5114D02*
X30158D01*
X29166Y6890D02*
X30158D01*
X2539Y3108D02*
Y4100D01*
X4315Y3108D02*
Y4100D01*
X9409Y3108D02*
Y4100D01*
X11185Y3108D02*
Y4100D01*
X23291Y3108D02*
Y4100D01*
X25067Y3108D02*
Y4100D01*
X30380Y3138D02*
Y4130D01*
X32156Y3138D02*
Y4130D01*
X6511Y5114D02*
X7504D01*
X6511Y6890D02*
X7504D01*
X13480Y5114D02*
X14472D01*
X13480Y6890D02*
X14472D01*
X27657Y5114D02*
X28649D01*
X27657Y6890D02*
X28649D01*
X34746Y5114D02*
X35738D01*
X34746Y6890D02*
X35738D01*
X6811Y3102D02*
Y4094D01*
X5035Y3102D02*
Y4094D01*
X13691Y3102D02*
Y4094D01*
X11915Y3102D02*
Y4094D01*
X27576Y3100D02*
Y4092D01*
X25800Y3100D02*
Y4092D01*
X34666Y3130D02*
Y4122D01*
X32890Y3130D02*
Y4122D01*
X4710Y20670D02*
Y25323D01*
X-1496Y20670D02*
X4710D01*
X-1496D02*
Y25323D01*
X4710D01*
D122*
X10363Y24488D02*
X10717D01*
X10363Y29548D02*
X10717D01*
X2273Y26372D02*
X2627D01*
X5408Y27273D02*
Y27627D01*
X26163Y34702D02*
X26517D01*
X26163Y34152D02*
X26517D01*
X1874Y7402D02*
X2229D01*
X8843D02*
X9197D01*
X23020D02*
X23374D01*
X30109D02*
X30463D01*
X5607Y7828D02*
X5962D01*
X12576D02*
X12930D01*
X26753D02*
X27107D01*
X33842D02*
X34196D01*
X15933Y7392D02*
X16287D01*
X19667Y7838D02*
X20021D01*
X13228Y20623D02*
Y20977D01*
X1243Y33828D02*
X1597D01*
X6280Y36280D02*
X6634D01*
X9233Y36332D02*
X9587D01*
X13253D02*
X13607D01*
X17263Y36332D02*
X17617D01*
X22083Y36332D02*
X22437D01*
X1181Y3878D02*
Y4232D01*
X8593Y3356D02*
Y3711D01*
X22465Y3423D02*
Y3777D01*
X29568Y3423D02*
Y3777D01*
X1683Y4332D02*
X2037D01*
X8702Y4322D02*
X9056D01*
X22830D02*
X23184D01*
X29919D02*
X30273D01*
X7993Y3423D02*
Y3777D01*
X14763Y3423D02*
Y3777D01*
X28348Y3273D02*
Y3627D01*
X35734Y3423D02*
Y3777D01*
X6524Y4332D02*
X6879D01*
X13493D02*
X13847D01*
X27670D02*
X28024D01*
X34759D02*
X35113D01*
X15379Y3423D02*
Y3777D01*
X15744Y4322D02*
X16098D01*
X21559Y3423D02*
Y3777D01*
X20584Y4332D02*
X20938D01*
X21220Y27982D02*
X21575D01*
X12843Y16888D02*
X13197D01*
X30618Y27453D02*
Y27807D01*
X29838Y27453D02*
Y27807D01*
X13228Y21623D02*
Y21977D01*
X12083Y23288D02*
X12437D01*
X38113Y8682D02*
X38467D01*
X38113Y9222D02*
X38467D01*
X34431Y38357D02*
Y38711D01*
X16348Y26893D02*
Y27247D01*
X15253Y27088D02*
X15607D01*
X4705Y34626D02*
Y34980D01*
X6299Y35787D02*
X6654D01*
X10243Y36332D02*
X10597D01*
X14273Y36332D02*
X14627D01*
X18273Y36332D02*
X18627D01*
X23773Y36608D02*
X24127D01*
X37228Y16463D02*
Y16817D01*
X26863Y16907D02*
X27217D01*
X29373Y16922D02*
X29727D01*
X31833Y17158D02*
X32187D01*
X34363Y16912D02*
X34717D01*
X26863Y16157D02*
X27217D01*
X29373Y16172D02*
X29727D01*
X31833Y16408D02*
X32187D01*
X34363Y16162D02*
X34717D01*
X21253Y26362D02*
X21607D01*
X13403Y18208D02*
X13757D01*
X7553Y20348D02*
X7907D01*
D125*
X36000Y14550D02*
G03*
X36000Y14550I-350J0D01*
G01*
X35000D02*
G03*
X35000Y14550I-350J0D01*
G01*
X34000D02*
G03*
X34000Y14550I-350J0D01*
G01*
X33000D02*
G03*
X33000Y14550I-350J0D01*
G01*
X37000D02*
G03*
X37000Y14550I-350J0D01*
G01*
X21950Y1450D02*
G03*
X21950Y1450I-350J0D01*
G01*
X22950D02*
G03*
X22950Y1450I-350J0D01*
G01*
X23950D02*
G03*
X23950Y1450I-350J0D01*
G01*
X24950D02*
G03*
X24950Y1450I-350J0D01*
G01*
X16850D02*
G03*
X16850Y1450I-350J0D01*
G01*
X17850D02*
G03*
X17850Y1450I-350J0D01*
G01*
X18850D02*
G03*
X18850Y1450I-350J0D01*
G01*
X19850D02*
G03*
X19850Y1450I-350J0D01*
G01*
X7900D02*
G03*
X7900Y1450I-350J0D01*
G01*
X6900D02*
G03*
X6900Y1450I-350J0D01*
G01*
X5900D02*
G03*
X5900Y1450I-350J0D01*
G01*
X4900D02*
G03*
X4900Y1450I-350J0D01*
G01*
X13800D02*
G03*
X13800Y1450I-350J0D01*
G01*
X12800D02*
G03*
X12800Y1450I-350J0D01*
G01*
X11800D02*
G03*
X11800Y1450I-350J0D01*
G01*
X10800D02*
G03*
X10800Y1450I-350J0D01*
G01*
X30850D02*
G03*
X30850Y1450I-350J0D01*
G01*
X29850D02*
G03*
X29850Y1450I-350J0D01*
G01*
X28850D02*
G03*
X28850Y1450I-350J0D01*
G01*
X27850D02*
G03*
X27850Y1450I-350J0D01*
G01*
X36800D02*
G03*
X36800Y1450I-350J0D01*
G01*
X35800D02*
G03*
X35800Y1450I-350J0D01*
G01*
X34800D02*
G03*
X34800Y1450I-350J0D01*
G01*
X33800D02*
G03*
X33800Y1450I-350J0D01*
G01*
X39530Y7550D02*
G03*
X39530Y7550I-350J0D01*
G01*
Y6550D02*
G03*
X39530Y6550I-350J0D01*
G01*
Y5550D02*
G03*
X39530Y5550I-350J0D01*
G01*
Y4550D02*
G03*
X39530Y4550I-350J0D01*
G01*
X22994Y28376D02*
X23191D01*
X22994Y28555D02*
X23191D01*
X39388Y36457D02*
X39625Y36299D01*
Y36617D01*
X39388Y36457D02*
X39625Y36617D01*
X39191Y36181D02*
Y36737D01*
Y36181D02*
X39985D01*
Y36737D01*
X39191D02*
X39985D01*
X4990Y28090D02*
X5186D01*
X4990Y28268D02*
X5186D01*
X4850Y27230D02*
Y27426D01*
X4672Y27230D02*
Y27426D01*
X9174Y23130D02*
X9370D01*
X9174Y22952D02*
X9370D01*
X17870Y26280D02*
X18066D01*
X17870Y26458D02*
X18066D01*
X18042Y27270D02*
Y27466D01*
X18220Y27270D02*
Y27466D01*
X20338Y29294D02*
Y29490D01*
X20160Y29294D02*
Y29490D01*
X18838Y27273D02*
Y27470D01*
X18660Y27273D02*
Y27470D01*
X28228Y14134D02*
Y14330D01*
X28050Y14134D02*
Y14330D01*
X5055Y34231D02*
X5575D01*
Y33111D02*
Y34231D01*
X5055Y33111D02*
X5575D01*
X5055D02*
Y34231D01*
X15420Y16384D02*
Y16580D01*
X15598Y16384D02*
Y16580D01*
X20820Y36537D02*
X21057Y36380D01*
X20820Y36220D02*
Y36537D01*
Y36220D02*
X21057Y36380D01*
X21254Y36100D02*
Y36656D01*
X20460D02*
X21254D01*
X20460Y36100D02*
Y36656D01*
Y36100D02*
X21254D01*
X16520Y35953D02*
X16677Y36190D01*
X16360D02*
X16677D01*
X16360D02*
X16520Y35953D01*
X16240Y35756D02*
X16796D01*
Y36550D01*
X16240D02*
X16796D01*
X16240Y35756D02*
Y36550D01*
X12540Y35953D02*
X12697Y36190D01*
X12380D02*
X12697D01*
X12380D02*
X12540Y35953D01*
X12260Y35756D02*
X12816D01*
Y36550D01*
X12260D02*
X12816D01*
X12260Y35756D02*
Y36550D01*
X8600Y35913D02*
X8757Y36150D01*
X8440D02*
X8757D01*
X8440D02*
X8600Y35913D01*
X8320Y35716D02*
X8876D01*
Y36510D01*
X8320D02*
X8876D01*
X8320Y35716D02*
Y36510D01*
X4941Y35807D02*
X5098Y36044D01*
X4781D02*
X5098D01*
X4781D02*
X4941Y35807D01*
X4661Y35610D02*
X5217D01*
Y36404D01*
X4661D02*
X5217D01*
X4661Y35610D02*
Y36404D01*
X2343Y33680D02*
X2580Y33523D01*
Y33840D01*
X2343Y33680D02*
X2580Y33840D01*
X2146Y33404D02*
Y33960D01*
Y33404D02*
X2940D01*
Y33960D01*
X2146D02*
X2940D01*
X24529Y29496D02*
Y29693D01*
X24351Y29496D02*
Y29693D01*
X23680Y31856D02*
X23876D01*
X23680Y32034D02*
X23876D01*
X19093Y32774D02*
X19289D01*
X19093Y32952D02*
X19289D01*
X15080Y33611D02*
Y33807D01*
X14902Y33611D02*
Y33807D01*
X11045Y33611D02*
Y33807D01*
X10867Y33611D02*
Y33807D01*
X17626Y31603D02*
X17823D01*
X17626Y31781D02*
X17823D01*
X23886Y30730D02*
Y30927D01*
X24065Y30730D02*
Y30927D01*
X20034Y31160D02*
X20230D01*
X20034Y30982D02*
X20230D01*
X16124Y32747D02*
X16320D01*
X16124Y32569D02*
X16320D01*
X12108Y32738D02*
X12305D01*
X12108Y32559D02*
X12305D01*
X20660Y8310D02*
Y8506D01*
X20482Y8310D02*
Y8506D01*
X21660Y7740D02*
X21856D01*
X21660Y7918D02*
X21856D01*
X35230Y8320D02*
Y8516D01*
X35052Y8320D02*
Y8516D01*
X28150Y8320D02*
Y8516D01*
X27972Y8320D02*
Y8516D01*
X13960Y8320D02*
Y8516D01*
X13782Y8320D02*
Y8516D01*
X7000Y8320D02*
Y8516D01*
X6822Y8320D02*
Y8516D01*
X35840Y7360D02*
X36036D01*
X35840Y7538D02*
X36036D01*
X28730Y7360D02*
X28926D01*
X28730Y7538D02*
X28926D01*
X13560Y8320D02*
Y8516D01*
X13382Y8320D02*
Y8516D01*
X6600Y8320D02*
Y8516D01*
X6422Y8320D02*
Y8516D01*
X11085Y20277D02*
X11281D01*
X11085Y20099D02*
X11281D01*
X1131Y19130D02*
X1328D01*
X1131Y19308D02*
X1328D01*
X12390Y27874D02*
Y28070D01*
X12568Y27874D02*
Y28070D01*
X36253Y16600D02*
X36410Y16837D01*
X36253Y16600D02*
X36570D01*
X36410Y16837D02*
X36570Y16600D01*
X36134Y17034D02*
X36690D01*
X36134Y16240D02*
Y17034D01*
Y16240D02*
X36690D01*
Y17034D01*
X35350Y14700D02*
X35950Y14400D01*
X34450Y14800D02*
X34850Y14300D01*
X33350Y14450D02*
X33950Y14600D01*
X32400Y14350D02*
X32850Y14800D01*
X36350Y14700D02*
X36950Y14400D01*
X28344Y20610D02*
X28540D01*
X28344Y20432D02*
X28540D01*
X31804Y20610D02*
X32000D01*
X31804Y20432D02*
X32000D01*
X35774Y20610D02*
X35970D01*
X35774Y20432D02*
X35970D01*
X26724Y20609D02*
X26920D01*
X26724Y20431D02*
X26920D01*
X30154Y20610D02*
X30350D01*
X30154Y20432D02*
X30350D01*
X34114Y20610D02*
X34310D01*
X34114Y20432D02*
X34310D01*
X39705Y35955D02*
X39902D01*
X39705Y35777D02*
X39902D01*
X39709Y35378D02*
X39905D01*
X39709Y35557D02*
X39905D01*
X38644Y3192D02*
X38840D01*
X38644Y3370D02*
X38840D01*
X39539Y36918D02*
X39736D01*
X39539Y37096D02*
X39736D01*
X3262Y900D02*
Y1096D01*
X3440Y900D02*
Y1096D01*
X2428Y36834D02*
Y37030D01*
X2250Y36834D02*
Y37030D01*
X730Y10148D02*
X926D01*
X730Y9970D02*
X926D01*
X3294Y29462D02*
X3490D01*
X3294Y29640D02*
X3490D01*
X23070Y15568D02*
X23266D01*
X23070Y15390D02*
X23266D01*
X23054Y16482D02*
X23250D01*
X23054Y16660D02*
X23250D01*
X23060Y16258D02*
X23256D01*
X23060Y16080D02*
X23256D01*
X6044Y35265D02*
X6564D01*
Y34145D02*
Y35265D01*
X6044Y34145D02*
X6564D01*
X6044D02*
Y35265D01*
X7768Y13101D02*
X7964D01*
X7768Y13279D02*
X7964D01*
X15278Y12717D02*
X15474D01*
X15278Y12895D02*
X15474D01*
X25543Y13248D02*
X25740D01*
X25543Y13427D02*
X25740D01*
X27805Y14136D02*
Y14332D01*
X27627Y14136D02*
Y14332D01*
X20415Y12412D02*
X20612D01*
X20415Y12590D02*
X20612D01*
X30599Y15718D02*
X30795D01*
X30599Y15540D02*
X30795D01*
X1936Y8300D02*
Y8496D01*
X2114Y8300D02*
Y8496D01*
X8905Y8300D02*
Y8496D01*
X9083Y8300D02*
Y8496D01*
X23082Y8300D02*
Y8496D01*
X23260Y8300D02*
Y8496D01*
X30171Y8300D02*
Y8496D01*
X30349Y8300D02*
Y8496D01*
X5856Y11500D02*
Y11696D01*
X6034Y11500D02*
Y11696D01*
X12842Y11500D02*
Y11696D01*
X13020Y11500D02*
Y11696D01*
X27022Y11500D02*
Y11696D01*
X27200Y11500D02*
Y11696D01*
X34102Y11500D02*
Y11696D01*
X34280Y11500D02*
Y11696D01*
X5855Y30848D02*
Y31045D01*
X6033Y30848D02*
Y31045D01*
X7886Y32747D02*
X8082D01*
X7886Y32569D02*
X8082D01*
X21660Y7360D02*
X21856D01*
X21660Y7538D02*
X21856D01*
X16908Y7682D02*
X17104D01*
X16908Y7860D02*
X17104D01*
X16174Y8300D02*
Y8496D01*
X15996Y8300D02*
Y8496D01*
X20114Y11500D02*
Y11696D01*
X19936Y11500D02*
Y11696D01*
X13940Y20560D02*
Y20756D01*
X13762Y20560D02*
Y20756D01*
X15874Y26370D02*
X16070D01*
X15874Y26192D02*
X16070D01*
X13804Y16850D02*
X14000D01*
X13804Y16672D02*
X14000D01*
X13910Y22314D02*
Y22510D01*
X14088Y22314D02*
Y22510D01*
X20560Y26404D02*
Y26600D01*
X20738Y26404D02*
Y26600D01*
X27524Y20912D02*
X27720D01*
X27524Y21090D02*
X27720D01*
X30974Y20902D02*
X31170D01*
X30974Y21080D02*
X31170D01*
X34944Y20902D02*
X35140D01*
X34944Y21080D02*
X35140D01*
X23750Y20100D02*
Y20296D01*
X23572Y20100D02*
Y20296D01*
X21510Y16300D02*
Y16496D01*
X21332Y16300D02*
Y16496D01*
X14080Y23090D02*
Y23286D01*
X13902Y23090D02*
Y23286D01*
X13430Y19910D02*
X13626D01*
X13430Y20088D02*
X13626D01*
X13750Y24070D02*
X13946D01*
X13750Y24248D02*
X13946D01*
X13420Y19510D02*
X13616D01*
X13420Y19688D02*
X13616D01*
X25934Y20432D02*
X26130D01*
X25934Y20610D02*
X26130D01*
X29324Y20912D02*
X29520D01*
X29324Y21090D02*
X29520D01*
X33264Y20902D02*
X33460D01*
X33264Y21080D02*
X33460D01*
X19960Y26230D02*
X20156D01*
X19960Y26408D02*
X20156D01*
X23580Y21104D02*
Y21300D01*
X23758Y21104D02*
Y21300D01*
X21924Y16450D02*
X22120D01*
X21924Y16272D02*
X22120D01*
X25028Y29842D02*
X25224D01*
X25028Y29664D02*
X25224D01*
X25750Y27958D02*
X25946D01*
X25750Y28136D02*
X25946D01*
X25750Y28388D02*
X25946D01*
X25750Y28566D02*
X25946D01*
X37468Y39014D02*
Y39210D01*
X37290Y39014D02*
Y39210D01*
X31287Y37166D02*
X31483D01*
X31287Y37344D02*
X31483D01*
X1034Y20002D02*
X1230D01*
X1034Y20180D02*
X1230D01*
X26200Y16382D02*
Y16579D01*
X26378Y16382D02*
Y16579D01*
X28710Y16398D02*
Y16594D01*
X28888Y16398D02*
Y16594D01*
X31348Y16358D02*
Y16554D01*
X31170Y16358D02*
Y16554D01*
X33878Y16388D02*
Y16584D01*
X33700Y16388D02*
Y16584D01*
X17618Y27273D02*
Y27470D01*
X17440Y27273D02*
Y27470D01*
X14108Y24644D02*
Y24840D01*
X13930Y24644D02*
Y24840D01*
X7470Y7928D02*
X7666D01*
X7470Y7750D02*
X7666D01*
X14580Y7938D02*
X14776D01*
X14580Y7760D02*
X14776D01*
X28730Y7928D02*
X28926D01*
X28730Y7750D02*
X28926D01*
X35840Y7928D02*
X36036D01*
X35840Y7750D02*
X36036D01*
X14790Y16384D02*
Y16580D01*
X14968Y16384D02*
Y16580D01*
X11990Y28260D02*
Y28456D01*
X11812Y28260D02*
Y28456D01*
X6510Y27570D02*
X6706D01*
X6510Y27748D02*
X6706D01*
X6890Y28360D02*
Y28556D01*
X6712Y28360D02*
Y28556D01*
X2848Y7682D02*
X3044D01*
X2848Y7860D02*
X3044D01*
X9817Y7712D02*
X10013D01*
X9817Y7890D02*
X10013D01*
X23994Y7682D02*
X24190D01*
X23994Y7860D02*
X24190D01*
X31082Y7682D02*
X31279D01*
X31082Y7860D02*
X31279D01*
X826Y26900D02*
X1620D01*
Y26344D02*
Y26900D01*
X826Y26344D02*
X1620D01*
X826D02*
Y26900D01*
X1023Y26620D02*
X1260Y26780D01*
Y26463D02*
Y26780D01*
X1023Y26620D02*
X1260Y26463D01*
X16550Y38870D02*
X17050D01*
X16550Y38370D02*
X17050Y38870D01*
X16550D02*
X17050Y38370D01*
Y38870D01*
X16550Y38370D02*
X17050D01*
X16550D02*
Y38870D01*
X20550D02*
X21050Y38370D01*
X20550D02*
X21050Y38870D01*
X20550Y38370D02*
Y38870D01*
Y38370D02*
X21050D01*
Y38870D01*
X20550D02*
X21050D01*
X18550Y38370D02*
X19050Y38870D01*
X18550D02*
X19050Y38370D01*
X18550D02*
X19050D01*
X18550D02*
Y38870D01*
X19050D01*
Y38370D02*
Y38870D01*
X22550Y38370D02*
X23050Y38870D01*
X22550D02*
X23050Y38370D01*
X22550D02*
X23050D01*
X22550D02*
Y38870D01*
X23050D01*
Y38370D02*
Y38870D01*
X21300Y1600D02*
X21900Y1300D01*
X22400Y1700D02*
X22800Y1200D01*
X23300Y1400D02*
X23900Y1550D01*
X24400Y1200D02*
X24850Y1650D01*
X16200Y1600D02*
X16800Y1300D01*
X17300Y1700D02*
X17700Y1200D01*
X18200Y1400D02*
X18800Y1550D01*
X19300Y1200D02*
X19750Y1650D01*
X7350Y1200D02*
X7800Y1650D01*
X6250Y1400D02*
X6850Y1550D01*
X5350Y1700D02*
X5750Y1200D01*
X4250Y1600D02*
X4850Y1300D01*
X13250Y1200D02*
X13700Y1650D01*
X12150Y1400D02*
X12750Y1550D01*
X11250Y1700D02*
X11650Y1200D01*
X10150Y1600D02*
X10750Y1300D01*
X30300Y1200D02*
X30750Y1650D01*
X29200Y1400D02*
X29800Y1550D01*
X28300Y1700D02*
X28700Y1200D01*
X27200Y1600D02*
X27800Y1300D01*
X36250Y1200D02*
X36700Y1650D01*
X35150Y1400D02*
X35750Y1550D01*
X34250Y1700D02*
X34650Y1200D01*
X33150Y1600D02*
X33750Y1300D01*
X2510Y28310D02*
X2706D01*
X2510Y28488D02*
X2706D01*
X2510Y27700D02*
X2706D01*
X2510Y27878D02*
X2706D01*
X27524Y20432D02*
X27720D01*
X27524Y20610D02*
X27720D01*
X30974Y20432D02*
X31170D01*
X30974Y20610D02*
X31170D01*
X34944Y20432D02*
X35140D01*
X34944Y20610D02*
X35140D01*
X25934Y20912D02*
X26130D01*
X25934Y21090D02*
X26130D01*
X29324Y20432D02*
X29520D01*
X29324Y20610D02*
X29520D01*
X33264Y20432D02*
X33460D01*
X33264Y20610D02*
X33460D01*
X7470Y8328D02*
X7666D01*
X7470Y8150D02*
X7666D01*
X14580Y8328D02*
X14776D01*
X14580Y8150D02*
X14776D01*
X28730Y8318D02*
X28926D01*
X28730Y8140D02*
X28926D01*
X35840Y8328D02*
X36036D01*
X35840Y8150D02*
X36036D01*
X7470Y7538D02*
X7666D01*
X7470Y7360D02*
X7666D01*
X14580Y7548D02*
X14776D01*
X14580Y7370D02*
X14776D01*
X27572Y8320D02*
Y8516D01*
X27750Y8320D02*
Y8516D01*
X34652Y8320D02*
Y8516D01*
X34830Y8320D02*
Y8516D01*
X1700Y8301D02*
Y8497D01*
X1521Y8301D02*
Y8497D01*
X8668Y8301D02*
Y8497D01*
X8490Y8301D02*
Y8497D01*
X22845Y8301D02*
Y8497D01*
X22667Y8301D02*
Y8497D01*
X29934Y8301D02*
Y8497D01*
X29756Y8301D02*
Y8497D01*
X5384Y11504D02*
Y11700D01*
X5563Y11504D02*
Y11700D01*
X12373Y11504D02*
Y11700D01*
X12551Y11504D02*
Y11700D01*
X26550Y11504D02*
Y11700D01*
X26728Y11504D02*
Y11700D01*
X33640Y11504D02*
Y11700D01*
X33818Y11504D02*
Y11700D01*
X5134Y11500D02*
Y11696D01*
X4956Y11500D02*
Y11696D01*
X12123Y11500D02*
Y11696D01*
X11945Y11500D02*
Y11696D01*
X26300Y11500D02*
Y11696D01*
X26122Y11500D02*
Y11696D01*
X33390Y11500D02*
Y11696D01*
X33212Y11500D02*
Y11696D01*
X5314Y32512D02*
Y32708D01*
X5492Y32512D02*
Y32708D01*
X6239Y33102D02*
Y33299D01*
X6417Y33102D02*
Y33299D01*
X17626Y31358D02*
X17823D01*
X17626Y31180D02*
X17823D01*
X6652Y33093D02*
Y33289D01*
X6830Y33093D02*
Y33289D01*
X6455Y33768D02*
X6652D01*
X6455Y33946D02*
X6652D01*
X10875Y32837D02*
Y33033D01*
X11053Y32837D02*
Y33033D01*
X23318Y27705D02*
Y27902D01*
X23140Y27705D02*
Y27902D01*
X14900Y32837D02*
Y33033D01*
X15078Y32837D02*
Y33033D01*
X25746Y27006D02*
X25943D01*
X25746Y27185D02*
X25943D01*
X18798Y32157D02*
Y32354D01*
X18976Y32157D02*
Y32354D01*
X24076Y29496D02*
Y29693D01*
X23898Y29496D02*
Y29693D01*
X23680Y31436D02*
X23876D01*
X23680Y31614D02*
X23876D01*
X20882Y8310D02*
Y8506D01*
X21060Y8310D02*
Y8506D01*
X15581Y8301D02*
Y8497D01*
X15759Y8301D02*
Y8497D01*
X19464Y11504D02*
Y11700D01*
X19642Y11504D02*
Y11700D01*
X19214Y11500D02*
Y11696D01*
X19036Y11500D02*
Y11696D01*
X2513Y29100D02*
X2710D01*
X2513Y28922D02*
X2710D01*
X30523Y38244D02*
X30720D01*
X30523Y38422D02*
X30720D01*
X30870Y37620D02*
Y37816D01*
X30692Y37620D02*
Y37816D01*
X6091Y19411D02*
Y19608D01*
X6269Y19411D02*
Y19608D01*
X1034Y19780D02*
X1230D01*
X1034Y19602D02*
X1230D01*
X13038Y25054D02*
Y25250D01*
X12860Y25054D02*
Y25250D01*
X13650Y21908D02*
X13846D01*
X13650Y21730D02*
X13846D01*
X12862Y25980D02*
Y26176D01*
X13040Y25980D02*
Y26176D01*
X13690Y24650D02*
Y24846D01*
X13512Y24650D02*
Y24846D01*
X12040Y25438D02*
X12236D01*
X12040Y25260D02*
X12236D01*
X6500Y26258D02*
X6696D01*
X6500Y26080D02*
X6696D01*
X12050Y25988D02*
X12246D01*
X12050Y25810D02*
X12246D01*
X6500Y25818D02*
X6696D01*
X6500Y25640D02*
X6696D01*
X1630Y25800D02*
Y25996D01*
X1452Y25800D02*
Y25996D01*
X-300Y30850D02*
X-150D01*
X-300D02*
Y31850D01*
X-150D01*
X550Y30000D02*
X1150D01*
X550Y32700D02*
X1150D01*
X700Y31250D02*
Y31350D01*
Y31450D01*
Y31350D02*
X850D01*
X1000Y30700D02*
Y31150D01*
X850D02*
X1000Y31650D01*
Y32000D01*
X2400Y29900D02*
Y30000D01*
X1350D02*
X2400D01*
X1350Y32700D02*
X2400D01*
Y32800D01*
X1350D02*
X2400D01*
X1350Y29900D02*
X2400D01*
X38980Y7800D02*
X39430Y7350D01*
X39080Y6850D02*
X39230Y6250D01*
X38930Y5350D02*
X39430Y5750D01*
X39030Y4250D02*
X39330Y4850D01*
X1198Y25804D02*
Y26000D01*
X1020Y25804D02*
Y26000D01*
X6081Y20415D02*
Y20612D01*
X6259Y20415D02*
Y20612D01*
X5314Y19411D02*
Y19608D01*
X5492Y19411D02*
Y19608D01*
X3471Y19410D02*
Y19606D01*
X3293Y19410D02*
Y19606D01*
X4677Y19408D02*
Y19604D01*
X4498Y19408D02*
Y19604D01*
X21660Y8322D02*
X21856D01*
X21660Y8144D02*
X21856D01*
X30892Y36230D02*
Y36426D01*
X31070Y36230D02*
Y36426D01*
X31621Y36233D02*
Y36430D01*
X31443Y36233D02*
Y36430D01*
X-6010Y14165D02*
Y14565D01*
X-5910D01*
X-5510Y14165D01*
X-5410D01*
X-5510Y14765D02*
X-5410Y14865D01*
Y15065D01*
X-5510Y15165D01*
X-5910D01*
X-6010Y15065D01*
Y14865D01*
X-5910Y14765D01*
X-5810D01*
X-5710Y14865D01*
Y15165D01*
X-5410Y15365D02*
X-5510D01*
Y15465D01*
X-5410D01*
Y15365D01*
X-6010Y16265D02*
X-5910Y16065D01*
X-5710Y15865D01*
X-5510D01*
X-5410Y15965D01*
Y16165D01*
X-5510Y16265D01*
X-5610D01*
X-5710Y16165D01*
Y15865D01*
X-5910Y16465D02*
X-6010Y16565D01*
Y16765D01*
X-5910Y16865D01*
X-5810D01*
X-5710Y16765D01*
Y16665D01*
Y16765D01*
X-5610Y16865D01*
X-5510D01*
X-5410Y16765D01*
Y16565D01*
X-5510Y16465D01*
X-1800Y36710D02*
X-1900Y36810D01*
Y37010D01*
X-1800Y37110D01*
X-1700D01*
X-1600Y37010D01*
Y36910D01*
Y37010D01*
X-1500Y37110D01*
X-1400D01*
X-1300Y37010D01*
Y36810D01*
X-1400Y36710D01*
X-1300Y37310D02*
X-1400D01*
Y37410D01*
X-1300D01*
Y37310D01*
X-1800Y37810D02*
X-1900Y37910D01*
Y38110D01*
X-1800Y38210D01*
X-1700D01*
X-1600Y38110D01*
X-1500Y38210D01*
X-1400D01*
X-1300Y38110D01*
Y37910D01*
X-1400Y37810D01*
X-1500D01*
X-1600Y37910D01*
X-1700Y37810D01*
X-1800D01*
X-1600Y37910D02*
Y38110D01*
X-1300Y38409D02*
Y38609D01*
Y38509D01*
X-1900D01*
X-1800Y38409D01*
X2060Y42190D02*
X2160Y42290D01*
X2360D01*
X2460Y42190D01*
Y42090D01*
X2360Y41990D01*
X2260D01*
X2360D01*
X2460Y41890D01*
Y41790D01*
X2360Y41690D01*
X2160D01*
X2060Y41790D01*
X2660Y41690D02*
Y41790D01*
X2760D01*
Y41690D01*
X2660D01*
X3160Y42190D02*
X3260Y42290D01*
X3460D01*
X3560Y42190D01*
Y42090D01*
X3460Y41990D01*
X3560Y41890D01*
Y41790D01*
X3460Y41690D01*
X3260D01*
X3160Y41790D01*
Y41890D01*
X3260Y41990D01*
X3160Y42090D01*
Y42190D01*
X3260Y41990D02*
X3460D01*
X3759Y41690D02*
X3959D01*
X3859D01*
Y42290D01*
X3759Y42190D01*
X-6690Y18491D02*
Y18690D01*
Y18590D01*
X-7290D01*
X-7190Y18491D01*
Y18990D02*
X-7290Y19090D01*
Y19290D01*
X-7190Y19390D01*
X-6790D01*
X-6690Y19290D01*
Y19090D01*
X-6790Y18990D01*
X-7190D01*
X-6690Y19990D02*
Y19590D01*
X-7090Y19990D01*
X-7190D01*
X-7290Y19890D01*
Y19690D01*
X-7190Y19590D01*
X-6690Y20190D02*
X-6790D01*
Y20290D01*
X-6690D01*
Y20190D01*
X-7190Y20690D02*
X-7290Y20790D01*
Y20990D01*
X-7190Y21090D01*
X-7090D01*
X-6990Y20990D01*
X-6890Y21090D01*
X-6790D01*
X-6690Y20990D01*
Y20790D01*
X-6790Y20690D01*
X-6890D01*
X-6990Y20790D01*
X-7090Y20690D01*
X-7190D01*
X-6990Y20790D02*
Y20990D01*
X-7290Y21290D02*
Y21689D01*
X-7190D01*
X-6790Y21290D01*
X-6690D01*
X-4210Y18740D02*
X-4110Y18840D01*
Y19040D01*
X-4210Y19140D01*
X-4610D01*
X-4710Y19040D01*
Y18840D01*
X-4610Y18740D01*
X-4510D01*
X-4410Y18840D01*
Y19140D01*
X-4710Y19740D02*
Y19340D01*
X-4410D01*
X-4510Y19540D01*
Y19640D01*
X-4410Y19740D01*
X-4210D01*
X-4110Y19640D01*
Y19440D01*
X-4210Y19340D01*
X-4110Y19940D02*
X-4210D01*
Y20040D01*
X-4110D01*
Y19940D01*
Y20840D02*
Y20440D01*
X-4510Y20840D01*
X-4610D01*
X-4710Y20740D01*
Y20540D01*
X-4610Y20440D01*
X-4710Y21440D02*
Y21040D01*
X-4410D01*
X-4510Y21240D01*
Y21340D01*
X-4410Y21440D01*
X-4210D01*
X-4110Y21340D01*
Y21140D01*
X-4210Y21040D01*
X18990Y43160D02*
X19090Y43060D01*
X19290D01*
X19390Y43160D01*
Y43560D01*
X19290Y43660D01*
X19090D01*
X18990Y43560D01*
Y43460D01*
X19090Y43360D01*
X19390D01*
X19990Y43660D02*
X19790Y43560D01*
X19590Y43360D01*
Y43160D01*
X19690Y43060D01*
X19890D01*
X19990Y43160D01*
Y43260D01*
X19890Y43360D01*
X19590D01*
X20190Y43060D02*
Y43160D01*
X20290D01*
Y43060D01*
X20190D01*
X21090Y43660D02*
X20690D01*
Y43360D01*
X20890Y43460D01*
X20990D01*
X21090Y43360D01*
Y43160D01*
X20990Y43060D01*
X20790D01*
X20690Y43160D01*
X21690Y43060D02*
X21290D01*
X21690Y43460D01*
Y43560D01*
X21590Y43660D01*
X21390D01*
X21290Y43560D01*
X18791Y44590D02*
X18990D01*
X18890D01*
Y45190D01*
X18791Y45090D01*
X19290D02*
X19390Y45190D01*
X19590D01*
X19690Y45090D01*
Y44690D01*
X19590Y44590D01*
X19390D01*
X19290Y44690D01*
Y45090D01*
X20190Y44590D02*
Y45190D01*
X19890Y44890D01*
X20290D01*
X20490Y44590D02*
Y44690D01*
X20590D01*
Y44590D01*
X20490D01*
X20990D02*
X21190D01*
X21090D01*
Y45190D01*
X20990Y45090D01*
X21790Y44590D02*
Y45190D01*
X21490Y44890D01*
X21890D01*
D127*
X10363Y24212D02*
X10717D01*
X10363Y29272D02*
X10717D01*
X2273Y26648D02*
X2627D01*
X5132Y27273D02*
Y27627D01*
X26163Y34978D02*
X26517D01*
X26163Y34428D02*
X26517D01*
X26476Y29376D02*
Y29676D01*
X25957Y29376D02*
Y29666D01*
X1874Y7678D02*
X2229D01*
X8843D02*
X9197D01*
X23020D02*
X23374D01*
X30109D02*
X30463D01*
X5607Y7552D02*
X5962D01*
X12576D02*
X12930D01*
X26753D02*
X27107D01*
X33842D02*
X34196D01*
X15933Y7668D02*
X16287D01*
X19667Y7562D02*
X20021D01*
X12952Y20623D02*
Y20977D01*
X1243Y33552D02*
X1597D01*
X6280Y36555D02*
X6634D01*
X9233Y36608D02*
X9587D01*
X13253D02*
X13607D01*
X17263Y36608D02*
X17617D01*
X22083Y36608D02*
X22437D01*
X906Y3878D02*
Y4232D01*
X8317Y3356D02*
Y3711D01*
X22189Y3423D02*
Y3777D01*
X29292Y3423D02*
Y3777D01*
X1683Y4608D02*
X2037D01*
X8702Y4598D02*
X9056D01*
X22830D02*
X23184D01*
X29919D02*
X30273D01*
X7717Y3423D02*
Y3777D01*
X14487Y3423D02*
Y3777D01*
X28072Y3273D02*
Y3627D01*
X35458Y3423D02*
Y3777D01*
X6524Y4608D02*
X6879D01*
X13493D02*
X13847D01*
X27670D02*
X28024D01*
X34759D02*
X35113D01*
X2241Y19660D02*
X2541D01*
X2251Y19140D02*
X2541D01*
X15103Y3423D02*
Y3777D01*
X15744Y4598D02*
X16098D01*
X21283Y3423D02*
Y3777D01*
X20584Y4608D02*
X20938D01*
X21220Y27707D02*
X21575D01*
X12843Y16612D02*
X13197D01*
X30342Y27453D02*
Y27807D01*
X29562Y27453D02*
Y27807D01*
X12952Y21623D02*
Y21977D01*
X12083Y23012D02*
X12437D01*
X38113Y8958D02*
X38467D01*
X38113Y9498D02*
X38467D01*
X34155Y38357D02*
Y38711D01*
X30402Y39045D02*
Y39345D01*
X30922Y39055D02*
Y39345D01*
X33783Y39224D02*
X34083D01*
X33783Y39744D02*
X34073D01*
X16072Y26893D02*
Y27247D01*
X15253Y26812D02*
X15607D01*
X1320Y28650D02*
X1687D01*
X1320Y28154D02*
X1677D01*
X5860Y35896D02*
Y36263D01*
X5364Y35906D02*
Y36263D01*
X10050Y36140D02*
X10417D01*
X10050Y35644D02*
X10407D01*
X14070Y36140D02*
X14437D01*
X14070Y35644D02*
X14427D01*
X1320Y28040D02*
X1687D01*
X1320Y27544D02*
X1677D01*
X18060Y36140D02*
X18427D01*
X18060Y35644D02*
X18417D01*
X22860Y35880D02*
Y36247D01*
X23356Y35880D02*
Y36237D01*
X24590Y36832D02*
X27150D01*
X24590Y39590D02*
X27150D01*
X28848Y30550D02*
Y33110D01*
X26090Y30550D02*
Y33110D01*
X37536Y10497D02*
Y13057D01*
X40294Y10497D02*
Y13057D01*
X27950Y16304D02*
Y16777D01*
X27633Y16304D02*
X27950D01*
X27633D02*
Y16777D01*
X27950D01*
X30143Y16792D02*
X30460D01*
X30143Y16320D02*
Y16792D01*
Y16320D02*
X30460D01*
Y16792D01*
X32603Y16752D02*
X32920D01*
X32603Y16280D02*
Y16752D01*
Y16280D02*
X32920D01*
Y16752D01*
X35450Y16310D02*
Y16782D01*
X35133Y16310D02*
X35450D01*
X35133D02*
Y16782D01*
X35450D01*
X28130Y16312D02*
X28447D01*
Y16784D01*
X28130D02*
X28447D01*
X28130Y16312D02*
Y16784D01*
X30640Y16328D02*
Y16800D01*
X30957D01*
Y16328D02*
Y16800D01*
X30640Y16328D02*
X30957D01*
X33110Y16268D02*
X33427D01*
Y16740D01*
X33110D02*
X33427D01*
X33110Y16268D02*
Y16740D01*
X35630Y16318D02*
Y16790D01*
X35947D01*
Y16318D02*
Y16790D01*
X35630Y16318D02*
X35947D01*
X3708Y34059D02*
X4075D01*
X3708Y33563D02*
X4065D01*
X21474Y27435D02*
X21774D01*
X21484Y26915D02*
X21774D01*
X13440Y17160D02*
X13740D01*
X13440Y17680D02*
X13730D01*
X10540Y23390D02*
X10840D01*
X10550Y22870D02*
X10840D01*
X1320Y29260D02*
X1687D01*
X1320Y28764D02*
X1677D01*
X4980Y34626D02*
Y34980D01*
X6299Y35512D02*
X6654D01*
X10243Y36608D02*
X10597D01*
X14273Y36608D02*
X14627D01*
X18273Y36608D02*
X18627D01*
X23773Y36332D02*
X24127D01*
X36952Y16463D02*
Y16817D01*
X26863Y17182D02*
X27217D01*
X29373Y17198D02*
X29727D01*
X31833Y16882D02*
X32187D01*
X34363Y17188D02*
X34717D01*
X26863Y16432D02*
X27217D01*
X29373Y16448D02*
X29727D01*
X31833Y16132D02*
X32187D01*
X34363Y16438D02*
X34717D01*
X21253Y26638D02*
X21607D01*
X13403Y17932D02*
X13757D01*
X7553Y20072D02*
X7907D01*
D129*
X7628Y35823D02*
D03*
X3957Y35646D02*
D03*
X11541Y35763D02*
D03*
X15531D02*
D03*
X19531Y35743D02*
D03*
X15491Y5807D02*
D03*
X21071Y5807D02*
D03*
X1431Y5807D02*
D03*
X8399Y5807D02*
D03*
X22577D02*
D03*
X29666Y5807D02*
D03*
X7011Y5807D02*
D03*
X13979Y5807D02*
D03*
X28157D02*
D03*
X35246Y5807D02*
D03*
D136*
X24953Y35629D02*
D03*
X16898Y3601D02*
D03*
X19789Y3602D02*
D03*
X36156Y36354D02*
D03*
X3232Y3601D02*
D03*
X10102D02*
D03*
X23984D02*
D03*
X31073Y3631D02*
D03*
X6118Y3602D02*
D03*
X12998D02*
D03*
X26883Y3599D02*
D03*
X33973Y3629D02*
D03*
D253*
X2830Y34100D02*
Y34475D01*
X575Y34100D02*
Y34475D01*
Y34100D02*
X2830D01*
Y34475D02*
X2950D01*
X575D02*
X2830D01*
X450D02*
X575D01*
X450Y36230D02*
X2950D01*
Y34475D02*
Y36230D01*
X450Y34475D02*
Y36230D01*
X29955Y26365D02*
Y26740D01*
X32210Y26365D02*
Y26740D01*
X29955D02*
X32210D01*
X29335Y26365D02*
X29955D01*
X32210D01*
X32835D01*
X29335Y24610D02*
X32835D01*
X29335D02*
Y26365D01*
X32835Y24610D02*
Y26365D01*
X36970Y24610D02*
Y26365D01*
X33470Y24610D02*
Y26365D01*
Y24610D02*
X36970D01*
X36345Y26365D02*
X36970D01*
X34090D02*
X36345D01*
X33470D02*
X34090D01*
Y26740D02*
X36345D01*
Y26365D02*
Y26740D01*
X34090Y26365D02*
Y26740D01*
X25820Y26365D02*
Y26740D01*
X28075Y26365D02*
Y26740D01*
X25820D02*
X28075D01*
X25200Y26365D02*
X25820D01*
X28075D01*
X28700D01*
X25200Y24610D02*
X28700D01*
X25200D02*
Y26365D01*
X28700Y24610D02*
Y26365D01*
X33470Y22215D02*
Y23970D01*
X36970Y22215D02*
Y23970D01*
X33470D02*
X36970D01*
X33470Y22215D02*
X34095D01*
X36350D01*
X36970D01*
X34095Y21840D02*
X36350D01*
X34095D02*
Y22215D01*
X36350Y21840D02*
Y22215D01*
X32215Y21840D02*
Y22215D01*
X29960Y21840D02*
Y22215D01*
Y21840D02*
X32215D01*
Y22215D02*
X32835D01*
X29960D02*
X32215D01*
X29335D02*
X29960D01*
X29335Y23970D02*
X32835D01*
Y22215D02*
Y23970D01*
X29335Y22215D02*
Y23970D01*
X25200Y22215D02*
Y23970D01*
X28700Y22215D02*
Y23970D01*
X25200D02*
X28700D01*
X25200Y22215D02*
X25825D01*
X28080D01*
X28700D01*
X25825Y21840D02*
X28080D01*
X25825D02*
Y22215D01*
X28080Y21840D02*
Y22215D01*
X27760Y17380D02*
Y17755D01*
X25505Y17380D02*
Y17755D01*
Y17380D02*
X27760D01*
Y17755D02*
X27880D01*
X25505D02*
X27760D01*
X25380D02*
X25505D01*
X25380Y19510D02*
X27880D01*
Y17755D02*
Y19510D01*
X25380Y17755D02*
Y19510D01*
X30930Y17380D02*
Y17755D01*
X28675Y17380D02*
Y17755D01*
Y17380D02*
X30930D01*
Y17755D02*
X31050D01*
X28675D02*
X30930D01*
X28550D02*
X28675D01*
X28550Y19510D02*
X31050D01*
Y17755D02*
Y19510D01*
X28550Y17755D02*
Y19510D01*
X34080Y17380D02*
Y17755D01*
X31825Y17380D02*
Y17755D01*
Y17380D02*
X34080D01*
Y17755D02*
X34200D01*
X31825D02*
X34080D01*
X31700D02*
X31825D01*
X31700Y19510D02*
X34200D01*
Y17755D02*
Y19510D01*
X31700Y17755D02*
Y19510D01*
X37210Y17380D02*
Y17755D01*
X34955Y17380D02*
Y17755D01*
Y17380D02*
X37210D01*
Y17755D02*
X37330D01*
X34955D02*
X37210D01*
X34830D02*
X34955D01*
X34830Y19510D02*
X37330D01*
Y17755D02*
Y19510D01*
X34830Y17755D02*
Y19510D01*
D254*
X23256Y28465D02*
D03*
X4925Y28180D02*
D03*
X9435Y23040D02*
D03*
X17805Y26370D02*
D03*
X23615Y31946D02*
D03*
X19028Y32864D02*
D03*
X17561Y31693D02*
D03*
X20295Y31070D02*
D03*
X16385Y32657D02*
D03*
X12370Y32648D02*
D03*
X21595Y7830D02*
D03*
X35775Y7450D02*
D03*
X28665D02*
D03*
X11346Y20187D02*
D03*
X1066Y19220D02*
D03*
X28605Y20520D02*
D03*
X32065D02*
D03*
X36035D02*
D03*
X26985Y20519D02*
D03*
X30415Y20520D02*
D03*
X34375D02*
D03*
X39640Y35867D02*
D03*
X39970Y35467D02*
D03*
X38905Y3280D02*
D03*
X39801Y37006D02*
D03*
X665Y10060D02*
D03*
X3555Y29550D02*
D03*
X23005Y15480D02*
D03*
X23315Y16570D02*
D03*
X22995Y16170D02*
D03*
X8029Y13189D02*
D03*
X15539Y12805D02*
D03*
X25805Y13337D02*
D03*
X20677Y12500D02*
D03*
X30534Y15630D02*
D03*
X8147Y32657D02*
D03*
X21595Y7450D02*
D03*
X17169Y7770D02*
D03*
X16135Y26280D02*
D03*
X14065Y16760D02*
D03*
X27785Y21000D02*
D03*
X31235Y20990D02*
D03*
X35205Y20990D02*
D03*
X13365Y20000D02*
D03*
X13685Y24160D02*
D03*
X13355Y19600D02*
D03*
X26195Y20520D02*
D03*
X29585Y21000D02*
D03*
X33525Y20990D02*
D03*
X19895Y26320D02*
D03*
X22185Y16360D02*
D03*
X24963Y29754D02*
D03*
X26011Y28046D02*
D03*
Y28476D02*
D03*
X31548Y37254D02*
D03*
X1295Y20090D02*
D03*
X7405Y7840D02*
D03*
X14515Y7850D02*
D03*
X28665Y7840D02*
D03*
X35775Y7840D02*
D03*
X6445Y27660D02*
D03*
X3109Y7770D02*
D03*
X10078Y7800D02*
D03*
X24255Y7770D02*
D03*
X31344D02*
D03*
X2445Y28400D02*
D03*
Y27790D02*
D03*
X27785Y20520D02*
D03*
X31235Y20520D02*
D03*
X35205D02*
D03*
X26195Y21000D02*
D03*
X29585Y20520D02*
D03*
X33525Y20520D02*
D03*
X7405Y8240D02*
D03*
X14515Y8240D02*
D03*
X28665Y8230D02*
D03*
X35775Y8240D02*
D03*
X7405Y7450D02*
D03*
X14515Y7460D02*
D03*
X17561Y31270D02*
D03*
X6390Y33858D02*
D03*
X25681Y27096D02*
D03*
X23615Y31526D02*
D03*
X2775Y29010D02*
D03*
X30458Y38334D02*
D03*
X1295Y19690D02*
D03*
X13585Y21820D02*
D03*
X11975Y25350D02*
D03*
X6435Y26170D02*
D03*
X11985Y25900D02*
D03*
X6435Y25730D02*
D03*
X21595Y8234D02*
D03*
D255*
X22932Y28465D02*
D03*
X5249Y28180D02*
D03*
X19971Y31070D02*
D03*
X16062Y32657D02*
D03*
X12046Y32648D02*
D03*
X21919Y7830D02*
D03*
X36099Y7450D02*
D03*
X28989D02*
D03*
X1390Y19220D02*
D03*
X39964Y35867D02*
D03*
X30858Y15630D02*
D03*
X7823Y32657D02*
D03*
X21919Y7450D02*
D03*
X16845Y7770D02*
D03*
X15811Y26280D02*
D03*
X13741Y16760D02*
D03*
X27461Y21000D02*
D03*
X30911Y20990D02*
D03*
X34881Y20990D02*
D03*
X13689Y20000D02*
D03*
X14009Y24160D02*
D03*
X13679Y19600D02*
D03*
X25871Y20520D02*
D03*
X29261Y21000D02*
D03*
X33201Y20990D02*
D03*
X20219Y26320D02*
D03*
X21861Y16360D02*
D03*
X25287Y29754D02*
D03*
X25688Y28046D02*
D03*
Y28476D02*
D03*
X31224Y37254D02*
D03*
X971Y20090D02*
D03*
X7729Y7840D02*
D03*
X14839Y7850D02*
D03*
X28989Y7840D02*
D03*
X36099Y7840D02*
D03*
X6769Y27660D02*
D03*
X2786Y7770D02*
D03*
X9754Y7800D02*
D03*
X23931Y7770D02*
D03*
X31020D02*
D03*
D256*
X39349Y36459D02*
D03*
X21096Y36378D02*
D03*
X2304Y33682D02*
D03*
X984Y26622D02*
D03*
D257*
X10294Y24350D02*
D03*
X10786D02*
D03*
X10294Y29410D02*
D03*
X10786D02*
D03*
X2696Y26510D02*
D03*
X2204D02*
D03*
X26094Y34840D02*
D03*
X26586Y34840D02*
D03*
X26094Y34290D02*
D03*
X26586Y34290D02*
D03*
X1805Y7540D02*
D03*
X2297D02*
D03*
X8774D02*
D03*
X9266D02*
D03*
X22951D02*
D03*
X23443D02*
D03*
X30040D02*
D03*
X30532D02*
D03*
X6030Y7690D02*
D03*
X5538D02*
D03*
X12999D02*
D03*
X12507D02*
D03*
X27176D02*
D03*
X26684D02*
D03*
X34265D02*
D03*
X33773D02*
D03*
X15864Y7530D02*
D03*
X16356D02*
D03*
X20090Y7700D02*
D03*
X19598D02*
D03*
X1174Y33690D02*
D03*
X1666Y33690D02*
D03*
X6703Y36417D02*
D03*
X6210Y36417D02*
D03*
X9656Y36470D02*
D03*
X9164Y36470D02*
D03*
X13676Y36470D02*
D03*
X13184D02*
D03*
X17686Y36470D02*
D03*
X17194Y36470D02*
D03*
X22506Y36470D02*
D03*
X22014Y36470D02*
D03*
X1614Y4470D02*
D03*
X2106D02*
D03*
X8633Y4460D02*
D03*
X9125D02*
D03*
X22761D02*
D03*
X23253D02*
D03*
X29850D02*
D03*
X30342D02*
D03*
X6455Y4470D02*
D03*
X6947D02*
D03*
X13424D02*
D03*
X13916D02*
D03*
X27601D02*
D03*
X28093D02*
D03*
X34690D02*
D03*
X35182D02*
D03*
X16167Y4460D02*
D03*
X15675D02*
D03*
X21007Y4470D02*
D03*
X20515D02*
D03*
X21152Y27844D02*
D03*
X21644D02*
D03*
X13266Y16750D02*
D03*
X12774Y16750D02*
D03*
X12506Y23150D02*
D03*
X12014D02*
D03*
X38044Y8820D02*
D03*
X38536D02*
D03*
X38044Y9360D02*
D03*
X38536D02*
D03*
X15676Y26950D02*
D03*
X15184D02*
D03*
X6230Y35650D02*
D03*
X6722Y35650D02*
D03*
X10666Y36470D02*
D03*
X10174Y36470D02*
D03*
X14696Y36470D02*
D03*
X14204Y36470D02*
D03*
X18696Y36470D02*
D03*
X18204Y36470D02*
D03*
X23704Y36470D02*
D03*
X24196Y36470D02*
D03*
X27286Y17044D02*
D03*
X26794D02*
D03*
X29796Y17060D02*
D03*
X29304D02*
D03*
X32256Y17020D02*
D03*
X31764D02*
D03*
X34786Y17050D02*
D03*
X34294D02*
D03*
X27286Y16294D02*
D03*
X26794D02*
D03*
X29796Y16310D02*
D03*
X29304D02*
D03*
X32256Y16270D02*
D03*
X31764D02*
D03*
X34786Y16300D02*
D03*
X34294D02*
D03*
X21676Y26500D02*
D03*
X21184D02*
D03*
X13334Y18070D02*
D03*
X13826D02*
D03*
X7976Y20210D02*
D03*
X7484D02*
D03*
D258*
X5270Y27696D02*
D03*
Y27204D02*
D03*
X13090Y20554D02*
D03*
Y21046D02*
D03*
X1043Y3809D02*
D03*
Y4301D02*
D03*
X8455Y3287D02*
D03*
Y3779D02*
D03*
X22327Y3354D02*
D03*
Y3846D02*
D03*
X29430Y3354D02*
D03*
Y3846D02*
D03*
X7855Y3354D02*
D03*
Y3846D02*
D03*
X14625Y3354D02*
D03*
Y3846D02*
D03*
X28210Y3204D02*
D03*
Y3696D02*
D03*
X35596Y3354D02*
D03*
Y3846D02*
D03*
X15241Y3846D02*
D03*
Y3354D02*
D03*
X21421Y3846D02*
D03*
Y3354D02*
D03*
X30480Y27384D02*
D03*
X30480Y27876D02*
D03*
X29700Y27384D02*
D03*
X29700Y27876D02*
D03*
X13090Y21554D02*
D03*
Y22046D02*
D03*
X34293Y38288D02*
D03*
X34293Y38780D02*
D03*
X16210Y26824D02*
D03*
Y27316D02*
D03*
X4842Y34557D02*
D03*
X4842Y35049D02*
D03*
X37090Y16886D02*
D03*
Y16394D02*
D03*
D259*
X4760Y27489D02*
D03*
X15510Y16321D02*
D03*
X23976Y30668D02*
D03*
X13470Y8579D02*
D03*
X6510D02*
D03*
X12480Y27811D02*
D03*
X2024Y8559D02*
D03*
X8993Y8559D02*
D03*
X23170D02*
D03*
X30259Y8559D02*
D03*
X5944Y11759D02*
D03*
X12930D02*
D03*
X27110D02*
D03*
X34190D02*
D03*
X5945Y30786D02*
D03*
X16084Y8559D02*
D03*
X20024Y11759D02*
D03*
X13850Y20819D02*
D03*
X14000Y22251D02*
D03*
X20650Y26341D02*
D03*
X23660Y20359D02*
D03*
X21420Y16559D02*
D03*
X13990Y23349D02*
D03*
X23670Y21041D02*
D03*
X37380Y38951D02*
D03*
X26290Y16320D02*
D03*
X28800Y16335D02*
D03*
X31260Y16295D02*
D03*
X33790Y16325D02*
D03*
X17530Y27211D02*
D03*
X14020Y24581D02*
D03*
X14880Y16321D02*
D03*
X11900Y28519D02*
D03*
X6800Y28619D02*
D03*
X1110Y25741D02*
D03*
D260*
X4760Y27165D02*
D03*
X18130Y27205D02*
D03*
X20250Y29555D02*
D03*
X18750Y27535D02*
D03*
X28140Y14395D02*
D03*
X15510Y16645D02*
D03*
X24439Y29431D02*
D03*
X14990Y33546D02*
D03*
X10955Y33546D02*
D03*
X23976Y30992D02*
D03*
X20570Y8245D02*
D03*
X35140Y8255D02*
D03*
X28060D02*
D03*
X13870D02*
D03*
X6910D02*
D03*
X13470D02*
D03*
X6510D02*
D03*
X12480Y28135D02*
D03*
X3350Y835D02*
D03*
X2340Y37095D02*
D03*
X27717Y14397D02*
D03*
X2024Y8235D02*
D03*
X8993Y8235D02*
D03*
X23170D02*
D03*
X30259Y8235D02*
D03*
X5944Y11435D02*
D03*
X12930D02*
D03*
X27110D02*
D03*
X34190D02*
D03*
X5945Y31110D02*
D03*
X16084Y8235D02*
D03*
X20024Y11435D02*
D03*
X13850Y20495D02*
D03*
X14000Y22575D02*
D03*
X20650Y26665D02*
D03*
X23660Y20035D02*
D03*
X21420Y16235D02*
D03*
X13990Y23025D02*
D03*
X23670Y21365D02*
D03*
X37380Y39275D02*
D03*
X26290Y16644D02*
D03*
X28800Y16659D02*
D03*
X31260Y16619D02*
D03*
X33790Y16649D02*
D03*
X17530Y27535D02*
D03*
X14020Y24905D02*
D03*
X14880Y16645D02*
D03*
X11900Y28195D02*
D03*
X6800Y28295D02*
D03*
X27660Y8255D02*
D03*
X34740Y8255D02*
D03*
X1611Y8562D02*
D03*
X8580Y8562D02*
D03*
X22757D02*
D03*
X29846Y8562D02*
D03*
X5474Y11765D02*
D03*
X12463Y11765D02*
D03*
X26640D02*
D03*
X33730D02*
D03*
X5044Y11435D02*
D03*
X12033D02*
D03*
X26210D02*
D03*
X33300D02*
D03*
X5404Y32773D02*
D03*
X6329Y33364D02*
D03*
X6742Y33354D02*
D03*
X10965Y33098D02*
D03*
X23228Y27640D02*
D03*
X14990Y33098D02*
D03*
X18888Y32419D02*
D03*
X23986Y29431D02*
D03*
X20970Y8245D02*
D03*
X15671Y8562D02*
D03*
X19554Y11765D02*
D03*
X19124Y11435D02*
D03*
X30780Y37555D02*
D03*
X6181Y19673D02*
D03*
X12950Y25315D02*
D03*
Y25915D02*
D03*
X13600Y24585D02*
D03*
X1540Y25735D02*
D03*
X1110Y26065D02*
D03*
X6171Y20677D02*
D03*
X5404Y19673D02*
D03*
X3381Y19345D02*
D03*
X4587Y19343D02*
D03*
X30980Y36165D02*
D03*
X31533Y36495D02*
D03*
D261*
X9111Y23040D02*
D03*
X18129Y26370D02*
D03*
X23939Y31946D02*
D03*
X19352Y32864D02*
D03*
X17885Y31693D02*
D03*
X11022Y20187D02*
D03*
X28281Y20520D02*
D03*
X31741D02*
D03*
X35711D02*
D03*
X26661Y20519D02*
D03*
X30091Y20520D02*
D03*
X34051D02*
D03*
X39646Y35467D02*
D03*
X38581Y3280D02*
D03*
X39477Y37006D02*
D03*
X989Y10060D02*
D03*
X3231Y29550D02*
D03*
X23329Y15480D02*
D03*
X22991Y16570D02*
D03*
X23319Y16170D02*
D03*
X7705Y13189D02*
D03*
X15215Y12805D02*
D03*
X25481Y13337D02*
D03*
X20353Y12500D02*
D03*
X2769Y28400D02*
D03*
Y27790D02*
D03*
X27461Y20520D02*
D03*
X30911Y20520D02*
D03*
X34881D02*
D03*
X25871Y21000D02*
D03*
X29261Y20520D02*
D03*
X33201Y20520D02*
D03*
X7729Y8240D02*
D03*
X14839Y8240D02*
D03*
X28989Y8230D02*
D03*
X36099Y8240D02*
D03*
X7729Y7450D02*
D03*
X14839Y7460D02*
D03*
X17885Y31270D02*
D03*
X6714Y33858D02*
D03*
X26006Y27096D02*
D03*
X23939Y31526D02*
D03*
X2451Y29010D02*
D03*
X30782Y38334D02*
D03*
X971Y19690D02*
D03*
X13909Y21820D02*
D03*
X12299Y25350D02*
D03*
X6759Y26170D02*
D03*
X12309Y25900D02*
D03*
X6759Y25730D02*
D03*
X21919Y8234D02*
D03*
D262*
X18130Y27529D02*
D03*
X20250Y29231D02*
D03*
X18750Y27211D02*
D03*
X28140Y14071D02*
D03*
X24439Y29755D02*
D03*
X14990Y33870D02*
D03*
X10955Y33870D02*
D03*
X20570Y8569D02*
D03*
X35140Y8579D02*
D03*
X28060D02*
D03*
X13870D02*
D03*
X6910D02*
D03*
X3350Y1159D02*
D03*
X2340Y36771D02*
D03*
X27717Y14073D02*
D03*
X27660Y8579D02*
D03*
X34740Y8579D02*
D03*
X1611Y8238D02*
D03*
X8580Y8238D02*
D03*
X22757D02*
D03*
X29846Y8238D02*
D03*
X5474Y11441D02*
D03*
X12463Y11441D02*
D03*
X26640D02*
D03*
X33730D02*
D03*
X5044Y11759D02*
D03*
X12033D02*
D03*
X26210D02*
D03*
X33300D02*
D03*
X5404Y32449D02*
D03*
X6329Y33040D02*
D03*
X6742Y33030D02*
D03*
X10965Y32774D02*
D03*
X23228Y27964D02*
D03*
X14990Y32774D02*
D03*
X18888Y32095D02*
D03*
X23986Y29756D02*
D03*
X20970Y8569D02*
D03*
X15671Y8238D02*
D03*
X19554Y11441D02*
D03*
X19124Y11759D02*
D03*
X30780Y37879D02*
D03*
X6181Y19349D02*
D03*
X12950Y24991D02*
D03*
Y26239D02*
D03*
X13600Y24909D02*
D03*
X1540Y26059D02*
D03*
X6171Y20353D02*
D03*
X5404Y19349D02*
D03*
X3381Y19669D02*
D03*
X4587Y19667D02*
D03*
X30980Y36489D02*
D03*
X31533Y36171D02*
D03*
D263*
X16518Y35914D02*
D03*
X12538D02*
D03*
X8598Y35874D02*
D03*
X4939Y35768D02*
D03*
X36412Y16876D02*
D03*
D264*
X7630Y36650D02*
D03*
X3959Y36472D02*
D03*
X11543Y36590D02*
D03*
X15533D02*
D03*
X19533Y36570D02*
D03*
X15489Y4980D02*
D03*
X21069Y4980D02*
D03*
X1429Y4980D02*
D03*
X8397Y4980D02*
D03*
X22575D02*
D03*
X29664Y4980D02*
D03*
X7009Y4980D02*
D03*
X13977Y4980D02*
D03*
X28155D02*
D03*
X35244Y4980D02*
D03*
D265*
X7625Y34605D02*
D03*
X3954Y34428D02*
D03*
X11538Y34545D02*
D03*
X15528D02*
D03*
X19528Y34525D02*
D03*
X15494Y7025D02*
D03*
X21074Y7025D02*
D03*
X1434Y7025D02*
D03*
X8402Y7025D02*
D03*
X22580D02*
D03*
X29669Y7025D02*
D03*
X7014Y7025D02*
D03*
X13982Y7025D02*
D03*
X28160D02*
D03*
X35249Y7025D02*
D03*
D266*
X26219Y29808D02*
D03*
X30659Y38913D02*
D03*
D267*
X26219Y29236D02*
D03*
X30659Y39485D02*
D03*
D268*
X6044Y29051D02*
D03*
X7034D02*
D03*
X6074Y29071D02*
D03*
X7004D02*
D03*
X6104Y29091D02*
D03*
X6974D02*
D03*
X6964Y29101D02*
D03*
X6134Y29111D02*
D03*
X6274D02*
D03*
X6804D02*
D03*
X6934Y29121D02*
D03*
X6244Y29131D02*
D03*
X6794D02*
D03*
X6834D02*
D03*
X6224Y29141D02*
D03*
X6854D02*
D03*
X6904D02*
D03*
X6194Y29151D02*
D03*
X6294D02*
D03*
X6874D02*
D03*
X6784Y29161D02*
D03*
X6774Y29181D02*
D03*
X7194D02*
D03*
X5894Y29191D02*
D03*
X6314Y29201D02*
D03*
X7174Y29211D02*
D03*
X5914Y29221D02*
D03*
X6324D02*
D03*
X7164D02*
D03*
X6754Y29231D02*
D03*
X5934Y29251D02*
D03*
X6334D02*
D03*
X6744D02*
D03*
X7144D02*
D03*
X6344Y29271D02*
D03*
X7134D02*
D03*
X5954Y29281D02*
D03*
X7124D02*
D03*
X5964Y29291D02*
D03*
X6354D02*
D03*
X6724Y29301D02*
D03*
X5974Y29311D02*
D03*
X7104D02*
D03*
X5984Y29321D02*
D03*
X6364D02*
D03*
X6714Y29331D02*
D03*
X7084Y29341D02*
D03*
X6004Y29351D02*
D03*
X6704D02*
D03*
X6004Y29361D02*
D03*
X6384Y29371D02*
D03*
X7084Y29381D02*
D03*
X5994Y29391D02*
D03*
X6394D02*
D03*
X6684Y29401D02*
D03*
X5984Y29411D02*
D03*
X6674Y29421D02*
D03*
X7104Y29431D02*
D03*
X5974Y29441D02*
D03*
X6414D02*
D03*
X5964Y29461D02*
D03*
X7124Y29481D02*
D03*
X7134Y29501D02*
D03*
X5944Y29511D02*
D03*
X7144Y29531D02*
D03*
X5934Y29541D02*
D03*
X7254Y29571D02*
D03*
X5724Y29591D02*
D03*
X7374Y29601D02*
D03*
Y29611D02*
D03*
Y29621D02*
D03*
Y29631D02*
D03*
Y29641D02*
D03*
Y29651D02*
D03*
X5814Y29811D02*
D03*
X7164Y29831D02*
D03*
X7144Y29841D02*
D03*
X5944Y29861D02*
D03*
X7134Y29871D02*
D03*
X5954Y29881D02*
D03*
X7124Y29891D02*
D03*
X7114Y29911D02*
D03*
X5974Y29931D02*
D03*
X7104Y29941D02*
D03*
X5984Y29951D02*
D03*
X7094Y29961D02*
D03*
X7084Y29981D02*
D03*
X6004Y30001D02*
D03*
X6014Y30021D02*
D03*
X7074Y30031D02*
D03*
X5984Y30061D02*
D03*
X7094D02*
D03*
X7104Y30071D02*
D03*
X5964Y30091D02*
D03*
X7124Y30101D02*
D03*
X5944Y30121D02*
D03*
X7144Y30131D02*
D03*
X5924Y30151D02*
D03*
X7164Y30161D02*
D03*
X5904Y30181D02*
D03*
X5894Y30191D02*
D03*
X7184D02*
D03*
X7194Y30201D02*
D03*
X6214Y30221D02*
D03*
X6224D02*
D03*
X7194D02*
D03*
X6194Y30231D02*
D03*
X6244D02*
D03*
X6834D02*
D03*
X6884D02*
D03*
X7184D02*
D03*
X6184Y30241D02*
D03*
X6274D02*
D03*
X6814D02*
D03*
X7174D02*
D03*
X6294Y30251D02*
D03*
X6784D02*
D03*
X6914D02*
D03*
X7164D02*
D03*
X6154Y30261D02*
D03*
X6324D02*
D03*
X7154D02*
D03*
X6344Y30271D02*
D03*
X6734D02*
D03*
X6944D02*
D03*
X7144D02*
D03*
X6124Y30281D02*
D03*
X6714D02*
D03*
X7134D02*
D03*
X6394Y30291D02*
D03*
X6684D02*
D03*
X6974D02*
D03*
X7124D02*
D03*
X6094Y30301D02*
D03*
X6984D02*
D03*
X7114D02*
D03*
X7104Y30311D02*
D03*
X6064Y30321D02*
D03*
X6404D02*
D03*
X7014D02*
D03*
X7094D02*
D03*
X6404Y30331D02*
D03*
X6674D02*
D03*
X7034D02*
D03*
X7084D02*
D03*
X6034Y30341D02*
D03*
X6674D02*
D03*
X7044D02*
D03*
X7074D02*
D03*
X7064Y30351D02*
D03*
X6414Y30371D02*
D03*
Y30381D02*
D03*
X6664Y30391D02*
D03*
X6424Y30421D02*
D03*
Y30431D02*
D03*
X6654Y30441D02*
D03*
X6434Y30481D02*
D03*
X6644Y30501D02*
D03*
D269*
X5879Y29561D02*
D03*
X7199D02*
D03*
X5829Y29571D02*
D03*
X5779Y29581D02*
D03*
X7309D02*
D03*
X7359Y29591D02*
D03*
X7369Y29791D02*
D03*
X5759Y29801D02*
D03*
X7319D02*
D03*
X7269Y29811D02*
D03*
X5869Y29821D02*
D03*
X7219D02*
D03*
X5919Y29831D02*
D03*
D270*
X5703Y29601D02*
D03*
Y29611D02*
D03*
Y29621D02*
D03*
Y29631D02*
D03*
Y29641D02*
D03*
Y29651D02*
D03*
Y29661D02*
D03*
Y29671D02*
D03*
Y29681D02*
D03*
Y29691D02*
D03*
Y29701D02*
D03*
Y29711D02*
D03*
Y29721D02*
D03*
Y29731D02*
D03*
Y29741D02*
D03*
Y29751D02*
D03*
Y29761D02*
D03*
Y29771D02*
D03*
Y29781D02*
D03*
D271*
X5708Y29791D02*
D03*
D272*
X1200Y35353D02*
D03*
X32085Y25487D02*
D03*
X36220D02*
D03*
X27950D02*
D03*
X34220Y23093D02*
D03*
X30085D02*
D03*
X25950D02*
D03*
X26130Y18633D02*
D03*
X29300D02*
D03*
X32450D02*
D03*
X35580D02*
D03*
D273*
X2205Y35353D02*
D03*
X30080Y25487D02*
D03*
X34215D02*
D03*
X25945D02*
D03*
X36225Y23093D02*
D03*
X32090D02*
D03*
X27955D02*
D03*
X27135Y18633D02*
D03*
X30305D02*
D03*
X33455D02*
D03*
X36585D02*
D03*
D274*
X31082Y25487D02*
D03*
X35217D02*
D03*
X26947D02*
D03*
X35223Y23093D02*
D03*
X31088D02*
D03*
X26953D02*
D03*
D275*
X2109Y19403D02*
D03*
X34215Y39482D02*
D03*
X21342Y27178D02*
D03*
X13872Y17418D02*
D03*
X10408Y23133D02*
D03*
D276*
X2681Y19403D02*
D03*
X33643Y39482D02*
D03*
X21914Y27178D02*
D03*
X13300Y17418D02*
D03*
X10980Y23133D02*
D03*
D277*
X1795Y28402D02*
D03*
X10525Y35892D02*
D03*
X14545D02*
D03*
X1795Y27792D02*
D03*
X18535Y35892D02*
D03*
X4183Y33811D02*
D03*
X1795Y29012D02*
D03*
D278*
X1200Y28402D02*
D03*
X9930Y35892D02*
D03*
X13950D02*
D03*
X1200Y27792D02*
D03*
X17940Y35892D02*
D03*
X3588Y33811D02*
D03*
X1200Y29012D02*
D03*
D279*
X5612Y35787D02*
D03*
X23108Y36355D02*
D03*
D280*
X5612Y36383D02*
D03*
X23108Y35760D02*
D03*
D281*
X25780Y35627D02*
D03*
X16071Y3603D02*
D03*
X20616Y3600D02*
D03*
X36983Y36352D02*
D03*
X2405Y3603D02*
D03*
X9276D02*
D03*
X23157D02*
D03*
X30246Y3633D02*
D03*
X6945Y3600D02*
D03*
X13825D02*
D03*
X27710Y3597D02*
D03*
X34800Y3627D02*
D03*
D282*
X23735Y35632D02*
D03*
X18116Y3598D02*
D03*
X18571Y3605D02*
D03*
X34938Y36357D02*
D03*
X4450Y3598D02*
D03*
X11320D02*
D03*
X25202D02*
D03*
X32291Y3628D02*
D03*
X4900Y3605D02*
D03*
X11780D02*
D03*
X25665Y3602D02*
D03*
X32755Y3632D02*
D03*
D283*
X25870Y36953D02*
D03*
Y39475D02*
D03*
D284*
X28727Y31830D02*
D03*
X26205D02*
D03*
X37657Y11777D02*
D03*
X40179D02*
D03*
D285*
X27792Y16798D02*
D03*
X30302Y16814D02*
D03*
X32762Y16774D02*
D03*
X35292Y16804D02*
D03*
X28288Y16290D02*
D03*
X30798Y16306D02*
D03*
X33268Y16246D02*
D03*
X35788Y16296D02*
D03*
D286*
X27792Y16284D02*
D03*
X30302Y16300D02*
D03*
X32762Y16260D02*
D03*
X35292Y16290D02*
D03*
X28288Y16804D02*
D03*
X30798Y16820D02*
D03*
X33268Y16760D02*
D03*
X35788Y16810D02*
D03*
D287*
X27792Y16720D02*
D03*
X30301Y16735D02*
D03*
X32761Y16695D02*
D03*
X35291Y16725D02*
D03*
X28289Y16369D02*
D03*
X30799Y16385D02*
D03*
X33269Y16325D02*
D03*
X35789Y16375D02*
D03*
D288*
X8965Y32956D02*
D03*
X9465D02*
D03*
X12950D02*
D03*
X13450D02*
D03*
X16960D02*
D03*
X17460D02*
D03*
X21515Y32156D02*
D03*
X22015D02*
D03*
D289*
X8965Y32991D02*
D03*
X9465D02*
D03*
X12950D02*
D03*
X13450D02*
D03*
X16960D02*
D03*
X17460D02*
D03*
X21515Y32191D02*
D03*
X22015D02*
D03*
D290*
X9970Y32956D02*
D03*
X10470D02*
D03*
X13955D02*
D03*
X14455D02*
D03*
X17965D02*
D03*
X18465D02*
D03*
X22520Y32156D02*
D03*
X23020D02*
D03*
D291*
X9970Y32991D02*
D03*
X10470D02*
D03*
X13955D02*
D03*
X14455D02*
D03*
X17965D02*
D03*
X18465D02*
D03*
X22520Y32191D02*
D03*
X23020D02*
D03*
M02*
