G04 Layer_Color=2752767*
%FSLAX24Y24*%
%MOIN*%
G70*
G01*
G75*
%ADD121C,0.0040*%
%ADD124C,0.0050*%
%ADD293C,0.0067*%
D121*
X1600Y11690D02*
G03*
X1600Y11690I-120J0D01*
G01*
X3810Y31050D02*
G03*
X3810Y31050I-120J0D01*
G01*
X21670Y14430D02*
G03*
X21670Y14430I-120J0D01*
G01*
D124*
X11810Y21950D02*
Y22350D01*
X12210D01*
Y21950D01*
X11810D01*
Y20950D02*
Y21350D01*
X12210D01*
Y20950D01*
X11810D01*
X10810Y21950D02*
Y22350D01*
X11210D01*
Y21950D01*
X10810D01*
Y20950D02*
Y21350D01*
X11210D01*
Y20950D01*
X10810D01*
X9810Y21950D02*
Y22350D01*
X10210D01*
Y21950D01*
X9810D01*
Y20950D02*
Y21350D01*
X10210D01*
Y20950D01*
X9810D01*
X8810Y21950D02*
Y22350D01*
X9210D01*
Y21950D01*
X8810D01*
Y20950D02*
Y21350D01*
X9210D01*
Y20950D01*
X8810D01*
X7810Y21950D02*
Y22350D01*
X8210D01*
Y21950D01*
X7810D01*
Y20950D02*
Y21350D01*
X8210D01*
Y20950D01*
X7810D01*
X11810Y19100D02*
Y19500D01*
X12210D01*
Y19100D01*
X11810D01*
Y18100D02*
Y18500D01*
X12210D01*
Y18100D01*
X11810D01*
X10810Y19100D02*
Y19500D01*
X11210D01*
Y19100D01*
X10810D01*
Y18100D02*
Y18500D01*
X11210D01*
Y18100D01*
X10810D01*
X9810Y19100D02*
Y19500D01*
X10210D01*
Y19100D01*
X9810D01*
Y18100D02*
Y18500D01*
X10210D01*
Y18100D01*
X9810D01*
X8810Y19100D02*
Y19500D01*
X9210D01*
Y19100D01*
X8810D01*
Y18100D02*
Y18500D01*
X9210D01*
Y18100D01*
X8810D01*
X7810Y19100D02*
Y19500D01*
X8210D01*
Y19100D01*
X7810D01*
Y18100D02*
Y18500D01*
X8210D01*
Y18100D01*
X7810D01*
X38950Y23625D02*
X38750Y24025D01*
X39150D01*
X38950Y23625D01*
Y25625D02*
X38750Y26025D01*
X39150D01*
X38950Y25625D01*
Y27625D02*
X38750Y28025D01*
X39150D01*
X38950Y27625D01*
Y33625D02*
X38750Y34025D01*
X39150D01*
X38950Y33625D01*
Y31625D02*
X38750Y32025D01*
X39150D01*
X38950Y31625D01*
Y29625D02*
X38750Y30025D01*
X39150D01*
X38950Y29625D01*
X1840Y32530D02*
X1940Y32630D01*
X2040D01*
X1940Y32730D01*
X2040Y32830D01*
X1940D01*
X1840Y32930D01*
X1740Y32830D01*
X1640D01*
X1740Y32730D01*
X1640Y32630D01*
X1740D01*
X1840Y32530D01*
Y29770D02*
X1940Y29870D01*
X2040D01*
X1940Y29970D01*
X2040Y30070D01*
X1940D01*
X1840Y30170D01*
X1740Y30070D01*
X1640D01*
X1740Y29970D01*
X1640Y29870D01*
X1740D01*
X1840Y29770D01*
X4160Y22300D02*
X4260Y22500D01*
X4160Y22700D01*
X4360Y22600D01*
X4560Y22700D01*
X4460Y22500D01*
X4560Y22300D01*
X4360Y22400D01*
X4160Y22300D01*
Y23292D02*
X4260Y23492D01*
X4160Y23692D01*
X4360Y23592D01*
X4560Y23692D01*
X4460Y23492D01*
X4560Y23292D01*
X4360Y23392D01*
X4160Y23292D01*
X3370D02*
X3470Y23492D01*
X3370Y23692D01*
X3570Y23592D01*
X3770Y23692D01*
X3670Y23492D01*
X3770Y23292D01*
X3570Y23392D01*
X3370Y23292D01*
Y22300D02*
X3470Y22500D01*
X3370Y22700D01*
X3570Y22600D01*
X3770Y22700D01*
X3670Y22500D01*
X3770Y22300D01*
X3570Y22400D01*
X3370Y22300D01*
X2400Y25262D02*
Y25162D01*
X2600D01*
Y25262D01*
X2700D01*
Y25462D01*
X2600D01*
Y25562D01*
X2400D01*
Y25462D01*
X2300D01*
Y25262D01*
X2400D01*
Y20530D02*
Y20430D01*
X2600D01*
Y20530D01*
X2700D01*
Y20730D01*
X2600D01*
Y20830D01*
X2400D01*
Y20730D01*
X2300D01*
Y20530D01*
X2400D01*
X39643Y14788D02*
X39743D01*
X39843Y14888D01*
X39943Y14788D01*
X40043D01*
Y14888D01*
X39943Y14988D01*
X40043Y15088D01*
Y15188D01*
X39943D01*
X39843Y15088D01*
X39743Y15188D01*
X39643D01*
Y15088D01*
X39743Y14988D01*
X39643Y14888D01*
Y14788D01*
X38303D02*
X38403D01*
X38503Y14888D01*
X38603Y14788D01*
X38703D01*
Y14888D01*
X38603Y14988D01*
X38703Y15088D01*
Y15188D01*
X38603D01*
X38503Y15088D01*
X38403Y15188D01*
X38303D01*
Y15088D01*
X38403Y14988D01*
X38303Y14888D01*
Y14788D01*
Y20088D02*
X38403D01*
X38503Y20188D01*
X38603Y20088D01*
X38703D01*
Y20188D01*
X38603Y20288D01*
X38703Y20388D01*
Y20488D01*
X38603D01*
X38503Y20388D01*
X38403Y20488D01*
X38303D01*
Y20388D01*
X38403Y20288D01*
X38303Y20188D01*
Y20088D01*
X39643D02*
X39743D01*
X39843Y20188D01*
X39943Y20088D01*
X40043D01*
Y20188D01*
X39943Y20288D01*
X40043Y20388D01*
Y20488D01*
X39943D01*
X39843Y20388D01*
X39743Y20488D01*
X39643D01*
Y20388D01*
X39743Y20288D01*
X39643Y20188D01*
Y20088D01*
X35860Y28830D02*
X35960D01*
X36060Y28930D01*
X36160Y28830D01*
X36260D01*
Y28930D01*
X36160Y29030D01*
X36260Y29130D01*
Y29230D01*
X36160D01*
X36060Y29130D01*
X35960Y29230D01*
X35860D01*
Y29130D01*
X35960Y29030D01*
X35860Y28930D01*
Y28830D01*
Y30170D02*
X35960D01*
X36060Y30270D01*
X36160Y30170D01*
X36260D01*
Y30270D01*
X36160Y30370D01*
X36260Y30470D01*
Y30570D01*
X36160D01*
X36060Y30470D01*
X35960Y30570D01*
X35860D01*
Y30470D01*
X35960Y30370D01*
X35860Y30270D01*
Y30170D01*
X30560D02*
X30660D01*
X30760Y30270D01*
X30860Y30170D01*
X30960D01*
Y30270D01*
X30860Y30370D01*
X30960Y30470D01*
Y30570D01*
X30860D01*
X30760Y30470D01*
X30660Y30570D01*
X30560D01*
Y30470D01*
X30660Y30370D01*
X30560Y30270D01*
Y30170D01*
Y28830D02*
X30660D01*
X30760Y28930D01*
X30860Y28830D01*
X30960D01*
Y28930D01*
X30860Y29030D01*
X30960Y29130D01*
Y29230D01*
X30860D01*
X30760Y29130D01*
X30660Y29230D01*
X30560D01*
Y29130D01*
X30660Y29030D01*
X30560Y28930D01*
Y28830D01*
X35860Y32730D02*
X35960D01*
X36060Y32830D01*
X36160Y32730D01*
X36260D01*
Y32830D01*
X36160Y32930D01*
X36260Y33030D01*
Y33130D01*
X36160D01*
X36060Y33030D01*
X35960Y33130D01*
X35860D01*
Y33030D01*
X35960Y32930D01*
X35860Y32830D01*
Y32730D01*
Y34070D02*
X35960D01*
X36060Y34170D01*
X36160Y34070D01*
X36260D01*
Y34170D01*
X36160Y34270D01*
X36260Y34370D01*
Y34470D01*
X36160D01*
X36060Y34370D01*
X35960Y34470D01*
X35860D01*
Y34370D01*
X35960Y34270D01*
X35860Y34170D01*
Y34070D01*
X30560D02*
X30660D01*
X30760Y34170D01*
X30860Y34070D01*
X30960D01*
Y34170D01*
X30860Y34270D01*
X30960Y34370D01*
Y34470D01*
X30860D01*
X30760Y34370D01*
X30660Y34470D01*
X30560D01*
Y34370D01*
X30660Y34270D01*
X30560Y34170D01*
Y34070D01*
Y32730D02*
X30660D01*
X30760Y32830D01*
X30860Y32730D01*
X30960D01*
Y32830D01*
X30860Y32930D01*
X30960Y33030D01*
Y33130D01*
X30860D01*
X30760Y33030D01*
X30660Y33130D01*
X30560D01*
Y33030D01*
X30660Y32930D01*
X30560Y32830D01*
Y32730D01*
X39300Y1500D02*
X39500Y1700D01*
X39700Y1500D01*
X39500Y1300D01*
X39300Y1500D01*
Y300D02*
Y700D01*
X39700D01*
Y300D01*
X39300D01*
X39380Y380D02*
Y620D01*
X39620D01*
Y380D01*
X39380D01*
X39300Y2300D02*
Y2700D01*
X39700D01*
Y2300D01*
X39300D01*
X39380Y2380D02*
Y2620D01*
X39620D01*
Y2380D01*
X39380D01*
X40300Y1300D02*
Y1700D01*
X40700D01*
Y1300D01*
X40300D01*
X40380Y1380D02*
Y1620D01*
X40620D01*
Y1380D01*
X40380D01*
X38300Y1300D02*
Y1700D01*
X38700D01*
Y1300D01*
X38300D01*
X38380Y1380D02*
Y1620D01*
X38620D01*
Y1380D01*
X38380D01*
X38600Y2000D02*
Y2400D01*
X39000D01*
Y2000D01*
X38600D01*
X38680Y2080D02*
Y2320D01*
X38920D01*
Y2080D01*
X38680D01*
X40000Y2000D02*
Y2400D01*
X40400D01*
Y2000D01*
X40000D01*
X40080Y2080D02*
Y2320D01*
X40320D01*
Y2080D01*
X40080D01*
X40000Y600D02*
Y1000D01*
X40400D01*
Y600D01*
X40000D01*
X40080Y680D02*
Y920D01*
X40320D01*
Y680D01*
X40080D01*
X38600Y600D02*
Y1000D01*
X39000D01*
Y600D01*
X38600D01*
X38680Y680D02*
Y920D01*
X38920D01*
Y680D01*
X38680D01*
X39300Y39000D02*
X39500Y39200D01*
X39700Y39000D01*
X39500Y38800D01*
X39300Y39000D01*
Y37800D02*
Y38200D01*
X39700D01*
Y37800D01*
X39300D01*
X39380Y37880D02*
Y38120D01*
X39620D01*
Y37880D01*
X39380D01*
X39300Y39800D02*
Y40200D01*
X39700D01*
Y39800D01*
X39300D01*
X39380Y39880D02*
Y40120D01*
X39620D01*
Y39880D01*
X39380D01*
X40300Y38800D02*
Y39200D01*
X40700D01*
Y38800D01*
X40300D01*
X40380Y38880D02*
Y39120D01*
X40620D01*
Y38880D01*
X40380D01*
X38300Y38800D02*
Y39200D01*
X38700D01*
Y38800D01*
X38300D01*
X38380Y38880D02*
Y39120D01*
X38620D01*
Y38880D01*
X38380D01*
X38600Y39500D02*
Y39900D01*
X39000D01*
Y39500D01*
X38600D01*
X38680Y39580D02*
Y39820D01*
X38920D01*
Y39580D01*
X38680D01*
X40000Y39500D02*
Y39900D01*
X40400D01*
Y39500D01*
X40000D01*
X40080Y39580D02*
Y39820D01*
X40320D01*
Y39580D01*
X40080D01*
X40000Y38100D02*
Y38500D01*
X40400D01*
Y38100D01*
X40000D01*
X40080Y38180D02*
Y38420D01*
X40320D01*
Y38180D01*
X40080D01*
X38600Y38100D02*
Y38500D01*
X39000D01*
Y38100D01*
X38600D01*
X38680Y38180D02*
Y38420D01*
X38920D01*
Y38180D01*
X38680D01*
X1300Y39000D02*
X1500Y39200D01*
X1700Y39000D01*
X1500Y38800D01*
X1300Y39000D01*
Y37800D02*
Y38200D01*
X1700D01*
Y37800D01*
X1300D01*
X1380Y37880D02*
Y38120D01*
X1620D01*
Y37880D01*
X1380D01*
X1300Y39800D02*
Y40200D01*
X1700D01*
Y39800D01*
X1300D01*
X1380Y39880D02*
Y40120D01*
X1620D01*
Y39880D01*
X1380D01*
X2300Y38800D02*
Y39200D01*
X2700D01*
Y38800D01*
X2300D01*
X2380Y38880D02*
Y39120D01*
X2620D01*
Y38880D01*
X2380D01*
X300Y38800D02*
Y39200D01*
X700D01*
Y38800D01*
X300D01*
X380Y38880D02*
Y39120D01*
X620D01*
Y38880D01*
X380D01*
X600Y39500D02*
Y39900D01*
X1000D01*
Y39500D01*
X600D01*
X680Y39580D02*
Y39820D01*
X920D01*
Y39580D01*
X680D01*
X2000Y39500D02*
Y39900D01*
X2400D01*
Y39500D01*
X2000D01*
X2080Y39580D02*
Y39820D01*
X2320D01*
Y39580D01*
X2080D01*
X2000Y38100D02*
Y38500D01*
X2400D01*
Y38100D01*
X2000D01*
X2080Y38180D02*
Y38420D01*
X2320D01*
Y38180D01*
X2080D01*
X600Y38100D02*
Y38500D01*
X1000D01*
Y38100D01*
X600D01*
X680Y38180D02*
Y38420D01*
X920D01*
Y38180D01*
X680D01*
X1300Y1500D02*
X1500Y1700D01*
X1700Y1500D01*
X1500Y1300D01*
X1300Y1500D01*
Y300D02*
Y700D01*
X1700D01*
Y300D01*
X1300D01*
X1380Y380D02*
Y620D01*
X1620D01*
Y380D01*
X1380D01*
X1300Y2300D02*
Y2700D01*
X1700D01*
Y2300D01*
X1300D01*
X1380Y2380D02*
Y2620D01*
X1620D01*
Y2380D01*
X1380D01*
X2300Y1300D02*
Y1700D01*
X2700D01*
Y1300D01*
X2300D01*
X2380Y1380D02*
Y1620D01*
X2620D01*
Y1380D01*
X2380D01*
X300Y1300D02*
Y1700D01*
X700D01*
Y1300D01*
X300D01*
X380Y1380D02*
Y1620D01*
X620D01*
Y1380D01*
X380D01*
X600Y2000D02*
Y2400D01*
X1000D01*
Y2000D01*
X600D01*
X680Y2080D02*
Y2320D01*
X920D01*
Y2080D01*
X680D01*
X2000Y2000D02*
Y2400D01*
X2400D01*
Y2000D01*
X2000D01*
X2080Y2080D02*
Y2320D01*
X2320D01*
Y2080D01*
X2080D01*
X2000Y600D02*
Y1000D01*
X2400D01*
Y600D01*
X2000D01*
X2080Y680D02*
Y920D01*
X2320D01*
Y680D01*
X2080D01*
X600Y600D02*
Y1000D01*
X1000D01*
Y600D01*
X600D01*
X680Y680D02*
Y920D01*
X920D01*
Y680D01*
X680D01*
X7810Y13860D02*
Y14260D01*
X8210D01*
Y13860D01*
X7810D01*
Y14860D02*
Y15260D01*
X8210D01*
Y14860D01*
X7810D01*
X8810Y13860D02*
Y14260D01*
X9210D01*
Y13860D01*
X8810D01*
Y14860D02*
Y15260D01*
X9210D01*
Y14860D01*
X8810D01*
X9810Y13860D02*
Y14260D01*
X10210D01*
Y13860D01*
X9810D01*
Y14860D02*
Y15260D01*
X10210D01*
Y14860D01*
X9810D01*
X10810Y13860D02*
Y14260D01*
X11210D01*
Y13860D01*
X10810D01*
Y14860D02*
Y15260D01*
X11210D01*
Y14860D01*
X10810D01*
X11810Y13860D02*
Y14260D01*
X12210D01*
Y13860D01*
X11810D01*
Y14860D02*
Y15260D01*
X12210D01*
Y14860D01*
X11810D01*
X12810Y13860D02*
Y14260D01*
X13210D01*
Y13860D01*
X12810D01*
Y14860D02*
Y15260D01*
X13210D01*
Y14860D01*
X12810D01*
X13810Y13860D02*
Y14260D01*
X14210D01*
Y13860D01*
X13810D01*
Y14860D02*
Y15260D01*
X14210D01*
Y14860D01*
X13810D01*
X14810Y13860D02*
Y14260D01*
X15210D01*
Y13860D01*
X14810D01*
Y14860D02*
Y15260D01*
X15210D01*
Y14860D01*
X14810D01*
X15810Y13860D02*
Y14260D01*
X16210D01*
Y13860D01*
X15810D01*
Y14860D02*
Y15260D01*
X16210D01*
Y14860D01*
X15810D01*
X16810Y13860D02*
Y14260D01*
X17210D01*
Y13860D01*
X16810D01*
Y14860D02*
Y15260D01*
X17210D01*
Y14860D01*
X16810D01*
X17810Y13860D02*
Y14260D01*
X18210D01*
Y13860D01*
X17810D01*
Y14860D02*
Y15260D01*
X18210D01*
Y14860D01*
X17810D01*
X18810Y13860D02*
Y14260D01*
X19210D01*
Y13860D01*
X18810D01*
Y14860D02*
Y15260D01*
X19210D01*
Y14860D01*
X18810D01*
X20180Y32830D02*
Y33230D01*
X20580D01*
Y32830D01*
X20180D01*
Y31830D02*
Y32230D01*
X20580D01*
Y31830D01*
X20180D01*
X19180Y32830D02*
Y33230D01*
X19580D01*
Y32830D01*
X19180D01*
Y31830D02*
Y32230D01*
X19580D01*
Y31830D01*
X19180D01*
X18180Y32830D02*
Y33230D01*
X18580D01*
Y32830D01*
X18180D01*
Y31830D02*
Y32230D01*
X18580D01*
Y31830D01*
X18180D01*
X17180Y32830D02*
Y33230D01*
X17580D01*
Y32830D01*
X17180D01*
Y31830D02*
Y32230D01*
X17580D01*
Y31830D01*
X17180D01*
X22800Y38320D02*
X22600Y38720D01*
X23000D01*
X22800Y38320D01*
X20800D02*
X20600Y38720D01*
X21000D01*
X20800Y38320D01*
X18800D02*
X18600Y38720D01*
X19000D01*
X18800Y38320D01*
X16800D02*
X16600Y38720D01*
X17000D01*
X16800Y38320D01*
X14800D02*
X14600Y38720D01*
X15000D01*
X14800Y38320D01*
X12800D02*
X12600Y38720D01*
X13000D01*
X12800Y38320D01*
X10800D02*
X10600Y38720D01*
X11000D01*
X10800Y38320D01*
X8800D02*
X8600Y38720D01*
X9000D01*
X8800Y38320D01*
X6800D02*
X6600Y38720D01*
X7000D01*
X6800Y38320D01*
X4800D02*
X4600Y38720D01*
X5000D01*
X4800Y38320D01*
X20220Y36480D02*
Y36880D01*
X20620D01*
Y36480D01*
X20220D01*
X20300Y36560D02*
Y36800D01*
X20540D01*
Y36560D01*
X20300D01*
X33680Y35640D02*
X33480Y36040D01*
X33880D01*
X33680Y35640D01*
Y35720D02*
X33560Y35960D01*
X33800D01*
X33680Y35720D01*
X3075Y34815D02*
Y35215D01*
X3475D01*
Y34815D01*
X3075D01*
X3155Y34895D02*
Y35135D01*
X3395D01*
Y34895D01*
X3155D01*
X4560Y36750D02*
X4360Y37150D01*
X4760D01*
X4560Y36750D01*
Y36830D02*
X4440Y37070D01*
X4680D01*
X4560Y36830D01*
X2990Y33403D02*
Y33803D01*
X3390D01*
Y33403D01*
X2990D01*
X3070Y33483D02*
Y33723D01*
X3310D01*
Y33483D01*
X3070D01*
X1800Y36670D02*
Y37070D01*
X2200D01*
Y36670D01*
X1800D01*
X1880Y36750D02*
Y36990D01*
X2120D01*
Y36750D01*
X1880D01*
X17320Y35170D02*
Y35570D01*
X17720D01*
Y35170D01*
X17320D01*
X17400Y35250D02*
Y35490D01*
X17640D01*
Y35250D01*
X17400D01*
X17186Y34226D02*
Y34626D01*
X17586D01*
Y34226D01*
X17186D01*
X17266Y34306D02*
Y34546D01*
X17506D01*
Y34306D01*
X17266D01*
X15590Y26330D02*
Y26730D01*
X15990D01*
Y26330D01*
X15590D01*
X15670Y26410D02*
Y26650D01*
X15910D01*
Y26410D01*
X15670D01*
X19118Y34604D02*
Y35004D01*
X19518D01*
Y34604D01*
X19118D01*
X19198Y34684D02*
Y34924D01*
X19438D01*
Y34684D01*
X19198D01*
X7818Y33698D02*
Y34098D01*
X8218D01*
Y33698D01*
X7818D01*
X7898Y33778D02*
Y34018D01*
X8138D01*
Y33778D01*
X7898D01*
X6240Y31753D02*
Y32153D01*
X6640D01*
Y31753D01*
X6240D01*
X6320Y31833D02*
Y32073D01*
X6560D01*
Y31833D01*
X6320D01*
X12153Y32056D02*
Y32456D01*
X12553D01*
Y32056D01*
X12153D01*
X12233Y32136D02*
Y32376D01*
X12473D01*
Y32136D01*
X12233D01*
X8665Y32321D02*
Y32721D01*
X9065D01*
Y32321D01*
X8665D01*
X8745Y32401D02*
Y32641D01*
X8985D01*
Y32401D01*
X8745D01*
X14510Y31990D02*
Y32390D01*
X14910D01*
Y31990D01*
X14510D01*
X14590Y32070D02*
Y32310D01*
X14830D01*
Y32070D01*
X14590D01*
X19416Y30735D02*
Y31135D01*
X19816D01*
Y30735D01*
X19416D01*
X19496Y30815D02*
Y31055D01*
X19736D01*
Y30815D01*
X19496D01*
X5510Y32770D02*
Y33170D01*
X5910D01*
Y32770D01*
X5510D01*
X5590Y32850D02*
Y33090D01*
X5830D01*
Y32850D01*
X5590D01*
X5020Y32770D02*
Y33170D01*
X5420D01*
Y32770D01*
X5020D01*
X5100Y32850D02*
Y33090D01*
X5340D01*
Y32850D01*
X5100D01*
X4521Y32774D02*
Y33174D01*
X4921D01*
Y32774D01*
X4521D01*
X4601Y32854D02*
Y33094D01*
X4841D01*
Y32854D01*
X4601D01*
X5420Y32320D02*
Y32720D01*
X5820D01*
Y32320D01*
X5420D01*
X5500Y32400D02*
Y32640D01*
X5740D01*
Y32400D01*
X5500D01*
X5820Y32320D02*
Y32720D01*
X6220D01*
Y32320D01*
X5820D01*
X5900Y32400D02*
Y32640D01*
X6140D01*
Y32400D01*
X5900D01*
X5020Y32320D02*
Y32720D01*
X5420D01*
Y32320D01*
X5020D01*
X5100Y32400D02*
Y32640D01*
X5340D01*
Y32400D01*
X5100D01*
X9845Y32320D02*
Y32720D01*
X10245D01*
Y32320D01*
X9845D01*
X9925Y32400D02*
Y32640D01*
X10165D01*
Y32400D01*
X9925D01*
X9255Y32320D02*
Y32720D01*
X9655D01*
Y32320D01*
X9255D01*
X9335Y32400D02*
Y32640D01*
X9575D01*
Y32400D01*
X9335D01*
X13871Y32330D02*
Y32730D01*
X14271D01*
Y32330D01*
X13871D01*
X13951Y32410D02*
Y32650D01*
X14191D01*
Y32410D01*
X13951D01*
X13280Y32330D02*
Y32730D01*
X13680D01*
Y32330D01*
X13280D01*
X13360Y32410D02*
Y32650D01*
X13600D01*
Y32410D01*
X13360D01*
X13576Y32330D02*
Y32730D01*
X13976D01*
Y32330D01*
X13576D01*
X13656Y32410D02*
Y32650D01*
X13896D01*
Y32410D01*
X13656D01*
X11548Y32457D02*
Y32857D01*
X11948D01*
Y32457D01*
X11548D01*
X11628Y32537D02*
Y32777D01*
X11868D01*
Y32537D01*
X11628D01*
X7532Y32448D02*
Y32848D01*
X7932D01*
Y32448D01*
X7532D01*
X7612Y32528D02*
Y32768D01*
X7852D01*
Y32528D01*
X7612D01*
X12690Y32330D02*
Y32730D01*
X13090D01*
Y32330D01*
X12690D01*
X12770Y32410D02*
Y32650D01*
X13010D01*
Y32410D01*
X12770D01*
X12985Y32330D02*
Y32730D01*
X13385D01*
Y32330D01*
X12985D01*
X13065Y32410D02*
Y32650D01*
X13305D01*
Y32410D01*
X13065D01*
X17050Y29900D02*
Y30300D01*
X17450D01*
Y29900D01*
X17050D01*
X17130Y29980D02*
Y30220D01*
X17370D01*
Y29980D01*
X17130D01*
X19761Y29820D02*
Y30220D01*
X20161D01*
Y29820D01*
X19761D01*
X19841Y29900D02*
Y30140D01*
X20081D01*
Y29900D01*
X19841D01*
X15842Y32710D02*
Y33110D01*
X16242D01*
Y32710D01*
X15842D01*
X15922Y32790D02*
Y33030D01*
X16162D01*
Y32790D01*
X15922D01*
X11853Y33707D02*
Y34107D01*
X12253D01*
Y33707D01*
X11853D01*
X11933Y33787D02*
Y34027D01*
X12173D01*
Y33787D01*
X11933D01*
X15361Y12211D02*
Y12611D01*
X15761D01*
Y12211D01*
X15361D01*
X15441Y12291D02*
Y12531D01*
X15681D01*
Y12291D01*
X15441D01*
X13550Y11800D02*
Y12200D01*
X13950D01*
Y11800D01*
X13550D01*
X13630Y11880D02*
Y12120D01*
X13870D01*
Y11880D01*
X13630D01*
X20805Y12281D02*
Y12681D01*
X21205D01*
Y12281D01*
X20805D01*
X20885Y12361D02*
Y12601D01*
X21125D01*
Y12361D01*
X20885D01*
X20340Y13230D02*
Y13630D01*
X20740D01*
Y13230D01*
X20340D01*
X20420Y13310D02*
Y13550D01*
X20660D01*
Y13310D01*
X20420D01*
X27920Y14515D02*
Y14915D01*
X28320D01*
Y14515D01*
X27920D01*
X28000Y14595D02*
Y14835D01*
X28240D01*
Y14595D01*
X28000D01*
X25400Y12015D02*
Y12415D01*
X25800D01*
Y12015D01*
X25400D01*
X25480Y12095D02*
Y12335D01*
X25720D01*
Y12095D01*
X25480D01*
X25519Y13954D02*
Y14354D01*
X25919D01*
Y13954D01*
X25519D01*
X25598Y14034D02*
Y14274D01*
X25838D01*
Y14034D01*
X25598D01*
X24446Y13954D02*
Y14354D01*
X24846D01*
Y13954D01*
X24446D01*
X24526Y14034D02*
Y14274D01*
X24766D01*
Y14034D01*
X24526D01*
X29751Y14091D02*
Y14491D01*
X30151D01*
Y14091D01*
X29751D01*
X29831Y14171D02*
Y14411D01*
X30071D01*
Y14171D01*
X29831D01*
X6207Y17408D02*
Y17808D01*
X6607D01*
Y17408D01*
X6207D01*
X6287Y17488D02*
Y17728D01*
X6527D01*
Y17488D01*
X6287D01*
X9885Y19945D02*
Y20345D01*
X10285D01*
Y19945D01*
X9885D01*
X9965Y20025D02*
Y20265D01*
X10205D01*
Y20025D01*
X9965D01*
X32507Y38438D02*
Y38838D01*
X32907D01*
Y38438D01*
X32507D01*
X32587Y38518D02*
Y38758D01*
X32827D01*
Y38518D01*
X32587D01*
X32113Y38438D02*
Y38838D01*
X32513D01*
Y38438D01*
X32113D01*
X32193Y38518D02*
Y38758D01*
X32433D01*
Y38518D01*
X32193D01*
X31719Y38438D02*
Y38838D01*
X32119D01*
Y38438D01*
X31719D01*
X31799Y38518D02*
Y38758D01*
X32039D01*
Y38518D01*
X31799D01*
X31719Y38044D02*
Y38444D01*
X32119D01*
Y38044D01*
X31719D01*
X31799Y38124D02*
Y38364D01*
X32039D01*
Y38124D01*
X31799D01*
X31719Y37651D02*
Y38051D01*
X32119D01*
Y37651D01*
X31719D01*
X31799Y37731D02*
Y37971D01*
X32039D01*
Y37731D01*
X31799D01*
X32113Y37651D02*
Y38051D01*
X32513D01*
Y37651D01*
X32113D01*
X32193Y37731D02*
Y37971D01*
X32433D01*
Y37731D01*
X32193D01*
X32507Y37651D02*
Y38051D01*
X32907D01*
Y37651D01*
X32507D01*
X32587Y37731D02*
Y37971D01*
X32827D01*
Y37731D01*
X32587D01*
X32507Y38044D02*
Y38444D01*
X32907D01*
Y38044D01*
X32507D01*
X32587Y38124D02*
Y38364D01*
X32827D01*
Y38124D01*
X32587D01*
X32113Y38044D02*
Y38444D01*
X32513D01*
Y38044D01*
X32113D01*
X32193Y38124D02*
Y38364D01*
X32433D01*
Y38124D01*
X32193D01*
X22065Y33620D02*
Y34020D01*
X22465D01*
Y33620D01*
X22065D01*
X22145Y33700D02*
Y33940D01*
X22385D01*
Y33700D01*
X22145D01*
X22065Y34020D02*
Y34420D01*
X22465D01*
Y34020D01*
X22065D01*
X22145Y34100D02*
Y34340D01*
X22385D01*
Y34100D01*
X22145D01*
X22065Y33220D02*
Y33620D01*
X22465D01*
Y33220D01*
X22065D01*
X22145Y33300D02*
Y33540D01*
X22385D01*
Y33300D01*
X22145D01*
X22065Y32820D02*
Y33220D01*
X22465D01*
Y32820D01*
X22065D01*
X22145Y32900D02*
Y33140D01*
X22385D01*
Y32900D01*
X22145D01*
X21665Y32820D02*
Y33220D01*
X22065D01*
Y32820D01*
X21665D01*
X21745Y32900D02*
Y33140D01*
X21985D01*
Y32900D01*
X21745D01*
X21265Y32820D02*
Y33220D01*
X21665D01*
Y32820D01*
X21265D01*
X21345Y32900D02*
Y33140D01*
X21585D01*
Y32900D01*
X21345D01*
X21265Y33220D02*
Y33620D01*
X21665D01*
Y33220D01*
X21265D01*
X21345Y33300D02*
Y33540D01*
X21585D01*
Y33300D01*
X21345D01*
X21665Y33220D02*
Y33620D01*
X22065D01*
Y33220D01*
X21665D01*
X21745Y33300D02*
Y33540D01*
X21985D01*
Y33300D01*
X21745D01*
X21665Y33620D02*
Y34020D01*
X22065D01*
Y33620D01*
X21665D01*
X21745Y33700D02*
Y33940D01*
X21985D01*
Y33700D01*
X21745D01*
X21265Y33620D02*
Y34020D01*
X21665D01*
Y33620D01*
X21265D01*
X21345Y33700D02*
Y33940D01*
X21585D01*
Y33700D01*
X21345D01*
X21265Y34020D02*
Y34420D01*
X21665D01*
Y34020D01*
X21265D01*
X21345Y34100D02*
Y34340D01*
X21585D01*
Y34100D01*
X21345D01*
X21665Y34020D02*
Y34420D01*
X22065D01*
Y34020D01*
X21665D01*
X21745Y34100D02*
Y34340D01*
X21985D01*
Y34100D01*
X21745D01*
X22465Y34020D02*
Y34420D01*
X22865D01*
Y34020D01*
X22465D01*
X22545Y34100D02*
Y34340D01*
X22785D01*
Y34100D01*
X22545D01*
X22865Y34020D02*
Y34420D01*
X23265D01*
Y34020D01*
X22865D01*
X22945Y34100D02*
Y34340D01*
X23185D01*
Y34100D01*
X22945D01*
X22865Y33620D02*
Y34020D01*
X23265D01*
Y33620D01*
X22865D01*
X22945Y33700D02*
Y33940D01*
X23185D01*
Y33700D01*
X22945D01*
X22465Y33620D02*
Y34020D01*
X22865D01*
Y33620D01*
X22465D01*
X22545Y33700D02*
Y33940D01*
X22785D01*
Y33700D01*
X22545D01*
X22465Y33220D02*
Y33620D01*
X22865D01*
Y33220D01*
X22465D01*
X22545Y33300D02*
Y33540D01*
X22785D01*
Y33300D01*
X22545D01*
X22865Y33220D02*
Y33620D01*
X23265D01*
Y33220D01*
X22865D01*
X22945Y33300D02*
Y33540D01*
X23185D01*
Y33300D01*
X22945D01*
X22865Y32820D02*
Y33220D01*
X23265D01*
Y32820D01*
X22865D01*
X22945Y32900D02*
Y33140D01*
X23185D01*
Y32900D01*
X22945D01*
X22465Y32820D02*
Y33220D01*
X22865D01*
Y32820D01*
X22465D01*
X22545Y32900D02*
Y33140D01*
X22785D01*
Y32900D01*
X22545D01*
X13510Y34420D02*
Y34820D01*
X13910D01*
Y34420D01*
X13510D01*
X13590Y34500D02*
Y34740D01*
X13830D01*
Y34500D01*
X13590D01*
X13510Y34820D02*
Y35220D01*
X13910D01*
Y34820D01*
X13510D01*
X13590Y34900D02*
Y35140D01*
X13830D01*
Y34900D01*
X13590D01*
X13510Y34020D02*
Y34420D01*
X13910D01*
Y34020D01*
X13510D01*
X13590Y34100D02*
Y34340D01*
X13830D01*
Y34100D01*
X13590D01*
X13510Y33620D02*
Y34020D01*
X13910D01*
Y33620D01*
X13510D01*
X13590Y33700D02*
Y33940D01*
X13830D01*
Y33700D01*
X13590D01*
X13110Y33620D02*
Y34020D01*
X13510D01*
Y33620D01*
X13110D01*
X13190Y33700D02*
Y33940D01*
X13430D01*
Y33700D01*
X13190D01*
X12710Y33620D02*
Y34020D01*
X13110D01*
Y33620D01*
X12710D01*
X12790Y33700D02*
Y33940D01*
X13030D01*
Y33700D01*
X12790D01*
X12710Y34020D02*
Y34420D01*
X13110D01*
Y34020D01*
X12710D01*
X12790Y34100D02*
Y34340D01*
X13030D01*
Y34100D01*
X12790D01*
X13110Y34020D02*
Y34420D01*
X13510D01*
Y34020D01*
X13110D01*
X13190Y34100D02*
Y34340D01*
X13430D01*
Y34100D01*
X13190D01*
X13110Y34420D02*
Y34820D01*
X13510D01*
Y34420D01*
X13110D01*
X13190Y34500D02*
Y34740D01*
X13430D01*
Y34500D01*
X13190D01*
X12710Y34420D02*
Y34820D01*
X13110D01*
Y34420D01*
X12710D01*
X12790Y34500D02*
Y34740D01*
X13030D01*
Y34500D01*
X12790D01*
X12710Y34820D02*
Y35220D01*
X13110D01*
Y34820D01*
X12710D01*
X12790Y34900D02*
Y35140D01*
X13030D01*
Y34900D01*
X12790D01*
X13110Y34820D02*
Y35220D01*
X13510D01*
Y34820D01*
X13110D01*
X13190Y34900D02*
Y35140D01*
X13430D01*
Y34900D01*
X13190D01*
X13910Y34820D02*
Y35220D01*
X14310D01*
Y34820D01*
X13910D01*
X13990Y34900D02*
Y35140D01*
X14230D01*
Y34900D01*
X13990D01*
X14310Y34820D02*
Y35220D01*
X14710D01*
Y34820D01*
X14310D01*
X14390Y34900D02*
Y35140D01*
X14630D01*
Y34900D01*
X14390D01*
X14310Y34420D02*
Y34820D01*
X14710D01*
Y34420D01*
X14310D01*
X14390Y34500D02*
Y34740D01*
X14630D01*
Y34500D01*
X14390D01*
X13910Y34420D02*
Y34820D01*
X14310D01*
Y34420D01*
X13910D01*
X13990Y34500D02*
Y34740D01*
X14230D01*
Y34500D01*
X13990D01*
X13910Y34020D02*
Y34420D01*
X14310D01*
Y34020D01*
X13910D01*
X13990Y34100D02*
Y34340D01*
X14230D01*
Y34100D01*
X13990D01*
X14310Y34020D02*
Y34420D01*
X14710D01*
Y34020D01*
X14310D01*
X14390Y34100D02*
Y34340D01*
X14630D01*
Y34100D01*
X14390D01*
X14310Y33620D02*
Y34020D01*
X14710D01*
Y33620D01*
X14310D01*
X14390Y33700D02*
Y33940D01*
X14630D01*
Y33700D01*
X14390D01*
X13910Y33620D02*
Y34020D01*
X14310D01*
Y33620D01*
X13910D01*
X13990Y33700D02*
Y33940D01*
X14230D01*
Y33700D01*
X13990D01*
X9500Y34420D02*
Y34820D01*
X9900D01*
Y34420D01*
X9500D01*
X9580Y34500D02*
Y34740D01*
X9820D01*
Y34500D01*
X9580D01*
X9500Y34820D02*
Y35220D01*
X9900D01*
Y34820D01*
X9500D01*
X9580Y34900D02*
Y35140D01*
X9820D01*
Y34900D01*
X9580D01*
X9500Y34020D02*
Y34420D01*
X9900D01*
Y34020D01*
X9500D01*
X9580Y34100D02*
Y34340D01*
X9820D01*
Y34100D01*
X9580D01*
X9500Y33620D02*
Y34020D01*
X9900D01*
Y33620D01*
X9500D01*
X9580Y33700D02*
Y33940D01*
X9820D01*
Y33700D01*
X9580D01*
X9100Y33620D02*
Y34020D01*
X9500D01*
Y33620D01*
X9100D01*
X9180Y33700D02*
Y33940D01*
X9420D01*
Y33700D01*
X9180D01*
X8700Y33620D02*
Y34020D01*
X9100D01*
Y33620D01*
X8700D01*
X8780Y33700D02*
Y33940D01*
X9020D01*
Y33700D01*
X8780D01*
X8700Y34020D02*
Y34420D01*
X9100D01*
Y34020D01*
X8700D01*
X8780Y34100D02*
Y34340D01*
X9020D01*
Y34100D01*
X8780D01*
X9100Y34020D02*
Y34420D01*
X9500D01*
Y34020D01*
X9100D01*
X9180Y34100D02*
Y34340D01*
X9420D01*
Y34100D01*
X9180D01*
X9100Y34420D02*
Y34820D01*
X9500D01*
Y34420D01*
X9100D01*
X9180Y34500D02*
Y34740D01*
X9420D01*
Y34500D01*
X9180D01*
X8700Y34420D02*
Y34820D01*
X9100D01*
Y34420D01*
X8700D01*
X8780Y34500D02*
Y34740D01*
X9020D01*
Y34500D01*
X8780D01*
X8700Y34820D02*
Y35220D01*
X9100D01*
Y34820D01*
X8700D01*
X8780Y34900D02*
Y35140D01*
X9020D01*
Y34900D01*
X8780D01*
X9100Y34820D02*
Y35220D01*
X9500D01*
Y34820D01*
X9100D01*
X9180Y34900D02*
Y35140D01*
X9420D01*
Y34900D01*
X9180D01*
X9900Y34820D02*
Y35220D01*
X10300D01*
Y34820D01*
X9900D01*
X9980Y34900D02*
Y35140D01*
X10220D01*
Y34900D01*
X9980D01*
X10300Y34820D02*
Y35220D01*
X10700D01*
Y34820D01*
X10300D01*
X10380Y34900D02*
Y35140D01*
X10620D01*
Y34900D01*
X10380D01*
X10300Y34420D02*
Y34820D01*
X10700D01*
Y34420D01*
X10300D01*
X10380Y34500D02*
Y34740D01*
X10620D01*
Y34500D01*
X10380D01*
X9900Y34420D02*
Y34820D01*
X10300D01*
Y34420D01*
X9900D01*
X9980Y34500D02*
Y34740D01*
X10220D01*
Y34500D01*
X9980D01*
X9900Y34020D02*
Y34420D01*
X10300D01*
Y34020D01*
X9900D01*
X9980Y34100D02*
Y34340D01*
X10220D01*
Y34100D01*
X9980D01*
X10300Y34020D02*
Y34420D01*
X10700D01*
Y34020D01*
X10300D01*
X10380Y34100D02*
Y34340D01*
X10620D01*
Y34100D01*
X10380D01*
X10300Y33620D02*
Y34020D01*
X10700D01*
Y33620D01*
X10300D01*
X10380Y33700D02*
Y33940D01*
X10620D01*
Y33700D01*
X10380D01*
X9900Y33620D02*
Y34020D01*
X10300D01*
Y33620D01*
X9900D01*
X9980Y33700D02*
Y33940D01*
X10220D01*
Y33700D01*
X9980D01*
X5515Y34420D02*
Y34820D01*
X5915D01*
Y34420D01*
X5515D01*
X5595Y34500D02*
Y34740D01*
X5835D01*
Y34500D01*
X5595D01*
X5515Y34820D02*
Y35220D01*
X5915D01*
Y34820D01*
X5515D01*
X5595Y34900D02*
Y35140D01*
X5835D01*
Y34900D01*
X5595D01*
X5515Y34020D02*
Y34420D01*
X5915D01*
Y34020D01*
X5515D01*
X5595Y34100D02*
Y34340D01*
X5835D01*
Y34100D01*
X5595D01*
X5515Y33620D02*
Y34020D01*
X5915D01*
Y33620D01*
X5515D01*
X5595Y33700D02*
Y33940D01*
X5835D01*
Y33700D01*
X5595D01*
X5115Y33620D02*
Y34020D01*
X5515D01*
Y33620D01*
X5115D01*
X5195Y33700D02*
Y33940D01*
X5435D01*
Y33700D01*
X5195D01*
X4715Y33620D02*
Y34020D01*
X5115D01*
Y33620D01*
X4715D01*
X4795Y33700D02*
Y33940D01*
X5035D01*
Y33700D01*
X4795D01*
X4715Y34020D02*
Y34420D01*
X5115D01*
Y34020D01*
X4715D01*
X4795Y34100D02*
Y34340D01*
X5035D01*
Y34100D01*
X4795D01*
X5115Y34020D02*
Y34420D01*
X5515D01*
Y34020D01*
X5115D01*
X5195Y34100D02*
Y34340D01*
X5435D01*
Y34100D01*
X5195D01*
X5115Y34420D02*
Y34820D01*
X5515D01*
Y34420D01*
X5115D01*
X5195Y34500D02*
Y34740D01*
X5435D01*
Y34500D01*
X5195D01*
X4715Y34420D02*
Y34820D01*
X5115D01*
Y34420D01*
X4715D01*
X4795Y34500D02*
Y34740D01*
X5035D01*
Y34500D01*
X4795D01*
X4715Y34820D02*
Y35220D01*
X5115D01*
Y34820D01*
X4715D01*
X4795Y34900D02*
Y35140D01*
X5035D01*
Y34900D01*
X4795D01*
X5115Y34820D02*
Y35220D01*
X5515D01*
Y34820D01*
X5115D01*
X5195Y34900D02*
Y35140D01*
X5435D01*
Y34900D01*
X5195D01*
X5915Y34820D02*
Y35220D01*
X6315D01*
Y34820D01*
X5915D01*
X5995Y34900D02*
Y35140D01*
X6235D01*
Y34900D01*
X5995D01*
X6315Y34820D02*
Y35220D01*
X6715D01*
Y34820D01*
X6315D01*
X6395Y34900D02*
Y35140D01*
X6635D01*
Y34900D01*
X6395D01*
X6315Y34420D02*
Y34820D01*
X6715D01*
Y34420D01*
X6315D01*
X6395Y34500D02*
Y34740D01*
X6635D01*
Y34500D01*
X6395D01*
X5915Y34420D02*
Y34820D01*
X6315D01*
Y34420D01*
X5915D01*
X5995Y34500D02*
Y34740D01*
X6235D01*
Y34500D01*
X5995D01*
X5915Y34020D02*
Y34420D01*
X6315D01*
Y34020D01*
X5915D01*
X5995Y34100D02*
Y34340D01*
X6235D01*
Y34100D01*
X5995D01*
X6315Y34020D02*
Y34420D01*
X6715D01*
Y34020D01*
X6315D01*
X6395Y34100D02*
Y34340D01*
X6635D01*
Y34100D01*
X6395D01*
X6315Y33620D02*
Y34020D01*
X6715D01*
Y33620D01*
X6315D01*
X6395Y33700D02*
Y33940D01*
X6635D01*
Y33700D01*
X6395D01*
X5915Y33620D02*
Y34020D01*
X6315D01*
Y33620D01*
X5915D01*
X5995Y33700D02*
Y33940D01*
X6235D01*
Y33700D01*
X5995D01*
X9280Y6980D02*
Y7380D01*
X9680D01*
Y6980D01*
X9280D01*
X9360Y7060D02*
Y7300D01*
X9600D01*
Y7060D01*
X9360D01*
X2310Y6970D02*
Y7370D01*
X2710D01*
Y6970D01*
X2310D01*
X2390Y7050D02*
Y7290D01*
X2630D01*
Y7050D01*
X2390D01*
X16370Y6970D02*
Y7370D01*
X16770D01*
Y6970D01*
X16370D01*
X16450Y7050D02*
Y7290D01*
X16690D01*
Y7050D01*
X16450D01*
X23460Y6970D02*
Y7370D01*
X23860D01*
Y6970D01*
X23460D01*
X23540Y7050D02*
Y7290D01*
X23780D01*
Y7050D01*
X23540D01*
X30550Y6980D02*
Y7380D01*
X30950D01*
Y6980D01*
X30550D01*
X30630Y7060D02*
Y7300D01*
X30870D01*
Y7060D01*
X30630D01*
X32500Y7400D02*
Y7800D01*
X32900D01*
Y7400D01*
X32500D01*
X32580Y7480D02*
Y7720D01*
X32820D01*
Y7480D01*
X32580D01*
X3160Y1280D02*
Y1680D01*
X3560D01*
Y1280D01*
X3160D01*
X3240Y1360D02*
Y1600D01*
X3480D01*
Y1360D01*
X3240D01*
X1690Y26300D02*
Y26700D01*
X2090D01*
Y26300D01*
X1690D01*
X1770Y26380D02*
Y26620D01*
X2010D01*
Y26380D01*
X1770D01*
X37520Y9160D02*
Y9560D01*
X37920D01*
Y9160D01*
X37520D01*
X37600Y9240D02*
Y9480D01*
X37840D01*
Y9240D01*
X37600D01*
X37520Y8620D02*
Y9020D01*
X37920D01*
Y8620D01*
X37520D01*
X37600Y8700D02*
Y8940D01*
X37840D01*
Y8700D01*
X37600D01*
X37130Y9820D02*
Y10220D01*
X37530D01*
Y9820D01*
X37130D01*
X37210Y9900D02*
Y10140D01*
X37450D01*
Y9900D01*
X37210D01*
X38966Y36806D02*
Y37206D01*
X39366D01*
Y36806D01*
X38966D01*
X39046Y36886D02*
Y37126D01*
X39286D01*
Y36886D01*
X39046D01*
X32450Y34630D02*
Y35030D01*
X32850D01*
Y34630D01*
X32450D01*
X32530Y34710D02*
Y34950D01*
X32770D01*
Y34710D01*
X32530D01*
X32450Y34080D02*
Y34480D01*
X32850D01*
Y34080D01*
X32450D01*
X32530Y34160D02*
Y34400D01*
X32770D01*
Y34160D01*
X32530D01*
X32450Y33480D02*
Y33880D01*
X32850D01*
Y33480D01*
X32450D01*
X32530Y33560D02*
Y33800D01*
X32770D01*
Y33560D01*
X32530D01*
X32450Y32930D02*
Y33330D01*
X32850D01*
Y32930D01*
X32450D01*
X32530Y33010D02*
Y33250D01*
X32770D01*
Y33010D01*
X32530D01*
X32450Y32380D02*
Y32780D01*
X32850D01*
Y32380D01*
X32450D01*
X32530Y32460D02*
Y32700D01*
X32770D01*
Y32460D01*
X32530D01*
X32450Y31920D02*
Y32320D01*
X32850D01*
Y31920D01*
X32450D01*
X32530Y32000D02*
Y32240D01*
X32770D01*
Y32000D01*
X32530D01*
X34960Y34760D02*
Y35160D01*
X35360D01*
Y34760D01*
X34960D01*
X35040Y34840D02*
Y35080D01*
X35280D01*
Y34840D01*
X35040D01*
X34450Y34760D02*
Y35160D01*
X34850D01*
Y34760D01*
X34450D01*
X34530Y34840D02*
Y35080D01*
X34770D01*
Y34840D01*
X34530D01*
X34450Y28140D02*
Y28540D01*
X34850D01*
Y28140D01*
X34450D01*
X34530Y28220D02*
Y28460D01*
X34770D01*
Y28220D01*
X34530D01*
X34440Y31170D02*
Y31570D01*
X34840D01*
Y31170D01*
X34440D01*
X34520Y31250D02*
Y31490D01*
X34760D01*
Y31250D01*
X34520D01*
X39155Y35267D02*
Y35667D01*
X39555D01*
Y35267D01*
X39155D01*
X39235Y35347D02*
Y35587D01*
X39475D01*
Y35347D01*
X39235D01*
X39155Y35667D02*
Y36067D01*
X39555D01*
Y35667D01*
X39155D01*
X39235Y35747D02*
Y35987D01*
X39475D01*
Y35747D01*
X39235D01*
X38675Y36257D02*
Y36657D01*
X39075D01*
Y36257D01*
X38675D01*
X38755Y36337D02*
Y36577D01*
X38995D01*
Y36337D01*
X38755D01*
X39800Y21560D02*
Y21960D01*
X40200D01*
Y21560D01*
X39800D01*
X39880Y21640D02*
Y21880D01*
X40120D01*
Y21640D01*
X39880D01*
X40200Y36260D02*
Y36660D01*
X40600D01*
Y36260D01*
X40200D01*
X40280Y36340D02*
Y36580D01*
X40520D01*
Y36340D01*
X40280D01*
X40200Y35670D02*
Y36070D01*
X40600D01*
Y35670D01*
X40200D01*
X40280Y35750D02*
Y35990D01*
X40520D01*
Y35750D01*
X40280D01*
X40200Y35270D02*
Y35670D01*
X40600D01*
Y35270D01*
X40200D01*
X40280Y35350D02*
Y35590D01*
X40520D01*
Y35350D01*
X40280D01*
X2720Y29350D02*
Y29750D01*
X3120D01*
Y29350D01*
X2720D01*
X2800Y29430D02*
Y29670D01*
X3040D01*
Y29430D01*
X2800D01*
X600Y12720D02*
Y13120D01*
X1000D01*
Y12720D01*
X600D01*
X680Y12800D02*
Y13040D01*
X920D01*
Y12800D01*
X680D01*
X21300Y35800D02*
Y36200D01*
X21700D01*
Y35800D01*
X21300D01*
X21380Y35880D02*
Y36120D01*
X21620D01*
Y35880D01*
X21380D01*
X25300Y33800D02*
Y34200D01*
X25700D01*
Y33800D01*
X25300D01*
X25380Y33880D02*
Y34120D01*
X25620D01*
Y33880D01*
X25380D01*
X23300Y33800D02*
Y34200D01*
X23700D01*
Y33800D01*
X23300D01*
X23380Y33880D02*
Y34120D01*
X23620D01*
Y33880D01*
X23380D01*
X23300Y32800D02*
Y33200D01*
X23700D01*
Y32800D01*
X23300D01*
X23380Y32880D02*
Y33120D01*
X23620D01*
Y32880D01*
X23380D01*
X24300Y32800D02*
Y33200D01*
X24700D01*
Y32800D01*
X24300D01*
X24380Y32880D02*
Y33120D01*
X24620D01*
Y32880D01*
X24380D01*
X24300Y33800D02*
Y34200D01*
X24700D01*
Y33800D01*
X24300D01*
X24380Y33880D02*
Y34120D01*
X24620D01*
Y33880D01*
X24380D01*
X25260Y34810D02*
Y35210D01*
X25660D01*
Y34810D01*
X25260D01*
X25340Y34890D02*
Y35130D01*
X25580D01*
Y34890D01*
X25340D01*
X24300Y34800D02*
Y35200D01*
X24700D01*
Y34800D01*
X24300D01*
X24380Y34880D02*
Y35120D01*
X24620D01*
Y34880D01*
X24380D01*
X23300Y34800D02*
Y35200D01*
X23700D01*
Y34800D01*
X23300D01*
X23380Y34880D02*
Y35120D01*
X23620D01*
Y34880D01*
X23380D01*
X22300Y34800D02*
Y35200D01*
X22700D01*
Y34800D01*
X22300D01*
X22380Y34880D02*
Y35120D01*
X22620D01*
Y34880D01*
X22380D01*
X21300Y34800D02*
Y35200D01*
X21700D01*
Y34800D01*
X21300D01*
X21380Y34880D02*
Y35120D01*
X21620D01*
Y34880D01*
X21380D01*
X20380Y34800D02*
Y35200D01*
X20780D01*
Y34800D01*
X20380D01*
X20460Y34880D02*
Y35120D01*
X20700D01*
Y34880D01*
X20460D01*
X20790Y33320D02*
Y33720D01*
X21190D01*
Y33320D01*
X20790D01*
X20870Y33400D02*
Y33640D01*
X21110D01*
Y33400D01*
X20870D01*
X20800Y33800D02*
Y34200D01*
X21200D01*
Y33800D01*
X20800D01*
X20880Y33880D02*
Y34120D01*
X21120D01*
Y33880D01*
X20880D01*
X20800Y32800D02*
Y33200D01*
X21200D01*
Y32800D01*
X20800D01*
X20880Y32880D02*
Y33120D01*
X21120D01*
Y32880D01*
X20880D01*
X22280Y35820D02*
Y36220D01*
X22680D01*
Y35820D01*
X22280D01*
X22360Y35900D02*
Y36140D01*
X22600D01*
Y35900D01*
X22360D01*
X23790Y32590D02*
Y32990D01*
X24190D01*
Y32590D01*
X23790D01*
X23870Y32670D02*
Y32910D01*
X24110D01*
Y32670D01*
X23870D01*
X25160Y32630D02*
Y33030D01*
X25560D01*
Y32630D01*
X25160D01*
X25240Y32710D02*
Y32950D01*
X25480D01*
Y32710D01*
X25240D01*
X24640Y35750D02*
Y36150D01*
X25040D01*
Y35750D01*
X24640D01*
X24720Y35830D02*
Y36070D01*
X24960D01*
Y35830D01*
X24720D01*
X12180Y36040D02*
Y36440D01*
X12580D01*
Y36040D01*
X12180D01*
X12260Y36120D02*
Y36360D01*
X12500D01*
Y36120D01*
X12260D01*
X8190Y36020D02*
Y36420D01*
X8590D01*
Y36020D01*
X8190D01*
X8270Y36100D02*
Y36340D01*
X8510D01*
Y36100D01*
X8270D01*
X20180Y35820D02*
Y36220D01*
X20580D01*
Y35820D01*
X20180D01*
X20260Y35900D02*
Y36140D01*
X20500D01*
Y35900D01*
X20260D01*
X15705Y35390D02*
Y35790D01*
X16105D01*
Y35390D01*
X15705D01*
X15785Y35470D02*
Y35710D01*
X16025D01*
Y35470D01*
X15785D01*
X12170Y35170D02*
Y35570D01*
X12570D01*
Y35170D01*
X12170D01*
X12250Y35250D02*
Y35490D01*
X12490D01*
Y35250D01*
X12250D01*
X12170Y34260D02*
Y34660D01*
X12570D01*
Y34260D01*
X12170D01*
X12250Y34340D02*
Y34580D01*
X12490D01*
Y34340D01*
X12250D01*
X8160Y34260D02*
Y34660D01*
X8560D01*
Y34260D01*
X8160D01*
X8240Y34340D02*
Y34580D01*
X8480D01*
Y34340D01*
X8240D01*
X8160Y35170D02*
Y35570D01*
X8560D01*
Y35170D01*
X8160D01*
X8240Y35250D02*
Y35490D01*
X8480D01*
Y35250D01*
X8240D01*
X11695Y35390D02*
Y35790D01*
X12095D01*
Y35390D01*
X11695D01*
X11775Y35470D02*
Y35710D01*
X12015D01*
Y35470D01*
X11775D01*
X4570Y35410D02*
Y35810D01*
X4970D01*
Y35410D01*
X4570D01*
X4650Y35490D02*
Y35730D01*
X4890D01*
Y35490D01*
X4650D01*
X26910Y39410D02*
Y39810D01*
X27310D01*
Y39410D01*
X26910D01*
X26990Y39490D02*
Y39730D01*
X27230D01*
Y39490D01*
X26990D01*
X7260Y38310D02*
Y38710D01*
X7660D01*
Y38310D01*
X7260D01*
X7340Y38390D02*
Y38630D01*
X7580D01*
Y38390D01*
X7340D01*
X5940Y38310D02*
Y38710D01*
X6340D01*
Y38310D01*
X5940D01*
X6020Y38390D02*
Y38630D01*
X6260D01*
Y38390D01*
X6020D01*
X7270Y37920D02*
Y38320D01*
X7670D01*
Y37920D01*
X7270D01*
X7350Y38000D02*
Y38240D01*
X7590D01*
Y38000D01*
X7350D01*
X7280Y38720D02*
Y39120D01*
X7680D01*
Y38720D01*
X7280D01*
X7360Y38800D02*
Y39040D01*
X7600D01*
Y38800D01*
X7360D01*
X5940Y38700D02*
Y39100D01*
X6340D01*
Y38700D01*
X5940D01*
X6020Y38780D02*
Y39020D01*
X6260D01*
Y38780D01*
X6020D01*
X5940Y37930D02*
Y38330D01*
X6340D01*
Y37930D01*
X5940D01*
X6020Y38010D02*
Y38250D01*
X6260D01*
Y38010D01*
X6020D01*
X5980Y36790D02*
Y37190D01*
X6380D01*
Y36790D01*
X5980D01*
X6060Y36870D02*
Y37110D01*
X6300D01*
Y36870D01*
X6060D01*
X7280Y36770D02*
Y37170D01*
X7680D01*
Y36770D01*
X7280D01*
X7360Y36850D02*
Y37090D01*
X7600D01*
Y36850D01*
X7360D01*
X11260Y38310D02*
Y38710D01*
X11660D01*
Y38310D01*
X11260D01*
X11340Y38390D02*
Y38630D01*
X11580D01*
Y38390D01*
X11340D01*
X9940Y38310D02*
Y38710D01*
X10340D01*
Y38310D01*
X9940D01*
X10020Y38390D02*
Y38630D01*
X10260D01*
Y38390D01*
X10020D01*
X11270Y37920D02*
Y38320D01*
X11670D01*
Y37920D01*
X11270D01*
X11350Y38000D02*
Y38240D01*
X11590D01*
Y38000D01*
X11350D01*
X11280Y38720D02*
Y39120D01*
X11680D01*
Y38720D01*
X11280D01*
X11360Y38800D02*
Y39040D01*
X11600D01*
Y38800D01*
X11360D01*
X9940Y38700D02*
Y39100D01*
X10340D01*
Y38700D01*
X9940D01*
X10020Y38780D02*
Y39020D01*
X10260D01*
Y38780D01*
X10020D01*
X9940Y37930D02*
Y38330D01*
X10340D01*
Y37930D01*
X9940D01*
X10020Y38010D02*
Y38250D01*
X10260D01*
Y38010D01*
X10020D01*
X9980Y36790D02*
Y37190D01*
X10380D01*
Y36790D01*
X9980D01*
X10060Y36870D02*
Y37110D01*
X10300D01*
Y36870D01*
X10060D01*
X11280Y36770D02*
Y37170D01*
X11680D01*
Y36770D01*
X11280D01*
X11360Y36850D02*
Y37090D01*
X11600D01*
Y36850D01*
X11360D01*
X15280Y36770D02*
Y37170D01*
X15680D01*
Y36770D01*
X15280D01*
X15360Y36850D02*
Y37090D01*
X15600D01*
Y36850D01*
X15360D01*
X13980Y36790D02*
Y37190D01*
X14380D01*
Y36790D01*
X13980D01*
X14060Y36870D02*
Y37110D01*
X14300D01*
Y36870D01*
X14060D01*
X3960Y35540D02*
Y35940D01*
X4360D01*
Y35540D01*
X3960D01*
X4040Y35620D02*
Y35860D01*
X4280D01*
Y35620D01*
X4040D01*
X8320Y36690D02*
Y37090D01*
X8720D01*
Y36690D01*
X8320D01*
X8400Y36770D02*
Y37010D01*
X8640D01*
Y36770D01*
X8400D01*
X13940Y37930D02*
Y38330D01*
X14340D01*
Y37930D01*
X13940D01*
X14020Y38010D02*
Y38250D01*
X14260D01*
Y38010D01*
X14020D01*
X13940Y38700D02*
Y39100D01*
X14340D01*
Y38700D01*
X13940D01*
X14020Y38780D02*
Y39020D01*
X14260D01*
Y38780D01*
X14020D01*
X15280Y38720D02*
Y39120D01*
X15680D01*
Y38720D01*
X15280D01*
X15360Y38800D02*
Y39040D01*
X15600D01*
Y38800D01*
X15360D01*
X15270Y37920D02*
Y38320D01*
X15670D01*
Y37920D01*
X15270D01*
X15350Y38000D02*
Y38240D01*
X15590D01*
Y38000D01*
X15350D01*
X12270Y36670D02*
Y37070D01*
X12670D01*
Y36670D01*
X12270D01*
X12350Y36750D02*
Y36990D01*
X12590D01*
Y36750D01*
X12350D01*
X13940Y38310D02*
Y38710D01*
X14340D01*
Y38310D01*
X13940D01*
X14020Y38390D02*
Y38630D01*
X14260D01*
Y38390D01*
X14020D01*
X15260Y38310D02*
Y38710D01*
X15660D01*
Y38310D01*
X15260D01*
X15340Y38390D02*
Y38630D01*
X15580D01*
Y38390D01*
X15340D01*
X26910Y39050D02*
Y39450D01*
X27310D01*
Y39050D01*
X26910D01*
X26990Y39130D02*
Y39370D01*
X27230D01*
Y39130D01*
X26990D01*
X26910Y38680D02*
Y39080D01*
X27310D01*
Y38680D01*
X26910D01*
X26990Y38760D02*
Y39000D01*
X27230D01*
Y38760D01*
X26990D01*
X7710Y35390D02*
Y35790D01*
X8110D01*
Y35390D01*
X7710D01*
X7790Y35470D02*
Y35710D01*
X8030D01*
Y35470D01*
X7790D01*
X25590Y34090D02*
Y34490D01*
X25990D01*
Y34090D01*
X25590D01*
X25670Y34170D02*
Y34410D01*
X25910D01*
Y34170D01*
X25670D01*
X25590Y34630D02*
Y35030D01*
X25990D01*
Y34630D01*
X25590D01*
X25670Y34710D02*
Y34950D01*
X25910D01*
Y34710D01*
X25670D01*
X26580Y31212D02*
Y31613D01*
X26980D01*
Y31212D01*
X26580D01*
X26660Y31293D02*
Y31532D01*
X26900D01*
Y31293D01*
X26660D01*
X26580Y31625D02*
Y32025D01*
X26980D01*
Y31625D01*
X26580D01*
X26660Y31705D02*
Y31945D01*
X26900D01*
Y31705D01*
X26660D01*
X26580Y32037D02*
Y32438D01*
X26980D01*
Y32037D01*
X26580D01*
X26660Y32118D02*
Y32357D01*
X26900D01*
Y32118D01*
X26660D01*
X25570Y31223D02*
Y31623D01*
X25970D01*
Y31223D01*
X25570D01*
X25650Y31302D02*
Y31542D01*
X25890D01*
Y31302D01*
X25650D01*
X26580Y30800D02*
Y31200D01*
X26980D01*
Y30800D01*
X26580D01*
X26660Y30880D02*
Y31120D01*
X26900D01*
Y30880D01*
X26660D01*
X25860Y30800D02*
Y31200D01*
X26260D01*
Y30800D01*
X25860D01*
X25940Y30880D02*
Y31120D01*
X26180D01*
Y30880D01*
X25940D01*
X25570Y30810D02*
Y31210D01*
X25970D01*
Y30810D01*
X25570D01*
X25650Y30890D02*
Y31130D01*
X25890D01*
Y30890D01*
X25650D01*
X26580Y32450D02*
Y32850D01*
X26980D01*
Y32450D01*
X26580D01*
X26660Y32530D02*
Y32770D01*
X26900D01*
Y32530D01*
X26660D01*
X25860Y32460D02*
Y32860D01*
X26260D01*
Y32460D01*
X25860D01*
X25940Y32540D02*
Y32780D01*
X26180D01*
Y32540D01*
X25940D01*
X25570Y32460D02*
Y32860D01*
X25970D01*
Y32460D01*
X25570D01*
X25650Y32540D02*
Y32780D01*
X25890D01*
Y32540D01*
X25650D01*
X26136Y27806D02*
Y28206D01*
X26536D01*
Y27806D01*
X26136D01*
X26216Y27886D02*
Y28126D01*
X26456D01*
Y27886D01*
X26216D01*
X26156Y28176D02*
Y28576D01*
X26556D01*
Y28176D01*
X26156D01*
X26236Y28256D02*
Y28496D01*
X26476D01*
Y28256D01*
X26236D01*
X26126Y28566D02*
Y28966D01*
X26526D01*
Y28566D01*
X26126D01*
X26206Y28646D02*
Y28886D01*
X26446D01*
Y28646D01*
X26206D01*
X27160Y28020D02*
Y28420D01*
X27560D01*
Y28020D01*
X27160D01*
X27240Y28100D02*
Y28340D01*
X27480D01*
Y28100D01*
X27240D01*
X28280Y27210D02*
Y27610D01*
X28680D01*
Y27210D01*
X28280D01*
X28360Y27290D02*
Y27530D01*
X28600D01*
Y27290D01*
X28360D01*
X28280Y27630D02*
Y28030D01*
X28680D01*
Y27630D01*
X28280D01*
X28360Y27710D02*
Y27950D01*
X28600D01*
Y27710D01*
X28360D01*
X27160Y27620D02*
Y28020D01*
X27560D01*
Y27620D01*
X27160D01*
X27240Y27700D02*
Y27940D01*
X27480D01*
Y27700D01*
X27240D01*
X27160Y27140D02*
Y27540D01*
X27560D01*
Y27140D01*
X27160D01*
X27240Y27220D02*
Y27460D01*
X27480D01*
Y27220D01*
X27240D01*
X31540Y30840D02*
Y31240D01*
X31940D01*
Y30840D01*
X31540D01*
X31620Y30920D02*
Y31160D01*
X31860D01*
Y30920D01*
X31620D01*
X29630Y28810D02*
Y29210D01*
X30030D01*
Y28810D01*
X29630D01*
X29710Y28890D02*
Y29130D01*
X29950D01*
Y28890D01*
X29710D01*
X29620Y28210D02*
Y28610D01*
X30020D01*
Y28210D01*
X29620D01*
X29700Y28290D02*
Y28530D01*
X29940D01*
Y28290D01*
X29700D01*
X26540Y33410D02*
Y33810D01*
X26940D01*
Y33410D01*
X26540D01*
X26620Y33490D02*
Y33730D01*
X26860D01*
Y33490D01*
X26620D01*
X31570Y27480D02*
Y27880D01*
X31970D01*
Y27480D01*
X31570D01*
X31650Y27560D02*
Y27800D01*
X31890D01*
Y27560D01*
X31650D01*
X29850Y27170D02*
Y27570D01*
X30250D01*
Y27170D01*
X29850D01*
X29930Y27250D02*
Y27490D01*
X30170D01*
Y27250D01*
X29930D01*
X30690Y27160D02*
Y27560D01*
X31090D01*
Y27160D01*
X30690D01*
X30770Y27240D02*
Y27480D01*
X31010D01*
Y27240D01*
X30770D01*
X27260Y39480D02*
Y39880D01*
X27660D01*
Y39480D01*
X27260D01*
X27340Y39560D02*
Y39800D01*
X27580D01*
Y39560D01*
X27340D01*
X27280Y38680D02*
Y39080D01*
X27680D01*
Y38680D01*
X27280D01*
X27360Y38760D02*
Y39000D01*
X27600D01*
Y38760D01*
X27360D01*
X29430Y38670D02*
Y39070D01*
X29830D01*
Y38670D01*
X29430D01*
X29510Y38750D02*
Y38990D01*
X29750D01*
Y38750D01*
X29510D01*
X29430Y39500D02*
Y39900D01*
X29830D01*
Y39500D01*
X29430D01*
X29510Y39580D02*
Y39820D01*
X29750D01*
Y39580D01*
X29510D01*
X29080Y38660D02*
Y39060D01*
X29480D01*
Y38660D01*
X29080D01*
X29160Y38740D02*
Y38980D01*
X29400D01*
Y38740D01*
X29160D01*
X29080Y39080D02*
Y39480D01*
X29480D01*
Y39080D01*
X29080D01*
X29160Y39160D02*
Y39400D01*
X29400D01*
Y39160D01*
X29160D01*
X29070Y39510D02*
Y39910D01*
X29470D01*
Y39510D01*
X29070D01*
X29150Y39590D02*
Y39830D01*
X29390D01*
Y39590D01*
X29150D01*
X28130Y39060D02*
Y39460D01*
X28530D01*
Y39060D01*
X28130D01*
X28210Y39140D02*
Y39380D01*
X28450D01*
Y39140D01*
X28210D01*
X28130Y39480D02*
Y39880D01*
X28530D01*
Y39480D01*
X28130D01*
X28210Y39560D02*
Y39800D01*
X28450D01*
Y39560D01*
X28210D01*
X28130Y38670D02*
Y39070D01*
X28530D01*
Y38670D01*
X28130D01*
X28210Y38750D02*
Y38990D01*
X28450D01*
Y38750D01*
X28210D01*
X26580Y39410D02*
Y39810D01*
X26980D01*
Y39410D01*
X26580D01*
X26660Y39490D02*
Y39730D01*
X26900D01*
Y39490D01*
X26660D01*
X26570Y39040D02*
Y39440D01*
X26970D01*
Y39040D01*
X26570D01*
X26650Y39120D02*
Y39360D01*
X26890D01*
Y39120D01*
X26650D01*
X26580Y38680D02*
Y39080D01*
X26980D01*
Y38680D01*
X26580D01*
X26660Y38760D02*
Y39000D01*
X26900D01*
Y38760D01*
X26660D01*
X24850Y39440D02*
Y39840D01*
X25250D01*
Y39440D01*
X24850D01*
X24930Y39520D02*
Y39760D01*
X25170D01*
Y39520D01*
X24930D01*
X32700Y27890D02*
Y28290D01*
X33100D01*
Y27890D01*
X32700D01*
X32780Y27970D02*
Y28210D01*
X33020D01*
Y27970D01*
X32780D01*
X39420Y21560D02*
Y21960D01*
X39820D01*
Y21560D01*
X39420D01*
X39500Y21640D02*
Y21880D01*
X39740D01*
Y21640D01*
X39500D01*
X38240Y24920D02*
Y25320D01*
X38640D01*
Y24920D01*
X38240D01*
X38320Y25000D02*
Y25240D01*
X38560D01*
Y25000D01*
X38320D01*
X39160Y24930D02*
Y25330D01*
X39560D01*
Y24930D01*
X39160D01*
X39240Y25010D02*
Y25250D01*
X39480D01*
Y25010D01*
X39240D01*
X38710Y24920D02*
Y25320D01*
X39110D01*
Y24920D01*
X38710D01*
X38790Y25000D02*
Y25240D01*
X39030D01*
Y25000D01*
X38790D01*
X37780Y25060D02*
Y25460D01*
X38180D01*
Y25060D01*
X37780D01*
X37860Y25140D02*
Y25380D01*
X38100D01*
Y25140D01*
X37860D01*
X37740Y26240D02*
Y26640D01*
X38140D01*
Y26240D01*
X37740D01*
X37820Y26320D02*
Y26560D01*
X38060D01*
Y26320D01*
X37820D01*
X38200D02*
Y26720D01*
X38600D01*
Y26320D01*
X38200D01*
X38280Y26400D02*
Y26640D01*
X38520D01*
Y26400D01*
X38280D01*
X39720Y26120D02*
Y26520D01*
X40120D01*
Y26120D01*
X39720D01*
X39800Y26200D02*
Y26440D01*
X40040D01*
Y26200D01*
X39800D01*
X39720Y25030D02*
Y25430D01*
X40120D01*
Y25030D01*
X39720D01*
X39800Y25110D02*
Y25350D01*
X40040D01*
Y25110D01*
X39800D01*
X39730Y25650D02*
Y26050D01*
X40130D01*
Y25650D01*
X39730D01*
X39810Y25730D02*
Y25970D01*
X40050D01*
Y25730D01*
X39810D01*
X39240Y26320D02*
Y26720D01*
X39640D01*
Y26320D01*
X39240D01*
X39320Y26400D02*
Y26640D01*
X39560D01*
Y26400D01*
X39320D01*
X38760Y26300D02*
Y26700D01*
X39160D01*
Y26300D01*
X38760D01*
X38840Y26380D02*
Y26620D01*
X39080D01*
Y26380D01*
X38840D01*
X38550Y22960D02*
X38650Y23060D01*
X38750D01*
X38650Y23160D01*
X38750Y23260D01*
X38650D01*
X38550Y23360D01*
X38450Y23260D01*
X38350D01*
X38450Y23160D01*
X38350Y23060D01*
X38450D01*
X38550Y22960D01*
Y23040D02*
X38610Y23100D01*
X38670D01*
X38610Y23160D01*
X38670Y23220D01*
X38610D01*
X38550Y23280D01*
X38490Y23220D01*
X38430D01*
X38490Y23160D01*
X38430Y23100D01*
X38490D01*
X38550Y23040D01*
X39350Y22960D02*
X39450Y23060D01*
X39550D01*
X39450Y23160D01*
X39550Y23260D01*
X39450D01*
X39350Y23360D01*
X39250Y23260D01*
X39150D01*
X39250Y23160D01*
X39150Y23060D01*
X39250D01*
X39350Y22960D01*
Y23040D02*
X39410Y23100D01*
X39470D01*
X39410Y23160D01*
X39470Y23220D01*
X39410D01*
X39350Y23280D01*
X39290Y23220D01*
X39230D01*
X39290Y23160D01*
X39230Y23100D01*
X39290D01*
X39350Y23040D01*
X38550Y24320D02*
X38650Y24420D01*
X38750D01*
X38650Y24520D01*
X38750Y24620D01*
X38650D01*
X38550Y24720D01*
X38450Y24620D01*
X38350D01*
X38450Y24520D01*
X38350Y24420D01*
X38450D01*
X38550Y24320D01*
Y24400D02*
X38610Y24460D01*
X38670D01*
X38610Y24520D01*
X38670Y24580D01*
X38610D01*
X38550Y24640D01*
X38490Y24580D01*
X38430D01*
X38490Y24520D01*
X38430Y24460D01*
X38490D01*
X38550Y24400D01*
X39330Y24320D02*
X39430Y24420D01*
X39530D01*
X39430Y24520D01*
X39530Y24620D01*
X39430D01*
X39330Y24720D01*
X39230Y24620D01*
X39130D01*
X39230Y24520D01*
X39130Y24420D01*
X39230D01*
X39330Y24320D01*
Y24400D02*
X39390Y24460D01*
X39450D01*
X39390Y24520D01*
X39450Y24580D01*
X39390D01*
X39330Y24640D01*
X39270Y24580D01*
X39210D01*
X39270Y24520D01*
X39210Y24460D01*
X39270D01*
X39330Y24400D01*
X38950Y22960D02*
X39050Y23060D01*
X39150D01*
X39050Y23160D01*
X39150Y23260D01*
X39050D01*
X38950Y23360D01*
X38850Y23260D01*
X38750D01*
X38850Y23160D01*
X38750Y23060D01*
X38850D01*
X38950Y22960D01*
Y23040D02*
X39010Y23100D01*
X39070D01*
X39010Y23160D01*
X39070Y23220D01*
X39010D01*
X38950Y23280D01*
X38890Y23220D01*
X38830D01*
X38890Y23160D01*
X38830Y23100D01*
X38890D01*
X38950Y23040D01*
Y24320D02*
X39050Y24420D01*
X39150D01*
X39050Y24520D01*
X39150Y24620D01*
X39050D01*
X38950Y24720D01*
X38850Y24620D01*
X38750D01*
X38850Y24520D01*
X38750Y24420D01*
X38850D01*
X38950Y24320D01*
Y24400D02*
X39010Y24460D01*
X39070D01*
X39010Y24520D01*
X39070Y24580D01*
X39010D01*
X38950Y24640D01*
X38890Y24580D01*
X38830D01*
X38890Y24520D01*
X38830Y24460D01*
X38890D01*
X38950Y24400D01*
X37680Y27580D02*
Y27980D01*
X38080D01*
Y27580D01*
X37680D01*
X37760Y27660D02*
Y27900D01*
X38000D01*
Y27660D01*
X37760D01*
X38770Y28350D02*
Y28750D01*
X39170D01*
Y28350D01*
X38770D01*
X38850Y28430D02*
Y28670D01*
X39090D01*
Y28430D01*
X38850D01*
X38790Y26890D02*
Y27290D01*
X39190D01*
Y26890D01*
X38790D01*
X38870Y26970D02*
Y27210D01*
X39110D01*
Y26970D01*
X38870D01*
X39800Y27630D02*
Y28030D01*
X40200D01*
Y27630D01*
X39800D01*
X39880Y27710D02*
Y27950D01*
X40120D01*
Y27710D01*
X39880D01*
X39800Y27210D02*
Y27610D01*
X40200D01*
Y27210D01*
X39800D01*
X39880Y27290D02*
Y27530D01*
X40120D01*
Y27290D01*
X39880D01*
X39790Y28080D02*
Y28480D01*
X40190D01*
Y28080D01*
X39790D01*
X39870Y28160D02*
Y28400D01*
X40110D01*
Y28160D01*
X39870D01*
X39240Y28330D02*
Y28730D01*
X39640D01*
Y28330D01*
X39240D01*
X39320Y28410D02*
Y28650D01*
X39560D01*
Y28410D01*
X39320D01*
X38350Y28330D02*
Y28730D01*
X38750D01*
Y28330D01*
X38350D01*
X38430Y28410D02*
Y28650D01*
X38670D01*
Y28410D01*
X38430D01*
X37750Y27950D02*
Y28350D01*
X38150D01*
Y27950D01*
X37750D01*
X37830Y28030D02*
Y28270D01*
X38070D01*
Y28030D01*
X37830D01*
X37810Y27190D02*
Y27590D01*
X38210D01*
Y27190D01*
X37810D01*
X37890Y27270D02*
Y27510D01*
X38130D01*
Y27270D01*
X37890D01*
X38370Y26920D02*
Y27320D01*
X38770D01*
Y26920D01*
X38370D01*
X38450Y27000D02*
Y27240D01*
X38690D01*
Y27000D01*
X38450D01*
X39190Y26930D02*
Y27330D01*
X39590D01*
Y26930D01*
X39190D01*
X39270Y27010D02*
Y27250D01*
X39510D01*
Y27010D01*
X39270D01*
X38740Y28890D02*
Y29290D01*
X39140D01*
Y28890D01*
X38740D01*
X38820Y28970D02*
Y29210D01*
X39060D01*
Y28970D01*
X38820D01*
X39800Y29630D02*
Y30030D01*
X40200D01*
Y29630D01*
X39800D01*
X39880Y29710D02*
Y29950D01*
X40120D01*
Y29710D01*
X39880D01*
X38780Y30380D02*
Y30780D01*
X39180D01*
Y30380D01*
X38780D01*
X38860Y30460D02*
Y30700D01*
X39100D01*
Y30460D01*
X38860D01*
X37670Y29190D02*
Y29590D01*
X38070D01*
Y29190D01*
X37670D01*
X37750Y29270D02*
Y29510D01*
X37990D01*
Y29270D01*
X37750D01*
X37680Y30130D02*
Y30530D01*
X38080D01*
Y30130D01*
X37680D01*
X37760Y30210D02*
Y30450D01*
X38000D01*
Y30210D01*
X37760D01*
X39800Y30120D02*
Y30520D01*
X40200D01*
Y30120D01*
X39800D01*
X39880Y30200D02*
Y30440D01*
X40120D01*
Y30200D01*
X39880D01*
X39790Y29110D02*
Y29510D01*
X40190D01*
Y29110D01*
X39790D01*
X39870Y29190D02*
Y29430D01*
X40110D01*
Y29190D01*
X39870D01*
X39190Y30930D02*
Y31330D01*
X39590D01*
Y30930D01*
X39190D01*
X39270Y31010D02*
Y31250D01*
X39510D01*
Y31010D01*
X39270D01*
X38370Y30920D02*
Y31320D01*
X38770D01*
Y30920D01*
X38370D01*
X38450Y31000D02*
Y31240D01*
X38690D01*
Y31000D01*
X38450D01*
X37810Y31190D02*
Y31590D01*
X38210D01*
Y31190D01*
X37810D01*
X37890Y31270D02*
Y31510D01*
X38130D01*
Y31270D01*
X37890D01*
X37750Y31950D02*
Y32350D01*
X38150D01*
Y31950D01*
X37750D01*
X37830Y32030D02*
Y32270D01*
X38070D01*
Y32030D01*
X37830D01*
X38350Y32330D02*
Y32730D01*
X38750D01*
Y32330D01*
X38350D01*
X38430Y32410D02*
Y32650D01*
X38670D01*
Y32410D01*
X38430D01*
X39240Y32330D02*
Y32730D01*
X39640D01*
Y32330D01*
X39240D01*
X39320Y32410D02*
Y32650D01*
X39560D01*
Y32410D01*
X39320D01*
X39790Y32080D02*
Y32480D01*
X40190D01*
Y32080D01*
X39790D01*
X39870Y32160D02*
Y32400D01*
X40110D01*
Y32160D01*
X39870D01*
X39800Y31210D02*
Y31610D01*
X40200D01*
Y31210D01*
X39800D01*
X39880Y31290D02*
Y31530D01*
X40120D01*
Y31290D01*
X39880D01*
X39800Y31630D02*
Y32030D01*
X40200D01*
Y31630D01*
X39800D01*
X39880Y31710D02*
Y31950D01*
X40120D01*
Y31710D01*
X39880D01*
X38790Y30890D02*
Y31290D01*
X39190D01*
Y30890D01*
X38790D01*
X38870Y30970D02*
Y31210D01*
X39110D01*
Y30970D01*
X38870D01*
X38770Y32350D02*
Y32750D01*
X39170D01*
Y32350D01*
X38770D01*
X38850Y32430D02*
Y32670D01*
X39090D01*
Y32430D01*
X38850D01*
X37680Y31580D02*
Y31980D01*
X38080D01*
Y31580D01*
X37680D01*
X37760Y31660D02*
Y31900D01*
X38000D01*
Y31660D01*
X37760D01*
X39750Y33090D02*
Y33490D01*
X40150D01*
Y33090D01*
X39750D01*
X39830Y33170D02*
Y33410D01*
X40070D01*
Y33170D01*
X39830D01*
X39760Y34200D02*
Y34600D01*
X40160D01*
Y34200D01*
X39760D01*
X39840Y34280D02*
Y34520D01*
X40080D01*
Y34280D01*
X39840D01*
X37680Y34130D02*
Y34530D01*
X38080D01*
Y34130D01*
X37680D01*
X37760Y34210D02*
Y34450D01*
X38000D01*
Y34210D01*
X37760D01*
X37881Y32782D02*
Y33182D01*
X38281D01*
Y32782D01*
X37881D01*
X37961Y32862D02*
Y33102D01*
X38201D01*
Y32862D01*
X37961D01*
X38770Y34510D02*
Y34910D01*
X39170D01*
Y34510D01*
X38770D01*
X38850Y34590D02*
Y34830D01*
X39090D01*
Y34590D01*
X38850D01*
X39800Y33630D02*
Y34030D01*
X40200D01*
Y33630D01*
X39800D01*
X39880Y33710D02*
Y33950D01*
X40120D01*
Y33710D01*
X39880D01*
X38740Y32890D02*
Y33290D01*
X39140D01*
Y32890D01*
X38740D01*
X38820Y32970D02*
Y33210D01*
X39060D01*
Y32970D01*
X38820D01*
X17840Y24620D02*
Y25020D01*
X18240D01*
Y24620D01*
X17840D01*
X17920Y24700D02*
Y24940D01*
X18160D01*
Y24700D01*
X17920D01*
X17480Y24660D02*
Y25060D01*
X17880D01*
Y24660D01*
X17480D01*
X17560Y24740D02*
Y24980D01*
X17800D01*
Y24740D01*
X17560D01*
X23110Y14520D02*
Y14920D01*
X23510D01*
Y14520D01*
X23110D01*
X23190Y14600D02*
Y14840D01*
X23430D01*
Y14600D01*
X23190D01*
X23140Y15610D02*
Y16010D01*
X23540D01*
Y15610D01*
X23140D01*
X23220Y15690D02*
Y15930D01*
X23460D01*
Y15690D01*
X23220D01*
X22780Y15620D02*
Y16020D01*
X23180D01*
Y15620D01*
X22780D01*
X22860Y15700D02*
Y15940D01*
X23100D01*
Y15700D01*
X22860D01*
X22760Y16740D02*
Y17140D01*
X23160D01*
Y16740D01*
X22760D01*
X22840Y16820D02*
Y17060D01*
X23080D01*
Y16820D01*
X22840D01*
X25500Y17500D02*
Y17900D01*
X25900D01*
Y17500D01*
X25500D01*
X25580Y17580D02*
Y17820D01*
X25820D01*
Y17580D01*
X25580D01*
X25540Y19070D02*
Y19470D01*
X25940D01*
Y19070D01*
X25540D01*
X25620Y19150D02*
Y19390D01*
X25860D01*
Y19150D01*
X25620D01*
X26160Y17350D02*
Y17750D01*
X26560D01*
Y17350D01*
X26160D01*
X26240Y17430D02*
Y17670D01*
X26480D01*
Y17430D01*
X26240D01*
X26090Y16750D02*
Y17150D01*
X26490D01*
Y16750D01*
X26090D01*
X26170Y16830D02*
Y17070D01*
X26410D01*
Y16830D01*
X26170D01*
X18060Y15715D02*
Y16115D01*
X18460D01*
Y15715D01*
X18060D01*
X18140Y15795D02*
Y16035D01*
X18380D01*
Y15795D01*
X18140D01*
X18320Y16000D02*
Y16400D01*
X18720D01*
Y16000D01*
X18320D01*
X18400Y16080D02*
Y16320D01*
X18640D01*
Y16080D01*
X18400D01*
X18460Y16510D02*
Y16910D01*
X18860D01*
Y16510D01*
X18460D01*
X18540Y16590D02*
Y16830D01*
X18780D01*
Y16590D01*
X18540D01*
X18660Y16170D02*
Y16570D01*
X19060D01*
Y16170D01*
X18660D01*
X18740Y16250D02*
Y16490D01*
X18980D01*
Y16250D01*
X18740D01*
X20530Y15430D02*
Y15830D01*
X20930D01*
Y15430D01*
X20530D01*
X20610Y15510D02*
Y15750D01*
X20850D01*
Y15510D01*
X20610D01*
X20570Y15820D02*
Y16220D01*
X20970D01*
Y15820D01*
X20570D01*
X20650Y15900D02*
Y16140D01*
X20890D01*
Y15900D01*
X20650D01*
X20820Y16080D02*
Y16480D01*
X21220D01*
Y16080D01*
X20820D01*
X20900Y16160D02*
Y16400D01*
X21140D01*
Y16160D01*
X20900D01*
X21050Y15800D02*
Y16200D01*
X21450D01*
Y15800D01*
X21050D01*
X21130Y15880D02*
Y16120D01*
X21370D01*
Y15880D01*
X21130D01*
X5930Y27460D02*
Y27860D01*
X6330D01*
Y27460D01*
X5930D01*
X6010Y27540D02*
Y27780D01*
X6250D01*
Y27540D01*
X6010D01*
X6280Y28070D02*
Y28470D01*
X6680D01*
Y28070D01*
X6280D01*
X6360Y28150D02*
Y28390D01*
X6600D01*
Y28150D01*
X6360D01*
X11990Y27970D02*
Y28370D01*
X12390D01*
Y27970D01*
X11990D01*
X12070Y28050D02*
Y28290D01*
X12310D01*
Y28050D01*
X12070D01*
X12250Y16540D02*
Y16940D01*
X12650D01*
Y16540D01*
X12250D01*
X12330Y16620D02*
Y16860D01*
X12570D01*
Y16620D01*
X12330D01*
X14180Y16560D02*
Y16960D01*
X14580D01*
Y16560D01*
X14180D01*
X14260Y16640D02*
Y16880D01*
X14500D01*
Y16640D01*
X14260D01*
X15550Y20040D02*
Y20440D01*
X15950D01*
Y20040D01*
X15550D01*
X15630Y20120D02*
Y20360D01*
X15870D01*
Y20120D01*
X15630D01*
X13930Y20310D02*
Y20710D01*
X14330D01*
Y20310D01*
X13930D01*
X14010Y20390D02*
Y20630D01*
X14250D01*
Y20390D01*
X14010D01*
X21800Y26310D02*
Y26710D01*
X22200D01*
Y26310D01*
X21800D01*
X21880Y26390D02*
Y26630D01*
X22120D01*
Y26390D01*
X21880D01*
X38360Y3420D02*
Y3820D01*
X38760D01*
Y3420D01*
X38360D01*
X38440Y3500D02*
Y3740D01*
X38680D01*
Y3500D01*
X38440D01*
X40330Y18020D02*
Y18420D01*
X40730D01*
Y18020D01*
X40330D01*
X40410Y18100D02*
Y18340D01*
X40650D01*
Y18100D01*
X40410D01*
X40330Y18620D02*
Y19020D01*
X40730D01*
Y18620D01*
X40330D01*
X40410Y18700D02*
Y18940D01*
X40650D01*
Y18700D01*
X40410D01*
X40330Y18320D02*
Y18720D01*
X40730D01*
Y18320D01*
X40330D01*
X40410Y18400D02*
Y18640D01*
X40650D01*
Y18400D01*
X40410D01*
X34530Y22080D02*
Y22480D01*
X34930D01*
Y22080D01*
X34530D01*
X34610Y22160D02*
Y22400D01*
X34850D01*
Y22160D01*
X34610D01*
X32980Y22080D02*
Y22480D01*
X33380D01*
Y22080D01*
X32980D01*
X33060Y22160D02*
Y22400D01*
X33300D01*
Y22160D01*
X33060D01*
X30410Y22080D02*
Y22480D01*
X30810D01*
Y22080D01*
X30410D01*
X30490Y22160D02*
Y22400D01*
X30730D01*
Y22160D01*
X30490D01*
X29040Y22080D02*
Y22480D01*
X29440D01*
Y22080D01*
X29040D01*
X29120Y22160D02*
Y22400D01*
X29360D01*
Y22160D01*
X29120D01*
X27240Y22080D02*
Y22480D01*
X27640D01*
Y22080D01*
X27240D01*
X27320Y22160D02*
Y22400D01*
X27560D01*
Y22160D01*
X27320D01*
X26420Y21080D02*
Y21480D01*
X26820D01*
Y21080D01*
X26420D01*
X26500Y21160D02*
Y21400D01*
X26740D01*
Y21160D01*
X26500D01*
X26020Y21100D02*
Y21500D01*
X26420D01*
Y21100D01*
X26020D01*
X26100Y21180D02*
Y21420D01*
X26340D01*
Y21180D01*
X26100D01*
X26070Y20030D02*
Y20430D01*
X26470D01*
Y20030D01*
X26070D01*
X26150Y20110D02*
Y20350D01*
X26390D01*
Y20110D01*
X26150D01*
X25710Y20030D02*
Y20430D01*
X26110D01*
Y20030D01*
X25710D01*
X25790Y20110D02*
Y20350D01*
X26030D01*
Y20110D01*
X25790D01*
X28390Y21340D02*
Y21740D01*
X28790D01*
Y21340D01*
X28390D01*
X28470Y21420D02*
Y21660D01*
X28710D01*
Y21420D01*
X28470D01*
X31850Y21410D02*
Y21810D01*
X32250D01*
Y21410D01*
X31850D01*
X31930Y21490D02*
Y21730D01*
X32170D01*
Y21490D01*
X31930D01*
X33350Y20050D02*
Y20450D01*
X33750D01*
Y20050D01*
X33350D01*
X33430Y20130D02*
Y20370D01*
X33670D01*
Y20130D01*
X33430D01*
X31060Y20040D02*
Y20440D01*
X31460D01*
Y20040D01*
X31060D01*
X31140Y20120D02*
Y20360D01*
X31380D01*
Y20120D01*
X31140D01*
X28037Y21090D02*
Y21490D01*
X28437D01*
Y21090D01*
X28037D01*
X28117Y21170D02*
Y21410D01*
X28357D01*
Y21170D01*
X28117D01*
X29847Y21090D02*
Y21490D01*
X30247D01*
Y21090D01*
X29847D01*
X29927Y21170D02*
Y21410D01*
X30167D01*
Y21170D01*
X29927D01*
X33807Y21090D02*
Y21490D01*
X34207D01*
Y21090D01*
X33807D01*
X33887Y21170D02*
Y21410D01*
X34127D01*
Y21170D01*
X33887D01*
X31497Y21090D02*
Y21490D01*
X31897D01*
Y21090D01*
X31497D01*
X31577Y21170D02*
Y21410D01*
X31817D01*
Y21170D01*
X31577D01*
X35467Y21080D02*
Y21480D01*
X35867D01*
Y21080D01*
X35467D01*
X35547Y21160D02*
Y21400D01*
X35787D01*
Y21160D01*
X35547D01*
X35030Y21070D02*
Y21470D01*
X35430D01*
Y21070D01*
X35030D01*
X35110Y21150D02*
Y21390D01*
X35350D01*
Y21150D01*
X35110D01*
X33350Y21070D02*
Y21470D01*
X33750D01*
Y21070D01*
X33350D01*
X33430Y21150D02*
Y21390D01*
X33670D01*
Y21150D01*
X33430D01*
X31060Y21070D02*
Y21470D01*
X31460D01*
Y21070D01*
X31060D01*
X31140Y21150D02*
Y21390D01*
X31380D01*
Y21150D01*
X31140D01*
X29410Y21080D02*
Y21480D01*
X29810D01*
Y21080D01*
X29410D01*
X29490Y21160D02*
Y21400D01*
X29730D01*
Y21160D01*
X29490D01*
X27610Y21080D02*
Y21480D01*
X28010D01*
Y21080D01*
X27610D01*
X27690Y21160D02*
Y21400D01*
X27930D01*
Y21160D01*
X27690D01*
X35030Y20030D02*
Y20430D01*
X35430D01*
Y20030D01*
X35030D01*
X35110Y20110D02*
Y20350D01*
X35350D01*
Y20110D01*
X35110D01*
X29410Y20040D02*
Y20440D01*
X29810D01*
Y20040D01*
X29410D01*
X29490Y20120D02*
Y20360D01*
X29730D01*
Y20120D01*
X29490D01*
X27610Y20040D02*
Y20440D01*
X28010D01*
Y20040D01*
X27610D01*
X27690Y20120D02*
Y20360D01*
X27930D01*
Y20120D01*
X27690D01*
X1991Y16430D02*
Y16830D01*
X2391D01*
Y16430D01*
X1991D01*
X2071Y16510D02*
Y16750D01*
X2311D01*
Y16510D01*
X2071D01*
X281Y14320D02*
Y14720D01*
X681D01*
Y14320D01*
X281D01*
X361Y14400D02*
Y14640D01*
X601D01*
Y14400D01*
X361D01*
X281Y17280D02*
Y17680D01*
X681D01*
Y17280D01*
X281D01*
X361Y17360D02*
Y17600D01*
X601D01*
Y17360D01*
X361D01*
X281Y17720D02*
Y18120D01*
X681D01*
Y17720D01*
X281D01*
X361Y17800D02*
Y18040D01*
X601D01*
Y17800D01*
X361D01*
X281Y13890D02*
Y14290D01*
X681D01*
Y13890D01*
X281D01*
X361Y13970D02*
Y14210D01*
X601D01*
Y13970D01*
X361D01*
X21610Y21370D02*
Y21770D01*
X22010D01*
Y21370D01*
X21610D01*
X21690Y21450D02*
Y21690D01*
X21930D01*
Y21450D01*
X21690D01*
X21950Y21010D02*
Y21410D01*
X22350D01*
Y21010D01*
X21950D01*
X22030Y21090D02*
Y21330D01*
X22270D01*
Y21090D01*
X22030D01*
X25302Y30442D02*
Y30842D01*
X25702D01*
Y30442D01*
X25302D01*
X25382Y30522D02*
Y30762D01*
X25622D01*
Y30522D01*
X25382D01*
X16212Y34000D02*
Y34400D01*
X16612D01*
Y34000D01*
X16212D01*
X16292Y34080D02*
Y34320D01*
X16532D01*
Y34080D01*
X16292D01*
X2571Y18710D02*
Y19110D01*
X2971D01*
Y18710D01*
X2571D01*
X2651Y18790D02*
Y19030D01*
X2891D01*
Y18790D01*
X2651D01*
X881Y18710D02*
Y19110D01*
X1281D01*
Y18710D01*
X881D01*
X961Y18790D02*
Y19030D01*
X1201D01*
Y18790D01*
X961D01*
X310Y19890D02*
Y20290D01*
X710D01*
Y19890D01*
X310D01*
X390Y19970D02*
Y20210D01*
X630D01*
Y19970D01*
X390D01*
X2011Y16870D02*
Y17270D01*
X2411D01*
Y16870D01*
X2011D01*
X2091Y16950D02*
Y17190D01*
X2331D01*
Y16950D01*
X2091D01*
X7040Y11064D02*
Y11464D01*
X7440D01*
Y11064D01*
X7040D01*
X7120Y11144D02*
Y11384D01*
X7360D01*
Y11144D01*
X7120D01*
X7040Y10627D02*
Y11027D01*
X7440D01*
Y10627D01*
X7040D01*
X7120Y10707D02*
Y10947D01*
X7360D01*
Y10707D01*
X7120D01*
X7040Y11507D02*
Y11907D01*
X7440D01*
Y11507D01*
X7040D01*
X7120Y11587D02*
Y11827D01*
X7360D01*
Y11587D01*
X7120D01*
X14140Y11064D02*
Y11464D01*
X14540D01*
Y11064D01*
X14140D01*
X14220Y11144D02*
Y11384D01*
X14460D01*
Y11144D01*
X14220D01*
X14140Y10627D02*
Y11027D01*
X14540D01*
Y10627D01*
X14140D01*
X14220Y10707D02*
Y10947D01*
X14460D01*
Y10707D01*
X14220D01*
X14140Y11507D02*
Y11907D01*
X14540D01*
Y11507D01*
X14140D01*
X14220Y11587D02*
Y11827D01*
X14460D01*
Y11587D01*
X14220D01*
X21200Y11064D02*
Y11464D01*
X21600D01*
Y11064D01*
X21200D01*
X21280Y11144D02*
Y11384D01*
X21520D01*
Y11144D01*
X21280D01*
X21200Y10627D02*
Y11027D01*
X21600D01*
Y10627D01*
X21200D01*
X21280Y10707D02*
Y10947D01*
X21520D01*
Y10707D01*
X21280D01*
X21200Y11507D02*
Y11907D01*
X21600D01*
Y11507D01*
X21200D01*
X21280Y11587D02*
Y11827D01*
X21520D01*
Y11587D01*
X21280D01*
X28270Y11064D02*
Y11464D01*
X28670D01*
Y11064D01*
X28270D01*
X28350Y11144D02*
Y11384D01*
X28590D01*
Y11144D01*
X28350D01*
X28270Y10627D02*
Y11027D01*
X28670D01*
Y10627D01*
X28270D01*
X28350Y10707D02*
Y10947D01*
X28590D01*
Y10707D01*
X28350D01*
X28270Y11507D02*
Y11907D01*
X28670D01*
Y11507D01*
X28270D01*
X28350Y11587D02*
Y11827D01*
X28590D01*
Y11587D01*
X28350D01*
X35400Y11507D02*
Y11907D01*
X35800D01*
Y11507D01*
X35400D01*
X35480Y11587D02*
Y11827D01*
X35720D01*
Y11587D01*
X35480D01*
X35400Y10627D02*
Y11027D01*
X35800D01*
Y10627D01*
X35400D01*
X35480Y10707D02*
Y10947D01*
X35720D01*
Y10707D01*
X35480D01*
X35400Y11064D02*
Y11464D01*
X35800D01*
Y11064D01*
X35400D01*
X35480Y11144D02*
Y11384D01*
X35720D01*
Y11144D01*
X35480D01*
X7000Y9474D02*
Y9874D01*
X7400D01*
Y9474D01*
X7000D01*
X7080Y9554D02*
Y9794D01*
X7320D01*
Y9554D01*
X7080D01*
X7020Y8594D02*
Y8994D01*
X7420D01*
Y8594D01*
X7020D01*
X7100Y8674D02*
Y8914D01*
X7340D01*
Y8674D01*
X7100D01*
X7000Y9030D02*
Y9430D01*
X7400D01*
Y9030D01*
X7000D01*
X7080Y9110D02*
Y9350D01*
X7320D01*
Y9110D01*
X7080D01*
X14100Y9474D02*
Y9874D01*
X14500D01*
Y9474D01*
X14100D01*
X14180Y9554D02*
Y9794D01*
X14420D01*
Y9554D01*
X14180D01*
X14100Y8594D02*
Y8994D01*
X14500D01*
Y8594D01*
X14100D01*
X14180Y8674D02*
Y8914D01*
X14420D01*
Y8674D01*
X14180D01*
X14100Y9030D02*
Y9430D01*
X14500D01*
Y9030D01*
X14100D01*
X14180Y9110D02*
Y9350D01*
X14420D01*
Y9110D01*
X14180D01*
X21160Y9474D02*
Y9874D01*
X21560D01*
Y9474D01*
X21160D01*
X21240Y9554D02*
Y9794D01*
X21480D01*
Y9554D01*
X21240D01*
X21160Y8594D02*
Y8994D01*
X21560D01*
Y8594D01*
X21160D01*
X21240Y8674D02*
Y8914D01*
X21480D01*
Y8674D01*
X21240D01*
X21160Y9030D02*
Y9430D01*
X21560D01*
Y9030D01*
X21160D01*
X21240Y9110D02*
Y9350D01*
X21480D01*
Y9110D01*
X21240D01*
X28230Y9474D02*
Y9874D01*
X28630D01*
Y9474D01*
X28230D01*
X28310Y9554D02*
Y9794D01*
X28550D01*
Y9554D01*
X28310D01*
X28230Y8594D02*
Y8994D01*
X28630D01*
Y8594D01*
X28230D01*
X28310Y8674D02*
Y8914D01*
X28550D01*
Y8674D01*
X28310D01*
X28230Y9030D02*
Y9430D01*
X28630D01*
Y9030D01*
X28230D01*
X28310Y9110D02*
Y9350D01*
X28550D01*
Y9110D01*
X28310D01*
X35360Y9030D02*
Y9430D01*
X35760D01*
Y9030D01*
X35360D01*
X35440Y9110D02*
Y9350D01*
X35680D01*
Y9110D01*
X35440D01*
X35360Y8594D02*
Y8994D01*
X35760D01*
Y8594D01*
X35360D01*
X35440Y8674D02*
Y8914D01*
X35680D01*
Y8674D01*
X35440D01*
X35360Y9474D02*
Y9874D01*
X35760D01*
Y9474D01*
X35360D01*
X35440Y9554D02*
Y9794D01*
X35680D01*
Y9554D01*
X35440D01*
X30250Y10890D02*
Y11290D01*
X30650D01*
Y10890D01*
X30250D01*
X30330Y10970D02*
Y11210D01*
X30570D01*
Y10970D01*
X30330D01*
X23350Y11070D02*
Y11470D01*
X23750D01*
Y11070D01*
X23350D01*
X23430Y11150D02*
Y11390D01*
X23670D01*
Y11150D01*
X23430D01*
X2660Y11080D02*
Y11480D01*
X3060D01*
Y11080D01*
X2660D01*
X2740Y11160D02*
Y11400D01*
X2980D01*
Y11160D01*
X2740D01*
X13300Y12135D02*
Y12535D01*
X13700D01*
Y12135D01*
X13300D01*
X13380Y12215D02*
Y12455D01*
X13620D01*
Y12215D01*
X13380D01*
X35930Y6960D02*
Y7360D01*
X36330D01*
Y6960D01*
X35930D01*
X36010Y7040D02*
Y7280D01*
X36250D01*
Y7040D01*
X36010D01*
X35230Y7450D02*
Y7850D01*
X35630D01*
Y7450D01*
X35230D01*
X35310Y7530D02*
Y7770D01*
X35550D01*
Y7530D01*
X35310D01*
X28170Y7390D02*
Y7790D01*
X28570D01*
Y7390D01*
X28170D01*
X28250Y7470D02*
Y7710D01*
X28490D01*
Y7470D01*
X28250D01*
X28810Y6950D02*
Y7350D01*
X29210D01*
Y6950D01*
X28810D01*
X28890Y7030D02*
Y7270D01*
X29130D01*
Y7030D01*
X28890D01*
X19805Y8810D02*
Y9210D01*
X20205D01*
Y8810D01*
X19805D01*
X19885Y8890D02*
Y9130D01*
X20125D01*
Y8890D01*
X19885D01*
X21040Y7460D02*
Y7860D01*
X21440D01*
Y7460D01*
X21040D01*
X21120Y7540D02*
Y7780D01*
X21360D01*
Y7540D01*
X21120D01*
X21750Y6970D02*
Y7370D01*
X22150D01*
Y6970D01*
X21750D01*
X21830Y7050D02*
Y7290D01*
X22070D01*
Y7050D01*
X21830D01*
X290Y12490D02*
Y12890D01*
X690D01*
Y12490D01*
X290D01*
X370Y12570D02*
Y12810D01*
X610D01*
Y12570D01*
X370D01*
X250Y31190D02*
Y31590D01*
X650D01*
Y31190D01*
X250D01*
X330Y31270D02*
Y31510D01*
X570D01*
Y31270D01*
X330D01*
X300Y10380D02*
Y10780D01*
X700D01*
Y10380D01*
X300D01*
X380Y10460D02*
Y10700D01*
X620D01*
Y10460D01*
X380D01*
X1741Y19700D02*
Y20100D01*
X2141D01*
Y19700D01*
X1741D01*
X1821Y19780D02*
Y20020D01*
X2061D01*
Y19780D01*
X1821D01*
X5551Y18850D02*
Y19250D01*
X5951D01*
Y18850D01*
X5551D01*
X5631Y18930D02*
Y19170D01*
X5871D01*
Y18930D01*
X5631D01*
X13430Y16090D02*
Y16490D01*
X13830D01*
Y16090D01*
X13430D01*
X13510Y16170D02*
Y16410D01*
X13750D01*
Y16170D01*
X13510D01*
X14480Y17250D02*
Y17650D01*
X14880D01*
Y17250D01*
X14480D01*
X14560Y17330D02*
Y17570D01*
X14800D01*
Y17330D01*
X14560D01*
X14140Y17070D02*
Y17470D01*
X14540D01*
Y17070D01*
X14140D01*
X14220Y17150D02*
Y17390D01*
X14460D01*
Y17150D01*
X14220D01*
X14680Y16740D02*
Y17140D01*
X15080D01*
Y16740D01*
X14680D01*
X14760Y16820D02*
Y17060D01*
X15000D01*
Y16820D01*
X14760D01*
X15030Y16610D02*
Y17010D01*
X15430D01*
Y16610D01*
X15030D01*
X15110Y16690D02*
Y16930D01*
X15350D01*
Y16690D01*
X15110D01*
X15993Y16463D02*
Y16863D01*
X16393D01*
Y16463D01*
X15993D01*
X16073Y16543D02*
Y16783D01*
X16313D01*
Y16543D01*
X16073D01*
X19230Y17705D02*
Y18105D01*
X19630D01*
Y17705D01*
X19230D01*
X19310Y17785D02*
Y18025D01*
X19550D01*
Y17785D01*
X19310D01*
X23180Y13120D02*
Y13520D01*
X23580D01*
Y13120D01*
X23180D01*
X23260Y13200D02*
Y13440D01*
X23500D01*
Y13200D01*
X23260D01*
X19700Y13130D02*
Y13530D01*
X20100D01*
Y13130D01*
X19700D01*
X19780Y13210D02*
Y13450D01*
X20020D01*
Y13210D01*
X19780D01*
X15440Y18040D02*
Y18440D01*
X15840D01*
Y18040D01*
X15440D01*
X15520Y18120D02*
Y18360D01*
X15760D01*
Y18120D01*
X15520D01*
X15080Y18130D02*
Y18530D01*
X15480D01*
Y18130D01*
X15080D01*
X15160Y18210D02*
Y18450D01*
X15400D01*
Y18210D01*
X15160D01*
X21470Y19940D02*
Y20340D01*
X21870D01*
Y19940D01*
X21470D01*
X21550Y20020D02*
Y20260D01*
X21790D01*
Y20020D01*
X21550D01*
X21770Y20380D02*
Y20780D01*
X22170D01*
Y20380D01*
X21770D01*
X21850Y20460D02*
Y20700D01*
X22090D01*
Y20460D01*
X21850D01*
X21720Y19620D02*
Y20020D01*
X22120D01*
Y19620D01*
X21720D01*
X21800Y19700D02*
Y19940D01*
X22040D01*
Y19700D01*
X21800D01*
X16980Y24930D02*
Y25330D01*
X17380D01*
Y24930D01*
X16980D01*
X17060Y25010D02*
Y25250D01*
X17300D01*
Y25010D01*
X17060D01*
X26070Y15790D02*
Y16190D01*
X26470D01*
Y15790D01*
X26070D01*
X26150Y15870D02*
Y16110D01*
X26390D01*
Y15870D01*
X26150D01*
X21564Y23440D02*
Y23840D01*
X21964D01*
Y23440D01*
X21564D01*
X21644Y23520D02*
Y23760D01*
X21884D01*
Y23520D01*
X21644D01*
X29010Y13350D02*
Y13750D01*
X29410D01*
Y13350D01*
X29010D01*
X29090Y13430D02*
Y13670D01*
X29330D01*
Y13430D01*
X29090D01*
X23700Y22770D02*
Y23170D01*
X24100D01*
Y22770D01*
X23700D01*
X23780Y22850D02*
Y23090D01*
X24020D01*
Y22850D01*
X23780D01*
X23800Y23350D02*
Y23750D01*
X24200D01*
Y23350D01*
X23800D01*
X23880Y23430D02*
Y23670D01*
X24120D01*
Y23430D01*
X23880D01*
X23420Y22540D02*
Y22940D01*
X23820D01*
Y22540D01*
X23420D01*
X23500Y22620D02*
Y22860D01*
X23740D01*
Y22620D01*
X23500D01*
X20140Y24490D02*
Y24890D01*
X20540D01*
Y24490D01*
X20140D01*
X20220Y24570D02*
Y24810D01*
X20460D01*
Y24570D01*
X20220D01*
X19690Y26510D02*
Y26910D01*
X20090D01*
Y26510D01*
X19690D01*
X19770Y26590D02*
Y26830D01*
X20010D01*
Y26590D01*
X19770D01*
X19330Y25920D02*
Y26320D01*
X19730D01*
Y25920D01*
X19330D01*
X19410Y26000D02*
Y26240D01*
X19650D01*
Y26000D01*
X19410D01*
X20050Y26410D02*
Y26810D01*
X20450D01*
Y26410D01*
X20050D01*
X20130Y26490D02*
Y26730D01*
X20370D01*
Y26490D01*
X20130D01*
X20090Y24850D02*
Y25250D01*
X20490D01*
Y24850D01*
X20090D01*
X20170Y24930D02*
Y25170D01*
X20410D01*
Y24930D01*
X20170D01*
X20450Y26770D02*
Y27170D01*
X20850D01*
Y26770D01*
X20450D01*
X20530Y26850D02*
Y27090D01*
X20770D01*
Y26850D01*
X20530D01*
X22040Y20660D02*
Y21060D01*
X22440D01*
Y20660D01*
X22040D01*
X22120Y20740D02*
Y20980D01*
X22360D01*
Y20740D01*
X22120D01*
X33580Y15790D02*
Y16190D01*
X33980D01*
Y15790D01*
X33580D01*
X33660Y15870D02*
Y16110D01*
X33900D01*
Y15870D01*
X33660D01*
X19140Y24630D02*
Y25030D01*
X19540D01*
Y24630D01*
X19140D01*
X19220Y24710D02*
Y24950D01*
X19460D01*
Y24710D01*
X19220D01*
X19460Y24850D02*
Y25250D01*
X19860D01*
Y24850D01*
X19460D01*
X19540Y24930D02*
Y25170D01*
X19780D01*
Y24930D01*
X19540D01*
X13950Y7480D02*
Y7880D01*
X14350D01*
Y7480D01*
X13950D01*
X14030Y7560D02*
Y7800D01*
X14270D01*
Y7560D01*
X14030D01*
X14660Y6960D02*
Y7360D01*
X15060D01*
Y6960D01*
X14660D01*
X14740Y7040D02*
Y7280D01*
X14980D01*
Y7040D01*
X14740D01*
X5746Y8810D02*
Y9210D01*
X6146D01*
Y8810D01*
X5746D01*
X5826Y8890D02*
Y9130D01*
X6066D01*
Y8890D01*
X5826D01*
X7550Y6970D02*
Y7370D01*
X7950D01*
Y6970D01*
X7550D01*
X7630Y7050D02*
Y7290D01*
X7870D01*
Y7050D01*
X7630D01*
X30010Y13710D02*
Y14110D01*
X30410D01*
Y13710D01*
X30010D01*
X30090Y13790D02*
Y14030D01*
X30330D01*
Y13790D01*
X30090D01*
X23530Y20540D02*
Y20940D01*
X23930D01*
Y20540D01*
X23530D01*
X23610Y20620D02*
Y20860D01*
X23850D01*
Y20620D01*
X23610D01*
X22080Y19570D02*
Y19970D01*
X22480D01*
Y19570D01*
X22080D01*
X22160Y19650D02*
Y19890D01*
X22400D01*
Y19650D01*
X22160D01*
X21860Y19280D02*
Y19680D01*
X22260D01*
Y19280D01*
X21860D01*
X21940Y19360D02*
Y19600D01*
X22180D01*
Y19360D01*
X21940D01*
X23440Y23440D02*
Y23840D01*
X23840D01*
Y23440D01*
X23440D01*
X23520Y23520D02*
Y23760D01*
X23760D01*
Y23520D01*
X23520D01*
X23460Y19550D02*
Y19950D01*
X23860D01*
Y19550D01*
X23460D01*
X23540Y19630D02*
Y19870D01*
X23780D01*
Y19630D01*
X23540D01*
X15380Y18420D02*
Y18820D01*
X15780D01*
Y18420D01*
X15380D01*
X15460Y18500D02*
Y18740D01*
X15700D01*
Y18500D01*
X15460D01*
X15090Y18750D02*
Y19150D01*
X15490D01*
Y18750D01*
X15090D01*
X15170Y18830D02*
Y19070D01*
X15410D01*
Y18830D01*
X15170D01*
X21960Y15860D02*
Y16260D01*
X22360D01*
Y15860D01*
X21960D01*
X22040Y15940D02*
Y16180D01*
X22280D01*
Y15940D01*
X22040D01*
X22230Y18990D02*
Y19390D01*
X22630D01*
Y18990D01*
X22230D01*
X22310Y19070D02*
Y19310D01*
X22550D01*
Y19070D01*
X22310D01*
X22020Y18680D02*
Y19080D01*
X22420D01*
Y18680D01*
X22020D01*
X22100Y18760D02*
Y19000D01*
X22340D01*
Y18760D01*
X22100D01*
X22230Y18380D02*
Y18780D01*
X22630D01*
Y18380D01*
X22230D01*
X22310Y18460D02*
Y18700D01*
X22550D01*
Y18460D01*
X22310D01*
X31120Y15770D02*
Y16170D01*
X31520D01*
Y15770D01*
X31120D01*
X31200Y15850D02*
Y16090D01*
X31440D01*
Y15850D01*
X31200D01*
X28370Y15780D02*
Y16180D01*
X28770D01*
Y15780D01*
X28370D01*
X28450Y15860D02*
Y16100D01*
X28690D01*
Y15860D01*
X28450D01*
X26560Y17230D02*
Y17630D01*
X26960D01*
Y17230D01*
X26560D01*
X26640Y17310D02*
Y17550D01*
X26880D01*
Y17310D01*
X26640D01*
X35580Y16960D02*
Y17360D01*
X35980D01*
Y16960D01*
X35580D01*
X35660Y17040D02*
Y17280D01*
X35900D01*
Y17040D01*
X35660D01*
X13090Y24730D02*
Y25130D01*
X13490D01*
Y24730D01*
X13090D01*
X13170Y24810D02*
Y25050D01*
X13410D01*
Y24810D01*
X13170D01*
X28290Y16480D02*
Y16880D01*
X28690D01*
Y16480D01*
X28290D01*
X28370Y16560D02*
Y16800D01*
X28610D01*
Y16560D01*
X28370D01*
X33590Y16770D02*
Y17170D01*
X33990D01*
Y16770D01*
X33590D01*
X33670Y16850D02*
Y17090D01*
X33910D01*
Y16850D01*
X33670D01*
X31580Y17250D02*
Y17650D01*
X31980D01*
Y17250D01*
X31580D01*
X31660Y17330D02*
Y17570D01*
X31900D01*
Y17330D01*
X31660D01*
X31060Y16770D02*
Y17170D01*
X31460D01*
Y16770D01*
X31060D01*
X31140Y16850D02*
Y17090D01*
X31380D01*
Y16850D01*
X31140D01*
X34080Y17230D02*
Y17630D01*
X34480D01*
Y17230D01*
X34080D01*
X34160Y17310D02*
Y17550D01*
X34400D01*
Y17310D01*
X34160D01*
X32560Y16920D02*
Y17320D01*
X32960D01*
Y16920D01*
X32560D01*
X32640Y17000D02*
Y17240D01*
X32880D01*
Y17000D01*
X32640D01*
X29080Y17250D02*
Y17650D01*
X29480D01*
Y17250D01*
X29080D01*
X29160Y17330D02*
Y17570D01*
X29400D01*
Y17330D01*
X29160D01*
X30100Y16980D02*
Y17380D01*
X30500D01*
Y16980D01*
X30100D01*
X30180Y17060D02*
Y17300D01*
X30420D01*
Y17060D01*
X30180D01*
X27600Y16980D02*
Y17380D01*
X28000D01*
Y16980D01*
X27600D01*
X27680Y17060D02*
Y17300D01*
X27920D01*
Y17060D01*
X27680D01*
X28980Y14860D02*
Y15260D01*
X29380D01*
Y14860D01*
X28980D01*
X29060Y14940D02*
Y15180D01*
X29300D01*
Y14940D01*
X29060D01*
X30150Y14310D02*
Y14710D01*
X30550D01*
Y14310D01*
X30150D01*
X30230Y14390D02*
Y14630D01*
X30470D01*
Y14390D01*
X30230D01*
X13690Y23680D02*
Y24080D01*
X14090D01*
Y23680D01*
X13690D01*
X13770Y23760D02*
Y24000D01*
X14010D01*
Y23760D01*
X13770D01*
X26901Y11880D02*
Y12280D01*
X27301D01*
Y11880D01*
X26901D01*
X26981Y11960D02*
Y12200D01*
X27221D01*
Y11960D01*
X26981D01*
X26431Y11880D02*
Y12280D01*
X26831D01*
Y11880D01*
X26431D01*
X26511Y11960D02*
Y12200D01*
X26751D01*
Y11960D01*
X26511D01*
X26011Y11880D02*
Y12280D01*
X26411D01*
Y11880D01*
X26011D01*
X26091Y11960D02*
Y12200D01*
X26331D01*
Y11960D01*
X26091D01*
X33520Y11880D02*
Y12280D01*
X33920D01*
Y11880D01*
X33520D01*
X33600Y11960D02*
Y12200D01*
X33840D01*
Y11960D01*
X33600D01*
X33990Y11880D02*
Y12280D01*
X34390D01*
Y11880D01*
X33990D01*
X34070Y11960D02*
Y12200D01*
X34310D01*
Y11960D01*
X34070D01*
X29918Y35617D02*
Y36017D01*
X30318D01*
Y35617D01*
X29918D01*
X29998Y35697D02*
Y35937D01*
X30238D01*
Y35697D01*
X29998D01*
X37940Y13806D02*
Y14206D01*
X38340D01*
Y13806D01*
X37940D01*
X38020Y13886D02*
Y14126D01*
X38260D01*
Y13886D01*
X38020D01*
X38658Y15942D02*
Y16342D01*
X39058D01*
Y15942D01*
X38658D01*
X38738Y16022D02*
Y16262D01*
X38978D01*
Y16022D01*
X38738D01*
X38983Y14790D02*
Y15190D01*
X39383D01*
Y14790D01*
X38983D01*
X39063Y14870D02*
Y15110D01*
X39303D01*
Y14870D01*
X39063D01*
X13090Y24350D02*
Y24750D01*
X13490D01*
Y24350D01*
X13090D01*
X13170Y24430D02*
Y24670D01*
X13410D01*
Y24430D01*
X13170D01*
X15100Y24322D02*
Y24722D01*
X15500D01*
Y24322D01*
X15100D01*
X15180Y24402D02*
Y24642D01*
X15420D01*
Y24402D01*
X15180D01*
X37969Y21060D02*
Y21460D01*
X38369D01*
Y21060D01*
X37969D01*
X38049Y21140D02*
Y21380D01*
X38289D01*
Y21140D01*
X38049D01*
X39406Y21060D02*
Y21460D01*
X39806D01*
Y21060D01*
X39406D01*
X39486Y21140D02*
Y21380D01*
X39726D01*
Y21140D01*
X39486D01*
X4229Y17940D02*
Y18340D01*
X4629D01*
Y17940D01*
X4229D01*
X4309Y18020D02*
Y18260D01*
X4549D01*
Y18020D01*
X4309D01*
X38156Y16139D02*
Y16539D01*
X38556D01*
Y16139D01*
X38156D01*
X38236Y16219D02*
Y16459D01*
X38476D01*
Y16219D01*
X38236D01*
X39800Y16150D02*
Y16550D01*
X40200D01*
Y16150D01*
X39800D01*
X39880Y16230D02*
Y16470D01*
X40120D01*
Y16230D01*
X39880D01*
X39150Y16150D02*
Y16550D01*
X39550D01*
Y16150D01*
X39150D01*
X39230Y16230D02*
Y16470D01*
X39470D01*
Y16230D01*
X39230D01*
X39150Y15750D02*
Y16150D01*
X39550D01*
Y15750D01*
X39150D01*
X39230Y15830D02*
Y16070D01*
X39470D01*
Y15830D01*
X39230D01*
X39898Y13816D02*
Y14216D01*
X40298D01*
Y13816D01*
X39898D01*
X39978Y13896D02*
Y14136D01*
X40218D01*
Y13896D01*
X39978D01*
X39259Y13816D02*
Y14216D01*
X39659D01*
Y13816D01*
X39259D01*
X39339Y13896D02*
Y14136D01*
X39579D01*
Y13896D01*
X39339D01*
X38629Y13816D02*
Y14216D01*
X39029D01*
Y13816D01*
X38629D01*
X38709Y13896D02*
Y14136D01*
X38949D01*
Y13896D01*
X38709D01*
X39800Y15750D02*
Y16150D01*
X40200D01*
Y15750D01*
X39800D01*
X39880Y15830D02*
Y16070D01*
X40120D01*
Y15830D01*
X39880D01*
X38156Y15765D02*
Y16165D01*
X38556D01*
Y15765D01*
X38156D01*
X38236Y15845D02*
Y16085D01*
X38476D01*
Y15845D01*
X38236D01*
X29650Y30850D02*
Y31250D01*
X30050D01*
Y30850D01*
X29650D01*
X29730Y30930D02*
Y31170D01*
X29970D01*
Y30930D01*
X29730D01*
X30650Y30850D02*
Y31250D01*
X31050D01*
Y30850D01*
X30650D01*
X30730Y30930D02*
Y31170D01*
X30970D01*
Y30930D01*
X30730D01*
X31550Y28200D02*
Y28600D01*
X31950D01*
Y28200D01*
X31550D01*
X31630Y28280D02*
Y28520D01*
X31870D01*
Y28280D01*
X31630D01*
X30600Y28200D02*
Y28600D01*
X31000D01*
Y28200D01*
X30600D01*
X30680Y28280D02*
Y28520D01*
X30920D01*
Y28280D01*
X30680D01*
X29650Y30150D02*
Y30550D01*
X30050D01*
Y30150D01*
X29650D01*
X29730Y30230D02*
Y30470D01*
X29970D01*
Y30230D01*
X29730D01*
X29650Y29500D02*
Y29900D01*
X30050D01*
Y29500D01*
X29650D01*
X29730Y29580D02*
Y29820D01*
X29970D01*
Y29580D01*
X29730D01*
X31550Y28800D02*
Y29200D01*
X31950D01*
Y28800D01*
X31550D01*
X31630Y28880D02*
Y29120D01*
X31870D01*
Y28880D01*
X31630D01*
X31550Y29500D02*
Y29900D01*
X31950D01*
Y29500D01*
X31550D01*
X31630Y29580D02*
Y29820D01*
X31870D01*
Y29580D01*
X31630D01*
X31550Y30150D02*
Y30550D01*
X31950D01*
Y30150D01*
X31550D01*
X31630Y30230D02*
Y30470D01*
X31870D01*
Y30230D01*
X31630D01*
X30600Y29500D02*
Y29900D01*
X31000D01*
Y29500D01*
X30600D01*
X30680Y29580D02*
Y29820D01*
X30920D01*
Y29580D01*
X30680D01*
X34450Y28850D02*
Y29250D01*
X34850D01*
Y28850D01*
X34450D01*
X34530Y28930D02*
Y29170D01*
X34770D01*
Y28930D01*
X34530D01*
X34450Y29550D02*
Y29950D01*
X34850D01*
Y29550D01*
X34450D01*
X34530Y29630D02*
Y29870D01*
X34770D01*
Y29630D01*
X34530D01*
X34450Y30200D02*
Y30600D01*
X34850D01*
Y30200D01*
X34450D01*
X34530Y30280D02*
Y30520D01*
X34770D01*
Y30280D01*
X34530D01*
X35000Y28150D02*
Y28550D01*
X35400D01*
Y28150D01*
X35000D01*
X35080Y28230D02*
Y28470D01*
X35320D01*
Y28230D01*
X35080D01*
X35000Y30850D02*
Y31250D01*
X35400D01*
Y30850D01*
X35000D01*
X35080Y30930D02*
Y31170D01*
X35320D01*
Y30930D01*
X35080D01*
X35000Y29550D02*
Y29950D01*
X35400D01*
Y29550D01*
X35000D01*
X35080Y29630D02*
Y29870D01*
X35320D01*
Y29630D01*
X35080D01*
X36800Y29500D02*
Y29900D01*
X37200D01*
Y29500D01*
X36800D01*
X36880Y29580D02*
Y29820D01*
X37120D01*
Y29580D01*
X36880D01*
X35900Y30850D02*
Y31250D01*
X36300D01*
Y30850D01*
X35900D01*
X35980Y30930D02*
Y31170D01*
X36220D01*
Y30930D01*
X35980D01*
X36800Y30150D02*
Y30550D01*
X37200D01*
Y30150D01*
X36800D01*
X36880Y30230D02*
Y30470D01*
X37120D01*
Y30230D01*
X36880D01*
X36800Y28800D02*
Y29200D01*
X37200D01*
Y28800D01*
X36800D01*
X36880Y28880D02*
Y29120D01*
X37120D01*
Y28880D01*
X36880D01*
X35900Y28150D02*
Y28550D01*
X36300D01*
Y28150D01*
X35900D01*
X35980Y28230D02*
Y28470D01*
X36220D01*
Y28230D01*
X35980D01*
X35000Y28850D02*
Y29250D01*
X35400D01*
Y28850D01*
X35000D01*
X35080Y28930D02*
Y29170D01*
X35320D01*
Y28930D01*
X35080D01*
X35000Y30200D02*
Y30600D01*
X35400D01*
Y30200D01*
X35000D01*
X35080Y30280D02*
Y30520D01*
X35320D01*
Y30280D01*
X35080D01*
X35900Y29500D02*
Y29900D01*
X36300D01*
Y29500D01*
X35900D01*
X35980Y29580D02*
Y29820D01*
X36220D01*
Y29580D01*
X35980D01*
X38750Y21550D02*
Y21950D01*
X39150D01*
Y21550D01*
X38750D01*
X38830Y21630D02*
Y21870D01*
X39070D01*
Y21630D01*
X38830D01*
X37900Y21550D02*
Y21950D01*
X38300D01*
Y21550D01*
X37900D01*
X37980Y21630D02*
Y21870D01*
X38220D01*
Y21630D01*
X37980D01*
X37150Y26050D02*
Y26450D01*
X37550D01*
Y26050D01*
X37150D01*
X37230Y26130D02*
Y26370D01*
X37470D01*
Y26130D01*
X37230D01*
X37150Y23450D02*
Y23850D01*
X37550D01*
Y23450D01*
X37150D01*
X37230Y23530D02*
Y23770D01*
X37470D01*
Y23530D01*
X37230D01*
X37150Y24050D02*
Y24450D01*
X37550D01*
Y24050D01*
X37150D01*
X37230Y24130D02*
Y24370D01*
X37470D01*
Y24130D01*
X37230D01*
X37150Y24700D02*
Y25100D01*
X37550D01*
Y24700D01*
X37150D01*
X37230Y24780D02*
Y25020D01*
X37470D01*
Y24780D01*
X37230D01*
X37150Y25250D02*
Y25650D01*
X37550D01*
Y25250D01*
X37150D01*
X37230Y25330D02*
Y25570D01*
X37470D01*
Y25330D01*
X37230D01*
X39800Y19170D02*
Y19570D01*
X40200D01*
Y19170D01*
X39800D01*
X39880Y19250D02*
Y19490D01*
X40120D01*
Y19250D01*
X39880D01*
X37850Y19200D02*
Y19600D01*
X38250D01*
Y19200D01*
X37850D01*
X37930Y19280D02*
Y19520D01*
X38170D01*
Y19280D01*
X37930D01*
X38698Y21050D02*
Y21450D01*
X39098D01*
Y21050D01*
X38698D01*
X38778Y21130D02*
Y21370D01*
X39018D01*
Y21130D01*
X38778D01*
X39003Y19180D02*
Y19580D01*
X39403D01*
Y19180D01*
X39003D01*
X39083Y19260D02*
Y19500D01*
X39323D01*
Y19260D01*
X39083D01*
X37200Y31560D02*
Y31960D01*
X37600D01*
Y31560D01*
X37200D01*
X37280Y31640D02*
Y31880D01*
X37520D01*
Y31640D01*
X37280D01*
X33750Y31300D02*
Y31700D01*
X34150D01*
Y31300D01*
X33750D01*
X33830Y31380D02*
Y31620D01*
X34070D01*
Y31380D01*
X33830D01*
X36500Y31560D02*
Y31960D01*
X36900D01*
Y31560D01*
X36500D01*
X36580Y31640D02*
Y31880D01*
X36820D01*
Y31640D01*
X36580D01*
X35800Y31560D02*
Y31960D01*
X36200D01*
Y31560D01*
X35800D01*
X35880Y31640D02*
Y31880D01*
X36120D01*
Y31640D01*
X35880D01*
X35100Y31560D02*
Y31960D01*
X35500D01*
Y31560D01*
X35100D01*
X35180Y31640D02*
Y31880D01*
X35420D01*
Y31640D01*
X35180D01*
X34400Y31560D02*
Y31960D01*
X34800D01*
Y31560D01*
X34400D01*
X34480Y31640D02*
Y31880D01*
X34720D01*
Y31640D01*
X34480D01*
X33750Y30600D02*
Y31000D01*
X34150D01*
Y30600D01*
X33750D01*
X33830Y30680D02*
Y30920D01*
X34070D01*
Y30680D01*
X33830D01*
X33700Y30050D02*
Y30450D01*
X34100D01*
Y30050D01*
X33700D01*
X33780Y30130D02*
Y30370D01*
X34020D01*
Y30130D01*
X33780D01*
X33700Y29450D02*
Y29850D01*
X34100D01*
Y29450D01*
X33700D01*
X33780Y29530D02*
Y29770D01*
X34020D01*
Y29530D01*
X33780D01*
X33700Y28850D02*
Y29250D01*
X34100D01*
Y28850D01*
X33700D01*
X33780Y28930D02*
Y29170D01*
X34020D01*
Y28930D01*
X33780D01*
X33700Y28350D02*
Y28750D01*
X34100D01*
Y28350D01*
X33700D01*
X33780Y28430D02*
Y28670D01*
X34020D01*
Y28430D01*
X33780D01*
X33700Y34700D02*
Y35100D01*
X34100D01*
Y34700D01*
X33700D01*
X33780Y34780D02*
Y35020D01*
X34020D01*
Y34780D01*
X33780D01*
X33750Y32050D02*
Y32450D01*
X34150D01*
Y32050D01*
X33750D01*
X33830Y32130D02*
Y32370D01*
X34070D01*
Y32130D01*
X33830D01*
X33750Y32750D02*
Y33150D01*
X34150D01*
Y32750D01*
X33750D01*
X33830Y32830D02*
Y33070D01*
X34070D01*
Y32830D01*
X33830D01*
X33700Y33400D02*
Y33800D01*
X34100D01*
Y33400D01*
X33700D01*
X33780Y33480D02*
Y33720D01*
X34020D01*
Y33480D01*
X33780D01*
X33700Y34100D02*
Y34500D01*
X34100D01*
Y34100D01*
X33700D01*
X33780Y34180D02*
Y34420D01*
X34020D01*
Y34180D01*
X33780D01*
X31580Y32040D02*
Y32440D01*
X31980D01*
Y32040D01*
X31580D01*
X31660Y32120D02*
Y32360D01*
X31900D01*
Y32120D01*
X31660D01*
X31620Y34650D02*
Y35050D01*
X32020D01*
Y34650D01*
X31620D01*
X31700Y34730D02*
Y34970D01*
X31940D01*
Y34730D01*
X31700D01*
X29600Y33450D02*
Y33850D01*
X30000D01*
Y33450D01*
X29600D01*
X29680Y33530D02*
Y33770D01*
X29920D01*
Y33530D01*
X29680D01*
X31600Y33350D02*
Y33750D01*
X32000D01*
Y33350D01*
X31600D01*
X31680Y33430D02*
Y33670D01*
X31920D01*
Y33430D01*
X31680D01*
X35000Y27750D02*
Y28150D01*
X35400D01*
Y27750D01*
X35000D01*
X35080Y27830D02*
Y28070D01*
X35320D01*
Y27830D01*
X35080D01*
X32700Y28350D02*
Y28750D01*
X33100D01*
Y28350D01*
X32700D01*
X32780Y28430D02*
Y28670D01*
X33020D01*
Y28430D01*
X32780D01*
X32700Y28900D02*
Y29300D01*
X33100D01*
Y28900D01*
X32700D01*
X32780Y28980D02*
Y29220D01*
X33020D01*
Y28980D01*
X32780D01*
X32700Y29450D02*
Y29850D01*
X33100D01*
Y29450D01*
X32700D01*
X32780Y29530D02*
Y29770D01*
X33020D01*
Y29530D01*
X32780D01*
X32700Y30050D02*
Y30450D01*
X33100D01*
Y30050D01*
X32700D01*
X32780Y30130D02*
Y30370D01*
X33020D01*
Y30130D01*
X32780D01*
X32700Y30600D02*
Y31000D01*
X33100D01*
Y30600D01*
X32700D01*
X32780Y30680D02*
Y30920D01*
X33020D01*
Y30680D01*
X32780D01*
X29600Y32050D02*
Y32450D01*
X30000D01*
Y32050D01*
X29600D01*
X29680Y32130D02*
Y32370D01*
X29920D01*
Y32130D01*
X29680D01*
X30600Y32050D02*
Y32450D01*
X31000D01*
Y32050D01*
X30600D01*
X30680Y32130D02*
Y32370D01*
X30920D01*
Y32130D01*
X30680D01*
X30600Y33400D02*
Y33800D01*
X31000D01*
Y33400D01*
X30600D01*
X30680Y33480D02*
Y33720D01*
X30920D01*
Y33480D01*
X30680D01*
X31600Y32750D02*
Y33150D01*
X32000D01*
Y32750D01*
X31600D01*
X31680Y32830D02*
Y33070D01*
X31920D01*
Y32830D01*
X31680D01*
X31600Y34100D02*
Y34500D01*
X32000D01*
Y34100D01*
X31600D01*
X31680Y34180D02*
Y34420D01*
X31920D01*
Y34180D01*
X31680D01*
X34450Y32050D02*
Y32450D01*
X34850D01*
Y32050D01*
X34450D01*
X34530Y32130D02*
Y32370D01*
X34770D01*
Y32130D01*
X34530D01*
X34450Y32750D02*
Y33150D01*
X34850D01*
Y32750D01*
X34450D01*
X34530Y32830D02*
Y33070D01*
X34770D01*
Y32830D01*
X34530D01*
X34450Y33400D02*
Y33800D01*
X34850D01*
Y33400D01*
X34450D01*
X34530Y33480D02*
Y33720D01*
X34770D01*
Y33480D01*
X34530D01*
X34450Y34050D02*
Y34450D01*
X34850D01*
Y34050D01*
X34450D01*
X34530Y34130D02*
Y34370D01*
X34770D01*
Y34130D01*
X34530D01*
X36850Y32050D02*
Y32450D01*
X37250D01*
Y32050D01*
X36850D01*
X36930Y32130D02*
Y32370D01*
X37170D01*
Y32130D01*
X36930D01*
X34950Y32050D02*
Y32450D01*
X35350D01*
Y32050D01*
X34950D01*
X35030Y32130D02*
Y32370D01*
X35270D01*
Y32130D01*
X35030D01*
X36850Y33400D02*
Y33800D01*
X37250D01*
Y33400D01*
X36850D01*
X36930Y33480D02*
Y33720D01*
X37170D01*
Y33480D01*
X36930D01*
X34950Y33400D02*
Y33800D01*
X35350D01*
Y33400D01*
X34950D01*
X35030Y33480D02*
Y33720D01*
X35270D01*
Y33480D01*
X35030D01*
X36850Y34100D02*
Y34500D01*
X37250D01*
Y34100D01*
X36850D01*
X36930Y34180D02*
Y34420D01*
X37170D01*
Y34180D01*
X36930D01*
X36850Y32750D02*
Y33150D01*
X37250D01*
Y32750D01*
X36850D01*
X36930Y32830D02*
Y33070D01*
X37170D01*
Y32830D01*
X36930D01*
X30210Y39013D02*
X30010Y39413D01*
X30410D01*
X30210Y39013D01*
Y39093D02*
X30090Y39333D01*
X30330D01*
X30210Y39093D01*
X35900Y32050D02*
Y32450D01*
X36300D01*
Y32050D01*
X35900D01*
X35980Y32130D02*
Y32370D01*
X36220D01*
Y32130D01*
X35980D01*
X34950Y32750D02*
Y33150D01*
X35350D01*
Y32750D01*
X34950D01*
X35030Y32830D02*
Y33070D01*
X35270D01*
Y32830D01*
X35030D01*
X34950Y34050D02*
Y34450D01*
X35350D01*
Y34050D01*
X34950D01*
X35030Y34130D02*
Y34370D01*
X35270D01*
Y34130D01*
X35030D01*
X22070Y31960D02*
Y32360D01*
X22470D01*
Y31960D01*
X22070D01*
X22150Y32040D02*
Y32280D01*
X22390D01*
Y32040D01*
X22150D01*
X9550Y32320D02*
Y32720D01*
X9950D01*
Y32320D01*
X9550D01*
X9630Y32400D02*
Y32640D01*
X9870D01*
Y32400D01*
X9630D01*
X4620Y32320D02*
Y32720D01*
X5020D01*
Y32320D01*
X4620D01*
X4700Y32400D02*
Y32640D01*
X4940D01*
Y32400D01*
X4700D01*
X13520Y32760D02*
Y33160D01*
X13920D01*
Y32760D01*
X13520D01*
X13600Y32840D02*
Y33080D01*
X13840D01*
Y32840D01*
X13600D01*
X9490Y32780D02*
Y33180D01*
X9890D01*
Y32780D01*
X9490D01*
X9570Y32860D02*
Y33100D01*
X9810D01*
Y32860D01*
X9570D01*
X20990Y31510D02*
Y31910D01*
X21390D01*
Y31510D01*
X20990D01*
X21070Y31590D02*
Y31830D01*
X21310D01*
Y31590D01*
X21070D01*
X22206Y31510D02*
Y31910D01*
X22606D01*
Y31510D01*
X22206D01*
X22286Y31590D02*
Y31830D01*
X22526D01*
Y31590D01*
X22286D01*
X9000Y32770D02*
Y33170D01*
X9400D01*
Y32770D01*
X9000D01*
X9080Y32850D02*
Y33090D01*
X9320D01*
Y32850D01*
X9080D01*
X8959Y32320D02*
Y32720D01*
X9359D01*
Y32320D01*
X8959D01*
X9039Y32400D02*
Y32640D01*
X9279D01*
Y32400D01*
X9039D01*
X12990Y32770D02*
Y33170D01*
X13390D01*
Y32770D01*
X12990D01*
X13070Y32850D02*
Y33090D01*
X13310D01*
Y32850D01*
X13070D01*
X33274Y37152D02*
Y37552D01*
X33674D01*
Y37152D01*
X33274D01*
X33354Y37232D02*
Y37472D01*
X33594D01*
Y37232D01*
X33354D01*
X31233Y37364D02*
Y37764D01*
X31633D01*
Y37364D01*
X31233D01*
X31313Y37444D02*
Y37684D01*
X31553D01*
Y37444D01*
X31313D01*
X35220Y38550D02*
Y38950D01*
X35620D01*
Y38550D01*
X35220D01*
X35300Y38630D02*
Y38870D01*
X35540D01*
Y38630D01*
X35300D01*
X320Y32690D02*
Y33090D01*
X720D01*
Y32690D01*
X320D01*
X400Y32770D02*
Y33010D01*
X640D01*
Y32770D01*
X400D01*
X12030Y28360D02*
Y28760D01*
X12430D01*
Y28360D01*
X12030D01*
X12110Y28440D02*
Y28680D01*
X12350D01*
Y28440D01*
X12110D01*
X36720Y38600D02*
Y39000D01*
X37120D01*
Y38600D01*
X36720D01*
X36800Y38680D02*
Y38920D01*
X37040D01*
Y38680D01*
X36800D01*
X21294Y31510D02*
Y31910D01*
X21694D01*
Y31510D01*
X21294D01*
X21374Y31590D02*
Y31830D01*
X21614D01*
Y31590D01*
X21374D01*
X20990Y31800D02*
Y32200D01*
X21390D01*
Y31800D01*
X20990D01*
X21070Y31880D02*
Y32120D01*
X21310D01*
Y31880D01*
X21070D01*
X6600Y24960D02*
Y25360D01*
X7000D01*
Y24960D01*
X6600D01*
X6680Y25040D02*
Y25280D01*
X6920D01*
Y25040D01*
X6680D01*
X22510Y31510D02*
Y31910D01*
X22910D01*
Y31510D01*
X22510D01*
X22590Y31590D02*
Y31830D01*
X22830D01*
Y31590D01*
X22590D01*
X21550Y31960D02*
Y32360D01*
X21950D01*
Y31960D01*
X21550D01*
X21630Y32040D02*
Y32280D01*
X21870D01*
Y32040D01*
X21630D01*
X21598Y31510D02*
Y31910D01*
X21998D01*
Y31510D01*
X21598D01*
X21678Y31590D02*
Y31830D01*
X21918D01*
Y31590D01*
X21678D01*
X29600Y32750D02*
Y33150D01*
X30000D01*
Y32750D01*
X29600D01*
X29680Y32830D02*
Y33070D01*
X29920D01*
Y32830D01*
X29680D01*
X29600Y34100D02*
Y34500D01*
X30000D01*
Y34100D01*
X29600D01*
X29680Y34180D02*
Y34420D01*
X29920D01*
Y34180D01*
X29680D01*
X30600Y34750D02*
Y35150D01*
X31000D01*
Y34750D01*
X30600D01*
X30680Y34830D02*
Y35070D01*
X30920D01*
Y34830D01*
X30680D01*
X30000Y35100D02*
Y35500D01*
X30400D01*
Y35100D01*
X30000D01*
X30080Y35180D02*
Y35420D01*
X30320D01*
Y35180D01*
X30080D01*
X38990Y10698D02*
Y11099D01*
X39390D01*
Y10698D01*
X38990D01*
X39070Y10778D02*
Y11019D01*
X39310D01*
Y10778D01*
X39070D01*
X38990Y11299D02*
Y11698D01*
X39390D01*
Y11299D01*
X38990D01*
X39070Y11379D02*
Y11618D01*
X39310D01*
Y11379D01*
X39070D01*
X38990Y12048D02*
Y12449D01*
X39390D01*
Y12048D01*
X38990D01*
X39070Y12128D02*
Y12369D01*
X39310D01*
Y12128D01*
X39070D01*
X38990Y12699D02*
Y13098D01*
X39390D01*
Y12699D01*
X38990D01*
X39070Y12779D02*
Y13018D01*
X39310D01*
Y12779D01*
X39070D01*
X39490Y12699D02*
Y13098D01*
X39890D01*
Y12699D01*
X39490D01*
X39570Y12779D02*
Y13018D01*
X39810D01*
Y12779D01*
X39570D01*
X39377Y10696D02*
Y11096D01*
X39777D01*
Y10696D01*
X39377D01*
X39457Y10776D02*
Y11016D01*
X39697D01*
Y10776D01*
X39457D01*
X25570Y32048D02*
Y32448D01*
X25970D01*
Y32048D01*
X25570D01*
X25650Y32127D02*
Y32367D01*
X25890D01*
Y32127D01*
X25650D01*
X25570Y31635D02*
Y32035D01*
X25970D01*
Y31635D01*
X25570D01*
X25650Y31715D02*
Y31955D01*
X25890D01*
Y31715D01*
X25650D01*
X34720Y38550D02*
Y38950D01*
X35120D01*
Y38550D01*
X34720D01*
X34800Y38630D02*
Y38870D01*
X35040D01*
Y38630D01*
X34800D01*
X36470Y38550D02*
X36570Y38650D01*
X36670D01*
X36570Y38750D01*
X36670Y38850D01*
X36570D01*
X36470Y38950D01*
X36370Y38850D01*
X36270D01*
X36370Y38750D01*
X36270Y38650D01*
X36370D01*
X36470Y38550D01*
Y38630D02*
X36530Y38690D01*
X36590D01*
X36530Y38750D01*
X36590Y38810D01*
X36530D01*
X36470Y38870D01*
X36410Y38810D01*
X36350D01*
X36410Y38750D01*
X36350Y38690D01*
X36410D01*
X36470Y38630D01*
X19740Y24600D02*
Y25000D01*
X20140D01*
Y24600D01*
X19740D01*
X19820Y24680D02*
Y24920D01*
X20060D01*
Y24680D01*
X19820D01*
X13200Y23960D02*
Y24360D01*
X13600D01*
Y23960D01*
X13200D01*
X13280Y24040D02*
Y24280D01*
X13520D01*
Y24040D01*
X13280D01*
X2930Y28810D02*
Y29210D01*
X3330D01*
Y28810D01*
X2930D01*
X3010Y28890D02*
Y29130D01*
X3250D01*
Y28890D01*
X3010D01*
X30440Y36120D02*
Y36520D01*
X30840D01*
Y36120D01*
X30440D01*
X30520Y36200D02*
Y36440D01*
X30760D01*
Y36200D01*
X30520D01*
X31110Y35570D02*
Y35970D01*
X31510D01*
Y35570D01*
X31110D01*
X31190Y35650D02*
Y35890D01*
X31430D01*
Y35650D01*
X31190D01*
X32359Y35853D02*
X32459Y36053D01*
X32359Y36253D01*
X32559Y36153D01*
X32759Y36253D01*
X32659Y36053D01*
X32759Y35853D01*
X32559Y35953D01*
X32359Y35853D01*
X32439Y35933D02*
X32499Y36053D01*
X32439Y36173D01*
X32559Y36113D01*
X32679Y36173D01*
X32619Y36053D01*
X32679Y35933D01*
X32559Y35993D01*
X32439Y35933D01*
X32379Y36650D02*
X32479Y36850D01*
X32379Y37050D01*
X32579Y36950D01*
X32779Y37050D01*
X32679Y36850D01*
X32779Y36650D01*
X32579Y36750D01*
X32379Y36650D01*
X32459Y36730D02*
X32519Y36850D01*
X32459Y36970D01*
X32579Y36910D01*
X32699Y36970D01*
X32639Y36850D01*
X32699Y36730D01*
X32579Y36790D01*
X32459Y36730D01*
X31842Y39224D02*
Y39624D01*
X32242D01*
Y39224D01*
X31842D01*
X31922Y39304D02*
Y39544D01*
X32162D01*
Y39304D01*
X31922D01*
X38944Y20105D02*
Y20505D01*
X39344D01*
Y20105D01*
X38944D01*
X39024Y20185D02*
Y20425D01*
X39264D01*
Y20185D01*
X39024D01*
X39800Y21070D02*
Y21470D01*
X40200D01*
Y21070D01*
X39800D01*
X39880Y21150D02*
Y21390D01*
X40120D01*
Y21150D01*
X39880D01*
X33120Y11880D02*
Y12280D01*
X33520D01*
Y11880D01*
X33120D01*
X33200Y11960D02*
Y12200D01*
X33440D01*
Y11960D01*
X33200D01*
X19820Y11880D02*
Y12280D01*
X20220D01*
Y11880D01*
X19820D01*
X19900Y11960D02*
Y12200D01*
X20140D01*
Y11960D01*
X19900D01*
X19350Y11880D02*
Y12280D01*
X19750D01*
Y11880D01*
X19350D01*
X19430Y11960D02*
Y12200D01*
X19670D01*
Y11960D01*
X19430D01*
X16320Y11090D02*
Y11490D01*
X16720D01*
Y11090D01*
X16320D01*
X16400Y11170D02*
Y11410D01*
X16640D01*
Y11170D01*
X16400D01*
X11224Y7660D02*
Y8060D01*
X11624D01*
Y7660D01*
X11224D01*
X11304Y7740D02*
Y7980D01*
X11544D01*
Y7740D01*
X11304D01*
X10864Y7660D02*
Y8060D01*
X11264D01*
Y7660D01*
X10864D01*
X10944Y7740D02*
Y7980D01*
X11184D01*
Y7740D01*
X10944D01*
X13140Y7480D02*
Y7880D01*
X13540D01*
Y7480D01*
X13140D01*
X13220Y7560D02*
Y7800D01*
X13460D01*
Y7560D01*
X13220D01*
X12724Y11880D02*
Y12280D01*
X13124D01*
Y11880D01*
X12724D01*
X12804Y11960D02*
Y12200D01*
X13044D01*
Y11960D01*
X12804D01*
X12254Y11880D02*
Y12280D01*
X12654D01*
Y11880D01*
X12254D01*
X12334Y11960D02*
Y12200D01*
X12574D01*
Y11960D01*
X12334D01*
X11834Y11880D02*
Y12280D01*
X12234D01*
Y11880D01*
X11834D01*
X11914Y11960D02*
Y12200D01*
X12154D01*
Y11960D01*
X11914D01*
X10864Y7400D02*
Y7800D01*
X11264D01*
Y7400D01*
X10864D01*
X10944Y7480D02*
Y7720D01*
X11184D01*
Y7480D01*
X10944D01*
X11224Y7400D02*
Y7800D01*
X11624D01*
Y7400D01*
X11224D01*
X11304Y7480D02*
Y7720D01*
X11544D01*
Y7480D01*
X11304D01*
X10025Y3830D02*
Y4230D01*
X10425D01*
Y3830D01*
X10025D01*
X10105Y3910D02*
Y4150D01*
X10345D01*
Y3910D01*
X10105D01*
X5740Y11850D02*
Y12250D01*
X6140D01*
Y11850D01*
X5740D01*
X5820Y11930D02*
Y12170D01*
X6060D01*
Y11930D01*
X5820D01*
X5270Y11850D02*
Y12250D01*
X5670D01*
Y11850D01*
X5270D01*
X5350Y11930D02*
Y12170D01*
X5590D01*
Y11930D01*
X5350D01*
X2411Y10000D02*
Y10400D01*
X2811D01*
Y10000D01*
X2411D01*
X2491Y10080D02*
Y10320D01*
X2731D01*
Y10080D01*
X2491D01*
X10285Y3830D02*
Y4230D01*
X10685D01*
Y3830D01*
X10285D01*
X10365Y3910D02*
Y4150D01*
X10605D01*
Y3910D01*
X10365D01*
X11880Y7590D02*
Y7990D01*
X12280D01*
Y7590D01*
X11880D01*
X11960Y7670D02*
Y7910D01*
X12200D01*
Y7670D01*
X11960D01*
X11880Y7310D02*
Y7710D01*
X12280D01*
Y7310D01*
X11880D01*
X11960Y7390D02*
Y7630D01*
X12200D01*
Y7390D01*
X11960D01*
X8230Y7340D02*
Y7740D01*
X8630D01*
Y7340D01*
X8230D01*
X8310Y7420D02*
Y7660D01*
X8550D01*
Y7420D01*
X8310D01*
X10260Y7600D02*
Y8000D01*
X10660D01*
Y7600D01*
X10260D01*
X10340Y7680D02*
Y7920D01*
X10580D01*
Y7680D01*
X10340D01*
X10260Y7330D02*
Y7730D01*
X10660D01*
Y7330D01*
X10260D01*
X10340Y7410D02*
Y7650D01*
X10580D01*
Y7410D01*
X10340D01*
X12910Y7050D02*
Y7450D01*
X13310D01*
Y7050D01*
X12910D01*
X12990Y7130D02*
Y7370D01*
X13230D01*
Y7130D01*
X12990D01*
X9390Y7210D02*
Y7610D01*
X9790D01*
Y7210D01*
X9390D01*
X9470Y7290D02*
Y7530D01*
X9710D01*
Y7290D01*
X9470D01*
X9660Y7210D02*
Y7610D01*
X10060D01*
Y7210D01*
X9660D01*
X9740Y7290D02*
Y7530D01*
X9980D01*
Y7290D01*
X9740D01*
X13200Y5670D02*
Y6070D01*
X13600D01*
Y5670D01*
X13200D01*
X13280Y5750D02*
Y5990D01*
X13520D01*
Y5750D01*
X13280D01*
X13010Y5850D02*
Y6250D01*
X13410D01*
Y5850D01*
X13010D01*
X13090Y5930D02*
Y6170D01*
X13330D01*
Y5930D01*
X13090D01*
X12910Y5130D02*
Y5530D01*
X13310D01*
Y5130D01*
X12910D01*
X12990Y5210D02*
Y5450D01*
X13230D01*
Y5210D01*
X12990D01*
X12740Y5320D02*
Y5720D01*
X13140D01*
Y5320D01*
X12740D01*
X12820Y5400D02*
Y5640D01*
X13060D01*
Y5400D01*
X12820D01*
X13780Y6020D02*
Y6420D01*
X14180D01*
Y6020D01*
X13780D01*
X13860Y6100D02*
Y6340D01*
X14100D01*
Y6100D01*
X13860D01*
X12365Y3830D02*
Y4230D01*
X12765D01*
Y3830D01*
X12365D01*
X12445Y3910D02*
Y4150D01*
X12685D01*
Y3910D01*
X12445D01*
X9346Y5320D02*
Y5720D01*
X9746D01*
Y5320D01*
X9346D01*
X9426Y5400D02*
Y5640D01*
X9666D01*
Y5400D01*
X9426D01*
X9176Y5130D02*
Y5530D01*
X9576D01*
Y5130D01*
X9176D01*
X9256Y5210D02*
Y5450D01*
X9496D01*
Y5210D01*
X9256D01*
X9076Y5850D02*
Y6250D01*
X9476D01*
Y5850D01*
X9076D01*
X9156Y5930D02*
Y6170D01*
X9396D01*
Y5930D01*
X9156D01*
X8886Y5670D02*
Y6070D01*
X9286D01*
Y5670D01*
X8886D01*
X8966Y5750D02*
Y5990D01*
X9206D01*
Y5750D01*
X8966D01*
X9790Y4690D02*
Y5090D01*
X10190D01*
Y4690D01*
X9790D01*
X9870Y4770D02*
Y5010D01*
X10110D01*
Y4770D01*
X9870D01*
X10117Y4690D02*
Y5090D01*
X10517D01*
Y4690D01*
X10117D01*
X10197Y4770D02*
Y5010D01*
X10437D01*
Y4770D01*
X10197D01*
X10443Y4690D02*
Y5090D01*
X10843D01*
Y4690D01*
X10443D01*
X10523Y4770D02*
Y5010D01*
X10763D01*
Y4770D01*
X10523D01*
X10770Y4690D02*
Y5090D01*
X11170D01*
Y4690D01*
X10770D01*
X10850Y4770D02*
Y5010D01*
X11090D01*
Y4770D01*
X10850D01*
X11270Y4690D02*
Y5090D01*
X11670D01*
Y4690D01*
X11270D01*
X11350Y4770D02*
Y5010D01*
X11590D01*
Y4770D01*
X11350D01*
X11607Y4690D02*
Y5090D01*
X12007D01*
Y4690D01*
X11607D01*
X11687Y4770D02*
Y5010D01*
X11927D01*
Y4770D01*
X11687D01*
X11943Y4690D02*
Y5090D01*
X12343D01*
Y4690D01*
X11943D01*
X12023Y4770D02*
Y5010D01*
X12263D01*
Y4770D01*
X12023D01*
X12280Y4690D02*
Y5090D01*
X12680D01*
Y4690D01*
X12280D01*
X12360Y4770D02*
Y5010D01*
X12600D01*
Y4770D01*
X12360D01*
X10730Y5950D02*
Y6350D01*
X11130D01*
Y5950D01*
X10730D01*
X10810Y6030D02*
Y6270D01*
X11050D01*
Y6030D01*
X10810D01*
X11410Y5950D02*
Y6350D01*
X11810D01*
Y5950D01*
X11410D01*
X11490Y6030D02*
Y6270D01*
X11730D01*
Y6030D01*
X11490D01*
X8190Y6000D02*
Y6400D01*
X8590D01*
Y6000D01*
X8190D01*
X8270Y6080D02*
Y6320D01*
X8510D01*
Y6080D01*
X8270D01*
X7920Y6000D02*
Y6400D01*
X8320D01*
Y6000D01*
X7920D01*
X8000Y6080D02*
Y6320D01*
X8240D01*
Y6080D01*
X8000D01*
X14425Y2810D02*
Y3210D01*
X14825D01*
Y2810D01*
X14425D01*
X14505Y2890D02*
Y3130D01*
X14745D01*
Y2890D01*
X14505D01*
X12390Y7150D02*
Y7550D01*
X12790D01*
Y7150D01*
X12390D01*
X12470Y7230D02*
Y7470D01*
X12710D01*
Y7230D01*
X12470D01*
X12640Y7060D02*
Y7460D01*
X13040D01*
Y7060D01*
X12640D01*
X12720Y7140D02*
Y7380D01*
X12960D01*
Y7140D01*
X12720D01*
X20001Y7050D02*
Y7450D01*
X20401D01*
Y7050D01*
X20001D01*
X20081Y7130D02*
Y7370D01*
X20321D01*
Y7130D01*
X20081D01*
X19481Y7150D02*
Y7550D01*
X19881D01*
Y7150D01*
X19481D01*
X19561Y7230D02*
Y7470D01*
X19801D01*
Y7230D01*
X19561D01*
X19731Y7060D02*
Y7460D01*
X20131D01*
Y7060D01*
X19731D01*
X19811Y7140D02*
Y7380D01*
X20051D01*
Y7140D01*
X19811D01*
X21221Y2810D02*
Y3210D01*
X21621D01*
Y2810D01*
X21221D01*
X21301Y2890D02*
Y3130D01*
X21541D01*
Y2890D01*
X21301D01*
X15041Y2790D02*
Y3190D01*
X15441D01*
Y2790D01*
X15041D01*
X15121Y2870D02*
Y3110D01*
X15361D01*
Y2870D01*
X15121D01*
X15011Y6000D02*
Y6400D01*
X15411D01*
Y6000D01*
X15011D01*
X15091Y6080D02*
Y6320D01*
X15331D01*
Y6080D01*
X15091D01*
X15281Y6000D02*
Y6400D01*
X15681D01*
Y6000D01*
X15281D01*
X15361Y6080D02*
Y6320D01*
X15601D01*
Y6080D01*
X15361D01*
X18501Y5950D02*
Y6350D01*
X18901D01*
Y5950D01*
X18501D01*
X18581Y6030D02*
Y6270D01*
X18821D01*
Y6030D01*
X18581D01*
X17821Y5950D02*
Y6350D01*
X18221D01*
Y5950D01*
X17821D01*
X17901Y6030D02*
Y6270D01*
X18141D01*
Y6030D01*
X17901D01*
X19371Y4690D02*
Y5090D01*
X19771D01*
Y4690D01*
X19371D01*
X19451Y4770D02*
Y5010D01*
X19691D01*
Y4770D01*
X19451D01*
X19035Y4690D02*
Y5090D01*
X19435D01*
Y4690D01*
X19035D01*
X19115Y4770D02*
Y5010D01*
X19355D01*
Y4770D01*
X19115D01*
X18698Y4690D02*
Y5090D01*
X19098D01*
Y4690D01*
X18698D01*
X18778Y4770D02*
Y5010D01*
X19018D01*
Y4770D01*
X18778D01*
X18361Y4690D02*
Y5090D01*
X18761D01*
Y4690D01*
X18361D01*
X18441Y4770D02*
Y5010D01*
X18681D01*
Y4770D01*
X18441D01*
X17861Y4690D02*
Y5090D01*
X18261D01*
Y4690D01*
X17861D01*
X17941Y4770D02*
Y5010D01*
X18181D01*
Y4770D01*
X17941D01*
X17535Y4690D02*
Y5090D01*
X17935D01*
Y4690D01*
X17535D01*
X17615Y4770D02*
Y5010D01*
X17855D01*
Y4770D01*
X17615D01*
X17208Y4690D02*
Y5090D01*
X17608D01*
Y4690D01*
X17208D01*
X17288Y4770D02*
Y5010D01*
X17528D01*
Y4770D01*
X17288D01*
X16881Y4690D02*
Y5090D01*
X17281D01*
Y4690D01*
X16881D01*
X16961Y4770D02*
Y5010D01*
X17201D01*
Y4770D01*
X16961D01*
X15447Y3890D02*
Y4290D01*
X15847D01*
Y3890D01*
X15447D01*
X15527Y3970D02*
Y4210D01*
X15767D01*
Y3970D01*
X15527D01*
X15977Y5670D02*
Y6070D01*
X16377D01*
Y5670D01*
X15977D01*
X16057Y5750D02*
Y5990D01*
X16297D01*
Y5750D01*
X16057D01*
X16167Y5850D02*
Y6250D01*
X16567D01*
Y5850D01*
X16167D01*
X16247Y5930D02*
Y6170D01*
X16487D01*
Y5930D01*
X16247D01*
X16267Y5130D02*
Y5530D01*
X16667D01*
Y5130D01*
X16267D01*
X16347Y5210D02*
Y5450D01*
X16587D01*
Y5210D01*
X16347D01*
X16437Y5320D02*
Y5720D01*
X16837D01*
Y5320D01*
X16437D01*
X16517Y5400D02*
Y5640D01*
X16757D01*
Y5400D01*
X16517D01*
X19161Y3830D02*
Y4230D01*
X19561D01*
Y3830D01*
X19161D01*
X19241Y3910D02*
Y4150D01*
X19481D01*
Y3910D01*
X19241D01*
X19431Y3830D02*
Y4230D01*
X19831D01*
Y3830D01*
X19431D01*
X19511Y3910D02*
Y4150D01*
X19751D01*
Y3910D01*
X19511D01*
X20871Y6020D02*
Y6420D01*
X21271D01*
Y6020D01*
X20871D01*
X20951Y6100D02*
Y6340D01*
X21191D01*
Y6100D01*
X20951D01*
X19831Y5320D02*
Y5720D01*
X20231D01*
Y5320D01*
X19831D01*
X19911Y5400D02*
Y5640D01*
X20151D01*
Y5400D01*
X19911D01*
X20001Y5130D02*
Y5530D01*
X20401D01*
Y5130D01*
X20001D01*
X20081Y5210D02*
Y5450D01*
X20321D01*
Y5210D01*
X20081D01*
X20101Y5850D02*
Y6250D01*
X20501D01*
Y5850D01*
X20101D01*
X20181Y5930D02*
Y6170D01*
X20421D01*
Y5930D01*
X20181D01*
X20291Y5670D02*
Y6070D01*
X20691D01*
Y5670D01*
X20291D01*
X20371Y5750D02*
Y5990D01*
X20611D01*
Y5750D01*
X20371D01*
X16751Y7210D02*
Y7610D01*
X17151D01*
Y7210D01*
X16751D01*
X16831Y7290D02*
Y7530D01*
X17071D01*
Y7290D01*
X16831D01*
X16481Y7210D02*
Y7610D01*
X16881D01*
Y7210D01*
X16481D01*
X16561Y7290D02*
Y7530D01*
X16801D01*
Y7290D01*
X16561D01*
X17351Y7330D02*
Y7730D01*
X17751D01*
Y7330D01*
X17351D01*
X17431Y7410D02*
Y7650D01*
X17671D01*
Y7410D01*
X17431D01*
X17351Y7600D02*
Y8000D01*
X17751D01*
Y7600D01*
X17351D01*
X17431Y7680D02*
Y7920D01*
X17671D01*
Y7680D01*
X17431D01*
X15321Y7320D02*
Y7720D01*
X15721D01*
Y7320D01*
X15321D01*
X15401Y7400D02*
Y7640D01*
X15641D01*
Y7400D01*
X15401D01*
X18971Y7310D02*
Y7710D01*
X19371D01*
Y7310D01*
X18971D01*
X19051Y7390D02*
Y7630D01*
X19291D01*
Y7390D01*
X19051D01*
X18971Y7590D02*
Y7990D01*
X19371D01*
Y7590D01*
X18971D01*
X19051Y7670D02*
Y7910D01*
X19291D01*
Y7670D01*
X19051D01*
X17081Y3830D02*
Y4230D01*
X17481D01*
Y3830D01*
X17081D01*
X17161Y3910D02*
Y4150D01*
X17401D01*
Y3910D01*
X17161D01*
X20821Y3890D02*
Y4290D01*
X21221D01*
Y3890D01*
X20821D01*
X20901Y3970D02*
Y4210D01*
X21141D01*
Y3970D01*
X20901D01*
X16821Y3830D02*
Y4230D01*
X17221D01*
Y3830D01*
X16821D01*
X16901Y3910D02*
Y4150D01*
X17141D01*
Y3910D01*
X16901D01*
X18315Y7400D02*
Y7800D01*
X18715D01*
Y7400D01*
X18315D01*
X18395Y7480D02*
Y7720D01*
X18635D01*
Y7480D01*
X18395D01*
X17955Y7400D02*
Y7800D01*
X18355D01*
Y7400D01*
X17955D01*
X18035Y7480D02*
Y7720D01*
X18275D01*
Y7480D01*
X18035D01*
X20231D02*
Y7880D01*
X20631D01*
Y7480D01*
X20231D01*
X20311Y7560D02*
Y7800D01*
X20551D01*
Y7560D01*
X20311D01*
X17955Y7660D02*
Y8060D01*
X18355D01*
Y7660D01*
X17955D01*
X18035Y7740D02*
Y7980D01*
X18275D01*
Y7740D01*
X18035D01*
X18315Y7660D02*
Y8060D01*
X18715D01*
Y7660D01*
X18315D01*
X18395Y7740D02*
Y7980D01*
X18635D01*
Y7740D01*
X18395D01*
X27087Y7050D02*
Y7450D01*
X27487D01*
Y7050D01*
X27087D01*
X27167Y7130D02*
Y7370D01*
X27407D01*
Y7130D01*
X27167D01*
X26567Y7150D02*
Y7550D01*
X26967D01*
Y7150D01*
X26567D01*
X26647Y7230D02*
Y7470D01*
X26887D01*
Y7230D01*
X26647D01*
X26817Y7060D02*
Y7460D01*
X27217D01*
Y7060D01*
X26817D01*
X26897Y7140D02*
Y7380D01*
X27137D01*
Y7140D01*
X26897D01*
X22127Y2790D02*
Y3190D01*
X22527D01*
Y2790D01*
X22127D01*
X22207Y2870D02*
Y3110D01*
X22447D01*
Y2870D01*
X22207D01*
X22097Y6000D02*
Y6400D01*
X22497D01*
Y6000D01*
X22097D01*
X22177Y6080D02*
Y6320D01*
X22417D01*
Y6080D01*
X22177D01*
X22367Y6000D02*
Y6400D01*
X22767D01*
Y6000D01*
X22367D01*
X22447Y6080D02*
Y6320D01*
X22687D01*
Y6080D01*
X22447D01*
X25587Y5950D02*
Y6350D01*
X25987D01*
Y5950D01*
X25587D01*
X25667Y6030D02*
Y6270D01*
X25907D01*
Y6030D01*
X25667D01*
X24907Y5950D02*
Y6350D01*
X25307D01*
Y5950D01*
X24907D01*
X24987Y6030D02*
Y6270D01*
X25227D01*
Y6030D01*
X24987D01*
X26457Y4690D02*
Y5090D01*
X26857D01*
Y4690D01*
X26457D01*
X26537Y4770D02*
Y5010D01*
X26777D01*
Y4770D01*
X26537D01*
X26121Y4690D02*
Y5090D01*
X26521D01*
Y4690D01*
X26121D01*
X26201Y4770D02*
Y5010D01*
X26441D01*
Y4770D01*
X26201D01*
X25784Y4690D02*
Y5090D01*
X26184D01*
Y4690D01*
X25784D01*
X25864Y4770D02*
Y5010D01*
X26104D01*
Y4770D01*
X25864D01*
X25447Y4690D02*
Y5090D01*
X25847D01*
Y4690D01*
X25447D01*
X25527Y4770D02*
Y5010D01*
X25767D01*
Y4770D01*
X25527D01*
X24947Y4690D02*
Y5090D01*
X25347D01*
Y4690D01*
X24947D01*
X25027Y4770D02*
Y5010D01*
X25267D01*
Y4770D01*
X25027D01*
X24621Y4690D02*
Y5090D01*
X25021D01*
Y4690D01*
X24621D01*
X24701Y4770D02*
Y5010D01*
X24941D01*
Y4770D01*
X24701D01*
X24294Y4690D02*
Y5090D01*
X24694D01*
Y4690D01*
X24294D01*
X24374Y4770D02*
Y5010D01*
X24614D01*
Y4770D01*
X24374D01*
X23967Y4690D02*
Y5090D01*
X24367D01*
Y4690D01*
X23967D01*
X24047Y4770D02*
Y5010D01*
X24287D01*
Y4770D01*
X24047D01*
X22533Y3890D02*
Y4290D01*
X22933D01*
Y3890D01*
X22533D01*
X22613Y3970D02*
Y4210D01*
X22853D01*
Y3970D01*
X22613D01*
X23063Y5670D02*
Y6070D01*
X23463D01*
Y5670D01*
X23063D01*
X23143Y5750D02*
Y5990D01*
X23383D01*
Y5750D01*
X23143D01*
X23253Y5850D02*
Y6250D01*
X23653D01*
Y5850D01*
X23253D01*
X23333Y5930D02*
Y6170D01*
X23573D01*
Y5930D01*
X23333D01*
X23353Y5130D02*
Y5530D01*
X23753D01*
Y5130D01*
X23353D01*
X23433Y5210D02*
Y5450D01*
X23673D01*
Y5210D01*
X23433D01*
X23523Y5320D02*
Y5720D01*
X23923D01*
Y5320D01*
X23523D01*
X23603Y5400D02*
Y5640D01*
X23843D01*
Y5400D01*
X23603D01*
X26247Y3830D02*
Y4230D01*
X26647D01*
Y3830D01*
X26247D01*
X26327Y3910D02*
Y4150D01*
X26567D01*
Y3910D01*
X26327D01*
X26517Y3830D02*
Y4230D01*
X26917D01*
Y3830D01*
X26517D01*
X26597Y3910D02*
Y4150D01*
X26837D01*
Y3910D01*
X26597D01*
X27957Y6020D02*
Y6420D01*
X28357D01*
Y6020D01*
X27957D01*
X28037Y6100D02*
Y6340D01*
X28277D01*
Y6100D01*
X28037D01*
X26917Y5320D02*
Y5720D01*
X27317D01*
Y5320D01*
X26917D01*
X26997Y5400D02*
Y5640D01*
X27237D01*
Y5400D01*
X26997D01*
X27087Y5130D02*
Y5530D01*
X27487D01*
Y5130D01*
X27087D01*
X27167Y5210D02*
Y5450D01*
X27407D01*
Y5210D01*
X27167D01*
X27187Y5850D02*
Y6250D01*
X27587D01*
Y5850D01*
X27187D01*
X27267Y5930D02*
Y6170D01*
X27507D01*
Y5930D01*
X27267D01*
X27377Y5670D02*
Y6070D01*
X27777D01*
Y5670D01*
X27377D01*
X27457Y5750D02*
Y5990D01*
X27697D01*
Y5750D01*
X27457D01*
X23837Y7210D02*
Y7610D01*
X24237D01*
Y7210D01*
X23837D01*
X23917Y7290D02*
Y7530D01*
X24157D01*
Y7290D01*
X23917D01*
X23567Y7210D02*
Y7610D01*
X23967D01*
Y7210D01*
X23567D01*
X23647Y7290D02*
Y7530D01*
X23887D01*
Y7290D01*
X23647D01*
X24437Y7330D02*
Y7730D01*
X24837D01*
Y7330D01*
X24437D01*
X24517Y7410D02*
Y7650D01*
X24757D01*
Y7410D01*
X24517D01*
X24437Y7600D02*
Y8000D01*
X24837D01*
Y7600D01*
X24437D01*
X24517Y7680D02*
Y7920D01*
X24757D01*
Y7680D01*
X24517D01*
X22407Y7340D02*
Y7740D01*
X22807D01*
Y7340D01*
X22407D01*
X22487Y7420D02*
Y7660D01*
X22727D01*
Y7420D01*
X22487D01*
X26057Y7310D02*
Y7710D01*
X26457D01*
Y7310D01*
X26057D01*
X26137Y7390D02*
Y7630D01*
X26377D01*
Y7390D01*
X26137D01*
X26057Y7590D02*
Y7990D01*
X26457D01*
Y7590D01*
X26057D01*
X26137Y7670D02*
Y7910D01*
X26377D01*
Y7670D01*
X26137D01*
X24167Y3830D02*
Y4230D01*
X24567D01*
Y3830D01*
X24167D01*
X24247Y3910D02*
Y4150D01*
X24487D01*
Y3910D01*
X24247D01*
X27907Y3890D02*
Y4290D01*
X28307D01*
Y3890D01*
X27907D01*
X27987Y3970D02*
Y4210D01*
X28227D01*
Y3970D01*
X27987D01*
X23907Y3830D02*
Y4230D01*
X24307D01*
Y3830D01*
X23907D01*
X23987Y3910D02*
Y4150D01*
X24227D01*
Y3910D01*
X23987D01*
X25401Y7400D02*
Y7800D01*
X25801D01*
Y7400D01*
X25401D01*
X25481Y7480D02*
Y7720D01*
X25721D01*
Y7480D01*
X25481D01*
X25041Y7400D02*
Y7800D01*
X25441D01*
Y7400D01*
X25041D01*
X25121Y7480D02*
Y7720D01*
X25361D01*
Y7480D01*
X25121D01*
X26891Y8810D02*
Y9210D01*
X27291D01*
Y8810D01*
X26891D01*
X26971Y8890D02*
Y9130D01*
X27211D01*
Y8890D01*
X26971D01*
X27317Y7480D02*
Y7880D01*
X27717D01*
Y7480D01*
X27317D01*
X27397Y7560D02*
Y7800D01*
X27637D01*
Y7560D01*
X27397D01*
X25041Y7660D02*
Y8060D01*
X25441D01*
Y7660D01*
X25041D01*
X25121Y7740D02*
Y7980D01*
X25361D01*
Y7740D01*
X25121D01*
X25401Y7660D02*
Y8060D01*
X25801D01*
Y7660D01*
X25401D01*
X25481Y7740D02*
Y7980D01*
X25721D01*
Y7740D01*
X25481D01*
X34176Y7050D02*
Y7450D01*
X34576D01*
Y7050D01*
X34176D01*
X34256Y7130D02*
Y7370D01*
X34496D01*
Y7130D01*
X34256D01*
X33656Y7150D02*
Y7550D01*
X34056D01*
Y7150D01*
X33656D01*
X33736Y7230D02*
Y7470D01*
X33976D01*
Y7230D01*
X33736D01*
X33906Y7060D02*
Y7460D01*
X34306D01*
Y7060D01*
X33906D01*
X33986Y7140D02*
Y7380D01*
X34226D01*
Y7140D01*
X33986D01*
X35396Y2810D02*
Y3210D01*
X35796D01*
Y2810D01*
X35396D01*
X35476Y2890D02*
Y3130D01*
X35716D01*
Y2890D01*
X35476D01*
X29186Y6000D02*
Y6400D01*
X29586D01*
Y6000D01*
X29186D01*
X29266Y6080D02*
Y6320D01*
X29506D01*
Y6080D01*
X29266D01*
X29456Y6000D02*
Y6400D01*
X29856D01*
Y6000D01*
X29456D01*
X29536Y6080D02*
Y6320D01*
X29776D01*
Y6080D01*
X29536D01*
X32670Y5950D02*
Y6350D01*
X33070D01*
Y5950D01*
X32670D01*
X32750Y6030D02*
Y6270D01*
X32990D01*
Y6030D01*
X32750D01*
X31996Y5950D02*
Y6350D01*
X32396D01*
Y5950D01*
X31996D01*
X32076Y6030D02*
Y6270D01*
X32316D01*
Y6030D01*
X32076D01*
X33546Y4690D02*
Y5090D01*
X33946D01*
Y4690D01*
X33546D01*
X33626Y4770D02*
Y5010D01*
X33866D01*
Y4770D01*
X33626D01*
X33209Y4690D02*
Y5090D01*
X33609D01*
Y4690D01*
X33209D01*
X33289Y4770D02*
Y5010D01*
X33529D01*
Y4770D01*
X33289D01*
X32872Y4690D02*
Y5090D01*
X33272D01*
Y4690D01*
X32872D01*
X32952Y4770D02*
Y5010D01*
X33192D01*
Y4770D01*
X32952D01*
X32536Y4690D02*
Y5090D01*
X32936D01*
Y4690D01*
X32536D01*
X32616Y4770D02*
Y5010D01*
X32856D01*
Y4770D01*
X32616D01*
X32036Y4690D02*
Y5090D01*
X32436D01*
Y4690D01*
X32036D01*
X32116Y4770D02*
Y5010D01*
X32356D01*
Y4770D01*
X32116D01*
X31709Y4690D02*
Y5090D01*
X32109D01*
Y4690D01*
X31709D01*
X31789Y4770D02*
Y5010D01*
X32029D01*
Y4770D01*
X31789D01*
X31382Y4690D02*
Y5090D01*
X31782D01*
Y4690D01*
X31382D01*
X31462Y4770D02*
Y5010D01*
X31702D01*
Y4770D01*
X31462D01*
X31056Y4690D02*
Y5090D01*
X31456D01*
Y4690D01*
X31056D01*
X31136Y4770D02*
Y5010D01*
X31376D01*
Y4770D01*
X31136D01*
X29622Y3890D02*
Y4290D01*
X30022D01*
Y3890D01*
X29622D01*
X29702Y3970D02*
Y4210D01*
X29942D01*
Y3970D01*
X29702D01*
X30152Y5670D02*
Y6070D01*
X30552D01*
Y5670D01*
X30152D01*
X30232Y5750D02*
Y5990D01*
X30472D01*
Y5750D01*
X30232D01*
X30342Y5850D02*
Y6250D01*
X30742D01*
Y5850D01*
X30342D01*
X30422Y5930D02*
Y6170D01*
X30662D01*
Y5930D01*
X30422D01*
X30442Y5130D02*
Y5530D01*
X30842D01*
Y5130D01*
X30442D01*
X30522Y5210D02*
Y5450D01*
X30762D01*
Y5210D01*
X30522D01*
X30612Y5320D02*
Y5720D01*
X31012D01*
Y5320D01*
X30612D01*
X30692Y5400D02*
Y5640D01*
X30932D01*
Y5400D01*
X30692D01*
X33336Y3830D02*
Y4230D01*
X33736D01*
Y3830D01*
X33336D01*
X33416Y3910D02*
Y4150D01*
X33656D01*
Y3910D01*
X33416D01*
X33606Y3830D02*
Y4230D01*
X34006D01*
Y3830D01*
X33606D01*
X33686Y3910D02*
Y4150D01*
X33926D01*
Y3910D01*
X33686D01*
X35046Y6020D02*
Y6420D01*
X35446D01*
Y6020D01*
X35046D01*
X35126Y6100D02*
Y6340D01*
X35366D01*
Y6100D01*
X35126D01*
X34176Y5130D02*
Y5530D01*
X34576D01*
Y5130D01*
X34176D01*
X34256Y5210D02*
Y5450D01*
X34496D01*
Y5210D01*
X34256D01*
X34276Y5850D02*
Y6250D01*
X34676D01*
Y5850D01*
X34276D01*
X34356Y5930D02*
Y6170D01*
X34596D01*
Y5930D01*
X34356D01*
X34466Y5670D02*
Y6070D01*
X34866D01*
Y5670D01*
X34466D01*
X34546Y5750D02*
Y5990D01*
X34786D01*
Y5750D01*
X34546D01*
X30926Y7210D02*
Y7610D01*
X31326D01*
Y7210D01*
X30926D01*
X31006Y7290D02*
Y7530D01*
X31246D01*
Y7290D01*
X31006D01*
X30656Y7210D02*
Y7610D01*
X31056D01*
Y7210D01*
X30656D01*
X30736Y7290D02*
Y7530D01*
X30976D01*
Y7290D01*
X30736D01*
X31526Y7330D02*
Y7730D01*
X31926D01*
Y7330D01*
X31526D01*
X31606Y7410D02*
Y7650D01*
X31846D01*
Y7410D01*
X31606D01*
X31526Y7600D02*
Y8000D01*
X31926D01*
Y7600D01*
X31526D01*
X31606Y7680D02*
Y7920D01*
X31846D01*
Y7680D01*
X31606D01*
X29496Y7340D02*
Y7740D01*
X29896D01*
Y7340D01*
X29496D01*
X29576Y7420D02*
Y7660D01*
X29816D01*
Y7420D01*
X29576D01*
X33146Y7310D02*
Y7710D01*
X33546D01*
Y7310D01*
X33146D01*
X33226Y7390D02*
Y7630D01*
X33466D01*
Y7390D01*
X33226D01*
X33146Y7590D02*
Y7990D01*
X33546D01*
Y7590D01*
X33146D01*
X33226Y7670D02*
Y7910D01*
X33466D01*
Y7670D01*
X33226D01*
X31256Y3830D02*
Y4230D01*
X31656D01*
Y3830D01*
X31256D01*
X31336Y3910D02*
Y4150D01*
X31576D01*
Y3910D01*
X31336D01*
X34996Y3890D02*
Y4290D01*
X35396D01*
Y3890D01*
X34996D01*
X35076Y3970D02*
Y4210D01*
X35316D01*
Y3970D01*
X35076D01*
X30996Y3830D02*
Y4230D01*
X31396D01*
Y3830D01*
X30996D01*
X31076Y3910D02*
Y4150D01*
X31316D01*
Y3910D01*
X31076D01*
X32130Y7400D02*
Y7800D01*
X32530D01*
Y7400D01*
X32130D01*
X32210Y7480D02*
Y7720D01*
X32450D01*
Y7480D01*
X32210D01*
X33980Y8810D02*
Y9210D01*
X34380D01*
Y8810D01*
X33980D01*
X34060Y8890D02*
Y9130D01*
X34300D01*
Y8890D01*
X34060D01*
X34406Y7480D02*
Y7880D01*
X34806D01*
Y7480D01*
X34406D01*
X34486Y7560D02*
Y7800D01*
X34726D01*
Y7560D01*
X34486D01*
X32130Y7660D02*
Y8060D01*
X32530D01*
Y7660D01*
X32130D01*
X32210Y7740D02*
Y7980D01*
X32450D01*
Y7740D01*
X32210D01*
X32490Y7660D02*
Y8060D01*
X32890D01*
Y7660D01*
X32490D01*
X32570Y7740D02*
Y7980D01*
X32810D01*
Y7740D01*
X32570D01*
X320Y33120D02*
Y33520D01*
X720D01*
Y33120D01*
X320D01*
X400Y33200D02*
Y33440D01*
X640D01*
Y33200D01*
X400D01*
X5941Y7050D02*
Y7450D01*
X6341D01*
Y7050D01*
X5941D01*
X6021Y7130D02*
Y7370D01*
X6261D01*
Y7130D01*
X6021D01*
X5421Y7150D02*
Y7550D01*
X5821D01*
Y7150D01*
X5421D01*
X5501Y7230D02*
Y7470D01*
X5741D01*
Y7230D01*
X5501D01*
X5671Y7060D02*
Y7460D01*
X6071D01*
Y7060D01*
X5671D01*
X5751Y7140D02*
Y7380D01*
X5991D01*
Y7140D01*
X5751D01*
X7557Y2810D02*
Y3210D01*
X7957D01*
Y2810D01*
X7557D01*
X7637Y2890D02*
Y3130D01*
X7877D01*
Y2890D01*
X7637D01*
X951Y6000D02*
Y6400D01*
X1351D01*
Y6000D01*
X951D01*
X1031Y6080D02*
Y6320D01*
X1271D01*
Y6080D01*
X1031D01*
X7181Y6030D02*
Y6430D01*
X7581D01*
Y6030D01*
X7181D01*
X7261Y6110D02*
Y6350D01*
X7501D01*
Y6110D01*
X7261D01*
X1221Y6000D02*
Y6400D01*
X1621D01*
Y6000D01*
X1221D01*
X1301Y6080D02*
Y6320D01*
X1541D01*
Y6080D01*
X1301D01*
X4441Y5950D02*
Y6350D01*
X4841D01*
Y5950D01*
X4441D01*
X4521Y6030D02*
Y6270D01*
X4761D01*
Y6030D01*
X4521D01*
X3761Y5950D02*
Y6350D01*
X4161D01*
Y5950D01*
X3761D01*
X3841Y6030D02*
Y6270D01*
X4081D01*
Y6030D01*
X3841D01*
X5311Y4690D02*
Y5090D01*
X5711D01*
Y4690D01*
X5311D01*
X5391Y4770D02*
Y5010D01*
X5631D01*
Y4770D01*
X5391D01*
X4975Y4690D02*
Y5090D01*
X5375D01*
Y4690D01*
X4975D01*
X5055Y4770D02*
Y5010D01*
X5295D01*
Y4770D01*
X5055D01*
X4638Y4690D02*
Y5090D01*
X5038D01*
Y4690D01*
X4638D01*
X4718Y4770D02*
Y5010D01*
X4958D01*
Y4770D01*
X4718D01*
X4301Y4690D02*
Y5090D01*
X4701D01*
Y4690D01*
X4301D01*
X4381Y4770D02*
Y5010D01*
X4621D01*
Y4770D01*
X4381D01*
X3801Y4690D02*
Y5090D01*
X4201D01*
Y4690D01*
X3801D01*
X3881Y4770D02*
Y5010D01*
X4121D01*
Y4770D01*
X3881D01*
X3475Y4690D02*
Y5090D01*
X3875D01*
Y4690D01*
X3475D01*
X3555Y4770D02*
Y5010D01*
X3795D01*
Y4770D01*
X3555D01*
X3148Y4690D02*
Y5090D01*
X3548D01*
Y4690D01*
X3148D01*
X3228Y4770D02*
Y5010D01*
X3468D01*
Y4770D01*
X3228D01*
X2821Y4690D02*
Y5090D01*
X3221D01*
Y4690D01*
X2821D01*
X2901Y4770D02*
Y5010D01*
X3141D01*
Y4770D01*
X2901D01*
X1917Y5670D02*
Y6070D01*
X2317D01*
Y5670D01*
X1917D01*
X1997Y5750D02*
Y5990D01*
X2237D01*
Y5750D01*
X1997D01*
X2107Y5850D02*
Y6250D01*
X2507D01*
Y5850D01*
X2107D01*
X2187Y5930D02*
Y6170D01*
X2427D01*
Y5930D01*
X2187D01*
X2207Y5130D02*
Y5530D01*
X2607D01*
Y5130D01*
X2207D01*
X2287Y5210D02*
Y5450D01*
X2527D01*
Y5210D01*
X2287D01*
X2377Y5320D02*
Y5720D01*
X2777D01*
Y5320D01*
X2377D01*
X2457Y5400D02*
Y5640D01*
X2697D01*
Y5400D01*
X2457D01*
X5495Y3830D02*
Y4230D01*
X5895D01*
Y3830D01*
X5495D01*
X5575Y3910D02*
Y4150D01*
X5815D01*
Y3910D01*
X5575D01*
X5765Y3830D02*
Y4230D01*
X6165D01*
Y3830D01*
X5765D01*
X5845Y3910D02*
Y4150D01*
X6085D01*
Y3910D01*
X5845D01*
X6911Y6020D02*
Y6420D01*
X7311D01*
Y6020D01*
X6911D01*
X6991Y6100D02*
Y6340D01*
X7231D01*
Y6100D01*
X6991D01*
X5941Y5130D02*
Y5530D01*
X6341D01*
Y5130D01*
X5941D01*
X6021Y5210D02*
Y5450D01*
X6261D01*
Y5210D01*
X6021D01*
X6041Y5850D02*
Y6250D01*
X6441D01*
Y5850D01*
X6041D01*
X6121Y5930D02*
Y6170D01*
X6361D01*
Y5930D01*
X6121D01*
X6231Y5670D02*
Y6070D01*
X6631D01*
Y5670D01*
X6231D01*
X6311Y5750D02*
Y5990D01*
X6551D01*
Y5750D01*
X6311D01*
X2691Y7210D02*
Y7610D01*
X3091D01*
Y7210D01*
X2691D01*
X2771Y7290D02*
Y7530D01*
X3011D01*
Y7290D01*
X2771D01*
X2421Y7210D02*
Y7610D01*
X2821D01*
Y7210D01*
X2421D01*
X2501Y7290D02*
Y7530D01*
X2741D01*
Y7290D01*
X2501D01*
X3291Y7330D02*
Y7730D01*
X3691D01*
Y7330D01*
X3291D01*
X3371Y7410D02*
Y7650D01*
X3611D01*
Y7410D01*
X3371D01*
X3291Y7600D02*
Y8000D01*
X3691D01*
Y7600D01*
X3291D01*
X3371Y7680D02*
Y7920D01*
X3611D01*
Y7680D01*
X3371D01*
X1261Y7340D02*
Y7740D01*
X1661D01*
Y7340D01*
X1261D01*
X1341Y7420D02*
Y7660D01*
X1581D01*
Y7420D01*
X1341D01*
X4911Y7310D02*
Y7710D01*
X5311D01*
Y7310D01*
X4911D01*
X4991Y7390D02*
Y7630D01*
X5231D01*
Y7390D01*
X4991D01*
X4911Y7590D02*
Y7990D01*
X5311D01*
Y7590D01*
X4911D01*
X4991Y7670D02*
Y7910D01*
X5231D01*
Y7670D01*
X4991D01*
X3415Y3830D02*
Y4230D01*
X3815D01*
Y3830D01*
X3415D01*
X3495Y3910D02*
Y4150D01*
X3735D01*
Y3910D01*
X3495D01*
X3155Y3830D02*
Y4230D01*
X3555D01*
Y3830D01*
X3155D01*
X3235Y3910D02*
Y4150D01*
X3475D01*
Y3910D01*
X3235D01*
X4256Y7400D02*
Y7800D01*
X4656D01*
Y7400D01*
X4256D01*
X4336Y7480D02*
Y7720D01*
X4576D01*
Y7480D01*
X4336D01*
X3896Y7400D02*
Y7800D01*
X4296D01*
Y7400D01*
X3896D01*
X3976Y7480D02*
Y7720D01*
X4216D01*
Y7480D01*
X3976D01*
X6171D02*
Y7880D01*
X6571D01*
Y7480D01*
X6171D01*
X6251Y7560D02*
Y7800D01*
X6491D01*
Y7560D01*
X6251D01*
X3896Y7660D02*
Y8060D01*
X4296D01*
Y7660D01*
X3896D01*
X3976Y7740D02*
Y7980D01*
X4216D01*
Y7740D01*
X3976D01*
X4256Y7660D02*
Y8060D01*
X4656D01*
Y7660D01*
X4256D01*
X4336Y7740D02*
Y7980D01*
X4576D01*
Y7740D01*
X4336D01*
X28340Y2790D02*
Y3190D01*
X28740D01*
Y2790D01*
X28340D01*
X28420Y2870D02*
Y3110D01*
X28660D01*
Y2870D01*
X28420D01*
X29280Y2840D02*
Y3240D01*
X29680D01*
Y2840D01*
X29280D01*
X29360Y2920D02*
Y3160D01*
X29600D01*
Y2920D01*
X29360D01*
X4850Y11860D02*
Y12260D01*
X5250D01*
Y11860D01*
X4850D01*
X4930Y11940D02*
Y12180D01*
X5170D01*
Y11940D01*
X4930D01*
X34059Y9390D02*
Y9790D01*
X34459D01*
Y9390D01*
X34059D01*
X34139Y9470D02*
Y9710D01*
X34379D01*
Y9470D01*
X34139D01*
X34059Y9890D02*
Y10290D01*
X34459D01*
Y9890D01*
X34059D01*
X34139Y9970D02*
Y10210D01*
X34379D01*
Y9970D01*
X34139D01*
X30559Y9390D02*
Y9790D01*
X30959D01*
Y9390D01*
X30559D01*
X30639Y9470D02*
Y9710D01*
X30879D01*
Y9470D01*
X30639D01*
X30809Y8890D02*
Y9290D01*
X31209D01*
Y8890D01*
X30809D01*
X30889Y8970D02*
Y9210D01*
X31129D01*
Y8970D01*
X30889D01*
X22720Y10140D02*
Y10540D01*
X23120D01*
Y10140D01*
X22720D01*
X22800Y10220D02*
Y10460D01*
X23040D01*
Y10220D01*
X22800D01*
X22720Y9390D02*
Y9790D01*
X23120D01*
Y9390D01*
X22720D01*
X22800Y9470D02*
Y9710D01*
X23040D01*
Y9470D01*
X22800D01*
X23720Y8890D02*
Y9290D01*
X24120D01*
Y8890D01*
X23720D01*
X23800Y8970D02*
Y9210D01*
X24040D01*
Y8970D01*
X23800D01*
X23470Y9390D02*
Y9790D01*
X23870D01*
Y9390D01*
X23470D01*
X23550Y9470D02*
Y9710D01*
X23790D01*
Y9470D01*
X23550D01*
X26970Y9890D02*
Y10290D01*
X27370D01*
Y9890D01*
X26970D01*
X27050Y9970D02*
Y10210D01*
X27290D01*
Y9970D01*
X27050D01*
X26970Y9390D02*
Y9790D01*
X27370D01*
Y9390D01*
X26970D01*
X27050Y9470D02*
Y9710D01*
X27290D01*
Y9470D01*
X27050D01*
X16634Y8890D02*
Y9290D01*
X17034D01*
Y8890D01*
X16634D01*
X16714Y8970D02*
Y9210D01*
X16954D01*
Y8970D01*
X16714D01*
X16384Y9390D02*
Y9790D01*
X16784D01*
Y9390D01*
X16384D01*
X16464Y9470D02*
Y9710D01*
X16704D01*
Y9470D01*
X16464D01*
X19884Y9890D02*
Y10290D01*
X20284D01*
Y9890D01*
X19884D01*
X19964Y9970D02*
Y10210D01*
X20204D01*
Y9970D01*
X19964D01*
X19884Y9390D02*
Y9790D01*
X20284D01*
Y9390D01*
X19884D01*
X19964Y9470D02*
Y9710D01*
X20204D01*
Y9470D01*
X19964D01*
X8543Y10140D02*
Y10540D01*
X8943D01*
Y10140D01*
X8543D01*
X8623Y10220D02*
Y10460D01*
X8863D01*
Y10220D01*
X8623D01*
X8543Y9390D02*
Y9790D01*
X8943D01*
Y9390D01*
X8543D01*
X8623Y9470D02*
Y9710D01*
X8863D01*
Y9470D01*
X8623D01*
X9543Y8890D02*
Y9290D01*
X9943D01*
Y8890D01*
X9543D01*
X9623Y8970D02*
Y9210D01*
X9863D01*
Y8970D01*
X9623D01*
X9293Y9390D02*
Y9790D01*
X9693D01*
Y9390D01*
X9293D01*
X9373Y9470D02*
Y9710D01*
X9613D01*
Y9470D01*
X9373D01*
X12793Y9890D02*
Y10290D01*
X13193D01*
Y9890D01*
X12793D01*
X12873Y9970D02*
Y10210D01*
X13113D01*
Y9970D01*
X12873D01*
X12793Y9390D02*
Y9790D01*
X13193D01*
Y9390D01*
X12793D01*
X12873Y9470D02*
Y9710D01*
X13113D01*
Y9470D01*
X12873D01*
X12714Y8810D02*
Y9210D01*
X13114D01*
Y8810D01*
X12714D01*
X12794Y8890D02*
Y9130D01*
X13034D01*
Y8890D01*
X12794D01*
X824Y7640D02*
Y8040D01*
X1224D01*
Y7640D01*
X824D01*
X904Y7720D02*
Y7960D01*
X1144D01*
Y7720D01*
X904D01*
X824Y8640D02*
Y9040D01*
X1224D01*
Y8640D01*
X824D01*
X904Y8720D02*
Y8960D01*
X1144D01*
Y8720D01*
X904D01*
X824Y9390D02*
Y9790D01*
X1224D01*
Y9390D01*
X824D01*
X904Y9470D02*
Y9710D01*
X1144D01*
Y9470D01*
X904D01*
X824Y10140D02*
Y10540D01*
X1224D01*
Y10140D01*
X824D01*
X904Y10220D02*
Y10460D01*
X1144D01*
Y10220D01*
X904D01*
X1570Y10120D02*
Y10520D01*
X1970D01*
Y10120D01*
X1570D01*
X1650Y10200D02*
Y10440D01*
X1890D01*
Y10200D01*
X1650D01*
X1574Y9390D02*
Y9790D01*
X1974D01*
Y9390D01*
X1574D01*
X1654Y9470D02*
Y9710D01*
X1894D01*
Y9470D01*
X1654D01*
X2574Y8890D02*
Y9290D01*
X2974D01*
Y8890D01*
X2574D01*
X2654Y8970D02*
Y9210D01*
X2894D01*
Y8970D01*
X2654D01*
X2324Y9390D02*
Y9790D01*
X2724D01*
Y9390D01*
X2324D01*
X2404Y9470D02*
Y9710D01*
X2644D01*
Y9470D01*
X2404D01*
X5824Y9890D02*
Y10290D01*
X6224D01*
Y9890D01*
X5824D01*
X5904Y9970D02*
Y10210D01*
X6144D01*
Y9970D01*
X5904D01*
X5824Y9390D02*
Y9790D01*
X6224D01*
Y9390D01*
X5824D01*
X5904Y9470D02*
Y9710D01*
X6144D01*
Y9470D01*
X5904D01*
X2574Y12390D02*
Y12790D01*
X2974D01*
Y12390D01*
X2574D01*
X2654Y12470D02*
Y12710D01*
X2894D01*
Y12470D01*
X2654D01*
X8543Y10890D02*
Y11290D01*
X8943D01*
Y10890D01*
X8543D01*
X8623Y10970D02*
Y11210D01*
X8863D01*
Y10970D01*
X8623D01*
X843Y3265D02*
Y3665D01*
X1243D01*
Y3265D01*
X843D01*
X923Y3345D02*
Y3585D01*
X1163D01*
Y3345D01*
X923D01*
X880Y29260D02*
Y29660D01*
X1280D01*
Y29260D01*
X880D01*
X960Y29340D02*
Y29580D01*
X1200D01*
Y29340D01*
X960D01*
X19380Y29010D02*
Y29410D01*
X19780D01*
Y29010D01*
X19380D01*
X19460Y29090D02*
Y29330D01*
X19700D01*
Y29090D01*
X19460D01*
X18390Y29030D02*
Y29430D01*
X18790D01*
Y29030D01*
X18390D01*
X18470Y29110D02*
Y29350D01*
X18710D01*
Y29110D01*
X18470D01*
X17890Y28990D02*
Y29390D01*
X18290D01*
Y28990D01*
X17890D01*
X17970Y29070D02*
Y29310D01*
X18210D01*
Y29070D01*
X17970D01*
X21902Y31510D02*
Y31910D01*
X22302D01*
Y31510D01*
X21902D01*
X21982Y31590D02*
Y31830D01*
X22222D01*
Y31590D01*
X21982D01*
X20990Y32090D02*
Y32490D01*
X21390D01*
Y32090D01*
X20990D01*
X21070Y32170D02*
Y32410D01*
X21310D01*
Y32170D01*
X21070D01*
X16222Y32700D02*
Y33100D01*
X16622D01*
Y32700D01*
X16222D01*
X16302Y32780D02*
Y33020D01*
X16542D01*
Y32780D01*
X16302D01*
X16540Y24800D02*
Y25200D01*
X16940D01*
Y24800D01*
X16540D01*
X16620Y24880D02*
Y25120D01*
X16860D01*
Y24880D01*
X16620D01*
X15990Y24390D02*
Y24790D01*
X16390D01*
Y24390D01*
X15990D01*
X16070Y24470D02*
Y24710D01*
X16310D01*
Y24470D01*
X16070D01*
X15650Y24050D02*
Y24450D01*
X16050D01*
Y24050D01*
X15650D01*
X15730Y24130D02*
Y24370D01*
X15970D01*
Y24130D01*
X15730D01*
X15020Y23340D02*
Y23740D01*
X15420D01*
Y23340D01*
X15020D01*
X15100Y23420D02*
Y23660D01*
X15340D01*
Y23420D01*
X15100D01*
X15440Y23460D02*
Y23860D01*
X15840D01*
Y23460D01*
X15440D01*
X15520Y23540D02*
Y23780D01*
X15760D01*
Y23540D01*
X15520D01*
X18650Y24870D02*
Y25270D01*
X19050D01*
Y24870D01*
X18650D01*
X18730Y24950D02*
Y25190D01*
X18970D01*
Y24950D01*
X18730D01*
X12930Y23320D02*
Y23720D01*
X13330D01*
Y23320D01*
X12930D01*
X13010Y23400D02*
Y23640D01*
X13250D01*
Y23400D01*
X13010D01*
X21600Y15860D02*
Y16260D01*
X22000D01*
Y15860D01*
X21600D01*
X21680Y15940D02*
Y16180D01*
X21920D01*
Y15940D01*
X21680D01*
X29072Y14337D02*
Y14737D01*
X29472D01*
Y14337D01*
X29072D01*
X29152Y14417D02*
Y14657D01*
X29392D01*
Y14417D01*
X29152D01*
X30676Y15144D02*
Y15544D01*
X31076D01*
Y15144D01*
X30676D01*
X30756Y15224D02*
Y15464D01*
X30996D01*
Y15224D01*
X30756D01*
X21310Y17960D02*
Y18360D01*
X21710D01*
Y17960D01*
X21310D01*
X21390Y18040D02*
Y18280D01*
X21630D01*
Y18040D01*
X21390D01*
X21450Y21950D02*
Y22350D01*
X21850D01*
Y21950D01*
X21450D01*
X21530Y22030D02*
Y22270D01*
X21770D01*
Y22030D01*
X21530D01*
X12870Y19320D02*
Y19720D01*
X13270D01*
Y19320D01*
X12870D01*
X12950Y19400D02*
Y19640D01*
X13190D01*
Y19400D01*
X12950D01*
X12830Y19690D02*
Y20090D01*
X13230D01*
Y19690D01*
X12830D01*
X12910Y19770D02*
Y20010D01*
X13150D01*
Y19770D01*
X12910D01*
X13310Y20500D02*
Y20900D01*
X13710D01*
Y20500D01*
X13310D01*
X13390Y20580D02*
Y20820D01*
X13630D01*
Y20580D01*
X13390D01*
X18160Y24840D02*
Y25240D01*
X18560D01*
Y24840D01*
X18160D01*
X18240Y24920D02*
Y25160D01*
X18480D01*
Y24920D01*
X18240D01*
X17590Y27380D02*
Y27780D01*
X17990D01*
Y27380D01*
X17590D01*
X17670Y27460D02*
Y27700D01*
X17910D01*
Y27460D01*
X17670D01*
X20360Y29380D02*
Y29780D01*
X20760D01*
Y29380D01*
X20360D01*
X20440Y29460D02*
Y29700D01*
X20680D01*
Y29460D01*
X20440D01*
X30580Y37040D02*
Y37440D01*
X30980D01*
Y37040D01*
X30580D01*
X30660Y37120D02*
Y37360D01*
X30900D01*
Y37120D01*
X30660D01*
X21610Y24010D02*
Y24410D01*
X22010D01*
Y24010D01*
X21610D01*
X21690Y24090D02*
Y24330D01*
X21930D01*
Y24090D01*
X21690D01*
X21660Y24470D02*
Y24870D01*
X22060D01*
Y24470D01*
X21660D01*
X21740Y24550D02*
Y24790D01*
X21980D01*
Y24550D01*
X21740D01*
X21330Y24650D02*
Y25050D01*
X21730D01*
Y24650D01*
X21330D01*
X21410Y24730D02*
Y24970D01*
X21650D01*
Y24730D01*
X21410D01*
X20580Y24510D02*
Y24910D01*
X20980D01*
Y24510D01*
X20580D01*
X20660Y24590D02*
Y24830D01*
X20900D01*
Y24590D01*
X20660D01*
X20550Y24150D02*
Y24550D01*
X20950D01*
Y24150D01*
X20550D01*
X20630Y24230D02*
Y24470D01*
X20870D01*
Y24230D01*
X20630D01*
X13240Y21010D02*
Y21410D01*
X13640D01*
Y21010D01*
X13240D01*
X13320Y21090D02*
Y21330D01*
X13560D01*
Y21090D01*
X13320D01*
X16230Y17810D02*
Y18210D01*
X16630D01*
Y17810D01*
X16230D01*
X16310Y17890D02*
Y18130D01*
X16550D01*
Y17890D01*
X16310D01*
X16510Y18050D02*
Y18450D01*
X16910D01*
Y18050D01*
X16510D01*
X16590Y18130D02*
Y18370D01*
X16830D01*
Y18130D01*
X16590D01*
X16780Y18290D02*
Y18690D01*
X17180D01*
Y18290D01*
X16780D01*
X16860Y18370D02*
Y18610D01*
X17100D01*
Y18370D01*
X16860D01*
X17020Y18560D02*
Y18960D01*
X17420D01*
Y18560D01*
X17020D01*
X17100Y18640D02*
Y18880D01*
X17340D01*
Y18640D01*
X17100D01*
X11350Y15700D02*
Y16100D01*
X11750D01*
Y15700D01*
X11350D01*
X11430Y15780D02*
Y16020D01*
X11670D01*
Y15780D01*
X11430D01*
X12290Y16020D02*
Y16420D01*
X12690D01*
Y16020D01*
X12290D01*
X12370Y16100D02*
Y16340D01*
X12610D01*
Y16100D01*
X12370D01*
X11870Y15570D02*
Y15970D01*
X12270D01*
Y15570D01*
X11870D01*
X11950Y15650D02*
Y15890D01*
X12190D01*
Y15650D01*
X11950D01*
X7880Y12070D02*
Y12470D01*
X8280D01*
Y12070D01*
X7880D01*
X7960Y12150D02*
Y12390D01*
X8200D01*
Y12150D01*
X7960D01*
X15010Y20380D02*
Y20780D01*
X15410D01*
Y20380D01*
X15010D01*
X15090Y20460D02*
Y20700D01*
X15330D01*
Y20460D01*
X15090D01*
X13850Y21200D02*
Y21600D01*
X14250D01*
Y21200D01*
X13850D01*
X13930Y21280D02*
Y21520D01*
X14170D01*
Y21280D01*
X13930D01*
X13520Y22030D02*
Y22430D01*
X13920D01*
Y22030D01*
X13520D01*
X13600Y22110D02*
Y22350D01*
X13840D01*
Y22110D01*
X13600D01*
X8340Y19760D02*
Y20160D01*
X8740D01*
Y19760D01*
X8340D01*
X8420Y19840D02*
Y20080D01*
X8660D01*
Y19840D01*
X8420D01*
X17300Y18820D02*
Y19220D01*
X17700D01*
Y18820D01*
X17300D01*
X17380Y18900D02*
Y19140D01*
X17620D01*
Y18900D01*
X17380D01*
X11790Y23320D02*
Y23720D01*
X12190D01*
Y23320D01*
X11790D01*
X11870Y23400D02*
Y23640D01*
X12110D01*
Y23400D01*
X11870D01*
X12880Y22170D02*
Y22570D01*
X13280D01*
Y22170D01*
X12880D01*
X12960Y22250D02*
Y22490D01*
X13200D01*
Y22250D01*
X12960D01*
X12460Y19740D02*
Y20140D01*
X12860D01*
Y19740D01*
X12460D01*
X12540Y19820D02*
Y20060D01*
X12780D01*
Y19820D01*
X12540D01*
X13170Y19060D02*
Y19460D01*
X13570D01*
Y19060D01*
X13170D01*
X13250Y19140D02*
Y19380D01*
X13490D01*
Y19140D01*
X13250D01*
X9660Y22930D02*
Y23330D01*
X10060D01*
Y22930D01*
X9660D01*
X9740Y23010D02*
Y23250D01*
X9980D01*
Y23010D01*
X9740D01*
X15610Y21520D02*
Y21920D01*
X16010D01*
Y21520D01*
X15610D01*
X15690Y21600D02*
Y21840D01*
X15930D01*
Y21600D01*
X15690D01*
X3060Y28190D02*
Y28590D01*
X3460D01*
Y28190D01*
X3060D01*
X3140Y28270D02*
Y28510D01*
X3380D01*
Y28270D01*
X3140D01*
X2890Y27590D02*
Y27990D01*
X3290D01*
Y27590D01*
X2890D01*
X2970Y27670D02*
Y27910D01*
X3210D01*
Y27670D01*
X2970D01*
X280Y26420D02*
Y26820D01*
X680D01*
Y26420D01*
X280D01*
X360Y26500D02*
Y26740D01*
X600D01*
Y26500D01*
X360D01*
X3940Y25828D02*
Y26228D01*
X4340D01*
Y25828D01*
X3940D01*
X4020Y25908D02*
Y26148D01*
X4260D01*
Y25908D01*
X4020D01*
X3960Y26198D02*
Y26598D01*
X4360D01*
Y26198D01*
X3960D01*
X4040Y26278D02*
Y26518D01*
X4280D01*
Y26278D01*
X4040D01*
X3990Y25458D02*
Y25858D01*
X4390D01*
Y25458D01*
X3990D01*
X4070Y25538D02*
Y25778D01*
X4310D01*
Y25538D01*
X4070D01*
X11640Y24800D02*
Y25200D01*
X12040D01*
Y24800D01*
X11640D01*
X11720Y24880D02*
Y25120D01*
X11960D01*
Y24880D01*
X11720D01*
X4660Y27730D02*
Y28130D01*
X5060D01*
Y27730D01*
X4660D01*
X4740Y27810D02*
Y28050D01*
X4980D01*
Y27810D01*
X4740D01*
X4230Y27310D02*
Y27710D01*
X4630D01*
Y27310D01*
X4230D01*
X4310Y27390D02*
Y27630D01*
X4550D01*
Y27390D01*
X4310D01*
X6310Y28450D02*
Y28850D01*
X6710D01*
Y28450D01*
X6310D01*
X6390Y28530D02*
Y28770D01*
X6630D01*
Y28530D01*
X6390D01*
X5350Y27980D02*
Y28380D01*
X5750D01*
Y27980D01*
X5350D01*
X5430Y28060D02*
Y28300D01*
X5670D01*
Y28060D01*
X5430D01*
X12270Y27320D02*
Y27720D01*
X12670D01*
Y27320D01*
X12270D01*
X12350Y27400D02*
Y27640D01*
X12590D01*
Y27400D01*
X12350D01*
X10930Y24150D02*
Y24550D01*
X11330D01*
Y24150D01*
X10930D01*
X11010Y24230D02*
Y24470D01*
X11250D01*
Y24230D01*
X11010D01*
X10940Y29210D02*
Y29610D01*
X11340D01*
Y29210D01*
X10940D01*
X11020Y29290D02*
Y29530D01*
X11260D01*
Y29290D01*
X11020D01*
X7270Y22480D02*
Y22880D01*
X7670D01*
Y22480D01*
X7270D01*
X7350Y22560D02*
Y22800D01*
X7590D01*
Y22560D01*
X7350D01*
X6300Y29870D02*
Y30270D01*
X6700D01*
Y29870D01*
X6300D01*
X6380Y29950D02*
Y30190D01*
X6620D01*
Y29950D01*
X6380D01*
X12410Y29770D02*
Y30170D01*
X12810D01*
Y29770D01*
X12410D01*
X12490Y29850D02*
Y30090D01*
X12730D01*
Y29850D01*
X12490D01*
X5620Y29010D02*
Y29410D01*
X6020D01*
Y29010D01*
X5620D01*
X5700Y29090D02*
Y29330D01*
X5940D01*
Y29090D01*
X5700D01*
X4910Y21110D02*
Y21510D01*
X5310D01*
Y21110D01*
X4910D01*
X4990Y21190D02*
Y21430D01*
X5230D01*
Y21190D01*
X4990D01*
X11210Y23710D02*
Y24110D01*
X11610D01*
Y23710D01*
X11210D01*
X11290Y23790D02*
Y24030D01*
X11530D01*
Y23790D01*
X11290D01*
X16620Y24350D02*
Y24750D01*
X17020D01*
Y24350D01*
X16620D01*
X16700Y24430D02*
Y24670D01*
X16940D01*
Y24430D01*
X16700D01*
X21440Y23060D02*
Y23460D01*
X21840D01*
Y23060D01*
X21440D01*
X21520Y23140D02*
Y23380D01*
X21760D01*
Y23140D01*
X21520D01*
X19580Y18070D02*
Y18470D01*
X19980D01*
Y18070D01*
X19580D01*
X19660Y18150D02*
Y18390D01*
X19900D01*
Y18150D01*
X19660D01*
X15380Y19220D02*
Y19620D01*
X15780D01*
Y19220D01*
X15380D01*
X15460Y19300D02*
Y19540D01*
X15700D01*
Y19300D01*
X15460D01*
X16010Y18830D02*
Y19230D01*
X16410D01*
Y18830D01*
X16010D01*
X16090Y18910D02*
Y19150D01*
X16330D01*
Y18910D01*
X16090D01*
X15910Y20340D02*
Y20740D01*
X16310D01*
Y20340D01*
X15910D01*
X15990Y20420D02*
Y20660D01*
X16230D01*
Y20420D01*
X15990D01*
X15650Y21990D02*
Y22390D01*
X16050D01*
Y21990D01*
X15650D01*
X15730Y22070D02*
Y22310D01*
X15970D01*
Y22070D01*
X15730D01*
X15100Y21970D02*
Y22370D01*
X15500D01*
Y21970D01*
X15100D01*
X15180Y22050D02*
Y22290D01*
X15420D01*
Y22050D01*
X15180D01*
X15190Y20730D02*
Y21130D01*
X15590D01*
Y20730D01*
X15190D01*
X15270Y20810D02*
Y21050D01*
X15510D01*
Y20810D01*
X15270D01*
X18710Y24460D02*
Y24860D01*
X19110D01*
Y24460D01*
X18710D01*
X18790Y24540D02*
Y24780D01*
X19030D01*
Y24540D01*
X18790D01*
X21890Y17830D02*
Y18230D01*
X22290D01*
Y17830D01*
X21890D01*
X21970Y17910D02*
Y18150D01*
X22210D01*
Y17910D01*
X21970D01*
X15370Y23820D02*
Y24220D01*
X15770D01*
Y23820D01*
X15370D01*
X15450Y23900D02*
Y24140D01*
X15690D01*
Y23900D01*
X15450D01*
X18410Y21940D02*
Y22340D01*
X18810D01*
Y21940D01*
X18410D01*
X18490Y22020D02*
Y22260D01*
X18730D01*
Y22020D01*
X18490D01*
X18270Y27360D02*
Y27760D01*
X18670D01*
Y27360D01*
X18270D01*
X18350Y27440D02*
Y27680D01*
X18590D01*
Y27440D01*
X18350D01*
X18890Y29020D02*
Y29420D01*
X19290D01*
Y29020D01*
X18890D01*
X18970Y29100D02*
Y29340D01*
X19210D01*
Y29100D01*
X18970D01*
X16810Y27940D02*
Y28340D01*
X17210D01*
Y27940D01*
X16810D01*
X16890Y28020D02*
Y28260D01*
X17130D01*
Y28020D01*
X16890D01*
X17060Y26800D02*
Y27200D01*
X17460D01*
Y26800D01*
X17060D01*
X17140Y26880D02*
Y27120D01*
X17380D01*
Y26880D01*
X17140D01*
X15960Y26330D02*
Y26730D01*
X16360D01*
Y26330D01*
X15960D01*
X16040Y26410D02*
Y26650D01*
X16280D01*
Y26410D01*
X16040D01*
X9210Y29790D02*
Y30190D01*
X9610D01*
Y29790D01*
X9210D01*
X9290Y29870D02*
Y30110D01*
X9530D01*
Y29870D01*
X9290D01*
X8180Y23490D02*
Y23890D01*
X8580D01*
Y23490D01*
X8180D01*
X8260Y23570D02*
Y23810D01*
X8500D01*
Y23570D01*
X8260D01*
X34110Y35145D02*
Y35545D01*
X34510D01*
Y35145D01*
X34110D01*
X34190Y35225D02*
Y35465D01*
X34430D01*
Y35225D01*
X34190D01*
X35200Y35145D02*
Y35545D01*
X35600D01*
Y35145D01*
X35200D01*
X35280Y35225D02*
Y35465D01*
X35520D01*
Y35225D01*
X35280D01*
X36170Y35145D02*
Y35545D01*
X36570D01*
Y35145D01*
X36170D01*
X36250Y35225D02*
Y35465D01*
X36490D01*
Y35225D01*
X36250D01*
X37350Y35145D02*
Y35545D01*
X37750D01*
Y35145D01*
X37350D01*
X37430Y35225D02*
Y35465D01*
X37670D01*
Y35225D01*
X37430D01*
X34040Y27750D02*
Y28150D01*
X34440D01*
Y27750D01*
X34040D01*
X34120Y27830D02*
Y28070D01*
X34360D01*
Y27830D01*
X34120D01*
X36950Y27750D02*
Y28150D01*
X37350D01*
Y27750D01*
X36950D01*
X37030Y27830D02*
Y28070D01*
X37270D01*
Y27830D01*
X37030D01*
X36050Y27750D02*
Y28150D01*
X36450D01*
Y27750D01*
X36050D01*
X36130Y27830D02*
Y28070D01*
X36370D01*
Y27830D01*
X36130D01*
X6920Y7280D02*
Y7680D01*
X7320D01*
Y7280D01*
X6920D01*
X7000Y7360D02*
Y7600D01*
X7240D01*
Y7360D01*
X7000D01*
X21140Y6020D02*
Y6420D01*
X21540D01*
Y6020D01*
X21140D01*
X21220Y6100D02*
Y6340D01*
X21460D01*
Y6100D01*
X21220D01*
X14050Y6020D02*
Y6420D01*
X14450D01*
Y6020D01*
X14050D01*
X14130Y6100D02*
Y6340D01*
X14370D01*
Y6100D01*
X14130D01*
X28230Y6020D02*
Y6420D01*
X28630D01*
Y6020D01*
X28230D01*
X28310Y6100D02*
Y6340D01*
X28550D01*
Y6100D01*
X28310D01*
X35310Y6020D02*
Y6420D01*
X35710D01*
Y6020D01*
X35310D01*
X35390Y6100D02*
Y6340D01*
X35630D01*
Y6100D01*
X35390D01*
X1550Y8800D02*
Y9200D01*
X1950D01*
Y8800D01*
X1550D01*
X1630Y8880D02*
Y9120D01*
X1870D01*
Y8880D01*
X1630D01*
X6550Y8800D02*
Y9200D01*
X6950D01*
Y8800D01*
X6550D01*
X6630Y8880D02*
Y9120D01*
X6870D01*
Y8880D01*
X6630D01*
X6550Y9550D02*
Y9950D01*
X6950D01*
Y9550D01*
X6550D01*
X6630Y9630D02*
Y9870D01*
X6870D01*
Y9630D01*
X6630D01*
X6550Y10300D02*
Y10700D01*
X6950D01*
Y10300D01*
X6550D01*
X6630Y10380D02*
Y10620D01*
X6870D01*
Y10380D01*
X6630D01*
X6550Y11050D02*
Y11450D01*
X6950D01*
Y11050D01*
X6550D01*
X6630Y11130D02*
Y11370D01*
X6870D01*
Y11130D01*
X6630D01*
X6550Y11800D02*
Y12200D01*
X6950D01*
Y11800D01*
X6550D01*
X6630Y11880D02*
Y12120D01*
X6870D01*
Y11880D01*
X6630D01*
X13550Y8800D02*
Y9200D01*
X13950D01*
Y8800D01*
X13550D01*
X13630Y8880D02*
Y9120D01*
X13870D01*
Y8880D01*
X13630D01*
X13550Y9550D02*
Y9950D01*
X13950D01*
Y9550D01*
X13550D01*
X13630Y9630D02*
Y9870D01*
X13870D01*
Y9630D01*
X13630D01*
X13550Y10300D02*
Y10700D01*
X13950D01*
Y10300D01*
X13550D01*
X13630Y10380D02*
Y10620D01*
X13870D01*
Y10380D01*
X13630D01*
X13550Y11050D02*
Y11450D01*
X13950D01*
Y11050D01*
X13550D01*
X13630Y11130D02*
Y11370D01*
X13870D01*
Y11130D01*
X13630D01*
X15800Y8800D02*
Y9200D01*
X16200D01*
Y8800D01*
X15800D01*
X15880Y8880D02*
Y9120D01*
X16120D01*
Y8880D01*
X15880D01*
X15800Y9550D02*
Y9950D01*
X16200D01*
Y9550D01*
X15800D01*
X15880Y9630D02*
Y9870D01*
X16120D01*
Y9630D01*
X15880D01*
X15800Y10300D02*
Y10700D01*
X16200D01*
Y10300D01*
X15800D01*
X15880Y10380D02*
Y10620D01*
X16120D01*
Y10380D01*
X15880D01*
X15800Y11050D02*
Y11450D01*
X16200D01*
Y11050D01*
X15800D01*
X15880Y11130D02*
Y11370D01*
X16120D01*
Y11130D01*
X15880D01*
X22550Y11050D02*
Y11450D01*
X22950D01*
Y11050D01*
X22550D01*
X22630Y11130D02*
Y11370D01*
X22870D01*
Y11130D01*
X22630D01*
X22550Y8800D02*
Y9200D01*
X22950D01*
Y8800D01*
X22550D01*
X22630Y8880D02*
Y9120D01*
X22870D01*
Y8880D01*
X22630D01*
X20550Y8800D02*
Y9200D01*
X20950D01*
Y8800D01*
X20550D01*
X20630Y8880D02*
Y9120D01*
X20870D01*
Y8880D01*
X20630D01*
X20550Y9550D02*
Y9950D01*
X20950D01*
Y9550D01*
X20550D01*
X20630Y9630D02*
Y9870D01*
X20870D01*
Y9630D01*
X20630D01*
X20550Y10300D02*
Y10700D01*
X20950D01*
Y10300D01*
X20550D01*
X20630Y10380D02*
Y10620D01*
X20870D01*
Y10380D01*
X20630D01*
X20550Y11050D02*
Y11450D01*
X20950D01*
Y11050D01*
X20550D01*
X20630Y11130D02*
Y11370D01*
X20870D01*
Y11130D01*
X20630D01*
X20550Y11800D02*
Y12200D01*
X20950D01*
Y11800D01*
X20550D01*
X20630Y11880D02*
Y12120D01*
X20870D01*
Y11880D01*
X20630D01*
X21300Y12050D02*
Y12450D01*
X21700D01*
Y12050D01*
X21300D01*
X21380Y12130D02*
Y12370D01*
X21620D01*
Y12130D01*
X21380D01*
X27550Y8800D02*
Y9200D01*
X27950D01*
Y8800D01*
X27550D01*
X27630Y8880D02*
Y9120D01*
X27870D01*
Y8880D01*
X27630D01*
X27550Y9550D02*
Y9950D01*
X27950D01*
Y9550D01*
X27550D01*
X27630Y9630D02*
Y9870D01*
X27870D01*
Y9630D01*
X27630D01*
X27550Y10300D02*
Y10700D01*
X27950D01*
Y10300D01*
X27550D01*
X27630Y10380D02*
Y10620D01*
X27870D01*
Y10380D01*
X27630D01*
X27550Y11050D02*
Y11450D01*
X27950D01*
Y11050D01*
X27550D01*
X27630Y11130D02*
Y11370D01*
X27870D01*
Y11130D01*
X27630D01*
X29800Y8800D02*
Y9200D01*
X30200D01*
Y8800D01*
X29800D01*
X29880Y8880D02*
Y9120D01*
X30120D01*
Y8880D01*
X29880D01*
X29800Y9550D02*
Y9950D01*
X30200D01*
Y9550D01*
X29800D01*
X29880Y9630D02*
Y9870D01*
X30120D01*
Y9630D01*
X29880D01*
X29800Y10300D02*
Y10700D01*
X30200D01*
Y10300D01*
X29800D01*
X29880Y10380D02*
Y10620D01*
X30120D01*
Y10380D01*
X29880D01*
X29800Y11050D02*
Y11450D01*
X30200D01*
Y11050D01*
X29800D01*
X29880Y11130D02*
Y11370D01*
X30120D01*
Y11130D01*
X29880D01*
X29470Y11430D02*
Y11830D01*
X29870D01*
Y11430D01*
X29470D01*
X29550Y11510D02*
Y11750D01*
X29790D01*
Y11510D01*
X29550D01*
X34800Y8800D02*
Y9200D01*
X35200D01*
Y8800D01*
X34800D01*
X34880Y8880D02*
Y9120D01*
X35120D01*
Y8880D01*
X34880D01*
X34800Y9550D02*
Y9950D01*
X35200D01*
Y9550D01*
X34800D01*
X34880Y9630D02*
Y9870D01*
X35120D01*
Y9630D01*
X34880D01*
X34800Y10300D02*
Y10700D01*
X35200D01*
Y10300D01*
X34800D01*
X34880Y10380D02*
Y10620D01*
X35120D01*
Y10380D01*
X34880D01*
X34800Y11050D02*
Y11450D01*
X35200D01*
Y11050D01*
X34800D01*
X34880Y11130D02*
Y11370D01*
X35120D01*
Y11130D01*
X34880D01*
X35050Y12550D02*
Y12950D01*
X35450D01*
Y12550D01*
X35050D01*
X35130Y12630D02*
Y12870D01*
X35370D01*
Y12630D01*
X35130D01*
X39750Y4000D02*
Y4400D01*
X40150D01*
Y4000D01*
X39750D01*
X39830Y4080D02*
Y4320D01*
X40070D01*
Y4080D01*
X39830D01*
X38270Y4860D02*
Y5260D01*
X38670D01*
Y4860D01*
X38270D01*
X38350Y4940D02*
Y5180D01*
X38590D01*
Y4940D01*
X38350D01*
X38340Y7970D02*
Y8370D01*
X38740D01*
Y7970D01*
X38340D01*
X38420Y8050D02*
Y8290D01*
X38660D01*
Y8050D01*
X38420D01*
X38740Y8640D02*
Y9040D01*
X39140D01*
Y8640D01*
X38740D01*
X38820Y8720D02*
Y8960D01*
X39060D01*
Y8720D01*
X38820D01*
X38740Y9180D02*
Y9580D01*
X39140D01*
Y9180D01*
X38740D01*
X38820Y9260D02*
Y9500D01*
X39060D01*
Y9260D01*
X38820D01*
X39050Y9850D02*
Y10250D01*
X39450D01*
Y9850D01*
X39050D01*
X39130Y9930D02*
Y10170D01*
X39370D01*
Y9930D01*
X39130D01*
X39720Y8240D02*
Y8640D01*
X40120D01*
Y8240D01*
X39720D01*
X39800Y8320D02*
Y8560D01*
X40040D01*
Y8320D01*
X39800D01*
X37536Y10686D02*
Y11086D01*
X37936D01*
Y10686D01*
X37536D01*
X37616Y10766D02*
Y11006D01*
X37856D01*
Y10766D01*
X37616D01*
X4720Y25828D02*
Y26228D01*
X5120D01*
Y25828D01*
X4720D01*
X4800Y25908D02*
Y26148D01*
X5040D01*
Y25908D01*
X4800D01*
X38648Y35144D02*
Y35544D01*
X39048D01*
Y35144D01*
X38648D01*
X38728Y35224D02*
Y35464D01*
X38968D01*
Y35224D01*
X38728D01*
X13972Y3994D02*
Y4394D01*
X14372D01*
Y3994D01*
X13972D01*
X14052Y4074D02*
Y4314D01*
X14292D01*
Y4074D01*
X14052D01*
X12635Y3830D02*
Y4230D01*
X13035D01*
Y3830D01*
X12635D01*
X12715Y3910D02*
Y4150D01*
X12955D01*
Y3910D01*
X12715D01*
X8648Y3855D02*
Y4255D01*
X9048D01*
Y3855D01*
X8648D01*
X8728Y3935D02*
Y4175D01*
X8968D01*
Y3935D01*
X8728D01*
X7003Y3994D02*
Y4394D01*
X7403D01*
Y3994D01*
X7003D01*
X7083Y4074D02*
Y4314D01*
X7323D01*
Y4074D01*
X7083D01*
X8245Y2743D02*
Y3143D01*
X8645D01*
Y2743D01*
X8245D01*
X8325Y2823D02*
Y3063D01*
X8565D01*
Y2823D01*
X8325D01*
X5771Y5320D02*
Y5720D01*
X6171D01*
Y5320D01*
X5771D01*
X5851Y5400D02*
Y5640D01*
X6091D01*
Y5400D01*
X5851D01*
X1650Y3875D02*
Y4275D01*
X2050D01*
Y3875D01*
X1650D01*
X1730Y3955D02*
Y4195D01*
X1970D01*
Y3955D01*
X1730D01*
X1513Y3511D02*
Y3911D01*
X1913D01*
Y3511D01*
X1513D01*
X1593Y3591D02*
Y3831D01*
X1833D01*
Y3591D01*
X1593D01*
X1690Y3324D02*
Y3724D01*
X2090D01*
Y3324D01*
X1690D01*
X1770Y3404D02*
Y3644D01*
X2010D01*
Y3404D01*
X1770D01*
X37704Y33235D02*
Y33635D01*
X38104D01*
Y33235D01*
X37704D01*
X37784Y33315D02*
Y33555D01*
X38024D01*
Y33315D01*
X37784D01*
X29751Y14574D02*
Y14974D01*
X30151D01*
Y14574D01*
X29751D01*
X29831Y14654D02*
Y14894D01*
X30071D01*
Y14654D01*
X29831D01*
X23460Y24760D02*
Y25160D01*
X23860D01*
Y24760D01*
X23460D01*
X23540Y24840D02*
Y25080D01*
X23780D01*
Y24840D01*
X23540D01*
X23856Y26602D02*
Y27002D01*
X24256D01*
Y26602D01*
X23856D01*
X23936Y26682D02*
Y26922D01*
X24176D01*
Y26682D01*
X23936D01*
X24111Y26345D02*
Y26745D01*
X24511D01*
Y26345D01*
X24111D01*
X24191Y26425D02*
Y26665D01*
X24431D01*
Y26425D01*
X24191D01*
X25156Y27846D02*
Y28246D01*
X25556D01*
Y27846D01*
X25156D01*
X25236Y27926D02*
Y28166D01*
X25476D01*
Y27926D01*
X25236D01*
X24396Y26119D02*
Y26519D01*
X24796D01*
Y26119D01*
X24396D01*
X24476Y26199D02*
Y26439D01*
X24716D01*
Y26199D01*
X24476D01*
X24583Y26611D02*
Y27011D01*
X24983D01*
Y26611D01*
X24583D01*
X24663Y26691D02*
Y26931D01*
X24903D01*
Y26691D01*
X24663D01*
X23461Y30971D02*
Y31371D01*
X23861D01*
Y30971D01*
X23461D01*
X23541Y31051D02*
Y31291D01*
X23781D01*
Y31051D01*
X23541D01*
X23767Y30144D02*
Y30544D01*
X24167D01*
Y30144D01*
X23767D01*
X23847Y30224D02*
Y30464D01*
X24087D01*
Y30224D01*
X23847D01*
X24000Y22980D02*
Y23380D01*
X24400D01*
Y22980D01*
X24000D01*
X24080Y23060D02*
Y23300D01*
X24320D01*
Y23060D01*
X24080D01*
X23990Y22280D02*
Y22680D01*
X24390D01*
Y22280D01*
X23990D01*
X24070Y22360D02*
Y22600D01*
X24310D01*
Y22360D01*
X24070D01*
X23730Y21190D02*
Y21590D01*
X24130D01*
Y21190D01*
X23730D01*
X23810Y21270D02*
Y21510D01*
X24050D01*
Y21270D01*
X23810D01*
X23930Y21720D02*
Y22120D01*
X24330D01*
Y21720D01*
X23930D01*
X24010Y21800D02*
Y22040D01*
X24250D01*
Y21800D01*
X24010D01*
X24790Y27054D02*
Y27454D01*
X25190D01*
Y27054D01*
X24790D01*
X24870Y27134D02*
Y27374D01*
X25110D01*
Y27134D01*
X24870D01*
X23019Y31030D02*
Y31430D01*
X23419D01*
Y31030D01*
X23019D01*
X23098Y31110D02*
Y31350D01*
X23338D01*
Y31110D01*
X23098D01*
X25213Y30026D02*
Y30426D01*
X25613D01*
Y30026D01*
X25213D01*
X25293Y30106D02*
Y30346D01*
X25533D01*
Y30106D01*
X25293D01*
X23501Y29593D02*
Y29993D01*
X23901D01*
Y29593D01*
X23501D01*
X23581Y29673D02*
Y29913D01*
X23821D01*
Y29673D01*
X23581D01*
X24564Y28629D02*
Y29029D01*
X24964D01*
Y28629D01*
X24564D01*
X24644Y28709D02*
Y28949D01*
X24884D01*
Y28709D01*
X24644D01*
X20620Y27370D02*
Y27770D01*
X21020D01*
Y27370D01*
X20620D01*
X20700Y27450D02*
Y27690D01*
X20940D01*
Y27450D01*
X20700D01*
X22792Y29377D02*
Y29777D01*
X23192D01*
Y29377D01*
X22792D01*
X22872Y29457D02*
Y29697D01*
X23112D01*
Y29457D01*
X22872D01*
X22498Y28443D02*
Y28843D01*
X22898D01*
Y28443D01*
X22498D01*
X22578Y28523D02*
Y28763D01*
X22818D01*
Y28523D01*
X22578D01*
X21750Y27606D02*
Y28006D01*
X22150D01*
Y27606D01*
X21750D01*
X21830Y27686D02*
Y27926D01*
X22070D01*
Y27686D01*
X21830D01*
X24004Y28738D02*
Y29138D01*
X24404D01*
Y28738D01*
X24004D01*
X24084Y28818D02*
Y29058D01*
X24324D01*
Y28818D01*
X24084D01*
X23699Y28945D02*
Y29345D01*
X24099D01*
Y28945D01*
X23699D01*
X23779Y29025D02*
Y29265D01*
X24019D01*
Y29025D01*
X23779D01*
X23463Y26947D02*
Y27347D01*
X23863D01*
Y26947D01*
X23463D01*
X23543Y27027D02*
Y27267D01*
X23783D01*
Y27027D01*
X23543D01*
X3181Y18850D02*
Y19250D01*
X3581D01*
Y18850D01*
X3181D01*
X3261Y18930D02*
Y19170D01*
X3501D01*
Y18930D01*
X3261D01*
X7536Y16276D02*
Y16676D01*
X7936D01*
Y16276D01*
X7536D01*
X7616Y16356D02*
Y16596D01*
X7856D01*
Y16356D01*
X7616D01*
X8350Y16680D02*
Y17080D01*
X8750D01*
Y16680D01*
X8350D01*
X8430Y16760D02*
Y17000D01*
X8670D01*
Y16760D01*
X8430D01*
X7546Y16670D02*
Y17070D01*
X7946D01*
Y16670D01*
X7546D01*
X7626Y16750D02*
Y16990D01*
X7866D01*
Y16750D01*
X7626D01*
X7910Y16621D02*
Y17021D01*
X8310D01*
Y16621D01*
X7910D01*
X7990Y16701D02*
Y16941D01*
X8230D01*
Y16701D01*
X7990D01*
X7900Y16207D02*
Y16607D01*
X8300D01*
Y16207D01*
X7900D01*
X7980Y16287D02*
Y16527D01*
X8220D01*
Y16287D01*
X7980D01*
X6613Y16534D02*
Y16434D01*
X6813D01*
Y16534D01*
X6913D01*
Y16734D01*
X6813D01*
Y16834D01*
X6613D01*
Y16734D01*
X6513D01*
Y16534D01*
X6613D01*
X6653Y16574D02*
Y16514D01*
X6773D01*
Y16574D01*
X6833D01*
Y16694D01*
X6773D01*
Y16754D01*
X6653D01*
Y16694D01*
X6593D01*
Y16574D01*
X6653D01*
X7182Y16768D02*
Y17169D01*
X7582D01*
Y16768D01*
X7182D01*
X7262Y16848D02*
Y17089D01*
X7502D01*
Y16848D01*
X7262D01*
X30008Y15135D02*
Y15535D01*
X30408D01*
Y15135D01*
X30008D01*
X30088Y15215D02*
Y15455D01*
X30328D01*
Y15215D01*
X30088D01*
X8954Y12153D02*
Y12553D01*
X9354D01*
Y12153D01*
X8954D01*
X9034Y12233D02*
Y12473D01*
X9274D01*
Y12233D01*
X9034D01*
X9230Y11612D02*
Y12012D01*
X9630D01*
Y11612D01*
X9230D01*
X9310Y11692D02*
Y11932D01*
X9550D01*
Y11692D01*
X9310D01*
X9269Y11100D02*
Y11500D01*
X9669D01*
Y11100D01*
X9269D01*
X9349Y11180D02*
Y11420D01*
X9589D01*
Y11180D01*
X9349D01*
X34583Y13274D02*
Y13674D01*
X34983D01*
Y13274D01*
X34583D01*
X34663Y13354D02*
Y13594D01*
X34903D01*
Y13354D01*
X34663D01*
X32841Y15243D02*
Y15643D01*
X33241D01*
Y15243D01*
X32841D01*
X32921Y15323D02*
Y15563D01*
X33161D01*
Y15323D01*
X32921D01*
X33175Y9823D02*
Y10223D01*
X33575D01*
Y9823D01*
X33175D01*
X33255Y9903D02*
Y10143D01*
X33495D01*
Y9903D01*
X33255D01*
X33175Y9390D02*
Y9790D01*
X33575D01*
Y9390D01*
X33175D01*
X33255Y9470D02*
Y9710D01*
X33495D01*
Y9470D01*
X33255D01*
X33175Y8957D02*
Y9357D01*
X33575D01*
Y8957D01*
X33175D01*
X33255Y9037D02*
Y9277D01*
X33495D01*
Y9037D01*
X33255D01*
X32742Y9823D02*
Y10223D01*
X33142D01*
Y9823D01*
X32742D01*
X32822Y9903D02*
Y10143D01*
X33062D01*
Y9903D01*
X32822D01*
X32742Y9390D02*
Y9790D01*
X33142D01*
Y9390D01*
X32742D01*
X32822Y9470D02*
Y9710D01*
X33062D01*
Y9470D01*
X32822D01*
X32742Y8957D02*
Y9357D01*
X33142D01*
Y8957D01*
X32742D01*
X32822Y9037D02*
Y9277D01*
X33062D01*
Y9037D01*
X32822D01*
X32309Y9823D02*
Y10223D01*
X32709D01*
Y9823D01*
X32309D01*
X32389Y9903D02*
Y10143D01*
X32629D01*
Y9903D01*
X32389D01*
X32309Y9390D02*
Y9790D01*
X32709D01*
Y9390D01*
X32309D01*
X32389Y9470D02*
Y9710D01*
X32629D01*
Y9470D01*
X32389D01*
X32309Y8957D02*
Y9357D01*
X32709D01*
Y8957D01*
X32309D01*
X32389Y9037D02*
Y9277D01*
X32629D01*
Y9037D01*
X32389D01*
X31876Y9823D02*
Y10223D01*
X32276D01*
Y9823D01*
X31876D01*
X31956Y9903D02*
Y10143D01*
X32196D01*
Y9903D01*
X31956D01*
X31876Y9390D02*
Y9790D01*
X32276D01*
Y9390D01*
X31876D01*
X31956Y9470D02*
Y9710D01*
X32196D01*
Y9470D01*
X31956D01*
X31876Y8957D02*
Y9357D01*
X32276D01*
Y8957D01*
X31876D01*
X31956Y9037D02*
Y9277D01*
X32196D01*
Y9037D01*
X31956D01*
X31443Y9823D02*
Y10223D01*
X31843D01*
Y9823D01*
X31443D01*
X31523Y9903D02*
Y10143D01*
X31763D01*
Y9903D01*
X31523D01*
X31443Y9390D02*
Y9790D01*
X31843D01*
Y9390D01*
X31443D01*
X31523Y9470D02*
Y9710D01*
X31763D01*
Y9470D01*
X31523D01*
X31443Y8957D02*
Y9357D01*
X31843D01*
Y8957D01*
X31443D01*
X31523Y9037D02*
Y9277D01*
X31763D01*
Y9037D01*
X31523D01*
X24354Y8957D02*
Y9357D01*
X24754D01*
Y8957D01*
X24354D01*
X24434Y9037D02*
Y9277D01*
X24674D01*
Y9037D01*
X24434D01*
X24354Y9390D02*
Y9790D01*
X24754D01*
Y9390D01*
X24354D01*
X24434Y9470D02*
Y9710D01*
X24674D01*
Y9470D01*
X24434D01*
X24354Y9823D02*
Y10223D01*
X24754D01*
Y9823D01*
X24354D01*
X24434Y9903D02*
Y10143D01*
X24674D01*
Y9903D01*
X24434D01*
X24787Y8957D02*
Y9357D01*
X25187D01*
Y8957D01*
X24787D01*
X24867Y9037D02*
Y9277D01*
X25107D01*
Y9037D01*
X24867D01*
X24787Y9390D02*
Y9790D01*
X25187D01*
Y9390D01*
X24787D01*
X24867Y9470D02*
Y9710D01*
X25107D01*
Y9470D01*
X24867D01*
X24787Y9823D02*
Y10223D01*
X25187D01*
Y9823D01*
X24787D01*
X24867Y9903D02*
Y10143D01*
X25107D01*
Y9903D01*
X24867D01*
X25220Y8957D02*
Y9357D01*
X25620D01*
Y8957D01*
X25220D01*
X25300Y9037D02*
Y9277D01*
X25540D01*
Y9037D01*
X25300D01*
X25220Y9390D02*
Y9790D01*
X25620D01*
Y9390D01*
X25220D01*
X25300Y9470D02*
Y9710D01*
X25540D01*
Y9470D01*
X25300D01*
X25220Y9823D02*
Y10223D01*
X25620D01*
Y9823D01*
X25220D01*
X25300Y9903D02*
Y10143D01*
X25540D01*
Y9903D01*
X25300D01*
X25653Y8957D02*
Y9357D01*
X26053D01*
Y8957D01*
X25653D01*
X25733Y9037D02*
Y9277D01*
X25973D01*
Y9037D01*
X25733D01*
X25653Y9390D02*
Y9790D01*
X26053D01*
Y9390D01*
X25653D01*
X25733Y9470D02*
Y9710D01*
X25973D01*
Y9470D01*
X25733D01*
X25653Y9823D02*
Y10223D01*
X26053D01*
Y9823D01*
X25653D01*
X25733Y9903D02*
Y10143D01*
X25973D01*
Y9903D01*
X25733D01*
X26086Y8957D02*
Y9357D01*
X26486D01*
Y8957D01*
X26086D01*
X26166Y9037D02*
Y9277D01*
X26406D01*
Y9037D01*
X26166D01*
X26086Y9390D02*
Y9790D01*
X26486D01*
Y9390D01*
X26086D01*
X26166Y9470D02*
Y9710D01*
X26406D01*
Y9470D01*
X26166D01*
X26086Y9823D02*
Y10223D01*
X26486D01*
Y9823D01*
X26086D01*
X26166Y9903D02*
Y10143D01*
X26406D01*
Y9903D01*
X26166D01*
X19000Y9823D02*
Y10223D01*
X19400D01*
Y9823D01*
X19000D01*
X19080Y9903D02*
Y10143D01*
X19320D01*
Y9903D01*
X19080D01*
X19000Y9390D02*
Y9790D01*
X19400D01*
Y9390D01*
X19000D01*
X19080Y9470D02*
Y9710D01*
X19320D01*
Y9470D01*
X19080D01*
X19000Y8957D02*
Y9357D01*
X19400D01*
Y8957D01*
X19000D01*
X19080Y9037D02*
Y9277D01*
X19320D01*
Y9037D01*
X19080D01*
X18567Y9823D02*
Y10223D01*
X18967D01*
Y9823D01*
X18567D01*
X18647Y9903D02*
Y10143D01*
X18887D01*
Y9903D01*
X18647D01*
X18567Y9390D02*
Y9790D01*
X18967D01*
Y9390D01*
X18567D01*
X18647Y9470D02*
Y9710D01*
X18887D01*
Y9470D01*
X18647D01*
X18567Y8957D02*
Y9357D01*
X18967D01*
Y8957D01*
X18567D01*
X18647Y9037D02*
Y9277D01*
X18887D01*
Y9037D01*
X18647D01*
X18134Y9823D02*
Y10223D01*
X18534D01*
Y9823D01*
X18134D01*
X18214Y9903D02*
Y10143D01*
X18454D01*
Y9903D01*
X18214D01*
X18134Y9390D02*
Y9790D01*
X18534D01*
Y9390D01*
X18134D01*
X18214Y9470D02*
Y9710D01*
X18454D01*
Y9470D01*
X18214D01*
X18134Y8957D02*
Y9357D01*
X18534D01*
Y8957D01*
X18134D01*
X18214Y9037D02*
Y9277D01*
X18454D01*
Y9037D01*
X18214D01*
X17701Y9823D02*
Y10223D01*
X18101D01*
Y9823D01*
X17701D01*
X17781Y9903D02*
Y10143D01*
X18021D01*
Y9903D01*
X17781D01*
X17701Y9390D02*
Y9790D01*
X18101D01*
Y9390D01*
X17701D01*
X17781Y9470D02*
Y9710D01*
X18021D01*
Y9470D01*
X17781D01*
X17701Y8957D02*
Y9357D01*
X18101D01*
Y8957D01*
X17701D01*
X17781Y9037D02*
Y9277D01*
X18021D01*
Y9037D01*
X17781D01*
X17268Y9823D02*
Y10223D01*
X17668D01*
Y9823D01*
X17268D01*
X17348Y9903D02*
Y10143D01*
X17588D01*
Y9903D01*
X17348D01*
X17268Y9390D02*
Y9790D01*
X17668D01*
Y9390D01*
X17268D01*
X17348Y9470D02*
Y9710D01*
X17588D01*
Y9470D01*
X17348D01*
X17268Y8957D02*
Y9357D01*
X17668D01*
Y8957D01*
X17268D01*
X17348Y9037D02*
Y9277D01*
X17588D01*
Y9037D01*
X17348D01*
X10177Y8957D02*
Y9357D01*
X10577D01*
Y8957D01*
X10177D01*
X10257Y9037D02*
Y9277D01*
X10497D01*
Y9037D01*
X10257D01*
X10177Y9390D02*
Y9790D01*
X10577D01*
Y9390D01*
X10177D01*
X10257Y9470D02*
Y9710D01*
X10497D01*
Y9470D01*
X10257D01*
X10177Y9823D02*
Y10223D01*
X10577D01*
Y9823D01*
X10177D01*
X10257Y9903D02*
Y10143D01*
X10497D01*
Y9903D01*
X10257D01*
X10610Y8957D02*
Y9357D01*
X11010D01*
Y8957D01*
X10610D01*
X10690Y9037D02*
Y9277D01*
X10930D01*
Y9037D01*
X10690D01*
X10610Y9390D02*
Y9790D01*
X11010D01*
Y9390D01*
X10610D01*
X10690Y9470D02*
Y9710D01*
X10930D01*
Y9470D01*
X10690D01*
X10610Y9823D02*
Y10223D01*
X11010D01*
Y9823D01*
X10610D01*
X10690Y9903D02*
Y10143D01*
X10930D01*
Y9903D01*
X10690D01*
X11043Y8957D02*
Y9357D01*
X11443D01*
Y8957D01*
X11043D01*
X11123Y9037D02*
Y9277D01*
X11363D01*
Y9037D01*
X11123D01*
X11043Y9390D02*
Y9790D01*
X11443D01*
Y9390D01*
X11043D01*
X11123Y9470D02*
Y9710D01*
X11363D01*
Y9470D01*
X11123D01*
X11043Y9823D02*
Y10223D01*
X11443D01*
Y9823D01*
X11043D01*
X11123Y9903D02*
Y10143D01*
X11363D01*
Y9903D01*
X11123D01*
X11476Y8957D02*
Y9357D01*
X11876D01*
Y8957D01*
X11476D01*
X11556Y9037D02*
Y9277D01*
X11796D01*
Y9037D01*
X11556D01*
X11476Y9390D02*
Y9790D01*
X11876D01*
Y9390D01*
X11476D01*
X11556Y9470D02*
Y9710D01*
X11796D01*
Y9470D01*
X11556D01*
X11476Y9823D02*
Y10223D01*
X11876D01*
Y9823D01*
X11476D01*
X11556Y9903D02*
Y10143D01*
X11796D01*
Y9903D01*
X11556D01*
X11909Y8957D02*
Y9357D01*
X12309D01*
Y8957D01*
X11909D01*
X11989Y9037D02*
Y9277D01*
X12229D01*
Y9037D01*
X11989D01*
X11909Y9390D02*
Y9790D01*
X12309D01*
Y9390D01*
X11909D01*
X11989Y9470D02*
Y9710D01*
X12229D01*
Y9470D01*
X11989D01*
X11909Y9823D02*
Y10223D01*
X12309D01*
Y9823D01*
X11909D01*
X11989Y9903D02*
Y10143D01*
X12229D01*
Y9903D01*
X11989D01*
X4941Y9823D02*
Y10223D01*
X5341D01*
Y9823D01*
X4941D01*
X5021Y9903D02*
Y10143D01*
X5261D01*
Y9903D01*
X5021D01*
X4941Y9390D02*
Y9790D01*
X5341D01*
Y9390D01*
X4941D01*
X5021Y9470D02*
Y9710D01*
X5261D01*
Y9470D01*
X5021D01*
X4941Y8957D02*
Y9357D01*
X5341D01*
Y8957D01*
X4941D01*
X5021Y9037D02*
Y9277D01*
X5261D01*
Y9037D01*
X5021D01*
X4507Y9823D02*
Y10223D01*
X4908D01*
Y9823D01*
X4507D01*
X4588Y9903D02*
Y10143D01*
X4827D01*
Y9903D01*
X4588D01*
X4507Y9390D02*
Y9790D01*
X4908D01*
Y9390D01*
X4507D01*
X4588Y9470D02*
Y9710D01*
X4827D01*
Y9470D01*
X4588D01*
X4507Y8957D02*
Y9357D01*
X4908D01*
Y8957D01*
X4507D01*
X4588Y9037D02*
Y9277D01*
X4827D01*
Y9037D01*
X4588D01*
X4074Y9823D02*
Y10223D01*
X4474D01*
Y9823D01*
X4074D01*
X4154Y9903D02*
Y10143D01*
X4394D01*
Y9903D01*
X4154D01*
X4074Y9390D02*
Y9790D01*
X4474D01*
Y9390D01*
X4074D01*
X4154Y9470D02*
Y9710D01*
X4394D01*
Y9470D01*
X4154D01*
X4074Y8957D02*
Y9357D01*
X4474D01*
Y8957D01*
X4074D01*
X4154Y9037D02*
Y9277D01*
X4394D01*
Y9037D01*
X4154D01*
X3641Y9823D02*
Y10223D01*
X4041D01*
Y9823D01*
X3641D01*
X3721Y9903D02*
Y10143D01*
X3961D01*
Y9903D01*
X3721D01*
X3641Y9390D02*
Y9790D01*
X4041D01*
Y9390D01*
X3641D01*
X3721Y9470D02*
Y9710D01*
X3961D01*
Y9470D01*
X3721D01*
X3641Y8957D02*
Y9357D01*
X4041D01*
Y8957D01*
X3641D01*
X3721Y9037D02*
Y9277D01*
X3961D01*
Y9037D01*
X3721D01*
X3208Y9823D02*
Y10223D01*
X3608D01*
Y9823D01*
X3208D01*
X3288Y9903D02*
Y10143D01*
X3528D01*
Y9903D01*
X3288D01*
X3208Y9390D02*
Y9790D01*
X3608D01*
Y9390D01*
X3208D01*
X3288Y9470D02*
Y9710D01*
X3528D01*
Y9470D01*
X3288D01*
X3208Y8957D02*
Y9357D01*
X3608D01*
Y8957D01*
X3208D01*
X3288Y9037D02*
Y9277D01*
X3528D01*
Y9037D01*
X3288D01*
X374Y11490D02*
Y11890D01*
X774D01*
Y11490D01*
X374D01*
X454Y11570D02*
Y11810D01*
X694D01*
Y11570D01*
X454D01*
X2186Y11490D02*
Y11890D01*
X2586D01*
Y11490D01*
X2186D01*
X2266Y11570D02*
Y11810D01*
X2506D01*
Y11570D01*
X2266D01*
X1280Y12396D02*
Y12796D01*
X1680D01*
Y12396D01*
X1280D01*
X1360Y12476D02*
Y12716D01*
X1600D01*
Y12476D01*
X1360D01*
X1280Y10584D02*
Y10984D01*
X1680D01*
Y10584D01*
X1280D01*
X1360Y10664D02*
Y10904D01*
X1600D01*
Y10664D01*
X1360D01*
X3490Y29944D02*
Y30344D01*
X3890D01*
Y29944D01*
X3490D01*
X3570Y30024D02*
Y30264D01*
X3810D01*
Y30024D01*
X3570D01*
X3490Y31756D02*
Y32156D01*
X3890D01*
Y31756D01*
X3490D01*
X3570Y31836D02*
Y32076D01*
X3810D01*
Y31836D01*
X3570D01*
X4396Y30850D02*
Y31250D01*
X4796D01*
Y30850D01*
X4396D01*
X4476Y30930D02*
Y31170D01*
X4716D01*
Y30930D01*
X4476D01*
X2584Y30850D02*
Y31250D01*
X2984D01*
Y30850D01*
X2584D01*
X2664Y30930D02*
Y31170D01*
X2904D01*
Y30930D01*
X2664D01*
X20444Y14230D02*
Y14630D01*
X20844D01*
Y14230D01*
X20444D01*
X20524Y14310D02*
Y14550D01*
X20764D01*
Y14310D01*
X20524D01*
X22256Y14230D02*
Y14630D01*
X22656D01*
Y14230D01*
X22256D01*
X22336Y14310D02*
Y14550D01*
X22576D01*
Y14310D01*
X22336D01*
X21350Y15136D02*
Y15536D01*
X21750D01*
Y15136D01*
X21350D01*
X21430Y15216D02*
Y15456D01*
X21670D01*
Y15216D01*
X21430D01*
X21350Y13324D02*
Y13724D01*
X21750D01*
Y13324D01*
X21350D01*
X21430Y13404D02*
Y13644D01*
X21670D01*
Y13404D01*
X21430D01*
X4869Y18845D02*
Y19245D01*
X5269D01*
Y18845D01*
X4869D01*
X4949Y18925D02*
Y19165D01*
X5189D01*
Y18925D01*
X4949D01*
X3601Y18830D02*
Y19230D01*
X4001D01*
Y18830D01*
X3601D01*
X3681Y18910D02*
Y19150D01*
X3921D01*
Y18910D01*
X3681D01*
X6247Y18855D02*
Y19255D01*
X6647D01*
Y18855D01*
X6247D01*
X6327Y18935D02*
Y19175D01*
X6567D01*
Y18935D01*
X6327D01*
X3589Y19751D02*
Y20151D01*
X3989D01*
Y19751D01*
X3589D01*
X3669Y19831D02*
Y20071D01*
X3909D01*
Y19831D01*
X3669D01*
X5194Y19771D02*
Y20171D01*
X5594D01*
Y19771D01*
X5194D01*
X5274Y19851D02*
Y20091D01*
X5514D01*
Y19851D01*
X5274D01*
X5243Y20312D02*
Y20712D01*
X5643D01*
Y20312D01*
X5243D01*
X5323Y20392D02*
Y20632D01*
X5563D01*
Y20392D01*
X5323D01*
X6837Y20794D02*
Y21194D01*
X7237D01*
Y20794D01*
X6837D01*
X6917Y20874D02*
Y21114D01*
X7157D01*
Y20874D01*
X6917D01*
X5578Y19770D02*
Y20170D01*
X5978D01*
Y19770D01*
X5578D01*
X5658Y19850D02*
Y20090D01*
X5898D01*
Y19850D01*
X5658D01*
X6830Y19440D02*
Y19840D01*
X7230D01*
Y19440D01*
X6830D01*
X6910Y19520D02*
Y19760D01*
X7150D01*
Y19520D01*
X6910D01*
X5971Y19780D02*
Y20180D01*
X6371D01*
Y19780D01*
X5971D01*
X6051Y19860D02*
Y20100D01*
X6291D01*
Y19860D01*
X6051D01*
X7261Y20400D02*
Y20800D01*
X7661D01*
Y20400D01*
X7261D01*
X7341Y20480D02*
Y20720D01*
X7581D01*
Y20480D01*
X7341D01*
X6483Y19850D02*
Y20250D01*
X6883D01*
Y19850D01*
X6483D01*
X6563Y19930D02*
Y20170D01*
X6803D01*
Y19930D01*
X6563D01*
X39347Y12044D02*
Y12444D01*
X39747D01*
Y12044D01*
X39347D01*
X39427Y12124D02*
Y12364D01*
X39667D01*
Y12124D01*
X39427D01*
X39347Y11296D02*
Y11696D01*
X39747D01*
Y11296D01*
X39347D01*
X39427Y11376D02*
Y11616D01*
X39667D01*
Y11376D01*
X39427D01*
X38019Y10686D02*
Y11086D01*
X38419D01*
Y10686D01*
X38019D01*
X38098Y10766D02*
Y11006D01*
X38338D01*
Y10766D01*
X38098D01*
X37093Y10686D02*
Y11086D01*
X37493D01*
Y10686D01*
X37093D01*
X37173Y10766D02*
Y11006D01*
X37413D01*
Y10766D01*
X37173D01*
X37093Y12398D02*
Y12798D01*
X37493D01*
Y12398D01*
X37093D01*
X37173Y12478D02*
Y12718D01*
X37413D01*
Y12478D01*
X37173D01*
X37536Y12398D02*
Y12798D01*
X37936D01*
Y12398D01*
X37536D01*
X37616Y12478D02*
Y12718D01*
X37856D01*
Y12478D01*
X37616D01*
X38048Y12389D02*
Y12789D01*
X38448D01*
Y12389D01*
X38048D01*
X38128Y12469D02*
Y12709D01*
X38368D01*
Y12469D01*
X38128D01*
X4833Y19770D02*
Y20170D01*
X5233D01*
Y19770D01*
X4833D01*
X4913Y19850D02*
Y20090D01*
X5153D01*
Y19850D01*
X4913D01*
X4318Y19771D02*
Y20171D01*
X4718D01*
Y19771D01*
X4318D01*
X4398Y19851D02*
Y20091D01*
X4638D01*
Y19851D01*
X4398D01*
X1430Y19890D02*
Y20290D01*
X1830D01*
Y19890D01*
X1430D01*
X1510Y19970D02*
Y20210D01*
X1750D01*
Y19970D01*
X1510D01*
X302Y19544D02*
Y19944D01*
X702D01*
Y19544D01*
X302D01*
X382Y19624D02*
Y19864D01*
X622D01*
Y19624D01*
X382D01*
X18639Y29908D02*
Y30308D01*
X19039D01*
Y29908D01*
X18639D01*
X18719Y29988D02*
Y30228D01*
X18959D01*
Y29988D01*
X18719D01*
X18914Y11857D02*
Y12257D01*
X19314D01*
Y11857D01*
X18914D01*
X18994Y11937D02*
Y12177D01*
X19234D01*
Y11937D01*
X18994D01*
X23904Y27389D02*
X24004D01*
X24104Y27489D01*
X24204Y27389D01*
X24304D01*
Y27489D01*
X24204Y27589D01*
X24304Y27689D01*
Y27789D01*
X24204D01*
X24104Y27689D01*
X24004Y27789D01*
X23904D01*
Y27689D01*
X24004Y27589D01*
X23904Y27489D01*
Y27389D01*
X23984Y27469D02*
X24044D01*
X24104Y27529D01*
X24164Y27469D01*
X24224D01*
Y27529D01*
X24164Y27589D01*
X24224Y27649D01*
Y27709D01*
X24164D01*
X24104Y27649D01*
X24044Y27709D01*
X23984D01*
Y27649D01*
X24044Y27589D01*
X23984Y27529D01*
Y27469D01*
X23904Y27822D02*
X24004D01*
X24104Y27922D01*
X24204Y27822D01*
X24304D01*
Y27922D01*
X24204Y28022D01*
X24304Y28122D01*
Y28222D01*
X24204D01*
X24104Y28122D01*
X24004Y28222D01*
X23904D01*
Y28122D01*
X24004Y28022D01*
X23904Y27922D01*
Y27822D01*
X23984Y27902D02*
X24044D01*
X24104Y27962D01*
X24164Y27902D01*
X24224D01*
Y27962D01*
X24164Y28022D01*
X24224Y28082D01*
Y28142D01*
X24164D01*
X24104Y28082D01*
X24044Y28142D01*
X23984D01*
Y28082D01*
X24044Y28022D01*
X23984Y27962D01*
Y27902D01*
X24337Y27389D02*
X24437D01*
X24537Y27489D01*
X24637Y27389D01*
X24737D01*
Y27489D01*
X24637Y27589D01*
X24737Y27689D01*
Y27789D01*
X24637D01*
X24537Y27689D01*
X24437Y27789D01*
X24337D01*
Y27689D01*
X24437Y27589D01*
X24337Y27489D01*
Y27389D01*
X24417Y27469D02*
X24477D01*
X24537Y27529D01*
X24597Y27469D01*
X24657D01*
Y27529D01*
X24597Y27589D01*
X24657Y27649D01*
Y27709D01*
X24597D01*
X24537Y27649D01*
X24477Y27709D01*
X24417D01*
Y27649D01*
X24477Y27589D01*
X24417Y27529D01*
Y27469D01*
X24337Y27822D02*
X24437D01*
X24537Y27922D01*
X24637Y27822D01*
X24737D01*
Y27922D01*
X24637Y28022D01*
X24737Y28122D01*
Y28222D01*
X24637D01*
X24537Y28122D01*
X24437Y28222D01*
X24337D01*
Y28122D01*
X24437Y28022D01*
X24337Y27922D01*
Y27822D01*
X24417Y27902D02*
X24477D01*
X24537Y27962D01*
X24597Y27902D01*
X24657D01*
Y27962D01*
X24597Y28022D01*
X24657Y28082D01*
Y28142D01*
X24597D01*
X24537Y28082D01*
X24477Y28142D01*
X24417D01*
Y28082D01*
X24477Y28022D01*
X24417Y27962D01*
Y27902D01*
X5070Y26650D02*
Y27050D01*
X5470D01*
Y26650D01*
X5070D01*
X5150Y26730D02*
Y26970D01*
X5390D01*
Y26730D01*
X5150D01*
X2800Y26310D02*
Y26710D01*
X3200D01*
Y26310D01*
X2800D01*
X2880Y26390D02*
Y26630D01*
X3120D01*
Y26390D01*
X2880D01*
X34800Y11800D02*
Y12200D01*
X35200D01*
Y11800D01*
X34800D01*
X34880Y11880D02*
Y12120D01*
X35120D01*
Y11880D01*
X34880D01*
X34446Y12103D02*
Y12503D01*
X34846D01*
Y12103D01*
X34446D01*
X34526Y12183D02*
Y12423D01*
X34766D01*
Y12183D01*
X34526D01*
X19260Y38310D02*
Y38710D01*
X19660D01*
Y38310D01*
X19260D01*
X19340Y38390D02*
Y38630D01*
X19580D01*
Y38390D01*
X19340D01*
X17940Y38310D02*
Y38710D01*
X18340D01*
Y38310D01*
X17940D01*
X18020Y38390D02*
Y38630D01*
X18260D01*
Y38390D01*
X18020D01*
X19270Y37920D02*
Y38320D01*
X19670D01*
Y37920D01*
X19270D01*
X19350Y38000D02*
Y38240D01*
X19590D01*
Y38000D01*
X19350D01*
X19280Y38720D02*
Y39120D01*
X19680D01*
Y38720D01*
X19280D01*
X19360Y38800D02*
Y39040D01*
X19600D01*
Y38800D01*
X19360D01*
X17940Y38700D02*
Y39100D01*
X18340D01*
Y38700D01*
X17940D01*
X18020Y38780D02*
Y39020D01*
X18260D01*
Y38780D01*
X18020D01*
X17940Y37930D02*
Y38330D01*
X18340D01*
Y37930D01*
X17940D01*
X18020Y38010D02*
Y38250D01*
X18260D01*
Y38010D01*
X18020D01*
X20270Y33460D02*
Y33860D01*
X20670D01*
Y33460D01*
X20270D01*
X20350Y33540D02*
Y33780D01*
X20590D01*
Y33540D01*
X20350D01*
X20052Y30118D02*
Y30518D01*
X20452D01*
Y30118D01*
X20052D01*
X20132Y30198D02*
Y30438D01*
X20372D01*
Y30198D01*
X20132D01*
X16620Y31470D02*
Y31870D01*
X17020D01*
Y31470D01*
X16620D01*
X16700Y31550D02*
Y31790D01*
X16940D01*
Y31550D01*
X16700D01*
X7500Y31760D02*
Y32160D01*
X7900D01*
Y31760D01*
X7500D01*
X7580Y31840D02*
Y32080D01*
X7820D01*
Y31840D01*
X7580D01*
X7340Y30620D02*
Y31020D01*
X7740D01*
Y30620D01*
X7340D01*
X7420Y30700D02*
Y30940D01*
X7660D01*
Y30700D01*
X7420D01*
X8200Y32040D02*
Y32440D01*
X8600D01*
Y32040D01*
X8200D01*
X8280Y32120D02*
Y32360D01*
X8520D01*
Y32120D01*
X8280D01*
X18700Y32140D02*
Y32540D01*
X19100D01*
Y32140D01*
X18700D01*
X18780Y32220D02*
Y32460D01*
X19020D01*
Y32220D01*
X18780D01*
D293*
X39380Y4550D02*
G03*
X39380Y4550I-200J0D01*
G01*
Y5550D02*
G03*
X39380Y5550I-200J0D01*
G01*
Y6550D02*
G03*
X39380Y6550I-200J0D01*
G01*
Y7550D02*
G03*
X39380Y7550I-200J0D01*
G01*
X1060Y32240D02*
G03*
X1060Y32240I-200J0D01*
G01*
Y30460D02*
G03*
X1060Y30460I-200J0D01*
G01*
X33650Y1450D02*
G03*
X33650Y1450I-200J0D01*
G01*
X34650D02*
G03*
X34650Y1450I-200J0D01*
G01*
X35650D02*
G03*
X35650Y1450I-200J0D01*
G01*
X36650D02*
G03*
X36650Y1450I-200J0D01*
G01*
X27700D02*
G03*
X27700Y1450I-200J0D01*
G01*
X28700D02*
G03*
X28700Y1450I-200J0D01*
G01*
X29700D02*
G03*
X29700Y1450I-200J0D01*
G01*
X30700D02*
G03*
X30700Y1450I-200J0D01*
G01*
X10650D02*
G03*
X10650Y1450I-200J0D01*
G01*
X11650D02*
G03*
X11650Y1450I-200J0D01*
G01*
X12650D02*
G03*
X12650Y1450I-200J0D01*
G01*
X13650D02*
G03*
X13650Y1450I-200J0D01*
G01*
X4750D02*
G03*
X4750Y1450I-200J0D01*
G01*
X5750D02*
G03*
X5750Y1450I-200J0D01*
G01*
X6750D02*
G03*
X6750Y1450I-200J0D01*
G01*
X7750D02*
G03*
X7750Y1450I-200J0D01*
G01*
X36780Y18630D02*
G03*
X36780Y18630I-200J0D01*
G01*
X35780D02*
G03*
X35780Y18630I-200J0D01*
G01*
X33650D02*
G03*
X33650Y18630I-200J0D01*
G01*
X32650D02*
G03*
X32650Y18630I-200J0D01*
G01*
X30500D02*
G03*
X30500Y18630I-200J0D01*
G01*
X29500D02*
G03*
X29500Y18630I-200J0D01*
G01*
X27330D02*
G03*
X27330Y18630I-200J0D01*
G01*
X26330D02*
G03*
X26330Y18630I-200J0D01*
G01*
X19700Y1450D02*
G03*
X19700Y1450I-200J0D01*
G01*
X18700D02*
G03*
X18700Y1450I-200J0D01*
G01*
X17700D02*
G03*
X17700Y1450I-200J0D01*
G01*
X16700D02*
G03*
X16700Y1450I-200J0D01*
G01*
X24800D02*
G03*
X24800Y1450I-200J0D01*
G01*
X23800D02*
G03*
X23800Y1450I-200J0D01*
G01*
X22800D02*
G03*
X22800Y1450I-200J0D01*
G01*
X21800D02*
G03*
X21800Y1450I-200J0D01*
G01*
X26150Y23090D02*
G03*
X26150Y23090I-200J0D01*
G01*
X27150D02*
G03*
X27150Y23090I-200J0D01*
G01*
X28150D02*
G03*
X28150Y23090I-200J0D01*
G01*
X32285D02*
G03*
X32285Y23090I-200J0D01*
G01*
X31285D02*
G03*
X31285Y23090I-200J0D01*
G01*
X30285D02*
G03*
X30285Y23090I-200J0D01*
G01*
X34420D02*
G03*
X34420Y23090I-200J0D01*
G01*
X35420D02*
G03*
X35420Y23090I-200J0D01*
G01*
X36420D02*
G03*
X36420Y23090I-200J0D01*
G01*
X26150Y25490D02*
G03*
X26150Y25490I-200J0D01*
G01*
X27150D02*
G03*
X27150Y25490I-200J0D01*
G01*
X28150D02*
G03*
X28150Y25490I-200J0D01*
G01*
X36420D02*
G03*
X36420Y25490I-200J0D01*
G01*
X35420D02*
G03*
X35420Y25490I-200J0D01*
G01*
X34420D02*
G03*
X34420Y25490I-200J0D01*
G01*
X30285D02*
G03*
X30285Y25490I-200J0D01*
G01*
X31285D02*
G03*
X31285Y25490I-200J0D01*
G01*
X32285D02*
G03*
X32285Y25490I-200J0D01*
G01*
X2440Y35450D02*
G03*
X2440Y35450I-200J0D01*
G01*
X1440D02*
G03*
X1440Y35450I-200J0D01*
G01*
X36850Y14550D02*
G03*
X36850Y14550I-200J0D01*
G01*
X32850D02*
G03*
X32850Y14550I-200J0D01*
G01*
X33850D02*
G03*
X33850Y14550I-200J0D01*
G01*
X34850D02*
G03*
X34850Y14550I-200J0D01*
G01*
X35850D02*
G03*
X35850Y14550I-200J0D01*
G01*
X1680Y11690D02*
G03*
X1680Y11690I-200J0D01*
G01*
X3890Y31050D02*
G03*
X3890Y31050I-200J0D01*
G01*
X21750Y14430D02*
G03*
X21750Y14430I-200J0D01*
G01*
M02*
