G04 Layer_Physical_Order=3*
G04 Layer_Color=128*
%FSLAX24Y24*%
%MOIN*%
G70*
G01*
G75*
%ADD72C,0.0100*%
%ADD73C,0.0240*%
%ADD76C,0.0400*%
%ADD98C,0.0290*%
%ADD101C,0.0380*%
%ADD102C,0.0340*%
%ADD103C,0.0690*%
G04:AMPARAMS|DCode=104|XSize=99mil|YSize=99mil|CornerRadius=0mil|HoleSize=0mil|Usage=FLASHONLY|Rotation=0.000|XOffset=0mil|YOffset=0mil|HoleType=Round|Shape=Relief|Width=14mil|Gap=10mil|Entries=4|*
%AMTHD104*
7,0,0,0.0990,0.0790,0.0140,45*
%
%ADD104THD104*%
G04:AMPARAMS|DCode=105|XSize=79.433mil|YSize=79.433mil|CornerRadius=0mil|HoleSize=0mil|Usage=FLASHONLY|Rotation=0.000|XOffset=0mil|YOffset=0mil|HoleType=Round|Shape=Relief|Width=14mil|Gap=10mil|Entries=4|*
%AMTHD105*
7,0,0,0.0794,0.0594,0.0140,45*
%
%ADD105THD105*%
%ADD106C,0.0494*%
%ADD107C,0.1439*%
%ADD108C,0.0540*%
G04:AMPARAMS|DCode=109|XSize=84mil|YSize=84mil|CornerRadius=0mil|HoleSize=0mil|Usage=FLASHONLY|Rotation=0.000|XOffset=0mil|YOffset=0mil|HoleType=Round|Shape=Relief|Width=14mil|Gap=10mil|Entries=4|*
%AMTHD109*
7,0,0,0.0840,0.0640,0.0140,45*
%
%ADD109THD109*%
%ADD111C,0.1321*%
%ADD112C,0.0770*%
%ADD113C,0.1010*%
%ADD116C,0.0520*%
%ADD117C,0.0730*%
%ADD118C,0.0280*%
%ADD119C,0.0240*%
%ADD120C,0.0360*%
G04:AMPARAMS|DCode=121|XSize=107mil|YSize=107mil|CornerRadius=0mil|HoleSize=0mil|Usage=FLASHONLY|Rotation=0.000|XOffset=0mil|YOffset=0mil|HoleType=Round|Shape=Relief|Width=14mil|Gap=10mil|Entries=4|*
%AMTHD121*
7,0,0,0.1070,0.0870,0.0140,45*
%
%ADD121THD121*%
%ADD122C,0.0440*%
D72*
X38101Y23820D02*
G03*
X38101Y23820I-400J0D01*
G01*
X19200Y38520D02*
G03*
X19200Y38520I-400J0D01*
G01*
X35620Y38750D02*
G03*
X35620Y38750I-200J0D01*
G01*
X31510Y35770D02*
G03*
X31510Y35770I-200J0D01*
G01*
X15200Y38520D02*
G03*
X15200Y38520I-400J0D01*
G01*
X11200D02*
G03*
X11200Y38520I-400J0D01*
G01*
X7200D02*
G03*
X7200Y38520I-400J0D01*
G01*
X38903Y20288D02*
G03*
X38903Y20288I-400J0D01*
G01*
X40243D02*
G03*
X40243Y20288I-400J0D01*
G01*
X38903Y14988D02*
G03*
X38903Y14988I-400J0D01*
G01*
X40243D02*
G03*
X40243Y14988I-400J0D01*
G01*
X23200Y38520D02*
G03*
X23200Y38520I-400J0D01*
G01*
X19200D02*
G03*
X19200Y38520I-400J0D01*
G01*
X15200D02*
G03*
X15200Y38520I-400J0D01*
G01*
X11190Y38530D02*
G03*
X11190Y38530I-400J0D01*
G01*
X7200Y38520D02*
G03*
X7200Y38520I-400J0D01*
G01*
X38090Y25220D02*
X39650D01*
X36830Y23960D02*
X38090Y25220D01*
X36830Y23170D02*
Y23960D01*
X36610Y28850D02*
X36940D01*
X39000D01*
X39290Y28560D01*
Y27100D02*
Y28560D01*
X38590Y26400D02*
X39290Y27100D01*
X37010Y26400D02*
X38590D01*
X36740Y26130D02*
X37010Y26400D01*
X31300Y26130D02*
X36740D01*
X30870D02*
X31300D01*
X30332Y26668D02*
X30870Y26130D01*
X30332Y26668D02*
Y29020D01*
X33840Y31830D02*
X34100Y31570D01*
X34550D01*
X35820Y32840D01*
X38760D01*
X39150Y32450D01*
Y31180D02*
Y32450D01*
X38700Y30730D02*
X39150Y31180D01*
X36990Y30730D02*
X38700D01*
X36590Y30330D02*
X36990Y30730D01*
X36590Y27920D02*
Y30330D01*
X36230Y27560D02*
X36590Y27920D01*
X34230Y27560D02*
X36230D01*
X33670Y28120D02*
X34230Y27560D01*
X33670Y28120D02*
Y30580D01*
X33130Y31120D02*
X33670Y30580D01*
X31032Y29730D02*
X31740D01*
X33510Y31500D01*
X31032Y29730D02*
X31740D01*
X29452Y28150D02*
X31032Y29730D01*
X28000Y28150D02*
X29452D01*
X24990Y40490D02*
X26770Y38710D01*
X28950D01*
X29130Y38530D01*
X29610Y38050D01*
Y35710D02*
Y38050D01*
Y35710D02*
X29870Y35450D01*
X33190D01*
X33860Y34780D01*
Y31850D02*
Y34780D01*
X33510Y31500D02*
X33860Y31850D01*
X40180Y18030D02*
X41000Y17210D01*
X40180Y18030D02*
Y18570D01*
X41000Y26600D02*
Y26820D01*
X40180Y18570D02*
Y24690D01*
X39650Y25220D02*
X40180Y24690D01*
X36830Y23170D02*
X37000Y23000D01*
X19900Y32630D02*
X20090Y32820D01*
X23550Y32540D02*
X25669D01*
X23270Y32820D02*
X23550Y32540D01*
X20090Y32820D02*
X21270D01*
X21265D02*
Y34420D01*
Y32820D02*
X23265D01*
Y34420D01*
X21265D02*
X23265D01*
X4715Y33620D02*
Y35220D01*
Y33620D02*
X6715D01*
Y35220D01*
X4715D02*
X6715D01*
X8700Y33620D02*
Y35220D01*
Y33620D02*
X10700D01*
Y35220D01*
X8700D02*
X10700D01*
X12715Y33631D02*
Y35231D01*
Y33631D02*
X14715D01*
Y35231D01*
X12715D02*
X14715D01*
X0Y20400D02*
X4670D01*
X5520Y21250D01*
X8280Y24010D01*
X10390D01*
X10540Y24160D01*
Y29590D01*
X10410Y29720D02*
X10540Y29590D01*
X5860Y29720D02*
X10410D01*
X4280Y28140D02*
X5860Y29720D01*
X3190Y27050D02*
X4280Y28140D01*
X-20Y27050D02*
X3190D01*
X29880Y35550D02*
Y40480D01*
X37600Y20950D02*
X37800Y20750D01*
X3450Y100D02*
X3550Y0D01*
X37800Y18550D02*
X40180D01*
X37600Y20950D02*
Y22400D01*
X29880Y35550D02*
X33278D01*
X41000D02*
Y36300D01*
X32950Y35550D02*
X41000D01*
X3000Y33260D02*
Y34400D01*
X0Y0D02*
X12Y10350D01*
X34810D01*
X40950Y12900D02*
Y27150D01*
X100Y34450D02*
Y36800D01*
Y34450D02*
X3000D01*
X37800Y13340D02*
Y15638D01*
Y20750D01*
X37000Y23000D02*
X37600Y22400D01*
X25720Y30430D02*
X28000Y28150D01*
X34810Y10350D02*
X37800Y13340D01*
X25720Y30430D02*
Y35552D01*
X24382Y36890D02*
X25720Y35552D01*
X3000Y33260D02*
X16580D01*
X17210Y32630D01*
X19900D01*
X21270Y32820D02*
X23270D01*
X20140D02*
Y36880D01*
X24372D01*
D73*
X34370Y12160D02*
X34440Y12090D01*
X34370Y12160D02*
Y12420D01*
X34520Y12570D01*
X34790D01*
X34940Y12420D01*
Y12200D02*
Y12420D01*
X34823Y12083D02*
X34940Y12200D01*
X34439Y12089D02*
X34440Y12090D01*
X34439Y11133D02*
Y12089D01*
X34823Y10955D02*
Y12083D01*
X9290Y11540D02*
X9461D01*
X9130Y11700D02*
X9290Y11540D01*
X9130Y11700D02*
Y11920D01*
X9300Y12090D01*
X9570D01*
X9750Y11910D01*
Y11790D02*
Y11910D01*
X9461Y11540D02*
X10549Y10453D01*
X9750Y11790D02*
X10674Y10866D01*
X34172D02*
X34439Y11133D01*
X34518Y10650D02*
X34823Y10955D01*
X10549Y10453D02*
X34320D01*
X34518Y10650D01*
X10674Y10866D02*
X34172D01*
D76*
X0Y0D02*
X41000D01*
Y40500D01*
X0D02*
X41000D01*
X0Y0D02*
Y40500D01*
D98*
X800Y800D02*
D03*
X2200D02*
D03*
Y2200D02*
D03*
X800D02*
D03*
X500Y1500D02*
D03*
X2500D02*
D03*
X1500Y2500D02*
D03*
Y500D02*
D03*
X800Y38300D02*
D03*
X2200D02*
D03*
Y39700D02*
D03*
X800D02*
D03*
X500Y39000D02*
D03*
X2500D02*
D03*
X1500Y40000D02*
D03*
Y38000D02*
D03*
X38800Y38300D02*
D03*
X40200D02*
D03*
Y39700D02*
D03*
X38800D02*
D03*
X38500Y39000D02*
D03*
X40500D02*
D03*
X39500Y40000D02*
D03*
Y38000D02*
D03*
X38800Y800D02*
D03*
X40200D02*
D03*
Y2200D02*
D03*
X38800D02*
D03*
X38500Y1500D02*
D03*
X40500D02*
D03*
X39500Y2500D02*
D03*
Y500D02*
D03*
X25990Y26680D02*
D03*
X30330Y28900D02*
D03*
X21470Y29100D02*
D03*
X21514Y30068D02*
D03*
X23701Y29793D02*
D03*
X22700Y28680D02*
D03*
X24790Y30890D02*
D03*
X24620Y30180D02*
D03*
X24210Y30160D02*
D03*
X25502Y30642D02*
D03*
X20252Y30318D02*
D03*
X24070Y30800D02*
D03*
X23780Y30810D02*
D03*
Y31223D02*
D03*
X26210Y20430D02*
D03*
X26480Y21910D02*
D03*
X27000Y22250D02*
D03*
X28150Y22240D02*
D03*
X28800Y22280D02*
D03*
X30170D02*
D03*
X33160Y21880D02*
D03*
X18900Y32340D02*
D03*
X8400Y32240D02*
D03*
X7540Y30820D02*
D03*
X7700Y31960D02*
D03*
X16820Y31670D02*
D03*
X20470Y33660D02*
D03*
X35000Y12000D02*
D03*
X3000Y26510D02*
D03*
X5270Y26850D02*
D03*
X19114Y12057D02*
D03*
X18839Y30108D02*
D03*
X502Y19744D02*
D03*
X1630Y20090D02*
D03*
X5033Y19970D02*
D03*
X39547Y11496D02*
D03*
Y12244D02*
D03*
X6683Y20050D02*
D03*
X7461Y20600D02*
D03*
X7030Y19640D02*
D03*
X5778Y19970D02*
D03*
X7037Y20994D02*
D03*
X5443Y20512D02*
D03*
X3789Y19951D02*
D03*
X6447Y19055D02*
D03*
X3801Y19030D02*
D03*
X5069Y19045D02*
D03*
X21550Y13524D02*
D03*
Y15336D02*
D03*
X22456Y14430D02*
D03*
X20644D02*
D03*
X2784Y31050D02*
D03*
X4596D02*
D03*
X3690Y31956D02*
D03*
Y30144D02*
D03*
X1480Y10784D02*
D03*
Y12596D02*
D03*
X2386Y11690D02*
D03*
X574D02*
D03*
X3408Y9157D02*
D03*
Y9590D02*
D03*
Y10023D02*
D03*
X3841Y9157D02*
D03*
Y9590D02*
D03*
Y10023D02*
D03*
X4274Y9157D02*
D03*
Y9590D02*
D03*
Y10023D02*
D03*
X4708Y9157D02*
D03*
Y9590D02*
D03*
Y10023D02*
D03*
X5141Y9157D02*
D03*
Y9590D02*
D03*
Y10023D02*
D03*
X12109D02*
D03*
Y9590D02*
D03*
Y9157D02*
D03*
X11676Y10023D02*
D03*
Y9590D02*
D03*
Y9157D02*
D03*
X11243Y10023D02*
D03*
Y9590D02*
D03*
Y9157D02*
D03*
X10810Y10023D02*
D03*
Y9590D02*
D03*
Y9157D02*
D03*
X10377Y10023D02*
D03*
Y9590D02*
D03*
Y9157D02*
D03*
X17468D02*
D03*
Y9590D02*
D03*
Y10023D02*
D03*
X17901Y9157D02*
D03*
Y9590D02*
D03*
Y10023D02*
D03*
X18334Y9157D02*
D03*
Y9590D02*
D03*
Y10023D02*
D03*
X18767Y9157D02*
D03*
Y9590D02*
D03*
Y10023D02*
D03*
X19200Y9157D02*
D03*
Y9590D02*
D03*
Y10023D02*
D03*
X26286D02*
D03*
Y9590D02*
D03*
Y9157D02*
D03*
X25853Y10023D02*
D03*
Y9590D02*
D03*
Y9157D02*
D03*
X25420Y10023D02*
D03*
Y9590D02*
D03*
Y9157D02*
D03*
X24987Y10023D02*
D03*
Y9590D02*
D03*
Y9157D02*
D03*
X24554Y10023D02*
D03*
Y9590D02*
D03*
Y9157D02*
D03*
X31643D02*
D03*
Y9590D02*
D03*
Y10023D02*
D03*
X32076Y9157D02*
D03*
Y9590D02*
D03*
Y10023D02*
D03*
X32509Y9157D02*
D03*
Y9590D02*
D03*
Y10023D02*
D03*
X32942Y9157D02*
D03*
Y9590D02*
D03*
Y10023D02*
D03*
X33375Y9157D02*
D03*
Y9590D02*
D03*
Y10023D02*
D03*
X33041Y15443D02*
D03*
X34783Y13474D02*
D03*
X9469Y11300D02*
D03*
X9154Y12353D02*
D03*
X30208Y15335D02*
D03*
X7382Y16968D02*
D03*
X8100Y16407D02*
D03*
X8110Y16821D02*
D03*
X7746Y16870D02*
D03*
X8550Y16880D02*
D03*
X7736Y16476D02*
D03*
X3381Y19050D02*
D03*
X23663Y27147D02*
D03*
X23899Y29145D02*
D03*
X24204Y28938D02*
D03*
X21950Y27806D02*
D03*
X20820Y27570D02*
D03*
X24764Y28829D02*
D03*
X24990Y27254D02*
D03*
X24130Y21920D02*
D03*
X23930Y21390D02*
D03*
X24190Y22480D02*
D03*
X24200Y23180D02*
D03*
X24783Y26811D02*
D03*
X24596Y26319D02*
D03*
X25356Y28046D02*
D03*
X24311Y26545D02*
D03*
X24056Y26802D02*
D03*
X23660Y24960D02*
D03*
X29951Y14774D02*
D03*
X1890Y3524D02*
D03*
X1713Y3711D02*
D03*
X1850Y4075D02*
D03*
X5971Y5520D02*
D03*
X8445Y2943D02*
D03*
X7203Y4194D02*
D03*
X8848Y4055D02*
D03*
X12835Y4030D02*
D03*
X14172Y4194D02*
D03*
X38848Y35344D02*
D03*
X4920Y26028D02*
D03*
X35250Y12750D02*
D03*
X35000Y11250D02*
D03*
Y10500D02*
D03*
Y9750D02*
D03*
Y9000D02*
D03*
X29670Y11630D02*
D03*
X30000Y11250D02*
D03*
Y10500D02*
D03*
Y9750D02*
D03*
Y9000D02*
D03*
X27750Y11250D02*
D03*
Y10500D02*
D03*
Y9750D02*
D03*
Y9000D02*
D03*
X21500Y12250D02*
D03*
X20750Y12000D02*
D03*
Y11250D02*
D03*
Y10500D02*
D03*
Y9750D02*
D03*
Y9000D02*
D03*
X22750D02*
D03*
Y11250D02*
D03*
X16000D02*
D03*
Y10500D02*
D03*
Y9750D02*
D03*
Y9000D02*
D03*
X13750Y11250D02*
D03*
Y10500D02*
D03*
Y9750D02*
D03*
Y9000D02*
D03*
X6750Y12000D02*
D03*
Y11250D02*
D03*
Y10500D02*
D03*
Y9750D02*
D03*
Y9000D02*
D03*
X1750D02*
D03*
X35510Y6220D02*
D03*
X28430D02*
D03*
X14250D02*
D03*
X21340D02*
D03*
X7120Y7480D02*
D03*
X8380Y23690D02*
D03*
X9410Y29990D02*
D03*
X16160Y26530D02*
D03*
X17260Y27000D02*
D03*
X17010Y28140D02*
D03*
X19090Y29220D02*
D03*
X18610Y22140D02*
D03*
X15570Y24020D02*
D03*
X22090Y18030D02*
D03*
X18910Y24660D02*
D03*
X15390Y20930D02*
D03*
X15300Y22170D02*
D03*
X15850Y22190D02*
D03*
X16110Y20540D02*
D03*
X16210Y19030D02*
D03*
X15580Y19420D02*
D03*
X19780Y18270D02*
D03*
X21640Y23260D02*
D03*
X16820Y24550D02*
D03*
X11410Y23910D02*
D03*
X5110Y21310D02*
D03*
X5820Y29210D02*
D03*
X12610Y29970D02*
D03*
X6500Y30070D02*
D03*
X7470Y22680D02*
D03*
X11140Y29410D02*
D03*
X11130Y24350D02*
D03*
X4430Y27510D02*
D03*
X4860Y27930D02*
D03*
X11840Y25000D02*
D03*
X4190Y25658D02*
D03*
X4160Y26398D02*
D03*
X4140Y26028D02*
D03*
X480Y26620D02*
D03*
X3090Y27790D02*
D03*
X3260Y28390D02*
D03*
X15810Y21720D02*
D03*
X12660Y19940D02*
D03*
X13080Y22370D02*
D03*
X11990Y23520D02*
D03*
X17500Y19020D02*
D03*
X8540Y19960D02*
D03*
X14050Y21400D02*
D03*
X15210Y20580D02*
D03*
X8080Y12270D02*
D03*
X12070Y15770D02*
D03*
X12490Y16220D02*
D03*
X11550Y15900D02*
D03*
X17220Y18760D02*
D03*
X16980Y18490D02*
D03*
X16710Y18250D02*
D03*
X16430Y18010D02*
D03*
X13440Y21210D02*
D03*
X20750Y24350D02*
D03*
X20780Y24710D02*
D03*
X21530Y24850D02*
D03*
X21860Y24670D02*
D03*
X21810Y24210D02*
D03*
X18360Y25040D02*
D03*
X13030Y19890D02*
D03*
X13070Y19520D02*
D03*
X21650Y22150D02*
D03*
X21510Y18160D02*
D03*
X29272Y14537D02*
D03*
X13130Y23520D02*
D03*
X18850Y25070D02*
D03*
X15640Y23660D02*
D03*
X15220Y23540D02*
D03*
X15850Y24250D02*
D03*
X16190Y24590D02*
D03*
X16740Y25000D02*
D03*
X16422Y32900D02*
D03*
X21190Y32290D02*
D03*
X22102Y31710D02*
D03*
X18090Y29190D02*
D03*
X18590Y29230D02*
D03*
X19580Y29210D02*
D03*
X1080Y29460D02*
D03*
X1043Y3465D02*
D03*
X8743Y11090D02*
D03*
X2774Y12590D02*
D03*
X6024Y9590D02*
D03*
Y10090D02*
D03*
X2524Y9590D02*
D03*
X2774Y9090D02*
D03*
X1774Y9590D02*
D03*
X1770Y10320D02*
D03*
X1024Y10340D02*
D03*
Y9590D02*
D03*
Y8840D02*
D03*
Y7840D02*
D03*
X12914Y9010D02*
D03*
X12993Y9590D02*
D03*
Y10090D02*
D03*
X9493Y9590D02*
D03*
X9743Y9090D02*
D03*
X8743Y9590D02*
D03*
Y10340D02*
D03*
X20084Y9590D02*
D03*
Y10090D02*
D03*
X16584Y9590D02*
D03*
X16834Y9090D02*
D03*
X27170Y9590D02*
D03*
Y10090D02*
D03*
X23670Y9590D02*
D03*
X23920Y9090D02*
D03*
X22920Y9590D02*
D03*
Y10340D02*
D03*
X31009Y9090D02*
D03*
X30759Y9590D02*
D03*
X34259Y10090D02*
D03*
Y9590D02*
D03*
X5050Y12060D02*
D03*
X29480Y3040D02*
D03*
X28540Y2990D02*
D03*
X4456Y7860D02*
D03*
X4096D02*
D03*
X6371Y7680D02*
D03*
X4096Y7600D02*
D03*
X4456D02*
D03*
X3355Y4030D02*
D03*
X3615D02*
D03*
X5111Y7790D02*
D03*
Y7510D02*
D03*
X1461Y7540D02*
D03*
X3491Y7800D02*
D03*
Y7530D02*
D03*
X6431Y5870D02*
D03*
X6241Y6050D02*
D03*
X6141Y5330D02*
D03*
X7111Y6220D02*
D03*
X5965Y4030D02*
D03*
X5695D02*
D03*
X2577Y5520D02*
D03*
X2407Y5330D02*
D03*
X2307Y6050D02*
D03*
X2117Y5870D02*
D03*
X3021Y4890D02*
D03*
X3348D02*
D03*
X3675D02*
D03*
X4001D02*
D03*
X4501D02*
D03*
X4838D02*
D03*
X5175D02*
D03*
X5511D02*
D03*
X3961Y6150D02*
D03*
X4641D02*
D03*
X1421Y6200D02*
D03*
X7381Y6230D02*
D03*
X1151Y6200D02*
D03*
X7757Y3010D02*
D03*
X520Y33320D02*
D03*
X32690Y7860D02*
D03*
X32330D02*
D03*
X34606Y7680D02*
D03*
X34180Y9010D02*
D03*
X32330Y7600D02*
D03*
X31196Y4030D02*
D03*
X35196Y4090D02*
D03*
X31456Y4030D02*
D03*
X33346Y7790D02*
D03*
Y7510D02*
D03*
X29696Y7540D02*
D03*
X31726Y7800D02*
D03*
Y7530D02*
D03*
X34666Y5870D02*
D03*
X34476Y6050D02*
D03*
X34376Y5330D02*
D03*
X35246Y6220D02*
D03*
X33806Y4030D02*
D03*
X33536D02*
D03*
X30812Y5520D02*
D03*
X30642Y5330D02*
D03*
X30542Y6050D02*
D03*
X30352Y5870D02*
D03*
X29822Y4090D02*
D03*
X31256Y4890D02*
D03*
X31582D02*
D03*
X31909D02*
D03*
X32236D02*
D03*
X32736D02*
D03*
X33072D02*
D03*
X33409D02*
D03*
X33746D02*
D03*
X32196Y6150D02*
D03*
X32870D02*
D03*
X29656Y6200D02*
D03*
X29386D02*
D03*
X35596Y3010D02*
D03*
X25601Y7860D02*
D03*
X25241D02*
D03*
X27517Y7680D02*
D03*
X27091Y9010D02*
D03*
X25241Y7600D02*
D03*
X25601D02*
D03*
X24107Y4030D02*
D03*
X28107Y4090D02*
D03*
X24367Y4030D02*
D03*
X26257Y7790D02*
D03*
Y7510D02*
D03*
X22607Y7540D02*
D03*
X24637Y7800D02*
D03*
Y7530D02*
D03*
X27577Y5870D02*
D03*
X27387Y6050D02*
D03*
X27287Y5330D02*
D03*
X27117Y5520D02*
D03*
X28157Y6220D02*
D03*
X26717Y4030D02*
D03*
X26447D02*
D03*
X23723Y5520D02*
D03*
X23553Y5330D02*
D03*
X23453Y6050D02*
D03*
X23263Y5870D02*
D03*
X22733Y4090D02*
D03*
X24167Y4890D02*
D03*
X24494D02*
D03*
X24821D02*
D03*
X25147D02*
D03*
X25647D02*
D03*
X25984D02*
D03*
X26321D02*
D03*
X26657D02*
D03*
X25107Y6150D02*
D03*
X25787D02*
D03*
X22567Y6200D02*
D03*
X22297D02*
D03*
X22327Y2990D02*
D03*
X18515Y7860D02*
D03*
X18155D02*
D03*
X20431Y7680D02*
D03*
X18155Y7600D02*
D03*
X18515D02*
D03*
X17021Y4030D02*
D03*
X21021Y4090D02*
D03*
X17281Y4030D02*
D03*
X19171Y7790D02*
D03*
Y7510D02*
D03*
X15521Y7520D02*
D03*
X17551Y7800D02*
D03*
Y7530D02*
D03*
X20491Y5870D02*
D03*
X20301Y6050D02*
D03*
X20201Y5330D02*
D03*
X20031Y5520D02*
D03*
X21071Y6220D02*
D03*
X19631Y4030D02*
D03*
X19361D02*
D03*
X16637Y5520D02*
D03*
X16467Y5330D02*
D03*
X16367Y6050D02*
D03*
X16177Y5870D02*
D03*
X15647Y4090D02*
D03*
X17081Y4890D02*
D03*
X17408D02*
D03*
X17735D02*
D03*
X18061D02*
D03*
X18561D02*
D03*
X18898D02*
D03*
X19235D02*
D03*
X19571D02*
D03*
X18021Y6150D02*
D03*
X18701D02*
D03*
X15481Y6200D02*
D03*
X15211D02*
D03*
X15241Y2990D02*
D03*
X21421Y3010D02*
D03*
X14625D02*
D03*
X8120Y6200D02*
D03*
X8390D02*
D03*
X11610Y6150D02*
D03*
X10930D02*
D03*
X12480Y4890D02*
D03*
X12143D02*
D03*
X11807D02*
D03*
X11470D02*
D03*
X10970D02*
D03*
X10643D02*
D03*
X10317D02*
D03*
X9990D02*
D03*
X9086Y5870D02*
D03*
X9276Y6050D02*
D03*
X9376Y5330D02*
D03*
X9546Y5520D02*
D03*
X12565Y4030D02*
D03*
X13980Y6220D02*
D03*
X12940Y5520D02*
D03*
X13110Y5330D02*
D03*
X13210Y6050D02*
D03*
X13400Y5870D02*
D03*
X10460Y7530D02*
D03*
Y7800D02*
D03*
X8430Y7540D02*
D03*
X12080Y7510D02*
D03*
Y7790D02*
D03*
X10485Y4030D02*
D03*
X2611Y10200D02*
D03*
X5940Y12050D02*
D03*
X10225Y4030D02*
D03*
X11424Y7600D02*
D03*
X11064D02*
D03*
X12034Y12080D02*
D03*
X12924D02*
D03*
X13340Y7680D02*
D03*
X11064Y7860D02*
D03*
X11424D02*
D03*
X16520Y11290D02*
D03*
X20020Y12080D02*
D03*
X33320D02*
D03*
X32042Y39424D02*
D03*
X30640Y36320D02*
D03*
X13400Y24160D02*
D03*
X19940Y24800D02*
D03*
X34920Y38750D02*
D03*
X23780Y31635D02*
D03*
Y32048D02*
D03*
X39577Y10896D02*
D03*
X39690Y12898D02*
D03*
X39190D02*
D03*
Y12249D02*
D03*
Y11499D02*
D03*
Y10898D02*
D03*
X21798Y31710D02*
D03*
X21750Y32160D02*
D03*
X22710Y31710D02*
D03*
X6800Y25160D02*
D03*
X21190Y32000D02*
D03*
X21494Y31710D02*
D03*
X36920Y38800D02*
D03*
X520Y32890D02*
D03*
X35420Y38750D02*
D03*
X31433Y37564D02*
D03*
X33474Y37352D02*
D03*
X13190Y32970D02*
D03*
X9159Y32520D02*
D03*
X9200Y32970D02*
D03*
X22406Y31710D02*
D03*
X21190D02*
D03*
X9690Y32980D02*
D03*
X13720Y32960D02*
D03*
X4820Y32520D02*
D03*
X9750Y32520D02*
D03*
X22270Y32160D02*
D03*
X4429Y18140D02*
D03*
X13290Y24550D02*
D03*
X34190Y12080D02*
D03*
X26211D02*
D03*
X27101D02*
D03*
X13890Y23880D02*
D03*
X30350Y14510D02*
D03*
X29180Y15060D02*
D03*
X27800Y17180D02*
D03*
X30300D02*
D03*
X32760Y17120D02*
D03*
X31260Y16970D02*
D03*
X33790D02*
D03*
X28490Y16680D02*
D03*
X13290Y24930D02*
D03*
X35780Y17160D02*
D03*
X28570Y15980D02*
D03*
X31320Y15970D02*
D03*
X22430Y18580D02*
D03*
X22220Y18880D02*
D03*
X22430Y19190D02*
D03*
X22160Y16060D02*
D03*
X15290Y18950D02*
D03*
X15580Y18620D02*
D03*
X23660Y19750D02*
D03*
X23640Y23640D02*
D03*
X22060Y19480D02*
D03*
X22280Y19770D02*
D03*
X30210Y13910D02*
D03*
X7750Y7170D02*
D03*
X5946Y9010D02*
D03*
X14860Y7160D02*
D03*
X14150Y7680D02*
D03*
X19660Y25050D02*
D03*
X19340Y24830D02*
D03*
X33780Y15990D02*
D03*
X22240Y20860D02*
D03*
X20650Y26970D02*
D03*
X20290Y25050D02*
D03*
X19530Y26120D02*
D03*
X19890Y26710D02*
D03*
X20340Y24690D02*
D03*
X23620Y22740D02*
D03*
X24000Y23550D02*
D03*
X23900Y22970D02*
D03*
X29210Y13550D02*
D03*
X21764Y23640D02*
D03*
X26270Y15990D02*
D03*
X17180Y25130D02*
D03*
X21920Y19820D02*
D03*
X21970Y20580D02*
D03*
X21670Y20140D02*
D03*
X15280Y18330D02*
D03*
X15640Y18240D02*
D03*
X19900Y13330D02*
D03*
X23380Y13320D02*
D03*
X19430Y17905D02*
D03*
X16193Y16663D02*
D03*
X15230Y16810D02*
D03*
X14880Y16940D02*
D03*
X14680Y17450D02*
D03*
X13630Y16290D02*
D03*
X5751Y19050D02*
D03*
X500Y10580D02*
D03*
X450Y31390D02*
D03*
X490Y12690D02*
D03*
X21950Y7170D02*
D03*
X21240Y7660D02*
D03*
X20005Y9010D02*
D03*
X29010Y7150D02*
D03*
X28370Y7590D02*
D03*
X35430Y7650D02*
D03*
X36130Y7160D02*
D03*
X13500Y12335D02*
D03*
X2860Y11280D02*
D03*
X23550Y11270D02*
D03*
X30450Y11090D02*
D03*
X35600Y11264D02*
D03*
Y10827D02*
D03*
Y11707D02*
D03*
X28470D02*
D03*
Y10827D02*
D03*
Y11264D02*
D03*
X21400Y11707D02*
D03*
Y10827D02*
D03*
Y11264D02*
D03*
X14340Y11707D02*
D03*
Y10827D02*
D03*
Y11264D02*
D03*
X7240Y11707D02*
D03*
Y10827D02*
D03*
Y11264D02*
D03*
X2211Y17070D02*
D03*
X510Y20090D02*
D03*
X1081Y18910D02*
D03*
X2771D02*
D03*
X16412Y34200D02*
D03*
X22150Y21210D02*
D03*
X21810Y21570D02*
D03*
X481Y14090D02*
D03*
Y17920D02*
D03*
Y17480D02*
D03*
Y14520D02*
D03*
X2191Y16630D02*
D03*
X28160Y21470D02*
D03*
X29830Y21460D02*
D03*
X31470D02*
D03*
X33168Y21448D02*
D03*
X34850Y21450D02*
D03*
X26570Y20430D02*
D03*
X40530Y18820D02*
D03*
Y18220D02*
D03*
X38560Y3620D02*
D03*
X14130Y20510D02*
D03*
X15750Y20240D02*
D03*
X14380Y16760D02*
D03*
X12450Y16740D02*
D03*
X12190Y28170D02*
D03*
X6480Y28270D02*
D03*
X6130Y27660D02*
D03*
X21250Y16000D02*
D03*
X21020Y16280D02*
D03*
X20770Y16020D02*
D03*
X20730Y15630D02*
D03*
X18860Y16370D02*
D03*
X18660Y16710D02*
D03*
X18520Y16200D02*
D03*
X18260Y15915D02*
D03*
X26290Y16950D02*
D03*
X26360Y17550D02*
D03*
X25740Y19270D02*
D03*
X25700Y17700D02*
D03*
X22960Y16940D02*
D03*
X22980Y15820D02*
D03*
X23340Y15810D02*
D03*
X23310Y14720D02*
D03*
X17680Y24860D02*
D03*
X18040Y24820D02*
D03*
X25050Y39640D02*
D03*
X30100Y29810D02*
D03*
X26070Y33420D02*
D03*
X27410Y27340D02*
D03*
Y27820D02*
D03*
X28530Y27830D02*
D03*
Y27410D02*
D03*
X27410Y28220D02*
D03*
X26326Y28766D02*
D03*
X26356Y28376D02*
D03*
X26336Y28006D02*
D03*
X23780Y32460D02*
D03*
X24070D02*
D03*
X24790Y32450D02*
D03*
Y32037D02*
D03*
Y31625D02*
D03*
Y31212D02*
D03*
X25790Y34830D02*
D03*
Y34290D02*
D03*
X7910Y35590D02*
D03*
X12470Y36870D02*
D03*
X8520Y36890D02*
D03*
X4160Y35740D02*
D03*
X4770Y35610D02*
D03*
X11895Y35590D02*
D03*
X8360Y35370D02*
D03*
Y34460D02*
D03*
X12370D02*
D03*
Y35370D02*
D03*
X15905Y35590D02*
D03*
X8390Y36220D02*
D03*
X12380Y36240D02*
D03*
X800Y12920D02*
D03*
X2920Y29550D02*
D03*
X40400Y35470D02*
D03*
Y35870D02*
D03*
Y36460D02*
D03*
X38875Y36457D02*
D03*
X39355Y35867D02*
D03*
Y35467D02*
D03*
X39166Y37006D02*
D03*
X37330Y10020D02*
D03*
X37720Y8820D02*
D03*
Y9360D02*
D03*
X1890Y26500D02*
D03*
X3360Y1480D02*
D03*
X32700Y7600D02*
D03*
X6115Y33820D02*
D03*
X6515D02*
D03*
Y34220D02*
D03*
X6115D02*
D03*
Y34620D02*
D03*
X6515D02*
D03*
Y35020D02*
D03*
X6115D02*
D03*
X5315D02*
D03*
X4915D02*
D03*
Y34620D02*
D03*
X5315D02*
D03*
Y34220D02*
D03*
X4915D02*
D03*
Y33820D02*
D03*
X5315D02*
D03*
X5715D02*
D03*
Y34220D02*
D03*
Y35020D02*
D03*
Y34620D02*
D03*
X10100Y33820D02*
D03*
X10500D02*
D03*
Y34220D02*
D03*
X10100D02*
D03*
Y34620D02*
D03*
X10500D02*
D03*
Y35020D02*
D03*
X10100D02*
D03*
X9300D02*
D03*
X8900D02*
D03*
Y34620D02*
D03*
X9300D02*
D03*
Y34220D02*
D03*
X8900D02*
D03*
Y33820D02*
D03*
X9300D02*
D03*
X9700D02*
D03*
Y34220D02*
D03*
Y35020D02*
D03*
Y34620D02*
D03*
X14110Y33820D02*
D03*
X14510D02*
D03*
Y34220D02*
D03*
X14110D02*
D03*
Y34620D02*
D03*
X14510D02*
D03*
Y35020D02*
D03*
X14110D02*
D03*
X13310D02*
D03*
X12910D02*
D03*
Y34620D02*
D03*
X13310D02*
D03*
Y34220D02*
D03*
X12910D02*
D03*
Y33820D02*
D03*
X13310D02*
D03*
X13710D02*
D03*
Y34220D02*
D03*
Y35020D02*
D03*
Y34620D02*
D03*
X32313Y38244D02*
D03*
X32707D02*
D03*
Y37851D02*
D03*
X32313D02*
D03*
X31919D02*
D03*
Y38244D02*
D03*
Y38638D02*
D03*
X32313D02*
D03*
X32707D02*
D03*
X10085Y20145D02*
D03*
X6407Y17608D02*
D03*
X29951Y14291D02*
D03*
X24646Y14154D02*
D03*
X25719D02*
D03*
X20540Y13430D02*
D03*
X13750Y12000D02*
D03*
X12053Y33907D02*
D03*
X16042Y32910D02*
D03*
X17250Y30100D02*
D03*
X13185Y32530D02*
D03*
X12890D02*
D03*
X7732Y32648D02*
D03*
X11748Y32657D02*
D03*
X13776Y32530D02*
D03*
X13480D02*
D03*
X14071D02*
D03*
X9455Y32520D02*
D03*
X10045D02*
D03*
X5220Y32520D02*
D03*
X6020D02*
D03*
X5620D02*
D03*
X4721Y32974D02*
D03*
X5220Y32970D02*
D03*
X5710D02*
D03*
X19616Y30935D02*
D03*
X14710Y32190D02*
D03*
X8865Y32521D02*
D03*
X12353Y32256D02*
D03*
X6440Y31953D02*
D03*
X8018Y33898D02*
D03*
X19318Y34804D02*
D03*
X15790Y26530D02*
D03*
X17386Y34426D02*
D03*
X17520Y35370D02*
D03*
X2000Y36870D02*
D03*
X3190Y33603D02*
D03*
X3275Y35015D02*
D03*
X20420Y36680D02*
D03*
D101*
X29160Y27150D02*
D03*
X36480Y24270D02*
D03*
X39550Y26500D02*
D03*
X26600Y27370D02*
D03*
X37320Y17480D02*
D03*
D102*
X30210Y39213D02*
D03*
D103*
X37706Y23825D02*
D03*
Y25825D02*
D03*
Y29825D02*
D03*
Y33825D02*
D03*
X4800Y38520D02*
D03*
X6800D02*
D03*
X8800D02*
D03*
X10800D02*
D03*
X12800D02*
D03*
X14800D02*
D03*
X16800D02*
D03*
X18800D02*
D03*
X20800D02*
D03*
X22800D02*
D03*
D104*
X37706Y27825D02*
D03*
Y31825D02*
D03*
D105*
X17380Y33030D02*
D03*
X18380D02*
D03*
X19380D02*
D03*
X8010Y14060D02*
D03*
Y18300D02*
D03*
D106*
X17380Y32030D02*
D03*
X18380D02*
D03*
X19380D02*
D03*
X20380D02*
D03*
Y33030D02*
D03*
X19010Y15060D02*
D03*
Y14060D02*
D03*
X18010Y15060D02*
D03*
Y14060D02*
D03*
X17010Y15060D02*
D03*
Y14060D02*
D03*
X16010Y15060D02*
D03*
Y14060D02*
D03*
X15010Y15060D02*
D03*
Y14060D02*
D03*
X14010Y15060D02*
D03*
Y14060D02*
D03*
X13010Y15060D02*
D03*
Y14060D02*
D03*
X12010Y15060D02*
D03*
Y14060D02*
D03*
X11010Y15060D02*
D03*
Y14060D02*
D03*
X10010Y15060D02*
D03*
Y14060D02*
D03*
X9010Y15060D02*
D03*
Y14060D02*
D03*
X8010Y15060D02*
D03*
Y19300D02*
D03*
X9010Y18300D02*
D03*
Y19300D02*
D03*
X10010Y18300D02*
D03*
Y19300D02*
D03*
X11010Y18300D02*
D03*
Y19300D02*
D03*
X12010Y18300D02*
D03*
Y19300D02*
D03*
X8010Y21150D02*
D03*
Y22150D02*
D03*
X9010Y21150D02*
D03*
Y22150D02*
D03*
X10010Y21150D02*
D03*
Y22150D02*
D03*
X11010Y21150D02*
D03*
Y22150D02*
D03*
X12010Y21150D02*
D03*
Y22150D02*
D03*
D107*
X21550Y14430D02*
D03*
X3690Y31050D02*
D03*
X1480Y11690D02*
D03*
D108*
X35650Y14550D02*
D03*
X34650D02*
D03*
X33650D02*
D03*
X32650D02*
D03*
X36650D02*
D03*
X1240Y35450D02*
D03*
X31675Y25490D02*
D03*
X30675D02*
D03*
X34780D02*
D03*
X35780D02*
D03*
X27570D02*
D03*
X26570D02*
D03*
X34780Y23090D02*
D03*
X33780D02*
D03*
X29675D02*
D03*
X30675D02*
D03*
X26570D02*
D03*
X25570D02*
D03*
X21600Y1450D02*
D03*
X22600D02*
D03*
X23600D02*
D03*
X24600D02*
D03*
X16500D02*
D03*
X17500D02*
D03*
X18500D02*
D03*
X19500D02*
D03*
X26130Y18630D02*
D03*
X27130D02*
D03*
X29300D02*
D03*
X30300D02*
D03*
X32450D02*
D03*
X33450D02*
D03*
X35580D02*
D03*
X36580D02*
D03*
X7550Y1450D02*
D03*
X6550D02*
D03*
X5550D02*
D03*
X4550D02*
D03*
X13450D02*
D03*
X12450D02*
D03*
X11450D02*
D03*
X10450D02*
D03*
X30500D02*
D03*
X29500D02*
D03*
X28500D02*
D03*
X27500D02*
D03*
X36450D02*
D03*
X35450D02*
D03*
X34450D02*
D03*
X33450D02*
D03*
X860Y30460D02*
D03*
Y32240D02*
D03*
X39180Y7550D02*
D03*
Y6550D02*
D03*
Y4550D02*
D03*
D109*
X2240Y35450D02*
D03*
X29675Y25490D02*
D03*
X33780D02*
D03*
X25570D02*
D03*
X35780Y23090D02*
D03*
X31675D02*
D03*
X27570D02*
D03*
X39180Y5550D02*
D03*
D111*
X1500Y1500D02*
D03*
Y39000D02*
D03*
X39500D02*
D03*
Y1500D02*
D03*
D112*
X34510Y33840D02*
D03*
X35850D02*
D03*
X39843Y20288D02*
D03*
X38503D02*
D03*
Y14988D02*
D03*
X39843D02*
D03*
D113*
X2500Y20630D02*
D03*
Y25362D02*
D03*
D116*
X3570Y22500D02*
D03*
Y23492D02*
D03*
X4360D02*
D03*
Y22500D02*
D03*
D117*
X1840Y29970D02*
D03*
Y32730D02*
D03*
D118*
X39220Y25450D02*
D03*
X39230Y26120D02*
D03*
X38720Y26110D02*
D03*
X38750Y25480D02*
D03*
X37710Y25210D02*
D03*
X37360Y24860D02*
D03*
X36890Y24870D02*
D03*
X36900Y25260D02*
D03*
X36110Y24750D02*
D03*
X38770Y29830D02*
D03*
X39220Y29130D02*
D03*
X39520Y29400D02*
D03*
X39170Y30480D02*
D03*
X38480D02*
D03*
X37700Y30490D02*
D03*
X37200D02*
D03*
X38230Y29160D02*
D03*
X37240D02*
D03*
X36870Y29200D02*
D03*
X37700Y29180D02*
D03*
X38730Y33480D02*
D03*
X39090Y33550D02*
D03*
X38900Y33160D02*
D03*
X38530Y33200D02*
D03*
X38770Y33830D02*
D03*
X38080Y33130D02*
D03*
X37370Y33160D02*
D03*
X37710Y33240D02*
D03*
X37310Y34630D02*
D03*
X37970Y34660D02*
D03*
X37700Y34430D02*
D03*
X34310Y31990D02*
D03*
X36560Y33820D02*
D03*
X36550Y34670D02*
D03*
X35020Y32490D02*
D03*
X35190Y33260D02*
D03*
X35190Y33785D02*
D03*
X34540Y32860D02*
D03*
X36580Y33120D02*
D03*
X35190Y32857D02*
D03*
X35900Y34840D02*
D03*
X35210Y34850D02*
D03*
X34520Y34830D02*
D03*
D119*
X24537Y28022D02*
D03*
Y27589D02*
D03*
X24104Y28022D02*
D03*
Y27589D02*
D03*
D120*
X6713Y16634D02*
D03*
D121*
X35850Y28540D02*
D03*
X34510D02*
D03*
X31150Y33840D02*
D03*
X32490D02*
D03*
Y28540D02*
D03*
X31150D02*
D03*
D122*
X32579Y36850D02*
D03*
X32559Y36053D02*
D03*
M02*
