G04 Layer_Physical_Order=2*
G04 Layer_Color=32768*
%FSLAX24Y24*%
%MOIN*%
G70*
G01*
G75*
%ADD72C,0.0100*%
%ADD76C,0.0400*%
%ADD98C,0.0290*%
%ADD101C,0.0380*%
%ADD102C,0.0340*%
%ADD103C,0.0690*%
G04:AMPARAMS|DCode=104|XSize=99mil|YSize=99mil|CornerRadius=0mil|HoleSize=0mil|Usage=FLASHONLY|Rotation=0.000|XOffset=0mil|YOffset=0mil|HoleType=Round|Shape=Relief|Width=14mil|Gap=10mil|Entries=4|*
%AMTHD104*
7,0,0,0.0990,0.0790,0.0140,45*
%
%ADD104THD104*%
G04:AMPARAMS|DCode=105|XSize=79.433mil|YSize=79.433mil|CornerRadius=0mil|HoleSize=0mil|Usage=FLASHONLY|Rotation=0.000|XOffset=0mil|YOffset=0mil|HoleType=Round|Shape=Relief|Width=14mil|Gap=10mil|Entries=4|*
%AMTHD105*
7,0,0,0.0794,0.0594,0.0140,45*
%
%ADD105THD105*%
%ADD106C,0.0494*%
%ADD107C,0.1439*%
%ADD108C,0.0540*%
G04:AMPARAMS|DCode=109|XSize=84mil|YSize=84mil|CornerRadius=0mil|HoleSize=0mil|Usage=FLASHONLY|Rotation=0.000|XOffset=0mil|YOffset=0mil|HoleType=Round|Shape=Relief|Width=14mil|Gap=10mil|Entries=4|*
%AMTHD109*
7,0,0,0.0840,0.0640,0.0140,45*
%
%ADD109THD109*%
G04:AMPARAMS|DCode=110|XSize=59mil|YSize=59mil|CornerRadius=0mil|HoleSize=0mil|Usage=FLASHONLY|Rotation=0.000|XOffset=0mil|YOffset=0mil|HoleType=Round|Shape=Relief|Width=14mil|Gap=10mil|Entries=4|*
%AMTHD110*
7,0,0,0.0590,0.0390,0.0140,45*
%
%ADD110THD110*%
%ADD111C,0.1321*%
%ADD112C,0.0770*%
%ADD113C,0.1010*%
G04:AMPARAMS|DCode=114|XSize=131mil|YSize=131mil|CornerRadius=0mil|HoleSize=0mil|Usage=FLASHONLY|Rotation=0.000|XOffset=0mil|YOffset=0mil|HoleType=Round|Shape=Relief|Width=14mil|Gap=10mil|Entries=4|*
%AMTHD114*
7,0,0,0.1310,0.1110,0.0140,45*
%
%ADD114THD114*%
G04:AMPARAMS|DCode=115|XSize=82mil|YSize=82mil|CornerRadius=0mil|HoleSize=0mil|Usage=FLASHONLY|Rotation=0.000|XOffset=0mil|YOffset=0mil|HoleType=Round|Shape=Relief|Width=14mil|Gap=10mil|Entries=4|*
%AMTHD115*
7,0,0,0.0820,0.0620,0.0140,45*
%
%ADD115THD115*%
%ADD116C,0.0520*%
%ADD117C,0.0730*%
%ADD118C,0.0280*%
%ADD119C,0.0240*%
%ADD120C,0.0360*%
D72*
X4710Y35220D02*
X6720D01*
Y33620D02*
Y35220D01*
X4710Y33620D02*
X6720D01*
X4710D02*
Y35220D01*
X8700D02*
X10700D01*
Y33620D02*
Y35220D01*
X8700Y33620D02*
X10700D01*
X8700D02*
Y35220D01*
X12710D02*
X14710D01*
Y33620D02*
Y35220D01*
X12710Y33620D02*
X14710D01*
X12710D02*
Y35220D01*
X21260Y32820D02*
Y34420D01*
Y32820D02*
X23270D01*
Y34420D01*
X21260D02*
X23270D01*
X2830Y90D02*
Y2020D01*
X2050Y2800D02*
X2830Y2020D01*
X780Y2800D02*
X2050D01*
X37500Y20D02*
Y1950D01*
X780Y20400D02*
X4670D01*
X40012Y35787D02*
X40200Y35600D01*
X40012Y35787D02*
Y37000D01*
X39450D02*
X40012D01*
X40200Y33550D02*
Y35600D01*
X37949Y38501D02*
X37950D01*
X8120Y24380D02*
Y29500D01*
X6670Y29720D02*
X7900D01*
X8120Y29500D01*
X780Y27050D02*
X3190D01*
X5410Y21140D02*
X8120Y23850D01*
X3190Y27050D02*
X4280Y28140D01*
X4670Y20400D02*
X5410Y21140D01*
X8120Y23850D02*
Y24380D01*
X4280Y28140D02*
X5860Y29720D01*
X6670D01*
X40200Y3550D02*
Y16600D01*
Y33550D01*
X3010Y39890D02*
X37950D01*
X850Y33000D02*
Y37540D01*
X39713Y3550D02*
X40200D01*
X37950Y38501D02*
Y39890D01*
X850Y37540D02*
X3010D01*
Y39890D01*
X37500Y1950D02*
X39100Y3550D01*
X39713D01*
X780Y2800D02*
Y27050D01*
X0Y20500D02*
X100Y20400D01*
X780Y27050D02*
Y32858D01*
Y32930D02*
X850Y33000D01*
X780Y32858D02*
Y32930D01*
X0Y28800D02*
Y32078D01*
X37949Y38501D02*
X39450Y37000D01*
D76*
X0Y0D02*
X41000D01*
Y40500D01*
X0D02*
X41000D01*
X0Y0D02*
Y40500D01*
D98*
X25990Y26680D02*
D03*
X21830Y29100D02*
D03*
X3130Y29010D02*
D03*
X24620Y30180D02*
D03*
X24210Y30160D02*
D03*
X20113Y29953D02*
D03*
X20252Y30318D02*
D03*
X34850Y20410D02*
D03*
X26210Y20430D02*
D03*
X26520Y21450D02*
D03*
X26480Y21910D02*
D03*
X27000Y22250D02*
D03*
X28150Y22240D02*
D03*
X28800Y22280D02*
D03*
X30170D02*
D03*
X33160Y21880D02*
D03*
X33168Y20428D02*
D03*
X28160Y20430D02*
D03*
X18900Y32340D02*
D03*
X8400Y32240D02*
D03*
X7700Y31960D02*
D03*
X16820Y31670D02*
D03*
X18140Y38130D02*
D03*
Y38900D02*
D03*
X19480Y38920D02*
D03*
X19470Y38120D02*
D03*
X18140Y38510D02*
D03*
X19460D02*
D03*
X34646Y12303D02*
D03*
X5270Y26850D02*
D03*
X4518Y19971D02*
D03*
X5033Y19970D02*
D03*
X38248Y12589D02*
D03*
X37736Y12598D02*
D03*
X37293D02*
D03*
Y10886D02*
D03*
X38219D02*
D03*
X6683Y20050D02*
D03*
X6171Y19980D02*
D03*
X7030Y19640D02*
D03*
X5778Y19970D02*
D03*
X7037Y20994D02*
D03*
X5443Y20512D02*
D03*
X5394Y19971D02*
D03*
X3789Y19951D02*
D03*
X6447Y19055D02*
D03*
X3801Y19030D02*
D03*
X5069Y19045D02*
D03*
X2784Y31050D02*
D03*
X4596D02*
D03*
X3690Y31956D02*
D03*
Y30144D02*
D03*
X1480Y10784D02*
D03*
Y12596D02*
D03*
X2386Y11690D02*
D03*
X33041Y15443D02*
D03*
X34783Y13474D02*
D03*
X9430Y11812D02*
D03*
X9154Y12353D02*
D03*
X7382Y16968D02*
D03*
X8100Y16407D02*
D03*
X8110Y16821D02*
D03*
X7746Y16870D02*
D03*
X8550Y16880D02*
D03*
X7736Y16476D02*
D03*
X3381Y19050D02*
D03*
X23663Y27147D02*
D03*
X23899Y29145D02*
D03*
X24204Y28938D02*
D03*
X21950Y27806D02*
D03*
X24764Y28829D02*
D03*
X25413Y30226D02*
D03*
X24130Y21920D02*
D03*
X24190Y22480D02*
D03*
X24200Y23180D02*
D03*
X24783Y26811D02*
D03*
X24596Y26319D02*
D03*
X25356Y28046D02*
D03*
X24056Y26802D02*
D03*
X23660Y24960D02*
D03*
X1890Y3524D02*
D03*
X1713Y3711D02*
D03*
X5971Y5520D02*
D03*
X4920Y26028D02*
D03*
X37736Y10886D02*
D03*
X39920Y8440D02*
D03*
X39250Y10050D02*
D03*
X38940Y9380D02*
D03*
Y8840D02*
D03*
X38540Y8170D02*
D03*
X38470Y5060D02*
D03*
X39950Y4200D02*
D03*
X7120Y7480D02*
D03*
X17260Y27000D02*
D03*
X17010Y28140D02*
D03*
X19090Y29220D02*
D03*
X18470Y27560D02*
D03*
X12470Y27520D02*
D03*
X5550Y28180D02*
D03*
X6510Y28650D02*
D03*
X4190Y25658D02*
D03*
X4160Y26398D02*
D03*
X3090Y27790D02*
D03*
X3260Y28390D02*
D03*
X15810Y21720D02*
D03*
X9860Y23130D02*
D03*
X13370Y19260D02*
D03*
X12660Y19940D02*
D03*
X17500Y19020D02*
D03*
X8540Y19960D02*
D03*
X13720Y22230D02*
D03*
X15210Y20580D02*
D03*
X8080Y12270D02*
D03*
X12070Y15770D02*
D03*
X12490Y16220D02*
D03*
X11550Y15900D02*
D03*
X17220Y18760D02*
D03*
X16980Y18490D02*
D03*
X16710Y18250D02*
D03*
X16430Y18010D02*
D03*
X20750Y24350D02*
D03*
X20780Y24710D02*
D03*
X21530Y24850D02*
D03*
X21860Y24670D02*
D03*
X21810Y24210D02*
D03*
X30780Y37240D02*
D03*
X17790Y27580D02*
D03*
X18360Y25040D02*
D03*
X13510Y20700D02*
D03*
X21650Y22150D02*
D03*
X21510Y18160D02*
D03*
X30876Y15344D02*
D03*
X29272Y14537D02*
D03*
X21800Y16060D02*
D03*
X13130Y23520D02*
D03*
X18850Y25070D02*
D03*
X15640Y23660D02*
D03*
X15850Y24250D02*
D03*
X16190Y24590D02*
D03*
X16740Y25000D02*
D03*
X16422Y32900D02*
D03*
X18090Y29190D02*
D03*
X18590Y29230D02*
D03*
X19580Y29210D02*
D03*
X4456Y7860D02*
D03*
X4096D02*
D03*
Y7600D02*
D03*
X4456D02*
D03*
X5111Y7790D02*
D03*
Y7510D02*
D03*
X3491Y7800D02*
D03*
Y7530D02*
D03*
X2621Y7410D02*
D03*
X2891D02*
D03*
X6431Y5870D02*
D03*
X6241Y6050D02*
D03*
X6141Y5330D02*
D03*
X2577Y5520D02*
D03*
X2407Y5330D02*
D03*
X2307Y6050D02*
D03*
X2117Y5870D02*
D03*
X5871Y7260D02*
D03*
X5621Y7350D02*
D03*
X6141Y7250D02*
D03*
X32690Y7860D02*
D03*
X32330D02*
D03*
Y7600D02*
D03*
X33346Y7790D02*
D03*
Y7510D02*
D03*
X31726Y7800D02*
D03*
Y7530D02*
D03*
X30856Y7410D02*
D03*
X31126D02*
D03*
X34666Y5870D02*
D03*
X34476Y6050D02*
D03*
X34376Y5330D02*
D03*
X30812Y5520D02*
D03*
X30642Y5330D02*
D03*
X30542Y6050D02*
D03*
X30352Y5870D02*
D03*
X34106Y7260D02*
D03*
X33856Y7350D02*
D03*
X34376Y7250D02*
D03*
X25601Y7860D02*
D03*
X25241D02*
D03*
Y7600D02*
D03*
X25601D02*
D03*
X26257Y7790D02*
D03*
Y7510D02*
D03*
X24637Y7800D02*
D03*
Y7530D02*
D03*
X23767Y7410D02*
D03*
X24037D02*
D03*
X27577Y5870D02*
D03*
X27387Y6050D02*
D03*
X27287Y5330D02*
D03*
X27117Y5520D02*
D03*
X23723D02*
D03*
X23553Y5330D02*
D03*
X23453Y6050D02*
D03*
X23263Y5870D02*
D03*
X27017Y7260D02*
D03*
X26767Y7350D02*
D03*
X27287Y7250D02*
D03*
X18515Y7860D02*
D03*
X18155D02*
D03*
Y7600D02*
D03*
X18515D02*
D03*
X19171Y7790D02*
D03*
Y7510D02*
D03*
X17551Y7800D02*
D03*
Y7530D02*
D03*
X16681Y7410D02*
D03*
X16951D02*
D03*
X20491Y5870D02*
D03*
X20301Y6050D02*
D03*
X20201Y5330D02*
D03*
X20031Y5520D02*
D03*
X16637D02*
D03*
X16467Y5330D02*
D03*
X16367Y6050D02*
D03*
X16177Y5870D02*
D03*
X19931Y7260D02*
D03*
X19681Y7350D02*
D03*
X20201Y7250D02*
D03*
X12840Y7260D02*
D03*
X12590Y7350D02*
D03*
X9086Y5870D02*
D03*
X9276Y6050D02*
D03*
X9376Y5330D02*
D03*
X9546Y5520D02*
D03*
X12940D02*
D03*
X13110Y5330D02*
D03*
X13210Y6050D02*
D03*
X13400Y5870D02*
D03*
X9860Y7410D02*
D03*
X9590D02*
D03*
X13110Y7250D02*
D03*
X10460Y7530D02*
D03*
Y7800D02*
D03*
X12080Y7510D02*
D03*
Y7790D02*
D03*
X5470Y12050D02*
D03*
X11424Y7600D02*
D03*
X11064D02*
D03*
X12454Y12080D02*
D03*
X11064Y7860D02*
D03*
X11424D02*
D03*
X19550Y12080D02*
D03*
X40000Y21270D02*
D03*
X39144Y20305D02*
D03*
X31310Y35770D02*
D03*
X19940Y24800D02*
D03*
X12230Y28560D02*
D03*
X35420Y38750D02*
D03*
X39203Y19380D02*
D03*
X38898Y21250D02*
D03*
X38050Y19400D02*
D03*
X40000Y19370D02*
D03*
X38100Y21750D02*
D03*
X38950D02*
D03*
X38356Y15965D02*
D03*
X40000Y15950D02*
D03*
X38829Y14016D02*
D03*
X39459D02*
D03*
X40098D02*
D03*
X39350Y15950D02*
D03*
Y16350D02*
D03*
X40000D02*
D03*
X38356Y16339D02*
D03*
X39606Y21260D02*
D03*
X38169D02*
D03*
X15300Y24522D02*
D03*
X13290Y24550D02*
D03*
X39183Y14990D02*
D03*
X38858Y16142D02*
D03*
X38140Y14006D02*
D03*
X33720Y12080D02*
D03*
X26631D02*
D03*
X13890Y23880D02*
D03*
X30350Y14510D02*
D03*
X29180Y15060D02*
D03*
X27800Y17180D02*
D03*
X30300D02*
D03*
X29280Y17450D02*
D03*
X32760Y17120D02*
D03*
X34280Y17430D02*
D03*
X31780Y17450D02*
D03*
X26760Y17430D02*
D03*
X28570Y15980D02*
D03*
X31320Y15970D02*
D03*
X22430Y18580D02*
D03*
X22220Y18880D02*
D03*
X22430Y19190D02*
D03*
X15290Y18950D02*
D03*
X15580Y18620D02*
D03*
X23640Y23640D02*
D03*
X22060Y19480D02*
D03*
X22280Y19770D02*
D03*
X23730Y20740D02*
D03*
X30210Y13910D02*
D03*
X14150Y7680D02*
D03*
X19660Y25050D02*
D03*
X19340Y24830D02*
D03*
X33780Y15990D02*
D03*
X22240Y20860D02*
D03*
X20290Y25050D02*
D03*
X20250Y26610D02*
D03*
X19530Y26120D02*
D03*
X20340Y24690D02*
D03*
X23620Y22740D02*
D03*
X24000Y23550D02*
D03*
X23900Y22970D02*
D03*
X21764Y23640D02*
D03*
X26270Y15990D02*
D03*
X17180Y25130D02*
D03*
X21920Y19820D02*
D03*
X21970Y20580D02*
D03*
X21670Y20140D02*
D03*
X15280Y18330D02*
D03*
X15640Y18240D02*
D03*
X19900Y13330D02*
D03*
X23380Y13320D02*
D03*
X19430Y17905D02*
D03*
X16193Y16663D02*
D03*
X14340Y17270D02*
D03*
X14680Y17450D02*
D03*
X13630Y16290D02*
D03*
X5751Y19050D02*
D03*
X1941Y19900D02*
D03*
X21240Y7660D02*
D03*
X28370Y7590D02*
D03*
X35430Y7650D02*
D03*
X13500Y12335D02*
D03*
X35560Y9674D02*
D03*
Y8794D02*
D03*
Y9230D02*
D03*
X28430D02*
D03*
Y8794D02*
D03*
Y9674D02*
D03*
X21360Y9230D02*
D03*
Y8794D02*
D03*
Y9674D02*
D03*
X14300Y9230D02*
D03*
Y8794D02*
D03*
Y9674D02*
D03*
X7200Y9230D02*
D03*
X7220Y8794D02*
D03*
X7200Y9674D02*
D03*
X22150Y21210D02*
D03*
X21810Y21570D02*
D03*
X2191Y16630D02*
D03*
X29830Y20420D02*
D03*
X31470Y20430D02*
D03*
X22000Y26510D02*
D03*
X15750Y20240D02*
D03*
X21020Y16280D02*
D03*
X20770Y16020D02*
D03*
X20730Y15630D02*
D03*
X18860Y16370D02*
D03*
X18660Y16710D02*
D03*
X18520Y16200D02*
D03*
X18260Y15915D02*
D03*
X26360Y17550D02*
D03*
X25740Y19270D02*
D03*
X25700Y17700D02*
D03*
X22960Y16940D02*
D03*
X22980Y15820D02*
D03*
X23340Y15810D02*
D03*
X23310Y14720D02*
D03*
X17680Y24860D02*
D03*
X18040Y24820D02*
D03*
X39620Y21760D02*
D03*
X7910Y35590D02*
D03*
X15460Y38510D02*
D03*
X14140D02*
D03*
X15470Y38120D02*
D03*
X15480Y38920D02*
D03*
X14140Y38900D02*
D03*
Y38130D02*
D03*
X14180Y36990D02*
D03*
X15480Y36970D02*
D03*
X11480D02*
D03*
X10180Y36990D02*
D03*
X10140Y38130D02*
D03*
Y38900D02*
D03*
X11480Y38920D02*
D03*
X11470Y38120D02*
D03*
X10140Y38510D02*
D03*
X11460D02*
D03*
X7480Y36970D02*
D03*
X6180Y36990D02*
D03*
X6140Y38130D02*
D03*
Y38900D02*
D03*
X7480Y38920D02*
D03*
X7470Y38120D02*
D03*
X6140Y38510D02*
D03*
X7460D02*
D03*
X4770Y35610D02*
D03*
X11895Y35590D02*
D03*
X8360Y35370D02*
D03*
Y34460D02*
D03*
X12370D02*
D03*
Y35370D02*
D03*
X15905Y35590D02*
D03*
X20380Y36020D02*
D03*
X8390Y36220D02*
D03*
X12380Y36240D02*
D03*
X24840Y35950D02*
D03*
X25360Y32830D02*
D03*
X23990Y32820D02*
D03*
X22480Y36020D02*
D03*
X21000Y33000D02*
D03*
Y34000D02*
D03*
X20990Y33520D02*
D03*
X20580Y35000D02*
D03*
X21500D02*
D03*
X22500D02*
D03*
X23500D02*
D03*
X24500D02*
D03*
X25460Y35010D02*
D03*
X24500Y34000D02*
D03*
Y33000D02*
D03*
X23500D02*
D03*
Y34000D02*
D03*
X25500D02*
D03*
X21500Y36000D02*
D03*
X800Y12920D02*
D03*
X40000Y21760D02*
D03*
X32700Y7600D02*
D03*
X30750Y7180D02*
D03*
X23660Y7170D02*
D03*
X16570D02*
D03*
X2510D02*
D03*
X9480Y7180D02*
D03*
X10085Y20145D02*
D03*
X6407Y17608D02*
D03*
X29951Y14291D02*
D03*
X24646Y14154D02*
D03*
X25719D02*
D03*
X25600Y12215D02*
D03*
X28120Y14715D02*
D03*
X21005Y12481D02*
D03*
X15561Y12411D02*
D03*
X19616Y30935D02*
D03*
X14710Y32190D02*
D03*
X12353Y32256D02*
D03*
X15790Y26530D02*
D03*
X3275Y35015D02*
D03*
D101*
X36480Y24270D02*
D03*
X39550Y26500D02*
D03*
X28600Y28860D02*
D03*
X26000Y32070D02*
D03*
Y31590D02*
D03*
Y31170D02*
D03*
X26290Y30690D02*
D03*
X26380Y32620D02*
D03*
X29130Y28470D02*
D03*
X28590Y29710D02*
D03*
X27260Y29890D02*
D03*
X27270Y30440D02*
D03*
X26770Y30620D02*
D03*
X29020Y29400D02*
D03*
X26600Y27370D02*
D03*
X37320Y17480D02*
D03*
X36470Y38750D02*
D03*
D102*
X4560Y36950D02*
D03*
D103*
X37706Y23825D02*
D03*
Y27825D02*
D03*
Y31825D02*
D03*
X4800Y38520D02*
D03*
X6800D02*
D03*
X8800D02*
D03*
X10800D02*
D03*
X12800D02*
D03*
X14800D02*
D03*
X16800D02*
D03*
X18800D02*
D03*
X20800D02*
D03*
X22800D02*
D03*
D104*
X37706Y25825D02*
D03*
Y29825D02*
D03*
Y33825D02*
D03*
D105*
X17380Y32030D02*
D03*
X18380D02*
D03*
X19380D02*
D03*
X20380D02*
D03*
X8010Y15060D02*
D03*
Y19300D02*
D03*
Y22150D02*
D03*
D106*
X17380Y33030D02*
D03*
X18380D02*
D03*
X19380D02*
D03*
X20380D02*
D03*
X19010Y15060D02*
D03*
Y14060D02*
D03*
X18010Y15060D02*
D03*
Y14060D02*
D03*
X17010Y15060D02*
D03*
Y14060D02*
D03*
X16010Y15060D02*
D03*
Y14060D02*
D03*
X15010Y15060D02*
D03*
Y14060D02*
D03*
X14010Y15060D02*
D03*
Y14060D02*
D03*
X13010Y15060D02*
D03*
Y14060D02*
D03*
X12010Y15060D02*
D03*
Y14060D02*
D03*
X11010Y15060D02*
D03*
Y14060D02*
D03*
X10010Y15060D02*
D03*
Y14060D02*
D03*
X9010Y15060D02*
D03*
Y14060D02*
D03*
X8010D02*
D03*
Y18300D02*
D03*
X9010D02*
D03*
Y19300D02*
D03*
X10010Y18300D02*
D03*
Y19300D02*
D03*
X11010Y18300D02*
D03*
Y19300D02*
D03*
X12010Y18300D02*
D03*
Y19300D02*
D03*
X8010Y21150D02*
D03*
X9010D02*
D03*
Y22150D02*
D03*
X10010Y21150D02*
D03*
Y22150D02*
D03*
X11010Y21150D02*
D03*
Y22150D02*
D03*
X12010Y21150D02*
D03*
Y22150D02*
D03*
D107*
X21550Y14430D02*
D03*
X3690Y31050D02*
D03*
X1480Y11690D02*
D03*
D108*
X35650Y14550D02*
D03*
X34650D02*
D03*
X33650D02*
D03*
X32650D02*
D03*
X1240Y35450D02*
D03*
X2240D02*
D03*
X31675Y25490D02*
D03*
X29675D02*
D03*
X33780D02*
D03*
X35780D02*
D03*
X27570D02*
D03*
X25570D02*
D03*
X35780Y23090D02*
D03*
X33780D02*
D03*
X29675D02*
D03*
X31675D02*
D03*
X27570D02*
D03*
X25570D02*
D03*
X21600Y1450D02*
D03*
X22600D02*
D03*
X23600D02*
D03*
X24600D02*
D03*
X16500D02*
D03*
X17500D02*
D03*
X18500D02*
D03*
X19500D02*
D03*
X26130Y18630D02*
D03*
X29300D02*
D03*
X32450D02*
D03*
X35580D02*
D03*
X7550Y1450D02*
D03*
X6550D02*
D03*
X5550D02*
D03*
X4550D02*
D03*
X13450D02*
D03*
X12450D02*
D03*
X11450D02*
D03*
X10450D02*
D03*
X30500D02*
D03*
X29500D02*
D03*
X28500D02*
D03*
X27500D02*
D03*
X36450D02*
D03*
X35450D02*
D03*
X34450D02*
D03*
X33450D02*
D03*
X860Y30460D02*
D03*
Y32240D02*
D03*
X39180Y7550D02*
D03*
Y5550D02*
D03*
D109*
X36650Y14550D02*
D03*
X30675Y25490D02*
D03*
X34780D02*
D03*
X26570D02*
D03*
X34780Y23090D02*
D03*
X30675D02*
D03*
X26570D02*
D03*
X27130Y18630D02*
D03*
X30300D02*
D03*
X33450D02*
D03*
X36580D02*
D03*
X39180Y6550D02*
D03*
Y4550D02*
D03*
D110*
X800Y800D02*
D03*
X2200D02*
D03*
Y2200D02*
D03*
X800D02*
D03*
X500Y1500D02*
D03*
X2500D02*
D03*
X1500Y2500D02*
D03*
Y500D02*
D03*
X800Y38300D02*
D03*
X2200D02*
D03*
Y39700D02*
D03*
X800D02*
D03*
X500Y39000D02*
D03*
X2500D02*
D03*
X1500Y40000D02*
D03*
Y38000D02*
D03*
X38800Y38300D02*
D03*
X40200D02*
D03*
Y39700D02*
D03*
X38800D02*
D03*
X38500Y39000D02*
D03*
X40500D02*
D03*
X39500Y40000D02*
D03*
Y38000D02*
D03*
X38800Y800D02*
D03*
X40200D02*
D03*
Y2200D02*
D03*
X38800D02*
D03*
X38500Y1500D02*
D03*
X40500D02*
D03*
X39500Y2500D02*
D03*
Y500D02*
D03*
D111*
X1500Y1500D02*
D03*
Y39000D02*
D03*
X39500D02*
D03*
Y1500D02*
D03*
D112*
X34510Y33840D02*
D03*
X35850D02*
D03*
Y28540D02*
D03*
X34510D02*
D03*
X31150Y33840D02*
D03*
X32490D02*
D03*
Y28540D02*
D03*
X31150D02*
D03*
X39843Y20288D02*
D03*
X38503D02*
D03*
Y14988D02*
D03*
X39843D02*
D03*
D113*
X2500Y20630D02*
D03*
D114*
Y25362D02*
D03*
D115*
X3570Y22500D02*
D03*
D116*
Y23492D02*
D03*
X4360D02*
D03*
Y22500D02*
D03*
D117*
X1840Y29970D02*
D03*
Y32730D02*
D03*
D118*
X37030Y39378D02*
D03*
X39890Y24540D02*
D03*
X39530Y24930D02*
D03*
X38200Y24920D02*
D03*
X38780Y24290D02*
D03*
X38740Y23350D02*
D03*
X38370Y23090D02*
D03*
X38830Y23820D02*
D03*
X38460Y24560D02*
D03*
X37900Y24570D02*
D03*
X37790Y23080D02*
D03*
X32800Y35220D02*
D03*
X32160Y35200D02*
D03*
X30470Y34870D02*
D03*
X33090D02*
D03*
X31790Y33090D02*
D03*
X30420Y33840D02*
D03*
X32480Y34890D02*
D03*
X31880D02*
D03*
X31170Y34920D02*
D03*
X37250Y27130D02*
D03*
X38130D02*
D03*
X37700Y27120D02*
D03*
X38870Y27390D02*
D03*
X38880Y28240D02*
D03*
Y27820D02*
D03*
X38340Y28570D02*
D03*
X37700D02*
D03*
X37170D02*
D03*
X32490Y27270D02*
D03*
X31150Y27260D02*
D03*
X33360Y28530D02*
D03*
X33210Y27710D02*
D03*
X30630Y27660D02*
D03*
X33390Y29460D02*
D03*
X31150Y29440D02*
D03*
X31830Y29300D02*
D03*
X31810Y27850D02*
D03*
X38800Y31360D02*
D03*
Y31840D02*
D03*
Y32280D02*
D03*
X37160Y31080D02*
D03*
X38200Y31090D02*
D03*
X37730Y31080D02*
D03*
X37130Y32590D02*
D03*
X38210Y32610D02*
D03*
X37710Y32600D02*
D03*
X36000Y29450D02*
D03*
X34350Y29440D02*
D03*
X36360Y29830D02*
D03*
X33950Y29230D02*
D03*
X36350Y29270D02*
D03*
X35530Y29450D02*
D03*
X34830D02*
D03*
X35190Y29180D02*
D03*
X35170Y27820D02*
D03*
X34310Y31990D02*
D03*
X36560Y33820D02*
D03*
X36550Y34670D02*
D03*
X35020Y32490D02*
D03*
X35190Y33260D02*
D03*
X35190Y33785D02*
D03*
X34540Y32860D02*
D03*
X36580Y33120D02*
D03*
X35190Y32857D02*
D03*
X35900Y34840D02*
D03*
X35210Y34850D02*
D03*
X34520Y34830D02*
D03*
D119*
X24537Y28022D02*
D03*
Y27589D02*
D03*
X24104Y28022D02*
D03*
Y27589D02*
D03*
D120*
X6713Y16634D02*
D03*
M02*
