G04 Layer_Color=32768*
%FSLAX24Y24*%
%MOIN*%
G70*
G01*
G75*
%ADD72C,0.0100*%
%ADD122C,0.0039*%
%ADD253C,0.0020*%
%ADD292C,0.0020*%
D72*
X0Y40500D02*
X41000D01*
X0Y0D02*
Y40500D01*
Y0D02*
X41000D01*
Y40500D01*
D122*
X24124Y27805D02*
X24518D01*
X24321Y27608D02*
Y28002D01*
X5591Y19537D02*
X5984D01*
X5787Y19341D02*
Y19734D01*
X4813Y19537D02*
X5207D01*
X5010Y19341D02*
Y19734D01*
X6467Y20472D02*
X6860D01*
X6663Y20276D02*
Y20669D01*
X5551Y20463D02*
X5945D01*
X5748Y20266D02*
Y20659D01*
X3996Y19537D02*
X4390D01*
X4193Y19341D02*
Y19734D01*
X3593Y19537D02*
X3986D01*
X3789Y19341D02*
Y19734D01*
X24656Y31142D02*
X25049D01*
X24852Y30945D02*
Y31339D01*
X15912Y33343D02*
Y33737D01*
X15715Y33540D02*
X16109D01*
X11906Y33337D02*
Y33730D01*
X11709Y33533D02*
X12102D01*
X7890Y33337D02*
Y33730D01*
X7693Y33533D02*
X8087D01*
X6273Y31382D02*
Y31776D01*
X6076Y31579D02*
X6470D01*
X26850Y33423D02*
Y33817D01*
X26653Y33620D02*
X27047D01*
X28414Y20813D02*
Y21207D01*
X28217Y21010D02*
X28611D01*
X31677D02*
X32071D01*
X31874Y20813D02*
Y21207D01*
X35844Y20813D02*
Y21207D01*
X35647Y21010D02*
X36041D01*
X26597D02*
X26991D01*
X26794Y20813D02*
Y21207D01*
X30224Y20813D02*
Y21207D01*
X30027Y21010D02*
X30421D01*
X33987D02*
X34381D01*
X34184Y20813D02*
Y21207D01*
X4274Y9393D02*
Y9787D01*
X4078Y9590D02*
X4471D01*
X11046D02*
X11440D01*
X11243Y9393D02*
Y9787D01*
X18334Y9393D02*
Y9787D01*
X18137Y9590D02*
X18531D01*
X25223D02*
X25617D01*
X25420Y9393D02*
Y9787D01*
X32509Y9393D02*
Y9787D01*
X32312Y9590D02*
X32706D01*
X31683Y27680D02*
X32077D01*
X31880Y27483D02*
Y27877D01*
X38053Y10020D02*
X38447D01*
X38250Y9823D02*
Y10217D01*
X31736Y39424D02*
X32130D01*
X31933Y39227D02*
Y39621D01*
X35963Y38417D02*
Y38811D01*
X35766Y38614D02*
X36160D01*
X5031Y5463D02*
Y5857D01*
X4835Y5660D02*
X5228D01*
X12000Y5463D02*
Y5857D01*
X11803Y5660D02*
X12197D01*
X26177Y5463D02*
Y5857D01*
X25980Y5660D02*
X26374D01*
X33266Y5463D02*
Y5857D01*
X33069Y5660D02*
X33463D01*
X3511Y5463D02*
Y5857D01*
X3315Y5660D02*
X3708D01*
X10480Y5463D02*
Y5857D01*
X10283Y5660D02*
X10677D01*
X24657Y5463D02*
Y5857D01*
X24460Y5660D02*
X24854D01*
X31746Y5463D02*
Y5857D01*
X31549Y5660D02*
X31943D01*
X33213Y36177D02*
Y36571D01*
X33016Y36374D02*
X33410D01*
X18653Y21471D02*
X19047D01*
X18850Y21274D02*
Y21668D01*
X32116Y38244D02*
X32510D01*
X32313Y38047D02*
Y38441D01*
X9350Y26713D02*
Y27107D01*
X9153Y26910D02*
X9547D01*
X29810Y14093D02*
Y14487D01*
X29613Y14290D02*
X30007D01*
X19180Y34233D02*
Y34627D01*
X18983Y34430D02*
X19377D01*
X17571Y5463D02*
Y5857D01*
X17374Y5660D02*
X17768D01*
X19091Y5463D02*
Y5857D01*
X18894Y5660D02*
X19288D01*
D253*
X22711Y28274D02*
Y28665D01*
Y28274D02*
X23471D01*
Y28665D01*
X22711D02*
X23471D01*
X10038Y24626D02*
X11042D01*
Y24074D02*
Y24626D01*
X10038Y24074D02*
X11042D01*
X10038D02*
Y24626D01*
Y29686D02*
X11042D01*
Y29134D02*
Y29686D01*
X10038Y29134D02*
X11042D01*
X10038D02*
Y29686D01*
X1948Y26234D02*
X2952D01*
X1948D02*
Y26786D01*
X2952D01*
Y26234D02*
Y26786D01*
X5546Y26948D02*
Y27952D01*
X4994Y26948D02*
X5546D01*
X4994D02*
Y27952D01*
X5546D01*
X4710Y27980D02*
X5470D01*
X4710D02*
Y28370D01*
X5470D01*
Y27980D02*
Y28370D01*
X4960Y26950D02*
Y27710D01*
X4570Y26950D02*
X4960D01*
X4570D02*
Y27710D01*
X4960D01*
X8890Y23240D02*
X9650D01*
Y22850D02*
Y23240D01*
X8890Y22850D02*
X9650D01*
X8890D02*
Y23240D01*
X17590Y26170D02*
X18350D01*
X17590D02*
Y26560D01*
X18350D01*
Y26170D02*
Y26560D01*
X17940Y27750D02*
X18330D01*
X17940Y26990D02*
Y27750D01*
Y26990D02*
X18330D01*
Y27750D01*
X20050Y29010D02*
X20440D01*
Y29770D01*
X20050D02*
X20440D01*
X20050Y29010D02*
Y29770D01*
X18550Y26990D02*
X18940D01*
Y27750D01*
X18550D02*
X18940D01*
X18550Y26990D02*
Y27750D01*
X27940Y13850D02*
X28330D01*
Y14610D01*
X27940D02*
X28330D01*
X27940Y13850D02*
Y14610D01*
X15310Y16100D02*
Y16860D01*
X15700D01*
Y16100D02*
Y16860D01*
X15310Y16100D02*
X15700D01*
X24639Y29216D02*
Y29976D01*
X24249Y29216D02*
X24639D01*
X24249D02*
Y29976D01*
X24639D01*
X23400Y31746D02*
X24159D01*
X23400D02*
Y32136D01*
X24159D01*
Y31746D02*
Y32136D01*
X15190Y33330D02*
Y34090D01*
X14800Y33330D02*
X15190D01*
X14800D02*
Y34090D01*
X15190D01*
X11190Y33331D02*
Y34091D01*
X10800Y33331D02*
X11190D01*
X10800D02*
Y34091D01*
X11190D01*
X7155Y33331D02*
Y34091D01*
X6765Y33331D02*
X7155D01*
X6765D02*
Y34091D01*
X7155D01*
X20340Y34250D02*
Y35010D01*
X19950Y34250D02*
X20340D01*
X19950D02*
Y35010D01*
X20340D01*
X23776Y30447D02*
Y31207D01*
X24167D01*
Y30447D02*
Y31207D01*
X23776Y30447D02*
X24167D01*
X15852Y32830D02*
X16612D01*
Y32440D02*
Y32830D01*
X15852Y32440D02*
X16612D01*
X15852D02*
Y32830D01*
X11841Y32857D02*
X12600D01*
Y32467D02*
Y32857D01*
X11841Y32467D02*
X12600D01*
X11841D02*
Y32857D01*
X7825Y32848D02*
X8585D01*
Y32457D02*
Y32848D01*
X7825Y32457D02*
X8585D01*
X7825D02*
Y32848D01*
X20770Y8030D02*
Y8790D01*
X20380Y8030D02*
X20770D01*
X20380D02*
Y8790D01*
X20770D01*
X21380Y7630D02*
X22140D01*
X21380D02*
Y8020D01*
X22140D01*
Y7630D02*
Y8020D01*
X35340Y8040D02*
Y8800D01*
X34950Y8040D02*
X35340D01*
X34950D02*
Y8800D01*
X35340D01*
X28260Y8040D02*
Y8800D01*
X27870Y8040D02*
X28260D01*
X27870D02*
Y8800D01*
X28260D01*
X14070Y8040D02*
Y8800D01*
X13680Y8040D02*
X14070D01*
X13680D02*
Y8800D01*
X14070D01*
X7110Y8040D02*
Y8800D01*
X6720Y8040D02*
X7110D01*
X6720D02*
Y8800D01*
X7110D01*
X35560Y7250D02*
X36320D01*
X35560D02*
Y7640D01*
X36320D01*
Y7250D02*
Y7640D01*
X28450Y7250D02*
X29210D01*
X28450D02*
Y7640D01*
X29210D01*
Y7250D02*
Y7640D01*
X13670Y8040D02*
Y8800D01*
X13280Y8040D02*
X13670D01*
X13280D02*
Y8800D01*
X13670D01*
X6710Y8040D02*
Y8800D01*
X6320Y8040D02*
X6710D01*
X6320D02*
Y8800D01*
X6710D01*
X10801Y20387D02*
X11561D01*
Y19997D02*
Y20387D01*
X10801Y19997D02*
X11561D01*
X10801D02*
Y20387D01*
X851Y19020D02*
X1611D01*
X851D02*
Y19410D01*
X1611D01*
Y19020D02*
Y19410D01*
X12280Y27590D02*
Y28350D01*
X12670D01*
Y27590D02*
Y28350D01*
X12280Y27590D02*
X12670D01*
X26842Y34564D02*
Y35116D01*
X25838D02*
X26842D01*
X25838Y34564D02*
Y35116D01*
Y34564D02*
X26842D01*
Y34014D02*
Y34566D01*
X25838D02*
X26842D01*
X25838Y34014D02*
Y34566D01*
Y34014D02*
X26842D01*
X26606Y28746D02*
Y30303D01*
X25829Y28746D02*
Y30303D01*
X26606D01*
X25829Y28746D02*
X26606D01*
X2553Y7264D02*
Y7816D01*
X1549D02*
X2553D01*
X1549Y7264D02*
Y7816D01*
Y7264D02*
X2553D01*
X9522D02*
Y7816D01*
X8518D02*
X9522D01*
X8518Y7264D02*
Y7816D01*
Y7264D02*
X9522D01*
X23699D02*
Y7816D01*
X22695D02*
X23699D01*
X22695Y7264D02*
Y7816D01*
Y7264D02*
X23699D01*
X30788D02*
Y7816D01*
X29784D02*
X30788D01*
X29784Y7264D02*
Y7816D01*
Y7264D02*
X30788D01*
X5282Y7414D02*
Y7966D01*
Y7414D02*
X6286D01*
Y7966D01*
X5282D02*
X6286D01*
X12251Y7414D02*
Y7966D01*
Y7414D02*
X13255D01*
Y7966D01*
X12251D02*
X13255D01*
X26428Y7414D02*
Y7966D01*
Y7414D02*
X27432D01*
Y7966D01*
X26428D02*
X27432D01*
X33517Y7414D02*
Y7966D01*
Y7414D02*
X34521D01*
Y7966D01*
X33517D02*
X34521D01*
X16612Y7254D02*
Y7806D01*
X15608D02*
X16612D01*
X15608Y7254D02*
Y7806D01*
Y7254D02*
X16612D01*
X19342Y7424D02*
Y7976D01*
Y7424D02*
X20346D01*
Y7976D01*
X19342D02*
X20346D01*
X12814Y21302D02*
X13366D01*
X12814Y20298D02*
Y21302D01*
Y20298D02*
X13366D01*
Y21302D01*
X28060Y20720D02*
X28820D01*
Y20330D02*
Y20720D01*
X28060Y20330D02*
X28820D01*
X28060D02*
Y20720D01*
X31520D02*
X32280D01*
Y20330D02*
Y20720D01*
X31520Y20330D02*
X32280D01*
X31520D02*
Y20720D01*
X35490D02*
X36250D01*
Y20330D02*
Y20720D01*
X35490Y20330D02*
X36250D01*
X35490D02*
Y20720D01*
X26440Y20719D02*
X27200D01*
Y20329D02*
Y20719D01*
X26440Y20329D02*
X27200D01*
X26440D02*
Y20719D01*
X29870Y20720D02*
X30630D01*
Y20330D02*
Y20720D01*
X29870Y20330D02*
X30630D01*
X29870D02*
Y20720D01*
X33830D02*
X34590D01*
Y20330D02*
Y20720D01*
X33830Y20330D02*
X34590D01*
X33830D02*
Y20720D01*
X40185Y35667D02*
Y36057D01*
X39425D02*
X40185D01*
X39425Y35667D02*
Y36057D01*
Y35667D02*
X40185D01*
X39425Y35276D02*
Y35667D01*
Y35276D02*
X40185D01*
Y35667D01*
X39425D02*
X40185D01*
X38360Y3090D02*
Y3480D01*
Y3090D02*
X39120D01*
Y3480D01*
X38360D02*
X39120D01*
X39256Y36816D02*
Y37206D01*
Y36816D02*
X40016D01*
Y37206D01*
X39256D02*
X40016D01*
X3160Y1380D02*
X3550D01*
X3160Y620D02*
Y1380D01*
Y620D02*
X3550D01*
Y1380D01*
X2140Y36650D02*
X2530D01*
Y37410D01*
X2140D02*
X2530D01*
X2140Y36650D02*
Y37410D01*
X1210Y9860D02*
Y10250D01*
X450D02*
X1210D01*
X450Y9860D02*
Y10250D01*
Y9860D02*
X1210D01*
X3010Y29360D02*
Y29750D01*
Y29360D02*
X3770D01*
Y29750D01*
X3010D02*
X3770D01*
X23550Y15280D02*
Y15670D01*
X22790D02*
X23550D01*
X22790Y15280D02*
Y15670D01*
Y15280D02*
X23550D01*
X22770Y16380D02*
Y16770D01*
Y16380D02*
X23530D01*
Y16770D01*
X22770D02*
X23530D01*
X23540Y15970D02*
Y16360D01*
X22780D02*
X23540D01*
X22780Y15970D02*
Y16360D01*
Y15970D02*
X23540D01*
X2478Y32394D02*
X3482D01*
X2478D02*
Y32946D01*
X3482D01*
Y32394D02*
Y32946D01*
X18478Y35104D02*
X19482D01*
X18478D02*
Y35656D01*
X19482D01*
Y35104D02*
Y35656D01*
X4908Y36746D02*
X5912D01*
Y36194D02*
Y36746D01*
X4908Y36194D02*
X5912D01*
X4908D02*
Y36746D01*
X8928Y36194D02*
X9932D01*
X8928D02*
Y36746D01*
X9932D01*
Y36194D02*
Y36746D01*
X12938Y36194D02*
X13942D01*
X12938D02*
Y36746D01*
X13942D01*
Y36194D02*
Y36746D01*
X21758Y36194D02*
X22762D01*
X21758D02*
Y36746D01*
X22762D01*
Y36194D02*
Y36746D01*
X7484Y12999D02*
Y13389D01*
Y12999D02*
X8244D01*
Y13389D01*
X7484D02*
X8244D01*
X14994Y12615D02*
Y13005D01*
Y12615D02*
X15754D01*
Y13005D01*
X14994D02*
X15754D01*
X25260Y13146D02*
Y13537D01*
Y13146D02*
X26020D01*
Y13537D01*
X25260D02*
X26020D01*
X27517Y13852D02*
X27907D01*
Y14612D01*
X27517D02*
X27907D01*
X27517Y13852D02*
Y14612D01*
X20132Y12310D02*
Y12700D01*
Y12310D02*
X20892D01*
Y12700D01*
X20132D02*
X20892D01*
X31079Y15430D02*
Y15820D01*
X30319D02*
X31079D01*
X30319Y15430D02*
Y15820D01*
Y15430D02*
X31079D01*
X1834Y8780D02*
X2224D01*
X1834Y8020D02*
Y8780D01*
Y8020D02*
X2224D01*
Y8780D01*
X8803D02*
X9193D01*
X8803Y8020D02*
Y8780D01*
Y8020D02*
X9193D01*
Y8780D01*
X22980D02*
X23370D01*
X22980Y8020D02*
Y8780D01*
Y8020D02*
X23370D01*
Y8780D01*
X30069D02*
X30459D01*
X30069Y8020D02*
Y8780D01*
Y8020D02*
X30459D01*
Y8780D01*
X5754Y11980D02*
X6144D01*
X5754Y11220D02*
Y11980D01*
Y11220D02*
X6144D01*
Y11980D01*
X12740D02*
X13130D01*
X12740Y11220D02*
Y11980D01*
Y11220D02*
X13130D01*
Y11980D01*
X26920D02*
X27310D01*
X26920Y11220D02*
Y11980D01*
Y11220D02*
X27310D01*
Y11980D01*
X34000D02*
X34390D01*
X34000Y11220D02*
Y11980D01*
Y11220D02*
X34390D01*
Y11980D01*
X768Y4557D02*
X1319D01*
X768Y3553D02*
Y4557D01*
Y3553D02*
X1319D01*
Y4557D01*
X8179Y4035D02*
X8730D01*
X8179Y3031D02*
Y4035D01*
Y3031D02*
X8730D01*
Y4035D01*
X22052Y4102D02*
X22603D01*
X22052Y3098D02*
Y4102D01*
Y3098D02*
X22603D01*
Y4102D01*
X29154D02*
X29706D01*
X29154Y3098D02*
Y4102D01*
Y3098D02*
X29706D01*
Y4102D01*
X2362Y4194D02*
Y4746D01*
X1358D02*
X2362D01*
X1358Y4194D02*
Y4746D01*
Y4194D02*
X2362D01*
X9381Y4184D02*
Y4736D01*
X8377D02*
X9381D01*
X8377Y4184D02*
Y4736D01*
Y4184D02*
X9381D01*
X23509D02*
Y4736D01*
X22505D02*
X23509D01*
X22505Y4184D02*
Y4736D01*
Y4184D02*
X23509D01*
X30598D02*
Y4736D01*
X29594D02*
X30598D01*
X29594Y4184D02*
Y4736D01*
Y4184D02*
X30598D01*
X7580Y4102D02*
X8131D01*
X7580Y3098D02*
Y4102D01*
Y3098D02*
X8131D01*
Y4102D01*
X14350D02*
X14901D01*
X14350Y3098D02*
Y4102D01*
Y3098D02*
X14901D01*
Y4102D01*
X27934Y3952D02*
X28486D01*
X27934Y2948D02*
Y3952D01*
Y2948D02*
X28486D01*
Y3952D01*
X35320Y4102D02*
X35871D01*
X35320Y3098D02*
Y4102D01*
Y3098D02*
X35871D01*
Y4102D01*
X7203Y4194D02*
Y4746D01*
X6199D02*
X7203D01*
X6199Y4194D02*
Y4746D01*
Y4194D02*
X7203D01*
X14172D02*
Y4746D01*
X13168D02*
X14172D01*
X13168Y4194D02*
Y4746D01*
Y4194D02*
X14172D01*
X28349D02*
Y4746D01*
X27345D02*
X28349D01*
X27345Y4194D02*
Y4746D01*
Y4194D02*
X28349D01*
X35438D02*
Y4746D01*
X34434D02*
X35438D01*
X34434Y4194D02*
Y4746D01*
Y4194D02*
X35438D01*
X7015Y30625D02*
Y31385D01*
X7405D01*
Y30625D02*
Y31385D01*
X7015Y30625D02*
X7405D01*
X19900Y33800D02*
X20660D01*
X19900D02*
Y34190D01*
X20660D01*
Y33800D02*
Y34190D01*
X1614Y19790D02*
X3171D01*
X1614Y19013D02*
X3171D01*
X1614D02*
Y19790D01*
X3171Y19013D02*
Y19790D01*
X21380Y7250D02*
X22140D01*
X21380D02*
Y7640D01*
X22140D01*
Y7250D02*
Y7640D01*
X16624Y7580D02*
Y7970D01*
Y7580D02*
X17384D01*
Y7970D01*
X16624D02*
X17384D01*
X16284Y8020D02*
Y8780D01*
X15894Y8020D02*
X16284D01*
X15894D02*
Y8780D01*
X16284D01*
X20224Y11220D02*
Y11980D01*
X19834Y11220D02*
X20224D01*
X19834D02*
Y11980D01*
X20224D01*
X15517Y3098D02*
Y4102D01*
X14966Y3098D02*
X15517D01*
X14966D02*
Y4102D01*
X15517D01*
X15419Y4184D02*
X16423D01*
X15419D02*
Y4736D01*
X16423D01*
Y4184D02*
Y4736D01*
X21697Y3098D02*
Y4102D01*
X21146Y3098D02*
X21697D01*
X21146D02*
Y4102D01*
X21697D01*
X20259Y4194D02*
X21263D01*
X20259D02*
Y4746D01*
X21263D01*
Y4194D02*
Y4746D01*
X14050Y20280D02*
Y21040D01*
X13660Y20280D02*
X14050D01*
X13660D02*
Y21040D01*
X14050D01*
X15590Y26480D02*
X16350D01*
Y26090D02*
Y26480D01*
X15590Y26090D02*
X16350D01*
X15590D02*
Y26480D01*
X20896Y28120D02*
X21900D01*
Y27569D02*
Y28120D01*
X20896Y27569D02*
X21900D01*
X20896D02*
Y28120D01*
X12518Y16474D02*
Y17026D01*
Y16474D02*
X13522D01*
Y17026D01*
X12518D02*
X13522D01*
X13520Y16960D02*
X14280D01*
Y16570D02*
Y16960D01*
X13520Y16570D02*
X14280D01*
X13520D02*
Y16960D01*
X30204Y28132D02*
X30756D01*
X30204Y27128D02*
Y28132D01*
Y27128D02*
X30756D01*
Y28132D01*
X29424D02*
X29976D01*
X29424Y27128D02*
Y28132D01*
Y27128D02*
X29976D01*
Y28132D01*
X13800Y22030D02*
Y22790D01*
X14190D01*
Y22030D02*
Y22790D01*
X13800Y22030D02*
X14190D01*
X12814Y22302D02*
X13366D01*
X12814Y21298D02*
Y22302D01*
Y21298D02*
X13366D01*
Y22302D01*
X20450Y26120D02*
Y26880D01*
X20840D01*
Y26120D02*
Y26880D01*
X20450Y26120D02*
X20840D01*
X27240Y20810D02*
Y21200D01*
Y20810D02*
X28000D01*
Y21200D01*
X27240D02*
X28000D01*
X30690Y20800D02*
Y21190D01*
Y20800D02*
X31450D01*
Y21190D01*
X30690D02*
X31450D01*
X34660Y20800D02*
Y21190D01*
Y20800D02*
X35420D01*
Y21190D01*
X34660D02*
X35420D01*
X23860Y19820D02*
Y20580D01*
X23470Y19820D02*
X23860D01*
X23470D02*
Y20580D01*
X23860D01*
X21620Y16020D02*
Y16780D01*
X21230Y16020D02*
X21620D01*
X21230D02*
Y16780D01*
X21620D01*
X14190Y22810D02*
Y23570D01*
X13800Y22810D02*
X14190D01*
X13800D02*
Y23570D01*
X14190D01*
X13150Y19800D02*
X13910D01*
X13150D02*
Y20190D01*
X13910D01*
Y19800D02*
Y20190D01*
X11758Y22874D02*
Y23426D01*
Y22874D02*
X12762D01*
Y23426D01*
X11758D02*
X12762D01*
X38792Y8544D02*
Y9096D01*
X37788D02*
X38792D01*
X37788Y8544D02*
Y9096D01*
Y8544D02*
X38792D01*
Y9084D02*
Y9636D01*
X37788D02*
X38792D01*
X37788Y9084D02*
Y9636D01*
Y9084D02*
X38792D01*
X13470Y23960D02*
X14230D01*
X13470D02*
Y24350D01*
X14230D01*
Y23960D02*
Y24350D01*
X13140Y19400D02*
X13900D01*
X13140D02*
Y19790D01*
X13900D01*
Y19400D02*
Y19790D01*
X25650Y20330D02*
Y20720D01*
Y20330D02*
X26410D01*
Y20720D01*
X25650D02*
X26410D01*
X29040Y20810D02*
Y21200D01*
Y20810D02*
X29800D01*
Y21200D01*
X29040D02*
X29800D01*
X32980Y20800D02*
Y21190D01*
Y20800D02*
X33740D01*
Y21190D01*
X32980D02*
X33740D01*
X19680Y26120D02*
X20440D01*
X19680D02*
Y26510D01*
X20440D01*
Y26120D02*
Y26510D01*
X23470Y20820D02*
Y21580D01*
X23860D01*
Y20820D02*
Y21580D01*
X23470Y20820D02*
X23860D01*
X21640Y16560D02*
X22400D01*
Y16170D02*
Y16560D01*
X21640Y16170D02*
X22400D01*
X21640D02*
Y16560D01*
X25508Y29554D02*
Y29944D01*
X24748D02*
X25508D01*
X24748Y29554D02*
Y29944D01*
Y29554D02*
X25508D01*
X25467Y27856D02*
Y28246D01*
Y27856D02*
X26226D01*
Y28246D01*
X25467D02*
X26226D01*
X25467Y28286D02*
Y28676D01*
Y28286D02*
X26226D01*
Y28676D01*
X25467D02*
X26226D01*
X34018Y39036D02*
X34569D01*
X34018Y38032D02*
Y39036D01*
Y38032D02*
X34569D01*
Y39036D01*
X37180Y38730D02*
X37570D01*
Y39490D01*
X37180D02*
X37570D01*
X37180Y38730D02*
Y39490D01*
X30272Y38418D02*
Y39975D01*
X31049Y38418D02*
Y39975D01*
X30272Y38418D02*
X31049D01*
X30272Y39975D02*
X31049D01*
X33153Y39094D02*
X34710D01*
X33153Y39871D02*
X34710D01*
Y39094D02*
Y39871D01*
X33153Y39094D02*
Y39871D01*
X31003Y37064D02*
Y37454D01*
Y37064D02*
X31763D01*
Y37454D01*
X31003D02*
X31763D01*
X750Y19900D02*
Y20290D01*
Y19900D02*
X1510D01*
Y20290D01*
X750D02*
X1510D01*
X26090Y16099D02*
Y16859D01*
X26480D01*
Y16099D02*
Y16859D01*
X26090Y16099D02*
X26480D01*
X28600Y16114D02*
Y16874D01*
X28990D01*
Y16114D02*
Y16874D01*
X28600Y16114D02*
X28990D01*
X31060Y16074D02*
X31450D01*
Y16834D01*
X31060D02*
X31450D01*
X31060Y16074D02*
Y16834D01*
X33590Y16104D02*
X33980D01*
Y16864D01*
X33590D02*
X33980D01*
X33590Y16104D02*
Y16864D01*
X17330Y26990D02*
X17720D01*
Y27750D01*
X17330D02*
X17720D01*
X17330Y26990D02*
Y27750D01*
X15934Y27572D02*
X16486D01*
X15934Y26568D02*
Y27572D01*
Y26568D02*
X16486D01*
Y27572D01*
X14928Y26674D02*
Y27226D01*
Y26674D02*
X15932D01*
Y27226D01*
X14928D02*
X15932D01*
X13820Y24360D02*
X14210D01*
Y25120D01*
X13820D02*
X14210D01*
X13820Y24360D02*
Y25120D01*
X7950Y7640D02*
Y8030D01*
X7190D02*
X7950D01*
X7190Y7640D02*
Y8030D01*
Y7640D02*
X7950D01*
X15060Y7650D02*
Y8040D01*
X14300D02*
X15060D01*
X14300Y7650D02*
Y8040D01*
Y7650D02*
X15060D01*
X29210Y7640D02*
Y8030D01*
X28450D02*
X29210D01*
X28450Y7640D02*
Y8030D01*
Y7640D02*
X29210D01*
X36320D02*
Y8030D01*
X35560D02*
X36320D01*
X35560Y7640D02*
Y8030D01*
Y7640D02*
X36320D01*
X14680Y16100D02*
Y16860D01*
X15070D01*
Y16100D02*
Y16860D01*
X14680Y16100D02*
X15070D01*
X12100Y27980D02*
Y28740D01*
X11710Y27980D02*
X12100D01*
X11710D02*
Y28740D01*
X12100D01*
X6230Y27460D02*
X6990D01*
X6230D02*
Y27850D01*
X6990D01*
Y27460D02*
Y27850D01*
X7000Y28080D02*
Y28840D01*
X6610Y28080D02*
X7000D01*
X6610D02*
Y28840D01*
X7000D01*
X2565Y7580D02*
Y7970D01*
Y7580D02*
X3324D01*
Y7970D01*
X2565D02*
X3324D01*
X9533Y7610D02*
Y8000D01*
Y7610D02*
X10293D01*
Y8000D01*
X9533D02*
X10293D01*
X23710Y7580D02*
Y7970D01*
Y7580D02*
X24470D01*
Y7970D01*
X23710D02*
X24470D01*
X30799Y7580D02*
Y7970D01*
Y7580D02*
X31559D01*
Y7970D01*
X30799D02*
X31559D01*
X20847Y27565D02*
X22404D01*
X20847Y26788D02*
X22404D01*
X20847D02*
Y27565D01*
X22404Y26788D02*
Y27565D01*
X12810Y17030D02*
X14367D01*
X12810Y17807D02*
X14367D01*
Y17030D02*
Y17807D01*
X12810Y17030D02*
Y17807D01*
X9913Y23520D02*
X11470D01*
X9913Y22743D02*
X11470D01*
X9913D02*
Y23520D01*
X11470Y22743D02*
Y23520D01*
X2230Y28200D02*
X2990D01*
X2230D02*
Y28590D01*
X2990D01*
Y28200D02*
Y28590D01*
X2230Y27590D02*
X2990D01*
X2230D02*
Y27980D01*
X2990D01*
Y27590D02*
Y27980D01*
X27240Y20330D02*
Y20720D01*
Y20330D02*
X28000D01*
Y20720D01*
X27240D02*
X28000D01*
X30690Y20330D02*
Y20720D01*
Y20330D02*
X31450D01*
Y20720D01*
X30690D02*
X31450D01*
X34660Y20330D02*
Y20720D01*
Y20330D02*
X35420D01*
Y20720D01*
X34660D02*
X35420D01*
X25650Y20810D02*
Y21200D01*
Y20810D02*
X26410D01*
Y21200D01*
X25650D02*
X26410D01*
X29040Y20330D02*
Y20720D01*
Y20330D02*
X29800D01*
Y20720D01*
X29040D02*
X29800D01*
X32980Y20330D02*
Y20720D01*
Y20330D02*
X33740D01*
Y20720D01*
X32980D02*
X33740D01*
X7950Y8040D02*
Y8430D01*
X7190D02*
X7950D01*
X7190Y8040D02*
Y8430D01*
Y8040D02*
X7950D01*
X15060D02*
Y8430D01*
X14300D02*
X15060D01*
X14300Y8040D02*
Y8430D01*
Y8040D02*
X15060D01*
X29210Y8030D02*
Y8420D01*
X28450D02*
X29210D01*
X28450Y8030D02*
Y8420D01*
Y8030D02*
X29210D01*
X36320Y8040D02*
Y8430D01*
X35560D02*
X36320D01*
X35560Y8040D02*
Y8430D01*
Y8040D02*
X36320D01*
X7950Y7250D02*
Y7640D01*
X7190D02*
X7950D01*
X7190Y7250D02*
Y7640D01*
Y7250D02*
X7950D01*
X15060Y7260D02*
Y7650D01*
X14300D02*
X15060D01*
X14300Y7260D02*
Y7650D01*
Y7260D02*
X15060D01*
X27470Y8800D02*
X27860D01*
X27470Y8040D02*
Y8800D01*
Y8040D02*
X27860D01*
Y8800D01*
X34550D02*
X34940D01*
X34550Y8040D02*
Y8800D01*
Y8040D02*
X34940D01*
Y8800D01*
X1411Y8017D02*
X1802D01*
Y8777D01*
X1411D02*
X1802D01*
X1411Y8017D02*
Y8777D01*
X8380Y8017D02*
X8770D01*
Y8777D01*
X8380D02*
X8770D01*
X8380Y8017D02*
Y8777D01*
X22557Y8017D02*
X22947D01*
Y8777D01*
X22557D02*
X22947D01*
X22557Y8017D02*
Y8777D01*
X29646Y8017D02*
X30036D01*
Y8777D01*
X29646D02*
X30036D01*
X29646Y8017D02*
Y8777D01*
X5274Y11220D02*
Y11980D01*
X5665D01*
Y11220D02*
Y11980D01*
X5274Y11220D02*
X5665D01*
X12263D02*
Y11980D01*
X12653D01*
Y11220D02*
Y11980D01*
X12263Y11220D02*
X12653D01*
X26440D02*
Y11980D01*
X26830D01*
Y11220D02*
Y11980D01*
X26440Y11220D02*
X26830D01*
X33530D02*
Y11980D01*
X33920D01*
Y11220D02*
Y11980D01*
X33530Y11220D02*
X33920D01*
X5244Y11220D02*
Y11980D01*
X4854Y11220D02*
X5244D01*
X4854D02*
Y11980D01*
X5244D01*
X12233Y11220D02*
Y11980D01*
X11843Y11220D02*
X12233D01*
X11843D02*
Y11980D01*
X12233D01*
X26410Y11220D02*
Y11980D01*
X26020Y11220D02*
X26410D01*
X26020D02*
Y11980D01*
X26410D01*
X33500Y11220D02*
Y11980D01*
X33110Y11220D02*
X33500D01*
X33110D02*
Y11980D01*
X33500D01*
X3898Y36746D02*
X4902D01*
Y36194D02*
Y36746D01*
X3898Y36194D02*
X4902D01*
X3898D02*
Y36746D01*
X5160Y31070D02*
Y31830D01*
X5550D01*
Y31070D02*
Y31830D01*
X5160Y31070D02*
X5550D01*
X4780Y31860D02*
X5540D01*
X4780D02*
Y32250D01*
X5540D01*
Y31860D02*
Y32250D01*
X7020Y32240D02*
X7410D01*
X7020Y31480D02*
Y32240D01*
Y31480D02*
X7410D01*
Y32240D01*
X16218Y36194D02*
X17222D01*
X16218D02*
Y36746D01*
X17222D01*
Y36194D02*
Y36746D01*
X18050Y33820D02*
Y34580D01*
X18440D01*
Y33820D02*
Y34580D01*
X18050Y33820D02*
X18440D01*
X18440Y34600D02*
Y35360D01*
X18050Y34600D02*
X18440D01*
X18050D02*
Y35360D01*
X18440D01*
X5918Y36194D02*
X6922D01*
X5918D02*
Y36746D01*
X6922D01*
Y36194D02*
Y36746D01*
X6765Y32553D02*
Y33313D01*
X7155D01*
Y32553D02*
Y33313D01*
X6765Y32553D02*
X7155D01*
X23428Y27425D02*
Y28185D01*
X23038Y27425D02*
X23428D01*
X23038D02*
Y28185D01*
X23428D01*
X9948Y36194D02*
X10952D01*
X9948D02*
Y36746D01*
X10952D01*
Y36194D02*
Y36746D01*
X10790Y32553D02*
Y33313D01*
X11180D01*
Y32553D02*
Y33313D01*
X10790Y32553D02*
X11180D01*
X25466Y26896D02*
X26226D01*
X25466D02*
Y27287D01*
X26226D01*
Y26896D02*
Y27287D01*
X13948Y36194D02*
X14952D01*
X13948D02*
Y36746D01*
X14952D01*
Y36194D02*
Y36746D01*
X14800Y32570D02*
Y33330D01*
X15190D01*
Y32570D02*
Y33330D01*
X14800Y32570D02*
X15190D01*
X24186Y29216D02*
Y29976D01*
X23796Y29216D02*
X24186D01*
X23796D02*
Y29976D01*
X24186D01*
X23400Y31326D02*
X24159D01*
X23400D02*
Y31716D01*
X24159D01*
Y31326D02*
Y31716D01*
X23448Y36746D02*
X24452D01*
Y36194D02*
Y36746D01*
X23448Y36194D02*
X24452D01*
X23448D02*
Y36746D01*
X20780Y8790D02*
X21170D01*
X20780Y8030D02*
Y8790D01*
Y8030D02*
X21170D01*
Y8790D01*
X15471Y8017D02*
Y8777D01*
X15861D01*
Y8017D02*
Y8777D01*
X15471Y8017D02*
X15861D01*
X19354Y11220D02*
Y11980D01*
X19744D01*
Y11220D02*
Y11980D01*
X19354Y11220D02*
X19744D01*
X19324Y11220D02*
Y11980D01*
X18934Y11220D02*
X19324D01*
X18934D02*
Y11980D01*
X19324D01*
X2230Y29210D02*
X2990D01*
Y28820D02*
Y29210D01*
X2230Y28820D02*
X2990D01*
X2230D02*
Y29210D01*
X30243Y38134D02*
X31003D01*
X30243D02*
Y38524D01*
X31003D01*
Y38134D02*
Y38524D01*
X30980Y37340D02*
Y38100D01*
X30590Y37340D02*
X30980D01*
X30590D02*
Y38100D01*
X30980D01*
X5981Y19128D02*
Y19888D01*
X6371D01*
Y19128D02*
Y19888D01*
X5981Y19128D02*
X6371D01*
X37366Y16138D02*
Y17142D01*
X36814Y16138D02*
X37366D01*
X36814D02*
Y17142D01*
X37366D01*
X750Y19890D02*
X1510D01*
Y19500D02*
Y19890D01*
X750Y19500D02*
X1510D01*
X750D02*
Y19890D01*
X26538Y16769D02*
X27542D01*
X26538D02*
Y17320D01*
X27542D01*
Y16769D02*
Y17320D01*
X29048Y16784D02*
X30052D01*
X29048D02*
Y17336D01*
X30052D01*
Y16784D02*
Y17336D01*
X31508Y17296D02*
X32512D01*
X31508Y16744D02*
Y17296D01*
Y16744D02*
X32512D01*
Y17296D01*
X34038Y16774D02*
X35042D01*
X34038D02*
Y17326D01*
X35042D01*
Y16774D02*
Y17326D01*
X26538Y16019D02*
X27542D01*
X26538D02*
Y16570D01*
X27542D01*
Y16019D02*
Y16570D01*
X29048Y16034D02*
X30052D01*
X29048D02*
Y16586D01*
X30052D01*
Y16034D02*
Y16586D01*
X31508Y16546D02*
X32512D01*
X31508Y15994D02*
Y16546D01*
Y15994D02*
X32512D01*
Y16546D01*
X34038Y16024D02*
X35042D01*
X34038D02*
Y16576D01*
X35042D01*
Y16024D02*
Y16576D01*
X12750Y24770D02*
X13140D01*
Y25530D01*
X12750D02*
X13140D01*
X12750Y24770D02*
Y25530D01*
X14130Y21620D02*
Y22010D01*
X13370D02*
X14130D01*
X13370Y21620D02*
Y22010D01*
Y21620D02*
X14130D01*
X12760Y26460D02*
X13150D01*
X12760Y25700D02*
Y26460D01*
Y25700D02*
X13150D01*
Y26460D01*
X13800Y24370D02*
Y25130D01*
X13410Y24370D02*
X13800D01*
X13410D02*
Y25130D01*
X13800D01*
X12520Y25150D02*
Y25540D01*
X11760D02*
X12520D01*
X11760Y25150D02*
Y25540D01*
Y25150D02*
X12520D01*
X6980Y25970D02*
Y26360D01*
X6220D02*
X6980D01*
X6220Y25970D02*
Y26360D01*
Y25970D02*
X6980D01*
X12530Y25700D02*
Y26090D01*
X11770D02*
X12530D01*
X11770Y25700D02*
Y26090D01*
Y25700D02*
X12530D01*
X6980Y25530D02*
Y25920D01*
X6220D02*
X6980D01*
X6220Y25530D02*
Y25920D01*
Y25530D02*
X6980D01*
X1740Y25520D02*
Y26280D01*
X1350Y25520D02*
X1740D01*
X1350D02*
Y26280D01*
X1740D01*
X20928Y26224D02*
X21932D01*
X20928D02*
Y26776D01*
X21932D01*
Y26224D02*
Y26776D01*
X910Y25520D02*
X1300D01*
Y26280D01*
X910D02*
X1300D01*
X910Y25520D02*
Y26280D01*
X13078Y18346D02*
X14082D01*
Y17794D02*
Y18346D01*
X13078Y17794D02*
X14082D01*
X13078D02*
Y18346D01*
X7228Y19934D02*
Y20486D01*
Y19934D02*
X8232D01*
Y20486D01*
X7228D02*
X8232D01*
X5971Y20132D02*
Y20892D01*
X6361D01*
Y20132D02*
Y20892D01*
X5971Y20132D02*
X6361D01*
X5204Y19128D02*
Y19888D01*
X5594D01*
Y19128D02*
Y19888D01*
X5204Y19128D02*
X5594D01*
X3581Y19130D02*
Y19890D01*
X3191Y19130D02*
X3581D01*
X3191D02*
Y19890D01*
X3581D01*
X4787Y19128D02*
Y19888D01*
X4396Y19128D02*
X4787D01*
X4396D02*
Y19888D01*
X4787D01*
X22140Y8034D02*
Y8424D01*
X21380D02*
X22140D01*
X21380Y8034D02*
Y8424D01*
Y8034D02*
X22140D01*
X30790Y36710D02*
X31180D01*
X30790Y35950D02*
Y36710D01*
Y35950D02*
X31180D01*
Y36710D01*
X31333Y35950D02*
X31723D01*
Y36710D01*
X31333D02*
X31723D01*
X31333Y35950D02*
Y36710D01*
D292*
X25157Y26969D02*
Y28642D01*
X23484Y26969D02*
Y28642D01*
X25157D01*
X23484Y26969D02*
X25157D01*
X5591Y19183D02*
Y19892D01*
X5984Y19183D02*
Y19892D01*
X5591Y19183D02*
X5984D01*
X5591Y19892D02*
X5984D01*
X4813Y19183D02*
Y19892D01*
X5207Y19183D02*
Y19892D01*
X4813Y19183D02*
X5207D01*
X4813Y19892D02*
X5207D01*
X6467Y20118D02*
Y20827D01*
X6860Y20118D02*
Y20827D01*
X6467Y20118D02*
X6860D01*
X6467Y20827D02*
X6860D01*
X5551Y20108D02*
Y20817D01*
X5945Y20108D02*
Y20817D01*
X5551Y20108D02*
X5945D01*
X5551Y20817D02*
X5945D01*
X3996Y19183D02*
Y19892D01*
X4390Y19183D02*
Y19892D01*
X3996Y19183D02*
X4390D01*
X3996Y19892D02*
X4390D01*
X3593Y19183D02*
Y19892D01*
X3986Y19183D02*
Y19892D01*
X3593Y19183D02*
X3986D01*
X3593Y19892D02*
X3986D01*
X4284Y26363D02*
X4776D01*
Y25693D02*
Y26363D01*
X4284Y25693D02*
X4776D01*
X4284D02*
Y26363D01*
X25502Y30443D02*
Y31841D01*
X24203Y30443D02*
Y31841D01*
X25502D01*
X24203Y30443D02*
X25502D01*
X15213Y34190D02*
X16611D01*
X15213Y32890D02*
X16611D01*
X15213D02*
Y34190D01*
X16611Y32890D02*
Y34190D01*
X11207Y34183D02*
X12604D01*
X11207Y32884D02*
X12604D01*
X11207D02*
Y34183D01*
X12604Y32884D02*
Y34183D01*
X7191D02*
X8589D01*
X7191Y32884D02*
X8589D01*
X7191D02*
Y34183D01*
X8589Y32884D02*
Y34183D01*
X5574Y32228D02*
X6972D01*
X5574Y30929D02*
X6972D01*
X5574D02*
Y32228D01*
X6972Y30929D02*
Y32228D01*
X26063Y34014D02*
X27637D01*
X26063Y33226D02*
X27637D01*
X26063D02*
Y34014D01*
X27637Y33226D02*
Y34014D01*
X28060Y20813D02*
X28769D01*
X28060Y21207D02*
X28769D01*
Y20813D02*
Y21207D01*
X28060Y20813D02*
Y21207D01*
X31520Y20813D02*
Y21207D01*
X32229Y20813D02*
Y21207D01*
X31520D02*
X32229D01*
X31520Y20813D02*
X32229D01*
X35490D02*
X36199D01*
X35490Y21207D02*
X36199D01*
Y20813D02*
Y21207D01*
X35490Y20813D02*
Y21207D01*
X26440Y20813D02*
Y21207D01*
X27149Y20813D02*
Y21207D01*
X26440D02*
X27149D01*
X26440Y20813D02*
X27149D01*
X29870D02*
X30579D01*
X29870Y21207D02*
X30579D01*
Y20813D02*
Y21207D01*
X29870Y20813D02*
Y21207D01*
X33830Y20813D02*
Y21207D01*
X34539Y20813D02*
Y21207D01*
X33830D02*
X34539D01*
X33830Y20813D02*
X34539D01*
X2247Y8035D02*
X6302D01*
X2247Y11145D02*
X6302D01*
X2247Y8035D02*
Y11145D01*
X6302Y8035D02*
Y11145D01*
X13271Y8035D02*
Y11145D01*
X9215Y8035D02*
Y11145D01*
X13271D01*
X9215Y8035D02*
X13271D01*
X16307D02*
X20362D01*
X16307Y11145D02*
X20362D01*
X16307Y8035D02*
Y11145D01*
X20362Y8035D02*
Y11145D01*
X27448Y8035D02*
Y11145D01*
X23393Y8035D02*
Y11145D01*
X27448D01*
X23393Y8035D02*
X27448D01*
X30481D02*
X34536D01*
X30481Y11145D02*
X34536D01*
X30481Y8035D02*
Y11145D01*
X34536Y8035D02*
Y11145D01*
X32667Y27286D02*
Y28074D01*
X31093Y27286D02*
Y28074D01*
Y27286D02*
X32667D01*
X31093Y28074D02*
X32667D01*
X39037Y9626D02*
Y10414D01*
X37463Y9626D02*
Y10414D01*
Y9626D02*
X39037D01*
X37463Y10414D02*
X39037D01*
X31146Y39031D02*
Y39818D01*
X32721Y39031D02*
Y39818D01*
X31146D02*
X32721D01*
X31146Y39031D02*
X32721D01*
X17155Y30860D02*
X20025D01*
Y27760D02*
Y30860D01*
X17155Y27760D02*
X20025D01*
X17155D02*
Y30860D01*
X18590Y29113D02*
Y29507D01*
X18393Y29310D02*
X18787D01*
X34802Y37394D02*
X37125D01*
X34802Y39835D02*
X37125D01*
X34802Y37394D02*
Y39835D01*
X37125Y37394D02*
Y39835D01*
X4323Y4282D02*
X5740D01*
X4323Y7038D02*
X5740D01*
X4323Y4282D02*
Y7038D01*
X5740Y4282D02*
Y7038D01*
X11291Y4282D02*
X12709D01*
X11291Y7038D02*
X12709D01*
X11291Y4282D02*
Y7038D01*
X12709Y4282D02*
Y7038D01*
X25469Y4282D02*
X26886D01*
X25469Y7038D02*
X26886D01*
X25469Y4282D02*
Y7038D01*
X26886Y4282D02*
Y7038D01*
X32557Y4282D02*
X33974D01*
X32557Y7038D02*
X33974D01*
X32557Y4282D02*
Y7038D01*
X33974Y4282D02*
Y7038D01*
X2803Y4282D02*
X4220D01*
X2803Y7038D02*
X4220D01*
X2803Y4282D02*
Y7038D01*
X4220Y4282D02*
Y7038D01*
X9771Y4282D02*
X11189D01*
X9771Y7038D02*
X11189D01*
X9771Y4282D02*
Y7038D01*
X11189Y4282D02*
Y7038D01*
X23949Y4282D02*
X25366D01*
X23949Y7038D02*
X25366D01*
X23949Y4282D02*
Y7038D01*
X25366Y4282D02*
Y7038D01*
X31037Y4282D02*
X32454D01*
X31037Y7038D02*
X32454D01*
X31037Y4282D02*
Y7038D01*
X32454Y4282D02*
Y7038D01*
X31835Y35666D02*
X34591D01*
X31835Y37083D02*
X34591D01*
Y35666D02*
Y37083D01*
X31835Y35666D02*
Y37083D01*
X14244Y16865D02*
Y26077D01*
X23456Y16865D02*
Y26077D01*
X14244Y16865D02*
X23456D01*
X14244Y26077D02*
X23456D01*
X31201Y37536D02*
Y38953D01*
X33425Y37536D02*
Y38953D01*
X31201D02*
X33425D01*
X31201Y37536D02*
X33425D01*
X6998Y24745D02*
X11702D01*
X6998Y29075D02*
X11702D01*
Y24745D02*
Y29075D01*
X6998Y24745D02*
Y29075D01*
X28363Y13227D02*
X31257D01*
X28363Y15353D02*
X31257D01*
Y13227D02*
Y15353D01*
X28363Y13227D02*
Y15353D01*
X18481Y35080D02*
X19879D01*
X18481Y33780D02*
X19879D01*
X18481D02*
Y35080D01*
X19879Y33780D02*
Y35080D01*
X16863Y4282D02*
X18280D01*
X16863Y7038D02*
X18280D01*
X16863Y4282D02*
Y7038D01*
X18280Y4282D02*
Y7038D01*
X18383Y4282D02*
X19800D01*
X18383Y7038D02*
X19800D01*
X18383Y4282D02*
Y7038D01*
X19800Y4282D02*
Y7038D01*
M02*
