G04 Layer_Color=128*
%FSLAX24Y24*%
%MOIN*%
G70*
G01*
G75*
%ADD121C,0.0050*%
D121*
X4525Y38520D02*
X5075D01*
X4800Y38245D02*
Y38795D01*
X6525Y38520D02*
X7075D01*
X6800Y38245D02*
Y38795D01*
X8525Y38520D02*
X9075D01*
X8800Y38245D02*
Y38795D01*
X10525Y38520D02*
X11075D01*
X10800Y38245D02*
Y38795D01*
X12525Y38520D02*
X13075D01*
X12800Y38245D02*
Y38795D01*
X14525Y38520D02*
X15075D01*
X14800Y38245D02*
Y38795D01*
X16525Y38520D02*
X17075D01*
X16800Y38245D02*
Y38795D01*
X18525Y38520D02*
X19075D01*
X18800Y38245D02*
Y38795D01*
X20525Y38520D02*
X21075D01*
X20800Y38245D02*
Y38795D01*
X22525Y38520D02*
X23075D01*
X22800Y38245D02*
Y38795D01*
X17203Y32030D02*
X17557D01*
X17380Y31853D02*
Y32207D01*
X17203Y33030D02*
X17557D01*
X17380Y32853D02*
Y33207D01*
X18203Y32030D02*
X18557D01*
X18380Y31853D02*
Y32207D01*
X18203Y33030D02*
X18557D01*
X18380Y32853D02*
Y33207D01*
X19203Y32030D02*
X19557D01*
X19380Y31853D02*
Y32207D01*
X19203Y33030D02*
X19557D01*
X19380Y32853D02*
Y33207D01*
X20203Y32030D02*
X20557D01*
X20380Y31853D02*
Y32207D01*
X20203Y33030D02*
X20557D01*
X20380Y32853D02*
Y33207D01*
X20900Y14430D02*
X22200D01*
X21550Y13780D02*
Y15080D01*
X3040Y31050D02*
X4340D01*
X3690Y30400D02*
Y31700D01*
X830Y11690D02*
X2130D01*
X1480Y11040D02*
Y12340D01*
X35450Y14550D02*
X35850D01*
X35650Y14350D02*
Y14750D01*
X34450Y14550D02*
X34850D01*
X34650Y14350D02*
Y14750D01*
X33450Y14550D02*
X33850D01*
X33650Y14350D02*
Y14750D01*
X32450Y14550D02*
X32850D01*
X32650Y14350D02*
Y14750D01*
X36450Y14550D02*
X36850D01*
X36650Y14350D02*
Y14750D01*
X18833Y15060D02*
X19187D01*
X19010Y14883D02*
Y15237D01*
X18833Y14060D02*
X19187D01*
X19010Y13883D02*
Y14237D01*
X17833Y15060D02*
X18187D01*
X18010Y14883D02*
Y15237D01*
X17833Y14060D02*
X18187D01*
X18010Y13883D02*
Y14237D01*
X16833Y15060D02*
X17187D01*
X17010Y14883D02*
Y15237D01*
X16833Y14060D02*
X17187D01*
X17010Y13883D02*
Y14237D01*
X15833Y15060D02*
X16187D01*
X16010Y14883D02*
Y15237D01*
X15833Y14060D02*
X16187D01*
X16010Y13883D02*
Y14237D01*
X14833Y15060D02*
X15187D01*
X15010Y14883D02*
Y15237D01*
X14833Y14060D02*
X15187D01*
X15010Y13883D02*
Y14237D01*
X13833Y15060D02*
X14187D01*
X14010Y14883D02*
Y15237D01*
X13833Y14060D02*
X14187D01*
X14010Y13883D02*
Y14237D01*
X12833Y15060D02*
X13187D01*
X13010Y14883D02*
Y15237D01*
X12833Y14060D02*
X13187D01*
X13010Y13883D02*
Y14237D01*
X11833Y15060D02*
X12187D01*
X12010Y14883D02*
Y15237D01*
X11833Y14060D02*
X12187D01*
X12010Y13883D02*
Y14237D01*
X10833Y15060D02*
X11187D01*
X11010Y14883D02*
Y15237D01*
X10833Y14060D02*
X11187D01*
X11010Y13883D02*
Y14237D01*
X9833Y15060D02*
X10187D01*
X10010Y14883D02*
Y15237D01*
X9833Y14060D02*
X10187D01*
X10010Y13883D02*
Y14237D01*
X8833Y15060D02*
X9187D01*
X9010Y14883D02*
Y15237D01*
X8833Y14060D02*
X9187D01*
X9010Y13883D02*
Y14237D01*
X7833Y15060D02*
X8187D01*
X8010Y14883D02*
Y15237D01*
X7833Y14060D02*
X8187D01*
X8010Y13883D02*
Y14237D01*
X725Y800D02*
X875D01*
X800Y725D02*
Y875D01*
X2125Y800D02*
X2275D01*
X2200Y725D02*
Y875D01*
X2125Y2200D02*
X2275D01*
X2200Y2125D02*
Y2275D01*
X725Y2200D02*
X875D01*
X800Y2125D02*
Y2275D01*
X425Y1500D02*
X575D01*
X500Y1425D02*
Y1575D01*
X2425Y1500D02*
X2575D01*
X2500Y1425D02*
Y1575D01*
X1425Y2500D02*
X1575D01*
X1500Y2425D02*
Y2575D01*
X1425Y500D02*
X1575D01*
X1500Y425D02*
Y575D01*
X909Y1500D02*
X2091D01*
X1500Y909D02*
Y2091D01*
X725Y38300D02*
X875D01*
X800Y38225D02*
Y38375D01*
X2125Y38300D02*
X2275D01*
X2200Y38225D02*
Y38375D01*
X2125Y39700D02*
X2275D01*
X2200Y39625D02*
Y39775D01*
X725Y39700D02*
X875D01*
X800Y39625D02*
Y39775D01*
X425Y39000D02*
X575D01*
X500Y38925D02*
Y39075D01*
X2425Y39000D02*
X2575D01*
X2500Y38925D02*
Y39075D01*
X1425Y40000D02*
X1575D01*
X1500Y39925D02*
Y40075D01*
X1425Y38000D02*
X1575D01*
X1500Y37925D02*
Y38075D01*
X909Y39000D02*
X2091D01*
X1500Y38409D02*
Y39591D01*
X38725Y38300D02*
X38875D01*
X38800Y38225D02*
Y38375D01*
X40125Y38300D02*
X40275D01*
X40200Y38225D02*
Y38375D01*
X40125Y39700D02*
X40275D01*
X40200Y39625D02*
Y39775D01*
X38725Y39700D02*
X38875D01*
X38800Y39625D02*
Y39775D01*
X38425Y39000D02*
X38575D01*
X38500Y38925D02*
Y39075D01*
X40425Y39000D02*
X40575D01*
X40500Y38925D02*
Y39075D01*
X39425Y40000D02*
X39575D01*
X39500Y39925D02*
Y40075D01*
X39425Y38000D02*
X39575D01*
X39500Y37925D02*
Y38075D01*
X38909Y39000D02*
X40091D01*
X39500Y38409D02*
Y39591D01*
X1040Y35450D02*
X1440D01*
X1240Y35250D02*
Y35650D01*
X2040Y35450D02*
X2440D01*
X2240Y35250D02*
Y35650D01*
X38725Y800D02*
X38875D01*
X38800Y725D02*
Y875D01*
X40125Y800D02*
X40275D01*
X40200Y725D02*
Y875D01*
X40125Y2200D02*
X40275D01*
X40200Y2125D02*
Y2275D01*
X38725Y2200D02*
X38875D01*
X38800Y2125D02*
Y2275D01*
X38425Y1500D02*
X38575D01*
X38500Y1425D02*
Y1575D01*
X40425Y1500D02*
X40575D01*
X40500Y1425D02*
Y1575D01*
X39425Y2500D02*
X39575D01*
X39500Y2425D02*
Y2575D01*
X39425Y500D02*
X39575D01*
X39500Y425D02*
Y575D01*
X38909Y1500D02*
X40091D01*
X39500Y909D02*
Y2091D01*
X31885Y25490D02*
X32285D01*
X32085Y25290D02*
Y25690D01*
X30885Y25490D02*
X31285D01*
X31085Y25290D02*
Y25690D01*
X29885Y25490D02*
X30285D01*
X30085Y25290D02*
Y25690D01*
X34020Y25490D02*
X34420D01*
X34220Y25290D02*
Y25690D01*
X35020Y25490D02*
X35420D01*
X35220Y25290D02*
Y25690D01*
X36020Y25490D02*
X36420D01*
X36220Y25290D02*
Y25690D01*
X27750Y25490D02*
X28150D01*
X27950Y25290D02*
Y25690D01*
X26750Y25490D02*
X27150D01*
X26950Y25290D02*
Y25690D01*
X25750Y25490D02*
X26150D01*
X25950Y25290D02*
Y25690D01*
X36020Y23090D02*
X36420D01*
X36220Y22890D02*
Y23290D01*
X35020Y23090D02*
X35420D01*
X35220Y22890D02*
Y23290D01*
X34020Y23090D02*
X34420D01*
X34220Y22890D02*
Y23290D01*
X29885Y23090D02*
X30285D01*
X30085Y22890D02*
Y23290D01*
X30885Y23090D02*
X31285D01*
X31085Y22890D02*
Y23290D01*
X31885Y23090D02*
X32285D01*
X32085Y22890D02*
Y23290D01*
X27750Y23090D02*
X28150D01*
X27950Y22890D02*
Y23290D01*
X26750Y23090D02*
X27150D01*
X26950Y22890D02*
Y23290D01*
X25750Y23090D02*
X26150D01*
X25950Y22890D02*
Y23290D01*
X30445Y32930D02*
X31075D01*
X30760Y32615D02*
Y33245D01*
X30445Y34270D02*
X31075D01*
X30760Y33955D02*
Y34585D01*
X35745Y34270D02*
X36375D01*
X36060Y33955D02*
Y34585D01*
X35745Y32930D02*
X36375D01*
X36060Y32615D02*
Y33245D01*
X30445Y29030D02*
X31075D01*
X30760Y28715D02*
Y29345D01*
X30445Y30370D02*
X31075D01*
X30760Y30055D02*
Y30685D01*
X35745Y30370D02*
X36375D01*
X36060Y30055D02*
Y30685D01*
X35745Y29030D02*
X36375D01*
X36060Y28715D02*
Y29345D01*
X39528Y20288D02*
X40158D01*
X39843Y19973D02*
Y20603D01*
X38188Y20288D02*
X38818D01*
X38503Y19973D02*
Y20603D01*
X38188Y14988D02*
X38818D01*
X38503Y14673D02*
Y15303D01*
X39528Y14988D02*
X40158D01*
X39843Y14673D02*
Y15303D01*
X21400Y1450D02*
X21800D01*
X21600Y1250D02*
Y1650D01*
X22400Y1450D02*
X22800D01*
X22600Y1250D02*
Y1650D01*
X23400Y1450D02*
X23800D01*
X23600Y1250D02*
Y1650D01*
X24400Y1450D02*
X24800D01*
X24600Y1250D02*
Y1650D01*
X16300Y1450D02*
X16700D01*
X16500Y1250D02*
Y1650D01*
X17300Y1450D02*
X17700D01*
X17500Y1250D02*
Y1650D01*
X18300Y1450D02*
X18700D01*
X18500Y1250D02*
Y1650D01*
X19300Y1450D02*
X19700D01*
X19500Y1250D02*
Y1650D01*
X25930Y18630D02*
X26330D01*
X26130Y18430D02*
Y18830D01*
X26930Y18630D02*
X27330D01*
X27130Y18430D02*
Y18830D01*
X29100Y18630D02*
X29500D01*
X29300Y18430D02*
Y18830D01*
X30100Y18630D02*
X30500D01*
X30300Y18430D02*
Y18830D01*
X32250Y18630D02*
X32650D01*
X32450Y18430D02*
Y18830D01*
X33250Y18630D02*
X33650D01*
X33450Y18430D02*
Y18830D01*
X35380Y18630D02*
X35780D01*
X35580Y18430D02*
Y18830D01*
X36380Y18630D02*
X36780D01*
X36580Y18430D02*
Y18830D01*
X2065Y20630D02*
X2935D01*
X2500Y20195D02*
Y21065D01*
X2065Y25362D02*
X2935D01*
X2500Y24927D02*
Y25797D01*
X3380Y22500D02*
X3760D01*
X3570Y22310D02*
Y22690D01*
X3380Y23492D02*
X3760D01*
X3570Y23302D02*
Y23682D01*
X4170Y23492D02*
X4550D01*
X4360Y23302D02*
Y23682D01*
X4170Y22500D02*
X4550D01*
X4360Y22310D02*
Y22690D01*
X7350Y1450D02*
X7750D01*
X7550Y1250D02*
Y1650D01*
X6350Y1450D02*
X6750D01*
X6550Y1250D02*
Y1650D01*
X5350Y1450D02*
X5750D01*
X5550Y1250D02*
Y1650D01*
X4350Y1450D02*
X4750D01*
X4550Y1250D02*
Y1650D01*
X13250Y1450D02*
X13650D01*
X13450Y1250D02*
Y1650D01*
X12250Y1450D02*
X12650D01*
X12450Y1250D02*
Y1650D01*
X11250Y1450D02*
X11650D01*
X11450Y1250D02*
Y1650D01*
X10250Y1450D02*
X10650D01*
X10450Y1250D02*
Y1650D01*
X30300Y1450D02*
X30700D01*
X30500Y1250D02*
Y1650D01*
X29300Y1450D02*
X29700D01*
X29500Y1250D02*
Y1650D01*
X28300Y1450D02*
X28700D01*
X28500Y1250D02*
Y1650D01*
X27300Y1450D02*
X27700D01*
X27500Y1250D02*
Y1650D01*
X36250Y1450D02*
X36650D01*
X36450Y1250D02*
Y1650D01*
X35250Y1450D02*
X35650D01*
X35450Y1250D02*
Y1650D01*
X34250Y1450D02*
X34650D01*
X34450Y1250D02*
Y1650D01*
X33250Y1450D02*
X33650D01*
X33450Y1250D02*
Y1650D01*
X1545Y29970D02*
X2135D01*
X1840Y29675D02*
Y30265D01*
X1545Y32730D02*
X2135D01*
X1840Y32435D02*
Y33025D01*
X660Y30460D02*
X1060D01*
X860Y30260D02*
Y30660D01*
X660Y32240D02*
X1060D01*
X860Y32040D02*
Y32440D01*
X38675Y29825D02*
X39225D01*
X38950Y29550D02*
Y30100D01*
X38675Y31825D02*
X39225D01*
X38950Y31550D02*
Y32100D01*
X38675Y33825D02*
X39225D01*
X38950Y33550D02*
Y34100D01*
X38675Y27825D02*
X39225D01*
X38950Y27550D02*
Y28100D01*
X38675Y25825D02*
X39225D01*
X38950Y25550D02*
Y26100D01*
X38675Y23825D02*
X39225D01*
X38950Y23550D02*
Y24100D01*
X38980Y7550D02*
X39380D01*
X39180Y7350D02*
Y7750D01*
X38980Y6550D02*
X39380D01*
X39180Y6350D02*
Y6750D01*
X38980Y5550D02*
X39380D01*
X39180Y5350D02*
Y5750D01*
X38980Y4550D02*
X39380D01*
X39180Y4350D02*
Y4750D01*
X7833Y18300D02*
X8187D01*
X8010Y18123D02*
Y18477D01*
X7833Y19300D02*
X8187D01*
X8010Y19123D02*
Y19477D01*
X8833Y18300D02*
X9187D01*
X9010Y18123D02*
Y18477D01*
X8833Y19300D02*
X9187D01*
X9010Y19123D02*
Y19477D01*
X9833Y18300D02*
X10187D01*
X10010Y18123D02*
Y18477D01*
X9833Y19300D02*
X10187D01*
X10010Y19123D02*
Y19477D01*
X10833Y18300D02*
X11187D01*
X11010Y18123D02*
Y18477D01*
X10833Y19300D02*
X11187D01*
X11010Y19123D02*
Y19477D01*
X11833Y18300D02*
X12187D01*
X12010Y18123D02*
Y18477D01*
X11833Y19300D02*
X12187D01*
X12010Y19123D02*
Y19477D01*
X7833Y21150D02*
X8187D01*
X8010Y20973D02*
Y21327D01*
X7833Y22150D02*
X8187D01*
X8010Y21973D02*
Y22327D01*
X8833Y21150D02*
X9187D01*
X9010Y20973D02*
Y21327D01*
X8833Y22150D02*
X9187D01*
X9010Y21973D02*
Y22327D01*
X9833Y21150D02*
X10187D01*
X10010Y20973D02*
Y21327D01*
X9833Y22150D02*
X10187D01*
X10010Y21973D02*
Y22327D01*
X10833Y21150D02*
X11187D01*
X11010Y20973D02*
Y21327D01*
X10833Y22150D02*
X11187D01*
X11010Y21973D02*
Y22327D01*
X11833Y21150D02*
X12187D01*
X12010Y20973D02*
Y21327D01*
X11833Y22150D02*
X12187D01*
X12010Y21973D02*
Y22327D01*
X18825Y32340D02*
X18975D01*
X18900Y32265D02*
Y32415D01*
X8325Y32240D02*
X8475D01*
X8400Y32165D02*
Y32315D01*
X7465Y30820D02*
X7615D01*
X7540Y30745D02*
Y30895D01*
X7625Y31960D02*
X7775D01*
X7700Y31885D02*
Y32035D01*
X16745Y31670D02*
X16895D01*
X16820Y31595D02*
Y31745D01*
X20177Y30318D02*
X20327D01*
X20252Y30243D02*
Y30393D01*
X20395Y33660D02*
X20545D01*
X20470Y33585D02*
Y33735D01*
X18065Y38130D02*
X18215D01*
X18140Y38055D02*
Y38205D01*
X18065Y38900D02*
X18215D01*
X18140Y38825D02*
Y38975D01*
X19405Y38920D02*
X19555D01*
X19480Y38845D02*
Y38995D01*
X19395Y38120D02*
X19545D01*
X19470Y38045D02*
Y38195D01*
X18065Y38510D02*
X18215D01*
X18140Y38435D02*
Y38585D01*
X19385Y38510D02*
X19535D01*
X19460Y38435D02*
Y38585D01*
X34571Y12303D02*
X34721D01*
X34646Y12228D02*
Y12378D01*
X34925Y12000D02*
X35075D01*
X35000Y11925D02*
Y12075D01*
X2925Y26510D02*
X3075D01*
X3000Y26435D02*
Y26585D01*
X5195Y26850D02*
X5345D01*
X5270Y26775D02*
Y26925D01*
X24487Y28022D02*
X24587D01*
X24537Y27972D02*
Y28072D01*
X24487Y27589D02*
X24587D01*
X24537Y27539D02*
Y27639D01*
X24054Y28022D02*
X24154D01*
X24104Y27972D02*
Y28072D01*
X24054Y27589D02*
X24154D01*
X24104Y27539D02*
Y27639D01*
X19039Y12057D02*
X19189D01*
X19114Y11982D02*
Y12132D01*
X18764Y30108D02*
X18914D01*
X18839Y30033D02*
Y30183D01*
X427Y19744D02*
X577D01*
X502Y19669D02*
Y19819D01*
X1555Y20090D02*
X1705D01*
X1630Y20015D02*
Y20165D01*
X4443Y19971D02*
X4593D01*
X4518Y19896D02*
Y20046D01*
X4958Y19970D02*
X5108D01*
X5033Y19895D02*
Y20045D01*
X38173Y12589D02*
X38323D01*
X38248Y12514D02*
Y12664D01*
X37661Y12598D02*
X37811D01*
X37736Y12523D02*
Y12673D01*
X37218Y12598D02*
X37368D01*
X37293Y12523D02*
Y12673D01*
X37218Y10886D02*
X37368D01*
X37293Y10811D02*
Y10961D01*
X38143Y10886D02*
X38293D01*
X38219Y10811D02*
Y10961D01*
X39472Y11496D02*
X39622D01*
X39547Y11421D02*
Y11571D01*
X39472Y12244D02*
X39622D01*
X39547Y12169D02*
Y12319D01*
X6608Y20050D02*
X6758D01*
X6683Y19975D02*
Y20125D01*
X7386Y20600D02*
X7536D01*
X7461Y20525D02*
Y20675D01*
X6096Y19980D02*
X6246D01*
X6171Y19905D02*
Y20055D01*
X6955Y19640D02*
X7105D01*
X7030Y19565D02*
Y19715D01*
X5703Y19970D02*
X5853D01*
X5778Y19895D02*
Y20045D01*
X6962Y20994D02*
X7112D01*
X7037Y20919D02*
Y21069D01*
X5368Y20512D02*
X5518D01*
X5443Y20437D02*
Y20587D01*
X5319Y19971D02*
X5469D01*
X5394Y19896D02*
Y20046D01*
X3714Y19951D02*
X3864D01*
X3789Y19876D02*
Y20026D01*
X6372Y19055D02*
X6522D01*
X6447Y18980D02*
Y19130D01*
X3726Y19030D02*
X3876D01*
X3801Y18955D02*
Y19105D01*
X4994Y19045D02*
X5144D01*
X5069Y18970D02*
Y19120D01*
X21475Y13524D02*
X21625D01*
X21550Y13449D02*
Y13599D01*
X21475Y15336D02*
X21625D01*
X21550Y15261D02*
Y15411D01*
X22381Y14430D02*
X22531D01*
X22456Y14355D02*
Y14505D01*
X20569Y14430D02*
X20719D01*
X20644Y14355D02*
Y14505D01*
X2709Y31050D02*
X2859D01*
X2784Y30975D02*
Y31125D01*
X4521Y31050D02*
X4671D01*
X4596Y30975D02*
Y31125D01*
X3615Y31956D02*
X3765D01*
X3690Y31881D02*
Y32031D01*
X3615Y30144D02*
X3765D01*
X3690Y30069D02*
Y30219D01*
X1405Y10784D02*
X1555D01*
X1480Y10709D02*
Y10859D01*
X1405Y12596D02*
X1555D01*
X1480Y12521D02*
Y12671D01*
X2311Y11690D02*
X2461D01*
X2386Y11615D02*
Y11765D01*
X499Y11690D02*
X649D01*
X574Y11615D02*
Y11765D01*
X3333Y9157D02*
X3483D01*
X3408Y9082D02*
Y9232D01*
X3333Y9590D02*
X3483D01*
X3408Y9515D02*
Y9665D01*
X3333Y10023D02*
X3483D01*
X3408Y9948D02*
Y10098D01*
X3766Y9157D02*
X3916D01*
X3841Y9082D02*
Y9232D01*
X3766Y9590D02*
X3916D01*
X3841Y9515D02*
Y9665D01*
X3766Y10023D02*
X3916D01*
X3841Y9948D02*
Y10098D01*
X4199Y9157D02*
X4349D01*
X4274Y9082D02*
Y9232D01*
X4199Y9590D02*
X4349D01*
X4274Y9515D02*
Y9665D01*
X4199Y10023D02*
X4349D01*
X4274Y9948D02*
Y10098D01*
X4633Y9157D02*
X4782D01*
X4708Y9082D02*
Y9232D01*
X4633Y9590D02*
X4782D01*
X4708Y9515D02*
Y9665D01*
X4633Y10023D02*
X4782D01*
X4708Y9948D02*
Y10098D01*
X5066Y9157D02*
X5216D01*
X5141Y9082D02*
Y9232D01*
X5066Y9590D02*
X5216D01*
X5141Y9515D02*
Y9665D01*
X5066Y10023D02*
X5216D01*
X5141Y9948D02*
Y10098D01*
X12034Y10023D02*
X12184D01*
X12109Y9948D02*
Y10098D01*
X12034Y9590D02*
X12184D01*
X12109Y9515D02*
Y9665D01*
X12034Y9157D02*
X12184D01*
X12109Y9082D02*
Y9232D01*
X11601Y10023D02*
X11751D01*
X11676Y9948D02*
Y10098D01*
X11601Y9590D02*
X11751D01*
X11676Y9515D02*
Y9665D01*
X11601Y9157D02*
X11751D01*
X11676Y9082D02*
Y9232D01*
X11168Y10023D02*
X11318D01*
X11243Y9948D02*
Y10098D01*
X11168Y9590D02*
X11318D01*
X11243Y9515D02*
Y9665D01*
X11168Y9157D02*
X11318D01*
X11243Y9082D02*
Y9232D01*
X10735Y10023D02*
X10885D01*
X10810Y9948D02*
Y10098D01*
X10735Y9590D02*
X10885D01*
X10810Y9515D02*
Y9665D01*
X10735Y9157D02*
X10885D01*
X10810Y9082D02*
Y9232D01*
X10302Y10023D02*
X10452D01*
X10377Y9948D02*
Y10098D01*
X10302Y9590D02*
X10452D01*
X10377Y9515D02*
Y9665D01*
X10302Y9157D02*
X10452D01*
X10377Y9082D02*
Y9232D01*
X17393Y9157D02*
X17543D01*
X17468Y9082D02*
Y9232D01*
X17393Y9590D02*
X17543D01*
X17468Y9515D02*
Y9665D01*
X17393Y10023D02*
X17543D01*
X17468Y9948D02*
Y10098D01*
X17826Y9157D02*
X17976D01*
X17901Y9082D02*
Y9232D01*
X17826Y9590D02*
X17976D01*
X17901Y9515D02*
Y9665D01*
X17826Y10023D02*
X17976D01*
X17901Y9948D02*
Y10098D01*
X18259Y9157D02*
X18409D01*
X18334Y9082D02*
Y9232D01*
X18259Y9590D02*
X18409D01*
X18334Y9515D02*
Y9665D01*
X18259Y10023D02*
X18409D01*
X18334Y9948D02*
Y10098D01*
X18692Y9157D02*
X18842D01*
X18767Y9082D02*
Y9232D01*
X18692Y9590D02*
X18842D01*
X18767Y9515D02*
Y9665D01*
X18692Y10023D02*
X18842D01*
X18767Y9948D02*
Y10098D01*
X19125Y9157D02*
X19275D01*
X19200Y9082D02*
Y9232D01*
X19125Y9590D02*
X19275D01*
X19200Y9515D02*
Y9665D01*
X19125Y10023D02*
X19275D01*
X19200Y9948D02*
Y10098D01*
X26211Y10023D02*
X26361D01*
X26286Y9948D02*
Y10098D01*
X26211Y9590D02*
X26361D01*
X26286Y9515D02*
Y9665D01*
X26211Y9157D02*
X26361D01*
X26286Y9082D02*
Y9232D01*
X25778Y10023D02*
X25928D01*
X25853Y9948D02*
Y10098D01*
X25778Y9590D02*
X25928D01*
X25853Y9515D02*
Y9665D01*
X25778Y9157D02*
X25928D01*
X25853Y9082D02*
Y9232D01*
X25345Y10023D02*
X25495D01*
X25420Y9948D02*
Y10098D01*
X25345Y9590D02*
X25495D01*
X25420Y9515D02*
Y9665D01*
X25345Y9157D02*
X25495D01*
X25420Y9082D02*
Y9232D01*
X24912Y10023D02*
X25062D01*
X24987Y9948D02*
Y10098D01*
X24912Y9590D02*
X25062D01*
X24987Y9515D02*
Y9665D01*
X24912Y9157D02*
X25062D01*
X24987Y9082D02*
Y9232D01*
X24479Y10023D02*
X24629D01*
X24554Y9948D02*
Y10098D01*
X24479Y9590D02*
X24629D01*
X24554Y9515D02*
Y9665D01*
X24479Y9157D02*
X24629D01*
X24554Y9082D02*
Y9232D01*
X31568Y9157D02*
X31718D01*
X31643Y9082D02*
Y9232D01*
X31568Y9590D02*
X31718D01*
X31643Y9515D02*
Y9665D01*
X31568Y10023D02*
X31718D01*
X31643Y9948D02*
Y10098D01*
X32001Y9157D02*
X32151D01*
X32076Y9082D02*
Y9232D01*
X32001Y9590D02*
X32151D01*
X32076Y9515D02*
Y9665D01*
X32001Y10023D02*
X32151D01*
X32076Y9948D02*
Y10098D01*
X32434Y9157D02*
X32584D01*
X32509Y9082D02*
Y9232D01*
X32434Y9590D02*
X32584D01*
X32509Y9515D02*
Y9665D01*
X32434Y10023D02*
X32584D01*
X32509Y9948D02*
Y10098D01*
X32867Y9157D02*
X33017D01*
X32942Y9082D02*
Y9232D01*
X32867Y9590D02*
X33017D01*
X32942Y9515D02*
Y9665D01*
X32867Y10023D02*
X33017D01*
X32942Y9948D02*
Y10098D01*
X33300Y9157D02*
X33450D01*
X33375Y9082D02*
Y9232D01*
X33300Y9590D02*
X33450D01*
X33375Y9515D02*
Y9665D01*
X33300Y10023D02*
X33450D01*
X33375Y9948D02*
Y10098D01*
X32966Y15443D02*
X33116D01*
X33041Y15368D02*
Y15518D01*
X34708Y13474D02*
X34858D01*
X34783Y13399D02*
Y13549D01*
X9394Y11300D02*
X9544D01*
X9469Y11225D02*
Y11375D01*
X9355Y11812D02*
X9505D01*
X9430Y11737D02*
Y11887D01*
X9079Y12353D02*
X9229D01*
X9154Y12278D02*
Y12428D01*
X30133Y15335D02*
X30283D01*
X30208Y15260D02*
Y15410D01*
X7307Y16968D02*
X7457D01*
X7382Y16894D02*
Y17043D01*
X6603Y16634D02*
X6823D01*
X6713Y16524D02*
Y16744D01*
X8025Y16407D02*
X8175D01*
X8100Y16332D02*
Y16482D01*
X8035Y16821D02*
X8185D01*
X8110Y16746D02*
Y16896D01*
X7671Y16870D02*
X7821D01*
X7746Y16795D02*
Y16945D01*
X8475Y16880D02*
X8625D01*
X8550Y16805D02*
Y16955D01*
X7661Y16476D02*
X7811D01*
X7736Y16401D02*
Y16551D01*
X3306Y19050D02*
X3456D01*
X3381Y18975D02*
Y19125D01*
X23588Y27147D02*
X23738D01*
X23663Y27072D02*
Y27222D01*
X23824Y29145D02*
X23974D01*
X23899Y29070D02*
Y29220D01*
X24129Y28938D02*
X24279D01*
X24204Y28863D02*
Y29013D01*
X21875Y27806D02*
X22025D01*
X21950Y27731D02*
Y27881D01*
X22623Y28643D02*
X22773D01*
X22698Y28568D02*
Y28718D01*
X22917Y29577D02*
X23067D01*
X22992Y29502D02*
Y29652D01*
X20745Y27570D02*
X20895D01*
X20820Y27495D02*
Y27645D01*
X24689Y28829D02*
X24839D01*
X24764Y28754D02*
Y28904D01*
X23626Y29793D02*
X23776D01*
X23701Y29718D02*
Y29868D01*
X25338Y30226D02*
X25488D01*
X25413Y30151D02*
Y30301D01*
X23143Y31230D02*
X23293D01*
X23219Y31155D02*
Y31305D01*
X24915Y27254D02*
X25065D01*
X24990Y27179D02*
Y27329D01*
X24055Y21920D02*
X24205D01*
X24130Y21845D02*
Y21995D01*
X23855Y21390D02*
X24005D01*
X23930Y21315D02*
Y21465D01*
X24115Y22480D02*
X24265D01*
X24190Y22405D02*
Y22555D01*
X24125Y23180D02*
X24275D01*
X24200Y23105D02*
Y23255D01*
X23892Y30344D02*
X24042D01*
X23967Y30269D02*
Y30419D01*
X23586Y31171D02*
X23736D01*
X23661Y31096D02*
Y31246D01*
X24708Y26811D02*
X24858D01*
X24783Y26736D02*
Y26886D01*
X24521Y26319D02*
X24671D01*
X24596Y26244D02*
Y26394D01*
X25281Y28046D02*
X25431D01*
X25356Y27971D02*
Y28121D01*
X24236Y26545D02*
X24386D01*
X24311Y26470D02*
Y26620D01*
X23981Y26802D02*
X24131D01*
X24056Y26727D02*
Y26877D01*
X23585Y24960D02*
X23735D01*
X23660Y24885D02*
Y25035D01*
X29876Y14774D02*
X30026D01*
X29951Y14699D02*
Y14849D01*
X37829Y33435D02*
X37979D01*
X37904Y33360D02*
Y33510D01*
X1815Y3524D02*
X1965D01*
X1890Y3449D02*
Y3599D01*
X1638Y3711D02*
X1788D01*
X1713Y3636D02*
Y3786D01*
X1775Y4075D02*
X1925D01*
X1850Y4000D02*
Y4150D01*
X5896Y5520D02*
X6046D01*
X5971Y5445D02*
Y5595D01*
X8370Y2943D02*
X8520D01*
X8445Y2868D02*
Y3018D01*
X7128Y4194D02*
X7278D01*
X7203Y4119D02*
Y4269D01*
X8773Y4055D02*
X8923D01*
X8848Y3980D02*
Y4130D01*
X12760Y4030D02*
X12910D01*
X12835Y3955D02*
Y4105D01*
X14097Y4194D02*
X14247D01*
X14172Y4119D02*
Y4269D01*
X38773Y35344D02*
X38923D01*
X38848Y35269D02*
Y35419D01*
X4845Y26028D02*
X4995D01*
X4920Y25953D02*
Y26103D01*
X37661Y10886D02*
X37811D01*
X37736Y10811D02*
Y10961D01*
X39845Y8440D02*
X39995D01*
X39920Y8365D02*
Y8515D01*
X39175Y10050D02*
X39325D01*
X39250Y9975D02*
Y10125D01*
X38865Y9380D02*
X39015D01*
X38940Y9305D02*
Y9455D01*
X38865Y8840D02*
X39015D01*
X38940Y8765D02*
Y8915D01*
X38465Y8170D02*
X38615D01*
X38540Y8095D02*
Y8245D01*
X38395Y5060D02*
X38545D01*
X38470Y4985D02*
Y5135D01*
X39875Y4200D02*
X40025D01*
X39950Y4125D02*
Y4275D01*
X35175Y12750D02*
X35325D01*
X35250Y12675D02*
Y12825D01*
X34925Y11250D02*
X35075D01*
X35000Y11175D02*
Y11325D01*
X34925Y10500D02*
X35075D01*
X35000Y10425D02*
Y10575D01*
X34925Y9750D02*
X35075D01*
X35000Y9675D02*
Y9825D01*
X34925Y9000D02*
X35075D01*
X35000Y8925D02*
Y9075D01*
X29595Y11630D02*
X29745D01*
X29670Y11555D02*
Y11705D01*
X29925Y11250D02*
X30075D01*
X30000Y11175D02*
Y11325D01*
X29925Y10500D02*
X30075D01*
X30000Y10425D02*
Y10575D01*
X29925Y9750D02*
X30075D01*
X30000Y9675D02*
Y9825D01*
X29925Y9000D02*
X30075D01*
X30000Y8925D02*
Y9075D01*
X27675Y11250D02*
X27825D01*
X27750Y11175D02*
Y11325D01*
X27675Y10500D02*
X27825D01*
X27750Y10425D02*
Y10575D01*
X27675Y9750D02*
X27825D01*
X27750Y9675D02*
Y9825D01*
X27675Y9000D02*
X27825D01*
X27750Y8925D02*
Y9075D01*
X21425Y12250D02*
X21575D01*
X21500Y12175D02*
Y12325D01*
X20675Y12000D02*
X20825D01*
X20750Y11925D02*
Y12075D01*
X20675Y11250D02*
X20825D01*
X20750Y11175D02*
Y11325D01*
X20675Y10500D02*
X20825D01*
X20750Y10425D02*
Y10575D01*
X20675Y9750D02*
X20825D01*
X20750Y9675D02*
Y9825D01*
X20675Y9000D02*
X20825D01*
X20750Y8925D02*
Y9075D01*
X22675Y9000D02*
X22825D01*
X22750Y8925D02*
Y9075D01*
X22675Y11250D02*
X22825D01*
X22750Y11175D02*
Y11325D01*
X15925Y11250D02*
X16075D01*
X16000Y11175D02*
Y11325D01*
X15925Y10500D02*
X16075D01*
X16000Y10425D02*
Y10575D01*
X15925Y9750D02*
X16075D01*
X16000Y9675D02*
Y9825D01*
X15925Y9000D02*
X16075D01*
X16000Y8925D02*
Y9075D01*
X13675Y11250D02*
X13825D01*
X13750Y11175D02*
Y11325D01*
X13675Y10500D02*
X13825D01*
X13750Y10425D02*
Y10575D01*
X13675Y9750D02*
X13825D01*
X13750Y9675D02*
Y9825D01*
X13675Y9000D02*
X13825D01*
X13750Y8925D02*
Y9075D01*
X6675Y12000D02*
X6825D01*
X6750Y11925D02*
Y12075D01*
X6675Y11250D02*
X6825D01*
X6750Y11175D02*
Y11325D01*
X6675Y10500D02*
X6825D01*
X6750Y10425D02*
Y10575D01*
X6675Y9750D02*
X6825D01*
X6750Y9675D02*
Y9825D01*
X6675Y9000D02*
X6825D01*
X6750Y8925D02*
Y9075D01*
X1675Y9000D02*
X1825D01*
X1750Y8925D02*
Y9075D01*
X35435Y6220D02*
X35585D01*
X35510Y6145D02*
Y6295D01*
X28355Y6220D02*
X28505D01*
X28430Y6145D02*
Y6295D01*
X14175Y6220D02*
X14325D01*
X14250Y6145D02*
Y6295D01*
X21265Y6220D02*
X21415D01*
X21340Y6145D02*
Y6295D01*
X7045Y7480D02*
X7195D01*
X7120Y7405D02*
Y7555D01*
X36175Y27950D02*
X36325D01*
X36250Y27875D02*
Y28025D01*
X37075Y27950D02*
X37225D01*
X37150Y27875D02*
Y28025D01*
X34165Y27950D02*
X34315D01*
X34240Y27875D02*
Y28025D01*
X37475Y35345D02*
X37625D01*
X37550Y35270D02*
Y35420D01*
X36295Y35345D02*
X36445D01*
X36370Y35270D02*
Y35420D01*
X35325Y35345D02*
X35475D01*
X35400Y35270D02*
Y35420D01*
X34235Y35345D02*
X34385D01*
X34310Y35270D02*
Y35420D01*
X8305Y23690D02*
X8455D01*
X8380Y23615D02*
Y23765D01*
X9335Y29990D02*
X9485D01*
X9410Y29915D02*
Y30065D01*
X16085Y26530D02*
X16235D01*
X16160Y26455D02*
Y26605D01*
X17185Y27000D02*
X17335D01*
X17260Y26925D02*
Y27075D01*
X16935Y28140D02*
X17085D01*
X17010Y28065D02*
Y28215D01*
X19015Y29220D02*
X19165D01*
X19090Y29145D02*
Y29295D01*
X18395Y27560D02*
X18545D01*
X18470Y27485D02*
Y27635D01*
X18535Y22140D02*
X18685D01*
X18610Y22065D02*
Y22215D01*
X15495Y24020D02*
X15645D01*
X15570Y23945D02*
Y24095D01*
X22015Y18030D02*
X22165D01*
X22090Y17955D02*
Y18105D01*
X18835Y24660D02*
X18985D01*
X18910Y24585D02*
Y24735D01*
X15315Y20930D02*
X15465D01*
X15390Y20855D02*
Y21005D01*
X15225Y22170D02*
X15375D01*
X15300Y22095D02*
Y22245D01*
X15775Y22190D02*
X15925D01*
X15850Y22115D02*
Y22265D01*
X16035Y20540D02*
X16185D01*
X16110Y20465D02*
Y20615D01*
X16135Y19030D02*
X16285D01*
X16210Y18955D02*
Y19105D01*
X15505Y19420D02*
X15655D01*
X15580Y19345D02*
Y19495D01*
X19705Y18270D02*
X19855D01*
X19780Y18195D02*
Y18345D01*
X21565Y23260D02*
X21715D01*
X21640Y23185D02*
Y23335D01*
X16745Y24550D02*
X16895D01*
X16820Y24475D02*
Y24625D01*
X11335Y23910D02*
X11485D01*
X11410Y23835D02*
Y23985D01*
X5035Y21310D02*
X5185D01*
X5110Y21235D02*
Y21385D01*
X5745Y29210D02*
X5895D01*
X5820Y29135D02*
Y29285D01*
X12535Y29970D02*
X12685D01*
X12610Y29895D02*
Y30045D01*
X6425Y30070D02*
X6575D01*
X6500Y29995D02*
Y30145D01*
X7395Y22680D02*
X7545D01*
X7470Y22605D02*
Y22755D01*
X11065Y29410D02*
X11215D01*
X11140Y29335D02*
Y29485D01*
X11055Y24350D02*
X11205D01*
X11130Y24275D02*
Y24425D01*
X12395Y27520D02*
X12545D01*
X12470Y27445D02*
Y27595D01*
X5475Y28180D02*
X5625D01*
X5550Y28105D02*
Y28255D01*
X6435Y28650D02*
X6585D01*
X6510Y28575D02*
Y28725D01*
X4355Y27510D02*
X4505D01*
X4430Y27435D02*
Y27585D01*
X4785Y27930D02*
X4935D01*
X4860Y27855D02*
Y28005D01*
X11765Y25000D02*
X11915D01*
X11840Y24925D02*
Y25075D01*
X4115Y25658D02*
X4265D01*
X4190Y25583D02*
Y25733D01*
X4085Y26398D02*
X4235D01*
X4160Y26323D02*
Y26473D01*
X4065Y26028D02*
X4215D01*
X4140Y25953D02*
Y26103D01*
X405Y26620D02*
X555D01*
X480Y26545D02*
Y26695D01*
X3015Y27790D02*
X3165D01*
X3090Y27715D02*
Y27865D01*
X3185Y28390D02*
X3335D01*
X3260Y28315D02*
Y28465D01*
X15735Y21720D02*
X15885D01*
X15810Y21645D02*
Y21795D01*
X9785Y23130D02*
X9935D01*
X9860Y23055D02*
Y23205D01*
X13295Y19260D02*
X13445D01*
X13370Y19185D02*
Y19335D01*
X12585Y19940D02*
X12735D01*
X12660Y19865D02*
Y20015D01*
X13005Y22370D02*
X13155D01*
X13080Y22295D02*
Y22445D01*
X11915Y23520D02*
X12065D01*
X11990Y23445D02*
Y23595D01*
X17425Y19020D02*
X17575D01*
X17500Y18945D02*
Y19095D01*
X8465Y19960D02*
X8615D01*
X8540Y19885D02*
Y20035D01*
X13645Y22230D02*
X13795D01*
X13720Y22155D02*
Y22305D01*
X13975Y21400D02*
X14125D01*
X14050Y21325D02*
Y21475D01*
X15135Y20580D02*
X15285D01*
X15210Y20505D02*
Y20655D01*
X8005Y12270D02*
X8155D01*
X8080Y12195D02*
Y12345D01*
X11995Y15770D02*
X12145D01*
X12070Y15695D02*
Y15845D01*
X12415Y16220D02*
X12565D01*
X12490Y16145D02*
Y16295D01*
X11475Y15900D02*
X11625D01*
X11550Y15825D02*
Y15975D01*
X17145Y18760D02*
X17295D01*
X17220Y18685D02*
Y18835D01*
X16905Y18490D02*
X17055D01*
X16980Y18415D02*
Y18565D01*
X16635Y18250D02*
X16785D01*
X16710Y18175D02*
Y18325D01*
X16355Y18010D02*
X16505D01*
X16430Y17935D02*
Y18085D01*
X13365Y21210D02*
X13515D01*
X13440Y21135D02*
Y21285D01*
X20675Y24350D02*
X20825D01*
X20750Y24275D02*
Y24425D01*
X20705Y24710D02*
X20855D01*
X20780Y24635D02*
Y24785D01*
X21455Y24850D02*
X21605D01*
X21530Y24775D02*
Y24925D01*
X21785Y24670D02*
X21935D01*
X21860Y24595D02*
Y24745D01*
X21735Y24210D02*
X21885D01*
X21810Y24135D02*
Y24285D01*
X30705Y37240D02*
X30855D01*
X30780Y37165D02*
Y37315D01*
X20485Y29580D02*
X20635D01*
X20560Y29505D02*
Y29655D01*
X17715Y27580D02*
X17865D01*
X17790Y27505D02*
Y27655D01*
X18285Y25040D02*
X18435D01*
X18360Y24965D02*
Y25115D01*
X13435Y20700D02*
X13585D01*
X13510Y20625D02*
Y20775D01*
X12955Y19890D02*
X13105D01*
X13030Y19815D02*
Y19965D01*
X12995Y19520D02*
X13145D01*
X13070Y19445D02*
Y19595D01*
X21575Y22150D02*
X21725D01*
X21650Y22075D02*
Y22225D01*
X21435Y18160D02*
X21585D01*
X21510Y18085D02*
Y18235D01*
X30801Y15344D02*
X30951D01*
X30876Y15269D02*
Y15419D01*
X29197Y14537D02*
X29347D01*
X29272Y14462D02*
Y14612D01*
X21725Y16060D02*
X21875D01*
X21800Y15985D02*
Y16135D01*
X13055Y23520D02*
X13205D01*
X13130Y23445D02*
Y23595D01*
X18775Y25070D02*
X18925D01*
X18850Y24995D02*
Y25145D01*
X15565Y23660D02*
X15715D01*
X15640Y23585D02*
Y23735D01*
X15145Y23540D02*
X15295D01*
X15220Y23465D02*
Y23615D01*
X15775Y24250D02*
X15925D01*
X15850Y24175D02*
Y24325D01*
X16115Y24590D02*
X16265D01*
X16190Y24515D02*
Y24665D01*
X16665Y25000D02*
X16815D01*
X16740Y24925D02*
Y25075D01*
X16347Y32900D02*
X16497D01*
X16422Y32825D02*
Y32975D01*
X21115Y32290D02*
X21265D01*
X21190Y32215D02*
Y32365D01*
X22027Y31710D02*
X22177D01*
X22102Y31635D02*
Y31785D01*
X18015Y29190D02*
X18165D01*
X18090Y29115D02*
Y29265D01*
X18515Y29230D02*
X18665D01*
X18590Y29155D02*
Y29305D01*
X19505Y29210D02*
X19655D01*
X19580Y29135D02*
Y29285D01*
X1005Y29460D02*
X1155D01*
X1080Y29385D02*
Y29535D01*
X968Y3465D02*
X1118D01*
X1043Y3390D02*
Y3540D01*
X8668Y11090D02*
X8818D01*
X8743Y11015D02*
Y11165D01*
X2699Y12590D02*
X2849D01*
X2774Y12515D02*
Y12665D01*
X5949Y9590D02*
X6099D01*
X6024Y9515D02*
Y9665D01*
X5949Y10090D02*
X6099D01*
X6024Y10015D02*
Y10165D01*
X2449Y9590D02*
X2599D01*
X2524Y9515D02*
Y9665D01*
X2699Y9090D02*
X2849D01*
X2774Y9015D02*
Y9165D01*
X1699Y9590D02*
X1849D01*
X1774Y9515D02*
Y9665D01*
X1695Y10320D02*
X1845D01*
X1770Y10245D02*
Y10395D01*
X949Y10340D02*
X1099D01*
X1024Y10265D02*
Y10415D01*
X949Y9590D02*
X1099D01*
X1024Y9515D02*
Y9665D01*
X949Y8840D02*
X1099D01*
X1024Y8765D02*
Y8915D01*
X949Y7840D02*
X1099D01*
X1024Y7765D02*
Y7915D01*
X12839Y9010D02*
X12989D01*
X12914Y8935D02*
Y9085D01*
X12918Y9590D02*
X13068D01*
X12993Y9515D02*
Y9665D01*
X12918Y10090D02*
X13068D01*
X12993Y10015D02*
Y10165D01*
X9418Y9590D02*
X9568D01*
X9493Y9515D02*
Y9665D01*
X9668Y9090D02*
X9818D01*
X9743Y9015D02*
Y9165D01*
X8668Y9590D02*
X8818D01*
X8743Y9515D02*
Y9665D01*
X8668Y10340D02*
X8818D01*
X8743Y10265D02*
Y10415D01*
X20009Y9590D02*
X20159D01*
X20084Y9515D02*
Y9665D01*
X20009Y10090D02*
X20159D01*
X20084Y10015D02*
Y10165D01*
X16509Y9590D02*
X16659D01*
X16584Y9515D02*
Y9665D01*
X16759Y9090D02*
X16909D01*
X16834Y9015D02*
Y9165D01*
X27095Y9590D02*
X27245D01*
X27170Y9515D02*
Y9665D01*
X27095Y10090D02*
X27245D01*
X27170Y10015D02*
Y10165D01*
X23595Y9590D02*
X23745D01*
X23670Y9515D02*
Y9665D01*
X23845Y9090D02*
X23995D01*
X23920Y9015D02*
Y9165D01*
X22845Y9590D02*
X22995D01*
X22920Y9515D02*
Y9665D01*
X22845Y10340D02*
X22995D01*
X22920Y10265D02*
Y10415D01*
X30934Y9090D02*
X31084D01*
X31009Y9015D02*
Y9165D01*
X30684Y9590D02*
X30834D01*
X30759Y9515D02*
Y9665D01*
X34184Y10090D02*
X34334D01*
X34259Y10015D02*
Y10165D01*
X34184Y9590D02*
X34334D01*
X34259Y9515D02*
Y9665D01*
X4975Y12060D02*
X5125D01*
X5050Y11985D02*
Y12135D01*
X29405Y3040D02*
X29555D01*
X29480Y2965D02*
Y3115D01*
X28465Y2990D02*
X28615D01*
X28540Y2915D02*
Y3065D01*
X4381Y7860D02*
X4531D01*
X4456Y7785D02*
Y7935D01*
X4021Y7860D02*
X4171D01*
X4096Y7785D02*
Y7935D01*
X6296Y7680D02*
X6446D01*
X6371Y7605D02*
Y7755D01*
X4021Y7600D02*
X4171D01*
X4096Y7525D02*
Y7675D01*
X4381Y7600D02*
X4531D01*
X4456Y7525D02*
Y7675D01*
X3280Y4030D02*
X3430D01*
X3355Y3955D02*
Y4105D01*
X3540Y4030D02*
X3690D01*
X3615Y3955D02*
Y4105D01*
X5036Y7790D02*
X5186D01*
X5111Y7715D02*
Y7865D01*
X5036Y7510D02*
X5186D01*
X5111Y7435D02*
Y7585D01*
X1386Y7540D02*
X1536D01*
X1461Y7465D02*
Y7615D01*
X3416Y7800D02*
X3566D01*
X3491Y7725D02*
Y7875D01*
X3416Y7530D02*
X3566D01*
X3491Y7455D02*
Y7605D01*
X2546Y7410D02*
X2696D01*
X2621Y7335D02*
Y7485D01*
X2816Y7410D02*
X2966D01*
X2891Y7335D02*
Y7485D01*
X6356Y5870D02*
X6506D01*
X6431Y5795D02*
Y5945D01*
X6166Y6050D02*
X6316D01*
X6241Y5975D02*
Y6125D01*
X6066Y5330D02*
X6216D01*
X6141Y5255D02*
Y5405D01*
X7036Y6220D02*
X7186D01*
X7111Y6145D02*
Y6295D01*
X5890Y4030D02*
X6040D01*
X5965Y3955D02*
Y4105D01*
X5620Y4030D02*
X5770D01*
X5695Y3955D02*
Y4105D01*
X2502Y5520D02*
X2652D01*
X2577Y5445D02*
Y5595D01*
X2332Y5330D02*
X2482D01*
X2407Y5255D02*
Y5405D01*
X2232Y6050D02*
X2382D01*
X2307Y5975D02*
Y6125D01*
X2042Y5870D02*
X2192D01*
X2117Y5795D02*
Y5945D01*
X2946Y4890D02*
X3096D01*
X3021Y4815D02*
Y4965D01*
X3273Y4890D02*
X3423D01*
X3348Y4815D02*
Y4965D01*
X3600Y4890D02*
X3750D01*
X3675Y4815D02*
Y4965D01*
X3926Y4890D02*
X4076D01*
X4001Y4815D02*
Y4965D01*
X4426Y4890D02*
X4576D01*
X4501Y4815D02*
Y4965D01*
X4763Y4890D02*
X4913D01*
X4838Y4815D02*
Y4965D01*
X5100Y4890D02*
X5250D01*
X5175Y4815D02*
Y4965D01*
X5436Y4890D02*
X5586D01*
X5511Y4815D02*
Y4965D01*
X3886Y6150D02*
X4036D01*
X3961Y6075D02*
Y6225D01*
X4566Y6150D02*
X4716D01*
X4641Y6075D02*
Y6225D01*
X1346Y6200D02*
X1496D01*
X1421Y6125D02*
Y6275D01*
X7306Y6230D02*
X7456D01*
X7381Y6155D02*
Y6305D01*
X1076Y6200D02*
X1226D01*
X1151Y6125D02*
Y6275D01*
X7682Y3010D02*
X7832D01*
X7757Y2935D02*
Y3085D01*
X5796Y7260D02*
X5946D01*
X5871Y7185D02*
Y7335D01*
X5546Y7350D02*
X5696D01*
X5621Y7275D02*
Y7425D01*
X6066Y7250D02*
X6216D01*
X6141Y7175D02*
Y7325D01*
X445Y33320D02*
X595D01*
X520Y33245D02*
Y33395D01*
X32615Y7860D02*
X32765D01*
X32690Y7785D02*
Y7935D01*
X32255Y7860D02*
X32405D01*
X32330Y7785D02*
Y7935D01*
X34531Y7680D02*
X34681D01*
X34606Y7605D02*
Y7755D01*
X34105Y9010D02*
X34255D01*
X34180Y8935D02*
Y9085D01*
X32255Y7600D02*
X32405D01*
X32330Y7525D02*
Y7675D01*
X31121Y4030D02*
X31271D01*
X31196Y3955D02*
Y4105D01*
X35121Y4090D02*
X35271D01*
X35196Y4015D02*
Y4165D01*
X31381Y4030D02*
X31531D01*
X31456Y3955D02*
Y4105D01*
X33271Y7790D02*
X33421D01*
X33346Y7715D02*
Y7865D01*
X33271Y7510D02*
X33421D01*
X33346Y7435D02*
Y7585D01*
X29621Y7540D02*
X29771D01*
X29696Y7465D02*
Y7615D01*
X31651Y7800D02*
X31801D01*
X31726Y7725D02*
Y7875D01*
X31651Y7530D02*
X31801D01*
X31726Y7455D02*
Y7605D01*
X30781Y7410D02*
X30931D01*
X30856Y7335D02*
Y7485D01*
X31051Y7410D02*
X31201D01*
X31126Y7335D02*
Y7485D01*
X34591Y5870D02*
X34741D01*
X34666Y5795D02*
Y5945D01*
X34401Y6050D02*
X34551D01*
X34476Y5975D02*
Y6125D01*
X34301Y5330D02*
X34451D01*
X34376Y5255D02*
Y5405D01*
X35171Y6220D02*
X35321D01*
X35246Y6145D02*
Y6295D01*
X33731Y4030D02*
X33881D01*
X33806Y3955D02*
Y4105D01*
X33461Y4030D02*
X33611D01*
X33536Y3955D02*
Y4105D01*
X30737Y5520D02*
X30887D01*
X30812Y5445D02*
Y5595D01*
X30567Y5330D02*
X30717D01*
X30642Y5255D02*
Y5405D01*
X30467Y6050D02*
X30617D01*
X30542Y5975D02*
Y6125D01*
X30277Y5870D02*
X30427D01*
X30352Y5795D02*
Y5945D01*
X29747Y4090D02*
X29897D01*
X29822Y4015D02*
Y4165D01*
X31181Y4890D02*
X31331D01*
X31256Y4815D02*
Y4965D01*
X31507Y4890D02*
X31657D01*
X31582Y4815D02*
Y4965D01*
X31834Y4890D02*
X31984D01*
X31909Y4815D02*
Y4965D01*
X32161Y4890D02*
X32311D01*
X32236Y4815D02*
Y4965D01*
X32661Y4890D02*
X32811D01*
X32736Y4815D02*
Y4965D01*
X32997Y4890D02*
X33147D01*
X33072Y4815D02*
Y4965D01*
X33334Y4890D02*
X33484D01*
X33409Y4815D02*
Y4965D01*
X33671Y4890D02*
X33821D01*
X33746Y4815D02*
Y4965D01*
X32121Y6150D02*
X32271D01*
X32196Y6075D02*
Y6225D01*
X32795Y6150D02*
X32945D01*
X32870Y6075D02*
Y6225D01*
X29581Y6200D02*
X29731D01*
X29656Y6125D02*
Y6275D01*
X29311Y6200D02*
X29461D01*
X29386Y6125D02*
Y6275D01*
X35521Y3010D02*
X35671D01*
X35596Y2935D02*
Y3085D01*
X34031Y7260D02*
X34181D01*
X34106Y7185D02*
Y7335D01*
X33781Y7350D02*
X33931D01*
X33856Y7275D02*
Y7425D01*
X34301Y7250D02*
X34451D01*
X34376Y7175D02*
Y7325D01*
X25526Y7860D02*
X25676D01*
X25601Y7785D02*
Y7935D01*
X25166Y7860D02*
X25316D01*
X25241Y7785D02*
Y7935D01*
X27442Y7680D02*
X27592D01*
X27517Y7605D02*
Y7755D01*
X27016Y9010D02*
X27166D01*
X27091Y8935D02*
Y9085D01*
X25166Y7600D02*
X25316D01*
X25241Y7525D02*
Y7675D01*
X25526Y7600D02*
X25676D01*
X25601Y7525D02*
Y7675D01*
X24032Y4030D02*
X24182D01*
X24107Y3955D02*
Y4105D01*
X28032Y4090D02*
X28182D01*
X28107Y4015D02*
Y4165D01*
X24292Y4030D02*
X24442D01*
X24367Y3955D02*
Y4105D01*
X26182Y7790D02*
X26332D01*
X26257Y7715D02*
Y7865D01*
X26182Y7510D02*
X26332D01*
X26257Y7435D02*
Y7585D01*
X22532Y7540D02*
X22682D01*
X22607Y7465D02*
Y7615D01*
X24562Y7800D02*
X24712D01*
X24637Y7725D02*
Y7875D01*
X24562Y7530D02*
X24712D01*
X24637Y7455D02*
Y7605D01*
X23692Y7410D02*
X23842D01*
X23767Y7335D02*
Y7485D01*
X23962Y7410D02*
X24112D01*
X24037Y7335D02*
Y7485D01*
X27502Y5870D02*
X27652D01*
X27577Y5795D02*
Y5945D01*
X27312Y6050D02*
X27462D01*
X27387Y5975D02*
Y6125D01*
X27212Y5330D02*
X27362D01*
X27287Y5255D02*
Y5405D01*
X27042Y5520D02*
X27192D01*
X27117Y5445D02*
Y5595D01*
X28082Y6220D02*
X28232D01*
X28157Y6145D02*
Y6295D01*
X26642Y4030D02*
X26792D01*
X26717Y3955D02*
Y4105D01*
X26372Y4030D02*
X26522D01*
X26447Y3955D02*
Y4105D01*
X23648Y5520D02*
X23798D01*
X23723Y5445D02*
Y5595D01*
X23478Y5330D02*
X23628D01*
X23553Y5255D02*
Y5405D01*
X23378Y6050D02*
X23528D01*
X23453Y5975D02*
Y6125D01*
X23188Y5870D02*
X23338D01*
X23263Y5795D02*
Y5945D01*
X22658Y4090D02*
X22808D01*
X22733Y4015D02*
Y4165D01*
X24092Y4890D02*
X24242D01*
X24167Y4815D02*
Y4965D01*
X24419Y4890D02*
X24569D01*
X24494Y4815D02*
Y4965D01*
X24746Y4890D02*
X24896D01*
X24821Y4815D02*
Y4965D01*
X25072Y4890D02*
X25222D01*
X25147Y4815D02*
Y4965D01*
X25572Y4890D02*
X25722D01*
X25647Y4815D02*
Y4965D01*
X25909Y4890D02*
X26059D01*
X25984Y4815D02*
Y4965D01*
X26246Y4890D02*
X26396D01*
X26321Y4815D02*
Y4965D01*
X26582Y4890D02*
X26732D01*
X26657Y4815D02*
Y4965D01*
X25032Y6150D02*
X25182D01*
X25107Y6075D02*
Y6225D01*
X25712Y6150D02*
X25862D01*
X25787Y6075D02*
Y6225D01*
X22492Y6200D02*
X22642D01*
X22567Y6125D02*
Y6275D01*
X22222Y6200D02*
X22372D01*
X22297Y6125D02*
Y6275D01*
X22252Y2990D02*
X22402D01*
X22327Y2915D02*
Y3065D01*
X26942Y7260D02*
X27092D01*
X27017Y7185D02*
Y7335D01*
X26692Y7350D02*
X26842D01*
X26767Y7275D02*
Y7425D01*
X27212Y7250D02*
X27362D01*
X27287Y7175D02*
Y7325D01*
X18440Y7860D02*
X18590D01*
X18515Y7785D02*
Y7935D01*
X18080Y7860D02*
X18230D01*
X18155Y7785D02*
Y7935D01*
X20356Y7680D02*
X20506D01*
X20431Y7605D02*
Y7755D01*
X18080Y7600D02*
X18230D01*
X18155Y7525D02*
Y7675D01*
X18440Y7600D02*
X18590D01*
X18515Y7525D02*
Y7675D01*
X16946Y4030D02*
X17096D01*
X17021Y3955D02*
Y4105D01*
X20946Y4090D02*
X21096D01*
X21021Y4015D02*
Y4165D01*
X17206Y4030D02*
X17356D01*
X17281Y3955D02*
Y4105D01*
X19096Y7790D02*
X19246D01*
X19171Y7715D02*
Y7865D01*
X19096Y7510D02*
X19246D01*
X19171Y7435D02*
Y7585D01*
X15446Y7520D02*
X15596D01*
X15521Y7445D02*
Y7595D01*
X17476Y7800D02*
X17626D01*
X17551Y7725D02*
Y7875D01*
X17476Y7530D02*
X17626D01*
X17551Y7455D02*
Y7605D01*
X16606Y7410D02*
X16756D01*
X16681Y7335D02*
Y7485D01*
X16876Y7410D02*
X17026D01*
X16951Y7335D02*
Y7485D01*
X20416Y5870D02*
X20566D01*
X20491Y5795D02*
Y5945D01*
X20226Y6050D02*
X20376D01*
X20301Y5975D02*
Y6125D01*
X20126Y5330D02*
X20276D01*
X20201Y5255D02*
Y5405D01*
X19956Y5520D02*
X20106D01*
X20031Y5445D02*
Y5595D01*
X20996Y6220D02*
X21146D01*
X21071Y6145D02*
Y6295D01*
X19556Y4030D02*
X19706D01*
X19631Y3955D02*
Y4105D01*
X19286Y4030D02*
X19436D01*
X19361Y3955D02*
Y4105D01*
X16562Y5520D02*
X16712D01*
X16637Y5445D02*
Y5595D01*
X16392Y5330D02*
X16542D01*
X16467Y5255D02*
Y5405D01*
X16292Y6050D02*
X16442D01*
X16367Y5975D02*
Y6125D01*
X16102Y5870D02*
X16252D01*
X16177Y5795D02*
Y5945D01*
X15572Y4090D02*
X15722D01*
X15647Y4015D02*
Y4165D01*
X17006Y4890D02*
X17156D01*
X17081Y4815D02*
Y4965D01*
X17333Y4890D02*
X17483D01*
X17408Y4815D02*
Y4965D01*
X17660Y4890D02*
X17810D01*
X17735Y4815D02*
Y4965D01*
X17986Y4890D02*
X18136D01*
X18061Y4815D02*
Y4965D01*
X18486Y4890D02*
X18636D01*
X18561Y4815D02*
Y4965D01*
X18823Y4890D02*
X18973D01*
X18898Y4815D02*
Y4965D01*
X19160Y4890D02*
X19310D01*
X19235Y4815D02*
Y4965D01*
X19496Y4890D02*
X19646D01*
X19571Y4815D02*
Y4965D01*
X17946Y6150D02*
X18096D01*
X18021Y6075D02*
Y6225D01*
X18626Y6150D02*
X18776D01*
X18701Y6075D02*
Y6225D01*
X15406Y6200D02*
X15556D01*
X15481Y6125D02*
Y6275D01*
X15136Y6200D02*
X15286D01*
X15211Y6125D02*
Y6275D01*
X15166Y2990D02*
X15316D01*
X15241Y2915D02*
Y3065D01*
X21346Y3010D02*
X21496D01*
X21421Y2935D02*
Y3085D01*
X19856Y7260D02*
X20006D01*
X19931Y7185D02*
Y7335D01*
X19606Y7350D02*
X19756D01*
X19681Y7275D02*
Y7425D01*
X20126Y7250D02*
X20276D01*
X20201Y7175D02*
Y7325D01*
X12765Y7260D02*
X12915D01*
X12840Y7185D02*
Y7335D01*
X12515Y7350D02*
X12665D01*
X12590Y7275D02*
Y7425D01*
X14550Y3010D02*
X14700D01*
X14625Y2935D02*
Y3085D01*
X8045Y6200D02*
X8195D01*
X8120Y6125D02*
Y6275D01*
X8315Y6200D02*
X8465D01*
X8390Y6125D02*
Y6275D01*
X11535Y6150D02*
X11685D01*
X11610Y6075D02*
Y6225D01*
X10855Y6150D02*
X11005D01*
X10930Y6075D02*
Y6225D01*
X12405Y4890D02*
X12555D01*
X12480Y4815D02*
Y4965D01*
X12068Y4890D02*
X12218D01*
X12143Y4815D02*
Y4965D01*
X11732Y4890D02*
X11882D01*
X11807Y4815D02*
Y4965D01*
X11395Y4890D02*
X11545D01*
X11470Y4815D02*
Y4965D01*
X10895Y4890D02*
X11045D01*
X10970Y4815D02*
Y4965D01*
X10568Y4890D02*
X10718D01*
X10643Y4815D02*
Y4965D01*
X10242Y4890D02*
X10392D01*
X10317Y4815D02*
Y4965D01*
X9915Y4890D02*
X10065D01*
X9990Y4815D02*
Y4965D01*
X9011Y5870D02*
X9161D01*
X9086Y5795D02*
Y5945D01*
X9201Y6050D02*
X9351D01*
X9276Y5975D02*
Y6125D01*
X9301Y5330D02*
X9451D01*
X9376Y5255D02*
Y5405D01*
X9471Y5520D02*
X9621D01*
X9546Y5445D02*
Y5595D01*
X12490Y4030D02*
X12640D01*
X12565Y3955D02*
Y4105D01*
X13905Y6220D02*
X14055D01*
X13980Y6145D02*
Y6295D01*
X12865Y5520D02*
X13015D01*
X12940Y5445D02*
Y5595D01*
X13035Y5330D02*
X13185D01*
X13110Y5255D02*
Y5405D01*
X13135Y6050D02*
X13285D01*
X13210Y5975D02*
Y6125D01*
X13325Y5870D02*
X13475D01*
X13400Y5795D02*
Y5945D01*
X9785Y7410D02*
X9935D01*
X9860Y7335D02*
Y7485D01*
X9515Y7410D02*
X9665D01*
X9590Y7335D02*
Y7485D01*
X13035Y7250D02*
X13185D01*
X13110Y7175D02*
Y7325D01*
X10385Y7530D02*
X10535D01*
X10460Y7455D02*
Y7605D01*
X10385Y7800D02*
X10535D01*
X10460Y7725D02*
Y7875D01*
X8355Y7540D02*
X8505D01*
X8430Y7465D02*
Y7615D01*
X12005Y7510D02*
X12155D01*
X12080Y7435D02*
Y7585D01*
X12005Y7790D02*
X12155D01*
X12080Y7715D02*
Y7865D01*
X10410Y4030D02*
X10560D01*
X10485Y3955D02*
Y4105D01*
X2536Y10200D02*
X2686D01*
X2611Y10125D02*
Y10275D01*
X5395Y12050D02*
X5545D01*
X5470Y11975D02*
Y12125D01*
X5865Y12050D02*
X6015D01*
X5940Y11975D02*
Y12125D01*
X10150Y4030D02*
X10300D01*
X10225Y3955D02*
Y4105D01*
X11349Y7600D02*
X11499D01*
X11424Y7525D02*
Y7675D01*
X10989Y7600D02*
X11139D01*
X11064Y7525D02*
Y7675D01*
X11959Y12080D02*
X12109D01*
X12034Y12005D02*
Y12155D01*
X12379Y12080D02*
X12529D01*
X12454Y12005D02*
Y12155D01*
X12849Y12080D02*
X12999D01*
X12924Y12005D02*
Y12155D01*
X13265Y7680D02*
X13415D01*
X13340Y7605D02*
Y7755D01*
X10989Y7860D02*
X11139D01*
X11064Y7785D02*
Y7935D01*
X11349Y7860D02*
X11499D01*
X11424Y7785D02*
Y7935D01*
X16445Y11290D02*
X16595D01*
X16520Y11215D02*
Y11365D01*
X19475Y12080D02*
X19625D01*
X19550Y12005D02*
Y12155D01*
X19945Y12080D02*
X20095D01*
X20020Y12005D02*
Y12155D01*
X33245Y12080D02*
X33395D01*
X33320Y12005D02*
Y12155D01*
X39925Y21270D02*
X40075D01*
X40000Y21195D02*
Y21345D01*
X39069Y20305D02*
X39219D01*
X39144Y20230D02*
Y20380D01*
X31967Y39424D02*
X32117D01*
X32042Y39349D02*
Y39499D01*
X32429Y36850D02*
X32729D01*
X32579Y36700D02*
Y37000D01*
X32409Y36053D02*
X32709D01*
X32559Y35903D02*
Y36203D01*
X31235Y35770D02*
X31385D01*
X31310Y35695D02*
Y35845D01*
X30565Y36320D02*
X30715D01*
X30640Y36245D02*
Y36395D01*
X3055Y29010D02*
X3205D01*
X3130Y28935D02*
Y29085D01*
X13325Y24160D02*
X13475D01*
X13400Y24085D02*
Y24235D01*
X19865Y24800D02*
X20015D01*
X19940Y24725D02*
Y24875D01*
X36350Y38750D02*
X36590D01*
X36470Y38630D02*
Y38870D01*
X34845Y38750D02*
X34995D01*
X34920Y38675D02*
Y38825D01*
X25695Y31835D02*
X25845D01*
X25770Y31760D02*
Y31910D01*
X25695Y32248D02*
X25845D01*
X25770Y32173D02*
Y32322D01*
X39502Y10896D02*
X39652D01*
X39577Y10821D02*
Y10971D01*
X39615Y12898D02*
X39765D01*
X39690Y12823D02*
Y12974D01*
X39115Y12898D02*
X39265D01*
X39190Y12823D02*
Y12974D01*
X39115Y12249D02*
X39265D01*
X39190Y12174D02*
Y12323D01*
X39115Y11499D02*
X39265D01*
X39190Y11423D02*
Y11573D01*
X39115Y10898D02*
X39265D01*
X39190Y10824D02*
Y10974D01*
X30125Y35300D02*
X30275D01*
X30200Y35225D02*
Y35375D01*
X30725Y34950D02*
X30875D01*
X30800Y34875D02*
Y35025D01*
X29725Y34300D02*
X29875D01*
X29800Y34225D02*
Y34375D01*
X29725Y32950D02*
X29875D01*
X29800Y32875D02*
Y33025D01*
X21723Y31710D02*
X21873D01*
X21798Y31635D02*
Y31785D01*
X21675Y32160D02*
X21825D01*
X21750Y32085D02*
Y32235D01*
X22635Y31710D02*
X22785D01*
X22710Y31635D02*
Y31785D01*
X6725Y25160D02*
X6875D01*
X6800Y25085D02*
Y25235D01*
X21115Y32000D02*
X21265D01*
X21190Y31925D02*
Y32075D01*
X21419Y31710D02*
X21569D01*
X21494Y31635D02*
Y31785D01*
X36845Y38800D02*
X36995D01*
X36920Y38725D02*
Y38875D01*
X12155Y28560D02*
X12305D01*
X12230Y28485D02*
Y28635D01*
X445Y32890D02*
X595D01*
X520Y32815D02*
Y32965D01*
X35345Y38750D02*
X35495D01*
X35420Y38675D02*
Y38825D01*
X31358Y37564D02*
X31508D01*
X31433Y37489D02*
Y37639D01*
X33399Y37352D02*
X33549D01*
X33474Y37277D02*
Y37427D01*
X13115Y32970D02*
X13265D01*
X13190Y32895D02*
Y33045D01*
X9084Y32520D02*
X9234D01*
X9159Y32445D02*
Y32595D01*
X9125Y32970D02*
X9275D01*
X9200Y32895D02*
Y33045D01*
X22331Y31710D02*
X22481D01*
X22406Y31635D02*
Y31785D01*
X21115Y31710D02*
X21265D01*
X21190Y31635D02*
Y31785D01*
X9615Y32980D02*
X9765D01*
X9690Y32905D02*
Y33055D01*
X13645Y32960D02*
X13795D01*
X13720Y32885D02*
Y33035D01*
X4745Y32520D02*
X4895D01*
X4820Y32445D02*
Y32595D01*
X9675Y32520D02*
X9825D01*
X9750Y32445D02*
Y32595D01*
X22195Y32160D02*
X22345D01*
X22270Y32085D02*
Y32235D01*
X35075Y34250D02*
X35225D01*
X35150Y34175D02*
Y34325D01*
X35075Y32950D02*
X35225D01*
X35150Y32875D02*
Y33025D01*
X36025Y32250D02*
X36175D01*
X36100Y32175D02*
Y32325D01*
X30110Y39213D02*
X30310D01*
X30210Y39113D02*
Y39313D01*
X36975Y32950D02*
X37125D01*
X37050Y32875D02*
Y33025D01*
X36975Y34300D02*
X37125D01*
X37050Y34225D02*
Y34375D01*
X35075Y33600D02*
X35225D01*
X35150Y33525D02*
Y33675D01*
X36975Y33600D02*
X37125D01*
X37050Y33525D02*
Y33675D01*
X35075Y32250D02*
X35225D01*
X35150Y32175D02*
Y32325D01*
X36975Y32250D02*
X37125D01*
X37050Y32175D02*
Y32325D01*
X34575Y34250D02*
X34725D01*
X34650Y34175D02*
Y34325D01*
X34575Y33600D02*
X34725D01*
X34650Y33525D02*
Y33675D01*
X34575Y32950D02*
X34725D01*
X34650Y32875D02*
Y33025D01*
X34575Y32250D02*
X34725D01*
X34650Y32175D02*
Y32325D01*
X31725Y34300D02*
X31875D01*
X31800Y34225D02*
Y34375D01*
X31725Y32950D02*
X31875D01*
X31800Y32875D02*
Y33025D01*
X30725Y33600D02*
X30875D01*
X30800Y33525D02*
Y33675D01*
X30725Y32250D02*
X30875D01*
X30800Y32175D02*
Y32325D01*
X29725Y32250D02*
X29875D01*
X29800Y32175D02*
Y32325D01*
X32825Y30800D02*
X32975D01*
X32900Y30725D02*
Y30875D01*
X32825Y30250D02*
X32975D01*
X32900Y30175D02*
Y30325D01*
X32825Y29650D02*
X32975D01*
X32900Y29575D02*
Y29725D01*
X32825Y29100D02*
X32975D01*
X32900Y29025D02*
Y29175D01*
X32825Y28550D02*
X32975D01*
X32900Y28475D02*
Y28625D01*
X35125Y27950D02*
X35275D01*
X35200Y27875D02*
Y28025D01*
X31725Y33550D02*
X31875D01*
X31800Y33475D02*
Y33625D01*
X29725Y33650D02*
X29875D01*
X29800Y33575D02*
Y33725D01*
X31745Y34850D02*
X31895D01*
X31820Y34775D02*
Y34925D01*
X31705Y32240D02*
X31855D01*
X31780Y32165D02*
Y32315D01*
X33825Y34300D02*
X33975D01*
X33900Y34225D02*
Y34375D01*
X33825Y33600D02*
X33975D01*
X33900Y33525D02*
Y33675D01*
X33875Y32950D02*
X34025D01*
X33950Y32875D02*
Y33025D01*
X33875Y32250D02*
X34025D01*
X33950Y32175D02*
Y32325D01*
X33825Y34900D02*
X33975D01*
X33900Y34825D02*
Y34975D01*
X33825Y28550D02*
X33975D01*
X33900Y28475D02*
Y28625D01*
X33825Y29050D02*
X33975D01*
X33900Y28975D02*
Y29125D01*
X33825Y29650D02*
X33975D01*
X33900Y29575D02*
Y29725D01*
X33825Y30250D02*
X33975D01*
X33900Y30175D02*
Y30325D01*
X33875Y30800D02*
X34025D01*
X33950Y30725D02*
Y30875D01*
X34525Y31760D02*
X34675D01*
X34600Y31685D02*
Y31835D01*
X35225Y31760D02*
X35375D01*
X35300Y31685D02*
Y31835D01*
X35925Y31760D02*
X36075D01*
X36000Y31685D02*
Y31835D01*
X36625Y31760D02*
X36775D01*
X36700Y31685D02*
Y31835D01*
X33875Y31500D02*
X34025D01*
X33950Y31425D02*
Y31575D01*
X37325Y31760D02*
X37475D01*
X37400Y31685D02*
Y31835D01*
X39128Y19380D02*
X39278D01*
X39203Y19305D02*
Y19455D01*
X38823Y21250D02*
X38973D01*
X38898Y21175D02*
Y21325D01*
X37975Y19400D02*
X38125D01*
X38050Y19325D02*
Y19475D01*
X39925Y19370D02*
X40075D01*
X40000Y19295D02*
Y19445D01*
X37275Y25450D02*
X37425D01*
X37350Y25375D02*
Y25525D01*
X37275Y24900D02*
X37425D01*
X37350Y24825D02*
Y24975D01*
X37275Y24250D02*
X37425D01*
X37350Y24175D02*
Y24325D01*
X37275Y23650D02*
X37425D01*
X37350Y23575D02*
Y23725D01*
X37275Y26250D02*
X37425D01*
X37350Y26175D02*
Y26325D01*
X38025Y21750D02*
X38175D01*
X38100Y21675D02*
Y21825D01*
X38875Y21750D02*
X39025D01*
X38950Y21675D02*
Y21825D01*
X36025Y29700D02*
X36175D01*
X36100Y29625D02*
Y29775D01*
X35125Y30400D02*
X35275D01*
X35200Y30325D02*
Y30475D01*
X35125Y29050D02*
X35275D01*
X35200Y28975D02*
Y29125D01*
X36025Y28350D02*
X36175D01*
X36100Y28275D02*
Y28425D01*
X36925Y29000D02*
X37075D01*
X37000Y28925D02*
Y29075D01*
X36925Y30350D02*
X37075D01*
X37000Y30275D02*
Y30425D01*
X36025Y31050D02*
X36175D01*
X36100Y30975D02*
Y31125D01*
X36925Y29700D02*
X37075D01*
X37000Y29625D02*
Y29775D01*
X35125Y29750D02*
X35275D01*
X35200Y29675D02*
Y29825D01*
X35125Y31050D02*
X35275D01*
X35200Y30975D02*
Y31125D01*
X35125Y28350D02*
X35275D01*
X35200Y28275D02*
Y28425D01*
X34575Y30400D02*
X34725D01*
X34650Y30325D02*
Y30475D01*
X34575Y29750D02*
X34725D01*
X34650Y29675D02*
Y29825D01*
X34575Y29050D02*
X34725D01*
X34650Y28975D02*
Y29125D01*
X30725Y29700D02*
X30875D01*
X30800Y29625D02*
Y29775D01*
X31675Y30350D02*
X31825D01*
X31750Y30275D02*
Y30425D01*
X31675Y29700D02*
X31825D01*
X31750Y29625D02*
Y29775D01*
X31675Y29000D02*
X31825D01*
X31750Y28925D02*
Y29075D01*
X29775Y29700D02*
X29925D01*
X29850Y29625D02*
Y29775D01*
X29775Y30350D02*
X29925D01*
X29850Y30275D02*
Y30425D01*
X30725Y28400D02*
X30875D01*
X30800Y28325D02*
Y28475D01*
X31675Y28400D02*
X31825D01*
X31750Y28325D02*
Y28475D01*
X30775Y31050D02*
X30925D01*
X30850Y30975D02*
Y31125D01*
X29775Y31050D02*
X29925D01*
X29850Y30975D02*
Y31125D01*
X38281Y15965D02*
X38431D01*
X38356Y15890D02*
Y16040D01*
X39925Y15950D02*
X40075D01*
X40000Y15875D02*
Y16025D01*
X38754Y14016D02*
X38904D01*
X38829Y13941D02*
Y14091D01*
X39384Y14016D02*
X39534D01*
X39459Y13941D02*
Y14091D01*
X40023Y14016D02*
X40173D01*
X40098Y13941D02*
Y14091D01*
X39275Y15950D02*
X39425D01*
X39350Y15875D02*
Y16025D01*
X39275Y16350D02*
X39425D01*
X39350Y16275D02*
Y16425D01*
X39925Y16350D02*
X40075D01*
X40000Y16275D02*
Y16425D01*
X38281Y16339D02*
X38431D01*
X38356Y16264D02*
Y16414D01*
X4354Y18140D02*
X4504D01*
X4429Y18065D02*
Y18215D01*
X39531Y21260D02*
X39681D01*
X39606Y21185D02*
Y21335D01*
X38094Y21260D02*
X38244D01*
X38169Y21185D02*
Y21335D01*
X15225Y24522D02*
X15375D01*
X15300Y24447D02*
Y24597D01*
X13215Y24550D02*
X13365D01*
X13290Y24475D02*
Y24625D01*
X39108Y14990D02*
X39258D01*
X39183Y14915D02*
Y15065D01*
X38783Y16142D02*
X38933D01*
X38858Y16067D02*
Y16217D01*
X38065Y14006D02*
X38215D01*
X38140Y13931D02*
Y14081D01*
X30043Y35817D02*
X30193D01*
X30118Y35742D02*
Y35892D01*
X34115Y12080D02*
X34265D01*
X34190Y12005D02*
Y12155D01*
X33645Y12080D02*
X33795D01*
X33720Y12005D02*
Y12155D01*
X26136Y12080D02*
X26286D01*
X26211Y12005D02*
Y12155D01*
X26556Y12080D02*
X26706D01*
X26631Y12005D02*
Y12155D01*
X27026Y12080D02*
X27176D01*
X27101Y12005D02*
Y12155D01*
X13815Y23880D02*
X13965D01*
X13890Y23805D02*
Y23955D01*
X30275Y14510D02*
X30425D01*
X30350Y14435D02*
Y14585D01*
X29105Y15060D02*
X29255D01*
X29180Y14985D02*
Y15135D01*
X27725Y17180D02*
X27875D01*
X27800Y17105D02*
Y17255D01*
X30225Y17180D02*
X30375D01*
X30300Y17105D02*
Y17255D01*
X29205Y17450D02*
X29355D01*
X29280Y17375D02*
Y17525D01*
X32685Y17120D02*
X32835D01*
X32760Y17045D02*
Y17195D01*
X34205Y17430D02*
X34355D01*
X34280Y17355D02*
Y17505D01*
X31185Y16970D02*
X31335D01*
X31260Y16895D02*
Y17045D01*
X31705Y17450D02*
X31855D01*
X31780Y17375D02*
Y17525D01*
X33715Y16970D02*
X33865D01*
X33790Y16895D02*
Y17045D01*
X28415Y16680D02*
X28565D01*
X28490Y16605D02*
Y16755D01*
X13215Y24930D02*
X13365D01*
X13290Y24855D02*
Y25005D01*
X35705Y17160D02*
X35855D01*
X35780Y17085D02*
Y17235D01*
X26685Y17430D02*
X26835D01*
X26760Y17355D02*
Y17505D01*
X28495Y15980D02*
X28645D01*
X28570Y15905D02*
Y16055D01*
X31245Y15970D02*
X31395D01*
X31320Y15895D02*
Y16045D01*
X22355Y18580D02*
X22505D01*
X22430Y18505D02*
Y18655D01*
X22145Y18880D02*
X22295D01*
X22220Y18805D02*
Y18955D01*
X22355Y19190D02*
X22505D01*
X22430Y19115D02*
Y19265D01*
X22085Y16060D02*
X22235D01*
X22160Y15985D02*
Y16135D01*
X15215Y18950D02*
X15365D01*
X15290Y18875D02*
Y19025D01*
X15505Y18620D02*
X15655D01*
X15580Y18545D02*
Y18695D01*
X23585Y19750D02*
X23735D01*
X23660Y19675D02*
Y19825D01*
X23565Y23640D02*
X23715D01*
X23640Y23565D02*
Y23715D01*
X21985Y19480D02*
X22135D01*
X22060Y19405D02*
Y19555D01*
X22205Y19770D02*
X22355D01*
X22280Y19695D02*
Y19845D01*
X23655Y20740D02*
X23805D01*
X23730Y20665D02*
Y20815D01*
X30135Y13910D02*
X30285D01*
X30210Y13835D02*
Y13985D01*
X7675Y7170D02*
X7825D01*
X7750Y7095D02*
Y7245D01*
X5871Y9010D02*
X6021D01*
X5946Y8935D02*
Y9085D01*
X14785Y7160D02*
X14935D01*
X14860Y7085D02*
Y7235D01*
X14075Y7680D02*
X14225D01*
X14150Y7605D02*
Y7755D01*
X19585Y25050D02*
X19735D01*
X19660Y24975D02*
Y25125D01*
X19265Y24830D02*
X19415D01*
X19340Y24755D02*
Y24905D01*
X33705Y15990D02*
X33855D01*
X33780Y15915D02*
Y16065D01*
X22165Y20860D02*
X22315D01*
X22240Y20785D02*
Y20935D01*
X20575Y26970D02*
X20725D01*
X20650Y26895D02*
Y27045D01*
X20215Y25050D02*
X20365D01*
X20290Y24975D02*
Y25125D01*
X20175Y26610D02*
X20325D01*
X20250Y26535D02*
Y26685D01*
X19455Y26120D02*
X19605D01*
X19530Y26045D02*
Y26195D01*
X19815Y26710D02*
X19965D01*
X19890Y26635D02*
Y26785D01*
X20265Y24690D02*
X20415D01*
X20340Y24615D02*
Y24765D01*
X23545Y22740D02*
X23695D01*
X23620Y22665D02*
Y22815D01*
X23925Y23550D02*
X24075D01*
X24000Y23475D02*
Y23625D01*
X23825Y22970D02*
X23975D01*
X23900Y22895D02*
Y23045D01*
X29135Y13550D02*
X29285D01*
X29210Y13475D02*
Y13625D01*
X21689Y23640D02*
X21839D01*
X21764Y23565D02*
Y23715D01*
X26195Y15990D02*
X26345D01*
X26270Y15915D02*
Y16065D01*
X17105Y25130D02*
X17255D01*
X17180Y25055D02*
Y25205D01*
X21845Y19820D02*
X21995D01*
X21920Y19745D02*
Y19895D01*
X21895Y20580D02*
X22045D01*
X21970Y20505D02*
Y20655D01*
X21595Y20140D02*
X21745D01*
X21670Y20065D02*
Y20215D01*
X15205Y18330D02*
X15355D01*
X15280Y18255D02*
Y18405D01*
X15565Y18240D02*
X15715D01*
X15640Y18165D02*
Y18315D01*
X19825Y13330D02*
X19975D01*
X19900Y13255D02*
Y13405D01*
X23305Y13320D02*
X23455D01*
X23380Y13245D02*
Y13395D01*
X19355Y17905D02*
X19505D01*
X19430Y17830D02*
Y17980D01*
X16118Y16663D02*
X16268D01*
X16193Y16588D02*
Y16738D01*
X15155Y16810D02*
X15305D01*
X15230Y16735D02*
Y16885D01*
X14805Y16940D02*
X14955D01*
X14880Y16865D02*
Y17015D01*
X14265Y17270D02*
X14415D01*
X14340Y17195D02*
Y17345D01*
X14605Y17450D02*
X14755D01*
X14680Y17375D02*
Y17525D01*
X13555Y16290D02*
X13705D01*
X13630Y16215D02*
Y16365D01*
X5676Y19050D02*
X5826D01*
X5751Y18975D02*
Y19125D01*
X1866Y19900D02*
X2016D01*
X1941Y19825D02*
Y19975D01*
X425Y10580D02*
X575D01*
X500Y10505D02*
Y10655D01*
X375Y31390D02*
X525D01*
X450Y31315D02*
Y31465D01*
X415Y12690D02*
X565D01*
X490Y12615D02*
Y12765D01*
X21875Y7170D02*
X22025D01*
X21950Y7095D02*
Y7245D01*
X21165Y7660D02*
X21315D01*
X21240Y7585D02*
Y7735D01*
X19930Y9010D02*
X20080D01*
X20005Y8935D02*
Y9085D01*
X28935Y7150D02*
X29085D01*
X29010Y7075D02*
Y7225D01*
X28295Y7590D02*
X28445D01*
X28370Y7515D02*
Y7665D01*
X35355Y7650D02*
X35505D01*
X35430Y7575D02*
Y7725D01*
X36055Y7160D02*
X36205D01*
X36130Y7085D02*
Y7235D01*
X13425Y12335D02*
X13575D01*
X13500Y12260D02*
Y12410D01*
X2785Y11280D02*
X2935D01*
X2860Y11205D02*
Y11355D01*
X23475Y11270D02*
X23625D01*
X23550Y11195D02*
Y11345D01*
X30375Y11090D02*
X30525D01*
X30450Y11015D02*
Y11165D01*
X35485Y9674D02*
X35635D01*
X35560Y9599D02*
Y9749D01*
X35485Y8794D02*
X35635D01*
X35560Y8719D02*
Y8869D01*
X35485Y9230D02*
X35635D01*
X35560Y9155D02*
Y9305D01*
X28355Y9230D02*
X28505D01*
X28430Y9155D02*
Y9305D01*
X28355Y8794D02*
X28505D01*
X28430Y8719D02*
Y8869D01*
X28355Y9674D02*
X28505D01*
X28430Y9599D02*
Y9749D01*
X21285Y9230D02*
X21435D01*
X21360Y9155D02*
Y9305D01*
X21285Y8794D02*
X21435D01*
X21360Y8719D02*
Y8869D01*
X21285Y9674D02*
X21435D01*
X21360Y9599D02*
Y9749D01*
X14225Y9230D02*
X14375D01*
X14300Y9155D02*
Y9305D01*
X14225Y8794D02*
X14375D01*
X14300Y8719D02*
Y8869D01*
X14225Y9674D02*
X14375D01*
X14300Y9599D02*
Y9749D01*
X7125Y9230D02*
X7275D01*
X7200Y9155D02*
Y9305D01*
X7145Y8794D02*
X7295D01*
X7220Y8719D02*
Y8869D01*
X7125Y9674D02*
X7275D01*
X7200Y9599D02*
Y9749D01*
X35525Y11264D02*
X35675D01*
X35600Y11189D02*
Y11339D01*
X35525Y10827D02*
X35675D01*
X35600Y10752D02*
Y10902D01*
X35525Y11707D02*
X35675D01*
X35600Y11632D02*
Y11782D01*
X28395Y11707D02*
X28545D01*
X28470Y11632D02*
Y11782D01*
X28395Y10827D02*
X28545D01*
X28470Y10752D02*
Y10902D01*
X28395Y11264D02*
X28545D01*
X28470Y11189D02*
Y11339D01*
X21325Y11707D02*
X21475D01*
X21400Y11632D02*
Y11782D01*
X21325Y10827D02*
X21475D01*
X21400Y10752D02*
Y10902D01*
X21325Y11264D02*
X21475D01*
X21400Y11189D02*
Y11339D01*
X14265Y11707D02*
X14415D01*
X14340Y11632D02*
Y11782D01*
X14265Y10827D02*
X14415D01*
X14340Y10752D02*
Y10902D01*
X14265Y11264D02*
X14415D01*
X14340Y11189D02*
Y11339D01*
X7165Y11707D02*
X7315D01*
X7240Y11632D02*
Y11782D01*
X7165Y10827D02*
X7315D01*
X7240Y10752D02*
Y10902D01*
X7165Y11264D02*
X7315D01*
X7240Y11189D02*
Y11339D01*
X2136Y17070D02*
X2286D01*
X2211Y16995D02*
Y17145D01*
X435Y20090D02*
X585D01*
X510Y20015D02*
Y20165D01*
X1006Y18910D02*
X1156D01*
X1081Y18835D02*
Y18985D01*
X2696Y18910D02*
X2846D01*
X2771Y18835D02*
Y18985D01*
X16337Y34200D02*
X16487D01*
X16412Y34125D02*
Y34275D01*
X25427Y30642D02*
X25577D01*
X25502Y30567D02*
Y30717D01*
X22075Y21210D02*
X22225D01*
X22150Y21135D02*
Y21285D01*
X21735Y21570D02*
X21885D01*
X21810Y21495D02*
Y21645D01*
X406Y14090D02*
X556D01*
X481Y14015D02*
Y14165D01*
X406Y17920D02*
X556D01*
X481Y17845D02*
Y17995D01*
X406Y17480D02*
X556D01*
X481Y17405D02*
Y17555D01*
X406Y14520D02*
X556D01*
X481Y14445D02*
Y14595D01*
X2116Y16630D02*
X2266D01*
X2191Y16555D02*
Y16705D01*
X27735Y20240D02*
X27885D01*
X27810Y20165D02*
Y20315D01*
X29535Y20240D02*
X29685D01*
X29610Y20165D02*
Y20315D01*
X35155Y20230D02*
X35305D01*
X35230Y20155D02*
Y20305D01*
X27735Y21280D02*
X27885D01*
X27810Y21205D02*
Y21355D01*
X29535Y21280D02*
X29685D01*
X29610Y21205D02*
Y21355D01*
X31185Y21270D02*
X31335D01*
X31260Y21195D02*
Y21345D01*
X33475Y21270D02*
X33625D01*
X33550Y21195D02*
Y21345D01*
X35155Y21270D02*
X35305D01*
X35230Y21195D02*
Y21345D01*
X35592Y21280D02*
X35742D01*
X35667Y21205D02*
Y21355D01*
X31622Y21290D02*
X31772D01*
X31697Y21215D02*
Y21365D01*
X33932Y21290D02*
X34082D01*
X34007Y21215D02*
Y21365D01*
X29972Y21290D02*
X30122D01*
X30047Y21215D02*
Y21365D01*
X28162Y21290D02*
X28312D01*
X28237Y21215D02*
Y21365D01*
X31185Y20240D02*
X31335D01*
X31260Y20165D02*
Y20315D01*
X33475Y20250D02*
X33625D01*
X33550Y20175D02*
Y20325D01*
X31975Y21610D02*
X32125D01*
X32050Y21535D02*
Y21685D01*
X28515Y21540D02*
X28665D01*
X28590Y21465D02*
Y21615D01*
X25835Y20230D02*
X25985D01*
X25910Y20155D02*
Y20305D01*
X26195Y20230D02*
X26345D01*
X26270Y20155D02*
Y20305D01*
X26145Y21300D02*
X26295D01*
X26220Y21225D02*
Y21375D01*
X26545Y21280D02*
X26695D01*
X26620Y21205D02*
Y21355D01*
X27365Y22280D02*
X27515D01*
X27440Y22205D02*
Y22355D01*
X29165Y22280D02*
X29315D01*
X29240Y22205D02*
Y22355D01*
X30535Y22280D02*
X30685D01*
X30610Y22205D02*
Y22355D01*
X33105Y22280D02*
X33255D01*
X33180Y22205D02*
Y22355D01*
X34655Y22280D02*
X34805D01*
X34730Y22205D02*
Y22355D01*
X40455Y18520D02*
X40605D01*
X40530Y18445D02*
Y18595D01*
X40455Y18820D02*
X40605D01*
X40530Y18745D02*
Y18895D01*
X40455Y18220D02*
X40605D01*
X40530Y18145D02*
Y18295D01*
X38485Y3620D02*
X38635D01*
X38560Y3545D02*
Y3695D01*
X21925Y26510D02*
X22075D01*
X22000Y26435D02*
Y26585D01*
X14055Y20510D02*
X14205D01*
X14130Y20435D02*
Y20585D01*
X15675Y20240D02*
X15825D01*
X15750Y20165D02*
Y20315D01*
X14305Y16760D02*
X14455D01*
X14380Y16685D02*
Y16835D01*
X12375Y16740D02*
X12525D01*
X12450Y16665D02*
Y16815D01*
X12115Y28170D02*
X12265D01*
X12190Y28095D02*
Y28245D01*
X6405Y28270D02*
X6555D01*
X6480Y28195D02*
Y28345D01*
X6055Y27660D02*
X6205D01*
X6130Y27585D02*
Y27735D01*
X21175Y16000D02*
X21325D01*
X21250Y15925D02*
Y16075D01*
X20945Y16280D02*
X21095D01*
X21020Y16205D02*
Y16355D01*
X20695Y16020D02*
X20845D01*
X20770Y15945D02*
Y16095D01*
X20655Y15630D02*
X20805D01*
X20730Y15555D02*
Y15705D01*
X18785Y16370D02*
X18935D01*
X18860Y16295D02*
Y16445D01*
X18585Y16710D02*
X18735D01*
X18660Y16635D02*
Y16785D01*
X18445Y16200D02*
X18595D01*
X18520Y16125D02*
Y16275D01*
X18185Y15915D02*
X18335D01*
X18260Y15840D02*
Y15990D01*
X26215Y16950D02*
X26365D01*
X26290Y16875D02*
Y17025D01*
X26285Y17550D02*
X26435D01*
X26360Y17475D02*
Y17625D01*
X25665Y19270D02*
X25815D01*
X25740Y19195D02*
Y19345D01*
X25625Y17700D02*
X25775D01*
X25700Y17625D02*
Y17775D01*
X22885Y16940D02*
X23035D01*
X22960Y16865D02*
Y17015D01*
X22905Y15820D02*
X23055D01*
X22980Y15745D02*
Y15895D01*
X23265Y15810D02*
X23415D01*
X23340Y15735D02*
Y15885D01*
X23235Y14720D02*
X23385D01*
X23310Y14645D02*
Y14795D01*
X17605Y24860D02*
X17755D01*
X17680Y24785D02*
Y24935D01*
X17965Y24820D02*
X18115D01*
X18040Y24745D02*
Y24895D01*
X38865Y33090D02*
X39015D01*
X38940Y33015D02*
Y33165D01*
X39925Y33830D02*
X40075D01*
X40000Y33755D02*
Y33905D01*
X38895Y34710D02*
X39045D01*
X38970Y34635D02*
Y34785D01*
X38006Y32982D02*
X38156D01*
X38081Y32907D02*
Y33057D01*
X37805Y34330D02*
X37955D01*
X37880Y34255D02*
Y34405D01*
X39885Y34400D02*
X40035D01*
X39960Y34325D02*
Y34475D01*
X39875Y33290D02*
X40025D01*
X39950Y33215D02*
Y33365D01*
X37805Y31780D02*
X37955D01*
X37880Y31705D02*
Y31855D01*
X38895Y32550D02*
X39045D01*
X38970Y32475D02*
Y32625D01*
X38915Y31090D02*
X39065D01*
X38990Y31015D02*
Y31165D01*
X39925Y31830D02*
X40075D01*
X40000Y31755D02*
Y31905D01*
X39925Y31410D02*
X40075D01*
X40000Y31335D02*
Y31485D01*
X39915Y32280D02*
X40065D01*
X39990Y32205D02*
Y32355D01*
X39365Y32530D02*
X39515D01*
X39440Y32455D02*
Y32605D01*
X38475Y32530D02*
X38625D01*
X38550Y32455D02*
Y32605D01*
X37875Y32150D02*
X38025D01*
X37950Y32075D02*
Y32225D01*
X37935Y31390D02*
X38085D01*
X38010Y31315D02*
Y31465D01*
X38495Y31120D02*
X38645D01*
X38570Y31045D02*
Y31195D01*
X39315Y31130D02*
X39465D01*
X39390Y31055D02*
Y31205D01*
X39915Y29310D02*
X40065D01*
X39990Y29235D02*
Y29385D01*
X39925Y30320D02*
X40075D01*
X40000Y30245D02*
Y30395D01*
X37805Y30330D02*
X37955D01*
X37880Y30255D02*
Y30405D01*
X37795Y29390D02*
X37945D01*
X37870Y29315D02*
Y29465D01*
X38905Y30580D02*
X39055D01*
X38980Y30505D02*
Y30655D01*
X39925Y29830D02*
X40075D01*
X40000Y29755D02*
Y29905D01*
X38865Y29090D02*
X39015D01*
X38940Y29015D02*
Y29165D01*
X39315Y27130D02*
X39465D01*
X39390Y27055D02*
Y27205D01*
X38495Y27120D02*
X38645D01*
X38570Y27045D02*
Y27195D01*
X37935Y27390D02*
X38085D01*
X38010Y27315D02*
Y27465D01*
X37875Y28150D02*
X38025D01*
X37950Y28075D02*
Y28225D01*
X38475Y28530D02*
X38625D01*
X38550Y28455D02*
Y28605D01*
X39365Y28530D02*
X39515D01*
X39440Y28455D02*
Y28605D01*
X39915Y28280D02*
X40065D01*
X39990Y28205D02*
Y28355D01*
X39925Y27410D02*
X40075D01*
X40000Y27335D02*
Y27485D01*
X39925Y27830D02*
X40075D01*
X40000Y27755D02*
Y27905D01*
X38915Y27090D02*
X39065D01*
X38990Y27015D02*
Y27165D01*
X38895Y28550D02*
X39045D01*
X38970Y28475D02*
Y28625D01*
X37805Y27780D02*
X37955D01*
X37880Y27705D02*
Y27855D01*
X38830Y24520D02*
X39070D01*
X38950Y24400D02*
Y24640D01*
X38830Y23160D02*
X39070D01*
X38950Y23040D02*
Y23280D01*
X39210Y24520D02*
X39450D01*
X39330Y24400D02*
Y24640D01*
X38430Y24520D02*
X38670D01*
X38550Y24400D02*
Y24640D01*
X39230Y23160D02*
X39470D01*
X39350Y23040D02*
Y23280D01*
X38430Y23160D02*
X38670D01*
X38550Y23040D02*
Y23280D01*
X38885Y26500D02*
X39035D01*
X38960Y26425D02*
Y26575D01*
X39365Y26520D02*
X39515D01*
X39440Y26445D02*
Y26595D01*
X39855Y25850D02*
X40005D01*
X39930Y25775D02*
Y25925D01*
X39845Y25230D02*
X39995D01*
X39920Y25155D02*
Y25305D01*
X39845Y26320D02*
X39995D01*
X39920Y26245D02*
Y26395D01*
X38325Y26520D02*
X38475D01*
X38400Y26445D02*
Y26595D01*
X37865Y26440D02*
X38015D01*
X37940Y26365D02*
Y26515D01*
X37905Y25260D02*
X38055D01*
X37980Y25185D02*
Y25335D01*
X38835Y25120D02*
X38985D01*
X38910Y25045D02*
Y25195D01*
X39285Y25130D02*
X39435D01*
X39360Y25055D02*
Y25205D01*
X38365Y25120D02*
X38515D01*
X38440Y25045D02*
Y25195D01*
X39545Y21760D02*
X39695D01*
X39620Y21685D02*
Y21835D01*
X32825Y28090D02*
X32975D01*
X32900Y28015D02*
Y28165D01*
X24975Y39640D02*
X25125D01*
X25050Y39565D02*
Y39715D01*
X26705Y38880D02*
X26855D01*
X26780Y38805D02*
Y38955D01*
X26695Y39240D02*
X26845D01*
X26770Y39165D02*
Y39315D01*
X26705Y39610D02*
X26855D01*
X26780Y39535D02*
Y39685D01*
X28255Y38870D02*
X28405D01*
X28330Y38795D02*
Y38945D01*
X28255Y39680D02*
X28405D01*
X28330Y39605D02*
Y39755D01*
X28255Y39260D02*
X28405D01*
X28330Y39185D02*
Y39335D01*
X29195Y39710D02*
X29345D01*
X29270Y39635D02*
Y39785D01*
X29205Y39280D02*
X29355D01*
X29280Y39205D02*
Y39355D01*
X29205Y38860D02*
X29355D01*
X29280Y38785D02*
Y38935D01*
X29555Y39700D02*
X29705D01*
X29630Y39625D02*
Y39775D01*
X29555Y38870D02*
X29705D01*
X29630Y38795D02*
Y38945D01*
X27405Y38880D02*
X27555D01*
X27480Y38805D02*
Y38955D01*
X27385Y39680D02*
X27535D01*
X27460Y39605D02*
Y39755D01*
X30815Y27360D02*
X30965D01*
X30890Y27285D02*
Y27435D01*
X29975Y27370D02*
X30125D01*
X30050Y27295D02*
Y27445D01*
X31695Y27680D02*
X31845D01*
X31770Y27605D02*
Y27755D01*
X26665Y33610D02*
X26815D01*
X26740Y33535D02*
Y33685D01*
X29745Y28410D02*
X29895D01*
X29820Y28335D02*
Y28485D01*
X29755Y29010D02*
X29905D01*
X29830Y28935D02*
Y29085D01*
X31665Y31040D02*
X31815D01*
X31740Y30965D02*
Y31115D01*
X27285Y27340D02*
X27435D01*
X27360Y27265D02*
Y27415D01*
X27285Y27820D02*
X27435D01*
X27360Y27745D02*
Y27895D01*
X28405Y27830D02*
X28555D01*
X28480Y27755D02*
Y27905D01*
X28405Y27410D02*
X28555D01*
X28480Y27335D02*
Y27485D01*
X27285Y28220D02*
X27435D01*
X27360Y28145D02*
Y28295D01*
X26251Y28766D02*
X26401D01*
X26326Y28691D02*
Y28841D01*
X26281Y28376D02*
X26431D01*
X26356Y28301D02*
Y28451D01*
X26261Y28006D02*
X26411D01*
X26336Y27931D02*
Y28081D01*
X25695Y32660D02*
X25845D01*
X25770Y32585D02*
Y32735D01*
X25985Y32660D02*
X26135D01*
X26060Y32585D02*
Y32735D01*
X26705Y32650D02*
X26855D01*
X26780Y32575D02*
Y32725D01*
X25695Y31010D02*
X25845D01*
X25770Y30935D02*
Y31085D01*
X25985Y31000D02*
X26135D01*
X26060Y30925D02*
Y31075D01*
X26705Y31000D02*
X26855D01*
X26780Y30925D02*
Y31075D01*
X25695Y31423D02*
X25845D01*
X25770Y31347D02*
Y31497D01*
X26705Y32238D02*
X26855D01*
X26780Y32162D02*
Y32313D01*
X26705Y31825D02*
X26855D01*
X26780Y31750D02*
Y31900D01*
X26705Y31412D02*
X26855D01*
X26780Y31337D02*
Y31488D01*
X25715Y34830D02*
X25865D01*
X25790Y34755D02*
Y34905D01*
X25715Y34290D02*
X25865D01*
X25790Y34215D02*
Y34365D01*
X7835Y35590D02*
X7985D01*
X7910Y35515D02*
Y35665D01*
X27035Y38880D02*
X27185D01*
X27110Y38805D02*
Y38955D01*
X27035Y39250D02*
X27185D01*
X27110Y39175D02*
Y39325D01*
X15385Y38510D02*
X15535D01*
X15460Y38435D02*
Y38585D01*
X14065Y38510D02*
X14215D01*
X14140Y38435D02*
Y38585D01*
X12395Y36870D02*
X12545D01*
X12470Y36795D02*
Y36945D01*
X15395Y38120D02*
X15545D01*
X15470Y38045D02*
Y38195D01*
X15405Y38920D02*
X15555D01*
X15480Y38845D02*
Y38995D01*
X14065Y38900D02*
X14215D01*
X14140Y38825D02*
Y38975D01*
X14065Y38130D02*
X14215D01*
X14140Y38055D02*
Y38205D01*
X8445Y36890D02*
X8595D01*
X8520Y36815D02*
Y36965D01*
X4085Y35740D02*
X4235D01*
X4160Y35665D02*
Y35815D01*
X14105Y36990D02*
X14255D01*
X14180Y36915D02*
Y37065D01*
X15405Y36970D02*
X15555D01*
X15480Y36895D02*
Y37045D01*
X11405Y36970D02*
X11555D01*
X11480Y36895D02*
Y37045D01*
X10105Y36990D02*
X10255D01*
X10180Y36915D02*
Y37065D01*
X10065Y38130D02*
X10215D01*
X10140Y38055D02*
Y38205D01*
X10065Y38900D02*
X10215D01*
X10140Y38825D02*
Y38975D01*
X11405Y38920D02*
X11555D01*
X11480Y38845D02*
Y38995D01*
X11395Y38120D02*
X11545D01*
X11470Y38045D02*
Y38195D01*
X10065Y38510D02*
X10215D01*
X10140Y38435D02*
Y38585D01*
X11385Y38510D02*
X11535D01*
X11460Y38435D02*
Y38585D01*
X7405Y36970D02*
X7555D01*
X7480Y36895D02*
Y37045D01*
X6105Y36990D02*
X6255D01*
X6180Y36915D02*
Y37065D01*
X6065Y38130D02*
X6215D01*
X6140Y38055D02*
Y38205D01*
X6065Y38900D02*
X6215D01*
X6140Y38825D02*
Y38975D01*
X7405Y38920D02*
X7555D01*
X7480Y38845D02*
Y38995D01*
X7395Y38120D02*
X7545D01*
X7470Y38045D02*
Y38195D01*
X6065Y38510D02*
X6215D01*
X6140Y38435D02*
Y38585D01*
X7385Y38510D02*
X7535D01*
X7460Y38435D02*
Y38585D01*
X27035Y39610D02*
X27185D01*
X27110Y39535D02*
Y39685D01*
X4695Y35610D02*
X4845D01*
X4770Y35535D02*
Y35685D01*
X11820Y35590D02*
X11970D01*
X11895Y35515D02*
Y35665D01*
X8285Y35370D02*
X8435D01*
X8360Y35295D02*
Y35445D01*
X8285Y34460D02*
X8435D01*
X8360Y34385D02*
Y34535D01*
X12295Y34460D02*
X12445D01*
X12370Y34385D02*
Y34535D01*
X12295Y35370D02*
X12445D01*
X12370Y35295D02*
Y35445D01*
X15830Y35590D02*
X15980D01*
X15905Y35515D02*
Y35665D01*
X20305Y36020D02*
X20455D01*
X20380Y35945D02*
Y36095D01*
X8315Y36220D02*
X8465D01*
X8390Y36145D02*
Y36295D01*
X12305Y36240D02*
X12455D01*
X12380Y36165D02*
Y36315D01*
X24765Y35950D02*
X24915D01*
X24840Y35875D02*
Y36025D01*
X25285Y32830D02*
X25435D01*
X25360Y32755D02*
Y32905D01*
X23915Y32790D02*
X24065D01*
X23990Y32715D02*
Y32865D01*
X22405Y36020D02*
X22555D01*
X22480Y35945D02*
Y36095D01*
X20925Y33000D02*
X21075D01*
X21000Y32925D02*
Y33075D01*
X20925Y34000D02*
X21075D01*
X21000Y33925D02*
Y34075D01*
X20915Y33520D02*
X21065D01*
X20990Y33445D02*
Y33595D01*
X20505Y35000D02*
X20655D01*
X20580Y34925D02*
Y35075D01*
X21425Y35000D02*
X21575D01*
X21500Y34925D02*
Y35075D01*
X22425Y35000D02*
X22575D01*
X22500Y34925D02*
Y35075D01*
X23425Y35000D02*
X23575D01*
X23500Y34925D02*
Y35075D01*
X24425Y35000D02*
X24575D01*
X24500Y34925D02*
Y35075D01*
X25385Y35010D02*
X25535D01*
X25460Y34935D02*
Y35085D01*
X24425Y34000D02*
X24575D01*
X24500Y33925D02*
Y34075D01*
X24425Y33000D02*
X24575D01*
X24500Y32925D02*
Y33075D01*
X23425Y33000D02*
X23575D01*
X23500Y32925D02*
Y33075D01*
X23425Y34000D02*
X23575D01*
X23500Y33925D02*
Y34075D01*
X25425Y34000D02*
X25575D01*
X25500Y33925D02*
Y34075D01*
X21425Y36000D02*
X21575D01*
X21500Y35925D02*
Y36075D01*
X725Y12920D02*
X875D01*
X800Y12845D02*
Y12995D01*
X2845Y29550D02*
X2995D01*
X2920Y29475D02*
Y29625D01*
X40325Y35470D02*
X40475D01*
X40400Y35395D02*
Y35545D01*
X40325Y35870D02*
X40475D01*
X40400Y35795D02*
Y35945D01*
X40325Y36460D02*
X40475D01*
X40400Y36385D02*
Y36535D01*
X39925Y21760D02*
X40075D01*
X40000Y21685D02*
Y21835D01*
X38800Y36457D02*
X38950D01*
X38875Y36382D02*
Y36532D01*
X39280Y35867D02*
X39430D01*
X39355Y35792D02*
Y35942D01*
X39280Y35467D02*
X39430D01*
X39355Y35392D02*
Y35542D01*
X34565Y31370D02*
X34715D01*
X34640Y31295D02*
Y31445D01*
X34575Y28340D02*
X34725D01*
X34650Y28265D02*
Y28415D01*
X34575Y34960D02*
X34725D01*
X34650Y34885D02*
Y35035D01*
X35085Y34960D02*
X35235D01*
X35160Y34885D02*
Y35035D01*
X32575Y32120D02*
X32725D01*
X32650Y32045D02*
Y32195D01*
X32575Y32580D02*
X32725D01*
X32650Y32505D02*
Y32655D01*
X32575Y33130D02*
X32725D01*
X32650Y33055D02*
Y33205D01*
X32575Y33680D02*
X32725D01*
X32650Y33605D02*
Y33755D01*
X32575Y34280D02*
X32725D01*
X32650Y34205D02*
Y34355D01*
X32575Y34830D02*
X32725D01*
X32650Y34755D02*
Y34905D01*
X39091Y37006D02*
X39241D01*
X39166Y36931D02*
Y37081D01*
X37255Y10020D02*
X37405D01*
X37330Y9945D02*
Y10095D01*
X37645Y8820D02*
X37795D01*
X37720Y8745D02*
Y8895D01*
X37645Y9360D02*
X37795D01*
X37720Y9285D02*
Y9435D01*
X1815Y26500D02*
X1965D01*
X1890Y26425D02*
Y26575D01*
X3285Y1480D02*
X3435D01*
X3360Y1405D02*
Y1555D01*
X32625Y7600D02*
X32775D01*
X32700Y7525D02*
Y7675D01*
X30675Y7180D02*
X30825D01*
X30750Y7105D02*
Y7255D01*
X23585Y7170D02*
X23735D01*
X23660Y7095D02*
Y7245D01*
X16495Y7170D02*
X16645D01*
X16570Y7095D02*
Y7245D01*
X2435Y7170D02*
X2585D01*
X2510Y7095D02*
Y7245D01*
X9405Y7180D02*
X9555D01*
X9480Y7105D02*
Y7255D01*
X6040Y33820D02*
X6190D01*
X6115Y33745D02*
Y33895D01*
X6440Y33820D02*
X6590D01*
X6515Y33745D02*
Y33895D01*
X6440Y34220D02*
X6590D01*
X6515Y34145D02*
Y34295D01*
X6040Y34220D02*
X6190D01*
X6115Y34145D02*
Y34295D01*
X6040Y34620D02*
X6190D01*
X6115Y34545D02*
Y34695D01*
X6440Y34620D02*
X6590D01*
X6515Y34545D02*
Y34695D01*
X6440Y35020D02*
X6590D01*
X6515Y34945D02*
Y35095D01*
X6040Y35020D02*
X6190D01*
X6115Y34945D02*
Y35095D01*
X5240Y35020D02*
X5390D01*
X5315Y34945D02*
Y35095D01*
X4840Y35020D02*
X4990D01*
X4915Y34945D02*
Y35095D01*
X4840Y34620D02*
X4990D01*
X4915Y34545D02*
Y34695D01*
X5240Y34620D02*
X5390D01*
X5315Y34545D02*
Y34695D01*
X5240Y34220D02*
X5390D01*
X5315Y34145D02*
Y34295D01*
X4840Y34220D02*
X4990D01*
X4915Y34145D02*
Y34295D01*
X4840Y33820D02*
X4990D01*
X4915Y33745D02*
Y33895D01*
X5240Y33820D02*
X5390D01*
X5315Y33745D02*
Y33895D01*
X5640Y33820D02*
X5790D01*
X5715Y33745D02*
Y33895D01*
X5640Y34220D02*
X5790D01*
X5715Y34145D02*
Y34295D01*
X5640Y35020D02*
X5790D01*
X5715Y34945D02*
Y35095D01*
X5640Y34620D02*
X5790D01*
X5715Y34545D02*
Y34695D01*
X10025Y33820D02*
X10175D01*
X10100Y33745D02*
Y33895D01*
X10425Y33820D02*
X10575D01*
X10500Y33745D02*
Y33895D01*
X10425Y34220D02*
X10575D01*
X10500Y34145D02*
Y34295D01*
X10025Y34220D02*
X10175D01*
X10100Y34145D02*
Y34295D01*
X10025Y34620D02*
X10175D01*
X10100Y34545D02*
Y34695D01*
X10425Y34620D02*
X10575D01*
X10500Y34545D02*
Y34695D01*
X10425Y35020D02*
X10575D01*
X10500Y34945D02*
Y35095D01*
X10025Y35020D02*
X10175D01*
X10100Y34945D02*
Y35095D01*
X9225Y35020D02*
X9375D01*
X9300Y34945D02*
Y35095D01*
X8825Y35020D02*
X8975D01*
X8900Y34945D02*
Y35095D01*
X8825Y34620D02*
X8975D01*
X8900Y34545D02*
Y34695D01*
X9225Y34620D02*
X9375D01*
X9300Y34545D02*
Y34695D01*
X9225Y34220D02*
X9375D01*
X9300Y34145D02*
Y34295D01*
X8825Y34220D02*
X8975D01*
X8900Y34145D02*
Y34295D01*
X8825Y33820D02*
X8975D01*
X8900Y33745D02*
Y33895D01*
X9225Y33820D02*
X9375D01*
X9300Y33745D02*
Y33895D01*
X9625Y33820D02*
X9775D01*
X9700Y33745D02*
Y33895D01*
X9625Y34220D02*
X9775D01*
X9700Y34145D02*
Y34295D01*
X9625Y35020D02*
X9775D01*
X9700Y34945D02*
Y35095D01*
X9625Y34620D02*
X9775D01*
X9700Y34545D02*
Y34695D01*
X14035Y33820D02*
X14185D01*
X14110Y33745D02*
Y33895D01*
X14435Y33820D02*
X14585D01*
X14510Y33745D02*
Y33895D01*
X14435Y34220D02*
X14585D01*
X14510Y34145D02*
Y34295D01*
X14035Y34220D02*
X14185D01*
X14110Y34145D02*
Y34295D01*
X14035Y34620D02*
X14185D01*
X14110Y34545D02*
Y34695D01*
X14435Y34620D02*
X14585D01*
X14510Y34545D02*
Y34695D01*
X14435Y35020D02*
X14585D01*
X14510Y34945D02*
Y35095D01*
X14035Y35020D02*
X14185D01*
X14110Y34945D02*
Y35095D01*
X13235Y35020D02*
X13385D01*
X13310Y34945D02*
Y35095D01*
X12835Y35020D02*
X12985D01*
X12910Y34945D02*
Y35095D01*
X12835Y34620D02*
X12985D01*
X12910Y34545D02*
Y34695D01*
X13235Y34620D02*
X13385D01*
X13310Y34545D02*
Y34695D01*
X13235Y34220D02*
X13385D01*
X13310Y34145D02*
Y34295D01*
X12835Y34220D02*
X12985D01*
X12910Y34145D02*
Y34295D01*
X12835Y33820D02*
X12985D01*
X12910Y33745D02*
Y33895D01*
X13235Y33820D02*
X13385D01*
X13310Y33745D02*
Y33895D01*
X13635Y33820D02*
X13785D01*
X13710Y33745D02*
Y33895D01*
X13635Y34220D02*
X13785D01*
X13710Y34145D02*
Y34295D01*
X13635Y35020D02*
X13785D01*
X13710Y34945D02*
Y35095D01*
X13635Y34620D02*
X13785D01*
X13710Y34545D02*
Y34695D01*
X22590Y33020D02*
X22740D01*
X22665Y32945D02*
Y33095D01*
X22990Y33020D02*
X23140D01*
X23065Y32945D02*
Y33095D01*
X22990Y33420D02*
X23140D01*
X23065Y33345D02*
Y33495D01*
X22590Y33420D02*
X22740D01*
X22665Y33345D02*
Y33495D01*
X22590Y33820D02*
X22740D01*
X22665Y33745D02*
Y33895D01*
X22990Y33820D02*
X23140D01*
X23065Y33745D02*
Y33895D01*
X22990Y34220D02*
X23140D01*
X23065Y34145D02*
Y34295D01*
X22590Y34220D02*
X22740D01*
X22665Y34145D02*
Y34295D01*
X21790Y34220D02*
X21940D01*
X21865Y34145D02*
Y34295D01*
X21390Y34220D02*
X21540D01*
X21465Y34145D02*
Y34295D01*
X21390Y33820D02*
X21540D01*
X21465Y33745D02*
Y33895D01*
X21790Y33820D02*
X21940D01*
X21865Y33745D02*
Y33895D01*
X21790Y33420D02*
X21940D01*
X21865Y33345D02*
Y33495D01*
X21390Y33420D02*
X21540D01*
X21465Y33345D02*
Y33495D01*
X21390Y33020D02*
X21540D01*
X21465Y32945D02*
Y33095D01*
X21790Y33020D02*
X21940D01*
X21865Y32945D02*
Y33095D01*
X22190Y33020D02*
X22340D01*
X22265Y32945D02*
Y33095D01*
X22190Y33420D02*
X22340D01*
X22265Y33345D02*
Y33495D01*
X22190Y34220D02*
X22340D01*
X22265Y34145D02*
Y34295D01*
X22190Y33820D02*
X22340D01*
X22265Y33745D02*
Y33895D01*
X32238Y38244D02*
X32388D01*
X32313Y38169D02*
Y38319D01*
X32632Y38244D02*
X32782D01*
X32707Y38169D02*
Y38319D01*
X32632Y37851D02*
X32782D01*
X32707Y37776D02*
Y37926D01*
X32238Y37851D02*
X32388D01*
X32313Y37776D02*
Y37926D01*
X31844Y37851D02*
X31994D01*
X31919Y37776D02*
Y37926D01*
X31844Y38244D02*
X31994D01*
X31919Y38169D02*
Y38319D01*
X31844Y38638D02*
X31994D01*
X31919Y38563D02*
Y38713D01*
X32238Y38638D02*
X32388D01*
X32313Y38563D02*
Y38713D01*
X32632Y38638D02*
X32782D01*
X32707Y38563D02*
Y38713D01*
X10010Y20145D02*
X10160D01*
X10085Y20070D02*
Y20220D01*
X6332Y17608D02*
X6482D01*
X6407Y17533D02*
Y17683D01*
X29876Y14291D02*
X30026D01*
X29951Y14216D02*
Y14366D01*
X24571Y14154D02*
X24721D01*
X24646Y14079D02*
Y14229D01*
X25643Y14154D02*
X25793D01*
X25719Y14079D02*
Y14229D01*
X25525Y12215D02*
X25675D01*
X25600Y12140D02*
Y12290D01*
X28045Y14715D02*
X28195D01*
X28120Y14640D02*
Y14790D01*
X20465Y13430D02*
X20615D01*
X20540Y13355D02*
Y13505D01*
X20930Y12481D02*
X21080D01*
X21005Y12406D02*
Y12556D01*
X13675Y12000D02*
X13825D01*
X13750Y11925D02*
Y12075D01*
X15486Y12411D02*
X15636D01*
X15561Y12336D02*
Y12486D01*
X11978Y33907D02*
X12128D01*
X12053Y33832D02*
Y33982D01*
X15967Y32910D02*
X16117D01*
X16042Y32835D02*
Y32985D01*
X19886Y30020D02*
X20036D01*
X19961Y29945D02*
Y30095D01*
X17175Y30100D02*
X17325D01*
X17250Y30025D02*
Y30175D01*
X13110Y32530D02*
X13260D01*
X13185Y32455D02*
Y32605D01*
X12815Y32530D02*
X12965D01*
X12890Y32455D02*
Y32605D01*
X7657Y32648D02*
X7807D01*
X7732Y32573D02*
Y32723D01*
X11673Y32657D02*
X11823D01*
X11748Y32582D02*
Y32732D01*
X13701Y32530D02*
X13851D01*
X13776Y32455D02*
Y32605D01*
X13405Y32530D02*
X13555D01*
X13480Y32455D02*
Y32605D01*
X13996Y32530D02*
X14146D01*
X14071Y32455D02*
Y32605D01*
X9380Y32520D02*
X9530D01*
X9455Y32445D02*
Y32595D01*
X9970Y32520D02*
X10120D01*
X10045Y32445D02*
Y32595D01*
X5145Y32520D02*
X5295D01*
X5220Y32445D02*
Y32595D01*
X5945Y32520D02*
X6095D01*
X6020Y32445D02*
Y32595D01*
X5545Y32520D02*
X5695D01*
X5620Y32445D02*
Y32595D01*
X4646Y32974D02*
X4796D01*
X4721Y32899D02*
Y33049D01*
X5145Y32970D02*
X5295D01*
X5220Y32895D02*
Y33045D01*
X5635Y32970D02*
X5785D01*
X5710Y32895D02*
Y33045D01*
X19541Y30935D02*
X19691D01*
X19616Y30860D02*
Y31010D01*
X14635Y32190D02*
X14785D01*
X14710Y32115D02*
Y32265D01*
X8790Y32521D02*
X8940D01*
X8865Y32446D02*
Y32596D01*
X12278Y32256D02*
X12428D01*
X12353Y32181D02*
Y32331D01*
X6365Y31953D02*
X6515D01*
X6440Y31878D02*
Y32028D01*
X7943Y33898D02*
X8093D01*
X8018Y33823D02*
Y33973D01*
X19243Y34804D02*
X19393D01*
X19318Y34729D02*
Y34879D01*
X15715Y26530D02*
X15865D01*
X15790Y26455D02*
Y26605D01*
X17311Y34426D02*
X17461D01*
X17386Y34351D02*
Y34501D01*
X17445Y35370D02*
X17595D01*
X17520Y35295D02*
Y35445D01*
X1925Y36870D02*
X2075D01*
X2000Y36795D02*
Y36945D01*
X3115Y33603D02*
X3265D01*
X3190Y33528D02*
Y33678D01*
X4460Y36950D02*
X4660D01*
X4560Y36850D02*
Y37050D01*
X3200Y35015D02*
X3350D01*
X3275Y34940D02*
Y35090D01*
X33580Y35840D02*
X33780D01*
X33680Y35740D02*
Y35940D01*
X20345Y36680D02*
X20495D01*
X20420Y36605D02*
Y36755D01*
M02*
