G04 Layer_Color=2752767*
%FSLAX24Y24*%
%MOIN*%
G70*
G01*
G75*
%ADD126C,0.0040*%
%ADD128C,0.0050*%
%ADD299C,0.0067*%
D126*
X22920Y38520D02*
G03*
X22920Y38520I-120J0D01*
G01*
X20920D02*
G03*
X20920Y38520I-120J0D01*
G01*
X18920D02*
G03*
X18920Y38520I-120J0D01*
G01*
X16920D02*
G03*
X16920Y38520I-120J0D01*
G01*
X14920D02*
G03*
X14920Y38520I-120J0D01*
G01*
X12920D02*
G03*
X12920Y38520I-120J0D01*
G01*
X10920D02*
G03*
X10920Y38520I-120J0D01*
G01*
X8920D02*
G03*
X8920Y38520I-120J0D01*
G01*
X6920D02*
G03*
X6920Y38520I-120J0D01*
G01*
X4920D02*
G03*
X4920Y38520I-120J0D01*
G01*
X37826Y31825D02*
G03*
X37826Y31825I-120J0D01*
G01*
Y33825D02*
G03*
X37826Y33825I-120J0D01*
G01*
Y29825D02*
G03*
X37826Y29825I-120J0D01*
G01*
Y27825D02*
G03*
X37826Y27825I-120J0D01*
G01*
Y25825D02*
G03*
X37826Y25825I-120J0D01*
G01*
Y23825D02*
G03*
X37826Y23825I-120J0D01*
G01*
D128*
X11810Y21950D02*
Y22350D01*
X12210D01*
Y21950D01*
X11810D01*
Y20950D02*
Y21350D01*
X12210D01*
Y20950D01*
X11810D01*
X10810Y21950D02*
Y22350D01*
X11210D01*
Y21950D01*
X10810D01*
Y20950D02*
Y21350D01*
X11210D01*
Y20950D01*
X10810D01*
X9810Y21950D02*
Y22350D01*
X10210D01*
Y21950D01*
X9810D01*
Y20950D02*
Y21350D01*
X10210D01*
Y20950D01*
X9810D01*
X8810Y21950D02*
Y22350D01*
X9210D01*
Y21950D01*
X8810D01*
Y20950D02*
Y21350D01*
X9210D01*
Y20950D01*
X8810D01*
X7810Y21950D02*
Y22350D01*
X8210D01*
Y21950D01*
X7810D01*
Y20950D02*
Y21350D01*
X8210D01*
Y20950D01*
X7810D01*
X11810Y19100D02*
Y19500D01*
X12210D01*
Y19100D01*
X11810D01*
Y18100D02*
Y18500D01*
X12210D01*
Y18100D01*
X11810D01*
X10810Y19100D02*
Y19500D01*
X11210D01*
Y19100D01*
X10810D01*
Y18100D02*
Y18500D01*
X11210D01*
Y18100D01*
X10810D01*
X9810Y19100D02*
Y19500D01*
X10210D01*
Y19100D01*
X9810D01*
Y18100D02*
Y18500D01*
X10210D01*
Y18100D01*
X9810D01*
X8810Y19100D02*
Y19500D01*
X9210D01*
Y19100D01*
X8810D01*
Y18100D02*
Y18500D01*
X9210D01*
Y18100D01*
X8810D01*
X7810Y19100D02*
Y19500D01*
X8210D01*
Y19100D01*
X7810D01*
Y18100D02*
Y18500D01*
X8210D01*
Y18100D01*
X7810D01*
X1840Y32530D02*
X1640Y32930D01*
X2040D01*
X1840Y32530D01*
Y29770D02*
X1640Y30170D01*
X2040D01*
X1840Y29770D01*
X4360Y22300D02*
X4460Y22400D01*
X4560D01*
X4460Y22500D01*
X4560Y22600D01*
X4460D01*
X4360Y22700D01*
X4260Y22600D01*
X4160D01*
X4260Y22500D01*
X4160Y22400D01*
X4260D01*
X4360Y22300D01*
Y23292D02*
X4460Y23392D01*
X4560D01*
X4460Y23492D01*
X4560Y23592D01*
X4460D01*
X4360Y23692D01*
X4260Y23592D01*
X4160D01*
X4260Y23492D01*
X4160Y23392D01*
X4260D01*
X4360Y23292D01*
X3570D02*
X3670Y23392D01*
X3770D01*
X3670Y23492D01*
X3770Y23592D01*
X3670D01*
X3570Y23692D01*
X3470Y23592D01*
X3370D01*
X3470Y23492D01*
X3370Y23392D01*
X3470D01*
X3570Y23292D01*
Y22300D02*
X3670Y22400D01*
X3770D01*
X3670Y22500D01*
X3770Y22600D01*
X3670D01*
X3570Y22700D01*
X3470Y22600D01*
X3370D01*
X3470Y22500D01*
X3370Y22400D01*
X3470D01*
X3570Y22300D01*
X2300Y25162D02*
X2400Y25362D01*
X2300Y25562D01*
X2500Y25462D01*
X2700Y25562D01*
X2600Y25362D01*
X2700Y25162D01*
X2500Y25262D01*
X2300Y25162D01*
Y20430D02*
X2400Y20630D01*
X2300Y20830D01*
X2500Y20730D01*
X2700Y20830D01*
X2600Y20630D01*
X2700Y20430D01*
X2500Y20530D01*
X2300Y20430D01*
X39743Y14888D02*
Y14788D01*
X39943D01*
Y14888D01*
X40043D01*
Y15088D01*
X39943D01*
Y15188D01*
X39743D01*
Y15088D01*
X39643D01*
Y14888D01*
X39743D01*
X38403D02*
Y14788D01*
X38603D01*
Y14888D01*
X38703D01*
Y15088D01*
X38603D01*
Y15188D01*
X38403D01*
Y15088D01*
X38303D01*
Y14888D01*
X38403D01*
Y20188D02*
Y20088D01*
X38603D01*
Y20188D01*
X38703D01*
Y20388D01*
X38603D01*
Y20488D01*
X38403D01*
Y20388D01*
X38303D01*
Y20188D01*
X38403D01*
X39743D02*
Y20088D01*
X39943D01*
Y20188D01*
X40043D01*
Y20388D01*
X39943D01*
Y20488D01*
X39743D01*
Y20388D01*
X39643D01*
Y20188D01*
X39743D01*
X31050Y28440D02*
Y28340D01*
X31250D01*
Y28440D01*
X31350D01*
Y28640D01*
X31250D01*
Y28740D01*
X31050D01*
Y28640D01*
X30950D01*
Y28440D01*
X31050D01*
X32390D02*
Y28340D01*
X32590D01*
Y28440D01*
X32690D01*
Y28640D01*
X32590D01*
Y28740D01*
X32390D01*
Y28640D01*
X32290D01*
Y28440D01*
X32390D01*
Y33740D02*
Y33640D01*
X32590D01*
Y33740D01*
X32690D01*
Y33940D01*
X32590D01*
Y34040D01*
X32390D01*
Y33940D01*
X32290D01*
Y33740D01*
X32390D01*
X31050D02*
Y33640D01*
X31250D01*
Y33740D01*
X31350D01*
Y33940D01*
X31250D01*
Y34040D01*
X31050D01*
Y33940D01*
X30950D01*
Y33740D01*
X31050D01*
X34410Y28440D02*
Y28340D01*
X34610D01*
Y28440D01*
X34710D01*
Y28640D01*
X34610D01*
Y28740D01*
X34410D01*
Y28640D01*
X34310D01*
Y28440D01*
X34410D01*
X35750D02*
Y28340D01*
X35950D01*
Y28440D01*
X36050D01*
Y28640D01*
X35950D01*
Y28740D01*
X35750D01*
Y28640D01*
X35650D01*
Y28440D01*
X35750D01*
Y33740D02*
Y33640D01*
X35950D01*
Y33740D01*
X36050D01*
Y33940D01*
X35950D01*
Y34040D01*
X35750D01*
Y33940D01*
X35650D01*
Y33740D01*
X35750D01*
X34410D02*
Y33640D01*
X34610D01*
Y33740D01*
X34710D01*
Y33940D01*
X34610D01*
Y34040D01*
X34410D01*
Y33940D01*
X34310D01*
Y33740D01*
X34410D01*
X39300Y1300D02*
X39400D01*
X39500Y1400D01*
X39600Y1300D01*
X39700D01*
Y1400D01*
X39600Y1500D01*
X39700Y1600D01*
Y1700D01*
X39600D01*
X39500Y1600D01*
X39400Y1700D01*
X39300D01*
Y1600D01*
X39400Y1500D01*
X39300Y1400D01*
Y1300D01*
Y500D02*
X39500Y700D01*
X39700Y500D01*
X39500Y300D01*
X39300Y500D01*
Y2500D02*
X39500Y2700D01*
X39700Y2500D01*
X39500Y2300D01*
X39300Y2500D01*
X40300Y1500D02*
X40500Y1700D01*
X40700Y1500D01*
X40500Y1300D01*
X40300Y1500D01*
X38300D02*
X38500Y1700D01*
X38700Y1500D01*
X38500Y1300D01*
X38300Y1500D01*
X38600Y2200D02*
X38800Y2400D01*
X39000Y2200D01*
X38800Y2000D01*
X38600Y2200D01*
X40000D02*
X40200Y2400D01*
X40400Y2200D01*
X40200Y2000D01*
X40000Y2200D01*
Y800D02*
X40200Y1000D01*
X40400Y800D01*
X40200Y600D01*
X40000Y800D01*
X38600D02*
X38800Y1000D01*
X39000Y800D01*
X38800Y600D01*
X38600Y800D01*
X39300Y38800D02*
X39400D01*
X39500Y38900D01*
X39600Y38800D01*
X39700D01*
Y38900D01*
X39600Y39000D01*
X39700Y39100D01*
Y39200D01*
X39600D01*
X39500Y39100D01*
X39400Y39200D01*
X39300D01*
Y39100D01*
X39400Y39000D01*
X39300Y38900D01*
Y38800D01*
Y38000D02*
X39500Y38200D01*
X39700Y38000D01*
X39500Y37800D01*
X39300Y38000D01*
Y40000D02*
X39500Y40200D01*
X39700Y40000D01*
X39500Y39800D01*
X39300Y40000D01*
X40300Y39000D02*
X40500Y39200D01*
X40700Y39000D01*
X40500Y38800D01*
X40300Y39000D01*
X38300D02*
X38500Y39200D01*
X38700Y39000D01*
X38500Y38800D01*
X38300Y39000D01*
X38600Y39700D02*
X38800Y39900D01*
X39000Y39700D01*
X38800Y39500D01*
X38600Y39700D01*
X40000D02*
X40200Y39900D01*
X40400Y39700D01*
X40200Y39500D01*
X40000Y39700D01*
Y38300D02*
X40200Y38500D01*
X40400Y38300D01*
X40200Y38100D01*
X40000Y38300D01*
X38600D02*
X38800Y38500D01*
X39000Y38300D01*
X38800Y38100D01*
X38600Y38300D01*
X1300Y38800D02*
X1400D01*
X1500Y38900D01*
X1600Y38800D01*
X1700D01*
Y38900D01*
X1600Y39000D01*
X1700Y39100D01*
Y39200D01*
X1600D01*
X1500Y39100D01*
X1400Y39200D01*
X1300D01*
Y39100D01*
X1400Y39000D01*
X1300Y38900D01*
Y38800D01*
Y38000D02*
X1500Y38200D01*
X1700Y38000D01*
X1500Y37800D01*
X1300Y38000D01*
Y40000D02*
X1500Y40200D01*
X1700Y40000D01*
X1500Y39800D01*
X1300Y40000D01*
X2300Y39000D02*
X2500Y39200D01*
X2700Y39000D01*
X2500Y38800D01*
X2300Y39000D01*
X300D02*
X500Y39200D01*
X700Y39000D01*
X500Y38800D01*
X300Y39000D01*
X600Y39700D02*
X800Y39900D01*
X1000Y39700D01*
X800Y39500D01*
X600Y39700D01*
X2000D02*
X2200Y39900D01*
X2400Y39700D01*
X2200Y39500D01*
X2000Y39700D01*
Y38300D02*
X2200Y38500D01*
X2400Y38300D01*
X2200Y38100D01*
X2000Y38300D01*
X600D02*
X800Y38500D01*
X1000Y38300D01*
X800Y38100D01*
X600Y38300D01*
X1300Y1300D02*
X1400D01*
X1500Y1400D01*
X1600Y1300D01*
X1700D01*
Y1400D01*
X1600Y1500D01*
X1700Y1600D01*
Y1700D01*
X1600D01*
X1500Y1600D01*
X1400Y1700D01*
X1300D01*
Y1600D01*
X1400Y1500D01*
X1300Y1400D01*
Y1300D01*
Y500D02*
X1500Y700D01*
X1700Y500D01*
X1500Y300D01*
X1300Y500D01*
Y2500D02*
X1500Y2700D01*
X1700Y2500D01*
X1500Y2300D01*
X1300Y2500D01*
X2300Y1500D02*
X2500Y1700D01*
X2700Y1500D01*
X2500Y1300D01*
X2300Y1500D01*
X300D02*
X500Y1700D01*
X700Y1500D01*
X500Y1300D01*
X300Y1500D01*
X600Y2200D02*
X800Y2400D01*
X1000Y2200D01*
X800Y2000D01*
X600Y2200D01*
X2000D02*
X2200Y2400D01*
X2400Y2200D01*
X2200Y2000D01*
X2000Y2200D01*
Y800D02*
X2200Y1000D01*
X2400Y800D01*
X2200Y600D01*
X2000Y800D01*
X600D02*
X800Y1000D01*
X1000Y800D01*
X800Y600D01*
X600Y800D01*
X7810Y13860D02*
Y14260D01*
X8210D01*
Y13860D01*
X7810D01*
Y14860D02*
Y15260D01*
X8210D01*
Y14860D01*
X7810D01*
X8810Y13860D02*
Y14260D01*
X9210D01*
Y13860D01*
X8810D01*
Y14860D02*
Y15260D01*
X9210D01*
Y14860D01*
X8810D01*
X9810Y13860D02*
Y14260D01*
X10210D01*
Y13860D01*
X9810D01*
Y14860D02*
Y15260D01*
X10210D01*
Y14860D01*
X9810D01*
X10810Y13860D02*
Y14260D01*
X11210D01*
Y13860D01*
X10810D01*
Y14860D02*
Y15260D01*
X11210D01*
Y14860D01*
X10810D01*
X11810Y13860D02*
Y14260D01*
X12210D01*
Y13860D01*
X11810D01*
Y14860D02*
Y15260D01*
X12210D01*
Y14860D01*
X11810D01*
X12810Y13860D02*
Y14260D01*
X13210D01*
Y13860D01*
X12810D01*
Y14860D02*
Y15260D01*
X13210D01*
Y14860D01*
X12810D01*
X13810Y13860D02*
Y14260D01*
X14210D01*
Y13860D01*
X13810D01*
Y14860D02*
Y15260D01*
X14210D01*
Y14860D01*
X13810D01*
X14810Y13860D02*
Y14260D01*
X15210D01*
Y13860D01*
X14810D01*
Y14860D02*
Y15260D01*
X15210D01*
Y14860D01*
X14810D01*
X15810Y13860D02*
Y14260D01*
X16210D01*
Y13860D01*
X15810D01*
Y14860D02*
Y15260D01*
X16210D01*
Y14860D01*
X15810D01*
X16810Y13860D02*
Y14260D01*
X17210D01*
Y13860D01*
X16810D01*
Y14860D02*
Y15260D01*
X17210D01*
Y14860D01*
X16810D01*
X17810Y13860D02*
Y14260D01*
X18210D01*
Y13860D01*
X17810D01*
Y14860D02*
Y15260D01*
X18210D01*
Y14860D01*
X17810D01*
X18810Y13860D02*
Y14260D01*
X19210D01*
Y13860D01*
X18810D01*
Y14860D02*
Y15260D01*
X19210D01*
Y14860D01*
X18810D01*
X1280Y11490D02*
Y11890D01*
X1680D01*
Y11490D01*
X1280D01*
X1360Y11570D02*
Y11810D01*
X1600D01*
Y11570D01*
X1360D01*
X3490Y30850D02*
Y31250D01*
X3890D01*
Y30850D01*
X3490D01*
X3570Y30930D02*
Y31170D01*
X3810D01*
Y30930D01*
X3570D01*
X21350Y14230D02*
Y14630D01*
X21750D01*
Y14230D01*
X21350D01*
X21430Y14310D02*
Y14550D01*
X21670D01*
Y14310D01*
X21430D01*
X20180Y32830D02*
Y33230D01*
X20580D01*
Y32830D01*
X20180D01*
Y31830D02*
Y32230D01*
X20580D01*
Y31830D01*
X20180D01*
X19180Y32830D02*
Y33230D01*
X19580D01*
Y32830D01*
X19180D01*
Y31830D02*
Y32230D01*
X19580D01*
Y31830D01*
X19180D01*
X18180Y32830D02*
Y33230D01*
X18580D01*
Y32830D01*
X18180D01*
Y31830D02*
Y32230D01*
X18580D01*
Y31830D01*
X18180D01*
X17180Y32830D02*
Y33230D01*
X17580D01*
Y32830D01*
X17180D01*
Y31830D02*
Y32230D01*
X17580D01*
Y31830D01*
X17180D01*
X33100Y12080D02*
X33300Y12280D01*
X33500Y12080D01*
X33300Y11880D01*
X33100Y12080D01*
X33520D02*
X33720Y12280D01*
X33920Y12080D01*
X33720Y11880D01*
X33520Y12080D01*
X33990D02*
X34190Y12280D01*
X34390Y12080D01*
X34190Y11880D01*
X33990Y12080D01*
X34446Y12303D02*
X34646Y12503D01*
X34846Y12303D01*
X34646Y12103D01*
X34446Y12303D01*
X25980Y12080D02*
X26180Y12280D01*
X26380Y12080D01*
X26180Y11880D01*
X25980Y12080D01*
X18960Y12070D02*
X19160Y12270D01*
X19360Y12070D01*
X19160Y11870D01*
X18960Y12070D01*
X20220Y36680D02*
X20420Y36880D01*
X20620Y36680D01*
X20420Y36480D01*
X20220Y36680D01*
X3075Y35015D02*
X3275Y35215D01*
X3475Y35015D01*
X3275Y34815D01*
X3075Y35015D01*
X4560Y36750D02*
X4360Y37150D01*
X4760D01*
X4560Y36750D01*
Y36830D02*
X4440Y37070D01*
X4680D01*
X4560Y36830D01*
X2990Y33603D02*
X3190Y33803D01*
X3390Y33603D01*
X3190Y33403D01*
X2990Y33603D01*
X1800Y36870D02*
X2000Y37070D01*
X2200Y36870D01*
X2000Y36670D01*
X1800Y36870D01*
X17320Y35370D02*
X17520Y35570D01*
X17720Y35370D01*
X17520Y35170D01*
X17320Y35370D01*
X17186Y34426D02*
X17386Y34626D01*
X17586Y34426D01*
X17386Y34226D01*
X17186Y34426D01*
X15590Y26530D02*
X15790Y26730D01*
X15990Y26530D01*
X15790Y26330D01*
X15590Y26530D01*
X19118Y34804D02*
X19318Y35004D01*
X19518Y34804D01*
X19318Y34604D01*
X19118Y34804D01*
X7818Y33898D02*
X8018Y34098D01*
X8218Y33898D01*
X8018Y33698D01*
X7818Y33898D01*
X6240Y31953D02*
X6440Y32153D01*
X6640Y31953D01*
X6440Y31753D01*
X6240Y31953D01*
X12153Y32256D02*
X12353Y32456D01*
X12553Y32256D01*
X12353Y32056D01*
X12153Y32256D01*
X8665Y32521D02*
X8865Y32721D01*
X9065Y32521D01*
X8865Y32321D01*
X8665Y32521D01*
X14510Y32190D02*
X14710Y32390D01*
X14910Y32190D01*
X14710Y31990D01*
X14510Y32190D01*
X19416Y30935D02*
X19616Y31135D01*
X19816Y30935D01*
X19616Y30735D01*
X19416Y30935D01*
X5510Y32970D02*
X5710Y33170D01*
X5910Y32970D01*
X5710Y32770D01*
X5510Y32970D01*
X5020D02*
X5220Y33170D01*
X5420Y32970D01*
X5220Y32770D01*
X5020Y32970D01*
X4521Y32974D02*
X4721Y33174D01*
X4921Y32974D01*
X4721Y32774D01*
X4521Y32974D01*
X5420Y32520D02*
X5620Y32720D01*
X5820Y32520D01*
X5620Y32320D01*
X5420Y32520D01*
X5820D02*
X6020Y32720D01*
X6220Y32520D01*
X6020Y32320D01*
X5820Y32520D01*
X5020D02*
X5220Y32720D01*
X5420Y32520D01*
X5220Y32320D01*
X5020Y32520D01*
X9845Y32520D02*
X10045Y32720D01*
X10245Y32520D01*
X10045Y32320D01*
X9845Y32520D01*
X9255D02*
X9455Y32720D01*
X9655Y32520D01*
X9455Y32320D01*
X9255Y32520D01*
X13871Y32530D02*
X14071Y32730D01*
X14271Y32530D01*
X14071Y32330D01*
X13871Y32530D01*
X13280D02*
X13480Y32730D01*
X13680Y32530D01*
X13480Y32330D01*
X13280Y32530D01*
X13576D02*
X13776Y32730D01*
X13976Y32530D01*
X13776Y32330D01*
X13576Y32530D01*
X11548Y32657D02*
X11748Y32857D01*
X11948Y32657D01*
X11748Y32457D01*
X11548Y32657D01*
X7532Y32648D02*
X7732Y32848D01*
X7932Y32648D01*
X7732Y32448D01*
X7532Y32648D01*
X12690Y32530D02*
X12890Y32730D01*
X13090Y32530D01*
X12890Y32330D01*
X12690Y32530D01*
X12985D02*
X13185Y32730D01*
X13385Y32530D01*
X13185Y32330D01*
X12985Y32530D01*
X17050Y30100D02*
X17250Y30300D01*
X17450Y30100D01*
X17250Y29900D01*
X17050Y30100D01*
X15842Y32910D02*
X16042Y33110D01*
X16242Y32910D01*
X16042Y32710D01*
X15842Y32910D01*
X11853Y33907D02*
X12053Y34107D01*
X12253Y33907D01*
X12053Y33707D01*
X11853Y33907D01*
X15361Y12411D02*
X15561Y12611D01*
X15761Y12411D01*
X15561Y12211D01*
X15361Y12411D01*
X13230Y11800D02*
X13430Y12000D01*
X13630Y11800D01*
X13430Y11600D01*
X13230Y11800D01*
X20805Y12481D02*
X21005Y12681D01*
X21205Y12481D01*
X21005Y12281D01*
X20805Y12481D01*
X20340Y13430D02*
X20540Y13630D01*
X20740Y13430D01*
X20540Y13230D01*
X20340Y13430D01*
X27920Y14715D02*
X28120Y14915D01*
X28320Y14715D01*
X28120Y14515D01*
X27920Y14715D01*
X25400Y12215D02*
X25600Y12415D01*
X25800Y12215D01*
X25600Y12015D01*
X25400Y12215D01*
X25519Y14154D02*
X25719Y14354D01*
X25919Y14154D01*
X25719Y13954D01*
X25519Y14154D01*
X24446D02*
X24646Y14354D01*
X24846Y14154D01*
X24646Y13954D01*
X24446Y14154D01*
X29751Y14291D02*
X29951Y14491D01*
X30151Y14291D01*
X29951Y14091D01*
X29751Y14291D01*
X6207Y17608D02*
X6407Y17808D01*
X6607Y17608D01*
X6407Y17408D01*
X6207Y17608D01*
X9885Y20145D02*
X10085Y20345D01*
X10285Y20145D01*
X10085Y19945D01*
X9885Y20145D01*
X32507Y38638D02*
X32707Y38838D01*
X32907Y38638D01*
X32707Y38438D01*
X32507Y38638D01*
X32113D02*
X32313Y38838D01*
X32513Y38638D01*
X32313Y38438D01*
X32113Y38638D01*
X31719D02*
X31919Y38838D01*
X32119Y38638D01*
X31919Y38438D01*
X31719Y38638D01*
Y38244D02*
X31919Y38444D01*
X32119Y38244D01*
X31919Y38044D01*
X31719Y38244D01*
Y37851D02*
X31919Y38051D01*
X32119Y37851D01*
X31919Y37651D01*
X31719Y37851D01*
X32113D02*
X32313Y38051D01*
X32513Y37851D01*
X32313Y37651D01*
X32113Y37851D01*
X32507D02*
X32707Y38051D01*
X32907Y37851D01*
X32707Y37651D01*
X32507Y37851D01*
Y38244D02*
X32707Y38444D01*
X32907Y38244D01*
X32707Y38044D01*
X32507Y38244D01*
X32113D02*
X32313Y38444D01*
X32513Y38244D01*
X32313Y38044D01*
X32113Y38244D01*
X22065Y33820D02*
X22265Y34020D01*
X22465Y33820D01*
X22265Y33620D01*
X22065Y33820D01*
Y34220D02*
X22265Y34420D01*
X22465Y34220D01*
X22265Y34020D01*
X22065Y34220D01*
Y33420D02*
X22265Y33620D01*
X22465Y33420D01*
X22265Y33220D01*
X22065Y33420D01*
Y33020D02*
X22265Y33220D01*
X22465Y33020D01*
X22265Y32820D01*
X22065Y33020D01*
X21665D02*
X21865Y33220D01*
X22065Y33020D01*
X21865Y32820D01*
X21665Y33020D01*
X21265D02*
X21465Y33220D01*
X21665Y33020D01*
X21465Y32820D01*
X21265Y33020D01*
Y33420D02*
X21465Y33620D01*
X21665Y33420D01*
X21465Y33220D01*
X21265Y33420D01*
X21665D02*
X21865Y33620D01*
X22065Y33420D01*
X21865Y33220D01*
X21665Y33420D01*
Y33820D02*
X21865Y34020D01*
X22065Y33820D01*
X21865Y33620D01*
X21665Y33820D01*
X21265D02*
X21465Y34020D01*
X21665Y33820D01*
X21465Y33620D01*
X21265Y33820D01*
Y34220D02*
X21465Y34420D01*
X21665Y34220D01*
X21465Y34020D01*
X21265Y34220D01*
X21665D02*
X21865Y34420D01*
X22065Y34220D01*
X21865Y34020D01*
X21665Y34220D01*
X22465D02*
X22665Y34420D01*
X22865Y34220D01*
X22665Y34020D01*
X22465Y34220D01*
X22865D02*
X23065Y34420D01*
X23265Y34220D01*
X23065Y34020D01*
X22865Y34220D01*
Y33820D02*
X23065Y34020D01*
X23265Y33820D01*
X23065Y33620D01*
X22865Y33820D01*
X22465D02*
X22665Y34020D01*
X22865Y33820D01*
X22665Y33620D01*
X22465Y33820D01*
Y33420D02*
X22665Y33620D01*
X22865Y33420D01*
X22665Y33220D01*
X22465Y33420D01*
X22865D02*
X23065Y33620D01*
X23265Y33420D01*
X23065Y33220D01*
X22865Y33420D01*
Y33020D02*
X23065Y33220D01*
X23265Y33020D01*
X23065Y32820D01*
X22865Y33020D01*
X22465D02*
X22665Y33220D01*
X22865Y33020D01*
X22665Y32820D01*
X22465Y33020D01*
X13510Y34620D02*
X13710Y34820D01*
X13910Y34620D01*
X13710Y34420D01*
X13510Y34620D01*
Y35020D02*
X13710Y35220D01*
X13910Y35020D01*
X13710Y34820D01*
X13510Y35020D01*
Y34220D02*
X13710Y34420D01*
X13910Y34220D01*
X13710Y34020D01*
X13510Y34220D01*
Y33820D02*
X13710Y34020D01*
X13910Y33820D01*
X13710Y33620D01*
X13510Y33820D01*
X13110D02*
X13310Y34020D01*
X13510Y33820D01*
X13310Y33620D01*
X13110Y33820D01*
X12710D02*
X12910Y34020D01*
X13110Y33820D01*
X12910Y33620D01*
X12710Y33820D01*
Y34220D02*
X12910Y34420D01*
X13110Y34220D01*
X12910Y34020D01*
X12710Y34220D01*
X13110D02*
X13310Y34420D01*
X13510Y34220D01*
X13310Y34020D01*
X13110Y34220D01*
Y34620D02*
X13310Y34820D01*
X13510Y34620D01*
X13310Y34420D01*
X13110Y34620D01*
X12710D02*
X12910Y34820D01*
X13110Y34620D01*
X12910Y34420D01*
X12710Y34620D01*
Y35020D02*
X12910Y35220D01*
X13110Y35020D01*
X12910Y34820D01*
X12710Y35020D01*
X13110D02*
X13310Y35220D01*
X13510Y35020D01*
X13310Y34820D01*
X13110Y35020D01*
X13910D02*
X14110Y35220D01*
X14310Y35020D01*
X14110Y34820D01*
X13910Y35020D01*
X14310D02*
X14510Y35220D01*
X14710Y35020D01*
X14510Y34820D01*
X14310Y35020D01*
Y34620D02*
X14510Y34820D01*
X14710Y34620D01*
X14510Y34420D01*
X14310Y34620D01*
X13910D02*
X14110Y34820D01*
X14310Y34620D01*
X14110Y34420D01*
X13910Y34620D01*
Y34220D02*
X14110Y34420D01*
X14310Y34220D01*
X14110Y34020D01*
X13910Y34220D01*
X14310D02*
X14510Y34420D01*
X14710Y34220D01*
X14510Y34020D01*
X14310Y34220D01*
Y33820D02*
X14510Y34020D01*
X14710Y33820D01*
X14510Y33620D01*
X14310Y33820D01*
X13910D02*
X14110Y34020D01*
X14310Y33820D01*
X14110Y33620D01*
X13910Y33820D01*
X9500Y34620D02*
X9700Y34820D01*
X9900Y34620D01*
X9700Y34420D01*
X9500Y34620D01*
Y35020D02*
X9700Y35220D01*
X9900Y35020D01*
X9700Y34820D01*
X9500Y35020D01*
Y34220D02*
X9700Y34420D01*
X9900Y34220D01*
X9700Y34020D01*
X9500Y34220D01*
Y33820D02*
X9700Y34020D01*
X9900Y33820D01*
X9700Y33620D01*
X9500Y33820D01*
X9100D02*
X9300Y34020D01*
X9500Y33820D01*
X9300Y33620D01*
X9100Y33820D01*
X8700D02*
X8900Y34020D01*
X9100Y33820D01*
X8900Y33620D01*
X8700Y33820D01*
Y34220D02*
X8900Y34420D01*
X9100Y34220D01*
X8900Y34020D01*
X8700Y34220D01*
X9100D02*
X9300Y34420D01*
X9500Y34220D01*
X9300Y34020D01*
X9100Y34220D01*
Y34620D02*
X9300Y34820D01*
X9500Y34620D01*
X9300Y34420D01*
X9100Y34620D01*
X8700D02*
X8900Y34820D01*
X9100Y34620D01*
X8900Y34420D01*
X8700Y34620D01*
Y35020D02*
X8900Y35220D01*
X9100Y35020D01*
X8900Y34820D01*
X8700Y35020D01*
X9100D02*
X9300Y35220D01*
X9500Y35020D01*
X9300Y34820D01*
X9100Y35020D01*
X9900D02*
X10100Y35220D01*
X10300Y35020D01*
X10100Y34820D01*
X9900Y35020D01*
X10300D02*
X10500Y35220D01*
X10700Y35020D01*
X10500Y34820D01*
X10300Y35020D01*
Y34620D02*
X10500Y34820D01*
X10700Y34620D01*
X10500Y34420D01*
X10300Y34620D01*
X9900D02*
X10100Y34820D01*
X10300Y34620D01*
X10100Y34420D01*
X9900Y34620D01*
Y34220D02*
X10100Y34420D01*
X10300Y34220D01*
X10100Y34020D01*
X9900Y34220D01*
X10300D02*
X10500Y34420D01*
X10700Y34220D01*
X10500Y34020D01*
X10300Y34220D01*
Y33820D02*
X10500Y34020D01*
X10700Y33820D01*
X10500Y33620D01*
X10300Y33820D01*
X9900D02*
X10100Y34020D01*
X10300Y33820D01*
X10100Y33620D01*
X9900Y33820D01*
X5515Y34620D02*
X5715Y34820D01*
X5915Y34620D01*
X5715Y34420D01*
X5515Y34620D01*
Y35020D02*
X5715Y35220D01*
X5915Y35020D01*
X5715Y34820D01*
X5515Y35020D01*
Y34220D02*
X5715Y34420D01*
X5915Y34220D01*
X5715Y34020D01*
X5515Y34220D01*
Y33820D02*
X5715Y34020D01*
X5915Y33820D01*
X5715Y33620D01*
X5515Y33820D01*
X5115D02*
X5315Y34020D01*
X5515Y33820D01*
X5315Y33620D01*
X5115Y33820D01*
X4715D02*
X4915Y34020D01*
X5115Y33820D01*
X4915Y33620D01*
X4715Y33820D01*
Y34220D02*
X4915Y34420D01*
X5115Y34220D01*
X4915Y34020D01*
X4715Y34220D01*
X5115D02*
X5315Y34420D01*
X5515Y34220D01*
X5315Y34020D01*
X5115Y34220D01*
Y34620D02*
X5315Y34820D01*
X5515Y34620D01*
X5315Y34420D01*
X5115Y34620D01*
X4715D02*
X4915Y34820D01*
X5115Y34620D01*
X4915Y34420D01*
X4715Y34620D01*
Y35020D02*
X4915Y35220D01*
X5115Y35020D01*
X4915Y34820D01*
X4715Y35020D01*
X5115D02*
X5315Y35220D01*
X5515Y35020D01*
X5315Y34820D01*
X5115Y35020D01*
X5915D02*
X6115Y35220D01*
X6315Y35020D01*
X6115Y34820D01*
X5915Y35020D01*
X6315D02*
X6515Y35220D01*
X6715Y35020D01*
X6515Y34820D01*
X6315Y35020D01*
Y34620D02*
X6515Y34820D01*
X6715Y34620D01*
X6515Y34420D01*
X6315Y34620D01*
X5915D02*
X6115Y34820D01*
X6315Y34620D01*
X6115Y34420D01*
X5915Y34620D01*
Y34220D02*
X6115Y34420D01*
X6315Y34220D01*
X6115Y34020D01*
X5915Y34220D01*
X6315D02*
X6515Y34420D01*
X6715Y34220D01*
X6515Y34020D01*
X6315Y34220D01*
Y33820D02*
X6515Y34020D01*
X6715Y33820D01*
X6515Y33620D01*
X6315Y33820D01*
X5915D02*
X6115Y34020D01*
X6315Y33820D01*
X6115Y33620D01*
X5915Y33820D01*
X9280Y7180D02*
X9480Y7380D01*
X9680Y7180D01*
X9480Y6980D01*
X9280Y7180D01*
X2310Y7170D02*
X2510Y7370D01*
X2710Y7170D01*
X2510Y6970D01*
X2310Y7170D01*
X16370D02*
X16570Y7370D01*
X16770Y7170D01*
X16570Y6970D01*
X16370Y7170D01*
X23460D02*
X23660Y7370D01*
X23860Y7170D01*
X23660Y6970D01*
X23460Y7170D01*
X30550Y7180D02*
X30750Y7380D01*
X30950Y7180D01*
X30750Y6980D01*
X30550Y7180D01*
X32500Y7600D02*
X32700Y7800D01*
X32900Y7600D01*
X32700Y7400D01*
X32500Y7600D01*
X3160Y1480D02*
X3360Y1680D01*
X3560Y1480D01*
X3360Y1280D01*
X3160Y1480D01*
X1690Y26500D02*
X1890Y26700D01*
X2090Y26500D01*
X1890Y26300D01*
X1690Y26500D01*
X37520Y9360D02*
X37720Y9560D01*
X37920Y9360D01*
X37720Y9160D01*
X37520Y9360D01*
Y8820D02*
X37720Y9020D01*
X37920Y8820D01*
X37720Y8620D01*
X37520Y8820D01*
X37130Y10020D02*
X37330Y10220D01*
X37530Y10020D01*
X37330Y9820D01*
X37130Y10020D01*
X38966Y37006D02*
X39166Y37206D01*
X39366Y37006D01*
X39166Y36806D01*
X38966Y37006D01*
X39155Y35467D02*
X39355Y35667D01*
X39555Y35467D01*
X39355Y35267D01*
X39155Y35467D01*
Y35867D02*
X39355Y36067D01*
X39555Y35867D01*
X39355Y35667D01*
X39155Y35867D01*
X38675Y36457D02*
X38875Y36657D01*
X39075Y36457D01*
X38875Y36257D01*
X38675Y36457D01*
X39800Y21760D02*
X40000Y21960D01*
X40200Y21760D01*
X40000Y21560D01*
X39800Y21760D01*
X40200Y36460D02*
X40400Y36660D01*
X40600Y36460D01*
X40400Y36260D01*
X40200Y36460D01*
Y35870D02*
X40400Y36070D01*
X40600Y35870D01*
X40400Y35670D01*
X40200Y35870D01*
Y35470D02*
X40400Y35670D01*
X40600Y35470D01*
X40400Y35270D01*
X40200Y35470D01*
X2720Y29550D02*
X2920Y29750D01*
X3120Y29550D01*
X2920Y29350D01*
X2720Y29550D01*
X600Y12920D02*
X800Y13120D01*
X1000Y12920D01*
X800Y12720D01*
X600Y12920D01*
X21300Y36000D02*
X21500Y36200D01*
X21700Y36000D01*
X21500Y35800D01*
X21300Y36000D01*
X25300Y34000D02*
X25500Y34200D01*
X25700Y34000D01*
X25500Y33800D01*
X25300Y34000D01*
X23300D02*
X23500Y34200D01*
X23700Y34000D01*
X23500Y33800D01*
X23300Y34000D01*
Y33000D02*
X23500Y33200D01*
X23700Y33000D01*
X23500Y32800D01*
X23300Y33000D01*
X24300D02*
X24500Y33200D01*
X24700Y33000D01*
X24500Y32800D01*
X24300Y33000D01*
Y34000D02*
X24500Y34200D01*
X24700Y34000D01*
X24500Y33800D01*
X24300Y34000D01*
X25260Y35010D02*
X25460Y35210D01*
X25660Y35010D01*
X25460Y34810D01*
X25260Y35010D01*
X24300Y35000D02*
X24500Y35200D01*
X24700Y35000D01*
X24500Y34800D01*
X24300Y35000D01*
X23300D02*
X23500Y35200D01*
X23700Y35000D01*
X23500Y34800D01*
X23300Y35000D01*
X22300D02*
X22500Y35200D01*
X22700Y35000D01*
X22500Y34800D01*
X22300Y35000D01*
X21300D02*
X21500Y35200D01*
X21700Y35000D01*
X21500Y34800D01*
X21300Y35000D01*
X20380D02*
X20580Y35200D01*
X20780Y35000D01*
X20580Y34800D01*
X20380Y35000D01*
X20790Y33520D02*
X20990Y33720D01*
X21190Y33520D01*
X20990Y33320D01*
X20790Y33520D01*
X20800Y34000D02*
X21000Y34200D01*
X21200Y34000D01*
X21000Y33800D01*
X20800Y34000D01*
Y33000D02*
X21000Y33200D01*
X21200Y33000D01*
X21000Y32800D01*
X20800Y33000D01*
X22280Y36020D02*
X22480Y36220D01*
X22680Y36020D01*
X22480Y35820D01*
X22280Y36020D01*
X23790Y32820D02*
X23990Y33020D01*
X24190Y32820D01*
X23990Y32620D01*
X23790Y32820D01*
X25160Y32830D02*
X25360Y33030D01*
X25560Y32830D01*
X25360Y32630D01*
X25160Y32830D01*
X24640Y35950D02*
X24840Y36150D01*
X25040Y35950D01*
X24840Y35750D01*
X24640Y35950D01*
X12180Y36240D02*
X12380Y36440D01*
X12580Y36240D01*
X12380Y36040D01*
X12180Y36240D01*
X8190Y36220D02*
X8390Y36420D01*
X8590Y36220D01*
X8390Y36020D01*
X8190Y36220D01*
X20180Y36020D02*
X20380Y36220D01*
X20580Y36020D01*
X20380Y35820D01*
X20180Y36020D01*
X15705Y35590D02*
X15905Y35790D01*
X16105Y35590D01*
X15905Y35390D01*
X15705Y35590D01*
X12170Y35370D02*
X12370Y35570D01*
X12570Y35370D01*
X12370Y35170D01*
X12170Y35370D01*
Y34460D02*
X12370Y34660D01*
X12570Y34460D01*
X12370Y34260D01*
X12170Y34460D01*
X8160D02*
X8360Y34660D01*
X8560Y34460D01*
X8360Y34260D01*
X8160Y34460D01*
Y35370D02*
X8360Y35570D01*
X8560Y35370D01*
X8360Y35170D01*
X8160Y35370D01*
X11695Y35590D02*
X11895Y35790D01*
X12095Y35590D01*
X11895Y35390D01*
X11695Y35590D01*
X4570Y35610D02*
X4770Y35810D01*
X4970Y35610D01*
X4770Y35410D01*
X4570Y35610D01*
X26910Y39610D02*
X27110Y39810D01*
X27310Y39610D01*
X27110Y39410D01*
X26910Y39610D01*
X7260Y38510D02*
X7460Y38710D01*
X7660Y38510D01*
X7460Y38310D01*
X7260Y38510D01*
X5940D02*
X6140Y38710D01*
X6340Y38510D01*
X6140Y38310D01*
X5940Y38510D01*
X7270Y38120D02*
X7470Y38320D01*
X7670Y38120D01*
X7470Y37920D01*
X7270Y38120D01*
X7280Y38920D02*
X7480Y39120D01*
X7680Y38920D01*
X7480Y38720D01*
X7280Y38920D01*
X5940Y38900D02*
X6140Y39100D01*
X6340Y38900D01*
X6140Y38700D01*
X5940Y38900D01*
Y38130D02*
X6140Y38330D01*
X6340Y38130D01*
X6140Y37930D01*
X5940Y38130D01*
X5980Y36990D02*
X6180Y37190D01*
X6380Y36990D01*
X6180Y36790D01*
X5980Y36990D01*
X7280Y36970D02*
X7480Y37170D01*
X7680Y36970D01*
X7480Y36770D01*
X7280Y36970D01*
X11260Y38510D02*
X11460Y38710D01*
X11660Y38510D01*
X11460Y38310D01*
X11260Y38510D01*
X9940D02*
X10140Y38710D01*
X10340Y38510D01*
X10140Y38310D01*
X9940Y38510D01*
X11270Y38120D02*
X11470Y38320D01*
X11670Y38120D01*
X11470Y37920D01*
X11270Y38120D01*
X11280Y38920D02*
X11480Y39120D01*
X11680Y38920D01*
X11480Y38720D01*
X11280Y38920D01*
X9940Y38900D02*
X10140Y39100D01*
X10340Y38900D01*
X10140Y38700D01*
X9940Y38900D01*
Y38130D02*
X10140Y38330D01*
X10340Y38130D01*
X10140Y37930D01*
X9940Y38130D01*
X9980Y36990D02*
X10180Y37190D01*
X10380Y36990D01*
X10180Y36790D01*
X9980Y36990D01*
X11280Y36970D02*
X11480Y37170D01*
X11680Y36970D01*
X11480Y36770D01*
X11280Y36970D01*
X15280D02*
X15480Y37170D01*
X15680Y36970D01*
X15480Y36770D01*
X15280Y36970D01*
X13980Y36990D02*
X14180Y37190D01*
X14380Y36990D01*
X14180Y36790D01*
X13980Y36990D01*
X3960Y35740D02*
X4160Y35940D01*
X4360Y35740D01*
X4160Y35540D01*
X3960Y35740D01*
X8320Y36890D02*
X8520Y37090D01*
X8720Y36890D01*
X8520Y36690D01*
X8320Y36890D01*
X13940Y38130D02*
X14140Y38330D01*
X14340Y38130D01*
X14140Y37930D01*
X13940Y38130D01*
Y38900D02*
X14140Y39100D01*
X14340Y38900D01*
X14140Y38700D01*
X13940Y38900D01*
X15280Y38920D02*
X15480Y39120D01*
X15680Y38920D01*
X15480Y38720D01*
X15280Y38920D01*
X15270Y38120D02*
X15470Y38320D01*
X15670Y38120D01*
X15470Y37920D01*
X15270Y38120D01*
X12270Y36870D02*
X12470Y37070D01*
X12670Y36870D01*
X12470Y36670D01*
X12270Y36870D01*
X13940Y38510D02*
X14140Y38710D01*
X14340Y38510D01*
X14140Y38310D01*
X13940Y38510D01*
X15260D02*
X15460Y38710D01*
X15660Y38510D01*
X15460Y38310D01*
X15260Y38510D01*
X26910Y39250D02*
X27110Y39450D01*
X27310Y39250D01*
X27110Y39050D01*
X26910Y39250D01*
Y38880D02*
X27110Y39080D01*
X27310Y38880D01*
X27110Y38680D01*
X26910Y38880D01*
X7710Y35590D02*
X7910Y35790D01*
X8110Y35590D01*
X7910Y35390D01*
X7710Y35590D01*
X25590Y34290D02*
X25790Y34490D01*
X25990Y34290D01*
X25790Y34090D01*
X25590Y34290D01*
Y34830D02*
X25790Y35030D01*
X25990Y34830D01*
X25790Y34630D01*
X25590Y34830D01*
X24590Y31212D02*
X24790Y31412D01*
X24990Y31212D01*
X24790Y31012D01*
X24590Y31212D01*
Y31625D02*
X24790Y31825D01*
X24990Y31625D01*
X24790Y31425D01*
X24590Y31625D01*
Y32037D02*
X24790Y32238D01*
X24990Y32037D01*
X24790Y31837D01*
X24590Y32037D01*
Y32450D02*
X24790Y32650D01*
X24990Y32450D01*
X24790Y32250D01*
X24590Y32450D01*
X23870Y32460D02*
X24070Y32660D01*
X24270Y32460D01*
X24070Y32260D01*
X23870Y32460D01*
X23580D02*
X23780Y32660D01*
X23980Y32460D01*
X23780Y32260D01*
X23580Y32460D01*
X26136Y28006D02*
X26336Y28206D01*
X26536Y28006D01*
X26336Y27806D01*
X26136Y28006D01*
X26156Y28376D02*
X26356Y28576D01*
X26556Y28376D01*
X26356Y28176D01*
X26156Y28376D01*
X26126Y28766D02*
X26326Y28966D01*
X26526Y28766D01*
X26326Y28566D01*
X26126Y28766D01*
X27210Y28220D02*
X27410Y28420D01*
X27610Y28220D01*
X27410Y28020D01*
X27210Y28220D01*
X28330Y27410D02*
X28530Y27610D01*
X28730Y27410D01*
X28530Y27210D01*
X28330Y27410D01*
Y27830D02*
X28530Y28030D01*
X28730Y27830D01*
X28530Y27630D01*
X28330Y27830D01*
X27210Y27820D02*
X27410Y28020D01*
X27610Y27820D01*
X27410Y27620D01*
X27210Y27820D01*
Y27340D02*
X27410Y27540D01*
X27610Y27340D01*
X27410Y27140D01*
X27210Y27340D01*
X25870Y33420D02*
X26070Y33620D01*
X26270Y33420D01*
X26070Y33220D01*
X25870Y33420D01*
X29900Y29810D02*
X30100Y30010D01*
X30300Y29810D01*
X30100Y29610D01*
X29900Y29810D01*
X27260Y39680D02*
X27460Y39880D01*
X27660Y39680D01*
X27460Y39480D01*
X27260Y39680D01*
X27280Y38880D02*
X27480Y39080D01*
X27680Y38880D01*
X27480Y38680D01*
X27280Y38880D01*
X29430Y38870D02*
X29630Y39070D01*
X29830Y38870D01*
X29630Y38670D01*
X29430Y38870D01*
Y39700D02*
X29630Y39900D01*
X29830Y39700D01*
X29630Y39500D01*
X29430Y39700D01*
X29080Y38860D02*
X29280Y39060D01*
X29480Y38860D01*
X29280Y38660D01*
X29080Y38860D01*
Y39280D02*
X29280Y39480D01*
X29480Y39280D01*
X29280Y39080D01*
X29080Y39280D01*
X29070Y39710D02*
X29270Y39910D01*
X29470Y39710D01*
X29270Y39510D01*
X29070Y39710D01*
X28130Y39260D02*
X28330Y39460D01*
X28530Y39260D01*
X28330Y39060D01*
X28130Y39260D01*
Y39680D02*
X28330Y39880D01*
X28530Y39680D01*
X28330Y39480D01*
X28130Y39680D01*
Y38870D02*
X28330Y39070D01*
X28530Y38870D01*
X28330Y38670D01*
X28130Y38870D01*
X26580Y39610D02*
X26780Y39810D01*
X26980Y39610D01*
X26780Y39410D01*
X26580Y39610D01*
X26570Y39240D02*
X26770Y39440D01*
X26970Y39240D01*
X26770Y39040D01*
X26570Y39240D01*
X26580Y38880D02*
X26780Y39080D01*
X26980Y38880D01*
X26780Y38680D01*
X26580Y38880D01*
X24850Y39640D02*
X25050Y39840D01*
X25250Y39640D01*
X25050Y39440D01*
X24850Y39640D01*
X39420Y21760D02*
X39620Y21960D01*
X39820Y21760D01*
X39620Y21560D01*
X39420Y21760D01*
X17840Y24820D02*
X18040Y25020D01*
X18240Y24820D01*
X18040Y24620D01*
X17840Y24820D01*
X17480Y24860D02*
X17680Y25060D01*
X17880Y24860D01*
X17680Y24660D01*
X17480Y24860D01*
X23110Y14720D02*
X23310Y14920D01*
X23510Y14720D01*
X23310Y14520D01*
X23110Y14720D01*
X23140Y15810D02*
X23340Y16010D01*
X23540Y15810D01*
X23340Y15610D01*
X23140Y15810D01*
X22780Y15820D02*
X22980Y16020D01*
X23180Y15820D01*
X22980Y15620D01*
X22780Y15820D01*
X22760Y16940D02*
X22960Y17140D01*
X23160Y16940D01*
X22960Y16740D01*
X22760Y16940D01*
X25500Y17700D02*
X25700Y17900D01*
X25900Y17700D01*
X25700Y17500D01*
X25500Y17700D01*
X25540Y19270D02*
X25740Y19470D01*
X25940Y19270D01*
X25740Y19070D01*
X25540Y19270D01*
X26160Y17550D02*
X26360Y17750D01*
X26560Y17550D01*
X26360Y17350D01*
X26160Y17550D01*
X26090Y16950D02*
X26290Y17150D01*
X26490Y16950D01*
X26290Y16750D01*
X26090Y16950D01*
X18060Y15915D02*
X18260Y16115D01*
X18460Y15915D01*
X18260Y15715D01*
X18060Y15915D01*
X18320Y16200D02*
X18520Y16400D01*
X18720Y16200D01*
X18520Y16000D01*
X18320Y16200D01*
X18460Y16710D02*
X18660Y16910D01*
X18860Y16710D01*
X18660Y16510D01*
X18460Y16710D01*
X18660Y16370D02*
X18860Y16570D01*
X19060Y16370D01*
X18860Y16170D01*
X18660Y16370D01*
X20530Y15630D02*
X20730Y15830D01*
X20930Y15630D01*
X20730Y15430D01*
X20530Y15630D01*
X20570Y16020D02*
X20770Y16220D01*
X20970Y16020D01*
X20770Y15820D01*
X20570Y16020D01*
X20820Y16280D02*
X21020Y16480D01*
X21220Y16280D01*
X21020Y16080D01*
X20820Y16280D01*
X21050Y16000D02*
X21250Y16200D01*
X21450Y16000D01*
X21250Y15800D01*
X21050Y16000D01*
X5930Y27660D02*
X6130Y27860D01*
X6330Y27660D01*
X6130Y27460D01*
X5930Y27660D01*
X6280Y28270D02*
X6480Y28470D01*
X6680Y28270D01*
X6480Y28070D01*
X6280Y28270D01*
X11990Y28170D02*
X12190Y28370D01*
X12390Y28170D01*
X12190Y27970D01*
X11990Y28170D01*
X12250Y16740D02*
X12450Y16940D01*
X12650Y16740D01*
X12450Y16540D01*
X12250Y16740D01*
X14180Y16760D02*
X14380Y16960D01*
X14580Y16760D01*
X14380Y16560D01*
X14180Y16760D01*
X15550Y20240D02*
X15750Y20440D01*
X15950Y20240D01*
X15750Y20040D01*
X15550Y20240D01*
X13930Y20510D02*
X14130Y20710D01*
X14330Y20510D01*
X14130Y20310D01*
X13930Y20510D01*
X21800Y26510D02*
X22000Y26710D01*
X22200Y26510D01*
X22000Y26310D01*
X21800Y26510D01*
X38360Y3620D02*
X38560Y3820D01*
X38760Y3620D01*
X38560Y3420D01*
X38360Y3620D01*
X40330Y18220D02*
X40530Y18420D01*
X40730Y18220D01*
X40530Y18020D01*
X40330Y18220D01*
Y18820D02*
X40530Y19020D01*
X40730Y18820D01*
X40530Y18620D01*
X40330Y18820D01*
X26370Y20430D02*
X26570Y20630D01*
X26770Y20430D01*
X26570Y20230D01*
X26370Y20430D01*
X31270D02*
X31470Y20630D01*
X31670Y20430D01*
X31470Y20230D01*
X31270Y20430D01*
X34650Y21450D02*
X34850Y21650D01*
X35050Y21450D01*
X34850Y21250D01*
X34650Y21450D01*
X32968Y21448D02*
X33168Y21648D01*
X33368Y21448D01*
X33168Y21248D01*
X32968Y21448D01*
X31270Y21460D02*
X31470Y21660D01*
X31670Y21460D01*
X31470Y21260D01*
X31270Y21460D01*
X29630D02*
X29830Y21660D01*
X30030Y21460D01*
X29830Y21260D01*
X29630Y21460D01*
X27960Y21470D02*
X28160Y21670D01*
X28360Y21470D01*
X28160Y21270D01*
X27960Y21470D01*
X29630Y20420D02*
X29830Y20620D01*
X30030Y20420D01*
X29830Y20220D01*
X29630Y20420D01*
X1991Y16630D02*
X2191Y16830D01*
X2391Y16630D01*
X2191Y16430D01*
X1991Y16630D01*
X281Y14520D02*
X481Y14720D01*
X681Y14520D01*
X481Y14320D01*
X281Y14520D01*
Y17480D02*
X481Y17680D01*
X681Y17480D01*
X481Y17280D01*
X281Y17480D01*
Y17920D02*
X481Y18120D01*
X681Y17920D01*
X481Y17720D01*
X281Y17920D01*
Y14090D02*
X481Y14290D01*
X681Y14090D01*
X481Y13890D01*
X281Y14090D01*
X21610Y21570D02*
X21810Y21770D01*
X22010Y21570D01*
X21810Y21370D01*
X21610Y21570D01*
X21950Y21210D02*
X22150Y21410D01*
X22350Y21210D01*
X22150Y21010D01*
X21950Y21210D01*
X16212Y34200D02*
X16412Y34400D01*
X16612Y34200D01*
X16412Y34000D01*
X16212Y34200D01*
X2571Y18910D02*
X2771Y19110D01*
X2971Y18910D01*
X2771Y18710D01*
X2571Y18910D01*
X881D02*
X1081Y19110D01*
X1281Y18910D01*
X1081Y18710D01*
X881Y18910D01*
X310Y20090D02*
X510Y20290D01*
X710Y20090D01*
X510Y19890D01*
X310Y20090D01*
X2011Y17070D02*
X2211Y17270D01*
X2411Y17070D01*
X2211Y16870D01*
X2011Y17070D01*
X7040Y10827D02*
X7240Y11027D01*
X7440Y10827D01*
X7240Y10627D01*
X7040Y10827D01*
Y11707D02*
X7240Y11907D01*
X7440Y11707D01*
X7240Y11507D01*
X7040Y11707D01*
X14140Y11264D02*
X14340Y11464D01*
X14540Y11264D01*
X14340Y11064D01*
X14140Y11264D01*
Y10827D02*
X14340Y11027D01*
X14540Y10827D01*
X14340Y10627D01*
X14140Y10827D01*
Y11707D02*
X14340Y11907D01*
X14540Y11707D01*
X14340Y11507D01*
X14140Y11707D01*
X21200Y11264D02*
X21400Y11464D01*
X21600Y11264D01*
X21400Y11064D01*
X21200Y11264D01*
Y10827D02*
X21400Y11027D01*
X21600Y10827D01*
X21400Y10627D01*
X21200Y10827D01*
Y11707D02*
X21400Y11907D01*
X21600Y11707D01*
X21400Y11507D01*
X21200Y11707D01*
X28270Y11264D02*
X28470Y11464D01*
X28670Y11264D01*
X28470Y11064D01*
X28270Y11264D01*
Y10827D02*
X28470Y11027D01*
X28670Y10827D01*
X28470Y10627D01*
X28270Y10827D01*
Y11707D02*
X28470Y11907D01*
X28670Y11707D01*
X28470Y11507D01*
X28270Y11707D01*
X35400D02*
X35600Y11907D01*
X35800Y11707D01*
X35600Y11507D01*
X35400Y11707D01*
Y10827D02*
X35600Y11027D01*
X35800Y10827D01*
X35600Y10627D01*
X35400Y10827D01*
Y11264D02*
X35600Y11464D01*
X35800Y11264D01*
X35600Y11064D01*
X35400Y11264D01*
X7000Y9674D02*
X7200Y9874D01*
X7400Y9674D01*
X7200Y9474D01*
X7000Y9674D01*
X7020Y8794D02*
X7220Y8994D01*
X7420Y8794D01*
X7220Y8594D01*
X7020Y8794D01*
X7000Y9230D02*
X7200Y9430D01*
X7400Y9230D01*
X7200Y9030D01*
X7000Y9230D01*
X14100Y9674D02*
X14300Y9874D01*
X14500Y9674D01*
X14300Y9474D01*
X14100Y9674D01*
Y8794D02*
X14300Y8994D01*
X14500Y8794D01*
X14300Y8594D01*
X14100Y8794D01*
Y9230D02*
X14300Y9430D01*
X14500Y9230D01*
X14300Y9030D01*
X14100Y9230D01*
X21160Y9674D02*
X21360Y9874D01*
X21560Y9674D01*
X21360Y9474D01*
X21160Y9674D01*
Y8794D02*
X21360Y8994D01*
X21560Y8794D01*
X21360Y8594D01*
X21160Y8794D01*
Y9230D02*
X21360Y9430D01*
X21560Y9230D01*
X21360Y9030D01*
X21160Y9230D01*
X28230Y9674D02*
X28430Y9874D01*
X28630Y9674D01*
X28430Y9474D01*
X28230Y9674D01*
Y8794D02*
X28430Y8994D01*
X28630Y8794D01*
X28430Y8594D01*
X28230Y8794D01*
Y9230D02*
X28430Y9430D01*
X28630Y9230D01*
X28430Y9030D01*
X28230Y9230D01*
X35360D02*
X35560Y9430D01*
X35760Y9230D01*
X35560Y9030D01*
X35360Y9230D01*
Y8794D02*
X35560Y8994D01*
X35760Y8794D01*
X35560Y8594D01*
X35360Y8794D01*
Y9674D02*
X35560Y9874D01*
X35760Y9674D01*
X35560Y9474D01*
X35360Y9674D01*
X30250Y11090D02*
X30450Y11290D01*
X30650Y11090D01*
X30450Y10890D01*
X30250Y11090D01*
X23350Y11270D02*
X23550Y11470D01*
X23750Y11270D01*
X23550Y11070D01*
X23350Y11270D01*
X2660Y11280D02*
X2860Y11480D01*
X3060Y11280D01*
X2860Y11080D01*
X2660Y11280D01*
X13300Y12335D02*
X13500Y12535D01*
X13700Y12335D01*
X13500Y12135D01*
X13300Y12335D01*
X35930Y7160D02*
X36130Y7360D01*
X36330Y7160D01*
X36130Y6960D01*
X35930Y7160D01*
X35230Y7650D02*
X35430Y7850D01*
X35630Y7650D01*
X35430Y7450D01*
X35230Y7650D01*
X28170Y7590D02*
X28370Y7790D01*
X28570Y7590D01*
X28370Y7390D01*
X28170Y7590D01*
X28810Y7150D02*
X29010Y7350D01*
X29210Y7150D01*
X29010Y6950D01*
X28810Y7150D01*
X19805Y9010D02*
X20005Y9210D01*
X20205Y9010D01*
X20005Y8810D01*
X19805Y9010D01*
X21040Y7660D02*
X21240Y7860D01*
X21440Y7660D01*
X21240Y7460D01*
X21040Y7660D01*
X21750Y7170D02*
X21950Y7370D01*
X22150Y7170D01*
X21950Y6970D01*
X21750Y7170D01*
X290Y12690D02*
X490Y12890D01*
X690Y12690D01*
X490Y12490D01*
X290Y12690D01*
X250Y31390D02*
X450Y31590D01*
X650Y31390D01*
X450Y31190D01*
X250Y31390D01*
X300Y10580D02*
X500Y10780D01*
X700Y10580D01*
X500Y10380D01*
X300Y10580D01*
X1741Y19900D02*
X1941Y20100D01*
X2141Y19900D01*
X1941Y19700D01*
X1741Y19900D01*
X5551Y19050D02*
X5751Y19250D01*
X5951Y19050D01*
X5751Y18850D01*
X5551Y19050D01*
X13430Y16290D02*
X13630Y16490D01*
X13830Y16290D01*
X13630Y16090D01*
X13430Y16290D01*
X14480Y17450D02*
X14680Y17650D01*
X14880Y17450D01*
X14680Y17250D01*
X14480Y17450D01*
X14140Y17270D02*
X14340Y17470D01*
X14540Y17270D01*
X14340Y17070D01*
X14140Y17270D01*
X14680Y16940D02*
X14880Y17140D01*
X15080Y16940D01*
X14880Y16740D01*
X14680Y16940D01*
X15030Y16810D02*
X15230Y17010D01*
X15430Y16810D01*
X15230Y16610D01*
X15030Y16810D01*
X15993Y16663D02*
X16193Y16863D01*
X16393Y16663D01*
X16193Y16463D01*
X15993Y16663D01*
X19230Y17905D02*
X19430Y18105D01*
X19630Y17905D01*
X19430Y17705D01*
X19230Y17905D01*
X23180Y13320D02*
X23380Y13520D01*
X23580Y13320D01*
X23380Y13120D01*
X23180Y13320D01*
X19700Y13330D02*
X19900Y13530D01*
X20100Y13330D01*
X19900Y13130D01*
X19700Y13330D01*
X15440Y18240D02*
X15640Y18440D01*
X15840Y18240D01*
X15640Y18040D01*
X15440Y18240D01*
X15080Y18330D02*
X15280Y18530D01*
X15480Y18330D01*
X15280Y18130D01*
X15080Y18330D01*
X21470Y20140D02*
X21670Y20340D01*
X21870Y20140D01*
X21670Y19940D01*
X21470Y20140D01*
X21770Y20580D02*
X21970Y20780D01*
X22170Y20580D01*
X21970Y20380D01*
X21770Y20580D01*
X21720Y19820D02*
X21920Y20020D01*
X22120Y19820D01*
X21920Y19620D01*
X21720Y19820D01*
X16980Y25130D02*
X17180Y25330D01*
X17380Y25130D01*
X17180Y24930D01*
X16980Y25130D01*
X26070Y15990D02*
X26270Y16190D01*
X26470Y15990D01*
X26270Y15790D01*
X26070Y15990D01*
X21564Y23640D02*
X21764Y23840D01*
X21964Y23640D01*
X21764Y23440D01*
X21564Y23640D01*
X29010Y13550D02*
X29210Y13750D01*
X29410Y13550D01*
X29210Y13350D01*
X29010Y13550D01*
X23700Y22970D02*
X23900Y23170D01*
X24100Y22970D01*
X23900Y22770D01*
X23700Y22970D01*
X23800Y23550D02*
X24000Y23750D01*
X24200Y23550D01*
X24000Y23350D01*
X23800Y23550D01*
X23420Y22740D02*
X23620Y22940D01*
X23820Y22740D01*
X23620Y22540D01*
X23420Y22740D01*
X20140Y24690D02*
X20340Y24890D01*
X20540Y24690D01*
X20340Y24490D01*
X20140Y24690D01*
X19690Y26710D02*
X19890Y26910D01*
X20090Y26710D01*
X19890Y26510D01*
X19690Y26710D01*
X19330Y26120D02*
X19530Y26320D01*
X19730Y26120D01*
X19530Y25920D01*
X19330Y26120D01*
X20050Y26610D02*
X20250Y26810D01*
X20450Y26610D01*
X20250Y26410D01*
X20050Y26610D01*
X20090Y25050D02*
X20290Y25250D01*
X20490Y25050D01*
X20290Y24850D01*
X20090Y25050D01*
X20450Y26970D02*
X20650Y27170D01*
X20850Y26970D01*
X20650Y26770D01*
X20450Y26970D01*
X22040Y20860D02*
X22240Y21060D01*
X22440Y20860D01*
X22240Y20660D01*
X22040Y20860D01*
X33580Y15990D02*
X33780Y16190D01*
X33980Y15990D01*
X33780Y15790D01*
X33580Y15990D01*
X19140Y24830D02*
X19340Y25030D01*
X19540Y24830D01*
X19340Y24630D01*
X19140Y24830D01*
X19460Y25050D02*
X19660Y25250D01*
X19860Y25050D01*
X19660Y24850D01*
X19460Y25050D01*
X13950Y7680D02*
X14150Y7880D01*
X14350Y7680D01*
X14150Y7480D01*
X13950Y7680D01*
X14660Y7160D02*
X14860Y7360D01*
X15060Y7160D01*
X14860Y6960D01*
X14660Y7160D01*
X5746Y9010D02*
X5946Y9210D01*
X6146Y9010D01*
X5946Y8810D01*
X5746Y9010D01*
X7550Y7170D02*
X7750Y7370D01*
X7950Y7170D01*
X7750Y6970D01*
X7550Y7170D01*
X30010Y13910D02*
X30210Y14110D01*
X30410Y13910D01*
X30210Y13710D01*
X30010Y13910D01*
X23530Y20740D02*
X23730Y20940D01*
X23930Y20740D01*
X23730Y20540D01*
X23530Y20740D01*
X22080Y19770D02*
X22280Y19970D01*
X22480Y19770D01*
X22280Y19570D01*
X22080Y19770D01*
X21860Y19480D02*
X22060Y19680D01*
X22260Y19480D01*
X22060Y19280D01*
X21860Y19480D01*
X23440Y23640D02*
X23640Y23840D01*
X23840Y23640D01*
X23640Y23440D01*
X23440Y23640D01*
X23460Y19750D02*
X23660Y19950D01*
X23860Y19750D01*
X23660Y19550D01*
X23460Y19750D01*
X15380Y18620D02*
X15580Y18820D01*
X15780Y18620D01*
X15580Y18420D01*
X15380Y18620D01*
X15090Y18950D02*
X15290Y19150D01*
X15490Y18950D01*
X15290Y18750D01*
X15090Y18950D01*
X21960Y16060D02*
X22160Y16260D01*
X22360Y16060D01*
X22160Y15860D01*
X21960Y16060D01*
X22230Y19190D02*
X22430Y19390D01*
X22630Y19190D01*
X22430Y18990D01*
X22230Y19190D01*
X22020Y18880D02*
X22220Y19080D01*
X22420Y18880D01*
X22220Y18680D01*
X22020Y18880D01*
X22230Y18580D02*
X22430Y18780D01*
X22630Y18580D01*
X22430Y18380D01*
X22230Y18580D01*
X31120Y15970D02*
X31320Y16170D01*
X31520Y15970D01*
X31320Y15770D01*
X31120Y15970D01*
X28370Y15980D02*
X28570Y16180D01*
X28770Y15980D01*
X28570Y15780D01*
X28370Y15980D01*
X26560Y17430D02*
X26760Y17630D01*
X26960Y17430D01*
X26760Y17230D01*
X26560Y17430D01*
X35580Y17160D02*
X35780Y17360D01*
X35980Y17160D01*
X35780Y16960D01*
X35580Y17160D01*
X13090Y24930D02*
X13290Y25130D01*
X13490Y24930D01*
X13290Y24730D01*
X13090Y24930D01*
X28290Y16680D02*
X28490Y16880D01*
X28690Y16680D01*
X28490Y16480D01*
X28290Y16680D01*
X33590Y16970D02*
X33790Y17170D01*
X33990Y16970D01*
X33790Y16770D01*
X33590Y16970D01*
X31580Y17450D02*
X31780Y17650D01*
X31980Y17450D01*
X31780Y17250D01*
X31580Y17450D01*
X31060Y16970D02*
X31260Y17170D01*
X31460Y16970D01*
X31260Y16770D01*
X31060Y16970D01*
X34080Y17430D02*
X34280Y17630D01*
X34480Y17430D01*
X34280Y17230D01*
X34080Y17430D01*
X32560Y17120D02*
X32760Y17320D01*
X32960Y17120D01*
X32760Y16920D01*
X32560Y17120D01*
X29080Y17450D02*
X29280Y17650D01*
X29480Y17450D01*
X29280Y17250D01*
X29080Y17450D01*
X30100Y17180D02*
X30300Y17380D01*
X30500Y17180D01*
X30300Y16980D01*
X30100Y17180D01*
X27600D02*
X27800Y17380D01*
X28000Y17180D01*
X27800Y16980D01*
X27600Y17180D01*
X28980Y15060D02*
X29180Y15260D01*
X29380Y15060D01*
X29180Y14860D01*
X28980Y15060D01*
X30150Y14510D02*
X30350Y14710D01*
X30550Y14510D01*
X30350Y14310D01*
X30150Y14510D01*
X13690Y23880D02*
X13890Y24080D01*
X14090Y23880D01*
X13890Y23680D01*
X13690Y23880D01*
X26901Y12080D02*
X27101Y12280D01*
X27301Y12080D01*
X27101Y11880D01*
X26901Y12080D01*
X26431D02*
X26631Y12280D01*
X26831Y12080D01*
X26631Y11880D01*
X26431Y12080D01*
X37940Y14006D02*
X38140Y14206D01*
X38340Y14006D01*
X38140Y13806D01*
X37940Y14006D01*
X38658Y16142D02*
X38858Y16342D01*
X39058Y16142D01*
X38858Y15942D01*
X38658Y16142D01*
X38983Y14990D02*
X39183Y15190D01*
X39383Y14990D01*
X39183Y14790D01*
X38983Y14990D01*
X13090Y24550D02*
X13290Y24750D01*
X13490Y24550D01*
X13290Y24350D01*
X13090Y24550D01*
X15100Y24522D02*
X15300Y24722D01*
X15500Y24522D01*
X15300Y24322D01*
X15100Y24522D01*
X37969Y21260D02*
X38169Y21460D01*
X38369Y21260D01*
X38169Y21060D01*
X37969Y21260D01*
X39406D02*
X39606Y21460D01*
X39806Y21260D01*
X39606Y21060D01*
X39406Y21260D01*
X4229Y18140D02*
X4429Y18340D01*
X4629Y18140D01*
X4429Y17940D01*
X4229Y18140D01*
X38156Y16339D02*
X38356Y16539D01*
X38556Y16339D01*
X38356Y16139D01*
X38156Y16339D01*
X39800Y16350D02*
X40000Y16550D01*
X40200Y16350D01*
X40000Y16150D01*
X39800Y16350D01*
X39150D02*
X39350Y16550D01*
X39550Y16350D01*
X39350Y16150D01*
X39150Y16350D01*
Y15950D02*
X39350Y16150D01*
X39550Y15950D01*
X39350Y15750D01*
X39150Y15950D01*
X39898Y14016D02*
X40098Y14216D01*
X40298Y14016D01*
X40098Y13816D01*
X39898Y14016D01*
X39259D02*
X39459Y14216D01*
X39659Y14016D01*
X39459Y13816D01*
X39259Y14016D01*
X38629D02*
X38829Y14216D01*
X39029Y14016D01*
X38829Y13816D01*
X38629Y14016D01*
X39800Y15950D02*
X40000Y16150D01*
X40200Y15950D01*
X40000Y15750D01*
X39800Y15950D01*
X38156Y15965D02*
X38356Y16165D01*
X38556Y15965D01*
X38356Y15765D01*
X38156Y15965D01*
X38750Y21750D02*
X38950Y21950D01*
X39150Y21750D01*
X38950Y21550D01*
X38750Y21750D01*
X37900D02*
X38100Y21950D01*
X38300Y21750D01*
X38100Y21550D01*
X37900Y21750D01*
X39800Y19370D02*
X40000Y19570D01*
X40200Y19370D01*
X40000Y19170D01*
X39800Y19370D01*
X37850Y19400D02*
X38050Y19600D01*
X38250Y19400D01*
X38050Y19200D01*
X37850Y19400D01*
X38698Y21250D02*
X38898Y21450D01*
X39098Y21250D01*
X38898Y21050D01*
X38698Y21250D01*
X39003Y19380D02*
X39203Y19580D01*
X39403Y19380D01*
X39203Y19180D01*
X39003Y19380D01*
X30210Y39013D02*
X30010Y39413D01*
X30410D01*
X30210Y39013D01*
Y39093D02*
X30090Y39333D01*
X30330D01*
X30210Y39093D01*
X22070Y32160D02*
X22270Y32360D01*
X22470Y32160D01*
X22270Y31960D01*
X22070Y32160D01*
X9550Y32520D02*
X9750Y32720D01*
X9950Y32520D01*
X9750Y32320D01*
X9550Y32520D01*
X4620Y32520D02*
X4820Y32720D01*
X5020Y32520D01*
X4820Y32320D01*
X4620Y32520D01*
X13520Y32960D02*
X13720Y33160D01*
X13920Y32960D01*
X13720Y32760D01*
X13520Y32960D01*
X9490Y32980D02*
X9690Y33180D01*
X9890Y32980D01*
X9690Y32780D01*
X9490Y32980D01*
X20990Y31710D02*
X21190Y31910D01*
X21390Y31710D01*
X21190Y31510D01*
X20990Y31710D01*
X22206D02*
X22406Y31910D01*
X22606Y31710D01*
X22406Y31510D01*
X22206Y31710D01*
X9000Y32970D02*
X9200Y33170D01*
X9400Y32970D01*
X9200Y32770D01*
X9000Y32970D01*
X8959Y32520D02*
X9159Y32720D01*
X9359Y32520D01*
X9159Y32320D01*
X8959Y32520D01*
X12990Y32970D02*
X13190Y33170D01*
X13390Y32970D01*
X13190Y32770D01*
X12990Y32970D01*
X33274Y37352D02*
X33474Y37552D01*
X33674Y37352D01*
X33474Y37152D01*
X33274Y37352D01*
X31233Y37564D02*
X31433Y37764D01*
X31633Y37564D01*
X31433Y37364D01*
X31233Y37564D01*
X35220Y38750D02*
X35420Y38950D01*
X35620Y38750D01*
X35420Y38550D01*
X35220Y38750D01*
X320Y32890D02*
X520Y33090D01*
X720Y32890D01*
X520Y32690D01*
X320Y32890D01*
X12030Y28560D02*
X12230Y28760D01*
X12430Y28560D01*
X12230Y28360D01*
X12030Y28560D01*
X36720Y38800D02*
X36920Y39000D01*
X37120Y38800D01*
X36920Y38600D01*
X36720Y38800D01*
X21294Y31710D02*
X21494Y31910D01*
X21694Y31710D01*
X21494Y31510D01*
X21294Y31710D01*
X20990Y32000D02*
X21190Y32200D01*
X21390Y32000D01*
X21190Y31800D01*
X20990Y32000D01*
X6600Y25160D02*
X6800Y25360D01*
X7000Y25160D01*
X6800Y24960D01*
X6600Y25160D01*
X22510Y31710D02*
X22710Y31910D01*
X22910Y31710D01*
X22710Y31510D01*
X22510Y31710D01*
X21550Y32160D02*
X21750Y32360D01*
X21950Y32160D01*
X21750Y31960D01*
X21550Y32160D01*
X21598Y31710D02*
X21798Y31910D01*
X21998Y31710D01*
X21798Y31510D01*
X21598Y31710D01*
X38990Y10898D02*
X39190Y11099D01*
X39390Y10898D01*
X39190Y10698D01*
X38990Y10898D01*
Y11499D02*
X39190Y11698D01*
X39390Y11499D01*
X39190Y11299D01*
X38990Y11499D01*
Y12249D02*
X39190Y12449D01*
X39390Y12249D01*
X39190Y12048D01*
X38990Y12249D01*
Y12898D02*
X39190Y13098D01*
X39390Y12898D01*
X39190Y12699D01*
X38990Y12898D01*
X39490D02*
X39690Y13098D01*
X39890Y12898D01*
X39690Y12699D01*
X39490Y12898D01*
X39377Y10896D02*
X39577Y11096D01*
X39777Y10896D01*
X39577Y10696D01*
X39377Y10896D01*
X23580Y32048D02*
X23780Y32248D01*
X23980Y32048D01*
X23780Y31848D01*
X23580Y32048D01*
Y31635D02*
X23780Y31835D01*
X23980Y31635D01*
X23780Y31435D01*
X23580Y31635D01*
X34720Y38750D02*
X34920Y38950D01*
X35120Y38750D01*
X34920Y38550D01*
X34720Y38750D01*
X36470Y38550D02*
X36570Y38650D01*
X36670D01*
X36570Y38750D01*
X36670Y38850D01*
X36570D01*
X36470Y38950D01*
X36370Y38850D01*
X36270D01*
X36370Y38750D01*
X36270Y38650D01*
X36370D01*
X36470Y38550D01*
Y38630D02*
X36530Y38690D01*
X36590D01*
X36530Y38750D01*
X36590Y38810D01*
X36530D01*
X36470Y38870D01*
X36410Y38810D01*
X36350D01*
X36410Y38750D01*
X36350Y38690D01*
X36410D01*
X36470Y38630D01*
X19740Y24800D02*
X19940Y25000D01*
X20140Y24800D01*
X19940Y24600D01*
X19740Y24800D01*
X13200Y24160D02*
X13400Y24360D01*
X13600Y24160D01*
X13400Y23960D01*
X13200Y24160D01*
X30440Y36320D02*
X30640Y36520D01*
X30840Y36320D01*
X30640Y36120D01*
X30440Y36320D01*
X31110Y35770D02*
X31310Y35970D01*
X31510Y35770D01*
X31310Y35570D01*
X31110Y35770D01*
X32359Y35853D02*
X32459Y36053D01*
X32359Y36253D01*
X32559Y36153D01*
X32759Y36253D01*
X32659Y36053D01*
X32759Y35853D01*
X32559Y35953D01*
X32359Y35853D01*
X32439Y35933D02*
X32499Y36053D01*
X32439Y36173D01*
X32559Y36113D01*
X32679Y36173D01*
X32619Y36053D01*
X32679Y35933D01*
X32559Y35993D01*
X32439Y35933D01*
X32379Y36650D02*
X32479Y36850D01*
X32379Y37050D01*
X32579Y36950D01*
X32779Y37050D01*
X32679Y36850D01*
X32779Y36650D01*
X32579Y36750D01*
X32379Y36650D01*
X32459Y36730D02*
X32519Y36850D01*
X32459Y36970D01*
X32579Y36910D01*
X32699Y36970D01*
X32639Y36850D01*
X32699Y36730D01*
X32579Y36790D01*
X32459Y36730D01*
X31842Y39424D02*
X32042Y39624D01*
X32242Y39424D01*
X32042Y39224D01*
X31842Y39424D01*
X38944Y20305D02*
X39144Y20505D01*
X39344Y20305D01*
X39144Y20105D01*
X38944Y20305D01*
X39800Y21270D02*
X40000Y21470D01*
X40200Y21270D01*
X40000Y21070D01*
X39800Y21270D01*
X16320Y11290D02*
X16520Y11490D01*
X16720Y11290D01*
X16520Y11090D01*
X16320Y11290D01*
X11224Y7860D02*
X11424Y8060D01*
X11624Y7860D01*
X11424Y7660D01*
X11224Y7860D01*
X10864D02*
X11064Y8060D01*
X11264Y7860D01*
X11064Y7660D01*
X10864Y7860D01*
X13140Y7680D02*
X13340Y7880D01*
X13540Y7680D01*
X13340Y7480D01*
X13140Y7680D01*
X12724Y12080D02*
X12924Y12280D01*
X13124Y12080D01*
X12924Y11880D01*
X12724Y12080D01*
X12254D02*
X12454Y12280D01*
X12654Y12080D01*
X12454Y11880D01*
X12254Y12080D01*
X10864Y7600D02*
X11064Y7800D01*
X11264Y7600D01*
X11064Y7400D01*
X10864Y7600D01*
X11224D02*
X11424Y7800D01*
X11624Y7600D01*
X11424Y7400D01*
X11224Y7600D01*
X10025Y4030D02*
X10225Y4230D01*
X10425Y4030D01*
X10225Y3830D01*
X10025Y4030D01*
X5740Y12050D02*
X5940Y12250D01*
X6140Y12050D01*
X5940Y11850D01*
X5740Y12050D01*
X5270D02*
X5470Y12250D01*
X5670Y12050D01*
X5470Y11850D01*
X5270Y12050D01*
X2411Y10200D02*
X2611Y10400D01*
X2811Y10200D01*
X2611Y10000D01*
X2411Y10200D01*
X10285Y4030D02*
X10485Y4230D01*
X10685Y4030D01*
X10485Y3830D01*
X10285Y4030D01*
X11880Y7790D02*
X12080Y7990D01*
X12280Y7790D01*
X12080Y7590D01*
X11880Y7790D01*
Y7510D02*
X12080Y7710D01*
X12280Y7510D01*
X12080Y7310D01*
X11880Y7510D01*
X8230Y7540D02*
X8430Y7740D01*
X8630Y7540D01*
X8430Y7340D01*
X8230Y7540D01*
X10260Y7800D02*
X10460Y8000D01*
X10660Y7800D01*
X10460Y7600D01*
X10260Y7800D01*
Y7530D02*
X10460Y7730D01*
X10660Y7530D01*
X10460Y7330D01*
X10260Y7530D01*
X12910Y7250D02*
X13110Y7450D01*
X13310Y7250D01*
X13110Y7050D01*
X12910Y7250D01*
X9390Y7410D02*
X9590Y7610D01*
X9790Y7410D01*
X9590Y7210D01*
X9390Y7410D01*
X9660D02*
X9860Y7610D01*
X10060Y7410D01*
X9860Y7210D01*
X9660Y7410D01*
X13200Y5870D02*
X13400Y6070D01*
X13600Y5870D01*
X13400Y5670D01*
X13200Y5870D01*
X13010Y6050D02*
X13210Y6250D01*
X13410Y6050D01*
X13210Y5850D01*
X13010Y6050D01*
X12910Y5330D02*
X13110Y5530D01*
X13310Y5330D01*
X13110Y5130D01*
X12910Y5330D01*
X12740Y5520D02*
X12940Y5720D01*
X13140Y5520D01*
X12940Y5320D01*
X12740Y5520D01*
X13780Y6220D02*
X13980Y6420D01*
X14180Y6220D01*
X13980Y6020D01*
X13780Y6220D01*
X12365Y4030D02*
X12565Y4230D01*
X12765Y4030D01*
X12565Y3830D01*
X12365Y4030D01*
X9346Y5520D02*
X9546Y5720D01*
X9746Y5520D01*
X9546Y5320D01*
X9346Y5520D01*
X9176Y5330D02*
X9376Y5530D01*
X9576Y5330D01*
X9376Y5130D01*
X9176Y5330D01*
X9076Y6050D02*
X9276Y6250D01*
X9476Y6050D01*
X9276Y5850D01*
X9076Y6050D01*
X8886Y5870D02*
X9086Y6070D01*
X9286Y5870D01*
X9086Y5670D01*
X8886Y5870D01*
X9790Y4890D02*
X9990Y5090D01*
X10190Y4890D01*
X9990Y4690D01*
X9790Y4890D01*
X10117D02*
X10317Y5090D01*
X10517Y4890D01*
X10317Y4690D01*
X10117Y4890D01*
X10443D02*
X10643Y5090D01*
X10843Y4890D01*
X10643Y4690D01*
X10443Y4890D01*
X10770D02*
X10970Y5090D01*
X11170Y4890D01*
X10970Y4690D01*
X10770Y4890D01*
X11270D02*
X11470Y5090D01*
X11670Y4890D01*
X11470Y4690D01*
X11270Y4890D01*
X11607D02*
X11807Y5090D01*
X12007Y4890D01*
X11807Y4690D01*
X11607Y4890D01*
X11943D02*
X12143Y5090D01*
X12343Y4890D01*
X12143Y4690D01*
X11943Y4890D01*
X12280D02*
X12480Y5090D01*
X12680Y4890D01*
X12480Y4690D01*
X12280Y4890D01*
X10730Y6150D02*
X10930Y6350D01*
X11130Y6150D01*
X10930Y5950D01*
X10730Y6150D01*
X11410D02*
X11610Y6350D01*
X11810Y6150D01*
X11610Y5950D01*
X11410Y6150D01*
X8190Y6200D02*
X8390Y6400D01*
X8590Y6200D01*
X8390Y6000D01*
X8190Y6200D01*
X7920D02*
X8120Y6400D01*
X8320Y6200D01*
X8120Y6000D01*
X7920Y6200D01*
X14425Y3010D02*
X14625Y3210D01*
X14825Y3010D01*
X14625Y2810D01*
X14425Y3010D01*
X12390Y7350D02*
X12590Y7550D01*
X12790Y7350D01*
X12590Y7150D01*
X12390Y7350D01*
X12640Y7260D02*
X12840Y7460D01*
X13040Y7260D01*
X12840Y7060D01*
X12640Y7260D01*
X20001Y7250D02*
X20201Y7450D01*
X20401Y7250D01*
X20201Y7050D01*
X20001Y7250D01*
X19481Y7350D02*
X19681Y7550D01*
X19881Y7350D01*
X19681Y7150D01*
X19481Y7350D01*
X19731Y7260D02*
X19931Y7460D01*
X20131Y7260D01*
X19931Y7060D01*
X19731Y7260D01*
X21221Y3010D02*
X21421Y3210D01*
X21621Y3010D01*
X21421Y2810D01*
X21221Y3010D01*
X15041Y2990D02*
X15241Y3190D01*
X15441Y2990D01*
X15241Y2790D01*
X15041Y2990D01*
X15011Y6200D02*
X15211Y6400D01*
X15411Y6200D01*
X15211Y6000D01*
X15011Y6200D01*
X15281D02*
X15481Y6400D01*
X15681Y6200D01*
X15481Y6000D01*
X15281Y6200D01*
X18501Y6150D02*
X18701Y6350D01*
X18901Y6150D01*
X18701Y5950D01*
X18501Y6150D01*
X17821D02*
X18021Y6350D01*
X18221Y6150D01*
X18021Y5950D01*
X17821Y6150D01*
X19371Y4890D02*
X19571Y5090D01*
X19771Y4890D01*
X19571Y4690D01*
X19371Y4890D01*
X19035D02*
X19235Y5090D01*
X19435Y4890D01*
X19235Y4690D01*
X19035Y4890D01*
X18698D02*
X18898Y5090D01*
X19098Y4890D01*
X18898Y4690D01*
X18698Y4890D01*
X18361D02*
X18561Y5090D01*
X18761Y4890D01*
X18561Y4690D01*
X18361Y4890D01*
X17861D02*
X18061Y5090D01*
X18261Y4890D01*
X18061Y4690D01*
X17861Y4890D01*
X17535D02*
X17735Y5090D01*
X17935Y4890D01*
X17735Y4690D01*
X17535Y4890D01*
X17208D02*
X17408Y5090D01*
X17608Y4890D01*
X17408Y4690D01*
X17208Y4890D01*
X16881D02*
X17081Y5090D01*
X17281Y4890D01*
X17081Y4690D01*
X16881Y4890D01*
X15447Y4090D02*
X15647Y4290D01*
X15847Y4090D01*
X15647Y3890D01*
X15447Y4090D01*
X15977Y5870D02*
X16177Y6070D01*
X16377Y5870D01*
X16177Y5670D01*
X15977Y5870D01*
X16167Y6050D02*
X16367Y6250D01*
X16567Y6050D01*
X16367Y5850D01*
X16167Y6050D01*
X16267Y5330D02*
X16467Y5530D01*
X16667Y5330D01*
X16467Y5130D01*
X16267Y5330D01*
X16437Y5520D02*
X16637Y5720D01*
X16837Y5520D01*
X16637Y5320D01*
X16437Y5520D01*
X19161Y4030D02*
X19361Y4230D01*
X19561Y4030D01*
X19361Y3830D01*
X19161Y4030D01*
X19431D02*
X19631Y4230D01*
X19831Y4030D01*
X19631Y3830D01*
X19431Y4030D01*
X20871Y6220D02*
X21071Y6420D01*
X21271Y6220D01*
X21071Y6020D01*
X20871Y6220D01*
X19831Y5520D02*
X20031Y5720D01*
X20231Y5520D01*
X20031Y5320D01*
X19831Y5520D01*
X20001Y5330D02*
X20201Y5530D01*
X20401Y5330D01*
X20201Y5130D01*
X20001Y5330D01*
X20101Y6050D02*
X20301Y6250D01*
X20501Y6050D01*
X20301Y5850D01*
X20101Y6050D01*
X20291Y5870D02*
X20491Y6070D01*
X20691Y5870D01*
X20491Y5670D01*
X20291Y5870D01*
X16751Y7410D02*
X16951Y7610D01*
X17151Y7410D01*
X16951Y7210D01*
X16751Y7410D01*
X16481D02*
X16681Y7610D01*
X16881Y7410D01*
X16681Y7210D01*
X16481Y7410D01*
X17351Y7530D02*
X17551Y7730D01*
X17751Y7530D01*
X17551Y7330D01*
X17351Y7530D01*
Y7800D02*
X17551Y8000D01*
X17751Y7800D01*
X17551Y7600D01*
X17351Y7800D01*
X15321Y7520D02*
X15521Y7720D01*
X15721Y7520D01*
X15521Y7320D01*
X15321Y7520D01*
X18971Y7510D02*
X19171Y7710D01*
X19371Y7510D01*
X19171Y7310D01*
X18971Y7510D01*
Y7790D02*
X19171Y7990D01*
X19371Y7790D01*
X19171Y7590D01*
X18971Y7790D01*
X17081Y4030D02*
X17281Y4230D01*
X17481Y4030D01*
X17281Y3830D01*
X17081Y4030D01*
X20821Y4090D02*
X21021Y4290D01*
X21221Y4090D01*
X21021Y3890D01*
X20821Y4090D01*
X16821Y4030D02*
X17021Y4230D01*
X17221Y4030D01*
X17021Y3830D01*
X16821Y4030D01*
X18315Y7600D02*
X18515Y7800D01*
X18715Y7600D01*
X18515Y7400D01*
X18315Y7600D01*
X17955D02*
X18155Y7800D01*
X18355Y7600D01*
X18155Y7400D01*
X17955Y7600D01*
X20231Y7680D02*
X20431Y7880D01*
X20631Y7680D01*
X20431Y7480D01*
X20231Y7680D01*
X17955Y7860D02*
X18155Y8060D01*
X18355Y7860D01*
X18155Y7660D01*
X17955Y7860D01*
X18315D02*
X18515Y8060D01*
X18715Y7860D01*
X18515Y7660D01*
X18315Y7860D01*
X27087Y7250D02*
X27287Y7450D01*
X27487Y7250D01*
X27287Y7050D01*
X27087Y7250D01*
X26567Y7350D02*
X26767Y7550D01*
X26967Y7350D01*
X26767Y7150D01*
X26567Y7350D01*
X26817Y7260D02*
X27017Y7460D01*
X27217Y7260D01*
X27017Y7060D01*
X26817Y7260D01*
X22127Y2990D02*
X22327Y3190D01*
X22527Y2990D01*
X22327Y2790D01*
X22127Y2990D01*
X22097Y6200D02*
X22297Y6400D01*
X22497Y6200D01*
X22297Y6000D01*
X22097Y6200D01*
X22367D02*
X22567Y6400D01*
X22767Y6200D01*
X22567Y6000D01*
X22367Y6200D01*
X25587Y6150D02*
X25787Y6350D01*
X25987Y6150D01*
X25787Y5950D01*
X25587Y6150D01*
X24907D02*
X25107Y6350D01*
X25307Y6150D01*
X25107Y5950D01*
X24907Y6150D01*
X26457Y4890D02*
X26657Y5090D01*
X26857Y4890D01*
X26657Y4690D01*
X26457Y4890D01*
X26121D02*
X26321Y5090D01*
X26521Y4890D01*
X26321Y4690D01*
X26121Y4890D01*
X25784D02*
X25984Y5090D01*
X26184Y4890D01*
X25984Y4690D01*
X25784Y4890D01*
X25447D02*
X25647Y5090D01*
X25847Y4890D01*
X25647Y4690D01*
X25447Y4890D01*
X24947D02*
X25147Y5090D01*
X25347Y4890D01*
X25147Y4690D01*
X24947Y4890D01*
X24621D02*
X24821Y5090D01*
X25021Y4890D01*
X24821Y4690D01*
X24621Y4890D01*
X24294D02*
X24494Y5090D01*
X24694Y4890D01*
X24494Y4690D01*
X24294Y4890D01*
X23967D02*
X24167Y5090D01*
X24367Y4890D01*
X24167Y4690D01*
X23967Y4890D01*
X22533Y4090D02*
X22733Y4290D01*
X22933Y4090D01*
X22733Y3890D01*
X22533Y4090D01*
X23063Y5870D02*
X23263Y6070D01*
X23463Y5870D01*
X23263Y5670D01*
X23063Y5870D01*
X23253Y6050D02*
X23453Y6250D01*
X23653Y6050D01*
X23453Y5850D01*
X23253Y6050D01*
X23353Y5330D02*
X23553Y5530D01*
X23753Y5330D01*
X23553Y5130D01*
X23353Y5330D01*
X23523Y5520D02*
X23723Y5720D01*
X23923Y5520D01*
X23723Y5320D01*
X23523Y5520D01*
X26247Y4030D02*
X26447Y4230D01*
X26647Y4030D01*
X26447Y3830D01*
X26247Y4030D01*
X26517D02*
X26717Y4230D01*
X26917Y4030D01*
X26717Y3830D01*
X26517Y4030D01*
X27957Y6220D02*
X28157Y6420D01*
X28357Y6220D01*
X28157Y6020D01*
X27957Y6220D01*
X26917Y5520D02*
X27117Y5720D01*
X27317Y5520D01*
X27117Y5320D01*
X26917Y5520D01*
X27087Y5330D02*
X27287Y5530D01*
X27487Y5330D01*
X27287Y5130D01*
X27087Y5330D01*
X27187Y6050D02*
X27387Y6250D01*
X27587Y6050D01*
X27387Y5850D01*
X27187Y6050D01*
X27377Y5870D02*
X27577Y6070D01*
X27777Y5870D01*
X27577Y5670D01*
X27377Y5870D01*
X23837Y7410D02*
X24037Y7610D01*
X24237Y7410D01*
X24037Y7210D01*
X23837Y7410D01*
X23567D02*
X23767Y7610D01*
X23967Y7410D01*
X23767Y7210D01*
X23567Y7410D01*
X24437Y7530D02*
X24637Y7730D01*
X24837Y7530D01*
X24637Y7330D01*
X24437Y7530D01*
Y7800D02*
X24637Y8000D01*
X24837Y7800D01*
X24637Y7600D01*
X24437Y7800D01*
X22407Y7540D02*
X22607Y7740D01*
X22807Y7540D01*
X22607Y7340D01*
X22407Y7540D01*
X26057Y7510D02*
X26257Y7710D01*
X26457Y7510D01*
X26257Y7310D01*
X26057Y7510D01*
Y7790D02*
X26257Y7990D01*
X26457Y7790D01*
X26257Y7590D01*
X26057Y7790D01*
X24167Y4030D02*
X24367Y4230D01*
X24567Y4030D01*
X24367Y3830D01*
X24167Y4030D01*
X27907Y4090D02*
X28107Y4290D01*
X28307Y4090D01*
X28107Y3890D01*
X27907Y4090D01*
X23907Y4030D02*
X24107Y4230D01*
X24307Y4030D01*
X24107Y3830D01*
X23907Y4030D01*
X25401Y7600D02*
X25601Y7800D01*
X25801Y7600D01*
X25601Y7400D01*
X25401Y7600D01*
X25041D02*
X25241Y7800D01*
X25441Y7600D01*
X25241Y7400D01*
X25041Y7600D01*
X26891Y9010D02*
X27091Y9210D01*
X27291Y9010D01*
X27091Y8810D01*
X26891Y9010D01*
X27317Y7680D02*
X27517Y7880D01*
X27717Y7680D01*
X27517Y7480D01*
X27317Y7680D01*
X25041Y7860D02*
X25241Y8060D01*
X25441Y7860D01*
X25241Y7660D01*
X25041Y7860D01*
X25401D02*
X25601Y8060D01*
X25801Y7860D01*
X25601Y7660D01*
X25401Y7860D01*
X34176Y7250D02*
X34376Y7450D01*
X34576Y7250D01*
X34376Y7050D01*
X34176Y7250D01*
X33656Y7350D02*
X33856Y7550D01*
X34056Y7350D01*
X33856Y7150D01*
X33656Y7350D01*
X33906Y7260D02*
X34106Y7460D01*
X34306Y7260D01*
X34106Y7060D01*
X33906Y7260D01*
X35396Y3010D02*
X35596Y3210D01*
X35796Y3010D01*
X35596Y2810D01*
X35396Y3010D01*
X29186Y6200D02*
X29386Y6400D01*
X29586Y6200D01*
X29386Y6000D01*
X29186Y6200D01*
X29456D02*
X29656Y6400D01*
X29856Y6200D01*
X29656Y6000D01*
X29456Y6200D01*
X32670Y6150D02*
X32870Y6350D01*
X33070Y6150D01*
X32870Y5950D01*
X32670Y6150D01*
X31996D02*
X32196Y6350D01*
X32396Y6150D01*
X32196Y5950D01*
X31996Y6150D01*
X33546Y4890D02*
X33746Y5090D01*
X33946Y4890D01*
X33746Y4690D01*
X33546Y4890D01*
X33209D02*
X33409Y5090D01*
X33609Y4890D01*
X33409Y4690D01*
X33209Y4890D01*
X32872D02*
X33072Y5090D01*
X33272Y4890D01*
X33072Y4690D01*
X32872Y4890D01*
X32536D02*
X32736Y5090D01*
X32936Y4890D01*
X32736Y4690D01*
X32536Y4890D01*
X32036D02*
X32236Y5090D01*
X32436Y4890D01*
X32236Y4690D01*
X32036Y4890D01*
X31709D02*
X31909Y5090D01*
X32109Y4890D01*
X31909Y4690D01*
X31709Y4890D01*
X31382D02*
X31582Y5090D01*
X31782Y4890D01*
X31582Y4690D01*
X31382Y4890D01*
X31056D02*
X31256Y5090D01*
X31456Y4890D01*
X31256Y4690D01*
X31056Y4890D01*
X29622Y4090D02*
X29822Y4290D01*
X30022Y4090D01*
X29822Y3890D01*
X29622Y4090D01*
X30152Y5870D02*
X30352Y6070D01*
X30552Y5870D01*
X30352Y5670D01*
X30152Y5870D01*
X30342Y6050D02*
X30542Y6250D01*
X30742Y6050D01*
X30542Y5850D01*
X30342Y6050D01*
X30442Y5330D02*
X30642Y5530D01*
X30842Y5330D01*
X30642Y5130D01*
X30442Y5330D01*
X30612Y5520D02*
X30812Y5720D01*
X31012Y5520D01*
X30812Y5320D01*
X30612Y5520D01*
X33336Y4030D02*
X33536Y4230D01*
X33736Y4030D01*
X33536Y3830D01*
X33336Y4030D01*
X33606D02*
X33806Y4230D01*
X34006Y4030D01*
X33806Y3830D01*
X33606Y4030D01*
X35046Y6220D02*
X35246Y6420D01*
X35446Y6220D01*
X35246Y6020D01*
X35046Y6220D01*
X34176Y5330D02*
X34376Y5530D01*
X34576Y5330D01*
X34376Y5130D01*
X34176Y5330D01*
X34276Y6050D02*
X34476Y6250D01*
X34676Y6050D01*
X34476Y5850D01*
X34276Y6050D01*
X34466Y5870D02*
X34666Y6070D01*
X34866Y5870D01*
X34666Y5670D01*
X34466Y5870D01*
X30926Y7410D02*
X31126Y7610D01*
X31326Y7410D01*
X31126Y7210D01*
X30926Y7410D01*
X30656D02*
X30856Y7610D01*
X31056Y7410D01*
X30856Y7210D01*
X30656Y7410D01*
X31526Y7530D02*
X31726Y7730D01*
X31926Y7530D01*
X31726Y7330D01*
X31526Y7530D01*
Y7800D02*
X31726Y8000D01*
X31926Y7800D01*
X31726Y7600D01*
X31526Y7800D01*
X29496Y7540D02*
X29696Y7740D01*
X29896Y7540D01*
X29696Y7340D01*
X29496Y7540D01*
X33146Y7510D02*
X33346Y7710D01*
X33546Y7510D01*
X33346Y7310D01*
X33146Y7510D01*
Y7790D02*
X33346Y7990D01*
X33546Y7790D01*
X33346Y7590D01*
X33146Y7790D01*
X31256Y4030D02*
X31456Y4230D01*
X31656Y4030D01*
X31456Y3830D01*
X31256Y4030D01*
X34996Y4090D02*
X35196Y4290D01*
X35396Y4090D01*
X35196Y3890D01*
X34996Y4090D01*
X30996Y4030D02*
X31196Y4230D01*
X31396Y4030D01*
X31196Y3830D01*
X30996Y4030D01*
X32130Y7600D02*
X32330Y7800D01*
X32530Y7600D01*
X32330Y7400D01*
X32130Y7600D01*
X33980Y9010D02*
X34180Y9210D01*
X34380Y9010D01*
X34180Y8810D01*
X33980Y9010D01*
X34406Y7680D02*
X34606Y7880D01*
X34806Y7680D01*
X34606Y7480D01*
X34406Y7680D01*
X32130Y7860D02*
X32330Y8060D01*
X32530Y7860D01*
X32330Y7660D01*
X32130Y7860D01*
X32490D02*
X32690Y8060D01*
X32890Y7860D01*
X32690Y7660D01*
X32490Y7860D01*
X320Y33320D02*
X520Y33520D01*
X720Y33320D01*
X520Y33120D01*
X320Y33320D01*
X5941Y7250D02*
X6141Y7450D01*
X6341Y7250D01*
X6141Y7050D01*
X5941Y7250D01*
X5421Y7350D02*
X5621Y7550D01*
X5821Y7350D01*
X5621Y7150D01*
X5421Y7350D01*
X5671Y7260D02*
X5871Y7460D01*
X6071Y7260D01*
X5871Y7060D01*
X5671Y7260D01*
X7557Y3010D02*
X7757Y3210D01*
X7957Y3010D01*
X7757Y2810D01*
X7557Y3010D01*
X951Y6200D02*
X1151Y6400D01*
X1351Y6200D01*
X1151Y6000D01*
X951Y6200D01*
X7181Y6230D02*
X7381Y6430D01*
X7581Y6230D01*
X7381Y6030D01*
X7181Y6230D01*
X1221Y6200D02*
X1421Y6400D01*
X1621Y6200D01*
X1421Y6000D01*
X1221Y6200D01*
X4441Y6150D02*
X4641Y6350D01*
X4841Y6150D01*
X4641Y5950D01*
X4441Y6150D01*
X3761D02*
X3961Y6350D01*
X4161Y6150D01*
X3961Y5950D01*
X3761Y6150D01*
X5311Y4890D02*
X5511Y5090D01*
X5711Y4890D01*
X5511Y4690D01*
X5311Y4890D01*
X4975D02*
X5175Y5090D01*
X5375Y4890D01*
X5175Y4690D01*
X4975Y4890D01*
X4638D02*
X4838Y5090D01*
X5038Y4890D01*
X4838Y4690D01*
X4638Y4890D01*
X4301D02*
X4501Y5090D01*
X4701Y4890D01*
X4501Y4690D01*
X4301Y4890D01*
X3801D02*
X4001Y5090D01*
X4201Y4890D01*
X4001Y4690D01*
X3801Y4890D01*
X3475D02*
X3675Y5090D01*
X3875Y4890D01*
X3675Y4690D01*
X3475Y4890D01*
X3148D02*
X3348Y5090D01*
X3548Y4890D01*
X3348Y4690D01*
X3148Y4890D01*
X2821D02*
X3021Y5090D01*
X3221Y4890D01*
X3021Y4690D01*
X2821Y4890D01*
X1917Y5870D02*
X2117Y6070D01*
X2317Y5870D01*
X2117Y5670D01*
X1917Y5870D01*
X2107Y6050D02*
X2307Y6250D01*
X2507Y6050D01*
X2307Y5850D01*
X2107Y6050D01*
X2207Y5330D02*
X2407Y5530D01*
X2607Y5330D01*
X2407Y5130D01*
X2207Y5330D01*
X2377Y5520D02*
X2577Y5720D01*
X2777Y5520D01*
X2577Y5320D01*
X2377Y5520D01*
X5495Y4030D02*
X5695Y4230D01*
X5895Y4030D01*
X5695Y3830D01*
X5495Y4030D01*
X5765D02*
X5965Y4230D01*
X6165Y4030D01*
X5965Y3830D01*
X5765Y4030D01*
X6911Y6220D02*
X7111Y6420D01*
X7311Y6220D01*
X7111Y6020D01*
X6911Y6220D01*
X5941Y5330D02*
X6141Y5530D01*
X6341Y5330D01*
X6141Y5130D01*
X5941Y5330D01*
X6041Y6050D02*
X6241Y6250D01*
X6441Y6050D01*
X6241Y5850D01*
X6041Y6050D01*
X6231Y5870D02*
X6431Y6070D01*
X6631Y5870D01*
X6431Y5670D01*
X6231Y5870D01*
X2691Y7410D02*
X2891Y7610D01*
X3091Y7410D01*
X2891Y7210D01*
X2691Y7410D01*
X2421D02*
X2621Y7610D01*
X2821Y7410D01*
X2621Y7210D01*
X2421Y7410D01*
X3291Y7530D02*
X3491Y7730D01*
X3691Y7530D01*
X3491Y7330D01*
X3291Y7530D01*
Y7800D02*
X3491Y8000D01*
X3691Y7800D01*
X3491Y7600D01*
X3291Y7800D01*
X1261Y7540D02*
X1461Y7740D01*
X1661Y7540D01*
X1461Y7340D01*
X1261Y7540D01*
X4911Y7510D02*
X5111Y7710D01*
X5311Y7510D01*
X5111Y7310D01*
X4911Y7510D01*
Y7790D02*
X5111Y7990D01*
X5311Y7790D01*
X5111Y7590D01*
X4911Y7790D01*
X3415Y4030D02*
X3615Y4230D01*
X3815Y4030D01*
X3615Y3830D01*
X3415Y4030D01*
X3155D02*
X3355Y4230D01*
X3555Y4030D01*
X3355Y3830D01*
X3155Y4030D01*
X4256Y7600D02*
X4456Y7800D01*
X4656Y7600D01*
X4456Y7400D01*
X4256Y7600D01*
X3896D02*
X4096Y7800D01*
X4296Y7600D01*
X4096Y7400D01*
X3896Y7600D01*
X6171Y7680D02*
X6371Y7880D01*
X6571Y7680D01*
X6371Y7480D01*
X6171Y7680D01*
X3896Y7860D02*
X4096Y8060D01*
X4296Y7860D01*
X4096Y7660D01*
X3896Y7860D01*
X4256D02*
X4456Y8060D01*
X4656Y7860D01*
X4456Y7660D01*
X4256Y7860D01*
X28340Y2990D02*
X28540Y3190D01*
X28740Y2990D01*
X28540Y2790D01*
X28340Y2990D01*
X29280Y3040D02*
X29480Y3240D01*
X29680Y3040D01*
X29480Y2840D01*
X29280Y3040D01*
X34059Y9590D02*
X34259Y9790D01*
X34459Y9590D01*
X34259Y9390D01*
X34059Y9590D01*
Y10090D02*
X34259Y10290D01*
X34459Y10090D01*
X34259Y9890D01*
X34059Y10090D01*
X30559Y9590D02*
X30759Y9790D01*
X30959Y9590D01*
X30759Y9390D01*
X30559Y9590D01*
X30809Y9090D02*
X31009Y9290D01*
X31209Y9090D01*
X31009Y8890D01*
X30809Y9090D01*
X22720Y10340D02*
X22920Y10540D01*
X23120Y10340D01*
X22920Y10140D01*
X22720Y10340D01*
Y9590D02*
X22920Y9790D01*
X23120Y9590D01*
X22920Y9390D01*
X22720Y9590D01*
X23720Y9090D02*
X23920Y9290D01*
X24120Y9090D01*
X23920Y8890D01*
X23720Y9090D01*
X23470Y9590D02*
X23670Y9790D01*
X23870Y9590D01*
X23670Y9390D01*
X23470Y9590D01*
X26970Y10090D02*
X27170Y10290D01*
X27370Y10090D01*
X27170Y9890D01*
X26970Y10090D01*
Y9590D02*
X27170Y9790D01*
X27370Y9590D01*
X27170Y9390D01*
X26970Y9590D01*
X16634Y9090D02*
X16834Y9290D01*
X17034Y9090D01*
X16834Y8890D01*
X16634Y9090D01*
X16384Y9590D02*
X16584Y9790D01*
X16784Y9590D01*
X16584Y9390D01*
X16384Y9590D01*
X19884Y10090D02*
X20084Y10290D01*
X20284Y10090D01*
X20084Y9890D01*
X19884Y10090D01*
Y9590D02*
X20084Y9790D01*
X20284Y9590D01*
X20084Y9390D01*
X19884Y9590D01*
X8543Y10340D02*
X8743Y10540D01*
X8943Y10340D01*
X8743Y10140D01*
X8543Y10340D01*
Y9590D02*
X8743Y9790D01*
X8943Y9590D01*
X8743Y9390D01*
X8543Y9590D01*
X9543Y9090D02*
X9743Y9290D01*
X9943Y9090D01*
X9743Y8890D01*
X9543Y9090D01*
X9293Y9590D02*
X9493Y9790D01*
X9693Y9590D01*
X9493Y9390D01*
X9293Y9590D01*
X12793Y10090D02*
X12993Y10290D01*
X13193Y10090D01*
X12993Y9890D01*
X12793Y10090D01*
Y9590D02*
X12993Y9790D01*
X13193Y9590D01*
X12993Y9390D01*
X12793Y9590D01*
X12714Y9010D02*
X12914Y9210D01*
X13114Y9010D01*
X12914Y8810D01*
X12714Y9010D01*
X824Y7840D02*
X1024Y8040D01*
X1224Y7840D01*
X1024Y7640D01*
X824Y7840D01*
Y8840D02*
X1024Y9040D01*
X1224Y8840D01*
X1024Y8640D01*
X824Y8840D01*
Y9590D02*
X1024Y9790D01*
X1224Y9590D01*
X1024Y9390D01*
X824Y9590D01*
Y10340D02*
X1024Y10540D01*
X1224Y10340D01*
X1024Y10140D01*
X824Y10340D01*
X1570Y10320D02*
X1770Y10520D01*
X1970Y10320D01*
X1770Y10120D01*
X1570Y10320D01*
X1574Y9590D02*
X1774Y9790D01*
X1974Y9590D01*
X1774Y9390D01*
X1574Y9590D01*
X2574Y9090D02*
X2774Y9290D01*
X2974Y9090D01*
X2774Y8890D01*
X2574Y9090D01*
X2324Y9590D02*
X2524Y9790D01*
X2724Y9590D01*
X2524Y9390D01*
X2324Y9590D01*
X5824Y10090D02*
X6024Y10290D01*
X6224Y10090D01*
X6024Y9890D01*
X5824Y10090D01*
Y9590D02*
X6024Y9790D01*
X6224Y9590D01*
X6024Y9390D01*
X5824Y9590D01*
X2574Y12590D02*
X2774Y12790D01*
X2974Y12590D01*
X2774Y12390D01*
X2574Y12590D01*
X8543Y11090D02*
X8743Y11290D01*
X8943Y11090D01*
X8743Y10890D01*
X8543Y11090D01*
X843Y3465D02*
X1043Y3665D01*
X1243Y3465D01*
X1043Y3265D01*
X843Y3465D01*
X880Y29460D02*
X1080Y29660D01*
X1280Y29460D01*
X1080Y29260D01*
X880Y29460D01*
X19380Y29210D02*
X19580Y29410D01*
X19780Y29210D01*
X19580Y29010D01*
X19380Y29210D01*
X18390Y29230D02*
X18590Y29430D01*
X18790Y29230D01*
X18590Y29030D01*
X18390Y29230D01*
X17890Y29190D02*
X18090Y29390D01*
X18290Y29190D01*
X18090Y28990D01*
X17890Y29190D01*
X21902Y31710D02*
X22102Y31910D01*
X22302Y31710D01*
X22102Y31510D01*
X21902Y31710D01*
X20990Y32290D02*
X21190Y32490D01*
X21390Y32290D01*
X21190Y32090D01*
X20990Y32290D01*
X16222Y32900D02*
X16422Y33100D01*
X16622Y32900D01*
X16422Y32700D01*
X16222Y32900D01*
X16540Y25000D02*
X16740Y25200D01*
X16940Y25000D01*
X16740Y24800D01*
X16540Y25000D01*
X15990Y24590D02*
X16190Y24790D01*
X16390Y24590D01*
X16190Y24390D01*
X15990Y24590D01*
X15650Y24250D02*
X15850Y24450D01*
X16050Y24250D01*
X15850Y24050D01*
X15650Y24250D01*
X15020Y23540D02*
X15220Y23740D01*
X15420Y23540D01*
X15220Y23340D01*
X15020Y23540D01*
X15440Y23660D02*
X15640Y23860D01*
X15840Y23660D01*
X15640Y23460D01*
X15440Y23660D01*
X18650Y25070D02*
X18850Y25270D01*
X19050Y25070D01*
X18850Y24870D01*
X18650Y25070D01*
X12930Y23520D02*
X13130Y23720D01*
X13330Y23520D01*
X13130Y23320D01*
X12930Y23520D01*
X21600Y16060D02*
X21800Y16260D01*
X22000Y16060D01*
X21800Y15860D01*
X21600Y16060D01*
X29072Y14537D02*
X29272Y14737D01*
X29472Y14537D01*
X29272Y14337D01*
X29072Y14537D01*
X30676Y15344D02*
X30876Y15544D01*
X31076Y15344D01*
X30876Y15144D01*
X30676Y15344D01*
X21310Y18160D02*
X21510Y18360D01*
X21710Y18160D01*
X21510Y17960D01*
X21310Y18160D01*
X21450Y22150D02*
X21650Y22350D01*
X21850Y22150D01*
X21650Y21950D01*
X21450Y22150D01*
X12870Y19520D02*
X13070Y19720D01*
X13270Y19520D01*
X13070Y19320D01*
X12870Y19520D01*
X12830Y19890D02*
X13030Y20090D01*
X13230Y19890D01*
X13030Y19690D01*
X12830Y19890D01*
X13310Y20700D02*
X13510Y20900D01*
X13710Y20700D01*
X13510Y20500D01*
X13310Y20700D01*
X18160Y25040D02*
X18360Y25240D01*
X18560Y25040D01*
X18360Y24840D01*
X18160Y25040D01*
X17590Y27580D02*
X17790Y27780D01*
X17990Y27580D01*
X17790Y27380D01*
X17590Y27580D01*
X30580Y37240D02*
X30780Y37440D01*
X30980Y37240D01*
X30780Y37040D01*
X30580Y37240D01*
X21610Y24210D02*
X21810Y24410D01*
X22010Y24210D01*
X21810Y24010D01*
X21610Y24210D01*
X21660Y24670D02*
X21860Y24870D01*
X22060Y24670D01*
X21860Y24470D01*
X21660Y24670D01*
X21330Y24850D02*
X21530Y25050D01*
X21730Y24850D01*
X21530Y24650D01*
X21330Y24850D01*
X20580Y24710D02*
X20780Y24910D01*
X20980Y24710D01*
X20780Y24510D01*
X20580Y24710D01*
X20550Y24350D02*
X20750Y24550D01*
X20950Y24350D01*
X20750Y24150D01*
X20550Y24350D01*
X13240Y21210D02*
X13440Y21410D01*
X13640Y21210D01*
X13440Y21010D01*
X13240Y21210D01*
X16230Y18010D02*
X16430Y18210D01*
X16630Y18010D01*
X16430Y17810D01*
X16230Y18010D01*
X16510Y18250D02*
X16710Y18450D01*
X16910Y18250D01*
X16710Y18050D01*
X16510Y18250D01*
X16780Y18490D02*
X16980Y18690D01*
X17180Y18490D01*
X16980Y18290D01*
X16780Y18490D01*
X17020Y18760D02*
X17220Y18960D01*
X17420Y18760D01*
X17220Y18560D01*
X17020Y18760D01*
X12290Y16220D02*
X12490Y16420D01*
X12690Y16220D01*
X12490Y16020D01*
X12290Y16220D01*
X7880Y12270D02*
X8080Y12470D01*
X8280Y12270D01*
X8080Y12070D01*
X7880Y12270D01*
X15010Y20580D02*
X15210Y20780D01*
X15410Y20580D01*
X15210Y20380D01*
X15010Y20580D01*
X13850Y21400D02*
X14050Y21600D01*
X14250Y21400D01*
X14050Y21200D01*
X13850Y21400D01*
X13520Y22230D02*
X13720Y22430D01*
X13920Y22230D01*
X13720Y22030D01*
X13520Y22230D01*
X8340Y19960D02*
X8540Y20160D01*
X8740Y19960D01*
X8540Y19760D01*
X8340Y19960D01*
X11790Y23520D02*
X11990Y23720D01*
X12190Y23520D01*
X11990Y23320D01*
X11790Y23520D01*
X12880Y22370D02*
X13080Y22570D01*
X13280Y22370D01*
X13080Y22170D01*
X12880Y22370D01*
X13170Y19260D02*
X13370Y19460D01*
X13570Y19260D01*
X13370Y19060D01*
X13170Y19260D01*
X9660Y23130D02*
X9860Y23330D01*
X10060Y23130D01*
X9860Y22930D01*
X9660Y23130D01*
X15610Y21720D02*
X15810Y21920D01*
X16010Y21720D01*
X15810Y21520D01*
X15610Y21720D01*
X3060Y28390D02*
X3260Y28590D01*
X3460Y28390D01*
X3260Y28190D01*
X3060Y28390D01*
X2890Y27790D02*
X3090Y27990D01*
X3290Y27790D01*
X3090Y27590D01*
X2890Y27790D01*
X280Y26620D02*
X480Y26820D01*
X680Y26620D01*
X480Y26420D01*
X280Y26620D01*
X3940Y26028D02*
X4140Y26228D01*
X4340Y26028D01*
X4140Y25828D01*
X3940Y26028D01*
X3960Y26398D02*
X4160Y26598D01*
X4360Y26398D01*
X4160Y26198D01*
X3960Y26398D01*
X3990Y25658D02*
X4190Y25858D01*
X4390Y25658D01*
X4190Y25458D01*
X3990Y25658D01*
X11640Y25000D02*
X11840Y25200D01*
X12040Y25000D01*
X11840Y24800D01*
X11640Y25000D01*
X4660Y27930D02*
X4860Y28130D01*
X5060Y27930D01*
X4860Y27730D01*
X4660Y27930D01*
X4230Y27510D02*
X4430Y27710D01*
X4630Y27510D01*
X4430Y27310D01*
X4230Y27510D01*
X6310Y28650D02*
X6510Y28850D01*
X6710Y28650D01*
X6510Y28450D01*
X6310Y28650D01*
X5350Y28180D02*
X5550Y28380D01*
X5750Y28180D01*
X5550Y27980D01*
X5350Y28180D01*
X12270Y27520D02*
X12470Y27720D01*
X12670Y27520D01*
X12470Y27320D01*
X12270Y27520D01*
X10930Y24350D02*
X11130Y24550D01*
X11330Y24350D01*
X11130Y24150D01*
X10930Y24350D01*
X10940Y29410D02*
X11140Y29610D01*
X11340Y29410D01*
X11140Y29210D01*
X10940Y29410D01*
X7270Y22680D02*
X7470Y22880D01*
X7670Y22680D01*
X7470Y22480D01*
X7270Y22680D01*
X6300Y30070D02*
X6500Y30270D01*
X6700Y30070D01*
X6500Y29870D01*
X6300Y30070D01*
X12410Y29970D02*
X12610Y30170D01*
X12810Y29970D01*
X12610Y29770D01*
X12410Y29970D01*
X5620Y29210D02*
X5820Y29410D01*
X6020Y29210D01*
X5820Y29010D01*
X5620Y29210D01*
X4910Y21310D02*
X5110Y21510D01*
X5310Y21310D01*
X5110Y21110D01*
X4910Y21310D01*
X11210Y23910D02*
X11410Y24110D01*
X11610Y23910D01*
X11410Y23710D01*
X11210Y23910D01*
X16620Y24550D02*
X16820Y24750D01*
X17020Y24550D01*
X16820Y24350D01*
X16620Y24550D01*
X21440Y23260D02*
X21640Y23460D01*
X21840Y23260D01*
X21640Y23060D01*
X21440Y23260D01*
X19580Y18270D02*
X19780Y18470D01*
X19980Y18270D01*
X19780Y18070D01*
X19580Y18270D01*
X15380Y19420D02*
X15580Y19620D01*
X15780Y19420D01*
X15580Y19220D01*
X15380Y19420D01*
X16010Y19030D02*
X16210Y19230D01*
X16410Y19030D01*
X16210Y18830D01*
X16010Y19030D01*
X15910Y20540D02*
X16110Y20740D01*
X16310Y20540D01*
X16110Y20340D01*
X15910Y20540D01*
X15650Y22190D02*
X15850Y22390D01*
X16050Y22190D01*
X15850Y21990D01*
X15650Y22190D01*
X15100Y22170D02*
X15300Y22370D01*
X15500Y22170D01*
X15300Y21970D01*
X15100Y22170D01*
X15190Y20930D02*
X15390Y21130D01*
X15590Y20930D01*
X15390Y20730D01*
X15190Y20930D01*
X18710Y24660D02*
X18910Y24860D01*
X19110Y24660D01*
X18910Y24460D01*
X18710Y24660D01*
X21890Y18030D02*
X22090Y18230D01*
X22290Y18030D01*
X22090Y17830D01*
X21890Y18030D01*
X15370Y24020D02*
X15570Y24220D01*
X15770Y24020D01*
X15570Y23820D01*
X15370Y24020D01*
X18410Y22140D02*
X18610Y22340D01*
X18810Y22140D01*
X18610Y21940D01*
X18410Y22140D01*
X18270Y27560D02*
X18470Y27760D01*
X18670Y27560D01*
X18470Y27360D01*
X18270Y27560D01*
X18890Y29220D02*
X19090Y29420D01*
X19290Y29220D01*
X19090Y29020D01*
X18890Y29220D01*
X16810Y28140D02*
X17010Y28340D01*
X17210Y28140D01*
X17010Y27940D01*
X16810Y28140D01*
X17060Y27000D02*
X17260Y27200D01*
X17460Y27000D01*
X17260Y26800D01*
X17060Y27000D01*
X15960Y26530D02*
X16160Y26730D01*
X16360Y26530D01*
X16160Y26330D01*
X15960Y26530D01*
X9210Y29990D02*
X9410Y30190D01*
X9610Y29990D01*
X9410Y29790D01*
X9210Y29990D01*
X8180Y23690D02*
X8380Y23890D01*
X8580Y23690D01*
X8380Y23490D01*
X8180Y23690D01*
X6920Y7480D02*
X7120Y7680D01*
X7320Y7480D01*
X7120Y7280D01*
X6920Y7480D01*
X21140Y6220D02*
X21340Y6420D01*
X21540Y6220D01*
X21340Y6020D01*
X21140Y6220D01*
X14050D02*
X14250Y6420D01*
X14450Y6220D01*
X14250Y6020D01*
X14050Y6220D01*
X28230D02*
X28430Y6420D01*
X28630Y6220D01*
X28430Y6020D01*
X28230Y6220D01*
X35310D02*
X35510Y6420D01*
X35710Y6220D01*
X35510Y6020D01*
X35310Y6220D01*
X1550Y9000D02*
X1750Y9200D01*
X1950Y9000D01*
X1750Y8800D01*
X1550Y9000D01*
X6550D02*
X6750Y9200D01*
X6950Y9000D01*
X6750Y8800D01*
X6550Y9000D01*
Y9750D02*
X6750Y9950D01*
X6950Y9750D01*
X6750Y9550D01*
X6550Y9750D01*
Y10500D02*
X6750Y10700D01*
X6950Y10500D01*
X6750Y10300D01*
X6550Y10500D01*
Y11250D02*
X6750Y11450D01*
X6950Y11250D01*
X6750Y11050D01*
X6550Y11250D01*
Y12000D02*
X6750Y12200D01*
X6950Y12000D01*
X6750Y11800D01*
X6550Y12000D01*
X13550Y9000D02*
X13750Y9200D01*
X13950Y9000D01*
X13750Y8800D01*
X13550Y9000D01*
Y9750D02*
X13750Y9950D01*
X13950Y9750D01*
X13750Y9550D01*
X13550Y9750D01*
Y10500D02*
X13750Y10700D01*
X13950Y10500D01*
X13750Y10300D01*
X13550Y10500D01*
Y11250D02*
X13750Y11450D01*
X13950Y11250D01*
X13750Y11050D01*
X13550Y11250D01*
X15800Y9000D02*
X16000Y9200D01*
X16200Y9000D01*
X16000Y8800D01*
X15800Y9000D01*
Y9750D02*
X16000Y9950D01*
X16200Y9750D01*
X16000Y9550D01*
X15800Y9750D01*
Y10500D02*
X16000Y10700D01*
X16200Y10500D01*
X16000Y10300D01*
X15800Y10500D01*
Y11250D02*
X16000Y11450D01*
X16200Y11250D01*
X16000Y11050D01*
X15800Y11250D01*
X22550D02*
X22750Y11450D01*
X22950Y11250D01*
X22750Y11050D01*
X22550Y11250D01*
Y9000D02*
X22750Y9200D01*
X22950Y9000D01*
X22750Y8800D01*
X22550Y9000D01*
X20550D02*
X20750Y9200D01*
X20950Y9000D01*
X20750Y8800D01*
X20550Y9000D01*
Y9750D02*
X20750Y9950D01*
X20950Y9750D01*
X20750Y9550D01*
X20550Y9750D01*
Y10500D02*
X20750Y10700D01*
X20950Y10500D01*
X20750Y10300D01*
X20550Y10500D01*
Y11250D02*
X20750Y11450D01*
X20950Y11250D01*
X20750Y11050D01*
X20550Y11250D01*
Y11690D02*
X20750Y11890D01*
X20950Y11690D01*
X20750Y11490D01*
X20550Y11690D01*
X21300Y12250D02*
X21500Y12450D01*
X21700Y12250D01*
X21500Y12050D01*
X21300Y12250D01*
X27550Y9000D02*
X27750Y9200D01*
X27950Y9000D01*
X27750Y8800D01*
X27550Y9000D01*
Y9750D02*
X27750Y9950D01*
X27950Y9750D01*
X27750Y9550D01*
X27550Y9750D01*
Y10500D02*
X27750Y10700D01*
X27950Y10500D01*
X27750Y10300D01*
X27550Y10500D01*
Y11250D02*
X27750Y11450D01*
X27950Y11250D01*
X27750Y11050D01*
X27550Y11250D01*
X29800Y9000D02*
X30000Y9200D01*
X30200Y9000D01*
X30000Y8800D01*
X29800Y9000D01*
Y9750D02*
X30000Y9950D01*
X30200Y9750D01*
X30000Y9550D01*
X29800Y9750D01*
Y10500D02*
X30000Y10700D01*
X30200Y10500D01*
X30000Y10300D01*
X29800Y10500D01*
Y11250D02*
X30000Y11450D01*
X30200Y11250D01*
X30000Y11050D01*
X29800Y11250D01*
X29470Y11630D02*
X29670Y11830D01*
X29870Y11630D01*
X29670Y11430D01*
X29470Y11630D01*
X34800Y9000D02*
X35000Y9200D01*
X35200Y9000D01*
X35000Y8800D01*
X34800Y9000D01*
Y9750D02*
X35000Y9950D01*
X35200Y9750D01*
X35000Y9550D01*
X34800Y9750D01*
Y10500D02*
X35000Y10700D01*
X35200Y10500D01*
X35000Y10300D01*
X34800Y10500D01*
Y11250D02*
X35000Y11450D01*
X35200Y11250D01*
X35000Y11050D01*
X34800Y11250D01*
X35050Y12750D02*
X35250Y12950D01*
X35450Y12750D01*
X35250Y12550D01*
X35050Y12750D01*
X39750Y4200D02*
X39950Y4400D01*
X40150Y4200D01*
X39950Y4000D01*
X39750Y4200D01*
X38270Y5060D02*
X38470Y5260D01*
X38670Y5060D01*
X38470Y4860D01*
X38270Y5060D01*
X38340Y8170D02*
X38540Y8370D01*
X38740Y8170D01*
X38540Y7970D01*
X38340Y8170D01*
X38740Y8840D02*
X38940Y9040D01*
X39140Y8840D01*
X38940Y8640D01*
X38740Y8840D01*
Y9380D02*
X38940Y9580D01*
X39140Y9380D01*
X38940Y9180D01*
X38740Y9380D01*
X39050Y10050D02*
X39250Y10250D01*
X39450Y10050D01*
X39250Y9850D01*
X39050Y10050D01*
X39720Y8440D02*
X39920Y8640D01*
X40120Y8440D01*
X39920Y8240D01*
X39720Y8440D01*
X37536Y10886D02*
X37736Y11086D01*
X37936Y10886D01*
X37736Y10686D01*
X37536Y10886D01*
X4720Y26028D02*
X4920Y26228D01*
X5120Y26028D01*
X4920Y25828D01*
X4720Y26028D01*
X38648Y35344D02*
X38848Y35544D01*
X39048Y35344D01*
X38848Y35144D01*
X38648Y35344D01*
X13972Y4194D02*
X14172Y4394D01*
X14372Y4194D01*
X14172Y3994D01*
X13972Y4194D01*
X12635Y4030D02*
X12835Y4230D01*
X13035Y4030D01*
X12835Y3830D01*
X12635Y4030D01*
X8648Y4055D02*
X8848Y4255D01*
X9048Y4055D01*
X8848Y3855D01*
X8648Y4055D01*
X7003Y4194D02*
X7203Y4394D01*
X7403Y4194D01*
X7203Y3994D01*
X7003Y4194D01*
X8245Y2943D02*
X8445Y3143D01*
X8645Y2943D01*
X8445Y2743D01*
X8245Y2943D01*
X5771Y5520D02*
X5971Y5720D01*
X6171Y5520D01*
X5971Y5320D01*
X5771Y5520D01*
X1650Y4075D02*
X1850Y4275D01*
X2050Y4075D01*
X1850Y3875D01*
X1650Y4075D01*
X1513Y3711D02*
X1713Y3911D01*
X1913Y3711D01*
X1713Y3511D01*
X1513Y3711D01*
X1690Y3524D02*
X1890Y3724D01*
X2090Y3524D01*
X1890Y3324D01*
X1690Y3524D01*
X29751Y14774D02*
X29951Y14974D01*
X30151Y14774D01*
X29951Y14574D01*
X29751Y14774D01*
X23460Y24960D02*
X23660Y25160D01*
X23860Y24960D01*
X23660Y24760D01*
X23460Y24960D01*
X23856Y26802D02*
X24056Y27002D01*
X24256Y26802D01*
X24056Y26602D01*
X23856Y26802D01*
X24111Y26545D02*
X24311Y26745D01*
X24511Y26545D01*
X24311Y26345D01*
X24111Y26545D01*
X25156Y28046D02*
X25356Y28246D01*
X25556Y28046D01*
X25356Y27846D01*
X25156Y28046D01*
X24396Y26319D02*
X24596Y26519D01*
X24796Y26319D01*
X24596Y26119D01*
X24396Y26319D01*
X24583Y26811D02*
X24783Y27011D01*
X24983Y26811D01*
X24783Y26611D01*
X24583Y26811D01*
X24000Y23180D02*
X24200Y23380D01*
X24400Y23180D01*
X24200Y22980D01*
X24000Y23180D01*
X23990Y22480D02*
X24190Y22680D01*
X24390Y22480D01*
X24190Y22280D01*
X23990Y22480D01*
X23730Y21390D02*
X23930Y21590D01*
X24130Y21390D01*
X23930Y21190D01*
X23730Y21390D01*
X23930Y21920D02*
X24130Y22120D01*
X24330Y21920D01*
X24130Y21720D01*
X23930Y21920D01*
X24790Y27254D02*
X24990Y27454D01*
X25190Y27254D01*
X24990Y27054D01*
X24790Y27254D01*
X25213Y30226D02*
X25413Y30426D01*
X25613Y30226D01*
X25413Y30026D01*
X25213Y30226D01*
X24564Y28829D02*
X24764Y29029D01*
X24964Y28829D01*
X24764Y28629D01*
X24564Y28829D01*
X20620Y27570D02*
X20820Y27770D01*
X21020Y27570D01*
X20820Y27370D01*
X20620Y27570D01*
X21750Y27806D02*
X21950Y28006D01*
X22150Y27806D01*
X21950Y27606D01*
X21750Y27806D01*
X24004Y28938D02*
X24204Y29138D01*
X24404Y28938D01*
X24204Y28738D01*
X24004Y28938D01*
X23699Y29145D02*
X23899Y29345D01*
X24099Y29145D01*
X23899Y28945D01*
X23699Y29145D01*
X23463Y27147D02*
X23663Y27347D01*
X23863Y27147D01*
X23663Y26947D01*
X23463Y27147D01*
X3181Y19050D02*
X3381Y19250D01*
X3581Y19050D01*
X3381Y18850D01*
X3181Y19050D01*
X7536Y16476D02*
X7736Y16676D01*
X7936Y16476D01*
X7736Y16276D01*
X7536Y16476D01*
X8350Y16880D02*
X8550Y17080D01*
X8750Y16880D01*
X8550Y16680D01*
X8350Y16880D01*
X7546Y16870D02*
X7746Y17070D01*
X7946Y16870D01*
X7746Y16670D01*
X7546Y16870D01*
X7910Y16821D02*
X8110Y17021D01*
X8310Y16821D01*
X8110Y16621D01*
X7910Y16821D01*
X6613Y16534D02*
Y16434D01*
X6813D01*
Y16534D01*
X6913D01*
Y16734D01*
X6813D01*
Y16834D01*
X6613D01*
Y16734D01*
X6513D01*
Y16534D01*
X6613D01*
X6653Y16574D02*
Y16514D01*
X6773D01*
Y16574D01*
X6833D01*
Y16694D01*
X6773D01*
Y16754D01*
X6653D01*
Y16694D01*
X6593D01*
Y16574D01*
X6653D01*
X7182Y16968D02*
X7382Y17169D01*
X7582Y16968D01*
X7382Y16768D01*
X7182Y16968D01*
X30008Y15335D02*
X30208Y15535D01*
X30408Y15335D01*
X30208Y15135D01*
X30008Y15335D01*
X8954Y12353D02*
X9154Y12553D01*
X9354Y12353D01*
X9154Y12153D01*
X8954Y12353D01*
X9230Y11812D02*
X9430Y12012D01*
X9630Y11812D01*
X9430Y11612D01*
X9230Y11812D01*
X9269Y11300D02*
X9469Y11500D01*
X9669Y11300D01*
X9469Y11100D01*
X9269Y11300D01*
X34583Y13474D02*
X34783Y13674D01*
X34983Y13474D01*
X34783Y13274D01*
X34583Y13474D01*
X32841Y15443D02*
X33041Y15643D01*
X33241Y15443D01*
X33041Y15243D01*
X32841Y15443D01*
X33175Y10023D02*
X33375Y10223D01*
X33575Y10023D01*
X33375Y9823D01*
X33175Y10023D01*
Y9590D02*
X33375Y9790D01*
X33575Y9590D01*
X33375Y9390D01*
X33175Y9590D01*
Y9157D02*
X33375Y9357D01*
X33575Y9157D01*
X33375Y8957D01*
X33175Y9157D01*
X32742Y10023D02*
X32942Y10223D01*
X33142Y10023D01*
X32942Y9823D01*
X32742Y10023D01*
Y9590D02*
X32942Y9790D01*
X33142Y9590D01*
X32942Y9390D01*
X32742Y9590D01*
Y9157D02*
X32942Y9357D01*
X33142Y9157D01*
X32942Y8957D01*
X32742Y9157D01*
X32309Y10023D02*
X32509Y10223D01*
X32709Y10023D01*
X32509Y9823D01*
X32309Y10023D01*
Y9590D02*
X32509Y9790D01*
X32709Y9590D01*
X32509Y9390D01*
X32309Y9590D01*
Y9157D02*
X32509Y9357D01*
X32709Y9157D01*
X32509Y8957D01*
X32309Y9157D01*
X31876Y10023D02*
X32076Y10223D01*
X32276Y10023D01*
X32076Y9823D01*
X31876Y10023D01*
Y9590D02*
X32076Y9790D01*
X32276Y9590D01*
X32076Y9390D01*
X31876Y9590D01*
Y9157D02*
X32076Y9357D01*
X32276Y9157D01*
X32076Y8957D01*
X31876Y9157D01*
X31443Y10023D02*
X31643Y10223D01*
X31843Y10023D01*
X31643Y9823D01*
X31443Y10023D01*
Y9590D02*
X31643Y9790D01*
X31843Y9590D01*
X31643Y9390D01*
X31443Y9590D01*
Y9157D02*
X31643Y9357D01*
X31843Y9157D01*
X31643Y8957D01*
X31443Y9157D01*
X24354D02*
X24554Y9357D01*
X24754Y9157D01*
X24554Y8957D01*
X24354Y9157D01*
Y9590D02*
X24554Y9790D01*
X24754Y9590D01*
X24554Y9390D01*
X24354Y9590D01*
Y10023D02*
X24554Y10223D01*
X24754Y10023D01*
X24554Y9823D01*
X24354Y10023D01*
X24787Y9157D02*
X24987Y9357D01*
X25187Y9157D01*
X24987Y8957D01*
X24787Y9157D01*
Y9590D02*
X24987Y9790D01*
X25187Y9590D01*
X24987Y9390D01*
X24787Y9590D01*
Y10023D02*
X24987Y10223D01*
X25187Y10023D01*
X24987Y9823D01*
X24787Y10023D01*
X25220Y9157D02*
X25420Y9357D01*
X25620Y9157D01*
X25420Y8957D01*
X25220Y9157D01*
Y9590D02*
X25420Y9790D01*
X25620Y9590D01*
X25420Y9390D01*
X25220Y9590D01*
Y10023D02*
X25420Y10223D01*
X25620Y10023D01*
X25420Y9823D01*
X25220Y10023D01*
X25653Y9157D02*
X25853Y9357D01*
X26053Y9157D01*
X25853Y8957D01*
X25653Y9157D01*
Y9590D02*
X25853Y9790D01*
X26053Y9590D01*
X25853Y9390D01*
X25653Y9590D01*
Y10023D02*
X25853Y10223D01*
X26053Y10023D01*
X25853Y9823D01*
X25653Y10023D01*
X26086Y9157D02*
X26286Y9357D01*
X26486Y9157D01*
X26286Y8957D01*
X26086Y9157D01*
Y9590D02*
X26286Y9790D01*
X26486Y9590D01*
X26286Y9390D01*
X26086Y9590D01*
Y10023D02*
X26286Y10223D01*
X26486Y10023D01*
X26286Y9823D01*
X26086Y10023D01*
X19000D02*
X19200Y10223D01*
X19400Y10023D01*
X19200Y9823D01*
X19000Y10023D01*
Y9590D02*
X19200Y9790D01*
X19400Y9590D01*
X19200Y9390D01*
X19000Y9590D01*
Y9157D02*
X19200Y9357D01*
X19400Y9157D01*
X19200Y8957D01*
X19000Y9157D01*
X18567Y10023D02*
X18767Y10223D01*
X18967Y10023D01*
X18767Y9823D01*
X18567Y10023D01*
Y9590D02*
X18767Y9790D01*
X18967Y9590D01*
X18767Y9390D01*
X18567Y9590D01*
Y9157D02*
X18767Y9357D01*
X18967Y9157D01*
X18767Y8957D01*
X18567Y9157D01*
X18134Y10023D02*
X18334Y10223D01*
X18534Y10023D01*
X18334Y9823D01*
X18134Y10023D01*
Y9590D02*
X18334Y9790D01*
X18534Y9590D01*
X18334Y9390D01*
X18134Y9590D01*
Y9157D02*
X18334Y9357D01*
X18534Y9157D01*
X18334Y8957D01*
X18134Y9157D01*
X17701Y10023D02*
X17901Y10223D01*
X18101Y10023D01*
X17901Y9823D01*
X17701Y10023D01*
Y9590D02*
X17901Y9790D01*
X18101Y9590D01*
X17901Y9390D01*
X17701Y9590D01*
Y9157D02*
X17901Y9357D01*
X18101Y9157D01*
X17901Y8957D01*
X17701Y9157D01*
X17268Y10023D02*
X17468Y10223D01*
X17668Y10023D01*
X17468Y9823D01*
X17268Y10023D01*
Y9590D02*
X17468Y9790D01*
X17668Y9590D01*
X17468Y9390D01*
X17268Y9590D01*
Y9157D02*
X17468Y9357D01*
X17668Y9157D01*
X17468Y8957D01*
X17268Y9157D01*
X10177D02*
X10377Y9357D01*
X10577Y9157D01*
X10377Y8957D01*
X10177Y9157D01*
Y9590D02*
X10377Y9790D01*
X10577Y9590D01*
X10377Y9390D01*
X10177Y9590D01*
Y10023D02*
X10377Y10223D01*
X10577Y10023D01*
X10377Y9823D01*
X10177Y10023D01*
X10610Y9157D02*
X10810Y9357D01*
X11010Y9157D01*
X10810Y8957D01*
X10610Y9157D01*
Y9590D02*
X10810Y9790D01*
X11010Y9590D01*
X10810Y9390D01*
X10610Y9590D01*
Y10023D02*
X10810Y10223D01*
X11010Y10023D01*
X10810Y9823D01*
X10610Y10023D01*
X11043Y9157D02*
X11243Y9357D01*
X11443Y9157D01*
X11243Y8957D01*
X11043Y9157D01*
Y9590D02*
X11243Y9790D01*
X11443Y9590D01*
X11243Y9390D01*
X11043Y9590D01*
Y10023D02*
X11243Y10223D01*
X11443Y10023D01*
X11243Y9823D01*
X11043Y10023D01*
X11476Y9157D02*
X11676Y9357D01*
X11876Y9157D01*
X11676Y8957D01*
X11476Y9157D01*
Y9590D02*
X11676Y9790D01*
X11876Y9590D01*
X11676Y9390D01*
X11476Y9590D01*
Y10023D02*
X11676Y10223D01*
X11876Y10023D01*
X11676Y9823D01*
X11476Y10023D01*
X11909Y9157D02*
X12109Y9357D01*
X12309Y9157D01*
X12109Y8957D01*
X11909Y9157D01*
Y9590D02*
X12109Y9790D01*
X12309Y9590D01*
X12109Y9390D01*
X11909Y9590D01*
Y10023D02*
X12109Y10223D01*
X12309Y10023D01*
X12109Y9823D01*
X11909Y10023D01*
X4941D02*
X5141Y10223D01*
X5341Y10023D01*
X5141Y9823D01*
X4941Y10023D01*
Y9590D02*
X5141Y9790D01*
X5341Y9590D01*
X5141Y9390D01*
X4941Y9590D01*
Y9157D02*
X5141Y9357D01*
X5341Y9157D01*
X5141Y8957D01*
X4941Y9157D01*
X4507Y10023D02*
X4708Y10223D01*
X4908Y10023D01*
X4708Y9823D01*
X4507Y10023D01*
Y9590D02*
X4708Y9790D01*
X4908Y9590D01*
X4708Y9390D01*
X4507Y9590D01*
Y9157D02*
X4708Y9357D01*
X4908Y9157D01*
X4708Y8957D01*
X4507Y9157D01*
X4074Y10023D02*
X4274Y10223D01*
X4474Y10023D01*
X4274Y9823D01*
X4074Y10023D01*
Y9590D02*
X4274Y9790D01*
X4474Y9590D01*
X4274Y9390D01*
X4074Y9590D01*
Y9157D02*
X4274Y9357D01*
X4474Y9157D01*
X4274Y8957D01*
X4074Y9157D01*
X3641Y10023D02*
X3841Y10223D01*
X4041Y10023D01*
X3841Y9823D01*
X3641Y10023D01*
Y9590D02*
X3841Y9790D01*
X4041Y9590D01*
X3841Y9390D01*
X3641Y9590D01*
Y9157D02*
X3841Y9357D01*
X4041Y9157D01*
X3841Y8957D01*
X3641Y9157D01*
X3208Y10023D02*
X3408Y10223D01*
X3608Y10023D01*
X3408Y9823D01*
X3208Y10023D01*
Y9590D02*
X3408Y9790D01*
X3608Y9590D01*
X3408Y9390D01*
X3208Y9590D01*
Y9157D02*
X3408Y9357D01*
X3608Y9157D01*
X3408Y8957D01*
X3208Y9157D01*
X374Y11690D02*
X574Y11890D01*
X774Y11690D01*
X574Y11490D01*
X374Y11690D01*
X2186D02*
X2386Y11890D01*
X2586Y11690D01*
X2386Y11490D01*
X2186Y11690D01*
X1280Y12596D02*
X1480Y12796D01*
X1680Y12596D01*
X1480Y12396D01*
X1280Y12596D01*
Y10784D02*
X1480Y10984D01*
X1680Y10784D01*
X1480Y10584D01*
X1280Y10784D01*
X3490Y30144D02*
X3690Y30344D01*
X3890Y30144D01*
X3690Y29944D01*
X3490Y30144D01*
Y31956D02*
X3690Y32156D01*
X3890Y31956D01*
X3690Y31756D01*
X3490Y31956D01*
X4396Y31050D02*
X4596Y31250D01*
X4796Y31050D01*
X4596Y30850D01*
X4396Y31050D01*
X2584D02*
X2784Y31250D01*
X2984Y31050D01*
X2784Y30850D01*
X2584Y31050D01*
X20444Y14430D02*
X20644Y14630D01*
X20844Y14430D01*
X20644Y14230D01*
X20444Y14430D01*
X22256D02*
X22456Y14630D01*
X22656Y14430D01*
X22456Y14230D01*
X22256Y14430D01*
X21350Y15336D02*
X21550Y15536D01*
X21750Y15336D01*
X21550Y15136D01*
X21350Y15336D01*
Y13524D02*
X21550Y13724D01*
X21750Y13524D01*
X21550Y13324D01*
X21350Y13524D01*
X4869Y19045D02*
X5069Y19245D01*
X5269Y19045D01*
X5069Y18845D01*
X4869Y19045D01*
X3601Y19030D02*
X3801Y19230D01*
X4001Y19030D01*
X3801Y18830D01*
X3601Y19030D01*
X6247Y19055D02*
X6447Y19255D01*
X6647Y19055D01*
X6447Y18855D01*
X6247Y19055D01*
X3589Y19951D02*
X3789Y20151D01*
X3989Y19951D01*
X3789Y19751D01*
X3589Y19951D01*
X5194Y19971D02*
X5394Y20171D01*
X5594Y19971D01*
X5394Y19771D01*
X5194Y19971D01*
X5243Y20512D02*
X5443Y20712D01*
X5643Y20512D01*
X5443Y20312D01*
X5243Y20512D01*
X6837Y20994D02*
X7037Y21194D01*
X7237Y20994D01*
X7037Y20794D01*
X6837Y20994D01*
X5578Y19970D02*
X5778Y20170D01*
X5978Y19970D01*
X5778Y19770D01*
X5578Y19970D01*
X6830Y19640D02*
X7030Y19840D01*
X7230Y19640D01*
X7030Y19440D01*
X6830Y19640D01*
X5971Y19980D02*
X6171Y20180D01*
X6371Y19980D01*
X6171Y19780D01*
X5971Y19980D01*
X7261Y20600D02*
X7461Y20800D01*
X7661Y20600D01*
X7461Y20400D01*
X7261Y20600D01*
X6483Y20050D02*
X6683Y20250D01*
X6883Y20050D01*
X6683Y19850D01*
X6483Y20050D01*
X39347Y12244D02*
X39547Y12444D01*
X39747Y12244D01*
X39547Y12044D01*
X39347Y12244D01*
Y11496D02*
X39547Y11696D01*
X39747Y11496D01*
X39547Y11296D01*
X39347Y11496D01*
X38019Y10886D02*
X38219Y11086D01*
X38419Y10886D01*
X38219Y10686D01*
X38019Y10886D01*
X37093D02*
X37293Y11086D01*
X37493Y10886D01*
X37293Y10686D01*
X37093Y10886D01*
Y12598D02*
X37293Y12798D01*
X37493Y12598D01*
X37293Y12398D01*
X37093Y12598D01*
X37536D02*
X37736Y12798D01*
X37936Y12598D01*
X37736Y12398D01*
X37536Y12598D01*
X38048Y12589D02*
X38248Y12789D01*
X38448Y12589D01*
X38248Y12389D01*
X38048Y12589D01*
X4833Y19970D02*
X5033Y20170D01*
X5233Y19970D01*
X5033Y19770D01*
X4833Y19970D01*
X4318Y19971D02*
X4518Y20171D01*
X4718Y19971D01*
X4518Y19771D01*
X4318Y19971D01*
X1430Y20090D02*
X1630Y20290D01*
X1830Y20090D01*
X1630Y19890D01*
X1430Y20090D01*
X302Y19744D02*
X502Y19944D01*
X702Y19744D01*
X502Y19544D01*
X302Y19744D01*
X18639Y30108D02*
X18839Y30308D01*
X19039Y30108D01*
X18839Y29908D01*
X18639Y30108D01*
X23904Y27389D02*
X24004D01*
X24104Y27489D01*
X24204Y27389D01*
X24304D01*
Y27489D01*
X24204Y27589D01*
X24304Y27689D01*
Y27789D01*
X24204D01*
X24104Y27689D01*
X24004Y27789D01*
X23904D01*
Y27689D01*
X24004Y27589D01*
X23904Y27489D01*
Y27389D01*
X23984Y27469D02*
X24044D01*
X24104Y27529D01*
X24164Y27469D01*
X24224D01*
Y27529D01*
X24164Y27589D01*
X24224Y27649D01*
Y27709D01*
X24164D01*
X24104Y27649D01*
X24044Y27709D01*
X23984D01*
Y27649D01*
X24044Y27589D01*
X23984Y27529D01*
Y27469D01*
X23904Y27822D02*
X24004D01*
X24104Y27922D01*
X24204Y27822D01*
X24304D01*
Y27922D01*
X24204Y28022D01*
X24304Y28122D01*
Y28222D01*
X24204D01*
X24104Y28122D01*
X24004Y28222D01*
X23904D01*
Y28122D01*
X24004Y28022D01*
X23904Y27922D01*
Y27822D01*
X23984Y27902D02*
X24044D01*
X24104Y27962D01*
X24164Y27902D01*
X24224D01*
Y27962D01*
X24164Y28022D01*
X24224Y28082D01*
Y28142D01*
X24164D01*
X24104Y28082D01*
X24044Y28142D01*
X23984D01*
Y28082D01*
X24044Y28022D01*
X23984Y27962D01*
Y27902D01*
X24337Y27389D02*
X24437D01*
X24537Y27489D01*
X24637Y27389D01*
X24737D01*
Y27489D01*
X24637Y27589D01*
X24737Y27689D01*
Y27789D01*
X24637D01*
X24537Y27689D01*
X24437Y27789D01*
X24337D01*
Y27689D01*
X24437Y27589D01*
X24337Y27489D01*
Y27389D01*
X24417Y27469D02*
X24477D01*
X24537Y27529D01*
X24597Y27469D01*
X24657D01*
Y27529D01*
X24597Y27589D01*
X24657Y27649D01*
Y27709D01*
X24597D01*
X24537Y27649D01*
X24477Y27709D01*
X24417D01*
Y27649D01*
X24477Y27589D01*
X24417Y27529D01*
Y27469D01*
X24337Y27822D02*
X24437D01*
X24537Y27922D01*
X24637Y27822D01*
X24737D01*
Y27922D01*
X24637Y28022D01*
X24737Y28122D01*
Y28222D01*
X24637D01*
X24537Y28122D01*
X24437Y28222D01*
X24337D01*
Y28122D01*
X24437Y28022D01*
X24337Y27922D01*
Y27822D01*
X24417Y27902D02*
X24477D01*
X24537Y27962D01*
X24597Y27902D01*
X24657D01*
Y27962D01*
X24597Y28022D01*
X24657Y28082D01*
Y28142D01*
X24597D01*
X24537Y28082D01*
X24477Y28142D01*
X24417D01*
Y28082D01*
X24477Y28022D01*
X24417Y27962D01*
Y27902D01*
X5070Y26850D02*
X5270Y27050D01*
X5470Y26850D01*
X5270Y26650D01*
X5070Y26850D01*
X2800Y26510D02*
X3000Y26710D01*
X3200Y26510D01*
X3000Y26310D01*
X2800Y26510D01*
X34800Y12000D02*
X35000Y12200D01*
X35200Y12000D01*
X35000Y11800D01*
X34800Y12000D01*
X19260Y38510D02*
X19460Y38710D01*
X19660Y38510D01*
X19460Y38310D01*
X19260Y38510D01*
X17940D02*
X18140Y38710D01*
X18340Y38510D01*
X18140Y38310D01*
X17940Y38510D01*
X19270Y38120D02*
X19470Y38320D01*
X19670Y38120D01*
X19470Y37920D01*
X19270Y38120D01*
X19280Y38920D02*
X19480Y39120D01*
X19680Y38920D01*
X19480Y38720D01*
X19280Y38920D01*
X17940Y38900D02*
X18140Y39100D01*
X18340Y38900D01*
X18140Y38700D01*
X17940Y38900D01*
Y38130D02*
X18140Y38330D01*
X18340Y38130D01*
X18140Y37930D01*
X17940Y38130D01*
X20270Y33660D02*
X20470Y33860D01*
X20670Y33660D01*
X20470Y33460D01*
X20270Y33660D01*
X16620Y31670D02*
X16820Y31870D01*
X17020Y31670D01*
X16820Y31470D01*
X16620Y31670D01*
X7500Y31960D02*
X7700Y32160D01*
X7900Y31960D01*
X7700Y31760D01*
X7500Y31960D01*
X7340Y30820D02*
X7540Y31020D01*
X7740Y30820D01*
X7540Y30620D01*
X7340Y30820D01*
X8200Y32240D02*
X8400Y32440D01*
X8600Y32240D01*
X8400Y32040D01*
X8200Y32240D01*
X18700Y32340D02*
X18900Y32540D01*
X19100Y32340D01*
X18900Y32140D01*
X18700Y32340D01*
X27960Y20430D02*
X28160Y20630D01*
X28360Y20430D01*
X28160Y20230D01*
X27960Y20430D01*
X32968Y20428D02*
X33168Y20628D01*
X33368Y20428D01*
X33168Y20228D01*
X32968Y20428D01*
X32960Y21880D02*
X33160Y22080D01*
X33360Y21880D01*
X33160Y21680D01*
X32960Y21880D01*
X29970Y22280D02*
X30170Y22480D01*
X30370Y22280D01*
X30170Y22080D01*
X29970Y22280D01*
X28600D02*
X28800Y22480D01*
X29000Y22280D01*
X28800Y22080D01*
X28600Y22280D01*
X27950Y22240D02*
X28150Y22440D01*
X28350Y22240D01*
X28150Y22040D01*
X27950Y22240D01*
X26800Y22250D02*
X27000Y22450D01*
X27200Y22250D01*
X27000Y22050D01*
X26800Y22250D01*
X26280Y21910D02*
X26480Y22110D01*
X26680Y21910D01*
X26480Y21710D01*
X26280Y21910D01*
X26320Y21450D02*
X26520Y21650D01*
X26720Y21450D01*
X26520Y21250D01*
X26320Y21450D01*
X26010Y20430D02*
X26210Y20630D01*
X26410Y20430D01*
X26210Y20230D01*
X26010Y20430D01*
X37320Y17280D02*
X37420Y17380D01*
X37520D01*
X37420Y17480D01*
X37520Y17580D01*
X37420D01*
X37320Y17680D01*
X37220Y17580D01*
X37120D01*
X37220Y17480D01*
X37120Y17380D01*
X37220D01*
X37320Y17280D01*
Y17360D02*
X37380Y17420D01*
X37440D01*
X37380Y17480D01*
X37440Y17540D01*
X37380D01*
X37320Y17600D01*
X37260Y17540D01*
X37200D01*
X37260Y17480D01*
X37200Y17420D01*
X37260D01*
X37320Y17360D01*
X34650Y20410D02*
X34850Y20610D01*
X35050Y20410D01*
X34850Y20210D01*
X34650Y20410D01*
X23580Y31223D02*
X23780Y31423D01*
X23980Y31223D01*
X23780Y31023D01*
X23580Y31223D01*
Y30810D02*
X23780Y31010D01*
X23980Y30810D01*
X23780Y30610D01*
X23580Y30810D01*
X23870Y30800D02*
X24070Y31000D01*
X24270Y30800D01*
X24070Y30600D01*
X23870Y30800D01*
X20052Y30318D02*
X20252Y30518D01*
X20452Y30318D01*
X20252Y30118D01*
X20052Y30318D01*
X19913Y29953D02*
X20113Y30153D01*
X20313Y29953D01*
X20113Y29753D01*
X19913Y29953D01*
X25302Y30642D02*
X25502Y30842D01*
X25702Y30642D01*
X25502Y30442D01*
X25302Y30642D01*
X24010Y30160D02*
X24210Y30360D01*
X24410Y30160D01*
X24210Y29960D01*
X24010Y30160D01*
X24420Y30180D02*
X24620Y30380D01*
X24820Y30180D01*
X24620Y29980D01*
X24420Y30180D01*
X24590Y30890D02*
X24790Y31090D01*
X24990Y30890D01*
X24790Y30690D01*
X24590Y30890D01*
X22500Y28680D02*
X22700Y28880D01*
X22900Y28680D01*
X22700Y28480D01*
X22500Y28680D01*
X26600Y27170D02*
X26700Y27270D01*
X26800D01*
X26700Y27370D01*
X26800Y27470D01*
X26700D01*
X26600Y27570D01*
X26500Y27470D01*
X26400D01*
X26500Y27370D01*
X26400Y27270D01*
X26500D01*
X26600Y27170D01*
Y27250D02*
X26660Y27310D01*
X26720D01*
X26660Y27370D01*
X26720Y27430D01*
X26660D01*
X26600Y27490D01*
X26540Y27430D01*
X26480D01*
X26540Y27370D01*
X26480Y27310D01*
X26540D01*
X26600Y27250D01*
X2930Y29010D02*
X3130Y29210D01*
X3330Y29010D01*
X3130Y28810D01*
X2930Y29010D01*
X23501Y29793D02*
X23701Y29993D01*
X23901Y29793D01*
X23701Y29593D01*
X23501Y29793D01*
X21314Y30068D02*
X21514Y30268D01*
X21714Y30068D01*
X21514Y29868D01*
X21314Y30068D01*
X21270Y29100D02*
X21470Y29300D01*
X21670Y29100D01*
X21470Y28900D01*
X21270Y29100D01*
X21630D02*
X21830Y29300D01*
X22030Y29100D01*
X21830Y28900D01*
X21630Y29100D01*
X29020Y29200D02*
X29120Y29300D01*
X29220D01*
X29120Y29400D01*
X29220Y29500D01*
X29120D01*
X29020Y29600D01*
X28920Y29500D01*
X28820D01*
X28920Y29400D01*
X28820Y29300D01*
X28920D01*
X29020Y29200D01*
Y29280D02*
X29080Y29340D01*
X29140D01*
X29080Y29400D01*
X29140Y29460D01*
X29080D01*
X29020Y29520D01*
X28960Y29460D01*
X28900D01*
X28960Y29400D01*
X28900Y29340D01*
X28960D01*
X29020Y29280D01*
X26770Y30420D02*
X26870Y30520D01*
X26970D01*
X26870Y30620D01*
X26970Y30720D01*
X26870D01*
X26770Y30820D01*
X26670Y30720D01*
X26570D01*
X26670Y30620D01*
X26570Y30520D01*
X26670D01*
X26770Y30420D01*
Y30500D02*
X26830Y30560D01*
X26890D01*
X26830Y30620D01*
X26890Y30680D01*
X26830D01*
X26770Y30740D01*
X26710Y30680D01*
X26650D01*
X26710Y30620D01*
X26650Y30560D01*
X26710D01*
X26770Y30500D01*
X27270Y30240D02*
X27370Y30340D01*
X27470D01*
X27370Y30440D01*
X27470Y30540D01*
X27370D01*
X27270Y30640D01*
X27170Y30540D01*
X27070D01*
X27170Y30440D01*
X27070Y30340D01*
X27170D01*
X27270Y30240D01*
Y30320D02*
X27330Y30380D01*
X27390D01*
X27330Y30440D01*
X27390Y30500D01*
X27330D01*
X27270Y30560D01*
X27210Y30500D01*
X27150D01*
X27210Y30440D01*
X27150Y30380D01*
X27210D01*
X27270Y30320D01*
X27260Y29690D02*
X27360Y29790D01*
X27460D01*
X27360Y29890D01*
X27460Y29990D01*
X27360D01*
X27260Y30090D01*
X27160Y29990D01*
X27060D01*
X27160Y29890D01*
X27060Y29790D01*
X27160D01*
X27260Y29690D01*
Y29770D02*
X27320Y29830D01*
X27380D01*
X27320Y29890D01*
X27380Y29950D01*
X27320D01*
X27260Y30010D01*
X27200Y29950D01*
X27140D01*
X27200Y29890D01*
X27140Y29830D01*
X27200D01*
X27260Y29770D01*
X28590Y29510D02*
X28690Y29610D01*
X28790D01*
X28690Y29710D01*
X28790Y29810D01*
X28690D01*
X28590Y29910D01*
X28490Y29810D01*
X28390D01*
X28490Y29710D01*
X28390Y29610D01*
X28490D01*
X28590Y29510D01*
Y29590D02*
X28650Y29650D01*
X28710D01*
X28650Y29710D01*
X28710Y29770D01*
X28650D01*
X28590Y29830D01*
X28530Y29770D01*
X28470D01*
X28530Y29710D01*
X28470Y29650D01*
X28530D01*
X28590Y29590D01*
X29130Y28270D02*
X29230Y28370D01*
X29330D01*
X29230Y28470D01*
X29330Y28570D01*
X29230D01*
X29130Y28670D01*
X29030Y28570D01*
X28930D01*
X29030Y28470D01*
X28930Y28370D01*
X29030D01*
X29130Y28270D01*
Y28350D02*
X29190Y28410D01*
X29250D01*
X29190Y28470D01*
X29250Y28530D01*
X29190D01*
X29130Y28590D01*
X29070Y28530D01*
X29010D01*
X29070Y28470D01*
X29010Y28410D01*
X29070D01*
X29130Y28350D01*
X26380Y32420D02*
X26480Y32520D01*
X26580D01*
X26480Y32620D01*
X26580Y32720D01*
X26480D01*
X26380Y32820D01*
X26280Y32720D01*
X26180D01*
X26280Y32620D01*
X26180Y32520D01*
X26280D01*
X26380Y32420D01*
Y32500D02*
X26440Y32560D01*
X26500D01*
X26440Y32620D01*
X26500Y32680D01*
X26440D01*
X26380Y32740D01*
X26320Y32680D01*
X26260D01*
X26320Y32620D01*
X26260Y32560D01*
X26320D01*
X26380Y32500D01*
X26290Y30490D02*
X26390Y30590D01*
X26490D01*
X26390Y30690D01*
X26490Y30790D01*
X26390D01*
X26290Y30890D01*
X26190Y30790D01*
X26090D01*
X26190Y30690D01*
X26090Y30590D01*
X26190D01*
X26290Y30490D01*
Y30570D02*
X26350Y30630D01*
X26410D01*
X26350Y30690D01*
X26410Y30750D01*
X26350D01*
X26290Y30810D01*
X26230Y30750D01*
X26170D01*
X26230Y30690D01*
X26170Y30630D01*
X26230D01*
X26290Y30570D01*
X26000Y30970D02*
X26100Y31070D01*
X26200D01*
X26100Y31170D01*
X26200Y31270D01*
X26100D01*
X26000Y31370D01*
X25900Y31270D01*
X25800D01*
X25900Y31170D01*
X25800Y31070D01*
X25900D01*
X26000Y30970D01*
Y31050D02*
X26060Y31110D01*
X26120D01*
X26060Y31170D01*
X26120Y31230D01*
X26060D01*
X26000Y31290D01*
X25940Y31230D01*
X25880D01*
X25940Y31170D01*
X25880Y31110D01*
X25940D01*
X26000Y31050D01*
Y31390D02*
X26100Y31490D01*
X26200D01*
X26100Y31590D01*
X26200Y31690D01*
X26100D01*
X26000Y31790D01*
X25900Y31690D01*
X25800D01*
X25900Y31590D01*
X25800Y31490D01*
X25900D01*
X26000Y31390D01*
Y31470D02*
X26060Y31530D01*
X26120D01*
X26060Y31590D01*
X26120Y31650D01*
X26060D01*
X26000Y31710D01*
X25940Y31650D01*
X25880D01*
X25940Y31590D01*
X25880Y31530D01*
X25940D01*
X26000Y31470D01*
Y31870D02*
X26100Y31970D01*
X26200D01*
X26100Y32070D01*
X26200Y32170D01*
X26100D01*
X26000Y32270D01*
X25900Y32170D01*
X25800D01*
X25900Y32070D01*
X25800Y31970D01*
X25900D01*
X26000Y31870D01*
Y31950D02*
X26060Y32010D01*
X26120D01*
X26060Y32070D01*
X26120Y32130D01*
X26060D01*
X26000Y32190D01*
X25940Y32130D01*
X25880D01*
X25940Y32070D01*
X25880Y32010D01*
X25940D01*
X26000Y31950D01*
X28600Y28660D02*
X28700Y28760D01*
X28800D01*
X28700Y28860D01*
X28800Y28960D01*
X28700D01*
X28600Y29060D01*
X28500Y28960D01*
X28400D01*
X28500Y28860D01*
X28400Y28760D01*
X28500D01*
X28600Y28660D01*
Y28740D02*
X28660Y28800D01*
X28720D01*
X28660Y28860D01*
X28720Y28920D01*
X28660D01*
X28600Y28980D01*
X28540Y28920D01*
X28480D01*
X28540Y28860D01*
X28480Y28800D01*
X28540D01*
X28600Y28740D01*
X39550Y26300D02*
X39650Y26400D01*
X39750D01*
X39650Y26500D01*
X39750Y26600D01*
X39650D01*
X39550Y26700D01*
X39450Y26600D01*
X39350D01*
X39450Y26500D01*
X39350Y26400D01*
X39450D01*
X39550Y26300D01*
Y26380D02*
X39610Y26440D01*
X39670D01*
X39610Y26500D01*
X39670Y26560D01*
X39610D01*
X39550Y26620D01*
X39490Y26560D01*
X39430D01*
X39490Y26500D01*
X39430Y26440D01*
X39490D01*
X39550Y26380D01*
X36480Y24070D02*
X36580Y24170D01*
X36680D01*
X36580Y24270D01*
X36680Y24370D01*
X36580D01*
X36480Y24470D01*
X36380Y24370D01*
X36280D01*
X36380Y24270D01*
X36280Y24170D01*
X36380D01*
X36480Y24070D01*
Y24150D02*
X36540Y24210D01*
X36600D01*
X36540Y24270D01*
X36600Y24330D01*
X36540D01*
X36480Y24390D01*
X36420Y24330D01*
X36360D01*
X36420Y24270D01*
X36360Y24210D01*
X36420D01*
X36480Y24150D01*
X30130Y28900D02*
X30330Y29100D01*
X30530Y28900D01*
X30330Y28700D01*
X30130Y28900D01*
X25790Y26680D02*
X25990Y26880D01*
X26190Y26680D01*
X25990Y26480D01*
X25790Y26680D01*
X29160Y26950D02*
X29260Y27050D01*
X29360D01*
X29260Y27150D01*
X29360Y27250D01*
X29260D01*
X29160Y27350D01*
X29060Y27250D01*
X28960D01*
X29060Y27150D01*
X28960Y27050D01*
X29060D01*
X29160Y26950D01*
Y27030D02*
X29220Y27090D01*
X29280D01*
X29220Y27150D01*
X29280Y27210D01*
X29220D01*
X29160Y27270D01*
X29100Y27210D01*
X29040D01*
X29100Y27150D01*
X29040Y27090D01*
X29100D01*
X29160Y27030D01*
X34520Y34830D02*
Y35163D01*
X34687Y35330D01*
X34853Y35163D01*
Y34830D01*
Y35080D01*
X34520D01*
X35210Y34850D02*
Y35183D01*
X35377Y35350D01*
X35543Y35183D01*
Y34850D01*
Y35100D01*
X35210D01*
X35900Y34840D02*
Y35173D01*
X36067Y35340D01*
X36233Y35173D01*
Y34840D01*
Y35090D01*
X35900D01*
X35190Y32857D02*
Y33190D01*
X35356Y33357D01*
X35523Y33190D01*
Y32857D01*
Y33107D01*
X35190D01*
X36580Y33120D02*
Y33453D01*
X36747Y33620D01*
X36913Y33453D01*
Y33120D01*
Y33370D01*
X36580D01*
X34540Y32860D02*
Y33193D01*
X34707Y33360D01*
X34873Y33193D01*
Y32860D01*
Y33110D01*
X34540D01*
X35190Y33785D02*
Y34118D01*
X35356Y34285D01*
X35523Y34118D01*
Y33785D01*
Y34035D01*
X35190D01*
X35190Y33260D02*
Y33593D01*
X35357Y33760D01*
X35523Y33593D01*
Y33260D01*
Y33510D01*
X35190D01*
X35020Y32490D02*
Y32823D01*
X35187Y32990D01*
X35353Y32823D01*
Y32490D01*
Y32740D01*
X35020D01*
X36550Y34670D02*
Y35003D01*
X36717Y35170D01*
X36883Y35003D01*
Y34670D01*
Y34920D01*
X36550D01*
X36560Y33820D02*
Y34153D01*
X36727Y34320D01*
X36893Y34153D01*
Y33820D01*
Y34070D01*
X36560D01*
X34310Y31990D02*
Y32323D01*
X34477Y32490D01*
X34643Y32323D01*
Y31990D01*
Y32240D01*
X34310D01*
X35170Y27820D02*
Y28153D01*
X35337Y28320D01*
X35503Y28153D01*
Y27820D01*
Y28070D01*
X35170D01*
X35190Y29180D02*
Y29513D01*
X35357Y29680D01*
X35523Y29513D01*
Y29180D01*
Y29430D01*
X35190D01*
X34830Y29450D02*
Y29783D01*
X34997Y29950D01*
X35163Y29783D01*
Y29450D01*
Y29700D01*
X34830D01*
X35530Y29450D02*
Y29783D01*
X35697Y29950D01*
X35863Y29783D01*
Y29450D01*
Y29700D01*
X35530D01*
X36350Y29270D02*
Y29603D01*
X36517Y29770D01*
X36683Y29603D01*
Y29270D01*
Y29520D01*
X36350D01*
X33950Y29230D02*
Y29563D01*
X34117Y29730D01*
X34283Y29563D01*
Y29230D01*
Y29480D01*
X33950D01*
X36360Y29830D02*
Y30163D01*
X36527Y30330D01*
X36693Y30163D01*
Y29830D01*
Y30080D01*
X36360D01*
X34350Y29440D02*
Y29773D01*
X34517Y29940D01*
X34683Y29773D01*
Y29440D01*
Y29690D01*
X34350D01*
X36000Y29450D02*
Y29783D01*
X36167Y29950D01*
X36333Y29783D01*
Y29450D01*
Y29700D01*
X36000D01*
X37710Y32600D02*
Y32933D01*
X37877Y33100D01*
X38043Y32933D01*
Y32600D01*
Y32850D01*
X37710D01*
X38210Y32610D02*
Y32943D01*
X38377Y33110D01*
X38543Y32943D01*
Y32610D01*
Y32860D01*
X38210D01*
X37130Y32590D02*
Y32923D01*
X37297Y33090D01*
X37463Y32923D01*
Y32590D01*
Y32840D01*
X37130D01*
X37730Y31080D02*
Y31413D01*
X37897Y31580D01*
X38063Y31413D01*
Y31080D01*
Y31330D01*
X37730D01*
X38200Y31090D02*
Y31423D01*
X38367Y31590D01*
X38533Y31423D01*
Y31090D01*
Y31340D01*
X38200D01*
X37160Y31080D02*
Y31413D01*
X37327Y31580D01*
X37493Y31413D01*
Y31080D01*
Y31330D01*
X37160D01*
X38800Y32280D02*
Y32613D01*
X38967Y32780D01*
X39133Y32613D01*
Y32280D01*
Y32530D01*
X38800D01*
Y31840D02*
Y32173D01*
X38967Y32340D01*
X39133Y32173D01*
Y31840D01*
Y32090D01*
X38800D01*
Y31360D02*
Y31693D01*
X38967Y31860D01*
X39133Y31693D01*
Y31360D01*
Y31610D01*
X38800D01*
X31810Y27850D02*
Y28183D01*
X31977Y28350D01*
X32143Y28183D01*
Y27850D01*
Y28100D01*
X31810D01*
X31830Y29300D02*
Y29633D01*
X31997Y29800D01*
X32163Y29633D01*
Y29300D01*
Y29550D01*
X31830D01*
X31150Y29440D02*
Y29773D01*
X31317Y29940D01*
X31483Y29773D01*
Y29440D01*
Y29690D01*
X31150D01*
X33390Y29460D02*
Y29793D01*
X33557Y29960D01*
X33723Y29793D01*
Y29460D01*
Y29710D01*
X33390D01*
X30630Y27660D02*
Y27993D01*
X30797Y28160D01*
X30963Y27993D01*
Y27660D01*
Y27910D01*
X30630D01*
X33210Y27710D02*
Y28043D01*
X33377Y28210D01*
X33543Y28043D01*
Y27710D01*
Y27960D01*
X33210D01*
X33360Y28530D02*
Y28863D01*
X33527Y29030D01*
X33693Y28863D01*
Y28530D01*
Y28780D01*
X33360D01*
X31150Y27260D02*
Y27593D01*
X31317Y27760D01*
X31483Y27593D01*
Y27260D01*
Y27510D01*
X31150D01*
X32490Y27270D02*
Y27603D01*
X32657Y27770D01*
X32823Y27603D01*
Y27270D01*
Y27520D01*
X32490D01*
X37170Y28570D02*
Y28903D01*
X37337Y29070D01*
X37503Y28903D01*
Y28570D01*
Y28820D01*
X37170D01*
X37700Y28570D02*
Y28903D01*
X37867Y29070D01*
X38033Y28903D01*
Y28570D01*
Y28820D01*
X37700D01*
X38340Y28570D02*
Y28903D01*
X38507Y29070D01*
X38673Y28903D01*
Y28570D01*
Y28820D01*
X38340D01*
X38880Y27820D02*
Y28153D01*
X39047Y28320D01*
X39213Y28153D01*
Y27820D01*
Y28070D01*
X38880D01*
Y28240D02*
Y28573D01*
X39047Y28740D01*
X39213Y28573D01*
Y28240D01*
Y28490D01*
X38880D01*
X38870Y27390D02*
Y27723D01*
X39037Y27890D01*
X39203Y27723D01*
Y27390D01*
Y27640D01*
X38870D01*
X37700Y27120D02*
Y27453D01*
X37867Y27620D01*
X38033Y27453D01*
Y27120D01*
Y27370D01*
X37700D01*
X38130Y27130D02*
Y27463D01*
X38297Y27630D01*
X38463Y27463D01*
Y27130D01*
Y27380D01*
X38130D01*
X37250Y27130D02*
Y27463D01*
X37417Y27630D01*
X37583Y27463D01*
Y27130D01*
Y27380D01*
X37250D01*
X31170Y34920D02*
Y35253D01*
X31337Y35420D01*
X31503Y35253D01*
Y34920D01*
Y35170D01*
X31170D01*
X31880Y34890D02*
Y35223D01*
X32047Y35390D01*
X32213Y35223D01*
Y34890D01*
Y35140D01*
X31880D01*
X32480Y34890D02*
Y35223D01*
X32647Y35390D01*
X32813Y35223D01*
Y34890D01*
Y35140D01*
X32480D01*
X30420Y33840D02*
Y34173D01*
X30587Y34340D01*
X30753Y34173D01*
Y33840D01*
Y34090D01*
X30420D01*
X31790Y33090D02*
Y33423D01*
X31957Y33590D01*
X32123Y33423D01*
Y33090D01*
Y33340D01*
X31790D01*
X33090Y34870D02*
Y35203D01*
X33257Y35370D01*
X33423Y35203D01*
Y34870D01*
Y35120D01*
X33090D01*
X30470Y34870D02*
Y35203D01*
X30637Y35370D01*
X30803Y35203D01*
Y34870D01*
Y35120D01*
X30470D01*
X32160Y35200D02*
Y35533D01*
X32327Y35700D01*
X32493Y35533D01*
Y35200D01*
Y35450D01*
X32160D01*
X32800Y35220D02*
Y35553D01*
X32967Y35720D01*
X33133Y35553D01*
Y35220D01*
Y35470D01*
X32800D01*
X37700Y34430D02*
Y34763D01*
X37867Y34930D01*
X38033Y34763D01*
Y34430D01*
Y34680D01*
X37700D01*
X37970Y34660D02*
Y34993D01*
X38137Y35160D01*
X38303Y34993D01*
Y34660D01*
Y34910D01*
X37970D01*
X37310Y34630D02*
Y34963D01*
X37477Y35130D01*
X37643Y34963D01*
Y34630D01*
Y34880D01*
X37310D01*
X37710Y33240D02*
Y33573D01*
X37877Y33740D01*
X38043Y33573D01*
Y33240D01*
Y33490D01*
X37710D01*
X37370Y33160D02*
Y33493D01*
X37537Y33660D01*
X37703Y33493D01*
Y33160D01*
Y33410D01*
X37370D01*
X38080Y33130D02*
Y33463D01*
X38247Y33630D01*
X38413Y33463D01*
Y33130D01*
Y33380D01*
X38080D01*
X38770Y33830D02*
Y34163D01*
X38937Y34330D01*
X39103Y34163D01*
Y33830D01*
Y34080D01*
X38770D01*
X38530Y33200D02*
Y33533D01*
X38697Y33700D01*
X38863Y33533D01*
Y33200D01*
Y33450D01*
X38530D01*
X38900Y33160D02*
Y33493D01*
X39067Y33660D01*
X39233Y33493D01*
Y33160D01*
Y33410D01*
X38900D01*
X39090Y33550D02*
Y33883D01*
X39257Y34050D01*
X39423Y33883D01*
Y33550D01*
Y33800D01*
X39090D01*
X38730Y33480D02*
Y33813D01*
X38897Y33980D01*
X39063Y33813D01*
Y33480D01*
Y33730D01*
X38730D01*
X37700Y29180D02*
Y29513D01*
X37867Y29680D01*
X38033Y29513D01*
Y29180D01*
Y29430D01*
X37700D01*
X36870Y29200D02*
Y29533D01*
X37037Y29700D01*
X37203Y29533D01*
Y29200D01*
Y29450D01*
X36870D01*
X37240Y29160D02*
Y29493D01*
X37407Y29660D01*
X37573Y29493D01*
Y29160D01*
Y29410D01*
X37240D01*
X38230Y29160D02*
Y29493D01*
X38397Y29660D01*
X38563Y29493D01*
Y29160D01*
Y29410D01*
X38230D01*
X37200Y30490D02*
Y30823D01*
X37367Y30990D01*
X37533Y30823D01*
Y30490D01*
Y30740D01*
X37200D01*
X37700Y30490D02*
Y30823D01*
X37867Y30990D01*
X38033Y30823D01*
Y30490D01*
Y30740D01*
X37700D01*
X38480Y30480D02*
Y30813D01*
X38647Y30980D01*
X38813Y30813D01*
Y30480D01*
Y30730D01*
X38480D01*
X39170Y30480D02*
Y30813D01*
X39337Y30980D01*
X39503Y30813D01*
Y30480D01*
Y30730D01*
X39170D01*
X39520Y29400D02*
Y29733D01*
X39687Y29900D01*
X39853Y29733D01*
Y29400D01*
Y29650D01*
X39520D01*
X39220Y29130D02*
Y29463D01*
X39387Y29630D01*
X39553Y29463D01*
Y29130D01*
Y29380D01*
X39220D01*
X38770Y29830D02*
Y30163D01*
X38937Y30330D01*
X39103Y30163D01*
Y29830D01*
Y30080D01*
X38770D01*
X36110Y24750D02*
Y25083D01*
X36277Y25250D01*
X36443Y25083D01*
Y24750D01*
Y25000D01*
X36110D01*
X36900Y25260D02*
Y25593D01*
X37067Y25760D01*
X37233Y25593D01*
Y25260D01*
Y25510D01*
X36900D01*
X36890Y24870D02*
Y25203D01*
X37057Y25370D01*
X37223Y25203D01*
Y24870D01*
Y25120D01*
X36890D01*
X37360Y24860D02*
Y25193D01*
X37527Y25360D01*
X37693Y25193D01*
Y24860D01*
Y25110D01*
X37360D01*
X37710Y25210D02*
Y25543D01*
X37877Y25710D01*
X38043Y25543D01*
Y25210D01*
Y25460D01*
X37710D01*
X38750Y25480D02*
Y25813D01*
X38917Y25980D01*
X39083Y25813D01*
Y25480D01*
Y25730D01*
X38750D01*
X38720Y26110D02*
Y26443D01*
X38887Y26610D01*
X39053Y26443D01*
Y26110D01*
Y26360D01*
X38720D01*
X39230Y26120D02*
Y26453D01*
X39397Y26620D01*
X39563Y26453D01*
Y26120D01*
Y26370D01*
X39230D01*
X39220Y25450D02*
Y25783D01*
X39387Y25950D01*
X39553Y25783D01*
Y25450D01*
Y25700D01*
X39220D01*
X37790Y23080D02*
Y23413D01*
X37957Y23580D01*
X38123Y23413D01*
Y23080D01*
Y23330D01*
X37790D01*
X37900Y24570D02*
Y24903D01*
X38067Y25070D01*
X38233Y24903D01*
Y24570D01*
Y24820D01*
X37900D01*
X38460Y24560D02*
Y24893D01*
X38627Y25060D01*
X38793Y24893D01*
Y24560D01*
Y24810D01*
X38460D01*
X38830Y23820D02*
Y24153D01*
X38997Y24320D01*
X39163Y24153D01*
Y23820D01*
Y24070D01*
X38830D01*
X38370Y23090D02*
Y23423D01*
X38537Y23590D01*
X38703Y23423D01*
Y23090D01*
Y23340D01*
X38370D01*
X38740Y23350D02*
Y23683D01*
X38907Y23850D01*
X39073Y23683D01*
Y23350D01*
Y23600D01*
X38740D01*
X38780Y24290D02*
Y24623D01*
X38947Y24790D01*
X39113Y24623D01*
Y24290D01*
Y24540D01*
X38780D01*
X38200Y24920D02*
Y25253D01*
X38367Y25420D01*
X38533Y25253D01*
Y24920D01*
Y25170D01*
X38200D01*
X39530Y24930D02*
Y25263D01*
X39697Y25430D01*
X39863Y25263D01*
Y24930D01*
Y25180D01*
X39530D01*
X39890Y24540D02*
Y24873D01*
X40057Y25040D01*
X40223Y24873D01*
Y24540D01*
Y24790D01*
X39890D01*
X37030Y39378D02*
Y39711D01*
X37197Y39878D01*
X37363Y39711D01*
Y39378D01*
Y39628D01*
X37030D01*
X11170Y15900D02*
X11370Y16100D01*
X11570Y15900D01*
X11370Y15700D01*
X11170Y15900D01*
X11620Y15820D02*
X11820Y16020D01*
X12020Y15820D01*
X11820Y15620D01*
X11620Y15820D01*
X7900Y16407D02*
X8100Y16607D01*
X8300Y16407D01*
X8100Y16207D01*
X7900Y16407D01*
X7040Y11264D02*
X7240Y11464D01*
X7440Y11264D01*
X7240Y11064D01*
X7040Y11264D01*
X8200Y11750D02*
X8400Y11950D01*
X8600Y11750D01*
X8400Y11550D01*
X8200Y11750D01*
X4810Y12040D02*
X5010Y12240D01*
X5210Y12040D01*
X5010Y11840D01*
X4810Y12040D01*
X11880Y12080D02*
X12080Y12280D01*
X12280Y12080D01*
X12080Y11880D01*
X11880Y12080D01*
X19820D02*
X20020Y12280D01*
X20220Y12080D01*
X20020Y11880D01*
X19820Y12080D01*
X19350D02*
X19550Y12280D01*
X19750Y12080D01*
X19550Y11880D01*
X19350Y12080D01*
D299*
X39380Y4550D02*
G03*
X39380Y4550I-200J0D01*
G01*
Y5550D02*
G03*
X39380Y5550I-200J0D01*
G01*
Y6550D02*
G03*
X39380Y6550I-200J0D01*
G01*
Y7550D02*
G03*
X39380Y7550I-200J0D01*
G01*
X1060Y32240D02*
G03*
X1060Y32240I-200J0D01*
G01*
Y30460D02*
G03*
X1060Y30460I-200J0D01*
G01*
X33650Y1450D02*
G03*
X33650Y1450I-200J0D01*
G01*
X34650D02*
G03*
X34650Y1450I-200J0D01*
G01*
X35650D02*
G03*
X35650Y1450I-200J0D01*
G01*
X36650D02*
G03*
X36650Y1450I-200J0D01*
G01*
X27700D02*
G03*
X27700Y1450I-200J0D01*
G01*
X28700D02*
G03*
X28700Y1450I-200J0D01*
G01*
X29700D02*
G03*
X29700Y1450I-200J0D01*
G01*
X30700D02*
G03*
X30700Y1450I-200J0D01*
G01*
X10650D02*
G03*
X10650Y1450I-200J0D01*
G01*
X11650D02*
G03*
X11650Y1450I-200J0D01*
G01*
X12650D02*
G03*
X12650Y1450I-200J0D01*
G01*
X13650D02*
G03*
X13650Y1450I-200J0D01*
G01*
X4750D02*
G03*
X4750Y1450I-200J0D01*
G01*
X5750D02*
G03*
X5750Y1450I-200J0D01*
G01*
X6750D02*
G03*
X6750Y1450I-200J0D01*
G01*
X7750D02*
G03*
X7750Y1450I-200J0D01*
G01*
X36780Y18630D02*
G03*
X36780Y18630I-200J0D01*
G01*
X35780D02*
G03*
X35780Y18630I-200J0D01*
G01*
X33650D02*
G03*
X33650Y18630I-200J0D01*
G01*
X32650D02*
G03*
X32650Y18630I-200J0D01*
G01*
X30500D02*
G03*
X30500Y18630I-200J0D01*
G01*
X29500D02*
G03*
X29500Y18630I-200J0D01*
G01*
X27330D02*
G03*
X27330Y18630I-200J0D01*
G01*
X26330D02*
G03*
X26330Y18630I-200J0D01*
G01*
X19700Y1450D02*
G03*
X19700Y1450I-200J0D01*
G01*
X18700D02*
G03*
X18700Y1450I-200J0D01*
G01*
X17700D02*
G03*
X17700Y1450I-200J0D01*
G01*
X16700D02*
G03*
X16700Y1450I-200J0D01*
G01*
X24800D02*
G03*
X24800Y1450I-200J0D01*
G01*
X23800D02*
G03*
X23800Y1450I-200J0D01*
G01*
X22800D02*
G03*
X22800Y1450I-200J0D01*
G01*
X21800D02*
G03*
X21800Y1450I-200J0D01*
G01*
X25770Y23090D02*
G03*
X25770Y23090I-200J0D01*
G01*
X26770D02*
G03*
X26770Y23090I-200J0D01*
G01*
X27770D02*
G03*
X27770Y23090I-200J0D01*
G01*
X31875D02*
G03*
X31875Y23090I-200J0D01*
G01*
X30875D02*
G03*
X30875Y23090I-200J0D01*
G01*
X29875D02*
G03*
X29875Y23090I-200J0D01*
G01*
X33980D02*
G03*
X33980Y23090I-200J0D01*
G01*
X34980D02*
G03*
X34980Y23090I-200J0D01*
G01*
X35980D02*
G03*
X35980Y23090I-200J0D01*
G01*
X25770Y25490D02*
G03*
X25770Y25490I-200J0D01*
G01*
X26770D02*
G03*
X26770Y25490I-200J0D01*
G01*
X27770D02*
G03*
X27770Y25490I-200J0D01*
G01*
X35980D02*
G03*
X35980Y25490I-200J0D01*
G01*
X34980D02*
G03*
X34980Y25490I-200J0D01*
G01*
X33980D02*
G03*
X33980Y25490I-200J0D01*
G01*
X29875D02*
G03*
X29875Y25490I-200J0D01*
G01*
X30875D02*
G03*
X30875Y25490I-200J0D01*
G01*
X31875D02*
G03*
X31875Y25490I-200J0D01*
G01*
X2440Y35450D02*
G03*
X2440Y35450I-200J0D01*
G01*
X1440D02*
G03*
X1440Y35450I-200J0D01*
G01*
X36850Y14550D02*
G03*
X36850Y14550I-200J0D01*
G01*
X32850D02*
G03*
X32850Y14550I-200J0D01*
G01*
X33850D02*
G03*
X33850Y14550I-200J0D01*
G01*
X34850D02*
G03*
X34850Y14550I-200J0D01*
G01*
X35850D02*
G03*
X35850Y14550I-200J0D01*
G01*
X23000Y38520D02*
G03*
X23000Y38520I-200J0D01*
G01*
X21000D02*
G03*
X21000Y38520I-200J0D01*
G01*
X19000D02*
G03*
X19000Y38520I-200J0D01*
G01*
X17000D02*
G03*
X17000Y38520I-200J0D01*
G01*
X15000D02*
G03*
X15000Y38520I-200J0D01*
G01*
X13000D02*
G03*
X13000Y38520I-200J0D01*
G01*
X11000D02*
G03*
X11000Y38520I-200J0D01*
G01*
X9000D02*
G03*
X9000Y38520I-200J0D01*
G01*
X7000D02*
G03*
X7000Y38520I-200J0D01*
G01*
X5000D02*
G03*
X5000Y38520I-200J0D01*
G01*
X37906Y31825D02*
G03*
X37906Y31825I-200J0D01*
G01*
Y33825D02*
G03*
X37906Y33825I-200J0D01*
G01*
Y29825D02*
G03*
X37906Y29825I-200J0D01*
G01*
Y27825D02*
G03*
X37906Y27825I-200J0D01*
G01*
Y25825D02*
G03*
X37906Y25825I-200J0D01*
G01*
Y23825D02*
G03*
X37906Y23825I-200J0D01*
G01*
M02*
