M48
;Layer_Color=9474304
;FILE_FORMAT=2:4
INCH,TZ
;TYPE=PLATED
T1F00S00C0.0150
T2F00S00C0.0200
T3F00S00C0.0220
T4F00S00C0.0240
T5F00S00C0.0300
T6F00S00C0.0354
T7F00S00C0.0380
T8F00S00C0.0400
T9F00S00C0.0550
T10F00S00C0.0590
T11F00S00C0.0630
T12F00S00C0.0870
;TYPE=NON_PLATED
T13F00S00C0.1181
T14F00S00C0.1299
%
T01
X800Y800
X500Y1500
X800Y2200
X1500Y2500
X1043Y3465
X1713Y3711
X1421Y6200
X1151
X1461Y7540
X1024Y7840
Y8840
Y9590
Y10340
X500Y10580
X1500Y500
X2200Y800
X2500Y1500
X3360Y1480
X2200Y2200
X1890Y3524
X1850Y4075
X3355Y4030
X3615
X3675Y4890
X3348
X3021
X4001
X4501
X4838
X5175
X5511
X5695Y4030
X5965
X7203Y4194
X7757Y3010
X8445Y2943
X8848Y4055
X10225Y4030
X10485
X10643Y4890
X10970
X11470
X11807
X12143
X12480
X12565Y4030
X12835
X14172Y4194
X15647Y4090
X17021Y4030
X17281
X17081Y4890
X16467Y5330
X16637Y5520
X16367Y6050
X16177Y5870
X15481Y6200
X15211
X14250Y6220
X13980
X13400Y5870
X13210Y6050
X12940Y5520
X13110Y5330
Y7250
X12840Y7260
X12590Y7350
X12080Y7510
Y7790
X11424Y7860
Y7600
X11064
Y7860
X10460Y7800
Y7530
X9860Y7410
X9590
X9480Y7180
X9276Y6050
X9086Y5870
X9546Y5520
X9376Y5330
X9990Y4890
X10317
X10930Y6150
X11610
X11676Y9157
X12109
Y9590
Y10023
X11676
Y9590
X11243
Y10023
X10810
Y9590
Y9157
X11243
X10377
Y9590
Y10023
X9493Y9590
X9743Y9090
X8743Y9590
Y10340
X6750Y10500
Y9750
X7200Y9674
Y9230
X7220Y8794
X6750Y9000
X5946Y9010
X6024Y9590
Y10090
X5141Y10023
X4708
X4274
X3841
X3408
Y9590
Y9157
X3841
Y9590
X4274
Y9157
X4708
Y9590
X5141
Y9157
X5111Y7790
Y7510
X5621Y7350
X5871Y7260
X6141Y7250
X6371Y7680
X7120Y7480
X7750Y7170
X8430Y7540
X8390Y6200
X8120
X7381Y6230
X7111Y6220
X6431Y5870
X6241Y6050
X5971Y5520
X6141Y5330
X4641Y6150
X3961
X4096Y7600
Y7860
X4456
Y7600
X3491Y7530
Y7800
X2891Y7410
X2621
X2510Y7170
X2307Y6050
X2117Y5870
X2577Y5520
X2407Y5330
X2774Y9090
X2524Y9590
X2611Y10200
X1770Y10320
X1774Y9590
X1750Y9000
X12914Y9010
X12993Y9590
Y10090
X13750Y9750
X14300Y9674
Y9230
Y8794
X13750Y9000
Y10500
X16000
Y9750
X16584Y9590
X16834Y9090
X16000Y9000
X15521Y7520
X14860Y7160
X14150Y7680
X13340
X16681Y7410
X16951
X16570Y7170
X15241Y2990
X14625Y3010
X17408Y4890
X17735
X18061
X18561
X18898
X19235
X19571
X19631Y4030
X19361
X21021Y4090
X21421Y3010
X22327Y2990
X22733Y4090
X24107Y4030
X24367
X24494Y4890
X24167
X24821
X25147
X25647
X25984
X26321
X26657
X26717Y4030
X26447
X28107Y4090
X28540Y2990
X29480Y3040
X29822Y4090
X31196Y4030
X31456
X31582Y4890
X31256
X31909
X32236
X32736
X32870Y6150
X32196
X32330Y7600
Y7860
X32690
X32700Y7600
X31726Y7530
Y7800
X31126Y7410
X30856
X30750Y7180
X30542Y6050
X30352Y5870
X30812Y5520
X30642Y5330
X29656Y6200
X29386
X28430Y6220
X28157
X27577Y5870
X27387Y6050
X27117Y5520
X27287Y5330
Y7250
X27017Y7260
X26767Y7350
X26257Y7510
Y7790
X25601Y7860
Y7600
X25241
Y7860
X24637Y7800
Y7530
X24037Y7410
X23767
X23660Y7170
X23453Y6050
X23263Y5870
X23723Y5520
X23553Y5330
X22567Y6200
X22297
X21340Y6220
X21071
X20491Y5870
X20301Y6050
X20031Y5520
X20201Y5330
Y7250
X19931Y7260
X19681Y7350
X19171Y7510
Y7790
X18515Y7860
Y7600
X18155
Y7860
X17551Y7800
Y7530
X17468Y9157
Y9590
Y10023
X17901
Y9590
Y9157
X18334
Y9590
Y10023
X18767
Y9590
Y9157
X19200
Y9590
Y10023
X20084Y10090
Y9590
X20005Y9010
X20750Y9000
Y9750
X21360Y9674
Y9230
Y8794
X21240Y7660
X20431Y7680
X21950Y7170
X22607Y7540
X22750Y9000
X22920Y9590
X23670
X23920Y9090
X24554Y9157
X24987
X25420
X25853
X26286
Y9590
Y10023
X25853
Y9590
X25420
Y10023
X24987
Y9590
X24554
Y10023
X22920Y10340
X20750Y10500
X18701Y6150
X18021
X25107
X25787
X27517Y7680
X28370Y7590
X29010Y7150
X29696Y7540
X30000Y9000
Y9750
Y10500
X30759Y9590
X31009Y9090
X31643Y9157
Y9590
Y10023
X32076
Y9590
Y9157
X32509
Y9590
Y10023
X32942
Y9590
Y9157
X28430Y9230
Y8794
Y9674
X27750Y9750
X27170Y9590
Y10090
X27750Y10500
Y9000
X27091Y9010
X33375Y9157
Y9590
Y10023
X34259Y10090
Y9590
X34180Y9010
X35000Y9000
Y9750
X35560Y9674
Y9230
Y8794
X35430Y7650
X34606Y7680
X34376Y7250
X34106Y7260
X33856Y7350
X33346Y7510
Y7790
X34476Y6050
X34666Y5870
X34376Y5330
X33746Y4890
X33409
X33072
X33536Y4030
X33806
X35196Y4090
X35596Y3010
X35510Y6220
X35246
X36130Y7160
X37720Y8820
Y9360
X37330Y10020
X39250Y10050
X38940Y9380
Y8840
X38540Y8170
X39920Y8440
X39950Y4200
X38560Y3620
X38470Y5060
X38800Y2200
X38500Y1500
X38800Y800
X39500Y500
X40200Y800
X40500Y1500
X40200Y2200
X39500Y2500
X35000Y10500
Y11250
X35600Y11264
Y10827
Y11707
X35000Y12000
X34190Y12080
X33720
X33320
X33040Y13450
X33520Y15470
X33780Y15990
X33790Y16970
X34280Y17430
X35780Y17160
X38356Y16339
Y15965
X38858Y16142
X39350Y15950
Y16350
X40000
Y15950
X39183Y14990
X39459Y14016
X38829
X38140Y14006
X37320Y13410
X38200Y12650
X38700
Y12050
X38200
Y11300
X38700
Y10700
X38200Y10650
X39950Y10860
X40098Y14016
X40530Y18220
Y18520
Y18820
X40000Y19370
X39203Y19380
X39144Y20305
X38898Y21250
X38950Y21750
X39620Y21760
X40000
Y21270
X39606Y21260
X38169
X38100Y21750
X38050Y19400
X35230Y20230
Y21270
X35667Y21280
X34007Y21290
X33550Y21270
Y20250
X33180Y22280
X34730
X37350Y23650
Y24250
Y24900
Y25450
X37980Y25260
X38440Y25120
X38910
X39360Y25130
X39920Y25230
X39930Y25850
X35250Y12750
X31460Y14350
X31760Y15050
X31320Y15970
X31260Y16970
X31780Y17450
X32760Y17120
X30300Y17180
X29280Y17450
X28490Y16680
X28570Y15980
X29180Y15060
X29210Y14540
X29670Y14150
X30210Y13910
X30350Y14510
X29951Y14774
X28130Y14690
X29210Y13550
X29670Y11630
X30000Y11250
X30450Y11090
X28470Y11264
Y10827
Y11707
X27750Y11250
X27101Y12080
X26631
X26211
X25720Y13910
X24520
X23380Y13320
X23310Y14720
X23340Y15810
X22980Y15820
X22160Y16060
X21800
X21250Y16000
X20770Y16020
X20730Y15630
X21020Y16280
X21550Y15336
Y13524
X20540Y13430
X19900Y13330
X20020Y12080
X19550
X19130Y12050
X20750Y12000
Y11250
X21400Y11264
Y10827
Y11707
X21500Y12250
X22750Y11250
X23550Y11270
X22456Y14430
X20644
X18860Y16370
X18520Y16200
X18260Y15915
X18660Y16710
X19430Y17905
X19780Y18270
X21510Y18160
X22090Y18030
X22430Y18580
X22220Y18880
X22430Y19190
X22060Y19480
X21920Y19820
X22280Y19770
X21670Y20140
X21970Y20580
X22240Y20860
X22150Y21210
X21810Y21570
X21650Y22150
X21640Y23260
X21764Y23640
X21810Y24210
X21860Y24670
X21530Y24850
X20780Y24710
X20750Y24350
X20340Y24690
X20290Y25050
X19940Y24800
X19660Y25050
X19340Y24830
X18910Y24660
X18850Y25070
X18360Y25040
X18040Y24820
X17680Y24860
X19530Y26120
X18610Y22140
X17500Y19020
X23660Y19750
X23730Y20740
X23930Y21390
X24130Y21920
X24190Y22480
X24200Y23180
X23900Y22970
X23620Y22740
X23640Y23640
X24000Y23550
X23660Y24960
X26220Y21300
X26620Y21280
X27810
X28237Y21290
X28590Y21540
X29610Y21280
X30047Y21290
X31260Y21270
X31697Y21290
X32050Y21610
X30610Y22280
X29240
X27440
X27810Y20240
X26270Y20230
X25910
X25740Y19270
X25700Y17700
X26360Y17550
X26760Y17430
X26290Y16950
X26270Y15990
X27800Y17180
X29610Y20240
X31260
X22960Y16940
X16193Y16663
X15230Y16810
X14880Y16940
X14380Y16760
X14340Y17270
X14680Y17450
X15280Y18330
X15640Y18240
X15580Y18620
X15290Y18950
X15580Y19420
X15750Y20240
X16110Y20540
X15210Y20580
X15390Y20930
X15810Y21720
X15850Y22190
X15300Y22170
X15220Y23540
X15640Y23660
X15570Y24020
X15850Y24250
X16190Y24590
X16820Y24550
X16740Y25000
X17180Y25130
X15300Y24522
X13290Y24550
Y24930
X13400Y24160
X13890Y23880
X13130Y23520
X11990
X11410Y23910
X11130Y24350
X11840Y25000
X9860Y23130
X8380Y23690
X7470Y22680
X6710Y20660
X7150Y20200
X7030Y19640
X6455Y19985
Y19055
X5830Y19050
X5148Y19045
X5100Y19710
X5110Y21310
X3880Y19030
X3460Y19050
X2850Y18910
X2000Y19900
X2290Y17070
X2270Y16630
X4508Y18140
X6486Y17608
X7382Y16968
X7746Y16870
X7736Y16476
X8100Y16407
X8110Y16821
X8550Y16880
X8540Y19960
X10085Y20145
X12660Y19940
X13030Y19890
X13070Y19520
X13370Y19260
X13510Y20700
X13440Y21210
X14050Y21400
X14130Y20510
X13720Y22230
X13080Y22370
X12450Y16740
X12490Y16220
X12070Y15770
X11550Y15900
X13630Y16290
X13500Y12335
X13750Y12000
Y11250
X14340Y11264
Y10827
Y11707
X15500Y12250
X16000Y11250
X16520Y11290
X12924Y12080
X12454
X12034
X9420Y12210
X9470Y11310
X8743Y11090
X7240Y11264
Y10827
Y11707
X6750Y12000
Y11250
X5940Y12050
X5470
X5050Y12060
X2774Y12590
X2386Y11690
X2860Y11280
X8080Y12270
X16430Y18010
X16710Y18250
X16980Y18490
X17220Y18760
X16210Y19030
X6800Y25160
X4920Y25910
X4140
X4190Y25540
X3550Y25560
X1630Y20090
X510
X1160Y18910
X560Y17920
Y17480
Y14520
Y14090
X800Y12920
X490Y12690
X1480Y12596
Y10784
X574Y11690
X480Y26620
X1080Y29460
X450Y31390
X520Y32890
Y33320
X800Y38300
X500Y39000
X800Y39700
X1500Y40000
Y38000
X2200Y38300
X2500Y39000
X2200Y39700
X2340Y36460
X3070Y34730
X3360
X2980Y33990
Y33340
X3690Y31956
X5266Y32018
X5320Y30790
X4596Y31050
X2784
X2920Y29550
X3130Y29010
X3260Y28390
X3090Y27790
X3000Y26510
X3560Y26450
X4160Y26280
X4840Y27020
X4860Y27930
X5550Y28180
X6480Y28270
X6510Y28650
X5820Y29210
X6500Y30070
X6760Y31000
X8420Y31690
X9020Y32010
X9220Y32520
X9620
X10020
X9710Y32970
X9220
X8700
X8300Y33100
X8210Y33530
Y34440
X8915Y34620
Y35020
X9315
Y34620
Y34220
X8915
Y33820
X9315
X9715
X10115
X10515
Y34220
X10115
Y34620
X10515
Y35020
X10115
X9715
Y34620
Y34220
X11910Y34310
X12360Y34460
X12900Y34620
Y35020
X13300
Y34620
Y34220
X12900
Y33820
X13300
X13700
X14100
X14500
Y34220
X14100
Y34620
X14500
Y35020
X14100
X13700
Y34620
Y34220
X13690Y32980
X13200Y32970
X13230Y32520
X12830
X12670Y32960
X12280Y33100
X12360Y33530
X11910Y33550
Y35590
X12360Y35370
X12390Y36220
X12520Y36890
X11480Y37070
X11470Y38220
X11460Y38610
X11480Y39020
X10140Y39000
Y38610
Y38230
X10180Y37090
X8570Y36800
X8440Y36190
X8210Y35350
X6220Y34793
X5551Y34557
X5128Y34705
X5571Y33868
X6732Y33356
X7411Y33376
X8820Y32520
X9840Y31690
X9410Y29990
X11140Y29410
X12230Y28560
X12190Y28170
X12470Y27520
X13650Y26970
X14290Y26680
X15790Y26530
X16160
X17260Y27000
X17010Y28140
X17250Y30100
X16960Y32010
X16820Y32520
X17220
X17190Y32970
X16670Y32960
X16250Y33090
X16370Y33530
X15895Y33550
X15900Y34220
X16370Y34460
X16910Y34620
Y35020
X17310
Y34620
Y34220
X16910
Y33820
X17310
X16370Y35370
X15895Y35590
X16380Y36240
X16470Y36870
X15480Y37070
X15470Y38220
X15460Y38610
X15480Y39020
X14140Y39000
Y38610
Y38230
X14180Y37090
X14030Y32520
X13630
X13710Y31690
X12920Y32010
X12300Y31690
X12610Y29970
X15450Y31000
X15660Y31330
X15990Y31590
X16360Y31680
X3690Y30144
X6130Y27660
X5550Y26750
X1890Y26500
X4730Y36730
X6000Y37260
X6810Y37560
X7520Y38650
X6040
X6110Y39660
X18140Y39000
Y38610
Y38230
X18180Y37090
X19480Y37070
X19470Y38220
X19460Y38610
X19480Y39020
X20420Y36750
X20380Y36020
X19905Y35590
X20380Y35000
Y34000
X21000
X21465Y33820
Y34220
X21865
Y33820
Y33420
X21465
Y33020
X21865
X22265
X22665
X23065
Y33420
X22665
Y33820
X23065
Y34220
X22665
X22265
Y33820
Y33420
X22270Y32160
X21750
X21798Y31710
X22102
X22406
X22710
X23120Y31120
X20960Y31150
X21190Y31710
Y32000
Y32290
X21494Y31710
X20320Y31340
X19940Y31350
X19960Y30070
X20560Y29580
X19580Y29210
X19090Y29220
X18590Y29230
X18090Y29190
X18840Y30110
X18010Y31990
X18020Y32520
X17620
X17720Y32960
X17710Y33820
X18110
X18510
Y34220
X18110
Y34620
X18510
Y35020
X18110
X17710
Y34620
Y34220
X19910Y34220
X19905Y33550
X20380Y33030
X20310Y32640
X21000Y33000
X21500Y35000
X22500
X23500
X24500
X25460Y35010
X25790Y34830
Y34290
X25500Y34000
X24500
Y33000
X23990Y32790
X23500Y33000
Y34000
X25360Y32830
X25770Y32660
X26060
X25770Y32248
Y31835
Y31423
Y31010
X26060Y31000
X26780
Y31412
Y31825
Y32238
Y32650
X26740Y33610
X29800Y33650
Y34300
Y32950
Y32250
X30800
X31780Y32240
X31800Y32950
Y33550
Y34300
X31820Y34850
X32650Y34830
Y34280
Y33680
Y33130
Y32580
Y32120
X32900Y30800
Y30250
Y29650
Y29100
Y28550
Y28090
X31750Y28400
Y29000
Y29700
Y30350
X31740Y31040
X30850Y31050
X29850
Y30350
Y29700
X29830Y29010
X29820Y28410
X30800Y28400
X30890Y27360
X30050Y27370
X28480Y27410
Y27830
X27360Y27820
Y28220
Y27340
X26210Y27270
X26230Y27640
X26200Y28030
X25230Y27310
X24290Y27920
X23970Y28260
X24120Y29220
X24070Y29840
X25510Y29970
X25600Y29160
X22010Y27860
X22000Y26510
X20650Y26970
X20250Y26610
X19890Y26710
X20820Y27570
X18470Y27560
X17790Y27580
X17400Y31680
X21500Y36000
X22480Y36020
X24840Y35950
X25050Y39640
X26780Y39610
X27110
Y39250
X26770Y39240
X26780Y38880
X27110
X27480
X27460Y39680
X28330
Y39260
Y38870
X29280Y38860
X29630Y38870
X29280Y39280
X29270Y39710
X29630Y39700
X32042Y39424
X31919Y38638
Y38244
X32313
X32707
Y37851
X32313
X31919
X31433Y37564
X30780Y37240
X30640Y36320
X30118Y35817
X30200Y35300
X30800Y34950
X31310Y35770
X30800Y33600
Y29700
X31770Y27680
X32313Y38638
X32707
X33474Y37352
X34310Y35345
X34650Y34960
X35160
X35400Y35345
X36370
X37550
X38848Y35344
X39355Y35467
Y35867
X40400Y35870
Y35470
Y36460
X38875Y36457
X39166Y37006
X39500Y38000
X38800Y38300
X38500Y39000
X38800Y39700
X39500Y40000
X40200Y39700
X40500Y39000
X40200Y38300
X36920Y38800
X35420Y38750
X34920
X35150Y34250
X34650
Y33600
X35150
Y32950
X34650
Y32250
X35150
X35300Y31760
X34600
X34640Y31370
X33950Y31500
Y30800
X33900Y30250
Y29650
Y29050
Y28550
X34240Y27950
X34650Y28340
X35200Y28350
Y27950
X36250
X36100Y28350
Y29700
X37000
Y30350
X37880Y30330
X37870Y29390
X37000Y29000
X37150Y27950
X37880Y27780
X37950Y28150
X38010Y27390
X38570Y27120
X38990Y27090
X39390Y27130
X39440Y26520
X38960Y26500
X38400Y26520
X37940Y26440
X37350Y26250
X39920Y26320
X40000Y27410
Y27830
X39990Y28280
X39440Y28530
X38970Y28550
X38550Y28530
X38940Y29090
X39990Y29310
X40000Y29830
Y30320
Y31410
Y31830
X39990Y32280
X39440Y32530
X38970Y32550
X38550Y32530
X38081Y32982
X37904Y33435
X37880Y34330
X37050Y34300
Y33600
Y32950
Y32250
X36700Y31760
X36000
X36100Y32250
Y31050
X35200
Y30400
X34650
Y29750
X35200
Y29050
X34650
X33950Y32250
Y32950
X33900Y33600
Y34300
Y34900
X38970Y34710
X39960Y34400
X40000Y33830
X39950Y33290
X38940Y33090
X37950Y32150
X37880Y31780
X37400Y31760
X38010Y31390
X38570Y31120
X38990Y31090
X39390Y31130
X38980Y30580
T02
X30210Y39213
T03
X6713Y16634
X33470Y35960
T04
X38550Y23160
X38950
X39350
X39330Y24520
X38950
X38550
X36470Y38750
T05
X32559Y36053
X32579Y36850
T06
X18010Y14060
X19010
Y15060
X18010
X17010
Y14060
X16010
Y15060
X15010
Y14060
X14010
Y15060
X13010
Y14060
X12010
Y15060
X11010
Y14060
X10010
Y15060
X9010
Y14060
X8010
Y15060
Y18300
Y19300
X9010
Y18300
X10010
Y19300
X11010
Y18300
X12010
Y19300
Y21150
X11010
X10010
X9010
X8010
Y22150
X9010
X10010
X11010
X12010
T07
X3570Y22500
X4360
Y23492
X3570
T08
X4550Y1450
X5550
X6550
X7550
X10450
X11450
X12450
X13450
X16500
X17500
X18500
X19500
X21600
X22600
X23600
X24600
X27500
X28500
X29500
X30500
X33450
X34450
X35450
X36450
X39180Y4550
Y5550
Y6550
Y7550
X36150Y14550
X35150
X34150
X33150
X33450Y18630
X35580
X36580
X36220Y23090
X35220
X34220
Y25490
X35220
X36220
X32085
X31085
X30085
X27950
X26950
X25950
Y23090
X26950
X27950
X30085
X31085
X32085
X32450Y18630
X30300
X29300
X27130
X26130
X860Y30460
Y32240
X1200Y35350
X2200
T09
X38950Y23825
Y25825
X16800Y38620
X14800
X12800
X10800
X8800
X6800
X4800
X18800
X20800
X22800
X38950Y33825
Y31825
Y29825
Y27825
T10
X1840Y29970
Y32730
T11
X38503Y14988
X39843
Y20288
X38503
X30760Y29030
Y30370
Y32930
Y34270
X36060
Y32930
Y30370
Y29030
T12
X2500Y20630
Y25362
T13
X1500Y1500
X39500
X1500Y39000
X39500
T14
X21550Y14430
X1480Y11690
X3690Y31050
M30
