M48
;Layer_Color=9474304
;FILE_FORMAT=2:4
INCH,TZ
;TYPE=PLATED
T1F00S00C0.0100
T2F00S00C0.0140
T3F00S00C0.0150
T4F00S00C0.0200
T5F00S00C0.0220
T6F00S00C0.0240
T7F00S00C0.0300
T8F00S00C0.0354
T9F00S00C0.0380
T10F00S00C0.0400
T11F00S00C0.0550
T12F00S00C0.0590
T13F00S00C0.0630
T14F00S00C0.0870
;TYPE=NON_PLATED
T15F00S00C0.1181
T16F00S00C0.1299
%
T01
X26665Y30150
Y30583
X27098
Y30150
Y70650
X26665
Y71083
X27098
T02
X33191Y30221
X33711Y29821
X34371Y30411
X35051Y29831
X35771Y30271
X35921Y31091
X35951Y32021
X36511Y31791
X36911Y32001
X37391Y32011
X36871Y34551
X37101Y35421
X37581Y35051
X37081Y37391
X35651Y37431
X35041Y37451
X34441
X33731Y37481
X33031Y37431
X32981Y36401
X34351Y35651
X34391Y31861
X33711Y32001
X37751Y31741
X38091Y32011
X38561
X38911Y31831
X38921Y32391
X39431Y31761
X39801Y31721
X40261Y31741
X40791Y31721
X40901Y31131
X40261
X39731
X39811Y29691
X40261Y29681
X40691Y29691
X41431Y29951
X41441Y30381
Y30801
X41781Y31691
X42081Y31961
X41331Y32391
X41041Y33041
X41731
X41361Y33921
Y34401
Y34841
X40771Y35171
X40271Y35161
X39691Y35151
X39931Y35721
X40271Y35801
X40641Y35691
X41091Y35761
X41461Y35721
X41291Y36041
X41331Y36391
X41651Y36111
X40531Y37221
X40261Y36991
X39871Y37191
X39111Y37231
X38461Y37401
X37771Y37411
X37751Y36346
X37751Y35821
X37751Y35418
X39141Y35681
X39121Y36381
X39721Y33641
X40291
X40761Y33651
X40261Y33051
X39761
X37731Y30381
X38671Y27311
X39451Y27431
X39461Y27821
X39921Y27421
X40271Y27771
X40761Y27481
X41021Y27121
X40461Y27131
X41341Y26851
X41391Y26381
X41301Y25911
X40931Y25651
X40351Y25641
X41311Y28041
X41781Y28011
X41791Y28681
X41281Y28671
X42091Y27491
X42451Y27101
X39591Y41939
X35361Y37781
X34721Y37761
X38671Y67811
X39451Y67931
X39461Y68321
X39921Y67921
X40271Y68271
X40761Y67981
X41021Y67621
X40461Y67631
X41341Y67351
X41391Y66881
X41301Y66411
X40931Y66151
X40351Y66141
X41311Y68541
X41781Y68511
X42091Y67991
X42451Y67601
X41791Y69181
X41281Y69171
X41431Y70451
X41441Y70881
Y71301
X40901Y71631
X40261
X39731
X39801Y72221
X39431Y72261
X38911Y72331
X38561Y72511
X38091
X37751Y72241
X37731Y70881
X39811Y70191
X40261Y70181
X40691Y70191
X40791Y72221
X40261Y72241
Y73551
X39761
X39721Y74141
X40291
X40761Y74151
X41361Y74421
Y74901
Y75341
X40771Y75671
X40271Y75661
X39691Y75651
X39931Y76221
X40271Y76301
X40641Y76191
X41091Y76261
X41461Y76221
X41291Y76541
X41331Y76891
X41651Y76611
X40531Y77721
X40261Y77491
X39871Y77691
X39111Y77731
X38461Y77901
X37771Y77911
X37751Y76846
X37751Y76321
X37751Y75918
X39141Y76181
X39121Y76881
X38921Y72891
X41331
X41041Y73541
X41731
X41781Y72191
X42081Y72461
X39591Y82439
X37081Y77891
X35651Y77931
X35041Y77951
X34441
X34721Y78261
X35361Y78281
X33731Y77981
X33031Y77931
X32981Y76901
X34351Y76151
X37101Y75921
X37581Y75551
X36871Y75051
X36911Y72501
X37391Y72511
X36511Y72291
X35951Y72521
X35921Y71591
X35771Y70771
X35051Y70331
X34371Y70911
X33711Y70321
X33191Y70721
X33711Y72501
X34391Y72361
T03
X3361Y3361
X4061Y3061
X4761Y3361
X5061Y4061
X5921Y4041
X4761Y4761
X4061Y5061
X3361Y4761
X3061Y4061
X3604Y6026
X4451Y6085
X4274Y6272
X10318Y5571
X11006Y5504
X17186Y5571
X17802Y5551
X23982Y5571
X24888Y5551
X31101
X32041Y5601
X38157Y5571
X41121Y6181
X41361Y4761
X42061Y5061
X42761Y4761
X43061Y4061
X42761Y3361
X42061Y3061
X41361Y3361
X41061Y4061
X41031Y7621
X42511Y6761
X42481Y11001
X41501Y11401
Y11941
X41811Y12611
X41751Y13460
X42138Y13457
X42108Y14057
X41751Y14060
Y14810
X42108Y14805
X42251Y15460
X41751
X40809Y15150
X40297Y15159
X39854
Y13447
X40297
X40780
X39891Y12581
X40281Y11921
Y11381
X41101Y10731
X38691Y9721
X37991Y10211
X38121Y11355
Y11791
Y12235
X38161Y13388
Y13825
Y14268
X37811Y15311
X40701Y16567
X41390Y16577
X42020
X42659
X41744Y17551
X41911Y18511
Y18911
X42561
Y18511
X41419Y18703
X40917Y18526
Y18900
X40611Y21961
X41764Y21941
X42561Y21931
X43091Y21381
Y20781
X38341Y19721
X38071Y8781
X37807
X37757Y6651
X36367Y6591
X36097
X35970Y7451
X36307
X35633
X35297
X34797
X34470
X34143
X33817
X33757Y6591
X34017
X32383Y6651
X30668
X29278Y6591
X29008
X28882Y7451
X29218
X28545
X28208
X27708
X27382
X27055
X26728
X26668Y6591
X26928
X25294Y6651
X23582
X22192Y6591
X22132Y7451
X22762Y7891
X22592Y8081
X22862Y8611
X23052Y8431
X23632Y8781
X23901
X24858Y8761
X25128
X25824Y8431
X26014Y8611
X26284Y8081
X26114Y7891
X26221Y9731
X26328Y9971
X26598
X27198Y10091
Y10361
X27802Y10421
Y10161
X28162
Y10421
X28818Y10351
Y10071
X29328Y9911
X29578Y9821
X29848Y9811
X30078Y10241
X30931Y10151
X31571Y9711
X32257Y10101
X33417Y9971
X33687
X33311Y9741
X34287Y10091
Y10361
X34891Y10421
Y10161
X35261
X35251Y10421
X35907Y10351
Y10071
X36417Y9911
X36667Y9821
X36937Y9811
X37167Y10241
X37561Y11561
Y12311
Y13061
Y13811
Y14561
X37207Y14864
X36751Y14641
X36281
X35861
X35936Y12584
Y12151
Y11718
X35503
Y12151
Y12584
X35070
Y12151
Y11718
X34637
Y12151
Y12584
X34204
Y12151
Y11718
X33570Y11651
X33320Y12151
X32561Y12311
Y11561
Y13061
Y13811
X33011Y13651
X32231Y14191
X31031Y14268
Y13825
Y13388
X30311Y13061
Y12311
X29731Y12151
Y12651
X28847Y12584
X28414
X27981
X27548
X27115
Y12151
Y11718
X27548
Y12151
X27981
Y11718
X28414
Y12151
X28847
Y11718
X29652Y11571
X30311Y11561
X30991Y11355
Y11791
Y12235
X30311Y13811
X29662Y14641
X29192
X28741
X28161Y14776
X28280Y16715
X27207
X25871Y17281
X25901Y18371
X25541Y18381
X24721Y18621
X24361
X23811Y18561
X23331Y18581
X23291Y18191
X23581Y18841
X24111Y17897
X23206Y16991
X23101Y15991
X22461Y15891
X22581Y14641
X22111
X23311Y14251
Y13811
X23961Y13825
Y13388
Y14268
X24061Y14811
X23566Y15042
X24111Y16086
X25017Y16991
X25941Y15881
X26111Y13831
X25311Y13811
X25481Y12901
Y12151
X26231
X26481Y11651
X25311Y11561
X23921Y11355
Y11791
Y12235
X23311Y12311
Y11561
X22566Y11571
X22645Y12151
Y12651
X23311Y13061
X22992Y10241
X22762Y9811
X22492Y9821
X22242Y9911
X23801Y10221
X24511Y9731
X25168Y10101
X27668Y8711
X28348
X29948Y8611
X30138Y8431
X29678Y8081
X29848Y7891
X30718Y8781
X30991
X31947Y8761
X32217
X32913Y8431
X33103Y8611
X33373Y8081
X33203Y7891
X34757Y8711
X35431
X37037Y8611
X37227Y8431
X36937Y7891
X36741Y11571
X36820Y12151
Y12651
X37344Y16035
X36341Y18551
X36351Y19531
X36841Y19991
X35321Y19681
X34341Y20011
X33821Y19531
X33881Y18531
X33437Y17906
X32769Y17896
X32512Y17335
Y16852
X32911Y17071
X32771Y16471
X31771Y16111
X31833Y17098
X31741Y17621
X30681Y17276
X31131Y18541
X31051Y19241
X30361Y19741
X29321Y19991
X28921Y20111
X28851Y19511
X28831Y18551
X28261Y20261
X28301Y21831
X24991Y21751
X24781Y21441
X24991Y21141
X24651Y20591
X24071Y20721
X22341Y20831
X25521Y19501
X31841Y20011
X32861Y19741
X35602Y18004
X21421Y18931
X21081Y18761
X20821Y18476
X21221Y19271
X21991Y20466
X19541Y21051
X19271Y20811
X18991Y20571
X18201Y20801
X18141Y21181
X17841Y20891
X17851Y21511
X18141Y21981
X18771Y21591
X19781Y21321
X18754Y19224
X17791Y19371
X17441Y19501
X16941Y19321
X16901Y19831
X17241Y20011
X16191Y18851
X15051Y18781
X15011Y19301
X14381Y18381
X13931Y18461
X10661Y18968
X10671Y19382
X10307Y19431
X10297Y19037
X9943Y19530
X11111Y19441
X8968Y20169
X9008Y21616
X8312Y21611
X7630Y21606
X6990Y20701
X7571Y14601
X8031Y14611
X8501
X9311Y14561
Y13811
X9801Y13825
Y13388
X9311Y13061
Y12311
X9761Y12235
Y11791
X9781Y11355
X9311Y11561
X8507Y11571
X8585Y12151
Y12651
X7702Y12584
Y12151
Y11718
X7269
Y12151
Y12584
X6835
Y12151
Y11718
X6402
Y12151
Y12584
X6657Y10421
Y10161
X7017
Y10421
X7672Y10351
Y10071
X8182Y9911
X8432Y9821
X8702Y9811
X8932Y10241
X9681Y10041
X10311Y9731
X10991Y10101
X12151Y9971
X12421
X12041Y9741
X13021Y10091
Y10361
X13625Y10421
Y10161
X13985
Y10421
X14641Y10351
Y10071
X15151Y9911
X15401Y9821
X15671Y9811
X15901Y10241
X16711
X17421Y9721
X18082Y10081
X19242Y9971
X19512
X19131Y9731
X18928Y8611
X18738Y8431
X19198Y8081
X19028Y7891
X19642Y7451
X19969
X20296
X20622
X21122
X21459
X21796
X21922Y6591
X19842
X19582
X18208Y6651
X16733Y6755
X15396Y6591
X15126
X15041Y7451
X14704
X14368
X14031
X13531
X13204
X12878
X12551
X11937Y7891
X12107Y8081
X11837Y8611
X11647Y8431
X10951Y8761
X10681
X9942Y8791
X9672Y8781
X8992Y8431
X8802Y8611
X8532Y8081
X8702Y7891
X8072Y7451
X7736
X7399
X7062
X6562
X6522Y8711
X7202
X8256Y6591
X8526
X9764Y6755
X11409Y6616
X12786Y6591
X13046
X13491Y8711
X14171
X15771Y8611
X15961Y8431
X15501Y8081
X15671Y7891
X16541Y8781
X16811
X17772Y8761
X18042
X20582Y8711
X21262
X21076Y10161
Y10421
X20716
Y10161
X20112Y10091
Y10361
X20029Y11718
X20462
X20895
X21328
X21761
Y12151
Y12584
X21328
Y12151
X20895
Y12584
X20462
Y12151
X20029
Y12584
X19145Y12151
X18561Y12311
Y11561
X19395Y11651
X18561Y13061
Y13811
X19081Y13851
X18122Y14972
X16901Y14268
Y13825
Y13388
X16311Y13061
Y12311
X16861Y12235
Y11791
Y11355
X16311Y11561
X15475Y11571
X15554Y12151
Y12651
X14670Y12584
X14237
X13804
X13371
X12938
Y12151
Y11718
X13371
Y12151
X13804
Y11718
X14237
Y12151
X14670
Y11718
X12304Y11651
X12054Y12151
X11304
Y12901
Y13651
X12030Y13861
X11991Y14373
X11715Y14914
X10641Y14831
X10961Y14311
X9801Y14268
X14641Y14641
X15015
X15485
X15991Y14361
X16061Y14896
X16311Y13811
X21721Y14631
X21732Y10351
Y10071
X15931Y21821
X6362Y21591
X5942Y21611
X5332Y21471
X3642
X3042Y20481
Y20041
X4772Y19631
X4752Y19191
X3042Y17081
Y16651
X3051Y15251
X3361Y15481
X4041Y15157
X5335Y15151
X4947Y14251
X5421Y13841
X5172Y12761
X5085Y12151
X4335
X4311Y11561
X3585Y11401
Y12151
Y12901
X3061Y13141
X3136Y14251
X4041Y13346
X4331Y12881
X5969Y12584
Y12151
Y11718
X5335Y11651
X5452Y9971
X5182
X5071Y9731
X4868Y8611
X4678Y8431
X5138Y8081
X4968Y7891
X5582Y7451
X5909
X6236
X6176Y6591
X5916
X4411Y6636
X3982Y8761
X3712
X4022Y10101
X3585Y10401
X6052Y10361
Y10091
X6350Y22512
X4502Y22461
X4191Y22651
X3071
X3063Y22305
X3041Y29181
X4451Y29061
X5561Y29071
X5651Y30351
X5821Y30951
X5691Y31571
X5481Y32111
X6251Y32706
Y34517
X5346Y33611
X3011Y33951
X3081Y35451
Y35881
X5751Y36164
X5836Y37576
X3641Y32021
X8381Y31771
X9071Y31211
X9041Y30831
X8691Y30221
X8111Y30741
X7421Y30491
X6991Y30071
X6721Y28959
X6701Y28589
X6751Y28219
X7481Y28589
X7831Y29411
X9361Y27721
X10941Y26251
X10031Y25241
X10022Y23161
X9598Y23555
X9244Y22611
X8732Y22541
X8339Y22531
X7955Y22532
X7594Y22531
X7079Y22532
X8004Y23073
X7671Y23871
X9591Y22201
X11101Y22521
X12646Y22706
X15591Y22451
X15631Y22081
X16071Y23261
X16001Y23771
X16611Y23961
X16691Y23071
X17771Y23141
X17951Y23491
X18311Y22801
X18671Y23101
X18371Y24281
X18411Y24751
X17861Y24731
X17781Y26101
X18201Y26221
X18131Y26581
X18411Y26811
X18751Y27151
X19381Y27111
X19301Y27561
X19741Y27691
X20241Y27421
X20601Y27381
X20921Y27601
X21411Y27631
X21471Y27221
X21901Y27391
X21171Y24701
X16281Y24791
X15641Y24931
X15691Y26081
X15961Y26721
X15851Y27111
Y27491
X14401Y27561
X13691Y26911
X13971Y26471
X14551Y26081
X16451Y26441
X17861Y27083
X18351Y29091
X18721
X19821Y29561
X20351Y30141
X21031Y30121
X21151Y31791
X21651Y31781
X20651Y31751
X21400Y32669
X19811Y32661
X19381Y34231
X18983Y35461
X18603Y35471
X18973Y36761
X19947Y36987
X21879Y37365
X21461Y34901
X17271Y34751
X16632Y35091
X16337
X16041
X15746
X15451
X15751Y35531
X16281Y35521
X16271Y36381
Y36781
Y37181
Y37581
X15871
Y37181
Y36781
Y36381
X15471
Y36781
Y37181
Y37581
X14931Y37021
X14614Y36469
X14309Y35219
X14914Y34817
X15171Y32531
X14791Y31121
X14751Y30731
X15031Y30081
X13701Y31971
X11971Y32551
X12016Y35081
X11720
X11426Y35082
X10961Y34801
X10261Y34521
X10293Y35209
X10579Y36459
X10921Y37021
X11461Y37181
Y36781
Y36381
X11861
X12261
Y36781
Y37181
Y37581
X11861
Y37181
Y36781
X12661
Y37181
Y37581
X13061
Y37181
Y36781
Y36381
X12661
X12251Y35541
X11761Y35531
X12311Y35081
X12606
X11461Y37581
X9076
X8676
X8276
Y37181
Y36781
Y36381
X7876
X7476
Y36781
X7876
Y37181
X7476
Y37581
X7876
X8676Y37181
X9076
Y36781
X8676
Y36381
X9076
X8271Y35531
X7781
Y35081
X8181
X8581
X9001Y34514
X9061Y32631
X10101Y33381
X7157Y33611
X7381Y35081
X7282Y35535
X16671Y36381
Y36781
Y37181
Y37581
X17071
Y37181
Y36781
Y36381
X19571Y30701
X12421Y25691
X22221Y27611
X22501Y27361
X22901Y27251
X22851Y27611
X23341Y27271
X23311Y26911
X24371Y26771
X24421Y27231
X24091Y27411
X24325Y26201
X24201Y25821
X24211Y24711
X24371Y24131
X24711Y23771
X24801Y23421
X24531Y23141
X24231Y22701
X24481Y22381
X24841Y22331
X24621Y22041
X26221Y22311
X26291Y23301
X26491Y23951
X26691Y24481
X26751Y25041
X26761Y25741
X26461Y25531
X26181Y25301
X26201Y26201
X26561Y26111
X26221Y27521
X26224Y29708
X26617Y29364
X26872Y29106
X27157Y28880
X27344Y29372
X27551Y29815
X27917Y30607
X28897Y30567
X28917Y30937
X28887Y31327
X27325Y31390
X26765Y31499
X26460Y31706
X26262Y32354
X26771Y32721
X27181Y32741
X27974Y32787
X28063Y33203
X27351Y33451
Y33774
Y34186
Y34599
Y35011
X26631Y35021
X26341
Y34609
Y34196
Y33784
Y33371
X26631Y33361
X26551Y35381
X26061Y35561
X25626Y35581
Y35981
Y36381
Y36781
X25226
X24826
Y36381
Y35981
Y35581
X24426
X24026
Y35981
X24426
Y36381
X24026
Y36781
X24426
X23561Y36561
X23551Y36081
X23561Y35561
X23751Y34851
Y34561
Y34271
X24055
X24359
X24663
X24967
X25271
X24831Y34721
X24311
X25226Y35581
Y35981
Y36381
X26061Y36561
X27061
X28061
X28351Y36851
Y37391
X28021Y37571
X27061Y37561
X26061
X25061
X24061
X23141
X23031Y36221
X22813Y32879
X22674Y32514
X22141Y31771
X22177Y33496
X24075Y32629
X24031Y31661
X24391
X25261Y31241
X24511Y30368
X24561Y29071
X23211Y29531
X22811Y29171
X22451Y29271
X22091Y28681
X23381Y30131
X28551Y29241
X29971Y29901
Y30381
Y30781
X31091Y30391
Y29971
X32891Y31461
X32661Y32371
X32731Y24841
X32391Y24021
Y22981
X34031Y22991
Y24021
X35729Y24009
X35721Y24441
X35729Y22989
X37411Y22971
Y24011
X30721Y24031
X30711Y24801
X31361Y24841
X29561Y24811
X29041Y24471
X29081Y24011
X29131Y22991
X28771
X30721
X28631Y35981
X27921Y35391
X27061Y35561
X40661Y24311
X40730Y23821
X41459Y23811
X41511Y24311
X42181Y24321
X42561
Y23831
X42167Y23821
X41705Y22866
X41409Y37906
X41916Y38028
Y38428
X42961Y38431
Y38031
Y39021
X41436Y39018
X41727Y39567
X42061Y40561
X42761Y40861
X43061Y41561
X42761Y42261
X42061Y42561
X41361Y42261
X41061Y41561
X41361Y40861
X39481Y41361
X37981Y41311
X38157Y46071
X37757Y47151
X37807Y49281
X38071
X37991Y50711
X38691Y50221
X38121Y51855
Y52291
Y52735
X39891Y53081
X40281Y52421
Y51881
X41501Y51901
Y52441
X41811Y53111
X42481Y51501
X41101Y51231
X41031Y48121
X41121Y46681
X41361Y45261
X42061Y45561
X42761Y45261
X43061Y44561
X42761Y43861
X42061Y43561
X41361Y43861
X41061Y44561
X42511Y47261
X36367Y47091
X36097
X35970Y47951
X36307
X35633
X35297
X34797
X34470
X34143
X33817
X33757Y47091
X34017
X32383Y47151
X32041Y46101
X31101Y46051
X30668Y47151
X29278Y47091
X29008
X28882Y47951
X29218
X28545
X28208
X27708
X27382
X27055
X26728
X26668Y47091
X26928
X25294Y47151
X24888Y46051
X23982Y46071
X23582Y47151
X22192Y47091
X22132Y47951
X22762Y48391
X22592Y48581
X22862Y49111
X23052Y48931
X23632Y49281
X23901
X24858Y49261
X25128
X25824Y48931
X26014Y49111
X26284Y48581
X26114Y48391
X26221Y50231
X26328Y50471
X26598
X27198Y50591
Y50861
X27802Y50921
Y50661
X28162
Y50921
X28818Y50851
Y50571
X29328Y50411
X29578Y50321
X29848Y50311
X30078Y50741
X30931Y50651
X31571Y50211
X32257Y50601
X33417Y50471
X33687
X33311Y50241
X34287Y50591
Y50861
X34891Y50921
Y50661
X35261
X35251Y50921
X35907Y50851
Y50571
X36417Y50411
X36667Y50321
X36937Y50311
X37167Y50741
X37561Y52061
Y52811
X36820Y52651
Y53151
X35936Y53084
Y52651
Y52218
X35503
Y52651
Y53084
X35070
Y52651
Y52218
X34637
Y52651
Y53084
X34204
Y52651
Y52218
X33570Y52151
X33320Y52651
X32561Y52811
Y52061
X30991Y51855
Y52291
Y52735
X30311Y52811
X29731Y52651
Y53151
X28847Y53084
X28414
X27981
X27548
X27115
Y52651
Y52218
X27548
Y52651
X27981
Y52218
X28414
Y52651
X28847
Y52218
X29652Y52071
X30311Y52061
X30718Y49281
X30991
X31947Y49261
X32217
X32913Y48931
X33103Y49111
X33373Y48581
X33203Y48391
X34757Y49211
X35431
X37037Y49111
X37227Y48931
X36937Y48391
X36741Y52071
X30138Y48931
X29948Y49111
X29678Y48581
X29848Y48391
X28348Y49211
X27668
X25168Y50601
X24511Y50231
X23801Y50721
X22992Y50741
X22762Y50311
X22492Y50321
X22242Y50411
X22566Y52071
X22645Y52651
Y53151
X23311Y52811
X23921Y52735
Y52291
Y51855
X23311Y52061
X25311
X25481Y52651
X26231
X26481Y52151
X27611Y42201
X29341Y42171
X29671
Y41811
X29331Y41801
X29341Y41441
X29671
X30041
X30021Y42241
X30891
Y41821
Y41431
X31841Y41421
X32191Y41431
X31841Y41841
X31831Y42271
X32191Y42261
X34603Y41985
X34480Y41199
X34874
X35268
Y40805
Y40412
X34874
X34480
Y40805
X34874
X33994Y40125
X33341Y39801
X33201Y38881
X33871Y38331
X36035Y39913
X37481Y41311
X27401Y38511
X25041Y38581
X24061Y38561
X22941Y38581
X22981Y39241
X22031Y40681
X22021Y41071
X22041Y41481
X20701Y41461
Y41071
Y40691
X18031Y40681
X18021Y41071
X18041Y41481
X16701Y41461
Y41071
Y40691
X16741Y39551
X18041Y39531
X18466Y38151
X20081Y37931
X14931
X14456Y38151
X14941Y38801
X15031Y39431
X14041Y39531
X14031Y40681
X14021Y41071
X14041Y41481
X12701Y41461
Y41071
Y40691
X12741Y39551
X11081Y39451
X10951Y38781
X10921Y37931
X10471Y38151
X10041Y39531
X10031Y40681
X10021Y41071
X10041Y41481
X8701Y41461
Y41071
Y40691
X8741Y39551
X7331Y38171
X6721Y38301
X6562Y47951
X7062
X7399
X7736
X8072
X8256Y47091
X8526
X9764Y47255
X10318Y46071
X11006Y46004
X11409Y47116
X12786Y47091
X13046
X13204Y47951
X12878
X12551
X13531
X14031
X14368
X14704
X15041
X15126Y47091
X15396
X16733Y47255
X18208Y47151
X19582Y47091
X19842
X19969Y47951
X20296
X20622
X21122
X21459
X21796
X21922Y47091
X21262Y49211
X20582
X20716Y50661
Y50921
X21076
Y50661
X21732Y50571
Y50851
X21761Y52218
Y52651
Y53084
X21328
Y52651
Y52218
X20895
Y52651
Y53084
X20462
Y52651
Y52218
X20029
Y52651
Y53084
X19145Y52651
X18561Y52811
Y52061
X19395Y52151
X19512Y50471
X19242
X19131Y50231
X18928Y49111
X18738Y48931
X19198Y48581
X19028Y48391
X19642Y47951
X18042Y49261
X17772
X16811Y49281
X16541
X15961Y48931
X15771Y49111
X15501Y48581
X15671Y48391
Y50311
X15401Y50321
X15151Y50411
X14641Y50571
Y50851
X13985Y50921
Y50661
X13625
Y50921
X13021Y50861
Y50591
X12421Y50471
X12151
X12041Y50241
X11837Y49111
X11647Y48931
X12107Y48581
X11937Y48391
X10951Y49261
X10681
X9942Y49291
X9672Y49281
X8992Y48931
X8802Y49111
X8532Y48581
X8702Y48391
Y50311
X8432Y50321
X8182Y50411
X7672Y50571
Y50851
X7017Y50921
Y50661
X6657
Y50921
X6835Y52218
X7269
X7702
Y52651
Y53084
X7269
Y52651
X6835
Y53084
X6402
Y52651
Y52218
X8507Y52071
X8585Y52651
Y53151
X9311Y52811
X9761Y52735
Y52291
X9781Y51855
X9311Y52061
X8932Y50741
X9681Y50541
X10311Y50231
X10991Y50601
X11304Y52651
X12054
X12304Y52151
X12938Y52218
Y52651
Y53084
X13371
Y52651
Y52218
X13804
Y52651
Y53084
X14237
Y52651
Y52218
X14670
Y52651
Y53084
X15554Y53151
Y52651
X15475Y52071
X16311Y52061
Y52811
X16861Y52735
Y52291
Y51855
X16711Y50741
X15901
X17421Y50221
X18082Y50581
X20112Y50591
Y50861
X17802Y46051
X17186Y46071
X14171Y49211
X13491
X7202
X6522
X6236Y47951
X5909
X5582
X4968Y48391
X5138Y48581
X4868Y49111
X4678Y48931
X3982Y49261
X3712
X4022Y50601
X3585Y50901
Y51901
Y52651
X4335
X4311Y52061
X5335Y52151
X5969Y52218
Y52651
Y53084
X5085Y52651
X5182Y50471
X5452
X5071Y50231
X6052Y50591
Y50861
X6176Y47091
X5916
X4411Y47136
X4274Y46772
X4451Y46585
X3604Y46526
X4061Y45561
X3361Y45261
X3061Y44561
X3361Y43861
X4061Y43561
Y42561
X3361Y42261
X3061Y41561
X3361Y40861
X4061Y40561
X4761Y40861
X5061Y41561
X4761Y42261
Y43861
X5061Y44561
X5921Y44541
X4761Y45261
X4561Y39431
X4331Y53381
X4041Y53846
X3585Y53401
X3061Y53641
X3136Y54751
X3051Y55751
X3361Y55981
X4041Y55657
X5335Y55651
X4947Y54751
X5421Y54341
X5172Y53261
X3042Y57151
Y57581
Y60541
Y60981
X3642Y61971
X3063Y62805
X3071Y63151
X4191
X4502Y62961
X5332Y61971
X5942Y62111
X6362Y62091
X6350Y63012
X4772Y60131
X4752Y59691
X6990Y61201
X7630Y62106
X8312Y62111
X9008Y62116
X9591Y62701
X9244Y63111
X8732Y63041
X8339Y63032
X7955Y63032
X7594Y63032
X7079Y63032
X8004Y63573
X7671Y64371
X9598Y64055
X10022Y63661
X11101Y63021
X12646Y63206
X15591Y62951
X15631Y62581
X15931Y62321
X16071Y63761
X16001Y64271
X16611Y64461
X16691Y63571
X17771Y63641
X17951Y63991
X18311Y63301
X18671Y63601
X18371Y64781
X18411Y65251
X17861Y65231
X17781Y66601
X18201Y66721
X18131Y67081
X18411Y67311
X18751Y67651
X19381Y67611
X19301Y68061
X19741Y68191
X20241Y67921
X20601Y67881
X20921Y68101
X21411Y68131
X21471Y67721
X21901Y67891
X21171Y65201
X19781Y61821
X19541Y61551
X19271Y61311
X18991Y61071
X18201Y61301
X18141Y61681
X17841Y61391
X17851Y62011
X18141Y62481
X18771Y62091
X18754Y59724
X17791Y59871
X17441Y60001
X16941Y59821
X16901Y60331
X17241Y60511
X16191Y59351
X15051Y59281
X15011Y59801
X14381Y58881
X13931Y58961
X10661Y59468
X10671Y59882
X10307Y59931
X10297Y59537
X9943Y60030
X11111Y59941
X8968Y60669
X9311Y55061
Y54311
X9801Y54325
Y53888
X9311Y53561
X9801Y54768
X10961Y54811
X10641Y55331
X11715Y55414
X11991Y54873
X12030Y54361
X11304Y54151
Y53401
X8501Y55111
X8031
X7571Y55101
X14641Y55141
X15015
X15485
X15991Y54861
X16061Y55396
X16311Y54311
X16901Y54325
Y53888
Y54768
X16311Y53561
X18561
Y54311
X19081Y54351
X18122Y55472
X21721Y55131
X21421Y59431
X21081Y59261
X20821Y58976
X21221Y59771
X21991Y60966
X16281Y65291
X15641Y65431
X15691Y66581
X15961Y67221
X15851Y67611
Y67991
X14401Y68061
X13691Y67411
X13971Y66971
X14551Y66581
X16451Y66941
X17861Y67583
X12421Y66191
X10941Y66751
X10031Y65741
X9361Y68221
X6751Y68719
X22221Y68111
X22501Y67861
X22901Y67751
X22851Y68111
X23341Y67771
X23311Y67411
X24371Y67271
X24421Y67731
X24091Y67911
X24325Y66701
X24201Y66321
X24211Y65211
X24371Y64631
X24711Y64271
X24801Y63921
X24531Y63641
X24231Y63201
X24481Y62881
X24841Y62831
X24621Y62541
X24991Y62251
X24781Y61941
X24991Y61641
X24651Y61091
X24071Y61221
X22341Y61331
X23581Y59341
X23331Y59081
X23291Y58691
X23811Y59061
X24361Y59121
X24721
X25541Y58881
X25901Y58871
X25871Y57781
X25017Y57491
X23206
X23101Y56491
X22461Y56391
X22581Y55141
X22111
X23311Y54751
Y54311
X23961Y54325
Y53888
Y54768
X24061Y55311
X23566Y55542
X24111Y56586
Y58397
X25521Y60001
X28851Y60011
X28921Y60611
X29321Y60491
X30361Y60241
X31051Y59741
X31131Y59041
X31741Y58121
X31833Y57598
X32512Y57835
Y57352
X32911Y57571
X32771Y56971
X31771Y56611
X30681Y57776
X32769Y58396
X33437Y58406
X33881Y59031
X33821Y60031
X34341Y60511
X35321Y60181
X36351Y60031
X36841Y60491
X36341Y59051
X35602Y58504
X35861Y55141
X36281
X36751
X37207Y55364
X37561Y55061
Y54311
Y53561
X37344Y56535
X33011Y54151
X32561Y54311
X32231Y54691
X31031Y54768
Y54325
Y53888
X30311Y53561
Y54311
X29662Y55141
X29192
X28741
X28161Y55276
X28280Y57215
X27207
X25941Y56381
X26111Y54331
X25311Y54311
X25481Y53401
X23311Y53561
X32561
X32861Y60241
X31841Y60511
X32391Y63481
Y64521
X32731Y65341
X31361
X30711Y65301
X30721Y64531
Y63491
X29131
X28771
X29081Y64511
X29041Y64971
X29561Y65311
X26751Y65541
X26691Y64981
X26491Y64451
X26291Y63801
X26221Y62811
X28301Y62331
X28261Y60761
X28831Y59051
X26761Y66241
X26461Y66031
X26181Y65801
X26201Y66701
X26561Y66611
X26221Y68021
X34031Y64521
Y63491
X35729Y63489
Y64509
X35721Y64941
X37411Y64511
Y63471
X40730Y64321
X40661Y64811
X41511
X41459Y64311
X42167Y64321
X42561Y64331
Y64821
X42181
X41705Y63366
X41764Y62441
X42561Y62431
X43091Y61881
Y61281
X42561Y59411
Y59011
X41911
Y59411
X41419Y59203
X40917Y59026
Y59400
X41744Y58051
X42020Y57077
X41390
X40701Y57067
X40809Y55650
X40297Y55659
X39854
Y53947
X40297
X40780
X41751Y53960
X42138Y53957
X42108Y54557
X41751Y54560
Y55310
X42108Y55305
X42251Y55960
X41751
X42659Y57077
X37811Y55811
X38161Y54768
Y54325
Y53888
X38341Y60221
X40611Y62461
X41409Y78406
X41916Y78528
Y78928
X42961Y78931
Y78531
Y79521
X41436Y79518
X41727Y80067
X42061Y81061
X42761Y81361
X43061Y82061
X42761Y82761
X42061Y83061
X41361Y82761
X41061Y82061
X41361Y81361
X39481Y81861
X37981Y81811
X37481
X35268Y81699
X34874
X34480
Y81305
Y80912
X34874
X35268
Y81305
X34874
X34603Y82485
X33994Y80625
X33341Y80301
X33201Y79381
X33871Y78831
X36035Y80413
X32191Y81931
X31841Y81921
Y82341
X31831Y82771
X32191Y82761
X30891Y82741
Y82321
Y81931
X30041Y81941
X29671
X29341
X29331Y82301
X29671Y82311
Y82671
X29341
X30021Y82741
X27611Y82701
X27401Y79011
X27061Y78061
X28021Y78071
X28351Y77891
Y77351
X28061Y77061
X27061
X26061
X25626Y76881
Y77281
X25226
X24826
Y76881
Y76481
Y76081
X24426
X24026
Y76481
X24426
Y76881
X24026
Y77281
X24426
X23561Y77061
X23551Y76581
X23561Y76061
X23751Y75351
Y75061
Y74771
X24055
X24359
X24663
X24967
X25271
X24831Y75221
X24311
X25226Y76081
Y76481
Y76881
X25626Y76481
Y76081
X26061Y76061
X26551Y75881
X26631Y75521
X26341
Y75109
Y74696
Y74284
Y73871
X26631Y73861
X26771Y73221
X27181Y73241
X27974Y73287
X28063Y73703
X27351Y73951
Y74274
Y74686
Y75099
Y75511
X27061Y76061
X27921Y75891
X28631Y76481
X26061Y78061
X25061
X24061
X23141
X22941Y79081
X22981Y79741
X24061Y79061
X25041Y79081
X23031Y76721
X22813Y73379
X22674Y73014
X22141Y72271
X22177Y73996
X24075Y73129
X24031Y72161
X24391
X25261Y71741
X24511Y70868
X24561Y69571
X23211Y70031
X22811Y69671
X22451Y69771
X22091Y69181
X23381Y70631
X26224Y70208
X26617Y69864
X26872Y69606
X27157Y69380
X27344Y69872
X27551Y70315
X27917Y71107
X28897Y71067
X28917Y71437
X28887Y71827
X27325Y71890
X26765Y71999
X26460Y72206
X26262Y72854
X29971Y71281
Y70881
Y70401
X31091Y70471
Y70891
X32891Y71961
X32661Y72871
X28551Y69741
X22031Y81181
X22021Y81571
X22041Y81981
X20701Y81961
Y81571
Y81191
X18031Y81181
X18021Y81571
X18041Y81981
X16701Y81961
Y81571
Y81191
X16741Y80051
X18041Y80031
X18466Y78651
X20081Y78431
X19947Y77487
X18973Y77261
X18983Y75961
X18603Y75971
X19381Y74731
X19811Y73161
X21400Y73169
X21151Y72291
X21651Y72281
X20651Y72251
X20351Y70641
X21031Y70621
X19821Y70061
X19571Y71201
X18721Y69591
X18351
X15031Y70581
X14751Y71231
X14791Y71621
X15171Y73031
X13701Y72471
X11971Y73051
X12016Y75581
X11720
X11426Y75582
X10961Y75301
X10261Y75021
X10293Y75709
X10579Y76959
X10921Y77521
X11461Y77681
Y77281
Y76881
X11861
X12261
Y77281
Y77681
Y78081
X11861
Y77681
Y77281
X12661
Y77681
Y78081
X13061
Y77681
Y77281
Y76881
X12661
X12251Y76041
X11761Y76031
X12311Y75581
X12606
X14309Y75718
X14914Y75317
X15451Y75591
X15746
X16041
X16337
X16632
X16281Y76021
X15751Y76031
X15871Y76881
X16271
Y77281
Y77681
Y78081
X15871
Y77681
Y77281
X15471
Y76881
Y77681
Y78081
X14931Y78431
X14456Y78651
X14941Y79301
X15031Y79931
X14041Y80031
X14031Y81181
X14021Y81571
X14041Y81981
X12701Y81961
Y81571
Y81191
X12741Y80051
X11081Y79951
X10951Y79281
X10921Y78431
X10471Y78651
X11461Y78081
X9076
X8676
X8276
Y77681
Y77281
Y76881
X7876
X7476
Y77281
X7876
Y77681
X7476
Y78081
X7876
X7331Y78671
X6721Y78801
X8676Y77681
X9076
Y77281
X8676
Y76881
X9076
X8271Y76031
X7781
Y75581
X8181
X8581
X9001Y75014
X9061Y73131
X9071Y71711
X9041Y71331
X8691Y70721
X8111Y71241
X7421Y70991
X6991Y70571
X6721Y69459
X6701Y69089
X7481
X7831Y69911
X8381Y72271
X7157Y74111
X7381Y75581
X7282Y76035
X10101Y73881
X10041Y80031
X10031Y81181
X10021Y81571
X10041Y81981
X8701Y81961
Y81571
Y81191
X8741Y80051
X14931Y77521
X14614Y76968
X16671Y76881
Y77281
Y77681
Y78081
X17071
Y77681
Y77281
Y76881
X17271Y75251
X21461Y75401
X21879Y77865
X5836Y78076
X5751Y76664
X6251Y75017
Y73206
X5481Y72611
X5691Y72071
X5821Y71451
X5651Y70851
X5561Y69571
X4451Y69561
X3041Y69681
X3641Y72521
X3011Y74451
X3081Y75951
Y76381
X5346Y74111
X4561Y79931
X4061Y81061
X4761Y81361
X5061Y82061
X4761Y82761
X4061Y83061
X3361Y82761
X3061Y82061
X3361Y81361
T04
X32771Y41774
X7121Y39511
X32771Y82274
X7121Y80011
T05
X9274Y19195
Y59695
T06
X39881Y20041
X31721Y29711
X31691Y31031
X31161Y31421
X31151Y32271
X31581Y31961
X29821Y32451
X29831Y33001
X29331Y33181
X28851Y33251
X28561Y33731
Y34151
Y34631
X28941Y35181
X29161Y29931
X39041Y26831
X42111Y29061
X39031Y41311
X39881Y60541
X39041Y67331
X42111Y69561
X39031Y81811
X28941Y75681
X28561Y75131
Y74651
Y74231
X28851Y73751
X29331Y73681
X29831Y73501
X29821Y72951
X31151Y72771
X31581Y72461
X31161Y71921
X31691Y71531
X31721Y70211
X29161Y70431
T07
X35120Y38614
X35140Y39411
X35120Y79114
X35140Y79911
T08
X10571Y16621
Y17621
X11571
Y16621
X12571
Y17621
X13571
Y16621
X14571
Y17621
X15571
Y16621
X16571
Y17621
X17571
Y16621
X18571
Y17621
X19571
Y16621
X20571
Y17621
X21571
Y16621
X14571Y20861
Y21861
X13571
Y20861
X12571
Y21861
X11571
Y20861
X10571
Y21861
Y23711
X11571
X12571
X13571
X14571
Y24711
X13571
X12571
X11571
X10571
X19941Y34591
X20941
X21941
Y35591
X20941
X19941
X22941
Y34591
X21571Y57121
X20571
X19571
X18571
X17571
X16571
X15571
X14571
X13571
X12571
X11571
X10571
Y58121
X11571
X12571
X13571
X14571
X15571
X16571
X17571
X18571
X19571
X20571
X21571
X14571Y61361
Y62361
X13571
Y61361
X12571
Y62361
X11571
Y61361
X10571
Y62361
Y64211
X11571
X12571
X13571
X14571
Y65211
X13571
X12571
X11571
X10571
X22941Y75091
Y76091
X21941
Y75091
X20941
Y76091
X19941
Y75091
T09
X6131Y25061
Y26053
X6921
Y25061
X6131Y65561
Y66553
X6921
Y65561
T10
X7111Y4011
X8111
X9111
X10111
X13011
X14011
X15011
X16011
X19061
X20061
X21061
X22061
X24161
X25161
X26161
X27161
X30061
X31061
X32061
X33061
X36011
X37011
X38011
X39011
X41741Y7111
Y8111
Y9111
Y10111
X39211Y17111
X38211
X38141Y21191
X39141
X36011
X35011
X32861
X31861
X29691
X28691
X35211Y17111
X36211
X37211
X3421Y33021
Y34801
X28131Y28051
X29131
X30131
X32236
X33236
X34236
X36341
X37341
Y25651
X36341
X34236
X33236
X32236
X30131
X29131
X28131
X38341
Y28051
X38011Y44511
X39011
X41741Y47611
Y48611
Y49611
Y50611
X37011Y44511
X36011
X33061
X32061
X31061
X30061
X27161
X26161
X25161
X24161
X22061
X21061
X20061
X19061
X16011
X15011
X14011
X13011
X10111
X9111
X8111
X7111
X4801Y38011
X3801
X28691Y61691
X29691
X31861
X32861
X35011
X36011
X36211Y57611
X35211
X37211
X37341Y66151
X36341
X34236
X33236
X32236
X30131
X29131
X28131
Y68551
X29131
X30131
X32236
X33236
X34236
X36341
X37341
X38341
Y66151
X38141Y61691
X39141
X39211Y57611
X38211
X3421Y73521
Y75301
X3801Y78511
X4801
T11
X40267Y26386
Y28386
Y30386
Y32386
Y34386
Y36386
X25361Y41081
X23361
X21361
X19361
X17361
X15361
X13361
X11361
X9361
X7361
X40267Y66886
Y68886
Y70886
Y72886
Y74886
Y76886
X25361Y81581
X23361
X21361
X19361
X17361
X15361
X13361
X11361
X9361
X7361
T12
X4401Y32531
Y35291
Y73031
Y75791
T13
X41064Y17549
X42404
X37071Y31101
X35051
X33711
Y36401
X35051
X37071
X38411
Y31101
X41064Y22849
X42404
Y58049
X41064
Y63349
X42404
X38411Y71601
Y76901
X37071
X35051
X33711
Y71601
X35051
X37071
T14
X5061Y23191
Y27923
Y63691
Y68423
T15
X1350Y1350
X4061Y4061
X42061
X44754Y1380
X42061Y41561
Y44561
X4061
Y41561
X42061Y82061
X4061
X1350Y84739
X44683Y84850
T16
X24111Y16991
X4041Y14251
X6251Y33611
X4041Y54751
X24111Y57491
X6251Y74111
M30
