G04*
G04 #@! TF.GenerationSoftware,Altium Limited,Altium Designer,19.1.5 (86)*
G04*
G04 Layer_Color=8388736*
%FSLAX25Y25*%
%MOIN*%
G70*
G01*
G75*
%ADD12C,0.01000*%
%ADD89C,0.00800*%
%ADD92C,0.00600*%
%ADD99C,0.01500*%
%ADD168C,0.00100*%
%ADD170C,0.00500*%
G54D12*
X0Y-9217D02*
X6000Y-7216D01*
X0Y-9217D02*
X6000Y-11216D01*
X454610D02*
X460610Y-9217D01*
X454610Y-7216D02*
X460610Y-9217D01*
X0D02*
X211610D01*
X245800D02*
X460610D01*
X0Y-10216D02*
Y-1500D01*
X460610Y-10216D02*
Y0D01*
X472610Y6000D02*
X474610Y0D01*
X476610Y6000D01*
X474610Y860974D02*
X476610Y854974D01*
X472610D02*
X474610Y860974D01*
Y0D02*
Y411292D01*
Y446482D02*
Y860974D01*
X460610Y0D02*
X475610D01*
X460610Y860974D02*
X475610D01*
X607509Y434998D02*
Y429000D01*
X611507D01*
X614506Y432999D02*
X616506D01*
X617506Y431999D01*
Y429000D01*
X614506D01*
X613507Y430000D01*
X614506Y430999D01*
X617506D01*
X619505Y432999D02*
Y430000D01*
X620505Y429000D01*
X623504D01*
Y428000D01*
X622504Y427001D01*
X621504D01*
X623504Y429000D02*
Y432999D01*
X628502Y429000D02*
X626503D01*
X625503Y430000D01*
Y431999D01*
X626503Y432999D01*
X628502D01*
X629502Y431999D01*
Y430999D01*
X625503D01*
X631501Y432999D02*
Y429000D01*
Y430999D01*
X632501Y431999D01*
X633500Y432999D01*
X634500D01*
X611507Y278998D02*
X609508Y277998D01*
X607509Y275999D01*
Y274000D01*
X608508Y273000D01*
X610508D01*
X611507Y274000D01*
Y274999D01*
X610508Y275999D01*
X607509D01*
X611507Y302998D02*
X607509D01*
Y299999D01*
X609508Y300999D01*
X610508D01*
X611507Y299999D01*
Y298000D01*
X610508Y297000D01*
X608508D01*
X607509Y298000D01*
X610508Y321000D02*
Y326998D01*
X607509Y323999D01*
X611507D01*
X607509Y349998D02*
X608508Y350998D01*
X610508D01*
X611507Y349998D01*
Y348999D01*
X610508Y347999D01*
X609508D01*
X610508D01*
X611507Y346999D01*
Y346000D01*
X610508Y345000D01*
X608508D01*
X607509Y346000D01*
X611507Y369000D02*
X607509D01*
X611507Y372999D01*
Y373998D01*
X610508Y374998D01*
X608508D01*
X607509Y373998D01*
Y393000D02*
X609508D01*
X608508D01*
Y398998D01*
X607509Y397998D01*
X648500Y429000D02*
Y434998D01*
X652499Y429000D01*
Y434998D01*
X655498Y432999D02*
X657497D01*
X658497Y431999D01*
Y429000D01*
X655498D01*
X654498Y430000D01*
X655498Y430999D01*
X658497D01*
X660496Y429000D02*
Y432999D01*
X661496D01*
X662496Y431999D01*
Y429000D01*
Y431999D01*
X663495Y432999D01*
X664495Y431999D01*
Y429000D01*
X669493D02*
X667494D01*
X666494Y430000D01*
Y431999D01*
X667494Y432999D01*
X669493D01*
X670493Y431999D01*
Y430999D01*
X666494D01*
X648500Y254998D02*
Y249000D01*
X651499D01*
X652499Y250000D01*
Y250999D01*
X651499Y251999D01*
X648500D01*
X651499D01*
X652499Y252999D01*
Y253998D01*
X651499Y254998D01*
X648500D01*
X655498Y249000D02*
X657497D01*
X658497Y250000D01*
Y251999D01*
X657497Y252999D01*
X655498D01*
X654498Y251999D01*
Y250000D01*
X655498Y249000D01*
X661496Y253998D02*
Y252999D01*
X660496D01*
X662496D01*
X661496D01*
Y250000D01*
X662496Y249000D01*
X666494Y253998D02*
Y252999D01*
X665494D01*
X667494D01*
X666494D01*
Y250000D01*
X667494Y249000D01*
X671493D02*
X673492D01*
X674492Y250000D01*
Y251999D01*
X673492Y252999D01*
X671493D01*
X670493Y251999D01*
Y250000D01*
X671493Y249000D01*
X676491D02*
Y252999D01*
X677491D01*
X678490Y251999D01*
Y249000D01*
Y251999D01*
X679490Y252999D01*
X680490Y251999D01*
Y249000D01*
X691486Y254998D02*
X689487D01*
X688487Y253998D01*
Y250000D01*
X689487Y249000D01*
X691486D01*
X692486Y250000D01*
Y253998D01*
X691486Y254998D01*
X694485Y252999D02*
X696485Y249000D01*
X698484Y252999D01*
X703482Y249000D02*
X701483D01*
X700483Y250000D01*
Y251999D01*
X701483Y252999D01*
X703482D01*
X704482Y251999D01*
Y250999D01*
X700483D01*
X706481Y252999D02*
Y249000D01*
Y250999D01*
X707481Y251999D01*
X708481Y252999D01*
X709480D01*
X712479Y249000D02*
X714479D01*
X713479D01*
Y254998D01*
X712479D01*
X718477Y252999D02*
X720477D01*
X721476Y251999D01*
Y249000D01*
X718477D01*
X717478Y250000D01*
X718477Y250999D01*
X721476D01*
X723476Y252999D02*
Y250000D01*
X724475Y249000D01*
X727474D01*
Y248000D01*
X726475Y247001D01*
X725475D01*
X727474Y249000D02*
Y252999D01*
X648500Y266998D02*
Y261000D01*
X651499D01*
X652499Y262000D01*
Y262999D01*
X651499Y263999D01*
X648500D01*
X651499D01*
X652499Y264999D01*
Y265998D01*
X651499Y266998D01*
X648500D01*
X655498Y261000D02*
X657497D01*
X658497Y262000D01*
Y263999D01*
X657497Y264999D01*
X655498D01*
X654498Y263999D01*
Y262000D01*
X655498Y261000D01*
X661496Y265998D02*
Y264999D01*
X660496D01*
X662496D01*
X661496D01*
Y262000D01*
X662496Y261000D01*
X666494Y265998D02*
Y264999D01*
X665494D01*
X667494D01*
X666494D01*
Y262000D01*
X667494Y261000D01*
X671493D02*
X673492D01*
X674492Y262000D01*
Y263999D01*
X673492Y264999D01*
X671493D01*
X670493Y263999D01*
Y262000D01*
X671493Y261000D01*
X676491D02*
Y264999D01*
X677491D01*
X678490Y263999D01*
Y261000D01*
Y263999D01*
X679490Y264999D01*
X680490Y263999D01*
Y261000D01*
X692486Y265998D02*
X691486Y266998D01*
X689487D01*
X688487Y265998D01*
Y264999D01*
X689487Y263999D01*
X691486D01*
X692486Y262999D01*
Y262000D01*
X691486Y261000D01*
X689487D01*
X688487Y262000D01*
X695485Y261000D02*
X697484D01*
X698484Y262000D01*
Y263999D01*
X697484Y264999D01*
X695485D01*
X694485Y263999D01*
Y262000D01*
X695485Y261000D01*
X700483D02*
X702483D01*
X701483D01*
Y266998D01*
X700483D01*
X709480D02*
Y261000D01*
X706481D01*
X705482Y262000D01*
Y263999D01*
X706481Y264999D01*
X709480D01*
X714479Y261000D02*
X712479D01*
X711480Y262000D01*
Y263999D01*
X712479Y264999D01*
X714479D01*
X715478Y263999D01*
Y262999D01*
X711480D01*
X717478Y264999D02*
Y261000D01*
Y262999D01*
X718477Y263999D01*
X719477Y264999D01*
X720477D01*
X648500Y278998D02*
Y273000D01*
X651499D01*
X652499Y274000D01*
Y274999D01*
X651499Y275999D01*
X648500D01*
X651499D01*
X652499Y276999D01*
Y277998D01*
X651499Y278998D01*
X648500D01*
X655498Y273000D02*
X657497D01*
X658497Y274000D01*
Y275999D01*
X657497Y276999D01*
X655498D01*
X654498Y275999D01*
Y274000D01*
X655498Y273000D01*
X661496Y277998D02*
Y276999D01*
X660496D01*
X662496D01*
X661496D01*
Y274000D01*
X662496Y273000D01*
X666494Y277998D02*
Y276999D01*
X665494D01*
X667494D01*
X666494D01*
Y274000D01*
X667494Y273000D01*
X671493D02*
X673492D01*
X674492Y274000D01*
Y275999D01*
X673492Y276999D01*
X671493D01*
X670493Y275999D01*
Y274000D01*
X671493Y273000D01*
X676491D02*
Y276999D01*
X677491D01*
X678490Y275999D01*
Y273000D01*
Y275999D01*
X679490Y276999D01*
X680490Y275999D01*
Y273000D01*
X688487Y278998D02*
Y273000D01*
X692486D01*
X695485Y276999D02*
X697484D01*
X698484Y275999D01*
Y273000D01*
X695485D01*
X694485Y274000D01*
X695485Y274999D01*
X698484D01*
X700483Y276999D02*
Y274000D01*
X701483Y273000D01*
X704482D01*
Y272000D01*
X703482Y271001D01*
X702483D01*
X704482Y273000D02*
Y276999D01*
X709480Y273000D02*
X707481D01*
X706481Y274000D01*
Y275999D01*
X707481Y276999D01*
X709480D01*
X710480Y275999D01*
Y274999D01*
X706481D01*
X712479Y276999D02*
Y273000D01*
Y274999D01*
X713479Y275999D01*
X714479Y276999D01*
X715478D01*
X648500Y290998D02*
Y285000D01*
X651499D01*
X652499Y286000D01*
Y289998D01*
X651499Y290998D01*
X648500D01*
X654498Y285000D02*
X656497D01*
X655498D01*
Y288999D01*
X654498D01*
X662496Y285000D02*
X660496D01*
X659496Y286000D01*
Y287999D01*
X660496Y288999D01*
X662496D01*
X663495Y287999D01*
Y286999D01*
X659496D01*
X665494Y285000D02*
X667494D01*
X666494D01*
Y290998D01*
X665494D01*
X673492Y285000D02*
X671493D01*
X670493Y286000D01*
Y287999D01*
X671493Y288999D01*
X673492D01*
X674492Y287999D01*
Y286999D01*
X670493D01*
X680490Y288999D02*
X677491D01*
X676491Y287999D01*
Y286000D01*
X677491Y285000D01*
X680490D01*
X683489Y289998D02*
Y288999D01*
X682489D01*
X684488D01*
X683489D01*
Y286000D01*
X684488Y285000D01*
X687487Y288999D02*
Y285000D01*
Y286999D01*
X688487Y287999D01*
X689487Y288999D01*
X690486D01*
X693485Y285000D02*
X695485D01*
X694485D01*
Y288999D01*
X693485D01*
X702483D02*
X699483D01*
X698484Y287999D01*
Y286000D01*
X699483Y285000D01*
X702483D01*
X708481D02*
X704482D01*
X708481Y288999D01*
Y289998D01*
X707481Y290998D01*
X705482D01*
X704482Y289998D01*
X648500Y302998D02*
Y297000D01*
X651499D01*
X652499Y298000D01*
Y298999D01*
X651499Y299999D01*
X648500D01*
X651499D01*
X652499Y300999D01*
Y301998D01*
X651499Y302998D01*
X648500D01*
X655498Y297000D02*
X657497D01*
X658497Y298000D01*
Y299999D01*
X657497Y300999D01*
X655498D01*
X654498Y299999D01*
Y298000D01*
X655498Y297000D01*
X661496Y301998D02*
Y300999D01*
X660496D01*
X662496D01*
X661496D01*
Y298000D01*
X662496Y297000D01*
X675491Y301998D02*
X674492Y302998D01*
X672492D01*
X671493Y301998D01*
Y298000D01*
X672492Y297000D01*
X674492D01*
X675491Y298000D01*
Y299999D01*
X673492D01*
X677491Y297000D02*
Y302998D01*
X681489Y297000D01*
Y302998D01*
X683489D02*
Y297000D01*
X686488D01*
X687487Y298000D01*
Y301998D01*
X686488Y302998D01*
X683489D01*
X648500Y314998D02*
Y309000D01*
X651499D01*
X652499Y310000D01*
Y313998D01*
X651499Y314998D01*
X648500D01*
X654498Y309000D02*
X656497D01*
X655498D01*
Y312999D01*
X654498D01*
X662496Y309000D02*
X660496D01*
X659496Y310000D01*
Y311999D01*
X660496Y312999D01*
X662496D01*
X663495Y311999D01*
Y310999D01*
X659496D01*
X665494Y309000D02*
X667494D01*
X666494D01*
Y314998D01*
X665494D01*
X673492Y309000D02*
X671493D01*
X670493Y310000D01*
Y311999D01*
X671493Y312999D01*
X673492D01*
X674492Y311999D01*
Y310999D01*
X670493D01*
X680490Y312999D02*
X677491D01*
X676491Y311999D01*
Y310000D01*
X677491Y309000D01*
X680490D01*
X683489Y313998D02*
Y312999D01*
X682489D01*
X684488D01*
X683489D01*
Y310000D01*
X684488Y309000D01*
X687487Y312999D02*
Y309000D01*
Y310999D01*
X688487Y311999D01*
X689487Y312999D01*
X690486D01*
X693485Y309000D02*
X695485D01*
X694485D01*
Y312999D01*
X693485D01*
X702483D02*
X699483D01*
X698484Y311999D01*
Y310000D01*
X699483Y309000D01*
X702483D01*
X713479D02*
Y314998D01*
X710480Y311999D01*
X714479D01*
X648500Y321000D02*
Y326998D01*
X650499Y324999D01*
X652499Y326998D01*
Y321000D01*
X654498D02*
X656497D01*
X655498D01*
Y324999D01*
X654498D01*
X663495Y326998D02*
Y321000D01*
X660496D01*
X659496Y322000D01*
Y323999D01*
X660496Y324999D01*
X663495D01*
X665494Y321000D02*
X667494D01*
X666494D01*
Y326998D01*
X665494Y325998D01*
X648500Y338998D02*
Y333000D01*
X651499D01*
X652499Y334000D01*
Y337998D01*
X651499Y338998D01*
X648500D01*
X654498Y333000D02*
X656497D01*
X655498D01*
Y336999D01*
X654498D01*
X662496Y333000D02*
X660496D01*
X659496Y334000D01*
Y335999D01*
X660496Y336999D01*
X662496D01*
X663495Y335999D01*
Y334999D01*
X659496D01*
X665494Y333000D02*
X667494D01*
X666494D01*
Y338998D01*
X665494D01*
X673492Y333000D02*
X671493D01*
X670493Y334000D01*
Y335999D01*
X671493Y336999D01*
X673492D01*
X674492Y335999D01*
Y334999D01*
X670493D01*
X680490Y336999D02*
X677491D01*
X676491Y335999D01*
Y334000D01*
X677491Y333000D01*
X680490D01*
X683489Y337998D02*
Y336999D01*
X682489D01*
X684488D01*
X683489D01*
Y334000D01*
X684488Y333000D01*
X687487Y336999D02*
Y333000D01*
Y334999D01*
X688487Y335999D01*
X689487Y336999D01*
X690486D01*
X693485Y333000D02*
X695485D01*
X694485D01*
Y336999D01*
X693485D01*
X702483D02*
X699483D01*
X698484Y335999D01*
Y334000D01*
X699483Y333000D01*
X702483D01*
X714479Y338998D02*
X710480D01*
Y335999D01*
X712479Y336999D01*
X713479D01*
X714479Y335999D01*
Y334000D01*
X713479Y333000D01*
X711480D01*
X710480Y334000D01*
X648500Y345000D02*
Y350998D01*
X651499D01*
X652499Y349998D01*
Y347999D01*
X651499Y346999D01*
X648500D01*
X655498Y345000D02*
X657497D01*
X658497Y346000D01*
Y347999D01*
X657497Y348999D01*
X655498D01*
X654498Y347999D01*
Y346000D01*
X655498Y345000D01*
X660496Y348999D02*
Y346000D01*
X661496Y345000D01*
X662496Y346000D01*
X663495Y345000D01*
X664495Y346000D01*
Y348999D01*
X669493Y345000D02*
X667494D01*
X666494Y346000D01*
Y347999D01*
X667494Y348999D01*
X669493D01*
X670493Y347999D01*
Y346999D01*
X666494D01*
X672492Y348999D02*
Y345000D01*
Y346999D01*
X673492Y347999D01*
X674492Y348999D01*
X675491D01*
X684488Y345000D02*
Y350998D01*
X687487D01*
X688487Y349998D01*
Y347999D01*
X687487Y346999D01*
X684488D01*
X690486Y345000D02*
X692486D01*
X691486D01*
Y350998D01*
X690486D01*
X696485Y348999D02*
X698484D01*
X699483Y347999D01*
Y345000D01*
X696485D01*
X695485Y346000D01*
X696485Y346999D01*
X699483D01*
X701483Y345000D02*
Y348999D01*
X704482D01*
X705482Y347999D01*
Y345000D01*
X710480D02*
X708481D01*
X707481Y346000D01*
Y347999D01*
X708481Y348999D01*
X710480D01*
X711480Y347999D01*
Y346999D01*
X707481D01*
X648500Y362998D02*
Y357000D01*
X651499D01*
X652499Y358000D01*
Y361998D01*
X651499Y362998D01*
X648500D01*
X654498Y357000D02*
X656497D01*
X655498D01*
Y360999D01*
X654498D01*
X662496Y357000D02*
X660496D01*
X659496Y358000D01*
Y359999D01*
X660496Y360999D01*
X662496D01*
X663495Y359999D01*
Y358999D01*
X659496D01*
X665494Y357000D02*
X667494D01*
X666494D01*
Y362998D01*
X665494D01*
X673492Y357000D02*
X671493D01*
X670493Y358000D01*
Y359999D01*
X671493Y360999D01*
X673492D01*
X674492Y359999D01*
Y358999D01*
X670493D01*
X680490Y360999D02*
X677491D01*
X676491Y359999D01*
Y358000D01*
X677491Y357000D01*
X680490D01*
X683489Y361998D02*
Y360999D01*
X682489D01*
X684488D01*
X683489D01*
Y358000D01*
X684488Y357000D01*
X687487Y360999D02*
Y357000D01*
Y358999D01*
X688487Y359999D01*
X689487Y360999D01*
X690486D01*
X693485Y357000D02*
X695485D01*
X694485D01*
Y360999D01*
X693485D01*
X702483D02*
X699483D01*
X698484Y359999D01*
Y358000D01*
X699483Y357000D01*
X702483D01*
X704482Y361998D02*
X705482Y362998D01*
X707481D01*
X708481Y361998D01*
Y360999D01*
X707481Y359999D01*
X706481D01*
X707481D01*
X708481Y358999D01*
Y358000D01*
X707481Y357000D01*
X705482D01*
X704482Y358000D01*
X648500Y374998D02*
X652499D01*
X650499D01*
Y369000D01*
X655498D02*
X657497D01*
X658497Y370000D01*
Y371999D01*
X657497Y372999D01*
X655498D01*
X654498Y371999D01*
Y370000D01*
X655498Y369000D01*
X660496Y367001D02*
Y372999D01*
X663495D01*
X664495Y371999D01*
Y370000D01*
X663495Y369000D01*
X660496D01*
X676491Y373998D02*
X675491Y374998D01*
X673492D01*
X672492Y373998D01*
Y370000D01*
X673492Y369000D01*
X675491D01*
X676491Y370000D01*
Y371999D01*
X674492D01*
X678490Y369000D02*
Y374998D01*
X682489Y369000D01*
Y374998D01*
X684488D02*
Y369000D01*
X687487D01*
X688487Y370000D01*
Y373998D01*
X687487Y374998D01*
X684488D01*
X648500Y386998D02*
Y381000D01*
X651499D01*
X652499Y382000D01*
Y385998D01*
X651499Y386998D01*
X648500D01*
X654498Y381000D02*
X656497D01*
X655498D01*
Y384999D01*
X654498D01*
X662496Y381000D02*
X660496D01*
X659496Y382000D01*
Y383999D01*
X660496Y384999D01*
X662496D01*
X663495Y383999D01*
Y382999D01*
X659496D01*
X665494Y381000D02*
X667494D01*
X666494D01*
Y386998D01*
X665494D01*
X673492Y381000D02*
X671493D01*
X670493Y382000D01*
Y383999D01*
X671493Y384999D01*
X673492D01*
X674492Y383999D01*
Y382999D01*
X670493D01*
X680490Y384999D02*
X677491D01*
X676491Y383999D01*
Y382000D01*
X677491Y381000D01*
X680490D01*
X683489Y385998D02*
Y384999D01*
X682489D01*
X684488D01*
X683489D01*
Y382000D01*
X684488Y381000D01*
X687487Y384999D02*
Y381000D01*
Y382999D01*
X688487Y383999D01*
X689487Y384999D01*
X690486D01*
X693485Y381000D02*
X695485D01*
X694485D01*
Y384999D01*
X693485D01*
X702483D02*
X699483D01*
X698484Y383999D01*
Y382000D01*
X699483Y381000D01*
X702483D01*
X704482D02*
X706481D01*
X705482D01*
Y386998D01*
X704482Y385998D01*
X648500Y398998D02*
X652499D01*
X650499D01*
Y393000D01*
X655498D02*
X657497D01*
X658497Y394000D01*
Y395999D01*
X657497Y396999D01*
X655498D01*
X654498Y395999D01*
Y394000D01*
X655498Y393000D01*
X660496Y391001D02*
Y396999D01*
X663495D01*
X664495Y395999D01*
Y394000D01*
X663495Y393000D01*
X660496D01*
X672492Y398998D02*
Y393000D01*
X676491D01*
X679490Y396999D02*
X681489D01*
X682489Y395999D01*
Y393000D01*
X679490D01*
X678490Y394000D01*
X679490Y394999D01*
X682489D01*
X684488Y396999D02*
Y394000D01*
X685488Y393000D01*
X688487D01*
Y392000D01*
X687487Y391001D01*
X686488D01*
X688487Y393000D02*
Y396999D01*
X693485Y393000D02*
X691486D01*
X690486Y394000D01*
Y395999D01*
X691486Y396999D01*
X693485D01*
X694485Y395999D01*
Y394999D01*
X690486D01*
X696485Y396999D02*
Y393000D01*
Y394999D01*
X697484Y395999D01*
X698484Y396999D01*
X699483D01*
X648500Y410998D02*
X652499D01*
X650499D01*
Y405000D01*
X655498D02*
X657497D01*
X658497Y406000D01*
Y407999D01*
X657497Y408999D01*
X655498D01*
X654498Y407999D01*
Y406000D01*
X655498Y405000D01*
X660496Y403001D02*
Y408999D01*
X663495D01*
X664495Y407999D01*
Y406000D01*
X663495Y405000D01*
X660496D01*
X676491Y409998D02*
X675491Y410998D01*
X673492D01*
X672492Y409998D01*
Y408999D01*
X673492Y407999D01*
X675491D01*
X676491Y406999D01*
Y406000D01*
X675491Y405000D01*
X673492D01*
X672492Y406000D01*
X679490Y405000D02*
X681489D01*
X682489Y406000D01*
Y407999D01*
X681489Y408999D01*
X679490D01*
X678490Y407999D01*
Y406000D01*
X679490Y405000D01*
X684488D02*
X686488D01*
X685488D01*
Y410998D01*
X684488D01*
X693485D02*
Y405000D01*
X690486D01*
X689487Y406000D01*
Y407999D01*
X690486Y408999D01*
X693485D01*
X698484Y405000D02*
X696485D01*
X695485Y406000D01*
Y407999D01*
X696485Y408999D01*
X698484D01*
X699483Y407999D01*
Y406999D01*
X695485D01*
X701483Y408999D02*
Y405000D01*
Y406999D01*
X702483Y407999D01*
X703482Y408999D01*
X704482D01*
X648500Y422998D02*
X652499D01*
X650499D01*
Y417000D01*
X655498D02*
X657497D01*
X658497Y418000D01*
Y419999D01*
X657497Y420999D01*
X655498D01*
X654498Y419999D01*
Y418000D01*
X655498Y417000D01*
X660496Y415001D02*
Y420999D01*
X663495D01*
X664495Y419999D01*
Y418000D01*
X663495Y417000D01*
X660496D01*
X675491Y422998D02*
X673492D01*
X672492Y421998D01*
Y418000D01*
X673492Y417000D01*
X675491D01*
X676491Y418000D01*
Y421998D01*
X675491Y422998D01*
X678490Y420999D02*
X680490Y417000D01*
X682489Y420999D01*
X687487Y417000D02*
X685488D01*
X684488Y418000D01*
Y419999D01*
X685488Y420999D01*
X687487D01*
X688487Y419999D01*
Y418999D01*
X684488D01*
X690486Y420999D02*
Y417000D01*
Y418999D01*
X691486Y419999D01*
X692486Y420999D01*
X693485D01*
X696485Y417000D02*
X698484D01*
X697484D01*
Y422998D01*
X696485D01*
X702483Y420999D02*
X704482D01*
X705482Y419999D01*
Y417000D01*
X702483D01*
X701483Y418000D01*
X702483Y418999D01*
X705482D01*
X707481Y420999D02*
Y418000D01*
X708481Y417000D01*
X711480D01*
Y416000D01*
X710480Y415001D01*
X709480D01*
X711480Y417000D02*
Y420999D01*
X741474Y429000D02*
Y434998D01*
X743474Y432999D01*
X745473Y434998D01*
Y429000D01*
X748472Y432999D02*
X750471D01*
X751471Y431999D01*
Y429000D01*
X748472D01*
X747472Y430000D01*
X748472Y430999D01*
X751471D01*
X754470Y433998D02*
Y432999D01*
X753471D01*
X755470D01*
X754470D01*
Y430000D01*
X755470Y429000D01*
X761468D02*
X759469D01*
X758469Y430000D01*
Y431999D01*
X759469Y432999D01*
X761468D01*
X762468Y431999D01*
Y430999D01*
X758469D01*
X764467Y432999D02*
Y429000D01*
Y430999D01*
X765467Y431999D01*
X766466Y432999D01*
X767466D01*
X770465Y429000D02*
X772464D01*
X771465D01*
Y432999D01*
X770465D01*
X776463D02*
X778463D01*
X779462Y431999D01*
Y429000D01*
X776463D01*
X775463Y430000D01*
X776463Y430999D01*
X779462D01*
X781461Y429000D02*
X783461D01*
X782461D01*
Y434998D01*
X781461D01*
X745473Y265998D02*
X744474Y266998D01*
X742474D01*
X741474Y265998D01*
Y264999D01*
X742474Y263999D01*
X744474D01*
X745473Y262999D01*
Y262000D01*
X744474Y261000D01*
X742474D01*
X741474Y262000D01*
X748472Y261000D02*
X750471D01*
X751471Y262000D01*
Y263999D01*
X750471Y264999D01*
X748472D01*
X747472Y263999D01*
Y262000D01*
X748472Y261000D01*
X753471D02*
X755470D01*
X754470D01*
Y266998D01*
X753471D01*
X762468D02*
Y261000D01*
X759469D01*
X758469Y262000D01*
Y263999D01*
X759469Y264999D01*
X762468D01*
X767466Y261000D02*
X765467D01*
X764467Y262000D01*
Y263999D01*
X765467Y264999D01*
X767466D01*
X768466Y263999D01*
Y262999D01*
X764467D01*
X770465Y264999D02*
Y261000D01*
Y262999D01*
X771465Y263999D01*
X772464Y264999D01*
X773464D01*
X782461Y261000D02*
Y266998D01*
X785460D01*
X786460Y265998D01*
Y263999D01*
X785460Y262999D01*
X782461D01*
X784460D02*
X786460Y261000D01*
X791458D02*
X789459D01*
X788459Y262000D01*
Y263999D01*
X789459Y264999D01*
X791458D01*
X792458Y263999D01*
Y262999D01*
X788459D01*
X794457Y261000D02*
X797456D01*
X798456Y262000D01*
X797456Y262999D01*
X795457D01*
X794457Y263999D01*
X795457Y264999D01*
X798456D01*
X800455Y261000D02*
X802455D01*
X801455D01*
Y264999D01*
X800455D01*
X805454Y261000D02*
X808453D01*
X809453Y262000D01*
X808453Y262999D01*
X806453D01*
X805454Y263999D01*
X806453Y264999D01*
X809453D01*
X812451Y265998D02*
Y264999D01*
X811452D01*
X813451D01*
X812451D01*
Y262000D01*
X813451Y261000D01*
X745473Y277998D02*
X744474Y278998D01*
X742474D01*
X741474Y277998D01*
Y274000D01*
X742474Y273000D01*
X744474D01*
X745473Y274000D01*
X748472Y273000D02*
X750471D01*
X751471Y274000D01*
Y275999D01*
X750471Y276999D01*
X748472D01*
X747472Y275999D01*
Y274000D01*
X748472Y273000D01*
X753471Y271001D02*
Y276999D01*
X756470D01*
X757469Y275999D01*
Y274000D01*
X756470Y273000D01*
X753471D01*
X759469Y271001D02*
Y276999D01*
X762468D01*
X763467Y275999D01*
Y274000D01*
X762468Y273000D01*
X759469D01*
X768466D02*
X766466D01*
X765467Y274000D01*
Y275999D01*
X766466Y276999D01*
X768466D01*
X769465Y275999D01*
Y274999D01*
X765467D01*
X771465Y276999D02*
Y273000D01*
Y274999D01*
X772464Y275999D01*
X773464Y276999D01*
X774464D01*
X745473Y290998D02*
X741474D01*
Y287999D01*
X743474D01*
X741474D01*
Y285000D01*
X747472D02*
Y290998D01*
X750471D01*
X751471Y289998D01*
Y287999D01*
X750471Y286999D01*
X747472D01*
X749472D02*
X751471Y285000D01*
X753471Y287999D02*
X757469D01*
X762468Y285000D02*
Y290998D01*
X759469Y287999D01*
X763467D01*
X771465Y290998D02*
X775463D01*
X773464D01*
Y285000D01*
X781461Y289998D02*
X780462Y290998D01*
X778463D01*
X777463Y289998D01*
Y286000D01*
X778463Y285000D01*
X780462D01*
X781461Y286000D01*
Y287999D01*
X779462D01*
X783461Y285000D02*
X785460D01*
X784460D01*
Y290998D01*
X783461Y289998D01*
X788459Y290998D02*
X792458D01*
Y289998D01*
X788459Y286000D01*
Y285000D01*
X794457Y289998D02*
X795457Y290998D01*
X797456D01*
X798456Y289998D01*
Y286000D01*
X797456Y285000D01*
X795457D01*
X794457Y286000D01*
Y289998D01*
X745473Y301998D02*
X744474Y302998D01*
X742474D01*
X741474Y301998D01*
Y298000D01*
X742474Y297000D01*
X744474D01*
X745473Y298000D01*
X748472Y297000D02*
X750471D01*
X751471Y298000D01*
Y299999D01*
X750471Y300999D01*
X748472D01*
X747472Y299999D01*
Y298000D01*
X748472Y297000D01*
X753471Y295001D02*
Y300999D01*
X756470D01*
X757469Y299999D01*
Y298000D01*
X756470Y297000D01*
X753471D01*
X759469Y295001D02*
Y300999D01*
X762468D01*
X763467Y299999D01*
Y298000D01*
X762468Y297000D01*
X759469D01*
X768466D02*
X766466D01*
X765467Y298000D01*
Y299999D01*
X766466Y300999D01*
X768466D01*
X769465Y299999D01*
Y298999D01*
X765467D01*
X771465Y300999D02*
Y297000D01*
Y298999D01*
X772464Y299999D01*
X773464Y300999D01*
X774464D01*
X745473Y325998D02*
X744474Y326998D01*
X742474D01*
X741474Y325998D01*
Y322000D01*
X742474Y321000D01*
X744474D01*
X745473Y322000D01*
X748472Y321000D02*
X750471D01*
X751471Y322000D01*
Y323999D01*
X750471Y324999D01*
X748472D01*
X747472Y323999D01*
Y322000D01*
X748472Y321000D01*
X753471Y319001D02*
Y324999D01*
X756470D01*
X757469Y323999D01*
Y322000D01*
X756470Y321000D01*
X753471D01*
X759469Y319001D02*
Y324999D01*
X762468D01*
X763467Y323999D01*
Y322000D01*
X762468Y321000D01*
X759469D01*
X768466D02*
X766466D01*
X765467Y322000D01*
Y323999D01*
X766466Y324999D01*
X768466D01*
X769465Y323999D01*
Y322999D01*
X765467D01*
X771465Y324999D02*
Y321000D01*
Y322999D01*
X772464Y323999D01*
X773464Y324999D01*
X774464D01*
X745473Y349998D02*
X744474Y350998D01*
X742474D01*
X741474Y349998D01*
Y346000D01*
X742474Y345000D01*
X744474D01*
X745473Y346000D01*
X748472Y345000D02*
X750471D01*
X751471Y346000D01*
Y347999D01*
X750471Y348999D01*
X748472D01*
X747472Y347999D01*
Y346000D01*
X748472Y345000D01*
X753471Y343001D02*
Y348999D01*
X756470D01*
X757469Y347999D01*
Y346000D01*
X756470Y345000D01*
X753471D01*
X759469Y343001D02*
Y348999D01*
X762468D01*
X763467Y347999D01*
Y346000D01*
X762468Y345000D01*
X759469D01*
X768466D02*
X766466D01*
X765467Y346000D01*
Y347999D01*
X766466Y348999D01*
X768466D01*
X769465Y347999D01*
Y346999D01*
X765467D01*
X771465Y348999D02*
Y345000D01*
Y346999D01*
X772464Y347999D01*
X773464Y348999D01*
X774464D01*
X745473Y362998D02*
X741474D01*
Y359999D01*
X743474D01*
X741474D01*
Y357000D01*
X747472D02*
Y362998D01*
X750471D01*
X751471Y361998D01*
Y359999D01*
X750471Y358999D01*
X747472D01*
X749472D02*
X751471Y357000D01*
X753471Y359999D02*
X757469D01*
X762468Y357000D02*
Y362998D01*
X759469Y359999D01*
X763467D01*
X771465Y362998D02*
X775463D01*
X773464D01*
Y357000D01*
X781461Y361998D02*
X780462Y362998D01*
X778463D01*
X777463Y361998D01*
Y358000D01*
X778463Y357000D01*
X780462D01*
X781461Y358000D01*
Y359999D01*
X779462D01*
X783461Y357000D02*
X785460D01*
X784460D01*
Y362998D01*
X783461Y361998D01*
X788459Y362998D02*
X792458D01*
Y361998D01*
X788459Y358000D01*
Y357000D01*
X794457Y361998D02*
X795457Y362998D01*
X797456D01*
X798456Y361998D01*
Y358000D01*
X797456Y357000D01*
X795457D01*
X794457Y358000D01*
Y361998D01*
X745473Y373998D02*
X744474Y374998D01*
X742474D01*
X741474Y373998D01*
Y370000D01*
X742474Y369000D01*
X744474D01*
X745473Y370000D01*
X748472Y369000D02*
X750471D01*
X751471Y370000D01*
Y371999D01*
X750471Y372999D01*
X748472D01*
X747472Y371999D01*
Y370000D01*
X748472Y369000D01*
X753471Y367001D02*
Y372999D01*
X756470D01*
X757469Y371999D01*
Y370000D01*
X756470Y369000D01*
X753471D01*
X759469Y367001D02*
Y372999D01*
X762468D01*
X763467Y371999D01*
Y370000D01*
X762468Y369000D01*
X759469D01*
X768466D02*
X766466D01*
X765467Y370000D01*
Y371999D01*
X766466Y372999D01*
X768466D01*
X769465Y371999D01*
Y370999D01*
X765467D01*
X771465Y372999D02*
Y369000D01*
Y370999D01*
X772464Y371999D01*
X773464Y372999D01*
X774464D01*
X745473Y386998D02*
X741474D01*
Y383999D01*
X743474D01*
X741474D01*
Y381000D01*
X747472D02*
Y386998D01*
X750471D01*
X751471Y385998D01*
Y383999D01*
X750471Y382999D01*
X747472D01*
X749472D02*
X751471Y381000D01*
X753471Y383999D02*
X757469D01*
X762468Y381000D02*
Y386998D01*
X759469Y383999D01*
X763467D01*
X771465Y386998D02*
X775463D01*
X773464D01*
Y381000D01*
X781461Y385998D02*
X780462Y386998D01*
X778463D01*
X777463Y385998D01*
Y382000D01*
X778463Y381000D01*
X780462D01*
X781461Y382000D01*
Y383999D01*
X779462D01*
X783461Y381000D02*
X785460D01*
X784460D01*
Y386998D01*
X783461Y385998D01*
X788459Y386998D02*
X792458D01*
Y385998D01*
X788459Y382000D01*
Y381000D01*
X794457Y385998D02*
X795457Y386998D01*
X797456D01*
X798456Y385998D01*
Y382000D01*
X797456Y381000D01*
X795457D01*
X794457Y382000D01*
Y385998D01*
X745473Y397998D02*
X744474Y398998D01*
X742474D01*
X741474Y397998D01*
Y394000D01*
X742474Y393000D01*
X744474D01*
X745473Y394000D01*
X748472Y393000D02*
X750471D01*
X751471Y394000D01*
Y395999D01*
X750471Y396999D01*
X748472D01*
X747472Y395999D01*
Y394000D01*
X748472Y393000D01*
X753471Y391001D02*
Y396999D01*
X756470D01*
X757469Y395999D01*
Y394000D01*
X756470Y393000D01*
X753471D01*
X759469Y391001D02*
Y396999D01*
X762468D01*
X763467Y395999D01*
Y394000D01*
X762468Y393000D01*
X759469D01*
X768466D02*
X766466D01*
X765467Y394000D01*
Y395999D01*
X766466Y396999D01*
X768466D01*
X769465Y395999D01*
Y394999D01*
X765467D01*
X771465Y396999D02*
Y393000D01*
Y394999D01*
X772464Y395999D01*
X773464Y396999D01*
X774464D01*
X745473Y409998D02*
X744474Y410998D01*
X742474D01*
X741474Y409998D01*
Y408999D01*
X742474Y407999D01*
X744474D01*
X745473Y406999D01*
Y406000D01*
X744474Y405000D01*
X742474D01*
X741474Y406000D01*
X748472Y405000D02*
X750471D01*
X751471Y406000D01*
Y407999D01*
X750471Y408999D01*
X748472D01*
X747472Y407999D01*
Y406000D01*
X748472Y405000D01*
X753471D02*
X755470D01*
X754470D01*
Y410998D01*
X753471D01*
X762468D02*
Y405000D01*
X759469D01*
X758469Y406000D01*
Y407999D01*
X759469Y408999D01*
X762468D01*
X767466Y405000D02*
X765467D01*
X764467Y406000D01*
Y407999D01*
X765467Y408999D01*
X767466D01*
X768466Y407999D01*
Y406999D01*
X764467D01*
X770465Y408999D02*
Y405000D01*
Y406999D01*
X771465Y407999D01*
X772464Y408999D01*
X773464D01*
X782461Y405000D02*
Y410998D01*
X785460D01*
X786460Y409998D01*
Y407999D01*
X785460Y406999D01*
X782461D01*
X784460D02*
X786460Y405000D01*
X791458D02*
X789459D01*
X788459Y406000D01*
Y407999D01*
X789459Y408999D01*
X791458D01*
X792458Y407999D01*
Y406999D01*
X788459D01*
X794457Y405000D02*
X797456D01*
X798456Y406000D01*
X797456Y406999D01*
X795457D01*
X794457Y407999D01*
X795457Y408999D01*
X798456D01*
X800455Y405000D02*
X802455D01*
X801455D01*
Y408999D01*
X800455D01*
X805454Y405000D02*
X808453D01*
X809453Y406000D01*
X808453Y406999D01*
X806453D01*
X805454Y407999D01*
X806453Y408999D01*
X809453D01*
X812451Y409998D02*
Y408999D01*
X811452D01*
X813451D01*
X812451D01*
Y406000D01*
X813451Y405000D01*
X827451Y434998D02*
X831450D01*
X829451D01*
Y429000D01*
X833449Y434998D02*
Y429000D01*
Y431999D01*
X834449Y432999D01*
X836448D01*
X837448Y431999D01*
Y429000D01*
X839447D02*
X841447D01*
X840447D01*
Y432999D01*
X839447D01*
X848444D02*
X845445D01*
X844446Y431999D01*
Y430000D01*
X845445Y429000D01*
X848444D01*
X850444D02*
Y434998D01*
Y430999D02*
X853443Y432999D01*
X850444Y430999D02*
X853443Y429000D01*
X856442D02*
Y432999D01*
X859441D01*
X860441Y431999D01*
Y429000D01*
X865439D02*
X863439D01*
X862440Y430000D01*
Y431999D01*
X863439Y432999D01*
X865439D01*
X866439Y431999D01*
Y430999D01*
X862440D01*
X868438Y429000D02*
X871437D01*
X872437Y430000D01*
X871437Y430999D01*
X869438D01*
X868438Y431999D01*
X869438Y432999D01*
X872437D01*
X874436Y429000D02*
X877435D01*
X878435Y430000D01*
X877435Y430999D01*
X875436D01*
X874436Y431999D01*
X875436Y432999D01*
X878435D01*
X827451Y265998D02*
X828451Y266998D01*
X830450D01*
X831450Y265998D01*
Y262000D01*
X830450Y261000D01*
X828451D01*
X827451Y262000D01*
Y265998D01*
X833449Y261000D02*
Y262000D01*
X834449D01*
Y261000D01*
X833449D01*
X841447D02*
Y266998D01*
X838448Y263999D01*
X842446D01*
X844446Y265998D02*
X845445Y266998D01*
X847445D01*
X848444Y265998D01*
Y262000D01*
X847445Y261000D01*
X845445D01*
X844446Y262000D01*
Y265998D01*
X850444Y261000D02*
Y264999D01*
X851443D01*
X852443Y263999D01*
Y261000D01*
Y263999D01*
X853443Y264999D01*
X854442Y263999D01*
Y261000D01*
X856442D02*
X858441D01*
X857442D01*
Y264999D01*
X856442D01*
X861440Y261000D02*
X863439D01*
X862440D01*
Y266998D01*
X861440D01*
X831450Y273000D02*
X827451D01*
X831450Y276999D01*
Y277998D01*
X830450Y278998D01*
X828451D01*
X827451Y277998D01*
X833449Y273000D02*
Y274000D01*
X834449D01*
Y273000D01*
X833449D01*
X838448Y277998D02*
X839447Y278998D01*
X841447D01*
X842446Y277998D01*
Y276999D01*
X841447Y275999D01*
X842446Y274999D01*
Y274000D01*
X841447Y273000D01*
X839447D01*
X838448Y274000D01*
Y274999D01*
X839447Y275999D01*
X838448Y276999D01*
Y277998D01*
X839447Y275999D02*
X841447D01*
X844446Y277998D02*
X845445Y278998D01*
X847445D01*
X848444Y277998D01*
Y274000D01*
X847445Y273000D01*
X845445D01*
X844446Y274000D01*
Y277998D01*
X850444Y273000D02*
Y276999D01*
X851443D01*
X852443Y275999D01*
Y273000D01*
Y275999D01*
X853443Y276999D01*
X854442Y275999D01*
Y273000D01*
X856442D02*
X858441D01*
X857442D01*
Y276999D01*
X856442D01*
X861440Y273000D02*
X863439D01*
X862440D01*
Y278998D01*
X861440D01*
X831450Y290998D02*
X827451D01*
Y287999D01*
X829451Y288999D01*
X830450D01*
X831450Y287999D01*
Y286000D01*
X830450Y285000D01*
X828451D01*
X827451Y286000D01*
X833449Y285000D02*
Y286000D01*
X834449D01*
Y285000D01*
X833449D01*
X838448Y289998D02*
X839447Y290998D01*
X841447D01*
X842446Y289998D01*
Y286000D01*
X841447Y285000D01*
X839447D01*
X838448Y286000D01*
Y289998D01*
X844446D02*
X845445Y290998D01*
X847445D01*
X848444Y289998D01*
Y286000D01*
X847445Y285000D01*
X845445D01*
X844446Y286000D01*
Y289998D01*
X850444Y285000D02*
Y288999D01*
X851443D01*
X852443Y287999D01*
Y285000D01*
Y287999D01*
X853443Y288999D01*
X854442Y287999D01*
Y285000D01*
X856442D02*
X858441D01*
X857442D01*
Y288999D01*
X856442D01*
X861440Y285000D02*
X863439D01*
X862440D01*
Y290998D01*
X861440D01*
X827451Y297000D02*
X829451D01*
X828451D01*
Y302998D01*
X827451Y301998D01*
X832450Y297000D02*
Y298000D01*
X833449D01*
Y297000D01*
X832450D01*
X840447D02*
Y302998D01*
X837448Y299999D01*
X841447D01*
X843446Y301998D02*
X844446Y302998D01*
X846445D01*
X847445Y301998D01*
Y298000D01*
X846445Y297000D01*
X844446D01*
X843446Y298000D01*
Y301998D01*
X849444Y297000D02*
Y300999D01*
X850444D01*
X851443Y299999D01*
Y297000D01*
Y299999D01*
X852443Y300999D01*
X853443Y299999D01*
Y297000D01*
X855442D02*
X857442D01*
X856442D01*
Y300999D01*
X855442D01*
X860441Y297000D02*
X862440D01*
X861440D01*
Y302998D01*
X860441D01*
X831450Y314998D02*
X827451D01*
Y311999D01*
X829451Y312999D01*
X830450D01*
X831450Y311999D01*
Y310000D01*
X830450Y309000D01*
X828451D01*
X827451Y310000D01*
X833449Y309000D02*
Y310000D01*
X834449D01*
Y309000D01*
X833449D01*
X838448Y313998D02*
X839447Y314998D01*
X841447D01*
X842446Y313998D01*
Y310000D01*
X841447Y309000D01*
X839447D01*
X838448Y310000D01*
Y313998D01*
X844446D02*
X845445Y314998D01*
X847445D01*
X848444Y313998D01*
Y310000D01*
X847445Y309000D01*
X845445D01*
X844446Y310000D01*
Y313998D01*
X850444Y309000D02*
Y312999D01*
X851443D01*
X852443Y311999D01*
Y309000D01*
Y311999D01*
X853443Y312999D01*
X854442Y311999D01*
Y309000D01*
X856442D02*
X858441D01*
X857442D01*
Y312999D01*
X856442D01*
X861440Y309000D02*
X863439D01*
X862440D01*
Y314998D01*
X861440D01*
X827451Y321000D02*
X829451D01*
X828451D01*
Y326998D01*
X827451Y325998D01*
X832450Y321000D02*
Y322000D01*
X833449D01*
Y321000D01*
X832450D01*
X840447D02*
Y326998D01*
X837448Y323999D01*
X841447D01*
X847445Y321000D02*
X843446D01*
X847445Y324999D01*
Y325998D01*
X846445Y326998D01*
X844446D01*
X843446Y325998D01*
X849444Y321000D02*
Y324999D01*
X850444D01*
X851443Y323999D01*
Y321000D01*
Y323999D01*
X852443Y324999D01*
X853443Y323999D01*
Y321000D01*
X855442D02*
X857442D01*
X856442D01*
Y324999D01*
X855442D01*
X860441Y321000D02*
X862440D01*
X861440D01*
Y326998D01*
X860441D01*
X827451Y337998D02*
X828451Y338998D01*
X830450D01*
X831450Y337998D01*
Y336999D01*
X830450Y335999D01*
X829451D01*
X830450D01*
X831450Y334999D01*
Y334000D01*
X830450Y333000D01*
X828451D01*
X827451Y334000D01*
X833449Y337998D02*
X834449Y338998D01*
X836448D01*
X837448Y337998D01*
Y334000D01*
X836448Y333000D01*
X834449D01*
X833449Y334000D01*
Y337998D01*
X839447Y333000D02*
Y334000D01*
X840447D01*
Y333000D01*
X839447D01*
X844446Y337998D02*
X845445Y338998D01*
X847445D01*
X848444Y337998D01*
Y334000D01*
X847445Y333000D01*
X845445D01*
X844446Y334000D01*
Y337998D01*
X850444D02*
X851443Y338998D01*
X853443D01*
X854442Y337998D01*
Y334000D01*
X853443Y333000D01*
X851443D01*
X850444Y334000D01*
Y337998D01*
X856442Y333000D02*
Y336999D01*
X857442D01*
X858441Y335999D01*
Y333000D01*
Y335999D01*
X859441Y336999D01*
X860441Y335999D01*
Y333000D01*
X862440D02*
X864439D01*
X863439D01*
Y336999D01*
X862440D01*
X867438Y333000D02*
X869438D01*
X868438D01*
Y338998D01*
X867438D01*
X827451Y345000D02*
X829451D01*
X828451D01*
Y350998D01*
X827451Y349998D01*
X832450Y345000D02*
Y346000D01*
X833449D01*
Y345000D01*
X832450D01*
X840447D02*
Y350998D01*
X837448Y347999D01*
X841447D01*
X843446Y349998D02*
X844446Y350998D01*
X846445D01*
X847445Y349998D01*
Y346000D01*
X846445Y345000D01*
X844446D01*
X843446Y346000D01*
Y349998D01*
X849444Y345000D02*
Y348999D01*
X850444D01*
X851443Y347999D01*
Y345000D01*
Y347999D01*
X852443Y348999D01*
X853443Y347999D01*
Y345000D01*
X855442D02*
X857442D01*
X856442D01*
Y348999D01*
X855442D01*
X860441Y345000D02*
X862440D01*
X861440D01*
Y350998D01*
X860441D01*
X831450Y362998D02*
X827451D01*
Y359999D01*
X829451Y360999D01*
X830450D01*
X831450Y359999D01*
Y358000D01*
X830450Y357000D01*
X828451D01*
X827451Y358000D01*
X833449Y357000D02*
Y358000D01*
X834449D01*
Y357000D01*
X833449D01*
X838448Y361998D02*
X839447Y362998D01*
X841447D01*
X842446Y361998D01*
Y358000D01*
X841447Y357000D01*
X839447D01*
X838448Y358000D01*
Y361998D01*
X844446D02*
X845445Y362998D01*
X847445D01*
X848444Y361998D01*
Y358000D01*
X847445Y357000D01*
X845445D01*
X844446Y358000D01*
Y361998D01*
X850444Y357000D02*
Y360999D01*
X851443D01*
X852443Y359999D01*
Y357000D01*
Y359999D01*
X853443Y360999D01*
X854442Y359999D01*
Y357000D01*
X856442D02*
X858441D01*
X857442D01*
Y360999D01*
X856442D01*
X861440Y357000D02*
X863439D01*
X862440D01*
Y362998D01*
X861440D01*
X827451Y369000D02*
X829451D01*
X828451D01*
Y374998D01*
X827451Y373998D01*
X832450Y369000D02*
Y370000D01*
X833449D01*
Y369000D01*
X832450D01*
X840447D02*
Y374998D01*
X837448Y371999D01*
X841447D01*
X847445Y369000D02*
X843446D01*
X847445Y372999D01*
Y373998D01*
X846445Y374998D01*
X844446D01*
X843446Y373998D01*
X849444Y369000D02*
Y372999D01*
X850444D01*
X851443Y371999D01*
Y369000D01*
Y371999D01*
X852443Y372999D01*
X853443Y371999D01*
Y369000D01*
X855442D02*
X857442D01*
X856442D01*
Y372999D01*
X855442D01*
X860441Y369000D02*
X862440D01*
X861440D01*
Y374998D01*
X860441D01*
X831450Y386998D02*
X827451D01*
Y383999D01*
X829451Y384999D01*
X830450D01*
X831450Y383999D01*
Y382000D01*
X830450Y381000D01*
X828451D01*
X827451Y382000D01*
X833449Y381000D02*
Y382000D01*
X834449D01*
Y381000D01*
X833449D01*
X838448Y385998D02*
X839447Y386998D01*
X841447D01*
X842446Y385998D01*
Y382000D01*
X841447Y381000D01*
X839447D01*
X838448Y382000D01*
Y385998D01*
X844446D02*
X845445Y386998D01*
X847445D01*
X848444Y385998D01*
Y382000D01*
X847445Y381000D01*
X845445D01*
X844446Y382000D01*
Y385998D01*
X850444Y381000D02*
Y384999D01*
X851443D01*
X852443Y383999D01*
Y381000D01*
Y383999D01*
X853443Y384999D01*
X854442Y383999D01*
Y381000D01*
X856442D02*
X858441D01*
X857442D01*
Y384999D01*
X856442D01*
X861440Y381000D02*
X863439D01*
X862440D01*
Y386998D01*
X861440D01*
X831450Y393000D02*
X827451D01*
X831450Y396999D01*
Y397998D01*
X830450Y398998D01*
X828451D01*
X827451Y397998D01*
X833449Y393000D02*
Y394000D01*
X834449D01*
Y393000D01*
X833449D01*
X838448Y397998D02*
X839447Y398998D01*
X841447D01*
X842446Y397998D01*
Y396999D01*
X841447Y395999D01*
X842446Y394999D01*
Y394000D01*
X841447Y393000D01*
X839447D01*
X838448Y394000D01*
Y394999D01*
X839447Y395999D01*
X838448Y396999D01*
Y397998D01*
X839447Y395999D02*
X841447D01*
X844446Y397998D02*
X845445Y398998D01*
X847445D01*
X848444Y397998D01*
Y394000D01*
X847445Y393000D01*
X845445D01*
X844446Y394000D01*
Y397998D01*
X850444Y393000D02*
Y396999D01*
X851443D01*
X852443Y395999D01*
Y393000D01*
Y395999D01*
X853443Y396999D01*
X854442Y395999D01*
Y393000D01*
X856442D02*
X858441D01*
X857442D01*
Y396999D01*
X856442D01*
X861440Y393000D02*
X863439D01*
X862440D01*
Y398998D01*
X861440D01*
X827451Y409998D02*
X828451Y410998D01*
X830450D01*
X831450Y409998D01*
Y406000D01*
X830450Y405000D01*
X828451D01*
X827451Y406000D01*
Y409998D01*
X833449Y405000D02*
Y406000D01*
X834449D01*
Y405000D01*
X833449D01*
X841447D02*
Y410998D01*
X838448Y407999D01*
X842446D01*
X844446Y409998D02*
X845445Y410998D01*
X847445D01*
X848444Y409998D01*
Y406000D01*
X847445Y405000D01*
X845445D01*
X844446Y406000D01*
Y409998D01*
X850444Y405000D02*
Y408999D01*
X851443D01*
X852443Y407999D01*
Y405000D01*
Y407999D01*
X853443Y408999D01*
X854442Y407999D01*
Y405000D01*
X856442D02*
X858441D01*
X857442D01*
Y408999D01*
X856442D01*
X861440Y405000D02*
X863439D01*
X862440D01*
Y410998D01*
X861440D01*
X896433Y433998D02*
X895434Y434998D01*
X893434D01*
X892435Y433998D01*
Y430000D01*
X893434Y429000D01*
X895434D01*
X896433Y430000D01*
X899432Y429000D02*
X901432D01*
X902431Y430000D01*
Y431999D01*
X901432Y432999D01*
X899432D01*
X898433Y431999D01*
Y430000D01*
X899432Y429000D01*
X904431D02*
Y432999D01*
X907430D01*
X908430Y431999D01*
Y429000D01*
X910429D02*
X913428D01*
X914428Y430000D01*
X913428Y430999D01*
X911429D01*
X910429Y431999D01*
X911429Y432999D01*
X914428D01*
X917427Y433998D02*
Y432999D01*
X916427D01*
X918426D01*
X917427D01*
Y430000D01*
X918426Y429000D01*
X922425Y432999D02*
X924424D01*
X925424Y431999D01*
Y429000D01*
X922425D01*
X921425Y430000D01*
X922425Y430999D01*
X925424D01*
X927423Y429000D02*
Y432999D01*
X930422D01*
X931422Y431999D01*
Y429000D01*
X934421Y433998D02*
Y432999D01*
X933421D01*
X935421D01*
X934421D01*
Y430000D01*
X935421Y429000D01*
X892435Y265998D02*
X893434Y266998D01*
X895434D01*
X896433Y265998D01*
Y264999D01*
X895434Y263999D01*
X894434D01*
X895434D01*
X896433Y262999D01*
Y262000D01*
X895434Y261000D01*
X893434D01*
X892435Y262000D01*
X898433Y261000D02*
Y262000D01*
X899432D01*
Y261000D01*
X898433D01*
X907430Y266998D02*
X903431D01*
Y263999D01*
X905431Y264999D01*
X906430D01*
X907430Y263999D01*
Y262000D01*
X906430Y261000D01*
X904431D01*
X903431Y262000D01*
X895434Y285000D02*
Y290998D01*
X892435Y287999D01*
X896433D01*
X898433Y285000D02*
Y286000D01*
X899432D01*
Y285000D01*
X898433D01*
X907430D02*
X903431D01*
X907430Y288999D01*
Y289998D01*
X906430Y290998D01*
X904431D01*
X903431Y289998D01*
X895434Y309000D02*
Y314998D01*
X892435Y311999D01*
X896433D01*
X898433Y309000D02*
Y310000D01*
X899432D01*
Y309000D01*
X898433D01*
X907430D02*
X903431D01*
X907430Y312999D01*
Y313998D01*
X906430Y314998D01*
X904431D01*
X903431Y313998D01*
X895434Y333000D02*
Y338998D01*
X892435Y335999D01*
X896433D01*
X898433Y333000D02*
Y334000D01*
X899432D01*
Y333000D01*
X898433D01*
X907430D02*
X903431D01*
X907430Y336999D01*
Y337998D01*
X906430Y338998D01*
X904431D01*
X903431Y337998D01*
X895434Y357000D02*
Y362998D01*
X892435Y359999D01*
X896433D01*
X898433Y357000D02*
Y358000D01*
X899432D01*
Y357000D01*
X898433D01*
X907430D02*
X903431D01*
X907430Y360999D01*
Y361998D01*
X906430Y362998D01*
X904431D01*
X903431Y361998D01*
X895434Y381000D02*
Y386998D01*
X892435Y383999D01*
X896433D01*
X898433Y381000D02*
Y382000D01*
X899432D01*
Y381000D01*
X898433D01*
X907430D02*
X903431D01*
X907430Y384999D01*
Y385998D01*
X906430Y386998D01*
X904431D01*
X903431Y385998D01*
X892435Y409998D02*
X893434Y410998D01*
X895434D01*
X896433Y409998D01*
Y408999D01*
X895434Y407999D01*
X894434D01*
X895434D01*
X896433Y406999D01*
Y406000D01*
X895434Y405000D01*
X893434D01*
X892435Y406000D01*
X898433Y405000D02*
Y406000D01*
X899432D01*
Y405000D01*
X898433D01*
X907430Y410998D02*
X903431D01*
Y407999D01*
X905431Y408999D01*
X906430D01*
X907430Y407999D01*
Y406000D01*
X906430Y405000D01*
X904431D01*
X903431Y406000D01*
X949421Y434998D02*
Y429000D01*
X952420D01*
X953419Y430000D01*
Y430999D01*
X952420Y431999D01*
X949421D01*
X952420D01*
X953419Y432999D01*
Y433998D01*
X952420Y434998D01*
X949421D01*
X956419Y429000D02*
X958418D01*
X959418Y430000D01*
Y431999D01*
X958418Y432999D01*
X956419D01*
X955419Y431999D01*
Y430000D01*
X956419Y429000D01*
X962417Y432999D02*
X964416D01*
X965416Y431999D01*
Y429000D01*
X962417D01*
X961417Y430000D01*
X962417Y430999D01*
X965416D01*
X967415Y432999D02*
Y429000D01*
Y430999D01*
X968415Y431999D01*
X969414Y432999D01*
X970414D01*
X977412Y434998D02*
Y429000D01*
X974413D01*
X973413Y430000D01*
Y431999D01*
X974413Y432999D01*
X977412D01*
X985409Y434998D02*
Y429000D01*
X989408D01*
X992407Y432999D02*
X994406D01*
X995406Y431999D01*
Y429000D01*
X992407D01*
X991407Y430000D01*
X992407Y430999D01*
X995406D01*
X997405Y432999D02*
Y430000D01*
X998405Y429000D01*
X1001404D01*
Y428000D01*
X1000404Y427001D01*
X999405D01*
X1001404Y429000D02*
Y432999D01*
X1006402Y429000D02*
X1004403D01*
X1003403Y430000D01*
Y431999D01*
X1004403Y432999D01*
X1006402D01*
X1007402Y431999D01*
Y430999D01*
X1003403D01*
X1009401Y432999D02*
Y429000D01*
Y430999D01*
X1010401Y431999D01*
X1011401Y432999D01*
X1012400D01*
X1025396Y433998D02*
X1024397Y434998D01*
X1022397D01*
X1021397Y433998D01*
Y432999D01*
X1022397Y431999D01*
X1024397D01*
X1025396Y430999D01*
Y430000D01*
X1024397Y429000D01*
X1022397D01*
X1021397Y430000D01*
X1028395Y433998D02*
Y432999D01*
X1027396D01*
X1029395D01*
X1028395D01*
Y430000D01*
X1029395Y429000D01*
X1033394Y432999D02*
X1035393D01*
X1036393Y431999D01*
Y429000D01*
X1033394D01*
X1032394Y430000D01*
X1033394Y430999D01*
X1036393D01*
X1042391Y432999D02*
X1039392D01*
X1038392Y431999D01*
Y430000D01*
X1039392Y429000D01*
X1042391D01*
X1044390D02*
Y434998D01*
Y430999D02*
X1047389Y432999D01*
X1044390Y430999D02*
X1047389Y429000D01*
X96878Y312494D02*
X138533D01*
X96878Y276802D02*
Y312494D01*
Y276802D02*
X138566D01*
Y312513D01*
X96878Y717494D02*
X138533D01*
X96878Y681803D02*
Y717494D01*
Y681803D02*
X138566D01*
Y717513D01*
G54D89*
X557283Y455281D02*
Y446283D01*
X561782D01*
X563281Y447783D01*
Y453781D01*
X561782Y455281D01*
X557283D01*
X572279D02*
X566281D01*
Y446283D01*
X572279D01*
X566281Y450782D02*
X569280D01*
X575278Y455281D02*
X581276D01*
X578277D01*
Y446283D01*
X584275D02*
Y452282D01*
X587274Y455281D01*
X590273Y452282D01*
Y446283D01*
Y450782D01*
X584275D01*
X593272Y455281D02*
X596271D01*
X594771D01*
Y446283D01*
X593272D01*
X596271D01*
X600769Y455281D02*
Y446283D01*
X606768D01*
X618764D02*
Y452282D01*
X621763Y455281D01*
X624762Y452282D01*
Y446283D01*
Y450782D01*
X618764D01*
X579284Y770784D02*
Y778781D01*
X581949Y776115D01*
X584615Y778781D01*
Y770784D01*
X587281Y778781D02*
Y772116D01*
X588614Y770784D01*
X591280D01*
X592613Y772116D01*
Y778781D01*
X600610Y777448D02*
X599277Y778781D01*
X596611D01*
X595278Y777448D01*
Y776115D01*
X596611Y774782D01*
X599277D01*
X600610Y773449D01*
Y772116D01*
X599277Y770784D01*
X596611D01*
X595278Y772116D01*
X603276Y778781D02*
X608607D01*
X605941D01*
Y770784D01*
X619271Y778781D02*
Y770784D01*
Y774782D01*
X624602D01*
Y778781D01*
Y770784D01*
X627268D02*
Y776115D01*
X629934Y778781D01*
X632599Y776115D01*
Y770784D01*
Y774782D01*
X627268D01*
X635265Y770784D02*
Y778781D01*
X640597Y770784D01*
Y778781D01*
X643263D02*
Y770784D01*
X647261D01*
X648594Y772116D01*
Y777448D01*
X647261Y778781D01*
X643263D01*
X651260D02*
Y770784D01*
X656592D01*
X664589Y778781D02*
X659258D01*
Y770784D01*
X664589D01*
X659258Y774782D02*
X661923D01*
X675252Y770784D02*
Y778781D01*
X677918Y776115D01*
X680584Y778781D01*
Y770784D01*
X683250Y778781D02*
X685916D01*
X684583D01*
Y770784D01*
X683250D01*
X685916D01*
X689914D02*
Y778781D01*
X695246Y770784D01*
Y778781D01*
X697912D02*
X700577D01*
X699245D01*
Y770784D01*
X697912D01*
X700577D01*
X704576D02*
Y778781D01*
X707242Y776115D01*
X709908Y778781D01*
Y770784D01*
X712574Y778781D02*
Y772116D01*
X713906Y770784D01*
X716572D01*
X717905Y772116D01*
Y778781D01*
X720571Y770784D02*
Y778781D01*
X723237Y776115D01*
X725903Y778781D01*
Y770784D01*
X741897Y778781D02*
X739232Y777448D01*
X736566Y774782D01*
Y772116D01*
X737899Y770784D01*
X740565D01*
X741897Y772116D01*
Y773449D01*
X740565Y774782D01*
X736566D01*
X757892Y777448D02*
X756559Y778781D01*
X753894D01*
X752561Y777448D01*
Y772116D01*
X753894Y770784D01*
X756559D01*
X757892Y772116D01*
X760558Y778781D02*
Y777448D01*
X763224Y774782D01*
X765890Y777448D01*
Y778781D01*
X763224Y774782D02*
Y770784D01*
X773887Y777448D02*
X772554Y778781D01*
X769888D01*
X768555Y777448D01*
Y772116D01*
X769888Y770784D01*
X772554D01*
X773887Y772116D01*
X776553Y778781D02*
Y770784D01*
X781884D01*
X789882Y778781D02*
X784550D01*
Y770784D01*
X789882D01*
X784550Y774782D02*
X787216D01*
X797879Y777448D02*
X796546Y778781D01*
X793881D01*
X792548Y777448D01*
Y776115D01*
X793881Y774782D01*
X796546D01*
X797879Y773449D01*
Y772116D01*
X796546Y770784D01*
X793881D01*
X792548Y772116D01*
X808543Y774782D02*
X813874D01*
X829869Y770784D02*
X824537D01*
X829869Y776115D01*
Y777448D01*
X828536Y778781D01*
X825870D01*
X824537Y777448D01*
X837866Y778781D02*
X835201Y777448D01*
X832535Y774782D01*
Y772116D01*
X833868Y770784D01*
X836534D01*
X837866Y772116D01*
Y773449D01*
X836534Y774782D01*
X832535D01*
X840532Y777448D02*
X841865Y778781D01*
X844531D01*
X845864Y777448D01*
Y772116D01*
X844531Y770784D01*
X841865D01*
X840532Y772116D01*
Y777448D01*
X853861D02*
X852528Y778781D01*
X849862D01*
X848530Y777448D01*
Y772116D01*
X849862Y770784D01*
X852528D01*
X853861Y772116D01*
X869856Y778781D02*
X864524D01*
Y774782D01*
X867190D01*
X864524D01*
Y770784D01*
X876521Y778781D02*
X873855D01*
X872522Y777448D01*
Y772116D01*
X873855Y770784D01*
X876521D01*
X877853Y772116D01*
Y777448D01*
X876521Y778781D01*
X880519Y770784D02*
Y778781D01*
X884518D01*
X885851Y777448D01*
Y774782D01*
X884518Y773449D01*
X880519D01*
X883185D02*
X885851Y770784D01*
X896514D02*
X899180D01*
X897847D01*
Y778781D01*
X896514Y777448D01*
X903179D02*
X904512Y778781D01*
X907177D01*
X908510Y777448D01*
Y772116D01*
X907177Y770784D01*
X904512D01*
X903179Y772116D01*
Y777448D01*
X924505D02*
X923172Y778781D01*
X920506D01*
X919173Y777448D01*
Y776115D01*
X920506Y774782D01*
X923172D01*
X924505Y773449D01*
Y772116D01*
X923172Y770784D01*
X920506D01*
X919173Y772116D01*
X932502Y778781D02*
X927171D01*
Y770784D01*
X932502D01*
X927171Y774782D02*
X929837D01*
X940500Y777448D02*
X939167Y778781D01*
X936501D01*
X935168Y777448D01*
Y772116D01*
X936501Y770784D01*
X939167D01*
X940500Y772116D01*
X947164Y778781D02*
X944499D01*
X943166Y777448D01*
Y772116D01*
X944499Y770784D01*
X947164D01*
X948497Y772116D01*
Y777448D01*
X947164Y778781D01*
X951163Y770784D02*
Y778781D01*
X956495Y770784D01*
Y778781D01*
X959160D02*
Y770784D01*
X963159D01*
X964492Y772116D01*
Y777448D01*
X963159Y778781D01*
X959160D01*
X972489Y777448D02*
X971157Y778781D01*
X968491D01*
X967158Y777448D01*
Y776115D01*
X968491Y774782D01*
X971157D01*
X972489Y773449D01*
Y772116D01*
X971157Y770784D01*
X968491D01*
X967158Y772116D01*
X975155Y770784D02*
Y772116D01*
X976488D01*
Y770784D01*
X975155D01*
X559784Y501898D02*
X562449D01*
X561116D01*
Y509895D01*
X559784Y508562D01*
X566448D02*
X567781Y509895D01*
X570447D01*
X571780Y508562D01*
Y503230D01*
X570447Y501898D01*
X567781D01*
X566448Y503230D01*
Y508562D01*
X574445Y501898D02*
Y503230D01*
X575778D01*
Y501898D01*
X574445D01*
X589107Y509895D02*
Y501898D01*
X594439D01*
X597105D02*
Y507229D01*
X599770Y509895D01*
X602436Y507229D01*
Y501898D01*
Y505896D01*
X597105D01*
X605102Y509895D02*
Y508562D01*
X607768Y505896D01*
X610434Y508562D01*
Y509895D01*
X607768Y505896D02*
Y501898D01*
X618431Y509895D02*
X613099D01*
Y501898D01*
X618431D01*
X613099Y505896D02*
X615765D01*
X621097Y501898D02*
Y509895D01*
X625096D01*
X626429Y508562D01*
Y505896D01*
X625096Y504563D01*
X621097D01*
X623763D02*
X626429Y501898D01*
X642423Y508562D02*
X641090Y509895D01*
X638425D01*
X637092Y508562D01*
Y507229D01*
X638425Y505896D01*
X641090D01*
X642423Y504563D01*
Y503230D01*
X641090Y501898D01*
X638425D01*
X637092Y503230D01*
X645089Y509895D02*
X650421D01*
X647755D01*
Y501898D01*
X653087D02*
Y507229D01*
X655752Y509895D01*
X658418Y507229D01*
Y501898D01*
Y505896D01*
X653087D01*
X666416Y508562D02*
X665083Y509895D01*
X662417D01*
X661084Y508562D01*
Y503230D01*
X662417Y501898D01*
X665083D01*
X666416Y503230D01*
X669081Y509895D02*
Y501898D01*
Y504563D01*
X674413Y509895D01*
X670414Y505896D01*
X674413Y501898D01*
X677079Y509895D02*
Y503230D01*
X678412Y501898D01*
X681077D01*
X682410Y503230D01*
Y509895D01*
X685076Y501898D02*
Y509895D01*
X689075D01*
X690408Y508562D01*
Y505896D01*
X689075Y504563D01*
X685076D01*
X701071Y505896D02*
X706403D01*
X722398Y508562D02*
X721065Y509895D01*
X718399D01*
X717066Y508562D01*
Y507229D01*
X718399Y505896D01*
X721065D01*
X722398Y504563D01*
Y503230D01*
X721065Y501898D01*
X718399D01*
X717066Y503230D01*
X730395Y509895D02*
X725063D01*
Y501898D01*
X730395D01*
X725063Y505896D02*
X727729D01*
X738392Y509895D02*
X733061D01*
Y501898D01*
X738392D01*
X733061Y505896D02*
X735726D01*
X749055Y509895D02*
Y501898D01*
X753054D01*
X754387Y503230D01*
Y508562D01*
X753054Y509895D01*
X749055D01*
X762385D02*
X757053D01*
Y501898D01*
X762385D01*
X757053Y505896D02*
X759719D01*
X765050Y509895D02*
X770382D01*
X767716D01*
Y501898D01*
X773048D02*
Y507229D01*
X775713Y509895D01*
X778379Y507229D01*
Y501898D01*
Y505896D01*
X773048D01*
X781045Y509895D02*
X783711D01*
X782378D01*
Y501898D01*
X781045D01*
X783711D01*
X787710Y509895D02*
Y501898D01*
X793041D01*
X803704D02*
Y507229D01*
X806370Y509895D01*
X809036Y507229D01*
Y501898D01*
Y505896D01*
X803704D01*
X579468Y531425D02*
Y536757D01*
X582134Y539423D01*
X584800Y536757D01*
Y531425D01*
Y535424D01*
X579468D01*
X587466Y539423D02*
Y531425D01*
X591465D01*
X592798Y532758D01*
Y538090D01*
X591465Y539423D01*
X587466D01*
X595463D02*
Y531425D01*
X599462D01*
X600795Y532758D01*
Y538090D01*
X599462Y539423D01*
X595463D01*
X611458D02*
Y532758D01*
X612791Y531425D01*
X615457D01*
X616790Y532758D01*
Y539423D01*
X619456D02*
Y531425D01*
X624787D01*
X635450D02*
Y539423D01*
X638116Y536757D01*
X640782Y539423D01*
Y531425D01*
X643448D02*
Y536757D01*
X646114Y539423D01*
X648779Y536757D01*
Y531425D01*
Y535424D01*
X643448D01*
X651445Y531425D02*
Y539423D01*
X655444D01*
X656777Y538090D01*
Y535424D01*
X655444Y534091D01*
X651445D01*
X654111D02*
X656777Y531425D01*
X659443Y539423D02*
Y531425D01*
Y534091D01*
X664774Y539423D01*
X660776Y535424D01*
X664774Y531425D01*
X667440Y539423D02*
X670106D01*
X668773D01*
Y531425D01*
X667440D01*
X670106D01*
X674104D02*
Y539423D01*
X679436Y531425D01*
Y539423D01*
X687433Y538090D02*
X686101Y539423D01*
X683435D01*
X682102Y538090D01*
Y532758D01*
X683435Y531425D01*
X686101D01*
X687433Y532758D01*
Y535424D01*
X684768D01*
X698097Y531425D02*
Y536757D01*
X700763Y539423D01*
X703428Y536757D01*
Y531425D01*
Y535424D01*
X698097D01*
X706094Y531425D02*
Y539423D01*
X711426Y531425D01*
Y539423D01*
X714092D02*
Y531425D01*
X718090D01*
X719423Y532758D01*
Y538090D01*
X718090Y539423D01*
X714092D01*
X730086D02*
X732752D01*
X731419D01*
Y531425D01*
X730086D01*
X732752D01*
X736751Y539423D02*
Y531425D01*
X740750D01*
X742083Y532758D01*
Y538090D01*
X740750Y539423D01*
X736751D01*
X559784Y572128D02*
X561116Y570795D01*
X563782D01*
X565115Y572128D01*
Y577460D01*
X563782Y578793D01*
X561116D01*
X559784Y577460D01*
Y576127D01*
X561116Y574794D01*
X565115D01*
X567781Y570795D02*
Y572128D01*
X569114D01*
Y570795D01*
X567781D01*
X587774Y577460D02*
X586442Y578793D01*
X583776D01*
X582443Y577460D01*
Y576127D01*
X583776Y574794D01*
X586442D01*
X587774Y573461D01*
Y572128D01*
X586442Y570795D01*
X583776D01*
X582443Y572128D01*
X590440Y578793D02*
Y572128D01*
X591773Y570795D01*
X594439D01*
X595772Y572128D01*
Y578793D01*
X598438Y570795D02*
Y578793D01*
X602436D01*
X603769Y577460D01*
Y574794D01*
X602436Y573461D01*
X598438D01*
X606435Y570795D02*
Y578793D01*
X610434D01*
X611767Y577460D01*
Y574794D01*
X610434Y573461D01*
X606435D01*
X614432Y578793D02*
Y570795D01*
X619764D01*
X622430Y578793D02*
X625096D01*
X623763D01*
Y570795D01*
X622430D01*
X625096D01*
X634426Y578793D02*
X629094D01*
Y570795D01*
X634426D01*
X629094Y574794D02*
X631760D01*
X637092Y570795D02*
Y578793D01*
X641090D01*
X642423Y577460D01*
Y574794D01*
X641090Y573461D01*
X637092D01*
X639758D02*
X642423Y570795D01*
X653087D02*
Y578793D01*
X655752Y576127D01*
X658418Y578793D01*
Y570795D01*
X661084D02*
Y576127D01*
X663750Y578793D01*
X666416Y576127D01*
Y570795D01*
Y574794D01*
X661084D01*
X669081Y570795D02*
Y578793D01*
X673080D01*
X674413Y577460D01*
Y574794D01*
X673080Y573461D01*
X669081D01*
X671747D02*
X674413Y570795D01*
X677079Y578793D02*
Y570795D01*
Y573461D01*
X682410Y578793D01*
X678412Y574794D01*
X682410Y570795D01*
X685076Y578793D02*
X687742D01*
X686409D01*
Y570795D01*
X685076D01*
X687742D01*
X691741D02*
Y578793D01*
X697072Y570795D01*
Y578793D01*
X705070Y577460D02*
X703737Y578793D01*
X701071D01*
X699738Y577460D01*
Y572128D01*
X701071Y570795D01*
X703737D01*
X705070Y572128D01*
Y574794D01*
X702404D01*
X715733D02*
X721065D01*
X735726Y578793D02*
X733061D01*
X731728Y577460D01*
Y572128D01*
X733061Y570795D01*
X735726D01*
X737059Y572128D01*
Y577460D01*
X735726Y578793D01*
X739725Y570795D02*
Y578793D01*
X745057Y570795D01*
Y578793D01*
X761052Y577460D02*
X759719Y578793D01*
X757053D01*
X755720Y577460D01*
Y576127D01*
X757053Y574794D01*
X759719D01*
X761052Y573461D01*
Y572128D01*
X759719Y570795D01*
X757053D01*
X755720Y572128D01*
X767716Y578793D02*
X765050D01*
X763717Y577460D01*
Y572128D01*
X765050Y570795D01*
X767716D01*
X769049Y572128D01*
Y577460D01*
X767716Y578793D01*
X771715D02*
Y570795D01*
X777046D01*
X779712Y578793D02*
Y570795D01*
X783711D01*
X785044Y572128D01*
Y577460D01*
X783711Y578793D01*
X779712D01*
X793041D02*
X787710D01*
Y570795D01*
X793041D01*
X787710Y574794D02*
X790376D01*
X795707Y570795D02*
Y578793D01*
X799706D01*
X801039Y577460D01*
Y574794D01*
X799706Y573461D01*
X795707D01*
X798373D02*
X801039Y570795D01*
X817033Y577460D02*
X815701Y578793D01*
X813035D01*
X811702Y577460D01*
Y576127D01*
X813035Y574794D01*
X815701D01*
X817033Y573461D01*
Y572128D01*
X815701Y570795D01*
X813035D01*
X811702Y572128D01*
X819699Y578793D02*
X822365D01*
X821032D01*
Y570795D01*
X819699D01*
X822365D01*
X826364Y578793D02*
Y570795D01*
X830363D01*
X831695Y572128D01*
Y577460D01*
X830363Y578793D01*
X826364D01*
X839693D02*
X834361D01*
Y570795D01*
X839693D01*
X834361Y574794D02*
X837027D01*
X559784Y636903D02*
X565115D01*
Y635570D01*
X559784Y630238D01*
Y628905D01*
X567781D02*
Y630238D01*
X569114D01*
Y628905D01*
X567781D01*
X587774Y636903D02*
X582443D01*
Y632904D01*
X585109D01*
X582443D01*
Y628905D01*
X590440Y636903D02*
X593106D01*
X591773D01*
Y628905D01*
X590440D01*
X593106D01*
X597105D02*
Y636903D01*
X602436Y628905D01*
Y636903D01*
X605102D02*
X607768D01*
X606435D01*
Y628905D01*
X605102D01*
X607768D01*
X617098Y635570D02*
X615765Y636903D01*
X613099D01*
X611767Y635570D01*
Y634237D01*
X613099Y632904D01*
X615765D01*
X617098Y631571D01*
Y630238D01*
X615765Y628905D01*
X613099D01*
X611767Y630238D01*
X619764Y636903D02*
Y628905D01*
Y632904D01*
X625096D01*
Y636903D01*
Y628905D01*
X633093Y636903D02*
X627761D01*
Y628905D01*
X633093D01*
X627761Y632904D02*
X630427D01*
X635759Y636903D02*
Y628905D01*
X639758D01*
X641090Y630238D01*
Y635570D01*
X639758Y636903D01*
X635759D01*
X651754Y628905D02*
Y636903D01*
X655752D01*
X657085Y635570D01*
Y632904D01*
X655752Y631571D01*
X651754D01*
X665083Y635570D02*
X663750Y636903D01*
X661084D01*
X659751Y635570D01*
Y630238D01*
X661084Y628905D01*
X663750D01*
X665083Y630238D01*
X667748Y636903D02*
Y628905D01*
X671747D01*
X673080Y630238D01*
Y631571D01*
X671747Y632904D01*
X667748D01*
X671747D01*
X673080Y634237D01*
Y635570D01*
X671747Y636903D01*
X667748D01*
X683743Y628905D02*
Y636903D01*
X686409Y634237D01*
X689075Y636903D01*
Y628905D01*
X691741Y636903D02*
Y630238D01*
X693074Y628905D01*
X695739D01*
X697072Y630238D01*
Y636903D01*
X705070Y635570D02*
X703737Y636903D01*
X701071D01*
X699738Y635570D01*
Y634237D01*
X701071Y632904D01*
X703737D01*
X705070Y631571D01*
Y630238D01*
X703737Y628905D01*
X701071D01*
X699738Y630238D01*
X707735Y636903D02*
X713067D01*
X710401D01*
Y628905D01*
X723730Y636903D02*
Y628905D01*
X727729D01*
X729062Y630238D01*
Y631571D01*
X727729Y632904D01*
X723730D01*
X727729D01*
X729062Y634237D01*
Y635570D01*
X727729Y636903D01*
X723730D01*
X737059D02*
X731728D01*
Y628905D01*
X737059D01*
X731728Y632904D02*
X734394D01*
X747723Y628905D02*
Y636903D01*
X750388Y634237D01*
X753054Y636903D01*
Y628905D01*
X755720D02*
Y634237D01*
X758386Y636903D01*
X761052Y634237D01*
Y628905D01*
Y632904D01*
X755720D01*
X763717Y628905D02*
Y636903D01*
X769049Y628905D01*
Y636903D01*
X777046D02*
X771715D01*
Y628905D01*
X777046D01*
X771715Y632904D02*
X774381D01*
X779712Y636903D02*
Y628905D01*
X785044D01*
X787710Y636903D02*
X790376D01*
X789043D01*
Y628905D01*
X787710D01*
X790376D01*
X794374Y636903D02*
X799706D01*
Y635570D01*
X794374Y630238D01*
Y628905D01*
X799706D01*
X807703Y636903D02*
X802372D01*
Y628905D01*
X807703D01*
X802372Y632904D02*
X805037D01*
X810369Y636903D02*
Y628905D01*
X814368D01*
X815701Y630238D01*
Y635570D01*
X814368Y636903D01*
X810369D01*
X831695D02*
X826364D01*
Y632904D01*
X829030D01*
X826364D01*
Y628905D01*
X838360Y636903D02*
X835694D01*
X834361Y635570D01*
Y630238D01*
X835694Y628905D01*
X838360D01*
X839693Y630238D01*
Y635570D01*
X838360Y636903D01*
X842359Y628905D02*
Y636903D01*
X846357D01*
X847690Y635570D01*
Y632904D01*
X846357Y631571D01*
X842359D01*
X845024D02*
X847690Y628905D01*
X858353D02*
Y634237D01*
X861019Y636903D01*
X863685Y634237D01*
Y628905D01*
Y632904D01*
X858353D01*
X871682Y635570D02*
X870350Y636903D01*
X867684D01*
X866351Y635570D01*
Y634237D01*
X867684Y632904D01*
X870350D01*
X871682Y631571D01*
Y630238D01*
X870350Y628905D01*
X867684D01*
X866351Y630238D01*
X879680Y635570D02*
X878347Y636903D01*
X875681D01*
X874348Y635570D01*
Y634237D01*
X875681Y632904D01*
X878347D01*
X879680Y631571D01*
Y630238D01*
X878347Y628905D01*
X875681D01*
X874348Y630238D01*
X887677Y636903D02*
X882346D01*
Y628905D01*
X887677D01*
X882346Y632904D02*
X885011D01*
X890343Y628905D02*
Y636903D01*
X893009Y634237D01*
X895675Y636903D01*
Y628905D01*
X898341Y636903D02*
Y628905D01*
X902339D01*
X903672Y630238D01*
Y631571D01*
X902339Y632904D01*
X898341D01*
X902339D01*
X903672Y634237D01*
Y635570D01*
X902339Y636903D01*
X898341D01*
X906338D02*
Y628905D01*
X911670D01*
X914335Y636903D02*
Y635570D01*
X917001Y632904D01*
X919667Y635570D01*
Y636903D01*
X917001Y632904D02*
Y628905D01*
X922333D02*
Y630238D01*
X923666D01*
Y628905D01*
X922333D01*
X579468Y551110D02*
Y556442D01*
X582134Y559108D01*
X584800Y556442D01*
Y551110D01*
Y555109D01*
X579468D01*
X587466Y559108D02*
Y551110D01*
X591465D01*
X592798Y552443D01*
Y557775D01*
X591465Y559108D01*
X587466D01*
X595463D02*
Y551110D01*
X599462D01*
X600795Y552443D01*
Y557775D01*
X599462Y559108D01*
X595463D01*
X611458Y551110D02*
Y559108D01*
X615457D01*
X616790Y557775D01*
Y555109D01*
X615457Y553776D01*
X611458D01*
X614124D02*
X616790Y551110D01*
X623454Y559108D02*
X620788D01*
X619456Y557775D01*
Y552443D01*
X620788Y551110D01*
X623454D01*
X624787Y552443D01*
Y557775D01*
X623454Y559108D01*
X627453D02*
Y551110D01*
Y555109D01*
X632785D01*
Y559108D01*
Y551110D01*
X640782Y557775D02*
X639449Y559108D01*
X636783D01*
X635450Y557775D01*
Y556442D01*
X636783Y555109D01*
X639449D01*
X640782Y553776D01*
Y552443D01*
X639449Y551110D01*
X636783D01*
X635450Y552443D01*
X651445Y559108D02*
Y551110D01*
X656777D01*
X663441Y559108D02*
X660776D01*
X659443Y557775D01*
Y552443D01*
X660776Y551110D01*
X663441D01*
X664774Y552443D01*
Y557775D01*
X663441Y559108D01*
X672772Y557775D02*
X671439Y559108D01*
X668773D01*
X667440Y557775D01*
Y552443D01*
X668773Y551110D01*
X671439D01*
X672772Y552443D01*
Y555109D01*
X670106D01*
X679436Y559108D02*
X676770D01*
X675437Y557775D01*
Y552443D01*
X676770Y551110D01*
X679436D01*
X680769Y552443D01*
Y557775D01*
X679436Y559108D01*
X565115Y666431D02*
X562449Y665098D01*
X559784Y662432D01*
Y659766D01*
X561116Y658433D01*
X563782D01*
X565115Y659766D01*
Y661099D01*
X563782Y662432D01*
X559784D01*
X567781Y658433D02*
Y659766D01*
X569114D01*
Y658433D01*
X567781D01*
X587774Y665098D02*
X586442Y666431D01*
X583776D01*
X582443Y665098D01*
Y663765D01*
X583776Y662432D01*
X586442D01*
X587774Y661099D01*
Y659766D01*
X586442Y658433D01*
X583776D01*
X582443Y659766D01*
X594439Y666431D02*
X591773D01*
X590440Y665098D01*
Y659766D01*
X591773Y658433D01*
X594439D01*
X595772Y659766D01*
Y665098D01*
X594439Y666431D01*
X598438D02*
Y658433D01*
X603769D01*
X606435Y666431D02*
Y658433D01*
X610434D01*
X611767Y659766D01*
Y665098D01*
X610434Y666431D01*
X606435D01*
X619764D02*
X614432D01*
Y658433D01*
X619764D01*
X614432Y662432D02*
X617098D01*
X622430Y658433D02*
Y666431D01*
X626429D01*
X627761Y665098D01*
Y662432D01*
X626429Y661099D01*
X622430D01*
X625096D02*
X627761Y658433D01*
X643756Y665098D02*
X642423Y666431D01*
X639758D01*
X638425Y665098D01*
Y663765D01*
X639758Y662432D01*
X642423D01*
X643756Y661099D01*
Y659766D01*
X642423Y658433D01*
X639758D01*
X638425Y659766D01*
X646422Y658433D02*
Y663765D01*
X649088Y666431D01*
X651754Y663765D01*
Y658433D01*
Y662432D01*
X646422D01*
X654420Y658433D02*
Y666431D01*
X657085Y663765D01*
X659751Y666431D01*
Y658433D01*
X662417D02*
Y666431D01*
X666416D01*
X667748Y665098D01*
Y662432D01*
X666416Y661099D01*
X662417D01*
X670414Y666431D02*
Y658433D01*
X675746D01*
X683743Y666431D02*
X678412D01*
Y658433D01*
X683743D01*
X678412Y662432D02*
X681077D01*
X691741Y665098D02*
X690408Y666431D01*
X687742D01*
X686409Y665098D01*
Y663765D01*
X687742Y662432D01*
X690408D01*
X691741Y661099D01*
Y659766D01*
X690408Y658433D01*
X687742D01*
X686409Y659766D01*
X702404Y666431D02*
X707735D01*
X705070D01*
Y658433D01*
X714400Y666431D02*
X711734D01*
X710401Y665098D01*
Y659766D01*
X711734Y658433D01*
X714400D01*
X715733Y659766D01*
Y665098D01*
X714400Y666431D01*
X726396D02*
Y658433D01*
X730395D01*
X731728Y659766D01*
Y661099D01*
X730395Y662432D01*
X726396D01*
X730395D01*
X731728Y663765D01*
Y665098D01*
X730395Y666431D01*
X726396D01*
X739725D02*
X734394D01*
Y658433D01*
X739725D01*
X734394Y662432D02*
X737059D01*
X750388Y658433D02*
Y666431D01*
X754387D01*
X755720Y665098D01*
Y662432D01*
X754387Y661099D01*
X750388D01*
X758386Y658433D02*
Y666431D01*
X762385D01*
X763717Y665098D01*
Y662432D01*
X762385Y661099D01*
X758386D01*
X761052D02*
X763717Y658433D01*
X770382Y666431D02*
X767716D01*
X766383Y665098D01*
Y659766D01*
X767716Y658433D01*
X770382D01*
X771715Y659766D01*
Y665098D01*
X770382Y666431D01*
X774381D02*
Y661099D01*
X777046Y658433D01*
X779712Y661099D01*
Y666431D01*
X782378D02*
X785044D01*
X783711D01*
Y658433D01*
X782378D01*
X785044D01*
X789043Y666431D02*
Y658433D01*
X793041D01*
X794374Y659766D01*
Y665098D01*
X793041Y666431D01*
X789043D01*
X802372D02*
X797040D01*
Y658433D01*
X802372D01*
X797040Y662432D02*
X799706D01*
X805037Y666431D02*
Y658433D01*
X809036D01*
X810369Y659766D01*
Y665098D01*
X809036Y666431D01*
X805037D01*
X559784Y606987D02*
X561116Y608320D01*
X563782D01*
X565115Y606987D01*
Y605654D01*
X563782Y604321D01*
X565115Y602989D01*
Y601656D01*
X563782Y600323D01*
X561116D01*
X559784Y601656D01*
Y602989D01*
X561116Y604321D01*
X559784Y605654D01*
Y606987D01*
X561116Y604321D02*
X563782D01*
X567781Y600323D02*
Y601656D01*
X569114D01*
Y600323D01*
X567781D01*
X587774Y606987D02*
X586442Y608320D01*
X583776D01*
X582443Y606987D01*
Y605654D01*
X583776Y604321D01*
X586442D01*
X587774Y602989D01*
Y601656D01*
X586442Y600323D01*
X583776D01*
X582443Y601656D01*
X590440Y608320D02*
X593106D01*
X591773D01*
Y600323D01*
X590440D01*
X593106D01*
X597105Y608320D02*
Y600323D01*
X602436D01*
X605102Y608320D02*
Y600323D01*
Y602989D01*
X610434Y608320D01*
X606435Y604321D01*
X610434Y600323D01*
X618431Y606987D02*
X617098Y608320D01*
X614432D01*
X613099Y606987D01*
Y605654D01*
X614432Y604321D01*
X617098D01*
X618431Y602989D01*
Y601656D01*
X617098Y600323D01*
X614432D01*
X613099Y601656D01*
X626429Y606987D02*
X625096Y608320D01*
X622430D01*
X621097Y606987D01*
Y601656D01*
X622430Y600323D01*
X625096D01*
X626429Y601656D01*
X629094Y600323D02*
Y608320D01*
X633093D01*
X634426Y606987D01*
Y604321D01*
X633093Y602989D01*
X629094D01*
X631760D02*
X634426Y600323D01*
X642423Y608320D02*
X637092D01*
Y600323D01*
X642423D01*
X637092Y604321D02*
X639758D01*
X650421Y608320D02*
X645089D01*
Y600323D01*
X650421D01*
X645089Y604321D02*
X647755D01*
X653087Y600323D02*
Y608320D01*
X658418Y600323D01*
Y608320D01*
X669081Y604321D02*
X674413D01*
X685076Y608320D02*
Y600323D01*
X687742Y602989D01*
X690408Y600323D01*
Y608320D01*
X693074D02*
Y600323D01*
Y604321D01*
X698405D01*
Y608320D01*
Y600323D01*
X701071Y608320D02*
X703737D01*
X702404D01*
Y600323D01*
X701071D01*
X703737D01*
X707735Y608320D02*
X713067D01*
X710401D01*
Y600323D01*
X721065Y608320D02*
X715733D01*
Y600323D01*
X721065D01*
X715733Y604321D02*
X718399D01*
X737059Y608320D02*
X731728D01*
Y600323D01*
X737059D01*
X731728Y604321D02*
X734394D01*
X739725Y600323D02*
Y608320D01*
X743724D01*
X745057Y606987D01*
Y604321D01*
X743724Y602989D01*
X739725D01*
X751721Y608320D02*
X749055D01*
X747723Y606987D01*
Y601656D01*
X749055Y600323D01*
X751721D01*
X753054Y601656D01*
Y606987D01*
X751721Y608320D01*
X755720D02*
X761052Y600323D01*
Y608320D02*
X755720Y600323D01*
X763717Y608320D02*
Y606987D01*
X766383Y604321D01*
X769049Y606987D01*
Y608320D01*
X766383Y604321D02*
Y600323D01*
X779712Y608320D02*
X782378D01*
X781045D01*
Y600323D01*
X779712D01*
X782378D01*
X786377D02*
Y608320D01*
X791708Y600323D01*
Y608320D01*
X794374D02*
Y600323D01*
Y602989D01*
X799706Y608320D01*
X795707Y604321D01*
X799706Y600323D01*
X803704Y598990D02*
X805037Y600323D01*
Y601656D01*
X803704D01*
Y600323D01*
X805037D01*
X803704Y598990D01*
X802372Y597657D01*
X818366Y608320D02*
Y600323D01*
X822365D01*
X823698Y601656D01*
Y602989D01*
X822365Y604321D01*
X818366D01*
X822365D01*
X823698Y605654D01*
Y606987D01*
X822365Y608320D01*
X818366D01*
X830363D02*
X827697D01*
X826364Y606987D01*
Y601656D01*
X827697Y600323D01*
X830363D01*
X831695Y601656D01*
Y606987D01*
X830363Y608320D01*
X834361D02*
X839693D01*
X837027D01*
Y600323D01*
X842359Y608320D02*
Y600323D01*
Y604321D01*
X847690D01*
Y608320D01*
Y600323D01*
X863685Y606987D02*
X862352Y608320D01*
X859686D01*
X858353Y606987D01*
Y605654D01*
X859686Y604321D01*
X862352D01*
X863685Y602989D01*
Y601656D01*
X862352Y600323D01*
X859686D01*
X858353Y601656D01*
X866351Y608320D02*
X869017D01*
X867684D01*
Y600323D01*
X866351D01*
X869017D01*
X873015Y608320D02*
Y600323D01*
X877014D01*
X878347Y601656D01*
Y606987D01*
X877014Y608320D01*
X873015D01*
X886344D02*
X881013D01*
Y600323D01*
X886344D01*
X881013Y604321D02*
X883679D01*
X894342Y606987D02*
X893009Y608320D01*
X890343D01*
X889010Y606987D01*
Y605654D01*
X890343Y604321D01*
X893009D01*
X894342Y602989D01*
Y601656D01*
X893009Y600323D01*
X890343D01*
X889010Y601656D01*
X897008Y600323D02*
Y601656D01*
X898341D01*
Y600323D01*
X897008D01*
X911670D02*
Y608320D01*
X917001Y600323D01*
Y608320D01*
X923666D02*
X921000D01*
X919667Y606987D01*
Y601656D01*
X921000Y600323D01*
X923666D01*
X924998Y601656D01*
Y606987D01*
X923666Y608320D01*
X940993Y606987D02*
X939660Y608320D01*
X936995D01*
X935662Y606987D01*
Y605654D01*
X936995Y604321D01*
X939660D01*
X940993Y602989D01*
Y601656D01*
X939660Y600323D01*
X936995D01*
X935662Y601656D01*
X943659Y608320D02*
X946325D01*
X944992D01*
Y600323D01*
X943659D01*
X946325D01*
X950324Y608320D02*
Y600323D01*
X955655D01*
X958321Y608320D02*
Y600323D01*
Y602989D01*
X963653Y608320D01*
X959654Y604321D01*
X963653Y600323D01*
X978315Y608320D02*
X975649D01*
X974316Y606987D01*
Y601656D01*
X975649Y600323D01*
X978315D01*
X979648Y601656D01*
Y606987D01*
X978315Y608320D01*
X982313Y600323D02*
Y608320D01*
X987645Y600323D01*
Y608320D01*
X998308Y600323D02*
Y608320D01*
X1002307D01*
X1003640Y606987D01*
Y604321D01*
X1002307Y602989D01*
X998308D01*
X1006306Y600323D02*
Y605654D01*
X1008971Y608320D01*
X1011637Y605654D01*
Y600323D01*
Y604321D01*
X1006306D01*
X1014303Y608320D02*
Y600323D01*
X1018302D01*
X1019635Y601656D01*
Y606987D01*
X1018302Y608320D01*
X1014303D01*
X1027632Y606987D02*
X1026299Y608320D01*
X1023633D01*
X1022300Y606987D01*
Y605654D01*
X1023633Y604321D01*
X1026299D01*
X1027632Y602989D01*
Y601656D01*
X1026299Y600323D01*
X1023633D01*
X1022300Y601656D01*
X565115Y695958D02*
X559784D01*
Y691959D01*
X562449Y693292D01*
X563782D01*
X565115Y691959D01*
Y689293D01*
X563782Y687961D01*
X561116D01*
X559784Y689293D01*
X567781Y687961D02*
Y689293D01*
X569114D01*
Y687961D01*
X567781D01*
X587774Y694625D02*
X586442Y695958D01*
X583776D01*
X582443Y694625D01*
Y693292D01*
X583776Y691959D01*
X586442D01*
X587774Y690626D01*
Y689293D01*
X586442Y687961D01*
X583776D01*
X582443Y689293D01*
X594439Y695958D02*
X591773D01*
X590440Y694625D01*
Y689293D01*
X591773Y687961D01*
X594439D01*
X595772Y689293D01*
Y694625D01*
X594439Y695958D01*
X598438D02*
Y687961D01*
X603769D01*
X606435Y695958D02*
Y687961D01*
X610434D01*
X611767Y689293D01*
Y694625D01*
X610434Y695958D01*
X606435D01*
X619764D02*
X614432D01*
Y687961D01*
X619764D01*
X614432Y691959D02*
X617098D01*
X622430Y687961D02*
Y695958D01*
X626429D01*
X627761Y694625D01*
Y691959D01*
X626429Y690626D01*
X622430D01*
X625096D02*
X627761Y687961D01*
X630427D02*
Y695958D01*
X633093Y693292D01*
X635759Y695958D01*
Y687961D01*
X638425D02*
Y693292D01*
X641090Y695958D01*
X643756Y693292D01*
Y687961D01*
Y691959D01*
X638425D01*
X651754Y694625D02*
X650421Y695958D01*
X647755D01*
X646422Y694625D01*
Y693292D01*
X647755Y691959D01*
X650421D01*
X651754Y690626D01*
Y689293D01*
X650421Y687961D01*
X647755D01*
X646422Y689293D01*
X654420Y695958D02*
Y687961D01*
Y690626D01*
X659751Y695958D01*
X655752Y691959D01*
X659751Y687961D01*
X670414Y691959D02*
X675746D01*
X686409Y695958D02*
Y687961D01*
X690408D01*
X691741Y689293D01*
Y690626D01*
X690408Y691959D01*
X686409D01*
X690408D01*
X691741Y693292D01*
Y694625D01*
X690408Y695958D01*
X686409D01*
X698405D02*
X695739D01*
X694407Y694625D01*
Y689293D01*
X695739Y687961D01*
X698405D01*
X699738Y689293D01*
Y694625D01*
X698405Y695958D01*
X702404D02*
X707735D01*
X705070D01*
Y687961D01*
X710401Y695958D02*
Y687961D01*
Y691959D01*
X715733D01*
Y695958D01*
Y687961D01*
X731728Y694625D02*
X730395Y695958D01*
X727729D01*
X726396Y694625D01*
Y693292D01*
X727729Y691959D01*
X730395D01*
X731728Y690626D01*
Y689293D01*
X730395Y687961D01*
X727729D01*
X726396Y689293D01*
X734394Y695958D02*
X737059D01*
X735726D01*
Y687961D01*
X734394D01*
X737059D01*
X741058Y695958D02*
Y687961D01*
X745057D01*
X746390Y689293D01*
Y694625D01*
X745057Y695958D01*
X741058D01*
X754387D02*
X749055D01*
Y687961D01*
X754387D01*
X749055Y691959D02*
X751721D01*
X762385Y694625D02*
X761052Y695958D01*
X758386D01*
X757053Y694625D01*
Y693292D01*
X758386Y691959D01*
X761052D01*
X762385Y690626D01*
Y689293D01*
X761052Y687961D01*
X758386D01*
X757053Y689293D01*
X778379Y694625D02*
X777046Y695958D01*
X774381D01*
X773048Y694625D01*
Y689293D01*
X774381Y687961D01*
X777046D01*
X778379Y689293D01*
Y691959D01*
X775713D01*
X781045Y687961D02*
Y695958D01*
X785044D01*
X786377Y694625D01*
Y691959D01*
X785044Y690626D01*
X781045D01*
X783711D02*
X786377Y687961D01*
X794374Y695958D02*
X789043D01*
Y687961D01*
X794374D01*
X789043Y691959D02*
X791708D01*
X802372Y695958D02*
X797040D01*
Y687961D01*
X802372D01*
X797040Y691959D02*
X799706D01*
X805037Y687961D02*
Y695958D01*
X810369Y687961D01*
Y695958D01*
X563782Y717488D02*
Y725486D01*
X559784Y721487D01*
X565115D01*
X567781Y717488D02*
Y718821D01*
X569114D01*
Y717488D01*
X567781D01*
X582443D02*
Y725486D01*
X586442D01*
X587774Y724153D01*
Y721487D01*
X586442Y720154D01*
X582443D01*
X590440Y725486D02*
Y717488D01*
X595772D01*
X598438D02*
Y722820D01*
X601103Y725486D01*
X603769Y722820D01*
Y717488D01*
Y721487D01*
X598438D01*
X606435Y725486D02*
X611767D01*
X609101D01*
Y717488D01*
X614432Y725486D02*
X617098D01*
X615765D01*
Y717488D01*
X614432D01*
X617098D01*
X621097D02*
Y725486D01*
X626429Y717488D01*
Y725486D01*
X634426Y724153D02*
X633093Y725486D01*
X630427D01*
X629094Y724153D01*
Y718821D01*
X630427Y717488D01*
X633093D01*
X634426Y718821D01*
Y721487D01*
X631760D01*
X650421Y725486D02*
X645089D01*
Y721487D01*
X647755D01*
X645089D01*
Y717488D01*
X653087Y725486D02*
X655752D01*
X654420D01*
Y717488D01*
X653087D01*
X655752D01*
X659751D02*
Y725486D01*
X665083Y717488D01*
Y725486D01*
X667748D02*
X670414D01*
X669081D01*
Y717488D01*
X667748D01*
X670414D01*
X679745Y724153D02*
X678412Y725486D01*
X675746D01*
X674413Y724153D01*
Y722820D01*
X675746Y721487D01*
X678412D01*
X679745Y720154D01*
Y718821D01*
X678412Y717488D01*
X675746D01*
X674413Y718821D01*
X682410Y725486D02*
Y717488D01*
Y721487D01*
X687742D01*
Y725486D01*
Y717488D01*
X698405Y721487D02*
X703737D01*
X714400Y725486D02*
Y717488D01*
X718399D01*
X719732Y718821D01*
Y720154D01*
X718399Y721487D01*
X714400D01*
X718399D01*
X719732Y722820D01*
Y724153D01*
X718399Y725486D01*
X714400D01*
X726396D02*
X723730D01*
X722398Y724153D01*
Y718821D01*
X723730Y717488D01*
X726396D01*
X727729Y718821D01*
Y724153D01*
X726396Y725486D01*
X730395D02*
X735726D01*
X733061D01*
Y717488D01*
X738392Y725486D02*
Y717488D01*
Y721487D01*
X743724D01*
Y725486D01*
Y717488D01*
X759719Y724153D02*
X758386Y725486D01*
X755720D01*
X754387Y724153D01*
Y722820D01*
X755720Y721487D01*
X758386D01*
X759719Y720154D01*
Y718821D01*
X758386Y717488D01*
X755720D01*
X754387Y718821D01*
X762385Y725486D02*
X765050D01*
X763717D01*
Y717488D01*
X762385D01*
X765050D01*
X769049Y725486D02*
Y717488D01*
X773048D01*
X774381Y718821D01*
Y724153D01*
X773048Y725486D01*
X769049D01*
X782378D02*
X777046D01*
Y717488D01*
X782378D01*
X777046Y721487D02*
X779712D01*
X790376Y724153D02*
X789043Y725486D01*
X786377D01*
X785044Y724153D01*
Y722820D01*
X786377Y721487D01*
X789043D01*
X790376Y720154D01*
Y718821D01*
X789043Y717488D01*
X786377D01*
X785044Y718821D01*
X806370Y725486D02*
X801039D01*
Y717488D01*
X806370D01*
X801039Y721487D02*
X803704D01*
X809036Y717488D02*
Y725486D01*
X814368Y717488D01*
Y725486D01*
X817033D02*
X819699D01*
X818366D01*
Y717488D01*
X817033D01*
X819699D01*
X829030Y724153D02*
X827697Y725486D01*
X825031D01*
X823698Y724153D01*
Y718821D01*
X825031Y717488D01*
X827697D01*
X829030Y718821D01*
Y721487D01*
X826364D01*
X845024Y724153D02*
X843692Y725486D01*
X841026D01*
X839693Y724153D01*
Y718821D01*
X841026Y717488D01*
X843692D01*
X845024Y718821D01*
Y721487D01*
X842359D01*
X851689Y725486D02*
X849023D01*
X847690Y724153D01*
Y718821D01*
X849023Y717488D01*
X851689D01*
X853022Y718821D01*
Y724153D01*
X851689Y725486D01*
X855688D02*
Y717488D01*
X861019D01*
X863685Y725486D02*
Y717488D01*
X867684D01*
X869017Y718821D01*
Y724153D01*
X867684Y725486D01*
X863685D01*
X879680Y717488D02*
Y725486D01*
X883679D01*
X885011Y724153D01*
Y721487D01*
X883679Y720154D01*
X879680D01*
X887677Y725486D02*
Y717488D01*
X893009D01*
X895675D02*
Y722820D01*
X898341Y725486D01*
X901006Y722820D01*
Y717488D01*
Y721487D01*
X895675D01*
X903672Y725486D02*
X909004D01*
X906338D01*
Y717488D01*
X917001Y725486D02*
X911670D01*
Y717488D01*
X917001D01*
X911670Y721487D02*
X914335D01*
X919667Y725486D02*
Y717488D01*
X923666D01*
X924998Y718821D01*
Y724153D01*
X923666Y725486D01*
X919667D01*
X559784Y753680D02*
X561116Y755013D01*
X563782D01*
X565115Y753680D01*
Y752347D01*
X563782Y751015D01*
X562449D01*
X563782D01*
X565115Y749682D01*
Y748349D01*
X563782Y747016D01*
X561116D01*
X559784Y748349D01*
X567781Y747016D02*
Y748349D01*
X569114D01*
Y747016D01*
X567781D01*
X582443Y755013D02*
Y747016D01*
X587774D01*
X590440D02*
Y752347D01*
X593106Y755013D01*
X595772Y752347D01*
Y747016D01*
Y751015D01*
X590440D01*
X598438Y747016D02*
Y755013D01*
X601103Y752347D01*
X603769Y755013D01*
Y747016D01*
X606435Y755013D02*
X609101D01*
X607768D01*
Y747016D01*
X606435D01*
X609101D01*
X613099D02*
Y755013D01*
X618431Y747016D01*
Y755013D01*
X621097Y747016D02*
Y752347D01*
X623763Y755013D01*
X626429Y752347D01*
Y747016D01*
Y751015D01*
X621097D01*
X629094Y755013D02*
X634426D01*
X631760D01*
Y747016D01*
X642423Y755013D02*
X637092D01*
Y747016D01*
X642423D01*
X637092Y751015D02*
X639758D01*
X653087Y747016D02*
Y752347D01*
X655752Y755013D01*
X658418Y752347D01*
Y747016D01*
Y751015D01*
X653087D01*
X661084Y747016D02*
Y755013D01*
X666416Y747016D01*
Y755013D01*
X669081D02*
Y747016D01*
X673080D01*
X674413Y748349D01*
Y753680D01*
X673080Y755013D01*
X669081D01*
X685076Y747016D02*
Y755013D01*
X689075D01*
X690408Y753680D01*
Y751015D01*
X689075Y749682D01*
X685076D01*
X693074Y747016D02*
Y755013D01*
X697072D01*
X698405Y753680D01*
Y751015D01*
X697072Y749682D01*
X693074D01*
X695739D02*
X698405Y747016D01*
X706403Y755013D02*
X701071D01*
Y747016D01*
X706403D01*
X701071Y751015D02*
X703737D01*
X709068Y747016D02*
Y755013D01*
X713067D01*
X714400Y753680D01*
Y751015D01*
X713067Y749682D01*
X709068D01*
X717066Y747016D02*
Y755013D01*
X721065D01*
X722398Y753680D01*
Y751015D01*
X721065Y749682D01*
X717066D01*
X719732D02*
X722398Y747016D01*
X730395Y755013D02*
X725063D01*
Y747016D01*
X730395D01*
X725063Y751015D02*
X727729D01*
X738392Y753680D02*
X737059Y755013D01*
X734394D01*
X733061Y753680D01*
Y748349D01*
X734394Y747016D01*
X737059D01*
X738392Y748349D01*
Y751015D01*
X735726D01*
X749055Y755013D02*
X754387D01*
X751721D01*
Y747016D01*
X761052Y755013D02*
X758386D01*
X757053Y753680D01*
Y748349D01*
X758386Y747016D01*
X761052D01*
X762385Y748349D01*
Y753680D01*
X761052Y755013D01*
X773048D02*
Y747016D01*
X777046D01*
X778379Y748349D01*
Y749682D01*
X777046Y751015D01*
X773048D01*
X777046D01*
X778379Y752347D01*
Y753680D01*
X777046Y755013D01*
X773048D01*
X786377D02*
X781045D01*
Y747016D01*
X786377D01*
X781045Y751015D02*
X783711D01*
X802372Y755013D02*
X797040D01*
Y751015D01*
X799706D01*
X797040D01*
Y747016D01*
X805037D02*
Y755013D01*
X809036D01*
X810369Y753680D01*
Y751015D01*
X809036Y749682D01*
X805037D01*
X807703D02*
X810369Y747016D01*
X817033D02*
Y755013D01*
X813035Y751015D01*
X818366D01*
X829030Y755013D02*
X834361D01*
X831695D01*
Y747016D01*
X842359Y753680D02*
X841026Y755013D01*
X838360D01*
X837027Y753680D01*
Y748349D01*
X838360Y747016D01*
X841026D01*
X842359Y748349D01*
Y751015D01*
X839693D01*
X845024Y747016D02*
X847690D01*
X846357D01*
Y755013D01*
X845024Y753680D01*
X851689Y755013D02*
X857020D01*
Y753680D01*
X851689Y748349D01*
Y747016D01*
X859686Y753680D02*
X861019Y755013D01*
X863685D01*
X865018Y753680D01*
Y748349D01*
X863685Y747016D01*
X861019D01*
X859686Y748349D01*
Y753680D01*
X565115Y786386D02*
X559784D01*
X565115Y791717D01*
Y793050D01*
X563782Y794383D01*
X561116D01*
X559784Y793050D01*
X567781Y786386D02*
Y787719D01*
X569114D01*
Y786386D01*
X567781D01*
X582443Y794383D02*
X587774D01*
X585109D01*
Y786386D01*
X590440Y794383D02*
Y786386D01*
Y790384D01*
X595772D01*
Y794383D01*
Y786386D01*
X603769Y794383D02*
X598438D01*
Y786386D01*
X603769D01*
X598438Y790384D02*
X601103D01*
X614432Y786386D02*
Y794383D01*
X618431D01*
X619764Y793050D01*
Y790384D01*
X618431Y789052D01*
X614432D01*
X627761Y793050D02*
X626429Y794383D01*
X623763D01*
X622430Y793050D01*
Y787719D01*
X623763Y786386D01*
X626429D01*
X627761Y787719D01*
X630427Y794383D02*
Y786386D01*
X634426D01*
X635759Y787719D01*
Y789052D01*
X634426Y790384D01*
X630427D01*
X634426D01*
X635759Y791717D01*
Y793050D01*
X634426Y794383D01*
X630427D01*
X646422Y786386D02*
Y794383D01*
X649088Y791717D01*
X651754Y794383D01*
Y786386D01*
X654420Y794383D02*
Y787719D01*
X655752Y786386D01*
X658418D01*
X659751Y787719D01*
Y794383D01*
X667748Y793050D02*
X666416Y794383D01*
X663750D01*
X662417Y793050D01*
Y791717D01*
X663750Y790384D01*
X666416D01*
X667748Y789052D01*
Y787719D01*
X666416Y786386D01*
X663750D01*
X662417Y787719D01*
X670414Y794383D02*
X675746D01*
X673080D01*
Y786386D01*
X686409Y794383D02*
Y786386D01*
X690408D01*
X691741Y787719D01*
Y789052D01*
X690408Y790384D01*
X686409D01*
X690408D01*
X691741Y791717D01*
Y793050D01*
X690408Y794383D01*
X686409D01*
X699738D02*
X694407D01*
Y786386D01*
X699738D01*
X694407Y790384D02*
X697072D01*
X710401Y794383D02*
Y786386D01*
X715733D01*
X723730Y794383D02*
X718399D01*
Y786386D01*
X723730D01*
X718399Y790384D02*
X721065D01*
X726396Y786386D02*
Y791717D01*
X729062Y794383D01*
X731728Y791717D01*
Y786386D01*
Y790384D01*
X726396D01*
X734394Y794383D02*
Y786386D01*
X738392D01*
X739725Y787719D01*
Y793050D01*
X738392Y794383D01*
X734394D01*
X755720D02*
X750388D01*
Y790384D01*
X753054D01*
X750388D01*
Y786386D01*
X758386D02*
Y794383D01*
X762385D01*
X763717Y793050D01*
Y790384D01*
X762385Y789052D01*
X758386D01*
X761052D02*
X763717Y786386D01*
X771715Y794383D02*
X766383D01*
Y786386D01*
X771715D01*
X766383Y790384D02*
X769049D01*
X779712Y794383D02*
X774381D01*
Y786386D01*
X779712D01*
X774381Y790384D02*
X777046D01*
X790376Y786386D02*
Y791717D01*
X793041Y794383D01*
X795707Y791717D01*
Y786386D01*
Y790384D01*
X790376D01*
X803704Y793050D02*
X802372Y794383D01*
X799706D01*
X798373Y793050D01*
Y791717D01*
X799706Y790384D01*
X802372D01*
X803704Y789052D01*
Y787719D01*
X802372Y786386D01*
X799706D01*
X798373Y787719D01*
X811702Y793050D02*
X810369Y794383D01*
X807703D01*
X806370Y793050D01*
Y791717D01*
X807703Y790384D01*
X810369D01*
X811702Y789052D01*
Y787719D01*
X810369Y786386D01*
X807703D01*
X806370Y787719D01*
X819699Y794383D02*
X814368D01*
Y786386D01*
X819699D01*
X814368Y790384D02*
X817033D01*
X822365Y786386D02*
Y794383D01*
X825031Y791717D01*
X827697Y794383D01*
Y786386D01*
X830363Y794383D02*
Y786386D01*
X834361D01*
X835694Y787719D01*
Y789052D01*
X834361Y790384D01*
X830363D01*
X834361D01*
X835694Y791717D01*
Y793050D01*
X834361Y794383D01*
X830363D01*
X838360D02*
Y786386D01*
X843692D01*
X846357Y794383D02*
Y793050D01*
X849023Y790384D01*
X851689Y793050D01*
Y794383D01*
X849023Y790384D02*
Y786386D01*
X862352D02*
Y794383D01*
X866351D01*
X867684Y793050D01*
Y790384D01*
X866351Y789052D01*
X862352D01*
X870350Y786386D02*
Y794383D01*
X874348D01*
X875681Y793050D01*
Y790384D01*
X874348Y789052D01*
X870350D01*
X873015D02*
X875681Y786386D01*
X882346Y794383D02*
X879680D01*
X878347Y793050D01*
Y787719D01*
X879680Y786386D01*
X882346D01*
X883679Y787719D01*
Y793050D01*
X882346Y794383D01*
X891676Y793050D02*
X890343Y794383D01*
X887677D01*
X886344Y793050D01*
Y787719D01*
X887677Y786386D01*
X890343D01*
X891676Y787719D01*
X899673Y794383D02*
X894342D01*
Y786386D01*
X899673D01*
X894342Y790384D02*
X897008D01*
X907671Y793050D02*
X906338Y794383D01*
X903672D01*
X902339Y793050D01*
Y791717D01*
X903672Y790384D01*
X906338D01*
X907671Y789052D01*
Y787719D01*
X906338Y786386D01*
X903672D01*
X902339Y787719D01*
X915668Y793050D02*
X914335Y794383D01*
X911670D01*
X910337Y793050D01*
Y791717D01*
X911670Y790384D01*
X914335D01*
X915668Y789052D01*
Y787719D01*
X914335Y786386D01*
X911670D01*
X910337Y787719D01*
X931663Y793050D02*
X930330Y794383D01*
X927664D01*
X926331Y793050D01*
Y787719D01*
X927664Y786386D01*
X930330D01*
X931663Y787719D01*
X938328Y794383D02*
X935662D01*
X934329Y793050D01*
Y787719D01*
X935662Y786386D01*
X938328D01*
X939660Y787719D01*
Y793050D01*
X938328Y794383D01*
X942326Y786386D02*
Y794383D01*
X944992Y791717D01*
X947658Y794383D01*
Y786386D01*
X950324D02*
Y794383D01*
X954322D01*
X955655Y793050D01*
Y790384D01*
X954322Y789052D01*
X950324D01*
X958321Y786386D02*
Y791717D01*
X960987Y794383D01*
X963653Y791717D01*
Y786386D01*
Y790384D01*
X958321D01*
X966319Y794383D02*
X971650D01*
X968984D01*
Y786386D01*
X974316Y794383D02*
X976982D01*
X975649D01*
Y786386D01*
X974316D01*
X976982D01*
X980980Y794383D02*
Y786386D01*
X984979D01*
X986312Y787719D01*
Y789052D01*
X984979Y790384D01*
X980980D01*
X984979D01*
X986312Y791717D01*
Y793050D01*
X984979Y794383D01*
X980980D01*
X988978D02*
Y786386D01*
X994309D01*
X1002307Y794383D02*
X996975D01*
Y786386D01*
X1002307D01*
X996975Y790384D02*
X999641D01*
X1004973Y786386D02*
Y787719D01*
X1006306D01*
Y786386D01*
X1004973D01*
X559784Y815913D02*
X562449D01*
X561116D01*
Y823911D01*
X559784Y822578D01*
X566448Y815913D02*
Y817246D01*
X567781D01*
Y815913D01*
X566448D01*
X586442Y823911D02*
X581110D01*
Y819912D01*
X583776D01*
X581110D01*
Y815913D01*
X589107D02*
Y821245D01*
X591773Y823911D01*
X594439Y821245D01*
Y815913D01*
Y819912D01*
X589107D01*
X597105Y823911D02*
Y815913D01*
X601103D01*
X602436Y817246D01*
Y818579D01*
X601103Y819912D01*
X597105D01*
X601103D01*
X602436Y821245D01*
Y822578D01*
X601103Y823911D01*
X597105D01*
X605102Y815913D02*
Y823911D01*
X609101D01*
X610434Y822578D01*
Y819912D01*
X609101Y818579D01*
X605102D01*
X607768D02*
X610434Y815913D01*
X613099Y823911D02*
X615765D01*
X614432D01*
Y815913D01*
X613099D01*
X615765D01*
X625096Y822578D02*
X623763Y823911D01*
X621097D01*
X619764Y822578D01*
Y817246D01*
X621097Y815913D01*
X623763D01*
X625096Y817246D01*
X627761Y815913D02*
Y821245D01*
X630427Y823911D01*
X633093Y821245D01*
Y815913D01*
Y819912D01*
X627761D01*
X635759Y823911D02*
X641090D01*
X638425D01*
Y815913D01*
X649088Y823911D02*
X643756D01*
Y815913D01*
X649088D01*
X643756Y819912D02*
X646422D01*
X659751Y815913D02*
Y823911D01*
X663750D01*
X665083Y822578D01*
Y819912D01*
X663750Y818579D01*
X659751D01*
X673080Y822578D02*
X671747Y823911D01*
X669081D01*
X667748Y822578D01*
Y817246D01*
X669081Y815913D01*
X671747D01*
X673080Y817246D01*
X675746Y823911D02*
Y815913D01*
X679745D01*
X681077Y817246D01*
Y818579D01*
X679745Y819912D01*
X675746D01*
X679745D01*
X681077Y821245D01*
Y822578D01*
X679745Y823911D01*
X675746D01*
X691741D02*
X694407D01*
X693074D01*
Y815913D01*
X691741D01*
X694407D01*
X698405D02*
Y823911D01*
X703737Y815913D01*
Y823911D01*
X714400Y815913D02*
Y821245D01*
X717066Y823911D01*
X719732Y821245D01*
Y815913D01*
Y819912D01*
X714400D01*
X727729Y822578D02*
X726396Y823911D01*
X723730D01*
X722398Y822578D01*
Y817246D01*
X723730Y815913D01*
X726396D01*
X727729Y817246D01*
X735726Y822578D02*
X734394Y823911D01*
X731728D01*
X730395Y822578D01*
Y817246D01*
X731728Y815913D01*
X734394D01*
X735726Y817246D01*
X742391Y823911D02*
X739725D01*
X738392Y822578D01*
Y817246D01*
X739725Y815913D01*
X742391D01*
X743724Y817246D01*
Y822578D01*
X742391Y823911D01*
X746390Y815913D02*
Y823911D01*
X750388D01*
X751721Y822578D01*
Y819912D01*
X750388Y818579D01*
X746390D01*
X749055D02*
X751721Y815913D01*
X754387Y823911D02*
Y815913D01*
X758386D01*
X759719Y817246D01*
Y822578D01*
X758386Y823911D01*
X754387D01*
X762385Y815913D02*
Y821245D01*
X765050Y823911D01*
X767716Y821245D01*
Y815913D01*
Y819912D01*
X762385D01*
X770382Y815913D02*
Y823911D01*
X775713Y815913D01*
Y823911D01*
X783711Y822578D02*
X782378Y823911D01*
X779712D01*
X778379Y822578D01*
Y817246D01*
X779712Y815913D01*
X782378D01*
X783711Y817246D01*
X791708Y823911D02*
X786377D01*
Y815913D01*
X791708D01*
X786377Y819912D02*
X789043D01*
X802372Y823911D02*
Y815913D01*
X805037Y818579D01*
X807703Y815913D01*
Y823911D01*
X810369D02*
X813035D01*
X811702D01*
Y815913D01*
X810369D01*
X813035D01*
X817033Y823911D02*
X822365D01*
X819699D01*
Y815913D01*
X825031Y823911D02*
Y815913D01*
Y819912D01*
X830363D01*
Y823911D01*
Y815913D01*
X841026Y823911D02*
X843692D01*
X842359D01*
Y815913D01*
X841026D01*
X843692D01*
X847690D02*
Y823911D01*
X851689D01*
X853022Y822578D01*
Y819912D01*
X851689Y818579D01*
X847690D01*
X861019Y822578D02*
X859686Y823911D01*
X857020D01*
X855688Y822578D01*
Y817246D01*
X857020Y815913D01*
X859686D01*
X861019Y817246D01*
X863685Y819912D02*
X869017D01*
X871682Y815913D02*
Y821245D01*
X874348Y823911D01*
X877014Y821245D01*
Y815913D01*
Y819912D01*
X871682D01*
X879680D02*
X885011D01*
X893009Y823911D02*
X890343Y822578D01*
X887677Y819912D01*
Y817246D01*
X889010Y815913D01*
X891676D01*
X893009Y817246D01*
Y818579D01*
X891676Y819912D01*
X887677D01*
X895675Y822578D02*
X897008Y823911D01*
X899673D01*
X901006Y822578D01*
Y817246D01*
X899673Y815913D01*
X897008D01*
X895675Y817246D01*
Y822578D01*
X903672D02*
X905005Y823911D01*
X907671D01*
X909004Y822578D01*
Y817246D01*
X907671Y815913D01*
X905005D01*
X903672Y817246D01*
Y822578D01*
X924998D02*
X923666Y823911D01*
X921000D01*
X919667Y822578D01*
Y817246D01*
X921000Y815913D01*
X923666D01*
X924998Y817246D01*
X927664Y823911D02*
Y815913D01*
X932996D01*
X935662D02*
Y821245D01*
X938328Y823911D01*
X940993Y821245D01*
Y815913D01*
Y819912D01*
X935662D01*
X948991Y822578D02*
X947658Y823911D01*
X944992D01*
X943659Y822578D01*
Y821245D01*
X944992Y819912D01*
X947658D01*
X948991Y818579D01*
Y817246D01*
X947658Y815913D01*
X944992D01*
X943659Y817246D01*
X956988Y822578D02*
X955655Y823911D01*
X952989D01*
X951657Y822578D01*
Y821245D01*
X952989Y819912D01*
X955655D01*
X956988Y818579D01*
Y817246D01*
X955655Y815913D01*
X952989D01*
X951657Y817246D01*
X972983Y815913D02*
X967651D01*
X972983Y821245D01*
Y822578D01*
X971650Y823911D01*
X968984D01*
X967651Y822578D01*
X986312Y815913D02*
X983646Y818579D01*
Y821245D01*
X986312Y823911D01*
X990311D02*
Y815913D01*
X995642D01*
X998308D02*
Y821245D01*
X1000974Y823911D01*
X1003640Y821245D01*
Y815913D01*
Y819912D01*
X998308D01*
X1006306Y823911D02*
X1011637D01*
X1008971D01*
Y815913D01*
X1019635Y823911D02*
X1014303D01*
Y815913D01*
X1019635D01*
X1014303Y819912D02*
X1016969D01*
X1027632Y822578D02*
X1026299Y823911D01*
X1023633D01*
X1022300Y822578D01*
Y821245D01*
X1023633Y819912D01*
X1026299D01*
X1027632Y818579D01*
Y817246D01*
X1026299Y815913D01*
X1023633D01*
X1022300Y817246D01*
X1030298Y823911D02*
X1035629D01*
X1032964D01*
Y815913D01*
X1046293D02*
Y823911D01*
X1050291D01*
X1051624Y822578D01*
Y819912D01*
X1050291Y818579D01*
X1046293D01*
X1048958D02*
X1051624Y815913D01*
X1059622Y823911D02*
X1054290D01*
Y815913D01*
X1059622D01*
X1054290Y819912D02*
X1056956D01*
X1062287Y823911D02*
Y818579D01*
X1064953Y815913D01*
X1067619Y818579D01*
Y823911D01*
X1070285D02*
X1072951D01*
X1071618D01*
Y815913D01*
X1070285D01*
X1072951D01*
X1082281Y822578D02*
X1080948Y823911D01*
X1078282D01*
X1076949Y822578D01*
Y821245D01*
X1078282Y819912D01*
X1080948D01*
X1082281Y818579D01*
Y817246D01*
X1080948Y815913D01*
X1078282D01*
X1076949Y817246D01*
X1084947Y823911D02*
X1087613D01*
X1086280D01*
Y815913D01*
X1084947D01*
X1087613D01*
X1095610Y823911D02*
X1092944D01*
X1091611Y822578D01*
Y817246D01*
X1092944Y815913D01*
X1095610D01*
X1096943Y817246D01*
Y822578D01*
X1095610Y823911D01*
X1099609Y815913D02*
Y823911D01*
X1104940Y815913D01*
Y823911D01*
X1107606Y815913D02*
X1110272Y818579D01*
Y821245D01*
X1107606Y823911D01*
X549941Y845441D02*
Y853438D01*
X555272Y845441D01*
Y853438D01*
X561937D02*
X559271D01*
X557938Y852106D01*
Y846774D01*
X559271Y845441D01*
X561937D01*
X563270Y846774D01*
Y852106D01*
X561937Y853438D01*
X565936D02*
X571267D01*
X568602D01*
Y845441D01*
X579265Y853438D02*
X573933D01*
Y845441D01*
X579265D01*
X573933Y849440D02*
X576599D01*
X587262Y852106D02*
X585929Y853438D01*
X583263D01*
X581931Y852106D01*
Y850773D01*
X583263Y849440D01*
X585929D01*
X587262Y848107D01*
Y846774D01*
X585929Y845441D01*
X583263D01*
X581931Y846774D01*
X600591Y845441D02*
X597925Y848107D01*
Y850773D01*
X600591Y853438D01*
X604590D02*
Y846774D01*
X605923Y845441D01*
X608589D01*
X609922Y846774D01*
Y853438D01*
X612587Y845441D02*
Y853438D01*
X617919Y845441D01*
Y853438D01*
X620585D02*
Y845441D01*
X625916D01*
X633914Y853438D02*
X628582D01*
Y845441D01*
X633914D01*
X628582Y849440D02*
X631248D01*
X641911Y852106D02*
X640578Y853438D01*
X637912D01*
X636580Y852106D01*
Y850773D01*
X637912Y849440D01*
X640578D01*
X641911Y848107D01*
Y846774D01*
X640578Y845441D01*
X637912D01*
X636580Y846774D01*
X649909Y852106D02*
X648576Y853438D01*
X645910D01*
X644577Y852106D01*
Y850773D01*
X645910Y849440D01*
X648576D01*
X649909Y848107D01*
Y846774D01*
X648576Y845441D01*
X645910D01*
X644577Y846774D01*
X665903Y852106D02*
X664571Y853438D01*
X661905D01*
X660572Y852106D01*
Y850773D01*
X661905Y849440D01*
X664571D01*
X665903Y848107D01*
Y846774D01*
X664571Y845441D01*
X661905D01*
X660572Y846774D01*
X668569Y845441D02*
Y853438D01*
X672568D01*
X673901Y852106D01*
Y849440D01*
X672568Y848107D01*
X668569D01*
X681898Y853438D02*
X676567D01*
Y845441D01*
X681898D01*
X676567Y849440D02*
X679232D01*
X689896Y852106D02*
X688563Y853438D01*
X685897D01*
X684564Y852106D01*
Y846774D01*
X685897Y845441D01*
X688563D01*
X689896Y846774D01*
X692561Y853438D02*
X695227D01*
X693894D01*
Y845441D01*
X692561D01*
X695227D01*
X704558Y853438D02*
X699226D01*
Y849440D01*
X701892D01*
X699226D01*
Y845441D01*
X707223Y853438D02*
X709889D01*
X708556D01*
Y845441D01*
X707223D01*
X709889D01*
X719219Y853438D02*
X713888D01*
Y845441D01*
X719219D01*
X713888Y849440D02*
X716554D01*
X721885Y853438D02*
Y845441D01*
X725884D01*
X727217Y846774D01*
Y852106D01*
X725884Y853438D01*
X721885D01*
X741879D02*
X739213D01*
X737880Y852106D01*
Y846774D01*
X739213Y845441D01*
X741879D01*
X743212Y846774D01*
Y852106D01*
X741879Y853438D01*
X745878D02*
X751209D01*
X748543D01*
Y845441D01*
X753875Y853438D02*
Y845441D01*
Y849440D01*
X759206D01*
Y853438D01*
Y845441D01*
X767204Y853438D02*
X761872D01*
Y845441D01*
X767204D01*
X761872Y849440D02*
X764538D01*
X769870Y845441D02*
Y853438D01*
X773868D01*
X775201Y852106D01*
Y849440D01*
X773868Y848107D01*
X769870D01*
X772536D02*
X775201Y845441D01*
X777867Y853438D02*
Y845441D01*
X780533Y848107D01*
X783199Y845441D01*
Y853438D01*
X785864D02*
X788530D01*
X787197D01*
Y845441D01*
X785864D01*
X788530D01*
X797861Y852106D02*
X796528Y853438D01*
X793862D01*
X792529Y852106D01*
Y850773D01*
X793862Y849440D01*
X796528D01*
X797861Y848107D01*
Y846774D01*
X796528Y845441D01*
X793862D01*
X792529Y846774D01*
X805858Y853438D02*
X800527D01*
Y845441D01*
X805858D01*
X800527Y849440D02*
X803192D01*
X808524Y845441D02*
X811190Y848107D01*
Y850773D01*
X808524Y853438D01*
X581499Y374498D02*
X580499Y375498D01*
X578500D01*
X577500Y374498D01*
Y370500D01*
X578500Y369500D01*
X580499D01*
X581499Y370500D01*
Y372499D01*
X579499D01*
X583498Y369500D02*
Y375498D01*
X586497D01*
X587497Y374498D01*
Y372499D01*
X586497Y371499D01*
X583498D01*
X589496Y369500D02*
X591496D01*
X590496D01*
Y375498D01*
X589496Y374498D01*
X581499Y350998D02*
X580499Y351998D01*
X578500D01*
X577500Y350998D01*
Y347000D01*
X578500Y346000D01*
X580499D01*
X581499Y347000D01*
Y348999D01*
X579499D01*
X583498Y346000D02*
Y351998D01*
X586497D01*
X587497Y350998D01*
Y348999D01*
X586497Y347999D01*
X583498D01*
X593495Y346000D02*
X589496D01*
X593495Y349999D01*
Y350998D01*
X592495Y351998D01*
X590496D01*
X589496Y350998D01*
X580263Y398908D02*
X579263Y399907D01*
X577263D01*
X576264Y398908D01*
Y394909D01*
X577263Y393910D01*
X579263D01*
X580263Y394909D01*
Y396908D01*
X578263D01*
X582262Y399907D02*
X586261D01*
X584261D01*
Y393910D01*
X588260Y399907D02*
Y393910D01*
X592259D01*
X581782Y277282D02*
X580783Y278281D01*
X578783D01*
X577783Y277282D01*
Y273283D01*
X578783Y272284D01*
X580783D01*
X581782Y273283D01*
Y275283D01*
X579783D01*
X583781Y278281D02*
Y272284D01*
X586781D01*
X587780Y273283D01*
Y274283D01*
X586781Y275283D01*
X583781D01*
X586781D01*
X587780Y276282D01*
Y277282D01*
X586781Y278281D01*
X583781D01*
X589780D02*
Y272284D01*
X593778D01*
X580263Y410908D02*
X579263Y411907D01*
X577263D01*
X576264Y410908D01*
Y406909D01*
X577263Y405909D01*
X579263D01*
X580263Y406909D01*
Y408909D01*
X578263D01*
X582262Y411907D02*
X586261D01*
X584261D01*
Y405909D01*
X592259Y410908D02*
X591259Y411907D01*
X589260D01*
X588260Y410908D01*
Y409908D01*
X589260Y408909D01*
X591259D01*
X592259Y407909D01*
Y406909D01*
X591259Y405909D01*
X589260D01*
X588260Y406909D01*
X580263Y422908D02*
X579263Y423908D01*
X577263D01*
X576264Y422908D01*
Y418909D01*
X577263Y417909D01*
X579263D01*
X580263Y418909D01*
Y420908D01*
X578263D01*
X582262Y423908D02*
X586261D01*
X584261D01*
Y417909D01*
X591259Y423908D02*
X589260D01*
X588260Y422908D01*
Y418909D01*
X589260Y417909D01*
X591259D01*
X592259Y418909D01*
Y422908D01*
X591259Y423908D01*
X580782Y265782D02*
X579782Y266781D01*
X577783D01*
X576784Y265782D01*
Y261783D01*
X577783Y260784D01*
X579782D01*
X580782Y261783D01*
Y263783D01*
X578783D01*
X582782Y266781D02*
Y260784D01*
X585781D01*
X586780Y261783D01*
Y262783D01*
X585781Y263783D01*
X582782D01*
X585781D01*
X586780Y264782D01*
Y265782D01*
X585781Y266781D01*
X582782D01*
X592778Y265782D02*
X591779Y266781D01*
X589779D01*
X588780Y265782D01*
Y264782D01*
X589779Y263783D01*
X591779D01*
X592778Y262783D01*
Y261783D01*
X591779Y260784D01*
X589779D01*
X588780Y261783D01*
X579282Y437282D02*
X575283D01*
Y434282D01*
X577283D01*
X575283D01*
Y431284D01*
X581282D02*
X583281D01*
X582281D01*
Y435282D01*
X581282D01*
X586280Y431284D02*
X588279D01*
X587280D01*
Y437282D01*
X586280D01*
X594277Y431284D02*
X592278D01*
X591278Y432283D01*
Y434282D01*
X592278Y435282D01*
X594277D01*
X595277Y434282D01*
Y433283D01*
X591278D01*
X587999Y326998D02*
X586999Y327998D01*
X585000D01*
X584000Y326998D01*
Y323000D01*
X585000Y322000D01*
X586999D01*
X587999Y323000D01*
Y324999D01*
X585999D01*
X589998Y322000D02*
X591997D01*
X590998D01*
Y327998D01*
X589998Y326998D01*
X580782Y254282D02*
X579782Y255281D01*
X577783D01*
X576784Y254282D01*
Y250283D01*
X577783Y249284D01*
X579782D01*
X580782Y250283D01*
Y252283D01*
X578783D01*
X582782Y255281D02*
Y249284D01*
X585781D01*
X586780Y250283D01*
Y251283D01*
X585781Y252283D01*
X582782D01*
X585781D01*
X586780Y253282D01*
Y254282D01*
X585781Y255281D01*
X582782D01*
X591779D02*
X589779D01*
X588780Y254282D01*
Y250283D01*
X589779Y249284D01*
X591779D01*
X592778Y250283D01*
Y254282D01*
X591779Y255281D01*
X581262Y302408D02*
X580263Y303408D01*
X578264D01*
X577264Y302408D01*
Y298409D01*
X578264Y297410D01*
X580263D01*
X581262Y298409D01*
Y300409D01*
X579263D01*
X583262Y297410D02*
Y303408D01*
X586261D01*
X587260Y302408D01*
Y300409D01*
X586261Y299409D01*
X583262D01*
X589260Y302408D02*
X590260Y303408D01*
X592259D01*
X593259Y302408D01*
Y301408D01*
X592259Y300409D01*
X591259D01*
X592259D01*
X593259Y299409D01*
Y298409D01*
X592259Y297410D01*
X590260D01*
X589260Y298409D01*
G54D92*
X213210Y-12816D02*
X215209D01*
X214210D01*
Y-6818D01*
X213210Y-7817D01*
X218208Y-12816D02*
X220208D01*
X219208D01*
Y-6818D01*
X218208Y-7817D01*
X223207Y-6818D02*
X227205D01*
Y-7817D01*
X223207Y-11816D01*
Y-12816D01*
X229205D02*
Y-11816D01*
X230205D01*
Y-12816D01*
X229205D01*
X234203Y-7817D02*
X235203Y-6818D01*
X237202D01*
X238202Y-7817D01*
Y-11816D01*
X237202Y-12816D01*
X235203D01*
X234203Y-11816D01*
Y-7817D01*
X240201D02*
X241201Y-6818D01*
X243200D01*
X244200Y-7817D01*
Y-11816D01*
X243200Y-12816D01*
X241201D01*
X240201Y-11816D01*
Y-7817D01*
X478209Y416891D02*
Y412892D01*
X474210Y416891D01*
X473211D01*
X472211Y415891D01*
Y413892D01*
X473211Y412892D01*
X478209Y418890D02*
Y420890D01*
Y419890D01*
X472211D01*
X473211Y418890D01*
Y423889D02*
X472211Y424888D01*
Y426888D01*
X473211Y427887D01*
X474210D01*
X475210Y426888D01*
X476210Y427887D01*
X477209D01*
X478209Y426888D01*
Y424888D01*
X477209Y423889D01*
X476210D01*
X475210Y424888D01*
X474210Y423889D01*
X473211D01*
X475210Y424888D02*
Y426888D01*
X478209Y429887D02*
X477209D01*
Y430886D01*
X478209D01*
Y429887D01*
X472211Y438884D02*
X473211Y436884D01*
X475210Y434885D01*
X477209D01*
X478209Y435885D01*
Y437884D01*
X477209Y438884D01*
X476210D01*
X475210Y437884D01*
Y434885D01*
X477209Y440883D02*
X478209Y441883D01*
Y443882D01*
X477209Y444882D01*
X473211D01*
X472211Y443882D01*
Y441883D01*
X473211Y440883D01*
X474210D01*
X475210Y441883D01*
Y444882D01*
X120936Y296778D02*
Y293446D01*
X120269Y292780D01*
X118936D01*
X118270Y293446D01*
Y296778D01*
X116937D02*
Y292780D01*
X114271D01*
X125274Y304170D02*
Y308169D01*
X123275D01*
X122608Y307502D01*
Y306169D01*
X123275Y305503D01*
X125274D01*
X123941D02*
X122608Y304170D01*
X120609D02*
X119276D01*
X118609Y304836D01*
Y306169D01*
X119276Y306836D01*
X120609D01*
X121275Y306169D01*
Y304836D01*
X120609Y304170D01*
X117277Y308169D02*
Y304170D01*
Y306169D01*
X114611D01*
Y308169D01*
Y304170D01*
X110612Y307502D02*
X111278Y308169D01*
X112611D01*
X113278Y307502D01*
Y306836D01*
X112611Y306169D01*
X111278D01*
X110612Y305503D01*
Y304836D01*
X111278Y304170D01*
X112611D01*
X113278Y304836D01*
X120936Y701778D02*
Y698446D01*
X120269Y697780D01*
X118936D01*
X118270Y698446D01*
Y701778D01*
X116937D02*
Y697780D01*
X114271D01*
X125274Y709170D02*
Y713168D01*
X123275D01*
X122608Y712502D01*
Y711169D01*
X123275Y710503D01*
X125274D01*
X123941D02*
X122608Y709170D01*
X120609D02*
X119276D01*
X118609Y709836D01*
Y711169D01*
X119276Y711836D01*
X120609D01*
X121275Y711169D01*
Y709836D01*
X120609Y709170D01*
X117277Y713168D02*
Y709170D01*
Y711169D01*
X114611D01*
Y713168D01*
Y709170D01*
X110612Y712502D02*
X111278Y713168D01*
X112611D01*
X113278Y712502D01*
Y711836D01*
X112611Y711169D01*
X111278D01*
X110612Y710503D01*
Y709836D01*
X111278Y709170D01*
X112611D01*
X113278Y709836D01*
G54D99*
X600509Y426000D02*
X1054389D01*
X600509Y438000D02*
X1054389D01*
X600509Y246000D02*
Y438000D01*
Y246000D02*
X641500D01*
X600509Y258000D02*
X641500D01*
X600509Y270000D02*
X641500D01*
X600509Y282000D02*
X641500D01*
X600509Y294000D02*
X641500D01*
X600509Y306000D02*
X641500D01*
X600509Y318000D02*
X641500D01*
X600509Y330000D02*
X641500D01*
X600509Y342000D02*
X641500D01*
X600509Y354000D02*
X641500D01*
X600509Y366000D02*
X641500D01*
X600509Y378000D02*
X641500D01*
X600509Y390000D02*
X641500D01*
X600509Y402000D02*
X641500D01*
X600509Y414000D02*
X641500D01*
Y246000D02*
Y438000D01*
Y246000D02*
X734474D01*
X641500Y258000D02*
X734474D01*
X641500Y270000D02*
X734474D01*
X641500Y282000D02*
X734474D01*
X641500Y294000D02*
X734474D01*
X641500Y306000D02*
X734474D01*
X641500Y318000D02*
X734474D01*
X641500Y330000D02*
X734474D01*
X641500Y342000D02*
X734474D01*
X641500Y354000D02*
X734474D01*
X641500Y366000D02*
X734474D01*
X641500Y378000D02*
X734474D01*
X641500Y390000D02*
X734474D01*
X641500Y402000D02*
X734474D01*
X641500Y414000D02*
X734474D01*
Y246000D02*
Y438000D01*
Y246000D02*
X820451D01*
X734474Y258000D02*
X820451D01*
X734474Y270000D02*
X820451D01*
X734474Y282000D02*
X820451D01*
X734474Y294000D02*
X820451D01*
X734474Y306000D02*
X820451D01*
X734474Y318000D02*
X820451D01*
X734474Y330000D02*
X820451D01*
X734474Y342000D02*
X820451D01*
X734474Y354000D02*
X820451D01*
X734474Y366000D02*
X820451D01*
X734474Y378000D02*
X820451D01*
X734474Y390000D02*
X820451D01*
X734474Y402000D02*
X820451D01*
X734474Y414000D02*
X820451D01*
Y246000D02*
Y438000D01*
Y246000D02*
X885435D01*
X820451Y258000D02*
X885435D01*
X820451Y270000D02*
X885435D01*
X820451Y282000D02*
X885435D01*
X820451Y294000D02*
X885435D01*
X820451Y306000D02*
X885435D01*
X820451Y318000D02*
X885435D01*
X820451Y330000D02*
X885435D01*
X820451Y342000D02*
X885435D01*
X820451Y354000D02*
X885435D01*
X820451Y366000D02*
X885435D01*
X820451Y378000D02*
X885435D01*
X820451Y390000D02*
X885435D01*
X820451Y402000D02*
X885435D01*
X820451Y414000D02*
X885435D01*
Y246000D02*
Y438000D01*
Y246000D02*
X942421D01*
X885435Y258000D02*
X942421D01*
X885435Y270000D02*
X942421D01*
X885435Y282000D02*
X942421D01*
X885435Y294000D02*
X942421D01*
X885435Y306000D02*
X942421D01*
X885435Y318000D02*
X942421D01*
X885435Y330000D02*
X942421D01*
X885435Y342000D02*
X942421D01*
X885435Y354000D02*
X942421D01*
X885435Y366000D02*
X942421D01*
X885435Y378000D02*
X942421D01*
X885435Y390000D02*
X942421D01*
X885435Y402000D02*
X942421D01*
X885435Y414000D02*
X942421D01*
Y246000D02*
Y438000D01*
Y246000D02*
X1054389D01*
X942421Y258000D02*
X1054389D01*
X942421Y270000D02*
X1054389D01*
X942421Y282000D02*
X1054389D01*
X942421Y294000D02*
X1054389D01*
X942421Y306000D02*
X1054389D01*
X942421Y318000D02*
X1054389D01*
X942421Y330000D02*
X1054389D01*
X942421Y342000D02*
X1054389D01*
X942421Y354000D02*
X1054389D01*
X942421Y366000D02*
X1054389D01*
X942421Y378000D02*
X1054389D01*
X942421Y390000D02*
X1054389D01*
X942421Y402000D02*
X1054389D01*
X942421Y414000D02*
X1054389D01*
Y246000D02*
Y438000D01*
G54D168*
X1048389Y246000D02*
X1054389Y252000D01*
X1042389Y246000D02*
X1054389Y258000D01*
X1036389Y246000D02*
X1048389Y258000D01*
X1030389Y246000D02*
X1042389Y258000D01*
X1024389Y246000D02*
X1036389Y258000D01*
X1018389Y246000D02*
X1030389Y258000D01*
X1012389Y246000D02*
X1024389Y258000D01*
X1006389Y246000D02*
X1018389Y258000D01*
X1000389Y246000D02*
X1012389Y258000D01*
X994389Y246000D02*
X1006389Y258000D01*
X988389Y246000D02*
X1000389Y258000D01*
X982389Y246000D02*
X994389Y258000D01*
X976389Y246000D02*
X988389Y258000D01*
X970389Y246000D02*
X982389Y258000D01*
X964389Y246000D02*
X976389Y258000D01*
X958389Y246000D02*
X970389Y258000D01*
X952389Y246000D02*
X964389Y258000D01*
X946389Y246000D02*
X958389Y258000D01*
X942421Y248032D02*
X952389Y258000D01*
X942421Y254032D02*
X946389Y258000D01*
X1048389D02*
X1054389Y264000D01*
X1042389Y258000D02*
X1054389Y270000D01*
X1036389Y258000D02*
X1048389Y270000D01*
X1030389Y258000D02*
X1042389Y270000D01*
X1024389Y258000D02*
X1036389Y270000D01*
X1018389Y258000D02*
X1030389Y270000D01*
X1012389Y258000D02*
X1024389Y270000D01*
X1006389Y258000D02*
X1018389Y270000D01*
X1000389Y258000D02*
X1012389Y270000D01*
X994389Y258000D02*
X1006389Y270000D01*
X988389Y258000D02*
X1000389Y270000D01*
X982389Y258000D02*
X994389Y270000D01*
X976389Y258000D02*
X988389Y270000D01*
X970389Y258000D02*
X982389Y270000D01*
X964389Y258000D02*
X976389Y270000D01*
X958389Y258000D02*
X970389Y270000D01*
X952389Y258000D02*
X964389Y270000D01*
X946389Y258000D02*
X958389Y270000D01*
X942421Y260032D02*
X952389Y270000D01*
X942421Y266032D02*
X946389Y270000D01*
X1048389D02*
X1054389Y276000D01*
X1042389Y270000D02*
X1054389Y282000D01*
X1036389Y270000D02*
X1048389Y282000D01*
X1030389Y270000D02*
X1042389Y282000D01*
X1024389Y270000D02*
X1036389Y282000D01*
X1018389Y270000D02*
X1030389Y282000D01*
X1012389Y270000D02*
X1024389Y282000D01*
X1006389Y270000D02*
X1018389Y282000D01*
X1000389Y270000D02*
X1012389Y282000D01*
X994389Y270000D02*
X1006389Y282000D01*
X988389Y270000D02*
X1000389Y282000D01*
X982389Y270000D02*
X994389Y282000D01*
X976389Y270000D02*
X988389Y282000D01*
X970389Y270000D02*
X982389Y282000D01*
X964389Y270000D02*
X976389Y282000D01*
X958389Y270000D02*
X970389Y282000D01*
X952389Y270000D02*
X964389Y282000D01*
X946389Y270000D02*
X958389Y282000D01*
X942421Y272032D02*
X952389Y282000D01*
X942421Y278032D02*
X946389Y282000D01*
X1048389D02*
X1054389Y288000D01*
X1042389Y282000D02*
X1054389Y294000D01*
X1036389Y282000D02*
X1048389Y294000D01*
X1030389Y282000D02*
X1042389Y294000D01*
X1024389Y282000D02*
X1036389Y294000D01*
X1018389Y282000D02*
X1030389Y294000D01*
X1012389Y282000D02*
X1024389Y294000D01*
X1006389Y282000D02*
X1018389Y294000D01*
X1000389Y282000D02*
X1012389Y294000D01*
X994389Y282000D02*
X1006389Y294000D01*
X988389Y282000D02*
X1000389Y294000D01*
X982389Y282000D02*
X994389Y294000D01*
X976389Y282000D02*
X988389Y294000D01*
X970389Y282000D02*
X982389Y294000D01*
X964389Y282000D02*
X976389Y294000D01*
X958389Y282000D02*
X970389Y294000D01*
X952389Y282000D02*
X964389Y294000D01*
X946389Y282000D02*
X958389Y294000D01*
X942421Y284032D02*
X952389Y294000D01*
X942421Y290032D02*
X946389Y294000D01*
X1048389D02*
X1054389Y300000D01*
X1042389Y294000D02*
X1054389Y306000D01*
X1036389Y294000D02*
X1048389Y306000D01*
X1030389Y294000D02*
X1042389Y306000D01*
X1024389Y294000D02*
X1036389Y306000D01*
X1018389Y294000D02*
X1030389Y306000D01*
X1012389Y294000D02*
X1024389Y306000D01*
X1006389Y294000D02*
X1018389Y306000D01*
X1000389Y294000D02*
X1012389Y306000D01*
X994389Y294000D02*
X1006389Y306000D01*
X988389Y294000D02*
X1000389Y306000D01*
X982389Y294000D02*
X994389Y306000D01*
X976389Y294000D02*
X988389Y306000D01*
X970389Y294000D02*
X982389Y306000D01*
X964389Y294000D02*
X976389Y306000D01*
X958389Y294000D02*
X970389Y306000D01*
X952389Y294000D02*
X964389Y306000D01*
X946389Y294000D02*
X958389Y306000D01*
X942421Y296032D02*
X952389Y306000D01*
X942421Y302032D02*
X946389Y306000D01*
X1048389D02*
X1054389Y312000D01*
X1042389Y306000D02*
X1054389Y318000D01*
X1036389Y306000D02*
X1048389Y318000D01*
X1030389Y306000D02*
X1042389Y318000D01*
X1024389Y306000D02*
X1036389Y318000D01*
X1018389Y306000D02*
X1030389Y318000D01*
X1012389Y306000D02*
X1024389Y318000D01*
X1006389Y306000D02*
X1018389Y318000D01*
X1000389Y306000D02*
X1012389Y318000D01*
X994389Y306000D02*
X1006389Y318000D01*
X988389Y306000D02*
X1000389Y318000D01*
X982389Y306000D02*
X994389Y318000D01*
X976389Y306000D02*
X988389Y318000D01*
X970389Y306000D02*
X982389Y318000D01*
X964389Y306000D02*
X976389Y318000D01*
X958389Y306000D02*
X970389Y318000D01*
X952389Y306000D02*
X964389Y318000D01*
X946389Y306000D02*
X958389Y318000D01*
X942421Y308032D02*
X952389Y318000D01*
X942421Y314032D02*
X946389Y318000D01*
X1048389D02*
X1054389Y324000D01*
X1042389Y318000D02*
X1054389Y330000D01*
X1036389Y318000D02*
X1048389Y330000D01*
X1030389Y318000D02*
X1042389Y330000D01*
X1024389Y318000D02*
X1036389Y330000D01*
X1018389Y318000D02*
X1030389Y330000D01*
X1012389Y318000D02*
X1024389Y330000D01*
X1006389Y318000D02*
X1018389Y330000D01*
X1000389Y318000D02*
X1012389Y330000D01*
X994389Y318000D02*
X1006389Y330000D01*
X988389Y318000D02*
X1000389Y330000D01*
X982389Y318000D02*
X994389Y330000D01*
X976389Y318000D02*
X988389Y330000D01*
X970389Y318000D02*
X982389Y330000D01*
X964389Y318000D02*
X976389Y330000D01*
X958389Y318000D02*
X970389Y330000D01*
X952389Y318000D02*
X964389Y330000D01*
X946389Y318000D02*
X958389Y330000D01*
X942421Y320032D02*
X952389Y330000D01*
X942421Y326032D02*
X946389Y330000D01*
X1048389D02*
X1054389Y336000D01*
X1042389Y330000D02*
X1054389Y342000D01*
X1036389Y330000D02*
X1048389Y342000D01*
X1030389Y330000D02*
X1042389Y342000D01*
X1024389Y330000D02*
X1036389Y342000D01*
X1018389Y330000D02*
X1030389Y342000D01*
X1012389Y330000D02*
X1024389Y342000D01*
X1006389Y330000D02*
X1018389Y342000D01*
X1000389Y330000D02*
X1012389Y342000D01*
X994389Y330000D02*
X1006389Y342000D01*
X988389Y330000D02*
X1000389Y342000D01*
X982389Y330000D02*
X994389Y342000D01*
X976389Y330000D02*
X988389Y342000D01*
X970389Y330000D02*
X982389Y342000D01*
X964389Y330000D02*
X976389Y342000D01*
X958389Y330000D02*
X970389Y342000D01*
X952389Y330000D02*
X964389Y342000D01*
X946389Y330000D02*
X958389Y342000D01*
X942421Y332032D02*
X952389Y342000D01*
X942421Y338032D02*
X946389Y342000D01*
X1048389D02*
X1054389Y348000D01*
X1042389Y342000D02*
X1054389Y354000D01*
X1036389Y342000D02*
X1048389Y354000D01*
X1030389Y342000D02*
X1042389Y354000D01*
X1024389Y342000D02*
X1036389Y354000D01*
X1018389Y342000D02*
X1030389Y354000D01*
X1012389Y342000D02*
X1024389Y354000D01*
X1006389Y342000D02*
X1018389Y354000D01*
X1000389Y342000D02*
X1012389Y354000D01*
X994389Y342000D02*
X1006389Y354000D01*
X988389Y342000D02*
X1000389Y354000D01*
X982389Y342000D02*
X994389Y354000D01*
X976389Y342000D02*
X988389Y354000D01*
X970389Y342000D02*
X982389Y354000D01*
X964389Y342000D02*
X976389Y354000D01*
X958389Y342000D02*
X970389Y354000D01*
X952389Y342000D02*
X964389Y354000D01*
X946389Y342000D02*
X958389Y354000D01*
X942421Y344032D02*
X952389Y354000D01*
X942421Y350032D02*
X946389Y354000D01*
X1048389D02*
X1054389Y360000D01*
X1042389Y354000D02*
X1054389Y366000D01*
X1036389Y354000D02*
X1048389Y366000D01*
X1030389Y354000D02*
X1042389Y366000D01*
X1024389Y354000D02*
X1036389Y366000D01*
X1018389Y354000D02*
X1030389Y366000D01*
X1012389Y354000D02*
X1024389Y366000D01*
X1006389Y354000D02*
X1018389Y366000D01*
X1000389Y354000D02*
X1012389Y366000D01*
X994389Y354000D02*
X1006389Y366000D01*
X988389Y354000D02*
X1000389Y366000D01*
X982389Y354000D02*
X994389Y366000D01*
X976389Y354000D02*
X988389Y366000D01*
X970389Y354000D02*
X982389Y366000D01*
X964389Y354000D02*
X976389Y366000D01*
X958389Y354000D02*
X970389Y366000D01*
X952389Y354000D02*
X964389Y366000D01*
X946389Y354000D02*
X958389Y366000D01*
X942421Y356032D02*
X952389Y366000D01*
X942421Y362032D02*
X946389Y366000D01*
X1048389D02*
X1054389Y372000D01*
X1042389Y366000D02*
X1054389Y378000D01*
X1036389Y366000D02*
X1048389Y378000D01*
X1030389Y366000D02*
X1042389Y378000D01*
X1024389Y366000D02*
X1036389Y378000D01*
X1018389Y366000D02*
X1030389Y378000D01*
X1012389Y366000D02*
X1024389Y378000D01*
X1006389Y366000D02*
X1018389Y378000D01*
X1000389Y366000D02*
X1012389Y378000D01*
X994389Y366000D02*
X1006389Y378000D01*
X988389Y366000D02*
X1000389Y378000D01*
X982389Y366000D02*
X994389Y378000D01*
X976389Y366000D02*
X988389Y378000D01*
X970389Y366000D02*
X982389Y378000D01*
X964389Y366000D02*
X976389Y378000D01*
X958389Y366000D02*
X970389Y378000D01*
X952389Y366000D02*
X964389Y378000D01*
X946389Y366000D02*
X958389Y378000D01*
X942421Y368032D02*
X952389Y378000D01*
X942421Y374032D02*
X946389Y378000D01*
X1048389D02*
X1054389Y384000D01*
X1042389Y378000D02*
X1054389Y390000D01*
X1036389Y378000D02*
X1048389Y390000D01*
X1030389Y378000D02*
X1042389Y390000D01*
X1024389Y378000D02*
X1036389Y390000D01*
X1018389Y378000D02*
X1030389Y390000D01*
X1012389Y378000D02*
X1024389Y390000D01*
X1006389Y378000D02*
X1018389Y390000D01*
X1000389Y378000D02*
X1012389Y390000D01*
X994389Y378000D02*
X1006389Y390000D01*
X988389Y378000D02*
X1000389Y390000D01*
X982389Y378000D02*
X994389Y390000D01*
X976389Y378000D02*
X988389Y390000D01*
X970389Y378000D02*
X982389Y390000D01*
X964389Y378000D02*
X976389Y390000D01*
X958389Y378000D02*
X970389Y390000D01*
X952389Y378000D02*
X964389Y390000D01*
X946389Y378000D02*
X958389Y390000D01*
X942421Y380032D02*
X952389Y390000D01*
X942421Y386032D02*
X946389Y390000D01*
X1048389D02*
X1054389Y396000D01*
X1042389Y390000D02*
X1054389Y402000D01*
X1036389Y390000D02*
X1048389Y402000D01*
X1030389Y390000D02*
X1042389Y402000D01*
X1024389Y390000D02*
X1036389Y402000D01*
X1018389Y390000D02*
X1030389Y402000D01*
X1012389Y390000D02*
X1024389Y402000D01*
X1006389Y390000D02*
X1018389Y402000D01*
X1000389Y390000D02*
X1012389Y402000D01*
X994389Y390000D02*
X1006389Y402000D01*
X988389Y390000D02*
X1000389Y402000D01*
X982389Y390000D02*
X994389Y402000D01*
X976389Y390000D02*
X988389Y402000D01*
X970389Y390000D02*
X982389Y402000D01*
X964389Y390000D02*
X976389Y402000D01*
X958389Y390000D02*
X970389Y402000D01*
X952389Y390000D02*
X964389Y402000D01*
X946389Y390000D02*
X958389Y402000D01*
X942421Y392032D02*
X952389Y402000D01*
X942421Y398032D02*
X946389Y402000D01*
X1048389D02*
X1054389Y408000D01*
X1042389Y402000D02*
X1054389Y414000D01*
X1036389Y402000D02*
X1048389Y414000D01*
X1030389Y402000D02*
X1042389Y414000D01*
X1024389Y402000D02*
X1036389Y414000D01*
X1018389Y402000D02*
X1030389Y414000D01*
X1012389Y402000D02*
X1024389Y414000D01*
X1006389Y402000D02*
X1018389Y414000D01*
X1000389Y402000D02*
X1012389Y414000D01*
X994389Y402000D02*
X1006389Y414000D01*
X988389Y402000D02*
X1000389Y414000D01*
X982389Y402000D02*
X994389Y414000D01*
X976389Y402000D02*
X988389Y414000D01*
X970389Y402000D02*
X982389Y414000D01*
X964389Y402000D02*
X976389Y414000D01*
X958389Y402000D02*
X970389Y414000D01*
X952389Y402000D02*
X964389Y414000D01*
X946389Y402000D02*
X958389Y414000D01*
X942421Y404032D02*
X952389Y414000D01*
X942421Y410032D02*
X946389Y414000D01*
X1048389D02*
X1054389Y420000D01*
X1042389Y414000D02*
X1054389Y426000D01*
X1036389Y414000D02*
X1048389Y426000D01*
X1030389Y414000D02*
X1042389Y426000D01*
X1024389Y414000D02*
X1036389Y426000D01*
X1018389Y414000D02*
X1030389Y426000D01*
X1012389Y414000D02*
X1024389Y426000D01*
X1006389Y414000D02*
X1018389Y426000D01*
X1000389Y414000D02*
X1012389Y426000D01*
X994389Y414000D02*
X1006389Y426000D01*
X988389Y414000D02*
X1000389Y426000D01*
X982389Y414000D02*
X994389Y426000D01*
X976389Y414000D02*
X988389Y426000D01*
X970389Y414000D02*
X982389Y426000D01*
X964389Y414000D02*
X976389Y426000D01*
X958389Y414000D02*
X970389Y426000D01*
X952389Y414000D02*
X964389Y426000D01*
X946389Y414000D02*
X958389Y426000D01*
X942421Y416032D02*
X952389Y426000D01*
X942421Y422032D02*
X946389Y426000D01*
G54D170*
X128673Y287700D02*
Y289699D01*
X128173D01*
X127673Y289199D01*
Y287700D01*
Y289199D01*
X127173Y289699D01*
X126674Y289199D01*
Y287700D01*
X125174Y289699D02*
X124174D01*
X123675Y289199D01*
Y287700D01*
X125174D01*
X125674Y288199D01*
X125174Y288699D01*
X123675D01*
X122675Y289699D02*
Y287700D01*
Y288699D01*
X122175Y289199D01*
X121675Y289699D01*
X121176D01*
X119676Y287700D02*
Y290699D01*
Y288699D02*
X118176Y289699D01*
X119676Y288699D02*
X118176Y287700D01*
X116677D02*
X115677D01*
X116177D01*
Y289699D01*
X116677D01*
X114178Y287700D02*
Y289699D01*
X112678D01*
X112178Y289199D01*
Y287700D01*
X110179Y286700D02*
X109679D01*
X109179Y287200D01*
Y289699D01*
X110679D01*
X111179Y289199D01*
Y288199D01*
X110679Y287700D01*
X109179D01*
X108180D02*
X106680D01*
X106180Y288199D01*
X106680Y288699D01*
X107680D01*
X108180Y289199D01*
X107680Y289699D01*
X106180D01*
X121761Y301115D02*
X120762D01*
X120262Y300616D01*
Y299116D01*
X121761D01*
X122261Y299616D01*
X121761Y300116D01*
X120262D01*
X119262Y299116D02*
Y301115D01*
X117763D01*
X117263Y300616D01*
Y299116D01*
X114264Y302115D02*
Y299116D01*
X115763D01*
X116263Y299616D01*
Y300616D01*
X115763Y301115D01*
X114264D01*
X128673Y692700D02*
Y694699D01*
X128173D01*
X127673Y694199D01*
Y692700D01*
Y694199D01*
X127173Y694699D01*
X126674Y694199D01*
Y692700D01*
X125174Y694699D02*
X124174D01*
X123675Y694199D01*
Y692700D01*
X125174D01*
X125674Y693199D01*
X125174Y693699D01*
X123675D01*
X122675Y694699D02*
Y692700D01*
Y693699D01*
X122175Y694199D01*
X121675Y694699D01*
X121176D01*
X119676Y692700D02*
Y695699D01*
Y693699D02*
X118176Y694699D01*
X119676Y693699D02*
X118176Y692700D01*
X116677D02*
X115677D01*
X116177D01*
Y694699D01*
X116677D01*
X114178Y692700D02*
Y694699D01*
X112678D01*
X112178Y694199D01*
Y692700D01*
X110179Y691700D02*
X109679D01*
X109179Y692200D01*
Y694699D01*
X110679D01*
X111179Y694199D01*
Y693199D01*
X110679Y692700D01*
X109179D01*
X108180D02*
X106680D01*
X106180Y693199D01*
X106680Y693699D01*
X107680D01*
X108180Y694199D01*
X107680Y694699D01*
X106180D01*
X121761Y706115D02*
X120762D01*
X120262Y705616D01*
Y704116D01*
X121761D01*
X122261Y704616D01*
X121761Y705116D01*
X120262D01*
X119262Y704116D02*
Y706115D01*
X117763D01*
X117263Y705616D01*
Y704116D01*
X114264Y707115D02*
Y704116D01*
X115763D01*
X116263Y704616D01*
Y705616D01*
X115763Y706115D01*
X114264D01*
M02*
