G04*
G04 #@! TF.GenerationSoftware,Altium Limited,Altium Designer,19.1.5 (86)*
G04*
G04 Layer_Color=8388736*
%FSLAX25Y25*%
%MOIN*%
G70*
G01*
G75*
%ADD12C,0.01000*%
%ADD26C,0.06000*%
%ADD131C,0.03000*%
%ADD258C,0.12205*%
%ADD259R,0.10400X0.16800*%
G04:AMPARAMS|DCode=260|XSize=118.74mil|YSize=118.74mil|CornerRadius=59.37mil|HoleSize=0mil|Usage=FLASHONLY|Rotation=90.000|XOffset=0mil|YOffset=0mil|HoleType=Round|Shape=RoundedRectangle|*
%AMROUNDEDRECTD260*
21,1,0.11874,0.00000,0,0,90.0*
21,1,0.00000,0.11874,0,0,90.0*
1,1,0.11874,0.00000,0.00000*
1,1,0.11874,0.00000,0.00000*
1,1,0.11874,0.00000,0.00000*
1,1,0.11874,0.00000,0.00000*
%
%ADD260ROUNDEDRECTD260*%
%ADD261R,0.04737X0.03556*%
%ADD262R,0.05524X0.04934*%
%ADD263R,0.05524X0.05328*%
%ADD264R,0.05524X0.06509*%
%ADD265R,0.03531X0.04737*%
%ADD266R,0.04343X0.06312*%
%ADD267R,0.08700X0.08700*%
%ADD268R,0.03038X0.03865*%
G04:AMPARAMS|DCode=269|XSize=30mil|YSize=32mil|CornerRadius=8.4mil|HoleSize=0mil|Usage=FLASHONLY|Rotation=180.000|XOffset=0mil|YOffset=0mil|HoleType=Round|Shape=RoundedRectangle|*
%AMROUNDEDRECTD269*
21,1,0.03000,0.01520,0,0,180.0*
21,1,0.01320,0.03200,0,0,180.0*
1,1,0.01680,-0.00660,0.00760*
1,1,0.01680,0.00660,0.00760*
1,1,0.01680,0.00660,-0.00760*
1,1,0.01680,-0.00660,-0.00760*
%
%ADD269ROUNDEDRECTD269*%
%ADD270O,0.06706X0.03162*%
%ADD271R,0.03753X0.11824*%
%ADD272R,0.02126X0.02598*%
%ADD273R,0.06063X0.02451*%
%ADD274O,0.07887X0.01781*%
%ADD275O,0.01781X0.07887*%
%ADD276R,0.05524X0.04343*%
%ADD277O,0.09855X0.03162*%
%ADD278R,0.03700X0.04700*%
G04:AMPARAMS|DCode=279|XSize=80mil|YSize=80mil|CornerRadius=40mil|HoleSize=0mil|Usage=FLASHONLY|Rotation=270.000|XOffset=0mil|YOffset=0mil|HoleType=Round|Shape=RoundedRectangle|*
%AMROUNDEDRECTD279*
21,1,0.08000,0.00000,0,0,270.0*
21,1,0.00000,0.08000,0,0,270.0*
1,1,0.08000,0.00000,0.00000*
1,1,0.08000,0.00000,0.00000*
1,1,0.08000,0.00000,0.00000*
1,1,0.08000,0.00000,0.00000*
%
%ADD279ROUNDEDRECTD279*%
%ADD280R,0.05600X0.05600*%
%ADD281R,0.05600X0.05600*%
%ADD282R,0.02565X0.02368*%
G04:AMPARAMS|DCode=283|XSize=26mil|YSize=28mil|CornerRadius=6.4mil|HoleSize=0mil|Usage=FLASHONLY|Rotation=0.000|XOffset=0mil|YOffset=0mil|HoleType=Round|Shape=RoundedRectangle|*
%AMROUNDEDRECTD283*
21,1,0.02600,0.01520,0,0,0.0*
21,1,0.01320,0.02800,0,0,0.0*
1,1,0.01280,0.00660,-0.00760*
1,1,0.01280,-0.00660,-0.00760*
1,1,0.01280,-0.00660,0.00760*
1,1,0.01280,0.00660,0.00760*
%
%ADD283ROUNDEDRECTD283*%
%ADD284R,0.05131X0.07493*%
G04:AMPARAMS|DCode=285|XSize=33.13mil|YSize=43.37mil|CornerRadius=7.83mil|HoleSize=0mil|Usage=FLASHONLY|Rotation=90.000|XOffset=0mil|YOffset=0mil|HoleType=Round|Shape=RoundedRectangle|*
%AMROUNDEDRECTD285*
21,1,0.03313,0.02772,0,0,90.0*
21,1,0.01748,0.04337,0,0,90.0*
1,1,0.01565,0.01386,0.00874*
1,1,0.01565,0.01386,-0.00874*
1,1,0.01565,-0.01386,-0.00874*
1,1,0.01565,-0.01386,0.00874*
%
%ADD285ROUNDEDRECTD285*%
%ADD286R,0.02762X0.03747*%
%ADD287R,0.04400X0.04000*%
%ADD288R,0.04737X0.04343*%
%ADD289R,0.03943X0.01975*%
%ADD290R,0.02080X0.01863*%
%ADD291R,0.02800X0.02800*%
%ADD292R,0.08400X0.08400*%
%ADD293O,0.03550X0.01502*%
%ADD294O,0.01502X0.03550*%
G04:AMPARAMS|DCode=295|XSize=33.13mil|YSize=43.37mil|CornerRadius=7.83mil|HoleSize=0mil|Usage=FLASHONLY|Rotation=0.000|XOffset=0mil|YOffset=0mil|HoleType=Round|Shape=RoundedRectangle|*
%AMROUNDEDRECTD295*
21,1,0.03313,0.02772,0,0,0.0*
21,1,0.01748,0.04337,0,0,0.0*
1,1,0.01565,0.00874,-0.01386*
1,1,0.01565,-0.00874,-0.01386*
1,1,0.01565,-0.00874,0.01386*
1,1,0.01565,0.00874,0.01386*
%
%ADD295ROUNDEDRECTD295*%
%ADD296R,0.14186X0.06312*%
%ADD297R,0.03162X0.03950*%
G04:AMPARAMS|DCode=298|XSize=71mil|YSize=79mil|CornerRadius=19.75mil|HoleSize=0mil|Usage=FLASHONLY|Rotation=0.000|XOffset=0mil|YOffset=0mil|HoleType=Round|Shape=RoundedRectangle|*
%AMROUNDEDRECTD298*
21,1,0.07100,0.03950,0,0,0.0*
21,1,0.03150,0.07900,0,0,0.0*
1,1,0.03950,0.01575,-0.01975*
1,1,0.03950,-0.01575,-0.01975*
1,1,0.03950,-0.01575,0.01975*
1,1,0.03950,0.01575,0.01975*
%
%ADD298ROUNDEDRECTD298*%
%ADD299O,0.01384X0.03747*%
%ADD300O,0.03747X0.01384*%
%ADD301R,0.16542X0.14573*%
%ADD302R,0.03550X0.02565*%
%ADD303O,0.06509X0.02965*%
%ADD304R,0.03865X0.03038*%
%ADD305R,0.05918X0.06312*%
%ADD306R,0.11430X0.04540*%
%ADD307R,0.05400X0.08700*%
%ADD308R,0.16942X0.14580*%
%ADD309R,0.05721X0.02965*%
%ADD310R,0.10249X0.13005*%
%ADD311R,0.05321X0.03550*%
%ADD312R,0.06312X0.03162*%
%ADD313R,0.07887X0.03162*%
%ADD314R,0.06699X0.03943*%
%ADD315R,0.01384X0.02368*%
%ADD316R,0.01581X0.01975*%
G04:AMPARAMS|DCode=317|XSize=26mil|YSize=28mil|CornerRadius=6.4mil|HoleSize=0mil|Usage=FLASHONLY|Rotation=270.000|XOffset=0mil|YOffset=0mil|HoleType=Round|Shape=RoundedRectangle|*
%AMROUNDEDRECTD317*
21,1,0.02600,0.01520,0,0,270.0*
21,1,0.01320,0.02800,0,0,270.0*
1,1,0.01280,-0.00760,-0.00660*
1,1,0.01280,-0.00760,0.00660*
1,1,0.01280,0.00760,0.00660*
1,1,0.01280,0.00760,-0.00660*
%
%ADD317ROUNDEDRECTD317*%
%ADD318R,0.04737X0.02965*%
%ADD319R,0.06312X0.14186*%
%ADD320R,0.03600X0.06400*%
%ADD321R,0.02054X0.02054*%
%ADD322R,0.02375X0.01981*%
%ADD323R,0.02368X0.02565*%
%ADD324R,0.01981X0.02375*%
%ADD325R,0.01975X0.01581*%
%ADD326R,0.02054X0.02054*%
G04:AMPARAMS|DCode=327|XSize=30mil|YSize=32mil|CornerRadius=8.4mil|HoleSize=0mil|Usage=FLASHONLY|Rotation=90.000|XOffset=0mil|YOffset=0mil|HoleType=Round|Shape=RoundedRectangle|*
%AMROUNDEDRECTD327*
21,1,0.03000,0.01520,0,0,90.0*
21,1,0.01320,0.03200,0,0,90.0*
1,1,0.01680,0.00760,0.00660*
1,1,0.01680,0.00760,-0.00660*
1,1,0.01680,-0.00760,-0.00660*
1,1,0.01680,-0.00760,0.00660*
%
%ADD327ROUNDEDRECTD327*%
%ADD328R,0.04540X0.11430*%
%ADD329R,0.03950X0.03162*%
%ADD330R,0.02800X0.02800*%
%ADD331R,0.03747X0.02762*%
G04:AMPARAMS|DCode=332|XSize=80mil|YSize=80mil|CornerRadius=40mil|HoleSize=0mil|Usage=FLASHONLY|Rotation=0.000|XOffset=0mil|YOffset=0mil|HoleType=Round|Shape=RoundedRectangle|*
%AMROUNDEDRECTD332*
21,1,0.08000,0.00000,0,0,0.0*
21,1,0.00000,0.08000,0,0,0.0*
1,1,0.08000,0.00000,0.00000*
1,1,0.08000,0.00000,0.00000*
1,1,0.08000,0.00000,0.00000*
1,1,0.08000,0.00000,0.00000*
%
%ADD332ROUNDEDRECTD332*%
G04:AMPARAMS|DCode=333|XSize=37.13mil|YSize=47.37mil|CornerRadius=9.83mil|HoleSize=0mil|Usage=FLASHONLY|Rotation=180.000|XOffset=0mil|YOffset=0mil|HoleType=Round|Shape=RoundedRectangle|*
%AMROUNDEDRECTD333*
21,1,0.03713,0.02772,0,0,180.0*
21,1,0.01748,0.04737,0,0,180.0*
1,1,0.01965,-0.00874,0.01386*
1,1,0.01965,0.00874,0.01386*
1,1,0.01965,0.00874,-0.01386*
1,1,0.01965,-0.00874,-0.01386*
%
%ADD333ROUNDEDRECTD333*%
%ADD334R,0.07493X0.05131*%
%ADD335R,0.08700X0.08700*%
%ADD336O,0.17300X0.09050*%
G04:AMPARAMS|DCode=337|XSize=141mil|YSize=91mil|CornerRadius=0mil|HoleSize=0mil|Usage=FLASHONLY|Rotation=90.000|XOffset=0mil|YOffset=0mil|HoleType=Round|Shape=Octagon|*
%AMOCTAGOND337*
4,1,8,0.02275,0.07050,-0.02275,0.07050,-0.04550,0.04775,-0.04550,-0.04775,-0.02275,-0.07050,0.02275,-0.07050,0.04550,-0.04775,0.04550,0.04775,0.02275,0.07050,0.0*
%
%ADD337OCTAGOND337*%

%ADD338O,0.09050X0.17300*%
%ADD339C,0.10800*%
%ADD340P,0.08443X8X292.5*%
%ADD341C,0.13850*%
%ADD342C,0.06600*%
%ADD343O,0.06800X0.12800*%
%ADD344R,0.06706X0.06706*%
%ADD345C,0.06706*%
%ADD346O,0.12800X0.06800*%
%ADD347C,0.01000*%
G36*
X49778Y799808D02*
X47809D01*
Y801481D01*
X49778D01*
Y799808D01*
D02*
G37*
G36*
X422539Y799472D02*
X420866D01*
Y801441D01*
X422539D01*
Y799472D01*
D02*
G37*
G36*
X171746Y779179D02*
X170761D01*
Y765793D01*
X154226D01*
Y779179D01*
X153242D01*
Y783214D01*
X171746D01*
Y779179D01*
D02*
G37*
G36*
X131646D02*
X130661D01*
Y765793D01*
X114126D01*
Y779179D01*
X113142D01*
Y783214D01*
X131646D01*
Y779179D01*
D02*
G37*
G36*
X91795D02*
X90811D01*
Y765793D01*
X74276D01*
Y779179D01*
X73291D01*
Y783214D01*
X91795D01*
Y779179D01*
D02*
G37*
G36*
X36445Y760728D02*
X34772D01*
Y762697D01*
X36445D01*
Y760728D01*
D02*
G37*
G36*
X257295Y771179D02*
X256311D01*
Y757793D01*
X239776D01*
Y771179D01*
X238791D01*
Y775214D01*
X257295D01*
Y771179D01*
D02*
G37*
G36*
X326169Y750965D02*
X326207Y750953D01*
X326242Y750935D01*
X326272Y750910D01*
X328831Y748351D01*
X328856Y748320D01*
X328875Y748286D01*
X328886Y748248D01*
X328890Y748209D01*
Y745847D01*
X328886Y745807D01*
X328875Y745770D01*
X328856Y745735D01*
X328831Y745704D01*
X326272Y743145D01*
X326242Y743120D01*
X326207Y743102D01*
X326169Y743090D01*
X326130Y743086D01*
X318650D01*
X318610Y743090D01*
X318573Y743102D01*
X318538Y743120D01*
X318508Y743145D01*
X315929Y745724D01*
X315929Y745724D01*
X315917Y745738D01*
X315904Y745755D01*
X315892Y745777D01*
X315885Y745789D01*
X315874Y745827D01*
X315870Y745866D01*
X315870Y745866D01*
Y748189D01*
X315874Y748228D01*
X315885Y748266D01*
X315904Y748301D01*
X315929Y748331D01*
X318508Y750910D01*
X318508Y750910D01*
X318524Y750924D01*
X318538Y750935D01*
X318573Y750953D01*
X318610Y750965D01*
X318650Y750969D01*
X326130D01*
X326169Y750965D01*
D02*
G37*
G36*
X73027Y687782D02*
X68322D01*
X68323Y687782D01*
X68322D01*
Y693573D01*
X73027D01*
Y687782D01*
D02*
G37*
G36*
X249347Y682677D02*
X178463Y682677D01*
X178463Y690650D01*
X249327D01*
X249347Y682677D01*
D02*
G37*
G36*
X259476Y610276D02*
X257547D01*
X251307Y610261D01*
X251307Y681142D01*
X259476Y681142D01*
Y610276D01*
D02*
G37*
G36*
X176406Y609673D02*
X168236Y609673D01*
Y680537D01*
X176406Y680557D01*
X176406Y609673D01*
D02*
G37*
G36*
X249325Y607677D02*
X249325Y599606D01*
X178460D01*
X178440Y607677D01*
X249325Y607677D01*
D02*
G37*
G36*
X413581Y462210D02*
X411908D01*
Y464178D01*
X413581D01*
Y462210D01*
D02*
G37*
G36*
X59878Y439606D02*
X57910D01*
Y441280D01*
X59878D01*
Y439606D01*
D02*
G37*
G36*
X49778Y394808D02*
X47809D01*
Y396481D01*
X49778D01*
Y394808D01*
D02*
G37*
G36*
X422539Y394472D02*
X420866D01*
Y396441D01*
X422539D01*
Y394472D01*
D02*
G37*
G36*
X171746Y374179D02*
X170761D01*
Y360793D01*
X154226D01*
Y374179D01*
X153242D01*
Y378214D01*
X171746D01*
Y374179D01*
D02*
G37*
G36*
X131646D02*
X130661D01*
Y360793D01*
X114126D01*
Y374179D01*
X113142D01*
Y378214D01*
X131646D01*
Y374179D01*
D02*
G37*
G36*
X91795D02*
X90811D01*
Y360793D01*
X74276D01*
Y374179D01*
X73291D01*
Y378214D01*
X91795D01*
Y374179D01*
D02*
G37*
G36*
X36445Y355728D02*
X34772D01*
Y357697D01*
X36445D01*
Y355728D01*
D02*
G37*
G36*
X257295Y366179D02*
X256311D01*
Y352793D01*
X239776D01*
Y366179D01*
X238791D01*
Y370214D01*
X257295D01*
Y366179D01*
D02*
G37*
G36*
X326169Y345965D02*
X326207Y345953D01*
X326242Y345935D01*
X326272Y345910D01*
X328831Y343351D01*
X328856Y343320D01*
X328875Y343286D01*
X328886Y343248D01*
X328890Y343209D01*
Y340846D01*
X328886Y340807D01*
X328875Y340770D01*
X328856Y340735D01*
X328831Y340704D01*
X326272Y338145D01*
X326242Y338120D01*
X326207Y338102D01*
X326169Y338090D01*
X326130Y338087D01*
X318650D01*
X318610Y338090D01*
X318573Y338102D01*
X318538Y338120D01*
X318508Y338145D01*
X315929Y340724D01*
X315929Y340724D01*
X315917Y340738D01*
X315904Y340755D01*
X315892Y340777D01*
X315885Y340789D01*
X315874Y340827D01*
X315870Y340866D01*
X315870Y340866D01*
Y343189D01*
X315874Y343228D01*
X315885Y343266D01*
X315904Y343301D01*
X315929Y343331D01*
X318508Y345910D01*
X318508Y345910D01*
X318524Y345924D01*
X318538Y345935D01*
X318573Y345953D01*
X318610Y345965D01*
X318650Y345969D01*
X326130D01*
X326169Y345965D01*
D02*
G37*
G36*
X73027Y282782D02*
X68322D01*
X68323Y282782D01*
X68322D01*
Y288573D01*
X73027D01*
Y282782D01*
D02*
G37*
G36*
X249347Y277677D02*
X178463Y277677D01*
X178463Y285650D01*
X249327D01*
X249347Y277677D01*
D02*
G37*
G36*
X259476Y205276D02*
X257547D01*
X251307Y205261D01*
X251307Y276142D01*
X259476Y276142D01*
Y205276D01*
D02*
G37*
G36*
X176406Y204673D02*
X168236Y204673D01*
Y275537D01*
X176406Y275557D01*
X176406Y204673D01*
D02*
G37*
G36*
X249325Y202677D02*
X249325Y194606D01*
X178460D01*
X178440Y202677D01*
X249325Y202677D01*
D02*
G37*
G36*
X413581Y57209D02*
X411908D01*
Y59178D01*
X413581D01*
Y57209D01*
D02*
G37*
G36*
X59878Y34606D02*
X57910D01*
Y36279D01*
X59878D01*
Y34606D01*
D02*
G37*
G54D12*
X407369Y964837D02*
X412368D01*
X409869D01*
Y957340D01*
X416117D02*
X418616D01*
X419865Y958589D01*
Y961089D01*
X418616Y962338D01*
X416117D01*
X414867Y961089D01*
Y958589D01*
X416117Y957340D01*
X422365Y954841D02*
Y962338D01*
X426113D01*
X427363Y961089D01*
Y958589D01*
X426113Y957340D01*
X422365D01*
X442358Y963588D02*
X441109Y964837D01*
X438609D01*
X437360Y963588D01*
Y962338D01*
X438609Y961089D01*
X441109D01*
X442358Y959839D01*
Y958589D01*
X441109Y957340D01*
X438609D01*
X437360Y958589D01*
X446107Y957340D02*
X448606D01*
X449856Y958589D01*
Y961089D01*
X448606Y962338D01*
X446107D01*
X444857Y961089D01*
Y958589D01*
X446107Y957340D01*
X452355D02*
X454854D01*
X453605D01*
Y964837D01*
X452355D01*
X463601D02*
Y957340D01*
X459853D01*
X458603Y958589D01*
Y961089D01*
X459853Y962338D01*
X463601D01*
X469849Y957340D02*
X467350D01*
X466101Y958589D01*
Y961089D01*
X467350Y962338D01*
X469849D01*
X471099Y961089D01*
Y959839D01*
X466101D01*
X473598Y962338D02*
Y957340D01*
Y959839D01*
X474848Y961089D01*
X476097Y962338D01*
X477347D01*
X481096Y957340D02*
Y962338D01*
X482345D01*
X483595Y961089D01*
Y957340D01*
Y961089D01*
X484844Y962338D01*
X486094Y961089D01*
Y957340D01*
X489843Y962338D02*
X492342D01*
X493592Y961089D01*
Y957340D01*
X489843D01*
X488593Y958589D01*
X489843Y959839D01*
X493592D01*
X496091Y957340D02*
X499840D01*
X501089Y958589D01*
X499840Y959839D01*
X497340D01*
X496091Y961089D01*
X497340Y962338D01*
X501089D01*
X503588Y957340D02*
Y964837D01*
Y959839D02*
X507337Y962338D01*
X503588Y959839D02*
X507337Y957340D01*
X407369Y944840D02*
Y949838D01*
X409869Y952337D01*
X412368Y949838D01*
Y944840D01*
Y948589D01*
X407369D01*
X414867Y949838D02*
Y944840D01*
Y947339D01*
X416117Y948589D01*
X417366Y949838D01*
X418616D01*
X427363D02*
X423614D01*
X422365Y948589D01*
Y946089D01*
X423614Y944840D01*
X427363D01*
X429862Y952337D02*
Y944840D01*
Y948589D01*
X431112Y949838D01*
X433611D01*
X434861Y948589D01*
Y944840D01*
X437360D02*
X439859D01*
X438609D01*
Y949838D01*
X437360D01*
X443608Y944840D02*
Y949838D01*
X444857D01*
X446107Y948589D01*
Y944840D01*
Y948589D01*
X447357Y949838D01*
X448606Y948589D01*
Y944840D01*
X451105Y943590D02*
X456104D01*
X463601Y944840D02*
X458603D01*
X463601Y949838D01*
Y951088D01*
X462352Y952337D01*
X459853D01*
X458603Y951088D01*
X466101Y944840D02*
Y946089D01*
X467350D01*
Y944840D01*
X466101D01*
X477347D02*
X472348D01*
X477347Y949838D01*
Y951088D01*
X476097Y952337D01*
X473598D01*
X472348Y951088D01*
X479846Y952337D02*
Y944840D01*
X483595D01*
X484844Y946089D01*
Y947339D01*
Y948589D01*
X483595Y949838D01*
X479846D01*
G54D26*
X429843Y36457D02*
D03*
Y44331D02*
D03*
X424331Y49843D02*
D03*
X416457D02*
D03*
X410945Y44331D02*
D03*
Y36457D02*
D03*
X416457Y30945D02*
D03*
X424331D02*
D03*
X49843Y36457D02*
D03*
Y44331D02*
D03*
X44331Y49843D02*
D03*
X36457D02*
D03*
X30945Y44331D02*
D03*
Y36457D02*
D03*
X36457Y30945D02*
D03*
X44331D02*
D03*
X49843Y411457D02*
D03*
Y419331D02*
D03*
X44331Y424843D02*
D03*
X36457D02*
D03*
X30945Y419331D02*
D03*
Y411457D02*
D03*
X36457Y405945D02*
D03*
X44331D02*
D03*
X429843Y411457D02*
D03*
Y419331D02*
D03*
X424331Y424843D02*
D03*
X416457D02*
D03*
X410945Y419331D02*
D03*
Y411457D02*
D03*
X416457Y405945D02*
D03*
X424331D02*
D03*
X429843Y441457D02*
D03*
Y449331D02*
D03*
X424331Y454843D02*
D03*
X416457D02*
D03*
X410945Y449331D02*
D03*
Y441457D02*
D03*
X416457Y435945D02*
D03*
X424331D02*
D03*
X49843Y441457D02*
D03*
Y449331D02*
D03*
X44331Y454843D02*
D03*
X36457D02*
D03*
X30945Y449331D02*
D03*
Y441457D02*
D03*
X36457Y435945D02*
D03*
X44331D02*
D03*
X49843Y816457D02*
D03*
Y824331D02*
D03*
X44331Y829842D02*
D03*
X36457D02*
D03*
X30945Y824331D02*
D03*
Y816457D02*
D03*
X36457Y810945D02*
D03*
X44331D02*
D03*
X429843Y816457D02*
D03*
Y824331D02*
D03*
X424331Y829842D02*
D03*
X416457D02*
D03*
X410945Y824331D02*
D03*
Y816457D02*
D03*
X416457Y810945D02*
D03*
X424331D02*
D03*
G54D131*
X166494Y363594D02*
D03*
Y367594D02*
D03*
Y371594D02*
D03*
Y375594D02*
D03*
X158494D02*
D03*
Y371594D02*
D03*
Y367594D02*
D03*
Y363594D02*
D03*
X162494D02*
D03*
Y367594D02*
D03*
Y375594D02*
D03*
Y371594D02*
D03*
X122394D02*
D03*
Y375594D02*
D03*
Y367594D02*
D03*
Y363594D02*
D03*
X118394D02*
D03*
Y367594D02*
D03*
Y371594D02*
D03*
Y375594D02*
D03*
X126394D02*
D03*
Y371594D02*
D03*
Y367594D02*
D03*
Y363594D02*
D03*
X248043D02*
D03*
Y367594D02*
D03*
Y359594D02*
D03*
Y355594D02*
D03*
X244043D02*
D03*
Y359594D02*
D03*
Y363594D02*
D03*
Y367594D02*
D03*
X252043D02*
D03*
Y363594D02*
D03*
Y359594D02*
D03*
Y355594D02*
D03*
X82543Y371594D02*
D03*
Y375594D02*
D03*
Y367594D02*
D03*
Y363594D02*
D03*
X78543D02*
D03*
Y367594D02*
D03*
Y371594D02*
D03*
Y375594D02*
D03*
X86543D02*
D03*
Y371594D02*
D03*
Y367594D02*
D03*
Y363594D02*
D03*
X166494Y768594D02*
D03*
Y772594D02*
D03*
Y776594D02*
D03*
Y780594D02*
D03*
X158494D02*
D03*
Y776594D02*
D03*
Y772594D02*
D03*
Y768594D02*
D03*
X162494D02*
D03*
Y772594D02*
D03*
Y780594D02*
D03*
Y776594D02*
D03*
X122394D02*
D03*
Y780594D02*
D03*
Y772594D02*
D03*
Y768594D02*
D03*
X118394D02*
D03*
Y772594D02*
D03*
Y776594D02*
D03*
Y780594D02*
D03*
X126394D02*
D03*
Y776594D02*
D03*
Y772594D02*
D03*
Y768594D02*
D03*
X248043D02*
D03*
Y772594D02*
D03*
Y764594D02*
D03*
Y760594D02*
D03*
X244043D02*
D03*
Y764594D02*
D03*
Y768594D02*
D03*
Y772594D02*
D03*
X252043D02*
D03*
Y768594D02*
D03*
Y764594D02*
D03*
Y760594D02*
D03*
X82543Y776594D02*
D03*
Y780594D02*
D03*
Y772594D02*
D03*
Y768594D02*
D03*
X78543D02*
D03*
Y772594D02*
D03*
Y776594D02*
D03*
Y780594D02*
D03*
X86543D02*
D03*
Y776594D02*
D03*
Y772594D02*
D03*
Y768594D02*
D03*
G54D258*
X44540Y144959D02*
X44457Y145964D01*
X44209Y146941D01*
X43804Y147864D01*
X43253Y148707D01*
X42570Y149449D01*
X41775Y150068D01*
X40889Y150548D01*
X39935Y150875D01*
X38941Y151041D01*
X37934D01*
X36939Y150875D01*
X35986Y150548D01*
X35100Y150068D01*
X34304Y149449D01*
X33622Y148707D01*
X33071Y147864D01*
X32666Y146941D01*
X32418Y145964D01*
X32335Y144959D01*
X32418Y143955D01*
X32666Y142978D01*
X33071Y142055D01*
X33622Y141211D01*
X34304Y140470D01*
X35100Y139851D01*
X35986Y139371D01*
X36939Y139044D01*
X37934Y138878D01*
X38941D01*
X39935Y139044D01*
X40889Y139371D01*
X41775Y139851D01*
X42570Y140470D01*
X43253Y141211D01*
X43804Y142055D01*
X44209Y142978D01*
X44457Y143955D01*
X44540Y144959D01*
X246996Y169694D02*
X246913Y170698D01*
X246665Y171675D01*
X246261Y172598D01*
X245709Y173442D01*
X245027Y174183D01*
X244231Y174802D01*
X243345Y175282D01*
X242392Y175609D01*
X241398Y175775D01*
X240390D01*
X239396Y175609D01*
X238442Y175282D01*
X237556Y174802D01*
X236761Y174183D01*
X236078Y173442D01*
X235527Y172598D01*
X235122Y171675D01*
X234875Y170698D01*
X234791Y169694D01*
X234875Y168689D01*
X235122Y167712D01*
X235527Y166789D01*
X236078Y165946D01*
X236761Y165204D01*
X237556Y164585D01*
X238442Y164105D01*
X239396Y163778D01*
X240390Y163612D01*
X241398D01*
X242392Y163778D01*
X243345Y164105D01*
X244231Y164585D01*
X245027Y165204D01*
X245709Y165946D01*
X246261Y166789D01*
X246665Y167712D01*
X246913Y168689D01*
X246996Y169694D01*
X68396Y335894D02*
X68313Y336898D01*
X68065Y337875D01*
X67661Y338798D01*
X67109Y339642D01*
X66427Y340383D01*
X65631Y341002D01*
X64745Y341482D01*
X63792Y341809D01*
X62798Y341975D01*
X61790D01*
X60796Y341809D01*
X59842Y341482D01*
X58956Y341002D01*
X58161Y340383D01*
X57478Y339642D01*
X56927Y338798D01*
X56522Y337875D01*
X56275Y336898D01*
X56191Y335894D01*
X56275Y334889D01*
X56522Y333912D01*
X56927Y332989D01*
X57478Y332146D01*
X58161Y331404D01*
X58956Y330785D01*
X59842Y330305D01*
X60796Y329978D01*
X61790Y329812D01*
X62798D01*
X63792Y329978D01*
X64745Y330305D01*
X65631Y330785D01*
X66427Y331404D01*
X67109Y332146D01*
X67661Y332989D01*
X68065Y333912D01*
X68313Y334889D01*
X68396Y335894D01*
X44540Y549959D02*
X44457Y550964D01*
X44209Y551941D01*
X43804Y552864D01*
X43253Y553707D01*
X42570Y554449D01*
X41775Y555068D01*
X40889Y555548D01*
X39935Y555875D01*
X38941Y556041D01*
X37934D01*
X36939Y555875D01*
X35986Y555548D01*
X35100Y555068D01*
X34304Y554449D01*
X33622Y553707D01*
X33071Y552864D01*
X32666Y551941D01*
X32418Y550964D01*
X32335Y549959D01*
X32418Y548955D01*
X32666Y547978D01*
X33071Y547055D01*
X33622Y546211D01*
X34304Y545470D01*
X35100Y544851D01*
X35986Y544371D01*
X36939Y544044D01*
X37934Y543878D01*
X38941D01*
X39935Y544044D01*
X40889Y544371D01*
X41775Y544851D01*
X42570Y545470D01*
X43253Y546211D01*
X43804Y547055D01*
X44209Y547978D01*
X44457Y548955D01*
X44540Y549959D01*
X246996Y574694D02*
X246913Y575698D01*
X246665Y576675D01*
X246261Y577598D01*
X245709Y578442D01*
X245027Y579183D01*
X244231Y579802D01*
X243345Y580282D01*
X242392Y580609D01*
X241398Y580775D01*
X240390D01*
X239396Y580609D01*
X238442Y580282D01*
X237556Y579802D01*
X236761Y579183D01*
X236078Y578442D01*
X235527Y577598D01*
X235122Y576675D01*
X234875Y575698D01*
X234791Y574694D01*
X234875Y573689D01*
X235122Y572712D01*
X235527Y571789D01*
X236078Y570946D01*
X236761Y570204D01*
X237556Y569585D01*
X238442Y569105D01*
X239396Y568778D01*
X240390Y568612D01*
X241398D01*
X242392Y568778D01*
X243345Y569105D01*
X244231Y569585D01*
X245027Y570204D01*
X245709Y570946D01*
X246261Y571789D01*
X246665Y572712D01*
X246913Y573689D01*
X246996Y574694D01*
X68396Y740894D02*
X68313Y741898D01*
X68065Y742875D01*
X67661Y743798D01*
X67109Y744642D01*
X66427Y745383D01*
X65631Y746002D01*
X64745Y746482D01*
X63792Y746809D01*
X62798Y746975D01*
X61790D01*
X60796Y746809D01*
X59842Y746482D01*
X58956Y746002D01*
X58161Y745383D01*
X57478Y744642D01*
X56927Y743798D01*
X56522Y742875D01*
X56275Y741898D01*
X56191Y740894D01*
X56275Y739889D01*
X56522Y738912D01*
X56927Y737989D01*
X57478Y737146D01*
X58161Y736404D01*
X58956Y735785D01*
X59842Y735305D01*
X60796Y734978D01*
X61790Y734812D01*
X62798D01*
X63792Y734978D01*
X64745Y735305D01*
X65631Y735785D01*
X66427Y736404D01*
X67109Y737146D01*
X67661Y737989D01*
X68065Y738912D01*
X68313Y739889D01*
X68396Y740894D01*
G54D259*
X268502Y303445D02*
D03*
Y708445D02*
D03*
G54D260*
X37894Y12894D02*
D03*
X423780Y13189D02*
D03*
Y847974D02*
D03*
X37894D02*
D03*
G54D261*
X48583Y209351D02*
D03*
Y205020D02*
D03*
Y200690D02*
D03*
Y196359D02*
D03*
Y192028D02*
D03*
Y187698D02*
D03*
Y183367D02*
D03*
Y179036D02*
D03*
Y614351D02*
D03*
Y610020D02*
D03*
Y605690D02*
D03*
Y601359D02*
D03*
Y597028D02*
D03*
Y592698D02*
D03*
Y588367D02*
D03*
Y584036D02*
D03*
G54D262*
X44450Y213780D02*
D03*
Y618780D02*
D03*
G54D263*
X34253Y213583D02*
D03*
Y618583D02*
D03*
G54D264*
X42717Y172639D02*
D03*
Y577639D02*
D03*
G54D265*
X38190Y171753D02*
D03*
Y576753D02*
D03*
G54D266*
X33662Y172540D02*
D03*
Y577540D02*
D03*
G54D267*
X421530Y384941D02*
D03*
X405756D02*
D03*
X205894Y387842D02*
D03*
X221668D02*
D03*
X424994Y136042D02*
D03*
X409220D02*
D03*
X421530Y789941D02*
D03*
X405756D02*
D03*
X205894Y792842D02*
D03*
X221668D02*
D03*
X424994Y541042D02*
D03*
X409220D02*
D03*
G54D268*
X303780Y126279D02*
D03*
X309016D02*
D03*
X392185Y126279D02*
D03*
X386949D02*
D03*
X170118Y126181D02*
D03*
X175354D02*
D03*
X92264Y126279D02*
D03*
X97500D02*
D03*
X188212Y298494D02*
D03*
X182976D02*
D03*
X331929Y54724D02*
D03*
X337165D02*
D03*
X160999Y298487D02*
D03*
X155762D02*
D03*
X242264Y126181D02*
D03*
X247500D02*
D03*
X138236Y260000D02*
D03*
X132999D02*
D03*
X303780Y531280D02*
D03*
X309016D02*
D03*
X392185Y531280D02*
D03*
X386949D02*
D03*
X170118Y531181D02*
D03*
X175354D02*
D03*
X92264Y531280D02*
D03*
X97500D02*
D03*
X188212Y703494D02*
D03*
X182976D02*
D03*
X331929Y459724D02*
D03*
X337165D02*
D03*
X160999Y703487D02*
D03*
X155762D02*
D03*
X242264Y531181D02*
D03*
X247500D02*
D03*
X138236Y665000D02*
D03*
X132999D02*
D03*
G54D269*
X410894Y58194D02*
D03*
X414683D02*
D03*
X90211Y259169D02*
D03*
X86421D02*
D03*
X37547Y356713D02*
D03*
X33757D02*
D03*
X423642Y395457D02*
D03*
X419852D02*
D03*
X410894Y463194D02*
D03*
X414683D02*
D03*
X90211Y664169D02*
D03*
X86421D02*
D03*
X37547Y761713D02*
D03*
X33757D02*
D03*
X423642Y800457D02*
D03*
X419852D02*
D03*
G54D270*
X312008Y163169D02*
D03*
Y168169D02*
D03*
Y173169D02*
D03*
Y178169D02*
D03*
X290748Y163169D02*
D03*
Y168169D02*
D03*
Y173169D02*
D03*
Y178169D02*
D03*
X312008Y568169D02*
D03*
Y573169D02*
D03*
Y578169D02*
D03*
Y583169D02*
D03*
X290748Y568169D02*
D03*
Y573169D02*
D03*
Y578169D02*
D03*
Y583169D02*
D03*
G54D271*
X201294Y310502D02*
D03*
Y326486D02*
D03*
X206294Y310502D02*
D03*
Y326486D02*
D03*
X211294Y310502D02*
D03*
Y326486D02*
D03*
X216294Y310502D02*
D03*
Y326486D02*
D03*
X221294Y310502D02*
D03*
Y326486D02*
D03*
X201294Y715502D02*
D03*
Y731486D02*
D03*
X206294Y715502D02*
D03*
Y731486D02*
D03*
X211294Y715502D02*
D03*
Y731486D02*
D03*
X216294Y715502D02*
D03*
Y731486D02*
D03*
X221294Y715502D02*
D03*
Y731486D02*
D03*
G54D272*
X280490Y315895D02*
D03*
X282458D02*
D03*
X284427D02*
D03*
Y321013D02*
D03*
X282458D02*
D03*
X280490D02*
D03*
Y720894D02*
D03*
X282458D02*
D03*
X284427D02*
D03*
Y726013D02*
D03*
X282458D02*
D03*
X280490D02*
D03*
G54D273*
X282458Y318454D02*
D03*
Y723454D02*
D03*
G54D274*
X255429Y274553D02*
D03*
Y272584D02*
D03*
Y270616D02*
D03*
Y268647D02*
D03*
Y266679D02*
D03*
Y264710D02*
D03*
Y262742D02*
D03*
Y260773D02*
D03*
Y258805D02*
D03*
Y256836D02*
D03*
Y254868D02*
D03*
Y252899D02*
D03*
Y250931D02*
D03*
Y248962D02*
D03*
Y246994D02*
D03*
Y245025D02*
D03*
Y243057D02*
D03*
Y241088D02*
D03*
Y239120D02*
D03*
Y237151D02*
D03*
Y235183D02*
D03*
Y233214D02*
D03*
Y231246D02*
D03*
Y229277D02*
D03*
Y227309D02*
D03*
Y225340D02*
D03*
Y223372D02*
D03*
Y221403D02*
D03*
Y219435D02*
D03*
Y217466D02*
D03*
Y215498D02*
D03*
Y213529D02*
D03*
Y211561D02*
D03*
Y209592D02*
D03*
Y207624D02*
D03*
Y205655D02*
D03*
X172358D02*
D03*
Y207624D02*
D03*
Y209592D02*
D03*
Y211561D02*
D03*
Y213529D02*
D03*
Y215498D02*
D03*
Y217466D02*
D03*
Y219435D02*
D03*
Y221403D02*
D03*
Y223372D02*
D03*
Y225340D02*
D03*
Y227309D02*
D03*
Y229277D02*
D03*
Y231246D02*
D03*
Y233214D02*
D03*
Y235183D02*
D03*
Y237151D02*
D03*
Y239120D02*
D03*
Y241088D02*
D03*
Y243057D02*
D03*
Y245025D02*
D03*
Y246994D02*
D03*
Y248962D02*
D03*
Y250931D02*
D03*
Y252899D02*
D03*
Y254868D02*
D03*
Y256836D02*
D03*
Y258805D02*
D03*
Y260773D02*
D03*
Y262742D02*
D03*
Y264710D02*
D03*
Y266679D02*
D03*
Y268647D02*
D03*
Y270616D02*
D03*
Y272584D02*
D03*
Y274553D02*
D03*
X255429Y679553D02*
D03*
Y677584D02*
D03*
Y675616D02*
D03*
Y673647D02*
D03*
Y671679D02*
D03*
Y669710D02*
D03*
Y667742D02*
D03*
Y665773D02*
D03*
Y663805D02*
D03*
Y661836D02*
D03*
Y659868D02*
D03*
Y657899D02*
D03*
Y655931D02*
D03*
Y653962D02*
D03*
Y651994D02*
D03*
Y650025D02*
D03*
Y648057D02*
D03*
Y646088D02*
D03*
Y644120D02*
D03*
Y642151D02*
D03*
Y640183D02*
D03*
Y638214D02*
D03*
Y636246D02*
D03*
Y634277D02*
D03*
Y632309D02*
D03*
Y630340D02*
D03*
Y628372D02*
D03*
Y626403D02*
D03*
Y624435D02*
D03*
Y622466D02*
D03*
Y620498D02*
D03*
Y618529D02*
D03*
Y616561D02*
D03*
Y614592D02*
D03*
Y612624D02*
D03*
Y610655D02*
D03*
X172358D02*
D03*
Y612624D02*
D03*
Y614592D02*
D03*
Y616561D02*
D03*
Y618529D02*
D03*
Y620498D02*
D03*
Y622466D02*
D03*
Y624435D02*
D03*
Y626403D02*
D03*
Y628372D02*
D03*
Y630340D02*
D03*
Y632309D02*
D03*
Y634277D02*
D03*
Y636246D02*
D03*
Y638214D02*
D03*
Y640183D02*
D03*
Y642151D02*
D03*
Y644120D02*
D03*
Y646088D02*
D03*
Y648057D02*
D03*
Y650025D02*
D03*
Y651994D02*
D03*
Y653962D02*
D03*
Y655931D02*
D03*
Y657899D02*
D03*
Y659868D02*
D03*
Y661836D02*
D03*
Y663805D02*
D03*
Y665773D02*
D03*
Y667742D02*
D03*
Y669710D02*
D03*
Y671679D02*
D03*
Y673647D02*
D03*
Y675616D02*
D03*
Y677584D02*
D03*
Y679553D02*
D03*
G54D275*
X248342Y198568D02*
D03*
X246374D02*
D03*
X244406D02*
D03*
X242437D02*
D03*
X240469D02*
D03*
X238500D02*
D03*
X236531D02*
D03*
X234563D02*
D03*
X232594D02*
D03*
X230626D02*
D03*
X228658D02*
D03*
X226689D02*
D03*
X224721D02*
D03*
X222752D02*
D03*
X220783D02*
D03*
X218815D02*
D03*
X216846D02*
D03*
X214878D02*
D03*
X212910D02*
D03*
X210941D02*
D03*
X208972D02*
D03*
X207004D02*
D03*
X205035D02*
D03*
X203067D02*
D03*
X201098D02*
D03*
X199130D02*
D03*
X197161D02*
D03*
X195193D02*
D03*
X193224D02*
D03*
X191256D02*
D03*
X189287D02*
D03*
X187319D02*
D03*
X185350D02*
D03*
X183382D02*
D03*
X181413D02*
D03*
X179445D02*
D03*
Y281639D02*
D03*
X181413D02*
D03*
X183382D02*
D03*
X185350D02*
D03*
X187319D02*
D03*
X189287D02*
D03*
X191256D02*
D03*
X193224D02*
D03*
X195193D02*
D03*
X197161D02*
D03*
X199130D02*
D03*
X201098D02*
D03*
X203067D02*
D03*
X205035D02*
D03*
X207004D02*
D03*
X208972D02*
D03*
X210941D02*
D03*
X212910D02*
D03*
X214878D02*
D03*
X216846D02*
D03*
X218815D02*
D03*
X220783D02*
D03*
X222752D02*
D03*
X224721D02*
D03*
X226689D02*
D03*
X228658D02*
D03*
X230626D02*
D03*
X232594D02*
D03*
X234563D02*
D03*
X236531D02*
D03*
X238500D02*
D03*
X240469D02*
D03*
X242437D02*
D03*
X244406D02*
D03*
X246374D02*
D03*
X248342D02*
D03*
Y603569D02*
D03*
X246374D02*
D03*
X244406D02*
D03*
X242437D02*
D03*
X240469D02*
D03*
X238500D02*
D03*
X236531D02*
D03*
X234563D02*
D03*
X232594D02*
D03*
X230626D02*
D03*
X228658D02*
D03*
X226689D02*
D03*
X224721D02*
D03*
X222752D02*
D03*
X220783D02*
D03*
X218815D02*
D03*
X216846D02*
D03*
X214878D02*
D03*
X212910D02*
D03*
X210941D02*
D03*
X208972D02*
D03*
X207004D02*
D03*
X205035D02*
D03*
X203067D02*
D03*
X201098D02*
D03*
X199130D02*
D03*
X197161D02*
D03*
X195193D02*
D03*
X193224D02*
D03*
X191256D02*
D03*
X189287D02*
D03*
X187319D02*
D03*
X185350D02*
D03*
X183382D02*
D03*
X181413D02*
D03*
X179445D02*
D03*
Y686639D02*
D03*
X181413D02*
D03*
X183382D02*
D03*
X185350D02*
D03*
X187319D02*
D03*
X189287D02*
D03*
X191256D02*
D03*
X193224D02*
D03*
X195193D02*
D03*
X197161D02*
D03*
X199130D02*
D03*
X201098D02*
D03*
X203067D02*
D03*
X205035D02*
D03*
X207004D02*
D03*
X208972D02*
D03*
X210941D02*
D03*
X212910D02*
D03*
X214878D02*
D03*
X216846D02*
D03*
X218815D02*
D03*
X220783D02*
D03*
X222752D02*
D03*
X224721D02*
D03*
X226689D02*
D03*
X228658D02*
D03*
X230626D02*
D03*
X232594D02*
D03*
X234563D02*
D03*
X236531D02*
D03*
X238500D02*
D03*
X240469D02*
D03*
X242437D02*
D03*
X244406D02*
D03*
X246374D02*
D03*
X248342D02*
D03*
G54D276*
X169608Y321071D02*
D03*
X184175D02*
D03*
Y312410D02*
D03*
X169608D02*
D03*
Y726071D02*
D03*
X184175D02*
D03*
Y717410D02*
D03*
X169608D02*
D03*
G54D277*
X136906Y276994D02*
D03*
Y281994D02*
D03*
Y286994D02*
D03*
Y291994D02*
D03*
Y296994D02*
D03*
Y301994D02*
D03*
Y306994D02*
D03*
Y311994D02*
D03*
X100882Y276994D02*
D03*
Y281994D02*
D03*
Y286994D02*
D03*
Y291994D02*
D03*
Y296994D02*
D03*
Y301994D02*
D03*
Y306994D02*
D03*
Y311994D02*
D03*
X136906Y681994D02*
D03*
Y686994D02*
D03*
Y691994D02*
D03*
Y696994D02*
D03*
Y701994D02*
D03*
Y706994D02*
D03*
Y711994D02*
D03*
Y716994D02*
D03*
X100882Y681994D02*
D03*
Y686994D02*
D03*
Y691994D02*
D03*
Y696994D02*
D03*
Y701994D02*
D03*
Y706994D02*
D03*
Y711994D02*
D03*
Y716994D02*
D03*
G54D278*
X72069Y390094D02*
D03*
X66719D02*
D03*
X72069Y795094D02*
D03*
X66719D02*
D03*
G54D279*
X400394Y420394D02*
D03*
X55394Y397194D02*
D03*
X400394Y825394D02*
D03*
X55394Y802194D02*
D03*
G54D280*
X61694Y381760D02*
D03*
Y390094D02*
D03*
X251294Y390076D02*
D03*
Y381742D02*
D03*
X190369Y375591D02*
D03*
Y383925D02*
D03*
X61694Y786760D02*
D03*
Y795094D02*
D03*
X251294Y795076D02*
D03*
Y786742D02*
D03*
X190369Y780591D02*
D03*
Y788925D02*
D03*
G54D281*
X31161Y315470D02*
D03*
X39495D02*
D03*
Y303270D02*
D03*
X31161D02*
D03*
Y309370D02*
D03*
X39495D02*
D03*
X163594Y384294D02*
D03*
X171927D02*
D03*
X132027D02*
D03*
X123694D02*
D03*
X83494D02*
D03*
X91827D02*
D03*
X31161Y720470D02*
D03*
X39495D02*
D03*
Y708270D02*
D03*
X31161D02*
D03*
Y714370D02*
D03*
X39495D02*
D03*
X163594Y789294D02*
D03*
X171927D02*
D03*
X132027D02*
D03*
X123694D02*
D03*
X83494D02*
D03*
X91827D02*
D03*
G54D282*
X56624Y154642D02*
D03*
X60394D02*
D03*
X284824Y324494D02*
D03*
X288594D02*
D03*
X289564Y343242D02*
D03*
X285794D02*
D03*
X212402Y336614D02*
D03*
X208631D02*
D03*
X158794Y204750D02*
D03*
X162564D02*
D03*
X213894Y136042D02*
D03*
X217664D02*
D03*
X209864Y141842D02*
D03*
X206094D02*
D03*
X145464Y136242D02*
D03*
X141694D02*
D03*
X133894Y141442D02*
D03*
X137664D02*
D03*
X282064Y142342D02*
D03*
X278294D02*
D03*
X68994Y135142D02*
D03*
X72764D02*
D03*
X417004Y158246D02*
D03*
X420774D02*
D03*
X325594Y318217D02*
D03*
X321824D02*
D03*
X280694Y312294D02*
D03*
X284464D02*
D03*
X296638Y235109D02*
D03*
X292868D02*
D03*
X284951Y230933D02*
D03*
X288721D02*
D03*
X191998Y310256D02*
D03*
X195768D02*
D03*
X165764Y266994D02*
D03*
X161994D02*
D03*
X89594Y301994D02*
D03*
X93364D02*
D03*
X162764Y220842D02*
D03*
X158994D02*
D03*
X223294Y289042D02*
D03*
X227064D02*
D03*
X163664Y224742D02*
D03*
X159894D02*
D03*
X186994Y288194D02*
D03*
X183224D02*
D03*
X280664Y324594D02*
D03*
X276894D02*
D03*
X96888Y334081D02*
D03*
X93118D02*
D03*
X226294Y365394D02*
D03*
X230064D02*
D03*
X270894Y378042D02*
D03*
X274664D02*
D03*
X351250Y141437D02*
D03*
X355020D02*
D03*
X105571Y351870D02*
D03*
X109341D02*
D03*
X149498Y351969D02*
D03*
X145728D02*
D03*
X185843Y351694D02*
D03*
X189613D02*
D03*
X238673Y317941D02*
D03*
X234903D02*
D03*
X62554Y53994D02*
D03*
X66324D02*
D03*
X289864Y135942D02*
D03*
X286094D02*
D03*
X182194Y59942D02*
D03*
X185964D02*
D03*
X241041Y85354D02*
D03*
X244811D02*
D03*
X223425Y74016D02*
D03*
X219655D02*
D03*
X185894Y54094D02*
D03*
X182124D02*
D03*
X224994D02*
D03*
X228764D02*
D03*
X96651Y85354D02*
D03*
X100421D02*
D03*
X80413Y69685D02*
D03*
X76643D02*
D03*
X345965D02*
D03*
X349735D02*
D03*
X358041Y134744D02*
D03*
X361811D02*
D03*
X389398Y85354D02*
D03*
X385628D02*
D03*
X61494Y141042D02*
D03*
X65264D02*
D03*
X369356Y69646D02*
D03*
X365586D02*
D03*
X168928Y59350D02*
D03*
X165158D02*
D03*
X149803Y69784D02*
D03*
X146033D02*
D03*
X122594Y54194D02*
D03*
X126364D02*
D03*
X169257Y54169D02*
D03*
X165487D02*
D03*
X250294Y59742D02*
D03*
X254064D02*
D03*
X313285Y85354D02*
D03*
X317055D02*
D03*
X293405Y69685D02*
D03*
X289635D02*
D03*
X295894Y54194D02*
D03*
X292124D02*
D03*
X311304Y235148D02*
D03*
X307534D02*
D03*
X326378Y230943D02*
D03*
X322608D02*
D03*
X335572Y234983D02*
D03*
X331802D02*
D03*
X346147Y234468D02*
D03*
X349918D02*
D03*
X360461Y238504D02*
D03*
X364231D02*
D03*
X386480Y237868D02*
D03*
X382710D02*
D03*
X220698Y335001D02*
D03*
X216928D02*
D03*
X340579Y155335D02*
D03*
X336809D02*
D03*
X83299Y179842D02*
D03*
X79529D02*
D03*
X355332Y420079D02*
D03*
X359102D02*
D03*
X334102Y414272D02*
D03*
X337872D02*
D03*
X369172Y419882D02*
D03*
X365402D02*
D03*
X56624Y559642D02*
D03*
X60394D02*
D03*
X284824Y729494D02*
D03*
X288594D02*
D03*
X289564Y748242D02*
D03*
X285794D02*
D03*
X212402Y741614D02*
D03*
X208631D02*
D03*
X158794Y609750D02*
D03*
X162564D02*
D03*
X213894Y541042D02*
D03*
X217664D02*
D03*
X209864Y546842D02*
D03*
X206094D02*
D03*
X145464Y541242D02*
D03*
X141694D02*
D03*
X133894Y546442D02*
D03*
X137664D02*
D03*
X282064Y547342D02*
D03*
X278294D02*
D03*
X68994Y540142D02*
D03*
X72764D02*
D03*
X417004Y563246D02*
D03*
X420774D02*
D03*
X325594Y723217D02*
D03*
X321824D02*
D03*
X280694Y717294D02*
D03*
X284464D02*
D03*
X296638Y640109D02*
D03*
X292868D02*
D03*
X284951Y635933D02*
D03*
X288721D02*
D03*
X191998Y715256D02*
D03*
X195768D02*
D03*
X165764Y671994D02*
D03*
X161994D02*
D03*
X89594Y706994D02*
D03*
X93364D02*
D03*
X162764Y625842D02*
D03*
X158994D02*
D03*
X223294Y694042D02*
D03*
X227064D02*
D03*
X163664Y629742D02*
D03*
X159894D02*
D03*
X186994Y693194D02*
D03*
X183224D02*
D03*
X280664Y729594D02*
D03*
X276894D02*
D03*
X96888Y739081D02*
D03*
X93118D02*
D03*
X226294Y770394D02*
D03*
X230064D02*
D03*
X270894Y783042D02*
D03*
X274664D02*
D03*
X351250Y546437D02*
D03*
X355020D02*
D03*
X105571Y756870D02*
D03*
X109341D02*
D03*
X149498Y756968D02*
D03*
X145728D02*
D03*
X185843Y756694D02*
D03*
X189613D02*
D03*
X238673Y722941D02*
D03*
X234903D02*
D03*
X62554Y458994D02*
D03*
X66324D02*
D03*
X289864Y540942D02*
D03*
X286094D02*
D03*
X182194Y464942D02*
D03*
X185964D02*
D03*
X241041Y490354D02*
D03*
X244811D02*
D03*
X223425Y479016D02*
D03*
X219655D02*
D03*
X185894Y459094D02*
D03*
X182124D02*
D03*
X224994D02*
D03*
X228764D02*
D03*
X96651Y490354D02*
D03*
X100421D02*
D03*
X80413Y474685D02*
D03*
X76643D02*
D03*
X345965D02*
D03*
X349735D02*
D03*
X358041Y539744D02*
D03*
X361811D02*
D03*
X389398Y490354D02*
D03*
X385628D02*
D03*
X61494Y546042D02*
D03*
X65264D02*
D03*
X369356Y474646D02*
D03*
X365586D02*
D03*
X168928Y464350D02*
D03*
X165158D02*
D03*
X149803Y474784D02*
D03*
X146033D02*
D03*
X122594Y459194D02*
D03*
X126364D02*
D03*
X169257Y459169D02*
D03*
X165487D02*
D03*
X250294Y464742D02*
D03*
X254064D02*
D03*
X313285Y490354D02*
D03*
X317055D02*
D03*
X293405Y474685D02*
D03*
X289635D02*
D03*
X295894Y459194D02*
D03*
X292124D02*
D03*
X311304Y640148D02*
D03*
X307534D02*
D03*
X326378Y635943D02*
D03*
X322608D02*
D03*
X335572Y639983D02*
D03*
X331802D02*
D03*
X346147Y639468D02*
D03*
X349918D02*
D03*
X360461Y643504D02*
D03*
X364231D02*
D03*
X386480Y642868D02*
D03*
X382710D02*
D03*
X220698Y740001D02*
D03*
X216928D02*
D03*
X340579Y560335D02*
D03*
X336809D02*
D03*
X83299Y584842D02*
D03*
X79529D02*
D03*
X355332Y825079D02*
D03*
X359102D02*
D03*
X334102Y819272D02*
D03*
X337872D02*
D03*
X369172Y824882D02*
D03*
X365402D02*
D03*
G54D283*
X60365Y150689D02*
D03*
X56575D02*
D03*
X230504Y337042D02*
D03*
X234294D02*
D03*
X307532Y239282D02*
D03*
X311322D02*
D03*
X138039Y353760D02*
D03*
X134250D02*
D03*
X349929Y238610D02*
D03*
X346140D02*
D03*
X198887Y336614D02*
D03*
X202677D02*
D03*
X121366Y156535D02*
D03*
X117576D02*
D03*
X177232Y186654D02*
D03*
X181022D02*
D03*
X412394Y127742D02*
D03*
X408604D02*
D03*
X351248Y420079D02*
D03*
X347458D02*
D03*
X272104Y332242D02*
D03*
X275894D02*
D03*
X163885Y208592D02*
D03*
X160095D02*
D03*
X361841Y131398D02*
D03*
X358051D02*
D03*
X79498Y175591D02*
D03*
X83287D02*
D03*
X265394Y274794D02*
D03*
X261604D02*
D03*
X163194Y228642D02*
D03*
X159404D02*
D03*
X116194Y260794D02*
D03*
X119983D02*
D03*
X129394D02*
D03*
X125604D02*
D03*
X261218Y266260D02*
D03*
X265008D02*
D03*
X361841Y138091D02*
D03*
X358051D02*
D03*
X317156Y183465D02*
D03*
X313366D02*
D03*
X255409Y186819D02*
D03*
X259198D02*
D03*
X259207Y190793D02*
D03*
X255418D02*
D03*
X255389Y179340D02*
D03*
X259178D02*
D03*
X298455Y183465D02*
D03*
X294665D02*
D03*
X248494Y311794D02*
D03*
X252284D02*
D03*
X163698Y200807D02*
D03*
X167488D02*
D03*
X61394Y213842D02*
D03*
X65184D02*
D03*
X61394Y209742D02*
D03*
X65184D02*
D03*
X60495Y186142D02*
D03*
X64284D02*
D03*
X64294Y173942D02*
D03*
X60504D02*
D03*
X64294Y177942D02*
D03*
X60504D02*
D03*
X322989Y239253D02*
D03*
X326779D02*
D03*
X79708Y324988D02*
D03*
X83498D02*
D03*
X79709Y329094D02*
D03*
X83499D02*
D03*
X93597Y352486D02*
D03*
X97387D02*
D03*
X83526Y333084D02*
D03*
X79737D02*
D03*
X89494Y282694D02*
D03*
X93283D02*
D03*
X89494Y287094D02*
D03*
X93283D02*
D03*
X144994Y284394D02*
D03*
X148784D02*
D03*
X144894Y278894D02*
D03*
X148684D02*
D03*
X155994Y259694D02*
D03*
X152204D02*
D03*
X284994Y300942D02*
D03*
X288784D02*
D03*
X296620Y226575D02*
D03*
X292830D02*
D03*
X296641Y239153D02*
D03*
X292851D02*
D03*
X75094Y345994D02*
D03*
X78883D02*
D03*
X335530Y226439D02*
D03*
X331740D02*
D03*
X322635Y226791D02*
D03*
X326425D02*
D03*
X311310Y226908D02*
D03*
X307520D02*
D03*
X61994Y124342D02*
D03*
X65784D02*
D03*
X72894Y139042D02*
D03*
X69104D02*
D03*
X213894Y144142D02*
D03*
X217684D02*
D03*
X141694Y144242D02*
D03*
X145484D02*
D03*
X39663Y166260D02*
D03*
X43453D02*
D03*
X69094Y143142D02*
D03*
X72883D02*
D03*
X287235Y234842D02*
D03*
X283445D02*
D03*
X238294Y336842D02*
D03*
X242084D02*
D03*
X213694Y302694D02*
D03*
X217483D02*
D03*
X208294Y302594D02*
D03*
X204504D02*
D03*
X290483Y183465D02*
D03*
X286693D02*
D03*
X286094Y144142D02*
D03*
X289883D02*
D03*
X289894Y139942D02*
D03*
X286104D02*
D03*
X289894Y131742D02*
D03*
X286104D02*
D03*
X278594Y124542D02*
D03*
X282383D02*
D03*
X347820Y226442D02*
D03*
X344030D02*
D03*
X313454Y187598D02*
D03*
X317244D02*
D03*
X309282Y183465D02*
D03*
X305492D02*
D03*
X358041Y141437D02*
D03*
X361831D02*
D03*
X360411Y230728D02*
D03*
X364201D02*
D03*
X364231Y234567D02*
D03*
X360441D02*
D03*
X360431Y226791D02*
D03*
X364220D02*
D03*
X382675Y229843D02*
D03*
X386465D02*
D03*
X386475Y233780D02*
D03*
X382685D02*
D03*
X391801Y229528D02*
D03*
X395591D02*
D03*
X350794Y124542D02*
D03*
X354584D02*
D03*
X72894Y131142D02*
D03*
X69104D02*
D03*
X145494Y140142D02*
D03*
X141704D02*
D03*
X145594Y132042D02*
D03*
X141804D02*
D03*
X134294Y124442D02*
D03*
X138084D02*
D03*
X217694Y140042D02*
D03*
X213904D02*
D03*
X217794Y131942D02*
D03*
X214004D02*
D03*
X206594Y124442D02*
D03*
X210384D02*
D03*
X84774Y158169D02*
D03*
X80984D02*
D03*
X65550Y306808D02*
D03*
X61760D02*
D03*
X80707Y309658D02*
D03*
X84497D02*
D03*
X335568Y239216D02*
D03*
X331778D02*
D03*
X341908Y422244D02*
D03*
X338118D02*
D03*
X337828Y418212D02*
D03*
X334038D02*
D03*
X264394Y332342D02*
D03*
X268183D02*
D03*
X60365Y555689D02*
D03*
X56575D02*
D03*
X230504Y742042D02*
D03*
X234294D02*
D03*
X307532Y644281D02*
D03*
X311322D02*
D03*
X138039Y758760D02*
D03*
X134250D02*
D03*
X349929Y643610D02*
D03*
X346140D02*
D03*
X198887Y741614D02*
D03*
X202677D02*
D03*
X121366Y561536D02*
D03*
X117576D02*
D03*
X177232Y591654D02*
D03*
X181022D02*
D03*
X412394Y532742D02*
D03*
X408604D02*
D03*
X351248Y825079D02*
D03*
X347458D02*
D03*
X272104Y737242D02*
D03*
X275894D02*
D03*
X163885Y613592D02*
D03*
X160095D02*
D03*
X361841Y536398D02*
D03*
X358051D02*
D03*
X79498Y580590D02*
D03*
X83287D02*
D03*
X265394Y679794D02*
D03*
X261604D02*
D03*
X163194Y633642D02*
D03*
X159404D02*
D03*
X116194Y665794D02*
D03*
X119983D02*
D03*
X129394D02*
D03*
X125604D02*
D03*
X261218Y671260D02*
D03*
X265008D02*
D03*
X361841Y543090D02*
D03*
X358051D02*
D03*
X317156Y588465D02*
D03*
X313366D02*
D03*
X255409Y591819D02*
D03*
X259198D02*
D03*
X259207Y595793D02*
D03*
X255418D02*
D03*
X255389Y584340D02*
D03*
X259178D02*
D03*
X298455Y588465D02*
D03*
X294665D02*
D03*
X248494Y716794D02*
D03*
X252284D02*
D03*
X163698Y605807D02*
D03*
X167488D02*
D03*
X61394Y618842D02*
D03*
X65184D02*
D03*
X61394Y614742D02*
D03*
X65184D02*
D03*
X60495Y591142D02*
D03*
X64284D02*
D03*
X64294Y578942D02*
D03*
X60504D02*
D03*
X64294Y582942D02*
D03*
X60504D02*
D03*
X322989Y644253D02*
D03*
X326779D02*
D03*
X79708Y729988D02*
D03*
X83498D02*
D03*
X79709Y734094D02*
D03*
X83499D02*
D03*
X93597Y757486D02*
D03*
X97387D02*
D03*
X83526Y738084D02*
D03*
X79737D02*
D03*
X89494Y687694D02*
D03*
X93283D02*
D03*
X89494Y692094D02*
D03*
X93283D02*
D03*
X144994Y689394D02*
D03*
X148784D02*
D03*
X144894Y683894D02*
D03*
X148684D02*
D03*
X155994Y664694D02*
D03*
X152204D02*
D03*
X284994Y705942D02*
D03*
X288784D02*
D03*
X296620Y631575D02*
D03*
X292830D02*
D03*
X296641Y644153D02*
D03*
X292851D02*
D03*
X75094Y750994D02*
D03*
X78883D02*
D03*
X335530Y631439D02*
D03*
X331740D02*
D03*
X322635Y631791D02*
D03*
X326425D02*
D03*
X311310Y631908D02*
D03*
X307520D02*
D03*
X61994Y529342D02*
D03*
X65784D02*
D03*
X72894Y544042D02*
D03*
X69104D02*
D03*
X213894Y549142D02*
D03*
X217684D02*
D03*
X141694Y549242D02*
D03*
X145484D02*
D03*
X39663Y571260D02*
D03*
X43453D02*
D03*
X69094Y548142D02*
D03*
X72883D02*
D03*
X287235Y639843D02*
D03*
X283445D02*
D03*
X238294Y741842D02*
D03*
X242084D02*
D03*
X213694Y707694D02*
D03*
X217483D02*
D03*
X208294Y707594D02*
D03*
X204504D02*
D03*
X290483Y588465D02*
D03*
X286693D02*
D03*
X286094Y549142D02*
D03*
X289883D02*
D03*
X289894Y544942D02*
D03*
X286104D02*
D03*
X289894Y536742D02*
D03*
X286104D02*
D03*
X278594Y529542D02*
D03*
X282383D02*
D03*
X347820Y631442D02*
D03*
X344030D02*
D03*
X313454Y592598D02*
D03*
X317244D02*
D03*
X309282Y588465D02*
D03*
X305492D02*
D03*
X358041Y546437D02*
D03*
X361831D02*
D03*
X360411Y635728D02*
D03*
X364201D02*
D03*
X364231Y639567D02*
D03*
X360441D02*
D03*
X360431Y631791D02*
D03*
X364220D02*
D03*
X382675Y634843D02*
D03*
X386465D02*
D03*
X386475Y638780D02*
D03*
X382685D02*
D03*
X391801Y634528D02*
D03*
X395591D02*
D03*
X350794Y529542D02*
D03*
X354584D02*
D03*
X72894Y536142D02*
D03*
X69104D02*
D03*
X145494Y545142D02*
D03*
X141704D02*
D03*
X145594Y537042D02*
D03*
X141804D02*
D03*
X134294Y529442D02*
D03*
X138084D02*
D03*
X217694Y545042D02*
D03*
X213904D02*
D03*
X217794Y536942D02*
D03*
X214004D02*
D03*
X206594Y529442D02*
D03*
X210384D02*
D03*
X84774Y563169D02*
D03*
X80984D02*
D03*
X65550Y711808D02*
D03*
X61760D02*
D03*
X80707Y714657D02*
D03*
X84497D02*
D03*
X335568Y644216D02*
D03*
X331778D02*
D03*
X341908Y827244D02*
D03*
X338118D02*
D03*
X337828Y823212D02*
D03*
X334038D02*
D03*
X264394Y737342D02*
D03*
X268183D02*
D03*
G54D284*
X263777Y343042D02*
D03*
X274210D02*
D03*
X422291Y146346D02*
D03*
X411858D02*
D03*
X263777Y748042D02*
D03*
X274210D02*
D03*
X422291Y551346D02*
D03*
X411858D02*
D03*
G54D285*
X264194Y355019D02*
D03*
Y349665D02*
D03*
X305294Y339019D02*
D03*
Y333665D02*
D03*
X337598Y386201D02*
D03*
Y391555D02*
D03*
X269061Y123071D02*
D03*
Y128425D02*
D03*
X196858Y123169D02*
D03*
Y128524D02*
D03*
X124606Y123110D02*
D03*
Y128465D02*
D03*
X341535Y129547D02*
D03*
Y124193D02*
D03*
X167694Y196719D02*
D03*
Y191365D02*
D03*
X163681Y312579D02*
D03*
Y317933D02*
D03*
X190191Y315563D02*
D03*
Y320918D02*
D03*
X61294Y200019D02*
D03*
Y194665D02*
D03*
X159994Y248519D02*
D03*
Y243165D02*
D03*
X52658Y123504D02*
D03*
Y128858D02*
D03*
X159994Y238419D02*
D03*
Y233065D02*
D03*
X264194Y760019D02*
D03*
Y754665D02*
D03*
X305294Y744019D02*
D03*
Y738665D02*
D03*
X337598Y791201D02*
D03*
Y796555D02*
D03*
X269061Y528071D02*
D03*
Y533425D02*
D03*
X196858Y528169D02*
D03*
Y533524D02*
D03*
X124606Y528110D02*
D03*
Y533465D02*
D03*
X341535Y534547D02*
D03*
Y529193D02*
D03*
X167694Y601719D02*
D03*
Y596365D02*
D03*
X163681Y717579D02*
D03*
Y722933D02*
D03*
X190191Y720563D02*
D03*
Y725918D02*
D03*
X61294Y605019D02*
D03*
Y599665D02*
D03*
X159994Y653519D02*
D03*
Y648165D02*
D03*
X52658Y528504D02*
D03*
Y533858D02*
D03*
X159994Y643419D02*
D03*
Y638065D02*
D03*
G54D286*
X233053Y332245D02*
D03*
X236794D02*
D03*
X240534D02*
D03*
Y322205D02*
D03*
X236794D02*
D03*
X233053D02*
D03*
Y737245D02*
D03*
X236794D02*
D03*
X240534D02*
D03*
Y727206D02*
D03*
X236794D02*
D03*
X233053D02*
D03*
G54D287*
X48994Y360994D02*
D03*
X57331Y364794D02*
D03*
Y357254D02*
D03*
X194094Y368994D02*
D03*
X202431Y372794D02*
D03*
Y365253D02*
D03*
X48994Y765994D02*
D03*
X57331Y769794D02*
D03*
Y762254D02*
D03*
X194094Y773994D02*
D03*
X202431Y777794D02*
D03*
Y770254D02*
D03*
G54D288*
X247263Y332565D02*
D03*
X255924Y316423D02*
D03*
Y332565D02*
D03*
X247263Y316423D02*
D03*
Y737565D02*
D03*
X255924Y721423D02*
D03*
Y737565D02*
D03*
X247263Y721423D02*
D03*
G54D289*
X85140Y287250D02*
D03*
X78447D02*
D03*
Y284100D02*
D03*
X85140D02*
D03*
Y692250D02*
D03*
X78447D02*
D03*
Y689100D02*
D03*
X85140D02*
D03*
G54D290*
X69365Y287643D02*
D03*
X72021D02*
D03*
X69365Y285675D02*
D03*
Y283706D02*
D03*
X72021Y285675D02*
D03*
Y283706D02*
D03*
X69365Y692643D02*
D03*
X72021D02*
D03*
X69365Y690675D02*
D03*
Y688706D02*
D03*
X72021Y690675D02*
D03*
Y688706D02*
D03*
G54D291*
X383907Y419889D02*
D03*
Y411158D02*
D03*
X150594Y391294D02*
D03*
Y382563D02*
D03*
X198332Y376769D02*
D03*
Y385500D02*
D03*
X110794Y391294D02*
D03*
Y382563D02*
D03*
X383907Y824889D02*
D03*
Y816158D02*
D03*
X150594Y796294D02*
D03*
Y787563D02*
D03*
X198332Y781769D02*
D03*
Y790500D02*
D03*
X110794Y796294D02*
D03*
Y787563D02*
D03*
G54D292*
X268602Y303445D02*
D03*
Y708445D02*
D03*
G54D293*
X262205Y300492D02*
D03*
Y306398D02*
D03*
X275000D02*
D03*
Y300492D02*
D03*
X262205Y705492D02*
D03*
Y711398D02*
D03*
X275000D02*
D03*
Y705492D02*
D03*
G54D294*
X264665Y309842D02*
D03*
X266634D02*
D03*
X268602D02*
D03*
X270571D02*
D03*
X272539D02*
D03*
Y297047D02*
D03*
X270571D02*
D03*
X268602D02*
D03*
X266634D02*
D03*
X264665D02*
D03*
Y714843D02*
D03*
X266634D02*
D03*
X268602D02*
D03*
X270571D02*
D03*
X272539D02*
D03*
Y702047D02*
D03*
X270571D02*
D03*
X268602D02*
D03*
X266634D02*
D03*
X264665D02*
D03*
G54D295*
X382368Y90905D02*
D03*
X377013D02*
D03*
X326248Y329429D02*
D03*
X320894D02*
D03*
X315815Y329528D02*
D03*
X310461D02*
D03*
X307500Y113976D02*
D03*
X302146D02*
D03*
X190047Y113839D02*
D03*
X195402D02*
D03*
X234527Y113813D02*
D03*
X229173D02*
D03*
X192210Y90905D02*
D03*
X186856D02*
D03*
X117705Y113937D02*
D03*
X123059D02*
D03*
X163012Y113976D02*
D03*
X157658D02*
D03*
X120000Y90945D02*
D03*
X114646D02*
D03*
X160323Y90906D02*
D03*
X165677D02*
D03*
X331344Y90905D02*
D03*
X336698D02*
D03*
X133471Y268894D02*
D03*
X128117D02*
D03*
Y319494D02*
D03*
X133471D02*
D03*
X188282Y293149D02*
D03*
X182928D02*
D03*
X147865Y260342D02*
D03*
X142511D02*
D03*
X326371Y323429D02*
D03*
X321017D02*
D03*
X421552Y153146D02*
D03*
X416197D02*
D03*
X52517Y352094D02*
D03*
X57871D02*
D03*
X217871Y379194D02*
D03*
X212516D02*
D03*
X82171Y390094D02*
D03*
X76816D02*
D03*
X122371D02*
D03*
X117016D02*
D03*
X157116Y390093D02*
D03*
X162471D02*
D03*
X262193Y113937D02*
D03*
X267547D02*
D03*
X264454Y90905D02*
D03*
X259100D02*
D03*
X304769D02*
D03*
X310124D02*
D03*
X379547Y113878D02*
D03*
X374193D02*
D03*
X334117Y113842D02*
D03*
X339471D02*
D03*
X90197Y113779D02*
D03*
X84842D02*
D03*
X45461Y113937D02*
D03*
X50815D02*
D03*
X47756Y90945D02*
D03*
X42402D02*
D03*
X88071D02*
D03*
X93425D02*
D03*
X232525Y90905D02*
D03*
X237879D02*
D03*
X246071Y390093D02*
D03*
X240717D02*
D03*
X382368Y495905D02*
D03*
X377013D02*
D03*
X326248Y734429D02*
D03*
X320894D02*
D03*
X315815Y734528D02*
D03*
X310461D02*
D03*
X307500Y518976D02*
D03*
X302146D02*
D03*
X190047Y518839D02*
D03*
X195402D02*
D03*
X234527Y518813D02*
D03*
X229173D02*
D03*
X192210Y495905D02*
D03*
X186856D02*
D03*
X117705Y518937D02*
D03*
X123059D02*
D03*
X163012Y518976D02*
D03*
X157658D02*
D03*
X120000Y495945D02*
D03*
X114646D02*
D03*
X160323Y495906D02*
D03*
X165677D02*
D03*
X331344Y495905D02*
D03*
X336698D02*
D03*
X133471Y673894D02*
D03*
X128117D02*
D03*
Y724494D02*
D03*
X133471D02*
D03*
X188282Y698149D02*
D03*
X182928D02*
D03*
X147865Y665342D02*
D03*
X142511D02*
D03*
X326371Y728429D02*
D03*
X321017D02*
D03*
X421552Y558146D02*
D03*
X416197D02*
D03*
X52517Y757094D02*
D03*
X57871D02*
D03*
X217871Y784194D02*
D03*
X212516D02*
D03*
X82171Y795094D02*
D03*
X76816D02*
D03*
X122371D02*
D03*
X117016D02*
D03*
X157116Y795093D02*
D03*
X162471D02*
D03*
X262193Y518937D02*
D03*
X267547D02*
D03*
X264454Y495905D02*
D03*
X259100D02*
D03*
X304769D02*
D03*
X310124D02*
D03*
X379547Y518878D02*
D03*
X374193D02*
D03*
X334117Y518842D02*
D03*
X339471D02*
D03*
X90197Y518780D02*
D03*
X84842D02*
D03*
X45461Y518937D02*
D03*
X50815D02*
D03*
X47756Y495945D02*
D03*
X42402D02*
D03*
X88071D02*
D03*
X93425D02*
D03*
X232525Y495905D02*
D03*
X237879D02*
D03*
X246071Y795093D02*
D03*
X240717D02*
D03*
G54D296*
X106398Y142618D02*
D03*
X85925D02*
D03*
X177559D02*
D03*
X157087D02*
D03*
X322047D02*
D03*
X301575D02*
D03*
X394291D02*
D03*
X373819D02*
D03*
X249705D02*
D03*
X229232D02*
D03*
X106398Y547618D02*
D03*
X85925D02*
D03*
X177559D02*
D03*
X157087D02*
D03*
X322047D02*
D03*
X301575D02*
D03*
X394291D02*
D03*
X373819D02*
D03*
X249705D02*
D03*
X229232D02*
D03*
G54D297*
X397168Y233925D02*
D03*
X390476D02*
D03*
X390418Y239563D02*
D03*
X397111D02*
D03*
X375913Y234075D02*
D03*
X369220D02*
D03*
X369319Y239390D02*
D03*
X376012D02*
D03*
X397168Y638925D02*
D03*
X390476D02*
D03*
X390418Y644563D02*
D03*
X397111D02*
D03*
X375913Y639075D02*
D03*
X369220D02*
D03*
X369319Y644390D02*
D03*
X376012D02*
D03*
G54D298*
X111724Y97933D02*
D03*
X122923D02*
D03*
X183935Y97894D02*
D03*
X195133D02*
D03*
X168815Y97953D02*
D03*
X157616D02*
D03*
X256179Y97894D02*
D03*
X267377D02*
D03*
X313143D02*
D03*
X301945D02*
D03*
X328386Y97854D02*
D03*
X339584D02*
D03*
X385449Y97953D02*
D03*
X374250D02*
D03*
X39480Y97933D02*
D03*
X50679D02*
D03*
X96472Y97953D02*
D03*
X85274D02*
D03*
X240961Y97854D02*
D03*
X229762D02*
D03*
X111724Y502933D02*
D03*
X122923D02*
D03*
X183935Y502894D02*
D03*
X195133D02*
D03*
X168815Y502953D02*
D03*
X157616D02*
D03*
X256179Y502894D02*
D03*
X267377D02*
D03*
X313143D02*
D03*
X301945D02*
D03*
X328386Y502854D02*
D03*
X339584D02*
D03*
X385449Y502953D02*
D03*
X374250D02*
D03*
X39480Y502933D02*
D03*
X50679D02*
D03*
X96472Y502953D02*
D03*
X85274D02*
D03*
X240961Y502854D02*
D03*
X229762D02*
D03*
G54D299*
X203608Y98090D02*
D03*
X205576D02*
D03*
X207545D02*
D03*
X209513D02*
D03*
X211482D02*
D03*
X213450D02*
D03*
X215419D02*
D03*
X217387D02*
D03*
X219356D02*
D03*
X221324D02*
D03*
Y117225D02*
D03*
X219356D02*
D03*
X217387D02*
D03*
X215419D02*
D03*
X213450D02*
D03*
X211482D02*
D03*
X209513D02*
D03*
X207545D02*
D03*
X205576D02*
D03*
X203608D02*
D03*
X59120Y98090D02*
D03*
X61088D02*
D03*
X63057D02*
D03*
X65025D02*
D03*
X66994D02*
D03*
X68962D02*
D03*
X70931D02*
D03*
X72899D02*
D03*
X74868D02*
D03*
X76836D02*
D03*
Y117225D02*
D03*
X74868D02*
D03*
X72899D02*
D03*
X70931D02*
D03*
X68962D02*
D03*
X66994D02*
D03*
X65025D02*
D03*
X63057D02*
D03*
X61088D02*
D03*
X59120D02*
D03*
X275852D02*
D03*
X277820D02*
D03*
X279789D02*
D03*
X281757D02*
D03*
X283726D02*
D03*
X285695D02*
D03*
X287663D02*
D03*
X289632D02*
D03*
X291600D02*
D03*
X293568D02*
D03*
Y98090D02*
D03*
X291600D02*
D03*
X289632D02*
D03*
X287663D02*
D03*
X285695D02*
D03*
X283726D02*
D03*
X281757D02*
D03*
X279789D02*
D03*
X277820D02*
D03*
X275852D02*
D03*
X348096D02*
D03*
X350065D02*
D03*
X352033D02*
D03*
X354002D02*
D03*
X355970D02*
D03*
X357939D02*
D03*
X359907D02*
D03*
X361876D02*
D03*
X363844D02*
D03*
X365813D02*
D03*
Y117225D02*
D03*
X363844D02*
D03*
X361876D02*
D03*
X359907D02*
D03*
X357939D02*
D03*
X355970D02*
D03*
X354002D02*
D03*
X352033D02*
D03*
X350065D02*
D03*
X348096D02*
D03*
X131364D02*
D03*
X133332D02*
D03*
X135301D02*
D03*
X137269D02*
D03*
X139238D02*
D03*
X141206D02*
D03*
X143175D02*
D03*
X145143D02*
D03*
X147112D02*
D03*
X149080D02*
D03*
Y98090D02*
D03*
X147112D02*
D03*
X145143D02*
D03*
X143175D02*
D03*
X141206D02*
D03*
X139238D02*
D03*
X137269D02*
D03*
X135301D02*
D03*
X133332D02*
D03*
X131364D02*
D03*
X203608Y503090D02*
D03*
X205576D02*
D03*
X207545D02*
D03*
X209513D02*
D03*
X211482D02*
D03*
X213450D02*
D03*
X215419D02*
D03*
X217387D02*
D03*
X219356D02*
D03*
X221324D02*
D03*
Y522225D02*
D03*
X219356D02*
D03*
X217387D02*
D03*
X215419D02*
D03*
X213450D02*
D03*
X211482D02*
D03*
X209513D02*
D03*
X207545D02*
D03*
X205576D02*
D03*
X203608D02*
D03*
X59120Y503090D02*
D03*
X61088D02*
D03*
X63057D02*
D03*
X65025D02*
D03*
X66994D02*
D03*
X68962D02*
D03*
X70931D02*
D03*
X72899D02*
D03*
X74868D02*
D03*
X76836D02*
D03*
Y522225D02*
D03*
X74868D02*
D03*
X72899D02*
D03*
X70931D02*
D03*
X68962D02*
D03*
X66994D02*
D03*
X65025D02*
D03*
X63057D02*
D03*
X61088D02*
D03*
X59120D02*
D03*
X275852D02*
D03*
X277820D02*
D03*
X279789D02*
D03*
X281757D02*
D03*
X283726D02*
D03*
X285695D02*
D03*
X287663D02*
D03*
X289632D02*
D03*
X291600D02*
D03*
X293568D02*
D03*
Y503090D02*
D03*
X291600D02*
D03*
X289632D02*
D03*
X287663D02*
D03*
X285695D02*
D03*
X283726D02*
D03*
X281757D02*
D03*
X279789D02*
D03*
X277820D02*
D03*
X275852D02*
D03*
X348096D02*
D03*
X350065D02*
D03*
X352033D02*
D03*
X354002D02*
D03*
X355970D02*
D03*
X357939D02*
D03*
X359907D02*
D03*
X361876D02*
D03*
X363844D02*
D03*
X365813D02*
D03*
Y522225D02*
D03*
X363844D02*
D03*
X361876D02*
D03*
X359907D02*
D03*
X357939D02*
D03*
X355970D02*
D03*
X354002D02*
D03*
X352033D02*
D03*
X350065D02*
D03*
X348096D02*
D03*
X131364D02*
D03*
X133332D02*
D03*
X135301D02*
D03*
X137269D02*
D03*
X139238D02*
D03*
X141206D02*
D03*
X143175D02*
D03*
X145143D02*
D03*
X147112D02*
D03*
X149080D02*
D03*
Y503090D02*
D03*
X147112D02*
D03*
X145143D02*
D03*
X143175D02*
D03*
X141206D02*
D03*
X139238D02*
D03*
X137269D02*
D03*
X135301D02*
D03*
X133332D02*
D03*
X131364D02*
D03*
G54D300*
X223982Y100768D02*
D03*
Y102736D02*
D03*
Y104705D02*
D03*
Y106673D02*
D03*
Y108642D02*
D03*
Y110610D02*
D03*
Y112579D02*
D03*
Y114547D02*
D03*
X200950D02*
D03*
Y112579D02*
D03*
Y110610D02*
D03*
Y108642D02*
D03*
Y106673D02*
D03*
Y104705D02*
D03*
Y102736D02*
D03*
Y100768D02*
D03*
X79494D02*
D03*
Y102736D02*
D03*
Y104705D02*
D03*
Y106673D02*
D03*
Y108642D02*
D03*
Y110610D02*
D03*
Y112579D02*
D03*
Y114547D02*
D03*
X56462D02*
D03*
Y112579D02*
D03*
Y110610D02*
D03*
Y108642D02*
D03*
Y106673D02*
D03*
Y104705D02*
D03*
Y102736D02*
D03*
Y100768D02*
D03*
X273195D02*
D03*
Y102736D02*
D03*
Y104705D02*
D03*
Y106673D02*
D03*
Y108642D02*
D03*
Y110610D02*
D03*
Y112579D02*
D03*
Y114547D02*
D03*
X296226D02*
D03*
Y112579D02*
D03*
Y110610D02*
D03*
Y108642D02*
D03*
Y106673D02*
D03*
Y104705D02*
D03*
Y102736D02*
D03*
Y100768D02*
D03*
X368470D02*
D03*
Y102736D02*
D03*
Y104705D02*
D03*
Y106673D02*
D03*
Y108642D02*
D03*
Y110610D02*
D03*
Y112579D02*
D03*
Y114547D02*
D03*
X345439D02*
D03*
Y112579D02*
D03*
Y110610D02*
D03*
Y108642D02*
D03*
Y106673D02*
D03*
Y104705D02*
D03*
Y102736D02*
D03*
Y100768D02*
D03*
X128706D02*
D03*
Y102736D02*
D03*
Y104705D02*
D03*
Y106673D02*
D03*
Y108642D02*
D03*
Y110610D02*
D03*
Y112579D02*
D03*
Y114547D02*
D03*
X151738D02*
D03*
Y112579D02*
D03*
Y110610D02*
D03*
Y108642D02*
D03*
Y106673D02*
D03*
Y104705D02*
D03*
Y102736D02*
D03*
Y100768D02*
D03*
X223982Y505768D02*
D03*
Y507736D02*
D03*
Y509705D02*
D03*
Y511673D02*
D03*
Y513642D02*
D03*
Y515610D02*
D03*
Y517579D02*
D03*
Y519547D02*
D03*
X200950D02*
D03*
Y517579D02*
D03*
Y515610D02*
D03*
Y513642D02*
D03*
Y511673D02*
D03*
Y509705D02*
D03*
Y507736D02*
D03*
Y505768D02*
D03*
X79494D02*
D03*
Y507736D02*
D03*
Y509705D02*
D03*
Y511673D02*
D03*
Y513642D02*
D03*
Y515610D02*
D03*
Y517579D02*
D03*
Y519547D02*
D03*
X56462D02*
D03*
Y517579D02*
D03*
Y515610D02*
D03*
Y513642D02*
D03*
Y511673D02*
D03*
Y509705D02*
D03*
Y507736D02*
D03*
Y505768D02*
D03*
X273195D02*
D03*
Y507736D02*
D03*
Y509705D02*
D03*
Y511673D02*
D03*
Y513642D02*
D03*
Y515610D02*
D03*
Y517579D02*
D03*
Y519547D02*
D03*
X296226D02*
D03*
Y517579D02*
D03*
Y515610D02*
D03*
Y513642D02*
D03*
Y511673D02*
D03*
Y509705D02*
D03*
Y507736D02*
D03*
Y505768D02*
D03*
X368470D02*
D03*
Y507736D02*
D03*
Y509705D02*
D03*
Y511673D02*
D03*
Y513642D02*
D03*
Y515610D02*
D03*
Y517579D02*
D03*
Y519547D02*
D03*
X345439D02*
D03*
Y517579D02*
D03*
Y515610D02*
D03*
Y513642D02*
D03*
Y511673D02*
D03*
Y509705D02*
D03*
Y507736D02*
D03*
Y505768D02*
D03*
X128706D02*
D03*
Y507736D02*
D03*
Y509705D02*
D03*
Y511673D02*
D03*
Y513642D02*
D03*
Y515610D02*
D03*
Y517579D02*
D03*
Y519547D02*
D03*
X151738D02*
D03*
Y517579D02*
D03*
Y515610D02*
D03*
Y513642D02*
D03*
Y511673D02*
D03*
Y509705D02*
D03*
Y507736D02*
D03*
Y505768D02*
D03*
G54D301*
X212466Y107658D02*
D03*
X67978D02*
D03*
X284710D02*
D03*
X356954D02*
D03*
X140222D02*
D03*
X212466Y512658D02*
D03*
X67978D02*
D03*
X284710D02*
D03*
X356954D02*
D03*
X140222D02*
D03*
G54D302*
X53355Y305167D02*
D03*
Y301230D02*
D03*
X60441Y303199D02*
D03*
X53355Y710167D02*
D03*
Y706230D02*
D03*
X60441Y708199D02*
D03*
G54D303*
X73736Y312755D02*
D03*
Y317755D02*
D03*
X47948Y312755D02*
D03*
Y317755D02*
D03*
X73736Y717755D02*
D03*
Y722755D02*
D03*
X47948Y717755D02*
D03*
Y722755D02*
D03*
G54D304*
X77739Y262217D02*
D03*
Y267453D02*
D03*
X158689Y191201D02*
D03*
Y196437D02*
D03*
X389894Y59230D02*
D03*
Y53994D02*
D03*
X379894Y59230D02*
D03*
Y53994D02*
D03*
X369894Y59230D02*
D03*
Y53994D02*
D03*
X359894Y59230D02*
D03*
Y53994D02*
D03*
X320394Y59230D02*
D03*
Y53994D02*
D03*
X310394Y59212D02*
D03*
Y53976D02*
D03*
X300394Y59230D02*
D03*
Y53994D02*
D03*
X220394Y59230D02*
D03*
Y53994D02*
D03*
X210394Y59230D02*
D03*
Y53994D02*
D03*
X200394Y59212D02*
D03*
Y53976D02*
D03*
X190394Y59230D02*
D03*
Y53994D02*
D03*
X160894Y59230D02*
D03*
Y53994D02*
D03*
X150894Y59294D02*
D03*
Y54058D02*
D03*
X140694Y59294D02*
D03*
Y54058D02*
D03*
X130894Y59212D02*
D03*
Y53976D02*
D03*
X365794Y155260D02*
D03*
Y150024D02*
D03*
X90894Y59194D02*
D03*
Y53957D02*
D03*
X100694Y59712D02*
D03*
Y54476D02*
D03*
X80794Y59594D02*
D03*
Y54357D02*
D03*
X70894Y59212D02*
D03*
Y53976D02*
D03*
X77739Y667217D02*
D03*
Y672453D02*
D03*
X158689Y596201D02*
D03*
Y601437D02*
D03*
X389894Y464230D02*
D03*
Y458994D02*
D03*
X379894Y464230D02*
D03*
Y458994D02*
D03*
X369894Y464230D02*
D03*
Y458994D02*
D03*
X359894Y464230D02*
D03*
Y458994D02*
D03*
X320394Y464230D02*
D03*
Y458994D02*
D03*
X310394Y464212D02*
D03*
Y458976D02*
D03*
X300394Y464230D02*
D03*
Y458994D02*
D03*
X220394Y464230D02*
D03*
Y458994D02*
D03*
X210394Y464230D02*
D03*
Y458994D02*
D03*
X200394Y464212D02*
D03*
Y458976D02*
D03*
X190394Y464230D02*
D03*
Y458994D02*
D03*
X160894Y464230D02*
D03*
Y458994D02*
D03*
X150894Y464294D02*
D03*
Y459058D02*
D03*
X140694Y464294D02*
D03*
Y459058D02*
D03*
X130894Y464212D02*
D03*
Y458976D02*
D03*
X365794Y560260D02*
D03*
Y555024D02*
D03*
X90894Y464194D02*
D03*
Y458957D02*
D03*
X100694Y464712D02*
D03*
Y459476D02*
D03*
X80794Y464594D02*
D03*
Y459358D02*
D03*
X70894Y464212D02*
D03*
Y458976D02*
D03*
G54D305*
X95866Y69095D02*
D03*
Y80512D02*
D03*
X49831Y76595D02*
D03*
Y65177D02*
D03*
X87331Y80532D02*
D03*
Y69114D02*
D03*
X185854Y65276D02*
D03*
Y76693D02*
D03*
X194417D02*
D03*
Y65276D02*
D03*
X240382Y69016D02*
D03*
Y80433D02*
D03*
X231819D02*
D03*
Y69016D02*
D03*
X330343Y65276D02*
D03*
Y76693D02*
D03*
X338906D02*
D03*
Y65276D02*
D03*
X384772Y69114D02*
D03*
Y80532D02*
D03*
X376209D02*
D03*
Y69114D02*
D03*
X258037Y65118D02*
D03*
Y76535D02*
D03*
X266563Y76496D02*
D03*
Y65079D02*
D03*
X312626Y69114D02*
D03*
Y80532D02*
D03*
X304063D02*
D03*
Y69114D02*
D03*
X113512Y65177D02*
D03*
Y76595D02*
D03*
X122075D02*
D03*
Y65177D02*
D03*
X168110Y69095D02*
D03*
Y80512D02*
D03*
X159575Y80532D02*
D03*
Y69114D02*
D03*
X41339Y65158D02*
D03*
Y76575D02*
D03*
X95866Y474094D02*
D03*
Y485512D02*
D03*
X49831Y481595D02*
D03*
Y470177D02*
D03*
X87331Y485532D02*
D03*
Y474114D02*
D03*
X185854Y470276D02*
D03*
Y481693D02*
D03*
X194417D02*
D03*
Y470276D02*
D03*
X240382Y474016D02*
D03*
Y485433D02*
D03*
X231819D02*
D03*
Y474016D02*
D03*
X330343Y470276D02*
D03*
Y481693D02*
D03*
X338906D02*
D03*
Y470276D02*
D03*
X384772Y474114D02*
D03*
Y485532D02*
D03*
X376209D02*
D03*
Y474114D02*
D03*
X258037Y470118D02*
D03*
Y481535D02*
D03*
X266563Y481496D02*
D03*
Y470079D02*
D03*
X312626Y474114D02*
D03*
Y485532D02*
D03*
X304063D02*
D03*
Y474114D02*
D03*
X113512Y470177D02*
D03*
Y481595D02*
D03*
X122075D02*
D03*
Y470177D02*
D03*
X168110Y474094D02*
D03*
Y485512D02*
D03*
X159575Y485532D02*
D03*
Y474114D02*
D03*
X41339Y470157D02*
D03*
Y481575D02*
D03*
G54D306*
X381791Y395669D02*
D03*
Y382874D02*
D03*
X394882Y395669D02*
D03*
Y382874D02*
D03*
X381791Y800669D02*
D03*
Y787874D02*
D03*
X394882Y800669D02*
D03*
Y787874D02*
D03*
G54D307*
X362528Y388312D02*
D03*
X346928D02*
D03*
X362528Y793312D02*
D03*
X346928D02*
D03*
G54D308*
X329331Y401083D02*
D03*
X291929D02*
D03*
X329331Y806083D02*
D03*
X291929D02*
D03*
G54D309*
X368463Y399912D02*
D03*
Y404912D02*
D03*
Y409912D02*
D03*
Y414912D02*
D03*
X347794Y399912D02*
D03*
Y404912D02*
D03*
Y409912D02*
D03*
Y414912D02*
D03*
X368463Y804912D02*
D03*
Y809912D02*
D03*
Y814912D02*
D03*
Y819912D02*
D03*
X347794Y804912D02*
D03*
Y809912D02*
D03*
Y814912D02*
D03*
Y819912D02*
D03*
G54D310*
X358128Y407412D02*
D03*
Y812412D02*
D03*
G54D311*
X297488Y347343D02*
D03*
Y340256D02*
D03*
Y752343D02*
D03*
Y745256D02*
D03*
G54D312*
X311760Y347933D02*
D03*
Y336122D02*
D03*
Y752933D02*
D03*
Y741122D02*
D03*
G54D313*
X312547Y342028D02*
D03*
Y747028D02*
D03*
G54D314*
X282294Y335842D02*
D03*
Y740842D02*
D03*
G54D315*
X285246Y339582D02*
D03*
X279341Y332102D02*
D03*
X281310D02*
D03*
X283278D02*
D03*
X285246D02*
D03*
X279341Y339582D02*
D03*
X281310D02*
D03*
X283278D02*
D03*
X285246Y744582D02*
D03*
X279341Y737102D02*
D03*
X281310D02*
D03*
X283278D02*
D03*
X285246D02*
D03*
X279341Y744582D02*
D03*
X281310D02*
D03*
X283278D02*
D03*
G54D316*
X382008Y225465D02*
D03*
X385551D02*
D03*
X47601Y166447D02*
D03*
X51144D02*
D03*
X61222Y217842D02*
D03*
X64765D02*
D03*
X61222Y205635D02*
D03*
X64765D02*
D03*
X60422Y190142D02*
D03*
X63965D02*
D03*
X60422Y165871D02*
D03*
X63965D02*
D03*
X60422Y182042D02*
D03*
X63965D02*
D03*
X60422Y169942D02*
D03*
X63965D02*
D03*
X371484Y225512D02*
D03*
X375028D02*
D03*
X371484Y229646D02*
D03*
X375028D02*
D03*
X382008Y630465D02*
D03*
X385551D02*
D03*
X47601Y571447D02*
D03*
X51144D02*
D03*
X61222Y622842D02*
D03*
X64765D02*
D03*
X61222Y610635D02*
D03*
X64765D02*
D03*
X60422Y595142D02*
D03*
X63965D02*
D03*
X60422Y570871D02*
D03*
X63965D02*
D03*
X60422Y587042D02*
D03*
X63965D02*
D03*
X60422Y574942D02*
D03*
X63965D02*
D03*
X371484Y630512D02*
D03*
X375028D02*
D03*
X371484Y634646D02*
D03*
X375028D02*
D03*
G54D317*
X420994Y117232D02*
D03*
Y113442D02*
D03*
X76772Y164567D02*
D03*
Y160777D02*
D03*
X175294Y364384D02*
D03*
Y360594D02*
D03*
X207370Y188110D02*
D03*
Y191900D02*
D03*
X188177Y191988D02*
D03*
Y188198D02*
D03*
X421094Y125042D02*
D03*
Y121252D02*
D03*
X425394Y113452D02*
D03*
Y117242D02*
D03*
X425294Y121242D02*
D03*
Y125032D02*
D03*
X250494Y294732D02*
D03*
Y290942D02*
D03*
X284254Y168363D02*
D03*
Y172153D02*
D03*
X85960Y165894D02*
D03*
Y169684D02*
D03*
X202173Y188317D02*
D03*
Y192106D02*
D03*
X89827Y165894D02*
D03*
Y169684D02*
D03*
X93694Y165894D02*
D03*
Y169684D02*
D03*
X82094Y169694D02*
D03*
Y165904D02*
D03*
X193197Y191802D02*
D03*
Y188012D02*
D03*
X238794Y294842D02*
D03*
Y291052D02*
D03*
X246394Y292242D02*
D03*
Y296032D02*
D03*
X242694Y296542D02*
D03*
Y292752D02*
D03*
X235087Y191073D02*
D03*
Y187284D02*
D03*
X207823Y292254D02*
D03*
Y288465D02*
D03*
X213269Y293281D02*
D03*
Y289491D02*
D03*
X197287Y191703D02*
D03*
Y187913D02*
D03*
X393807Y419589D02*
D03*
Y415799D02*
D03*
X234794Y289442D02*
D03*
Y293232D02*
D03*
X95194Y360507D02*
D03*
Y364297D02*
D03*
X161394Y270994D02*
D03*
Y274783D02*
D03*
X154894Y284294D02*
D03*
Y288084D02*
D03*
Y278794D02*
D03*
Y275004D02*
D03*
X97494Y342094D02*
D03*
Y345883D02*
D03*
X78994Y341794D02*
D03*
Y338004D02*
D03*
X264713Y320049D02*
D03*
Y323839D02*
D03*
X175394Y356794D02*
D03*
Y353004D02*
D03*
X281299Y225167D02*
D03*
Y228957D02*
D03*
X207794Y373294D02*
D03*
Y377083D02*
D03*
X207894Y369294D02*
D03*
Y365504D02*
D03*
X226794Y369794D02*
D03*
Y373584D02*
D03*
X135295Y360600D02*
D03*
Y364390D02*
D03*
X269437Y320049D02*
D03*
Y323839D02*
D03*
X227846Y320748D02*
D03*
Y316958D02*
D03*
X202803Y296684D02*
D03*
Y292894D02*
D03*
X282677Y180088D02*
D03*
Y183878D02*
D03*
X292520Y125128D02*
D03*
Y121339D02*
D03*
X364961Y125227D02*
D03*
Y121437D02*
D03*
X76378Y125424D02*
D03*
Y121634D02*
D03*
X148425Y125620D02*
D03*
Y121831D02*
D03*
X220472Y125345D02*
D03*
Y121555D02*
D03*
X47961Y305072D02*
D03*
Y308862D02*
D03*
X373228Y407912D02*
D03*
Y411702D02*
D03*
Y415712D02*
D03*
Y419502D02*
D03*
X260394Y332242D02*
D03*
Y336032D02*
D03*
X420994Y522232D02*
D03*
Y518442D02*
D03*
X76772Y569567D02*
D03*
Y565777D02*
D03*
X175294Y769383D02*
D03*
Y765594D02*
D03*
X207370Y593110D02*
D03*
Y596900D02*
D03*
X188177Y596988D02*
D03*
Y593198D02*
D03*
X421094Y530042D02*
D03*
Y526252D02*
D03*
X425394Y518452D02*
D03*
Y522242D02*
D03*
X425294Y526242D02*
D03*
Y530032D02*
D03*
X250494Y699732D02*
D03*
Y695942D02*
D03*
X284254Y573363D02*
D03*
Y577153D02*
D03*
X85960Y570894D02*
D03*
Y574684D02*
D03*
X202173Y593317D02*
D03*
Y597106D02*
D03*
X89827Y570894D02*
D03*
Y574684D02*
D03*
X93694Y570894D02*
D03*
Y574684D02*
D03*
X82094Y574694D02*
D03*
Y570904D02*
D03*
X193197Y596802D02*
D03*
Y593012D02*
D03*
X238794Y699842D02*
D03*
Y696052D02*
D03*
X246394Y697242D02*
D03*
Y701032D02*
D03*
X242694Y701542D02*
D03*
Y697752D02*
D03*
X235087Y596073D02*
D03*
Y592283D02*
D03*
X207823Y697254D02*
D03*
Y693465D02*
D03*
X213269Y698281D02*
D03*
Y694491D02*
D03*
X197287Y596703D02*
D03*
Y592913D02*
D03*
X393807Y824589D02*
D03*
Y820799D02*
D03*
X234794Y694442D02*
D03*
Y698232D02*
D03*
X95194Y765507D02*
D03*
Y769297D02*
D03*
X161394Y675994D02*
D03*
Y679783D02*
D03*
X154894Y689294D02*
D03*
Y693083D02*
D03*
Y683794D02*
D03*
Y680004D02*
D03*
X97494Y747094D02*
D03*
Y750883D02*
D03*
X78994Y746794D02*
D03*
Y743004D02*
D03*
X264713Y725049D02*
D03*
Y728839D02*
D03*
X175394Y761794D02*
D03*
Y758004D02*
D03*
X281299Y630167D02*
D03*
Y633957D02*
D03*
X207794Y778294D02*
D03*
Y782084D02*
D03*
X207894Y774294D02*
D03*
Y770504D02*
D03*
X226794Y774794D02*
D03*
Y778583D02*
D03*
X135295Y765600D02*
D03*
Y769390D02*
D03*
X269437Y725049D02*
D03*
Y728839D02*
D03*
X227846Y725748D02*
D03*
Y721958D02*
D03*
X202803Y701684D02*
D03*
Y697894D02*
D03*
X282677Y585088D02*
D03*
Y588878D02*
D03*
X292520Y530128D02*
D03*
Y526339D02*
D03*
X364961Y530227D02*
D03*
Y526437D02*
D03*
X76378Y530424D02*
D03*
Y526634D02*
D03*
X148425Y530620D02*
D03*
Y526831D02*
D03*
X220472Y530345D02*
D03*
Y526555D02*
D03*
X47961Y710072D02*
D03*
Y713862D02*
D03*
X373228Y812912D02*
D03*
Y816702D02*
D03*
Y820712D02*
D03*
Y824502D02*
D03*
X260394Y737242D02*
D03*
Y741032D02*
D03*
G54D318*
X404879Y114802D02*
D03*
Y122282D02*
D03*
X415509D02*
D03*
Y118542D02*
D03*
Y114802D02*
D03*
X404879Y519802D02*
D03*
Y527282D02*
D03*
X415509D02*
D03*
Y523542D02*
D03*
Y519802D02*
D03*
G54D319*
X280494Y351206D02*
D03*
Y371678D02*
D03*
X305094Y301257D02*
D03*
Y321730D02*
D03*
X280494Y756206D02*
D03*
Y776678D02*
D03*
X305094Y706257D02*
D03*
Y726730D02*
D03*
G54D320*
X154994Y355055D02*
D03*
X159994D02*
D03*
X164994D02*
D03*
X169994D02*
D03*
X129894D02*
D03*
X124894D02*
D03*
X119894D02*
D03*
X114894D02*
D03*
X255543Y347055D02*
D03*
X250543D02*
D03*
X245543D02*
D03*
X240543D02*
D03*
X90043Y355055D02*
D03*
X85043D02*
D03*
X80043D02*
D03*
X75043D02*
D03*
X154994Y760055D02*
D03*
X159994D02*
D03*
X164994D02*
D03*
X169994D02*
D03*
X129894D02*
D03*
X124894D02*
D03*
X119894D02*
D03*
X114894D02*
D03*
X255543Y752055D02*
D03*
X250543D02*
D03*
X245543D02*
D03*
X240543D02*
D03*
X90043Y760055D02*
D03*
X85043D02*
D03*
X80043D02*
D03*
X75043D02*
D03*
G54D321*
X139555Y157618D02*
D03*
Y154862D02*
D03*
X136307D02*
D03*
Y157618D02*
D03*
X124890Y154961D02*
D03*
Y157717D02*
D03*
X339398Y239685D02*
D03*
Y236929D02*
D03*
X303177Y239882D02*
D03*
Y237126D02*
D03*
X139555Y562618D02*
D03*
Y559862D02*
D03*
X136307D02*
D03*
Y562618D02*
D03*
X124890Y559961D02*
D03*
Y562717D02*
D03*
X339398Y644685D02*
D03*
Y641929D02*
D03*
X303177Y644882D02*
D03*
Y642126D02*
D03*
G54D322*
X356299Y236221D02*
D03*
Y239764D02*
D03*
X315256Y235335D02*
D03*
Y231791D02*
D03*
X339961Y230217D02*
D03*
Y226673D02*
D03*
X301969Y230512D02*
D03*
Y226969D02*
D03*
X356299Y641221D02*
D03*
Y644764D02*
D03*
X315256Y640335D02*
D03*
Y636791D02*
D03*
X339961Y635217D02*
D03*
Y631673D02*
D03*
X301969Y635512D02*
D03*
Y631968D02*
D03*
G54D323*
X76772Y151053D02*
D03*
Y154823D02*
D03*
X210294Y128372D02*
D03*
Y132142D02*
D03*
X206094Y128342D02*
D03*
Y132112D02*
D03*
X192126Y128740D02*
D03*
Y124970D02*
D03*
X201772Y125620D02*
D03*
Y121851D02*
D03*
X218602Y91732D02*
D03*
Y87962D02*
D03*
X138094Y132242D02*
D03*
Y128472D02*
D03*
X133994Y132212D02*
D03*
Y128442D02*
D03*
X119783Y123395D02*
D03*
Y127165D02*
D03*
X129535Y122106D02*
D03*
Y125876D02*
D03*
X146394Y87942D02*
D03*
Y91712D02*
D03*
X402694Y76694D02*
D03*
Y72924D02*
D03*
Y93924D02*
D03*
Y97694D02*
D03*
X389807Y415789D02*
D03*
Y419559D02*
D03*
X364764Y91732D02*
D03*
Y87962D02*
D03*
X316948Y174583D02*
D03*
Y170813D02*
D03*
X282652Y189114D02*
D03*
Y192884D02*
D03*
X165594Y274694D02*
D03*
Y270924D02*
D03*
X172526Y194761D02*
D03*
Y190991D02*
D03*
X93394Y311864D02*
D03*
Y308094D02*
D03*
X143994Y307594D02*
D03*
Y311364D02*
D03*
X164794Y236912D02*
D03*
Y233142D02*
D03*
X165294Y251542D02*
D03*
Y247772D02*
D03*
X262102Y236494D02*
D03*
Y240264D02*
D03*
X248294Y187942D02*
D03*
Y191712D02*
D03*
X165294Y255342D02*
D03*
Y259112D02*
D03*
X241794Y191564D02*
D03*
Y187794D02*
D03*
X261994Y225494D02*
D03*
Y229264D02*
D03*
X230994Y288772D02*
D03*
Y292542D02*
D03*
X163020Y191427D02*
D03*
Y195197D02*
D03*
X290846Y91732D02*
D03*
Y87962D02*
D03*
X74114D02*
D03*
Y91732D02*
D03*
X72794Y222194D02*
D03*
Y225964D02*
D03*
X148130Y311373D02*
D03*
Y307603D02*
D03*
X176633Y194755D02*
D03*
Y190985D02*
D03*
X82353Y266889D02*
D03*
Y270659D02*
D03*
X82359Y262849D02*
D03*
Y259080D02*
D03*
X258594Y307542D02*
D03*
Y303772D02*
D03*
X85594Y54164D02*
D03*
Y57934D02*
D03*
X105494Y57864D02*
D03*
Y54094D02*
D03*
X95694Y54064D02*
D03*
Y57834D02*
D03*
X195294Y59803D02*
D03*
Y56033D02*
D03*
X205394Y57964D02*
D03*
Y54194D02*
D03*
X215394Y57864D02*
D03*
Y54094D02*
D03*
X274016Y125620D02*
D03*
Y121851D02*
D03*
X264370Y128839D02*
D03*
Y125068D02*
D03*
X55794Y54342D02*
D03*
Y58112D02*
D03*
X75894Y60594D02*
D03*
Y56824D02*
D03*
X354894Y54094D02*
D03*
Y57864D02*
D03*
X278194Y132312D02*
D03*
Y128542D02*
D03*
X282394Y132342D02*
D03*
Y128572D02*
D03*
X346226Y125778D02*
D03*
Y122008D02*
D03*
X336910Y130315D02*
D03*
Y126545D02*
D03*
X350494Y128542D02*
D03*
Y132312D02*
D03*
X354694Y128572D02*
D03*
Y132342D02*
D03*
X364894Y53994D02*
D03*
Y57764D02*
D03*
X374894D02*
D03*
Y53994D02*
D03*
X394894Y54094D02*
D03*
Y57864D02*
D03*
X384894Y57764D02*
D03*
Y53994D02*
D03*
X116634Y53907D02*
D03*
Y57677D02*
D03*
X135794Y61064D02*
D03*
Y57294D02*
D03*
X145794Y54224D02*
D03*
Y57994D02*
D03*
X155905Y54036D02*
D03*
Y57806D02*
D03*
X305294Y61964D02*
D03*
Y58194D02*
D03*
X315394Y57964D02*
D03*
Y54194D02*
D03*
X343110Y54459D02*
D03*
Y50689D02*
D03*
X325394Y57964D02*
D03*
Y54194D02*
D03*
X57284Y125817D02*
D03*
Y122047D02*
D03*
X47646Y125157D02*
D03*
Y121388D02*
D03*
X61194Y128342D02*
D03*
Y132112D02*
D03*
X65294Y128272D02*
D03*
Y132042D02*
D03*
X298031Y191368D02*
D03*
Y187599D02*
D03*
X97594Y165624D02*
D03*
Y169394D02*
D03*
X373571Y398130D02*
D03*
Y401900D02*
D03*
X341828Y414212D02*
D03*
Y417982D02*
D03*
X288994Y333972D02*
D03*
Y337742D02*
D03*
X305194Y347242D02*
D03*
Y343472D02*
D03*
X76772Y556053D02*
D03*
Y559823D02*
D03*
X210294Y533372D02*
D03*
Y537142D02*
D03*
X206094Y533342D02*
D03*
Y537112D02*
D03*
X192126Y533740D02*
D03*
Y529970D02*
D03*
X201772Y530620D02*
D03*
Y526851D02*
D03*
X218602Y496732D02*
D03*
Y492962D02*
D03*
X138094Y537242D02*
D03*
Y533472D02*
D03*
X133994Y537212D02*
D03*
Y533442D02*
D03*
X119783Y528395D02*
D03*
Y532165D02*
D03*
X129535Y527107D02*
D03*
Y530876D02*
D03*
X146394Y492942D02*
D03*
Y496712D02*
D03*
X402694Y481694D02*
D03*
Y477924D02*
D03*
Y498924D02*
D03*
Y502694D02*
D03*
X389807Y820789D02*
D03*
Y824559D02*
D03*
X364764Y496732D02*
D03*
Y492962D02*
D03*
X316948Y579583D02*
D03*
Y575813D02*
D03*
X282652Y594114D02*
D03*
Y597884D02*
D03*
X165594Y679694D02*
D03*
Y675924D02*
D03*
X172526Y599761D02*
D03*
Y595991D02*
D03*
X93394Y716864D02*
D03*
Y713094D02*
D03*
X143994Y712594D02*
D03*
Y716364D02*
D03*
X164794Y641912D02*
D03*
Y638142D02*
D03*
X165294Y656542D02*
D03*
Y652772D02*
D03*
X262102Y641494D02*
D03*
Y645264D02*
D03*
X248294Y592942D02*
D03*
Y596712D02*
D03*
X165294Y660342D02*
D03*
Y664112D02*
D03*
X241794Y596564D02*
D03*
Y592794D02*
D03*
X261994Y630494D02*
D03*
Y634264D02*
D03*
X230994Y693772D02*
D03*
Y697542D02*
D03*
X163020Y596427D02*
D03*
Y600197D02*
D03*
X290846Y496732D02*
D03*
Y492962D02*
D03*
X74114D02*
D03*
Y496732D02*
D03*
X72794Y627194D02*
D03*
Y630964D02*
D03*
X148130Y716373D02*
D03*
Y712603D02*
D03*
X176633Y599755D02*
D03*
Y595985D02*
D03*
X82353Y671889D02*
D03*
Y675659D02*
D03*
X82359Y667849D02*
D03*
Y664080D02*
D03*
X258594Y712542D02*
D03*
Y708772D02*
D03*
X85594Y459164D02*
D03*
Y462934D02*
D03*
X105494Y462864D02*
D03*
Y459094D02*
D03*
X95694Y459064D02*
D03*
Y462834D02*
D03*
X195294Y464803D02*
D03*
Y461033D02*
D03*
X205394Y462964D02*
D03*
Y459194D02*
D03*
X215394Y462864D02*
D03*
Y459094D02*
D03*
X274016Y530620D02*
D03*
Y526851D02*
D03*
X264370Y533839D02*
D03*
Y530068D02*
D03*
X55794Y459342D02*
D03*
Y463112D02*
D03*
X75894Y465594D02*
D03*
Y461824D02*
D03*
X354894Y459094D02*
D03*
Y462864D02*
D03*
X278194Y537312D02*
D03*
Y533542D02*
D03*
X282394Y537342D02*
D03*
Y533572D02*
D03*
X346226Y530778D02*
D03*
Y527008D02*
D03*
X336910Y535315D02*
D03*
Y531545D02*
D03*
X350494Y533542D02*
D03*
Y537312D02*
D03*
X354694Y533572D02*
D03*
Y537342D02*
D03*
X364894Y458994D02*
D03*
Y462764D02*
D03*
X374894D02*
D03*
Y458994D02*
D03*
X394894Y459094D02*
D03*
Y462864D02*
D03*
X384894Y462764D02*
D03*
Y458994D02*
D03*
X116634Y458907D02*
D03*
Y462677D02*
D03*
X135794Y466064D02*
D03*
Y462294D02*
D03*
X145794Y459224D02*
D03*
Y462994D02*
D03*
X155905Y459035D02*
D03*
Y462806D02*
D03*
X305294Y466964D02*
D03*
Y463194D02*
D03*
X315394Y462964D02*
D03*
Y459194D02*
D03*
X343110Y459459D02*
D03*
Y455689D02*
D03*
X325394Y462964D02*
D03*
Y459194D02*
D03*
X57284Y530817D02*
D03*
Y527047D02*
D03*
X47646Y530158D02*
D03*
Y526388D02*
D03*
X61194Y533342D02*
D03*
Y537112D02*
D03*
X65294Y533272D02*
D03*
Y537042D02*
D03*
X298031Y596369D02*
D03*
Y592598D02*
D03*
X97594Y570624D02*
D03*
Y574394D02*
D03*
X373571Y803130D02*
D03*
Y806900D02*
D03*
X341828Y819212D02*
D03*
Y822982D02*
D03*
X288994Y738972D02*
D03*
Y742742D02*
D03*
X305194Y752242D02*
D03*
Y748472D02*
D03*
G54D324*
X317520Y192323D02*
D03*
X313976D02*
D03*
X395374Y225394D02*
D03*
X391831D02*
D03*
X353248Y226772D02*
D03*
X356791D02*
D03*
X300492Y195374D02*
D03*
X296949D02*
D03*
X315256Y226772D02*
D03*
X318799D02*
D03*
X288976Y239665D02*
D03*
X285433D02*
D03*
X347388Y230453D02*
D03*
X343844D02*
D03*
X334941Y230763D02*
D03*
X331398D02*
D03*
X323390Y234967D02*
D03*
X326933D02*
D03*
X310713Y231117D02*
D03*
X307169D02*
D03*
X296100Y230890D02*
D03*
X292556D02*
D03*
X288574Y226573D02*
D03*
X285030D02*
D03*
X87094Y179961D02*
D03*
X90638D02*
D03*
X97626Y158406D02*
D03*
X94083D02*
D03*
X317520Y597323D02*
D03*
X313976D02*
D03*
X395374Y630394D02*
D03*
X391831D02*
D03*
X353248Y631772D02*
D03*
X356791D02*
D03*
X300492Y600374D02*
D03*
X296949D02*
D03*
X315256Y631772D02*
D03*
X318799D02*
D03*
X288976Y644665D02*
D03*
X285433D02*
D03*
X347388Y635453D02*
D03*
X343844D02*
D03*
X334941Y635763D02*
D03*
X331398D02*
D03*
X323390Y639967D02*
D03*
X326933D02*
D03*
X310713Y636117D02*
D03*
X307169D02*
D03*
X296100Y635890D02*
D03*
X292556D02*
D03*
X288574Y631573D02*
D03*
X285030D02*
D03*
X87094Y584961D02*
D03*
X90638D02*
D03*
X97626Y563406D02*
D03*
X94083D02*
D03*
G54D325*
X131189Y154075D02*
D03*
Y157618D02*
D03*
Y559075D02*
D03*
Y562618D02*
D03*
G54D326*
X120264Y152500D02*
D03*
X117508D02*
D03*
X288779Y294508D02*
D03*
X286024D02*
D03*
X323524Y295000D02*
D03*
X326279D02*
D03*
X369882Y295591D02*
D03*
X367126D02*
D03*
X399929Y244803D02*
D03*
X397173D02*
D03*
X120264Y557500D02*
D03*
X117508D02*
D03*
X288779Y699508D02*
D03*
X286024D02*
D03*
X323524Y700000D02*
D03*
X326279D02*
D03*
X369882Y700591D02*
D03*
X367126D02*
D03*
X399929Y649803D02*
D03*
X397173D02*
D03*
G54D327*
X58894Y33504D02*
D03*
Y37294D02*
D03*
X48794Y397584D02*
D03*
Y393794D02*
D03*
X58894Y438504D02*
D03*
Y442294D02*
D03*
X48794Y802584D02*
D03*
Y798794D02*
D03*
G54D328*
X299114Y360630D02*
D03*
X311910D02*
D03*
X299114Y373721D02*
D03*
X311910D02*
D03*
X299114Y765630D02*
D03*
X311910D02*
D03*
X299114Y778721D02*
D03*
X311910D02*
D03*
G54D329*
X304381Y193785D02*
D03*
Y187092D02*
D03*
X309514Y187309D02*
D03*
Y194002D02*
D03*
X287154Y187169D02*
D03*
Y193862D02*
D03*
X292553Y193762D02*
D03*
Y187069D02*
D03*
X304381Y598785D02*
D03*
Y592092D02*
D03*
X309514Y592309D02*
D03*
Y599002D02*
D03*
X287154Y592169D02*
D03*
Y598862D02*
D03*
X292553Y598762D02*
D03*
Y592069D02*
D03*
G54D330*
X227794Y389194D02*
D03*
X236525D02*
D03*
X69494Y383094D02*
D03*
X78224D02*
D03*
X30754Y362420D02*
D03*
X39485D02*
D03*
X33263Y291594D02*
D03*
X41994D02*
D03*
X227794Y794194D02*
D03*
X236525D02*
D03*
X69494Y788094D02*
D03*
X78224D02*
D03*
X30754Y767420D02*
D03*
X39485D02*
D03*
X33263Y696594D02*
D03*
X41994D02*
D03*
G54D331*
X179494Y357053D02*
D03*
Y360794D02*
D03*
Y364534D02*
D03*
X189533D02*
D03*
Y360794D02*
D03*
Y357053D02*
D03*
X139429Y356988D02*
D03*
Y360728D02*
D03*
Y364469D02*
D03*
X149469D02*
D03*
Y360728D02*
D03*
Y356988D02*
D03*
X99272D02*
D03*
Y360728D02*
D03*
Y364469D02*
D03*
X109311D02*
D03*
Y360728D02*
D03*
Y356988D02*
D03*
X83102Y337441D02*
D03*
Y341181D02*
D03*
Y344921D02*
D03*
X93141D02*
D03*
Y341181D02*
D03*
Y337441D02*
D03*
X212174Y365953D02*
D03*
Y369694D02*
D03*
Y373434D02*
D03*
X222213D02*
D03*
Y369694D02*
D03*
Y365953D02*
D03*
X179494Y762053D02*
D03*
Y765794D02*
D03*
Y769534D02*
D03*
X189533D02*
D03*
Y765794D02*
D03*
Y762053D02*
D03*
X139429Y761988D02*
D03*
Y765728D02*
D03*
Y769468D02*
D03*
X149469D02*
D03*
Y765728D02*
D03*
Y761988D02*
D03*
X99272D02*
D03*
Y765728D02*
D03*
Y769468D02*
D03*
X109311D02*
D03*
Y765728D02*
D03*
Y761988D02*
D03*
X83102Y742441D02*
D03*
Y746181D02*
D03*
Y749921D02*
D03*
X93141D02*
D03*
Y746181D02*
D03*
Y742441D02*
D03*
X212174Y770954D02*
D03*
Y774694D02*
D03*
Y778434D02*
D03*
X222213D02*
D03*
Y774694D02*
D03*
Y770954D02*
D03*
G54D332*
X401994Y56994D02*
D03*
Y461994D02*
D03*
G54D333*
X189916Y390093D02*
D03*
X195271D02*
D03*
X92271Y390094D02*
D03*
X86916D02*
D03*
X127216Y390093D02*
D03*
X132571D02*
D03*
X172571Y390093D02*
D03*
X167216D02*
D03*
X241116Y384542D02*
D03*
X246471D02*
D03*
X189916Y795093D02*
D03*
X195271D02*
D03*
X92271Y795094D02*
D03*
X86916D02*
D03*
X127216Y795093D02*
D03*
X132571D02*
D03*
X172571Y795093D02*
D03*
X167216D02*
D03*
X241116Y789541D02*
D03*
X246471D02*
D03*
G54D334*
X323694Y302783D02*
D03*
Y313216D02*
D03*
Y707783D02*
D03*
Y718216D02*
D03*
G54D335*
X180694Y388768D02*
D03*
Y372994D02*
D03*
X140694Y373194D02*
D03*
Y388968D02*
D03*
X100794D02*
D03*
Y373194D02*
D03*
X65694Y357820D02*
D03*
Y373594D02*
D03*
X262094Y375142D02*
D03*
Y390916D02*
D03*
X180694Y793768D02*
D03*
Y777994D02*
D03*
X140694Y778194D02*
D03*
Y793968D02*
D03*
X100794D02*
D03*
Y778194D02*
D03*
X65694Y762820D02*
D03*
Y778594D02*
D03*
X262094Y780142D02*
D03*
Y795916D02*
D03*
G54D336*
X402457Y263642D02*
D03*
Y283642D02*
D03*
Y303642D02*
D03*
Y323642D02*
D03*
Y363642D02*
D03*
Y343642D02*
D03*
Y668642D02*
D03*
Y688642D02*
D03*
Y708642D02*
D03*
Y728642D02*
D03*
Y768642D02*
D03*
Y748642D02*
D03*
G54D337*
X336894Y363794D02*
D03*
X350294D02*
D03*
Y310794D02*
D03*
X336894D02*
D03*
X370494Y363794D02*
D03*
X383894D02*
D03*
Y310794D02*
D03*
X370494D02*
D03*
X423826Y228272D02*
D03*
X410426D02*
D03*
Y175272D02*
D03*
X423826D02*
D03*
X336894Y768794D02*
D03*
X350294D02*
D03*
Y715794D02*
D03*
X336894D02*
D03*
X370494Y768794D02*
D03*
X383894D02*
D03*
Y715794D02*
D03*
X370494D02*
D03*
X423826Y633272D02*
D03*
X410426D02*
D03*
Y580272D02*
D03*
X423826D02*
D03*
G54D338*
X73394Y410594D02*
D03*
X93394D02*
D03*
X113394D02*
D03*
X133394D02*
D03*
X153394D02*
D03*
X173394D02*
D03*
X193394D02*
D03*
X213394D02*
D03*
X233394D02*
D03*
X253394D02*
D03*
X73394Y815594D02*
D03*
X93394D02*
D03*
X113394D02*
D03*
X133394D02*
D03*
X153394D02*
D03*
X173394D02*
D03*
X193394D02*
D03*
X213394D02*
D03*
X233394D02*
D03*
X253394D02*
D03*
G54D339*
X43794Y325094D02*
D03*
Y352694D02*
D03*
Y730094D02*
D03*
Y757694D02*
D03*
G54D340*
X33994Y329994D02*
D03*
Y347794D02*
D03*
Y734994D02*
D03*
Y752794D02*
D03*
G54D341*
X50394Y231694D02*
D03*
Y279016D02*
D03*
Y636694D02*
D03*
Y684016D02*
D03*
G54D342*
X61094Y250394D02*
D03*
Y260315D02*
D03*
X68994D02*
D03*
Y250394D02*
D03*
X61094Y655394D02*
D03*
Y665315D02*
D03*
X68994D02*
D03*
Y655394D02*
D03*
G54D343*
X281094Y256294D02*
D03*
X291094D02*
D03*
X301094D02*
D03*
X328394Y211694D02*
D03*
X318394D02*
D03*
X389894Y39894D02*
D03*
X379894D02*
D03*
X369894D02*
D03*
X359894D02*
D03*
X47794Y379894D02*
D03*
X37794D02*
D03*
X363194Y256294D02*
D03*
X373194D02*
D03*
X383194D02*
D03*
X322144D02*
D03*
X332144D02*
D03*
X342144D02*
D03*
X383194Y280294D02*
D03*
X373194D02*
D03*
X363194D02*
D03*
X342144D02*
D03*
X332144D02*
D03*
X322144D02*
D03*
X301094D02*
D03*
X291094D02*
D03*
X281094D02*
D03*
X391194Y211694D02*
D03*
X381194D02*
D03*
X359894D02*
D03*
X349894D02*
D03*
X296694D02*
D03*
X286694D02*
D03*
X330394Y39894D02*
D03*
X320394D02*
D03*
X310394D02*
D03*
X300394D02*
D03*
X271394D02*
D03*
X261394D02*
D03*
X251394D02*
D03*
X241394D02*
D03*
X220394D02*
D03*
X210394D02*
D03*
X200394D02*
D03*
X190394D02*
D03*
X160894D02*
D03*
X150894D02*
D03*
X140894D02*
D03*
X130894D02*
D03*
X100894D02*
D03*
X90894D02*
D03*
X80894D02*
D03*
X70894D02*
D03*
X281094Y661294D02*
D03*
X291094D02*
D03*
X301094D02*
D03*
X328394Y616694D02*
D03*
X318394D02*
D03*
X389894Y444894D02*
D03*
X379894D02*
D03*
X369894D02*
D03*
X359894D02*
D03*
X47794Y784894D02*
D03*
X37794D02*
D03*
X363194Y661294D02*
D03*
X373194D02*
D03*
X383194D02*
D03*
X322144D02*
D03*
X332144D02*
D03*
X342144D02*
D03*
X383194Y685294D02*
D03*
X373194D02*
D03*
X363194D02*
D03*
X342144D02*
D03*
X332144D02*
D03*
X322144D02*
D03*
X301094D02*
D03*
X291094D02*
D03*
X281094D02*
D03*
X391194Y616694D02*
D03*
X381194D02*
D03*
X359894D02*
D03*
X349894D02*
D03*
X296694D02*
D03*
X286694D02*
D03*
X330394Y444894D02*
D03*
X320394D02*
D03*
X310394D02*
D03*
X300394D02*
D03*
X271394D02*
D03*
X261394D02*
D03*
X251394D02*
D03*
X241394D02*
D03*
X220394D02*
D03*
X210394D02*
D03*
X200394D02*
D03*
X190394D02*
D03*
X160894D02*
D03*
X150894D02*
D03*
X140894D02*
D03*
X130894D02*
D03*
X100894D02*
D03*
X90894D02*
D03*
X80894D02*
D03*
X70894D02*
D03*
G54D344*
X215494Y175994D02*
D03*
X229194Y355694D02*
D03*
X339870Y171280D02*
D03*
X95694Y195694D02*
D03*
Y233187D02*
D03*
X215494Y580994D02*
D03*
X229194Y760694D02*
D03*
X339870Y576280D02*
D03*
X95694Y600694D02*
D03*
Y638187D02*
D03*
G54D345*
X215494Y165994D02*
D03*
X205494Y175994D02*
D03*
Y165994D02*
D03*
X195494Y175994D02*
D03*
Y165994D02*
D03*
X185494Y175994D02*
D03*
Y165994D02*
D03*
X175494Y175994D02*
D03*
Y165994D02*
D03*
X165494Y175994D02*
D03*
Y165994D02*
D03*
X155494Y175994D02*
D03*
Y165994D02*
D03*
X145494Y175994D02*
D03*
Y165994D02*
D03*
X135494Y175994D02*
D03*
Y165994D02*
D03*
X125494Y175994D02*
D03*
Y165994D02*
D03*
X115494Y175994D02*
D03*
Y165994D02*
D03*
X105494Y175994D02*
D03*
Y165994D02*
D03*
X199194Y345694D02*
D03*
Y355694D02*
D03*
X209194Y345694D02*
D03*
Y355694D02*
D03*
X219194Y345694D02*
D03*
Y355694D02*
D03*
X229194Y345694D02*
D03*
X379870Y181280D02*
D03*
Y171280D02*
D03*
X369870Y181280D02*
D03*
Y171280D02*
D03*
X359870Y181280D02*
D03*
Y171280D02*
D03*
X349870Y181280D02*
D03*
Y171280D02*
D03*
X339870Y181280D02*
D03*
X135694Y205694D02*
D03*
Y195694D02*
D03*
X125694Y205694D02*
D03*
Y195694D02*
D03*
X115694Y205694D02*
D03*
Y195694D02*
D03*
X105694Y205694D02*
D03*
Y195694D02*
D03*
X95694Y205694D02*
D03*
X135694Y243187D02*
D03*
Y233187D02*
D03*
X125694Y243187D02*
D03*
Y233187D02*
D03*
X115694Y243187D02*
D03*
Y233187D02*
D03*
X105694Y243187D02*
D03*
Y233187D02*
D03*
X95694Y243187D02*
D03*
X215494Y570994D02*
D03*
X205494Y580994D02*
D03*
Y570994D02*
D03*
X195494Y580994D02*
D03*
Y570994D02*
D03*
X185494Y580994D02*
D03*
Y570994D02*
D03*
X175494Y580994D02*
D03*
Y570994D02*
D03*
X165494Y580994D02*
D03*
Y570994D02*
D03*
X155494Y580994D02*
D03*
Y570994D02*
D03*
X145494Y580994D02*
D03*
Y570994D02*
D03*
X135494Y580994D02*
D03*
Y570994D02*
D03*
X125494Y580994D02*
D03*
Y570994D02*
D03*
X115494Y580994D02*
D03*
Y570994D02*
D03*
X105494Y580994D02*
D03*
Y570994D02*
D03*
X199194Y750694D02*
D03*
Y760694D02*
D03*
X209194Y750694D02*
D03*
Y760694D02*
D03*
X219194Y750694D02*
D03*
Y760694D02*
D03*
X229194Y750694D02*
D03*
X379870Y586280D02*
D03*
Y576280D02*
D03*
X369870Y586280D02*
D03*
Y576280D02*
D03*
X359870Y586280D02*
D03*
Y576280D02*
D03*
X349870Y586280D02*
D03*
Y576280D02*
D03*
X339870Y586280D02*
D03*
X135694Y610694D02*
D03*
Y600694D02*
D03*
X125694Y610694D02*
D03*
Y600694D02*
D03*
X115694Y610694D02*
D03*
Y600694D02*
D03*
X105694Y610694D02*
D03*
Y600694D02*
D03*
X95694Y610694D02*
D03*
X135694Y648187D02*
D03*
Y638187D02*
D03*
X125694Y648187D02*
D03*
Y638187D02*
D03*
X115694Y648187D02*
D03*
Y638187D02*
D03*
X105694Y648187D02*
D03*
Y638187D02*
D03*
X95694Y648187D02*
D03*
G54D346*
X417194Y100894D02*
D03*
Y90894D02*
D03*
Y80894D02*
D03*
Y70894D02*
D03*
Y505894D02*
D03*
Y495894D02*
D03*
Y485894D02*
D03*
Y475894D02*
D03*
G54D347*
X205970Y107658D02*
D03*
Y111988D02*
D03*
X210301Y103327D02*
D03*
Y107658D02*
D03*
Y111988D02*
D03*
X214632Y103327D02*
D03*
Y107658D02*
D03*
Y111988D02*
D03*
X218962Y103327D02*
D03*
Y107658D02*
D03*
Y111988D02*
D03*
X205970Y103327D02*
D03*
X360294Y403081D02*
D03*
X355963D02*
D03*
X360294Y407412D02*
D03*
X355963D02*
D03*
X360294Y411742D02*
D03*
X355963D02*
D03*
X61482Y107658D02*
D03*
Y111988D02*
D03*
X65813Y103327D02*
D03*
Y107658D02*
D03*
Y111988D02*
D03*
X70143Y103327D02*
D03*
Y107658D02*
D03*
Y111988D02*
D03*
X74474Y103327D02*
D03*
Y107658D02*
D03*
Y111988D02*
D03*
X61482Y103327D02*
D03*
X278214D02*
D03*
X291206Y111988D02*
D03*
Y107658D02*
D03*
Y103327D02*
D03*
X286876Y111988D02*
D03*
Y107658D02*
D03*
Y103327D02*
D03*
X282545Y111988D02*
D03*
Y107658D02*
D03*
Y103327D02*
D03*
X278214Y111988D02*
D03*
Y107658D02*
D03*
X350458D02*
D03*
Y111988D02*
D03*
X354789Y103327D02*
D03*
Y107658D02*
D03*
Y111988D02*
D03*
X359120Y103327D02*
D03*
Y107658D02*
D03*
Y111988D02*
D03*
X363450Y103327D02*
D03*
Y107658D02*
D03*
Y111988D02*
D03*
X350458Y103327D02*
D03*
X133726D02*
D03*
X146718Y111988D02*
D03*
Y107658D02*
D03*
Y103327D02*
D03*
X142387Y111988D02*
D03*
Y107658D02*
D03*
Y103327D02*
D03*
X138057Y111988D02*
D03*
Y107658D02*
D03*
Y103327D02*
D03*
X133726Y111988D02*
D03*
Y107658D02*
D03*
X205970Y512658D02*
D03*
Y516988D02*
D03*
X210301Y508327D02*
D03*
Y512658D02*
D03*
Y516988D02*
D03*
X214632Y508327D02*
D03*
Y512658D02*
D03*
Y516988D02*
D03*
X218962Y508327D02*
D03*
Y512658D02*
D03*
Y516988D02*
D03*
X205970Y508327D02*
D03*
X360294Y808081D02*
D03*
X355963D02*
D03*
X360294Y812412D02*
D03*
X355963D02*
D03*
X360294Y816743D02*
D03*
X355963D02*
D03*
X61482Y512658D02*
D03*
Y516988D02*
D03*
X65813Y508327D02*
D03*
Y512658D02*
D03*
Y516988D02*
D03*
X70143Y508327D02*
D03*
Y512658D02*
D03*
Y516988D02*
D03*
X74474Y508327D02*
D03*
Y512658D02*
D03*
Y516988D02*
D03*
X61482Y508327D02*
D03*
X278214D02*
D03*
X291206Y516988D02*
D03*
Y512658D02*
D03*
Y508327D02*
D03*
X286876Y516988D02*
D03*
Y512658D02*
D03*
Y508327D02*
D03*
X282545Y516988D02*
D03*
Y512658D02*
D03*
Y508327D02*
D03*
X278214Y516988D02*
D03*
Y512658D02*
D03*
X350458D02*
D03*
Y516988D02*
D03*
X354789Y508327D02*
D03*
Y512658D02*
D03*
Y516988D02*
D03*
X359120Y508327D02*
D03*
Y512658D02*
D03*
Y516988D02*
D03*
X363450Y508327D02*
D03*
Y512658D02*
D03*
Y516988D02*
D03*
X350458Y508327D02*
D03*
X133726D02*
D03*
X146718Y516988D02*
D03*
Y512658D02*
D03*
Y508327D02*
D03*
X142387Y516988D02*
D03*
Y512658D02*
D03*
Y508327D02*
D03*
X138057Y516988D02*
D03*
Y512658D02*
D03*
Y508327D02*
D03*
X133726Y516988D02*
D03*
Y512658D02*
D03*
M02*
