G04 Layer_Color=128*
%FSLAX25Y25*%
%MOIN*%
G70*
G01*
G75*
G04:AMPARAMS|DCode=11|XSize=78.74mil|YSize=78.74mil|CornerRadius=39.37mil|HoleSize=0mil|Usage=FLASHONLY|Rotation=90.000|XOffset=0mil|YOffset=0mil|HoleType=Round|Shape=RoundedRectangle|*
%AMROUNDEDRECTD11*
21,1,0.07874,0.00000,0,0,90.0*
21,1,0.00000,0.07874,0,0,90.0*
1,1,0.07874,0.00000,0.00000*
1,1,0.07874,0.00000,0.00000*
1,1,0.07874,0.00000,0.00000*
1,1,0.07874,0.00000,0.00000*
%
%ADD11ROUNDEDRECTD11*%
%ADD133C,0.05000*%
G54D11*
X37894Y12894D02*
D03*
X423780Y13189D02*
D03*
Y847974D02*
D03*
X37894D02*
D03*
G54D133*
X49843Y411457D02*
D03*
Y419331D02*
D03*
X44331Y424843D02*
D03*
X36457D02*
D03*
X30945Y419331D02*
D03*
Y411457D02*
D03*
X36457Y405945D02*
D03*
X44331D02*
D03*
X429843Y411457D02*
D03*
Y419331D02*
D03*
X424331Y424843D02*
D03*
X416457D02*
D03*
X410945Y419331D02*
D03*
Y411457D02*
D03*
X416457Y405945D02*
D03*
X424331D02*
D03*
X49843Y36457D02*
D03*
Y44331D02*
D03*
X44331Y49843D02*
D03*
X36457D02*
D03*
X30945Y44331D02*
D03*
Y36457D02*
D03*
X36457Y30945D02*
D03*
X44331D02*
D03*
X429843Y36457D02*
D03*
Y44331D02*
D03*
X424331Y49843D02*
D03*
X416457D02*
D03*
X410945Y44331D02*
D03*
Y36457D02*
D03*
X416457Y30945D02*
D03*
X424331D02*
D03*
X49843Y816457D02*
D03*
Y824331D02*
D03*
X44331Y829842D02*
D03*
X36457D02*
D03*
X30945Y824331D02*
D03*
Y816457D02*
D03*
X36457Y810945D02*
D03*
X44331D02*
D03*
X429843Y816457D02*
D03*
Y824331D02*
D03*
X424331Y829842D02*
D03*
X416457D02*
D03*
X410945Y824331D02*
D03*
Y816457D02*
D03*
X416457Y810945D02*
D03*
X424331D02*
D03*
X49843Y441457D02*
D03*
Y449331D02*
D03*
X44331Y454843D02*
D03*
X36457D02*
D03*
X30945Y449331D02*
D03*
Y441457D02*
D03*
X36457Y435945D02*
D03*
X44331D02*
D03*
X429843Y441457D02*
D03*
Y449331D02*
D03*
X424331Y454843D02*
D03*
X416457D02*
D03*
X410945Y449331D02*
D03*
Y441457D02*
D03*
X416457Y435945D02*
D03*
X424331D02*
D03*
M02*
