M48
;Layer_Color=9474304
;FILE_FORMAT=2:5
INCH,TZ
;TYPE=PLATED
T1F00S00C0.01500
T2F00S00C0.03543
T3F00S00C0.03800
T4F00S00C0.04000
T5F00S00C0.05500
T6F00S00C0.05900
T7F00S00C0.06300
T8F00S00C0.08700
;TYPE=NON_PLATED
T9F00S00C0.11811
T10F00S00C0.12992
%
T01
X33394Y33394
X30394Y40394
X33394Y47394
X34252Y55062
X40394Y50394
X47394Y47394
X52594Y50794
X52394Y54194
X59794Y54394
Y50894
X63294
X55094Y48294
X58994Y40194
X50394Y40394
X47394Y33394
X40394Y30394
X75771Y31170
X76294Y47494
Y50694
Y53894
X85960Y47999
X85594Y60694
X95594
X108894Y57494
Y54294
Y51094
X114294Y43294
X117594
X122594Y47494
Y50794
X135794Y51194
Y54394
Y47994
X135862Y31109
X155889Y31241
X155894Y47494
Y50794
X162494Y62994
X172894Y55294
X176194
X182094Y50894
Y47594
X195294Y51994
Y55294
X205394Y61194
X215394Y60594
X195544Y31554
X176358Y35324
X145894Y61394
X95949Y31085
X228394Y43878
X231894Y54094
X235194
X245017Y53996
X255829Y54050
X266882Y53701
X278064Y54037
X285794Y54194
X289094
X294513Y47051
X286307Y41048
X305664Y31120
X325321Y31469
X315504Y46749
X315394Y61094
X325394Y61394
X338894Y51294
X335590Y47579
X343494Y43394
X346794
X354894Y47494
Y50794
X364894Y60294
X374894Y60894
X375222Y47300
X365151Y31378
X305394Y51794
Y55094
X266238Y31496
X384923Y31749
X396185Y32475
X395883Y47596
X394894Y60994
X384894Y60894
X410994Y61594
X424872Y63430
X420394Y50394
X427394Y47394
X430394Y40394
X427394Y33394
X420394Y30394
X413394Y33394
X410394Y40394
X413394Y47394
X410094Y68394
X408094Y70894
X410194Y73394
X410094Y78394
X408094Y80894
X410194Y83394
X410094Y88394
X408094Y90894
X410194Y93394
X410094Y98394
X408094Y100894
X410194Y103394
X409615Y112441
X408694Y120694
Y124394
Y127994
Y131494
X405794Y133994
X402294
X392594Y133494
X389694Y136594
X392594Y139732
X389694Y142794
X378194Y142832
X381094Y139732
X378194Y136594
X381094Y133494
Y123232
X378194Y120132
X381094Y117032
X378194Y113894
X389694
X392594Y117032
X389694Y120094
X392594Y123232
X402294Y118394
X405694
X398073Y106403
X389494Y96294
X391694Y94094
X394894Y77794
Y74494
Y64294
X384894Y64194
Y73694
Y76994
X385194Y80994
X381894
X376094Y98594
X424194Y98394
X426294Y100894
X424294Y103394
Y93394
X426294Y90894
X424194Y88394
X424294Y83394
X426294Y80894
X424194Y78394
X424294Y73394
X426294Y70894
X424194Y68394
X423094Y120994
Y124394
Y127894
Y131394
X425894Y133994
X429594
X424774Y138746
X421574
X425874Y141846
Y145146
X424974Y148446
Y151646
Y154846
Y158046
X422374Y159946
X421994Y164494
X418794Y167294
X415394Y164494
X415674Y159946
X412874Y158146
Y154846
Y151546
X412574Y148346
X409374
X408174Y145346
X407455Y155373
X398884Y155589
X405394Y167194
X408694Y164494
X412058Y167250
X403294Y171294
X403494Y175594
X403794Y180794
X405394Y186050
X408694Y183350
X412058Y185994
X415394Y183350
X418794Y186050
X421994Y183294
X425494Y186050
X422788Y197672
X425133Y205664
X429994Y210594
X420403Y211536
X417421Y219193
X413535Y217955
X405894Y219394
X407432Y212036
X407046Y197355
X390563Y196924
X378982Y193154
X378858Y189456
X398859Y184354
X425458Y167250
X425394Y219094
X429494Y118394
X371985Y115482
X367194Y115494
X367982Y121294
Y126294
X363260Y126735
X359143Y125624
Y121294
Y116963
X354812
Y121294
Y125624
X350482
Y121294
Y116963
X346151
Y121294
Y125624
X341820
Y121294
Y116963
X342651Y103394
Y100694
X338294
X335694Y98994
X332894Y97594
X327494Y93394
Y90094
X329094Y84094
X332094
X337994Y89579
Y92980
X348694Y101394
Y103994
X352294
X352394Y101394
X358851Y100494
Y103294
X363951Y98894
X366994Y97894
X370151
X370394Y93194
Y89894
X370349Y80205
X373649
X370494Y73294
X366365Y74094
X363099
X359832
X356565
X356783Y78696
X348533Y79050
X348399Y74094
X351665
X345132
X342094
X347394Y65094
X350694
X352917Y87055
X372194Y101594
Y104694
X367094Y141130
X360294Y138294
X351766Y145288
X356879Y151479
X356841Y155434
X356874Y162943
X341387Y163476
X342496Y171994
X342494Y175794
X343326Y180288
X345852Y177786
X354130Y185417
X363194Y185294
X366525Y192447
X360704Y196576
X350569Y191707
X342704Y193545
X334783Y194680
X331097Y194687
X323774Y194951
X315894Y195788
X312094Y195877
X306994Y193294
X304697Y187618
X304694Y183794
X306594Y172539
X318110Y170768
X317194Y175994
X325451Y171941
X324902Y168307
X321253Y167376
X327494Y164494
X328894Y170494
X323705Y182364
X323671Y186201
X329067Y200375
X310640Y203633
X307678Y211336
X301278Y201323
X300204Y196283
X295994Y197694
X292194
X288359Y199033
X288194Y195294
X288094Y185294
X285955Y166344
X282579Y166929
X271850
X272157Y163363
X263029Y158508
X259194Y158594
X258694Y146494
Y142994
X261694Y141494
X266494
X269494Y142894
Y146394
X266494Y147894
X261694
X248294Y142694
X251194Y139632
X248294Y136494
X251194Y133394
Y123132
X248294Y119994
X251194Y116932
X248294Y113794
X247494Y104594
X251394Y103394
X251465Y100194
X251394Y95994
X248094
X243894Y95394
X240794
X237494Y104594
X232894Y102394
X229594
X228494Y97494
X225194
X222206Y98894
X225094Y93194
Y89794
X223294Y84094
X223194Y80994
X227994
Y84194
X230794Y85994
X243694Y79094
Y75794
X232994Y65394
X221106Y74294
X260094Y80994
Y84194
X257294Y85994
X264894Y84094
Y80994
X267065Y74294
X270332
X273599
X276865
X281865
X285232
X288599
X291965
X293994Y80994
Y84094
X295894Y89794
Y93194
X296194Y96894
X299594
X300194Y100594
Y103094
X303994Y96894
X307999Y97132
X314294Y101894
X322794Y101994
Y98694
X315894Y91794
Y88494
X312694Y78894
Y75594
X315394Y64394
X325394Y64694
X374894Y64194
X370652Y148179
X370694Y151594
X373228Y160138
X375420Y162783
X375941Y179500
X338607Y213588
X282194Y217994
X283738Y202062
X260394Y203894
X256155Y194152
X255100Y182637
X258933Y182623
X257618Y175905
X260471Y173959
X249949Y169694
X248725Y185358
X245012Y187012
X245019Y190010
X238556Y191426
X238583Y186701
X232684Y187732
X232633Y184224
X240894Y178749
Y160639
X230794Y159694
X224394Y158694
X225394Y141312
X229011Y137954
X232894Y137894
X236794Y136494
X239694Y133394
Y139632
X236794Y142732
X232894Y130394
Y122894
X236794Y120032
X239694Y123132
Y116932
X236794Y113794
X231094Y114594
X226191Y115294
Y118394
X225794Y122694
X226236Y126294
X221568Y126835
X219788Y143464
X231839Y169694
X231694Y206594
Y210094
X235894Y209994
X239681Y209173
X239694Y205494
X245794
X244794Y210594
X244816Y213997
X248507Y214010
X280880Y146269
X290894Y151794
X290919Y155430
X289394Y138294
X296194Y141375
X307394Y142832
X310294Y139732
X307394Y136594
X310294Y133494
Y123232
X307394Y120132
X310294Y117032
X307394Y113894
X318894
X321794Y117032
X318894Y120094
X321794Y123232
X326594Y125694
X333008Y127194
Y124094
X334394Y140394
X337394Y141794
Y145294
X334394Y146794
X329594
X326594Y145394
Y141894
X329594Y140394
X321794Y139732
X318894Y142794
Y136594
X321794Y133494
X317494Y160894
X297096Y126294
X296994Y122794
X297051Y118394
Y115294
X288257Y116963
X283926
X279596
X275265
X270934
Y121294
Y125624
X275265
Y121294
X279596
Y125624
X283926
Y121294
X288257
Y125624
X292388Y126735
X287965Y103294
Y100494
X293494Y98594
X281408Y101394
Y103994
X277808
Y101394
X271765Y100694
Y103394
X267094Y100494
X264394Y98994
X261694Y97194
X263194Y93194
Y89794
X279847Y86787
X283240Y80959
X276084Y80885
X262122Y124094
Y127194
X217397Y125624
Y121294
Y116963
X213066
Y121294
Y125624
X208736
Y121294
Y116963
X204405
Y121294
Y125624
X200074
Y121294
Y116963
X200906Y103394
Y100694
X196094Y100294
X193794Y97994
X190694Y97194
X192394Y93194
Y89794
X193994Y84094
Y80994
X189294
Y84194
X186494Y85994
X180394Y93994
X180213Y98594
Y101894
X175294Y100794
X168694Y100694
Y97594
X168094Y104194
Y110194
X168594Y113894
Y117032
X165694Y120132
X168594Y123232
Y133494
X165694Y136594
X168594Y139732
X165694Y142832
X157604Y138333
X147594Y138294
X149875Y144612
X143900Y147726
X130394Y144094
X128194Y141894
X125494Y142994
Y139194
X122594Y145694
X117994Y143594
X114994Y142194
Y138694
X117994Y137194
X115837Y131247
X120294Y127194
Y124094
X129162Y125624
X133493
X137824
X142155
X146485
Y121294
Y116963
X142155
Y121294
X137824
Y116963
X133493
Y121294
X129162
Y116963
X129994Y103394
Y100694
X125894Y102894
X124294Y99794
X121194Y98194
X121494Y92694
Y89294
X122894Y83894
X122994Y80494
X117694Y82794
X115594Y85294
X112294
X109694Y95694
X109394Y99294
Y102294
X108894Y109394
X106694Y116294
X109594Y119432
X106694Y122494
X109594Y125632
Y135894
X106694Y138994
X109594Y142132
X106694Y145194
X104083Y152105
X118522Y153276
X132125Y153439
X138747Y171053
X120287Y170843
X120942Y187684
X110793Y195356
X107345Y195285
X101277Y194222
X96300Y195055
X97720Y191664
X99139Y187981
X102708Y188468
X80332Y184009
X74313Y199582
X69685Y206791
X69551Y214034
X76083Y215846
X82906Y215894
X89862Y215945
X96348Y216836
X129715Y219777
X153098Y219196
X156132Y217603
X158968Y217625
X178294Y214894
X181883Y214899
X185563Y214887
X182981Y209887
X179294Y209894
X189694Y209194
Y205494
X198095Y205480
X198092Y209146
X202059Y214365
X207757Y215504
X211011Y219517
X214128Y192469
X214094Y188894
X208394Y184594
X187343Y193107
X181413Y193051
X181487Y190227
X164694Y197194
X154980Y192780
X152180Y192803
X149920Y186805
X154782Y185987
X144033Y186699
X146349Y189375
X150645Y126735
X155324Y126294
X155194Y122494
X155280Y118394
Y115294
X161237Y115349
X177194Y113894
X180094Y117032
X177194Y120094
X180094Y123232
X185492Y123394
X191282Y124194
Y127294
X185394Y130394
X180094Y133494
X180067Y137667
X177308Y135436
X177246Y141387
X181610Y144060
X185394Y143494
Y139994
X188394Y138494
X193194
X196194Y139894
Y143394
X193194Y144894
X188394
X197976Y152490
X210258Y145912
X217294Y148494
X218594Y138294
X217106Y103294
Y100494
X210548Y101394
Y103994
X206948
Y101394
X208818Y87012
X212883Y79545
X214372Y74294
X211006
X206006
X202739
X199472
X196206
X204478Y79584
X205394Y64494
X186285Y65535
X172894Y87094
X174294Y90694
Y93994
X154094Y93894
Y90494
X153194Y86594
Y83094
X160594Y83694
X158094Y86194
X153994Y97894
X151194Y99694
X150294Y102894
X146194Y103294
Y100494
X139636Y101394
Y103994
X136036
Y101394
X137813Y87767
X133820Y80446
X135094Y74294
X131827
X128560
X125294
X140094
X143460
X146827
X150194
X143051Y80100
X145894Y64694
X95594Y63894
X85594
X90494Y73194
Y76494
Y79794
Y83294
X93694Y84894
X96994
X83808Y86994
X81394Y89408
X81194Y96394
X83794Y94394
X84394Y99394
X85394Y102794
X91184Y103994
X101694Y106494
X104594Y97094
Y93794
X78794Y98694
X73508Y100494
Y103294
X66950Y103994
Y101394
X65086Y86959
X69230Y81375
X67594Y74294
X70960
X74327
X77694
X79908Y82594
X82308Y80194
X82594Y115294
Y118394
X87394Y118564
X91194Y117794
X95194Y116294
X98094Y119432
X95194Y122532
X89894Y122894
X98094Y125632
Y135894
X95194Y138994
X98094Y142132
X95194Y145232
X81794Y141343
X77994Y141794
X71536Y141836
X68859Y148783
X64186Y164226
X84863Y162950
X91686Y162583
X77894Y126694
X73799Y125624
X69469
X65138
Y121294
Y116963
X69469
Y121294
X73799
Y116963
X217739Y74294
X62408
X59141
X55875
X52608
X46694Y78794
X48994Y81219
X41894Y80794
X38594
X43994Y85994
X47094Y87580
X48194Y101594
X51094Y99394
X53194Y102394
X57308Y103394
Y100694
X63350Y101394
Y103994
X60807Y116963
X56477
Y121294
Y125624
X60807
Y121294
X47594Y123694
Y126794
X38581Y126224
X37181Y129224
X33681
X32181Y126224
Y121424
X33581Y118424
X37081
X38581Y121424
X38438Y135904
Y154014
X37575Y164035
X30206Y166294
Y170594
X36766Y182772
X47306Y191694
X47506Y196094
X57504Y198212
X57869Y182772
X58874Y151985
X49647Y155731
X47493Y144959
X29382
X36094Y105394
X35194Y101894
Y98694
X35594Y95394
X32394
X60919Y81199
X59206Y215894
X63406Y215694
X53106Y214494
X46616Y215791
X36052Y218864
X30206Y204594
Y200194
X30413Y222835
X30494Y226294
X41055Y226613
X35746Y232220
X35860Y240645
X35715Y249824
X35643Y259220
Y268255
X35728Y277027
X35663Y285599
X30194Y291594
X36187Y299026
X43393Y303222
X43433Y309305
X43287Y315495
X53162Y318071
X53907Y312378
X53355Y298380
X47961Y300633
X50552Y293397
X58866Y293462
X60441Y300035
X44294Y290394
X34471Y320576
X29894Y339294
X30594Y354294
Y358594
X35800Y362476
X57294Y361420
X54119Y373217
X58144Y375544
X62294Y344949
X48410Y343743
X53239Y335894
X62294Y326839
X60284Y232075
X68254Y231882
X70573Y225108
X75728Y225098
X79333Y225108
X83169Y225098
X87106Y225197
X92228Y225896
X95694Y221794
X96085Y231621
X100125Y231403
X107681Y231480
X110775Y233248
X108194Y224794
X122672Y229841
X126041Y230631
X138926Y230766
X139076Y222738
X133994Y222894
X154877Y225455
X157917Y225461
X155721Y230329
X153765Y233405
X155794Y235350
X151107Y237971
X153315Y240188
X153194Y243794
X152566Y252390
X152467Y260226
X156530Y260477
X160064Y260470
X159394Y266994
X158294Y270894
Y274694
X148741Y273996
X136951Y273779
X136694Y268894
X137917Y263795
X141603Y263587
X132983Y263191
X130606Y250633
X123294Y257194
X119313Y257574
X115808Y257859
X103757Y265096
X103619Y273026
X93394Y276994
X93294Y256194
X85508Y250659
X85009Y245659
X91692Y243860
X78591Y241494
X74823Y236277
X79823Y230512
X65046Y225016
X67294Y281975
X66794Y285675
X66994Y289375
X66536Y295718
X72916Y301905
X77743Y306772
X84445Y313574
X90494Y311894
X90194Y308094
X86694Y301994
X86336Y326654
X86399Y330081
X87907Y333287
X93122Y331545
X96943Y331462
X107837Y332002
X101494Y342198
X100553Y345868
X102717Y351870
X109400Y347045
X114042Y350606
X116988Y350590
X119941
X122894
X125847
X129894Y350494
X122294Y355194
X117394Y355094
X118394Y363596
X122394
Y367596
Y371596
Y375596
X118394
Y371596
Y367596
X114394
Y363596
Y371596
Y375596
X108994Y369994
X105571Y364370
X90543Y363596
X86543
Y367596
X90543
Y371596
X86543
Y375596
X90543
X82543
X78543
X74543
Y371596
X78543
Y367596
X74543
Y363596
X78543
X82543
Y367596
Y371596
X82494Y355094
X77594
Y350594
X73594
X72603Y355134
X81594Y350594
X85594
X90043Y350358
X88300Y341193
X76148Y342577
X77187Y332827
X77042Y328883
X76990Y325042
X71349Y335894
X65562Y310314
X74594Y285675
X102092Y315571
X102050Y319744
X119494Y325294
X131784Y332448
X136793Y319493
X144073Y314202
X148125Y314180
X150831Y320379
X144121Y325384
X151838Y331899
X159210Y325607
X163926Y322479
X159139Y316631
X153959Y309954
X155267Y301679
X152967Y299880
Y296979
X155367Y295280
X161494Y295294
X163794Y297094
Y299994
X161394Y301694
X170773Y296933
X174322Y296949
X170671Y289921
X176798Y284802
X178394Y270616
X178191Y260773
X181891Y260707
X185575Y260711
X183645Y265523
X187285Y268770
X187296Y272361
X197145Y272340
X197143Y275909
X197441Y267110
X203145Y270827
X208901Y272351
X208865Y268887
X208992Y275785
X216833Y272334
X216834Y268776
X216862Y265291
X218775Y258212
X211052Y256015
X208876Y248067
X203203Y247832
X203139Y238149
X209024Y238372
X208911Y233028
X207782Y227161
X202070Y223668
X202165Y232043
X189357Y234161
X185586Y232433
X178913Y233087
X178731Y237147
X181867Y237160
X181879Y226803
X178211Y226808
X192349Y223825
X193180Y247890
X184648Y247701
X178527Y247683
X166374Y240017
X149999Y232048
X164294Y264194
X193249Y260721
X203145Y260133
X217514Y238372
X217683Y226236
X215080Y295060
X210017Y291930
X208947Y299988
X191300Y300754
Y297216
X191094Y293094
X183194Y301794
X183558Y307943
X188691Y312240
X193124Y309593
X195494Y306794
X194608Y317053
X201294Y317194
X206319Y317219
X211256Y317219
X216272Y317189
X213779Y326476
X198398Y325821
X198418Y322341
X198378Y329419
X194018Y325530
X175925Y325741
X175292Y310684
X171032Y307774
X148068Y304716
X143958Y304675
X143979Y301220
X148475Y290016
X149392Y346990
X154291Y350689
X157244
X160197
X163150
X166102
X169994Y350566
X162594Y354994
X157294Y355094
X158494Y363596
Y367596
Y371596
Y375596
X154494
Y371596
Y367596
Y363596
X162494
X166494
X170494
Y367596
X166494
Y371596
X170494
Y375596
X166494
X162494
Y371596
Y367596
X149094Y369994
X145925Y364469
X142874Y351969
X130394Y363596
Y367596
Y371596
Y375596
X126394
Y371596
Y367596
Y363596
X165442Y337061
X186257Y340247
X189825Y340224
X189811Y343667
X189795Y347377
X189613Y354394
X185813Y354494
X189513Y367394
X199257Y369657
X204813Y368795
X218572Y373434
X231194Y375394
X240394
X240043Y367596
Y363596
Y359596
Y355596
X244043
X248043
Y359596
Y363596
Y367596
X244043
Y363596
Y359596
X252043
Y363596
Y367596
X256043
Y363596
Y359596
Y355596
X252043
X260394Y355394
X265294Y353594
X266094Y349994
X263194
Y345869
Y341744
Y337619
Y333494
X266094Y333394
X273294Y334294
Y337519
Y341644
Y345769
Y349894
X270394Y355394
Y365394
Y375394
X279994Y375494
X283294Y373694
Y368294
X280394Y365394
X286094Y359594
X289194Y351594
X285394Y346094
Y341294
Y337094
X288294Y332294
X284694Y329694
X280194Y329794
X282394Y331994
X292871Y330249
X298094Y329794
X297994Y324294
X289894Y321994
Y318894
X287094Y320394
X287123Y317313
X287694Y313794
X286989Y307975
X299494Y307594
Y303594
Y298794
X310694Y299494
Y303694
X311394Y313994
X311294Y322494
X315594Y319394
X316694Y310094
X316994Y296894
X331694Y301994
X336894Y297994
X343494Y303894
X350294Y298094
X357494Y302494
X358994Y310694
X359294Y319994
X364894Y317694
X368894Y319794
X373694Y319894
X371315Y324205
X362305Y337272
X368494Y345294
X370794Y353994
X375594Y350294
X360695Y353028
X353149Y354319
X343294Y356294
X337410Y354706
X327276Y353949
X329594Y363794
X330094Y374094
X325549Y371160
X337094Y374594
X344194Y374294
X350194
X356294Y374094
X370594Y373694
X339743Y337295
X326055Y339741
X326394Y323494
X328694Y314394
X336894Y319794
X343694Y318394
X344335Y324236
X302888Y337855
X300969Y365366
X278994Y353694
X258136Y349276
X248094Y346994
X242894
X243374Y342494
X246414
X249454
X252494
X240334
X237294
Y345394
Y348294
X235394Y355394
X235294Y360594
X235394Y365394
X230094Y361994
X225138Y362056
X227951Y334053
X227917Y328570
X227894Y325094
X224179Y329133
X221298Y317268
X227932Y311229
X234888Y315249
X238668Y315269
X241037Y305749
X245522Y303796
X255594Y305394
Y300494
X262019Y296864
X265957Y293419
X268504Y290846
X271358Y287894
X273228Y293504
X275295Y297933
X270768Y301279
Y305610
X266437
Y301279
X267433Y314778
X264382Y316845
X262402Y323327
X271594Y327194
X274894Y321994
Y318894
X277794Y320494
Y323594
X287123Y323513
X272367Y314533
X253147Y311101
X250651Y316394
X236760Y325489
X235892Y295100
X231894Y295094
X231850Y298371
X227894Y294594
Y291494
X224094Y292294
X240551Y290452
X241268Y275444
X241294Y271894
X234420Y272336
X234327Y268801
X234319Y265287
X241585Y263720
X245894Y260894
X245887Y267774
X242007Y252261
X234176Y255031
X237426Y245158
X241139Y241168
X241113Y235232
X244783Y235215
X248512Y235222
X248500Y227301
X244806Y227289
X241102Y227127
X237426Y226599
X237416Y235223
X231752Y241132
X225516Y245743
X224307Y232716
X244814Y220493
X248506Y220471
X263601Y221158
X261608Y223165
X263050Y233225
X264688Y239381
X266694Y244594
X267294Y250194
X265084Y254668
X261532Y254679
X261523Y261546
X265111Y261527
X267598Y259027
X258050Y278243
X228809Y275861
X228806Y272358
X223680Y272347
X223668Y268824
X223688Y265330
X292582Y268397
X292635Y241438
X288352Y241488
X290193Y233045
X291848Y229168
X282184Y227484
X304834Y227374
X304904Y231154
X304403Y239194
X304365Y247445
X320611Y238228
X320713Y233424
X323701Y227364
X311039Y227352
X333001Y233054
X333416Y238774
X340290Y232890
X348266Y235282
X358348Y232883
X356336Y242288
X352569Y251315
X342452Y244058
X371543Y238516
X370769Y232728
X356137Y268086
X311783Y280005
X260394Y365394
Y375394
X250394
X377494Y373894
X384394Y373794
X390894Y372094
X398494Y371694
X402394Y369694
X405094Y371994
X413094Y363694
X412694Y360194
X416294Y360894
X414394Y356994
X410694Y357394
X406194Y356694
X402494Y357794
X399094Y356994
X396694Y351294
X402494Y351394
X407494Y351494
X413394Y348194
Y343794
Y338994
X407394Y336294
X402694Y336194
X396994
X397394Y330294
X402394
X406480Y330352
X410194Y330194
X412809Y327215
X413094Y323694
X411913Y317861
X407694Y316994
X402394Y317194
X397794Y316994
X394094Y317394
X388894Y318094
X385394Y319894
X380694
X377294Y317194
X377094Y303594
X395776Y311514
X399677Y311483
X403392Y311514
X407572Y311545
X411690Y311576
X412084Y307805
X415305Y305895
X415251Y310152
X417694Y286594
X412594Y286494
X412894Y280194
X417594Y279894
X420694Y274694
X424294Y270794
X420108Y264120
X413694Y263594
X413194Y268294
X409994Y270994
X404394Y271094
X407394Y274594
X402494Y277494
X398994Y273994
X394294Y274094
X394394Y277994
X383188Y268319
X395347Y256811
X403294Y256194
X409094Y256294
X412794Y258894
X408214Y249175
X406394Y242894
X407087Y237992
X414370Y237894
X414894Y242894
X421594Y242994
X425394
Y238094
X421457Y237992
X416831Y228445
X397808Y227532
Y240643
X381704Y239385
X379204Y227489
X388994Y323694
X384056Y330839
X384772Y345596
X377292Y353961
X377294Y357994
X377292Y363245
X390994Y363594
X391194Y356594
X418021Y343531
X425542Y373075
X429394Y380094
Y384094
Y389994
X414145Y389960
X414241Y386156
X418945Y384060
Y380060
X417052Y395457
X420394Y405394
X413394Y408394
X410394Y415394
X413394Y422394
X420394Y425394
X427394Y422394
X430394Y415394
X427394Y408394
Y438394
X430394Y445394
X427394Y452394
X420394Y455394
X413394Y452394
X410394Y445394
X413394Y438394
X420394Y435394
X396185Y437475
X384923Y436749
X385209Y421778
X382050Y421774
X388400Y421774
X392293Y421736
X394594Y413394
X395883Y452596
X394894Y465994
Y469294
X384894Y469194
Y465894
Y478694
Y481994
X385194Y485994
X381894
X394894Y482794
Y479494
X410194Y478394
X408094Y475894
X410094Y473394
X410994Y466594
X424872Y468430
X424194Y473394
X426294Y475894
X424294Y478394
X424194Y483394
X426294Y485894
X424294Y488394
X424194Y493394
X426294Y495894
X424294Y498394
X424194Y503394
X426294Y505894
X424294Y508394
X410194
X408094Y505894
X410094Y503394
X410194Y498394
X408094Y495894
X410094Y493394
X410194Y488394
X408094Y485894
X410094Y483394
X391694Y499094
X389494Y501294
X376094Y503594
X378194Y518894
X381094Y522032
X378194Y525132
X381094Y528232
X392594
X389694Y525094
X392594Y522032
X389694Y518894
X398073Y511403
X402294Y523394
X405694
X408694Y525694
Y529394
X409615Y517441
X423094Y525994
Y529394
X429494Y523394
X371985Y520482
X367194Y520494
X367982Y526294
Y531294
X363260Y531735
X359143Y530624
Y526294
Y521963
X354812
Y526294
Y530624
X350482
Y526294
Y521963
X346151
Y526294
Y530624
X341820
Y526294
Y521963
X342651Y508394
Y505694
X338294
X335694Y503994
X332894Y502594
X327494Y498394
Y495094
X329094Y489094
X332094
X337994Y494580
Y497979
X348694Y506394
Y508994
X352294
X352394Y506394
X358851Y505494
Y508294
X363951Y503894
X366994Y502894
X370151
X370394Y498194
Y494894
X370349Y485205
X373649
X370494Y478294
X366365Y479094
X363099
X359832
X356565
X356783Y483696
X348533Y484050
X348399Y479094
X351665
X345132
X342094
X347394Y470094
X350694
X354894Y455794
Y452494
X346794Y448394
X343494
X335590Y452579
X338894Y456294
X325394Y466394
Y469694
X315394Y469394
Y466094
X315504Y451749
X305394Y456794
Y460094
X289094Y459194
X285794
X278064Y459037
X266882Y458701
X255829Y459051
X245017Y458996
X235194Y459094
X231894
X232994Y470394
X227994Y485994
Y489194
X230794Y490994
X223294Y489094
X223194Y485994
X221106Y479294
X225094Y494794
Y498194
X225194Y502494
X228494
X229594Y507394
X232894
X237494Y509594
X236794Y518794
X239694Y521932
X236794Y525032
X239694Y528132
X232894Y527894
X225794Y527694
X226236Y531294
X221568Y531835
X226191Y523394
Y520294
X231094Y519594
X248294Y518794
X251194Y521932
X248294Y524994
X251194Y528132
X262122Y529094
Y532194
X270934Y530624
Y526294
Y521963
X275265
Y526294
Y530624
X279596
Y526294
Y521963
X283926
Y526294
Y530624
X288257
Y526294
Y521963
X297051Y523394
Y520294
X296994Y527794
X297096Y531294
X292388Y531735
X310294Y528232
X307394Y525132
X310294Y522032
X307394Y518894
X318894
X321794Y522032
X318894Y525094
X321794Y528232
X326594Y530694
X333008Y532194
Y529094
X322794Y506994
Y503694
X314294Y506894
X307999Y502132
X303994Y501894
X299594
X296194
X295894Y498194
Y494794
X293994Y489094
Y485994
X291965Y479294
X288599
X285232
X281865
X276865
X273599
X270332
X267065
X264894Y485994
Y489094
X260094Y489194
Y485994
X257294Y490994
X263194Y494794
Y498194
X261694Y502194
X264394Y503994
X267094Y505494
X271765Y505694
Y508394
X277808Y508994
Y506394
X281408
Y508994
X287965Y508294
Y505494
X293494Y503594
X300194Y505594
Y508094
X315894Y496794
Y493494
X312694Y483894
Y480594
X283240Y485959
X276084Y485885
X279847Y491787
X251394Y500994
X248094
X243894Y500394
X240794
X251465Y505194
X251394Y508394
X247494Y509594
X243694Y484094
Y480794
X222206Y503894
X228394Y448878
X223780Y422056
X220194Y414594
X219994Y410494
X220094Y406594
X229594Y392194
X229194Y385594
X240394Y385394
X250194Y385594
X273794Y384894
X281602Y389137
X300261Y387520
X319933Y386902
X331794Y388594
X333194Y397794
X339725Y401036
X344588Y403899
Y407836
Y411773
X348525
X352462
Y407836
Y403899
X348525
Y407836
X348170Y396886
X349094Y394194
Y390794
Y387294
Y383994
X338494Y383094
X360175Y399588
X374594Y412894
X365151Y436378
X375222Y452300
X374894Y465894
Y469194
X364894Y465294
X352917Y492055
X372194Y506594
Y509694
X345817Y419636
X327490Y417520
X321694Y414094
X318194Y413994
Y418194
X318094Y422494
X308694Y422194
Y417994
Y414094
X300194Y414194
X296494
X293194
X293094Y417794
X293194Y421494
X296494
X299994Y422194
X298520Y407175
X284339Y407050
X275894Y421794
X264441Y422006
X266238Y436496
X286307Y446048
X294513Y452051
X305664Y436120
X325321Y436469
X243399Y422056
X264560Y397845
X206794Y406694
Y410494
Y414394
X203547Y422272
X183189Y422552
X180194Y414594
X179994Y410494
X180094Y406594
X180194Y395094
X167194Y395294
X166794Y406694
Y410494
Y414394
X163393Y422307
X143282Y421991
X140194Y414594
X139994Y410494
X140094Y406594
X140194Y395094
X150094Y394094
X149194Y387794
X149094Y379094
X144344Y381294
X127194Y395294
X126794Y406694
Y410494
Y414394
X123109Y422105
X102703Y421765
X100194Y414594
X99994Y410494
X100094Y406594
X100817Y396490
X110594Y394294
X109294Y387594
X108994Y379094
X104494Y381294
X73094Y381494
X66994Y382794
X70994Y394894
X86947Y396402
X86794Y406694
Y410494
Y414394
X83399Y422230
X75771Y436170
X76294Y452494
Y455694
Y458894
X85960Y452999
X85594Y465694
Y468894
X95594
Y465694
X108894Y462494
Y459294
Y456094
X114294Y448294
X117594
X122594Y452494
Y455794
X135794Y456194
Y459394
Y452994
X135862Y436109
X155889Y436241
X155894Y452494
Y455794
X162494Y467994
X172894Y460294
X176194
X182094Y455894
Y452594
X195294Y456994
Y460294
X205394Y466194
Y469494
X206006Y479294
X202739
X199472
X196206
X193994Y485994
Y489094
X189294Y489194
Y485994
X186494Y490994
X192394Y494794
Y498194
X190694Y502194
X193794Y502994
X196094Y505294
X200906Y505694
Y508394
X206948Y508994
Y506394
X210548
Y508994
X217106Y508294
Y505494
X217397Y521963
Y526294
Y530624
X213066
Y526294
Y521963
X208736
Y526294
Y530624
X204405
Y526294
Y521963
X200074
Y526294
Y530624
X191282Y529194
X185492Y528394
X180094Y528232
X177194Y525094
X180094Y522032
X177194Y518894
X168594
Y522032
X165694Y525132
X168594Y528232
X168094Y515194
Y509194
X168694Y505694
Y502594
X174294Y498994
Y495694
X172894Y492094
X180394Y498994
X180213Y503594
Y506894
X175294Y505794
X153994Y502894
X154094Y498894
Y495494
X153194Y491594
Y488094
X160594Y488694
X158094Y491194
X150194Y479294
X146827
X143460
X140094
X135094
X131827
X128560
X125294
X122994Y485494
X122894Y488894
X117694Y487794
X115594Y490294
X112294
X109694Y500694
X109394Y504294
Y507294
X108894Y514394
X106694Y521294
X109594Y524432
X106694Y527494
X109594Y530632
X98094
X95194Y527532
X89894Y527894
X91194Y522794
X87394Y523564
X82594Y523394
Y520294
X73799Y521963
X69469
X65138
Y526294
Y530624
X69469
Y526294
X73799
Y530624
X77894Y531694
X98094Y524432
X95194Y521294
X101694Y511494
X104594Y502094
Y498794
X96994Y489894
X93694
X90494Y488294
Y484794
Y481494
Y478194
X77694Y479294
X74327
X70960
X67594
X69230Y486375
X65086Y491959
X66950Y506394
Y508994
X73508Y508294
Y505494
X78794Y503694
X81194Y501394
X83794Y499394
X84394Y504394
X85394Y507794
X91184Y508994
X83808Y491994
X81394Y494408
X79908Y487594
X82308Y485194
X121494Y494294
Y497694
X121194Y503194
X124294Y504794
X125894Y507894
X129994Y508394
Y505694
X136036Y506394
Y508994
X139636
Y506394
X146194Y505494
Y508294
X150294Y507894
X151194Y504694
X155280Y520294
Y523394
X155194Y527494
X155324Y531294
X150645Y531735
X146485Y530624
Y526294
Y521963
X142155
Y526294
Y530624
X137824
Y526294
Y521963
X133493
Y526294
Y530624
X129162
Y526294
Y521963
X120294Y529094
Y532194
X161237Y520350
X137813Y492767
X133820Y485446
X143051Y485100
X145894Y469694
Y466394
X186285Y470536
X204478Y484584
X212883Y484545
X214372Y479294
X211006
X217739
X215394Y465594
X208818Y492012
X195544Y436554
X176358Y440324
X184444Y381294
X200594Y379094
X95949Y436085
X58994Y445194
X50394Y445394
X47394Y438394
X40394Y435394
Y425394
X47394Y422394
X50394Y415394
X47394Y408394
X40394Y405394
X33394Y408394
X30394Y415394
X33394Y422394
Y438394
X30394Y445394
X33394Y452394
X34252Y460062
X40394Y455394
X47394Y452394
X52594Y455794
X52394Y459194
X59794Y459394
Y455894
X63294
X55094Y453294
X55875Y479294
X52608
X59141
X62408
X60919Y486199
X48994Y486219
X46694Y483794
X41894Y485794
X38594
X43994Y490994
X47094Y492580
X48194Y506594
X51094Y504394
X53194Y507394
X57308Y508394
Y505694
X63350Y506394
Y508994
X60807Y521963
X56477
Y526294
Y530624
X60807
Y526294
X47594Y528694
Y531794
X38581Y531224
Y526424
X37081Y523424
X33581
X32181Y526424
Y531224
X36094Y510394
X35194Y506894
Y503694
X35594Y500394
X32394
X58659Y421201
X62840Y397640
X45394Y394094
X36033Y391077
X37181Y534224
X33681
X38438Y540904
Y559014
X37575Y569035
X30206Y571294
Y575594
X36766Y587772
X47306Y596694
X47506Y601094
X57504Y603211
X57869Y587772
X58874Y556985
X49647Y560731
X47493Y549959
X29382
X30206Y605194
Y609594
X30413Y627835
X30494Y631294
X41055Y631613
X35746Y637220
X35860Y645645
X35715Y654824
X35643Y664220
Y673255
X35728Y682027
X36052Y623864
X46616Y620791
X53106Y619494
X59206Y620894
X63406Y620694
X60284Y637075
X68254Y636882
X70573Y630108
X75728Y630098
X79333Y630108
X83169Y630098
X87106Y630197
X92228Y630896
X95694Y626794
X96348Y621836
X89862Y620945
X82906Y620894
X76083Y620847
X69551Y619034
X69685Y611791
X74313Y604582
X80332Y589009
X99139Y592981
X102708Y593468
X101277Y599222
X96300Y600055
X97720Y596664
X107345Y600285
X110793Y600356
X120942Y592684
X120287Y575843
X138747Y576053
X144033Y591699
X146349Y594375
X149920Y591805
X154782Y590987
X154980Y597780
X152180Y597802
X164694Y602194
X181413Y598051
X181487Y595227
X187343Y598107
X189694Y610494
Y614194
X182981Y614887
X179294Y614894
X178294Y619894
X181883Y619899
X185563Y619887
X181879Y631803
X178211Y631808
X178913Y638087
X178731Y642147
X181867Y642160
X185586Y637433
X189357Y639161
X192349Y628825
X202070Y628668
X202165Y637043
X203139Y643149
X209024Y643372
X208911Y638028
X207782Y632161
X217683Y631236
X217514Y643372
X208876Y653067
X203203Y652832
X193180Y652890
X184648Y652701
X178527Y652683
X178191Y665773
X181891Y665707
X185575Y665711
X183645Y670523
X187285Y673770
X187296Y677361
X197145Y677340
X197143Y680909
X197441Y672110
X203145Y675827
X208901Y677351
X208865Y673887
X208992Y680785
X216833Y677333
X216834Y673776
X216862Y670291
X218775Y663212
X211052Y661015
X203145Y665133
X193249Y665721
X178394Y675616
X158294Y675894
Y679694
X159394Y671994
X160064Y665470
X156530Y665477
X152467Y665226
X152566Y657390
X153194Y648794
X153315Y645188
X151107Y642972
X149999Y637048
X153765Y638405
X155794Y640350
X155721Y635329
X154877Y630455
X157917Y630461
X158968Y622625
X156132Y622603
X153098Y624196
X139076Y627738
X133994Y627894
X129715Y624777
X126041Y635631
X122672Y634841
X110775Y638248
X107681Y636480
X108194Y629794
X100125Y636403
X96085Y636621
X91692Y648860
X85009Y650659
X85508Y655659
X93294Y661194
X103757Y670096
X103619Y678026
X93394Y681994
X67294Y686975
X78591Y646494
X74823Y641277
X79823Y635512
X65046Y630016
X64186Y569226
X68859Y553783
X71536Y546836
X77994Y546794
X81794Y546343
X95194Y543994
X98094Y540894
Y547132
X95194Y550232
X106694Y550194
X109594Y547132
X114994Y547194
Y543694
X117994Y542194
Y548594
X122594Y550694
X125494Y547994
X128194Y546894
X130394Y549094
X125494Y544194
X115837Y536247
X109594Y540894
X106694Y543994
X104083Y557105
X118522Y558276
X132125Y558439
X143900Y552726
X149875Y549612
X147594Y543294
X157604Y543333
X165694Y541594
X168594Y538494
Y544732
X165694Y547832
X177246Y546387
X177308Y540436
X180094Y538494
X180067Y542667
X185394Y544994
Y548494
X181610Y549060
X188394Y549894
X193194
X196194Y548394
Y544894
X193194Y543494
X188394
X185394Y535394
X191282Y532294
X197976Y557490
X210258Y550912
X217294Y553494
X218594Y543294
X214094Y593894
X214128Y597469
X208394Y589594
X198095Y610480
X198092Y614146
X202059Y619365
X207757Y620504
X211011Y624517
X166374Y645017
X164294Y669194
X141603Y668587
X137917Y668795
X132983Y668191
X136694Y673894
X136951Y678779
X148741Y678996
X130606Y655633
X123294Y662194
X119313Y662574
X115808Y662859
X138926Y635766
X91686Y567583
X84863Y567950
X224394Y563694
X230794Y564694
X240894Y565639
Y583749
X238583Y591701
X238556Y596426
X245019Y595010
X245012Y592012
X248725Y590358
X255100Y587637
X258933Y587623
X257618Y580905
X260471Y578959
X249949Y574694
X231839
X232633Y589224
X232684Y592732
X231694Y611594
Y615094
X235894Y614994
X239681Y614173
X239694Y610494
X245794
X244794Y615594
X244816Y618997
X248507Y619010
X248506Y625471
X244814Y625493
X244806Y632289
X248500Y632301
X241102Y632127
X237426Y631599
X237416Y640223
X241113Y640232
X244783Y640215
X248512Y640222
X241139Y646168
X237426Y650158
X231752Y646132
X225516Y650743
X224307Y637716
X234176Y660031
X234319Y670287
X234327Y673801
X234420Y677336
X228806Y677358
X228809Y680861
X223680Y677348
X223668Y673824
X223688Y670330
X241585Y668720
X245894Y665894
X245887Y672774
X241294Y676894
X241268Y680444
X258050Y683243
X261523Y666546
X265111Y666527
X267598Y664027
X265084Y659668
X261532Y659679
X267294Y655194
X266694Y649594
X264688Y644381
X263050Y638225
X261608Y628165
X263601Y626158
X260394Y608894
X256155Y599153
X288194Y600294
X288359Y604033
X292194Y602694
X295994
X300204Y601284
X301278Y606323
X310640Y608634
X312094Y600877
X315894Y600788
X323774Y599952
X331097Y599687
X334783Y599680
X342704Y598545
X350569Y596707
X354130Y590417
X363194Y590294
X366525Y597447
X360704Y601576
X375941Y584500
X375420Y567782
X373228Y565138
X370694Y556594
X370652Y553179
X367094Y546130
X360294Y543294
X351766Y550287
X356879Y556479
X356841Y560434
X356874Y567943
X341387Y568476
X342496Y576994
X342494Y580794
X343326Y585288
X345852Y582786
X328894Y575494
X325451Y576941
X324902Y573307
X321253Y572376
X318110Y575768
X317194Y580994
X323705Y587364
X323671Y591201
X329067Y605375
X338607Y618588
X340290Y637890
X333001Y638054
X333416Y643774
X320611Y643227
X320713Y638424
X323701Y632364
X311039Y632352
X304834Y632374
X304904Y636154
X304403Y644194
X304365Y652445
X292635Y646438
X288352Y646488
X290193Y638045
X291848Y634168
X282184Y632483
X282194Y622994
X283738Y607062
X288094Y590294
X304694Y588794
X304697Y592618
X306994Y598294
X307678Y616336
X306594Y577539
X317494Y565894
X327494Y569494
X329594Y551794
X326594Y550394
Y546894
X329594Y545394
X334394
X337394Y546794
Y550294
X334394Y551794
X318894Y547794
X321794Y544732
X318894Y541594
X321794Y538494
X310294
X307394Y541594
X310294Y544732
X307394Y547832
X296194Y546375
X289394Y543294
X290894Y556794
X290919Y560430
X285955Y571344
X282579Y571929
X271850
X272157Y568363
X263029Y563508
X259194Y563594
X258694Y551494
Y547994
X261694Y546494
X266494
X269494Y547894
Y551394
X266494Y552894
X261694
X248294Y547694
X251194Y544632
X248294Y541494
X251194Y538394
X239694
X236794Y541494
X232894Y542894
X229011Y542954
X225394Y546312
X219788Y548464
X236794Y547732
X239694Y544632
X232894Y535394
X280880Y551269
X292582Y673397
X311783Y685005
X356137Y673086
X352569Y656315
X356336Y647288
X358348Y637883
X348266Y640282
X342452Y649058
X371543Y643516
X370769Y637728
X242007Y657261
X381704Y644385
X379204Y632489
X397808Y632532
Y645643
X406394Y647894
X407087Y642992
X414370Y642894
X414894Y647894
X421594Y647994
X425394
Y643094
X421457Y642992
X416831Y633445
X417421Y624193
X413535Y622955
X405894Y624394
X407432Y617036
X420403Y616536
X429994Y615594
X425133Y610664
X422788Y602672
X425494Y591050
X421994Y588294
X418794Y591050
X415394Y588350
X412058Y590994
X408694Y588350
X405394Y591050
X403794Y585794
X403494Y580594
X403294Y576294
X405394Y572194
X408694Y569494
X412058Y572250
X415394Y569494
X415674Y564946
X412874Y563146
Y559846
Y556546
X412574Y553346
X409374
X408174Y550346
X407455Y560373
X398884Y560589
X389694Y547794
X392594Y544732
X389694Y541594
X392594Y538494
X402294Y538994
X405794
X408694Y536494
Y532994
X423094Y532894
Y536394
X425894Y538994
X429594
X424774Y543746
X421574
X425874Y546846
Y550146
X424974Y553446
Y556646
Y559846
Y563046
X422374Y564946
X421994Y569494
X418794Y572294
X425458Y572250
X398859Y589355
X390563Y601924
X378982Y598154
X378858Y594456
X407046Y602355
X425394Y624094
X408214Y654175
X409094Y661294
X403294Y661194
X395347Y661811
X394294Y679094
X394394Y682994
X402494Y682494
X398994Y678994
X404394Y676094
X409994Y675994
X413194Y673294
X413694Y668594
X412794Y663894
X420108Y669120
X424294Y675794
X420694Y679694
X417594Y684894
X412894Y685194
X407394Y679594
X383188Y673319
X378194Y547832
X381094Y544732
X378194Y541594
X381094Y538494
X377094Y708594
X377294Y722194
X380694Y724894
X385394
X388894Y723094
X388994Y728694
X394094Y722394
X397794Y721994
X402394Y722194
X407694Y721994
X411913Y722860
X411690Y716576
X407572Y716545
X403392Y716514
X399677Y716483
X395776Y716514
X412084Y712805
X415305Y710895
X415251Y715152
X413094Y728694
X412809Y732215
X410194Y735194
X406480Y735352
X402394Y735294
X397394
X396994Y741194
X402694
X407394Y741294
X413394Y743994
Y748794
Y753194
X407494Y756494
X402494Y756394
X396694Y756294
X399094Y761994
X402494Y762794
X406194Y761694
X410694Y762394
X414394Y761994
X412694Y765194
X413094Y768694
X416294Y765894
X418021Y748531
X384772Y750596
X384056Y735839
X377292Y758961
X377294Y762994
X377292Y768245
X377494Y778894
X384394Y778794
X390894Y777094
X398494Y776694
X402394Y774694
X405094Y776994
X425542Y778075
X429394Y785094
Y789094
Y794994
X414145Y794959
X414241Y791156
X418945Y789059
Y785059
X417052Y800457
X420394Y810394
X413394Y813394
X410394Y820394
X413394Y827394
X420394Y830394
X427394Y827394
X430394Y820394
X427394Y813394
X394594Y818394
X392293Y826736
X388400Y826774
X385209Y826778
X382050Y826774
X390994Y768594
X391194Y761594
X412594Y691494
X417694Y691594
X357494Y707494
X358994Y715694
X359294Y724994
X364894Y722694
X368894Y724794
X373694Y724894
X371315Y729205
X362305Y742272
X368494Y750294
X370794Y758994
X375594Y755294
X360695Y758028
X353149Y759319
X343294Y761294
X337410Y759706
X327276Y758949
X329594Y768794
X330094Y779094
X325549Y776160
X337094Y779594
X344194Y779294
X350194
X356294Y779094
X370594Y778694
X349094Y788994
Y792294
Y795794
Y799194
X348170Y801886
X348525Y808899
X344588
Y812836
Y816773
X348525
X352462
Y812836
Y808899
X348525Y812836
X345817Y824636
X327490Y822520
X321694Y819094
X318194Y818994
Y823194
X318094Y827494
X308694Y827194
Y822994
Y819094
X300194Y819194
X296494
X293194
X293094Y822794
X293194Y826494
X296494
X299994Y827194
X298520Y812175
X284339Y812050
X281602Y794137
X273794Y789894
X270394Y780394
X279994Y780494
X283294Y778694
Y773294
X280394Y770394
X270394
Y760394
X265294Y758594
X266094Y754994
X263194
Y750869
Y746744
Y742619
Y738494
X266094Y738394
X273294Y739294
Y742519
Y746644
Y750769
Y754894
X278994Y758694
X289194Y756594
X285394Y751094
Y746294
Y742094
X288294Y737294
X284694Y734694
X280194Y734794
X282394Y736994
X292871Y735249
X298094Y734794
X297994Y729294
X289894Y726994
Y723894
X287094Y725394
X287123Y722313
X287694Y718794
X286989Y712975
X299494Y712594
Y708594
Y703794
X310694Y704494
Y708694
X311394Y718994
X311294Y727494
X315594Y724394
X316694Y715094
X316994Y701894
X331694Y706994
X336894Y702994
X343494Y708894
X350294Y703094
X343694Y723394
X344335Y729236
X336894Y724794
X328694Y719394
X326394Y728494
X326055Y744741
X339743Y742295
X302888Y742855
X300969Y770366
X286094Y764594
X260394Y760394
X256043Y760596
Y764596
Y768596
Y772596
X252043
X248043
Y768596
Y764596
Y760596
X244043
X240043
Y764596
X244043
Y768596
X240043
Y772596
X244043
X235394Y770394
X235294Y765594
X235394Y760394
X237294Y753294
Y750394
Y747494
X240334
X243374
X246414
X249454
X252494
X248094Y751994
X242894
X258136Y754276
X252043Y760596
Y764596
Y768596
X260394Y770394
Y780394
X250394
X240394
X231194
X229194Y790594
X229594Y797194
X240394Y790394
X250194Y790594
X264560Y802845
X264441Y827006
X275894Y826794
X243399Y827056
X223780
X220194Y819594
X219994Y815494
X220094Y811594
X225138Y767056
X230094Y766994
X227951Y739053
X227917Y733570
X227894Y730094
X224179Y734133
X221298Y722268
X227932Y716229
X234888Y720249
X238668Y720269
X241037Y710749
X245522Y708796
X255594Y710394
Y705494
X262019Y701864
X265957Y698419
X268504Y695847
X271358Y692894
X273228Y698504
X275295Y702933
X270768Y706280
Y710610
X266437
Y706280
X267433Y719778
X264382Y721845
X262402Y728327
X271594Y732194
X274894Y726994
Y723894
X277794Y725494
Y728594
X287123Y728513
X272367Y719533
X253147Y716101
X250651Y721394
X236760Y730489
X235892Y700100
X231894Y700094
X231850Y703371
X227894Y699594
Y696494
X224094Y697294
X240551Y695452
X300261Y792520
X319933Y791902
X331794Y793594
X333194Y802794
X339725Y806036
X338494Y788094
X360175Y804589
X374594Y817894
X206794Y819394
Y815494
Y811694
X203547Y827272
X183189Y827552
X180194Y819594
X179994Y815494
X180094Y811594
X180194Y800094
X167194Y800294
X166794Y811694
Y815494
Y819394
X163393Y827307
X143282Y826991
X140194Y819594
X139994Y815494
X140094Y811594
X140194Y800094
X150094Y799094
X149194Y792794
X149094Y784094
X144344Y786294
X154494Y780596
X158494
Y776596
X154494
Y772596
X158494
Y768596
X154494
X162494
X166494
X170494
Y772596
X166494
Y776596
X170494
Y780596
X166494
X162494
Y776596
Y772596
X162594Y759994
X163150Y755689
X166102
X169994Y755566
X160197Y755689
X157244
X154291
X157294Y760094
X149392Y751991
X142874Y756968
X129894Y755494
X125847Y755590
X122894
X119941
X116988
X114042Y755606
X117394Y760094
X122294Y760194
X122394Y768596
Y772596
Y776596
Y780596
X118394
Y776596
Y772596
Y768596
X114394
Y772596
Y776596
Y780596
X108994Y784094
X104494Y786294
X109294Y792594
X110594Y799294
X100817Y801490
X100094Y811594
X99994Y815494
X100194Y819594
X102703Y826765
X83399Y827230
X86794Y819394
Y815494
Y811694
X86947Y801402
X70994Y799894
X73094Y786494
X74543Y780596
X78543
Y776596
X74543
Y772596
X78543
Y768596
X74543
X82543
X86543
X90543
Y772596
X86543
Y776596
X90543
Y780596
X86543
X82543
Y776596
Y772596
X82494Y760094
X77594
Y755594
X73594
X72603Y760134
X81594Y755594
X85594
X90043Y755358
X88300Y746193
X87907Y738287
X86399Y735081
X86336Y731653
X76990Y730042
X77042Y733883
X77187Y737827
X71349Y740894
X76148Y747577
X101494Y747198
X100553Y750868
X102717Y756870
X109400Y752045
X107837Y737003
X96943Y736462
X93122Y736545
X102050Y724744
X102092Y720571
X90494Y716894
X90194Y713094
X86694Y706994
X77743Y711772
X72916Y706905
X66536Y700717
X66994Y694375
X66794Y690675
X74594
X65562Y715314
X84445Y718574
X119494Y730294
X131784Y737448
X136793Y724493
X144073Y719203
X148125Y719180
X150831Y725379
X144121Y730384
X151838Y736899
X159210Y730607
X163926Y727479
X159139Y721631
X153959Y714954
X155267Y706679
X152967Y704880
Y701979
X155367Y700280
X161494Y700294
X163794Y702094
Y704994
X161394Y706694
X170773Y701933
X174322Y701949
X170671Y694921
X176798Y689802
X191094Y698094
X191300Y702216
Y705754
X183194Y706794
X183558Y712943
X188691Y717240
X193124Y714593
X195494Y711794
X194608Y722053
X201294Y722194
X206319Y722219
X211256Y722219
X216272Y722189
X213779Y731476
X198398Y730821
X198418Y727341
X198378Y734419
X194018Y730530
X175925Y730741
X175292Y715684
X171032Y712774
X148068Y709716
X143958Y709675
X143979Y706220
X148475Y695015
X210017Y696930
X215080Y700060
X208947Y704988
X189825Y745224
X189811Y748667
X189795Y752377
X189613Y759394
X185813Y759494
X186257Y745247
X165442Y742061
X145925Y769468
X149094Y774994
X130394Y776596
Y780596
X126394
Y776596
Y772596
X130394
Y768596
X126394
X105571Y769370
X108994Y774994
X127194Y800294
X126794Y811694
Y815494
Y819394
X123109Y827105
X66994Y787794
X184444Y786294
X200594Y784094
X199257Y774657
X204813Y773795
X189513Y772394
X218572Y778434
X58144Y780544
X54119Y778217
X57294Y766420
X62294Y749949
X48410Y748743
X53239Y740894
X53162Y723071
X53907Y717378
X43433Y714305
X43393Y708222
X47961Y705633
X53355Y703380
X50552Y698397
X58866Y698462
X60441Y705035
X36187Y704026
X30194Y696594
X35663Y690599
X44294Y695394
X43287Y720495
X34471Y725576
X29894Y744294
X30594Y759294
Y763594
X35800Y767476
X36033Y796077
X45394Y799094
X47394Y813394
X50394Y820394
X47394Y827394
X40394Y830394
X33394Y827394
X30394Y820394
X33394Y813394
X40394Y810394
X62840Y802641
X58659Y826201
X62294Y731839
T02
X105494Y165994
X115494
X125494
X135494
X145494
X155494
X165494
X175494
X185494
X195494
X205494
X215494
Y175994
X205494
X195494
X185494
X175494
X165494
X155494
X145494
X135494
X125494
X115494
X105494
X104694Y207394
Y217394
X114694
Y207394
X124694
Y217394
X134694
Y207394
X144694
Y217394
X145494Y236894
X135494
X125494
X115494
X105494
Y246894
X115494
X125494
X135494
X145494
X199194Y345694
Y355694
X209194
Y345694
X219194
Y355694
X229194
Y345694
X215494Y570994
Y580994
X205494
Y570994
X195494
Y580994
X185494
Y570994
X175494
Y580994
X165494
Y570994
X155494
Y580994
X145494
Y570994
X135494
Y580994
X125494
Y570994
X115494
Y580994
X105494
Y570994
X104694Y612394
Y622394
X114694
Y612394
X124694
Y622394
X134694
Y612394
X144694
Y622394
X145494Y641894
X135494
X125494
X115494
X105494
Y651894
X115494
X125494
X135494
X145494
X229194Y750694
Y760694
X219194
X209194
X199194
Y750694
X209194
X219194
T03
X61094Y250394
Y260315
X68994
Y250394
X61094Y655394
Y665315
X68994
Y655394
T04
X70894Y39894
X80894
X90894
X100894
X130894
X140894
X150894
X160894
X190394
X200394
X210394
X220394
X241394
X251394
X261394
X271394
X300394
X310394
X320394
X330394
X359894
X369894
X379894
X389894
X417194Y70894
Y80894
Y90894
Y100894
X391894Y170894
X381894
X381194Y211694
X391194
X359894
X349894
X328394
X318394
X296694
X286694
X351894Y170894
X361894
X371894
X33994Y329994
Y347794
X281094Y280294
X291094
X301094
X322144
X332144
X342144
X363194
X373194
Y256294
X363194
X342144
X332144
X322144
X301094
X291094
X281094
X383194
Y280294
X379894Y444894
X389894
X417194Y475894
Y485894
Y495894
Y505894
X369894Y444894
X359894
X330394
X320394
X310394
X300394
X271394
X261394
X251394
X241394
X220394
X210394
X200394
X190394
X160894
X150894
X140894
X130894
X100894
X90894
X80894
X70894
X47794Y379894
X37794
X286694Y616694
X296694
X318394
X328394
X349894
X359894
X361894Y575894
X371894
X351894
X342144Y661294
X332144
X322144
X301094
X291094
X281094
Y685294
X291094
X301094
X322144
X332144
X342144
X363194
X373194
Y661294
X363194
X383194
Y685294
X381194Y616694
X391194
X391894Y575894
X381894
X33994Y734994
Y752794
X37794Y784894
X47794
T05
X402457Y263642
Y283642
Y303642
Y323642
Y343642
Y363642
X253394Y410594
X233394
X213394
X193394
X173394
X153394
X133394
X113394
X93394
X73394
X402457Y668642
Y688642
Y708642
Y728642
Y748642
Y768642
X253394Y815594
X233394
X213394
X193394
X173394
X153394
X133394
X113394
X93394
X73394
T06
X43794Y325094
Y352694
Y730094
Y757694
T07
X410426Y175272
X423826
X370494Y310794
X350294
X336894
Y363794
X350294
X370494
X383894
Y310794
X410426Y228272
X423826
Y580272
X410426
Y633272
X423826
X383894Y715794
Y768794
X370494
X350294
X336894
Y715794
X350294
X370494
T08
X50394Y231694
Y279016
Y636694
Y684016
T09
X13287Y13287
X40394Y40394
X420394
X447319Y13583
X420394Y415394
Y445394
X40394
Y415394
X420394Y820394
X40394
X13287Y847175
X446610Y848283
T10
X240894Y169694
X38438Y144959
X62294Y335894
X38438Y549959
X240894Y574694
X62294Y740894
M30
