G04 Layer_Color=32896*
%FSLAX25Y25*%
%MOIN*%
G70*
G01*
G75*
%ADD10C,0.00700*%
%ADD12C,0.01000*%
%ADD81C,0.00800*%
%ADD88C,0.00600*%
%ADD138C,0.00400*%
%ADD140C,0.00500*%
G54D10*
X143194Y180594D02*
X144294Y179494D01*
X143194Y585594D02*
X144294Y584494D01*
G54D12*
X222369Y944840D02*
Y949838D01*
X224869Y952337D01*
X227368Y949838D01*
Y944840D01*
Y948589D01*
X222369D01*
X229867Y949838D02*
Y944840D01*
Y947339D01*
X231117Y948589D01*
X232366Y949838D01*
X233616D01*
X242363D02*
X238614D01*
X237365Y948589D01*
Y946089D01*
X238614Y944840D01*
X242363D01*
X244862Y952337D02*
Y944840D01*
Y948589D01*
X246112Y949838D01*
X248611D01*
X249861Y948589D01*
Y944840D01*
X252360D02*
X254859D01*
X253609D01*
Y949838D01*
X252360D01*
X258608Y944840D02*
Y949838D01*
X259857D01*
X261107Y948589D01*
Y944840D01*
Y948589D01*
X262356Y949838D01*
X263606Y948589D01*
Y944840D01*
X266105Y943590D02*
X271104D01*
X273603Y944840D02*
X276102D01*
X274852D01*
Y952337D01*
X273603Y951088D01*
X279851Y944840D02*
Y946089D01*
X281101D01*
Y944840D01*
X279851D01*
X286099Y951088D02*
X287348Y952337D01*
X289848D01*
X291097Y951088D01*
Y946089D01*
X289848Y944840D01*
X287348D01*
X286099Y946089D01*
Y951088D01*
X294846Y949838D02*
X297345D01*
X298595Y948589D01*
Y944840D01*
X294846D01*
X293596Y946089D01*
X294846Y947339D01*
X298595D01*
X222369Y964837D02*
Y957340D01*
X226118D01*
X227368Y958589D01*
Y959839D01*
X226118Y961089D01*
X222369D01*
X226118D01*
X227368Y962338D01*
Y963588D01*
X226118Y964837D01*
X222369D01*
X231117Y957340D02*
X233616D01*
X234865Y958589D01*
Y961089D01*
X233616Y962338D01*
X231117D01*
X229867Y961089D01*
Y958589D01*
X231117Y957340D01*
X238614Y963588D02*
Y962338D01*
X237365D01*
X239864D01*
X238614D01*
Y958589D01*
X239864Y957340D01*
X256108Y963588D02*
X254859Y964837D01*
X252360D01*
X251110Y963588D01*
Y962338D01*
X252360Y961089D01*
X254859D01*
X256108Y959839D01*
Y958589D01*
X254859Y957340D01*
X252360D01*
X251110Y958589D01*
X258608Y957340D02*
X261107D01*
X259857D01*
Y962338D01*
X258608D01*
X264856Y957340D02*
X267355D01*
X266105D01*
Y964837D01*
X264856D01*
X271104Y957340D02*
Y964837D01*
Y959839D02*
X274852Y962338D01*
X271104Y959839D02*
X274852Y957340D01*
X278601D02*
X282350D01*
X283600Y958589D01*
X282350Y959839D01*
X279851D01*
X278601Y961089D01*
X279851Y962338D01*
X283600D01*
X291097D02*
X287348D01*
X286099Y961089D01*
Y958589D01*
X287348Y957340D01*
X291097D01*
X293596Y962338D02*
Y957340D01*
Y959839D01*
X294846Y961089D01*
X296096Y962338D01*
X297345D01*
X304843Y957340D02*
X302344D01*
X301094Y958589D01*
Y961089D01*
X302344Y962338D01*
X304843D01*
X306092Y961089D01*
Y959839D01*
X301094D01*
X312340Y957340D02*
X309841D01*
X308592Y958589D01*
Y961089D01*
X309841Y962338D01*
X312340D01*
X313590Y961089D01*
Y959839D01*
X308592D01*
X316089Y957340D02*
Y962338D01*
X319838D01*
X321088Y961089D01*
Y957340D01*
G54D81*
X50000Y389302D02*
X47334D01*
X48667Y390635D02*
Y387970D01*
X38004Y389302D02*
X35338D01*
X50000Y794303D02*
X47334D01*
X48667Y795635D02*
Y792970D01*
X38004Y794303D02*
X35338D01*
G54D88*
X370294Y178694D02*
X372293D01*
Y180193D01*
X371793Y180693D01*
X370294D01*
Y181693D02*
X373293D01*
Y183192D01*
X372793Y183692D01*
X371793D01*
X371293Y183192D01*
Y181693D01*
Y182692D02*
X370294Y183692D01*
X372793Y186691D02*
X373293Y186191D01*
Y185192D01*
X372793Y184692D01*
X372293D01*
X371793Y185192D01*
Y186191D01*
X371293Y186691D01*
X370794D01*
X370294Y186191D01*
Y185192D01*
X370794Y184692D01*
X373293Y187691D02*
Y189690D01*
Y188690D01*
X370294D01*
X404071Y102545D02*
X406071D01*
Y101045D01*
X405071Y101545D01*
X404571D01*
X404071Y101045D01*
Y100046D01*
X404571Y99546D01*
X405571D01*
X406071Y100046D01*
X403071Y102545D02*
Y100545D01*
X402072Y99546D01*
X401072Y100545D01*
Y102545D01*
X355341Y302529D02*
Y300530D01*
X354341Y299530D01*
X353341Y300530D01*
Y302529D01*
X352342D02*
X351342D01*
X351842D01*
Y299530D01*
X352342D01*
X351342D01*
X349843D02*
Y302529D01*
X347843Y299530D01*
Y302529D01*
X341845D02*
X343845D01*
Y301030D01*
X342845D01*
X343845D01*
Y299530D01*
X338846Y302529D02*
X340845D01*
Y299530D01*
X338846D01*
X340845Y301030D02*
X339846D01*
X337846Y302529D02*
X335847D01*
X336847D01*
Y299530D01*
X334847D02*
X333348D01*
X332848Y300030D01*
X333348Y300530D01*
X334348D01*
X334847Y301030D01*
X334348Y301530D01*
X332848D01*
X387502Y301447D02*
Y299448D01*
X386502Y298448D01*
X385503Y299448D01*
Y301447D01*
X384503D02*
X383503D01*
X384003D01*
Y298448D01*
X384503D01*
X383503D01*
X382004D02*
Y301447D01*
X380005Y298448D01*
Y301447D01*
X376006D02*
Y298448D01*
X374506D01*
X374006Y298948D01*
Y299448D01*
X374506Y299948D01*
X376006D01*
X374506D01*
X374006Y300448D01*
Y300947D01*
X374506Y301447D01*
X376006D01*
X371007D02*
X373007D01*
Y298448D01*
X371007D01*
X373007Y299948D02*
X372007D01*
X370008Y301447D02*
Y298448D01*
X368508D01*
X368008Y298948D01*
Y300947D01*
X368508Y301447D01*
X370008D01*
X404191Y92184D02*
X404691Y92684D01*
X405690D01*
X406190Y92184D01*
Y90184D01*
X405690Y89684D01*
X404691D01*
X404191Y90184D01*
Y91184D01*
X405191D01*
X403191Y89684D02*
Y92684D01*
X401192Y89684D01*
Y92684D01*
X400192D02*
Y89684D01*
X398693D01*
X398193Y90184D01*
Y92184D01*
X398693Y92684D01*
X400192D01*
X56791Y261931D02*
Y259432D01*
X56291Y258932D01*
X55291D01*
X54791Y259432D01*
Y261931D01*
X51792Y261431D02*
X52292Y261931D01*
X53292D01*
X53792Y261431D01*
Y260931D01*
X53292Y260431D01*
X52292D01*
X51792Y259931D01*
Y259432D01*
X52292Y258932D01*
X53292D01*
X53792Y259432D01*
X50793Y261931D02*
Y258932D01*
X49293D01*
X48793Y259432D01*
Y259931D01*
X49293Y260431D01*
X50793D01*
X49293D01*
X48793Y260931D01*
Y261431D01*
X49293Y261931D01*
X50793D01*
X47794Y258932D02*
Y261931D01*
X46294D01*
X45794Y261431D01*
Y260431D01*
X46294Y259931D01*
X47794D01*
X423366Y351487D02*
X423866Y351987D01*
X424865D01*
X425365Y351487D01*
Y349487D01*
X424865Y348988D01*
X423866D01*
X423366Y349487D01*
Y350487D01*
X424366D01*
X422366Y348988D02*
Y351987D01*
X420367Y348988D01*
Y351987D01*
X419367D02*
Y348988D01*
X417868D01*
X417368Y349487D01*
Y351487D01*
X417868Y351987D01*
X419367D01*
X297272Y291125D02*
X295273Y288126D01*
Y291125D02*
X297272Y288126D01*
X294273Y289625D02*
X292274D01*
X291274Y288126D02*
Y291125D01*
X290274Y290125D01*
X289275Y291125D01*
Y288126D01*
X288275Y291125D02*
X287275D01*
X287775D01*
Y288126D01*
X288275D01*
X287275D01*
X285776D02*
Y291125D01*
X283776Y288126D01*
Y291125D01*
X99894Y425393D02*
Y423393D01*
X98894Y422394D01*
X97894Y423393D01*
Y425393D01*
X96895D02*
Y422394D01*
Y423893D01*
X94895D01*
Y425393D01*
Y422394D01*
X91896Y425393D02*
X93896D01*
Y422394D01*
X91896D01*
X93896Y423893D02*
X92896D01*
X90897Y422394D02*
Y424393D01*
X89897Y425393D01*
X88897Y424393D01*
Y422394D01*
Y423893D01*
X90897D01*
X87898Y425393D02*
X85898D01*
X86898D01*
Y422394D01*
X353393Y152394D02*
X350893D01*
X350394Y152893D01*
Y153893D01*
X350893Y154393D01*
X353393D01*
Y155393D02*
Y157392D01*
Y156392D01*
X350394D01*
X353393Y158392D02*
X350394Y160391D01*
X353393D02*
X350394Y158392D01*
X353393Y161391D02*
X350394D01*
Y162890D01*
X350893Y163390D01*
X352893D01*
X353393Y162890D01*
Y161391D01*
X406363Y82162D02*
Y80163D01*
X405364Y79163D01*
X404364Y80163D01*
Y82162D01*
X403364Y79163D02*
Y82162D01*
X402365Y81163D01*
X401365Y82162D01*
Y79163D01*
X398866Y82162D02*
X399866D01*
X400365Y81663D01*
Y79663D01*
X399866Y79163D01*
X398866D01*
X398366Y79663D01*
Y81663D01*
X398866Y82162D01*
X397366D02*
X395367D01*
X396367D01*
Y79163D01*
X139894Y424993D02*
Y422993D01*
X138894Y421994D01*
X137894Y422993D01*
Y424993D01*
X136895D02*
Y421994D01*
Y423493D01*
X134895D01*
Y424993D01*
Y421994D01*
X131896Y424993D02*
X133896D01*
Y421994D01*
X131896D01*
X133896Y423493D02*
X132896D01*
X130897Y421994D02*
Y423993D01*
X129897Y424993D01*
X128897Y423993D01*
Y421994D01*
Y423493D01*
X130897D01*
X127898Y424993D02*
X125898D01*
X126898D01*
Y421994D01*
X259394Y425593D02*
Y423593D01*
X258394Y422594D01*
X257394Y423593D01*
Y425593D01*
X256395D02*
Y422594D01*
X254895D01*
X254395Y423094D01*
Y423593D01*
X254895Y424093D01*
X256395D01*
X254895D01*
X254395Y424593D01*
Y425093D01*
X254895Y425593D01*
X256395D01*
X251396D02*
X253396D01*
Y422594D01*
X251396D01*
X253396Y424093D02*
X252396D01*
X250397Y425593D02*
Y422594D01*
X248897D01*
X248397Y423094D01*
Y425093D01*
X248897Y425593D01*
X250397D01*
X220594D02*
Y423593D01*
X219594Y422594D01*
X218594Y423593D01*
Y425593D01*
X217595D02*
Y422594D01*
Y424093D01*
X215595D01*
Y425593D01*
Y422594D01*
X212596Y425593D02*
X214596D01*
Y422594D01*
X212596D01*
X214596Y424093D02*
X213596D01*
X211597Y422594D02*
Y424593D01*
X210597Y425593D01*
X209597Y424593D01*
Y422594D01*
Y424093D01*
X211597D01*
X208598Y425593D02*
X206598D01*
X207598D01*
Y422594D01*
X179894Y425393D02*
Y423393D01*
X178894Y422394D01*
X177894Y423393D01*
Y425393D01*
X176895D02*
Y422394D01*
Y423893D01*
X174895D01*
Y425393D01*
Y422394D01*
X171896Y425393D02*
X173896D01*
Y422394D01*
X171896D01*
X173896Y423893D02*
X172896D01*
X170897Y422394D02*
Y424393D01*
X169897Y425393D01*
X168897Y424393D01*
Y422394D01*
Y423893D01*
X170897D01*
X167898Y425393D02*
X165898D01*
X166898D01*
Y422394D01*
X351394Y352693D02*
Y350693D01*
X350394Y349694D01*
X349394Y350693D01*
Y352693D01*
X348395D02*
Y349694D01*
Y351193D01*
X346395D01*
Y352693D01*
Y349694D01*
X343396Y352693D02*
X345396D01*
Y349694D01*
X343396D01*
X345396Y351193D02*
X344396D01*
X342397Y349694D02*
Y351693D01*
X341397Y352693D01*
X340397Y351693D01*
Y349694D01*
Y351193D01*
X342397D01*
X339398Y352693D02*
X337398D01*
X338398D01*
Y349694D01*
X342794Y398293D02*
X343294Y398793D01*
X344294D01*
X344794Y398293D01*
Y396293D01*
X344294Y395794D01*
X343294D01*
X342794Y396293D01*
Y397293D01*
X343794D01*
X341795Y395794D02*
Y398793D01*
X339795Y395794D01*
Y398793D01*
X338796D02*
Y395794D01*
X337296D01*
X336796Y396293D01*
Y398293D01*
X337296Y398793D01*
X338796D01*
X420753Y206315D02*
X422753D01*
Y204815D01*
X421753D01*
X422753D01*
Y203316D01*
X417754Y205815D02*
X418254Y206315D01*
X419254D01*
X419754Y205815D01*
Y203816D01*
X419254Y203316D01*
X418254D01*
X417754Y203816D01*
Y204815D01*
X418754D01*
X416755Y203316D02*
Y206315D01*
X414755Y203316D01*
Y206315D01*
X413756D02*
Y203316D01*
X412256D01*
X411756Y203816D01*
Y205815D01*
X412256Y206315D01*
X413756D01*
X404191Y72015D02*
X404691Y72514D01*
X405690D01*
X406190Y72015D01*
Y70015D01*
X405690Y69516D01*
X404691D01*
X404191Y70015D01*
Y71015D01*
X405191D01*
X403191Y69516D02*
Y72514D01*
X401192Y69516D01*
Y72514D01*
X400192D02*
Y69516D01*
X398693D01*
X398193Y70015D01*
Y72015D01*
X398693Y72514D01*
X400192D01*
X383148Y180580D02*
Y178581D01*
X381649D01*
X382149Y179580D01*
Y180080D01*
X381649Y180580D01*
X380649D01*
X380149Y180080D01*
Y179080D01*
X380649Y178581D01*
X383148Y181580D02*
X381149D01*
X380149Y182579D01*
X381149Y183579D01*
X383148D01*
X421765Y329469D02*
X422265Y329969D01*
X423265D01*
X423764Y329469D01*
Y327470D01*
X423265Y326970D01*
X422265D01*
X421765Y327470D01*
Y328469D01*
X422765D01*
X420765Y326970D02*
Y329969D01*
X418766Y326970D01*
Y329969D01*
X417766D02*
Y326970D01*
X416267D01*
X415767Y327470D01*
Y329469D01*
X416267Y329969D01*
X417766D01*
X337867Y291330D02*
Y290830D01*
X336867Y289831D01*
X335867Y290830D01*
Y291330D01*
X336867Y289831D02*
Y288331D01*
X334868Y289831D02*
X332868D01*
X331869Y288331D02*
Y291330D01*
X330869Y290331D01*
X329869Y291330D01*
Y288331D01*
X328870Y291330D02*
X327870D01*
X328370D01*
Y288331D01*
X328870D01*
X327870D01*
X326370D02*
Y291330D01*
X324371Y288331D01*
Y291330D01*
X338240Y248390D02*
Y247890D01*
X337240Y246890D01*
X336241Y247890D01*
Y248390D01*
X337240Y246890D02*
Y245391D01*
X335241Y246890D02*
X333242D01*
X332242Y245391D02*
Y248390D01*
X331242Y247390D01*
X330243Y248390D01*
Y245391D01*
X329243D02*
Y247390D01*
X328243Y248390D01*
X327244Y247390D01*
Y245391D01*
Y246890D01*
X329243D01*
X326244Y248390D02*
X324244Y245391D01*
Y248390D02*
X326244Y245391D01*
X379441Y291444D02*
X377442D01*
Y290945D01*
X379441Y288945D01*
Y288445D01*
X377442D01*
X376442Y289945D02*
X374443D01*
X373443Y288445D02*
Y291444D01*
X372443Y290445D01*
X371444Y291444D01*
Y288445D01*
X370444Y291444D02*
X369444D01*
X369944D01*
Y288445D01*
X370444D01*
X369444D01*
X367945D02*
Y291444D01*
X365945Y288445D01*
Y291444D01*
X298498Y247993D02*
X296498Y244994D01*
Y247993D02*
X298498Y244994D01*
X295499Y246493D02*
X293499D01*
X292500Y244994D02*
Y247993D01*
X291500Y246993D01*
X290500Y247993D01*
Y244994D01*
X289501D02*
Y246993D01*
X288501Y247993D01*
X287501Y246993D01*
Y244994D01*
Y246493D01*
X289501D01*
X286502Y247993D02*
X284502Y244994D01*
Y247993D02*
X286502Y244994D01*
X272952Y55271D02*
Y57270D01*
X272452D01*
X270453Y55271D01*
X269953D01*
Y57270D01*
X271453Y58270D02*
Y60269D01*
X272952Y61269D02*
X269953D01*
Y62769D01*
X270453Y63269D01*
X270953D01*
X271453Y62769D01*
Y61269D01*
Y62769D01*
X271952Y63269D01*
X272452D01*
X272952Y62769D01*
Y61269D01*
X269953Y66268D02*
Y64268D01*
X271952Y66268D01*
X272452D01*
X272952Y65768D01*
Y64768D01*
X272452Y64268D01*
X262524Y55049D02*
Y57049D01*
X262024D01*
X260024Y55049D01*
X259525D01*
Y57049D01*
X261024Y58048D02*
Y60048D01*
X262524Y61047D02*
X259525D01*
Y62547D01*
X260024Y63047D01*
X260524D01*
X261024Y62547D01*
Y61047D01*
Y62547D01*
X261524Y63047D01*
X262024D01*
X262524Y62547D01*
Y61047D01*
X259525Y64046D02*
Y65046D01*
Y64546D01*
X262524D01*
X262024Y64046D01*
X252909Y47579D02*
Y49579D01*
X252409D01*
X250410Y47579D01*
X249910D01*
Y49579D01*
X251409Y50578D02*
Y52578D01*
X249910Y53577D02*
X251909D01*
X252909Y54577D01*
X251909Y55577D01*
X249910D01*
X251409D01*
Y53577D01*
X249910Y58576D02*
Y56576D01*
X251909Y58576D01*
X252409D01*
X252909Y58076D01*
Y57076D01*
X252409Y56576D01*
X242850Y47431D02*
Y49431D01*
X242350D01*
X240351Y47431D01*
X239851D01*
Y49431D01*
X241351Y50430D02*
Y52430D01*
X239851Y53429D02*
X241850D01*
X242850Y54429D01*
X241850Y55429D01*
X239851D01*
X241351D01*
Y53429D01*
X239851Y56428D02*
Y57428D01*
Y56928D01*
X242850D01*
X242350Y56428D01*
X301964Y56892D02*
Y54893D01*
X298965D01*
Y56892D01*
X300465Y54893D02*
Y55892D01*
X298965Y57892D02*
Y58891D01*
Y58391D01*
X301964D01*
X301465Y57892D01*
X300465Y60391D02*
Y62390D01*
X298965Y63390D02*
X300965D01*
X301964Y64389D01*
X300965Y65389D01*
X298965D01*
X300465D01*
Y63390D01*
X298965Y66389D02*
Y67388D01*
Y66889D01*
X301964D01*
X301465Y66389D01*
X311876Y56997D02*
Y54998D01*
X308876D01*
Y56997D01*
X310376Y54998D02*
Y55998D01*
X308876Y57997D02*
Y58997D01*
Y58497D01*
X311876D01*
X311376Y57997D01*
X310376Y60496D02*
Y62496D01*
X308876Y63495D02*
X310876D01*
X311876Y64495D01*
X310876Y65495D01*
X308876D01*
X310376D01*
Y63495D01*
X308876Y68494D02*
Y66494D01*
X310876Y68494D01*
X311376D01*
X311876Y67994D01*
Y66994D01*
X311376Y66494D01*
X321893Y57493D02*
Y55494D01*
X318894D01*
Y57493D01*
X320393Y55494D02*
Y56493D01*
X318894Y58493D02*
Y59492D01*
Y58993D01*
X321893D01*
X321393Y58493D01*
X320393Y60992D02*
Y62991D01*
X321893Y63991D02*
X318894D01*
Y65491D01*
X319393Y65990D01*
X319893D01*
X320393Y65491D01*
Y63991D01*
Y65491D01*
X320893Y65990D01*
X321393D01*
X321893Y65491D01*
Y63991D01*
X318894Y66990D02*
Y67990D01*
Y67490D01*
X321893D01*
X321393Y66990D01*
X331830Y56960D02*
Y54961D01*
X328831D01*
Y56960D01*
X330330Y54961D02*
Y55960D01*
X328831Y57960D02*
Y58959D01*
Y58459D01*
X331830D01*
X331330Y57960D01*
X330330Y60459D02*
Y62458D01*
X331830Y63458D02*
X328831D01*
Y64957D01*
X329330Y65457D01*
X329830D01*
X330330Y64957D01*
Y63458D01*
Y64957D01*
X330830Y65457D01*
X331330D01*
X331830Y64957D01*
Y63458D01*
X328831Y68456D02*
Y66457D01*
X330830Y68456D01*
X331330D01*
X331830Y67956D01*
Y66957D01*
X331330Y66457D01*
X361281Y57082D02*
Y55083D01*
X358282D01*
Y57082D01*
X359781Y55083D02*
Y56083D01*
X358282Y60082D02*
Y58082D01*
X360281Y60082D01*
X360781D01*
X361281Y59582D01*
Y58582D01*
X360781Y58082D01*
X359781Y61081D02*
Y63081D01*
X358282Y64080D02*
X360281D01*
X361281Y65080D01*
X360281Y66080D01*
X358282D01*
X359781D01*
Y64080D01*
X358282Y67079D02*
Y68079D01*
Y67579D01*
X361281D01*
X360781Y67079D01*
X371292Y57015D02*
Y55016D01*
X368293D01*
Y57015D01*
X369793Y55016D02*
Y56016D01*
X368293Y60014D02*
Y58015D01*
X370293Y60014D01*
X370793D01*
X371292Y59514D01*
Y58515D01*
X370793Y58015D01*
X369793Y61014D02*
Y63013D01*
X368293Y64013D02*
X370293D01*
X371292Y65013D01*
X370293Y66012D01*
X368293D01*
X369793D01*
Y64013D01*
X368293Y69011D02*
Y67012D01*
X370293Y69011D01*
X370793D01*
X371292Y68512D01*
Y67512D01*
X370793Y67012D01*
X381304Y56881D02*
Y54882D01*
X378305D01*
Y56881D01*
X379804Y54882D02*
Y55881D01*
X378305Y59880D02*
Y57881D01*
X380304Y59880D01*
X380804D01*
X381304Y59380D01*
Y58381D01*
X380804Y57881D01*
X379804Y60880D02*
Y62879D01*
X381304Y63879D02*
X378305D01*
Y65378D01*
X378805Y65878D01*
X379305D01*
X379804Y65378D01*
Y63879D01*
Y65378D01*
X380304Y65878D01*
X380804D01*
X381304Y65378D01*
Y63879D01*
X378305Y66878D02*
Y67877D01*
Y67378D01*
X381304D01*
X380804Y66878D01*
X391316Y57015D02*
Y55016D01*
X388316D01*
Y57015D01*
X389816Y55016D02*
Y56016D01*
X388316Y60014D02*
Y58015D01*
X390316Y60014D01*
X390816D01*
X391316Y59514D01*
Y58515D01*
X390816Y58015D01*
X389816Y61014D02*
Y63013D01*
X391316Y64013D02*
X388316D01*
Y65513D01*
X388816Y66012D01*
X389316D01*
X389816Y65513D01*
Y64013D01*
Y65513D01*
X390316Y66012D01*
X390816D01*
X391316Y65513D01*
Y64013D01*
X388316Y69011D02*
Y67012D01*
X390316Y69011D01*
X390816D01*
X391316Y68512D01*
Y67512D01*
X390816Y67012D01*
X191763Y47862D02*
Y49861D01*
X191263D01*
X189264Y47862D01*
X188764D01*
Y49861D01*
X190263Y50861D02*
Y52861D01*
X188764Y53860D02*
X190763D01*
X191763Y54860D01*
X190763Y55860D01*
X188764D01*
X190263D01*
Y53860D01*
X188764Y56859D02*
Y57859D01*
Y57359D01*
X191763D01*
X191263Y56859D01*
X200773Y47488D02*
Y49487D01*
X200273D01*
X198274Y47488D01*
X197774D01*
Y49487D01*
X199274Y50487D02*
Y52486D01*
X197774Y53486D02*
X199774D01*
X200773Y54486D01*
X199774Y55485D01*
X197774D01*
X199274D01*
Y53486D01*
X197774Y58484D02*
Y56485D01*
X199774Y58484D01*
X200273D01*
X200773Y57984D01*
Y56985D01*
X200273Y56485D01*
X211763Y47862D02*
Y49861D01*
X211263D01*
X209264Y47862D01*
X208764D01*
Y49861D01*
X210263Y50861D02*
Y52861D01*
X211763Y53860D02*
X208764D01*
Y55360D01*
X209264Y55860D01*
X209764D01*
X210263Y55360D01*
Y53860D01*
Y55360D01*
X210763Y55860D01*
X211263D01*
X211763Y55360D01*
Y53860D01*
X208764Y56859D02*
Y57859D01*
Y57359D01*
X211763D01*
X211263Y56859D01*
X221763Y47862D02*
Y49861D01*
X221263D01*
X219264Y47862D01*
X218764D01*
Y49861D01*
X220263Y50861D02*
Y52861D01*
X221763Y53860D02*
X218764D01*
Y55360D01*
X219264Y55860D01*
X219763D01*
X220263Y55360D01*
Y53860D01*
Y55360D01*
X220763Y55860D01*
X221263D01*
X221763Y55360D01*
Y53860D01*
X218764Y58859D02*
Y56859D01*
X220763Y58859D01*
X221263D01*
X221763Y58359D01*
Y57359D01*
X221263Y56859D01*
X132412Y54982D02*
X131912D01*
X130912Y55982D01*
X131912Y56981D01*
X132412D01*
X130912Y55982D02*
X129413D01*
X130912Y57981D02*
Y59980D01*
X129413Y60980D02*
X131412D01*
X132412Y61980D01*
X131412Y62980D01*
X129413D01*
X130912D01*
Y60980D01*
X129413Y63979D02*
Y64979D01*
Y64479D01*
X132412D01*
X131912Y63979D01*
X142105Y55305D02*
X141605D01*
X140605Y56305D01*
X141605Y57305D01*
X142105D01*
X140605Y56305D02*
X139106D01*
X140605Y58304D02*
Y60303D01*
X139106Y61303D02*
X141105D01*
X142105Y62303D01*
X141105Y63303D01*
X139106D01*
X140605D01*
Y61303D01*
X139106Y66302D02*
Y64302D01*
X141105Y66302D01*
X141605D01*
X142105Y65802D01*
Y64802D01*
X141605Y64302D01*
X152659Y54928D02*
X152159D01*
X151159Y55928D01*
X152159Y56928D01*
X152659D01*
X151159Y55928D02*
X149660D01*
X151159Y57927D02*
Y59927D01*
X152659Y60926D02*
X149660D01*
Y62426D01*
X150160Y62926D01*
X150660D01*
X151159Y62426D01*
Y60926D01*
Y62426D01*
X151659Y62926D01*
X152159D01*
X152659Y62426D01*
Y60926D01*
X149660Y63925D02*
Y64925D01*
Y64425D01*
X152659D01*
X152159Y63925D01*
X160736Y55090D02*
X160236D01*
X159237Y56089D01*
X160236Y57089D01*
X160736D01*
X159237Y56089D02*
X157737D01*
X159237Y58089D02*
Y60088D01*
X160736Y61088D02*
X157737D01*
Y62587D01*
X158237Y63087D01*
X158737D01*
X159237Y62587D01*
Y61088D01*
Y62587D01*
X159737Y63087D01*
X160236D01*
X160736Y62587D01*
Y61088D01*
X157737Y66086D02*
Y64087D01*
X159737Y66086D01*
X160236D01*
X160736Y65586D01*
Y64587D01*
X160236Y64087D01*
X102446Y54917D02*
X99448Y56916D01*
X102446D02*
X99448Y54917D01*
X100947Y57916D02*
Y59916D01*
X102446Y60915D02*
X99448D01*
Y62415D01*
X99947Y62915D01*
X100447D01*
X100947Y62415D01*
Y60915D01*
Y62415D01*
X101447Y62915D01*
X101947D01*
X102446Y62415D01*
Y60915D01*
X99448Y65914D02*
Y63914D01*
X101447Y65914D01*
X101947D01*
X102446Y65414D01*
Y64414D01*
X101947Y63914D01*
X92445Y55187D02*
X89446Y57187D01*
X92445D02*
X89446Y55187D01*
X90946Y58187D02*
Y60186D01*
X92445Y61186D02*
X89446D01*
Y62685D01*
X89946Y63185D01*
X90446D01*
X90946Y62685D01*
Y61186D01*
Y62685D01*
X91446Y63185D01*
X91945D01*
X92445Y62685D01*
Y61186D01*
X89446Y64185D02*
Y65184D01*
Y64684D01*
X92445D01*
X91945Y64185D01*
X82336Y55187D02*
X79337Y57187D01*
X82336D02*
X79337Y55187D01*
X80836Y58187D02*
Y60186D01*
X79337Y61186D02*
X81336D01*
X82336Y62185D01*
X81336Y63185D01*
X79337D01*
X80836D01*
Y61186D01*
X79337Y66184D02*
Y64185D01*
X81336Y66184D01*
X81836D01*
X82336Y65684D01*
Y64684D01*
X81836Y64185D01*
X72335Y55025D02*
X69336Y57025D01*
X72335D02*
X69336Y55025D01*
X70835Y58024D02*
Y60024D01*
X69336Y61023D02*
X71335D01*
X72335Y62023D01*
X71335Y63023D01*
X69336D01*
X70835D01*
Y61023D01*
X69336Y64022D02*
Y65022D01*
Y64522D01*
X72335D01*
X71835Y64022D01*
X78294Y424993D02*
Y421994D01*
Y423493D01*
X76294D01*
Y424993D01*
Y421994D01*
X75295Y424993D02*
X73295D01*
X74295D01*
Y421994D01*
X72296D02*
Y424993D01*
X70796D01*
X70296Y424493D01*
Y423493D01*
X70796Y422993D01*
X72296D01*
X71296D02*
X70296Y421994D01*
X69297D02*
X68297D01*
X68797D01*
Y424993D01*
X69297Y424493D01*
X158794Y425393D02*
Y422394D01*
Y423893D01*
X156794D01*
Y425393D01*
Y422394D01*
X155795Y425393D02*
X153795D01*
X154795D01*
Y422394D01*
X152796D02*
Y425393D01*
X151296D01*
X150796Y424893D01*
Y423893D01*
X151296Y423393D01*
X152796D01*
X151796D02*
X150796Y422394D01*
X149797Y424893D02*
X149297Y425393D01*
X148297D01*
X147797Y424893D01*
Y424393D01*
X148297Y423893D01*
X148797D01*
X148297D01*
X147797Y423393D01*
Y422893D01*
X148297Y422394D01*
X149297D01*
X149797Y422893D01*
X118594Y425293D02*
Y422294D01*
Y423793D01*
X116594D01*
Y425293D01*
Y422294D01*
X115595Y425293D02*
X113595D01*
X114595D01*
Y422294D01*
X112596D02*
Y425293D01*
X111096D01*
X110596Y424793D01*
Y423793D01*
X111096Y423293D01*
X112596D01*
X111596D02*
X110596Y422294D01*
X107597D02*
X109597D01*
X107597Y424293D01*
Y424793D01*
X108097Y425293D01*
X109097D01*
X109597Y424793D01*
X239494Y425593D02*
Y422594D01*
Y424093D01*
X237494D01*
Y425593D01*
Y422594D01*
X236495Y425593D02*
X234495D01*
X235495D01*
Y422594D01*
X233496Y425593D02*
Y422594D01*
X231996D01*
X231496Y423094D01*
Y423593D01*
X231996Y424093D01*
X233496D01*
X231996D01*
X231496Y424593D01*
Y425093D01*
X231996Y425593D01*
X233496D01*
X230497D02*
Y422594D01*
X228997D01*
X228497Y423094D01*
Y425093D01*
X228997Y425593D01*
X230497D01*
X429947Y246388D02*
X427947D01*
X426948Y247387D01*
X427947Y248387D01*
X429947D01*
Y249387D02*
Y250386D01*
Y249886D01*
X426948D01*
Y249387D01*
Y250386D01*
Y251886D02*
X429947D01*
X426948Y253885D01*
X429947D01*
X426948Y257884D02*
X429947D01*
X428947Y258884D01*
X429947Y259883D01*
X426948D01*
X429947Y262382D02*
Y261383D01*
X429447Y260883D01*
X427447D01*
X426948Y261383D01*
Y262382D01*
X427447Y262882D01*
X429447D01*
X429947Y262382D01*
Y263882D02*
Y265881D01*
Y264882D01*
X426948D01*
X384803Y379371D02*
Y377371D01*
X383804Y376372D01*
X382804Y377371D01*
Y379371D01*
X381804D02*
Y376372D01*
X380305D01*
X379805Y376871D01*
Y377371D01*
X380305Y377871D01*
X381804D01*
X380305D01*
X379805Y378371D01*
Y378871D01*
X380305Y379371D01*
X381804D01*
X376806D02*
X378805D01*
Y376372D01*
X376806D01*
X378805Y377871D02*
X377806D01*
X375806Y379371D02*
Y376372D01*
X374307D01*
X373807Y376871D01*
Y378871D01*
X374307Y379371D01*
X375806D01*
X196494Y425593D02*
X198494D01*
Y424093D01*
X197494D01*
X198494D01*
Y422594D01*
X195495D02*
Y424593D01*
X194495Y425593D01*
X193495Y424593D01*
Y422594D01*
Y424093D01*
X195495D01*
X192496Y422594D02*
Y425593D01*
X190496Y422594D01*
Y425593D01*
X189497Y422594D02*
X188497D01*
X188997D01*
Y425593D01*
X189497Y425093D01*
X46070Y370356D02*
X48069D01*
Y368856D01*
X47069D01*
X48069D01*
Y367356D01*
X45070D02*
Y369356D01*
X44070Y370356D01*
X43071Y369356D01*
Y367356D01*
Y368856D01*
X45070D01*
X42071Y367356D02*
Y370356D01*
X40072Y367356D01*
Y370356D01*
X37073Y367356D02*
X39072D01*
X37073Y369356D01*
Y369856D01*
X37572Y370356D01*
X38572D01*
X39072Y369856D01*
X389805Y413486D02*
X391804D01*
Y411986D01*
X390805Y412486D01*
X390305D01*
X389805Y411986D01*
Y410987D01*
X390305Y410487D01*
X391304D01*
X391804Y410987D01*
X388805Y413486D02*
Y411487D01*
X387806Y410487D01*
X386806Y411487D01*
Y413486D01*
X380988Y248270D02*
X378989D01*
Y247770D01*
X380988Y245771D01*
Y245271D01*
X378989D01*
X377989Y246771D02*
X375990D01*
X374990Y245271D02*
Y248270D01*
X373990Y247271D01*
X372991Y248270D01*
Y245271D01*
X371991D02*
Y247271D01*
X370991Y248270D01*
X369992Y247271D01*
Y245271D01*
Y246771D01*
X371991D01*
X368992Y248270D02*
X366993Y245271D01*
Y248270D02*
X368992Y245271D01*
X363493Y151394D02*
X360994D01*
X360494Y151893D01*
Y152893D01*
X360994Y153393D01*
X363493D01*
X360494Y154393D02*
X363493D01*
Y155892D01*
X362993Y156392D01*
X361993D01*
X361493Y155892D01*
Y154393D01*
Y155392D02*
X360494Y156392D01*
X363493Y157392D02*
X360494Y159391D01*
X363493D02*
X360494Y157392D01*
X363493Y160391D02*
X360494D01*
Y161890D01*
X360994Y162390D01*
X362993D01*
X363493Y161890D01*
Y160391D01*
X388020Y220229D02*
X387520D01*
X386520Y221228D01*
X387520Y222228D01*
X388020D01*
X386520Y221228D02*
X385021D01*
X386520Y223228D02*
Y225227D01*
X385021Y226227D02*
X388020D01*
X387020Y227226D01*
X388020Y228226D01*
X385021D01*
X388020Y229226D02*
Y230225D01*
Y229726D01*
X385021D01*
Y229226D01*
Y230225D01*
Y231725D02*
X388020D01*
X385021Y233724D01*
X388020D01*
X392856Y180668D02*
X393356Y180168D01*
Y179168D01*
X392856Y178669D01*
X390857D01*
X390357Y179168D01*
Y180168D01*
X390857Y180668D01*
X391857D01*
Y179668D01*
X390357Y181668D02*
X393356D01*
X390357Y183667D01*
X393356D01*
Y184667D02*
X390357D01*
Y186166D01*
X390857Y186666D01*
X392856D01*
X393356Y186166D01*
Y184667D01*
X189820Y267731D02*
X192819D01*
Y269231D01*
X192319Y269731D01*
X191320D01*
X190820Y269231D01*
Y267731D01*
Y268731D02*
X189820Y269731D01*
X192819Y272730D02*
Y270730D01*
X189820D01*
Y272730D01*
X191320Y270730D02*
Y271730D01*
X192319Y275729D02*
X192819Y275229D01*
Y274229D01*
X192319Y273729D01*
X191819D01*
X191320Y274229D01*
Y275229D01*
X190820Y275729D01*
X190320D01*
X189820Y275229D01*
Y274229D01*
X190320Y273729D01*
X192819Y278728D02*
Y276728D01*
X189820D01*
Y278728D01*
X191320Y276728D02*
Y277728D01*
X192819Y279727D02*
Y281727D01*
Y280727D01*
X189820D01*
X207151Y323255D02*
X207651Y322755D01*
Y321756D01*
X207151Y321256D01*
X206651D01*
X206151Y321756D01*
Y322755D01*
X205651Y323255D01*
X205152D01*
X204652Y322755D01*
Y321756D01*
X205152Y321256D01*
X207651Y324255D02*
X204652D01*
X205651Y325254D01*
X204652Y326254D01*
X207651D01*
Y328753D02*
Y327754D01*
X207151Y327254D01*
X205152D01*
X204652Y327754D01*
Y328753D01*
X205152Y329253D01*
X207151D01*
X207651Y328753D01*
X204652Y330253D02*
X206651Y332252D01*
X207651Y333252D02*
Y335251D01*
Y334251D01*
X204652D01*
X207651Y336251D02*
X204652D01*
Y337750D01*
X205152Y338250D01*
X207151D01*
X207651Y337750D01*
Y336251D01*
Y340749D02*
Y339750D01*
X207151Y339250D01*
X205152D01*
X204652Y339750D01*
Y340749D01*
X205152Y341249D01*
X207151D01*
X207651Y340749D01*
X206481Y300770D02*
Y302769D01*
Y301769D01*
X203482D01*
X206481Y303769D02*
X203482D01*
Y305268D01*
X203982Y305768D01*
X205981D01*
X206481Y305268D01*
Y303769D01*
Y306768D02*
Y307768D01*
Y307268D01*
X203482D01*
Y306768D01*
Y307768D01*
X220891Y282328D02*
Y284328D01*
Y283328D01*
X217892D01*
X220391Y287327D02*
X220891Y286827D01*
Y285827D01*
X220391Y285327D01*
X218392D01*
X217892Y285827D01*
Y286827D01*
X218392Y287327D01*
X220891Y288326D02*
X217892D01*
X218892D01*
X220891Y290326D01*
X219392Y288826D01*
X217892Y290326D01*
Y291325D02*
X219891Y293325D01*
X220391Y296324D02*
X220891Y295824D01*
Y294824D01*
X220391Y294324D01*
X219891D01*
X219392Y294824D01*
Y295824D01*
X218892Y296324D01*
X218392D01*
X217892Y295824D01*
Y294824D01*
X218392Y294324D01*
X220891Y297323D02*
X217892D01*
X218892Y298323D01*
X217892Y299323D01*
X220891D01*
X220391Y302322D02*
X220891Y301822D01*
Y300822D01*
X220391Y300323D01*
X218392D01*
X217892Y300822D01*
Y301822D01*
X218392Y302322D01*
X220891Y303322D02*
X217892D01*
Y305321D01*
X220891Y306321D02*
X217892D01*
X218892D01*
X220891Y308320D01*
X219392Y306820D01*
X217892Y308320D01*
X284193Y296493D02*
Y294494D01*
X281194D01*
Y296493D01*
X282693Y294494D02*
Y295493D01*
X281194Y297493D02*
X284193D01*
Y298992D01*
X283693Y299492D01*
X282693D01*
X282193Y298992D01*
Y297493D01*
Y298492D02*
X281194Y299492D01*
Y300492D02*
X283193D01*
X284193Y301491D01*
X283193Y302491D01*
X281194D01*
X282693D01*
Y300492D01*
X283693Y305490D02*
X284193Y304990D01*
Y303991D01*
X283693Y303491D01*
X283193D01*
X282693Y303991D01*
Y304990D01*
X282193Y305490D01*
X281694D01*
X281194Y304990D01*
Y303991D01*
X281694Y303491D01*
X284193Y308489D02*
Y306490D01*
X281194D01*
Y308489D01*
X282693Y306490D02*
Y307489D01*
X84694Y263393D02*
Y260894D01*
X84194Y260394D01*
X83194D01*
X82694Y260894D01*
Y263393D01*
X79695Y262893D02*
X80195Y263393D01*
X81195D01*
X81695Y262893D01*
Y262393D01*
X81195Y261893D01*
X80195D01*
X79695Y261393D01*
Y260894D01*
X80195Y260394D01*
X81195D01*
X81695Y260894D01*
X78696Y263393D02*
Y260394D01*
X77196D01*
X76696Y260894D01*
Y261393D01*
X77196Y261893D01*
X78696D01*
X77196D01*
X76696Y262393D01*
Y262893D01*
X77196Y263393D01*
X78696D01*
X75697Y260394D02*
Y263393D01*
X73697Y260394D01*
Y263393D01*
X370294Y583694D02*
X372293D01*
Y585193D01*
X371793Y585693D01*
X370294D01*
Y586693D02*
X373293D01*
Y588192D01*
X372793Y588692D01*
X371793D01*
X371293Y588192D01*
Y586693D01*
Y587692D02*
X370294Y588692D01*
X372793Y591691D02*
X373293Y591191D01*
Y590192D01*
X372793Y589692D01*
X372293D01*
X371793Y590192D01*
Y591191D01*
X371293Y591691D01*
X370794D01*
X370294Y591191D01*
Y590192D01*
X370794Y589692D01*
X373293Y592691D02*
Y594690D01*
Y593690D01*
X370294D01*
X404071Y507545D02*
X406071D01*
Y506045D01*
X405071Y506545D01*
X404571D01*
X404071Y506045D01*
Y505046D01*
X404571Y504546D01*
X405571D01*
X406071Y505046D01*
X403071Y507545D02*
Y505545D01*
X402072Y504546D01*
X401072Y505545D01*
Y507545D01*
X355341Y707529D02*
Y705530D01*
X354341Y704530D01*
X353341Y705530D01*
Y707529D01*
X352342D02*
X351342D01*
X351842D01*
Y704530D01*
X352342D01*
X351342D01*
X349843D02*
Y707529D01*
X347843Y704530D01*
Y707529D01*
X341845D02*
X343845D01*
Y706030D01*
X342845D01*
X343845D01*
Y704530D01*
X338846Y707529D02*
X340845D01*
Y704530D01*
X338846D01*
X340845Y706030D02*
X339846D01*
X337846Y707529D02*
X335847D01*
X336847D01*
Y704530D01*
X334847D02*
X333348D01*
X332848Y705030D01*
X333348Y705530D01*
X334348D01*
X334847Y706030D01*
X334348Y706530D01*
X332848D01*
X387502Y706447D02*
Y704448D01*
X386502Y703448D01*
X385503Y704448D01*
Y706447D01*
X384503D02*
X383503D01*
X384003D01*
Y703448D01*
X384503D01*
X383503D01*
X382004D02*
Y706447D01*
X380005Y703448D01*
Y706447D01*
X376006D02*
Y703448D01*
X374506D01*
X374006Y703948D01*
Y704448D01*
X374506Y704948D01*
X376006D01*
X374506D01*
X374006Y705447D01*
Y705947D01*
X374506Y706447D01*
X376006D01*
X371007D02*
X373007D01*
Y703448D01*
X371007D01*
X373007Y704948D02*
X372007D01*
X370008Y706447D02*
Y703448D01*
X368508D01*
X368008Y703948D01*
Y705947D01*
X368508Y706447D01*
X370008D01*
X404191Y497184D02*
X404691Y497683D01*
X405690D01*
X406190Y497184D01*
Y495184D01*
X405690Y494685D01*
X404691D01*
X404191Y495184D01*
Y496184D01*
X405191D01*
X403191Y494685D02*
Y497683D01*
X401192Y494685D01*
Y497683D01*
X400192D02*
Y494685D01*
X398693D01*
X398193Y495184D01*
Y497184D01*
X398693Y497683D01*
X400192D01*
X56791Y666931D02*
Y664432D01*
X56291Y663932D01*
X55291D01*
X54791Y664432D01*
Y666931D01*
X51792Y666431D02*
X52292Y666931D01*
X53292D01*
X53792Y666431D01*
Y665931D01*
X53292Y665431D01*
X52292D01*
X51792Y664931D01*
Y664432D01*
X52292Y663932D01*
X53292D01*
X53792Y664432D01*
X50793Y666931D02*
Y663932D01*
X49293D01*
X48793Y664432D01*
Y664931D01*
X49293Y665431D01*
X50793D01*
X49293D01*
X48793Y665931D01*
Y666431D01*
X49293Y666931D01*
X50793D01*
X47794Y663932D02*
Y666931D01*
X46294D01*
X45794Y666431D01*
Y665431D01*
X46294Y664931D01*
X47794D01*
X423366Y756487D02*
X423866Y756987D01*
X424865D01*
X425365Y756487D01*
Y754487D01*
X424865Y753988D01*
X423866D01*
X423366Y754487D01*
Y755487D01*
X424366D01*
X422366Y753988D02*
Y756987D01*
X420367Y753988D01*
Y756987D01*
X419367D02*
Y753988D01*
X417868D01*
X417368Y754487D01*
Y756487D01*
X417868Y756987D01*
X419367D01*
X297272Y696125D02*
X295273Y693126D01*
Y696125D02*
X297272Y693126D01*
X294273Y694625D02*
X292274D01*
X291274Y693126D02*
Y696125D01*
X290274Y695125D01*
X289275Y696125D01*
Y693126D01*
X288275Y696125D02*
X287275D01*
X287775D01*
Y693126D01*
X288275D01*
X287275D01*
X285776D02*
Y696125D01*
X283776Y693126D01*
Y696125D01*
X99894Y830393D02*
Y828393D01*
X98894Y827394D01*
X97894Y828393D01*
Y830393D01*
X96895D02*
Y827394D01*
Y828893D01*
X94895D01*
Y830393D01*
Y827394D01*
X91896Y830393D02*
X93896D01*
Y827394D01*
X91896D01*
X93896Y828893D02*
X92896D01*
X90897Y827394D02*
Y829393D01*
X89897Y830393D01*
X88897Y829393D01*
Y827394D01*
Y828893D01*
X90897D01*
X87898Y830393D02*
X85898D01*
X86898D01*
Y827394D01*
X353393Y557394D02*
X350893D01*
X350394Y557894D01*
Y558893D01*
X350893Y559393D01*
X353393D01*
Y560393D02*
Y562392D01*
Y561392D01*
X350394D01*
X353393Y563392D02*
X350394Y565391D01*
X353393D02*
X350394Y563392D01*
X353393Y566391D02*
X350394D01*
Y567890D01*
X350893Y568390D01*
X352893D01*
X353393Y567890D01*
Y566391D01*
X406363Y487162D02*
Y485163D01*
X405364Y484163D01*
X404364Y485163D01*
Y487162D01*
X403364Y484163D02*
Y487162D01*
X402365Y486163D01*
X401365Y487162D01*
Y484163D01*
X398866Y487162D02*
X399866D01*
X400365Y486663D01*
Y484663D01*
X399866Y484163D01*
X398866D01*
X398366Y484663D01*
Y486663D01*
X398866Y487162D01*
X397366D02*
X395367D01*
X396367D01*
Y484163D01*
X139894Y829993D02*
Y827993D01*
X138894Y826994D01*
X137894Y827993D01*
Y829993D01*
X136895D02*
Y826994D01*
Y828493D01*
X134895D01*
Y829993D01*
Y826994D01*
X131896Y829993D02*
X133896D01*
Y826994D01*
X131896D01*
X133896Y828493D02*
X132896D01*
X130897Y826994D02*
Y828993D01*
X129897Y829993D01*
X128897Y828993D01*
Y826994D01*
Y828493D01*
X130897D01*
X127898Y829993D02*
X125898D01*
X126898D01*
Y826994D01*
X259394Y830593D02*
Y828593D01*
X258394Y827594D01*
X257394Y828593D01*
Y830593D01*
X256395D02*
Y827594D01*
X254895D01*
X254395Y828094D01*
Y828593D01*
X254895Y829093D01*
X256395D01*
X254895D01*
X254395Y829593D01*
Y830093D01*
X254895Y830593D01*
X256395D01*
X251396D02*
X253396D01*
Y827594D01*
X251396D01*
X253396Y829093D02*
X252396D01*
X250397Y830593D02*
Y827594D01*
X248897D01*
X248397Y828094D01*
Y830093D01*
X248897Y830593D01*
X250397D01*
X220594D02*
Y828593D01*
X219594Y827594D01*
X218594Y828593D01*
Y830593D01*
X217595D02*
Y827594D01*
Y829093D01*
X215595D01*
Y830593D01*
Y827594D01*
X212596Y830593D02*
X214596D01*
Y827594D01*
X212596D01*
X214596Y829093D02*
X213596D01*
X211597Y827594D02*
Y829593D01*
X210597Y830593D01*
X209597Y829593D01*
Y827594D01*
Y829093D01*
X211597D01*
X208598Y830593D02*
X206598D01*
X207598D01*
Y827594D01*
X179894Y830393D02*
Y828393D01*
X178894Y827394D01*
X177894Y828393D01*
Y830393D01*
X176895D02*
Y827394D01*
Y828893D01*
X174895D01*
Y830393D01*
Y827394D01*
X171896Y830393D02*
X173896D01*
Y827394D01*
X171896D01*
X173896Y828893D02*
X172896D01*
X170897Y827394D02*
Y829393D01*
X169897Y830393D01*
X168897Y829393D01*
Y827394D01*
Y828893D01*
X170897D01*
X167898Y830393D02*
X165898D01*
X166898D01*
Y827394D01*
X351394Y757693D02*
Y755693D01*
X350394Y754694D01*
X349394Y755693D01*
Y757693D01*
X348395D02*
Y754694D01*
Y756193D01*
X346395D01*
Y757693D01*
Y754694D01*
X343396Y757693D02*
X345396D01*
Y754694D01*
X343396D01*
X345396Y756193D02*
X344396D01*
X342397Y754694D02*
Y756693D01*
X341397Y757693D01*
X340397Y756693D01*
Y754694D01*
Y756193D01*
X342397D01*
X339398Y757693D02*
X337398D01*
X338398D01*
Y754694D01*
X342794Y803293D02*
X343294Y803793D01*
X344294D01*
X344794Y803293D01*
Y801293D01*
X344294Y800794D01*
X343294D01*
X342794Y801293D01*
Y802293D01*
X343794D01*
X341795Y800794D02*
Y803793D01*
X339795Y800794D01*
Y803793D01*
X338796D02*
Y800794D01*
X337296D01*
X336796Y801293D01*
Y803293D01*
X337296Y803793D01*
X338796D01*
X420753Y611315D02*
X422753D01*
Y609815D01*
X421753D01*
X422753D01*
Y608316D01*
X417754Y610815D02*
X418254Y611315D01*
X419254D01*
X419754Y610815D01*
Y608816D01*
X419254Y608316D01*
X418254D01*
X417754Y608816D01*
Y609815D01*
X418754D01*
X416755Y608316D02*
Y611315D01*
X414755Y608316D01*
Y611315D01*
X413756D02*
Y608316D01*
X412256D01*
X411756Y608816D01*
Y610815D01*
X412256Y611315D01*
X413756D01*
X404191Y477015D02*
X404691Y477515D01*
X405690D01*
X406190Y477015D01*
Y475015D01*
X405690Y474515D01*
X404691D01*
X404191Y475015D01*
Y476015D01*
X405191D01*
X403191Y474515D02*
Y477515D01*
X401192Y474515D01*
Y477515D01*
X400192D02*
Y474515D01*
X398693D01*
X398193Y475015D01*
Y477015D01*
X398693Y477515D01*
X400192D01*
X383148Y585580D02*
Y583581D01*
X381649D01*
X382149Y584580D01*
Y585080D01*
X381649Y585580D01*
X380649D01*
X380149Y585080D01*
Y584081D01*
X380649Y583581D01*
X383148Y586580D02*
X381149D01*
X380149Y587579D01*
X381149Y588579D01*
X383148D01*
X421765Y734469D02*
X422265Y734969D01*
X423265D01*
X423764Y734469D01*
Y732470D01*
X423265Y731970D01*
X422265D01*
X421765Y732470D01*
Y733469D01*
X422765D01*
X420765Y731970D02*
Y734969D01*
X418766Y731970D01*
Y734969D01*
X417766D02*
Y731970D01*
X416267D01*
X415767Y732470D01*
Y734469D01*
X416267Y734969D01*
X417766D01*
X337867Y696330D02*
Y695830D01*
X336867Y694831D01*
X335867Y695830D01*
Y696330D01*
X336867Y694831D02*
Y693331D01*
X334868Y694831D02*
X332868D01*
X331869Y693331D02*
Y696330D01*
X330869Y695331D01*
X329869Y696330D01*
Y693331D01*
X328870Y696330D02*
X327870D01*
X328370D01*
Y693331D01*
X328870D01*
X327870D01*
X326370D02*
Y696330D01*
X324371Y693331D01*
Y696330D01*
X338240Y653390D02*
Y652890D01*
X337240Y651890D01*
X336241Y652890D01*
Y653390D01*
X337240Y651890D02*
Y650390D01*
X335241Y651890D02*
X333242D01*
X332242Y650390D02*
Y653390D01*
X331242Y652390D01*
X330243Y653390D01*
Y650390D01*
X329243D02*
Y652390D01*
X328243Y653390D01*
X327244Y652390D01*
Y650390D01*
Y651890D01*
X329243D01*
X326244Y653390D02*
X324244Y650390D01*
Y653390D02*
X326244Y650390D01*
X379441Y696444D02*
X377442D01*
Y695945D01*
X379441Y693945D01*
Y693445D01*
X377442D01*
X376442Y694945D02*
X374443D01*
X373443Y693445D02*
Y696444D01*
X372443Y695445D01*
X371444Y696444D01*
Y693445D01*
X370444Y696444D02*
X369444D01*
X369944D01*
Y693445D01*
X370444D01*
X369444D01*
X367945D02*
Y696444D01*
X365945Y693445D01*
Y696444D01*
X298498Y652993D02*
X296498Y649994D01*
Y652993D02*
X298498Y649994D01*
X295499Y651493D02*
X293499D01*
X292500Y649994D02*
Y652993D01*
X291500Y651993D01*
X290500Y652993D01*
Y649994D01*
X289501D02*
Y651993D01*
X288501Y652993D01*
X287501Y651993D01*
Y649994D01*
Y651493D01*
X289501D01*
X286502Y652993D02*
X284502Y649994D01*
Y652993D02*
X286502Y649994D01*
X272952Y460271D02*
Y462270D01*
X272452D01*
X270453Y460271D01*
X269953D01*
Y462270D01*
X271453Y463270D02*
Y465270D01*
X272952Y466269D02*
X269953D01*
Y467769D01*
X270453Y468268D01*
X270953D01*
X271453Y467769D01*
Y466269D01*
Y467769D01*
X271952Y468268D01*
X272452D01*
X272952Y467769D01*
Y466269D01*
X269953Y471268D02*
Y469268D01*
X271952Y471268D01*
X272452D01*
X272952Y470768D01*
Y469768D01*
X272452Y469268D01*
X262524Y460049D02*
Y462049D01*
X262024D01*
X260024Y460049D01*
X259525D01*
Y462049D01*
X261024Y463048D02*
Y465048D01*
X262524Y466047D02*
X259525D01*
Y467547D01*
X260024Y468047D01*
X260524D01*
X261024Y467547D01*
Y466047D01*
Y467547D01*
X261524Y468047D01*
X262024D01*
X262524Y467547D01*
Y466047D01*
X259525Y469046D02*
Y470046D01*
Y469546D01*
X262524D01*
X262024Y469046D01*
X252909Y452579D02*
Y454578D01*
X252409D01*
X250410Y452579D01*
X249910D01*
Y454578D01*
X251409Y455578D02*
Y457578D01*
X249910Y458577D02*
X251909D01*
X252909Y459577D01*
X251909Y460577D01*
X249910D01*
X251409D01*
Y458577D01*
X249910Y463576D02*
Y461576D01*
X251909Y463576D01*
X252409D01*
X252909Y463076D01*
Y462076D01*
X252409Y461576D01*
X242850Y452431D02*
Y454431D01*
X242350D01*
X240351Y452431D01*
X239851D01*
Y454431D01*
X241351Y455430D02*
Y457430D01*
X239851Y458429D02*
X241850D01*
X242850Y459429D01*
X241850Y460429D01*
X239851D01*
X241351D01*
Y458429D01*
X239851Y461428D02*
Y462428D01*
Y461928D01*
X242850D01*
X242350Y461428D01*
X301964Y461892D02*
Y459893D01*
X298965D01*
Y461892D01*
X300465Y459893D02*
Y460892D01*
X298965Y462892D02*
Y463891D01*
Y463391D01*
X301964D01*
X301465Y462892D01*
X300465Y465391D02*
Y467390D01*
X298965Y468390D02*
X300965D01*
X301964Y469389D01*
X300965Y470389D01*
X298965D01*
X300465D01*
Y468390D01*
X298965Y471389D02*
Y472389D01*
Y471889D01*
X301964D01*
X301465Y471389D01*
X311876Y461997D02*
Y459998D01*
X308876D01*
Y461997D01*
X310376Y459998D02*
Y460998D01*
X308876Y462997D02*
Y463997D01*
Y463497D01*
X311876D01*
X311376Y462997D01*
X310376Y465496D02*
Y467496D01*
X308876Y468495D02*
X310876D01*
X311876Y469495D01*
X310876Y470495D01*
X308876D01*
X310376D01*
Y468495D01*
X308876Y473494D02*
Y471494D01*
X310876Y473494D01*
X311376D01*
X311876Y472994D01*
Y471994D01*
X311376Y471494D01*
X321893Y462493D02*
Y460494D01*
X318894D01*
Y462493D01*
X320393Y460494D02*
Y461493D01*
X318894Y463493D02*
Y464492D01*
Y463993D01*
X321893D01*
X321393Y463493D01*
X320393Y465992D02*
Y467991D01*
X321893Y468991D02*
X318894D01*
Y470491D01*
X319393Y470990D01*
X319893D01*
X320393Y470491D01*
Y468991D01*
Y470491D01*
X320893Y470990D01*
X321393D01*
X321893Y470491D01*
Y468991D01*
X318894Y471990D02*
Y472990D01*
Y472490D01*
X321893D01*
X321393Y471990D01*
X331830Y461960D02*
Y459961D01*
X328831D01*
Y461960D01*
X330330Y459961D02*
Y460960D01*
X328831Y462959D02*
Y463959D01*
Y463459D01*
X331830D01*
X331330Y462959D01*
X330330Y465459D02*
Y467458D01*
X331830Y468458D02*
X328831D01*
Y469957D01*
X329330Y470457D01*
X329830D01*
X330330Y469957D01*
Y468458D01*
Y469957D01*
X330830Y470457D01*
X331330D01*
X331830Y469957D01*
Y468458D01*
X328831Y473456D02*
Y471457D01*
X330830Y473456D01*
X331330D01*
X331830Y472956D01*
Y471957D01*
X331330Y471457D01*
X361281Y462082D02*
Y460083D01*
X358282D01*
Y462082D01*
X359781Y460083D02*
Y461083D01*
X358282Y465082D02*
Y463082D01*
X360281Y465082D01*
X360781D01*
X361281Y464582D01*
Y463582D01*
X360781Y463082D01*
X359781Y466081D02*
Y468081D01*
X358282Y469080D02*
X360281D01*
X361281Y470080D01*
X360281Y471080D01*
X358282D01*
X359781D01*
Y469080D01*
X358282Y472079D02*
Y473079D01*
Y472579D01*
X361281D01*
X360781Y472079D01*
X371292Y462015D02*
Y460016D01*
X368293D01*
Y462015D01*
X369793Y460016D02*
Y461016D01*
X368293Y465014D02*
Y463015D01*
X370293Y465014D01*
X370793D01*
X371292Y464514D01*
Y463515D01*
X370793Y463015D01*
X369793Y466014D02*
Y468013D01*
X368293Y469013D02*
X370293D01*
X371292Y470013D01*
X370293Y471012D01*
X368293D01*
X369793D01*
Y469013D01*
X368293Y474012D02*
Y472012D01*
X370293Y474012D01*
X370793D01*
X371292Y473512D01*
Y472512D01*
X370793Y472012D01*
X381304Y461881D02*
Y459882D01*
X378305D01*
Y461881D01*
X379804Y459882D02*
Y460881D01*
X378305Y464880D02*
Y462881D01*
X380304Y464880D01*
X380804D01*
X381304Y464380D01*
Y463380D01*
X380804Y462881D01*
X379804Y465880D02*
Y467879D01*
X381304Y468879D02*
X378305D01*
Y470378D01*
X378805Y470878D01*
X379305D01*
X379804Y470378D01*
Y468879D01*
Y470378D01*
X380304Y470878D01*
X380804D01*
X381304Y470378D01*
Y468879D01*
X378305Y471878D02*
Y472877D01*
Y472378D01*
X381304D01*
X380804Y471878D01*
X391316Y462015D02*
Y460016D01*
X388316D01*
Y462015D01*
X389816Y460016D02*
Y461016D01*
X388316Y465014D02*
Y463015D01*
X390316Y465014D01*
X390816D01*
X391316Y464514D01*
Y463515D01*
X390816Y463015D01*
X389816Y466014D02*
Y468013D01*
X391316Y469013D02*
X388316D01*
Y470513D01*
X388816Y471012D01*
X389316D01*
X389816Y470513D01*
Y469013D01*
Y470513D01*
X390316Y471012D01*
X390816D01*
X391316Y470513D01*
Y469013D01*
X388316Y474012D02*
Y472012D01*
X390316Y474012D01*
X390816D01*
X391316Y473512D01*
Y472512D01*
X390816Y472012D01*
X191763Y452862D02*
Y454861D01*
X191263D01*
X189264Y452862D01*
X188764D01*
Y454861D01*
X190263Y455861D02*
Y457861D01*
X188764Y458860D02*
X190763D01*
X191763Y459860D01*
X190763Y460860D01*
X188764D01*
X190263D01*
Y458860D01*
X188764Y461859D02*
Y462859D01*
Y462359D01*
X191763D01*
X191263Y461859D01*
X200773Y452488D02*
Y454487D01*
X200273D01*
X198274Y452488D01*
X197774D01*
Y454487D01*
X199274Y455487D02*
Y457486D01*
X197774Y458486D02*
X199774D01*
X200773Y459485D01*
X199774Y460485D01*
X197774D01*
X199274D01*
Y458486D01*
X197774Y463484D02*
Y461485D01*
X199774Y463484D01*
X200273D01*
X200773Y462984D01*
Y461985D01*
X200273Y461485D01*
X211763Y452862D02*
Y454861D01*
X211263D01*
X209264Y452862D01*
X208764D01*
Y454861D01*
X210263Y455861D02*
Y457861D01*
X211763Y458860D02*
X208764D01*
Y460360D01*
X209264Y460860D01*
X209764D01*
X210263Y460360D01*
Y458860D01*
Y460360D01*
X210763Y460860D01*
X211263D01*
X211763Y460360D01*
Y458860D01*
X208764Y461859D02*
Y462859D01*
Y462359D01*
X211763D01*
X211263Y461859D01*
X221763Y452862D02*
Y454861D01*
X221263D01*
X219264Y452862D01*
X218764D01*
Y454861D01*
X220263Y455861D02*
Y457861D01*
X221763Y458860D02*
X218764D01*
Y460360D01*
X219264Y460860D01*
X219763D01*
X220263Y460360D01*
Y458860D01*
Y460360D01*
X220763Y460860D01*
X221263D01*
X221763Y460360D01*
Y458860D01*
X218764Y463859D02*
Y461859D01*
X220763Y463859D01*
X221263D01*
X221763Y463359D01*
Y462359D01*
X221263Y461859D01*
X132412Y459982D02*
X131912D01*
X130912Y460982D01*
X131912Y461981D01*
X132412D01*
X130912Y460982D02*
X129413D01*
X130912Y462981D02*
Y464980D01*
X129413Y465980D02*
X131412D01*
X132412Y466980D01*
X131412Y467979D01*
X129413D01*
X130912D01*
Y465980D01*
X129413Y468979D02*
Y469979D01*
Y469479D01*
X132412D01*
X131912Y468979D01*
X142105Y460305D02*
X141605D01*
X140605Y461305D01*
X141605Y462304D01*
X142105D01*
X140605Y461305D02*
X139106D01*
X140605Y463304D02*
Y465304D01*
X139106Y466303D02*
X141105D01*
X142105Y467303D01*
X141105Y468303D01*
X139106D01*
X140605D01*
Y466303D01*
X139106Y471302D02*
Y469302D01*
X141105Y471302D01*
X141605D01*
X142105Y470802D01*
Y469802D01*
X141605Y469302D01*
X152659Y459928D02*
X152159D01*
X151159Y460928D01*
X152159Y461928D01*
X152659D01*
X151159Y460928D02*
X149660D01*
X151159Y462927D02*
Y464927D01*
X152659Y465926D02*
X149660D01*
Y467426D01*
X150160Y467926D01*
X150660D01*
X151159Y467426D01*
Y465926D01*
Y467426D01*
X151659Y467926D01*
X152159D01*
X152659Y467426D01*
Y465926D01*
X149660Y468925D02*
Y469925D01*
Y469425D01*
X152659D01*
X152159Y468925D01*
X160736Y460090D02*
X160236D01*
X159237Y461089D01*
X160236Y462089D01*
X160736D01*
X159237Y461089D02*
X157737D01*
X159237Y463089D02*
Y465088D01*
X160736Y466088D02*
X157737D01*
Y467587D01*
X158237Y468087D01*
X158737D01*
X159237Y467587D01*
Y466088D01*
Y467587D01*
X159737Y468087D01*
X160236D01*
X160736Y467587D01*
Y466088D01*
X157737Y471086D02*
Y469087D01*
X159737Y471086D01*
X160236D01*
X160736Y470586D01*
Y469587D01*
X160236Y469087D01*
X102446Y459917D02*
X99448Y461917D01*
X102446D02*
X99448Y459917D01*
X100947Y462916D02*
Y464916D01*
X102446Y465915D02*
X99448D01*
Y467415D01*
X99947Y467915D01*
X100447D01*
X100947Y467415D01*
Y465915D01*
Y467415D01*
X101447Y467915D01*
X101947D01*
X102446Y467415D01*
Y465915D01*
X99448Y470914D02*
Y468914D01*
X101447Y470914D01*
X101947D01*
X102446Y470414D01*
Y469414D01*
X101947Y468914D01*
X92445Y460187D02*
X89446Y462187D01*
X92445D02*
X89446Y460187D01*
X90946Y463187D02*
Y465186D01*
X92445Y466186D02*
X89446D01*
Y467685D01*
X89946Y468185D01*
X90446D01*
X90946Y467685D01*
Y466186D01*
Y467685D01*
X91446Y468185D01*
X91945D01*
X92445Y467685D01*
Y466186D01*
X89446Y469185D02*
Y470184D01*
Y469684D01*
X92445D01*
X91945Y469185D01*
X82336Y460187D02*
X79337Y462187D01*
X82336D02*
X79337Y460187D01*
X80836Y463187D02*
Y465186D01*
X79337Y466186D02*
X81336D01*
X82336Y467185D01*
X81336Y468185D01*
X79337D01*
X80836D01*
Y466186D01*
X79337Y471184D02*
Y469185D01*
X81336Y471184D01*
X81836D01*
X82336Y470684D01*
Y469684D01*
X81836Y469185D01*
X72335Y460025D02*
X69336Y462025D01*
X72335D02*
X69336Y460025D01*
X70835Y463024D02*
Y465024D01*
X69336Y466023D02*
X71335D01*
X72335Y467023D01*
X71335Y468023D01*
X69336D01*
X70835D01*
Y466023D01*
X69336Y469022D02*
Y470022D01*
Y469522D01*
X72335D01*
X71835Y469022D01*
X78294Y829993D02*
Y826994D01*
Y828493D01*
X76294D01*
Y829993D01*
Y826994D01*
X75295Y829993D02*
X73295D01*
X74295D01*
Y826994D01*
X72296D02*
Y829993D01*
X70796D01*
X70296Y829493D01*
Y828493D01*
X70796Y827993D01*
X72296D01*
X71296D02*
X70296Y826994D01*
X69297D02*
X68297D01*
X68797D01*
Y829993D01*
X69297Y829493D01*
X158794Y830393D02*
Y827394D01*
Y828893D01*
X156794D01*
Y830393D01*
Y827394D01*
X155795Y830393D02*
X153795D01*
X154795D01*
Y827394D01*
X152796D02*
Y830393D01*
X151296D01*
X150796Y829893D01*
Y828893D01*
X151296Y828393D01*
X152796D01*
X151796D02*
X150796Y827394D01*
X149797Y829893D02*
X149297Y830393D01*
X148297D01*
X147797Y829893D01*
Y829393D01*
X148297Y828893D01*
X148797D01*
X148297D01*
X147797Y828393D01*
Y827894D01*
X148297Y827394D01*
X149297D01*
X149797Y827894D01*
X118594Y830293D02*
Y827294D01*
Y828793D01*
X116594D01*
Y830293D01*
Y827294D01*
X115595Y830293D02*
X113595D01*
X114595D01*
Y827294D01*
X112596D02*
Y830293D01*
X111096D01*
X110596Y829793D01*
Y828793D01*
X111096Y828293D01*
X112596D01*
X111596D02*
X110596Y827294D01*
X107597D02*
X109597D01*
X107597Y829293D01*
Y829793D01*
X108097Y830293D01*
X109097D01*
X109597Y829793D01*
X239494Y830593D02*
Y827594D01*
Y829093D01*
X237494D01*
Y830593D01*
Y827594D01*
X236495Y830593D02*
X234495D01*
X235495D01*
Y827594D01*
X233496Y830593D02*
Y827594D01*
X231996D01*
X231496Y828094D01*
Y828593D01*
X231996Y829093D01*
X233496D01*
X231996D01*
X231496Y829593D01*
Y830093D01*
X231996Y830593D01*
X233496D01*
X230497D02*
Y827594D01*
X228997D01*
X228497Y828094D01*
Y830093D01*
X228997Y830593D01*
X230497D01*
X429947Y651388D02*
X427947D01*
X426948Y652387D01*
X427947Y653387D01*
X429947D01*
Y654387D02*
Y655386D01*
Y654886D01*
X426948D01*
Y654387D01*
Y655386D01*
Y656886D02*
X429947D01*
X426948Y658885D01*
X429947D01*
X426948Y662884D02*
X429947D01*
X428947Y663883D01*
X429947Y664883D01*
X426948D01*
X429947Y667382D02*
Y666383D01*
X429447Y665883D01*
X427447D01*
X426948Y666383D01*
Y667382D01*
X427447Y667882D01*
X429447D01*
X429947Y667382D01*
Y668882D02*
Y670881D01*
Y669882D01*
X426948D01*
X384803Y784371D02*
Y782371D01*
X383804Y781372D01*
X382804Y782371D01*
Y784371D01*
X381804D02*
Y781372D01*
X380305D01*
X379805Y781871D01*
Y782371D01*
X380305Y782871D01*
X381804D01*
X380305D01*
X379805Y783371D01*
Y783871D01*
X380305Y784371D01*
X381804D01*
X376806D02*
X378805D01*
Y781372D01*
X376806D01*
X378805Y782871D02*
X377806D01*
X375806Y784371D02*
Y781372D01*
X374307D01*
X373807Y781871D01*
Y783871D01*
X374307Y784371D01*
X375806D01*
X196494Y830593D02*
X198494D01*
Y829093D01*
X197494D01*
X198494D01*
Y827594D01*
X195495D02*
Y829593D01*
X194495Y830593D01*
X193495Y829593D01*
Y827594D01*
Y829093D01*
X195495D01*
X192496Y827594D02*
Y830593D01*
X190496Y827594D01*
Y830593D01*
X189497Y827594D02*
X188497D01*
X188997D01*
Y830593D01*
X189497Y830093D01*
X46070Y775355D02*
X48069D01*
Y773856D01*
X47069D01*
X48069D01*
Y772356D01*
X45070D02*
Y774356D01*
X44070Y775355D01*
X43071Y774356D01*
Y772356D01*
Y773856D01*
X45070D01*
X42071Y772356D02*
Y775355D01*
X40072Y772356D01*
Y775355D01*
X37073Y772356D02*
X39072D01*
X37073Y774356D01*
Y774856D01*
X37572Y775355D01*
X38572D01*
X39072Y774856D01*
X389805Y818486D02*
X391804D01*
Y816986D01*
X390805Y817486D01*
X390305D01*
X389805Y816986D01*
Y815987D01*
X390305Y815487D01*
X391304D01*
X391804Y815987D01*
X388805Y818486D02*
Y816487D01*
X387806Y815487D01*
X386806Y816487D01*
Y818486D01*
X380988Y653270D02*
X378989D01*
Y652770D01*
X380988Y650771D01*
Y650271D01*
X378989D01*
X377989Y651771D02*
X375990D01*
X374990Y650271D02*
Y653270D01*
X373990Y652271D01*
X372991Y653270D01*
Y650271D01*
X371991D02*
Y652271D01*
X370991Y653270D01*
X369992Y652271D01*
Y650271D01*
Y651771D01*
X371991D01*
X368992Y653270D02*
X366993Y650271D01*
Y653270D02*
X368992Y650271D01*
X363493Y556394D02*
X360994D01*
X360494Y556893D01*
Y557893D01*
X360994Y558393D01*
X363493D01*
X360494Y559393D02*
X363493D01*
Y560892D01*
X362993Y561392D01*
X361993D01*
X361493Y560892D01*
Y559393D01*
Y560392D02*
X360494Y561392D01*
X363493Y562392D02*
X360494Y564391D01*
X363493D02*
X360494Y562392D01*
X363493Y565391D02*
X360494D01*
Y566890D01*
X360994Y567390D01*
X362993D01*
X363493Y566890D01*
Y565391D01*
X388020Y625229D02*
X387520D01*
X386520Y626228D01*
X387520Y627228D01*
X388020D01*
X386520Y626228D02*
X385021D01*
X386520Y628228D02*
Y630227D01*
X385021Y631227D02*
X388020D01*
X387020Y632226D01*
X388020Y633226D01*
X385021D01*
X388020Y634226D02*
Y635225D01*
Y634726D01*
X385021D01*
Y634226D01*
Y635225D01*
Y636725D02*
X388020D01*
X385021Y638724D01*
X388020D01*
X392856Y585668D02*
X393356Y585168D01*
Y584168D01*
X392856Y583669D01*
X390857D01*
X390357Y584168D01*
Y585168D01*
X390857Y585668D01*
X391857D01*
Y584668D01*
X390357Y586668D02*
X393356D01*
X390357Y588667D01*
X393356D01*
Y589667D02*
X390357D01*
Y591166D01*
X390857Y591666D01*
X392856D01*
X393356Y591166D01*
Y589667D01*
X189820Y672731D02*
X192819D01*
Y674231D01*
X192319Y674731D01*
X191320D01*
X190820Y674231D01*
Y672731D01*
Y673731D02*
X189820Y674731D01*
X192819Y677730D02*
Y675730D01*
X189820D01*
Y677730D01*
X191320Y675730D02*
Y676730D01*
X192319Y680729D02*
X192819Y680229D01*
Y679229D01*
X192319Y678729D01*
X191819D01*
X191320Y679229D01*
Y680229D01*
X190820Y680729D01*
X190320D01*
X189820Y680229D01*
Y679229D01*
X190320Y678729D01*
X192819Y683728D02*
Y681728D01*
X189820D01*
Y683728D01*
X191320Y681728D02*
Y682728D01*
X192819Y684727D02*
Y686727D01*
Y685727D01*
X189820D01*
X207151Y728255D02*
X207651Y727755D01*
Y726756D01*
X207151Y726256D01*
X206651D01*
X206151Y726756D01*
Y727755D01*
X205651Y728255D01*
X205152D01*
X204652Y727755D01*
Y726756D01*
X205152Y726256D01*
X207651Y729255D02*
X204652D01*
X205651Y730254D01*
X204652Y731254D01*
X207651D01*
Y733753D02*
Y732754D01*
X207151Y732254D01*
X205152D01*
X204652Y732754D01*
Y733753D01*
X205152Y734253D01*
X207151D01*
X207651Y733753D01*
X204652Y735253D02*
X206651Y737252D01*
X207651Y738252D02*
Y740251D01*
Y739252D01*
X204652D01*
X207651Y741251D02*
X204652D01*
Y742750D01*
X205152Y743250D01*
X207151D01*
X207651Y742750D01*
Y741251D01*
Y745749D02*
Y744750D01*
X207151Y744250D01*
X205152D01*
X204652Y744750D01*
Y745749D01*
X205152Y746249D01*
X207151D01*
X207651Y745749D01*
X206481Y705770D02*
Y707769D01*
Y706770D01*
X203482D01*
X206481Y708769D02*
X203482D01*
Y710268D01*
X203982Y710768D01*
X205981D01*
X206481Y710268D01*
Y708769D01*
Y711768D02*
Y712768D01*
Y712268D01*
X203482D01*
Y711768D01*
Y712768D01*
X220891Y687328D02*
Y689328D01*
Y688328D01*
X217892D01*
X220391Y692327D02*
X220891Y691827D01*
Y690827D01*
X220391Y690327D01*
X218392D01*
X217892Y690827D01*
Y691827D01*
X218392Y692327D01*
X220891Y693326D02*
X217892D01*
X218892D01*
X220891Y695326D01*
X219392Y693826D01*
X217892Y695326D01*
Y696325D02*
X219891Y698325D01*
X220391Y701324D02*
X220891Y700824D01*
Y699824D01*
X220391Y699325D01*
X219891D01*
X219392Y699824D01*
Y700824D01*
X218892Y701324D01*
X218392D01*
X217892Y700824D01*
Y699824D01*
X218392Y699325D01*
X220891Y702323D02*
X217892D01*
X218892Y703323D01*
X217892Y704323D01*
X220891D01*
X220391Y707322D02*
X220891Y706822D01*
Y705822D01*
X220391Y705323D01*
X218392D01*
X217892Y705822D01*
Y706822D01*
X218392Y707322D01*
X220891Y708322D02*
X217892D01*
Y710321D01*
X220891Y711321D02*
X217892D01*
X218892D01*
X220891Y713320D01*
X219392Y711820D01*
X217892Y713320D01*
X284193Y701493D02*
Y699494D01*
X281194D01*
Y701493D01*
X282693Y699494D02*
Y700493D01*
X281194Y702493D02*
X284193D01*
Y703992D01*
X283693Y704492D01*
X282693D01*
X282193Y703992D01*
Y702493D01*
Y703492D02*
X281194Y704492D01*
Y705492D02*
X283193D01*
X284193Y706491D01*
X283193Y707491D01*
X281194D01*
X282693D01*
Y705492D01*
X283693Y710490D02*
X284193Y709990D01*
Y708991D01*
X283693Y708491D01*
X283193D01*
X282693Y708991D01*
Y709990D01*
X282193Y710490D01*
X281694D01*
X281194Y709990D01*
Y708991D01*
X281694Y708491D01*
X284193Y713489D02*
Y711490D01*
X281194D01*
Y713489D01*
X282693Y711490D02*
Y712490D01*
X84694Y668393D02*
Y665894D01*
X84194Y665394D01*
X83194D01*
X82694Y665894D01*
Y668393D01*
X79695Y667893D02*
X80195Y668393D01*
X81195D01*
X81695Y667893D01*
Y667393D01*
X81195Y666893D01*
X80195D01*
X79695Y666393D01*
Y665894D01*
X80195Y665394D01*
X81195D01*
X81695Y665894D01*
X78696Y668393D02*
Y665394D01*
X77196D01*
X76696Y665894D01*
Y666393D01*
X77196Y666893D01*
X78696D01*
X77196D01*
X76696Y667393D01*
Y667893D01*
X77196Y668393D01*
X78696D01*
X75697Y665394D02*
Y668393D01*
X73697Y665394D01*
Y668393D01*
G54D138*
X127266Y48843D02*
Y50176D01*
Y49510D01*
X125267D01*
Y50843D02*
X127266D01*
Y51842D01*
X126933Y52176D01*
X126266D01*
X125933Y51842D01*
Y50843D01*
X125267Y52842D02*
Y53509D01*
Y53175D01*
X127266D01*
X126933Y52842D01*
Y54508D02*
X127266Y54841D01*
Y55508D01*
X126933Y55841D01*
X125600D01*
X125267Y55508D01*
Y54841D01*
X125600Y54508D01*
X126933D01*
Y56507D02*
X127266Y56841D01*
Y57507D01*
X126933Y57840D01*
X125600D01*
X125267Y57507D01*
Y56841D01*
X125600Y56507D01*
X126933D01*
X146705Y48682D02*
Y50015D01*
Y49348D01*
X144706D01*
Y50681D02*
X146705D01*
Y51681D01*
X146372Y52014D01*
X145705D01*
X145372Y51681D01*
Y50681D01*
X145039Y52680D02*
X144706Y53014D01*
Y53680D01*
X145039Y54013D01*
X146372D01*
X146705Y53680D01*
Y53014D01*
X146372Y52680D01*
X146039D01*
X145705Y53014D01*
Y54013D01*
X145039Y54680D02*
X144706Y55013D01*
Y55680D01*
X145039Y56013D01*
X146372D01*
X146705Y55680D01*
Y55013D01*
X146372Y54680D01*
X146039D01*
X145705Y55013D01*
Y56013D01*
X156129Y52613D02*
Y53946D01*
Y53279D01*
X154129D01*
Y54612D02*
X156129D01*
Y55612D01*
X155796Y55945D01*
X155129D01*
X154796Y55612D01*
Y54612D01*
X154463Y56611D02*
X154129Y56945D01*
Y57611D01*
X154463Y57944D01*
X155796D01*
X156129Y57611D01*
Y56945D01*
X155796Y56611D01*
X155462D01*
X155129Y56945D01*
Y57944D01*
X155796Y58611D02*
X156129Y58944D01*
Y59610D01*
X155796Y59944D01*
X155462D01*
X155129Y59610D01*
X154796Y59944D01*
X154463D01*
X154129Y59610D01*
Y58944D01*
X154463Y58611D01*
X154796D01*
X155129Y58944D01*
X155462Y58611D01*
X155796D01*
X155129Y58944D02*
Y59610D01*
X166737Y48790D02*
Y50122D01*
Y49456D01*
X164738D01*
Y50789D02*
X166737D01*
Y51789D01*
X166404Y52122D01*
X165737D01*
X165404Y51789D01*
Y50789D01*
X165071Y52788D02*
X164738Y53121D01*
Y53788D01*
X165071Y54121D01*
X166404D01*
X166737Y53788D01*
Y53121D01*
X166404Y52788D01*
X166070D01*
X165737Y53121D01*
Y54121D01*
X166737Y54787D02*
Y56120D01*
X166404D01*
X165071Y54787D01*
X164738D01*
X296589Y48883D02*
Y50216D01*
Y49549D01*
X294590D01*
Y50882D02*
X296589D01*
Y51882D01*
X296256Y52215D01*
X295589D01*
X295256Y51882D01*
Y50882D01*
X294923Y52881D02*
X294590Y53215D01*
Y53881D01*
X294923Y54214D01*
X296256D01*
X296589Y53881D01*
Y53215D01*
X296256Y52881D01*
X295923D01*
X295589Y53215D01*
Y54214D01*
X294590Y56214D02*
Y54881D01*
X295923Y56214D01*
X296256D01*
X296589Y55880D01*
Y55214D01*
X296256Y54881D01*
X316095Y48830D02*
Y50163D01*
Y49496D01*
X314095D01*
Y50829D02*
X316095D01*
Y51829D01*
X315762Y52162D01*
X315095D01*
X314762Y51829D01*
Y50829D01*
X314429Y52829D02*
X314095Y53162D01*
Y53828D01*
X314429Y54162D01*
X315762D01*
X316095Y53828D01*
Y53162D01*
X315762Y52829D01*
X315428D01*
X315095Y53162D01*
Y54162D01*
X314095Y54828D02*
Y55494D01*
Y55161D01*
X316095D01*
X315762Y54828D01*
X326059Y48250D02*
Y49583D01*
Y48917D01*
X324059D01*
Y50249D02*
X326059D01*
Y51249D01*
X325725Y51582D01*
X325059D01*
X324726Y51249D01*
Y50249D01*
X324393Y52249D02*
X324059Y52582D01*
Y53249D01*
X324393Y53582D01*
X325725D01*
X326059Y53249D01*
Y52582D01*
X325725Y52249D01*
X325392D01*
X325059Y52582D01*
Y53582D01*
X325725Y54248D02*
X326059Y54581D01*
Y55248D01*
X325725Y55581D01*
X324393D01*
X324059Y55248D01*
Y54581D01*
X324393Y54248D01*
X325725D01*
X336127Y49531D02*
Y50863D01*
Y50197D01*
X334127D01*
Y51530D02*
X336127D01*
Y52530D01*
X335793Y52863D01*
X335127D01*
X334794Y52530D01*
Y51530D01*
X335793Y53529D02*
X336127Y53863D01*
Y54529D01*
X335793Y54862D01*
X335460D01*
X335127Y54529D01*
X334794Y54862D01*
X334460D01*
X334127Y54529D01*
Y53863D01*
X334460Y53529D01*
X334794D01*
X335127Y53863D01*
X335460Y53529D01*
X335793D01*
X335127Y53863D02*
Y54529D01*
X334460Y55529D02*
X334127Y55862D01*
Y56528D01*
X334460Y56862D01*
X335793D01*
X336127Y56528D01*
Y55862D01*
X335793Y55529D01*
X335460D01*
X335127Y55862D01*
Y56862D01*
X365619Y49103D02*
Y50436D01*
Y49769D01*
X363620D01*
Y51102D02*
X365619D01*
Y52102D01*
X365286Y52435D01*
X364620D01*
X364287Y52102D01*
Y51102D01*
X365286Y53102D02*
X365619Y53435D01*
Y54101D01*
X365286Y54435D01*
X364953D01*
X364620Y54101D01*
X364287Y54435D01*
X363953D01*
X363620Y54101D01*
Y53435D01*
X363953Y53102D01*
X364287D01*
X364620Y53435D01*
X364953Y53102D01*
X365286D01*
X364620Y53435D02*
Y54101D01*
X365286Y55101D02*
X365619Y55434D01*
Y56101D01*
X365286Y56434D01*
X364953D01*
X364620Y56101D01*
X364287Y56434D01*
X363953D01*
X363620Y56101D01*
Y55434D01*
X363953Y55101D01*
X364287D01*
X364620Y55434D01*
X364953Y55101D01*
X365286D01*
X364620Y55434D02*
Y56101D01*
X375429Y49600D02*
Y50933D01*
Y50267D01*
X373429D01*
Y51600D02*
X375429D01*
Y52600D01*
X375095Y52933D01*
X374429D01*
X374096Y52600D01*
Y51600D01*
X375095Y53599D02*
X375429Y53932D01*
Y54599D01*
X375095Y54932D01*
X374762D01*
X374429Y54599D01*
X374096Y54932D01*
X373762D01*
X373429Y54599D01*
Y53932D01*
X373762Y53599D01*
X374096D01*
X374429Y53932D01*
X374762Y53599D01*
X375095D01*
X374429Y53932D02*
Y54599D01*
X375429Y55599D02*
Y56931D01*
X375095D01*
X373762Y55599D01*
X373429D01*
X385451Y49600D02*
Y50933D01*
Y50267D01*
X383451D01*
Y51600D02*
X385451D01*
Y52600D01*
X385118Y52933D01*
X384451D01*
X384118Y52600D01*
Y51600D01*
X385118Y53599D02*
X385451Y53932D01*
Y54599D01*
X385118Y54932D01*
X384784D01*
X384451Y54599D01*
X384118Y54932D01*
X383785D01*
X383451Y54599D01*
Y53932D01*
X383785Y53599D01*
X384118D01*
X384451Y53932D01*
X384784Y53599D01*
X385118D01*
X384451Y53932D02*
Y54599D01*
X385451Y56931D02*
X385118Y56265D01*
X384451Y55599D01*
X383785D01*
X383451Y55932D01*
Y56598D01*
X383785Y56931D01*
X384118D01*
X384451Y56598D01*
Y55599D01*
X395615Y50169D02*
Y51502D01*
Y50836D01*
X393616D01*
Y52169D02*
X395615D01*
Y53168D01*
X395282Y53501D01*
X394615D01*
X394282Y53168D01*
Y52169D01*
X395282Y54168D02*
X395615Y54501D01*
Y55168D01*
X395282Y55501D01*
X394949D01*
X394615Y55168D01*
X394282Y55501D01*
X393949D01*
X393616Y55168D01*
Y54501D01*
X393949Y54168D01*
X394282D01*
X394615Y54501D01*
X394949Y54168D01*
X395282D01*
X394615Y54501D02*
Y55168D01*
X395615Y57500D02*
Y56167D01*
X394615D01*
X394949Y56834D01*
Y57167D01*
X394615Y57500D01*
X393949D01*
X393616Y57167D01*
Y56500D01*
X393949Y56167D01*
X164153Y124306D02*
X162820D01*
X163487D01*
Y122307D01*
X162154D02*
Y124306D01*
X161154D01*
X160821Y123973D01*
Y123307D01*
X161154Y122974D01*
X162154D01*
X160154Y123973D02*
X159821Y124306D01*
X159155D01*
X158821Y123973D01*
Y123640D01*
X159155Y123307D01*
X158821Y122974D01*
Y122640D01*
X159155Y122307D01*
X159821D01*
X160154Y122640D01*
Y122974D01*
X159821Y123307D01*
X160154Y123640D01*
Y123973D01*
X159821Y123307D02*
X159155D01*
X158155Y123973D02*
X157822Y124306D01*
X157155D01*
X156822Y123973D01*
Y123640D01*
X157155Y123307D01*
X157489D01*
X157155D01*
X156822Y122974D01*
Y122640D01*
X157155Y122307D01*
X157822D01*
X158155Y122640D01*
X90728Y111587D02*
X89395D01*
X90061D01*
Y109588D01*
X88728D02*
Y111587D01*
X87729D01*
X87395Y111254D01*
Y110588D01*
X87729Y110254D01*
X88728D01*
X85396Y109588D02*
X86729D01*
X85396Y110921D01*
Y111254D01*
X85729Y111587D01*
X86396D01*
X86729Y111254D01*
X83397Y111587D02*
X84730D01*
Y110588D01*
X84063Y110921D01*
X83730D01*
X83397Y110588D01*
Y109921D01*
X83730Y109588D01*
X84396D01*
X84730Y109921D01*
X96744Y48268D02*
Y49601D01*
Y48934D01*
X94744D01*
Y50267D02*
X96744D01*
Y51267D01*
X96410Y51600D01*
X95744D01*
X95411Y51267D01*
Y50267D01*
X94744Y52266D02*
Y52933D01*
Y52600D01*
X96744D01*
X96410Y52266D01*
X95077Y53933D02*
X94744Y54266D01*
Y54932D01*
X95077Y55265D01*
X96410D01*
X96744Y54932D01*
Y54266D01*
X96410Y53933D01*
X96077D01*
X95744Y54266D01*
Y55265D01*
X106528Y47835D02*
Y49168D01*
Y48502D01*
X104529D01*
Y49835D02*
X106528D01*
Y50834D01*
X106195Y51168D01*
X105529D01*
X105196Y50834D01*
Y49835D01*
X104529Y51834D02*
Y52500D01*
Y52167D01*
X106528D01*
X106195Y51834D01*
Y53500D02*
X106528Y53833D01*
Y54500D01*
X106195Y54833D01*
X105862D01*
X105529Y54500D01*
X105196Y54833D01*
X104862D01*
X104529Y54500D01*
Y53833D01*
X104862Y53500D01*
X105196D01*
X105529Y53833D01*
X105862Y53500D01*
X106195D01*
X105529Y53833D02*
Y54500D01*
X281326Y233206D02*
X279993D01*
X280660D01*
Y231206D01*
X279327D02*
Y233206D01*
X278327D01*
X277994Y232873D01*
Y232206D01*
X278327Y231873D01*
X279327D01*
X277327Y231206D02*
X276661D01*
X276994D01*
Y233206D01*
X277327Y232873D01*
X275661Y233206D02*
X274328D01*
Y232873D01*
X275661Y231540D01*
Y231206D01*
X357798Y189556D02*
X356465D01*
X357132D01*
Y187556D01*
X355799D02*
Y189556D01*
X354799D01*
X354466Y189223D01*
Y188556D01*
X354799Y188223D01*
X355799D01*
X353799Y187556D02*
X353133D01*
X353466D01*
Y189556D01*
X353799Y189223D01*
X350800Y187556D02*
X352133D01*
X350800Y188889D01*
Y189223D01*
X351133Y189556D01*
X351800D01*
X352133Y189223D01*
X285556Y269488D02*
X284223D01*
X284889D01*
Y267488D01*
X283556D02*
Y269488D01*
X282557D01*
X282223Y269154D01*
Y268488D01*
X282557Y268155D01*
X283556D01*
X281557Y267488D02*
X280890D01*
X281224D01*
Y269488D01*
X281557Y269154D01*
X279891Y267488D02*
X279224D01*
X279557D01*
Y269488D01*
X279891Y269154D01*
X321161Y189147D02*
X319828D01*
X320495D01*
Y187148D01*
X319162D02*
Y189147D01*
X318162D01*
X317829Y188814D01*
Y188147D01*
X318162Y187814D01*
X319162D01*
X317162Y187148D02*
X316496D01*
X316829D01*
Y189147D01*
X317162Y188814D01*
X315496D02*
X315163Y189147D01*
X314497D01*
X314163Y188814D01*
Y187481D01*
X314497Y187148D01*
X315163D01*
X315496Y187481D01*
Y188814D01*
X302353Y190512D02*
X301020D01*
X301686D01*
Y188513D01*
X300354D02*
Y190512D01*
X299354D01*
X299021Y190179D01*
Y189512D01*
X299354Y189179D01*
X300354D01*
X298354Y188846D02*
X298021Y188513D01*
X297355D01*
X297021Y188846D01*
Y190179D01*
X297355Y190512D01*
X298021D01*
X298354Y190179D01*
Y189845D01*
X298021Y189512D01*
X297021D01*
X347793Y231466D02*
X346460D01*
X347127D01*
Y229467D01*
X345794D02*
Y231466D01*
X344794D01*
X344461Y231133D01*
Y230467D01*
X344794Y230134D01*
X345794D01*
X343794Y231133D02*
X343461Y231466D01*
X342794D01*
X342461Y231133D01*
Y230800D01*
X342794Y230467D01*
X342461Y230134D01*
Y229800D01*
X342794Y229467D01*
X343461D01*
X343794Y229800D01*
Y230134D01*
X343461Y230467D01*
X343794Y230800D01*
Y231133D01*
X343461Y230467D02*
X342794D01*
X361547Y247668D02*
X360214D01*
X360881D01*
Y245668D01*
X359548D02*
Y247668D01*
X358548D01*
X358215Y247335D01*
Y246668D01*
X358548Y246335D01*
X359548D01*
X357548Y247668D02*
X356216D01*
Y247335D01*
X357548Y246002D01*
Y245668D01*
X328982Y235619D02*
X327649D01*
X328316D01*
Y233620D01*
X326983D02*
Y235619D01*
X325983D01*
X325650Y235286D01*
Y234620D01*
X325983Y234286D01*
X326983D01*
X323651Y235619D02*
X324317Y235286D01*
X324984Y234620D01*
Y233953D01*
X324650Y233620D01*
X323984D01*
X323651Y233953D01*
Y234286D01*
X323984Y234620D01*
X324984D01*
X313707Y236280D02*
X312374D01*
X313040D01*
Y234281D01*
X311707D02*
Y236280D01*
X310708D01*
X310375Y235947D01*
Y235281D01*
X310708Y234948D01*
X311707D01*
X308375Y236280D02*
X309708D01*
Y235281D01*
X309042Y235614D01*
X308709D01*
X308375Y235281D01*
Y234614D01*
X308709Y234281D01*
X309375D01*
X309708Y234614D01*
X316626Y97208D02*
X315293D01*
X315960D01*
Y95209D01*
X314627D02*
Y97208D01*
X313627D01*
X313294Y96875D01*
Y96209D01*
X313627Y95875D01*
X314627D01*
X311628Y95209D02*
Y97208D01*
X312627Y96209D01*
X311294D01*
X387894Y100293D02*
X386561D01*
X387227D01*
Y98294D01*
X385894D02*
Y100293D01*
X384895D01*
X384561Y99960D01*
Y99293D01*
X384895Y98960D01*
X385894D01*
X383895Y99960D02*
X383562Y100293D01*
X382895D01*
X382562Y99960D01*
Y99627D01*
X382895Y99293D01*
X383228D01*
X382895D01*
X382562Y98960D01*
Y98627D01*
X382895Y98294D01*
X383562D01*
X383895Y98627D01*
X86850Y50214D02*
Y51547D01*
Y50880D01*
X84851D01*
Y52213D02*
X86850D01*
Y53213D01*
X86517Y53546D01*
X85851D01*
X85518Y53213D01*
Y52213D01*
X84851Y55546D02*
Y54213D01*
X86184Y55546D01*
X86517D01*
X86850Y55212D01*
Y54546D01*
X86517Y54213D01*
X66956Y49998D02*
Y51331D01*
Y50664D01*
X64957D01*
Y51997D02*
X66956D01*
Y52997D01*
X66623Y53330D01*
X65956D01*
X65623Y52997D01*
Y51997D01*
X64957Y53996D02*
Y54663D01*
Y54330D01*
X66956D01*
X66623Y53996D01*
X347150Y155677D02*
X345817D01*
X346484D01*
Y153677D01*
X345151D02*
Y155677D01*
X344151D01*
X343818Y155343D01*
Y154677D01*
X344151Y154344D01*
X345151D01*
X343151Y153677D02*
X342485D01*
X342818D01*
Y155677D01*
X343151Y155343D01*
X341485D02*
X341152Y155677D01*
X340486D01*
X340153Y155343D01*
Y154010D01*
X340486Y153677D01*
X341152D01*
X341485Y154010D01*
Y155343D01*
X338153Y155677D02*
X339486D01*
Y154677D01*
X338820Y155010D01*
X338486D01*
X338153Y154677D01*
Y154010D01*
X338486Y153677D01*
X339153D01*
X339486Y154010D01*
X367212Y350092D02*
X365879D01*
X366545D01*
Y348093D01*
X365212D02*
Y350092D01*
X364212D01*
X363879Y349759D01*
Y349092D01*
X364212Y348759D01*
X365212D01*
X362213Y348093D02*
Y350092D01*
X363213Y349092D01*
X361880D01*
X361213Y349759D02*
X360880Y350092D01*
X360214D01*
X359881Y349759D01*
Y349426D01*
X360214Y349092D01*
X360547D01*
X360214D01*
X359881Y348759D01*
Y348426D01*
X360214Y348093D01*
X360880D01*
X361213Y348426D01*
X357802Y330236D02*
X356469D01*
X357136D01*
Y328237D01*
X355803D02*
Y330236D01*
X354803D01*
X354470Y329903D01*
Y329237D01*
X354803Y328903D01*
X355803D01*
X352804Y328237D02*
Y330236D01*
X353803Y329237D01*
X352470D01*
X351804Y329903D02*
X351471Y330236D01*
X350804D01*
X350471Y329903D01*
Y329570D01*
X350804Y329237D01*
X350471Y328903D01*
Y328570D01*
X350804Y328237D01*
X351471D01*
X351804Y328570D01*
Y328903D01*
X351471Y329237D01*
X351804Y329570D01*
Y329903D01*
X351471Y329237D02*
X350804D01*
X378021Y336197D02*
X376688D01*
X377355D01*
Y334198D01*
X376022D02*
Y336197D01*
X375022D01*
X374689Y335864D01*
Y335198D01*
X375022Y334864D01*
X376022D01*
X373023Y334198D02*
Y336197D01*
X374022Y335198D01*
X372689D01*
X371023Y334198D02*
Y336197D01*
X372023Y335198D01*
X370690D01*
X422774Y319987D02*
X421441D01*
X422107D01*
Y317987D01*
X420774D02*
Y319987D01*
X419774D01*
X419441Y319653D01*
Y318987D01*
X419774Y318654D01*
X420774D01*
X417442Y319987D02*
X418775D01*
Y318987D01*
X418108Y319320D01*
X417775D01*
X417442Y318987D01*
Y318320D01*
X417775Y317987D01*
X418442D01*
X418775Y318320D01*
X416776Y317987D02*
X416109D01*
X416442D01*
Y319987D01*
X416776Y319653D01*
X333423Y392776D02*
X332090D01*
X332756D01*
Y390777D01*
X331423D02*
Y392776D01*
X330424D01*
X330091Y392443D01*
Y391777D01*
X330424Y391443D01*
X331423D01*
X328424Y390777D02*
Y392776D01*
X329424Y391777D01*
X328091D01*
X326092Y392776D02*
X327425D01*
Y391777D01*
X326758Y392110D01*
X326425D01*
X326092Y391777D01*
Y391110D01*
X326425Y390777D01*
X327092D01*
X327425Y391110D01*
X421787Y209483D02*
X420454D01*
X421121D01*
Y207484D01*
X419788D02*
Y209483D01*
X418788D01*
X418455Y209150D01*
Y208484D01*
X418788Y208150D01*
X419788D01*
X416455Y209483D02*
X417122Y209150D01*
X417788Y208484D01*
Y207817D01*
X417455Y207484D01*
X416789D01*
X416455Y207817D01*
Y208150D01*
X416789Y208484D01*
X417788D01*
X415789Y209150D02*
X415456Y209483D01*
X414789D01*
X414456Y209150D01*
Y208817D01*
X414789Y208484D01*
X414456Y208150D01*
Y207817D01*
X414789Y207484D01*
X415456D01*
X415789Y207817D01*
Y208150D01*
X415456Y208484D01*
X415789Y208817D01*
Y209150D01*
X415456Y208484D02*
X414789D01*
X46415Y266859D02*
X45082D01*
X45749D01*
Y264860D01*
X44416D02*
Y266859D01*
X43416D01*
X43083Y266526D01*
Y265860D01*
X43416Y265526D01*
X44416D01*
X41084Y266859D02*
X41750Y266526D01*
X42417Y265860D01*
Y265193D01*
X42083Y264860D01*
X41417D01*
X41084Y265193D01*
Y265526D01*
X41417Y265860D01*
X42417D01*
X40417Y266526D02*
X40084Y266859D01*
X39417D01*
X39084Y266526D01*
Y265193D01*
X39417Y264860D01*
X40084D01*
X40417Y265193D01*
Y266526D01*
X81682Y253663D02*
X80349D01*
X81015D01*
Y251663D01*
X79682D02*
Y253663D01*
X78683D01*
X78350Y253329D01*
Y252663D01*
X78683Y252330D01*
X79682D01*
X76350Y253663D02*
X77017Y253329D01*
X77683Y252663D01*
Y251997D01*
X77350Y251663D01*
X76683D01*
X76350Y251997D01*
Y252330D01*
X76683Y252663D01*
X77683D01*
X75684Y251663D02*
X75017D01*
X75350D01*
Y253663D01*
X75684Y253329D01*
X189927Y398731D02*
X188594D01*
X189260D01*
Y396732D01*
X187928D02*
Y398731D01*
X186928D01*
X186595Y398398D01*
Y397732D01*
X186928Y397398D01*
X187928D01*
X184929Y396732D02*
Y398731D01*
X185928Y397732D01*
X184595D01*
X183929Y396732D02*
X183263D01*
X183596D01*
Y398731D01*
X183929Y398398D01*
X404875Y161933D02*
X403542D01*
X404209D01*
Y159934D01*
X402876D02*
Y161933D01*
X401876D01*
X401543Y161600D01*
Y160933D01*
X401876Y160600D01*
X402876D01*
X400876Y161933D02*
X399543D01*
Y161600D01*
X400876Y160267D01*
Y159934D01*
X398877Y160267D02*
X398544Y159934D01*
X397877D01*
X397544Y160267D01*
Y161600D01*
X397877Y161933D01*
X398544D01*
X398877Y161600D01*
Y161267D01*
X398544Y160933D01*
X397544D01*
X420792Y248270D02*
Y249602D01*
Y248936D01*
X418793D01*
Y250269D02*
X420792D01*
Y251269D01*
X420459Y251602D01*
X419792D01*
X419459Y251269D01*
Y250269D01*
X420792Y253601D02*
Y252268D01*
X419792D01*
X420126Y252935D01*
Y253268D01*
X419792Y253601D01*
X419126D01*
X418793Y253268D01*
Y252601D01*
X419126Y252268D01*
X420792Y254268D02*
Y255600D01*
X420459D01*
X419126Y254268D01*
X418793D01*
X318160Y370140D02*
X316827D01*
X317493D01*
Y368140D01*
X316160D02*
Y370140D01*
X315161D01*
X314828Y369806D01*
Y369140D01*
X315161Y368807D01*
X316160D01*
X313161Y368140D02*
Y370140D01*
X314161Y369140D01*
X312828D01*
X310829Y370140D02*
X311495Y369806D01*
X312162Y369140D01*
Y368474D01*
X311828Y368140D01*
X311162D01*
X310829Y368474D01*
Y368807D01*
X311162Y369140D01*
X312162D01*
X60418Y385896D02*
X59085D01*
X59751D01*
Y383897D01*
X58418D02*
Y385896D01*
X57419D01*
X57086Y385563D01*
Y384896D01*
X57419Y384563D01*
X58418D01*
X55419Y383897D02*
Y385896D01*
X56419Y384896D01*
X55086D01*
X53087Y383897D02*
X54420D01*
X53087Y385229D01*
Y385563D01*
X53420Y385896D01*
X54086D01*
X54420Y385563D01*
X282994Y338693D02*
X281661D01*
X282327D01*
Y336694D01*
X280994D02*
Y338693D01*
X279995D01*
X279661Y338360D01*
Y337693D01*
X279995Y337360D01*
X280994D01*
X277995Y336694D02*
Y338693D01*
X278995Y337693D01*
X277662D01*
X276996Y338693D02*
X275663D01*
Y338360D01*
X276996Y337027D01*
Y336694D01*
X386806Y418040D02*
X385473D01*
X386140D01*
Y416040D01*
X384807D02*
Y418040D01*
X383807D01*
X383474Y417706D01*
Y417040D01*
X383807Y416707D01*
X384807D01*
X382808Y417706D02*
X382474Y418040D01*
X381808D01*
X381475Y417706D01*
Y417373D01*
X381808Y417040D01*
X382141D01*
X381808D01*
X381475Y416707D01*
Y416373D01*
X381808Y416040D01*
X382474D01*
X382808Y416373D01*
X379475Y418040D02*
X380142Y417706D01*
X380808Y417040D01*
Y416373D01*
X380475Y416040D01*
X379809D01*
X379475Y416373D01*
Y416707D01*
X379809Y417040D01*
X380808D01*
X284440Y162977D02*
X283107D01*
X283773D01*
Y160978D01*
X282440D02*
Y162977D01*
X281441D01*
X281107Y162644D01*
Y161978D01*
X281441Y161644D01*
X282440D01*
X280441Y162977D02*
X279108D01*
Y162644D01*
X280441Y161311D01*
Y160978D01*
X278442Y162644D02*
X278108Y162977D01*
X277442D01*
X277109Y162644D01*
Y162311D01*
X277442Y161978D01*
X277109Y161644D01*
Y161311D01*
X277442Y160978D01*
X278108D01*
X278442Y161311D01*
Y161644D01*
X278108Y161978D01*
X278442Y162311D01*
Y162644D01*
X278108Y161978D02*
X277442D01*
X335252Y180508D02*
X333919D01*
X334586D01*
Y178509D01*
X333253D02*
Y180508D01*
X332253D01*
X331920Y180175D01*
Y179509D01*
X332253Y179176D01*
X333253D01*
X331253Y180508D02*
X329921D01*
Y180175D01*
X331253Y178842D01*
Y178509D01*
X328254D02*
Y180508D01*
X329254Y179509D01*
X327921D01*
X235229Y108812D02*
X233896D01*
X234563D01*
Y106813D01*
X233230D02*
Y108812D01*
X232230D01*
X231897Y108479D01*
Y107812D01*
X232230Y107479D01*
X233230D01*
X231230Y108479D02*
X230897Y108812D01*
X230231D01*
X229897Y108479D01*
Y108145D01*
X230231Y107812D01*
X229897Y107479D01*
Y107146D01*
X230231Y106813D01*
X230897D01*
X231230Y107146D01*
Y107479D01*
X230897Y107812D01*
X231230Y108145D01*
Y108479D01*
X230897Y107812D02*
X230231D01*
X228231Y106813D02*
Y108812D01*
X229231Y107812D01*
X227898D01*
X301166Y180482D02*
X299833D01*
X300500D01*
Y178483D01*
X299167D02*
Y180482D01*
X298167D01*
X297834Y180149D01*
Y179482D01*
X298167Y179149D01*
X299167D01*
X297167Y180482D02*
X295834D01*
Y180149D01*
X297167Y178816D01*
Y178483D01*
X293835Y180482D02*
X295168D01*
Y179482D01*
X294501Y179816D01*
X294168D01*
X293835Y179482D01*
Y178816D01*
X294168Y178483D01*
X294835D01*
X295168Y178816D01*
X314772Y164114D02*
X313439D01*
X314105D01*
Y162115D01*
X312772D02*
Y164114D01*
X311773D01*
X311439Y163781D01*
Y163115D01*
X311773Y162782D01*
X312772D01*
X310773Y164114D02*
X309440D01*
Y163781D01*
X310773Y162448D01*
Y162115D01*
X307441Y164114D02*
X308107Y163781D01*
X308774Y163115D01*
Y162448D01*
X308440Y162115D01*
X307774D01*
X307441Y162448D01*
Y162782D01*
X307774Y163115D01*
X308774D01*
X302025Y161753D02*
X300692D01*
X301359D01*
Y159753D01*
X300026D02*
Y161753D01*
X299026D01*
X298693Y161420D01*
Y160753D01*
X299026Y160420D01*
X300026D01*
X298026Y161753D02*
X296694D01*
Y161420D01*
X298026Y160087D01*
Y159753D01*
X296027Y161753D02*
X294694D01*
Y161420D01*
X296027Y160087D01*
Y159753D01*
X84803Y385512D02*
X83470D01*
X84136D01*
Y383513D01*
X82803D02*
Y385512D01*
X81804D01*
X81470Y385179D01*
Y384513D01*
X81804Y384179D01*
X82803D01*
X79804Y383513D02*
Y385512D01*
X80804Y384513D01*
X79471D01*
X78805Y385179D02*
X78471Y385512D01*
X77805D01*
X77472Y385179D01*
Y383846D01*
X77805Y383513D01*
X78471D01*
X78805Y383846D01*
Y385179D01*
X118691Y382494D02*
X117358D01*
X118025D01*
Y380495D01*
X116692D02*
Y382494D01*
X115692D01*
X115359Y382161D01*
Y381494D01*
X115692Y381161D01*
X116692D01*
X114692Y382161D02*
X114359Y382494D01*
X113693D01*
X113359Y382161D01*
Y381827D01*
X113693Y381494D01*
X114026D01*
X113693D01*
X113359Y381161D01*
Y380828D01*
X113693Y380495D01*
X114359D01*
X114692Y380828D01*
X112693D02*
X112360Y380495D01*
X111693D01*
X111360Y380828D01*
Y382161D01*
X111693Y382494D01*
X112360D01*
X112693Y382161D01*
Y381827D01*
X112360Y381494D01*
X111360D01*
X157723Y382731D02*
X156390D01*
X157056D01*
Y380731D01*
X155723D02*
Y382731D01*
X154724D01*
X154390Y382397D01*
Y381731D01*
X154724Y381398D01*
X155723D01*
X153724Y382397D02*
X153391Y382731D01*
X152724D01*
X152391Y382397D01*
Y382064D01*
X152724Y381731D01*
X153057D01*
X152724D01*
X152391Y381398D01*
Y381064D01*
X152724Y380731D01*
X153391D01*
X153724Y381064D01*
X151725Y382397D02*
X151391Y382731D01*
X150725D01*
X150392Y382397D01*
Y382064D01*
X150725Y381731D01*
X150392Y381398D01*
Y381064D01*
X150725Y380731D01*
X151391D01*
X151725Y381064D01*
Y381398D01*
X151391Y381731D01*
X151725Y382064D01*
Y382397D01*
X151391Y381731D02*
X150725D01*
X235678Y375350D02*
Y376683D01*
Y376016D01*
X233679D01*
Y377349D02*
X235678D01*
Y378349D01*
X235345Y378682D01*
X234678D01*
X234345Y378349D01*
Y377349D01*
X235345Y379349D02*
X235678Y379682D01*
Y380348D01*
X235345Y380682D01*
X235012D01*
X234678Y380348D01*
Y380015D01*
Y380348D01*
X234345Y380682D01*
X234012D01*
X233679Y380348D01*
Y379682D01*
X234012Y379349D01*
X235678Y381348D02*
Y382681D01*
X235345D01*
X234012Y381348D01*
X233679D01*
X426507Y362267D02*
X425174D01*
X425840D01*
Y360268D01*
X424507D02*
Y362267D01*
X423508D01*
X423174Y361934D01*
Y361268D01*
X423508Y360934D01*
X424507D01*
X421175Y362267D02*
X422508D01*
Y361268D01*
X421842Y361601D01*
X421508D01*
X421175Y361268D01*
Y360601D01*
X421508Y360268D01*
X422175D01*
X422508Y360601D01*
X419176Y362267D02*
X420509D01*
Y361268D01*
X419842Y361601D01*
X419509D01*
X419176Y361268D01*
Y360601D01*
X419509Y360268D01*
X420176D01*
X420509Y360601D01*
X234460Y40992D02*
X233127D01*
X233794D01*
Y38993D01*
X232461D02*
Y40992D01*
X231461D01*
X231128Y40659D01*
Y39993D01*
X231461Y39659D01*
X232461D01*
X230462Y39326D02*
X230128Y38993D01*
X229462D01*
X229129Y39326D01*
Y40659D01*
X229462Y40992D01*
X230128D01*
X230462Y40659D01*
Y40326D01*
X230128Y39993D01*
X229129D01*
X227129Y40992D02*
X228462D01*
Y39993D01*
X227796Y40326D01*
X227462D01*
X227129Y39993D01*
Y39326D01*
X227462Y38993D01*
X228129D01*
X228462Y39326D01*
X203908Y54780D02*
Y56113D01*
Y55446D01*
X201909D01*
Y56779D02*
X203908D01*
Y57779D01*
X203575Y58112D01*
X202908D01*
X202575Y57779D01*
Y56779D01*
X202242Y58779D02*
X201909Y59112D01*
Y59778D01*
X202242Y60111D01*
X203575D01*
X203908Y59778D01*
Y59112D01*
X203575Y58779D01*
X203242D01*
X202908Y59112D01*
Y60111D01*
X203908Y62111D02*
X203575Y61444D01*
X202908Y60778D01*
X202242D01*
X201909Y61111D01*
Y61778D01*
X202242Y62111D01*
X202575D01*
X202908Y61778D01*
Y60778D01*
X277293Y44594D02*
Y45927D01*
Y45260D01*
X275294D01*
Y46593D02*
X277293D01*
Y47593D01*
X276960Y47926D01*
X276293D01*
X275960Y47593D01*
Y46593D01*
X275627Y48592D02*
X275294Y48926D01*
Y49592D01*
X275627Y49925D01*
X276960D01*
X277293Y49592D01*
Y48926D01*
X276960Y48592D01*
X276627D01*
X276293Y48926D01*
Y49925D01*
X276960Y50592D02*
X277293Y50925D01*
Y51591D01*
X276960Y51925D01*
X276627D01*
X276293Y51591D01*
Y51258D01*
Y51591D01*
X275960Y51925D01*
X275627D01*
X275294Y51591D01*
Y50925D01*
X275627Y50592D01*
X267145Y44695D02*
Y46028D01*
Y45361D01*
X265146D01*
Y46694D02*
X267145D01*
Y47694D01*
X266812Y48027D01*
X266145D01*
X265812Y47694D01*
Y46694D01*
X265479Y48693D02*
X265146Y49027D01*
Y49693D01*
X265479Y50026D01*
X266812D01*
X267145Y49693D01*
Y49027D01*
X266812Y48693D01*
X266479D01*
X266145Y49027D01*
Y50026D01*
X265146Y51692D02*
X267145D01*
X266145Y50693D01*
Y52026D01*
X289394Y193318D02*
X288061D01*
X288727D01*
Y191319D01*
X287394D02*
Y193318D01*
X286395D01*
X286061Y192985D01*
Y192318D01*
X286395Y191985D01*
X287394D01*
X285395Y191319D02*
X284729D01*
X285062D01*
Y193318D01*
X285395Y192985D01*
X283729D02*
X283396Y193318D01*
X282729D01*
X282396Y192985D01*
Y191652D01*
X282729Y191319D01*
X283396D01*
X283729Y191652D01*
Y192985D01*
X281730Y191319D02*
X281063D01*
X281396D01*
Y193318D01*
X281730Y192985D01*
X282006Y316971D02*
X280674D01*
X281340D01*
Y314972D01*
X280007D02*
Y316971D01*
X279007D01*
X278674Y316638D01*
Y315972D01*
X279007Y315638D01*
X280007D01*
X276675Y316971D02*
X278008D01*
Y315972D01*
X277341Y316305D01*
X277008D01*
X276675Y315972D01*
Y315305D01*
X277008Y314972D01*
X277675D01*
X278008Y315305D01*
X275009Y314972D02*
Y316971D01*
X276008Y315972D01*
X274675D01*
X200981Y285716D02*
X199648D01*
X200314D01*
Y283716D01*
X198981D02*
Y285716D01*
X197982D01*
X197648Y285382D01*
Y284716D01*
X197982Y284383D01*
X198981D01*
X195649Y285716D02*
X196982D01*
Y284716D01*
X196316Y285049D01*
X195982D01*
X195649Y284716D01*
Y284050D01*
X195982Y283716D01*
X196649D01*
X196982Y284050D01*
X193650Y285716D02*
X194316Y285382D01*
X194983Y284716D01*
Y284050D01*
X194649Y283716D01*
X193983D01*
X193650Y284050D01*
Y284383D01*
X193983Y284716D01*
X194983D01*
X218342Y324557D02*
Y325890D01*
Y325224D01*
X216343D01*
Y326557D02*
X218342D01*
Y327556D01*
X218009Y327890D01*
X217342D01*
X217009Y327556D01*
Y326557D01*
X216343Y329556D02*
X218342D01*
X217342Y328556D01*
Y329889D01*
X216676Y330555D02*
X216343Y330889D01*
Y331555D01*
X216676Y331888D01*
X218009D01*
X218342Y331555D01*
Y330889D01*
X218009Y330555D01*
X217676D01*
X217342Y330889D01*
Y331888D01*
X226793Y315694D02*
Y317027D01*
Y316360D01*
X224794D01*
Y317693D02*
X226793D01*
Y318693D01*
X226460Y319026D01*
X225793D01*
X225460Y318693D01*
Y317693D01*
X226793Y321025D02*
Y319692D01*
X225793D01*
X226127Y320359D01*
Y320692D01*
X225793Y321025D01*
X225127D01*
X224794Y320692D01*
Y320026D01*
X225127Y319692D01*
X224794Y323025D02*
Y321692D01*
X226127Y323025D01*
X226460D01*
X226793Y322691D01*
Y322025D01*
X226460Y321692D01*
X211739Y325423D02*
Y326756D01*
Y326090D01*
X209739D01*
Y327423D02*
X211739D01*
Y328422D01*
X211406Y328756D01*
X210739D01*
X210406Y328422D01*
Y327423D01*
X211739Y330755D02*
Y329422D01*
X210739D01*
X211072Y330088D01*
Y330422D01*
X210739Y330755D01*
X210073D01*
X209739Y330422D01*
Y329755D01*
X210073Y329422D01*
X211406Y331421D02*
X211739Y331755D01*
Y332421D01*
X211406Y332754D01*
X210073D01*
X209739Y332421D01*
Y331755D01*
X210073Y331421D01*
X211406D01*
X202649Y312809D02*
X201316D01*
X201983D01*
Y310809D01*
X200650D02*
Y312809D01*
X199650D01*
X199317Y312476D01*
Y311809D01*
X199650Y311476D01*
X200650D01*
X197317Y312809D02*
X198650D01*
Y311809D01*
X197984Y312142D01*
X197651D01*
X197317Y311809D01*
Y311143D01*
X197651Y310809D01*
X198317D01*
X198650Y311143D01*
X196651Y312476D02*
X196318Y312809D01*
X195651D01*
X195318Y312476D01*
Y312142D01*
X195651Y311809D01*
X195984D01*
X195651D01*
X195318Y311476D01*
Y311143D01*
X195651Y310809D01*
X196318D01*
X196651Y311143D01*
X105198Y229239D02*
X103866D01*
X104532D01*
Y227240D01*
X103199D02*
Y229239D01*
X102199D01*
X101866Y228906D01*
Y228240D01*
X102199Y227906D01*
X103199D01*
X101200Y227240D02*
X100533D01*
X100866D01*
Y229239D01*
X101200Y228906D01*
X99533D02*
X99200Y229239D01*
X98534D01*
X98201Y228906D01*
Y228573D01*
X98534Y228240D01*
X98867D01*
X98534D01*
X98201Y227906D01*
Y227573D01*
X98534Y227240D01*
X99200D01*
X99533Y227573D01*
X78595Y205886D02*
X77262D01*
X77929D01*
Y203887D01*
X76596D02*
Y205886D01*
X75596D01*
X75263Y205553D01*
Y204887D01*
X75596Y204553D01*
X76596D01*
X74596Y203887D02*
X73930D01*
X74263D01*
Y205886D01*
X74596Y205553D01*
X71930Y203887D02*
Y205886D01*
X72930Y204887D01*
X71597D01*
X92993Y222707D02*
X91660D01*
X92326D01*
Y220708D01*
X90994D02*
Y222707D01*
X89994D01*
X89661Y222374D01*
Y221707D01*
X89994Y221374D01*
X90994D01*
X88994Y220708D02*
X88328D01*
X88661D01*
Y222707D01*
X88994Y222374D01*
X85995Y222707D02*
X87328D01*
Y221707D01*
X86662Y222040D01*
X86328D01*
X85995Y221707D01*
Y221041D01*
X86328Y220708D01*
X86995D01*
X87328Y221041D01*
X90068Y210503D02*
X88735D01*
X89401D01*
Y208504D01*
X88068D02*
Y210503D01*
X87069D01*
X86735Y210170D01*
Y209503D01*
X87069Y209170D01*
X88068D01*
X86069Y208504D02*
X85403D01*
X85736D01*
Y210503D01*
X86069Y210170D01*
X83070Y210503D02*
X83736Y210170D01*
X84403Y209503D01*
Y208837D01*
X84070Y208504D01*
X83403D01*
X83070Y208837D01*
Y209170D01*
X83403Y209503D01*
X84403D01*
X61637Y208949D02*
X60304D01*
X60971D01*
Y206949D01*
X59638D02*
Y208949D01*
X58638D01*
X58305Y208615D01*
Y207949D01*
X58638Y207616D01*
X59638D01*
X56306Y206949D02*
X57639D01*
X56306Y208282D01*
Y208615D01*
X56639Y208949D01*
X57306D01*
X57639Y208615D01*
X55639D02*
X55306Y208949D01*
X54640D01*
X54306Y208615D01*
Y207283D01*
X54640Y206949D01*
X55306D01*
X55639Y207283D01*
Y208615D01*
X60961Y192470D02*
X59628D01*
X60294D01*
Y190471D01*
X58961D02*
Y192470D01*
X57962D01*
X57629Y192137D01*
Y191470D01*
X57962Y191137D01*
X58961D01*
X55629Y190471D02*
X56962D01*
X55629Y191804D01*
Y192137D01*
X55963Y192470D01*
X56629D01*
X56962Y192137D01*
X54963Y190471D02*
X54296D01*
X54630D01*
Y192470D01*
X54963Y192137D01*
X89119Y200666D02*
X87786D01*
X88452D01*
Y198666D01*
X87119D02*
Y200666D01*
X86120D01*
X85786Y200332D01*
Y199666D01*
X86120Y199333D01*
X87119D01*
X83787Y198666D02*
X85120D01*
X83787Y199999D01*
Y200332D01*
X84120Y200666D01*
X84787D01*
X85120Y200332D01*
X81788Y198666D02*
X83121D01*
X81788Y199999D01*
Y200332D01*
X82121Y200666D01*
X82788D01*
X83121Y200332D01*
X169236Y235025D02*
X167903D01*
X168570D01*
Y233025D01*
X167237D02*
Y235025D01*
X166237D01*
X165904Y234692D01*
Y234025D01*
X166237Y233692D01*
X167237D01*
X163904Y233025D02*
X165237D01*
X163904Y234358D01*
Y234692D01*
X164238Y235025D01*
X164904D01*
X165237Y234692D01*
X163238D02*
X162905Y235025D01*
X162238D01*
X161905Y234692D01*
Y234358D01*
X162238Y234025D01*
X162571D01*
X162238D01*
X161905Y233692D01*
Y233359D01*
X162238Y233025D01*
X162905D01*
X163238Y233359D01*
X187283Y293077D02*
Y294410D01*
Y293743D01*
X185284D01*
Y295076D02*
X187283D01*
Y296076D01*
X186950Y296409D01*
X186283D01*
X185950Y296076D01*
Y295076D01*
X185284Y298408D02*
Y297076D01*
X186617Y298408D01*
X186950D01*
X187283Y298075D01*
Y297409D01*
X186950Y297076D01*
X185284Y300075D02*
X187283D01*
X186283Y299075D01*
Y300408D01*
X201197Y295292D02*
X199864D01*
X200530D01*
Y293293D01*
X199197D02*
Y295292D01*
X198198D01*
X197864Y294959D01*
Y294292D01*
X198198Y293959D01*
X199197D01*
X195865Y293293D02*
X197198D01*
X195865Y294626D01*
Y294959D01*
X196198Y295292D01*
X196865D01*
X197198Y294959D01*
X193866Y295292D02*
X194532Y294959D01*
X195199Y294292D01*
Y293626D01*
X194865Y293293D01*
X194199D01*
X193866Y293626D01*
Y293959D01*
X194199Y294292D01*
X195199D01*
X172591Y200780D02*
X171259D01*
X171925D01*
Y198780D01*
X170592D02*
Y200780D01*
X169592D01*
X169259Y200447D01*
Y199780D01*
X169592Y199447D01*
X170592D01*
X167260Y198780D02*
X168593D01*
X167260Y200113D01*
Y200447D01*
X167593Y200780D01*
X168260D01*
X168593Y200447D01*
X166593Y200780D02*
X165261D01*
Y200447D01*
X166593Y199114D01*
Y198780D01*
X154626Y199014D02*
X153293D01*
X153960D01*
Y197015D01*
X152627D02*
Y199014D01*
X151627D01*
X151294Y198681D01*
Y198015D01*
X151627Y197681D01*
X152627D01*
X149294Y197015D02*
X150627D01*
X149294Y198348D01*
Y198681D01*
X149628Y199014D01*
X150294D01*
X150627Y198681D01*
X148628D02*
X148295Y199014D01*
X147628D01*
X147295Y198681D01*
Y198348D01*
X147628Y198015D01*
X147295Y197681D01*
Y197348D01*
X147628Y197015D01*
X148295D01*
X148628Y197348D01*
Y197681D01*
X148295Y198015D01*
X148628Y198348D01*
Y198681D01*
X148295Y198015D02*
X147628D01*
X146833Y267374D02*
X145500D01*
X146167D01*
Y265375D01*
X144834D02*
Y267374D01*
X143834D01*
X143501Y267041D01*
Y266375D01*
X143834Y266041D01*
X144834D01*
X141501Y265375D02*
X142834D01*
X141501Y266708D01*
Y267041D01*
X141835Y267374D01*
X142501D01*
X142834Y267041D01*
X140835Y265708D02*
X140502Y265375D01*
X139835D01*
X139502Y265708D01*
Y267041D01*
X139835Y267374D01*
X140502D01*
X140835Y267041D01*
Y266708D01*
X140502Y266375D01*
X139502D01*
X59241Y303742D02*
X57908D01*
X58575D01*
Y301743D01*
X57242D02*
Y303742D01*
X56242D01*
X55909Y303409D01*
Y302742D01*
X56242Y302409D01*
X57242D01*
X55243Y303409D02*
X54909Y303742D01*
X54243D01*
X53910Y303409D01*
Y303075D01*
X54243Y302742D01*
X54576D01*
X54243D01*
X53910Y302409D01*
Y302076D01*
X54243Y301743D01*
X54909D01*
X55243Y302076D01*
X53243Y303409D02*
X52910Y303742D01*
X52244D01*
X51910Y303409D01*
Y302076D01*
X52244Y301743D01*
X52910D01*
X53243Y302076D01*
Y303409D01*
X87494Y238393D02*
X86161D01*
X86827D01*
Y236394D01*
X85494D02*
Y238393D01*
X84495D01*
X84162Y238060D01*
Y237393D01*
X84495Y237060D01*
X85494D01*
X83495Y238060D02*
X83162Y238393D01*
X82495D01*
X82162Y238060D01*
Y237727D01*
X82495Y237393D01*
X82828D01*
X82495D01*
X82162Y237060D01*
Y236727D01*
X82495Y236394D01*
X83162D01*
X83495Y236727D01*
X81496Y236394D02*
X80829D01*
X81162D01*
Y238393D01*
X81496Y238060D01*
X151039Y271785D02*
X149706D01*
X150372D01*
Y269786D01*
X149039D02*
Y271785D01*
X148040D01*
X147706Y271452D01*
Y270785D01*
X148040Y270452D01*
X149039D01*
X147040Y271452D02*
X146707Y271785D01*
X146040D01*
X145707Y271452D01*
Y271118D01*
X146040Y270785D01*
X146374D01*
X146040D01*
X145707Y270452D01*
Y270119D01*
X146040Y269786D01*
X146707D01*
X147040Y270119D01*
X143708Y269786D02*
X145041D01*
X143708Y271118D01*
Y271452D01*
X144041Y271785D01*
X144707D01*
X145041Y271452D01*
X84308Y339276D02*
X82975D01*
X83641D01*
Y337277D01*
X82309D02*
Y339276D01*
X81309D01*
X80976Y338943D01*
Y338276D01*
X81309Y337943D01*
X82309D01*
X80309Y338943D02*
X79976Y339276D01*
X79310D01*
X78976Y338943D01*
Y338610D01*
X79310Y338276D01*
X79643D01*
X79310D01*
X78976Y337943D01*
Y337610D01*
X79310Y337277D01*
X79976D01*
X80309Y337610D01*
X78310Y338943D02*
X77977Y339276D01*
X77310D01*
X76977Y338943D01*
Y338610D01*
X77310Y338276D01*
X77644D01*
X77310D01*
X76977Y337943D01*
Y337610D01*
X77310Y337277D01*
X77977D01*
X78310Y337610D01*
X199048Y364436D02*
X197715D01*
X198381D01*
Y362436D01*
X197048D02*
Y364436D01*
X196049D01*
X195716Y364102D01*
Y363436D01*
X196049Y363103D01*
X197048D01*
X195049Y364102D02*
X194716Y364436D01*
X194050D01*
X193716Y364102D01*
Y363769D01*
X194050Y363436D01*
X194383D01*
X194050D01*
X193716Y363103D01*
Y362770D01*
X194050Y362436D01*
X194716D01*
X195049Y362770D01*
X192050Y362436D02*
Y364436D01*
X193050Y363436D01*
X191717D01*
X182581Y337691D02*
X181248D01*
X181915D01*
Y335692D01*
X180582D02*
Y337691D01*
X179582D01*
X179249Y337358D01*
Y336691D01*
X179582Y336358D01*
X180582D01*
X178583Y337358D02*
X178250Y337691D01*
X177583D01*
X177250Y337358D01*
Y337025D01*
X177583Y336691D01*
X177916D01*
X177583D01*
X177250Y336358D01*
Y336025D01*
X177583Y335692D01*
X178250D01*
X178583Y336025D01*
X175250Y337691D02*
X176583D01*
Y336691D01*
X175917Y337025D01*
X175584D01*
X175250Y336691D01*
Y336025D01*
X175584Y335692D01*
X176250D01*
X176583Y336025D01*
X99284Y354175D02*
X97951D01*
X98618D01*
Y352176D01*
X97285D02*
Y354175D01*
X96285D01*
X95952Y353842D01*
Y353175D01*
X96285Y352842D01*
X97285D01*
X93952Y354175D02*
X95285D01*
Y353175D01*
X94619Y353509D01*
X94286D01*
X93952Y353175D01*
Y352509D01*
X94286Y352176D01*
X94952D01*
X95285Y352509D01*
X93286Y353842D02*
X92953Y354175D01*
X92286D01*
X91953Y353842D01*
Y353509D01*
X92286Y353175D01*
X91953Y352842D01*
Y352509D01*
X92286Y352176D01*
X92953D01*
X93286Y352509D01*
Y352842D01*
X92953Y353175D01*
X93286Y353509D01*
Y353842D01*
X92953Y353175D02*
X92286D01*
X249494Y342893D02*
X248161D01*
X248827D01*
Y340894D01*
X247494D02*
Y342893D01*
X246495D01*
X246162Y342560D01*
Y341893D01*
X246495Y341560D01*
X247494D01*
X244162Y342893D02*
X245495D01*
Y341893D01*
X244829Y342227D01*
X244495D01*
X244162Y341893D01*
Y341227D01*
X244495Y340894D01*
X245162D01*
X245495Y341227D01*
X243496D02*
X243162Y340894D01*
X242496D01*
X242163Y341227D01*
Y342560D01*
X242496Y342893D01*
X243162D01*
X243496Y342560D01*
Y342227D01*
X243162Y341893D01*
X242163D01*
X138057Y345253D02*
X136724D01*
X137391D01*
Y343254D01*
X136058D02*
Y345253D01*
X135058D01*
X134725Y344920D01*
Y344253D01*
X135058Y343920D01*
X136058D01*
X132726Y345253D02*
X133392Y344920D01*
X134058Y344253D01*
Y343587D01*
X133725Y343254D01*
X133059D01*
X132726Y343587D01*
Y343920D01*
X133059Y344253D01*
X134058D01*
X130726Y343254D02*
X132059D01*
X130726Y344587D01*
Y344920D01*
X131060Y345253D01*
X131726D01*
X132059Y344920D01*
X182132Y343080D02*
X180799D01*
X181466D01*
Y341081D01*
X180133D02*
Y343080D01*
X179133D01*
X178800Y342747D01*
Y342081D01*
X179133Y341748D01*
X180133D01*
X176801Y343080D02*
X177467Y342747D01*
X178134Y342081D01*
Y341414D01*
X177800Y341081D01*
X177134D01*
X176801Y341414D01*
Y341748D01*
X177134Y342081D01*
X178134D01*
X176134Y342747D02*
X175801Y343080D01*
X175135D01*
X174801Y342747D01*
Y342414D01*
X175135Y342081D01*
X175468D01*
X175135D01*
X174801Y341748D01*
Y341414D01*
X175135Y341081D01*
X175801D01*
X176134Y341414D01*
X184939Y351221D02*
X183606D01*
X184273D01*
Y349221D01*
X182940D02*
Y351221D01*
X181940D01*
X181607Y350887D01*
Y350221D01*
X181940Y349888D01*
X182940D01*
X179608Y351221D02*
X180274Y350887D01*
X180941Y350221D01*
Y349554D01*
X180607Y349221D01*
X179941D01*
X179608Y349554D01*
Y349888D01*
X179941Y350221D01*
X180941D01*
X177942Y349221D02*
Y351221D01*
X178941Y350221D01*
X177608D01*
X246464Y319049D02*
X245131D01*
X245797D01*
Y317050D01*
X244464D02*
Y319049D01*
X243465D01*
X243131Y318716D01*
Y318050D01*
X243465Y317716D01*
X244464D01*
X241132Y319049D02*
X241798Y318716D01*
X242465Y318050D01*
Y317383D01*
X242132Y317050D01*
X241465D01*
X241132Y317383D01*
Y317716D01*
X241465Y318050D01*
X242465D01*
X239133Y319049D02*
X240466D01*
Y318050D01*
X239799Y318383D01*
X239466D01*
X239133Y318050D01*
Y317383D01*
X239466Y317050D01*
X240132D01*
X240466Y317383D01*
X260894Y353493D02*
X259561D01*
X260227D01*
Y351494D01*
X258894D02*
Y353493D01*
X257895D01*
X257561Y353160D01*
Y352493D01*
X257895Y352160D01*
X258894D01*
X255562Y353493D02*
X256228Y353160D01*
X256895Y352493D01*
Y351827D01*
X256562Y351494D01*
X255895D01*
X255562Y351827D01*
Y352160D01*
X255895Y352493D01*
X256895D01*
X253563Y353493D02*
X254229Y353160D01*
X254896Y352493D01*
Y351827D01*
X254562Y351494D01*
X253896D01*
X253563Y351827D01*
Y352160D01*
X253896Y352493D01*
X254896D01*
X251730Y130491D02*
X250397D01*
X251063D01*
Y128492D01*
X249730D02*
Y130491D01*
X248731D01*
X248397Y130158D01*
Y129491D01*
X248731Y129158D01*
X249730D01*
X246398Y130491D02*
X247064Y130158D01*
X247731Y129491D01*
Y128825D01*
X247398Y128492D01*
X246731D01*
X246398Y128825D01*
Y129158D01*
X246731Y129491D01*
X247731D01*
X245732Y130491D02*
X244399D01*
Y130158D01*
X245732Y128825D01*
Y128492D01*
X232298Y148023D02*
X230966D01*
X231632D01*
Y146023D01*
X230299D02*
Y148023D01*
X229299D01*
X228966Y147689D01*
Y147023D01*
X229299Y146690D01*
X230299D01*
X226967Y148023D02*
X227633Y147689D01*
X228300Y147023D01*
Y146356D01*
X227967Y146023D01*
X227300D01*
X226967Y146356D01*
Y146690D01*
X227300Y147023D01*
X228300D01*
X226301Y146356D02*
X225967Y146023D01*
X225301D01*
X224968Y146356D01*
Y147689D01*
X225301Y148023D01*
X225967D01*
X226301Y147689D01*
Y147356D01*
X225967Y147023D01*
X224968D01*
X185726Y92117D02*
X184393D01*
X185060D01*
Y90117D01*
X183727D02*
Y92117D01*
X182727D01*
X182394Y91784D01*
Y91117D01*
X182727Y90784D01*
X183727D01*
X181727Y92117D02*
X180394D01*
Y91784D01*
X181727Y90451D01*
Y90117D01*
X179728Y91784D02*
X179395Y92117D01*
X178728D01*
X178395Y91784D01*
Y90451D01*
X178728Y90117D01*
X179395D01*
X179728Y90451D01*
Y91784D01*
X202322Y86940D02*
X200989D01*
X201655D01*
Y84941D01*
X200322D02*
Y86940D01*
X199323D01*
X198989Y86607D01*
Y85940D01*
X199323Y85607D01*
X200322D01*
X198323Y86940D02*
X196990D01*
Y86607D01*
X198323Y85274D01*
Y84941D01*
X196324D02*
X195657D01*
X195991D01*
Y86940D01*
X196324Y86607D01*
X239472Y92345D02*
X238139D01*
X238805D01*
Y90346D01*
X237473D02*
Y92345D01*
X236473D01*
X236140Y92012D01*
Y91346D01*
X236473Y91012D01*
X237473D01*
X235473Y92345D02*
X234140D01*
Y92012D01*
X235473Y90679D01*
Y90346D01*
X232141D02*
X233474D01*
X232141Y91679D01*
Y92012D01*
X232474Y92345D01*
X233141D01*
X233474Y92012D01*
X220897Y86027D02*
X219564D01*
X220230D01*
Y84027D01*
X218897D02*
Y86027D01*
X217898D01*
X217565Y85693D01*
Y85027D01*
X217898Y84694D01*
X218897D01*
X216898Y86027D02*
X215565D01*
Y85693D01*
X216898Y84360D01*
Y84027D01*
X214899Y85693D02*
X214565Y86027D01*
X213899D01*
X213566Y85693D01*
Y85360D01*
X213899Y85027D01*
X214232D01*
X213899D01*
X213566Y84694D01*
Y84360D01*
X213899Y84027D01*
X214565D01*
X214899Y84360D01*
X103523Y129766D02*
X102190D01*
X102857D01*
Y127767D01*
X101524D02*
Y129766D01*
X100524D01*
X100191Y129433D01*
Y128766D01*
X100524Y128433D01*
X101524D01*
X99524Y129433D02*
X99191Y129766D01*
X98525D01*
X98191Y129433D01*
Y129099D01*
X98525Y128766D01*
X98191Y128433D01*
Y128100D01*
X98525Y127767D01*
X99191D01*
X99524Y128100D01*
Y128433D01*
X99191Y128766D01*
X99524Y129099D01*
Y129433D01*
X99191Y128766D02*
X98525D01*
X97525Y129433D02*
X97192Y129766D01*
X96525D01*
X96192Y129433D01*
Y128100D01*
X96525Y127767D01*
X97192D01*
X97525Y128100D01*
Y129433D01*
X88153Y137490D02*
X86820D01*
X87487D01*
Y135490D01*
X86154D02*
Y137490D01*
X85154D01*
X84821Y137157D01*
Y136490D01*
X85154Y136157D01*
X86154D01*
X84154Y137157D02*
X83821Y137490D01*
X83155D01*
X82821Y137157D01*
Y136823D01*
X83155Y136490D01*
X82821Y136157D01*
Y135824D01*
X83155Y135490D01*
X83821D01*
X84154Y135824D01*
Y136157D01*
X83821Y136490D01*
X84154Y136823D01*
Y137157D01*
X83821Y136490D02*
X83155D01*
X82155Y135490D02*
X81489D01*
X81822D01*
Y137490D01*
X82155Y137157D01*
X39979Y91579D02*
X38646D01*
X39313D01*
Y89580D01*
X37980D02*
Y91579D01*
X36980D01*
X36647Y91246D01*
Y90579D01*
X36980Y90246D01*
X37980D01*
X35981Y91246D02*
X35647Y91579D01*
X34981D01*
X34648Y91246D01*
Y90912D01*
X34981Y90579D01*
X34648Y90246D01*
Y89913D01*
X34981Y89580D01*
X35647D01*
X35981Y89913D01*
Y90246D01*
X35647Y90579D01*
X35981Y90912D01*
Y91246D01*
X35647Y90579D02*
X34981D01*
X32648Y89580D02*
X33981D01*
X32648Y90912D01*
Y91246D01*
X32982Y91579D01*
X33648D01*
X33981Y91246D01*
X60272Y78035D02*
X58939D01*
X59605D01*
Y76036D01*
X58273D02*
Y78035D01*
X57273D01*
X56940Y77702D01*
Y77036D01*
X57273Y76702D01*
X58273D01*
X56273Y76036D02*
X55607D01*
X55940D01*
Y78035D01*
X56273Y77702D01*
X54607D02*
X54274Y78035D01*
X53607D01*
X53274Y77702D01*
Y76369D01*
X53607Y76036D01*
X54274D01*
X54607Y76369D01*
Y77702D01*
X51275Y76036D02*
X52608D01*
X51275Y77369D01*
Y77702D01*
X51608Y78035D01*
X52275D01*
X52608Y77702D01*
X95841Y95045D02*
X94508D01*
X95175D01*
Y93045D01*
X93842D02*
Y95045D01*
X92842D01*
X92509Y94712D01*
Y94045D01*
X92842Y93712D01*
X93842D01*
X91842Y93045D02*
X91176D01*
X91509D01*
Y95045D01*
X91842Y94712D01*
X90176D02*
X89843Y95045D01*
X89176D01*
X88843Y94712D01*
Y93379D01*
X89176Y93045D01*
X89843D01*
X90176Y93379D01*
Y94712D01*
X88177D02*
X87844Y95045D01*
X87177D01*
X86844Y94712D01*
Y94378D01*
X87177Y94045D01*
X87510D01*
X87177D01*
X86844Y93712D01*
Y93379D01*
X87177Y93045D01*
X87844D01*
X88177Y93379D01*
X77053Y78218D02*
X75720D01*
X76387D01*
Y76218D01*
X75054D02*
Y78218D01*
X74054D01*
X73721Y77885D01*
Y77218D01*
X74054Y76885D01*
X75054D01*
X73054Y76218D02*
X72388D01*
X72721D01*
Y78218D01*
X73054Y77885D01*
X71388D02*
X71055Y78218D01*
X70389D01*
X70056Y77885D01*
Y76552D01*
X70389Y76218D01*
X71055D01*
X71388Y76552D01*
Y77885D01*
X68389Y76218D02*
Y78218D01*
X69389Y77218D01*
X68056D01*
X309794Y221193D02*
X308461D01*
X309127D01*
Y219194D01*
X307794D02*
Y221193D01*
X306795D01*
X306462Y220860D01*
Y220193D01*
X306795Y219860D01*
X307794D01*
X305795Y219194D02*
X305129D01*
X305462D01*
Y221193D01*
X305795Y220860D01*
X304129D02*
X303796Y221193D01*
X303129D01*
X302796Y220860D01*
Y219527D01*
X303129Y219194D01*
X303796D01*
X304129Y219527D01*
Y220860D01*
X300797Y221193D02*
X301463Y220860D01*
X302130Y220193D01*
Y219527D01*
X301796Y219194D01*
X301130D01*
X300797Y219527D01*
Y219860D01*
X301130Y220193D01*
X302130D01*
X341094Y204493D02*
X339761D01*
X340427D01*
Y202494D01*
X339094D02*
Y204493D01*
X338095D01*
X337761Y204160D01*
Y203493D01*
X338095Y203160D01*
X339094D01*
X337095Y202494D02*
X336428D01*
X336762D01*
Y204493D01*
X337095Y204160D01*
X335429D02*
X335096Y204493D01*
X334429D01*
X334096Y204160D01*
Y202827D01*
X334429Y202494D01*
X335096D01*
X335429Y202827D01*
Y204160D01*
X333430Y204493D02*
X332097D01*
Y204160D01*
X333430Y202827D01*
Y202494D01*
X372694Y202293D02*
X371361D01*
X372027D01*
Y200294D01*
X370694D02*
Y202293D01*
X369695D01*
X369361Y201960D01*
Y201293D01*
X369695Y200960D01*
X370694D01*
X368695Y200294D02*
X368028D01*
X368362D01*
Y202293D01*
X368695Y201960D01*
X367029D02*
X366696Y202293D01*
X366029D01*
X365696Y201960D01*
Y200627D01*
X366029Y200294D01*
X366696D01*
X367029Y200627D01*
Y201960D01*
X365030D02*
X364696Y202293D01*
X364030D01*
X363697Y201960D01*
Y201627D01*
X364030Y201293D01*
X363697Y200960D01*
Y200627D01*
X364030Y200294D01*
X364696D01*
X365030Y200627D01*
Y200960D01*
X364696Y201293D01*
X365030Y201627D01*
Y201960D01*
X364696Y201293D02*
X364030D01*
X406094Y207693D02*
X404761D01*
X405427D01*
Y205694D01*
X404094D02*
Y207693D01*
X403095D01*
X402762Y207360D01*
Y206693D01*
X403095Y206360D01*
X404094D01*
X402095Y205694D02*
X401429D01*
X401762D01*
Y207693D01*
X402095Y207360D01*
X400429D02*
X400096Y207693D01*
X399429D01*
X399096Y207360D01*
Y206027D01*
X399429Y205694D01*
X400096D01*
X400429Y206027D01*
Y207360D01*
X398429Y206027D02*
X398096Y205694D01*
X397430D01*
X397097Y206027D01*
Y207360D01*
X397430Y207693D01*
X398096D01*
X398429Y207360D01*
Y207027D01*
X398096Y206693D01*
X397097D01*
X189742Y127877D02*
X188409D01*
X189076D01*
Y125878D01*
X187743D02*
Y127877D01*
X186743D01*
X186410Y127544D01*
Y126877D01*
X186743Y126544D01*
X187743D01*
X185743Y125878D02*
X185077D01*
X185410D01*
Y127877D01*
X185743Y127544D01*
X184077Y125878D02*
X183411D01*
X183744D01*
Y127877D01*
X184077Y127544D01*
X182411D02*
X182078Y127877D01*
X181412D01*
X181078Y127544D01*
Y126211D01*
X181412Y125878D01*
X182078D01*
X182411Y126211D01*
Y127544D01*
X163994Y136093D02*
X162661D01*
X163327D01*
Y134094D01*
X161994D02*
Y136093D01*
X160995D01*
X160661Y135760D01*
Y135093D01*
X160995Y134760D01*
X161994D01*
X159995Y134094D02*
X159328D01*
X159662D01*
Y136093D01*
X159995Y135760D01*
X158329Y134094D02*
X157662D01*
X157996D01*
Y136093D01*
X158329Y135760D01*
X156663Y134094D02*
X155996D01*
X156330D01*
Y136093D01*
X156663Y135760D01*
X114613Y91714D02*
X113280D01*
X113946D01*
Y89715D01*
X112614D02*
Y91714D01*
X111614D01*
X111281Y91381D01*
Y90715D01*
X111614Y90381D01*
X112614D01*
X110614Y89715D02*
X109948D01*
X110281D01*
Y91714D01*
X110614Y91381D01*
X108948Y89715D02*
X108282D01*
X108615D01*
Y91714D01*
X108948Y91381D01*
X105949Y89715D02*
X107282D01*
X105949Y91048D01*
Y91381D01*
X106282Y91714D01*
X106949D01*
X107282Y91381D01*
X131664Y78090D02*
X130331D01*
X130997D01*
Y76091D01*
X129664D02*
Y78090D01*
X128665D01*
X128331Y77757D01*
Y77091D01*
X128665Y76758D01*
X129664D01*
X127665Y76091D02*
X126999D01*
X127332D01*
Y78090D01*
X127665Y77757D01*
X125999Y76091D02*
X125332D01*
X125666D01*
Y78090D01*
X125999Y77757D01*
X124333D02*
X124000Y78090D01*
X123333D01*
X123000Y77757D01*
Y77424D01*
X123333Y77091D01*
X123666D01*
X123333D01*
X123000Y76758D01*
Y76424D01*
X123333Y76091D01*
X124000D01*
X124333Y76424D01*
X169658Y92395D02*
X168325D01*
X168991D01*
Y90395D01*
X167658D02*
Y92395D01*
X166659D01*
X166325Y92062D01*
Y91395D01*
X166659Y91062D01*
X167658D01*
X165659Y90395D02*
X164993D01*
X165326D01*
Y92395D01*
X165659Y92062D01*
X163993Y90395D02*
X163327D01*
X163660D01*
Y92395D01*
X163993Y92062D01*
X161327Y90395D02*
Y92395D01*
X162327Y91395D01*
X160994D01*
X150280Y78217D02*
X148947D01*
X149614D01*
Y76218D01*
X148281D02*
Y78217D01*
X147281D01*
X146948Y77884D01*
Y77218D01*
X147281Y76885D01*
X148281D01*
X146281Y76218D02*
X145615D01*
X145948D01*
Y78217D01*
X146281Y77884D01*
X144615Y76218D02*
X143949D01*
X144282D01*
Y78217D01*
X144615Y77884D01*
X141616Y78217D02*
X142949D01*
Y77218D01*
X142283Y77551D01*
X141949D01*
X141616Y77218D01*
Y76551D01*
X141949Y76218D01*
X142616D01*
X142949Y76551D01*
X321539Y131655D02*
X320206D01*
X320872D01*
Y129656D01*
X319540D02*
Y131655D01*
X318540D01*
X318207Y131322D01*
Y130655D01*
X318540Y130322D01*
X319540D01*
X317540Y129656D02*
X316874D01*
X317207D01*
Y131655D01*
X317540Y131322D01*
X315874Y129656D02*
X315208D01*
X315541D01*
Y131655D01*
X315874Y131322D01*
X312875Y131655D02*
X313542Y131322D01*
X314208Y130655D01*
Y129989D01*
X313875Y129656D01*
X313208D01*
X312875Y129989D01*
Y130322D01*
X313208Y130655D01*
X314208D01*
X292952Y143550D02*
X291619D01*
X292286D01*
Y141551D01*
X290953D02*
Y143550D01*
X289953D01*
X289620Y143217D01*
Y142550D01*
X289953Y142217D01*
X290953D01*
X288953Y141551D02*
X288287D01*
X288620D01*
Y143550D01*
X288953Y143217D01*
X287287Y141551D02*
X286621D01*
X286954D01*
Y143550D01*
X287287Y143217D01*
X285621Y143550D02*
X284288D01*
Y143217D01*
X285621Y141884D01*
Y141551D01*
X256211Y92349D02*
X254878D01*
X255544D01*
Y90350D01*
X254211D02*
Y92349D01*
X253212D01*
X252878Y92016D01*
Y91349D01*
X253212Y91016D01*
X254211D01*
X252212Y90350D02*
X251546D01*
X251879D01*
Y92349D01*
X252212Y92016D01*
X250546Y90350D02*
X249879D01*
X250213D01*
Y92349D01*
X250546Y92016D01*
X248880D02*
X248547Y92349D01*
X247880D01*
X247547Y92016D01*
Y91682D01*
X247880Y91349D01*
X247547Y91016D01*
Y90683D01*
X247880Y90350D01*
X248547D01*
X248880Y90683D01*
Y91016D01*
X248547Y91349D01*
X248880Y91682D01*
Y92016D01*
X248547Y91349D02*
X247880D01*
X274125Y77988D02*
X272792D01*
X273459D01*
Y75989D01*
X272126D02*
Y77988D01*
X271126D01*
X270793Y77655D01*
Y76989D01*
X271126Y76656D01*
X272126D01*
X270126Y75989D02*
X269460D01*
X269793D01*
Y77988D01*
X270126Y77655D01*
X268460Y75989D02*
X267794D01*
X268127D01*
Y77988D01*
X268460Y77655D01*
X266794Y76322D02*
X266461Y75989D01*
X265794D01*
X265461Y76322D01*
Y77655D01*
X265794Y77988D01*
X266461D01*
X266794Y77655D01*
Y77322D01*
X266461Y76989D01*
X265461D01*
X311114Y89665D02*
X309781D01*
X310447D01*
Y87666D01*
X309115D02*
Y89665D01*
X308115D01*
X307782Y89332D01*
Y88666D01*
X308115Y88332D01*
X309115D01*
X307115Y87666D02*
X306449D01*
X306782D01*
Y89665D01*
X307115Y89332D01*
X304116Y87666D02*
X305449D01*
X304116Y88999D01*
Y89332D01*
X304449Y89665D01*
X305116D01*
X305449Y89332D01*
X303450D02*
X303116Y89665D01*
X302450D01*
X302117Y89332D01*
Y87999D01*
X302450Y87666D01*
X303116D01*
X303450Y87999D01*
Y89332D01*
X292619Y78133D02*
X291286D01*
X291953D01*
Y76134D01*
X290620D02*
Y78133D01*
X289620D01*
X289287Y77800D01*
Y77134D01*
X289620Y76801D01*
X290620D01*
X288621Y76134D02*
X287954D01*
X288287D01*
Y78133D01*
X288621Y77800D01*
X285622Y76134D02*
X286955D01*
X285622Y77467D01*
Y77800D01*
X285955Y78133D01*
X286621D01*
X286955Y77800D01*
X284955Y76134D02*
X284289D01*
X284622D01*
Y78133D01*
X284955Y77800D01*
X386221Y127605D02*
X384888D01*
X385555D01*
Y125606D01*
X384222D02*
Y127605D01*
X383222D01*
X382889Y127272D01*
Y126606D01*
X383222Y126272D01*
X384222D01*
X382223Y125606D02*
X381556D01*
X381889D01*
Y127605D01*
X382223Y127272D01*
X379223Y125606D02*
X380556D01*
X379223Y126939D01*
Y127272D01*
X379557Y127605D01*
X380223D01*
X380556Y127272D01*
X377224Y125606D02*
X378557D01*
X377224Y126939D01*
Y127272D01*
X377557Y127605D01*
X378224D01*
X378557Y127272D01*
X379709Y146437D02*
X378377D01*
X379043D01*
Y144438D01*
X377710D02*
Y146437D01*
X376710D01*
X376377Y146104D01*
Y145437D01*
X376710Y145104D01*
X377710D01*
X375711Y144438D02*
X375044D01*
X375377D01*
Y146437D01*
X375711Y146104D01*
X372712Y144438D02*
X374045D01*
X372712Y145770D01*
Y146104D01*
X373045Y146437D01*
X373711D01*
X374045Y146104D01*
X372045D02*
X371712Y146437D01*
X371045D01*
X370712Y146104D01*
Y145770D01*
X371045Y145437D01*
X371379D01*
X371045D01*
X370712Y145104D01*
Y144771D01*
X371045Y144438D01*
X371712D01*
X372045Y144771D01*
X335401Y88219D02*
X334068D01*
X334735D01*
Y86220D01*
X333402D02*
Y88219D01*
X332402D01*
X332069Y87886D01*
Y87219D01*
X332402Y86886D01*
X333402D01*
X331402Y86220D02*
X330736D01*
X331069D01*
Y88219D01*
X331402Y87886D01*
X328403Y86220D02*
X329736D01*
X328403Y87552D01*
Y87886D01*
X328736Y88219D01*
X329403D01*
X329736Y87886D01*
X326737Y86220D02*
Y88219D01*
X327737Y87219D01*
X326404D01*
X346972Y81129D02*
X345640D01*
X346306D01*
Y79130D01*
X344973D02*
Y81129D01*
X343973D01*
X343640Y80796D01*
Y80129D01*
X343973Y79796D01*
X344973D01*
X342974Y79130D02*
X342307D01*
X342641D01*
Y81129D01*
X342974Y80796D01*
X339975Y79130D02*
X341308D01*
X339975Y80463D01*
Y80796D01*
X340308Y81129D01*
X340974D01*
X341308Y80796D01*
X337975Y81129D02*
X339308D01*
Y80129D01*
X338642Y80463D01*
X338309D01*
X337975Y80129D01*
Y79463D01*
X338309Y79130D01*
X338975D01*
X339308Y79463D01*
X385994Y90193D02*
X384661D01*
X385327D01*
Y88194D01*
X383994D02*
Y90193D01*
X382995D01*
X382662Y89860D01*
Y89193D01*
X382995Y88860D01*
X383994D01*
X381995Y88194D02*
X381329D01*
X381662D01*
Y90193D01*
X381995Y89860D01*
X378996Y88194D02*
X380329D01*
X378996Y89527D01*
Y89860D01*
X379329Y90193D01*
X379996D01*
X380329Y89860D01*
X376997Y90193D02*
X377663Y89860D01*
X378329Y89193D01*
Y88527D01*
X377996Y88194D01*
X377330D01*
X376997Y88527D01*
Y88860D01*
X377330Y89193D01*
X378329D01*
X367915Y77951D02*
X366582D01*
X367249D01*
Y75952D01*
X365916D02*
Y77951D01*
X364916D01*
X364583Y77618D01*
Y76951D01*
X364916Y76618D01*
X365916D01*
X363917Y75952D02*
X363250D01*
X363583D01*
Y77951D01*
X363917Y77618D01*
X360918Y75952D02*
X362250D01*
X360918Y77285D01*
Y77618D01*
X361251Y77951D01*
X361917D01*
X362250Y77618D01*
X360251Y77951D02*
X358918D01*
Y77618D01*
X360251Y76285D01*
Y75952D01*
X168682Y289941D02*
X167349D01*
X168015D01*
Y287942D01*
X166682D02*
Y289941D01*
X165683D01*
X165349Y289608D01*
Y288941D01*
X165683Y288608D01*
X166682D01*
X164683Y287942D02*
X164017D01*
X164350D01*
Y289941D01*
X164683Y289608D01*
X161684Y287942D02*
X163017D01*
X161684Y289274D01*
Y289608D01*
X162017Y289941D01*
X162684D01*
X163017Y289608D01*
X161018D02*
X160684Y289941D01*
X160018D01*
X159685Y289608D01*
Y289274D01*
X160018Y288941D01*
X159685Y288608D01*
Y288275D01*
X160018Y287942D01*
X160684D01*
X161018Y288275D01*
Y288608D01*
X160684Y288941D01*
X161018Y289274D01*
Y289608D01*
X160684Y288941D02*
X160018D01*
X148372Y294454D02*
X147039D01*
X147705D01*
Y292455D01*
X146372D02*
Y294454D01*
X145373D01*
X145039Y294121D01*
Y293455D01*
X145373Y293121D01*
X146372D01*
X144373Y292455D02*
X143707D01*
X144040D01*
Y294454D01*
X144373Y294121D01*
X141374Y292455D02*
X142707D01*
X141374Y293788D01*
Y294121D01*
X141707Y294454D01*
X142374D01*
X142707Y294121D01*
X140708Y292788D02*
X140374Y292455D01*
X139708D01*
X139375Y292788D01*
Y294121D01*
X139708Y294454D01*
X140374D01*
X140708Y294121D01*
Y293788D01*
X140374Y293455D01*
X139375D01*
X221644Y324990D02*
Y326323D01*
Y325657D01*
X219644D01*
Y326990D02*
X221644D01*
X220977Y327656D01*
X221644Y328323D01*
X219644D01*
X221311Y330322D02*
X221644Y329989D01*
Y329322D01*
X221311Y328989D01*
X220977D01*
X220644Y329322D01*
Y329989D01*
X220311Y330322D01*
X219978D01*
X219644Y329989D01*
Y329322D01*
X219978Y328989D01*
X219644Y330988D02*
X220977Y332321D01*
X221311Y334321D02*
X221644Y333987D01*
Y333321D01*
X221311Y332988D01*
X220977D01*
X220644Y333321D01*
Y333987D01*
X220311Y334321D01*
X219978D01*
X219644Y333987D01*
Y333321D01*
X219978Y332988D01*
X221644Y334987D02*
X219644D01*
X220311Y335653D01*
X219644Y336320D01*
X221644D01*
Y336986D02*
X219644D01*
Y337986D01*
X219978Y338319D01*
X221311D01*
X221644Y337986D01*
Y336986D01*
Y338986D02*
Y339652D01*
Y339319D01*
X219644D01*
Y338986D01*
Y339652D01*
X221644Y341652D02*
Y340985D01*
X221311Y340652D01*
X219978D01*
X219644Y340985D01*
Y341652D01*
X219978Y341985D01*
X221311D01*
X221644Y341652D01*
X127266Y453843D02*
Y455176D01*
Y454510D01*
X125267D01*
Y455843D02*
X127266D01*
Y456842D01*
X126933Y457176D01*
X126266D01*
X125933Y456842D01*
Y455843D01*
X125267Y457842D02*
Y458508D01*
Y458175D01*
X127266D01*
X126933Y457842D01*
Y459508D02*
X127266Y459841D01*
Y460508D01*
X126933Y460841D01*
X125600D01*
X125267Y460508D01*
Y459841D01*
X125600Y459508D01*
X126933D01*
Y461508D02*
X127266Y461841D01*
Y462507D01*
X126933Y462840D01*
X125600D01*
X125267Y462507D01*
Y461841D01*
X125600Y461508D01*
X126933D01*
X146705Y453682D02*
Y455015D01*
Y454348D01*
X144706D01*
Y455681D02*
X146705D01*
Y456681D01*
X146372Y457014D01*
X145705D01*
X145372Y456681D01*
Y455681D01*
X145039Y457681D02*
X144706Y458014D01*
Y458680D01*
X145039Y459013D01*
X146372D01*
X146705Y458680D01*
Y458014D01*
X146372Y457681D01*
X146039D01*
X145705Y458014D01*
Y459013D01*
X145039Y459680D02*
X144706Y460013D01*
Y460679D01*
X145039Y461013D01*
X146372D01*
X146705Y460679D01*
Y460013D01*
X146372Y459680D01*
X146039D01*
X145705Y460013D01*
Y461013D01*
X156129Y457613D02*
Y458946D01*
Y458279D01*
X154129D01*
Y459612D02*
X156129D01*
Y460612D01*
X155796Y460945D01*
X155129D01*
X154796Y460612D01*
Y459612D01*
X154463Y461611D02*
X154129Y461945D01*
Y462611D01*
X154463Y462944D01*
X155796D01*
X156129Y462611D01*
Y461945D01*
X155796Y461611D01*
X155462D01*
X155129Y461945D01*
Y462944D01*
X155796Y463611D02*
X156129Y463944D01*
Y464610D01*
X155796Y464944D01*
X155462D01*
X155129Y464610D01*
X154796Y464944D01*
X154463D01*
X154129Y464610D01*
Y463944D01*
X154463Y463611D01*
X154796D01*
X155129Y463944D01*
X155462Y463611D01*
X155796D01*
X155129Y463944D02*
Y464610D01*
X166737Y453790D02*
Y455122D01*
Y454456D01*
X164738D01*
Y455789D02*
X166737D01*
Y456788D01*
X166404Y457122D01*
X165737D01*
X165404Y456788D01*
Y455789D01*
X165071Y457788D02*
X164738Y458121D01*
Y458788D01*
X165071Y459121D01*
X166404D01*
X166737Y458788D01*
Y458121D01*
X166404Y457788D01*
X166070D01*
X165737Y458121D01*
Y459121D01*
X166737Y459788D02*
Y461120D01*
X166404D01*
X165071Y459788D01*
X164738D01*
X296589Y453883D02*
Y455216D01*
Y454549D01*
X294590D01*
Y455882D02*
X296589D01*
Y456882D01*
X296256Y457215D01*
X295589D01*
X295256Y456882D01*
Y455882D01*
X294923Y457881D02*
X294590Y458215D01*
Y458881D01*
X294923Y459214D01*
X296256D01*
X296589Y458881D01*
Y458215D01*
X296256Y457881D01*
X295923D01*
X295589Y458215D01*
Y459214D01*
X294590Y461214D02*
Y459881D01*
X295923Y461214D01*
X296256D01*
X296589Y460880D01*
Y460214D01*
X296256Y459881D01*
X316095Y453830D02*
Y455163D01*
Y454496D01*
X314095D01*
Y455829D02*
X316095D01*
Y456829D01*
X315762Y457162D01*
X315095D01*
X314762Y456829D01*
Y455829D01*
X314429Y457829D02*
X314095Y458162D01*
Y458828D01*
X314429Y459162D01*
X315762D01*
X316095Y458828D01*
Y458162D01*
X315762Y457829D01*
X315428D01*
X315095Y458162D01*
Y459162D01*
X314095Y459828D02*
Y460495D01*
Y460161D01*
X316095D01*
X315762Y459828D01*
X326059Y453250D02*
Y454583D01*
Y453917D01*
X324059D01*
Y455249D02*
X326059D01*
Y456249D01*
X325725Y456582D01*
X325059D01*
X324726Y456249D01*
Y455249D01*
X324393Y457249D02*
X324059Y457582D01*
Y458249D01*
X324393Y458582D01*
X325725D01*
X326059Y458249D01*
Y457582D01*
X325725Y457249D01*
X325392D01*
X325059Y457582D01*
Y458582D01*
X325725Y459248D02*
X326059Y459581D01*
Y460248D01*
X325725Y460581D01*
X324393D01*
X324059Y460248D01*
Y459581D01*
X324393Y459248D01*
X325725D01*
X336127Y454531D02*
Y455864D01*
Y455197D01*
X334127D01*
Y456530D02*
X336127D01*
Y457530D01*
X335793Y457863D01*
X335127D01*
X334794Y457530D01*
Y456530D01*
X335793Y458529D02*
X336127Y458863D01*
Y459529D01*
X335793Y459862D01*
X335460D01*
X335127Y459529D01*
X334794Y459862D01*
X334460D01*
X334127Y459529D01*
Y458863D01*
X334460Y458529D01*
X334794D01*
X335127Y458863D01*
X335460Y458529D01*
X335793D01*
X335127Y458863D02*
Y459529D01*
X334460Y460529D02*
X334127Y460862D01*
Y461528D01*
X334460Y461862D01*
X335793D01*
X336127Y461528D01*
Y460862D01*
X335793Y460529D01*
X335460D01*
X335127Y460862D01*
Y461862D01*
X365619Y454103D02*
Y455436D01*
Y454769D01*
X363620D01*
Y456102D02*
X365619D01*
Y457102D01*
X365286Y457435D01*
X364620D01*
X364287Y457102D01*
Y456102D01*
X365286Y458102D02*
X365619Y458435D01*
Y459101D01*
X365286Y459435D01*
X364953D01*
X364620Y459101D01*
X364287Y459435D01*
X363953D01*
X363620Y459101D01*
Y458435D01*
X363953Y458102D01*
X364287D01*
X364620Y458435D01*
X364953Y458102D01*
X365286D01*
X364620Y458435D02*
Y459101D01*
X365286Y460101D02*
X365619Y460434D01*
Y461101D01*
X365286Y461434D01*
X364953D01*
X364620Y461101D01*
X364287Y461434D01*
X363953D01*
X363620Y461101D01*
Y460434D01*
X363953Y460101D01*
X364287D01*
X364620Y460434D01*
X364953Y460101D01*
X365286D01*
X364620Y460434D02*
Y461101D01*
X375429Y454600D02*
Y455933D01*
Y455267D01*
X373429D01*
Y456600D02*
X375429D01*
Y457599D01*
X375095Y457933D01*
X374429D01*
X374096Y457599D01*
Y456600D01*
X375095Y458599D02*
X375429Y458932D01*
Y459599D01*
X375095Y459932D01*
X374762D01*
X374429Y459599D01*
X374096Y459932D01*
X373762D01*
X373429Y459599D01*
Y458932D01*
X373762Y458599D01*
X374096D01*
X374429Y458932D01*
X374762Y458599D01*
X375095D01*
X374429Y458932D02*
Y459599D01*
X375429Y460599D02*
Y461932D01*
X375095D01*
X373762Y460599D01*
X373429D01*
X385451Y454600D02*
Y455933D01*
Y455267D01*
X383451D01*
Y456600D02*
X385451D01*
Y457599D01*
X385118Y457933D01*
X384451D01*
X384118Y457599D01*
Y456600D01*
X385118Y458599D02*
X385451Y458932D01*
Y459599D01*
X385118Y459932D01*
X384784D01*
X384451Y459599D01*
X384118Y459932D01*
X383785D01*
X383451Y459599D01*
Y458932D01*
X383785Y458599D01*
X384118D01*
X384451Y458932D01*
X384784Y458599D01*
X385118D01*
X384451Y458932D02*
Y459599D01*
X385451Y461932D02*
X385118Y461265D01*
X384451Y460599D01*
X383785D01*
X383451Y460932D01*
Y461598D01*
X383785Y461932D01*
X384118D01*
X384451Y461598D01*
Y460599D01*
X395615Y455169D02*
Y456502D01*
Y455836D01*
X393616D01*
Y457168D02*
X395615D01*
Y458168D01*
X395282Y458501D01*
X394615D01*
X394282Y458168D01*
Y457168D01*
X395282Y459168D02*
X395615Y459501D01*
Y460168D01*
X395282Y460501D01*
X394949D01*
X394615Y460168D01*
X394282Y460501D01*
X393949D01*
X393616Y460168D01*
Y459501D01*
X393949Y459168D01*
X394282D01*
X394615Y459501D01*
X394949Y459168D01*
X395282D01*
X394615Y459501D02*
Y460168D01*
X395615Y462500D02*
Y461167D01*
X394615D01*
X394949Y461834D01*
Y462167D01*
X394615Y462500D01*
X393949D01*
X393616Y462167D01*
Y461500D01*
X393949Y461167D01*
X164153Y529307D02*
X162820D01*
X163487D01*
Y527307D01*
X162154D02*
Y529307D01*
X161154D01*
X160821Y528973D01*
Y528307D01*
X161154Y527974D01*
X162154D01*
X160154Y528973D02*
X159821Y529307D01*
X159155D01*
X158821Y528973D01*
Y528640D01*
X159155Y528307D01*
X158821Y527974D01*
Y527640D01*
X159155Y527307D01*
X159821D01*
X160154Y527640D01*
Y527974D01*
X159821Y528307D01*
X160154Y528640D01*
Y528973D01*
X159821Y528307D02*
X159155D01*
X158155Y528973D02*
X157822Y529307D01*
X157155D01*
X156822Y528973D01*
Y528640D01*
X157155Y528307D01*
X157489D01*
X157155D01*
X156822Y527974D01*
Y527640D01*
X157155Y527307D01*
X157822D01*
X158155Y527640D01*
X90728Y516587D02*
X89395D01*
X90061D01*
Y514588D01*
X88728D02*
Y516587D01*
X87729D01*
X87395Y516254D01*
Y515588D01*
X87729Y515254D01*
X88728D01*
X85396Y514588D02*
X86729D01*
X85396Y515921D01*
Y516254D01*
X85729Y516587D01*
X86396D01*
X86729Y516254D01*
X83397Y516587D02*
X84730D01*
Y515588D01*
X84063Y515921D01*
X83730D01*
X83397Y515588D01*
Y514921D01*
X83730Y514588D01*
X84396D01*
X84730Y514921D01*
X96744Y453268D02*
Y454601D01*
Y453934D01*
X94744D01*
Y455267D02*
X96744D01*
Y456267D01*
X96410Y456600D01*
X95744D01*
X95411Y456267D01*
Y455267D01*
X94744Y457266D02*
Y457933D01*
Y457600D01*
X96744D01*
X96410Y457266D01*
X95077Y458932D02*
X94744Y459266D01*
Y459932D01*
X95077Y460265D01*
X96410D01*
X96744Y459932D01*
Y459266D01*
X96410Y458932D01*
X96077D01*
X95744Y459266D01*
Y460265D01*
X106528Y452835D02*
Y454168D01*
Y453502D01*
X104529D01*
Y454835D02*
X106528D01*
Y455834D01*
X106195Y456168D01*
X105529D01*
X105196Y455834D01*
Y454835D01*
X104529Y456834D02*
Y457500D01*
Y457167D01*
X106528D01*
X106195Y456834D01*
Y458500D02*
X106528Y458833D01*
Y459500D01*
X106195Y459833D01*
X105862D01*
X105529Y459500D01*
X105196Y459833D01*
X104862D01*
X104529Y459500D01*
Y458833D01*
X104862Y458500D01*
X105196D01*
X105529Y458833D01*
X105862Y458500D01*
X106195D01*
X105529Y458833D02*
Y459500D01*
X281326Y638206D02*
X279993D01*
X280660D01*
Y636206D01*
X279327D02*
Y638206D01*
X278327D01*
X277994Y637873D01*
Y637206D01*
X278327Y636873D01*
X279327D01*
X277327Y636206D02*
X276661D01*
X276994D01*
Y638206D01*
X277327Y637873D01*
X275661Y638206D02*
X274328D01*
Y637873D01*
X275661Y636540D01*
Y636206D01*
X357798Y594556D02*
X356465D01*
X357132D01*
Y592556D01*
X355799D02*
Y594556D01*
X354799D01*
X354466Y594222D01*
Y593556D01*
X354799Y593223D01*
X355799D01*
X353799Y592556D02*
X353133D01*
X353466D01*
Y594556D01*
X353799Y594222D01*
X350800Y592556D02*
X352133D01*
X350800Y593889D01*
Y594222D01*
X351133Y594556D01*
X351800D01*
X352133Y594222D01*
X285556Y674488D02*
X284223D01*
X284889D01*
Y672488D01*
X283556D02*
Y674488D01*
X282557D01*
X282223Y674154D01*
Y673488D01*
X282557Y673155D01*
X283556D01*
X281557Y672488D02*
X280890D01*
X281224D01*
Y674488D01*
X281557Y674154D01*
X279891Y672488D02*
X279224D01*
X279557D01*
Y674488D01*
X279891Y674154D01*
X321161Y594147D02*
X319828D01*
X320495D01*
Y592148D01*
X319162D02*
Y594147D01*
X318162D01*
X317829Y593814D01*
Y593147D01*
X318162Y592814D01*
X319162D01*
X317162Y592148D02*
X316496D01*
X316829D01*
Y594147D01*
X317162Y593814D01*
X315496D02*
X315163Y594147D01*
X314497D01*
X314163Y593814D01*
Y592481D01*
X314497Y592148D01*
X315163D01*
X315496Y592481D01*
Y593814D01*
X302353Y595512D02*
X301020D01*
X301686D01*
Y593512D01*
X300354D02*
Y595512D01*
X299354D01*
X299021Y595179D01*
Y594512D01*
X299354Y594179D01*
X300354D01*
X298354Y593846D02*
X298021Y593512D01*
X297355D01*
X297021Y593846D01*
Y595179D01*
X297355Y595512D01*
X298021D01*
X298354Y595179D01*
Y594845D01*
X298021Y594512D01*
X297021D01*
X347793Y636466D02*
X346460D01*
X347127D01*
Y634467D01*
X345794D02*
Y636466D01*
X344794D01*
X344461Y636133D01*
Y635467D01*
X344794Y635134D01*
X345794D01*
X343794Y636133D02*
X343461Y636466D01*
X342794D01*
X342461Y636133D01*
Y635800D01*
X342794Y635467D01*
X342461Y635134D01*
Y634800D01*
X342794Y634467D01*
X343461D01*
X343794Y634800D01*
Y635134D01*
X343461Y635467D01*
X343794Y635800D01*
Y636133D01*
X343461Y635467D02*
X342794D01*
X361547Y652668D02*
X360214D01*
X360881D01*
Y650668D01*
X359548D02*
Y652668D01*
X358548D01*
X358215Y652334D01*
Y651668D01*
X358548Y651335D01*
X359548D01*
X357548Y652668D02*
X356216D01*
Y652334D01*
X357548Y651002D01*
Y650668D01*
X328982Y640619D02*
X327649D01*
X328316D01*
Y638620D01*
X326983D02*
Y640619D01*
X325983D01*
X325650Y640286D01*
Y639620D01*
X325983Y639286D01*
X326983D01*
X323651Y640619D02*
X324317Y640286D01*
X324984Y639620D01*
Y638953D01*
X324650Y638620D01*
X323984D01*
X323651Y638953D01*
Y639286D01*
X323984Y639620D01*
X324984D01*
X313707Y641281D02*
X312374D01*
X313040D01*
Y639281D01*
X311707D02*
Y641281D01*
X310708D01*
X310375Y640947D01*
Y640281D01*
X310708Y639948D01*
X311707D01*
X308375Y641281D02*
X309708D01*
Y640281D01*
X309042Y640614D01*
X308709D01*
X308375Y640281D01*
Y639614D01*
X308709Y639281D01*
X309375D01*
X309708Y639614D01*
X316626Y502208D02*
X315293D01*
X315960D01*
Y500209D01*
X314627D02*
Y502208D01*
X313627D01*
X313294Y501875D01*
Y501209D01*
X313627Y500875D01*
X314627D01*
X311628Y500209D02*
Y502208D01*
X312627Y501209D01*
X311294D01*
X387894Y505293D02*
X386561D01*
X387227D01*
Y503294D01*
X385894D02*
Y505293D01*
X384895D01*
X384561Y504960D01*
Y504293D01*
X384895Y503960D01*
X385894D01*
X383895Y504960D02*
X383562Y505293D01*
X382895D01*
X382562Y504960D01*
Y504627D01*
X382895Y504293D01*
X383228D01*
X382895D01*
X382562Y503960D01*
Y503627D01*
X382895Y503294D01*
X383562D01*
X383895Y503627D01*
X86850Y455214D02*
Y456547D01*
Y455880D01*
X84851D01*
Y457213D02*
X86850D01*
Y458213D01*
X86517Y458546D01*
X85851D01*
X85518Y458213D01*
Y457213D01*
X84851Y460545D02*
Y459213D01*
X86184Y460545D01*
X86517D01*
X86850Y460212D01*
Y459546D01*
X86517Y459213D01*
X66956Y454998D02*
Y456331D01*
Y455664D01*
X64957D01*
Y456997D02*
X66956D01*
Y457997D01*
X66623Y458330D01*
X65956D01*
X65623Y457997D01*
Y456997D01*
X64957Y458996D02*
Y459663D01*
Y459330D01*
X66956D01*
X66623Y458996D01*
X347150Y560677D02*
X345817D01*
X346484D01*
Y558677D01*
X345151D02*
Y560677D01*
X344151D01*
X343818Y560343D01*
Y559677D01*
X344151Y559344D01*
X345151D01*
X343151Y558677D02*
X342485D01*
X342818D01*
Y560677D01*
X343151Y560343D01*
X341485D02*
X341152Y560677D01*
X340486D01*
X340153Y560343D01*
Y559011D01*
X340486Y558677D01*
X341152D01*
X341485Y559011D01*
Y560343D01*
X338153Y560677D02*
X339486D01*
Y559677D01*
X338820Y560010D01*
X338486D01*
X338153Y559677D01*
Y559011D01*
X338486Y558677D01*
X339153D01*
X339486Y559011D01*
X367212Y755092D02*
X365879D01*
X366545D01*
Y753093D01*
X365212D02*
Y755092D01*
X364212D01*
X363879Y754759D01*
Y754092D01*
X364212Y753759D01*
X365212D01*
X362213Y753093D02*
Y755092D01*
X363213Y754092D01*
X361880D01*
X361213Y754759D02*
X360880Y755092D01*
X360214D01*
X359881Y754759D01*
Y754425D01*
X360214Y754092D01*
X360547D01*
X360214D01*
X359881Y753759D01*
Y753426D01*
X360214Y753093D01*
X360880D01*
X361213Y753426D01*
X357802Y735236D02*
X356469D01*
X357136D01*
Y733237D01*
X355803D02*
Y735236D01*
X354803D01*
X354470Y734903D01*
Y734236D01*
X354803Y733903D01*
X355803D01*
X352804Y733237D02*
Y735236D01*
X353803Y734236D01*
X352470D01*
X351804Y734903D02*
X351471Y735236D01*
X350804D01*
X350471Y734903D01*
Y734570D01*
X350804Y734236D01*
X350471Y733903D01*
Y733570D01*
X350804Y733237D01*
X351471D01*
X351804Y733570D01*
Y733903D01*
X351471Y734236D01*
X351804Y734570D01*
Y734903D01*
X351471Y734236D02*
X350804D01*
X378021Y741197D02*
X376688D01*
X377355D01*
Y739198D01*
X376022D02*
Y741197D01*
X375022D01*
X374689Y740864D01*
Y740198D01*
X375022Y739864D01*
X376022D01*
X373023Y739198D02*
Y741197D01*
X374022Y740198D01*
X372689D01*
X371023Y739198D02*
Y741197D01*
X372023Y740198D01*
X370690D01*
X422774Y724987D02*
X421441D01*
X422107D01*
Y722987D01*
X420774D02*
Y724987D01*
X419774D01*
X419441Y724653D01*
Y723987D01*
X419774Y723654D01*
X420774D01*
X417442Y724987D02*
X418775D01*
Y723987D01*
X418108Y724320D01*
X417775D01*
X417442Y723987D01*
Y723320D01*
X417775Y722987D01*
X418442D01*
X418775Y723320D01*
X416776Y722987D02*
X416109D01*
X416442D01*
Y724987D01*
X416776Y724653D01*
X333423Y797776D02*
X332090D01*
X332756D01*
Y795777D01*
X331423D02*
Y797776D01*
X330424D01*
X330091Y797443D01*
Y796777D01*
X330424Y796444D01*
X331423D01*
X328424Y795777D02*
Y797776D01*
X329424Y796777D01*
X328091D01*
X326092Y797776D02*
X327425D01*
Y796777D01*
X326758Y797110D01*
X326425D01*
X326092Y796777D01*
Y796110D01*
X326425Y795777D01*
X327092D01*
X327425Y796110D01*
X421787Y614483D02*
X420454D01*
X421121D01*
Y612484D01*
X419788D02*
Y614483D01*
X418788D01*
X418455Y614150D01*
Y613483D01*
X418788Y613150D01*
X419788D01*
X416455Y614483D02*
X417122Y614150D01*
X417788Y613483D01*
Y612817D01*
X417455Y612484D01*
X416789D01*
X416455Y612817D01*
Y613150D01*
X416789Y613483D01*
X417788D01*
X415789Y614150D02*
X415456Y614483D01*
X414789D01*
X414456Y614150D01*
Y613817D01*
X414789Y613483D01*
X414456Y613150D01*
Y612817D01*
X414789Y612484D01*
X415456D01*
X415789Y612817D01*
Y613150D01*
X415456Y613483D01*
X415789Y613817D01*
Y614150D01*
X415456Y613483D02*
X414789D01*
X46415Y671859D02*
X45082D01*
X45749D01*
Y669860D01*
X44416D02*
Y671859D01*
X43416D01*
X43083Y671526D01*
Y670860D01*
X43416Y670526D01*
X44416D01*
X41084Y671859D02*
X41750Y671526D01*
X42417Y670860D01*
Y670193D01*
X42083Y669860D01*
X41417D01*
X41084Y670193D01*
Y670526D01*
X41417Y670860D01*
X42417D01*
X40417Y671526D02*
X40084Y671859D01*
X39417D01*
X39084Y671526D01*
Y670193D01*
X39417Y669860D01*
X40084D01*
X40417Y670193D01*
Y671526D01*
X81682Y658663D02*
X80349D01*
X81015D01*
Y656663D01*
X79682D02*
Y658663D01*
X78683D01*
X78350Y658329D01*
Y657663D01*
X78683Y657330D01*
X79682D01*
X76350Y658663D02*
X77017Y658329D01*
X77683Y657663D01*
Y656997D01*
X77350Y656663D01*
X76683D01*
X76350Y656997D01*
Y657330D01*
X76683Y657663D01*
X77683D01*
X75684Y656663D02*
X75017D01*
X75350D01*
Y658663D01*
X75684Y658329D01*
X189927Y803732D02*
X188594D01*
X189260D01*
Y801732D01*
X187928D02*
Y803732D01*
X186928D01*
X186595Y803398D01*
Y802732D01*
X186928Y802398D01*
X187928D01*
X184929Y801732D02*
Y803732D01*
X185928Y802732D01*
X184595D01*
X183929Y801732D02*
X183263D01*
X183596D01*
Y803732D01*
X183929Y803398D01*
X404875Y566933D02*
X403542D01*
X404209D01*
Y564934D01*
X402876D02*
Y566933D01*
X401876D01*
X401543Y566600D01*
Y565934D01*
X401876Y565600D01*
X402876D01*
X400876Y566933D02*
X399543D01*
Y566600D01*
X400876Y565267D01*
Y564934D01*
X398877Y565267D02*
X398544Y564934D01*
X397877D01*
X397544Y565267D01*
Y566600D01*
X397877Y566933D01*
X398544D01*
X398877Y566600D01*
Y566267D01*
X398544Y565934D01*
X397544D01*
X420792Y653269D02*
Y654602D01*
Y653936D01*
X418793D01*
Y655269D02*
X420792D01*
Y656269D01*
X420459Y656602D01*
X419792D01*
X419459Y656269D01*
Y655269D01*
X420792Y658601D02*
Y657268D01*
X419792D01*
X420126Y657935D01*
Y658268D01*
X419792Y658601D01*
X419126D01*
X418793Y658268D01*
Y657601D01*
X419126Y657268D01*
X420792Y659268D02*
Y660600D01*
X420459D01*
X419126Y659268D01*
X418793D01*
X318160Y775140D02*
X316827D01*
X317493D01*
Y773140D01*
X316160D02*
Y775140D01*
X315161D01*
X314828Y774806D01*
Y774140D01*
X315161Y773807D01*
X316160D01*
X313161Y773140D02*
Y775140D01*
X314161Y774140D01*
X312828D01*
X310829Y775140D02*
X311495Y774806D01*
X312162Y774140D01*
Y773474D01*
X311828Y773140D01*
X311162D01*
X310829Y773474D01*
Y773807D01*
X311162Y774140D01*
X312162D01*
X60418Y790896D02*
X59085D01*
X59751D01*
Y788897D01*
X58418D02*
Y790896D01*
X57419D01*
X57086Y790563D01*
Y789896D01*
X57419Y789563D01*
X58418D01*
X55419Y788897D02*
Y790896D01*
X56419Y789896D01*
X55086D01*
X53087Y788897D02*
X54420D01*
X53087Y790230D01*
Y790563D01*
X53420Y790896D01*
X54086D01*
X54420Y790563D01*
X282994Y743693D02*
X281661D01*
X282327D01*
Y741694D01*
X280994D02*
Y743693D01*
X279995D01*
X279661Y743360D01*
Y742693D01*
X279995Y742360D01*
X280994D01*
X277995Y741694D02*
Y743693D01*
X278995Y742693D01*
X277662D01*
X276996Y743693D02*
X275663D01*
Y743360D01*
X276996Y742027D01*
Y741694D01*
X386806Y823040D02*
X385473D01*
X386140D01*
Y821040D01*
X384807D02*
Y823040D01*
X383807D01*
X383474Y822706D01*
Y822040D01*
X383807Y821707D01*
X384807D01*
X382808Y822706D02*
X382474Y823040D01*
X381808D01*
X381475Y822706D01*
Y822373D01*
X381808Y822040D01*
X382141D01*
X381808D01*
X381475Y821707D01*
Y821373D01*
X381808Y821040D01*
X382474D01*
X382808Y821373D01*
X379475Y823040D02*
X380142Y822706D01*
X380808Y822040D01*
Y821373D01*
X380475Y821040D01*
X379809D01*
X379475Y821373D01*
Y821707D01*
X379809Y822040D01*
X380808D01*
X284440Y567977D02*
X283107D01*
X283773D01*
Y565978D01*
X282440D02*
Y567977D01*
X281441D01*
X281107Y567644D01*
Y566978D01*
X281441Y566644D01*
X282440D01*
X280441Y567977D02*
X279108D01*
Y567644D01*
X280441Y566311D01*
Y565978D01*
X278442Y567644D02*
X278108Y567977D01*
X277442D01*
X277109Y567644D01*
Y567311D01*
X277442Y566978D01*
X277109Y566644D01*
Y566311D01*
X277442Y565978D01*
X278108D01*
X278442Y566311D01*
Y566644D01*
X278108Y566978D01*
X278442Y567311D01*
Y567644D01*
X278108Y566978D02*
X277442D01*
X335252Y585508D02*
X333919D01*
X334586D01*
Y583509D01*
X333253D02*
Y585508D01*
X332253D01*
X331920Y585175D01*
Y584509D01*
X332253Y584176D01*
X333253D01*
X331253Y585508D02*
X329921D01*
Y585175D01*
X331253Y583842D01*
Y583509D01*
X328254D02*
Y585508D01*
X329254Y584509D01*
X327921D01*
X235229Y513812D02*
X233896D01*
X234563D01*
Y511813D01*
X233230D02*
Y513812D01*
X232230D01*
X231897Y513479D01*
Y512812D01*
X232230Y512479D01*
X233230D01*
X231230Y513479D02*
X230897Y513812D01*
X230231D01*
X229897Y513479D01*
Y513145D01*
X230231Y512812D01*
X229897Y512479D01*
Y512146D01*
X230231Y511813D01*
X230897D01*
X231230Y512146D01*
Y512479D01*
X230897Y512812D01*
X231230Y513145D01*
Y513479D01*
X230897Y512812D02*
X230231D01*
X228231Y511813D02*
Y513812D01*
X229231Y512812D01*
X227898D01*
X301166Y585482D02*
X299833D01*
X300500D01*
Y583483D01*
X299167D02*
Y585482D01*
X298167D01*
X297834Y585149D01*
Y584482D01*
X298167Y584149D01*
X299167D01*
X297167Y585482D02*
X295834D01*
Y585149D01*
X297167Y583816D01*
Y583483D01*
X293835Y585482D02*
X295168D01*
Y584482D01*
X294501Y584816D01*
X294168D01*
X293835Y584482D01*
Y583816D01*
X294168Y583483D01*
X294835D01*
X295168Y583816D01*
X314772Y569114D02*
X313439D01*
X314105D01*
Y567115D01*
X312772D02*
Y569114D01*
X311773D01*
X311439Y568781D01*
Y568115D01*
X311773Y567782D01*
X312772D01*
X310773Y569114D02*
X309440D01*
Y568781D01*
X310773Y567448D01*
Y567115D01*
X307441Y569114D02*
X308107Y568781D01*
X308774Y568115D01*
Y567448D01*
X308440Y567115D01*
X307774D01*
X307441Y567448D01*
Y567782D01*
X307774Y568115D01*
X308774D01*
X302025Y566753D02*
X300692D01*
X301359D01*
Y564753D01*
X300026D02*
Y566753D01*
X299026D01*
X298693Y566420D01*
Y565753D01*
X299026Y565420D01*
X300026D01*
X298026Y566753D02*
X296694D01*
Y566420D01*
X298026Y565087D01*
Y564753D01*
X296027Y566753D02*
X294694D01*
Y566420D01*
X296027Y565087D01*
Y564753D01*
X84803Y790512D02*
X83470D01*
X84136D01*
Y788513D01*
X82803D02*
Y790512D01*
X81804D01*
X81470Y790179D01*
Y789513D01*
X81804Y789179D01*
X82803D01*
X79804Y788513D02*
Y790512D01*
X80804Y789513D01*
X79471D01*
X78805Y790179D02*
X78471Y790512D01*
X77805D01*
X77472Y790179D01*
Y788846D01*
X77805Y788513D01*
X78471D01*
X78805Y788846D01*
Y790179D01*
X118691Y787494D02*
X117358D01*
X118025D01*
Y785495D01*
X116692D02*
Y787494D01*
X115692D01*
X115359Y787161D01*
Y786494D01*
X115692Y786161D01*
X116692D01*
X114692Y787161D02*
X114359Y787494D01*
X113693D01*
X113359Y787161D01*
Y786828D01*
X113693Y786494D01*
X114026D01*
X113693D01*
X113359Y786161D01*
Y785828D01*
X113693Y785495D01*
X114359D01*
X114692Y785828D01*
X112693D02*
X112360Y785495D01*
X111693D01*
X111360Y785828D01*
Y787161D01*
X111693Y787494D01*
X112360D01*
X112693Y787161D01*
Y786828D01*
X112360Y786494D01*
X111360D01*
X157723Y787731D02*
X156390D01*
X157056D01*
Y785731D01*
X155723D02*
Y787731D01*
X154724D01*
X154390Y787397D01*
Y786731D01*
X154724Y786398D01*
X155723D01*
X153724Y787397D02*
X153391Y787731D01*
X152724D01*
X152391Y787397D01*
Y787064D01*
X152724Y786731D01*
X153057D01*
X152724D01*
X152391Y786398D01*
Y786064D01*
X152724Y785731D01*
X153391D01*
X153724Y786064D01*
X151725Y787397D02*
X151391Y787731D01*
X150725D01*
X150392Y787397D01*
Y787064D01*
X150725Y786731D01*
X150392Y786398D01*
Y786064D01*
X150725Y785731D01*
X151391D01*
X151725Y786064D01*
Y786398D01*
X151391Y786731D01*
X151725Y787064D01*
Y787397D01*
X151391Y786731D02*
X150725D01*
X235678Y780350D02*
Y781683D01*
Y781016D01*
X233679D01*
Y782349D02*
X235678D01*
Y783349D01*
X235345Y783682D01*
X234678D01*
X234345Y783349D01*
Y782349D01*
X235345Y784349D02*
X235678Y784682D01*
Y785348D01*
X235345Y785682D01*
X235012D01*
X234678Y785348D01*
Y785015D01*
Y785348D01*
X234345Y785682D01*
X234012D01*
X233679Y785348D01*
Y784682D01*
X234012Y784349D01*
X235678Y786348D02*
Y787681D01*
X235345D01*
X234012Y786348D01*
X233679D01*
X426507Y767267D02*
X425174D01*
X425840D01*
Y765268D01*
X424507D02*
Y767267D01*
X423508D01*
X423174Y766934D01*
Y766268D01*
X423508Y765934D01*
X424507D01*
X421175Y767267D02*
X422508D01*
Y766268D01*
X421842Y766601D01*
X421508D01*
X421175Y766268D01*
Y765601D01*
X421508Y765268D01*
X422175D01*
X422508Y765601D01*
X419176Y767267D02*
X420509D01*
Y766268D01*
X419842Y766601D01*
X419509D01*
X419176Y766268D01*
Y765601D01*
X419509Y765268D01*
X420176D01*
X420509Y765601D01*
X234460Y445992D02*
X233127D01*
X233794D01*
Y443993D01*
X232461D02*
Y445992D01*
X231461D01*
X231128Y445659D01*
Y444993D01*
X231461Y444659D01*
X232461D01*
X230462Y444326D02*
X230128Y443993D01*
X229462D01*
X229129Y444326D01*
Y445659D01*
X229462Y445992D01*
X230128D01*
X230462Y445659D01*
Y445326D01*
X230128Y444993D01*
X229129D01*
X227129Y445992D02*
X228462D01*
Y444993D01*
X227796Y445326D01*
X227462D01*
X227129Y444993D01*
Y444326D01*
X227462Y443993D01*
X228129D01*
X228462Y444326D01*
X203908Y459780D02*
Y461113D01*
Y460446D01*
X201909D01*
Y461779D02*
X203908D01*
Y462779D01*
X203575Y463112D01*
X202908D01*
X202575Y462779D01*
Y461779D01*
X202242Y463779D02*
X201909Y464112D01*
Y464778D01*
X202242Y465111D01*
X203575D01*
X203908Y464778D01*
Y464112D01*
X203575Y463779D01*
X203242D01*
X202908Y464112D01*
Y465111D01*
X203908Y467111D02*
X203575Y466444D01*
X202908Y465778D01*
X202242D01*
X201909Y466111D01*
Y466778D01*
X202242Y467111D01*
X202575D01*
X202908Y466778D01*
Y465778D01*
X277293Y449594D02*
Y450927D01*
Y450260D01*
X275294D01*
Y451593D02*
X277293D01*
Y452593D01*
X276960Y452926D01*
X276293D01*
X275960Y452593D01*
Y451593D01*
X275627Y453592D02*
X275294Y453926D01*
Y454592D01*
X275627Y454925D01*
X276960D01*
X277293Y454592D01*
Y453926D01*
X276960Y453592D01*
X276627D01*
X276293Y453926D01*
Y454925D01*
X276960Y455592D02*
X277293Y455925D01*
Y456591D01*
X276960Y456925D01*
X276627D01*
X276293Y456591D01*
Y456258D01*
Y456591D01*
X275960Y456925D01*
X275627D01*
X275294Y456591D01*
Y455925D01*
X275627Y455592D01*
X267145Y449695D02*
Y451028D01*
Y450361D01*
X265146D01*
Y451694D02*
X267145D01*
Y452694D01*
X266812Y453027D01*
X266145D01*
X265812Y452694D01*
Y451694D01*
X265479Y453693D02*
X265146Y454027D01*
Y454693D01*
X265479Y455026D01*
X266812D01*
X267145Y454693D01*
Y454027D01*
X266812Y453693D01*
X266479D01*
X266145Y454027D01*
Y455026D01*
X265146Y456693D02*
X267145D01*
X266145Y455693D01*
Y457026D01*
X289394Y598318D02*
X288061D01*
X288727D01*
Y596319D01*
X287394D02*
Y598318D01*
X286395D01*
X286061Y597985D01*
Y597318D01*
X286395Y596985D01*
X287394D01*
X285395Y596319D02*
X284729D01*
X285062D01*
Y598318D01*
X285395Y597985D01*
X283729D02*
X283396Y598318D01*
X282729D01*
X282396Y597985D01*
Y596652D01*
X282729Y596319D01*
X283396D01*
X283729Y596652D01*
Y597985D01*
X281730Y596319D02*
X281063D01*
X281396D01*
Y598318D01*
X281730Y597985D01*
X282006Y721971D02*
X280674D01*
X281340D01*
Y719972D01*
X280007D02*
Y721971D01*
X279007D01*
X278674Y721638D01*
Y720972D01*
X279007Y720639D01*
X280007D01*
X276675Y721971D02*
X278008D01*
Y720972D01*
X277341Y721305D01*
X277008D01*
X276675Y720972D01*
Y720305D01*
X277008Y719972D01*
X277675D01*
X278008Y720305D01*
X275009Y719972D02*
Y721971D01*
X276008Y720972D01*
X274675D01*
X200981Y690716D02*
X199648D01*
X200314D01*
Y688716D01*
X198981D02*
Y690716D01*
X197982D01*
X197648Y690382D01*
Y689716D01*
X197982Y689383D01*
X198981D01*
X195649Y690716D02*
X196982D01*
Y689716D01*
X196316Y690049D01*
X195982D01*
X195649Y689716D01*
Y689049D01*
X195982Y688716D01*
X196649D01*
X196982Y689049D01*
X193650Y690716D02*
X194316Y690382D01*
X194983Y689716D01*
Y689049D01*
X194649Y688716D01*
X193983D01*
X193650Y689049D01*
Y689383D01*
X193983Y689716D01*
X194983D01*
X218342Y729557D02*
Y730890D01*
Y730224D01*
X216343D01*
Y731557D02*
X218342D01*
Y732556D01*
X218009Y732890D01*
X217342D01*
X217009Y732556D01*
Y731557D01*
X216343Y734556D02*
X218342D01*
X217342Y733556D01*
Y734889D01*
X216676Y735555D02*
X216343Y735889D01*
Y736555D01*
X216676Y736888D01*
X218009D01*
X218342Y736555D01*
Y735889D01*
X218009Y735555D01*
X217676D01*
X217342Y735889D01*
Y736888D01*
X226793Y720694D02*
Y722027D01*
Y721360D01*
X224794D01*
Y722693D02*
X226793D01*
Y723693D01*
X226460Y724026D01*
X225793D01*
X225460Y723693D01*
Y722693D01*
X226793Y726025D02*
Y724692D01*
X225793D01*
X226127Y725359D01*
Y725692D01*
X225793Y726025D01*
X225127D01*
X224794Y725692D01*
Y725026D01*
X225127Y724692D01*
X224794Y728025D02*
Y726692D01*
X226127Y728025D01*
X226460D01*
X226793Y727691D01*
Y727025D01*
X226460Y726692D01*
X211739Y730423D02*
Y731756D01*
Y731090D01*
X209739D01*
Y732423D02*
X211739D01*
Y733422D01*
X211406Y733756D01*
X210739D01*
X210406Y733422D01*
Y732423D01*
X211739Y735755D02*
Y734422D01*
X210739D01*
X211072Y735088D01*
Y735422D01*
X210739Y735755D01*
X210073D01*
X209739Y735422D01*
Y734755D01*
X210073Y734422D01*
X211406Y736421D02*
X211739Y736755D01*
Y737421D01*
X211406Y737754D01*
X210073D01*
X209739Y737421D01*
Y736755D01*
X210073Y736421D01*
X211406D01*
X202649Y717809D02*
X201316D01*
X201983D01*
Y715809D01*
X200650D02*
Y717809D01*
X199650D01*
X199317Y717476D01*
Y716809D01*
X199650Y716476D01*
X200650D01*
X197317Y717809D02*
X198650D01*
Y716809D01*
X197984Y717142D01*
X197651D01*
X197317Y716809D01*
Y716143D01*
X197651Y715809D01*
X198317D01*
X198650Y716143D01*
X196651Y717476D02*
X196318Y717809D01*
X195651D01*
X195318Y717476D01*
Y717142D01*
X195651Y716809D01*
X195984D01*
X195651D01*
X195318Y716476D01*
Y716143D01*
X195651Y715809D01*
X196318D01*
X196651Y716143D01*
X105198Y634239D02*
X103866D01*
X104532D01*
Y632240D01*
X103199D02*
Y634239D01*
X102199D01*
X101866Y633906D01*
Y633240D01*
X102199Y632906D01*
X103199D01*
X101200Y632240D02*
X100533D01*
X100866D01*
Y634239D01*
X101200Y633906D01*
X99533D02*
X99200Y634239D01*
X98534D01*
X98201Y633906D01*
Y633573D01*
X98534Y633240D01*
X98867D01*
X98534D01*
X98201Y632906D01*
Y632573D01*
X98534Y632240D01*
X99200D01*
X99533Y632573D01*
X78595Y610886D02*
X77262D01*
X77929D01*
Y608887D01*
X76596D02*
Y610886D01*
X75596D01*
X75263Y610553D01*
Y609887D01*
X75596Y609553D01*
X76596D01*
X74596Y608887D02*
X73930D01*
X74263D01*
Y610886D01*
X74596Y610553D01*
X71930Y608887D02*
Y610886D01*
X72930Y609887D01*
X71597D01*
X92993Y627707D02*
X91660D01*
X92326D01*
Y625707D01*
X90994D02*
Y627707D01*
X89994D01*
X89661Y627374D01*
Y626707D01*
X89994Y626374D01*
X90994D01*
X88994Y625707D02*
X88328D01*
X88661D01*
Y627707D01*
X88994Y627374D01*
X85995Y627707D02*
X87328D01*
Y626707D01*
X86662Y627040D01*
X86328D01*
X85995Y626707D01*
Y626041D01*
X86328Y625707D01*
X86995D01*
X87328Y626041D01*
X90068Y615503D02*
X88735D01*
X89401D01*
Y613504D01*
X88068D02*
Y615503D01*
X87069D01*
X86735Y615170D01*
Y614503D01*
X87069Y614170D01*
X88068D01*
X86069Y613504D02*
X85403D01*
X85736D01*
Y615503D01*
X86069Y615170D01*
X83070Y615503D02*
X83736Y615170D01*
X84403Y614503D01*
Y613837D01*
X84070Y613504D01*
X83403D01*
X83070Y613837D01*
Y614170D01*
X83403Y614503D01*
X84403D01*
X61637Y613949D02*
X60304D01*
X60971D01*
Y611949D01*
X59638D02*
Y613949D01*
X58638D01*
X58305Y613616D01*
Y612949D01*
X58638Y612616D01*
X59638D01*
X56306Y611949D02*
X57639D01*
X56306Y613282D01*
Y613616D01*
X56639Y613949D01*
X57306D01*
X57639Y613616D01*
X55639D02*
X55306Y613949D01*
X54640D01*
X54306Y613616D01*
Y612283D01*
X54640Y611949D01*
X55306D01*
X55639Y612283D01*
Y613616D01*
X60961Y597470D02*
X59628D01*
X60294D01*
Y595471D01*
X58961D02*
Y597470D01*
X57962D01*
X57629Y597137D01*
Y596470D01*
X57962Y596137D01*
X58961D01*
X55629Y595471D02*
X56962D01*
X55629Y596804D01*
Y597137D01*
X55963Y597470D01*
X56629D01*
X56962Y597137D01*
X54963Y595471D02*
X54296D01*
X54630D01*
Y597470D01*
X54963Y597137D01*
X89119Y605666D02*
X87786D01*
X88452D01*
Y603666D01*
X87119D02*
Y605666D01*
X86120D01*
X85786Y605333D01*
Y604666D01*
X86120Y604333D01*
X87119D01*
X83787Y603666D02*
X85120D01*
X83787Y604999D01*
Y605333D01*
X84120Y605666D01*
X84787D01*
X85120Y605333D01*
X81788Y603666D02*
X83121D01*
X81788Y604999D01*
Y605333D01*
X82121Y605666D01*
X82788D01*
X83121Y605333D01*
X169236Y640025D02*
X167903D01*
X168570D01*
Y638025D01*
X167237D02*
Y640025D01*
X166237D01*
X165904Y639692D01*
Y639025D01*
X166237Y638692D01*
X167237D01*
X163904Y638025D02*
X165237D01*
X163904Y639358D01*
Y639692D01*
X164238Y640025D01*
X164904D01*
X165237Y639692D01*
X163238D02*
X162905Y640025D01*
X162238D01*
X161905Y639692D01*
Y639358D01*
X162238Y639025D01*
X162571D01*
X162238D01*
X161905Y638692D01*
Y638359D01*
X162238Y638025D01*
X162905D01*
X163238Y638359D01*
X187283Y698077D02*
Y699410D01*
Y698743D01*
X185284D01*
Y700076D02*
X187283D01*
Y701076D01*
X186950Y701409D01*
X186283D01*
X185950Y701076D01*
Y700076D01*
X185284Y703408D02*
Y702075D01*
X186617Y703408D01*
X186950D01*
X187283Y703075D01*
Y702409D01*
X186950Y702075D01*
X185284Y705075D02*
X187283D01*
X186283Y704075D01*
Y705408D01*
X201197Y700292D02*
X199864D01*
X200530D01*
Y698293D01*
X199197D02*
Y700292D01*
X198198D01*
X197864Y699959D01*
Y699293D01*
X198198Y698959D01*
X199197D01*
X195865Y698293D02*
X197198D01*
X195865Y699626D01*
Y699959D01*
X196198Y700292D01*
X196865D01*
X197198Y699959D01*
X193866Y700292D02*
X194532Y699959D01*
X195199Y699293D01*
Y698626D01*
X194865Y698293D01*
X194199D01*
X193866Y698626D01*
Y698959D01*
X194199Y699293D01*
X195199D01*
X172591Y605780D02*
X171259D01*
X171925D01*
Y603780D01*
X170592D02*
Y605780D01*
X169592D01*
X169259Y605446D01*
Y604780D01*
X169592Y604447D01*
X170592D01*
X167260Y603780D02*
X168593D01*
X167260Y605113D01*
Y605446D01*
X167593Y605780D01*
X168260D01*
X168593Y605446D01*
X166593Y605780D02*
X165261D01*
Y605446D01*
X166593Y604114D01*
Y603780D01*
X154626Y604014D02*
X153293D01*
X153960D01*
Y602015D01*
X152627D02*
Y604014D01*
X151627D01*
X151294Y603681D01*
Y603015D01*
X151627Y602681D01*
X152627D01*
X149294Y602015D02*
X150627D01*
X149294Y603348D01*
Y603681D01*
X149628Y604014D01*
X150294D01*
X150627Y603681D01*
X148628D02*
X148295Y604014D01*
X147628D01*
X147295Y603681D01*
Y603348D01*
X147628Y603015D01*
X147295Y602681D01*
Y602348D01*
X147628Y602015D01*
X148295D01*
X148628Y602348D01*
Y602681D01*
X148295Y603015D01*
X148628Y603348D01*
Y603681D01*
X148295Y603015D02*
X147628D01*
X146833Y672374D02*
X145500D01*
X146167D01*
Y670375D01*
X144834D02*
Y672374D01*
X143834D01*
X143501Y672041D01*
Y671375D01*
X143834Y671041D01*
X144834D01*
X141501Y670375D02*
X142834D01*
X141501Y671708D01*
Y672041D01*
X141835Y672374D01*
X142501D01*
X142834Y672041D01*
X140835Y670708D02*
X140502Y670375D01*
X139835D01*
X139502Y670708D01*
Y672041D01*
X139835Y672374D01*
X140502D01*
X140835Y672041D01*
Y671708D01*
X140502Y671375D01*
X139502D01*
X59241Y708742D02*
X57908D01*
X58575D01*
Y706742D01*
X57242D02*
Y708742D01*
X56242D01*
X55909Y708409D01*
Y707742D01*
X56242Y707409D01*
X57242D01*
X55243Y708409D02*
X54909Y708742D01*
X54243D01*
X53910Y708409D01*
Y708075D01*
X54243Y707742D01*
X54576D01*
X54243D01*
X53910Y707409D01*
Y707076D01*
X54243Y706742D01*
X54909D01*
X55243Y707076D01*
X53243Y708409D02*
X52910Y708742D01*
X52244D01*
X51910Y708409D01*
Y707076D01*
X52244Y706742D01*
X52910D01*
X53243Y707076D01*
Y708409D01*
X87494Y643393D02*
X86161D01*
X86827D01*
Y641394D01*
X85494D02*
Y643393D01*
X84495D01*
X84162Y643060D01*
Y642393D01*
X84495Y642060D01*
X85494D01*
X83495Y643060D02*
X83162Y643393D01*
X82495D01*
X82162Y643060D01*
Y642727D01*
X82495Y642393D01*
X82828D01*
X82495D01*
X82162Y642060D01*
Y641727D01*
X82495Y641394D01*
X83162D01*
X83495Y641727D01*
X81496Y641394D02*
X80829D01*
X81162D01*
Y643393D01*
X81496Y643060D01*
X151039Y676785D02*
X149706D01*
X150372D01*
Y674786D01*
X149039D02*
Y676785D01*
X148040D01*
X147706Y676452D01*
Y675785D01*
X148040Y675452D01*
X149039D01*
X147040Y676452D02*
X146707Y676785D01*
X146040D01*
X145707Y676452D01*
Y676119D01*
X146040Y675785D01*
X146374D01*
X146040D01*
X145707Y675452D01*
Y675119D01*
X146040Y674786D01*
X146707D01*
X147040Y675119D01*
X143708Y674786D02*
X145041D01*
X143708Y676119D01*
Y676452D01*
X144041Y676785D01*
X144707D01*
X145041Y676452D01*
X84308Y744276D02*
X82975D01*
X83641D01*
Y742277D01*
X82309D02*
Y744276D01*
X81309D01*
X80976Y743943D01*
Y743276D01*
X81309Y742943D01*
X82309D01*
X80309Y743943D02*
X79976Y744276D01*
X79310D01*
X78976Y743943D01*
Y743610D01*
X79310Y743276D01*
X79643D01*
X79310D01*
X78976Y742943D01*
Y742610D01*
X79310Y742277D01*
X79976D01*
X80309Y742610D01*
X78310Y743943D02*
X77977Y744276D01*
X77310D01*
X76977Y743943D01*
Y743610D01*
X77310Y743276D01*
X77644D01*
X77310D01*
X76977Y742943D01*
Y742610D01*
X77310Y742277D01*
X77977D01*
X78310Y742610D01*
X199048Y769436D02*
X197715D01*
X198381D01*
Y767436D01*
X197048D02*
Y769436D01*
X196049D01*
X195716Y769102D01*
Y768436D01*
X196049Y768103D01*
X197048D01*
X195049Y769102D02*
X194716Y769436D01*
X194050D01*
X193716Y769102D01*
Y768769D01*
X194050Y768436D01*
X194383D01*
X194050D01*
X193716Y768103D01*
Y767769D01*
X194050Y767436D01*
X194716D01*
X195049Y767769D01*
X192050Y767436D02*
Y769436D01*
X193050Y768436D01*
X191717D01*
X182581Y742691D02*
X181248D01*
X181915D01*
Y740692D01*
X180582D02*
Y742691D01*
X179582D01*
X179249Y742358D01*
Y741691D01*
X179582Y741358D01*
X180582D01*
X178583Y742358D02*
X178250Y742691D01*
X177583D01*
X177250Y742358D01*
Y742025D01*
X177583Y741691D01*
X177916D01*
X177583D01*
X177250Y741358D01*
Y741025D01*
X177583Y740692D01*
X178250D01*
X178583Y741025D01*
X175250Y742691D02*
X176583D01*
Y741691D01*
X175917Y742025D01*
X175584D01*
X175250Y741691D01*
Y741025D01*
X175584Y740692D01*
X176250D01*
X176583Y741025D01*
X99284Y759175D02*
X97951D01*
X98618D01*
Y757176D01*
X97285D02*
Y759175D01*
X96285D01*
X95952Y758842D01*
Y758176D01*
X96285Y757842D01*
X97285D01*
X93952Y759175D02*
X95285D01*
Y758176D01*
X94619Y758509D01*
X94286D01*
X93952Y758176D01*
Y757509D01*
X94286Y757176D01*
X94952D01*
X95285Y757509D01*
X93286Y758842D02*
X92953Y759175D01*
X92286D01*
X91953Y758842D01*
Y758509D01*
X92286Y758176D01*
X91953Y757842D01*
Y757509D01*
X92286Y757176D01*
X92953D01*
X93286Y757509D01*
Y757842D01*
X92953Y758176D01*
X93286Y758509D01*
Y758842D01*
X92953Y758176D02*
X92286D01*
X249494Y747893D02*
X248161D01*
X248827D01*
Y745894D01*
X247494D02*
Y747893D01*
X246495D01*
X246162Y747560D01*
Y746893D01*
X246495Y746560D01*
X247494D01*
X244162Y747893D02*
X245495D01*
Y746893D01*
X244829Y747227D01*
X244495D01*
X244162Y746893D01*
Y746227D01*
X244495Y745894D01*
X245162D01*
X245495Y746227D01*
X243496D02*
X243162Y745894D01*
X242496D01*
X242163Y746227D01*
Y747560D01*
X242496Y747893D01*
X243162D01*
X243496Y747560D01*
Y747227D01*
X243162Y746893D01*
X242163D01*
X138057Y750253D02*
X136724D01*
X137391D01*
Y748254D01*
X136058D02*
Y750253D01*
X135058D01*
X134725Y749920D01*
Y749253D01*
X135058Y748920D01*
X136058D01*
X132726Y750253D02*
X133392Y749920D01*
X134058Y749253D01*
Y748587D01*
X133725Y748254D01*
X133059D01*
X132726Y748587D01*
Y748920D01*
X133059Y749253D01*
X134058D01*
X130726Y748254D02*
X132059D01*
X130726Y749587D01*
Y749920D01*
X131060Y750253D01*
X131726D01*
X132059Y749920D01*
X182132Y748080D02*
X180799D01*
X181466D01*
Y746081D01*
X180133D02*
Y748080D01*
X179133D01*
X178800Y747747D01*
Y747081D01*
X179133Y746748D01*
X180133D01*
X176801Y748080D02*
X177467Y747747D01*
X178134Y747081D01*
Y746414D01*
X177800Y746081D01*
X177134D01*
X176801Y746414D01*
Y746748D01*
X177134Y747081D01*
X178134D01*
X176134Y747747D02*
X175801Y748080D01*
X175135D01*
X174801Y747747D01*
Y747414D01*
X175135Y747081D01*
X175468D01*
X175135D01*
X174801Y746748D01*
Y746414D01*
X175135Y746081D01*
X175801D01*
X176134Y746414D01*
X184939Y756221D02*
X183606D01*
X184273D01*
Y754221D01*
X182940D02*
Y756221D01*
X181940D01*
X181607Y755887D01*
Y755221D01*
X181940Y754888D01*
X182940D01*
X179608Y756221D02*
X180274Y755887D01*
X180941Y755221D01*
Y754555D01*
X180607Y754221D01*
X179941D01*
X179608Y754555D01*
Y754888D01*
X179941Y755221D01*
X180941D01*
X177942Y754221D02*
Y756221D01*
X178941Y755221D01*
X177608D01*
X246464Y724049D02*
X245131D01*
X245797D01*
Y722050D01*
X244464D02*
Y724049D01*
X243465D01*
X243131Y723716D01*
Y723050D01*
X243465Y722716D01*
X244464D01*
X241132Y724049D02*
X241798Y723716D01*
X242465Y723050D01*
Y722383D01*
X242132Y722050D01*
X241465D01*
X241132Y722383D01*
Y722716D01*
X241465Y723050D01*
X242465D01*
X239133Y724049D02*
X240466D01*
Y723050D01*
X239799Y723383D01*
X239466D01*
X239133Y723050D01*
Y722383D01*
X239466Y722050D01*
X240132D01*
X240466Y722383D01*
X260894Y758493D02*
X259561D01*
X260227D01*
Y756494D01*
X258894D02*
Y758493D01*
X257895D01*
X257561Y758160D01*
Y757493D01*
X257895Y757160D01*
X258894D01*
X255562Y758493D02*
X256228Y758160D01*
X256895Y757493D01*
Y756827D01*
X256562Y756494D01*
X255895D01*
X255562Y756827D01*
Y757160D01*
X255895Y757493D01*
X256895D01*
X253563Y758493D02*
X254229Y758160D01*
X254896Y757493D01*
Y756827D01*
X254562Y756494D01*
X253896D01*
X253563Y756827D01*
Y757160D01*
X253896Y757493D01*
X254896D01*
X251730Y535491D02*
X250397D01*
X251063D01*
Y533492D01*
X249730D02*
Y535491D01*
X248731D01*
X248397Y535158D01*
Y534491D01*
X248731Y534158D01*
X249730D01*
X246398Y535491D02*
X247064Y535158D01*
X247731Y534491D01*
Y533825D01*
X247398Y533492D01*
X246731D01*
X246398Y533825D01*
Y534158D01*
X246731Y534491D01*
X247731D01*
X245732Y535491D02*
X244399D01*
Y535158D01*
X245732Y533825D01*
Y533492D01*
X232298Y553023D02*
X230966D01*
X231632D01*
Y551023D01*
X230299D02*
Y553023D01*
X229299D01*
X228966Y552689D01*
Y552023D01*
X229299Y551690D01*
X230299D01*
X226967Y553023D02*
X227633Y552689D01*
X228300Y552023D01*
Y551357D01*
X227967Y551023D01*
X227300D01*
X226967Y551357D01*
Y551690D01*
X227300Y552023D01*
X228300D01*
X226301Y551357D02*
X225967Y551023D01*
X225301D01*
X224968Y551357D01*
Y552689D01*
X225301Y553023D01*
X225967D01*
X226301Y552689D01*
Y552356D01*
X225967Y552023D01*
X224968D01*
X185726Y497117D02*
X184393D01*
X185060D01*
Y495118D01*
X183727D02*
Y497117D01*
X182727D01*
X182394Y496784D01*
Y496117D01*
X182727Y495784D01*
X183727D01*
X181727Y497117D02*
X180394D01*
Y496784D01*
X181727Y495451D01*
Y495118D01*
X179728Y496784D02*
X179395Y497117D01*
X178728D01*
X178395Y496784D01*
Y495451D01*
X178728Y495118D01*
X179395D01*
X179728Y495451D01*
Y496784D01*
X202322Y491940D02*
X200989D01*
X201655D01*
Y489941D01*
X200322D02*
Y491940D01*
X199323D01*
X198989Y491607D01*
Y490941D01*
X199323Y490607D01*
X200322D01*
X198323Y491940D02*
X196990D01*
Y491607D01*
X198323Y490274D01*
Y489941D01*
X196324D02*
X195657D01*
X195991D01*
Y491940D01*
X196324Y491607D01*
X239472Y497345D02*
X238139D01*
X238805D01*
Y495346D01*
X237473D02*
Y497345D01*
X236473D01*
X236140Y497012D01*
Y496346D01*
X236473Y496012D01*
X237473D01*
X235473Y497345D02*
X234140D01*
Y497012D01*
X235473Y495679D01*
Y495346D01*
X232141D02*
X233474D01*
X232141Y496679D01*
Y497012D01*
X232474Y497345D01*
X233141D01*
X233474Y497012D01*
X220897Y491027D02*
X219564D01*
X220230D01*
Y489027D01*
X218897D02*
Y491027D01*
X217898D01*
X217565Y490693D01*
Y490027D01*
X217898Y489694D01*
X218897D01*
X216898Y491027D02*
X215565D01*
Y490693D01*
X216898Y489361D01*
Y489027D01*
X214899Y490693D02*
X214565Y491027D01*
X213899D01*
X213566Y490693D01*
Y490360D01*
X213899Y490027D01*
X214232D01*
X213899D01*
X213566Y489694D01*
Y489361D01*
X213899Y489027D01*
X214565D01*
X214899Y489361D01*
X103523Y534766D02*
X102190D01*
X102857D01*
Y532766D01*
X101524D02*
Y534766D01*
X100524D01*
X100191Y534433D01*
Y533766D01*
X100524Y533433D01*
X101524D01*
X99524Y534433D02*
X99191Y534766D01*
X98525D01*
X98191Y534433D01*
Y534099D01*
X98525Y533766D01*
X98191Y533433D01*
Y533100D01*
X98525Y532766D01*
X99191D01*
X99524Y533100D01*
Y533433D01*
X99191Y533766D01*
X99524Y534099D01*
Y534433D01*
X99191Y533766D02*
X98525D01*
X97525Y534433D02*
X97192Y534766D01*
X96525D01*
X96192Y534433D01*
Y533100D01*
X96525Y532766D01*
X97192D01*
X97525Y533100D01*
Y534433D01*
X88153Y542490D02*
X86820D01*
X87487D01*
Y540490D01*
X86154D02*
Y542490D01*
X85154D01*
X84821Y542157D01*
Y541490D01*
X85154Y541157D01*
X86154D01*
X84154Y542157D02*
X83821Y542490D01*
X83155D01*
X82821Y542157D01*
Y541823D01*
X83155Y541490D01*
X82821Y541157D01*
Y540824D01*
X83155Y540490D01*
X83821D01*
X84154Y540824D01*
Y541157D01*
X83821Y541490D01*
X84154Y541823D01*
Y542157D01*
X83821Y541490D02*
X83155D01*
X82155Y540490D02*
X81489D01*
X81822D01*
Y542490D01*
X82155Y542157D01*
X39979Y496579D02*
X38646D01*
X39313D01*
Y494580D01*
X37980D02*
Y496579D01*
X36980D01*
X36647Y496246D01*
Y495579D01*
X36980Y495246D01*
X37980D01*
X35981Y496246D02*
X35647Y496579D01*
X34981D01*
X34648Y496246D01*
Y495913D01*
X34981Y495579D01*
X34648Y495246D01*
Y494913D01*
X34981Y494580D01*
X35647D01*
X35981Y494913D01*
Y495246D01*
X35647Y495579D01*
X35981Y495913D01*
Y496246D01*
X35647Y495579D02*
X34981D01*
X32648Y494580D02*
X33981D01*
X32648Y495913D01*
Y496246D01*
X32982Y496579D01*
X33648D01*
X33981Y496246D01*
X60272Y483035D02*
X58939D01*
X59605D01*
Y481036D01*
X58273D02*
Y483035D01*
X57273D01*
X56940Y482702D01*
Y482036D01*
X57273Y481703D01*
X58273D01*
X56273Y481036D02*
X55607D01*
X55940D01*
Y483035D01*
X56273Y482702D01*
X54607D02*
X54274Y483035D01*
X53607D01*
X53274Y482702D01*
Y481369D01*
X53607Y481036D01*
X54274D01*
X54607Y481369D01*
Y482702D01*
X51275Y481036D02*
X52608D01*
X51275Y482369D01*
Y482702D01*
X51608Y483035D01*
X52275D01*
X52608Y482702D01*
X95841Y500045D02*
X94508D01*
X95175D01*
Y498045D01*
X93842D02*
Y500045D01*
X92842D01*
X92509Y499712D01*
Y499045D01*
X92842Y498712D01*
X93842D01*
X91842Y498045D02*
X91176D01*
X91509D01*
Y500045D01*
X91842Y499712D01*
X90176D02*
X89843Y500045D01*
X89176D01*
X88843Y499712D01*
Y498379D01*
X89176Y498045D01*
X89843D01*
X90176Y498379D01*
Y499712D01*
X88177D02*
X87844Y500045D01*
X87177D01*
X86844Y499712D01*
Y499378D01*
X87177Y499045D01*
X87510D01*
X87177D01*
X86844Y498712D01*
Y498379D01*
X87177Y498045D01*
X87844D01*
X88177Y498379D01*
X77053Y483218D02*
X75720D01*
X76387D01*
Y481218D01*
X75054D02*
Y483218D01*
X74054D01*
X73721Y482885D01*
Y482218D01*
X74054Y481885D01*
X75054D01*
X73054Y481218D02*
X72388D01*
X72721D01*
Y483218D01*
X73054Y482885D01*
X71388D02*
X71055Y483218D01*
X70389D01*
X70056Y482885D01*
Y481552D01*
X70389Y481218D01*
X71055D01*
X71388Y481552D01*
Y482885D01*
X68389Y481218D02*
Y483218D01*
X69389Y482218D01*
X68056D01*
X309794Y626193D02*
X308461D01*
X309127D01*
Y624194D01*
X307794D02*
Y626193D01*
X306795D01*
X306462Y625860D01*
Y625193D01*
X306795Y624860D01*
X307794D01*
X305795Y624194D02*
X305129D01*
X305462D01*
Y626193D01*
X305795Y625860D01*
X304129D02*
X303796Y626193D01*
X303129D01*
X302796Y625860D01*
Y624527D01*
X303129Y624194D01*
X303796D01*
X304129Y624527D01*
Y625860D01*
X300797Y626193D02*
X301463Y625860D01*
X302130Y625193D01*
Y624527D01*
X301796Y624194D01*
X301130D01*
X300797Y624527D01*
Y624860D01*
X301130Y625193D01*
X302130D01*
X341094Y609493D02*
X339761D01*
X340427D01*
Y607494D01*
X339094D02*
Y609493D01*
X338095D01*
X337761Y609160D01*
Y608493D01*
X338095Y608160D01*
X339094D01*
X337095Y607494D02*
X336428D01*
X336762D01*
Y609493D01*
X337095Y609160D01*
X335429D02*
X335096Y609493D01*
X334429D01*
X334096Y609160D01*
Y607827D01*
X334429Y607494D01*
X335096D01*
X335429Y607827D01*
Y609160D01*
X333430Y609493D02*
X332097D01*
Y609160D01*
X333430Y607827D01*
Y607494D01*
X372694Y607293D02*
X371361D01*
X372027D01*
Y605294D01*
X370694D02*
Y607293D01*
X369695D01*
X369361Y606960D01*
Y606293D01*
X369695Y605960D01*
X370694D01*
X368695Y605294D02*
X368028D01*
X368362D01*
Y607293D01*
X368695Y606960D01*
X367029D02*
X366696Y607293D01*
X366029D01*
X365696Y606960D01*
Y605627D01*
X366029Y605294D01*
X366696D01*
X367029Y605627D01*
Y606960D01*
X365030D02*
X364696Y607293D01*
X364030D01*
X363697Y606960D01*
Y606627D01*
X364030Y606293D01*
X363697Y605960D01*
Y605627D01*
X364030Y605294D01*
X364696D01*
X365030Y605627D01*
Y605960D01*
X364696Y606293D01*
X365030Y606627D01*
Y606960D01*
X364696Y606293D02*
X364030D01*
X406094Y612693D02*
X404761D01*
X405427D01*
Y610694D01*
X404094D02*
Y612693D01*
X403095D01*
X402762Y612360D01*
Y611693D01*
X403095Y611360D01*
X404094D01*
X402095Y610694D02*
X401429D01*
X401762D01*
Y612693D01*
X402095Y612360D01*
X400429D02*
X400096Y612693D01*
X399429D01*
X399096Y612360D01*
Y611027D01*
X399429Y610694D01*
X400096D01*
X400429Y611027D01*
Y612360D01*
X398429Y611027D02*
X398096Y610694D01*
X397430D01*
X397097Y611027D01*
Y612360D01*
X397430Y612693D01*
X398096D01*
X398429Y612360D01*
Y612027D01*
X398096Y611693D01*
X397097D01*
X189742Y532877D02*
X188409D01*
X189076D01*
Y530878D01*
X187743D02*
Y532877D01*
X186743D01*
X186410Y532544D01*
Y531877D01*
X186743Y531544D01*
X187743D01*
X185743Y530878D02*
X185077D01*
X185410D01*
Y532877D01*
X185743Y532544D01*
X184077Y530878D02*
X183411D01*
X183744D01*
Y532877D01*
X184077Y532544D01*
X182411D02*
X182078Y532877D01*
X181412D01*
X181078Y532544D01*
Y531211D01*
X181412Y530878D01*
X182078D01*
X182411Y531211D01*
Y532544D01*
X163994Y541093D02*
X162661D01*
X163327D01*
Y539094D01*
X161994D02*
Y541093D01*
X160995D01*
X160661Y540760D01*
Y540093D01*
X160995Y539760D01*
X161994D01*
X159995Y539094D02*
X159328D01*
X159662D01*
Y541093D01*
X159995Y540760D01*
X158329Y539094D02*
X157662D01*
X157996D01*
Y541093D01*
X158329Y540760D01*
X156663Y539094D02*
X155996D01*
X156330D01*
Y541093D01*
X156663Y540760D01*
X114613Y496714D02*
X113280D01*
X113946D01*
Y494715D01*
X112614D02*
Y496714D01*
X111614D01*
X111281Y496381D01*
Y495715D01*
X111614Y495381D01*
X112614D01*
X110614Y494715D02*
X109948D01*
X110281D01*
Y496714D01*
X110614Y496381D01*
X108948Y494715D02*
X108282D01*
X108615D01*
Y496714D01*
X108948Y496381D01*
X105949Y494715D02*
X107282D01*
X105949Y496048D01*
Y496381D01*
X106282Y496714D01*
X106949D01*
X107282Y496381D01*
X131664Y483090D02*
X130331D01*
X130997D01*
Y481091D01*
X129664D02*
Y483090D01*
X128665D01*
X128331Y482757D01*
Y482091D01*
X128665Y481757D01*
X129664D01*
X127665Y481091D02*
X126999D01*
X127332D01*
Y483090D01*
X127665Y482757D01*
X125999Y481091D02*
X125332D01*
X125666D01*
Y483090D01*
X125999Y482757D01*
X124333D02*
X124000Y483090D01*
X123333D01*
X123000Y482757D01*
Y482424D01*
X123333Y482091D01*
X123666D01*
X123333D01*
X123000Y481757D01*
Y481424D01*
X123333Y481091D01*
X124000D01*
X124333Y481424D01*
X169658Y497395D02*
X168325D01*
X168991D01*
Y495395D01*
X167658D02*
Y497395D01*
X166659D01*
X166325Y497061D01*
Y496395D01*
X166659Y496062D01*
X167658D01*
X165659Y495395D02*
X164993D01*
X165326D01*
Y497395D01*
X165659Y497061D01*
X163993Y495395D02*
X163327D01*
X163660D01*
Y497395D01*
X163993Y497061D01*
X161327Y495395D02*
Y497395D01*
X162327Y496395D01*
X160994D01*
X150280Y483217D02*
X148947D01*
X149614D01*
Y481218D01*
X148281D02*
Y483217D01*
X147281D01*
X146948Y482884D01*
Y482218D01*
X147281Y481884D01*
X148281D01*
X146281Y481218D02*
X145615D01*
X145948D01*
Y483217D01*
X146281Y482884D01*
X144615Y481218D02*
X143949D01*
X144282D01*
Y483217D01*
X144615Y482884D01*
X141616Y483217D02*
X142949D01*
Y482218D01*
X142283Y482551D01*
X141949D01*
X141616Y482218D01*
Y481551D01*
X141949Y481218D01*
X142616D01*
X142949Y481551D01*
X321539Y536655D02*
X320206D01*
X320872D01*
Y534656D01*
X319540D02*
Y536655D01*
X318540D01*
X318207Y536322D01*
Y535655D01*
X318540Y535322D01*
X319540D01*
X317540Y534656D02*
X316874D01*
X317207D01*
Y536655D01*
X317540Y536322D01*
X315874Y534656D02*
X315208D01*
X315541D01*
Y536655D01*
X315874Y536322D01*
X312875Y536655D02*
X313542Y536322D01*
X314208Y535655D01*
Y534989D01*
X313875Y534656D01*
X313208D01*
X312875Y534989D01*
Y535322D01*
X313208Y535655D01*
X314208D01*
X292952Y548550D02*
X291619D01*
X292286D01*
Y546551D01*
X290953D02*
Y548550D01*
X289953D01*
X289620Y548217D01*
Y547550D01*
X289953Y547217D01*
X290953D01*
X288953Y546551D02*
X288287D01*
X288620D01*
Y548550D01*
X288953Y548217D01*
X287287Y546551D02*
X286621D01*
X286954D01*
Y548550D01*
X287287Y548217D01*
X285621Y548550D02*
X284288D01*
Y548217D01*
X285621Y546884D01*
Y546551D01*
X256211Y497349D02*
X254878D01*
X255544D01*
Y495350D01*
X254211D02*
Y497349D01*
X253212D01*
X252878Y497016D01*
Y496349D01*
X253212Y496016D01*
X254211D01*
X252212Y495350D02*
X251546D01*
X251879D01*
Y497349D01*
X252212Y497016D01*
X250546Y495350D02*
X249879D01*
X250213D01*
Y497349D01*
X250546Y497016D01*
X248880D02*
X248547Y497349D01*
X247880D01*
X247547Y497016D01*
Y496683D01*
X247880Y496349D01*
X247547Y496016D01*
Y495683D01*
X247880Y495350D01*
X248547D01*
X248880Y495683D01*
Y496016D01*
X248547Y496349D01*
X248880Y496683D01*
Y497016D01*
X248547Y496349D02*
X247880D01*
X274125Y482989D02*
X272792D01*
X273459D01*
Y480989D01*
X272126D02*
Y482989D01*
X271126D01*
X270793Y482655D01*
Y481989D01*
X271126Y481656D01*
X272126D01*
X270126Y480989D02*
X269460D01*
X269793D01*
Y482989D01*
X270126Y482655D01*
X268460Y480989D02*
X267794D01*
X268127D01*
Y482989D01*
X268460Y482655D01*
X266794Y481322D02*
X266461Y480989D01*
X265794D01*
X265461Y481322D01*
Y482655D01*
X265794Y482989D01*
X266461D01*
X266794Y482655D01*
Y482322D01*
X266461Y481989D01*
X265461D01*
X311114Y494665D02*
X309781D01*
X310447D01*
Y492666D01*
X309115D02*
Y494665D01*
X308115D01*
X307782Y494332D01*
Y493666D01*
X308115Y493332D01*
X309115D01*
X307115Y492666D02*
X306449D01*
X306782D01*
Y494665D01*
X307115Y494332D01*
X304116Y492666D02*
X305449D01*
X304116Y493999D01*
Y494332D01*
X304449Y494665D01*
X305116D01*
X305449Y494332D01*
X303450D02*
X303116Y494665D01*
X302450D01*
X302117Y494332D01*
Y492999D01*
X302450Y492666D01*
X303116D01*
X303450Y492999D01*
Y494332D01*
X292619Y483134D02*
X291286D01*
X291953D01*
Y481134D01*
X290620D02*
Y483134D01*
X289620D01*
X289287Y482800D01*
Y482134D01*
X289620Y481801D01*
X290620D01*
X288621Y481134D02*
X287954D01*
X288287D01*
Y483134D01*
X288621Y482800D01*
X285622Y481134D02*
X286955D01*
X285622Y482467D01*
Y482800D01*
X285955Y483134D01*
X286621D01*
X286955Y482800D01*
X284955Y481134D02*
X284289D01*
X284622D01*
Y483134D01*
X284955Y482800D01*
X386221Y532605D02*
X384888D01*
X385555D01*
Y530606D01*
X384222D02*
Y532605D01*
X383222D01*
X382889Y532272D01*
Y531606D01*
X383222Y531272D01*
X384222D01*
X382223Y530606D02*
X381556D01*
X381889D01*
Y532605D01*
X382223Y532272D01*
X379223Y530606D02*
X380556D01*
X379223Y531939D01*
Y532272D01*
X379557Y532605D01*
X380223D01*
X380556Y532272D01*
X377224Y530606D02*
X378557D01*
X377224Y531939D01*
Y532272D01*
X377557Y532605D01*
X378224D01*
X378557Y532272D01*
X379709Y551437D02*
X378377D01*
X379043D01*
Y549438D01*
X377710D02*
Y551437D01*
X376710D01*
X376377Y551104D01*
Y550437D01*
X376710Y550104D01*
X377710D01*
X375711Y549438D02*
X375044D01*
X375377D01*
Y551437D01*
X375711Y551104D01*
X372712Y549438D02*
X374045D01*
X372712Y550770D01*
Y551104D01*
X373045Y551437D01*
X373711D01*
X374045Y551104D01*
X372045D02*
X371712Y551437D01*
X371045D01*
X370712Y551104D01*
Y550770D01*
X371045Y550437D01*
X371379D01*
X371045D01*
X370712Y550104D01*
Y549771D01*
X371045Y549438D01*
X371712D01*
X372045Y549771D01*
X335401Y493219D02*
X334068D01*
X334735D01*
Y491220D01*
X333402D02*
Y493219D01*
X332402D01*
X332069Y492886D01*
Y492219D01*
X332402Y491886D01*
X333402D01*
X331402Y491220D02*
X330736D01*
X331069D01*
Y493219D01*
X331402Y492886D01*
X328403Y491220D02*
X329736D01*
X328403Y492552D01*
Y492886D01*
X328736Y493219D01*
X329403D01*
X329736Y492886D01*
X326737Y491220D02*
Y493219D01*
X327737Y492219D01*
X326404D01*
X346972Y486129D02*
X345640D01*
X346306D01*
Y484130D01*
X344973D02*
Y486129D01*
X343973D01*
X343640Y485796D01*
Y485130D01*
X343973Y484796D01*
X344973D01*
X342974Y484130D02*
X342307D01*
X342641D01*
Y486129D01*
X342974Y485796D01*
X339975Y484130D02*
X341308D01*
X339975Y485463D01*
Y485796D01*
X340308Y486129D01*
X340974D01*
X341308Y485796D01*
X337975Y486129D02*
X339308D01*
Y485130D01*
X338642Y485463D01*
X338309D01*
X337975Y485130D01*
Y484463D01*
X338309Y484130D01*
X338975D01*
X339308Y484463D01*
X385994Y495193D02*
X384661D01*
X385327D01*
Y493194D01*
X383994D02*
Y495193D01*
X382995D01*
X382662Y494860D01*
Y494193D01*
X382995Y493860D01*
X383994D01*
X381995Y493194D02*
X381329D01*
X381662D01*
Y495193D01*
X381995Y494860D01*
X378996Y493194D02*
X380329D01*
X378996Y494527D01*
Y494860D01*
X379329Y495193D01*
X379996D01*
X380329Y494860D01*
X376997Y495193D02*
X377663Y494860D01*
X378329Y494193D01*
Y493527D01*
X377996Y493194D01*
X377330D01*
X376997Y493527D01*
Y493860D01*
X377330Y494193D01*
X378329D01*
X367915Y482951D02*
X366582D01*
X367249D01*
Y480952D01*
X365916D02*
Y482951D01*
X364916D01*
X364583Y482618D01*
Y481952D01*
X364916Y481618D01*
X365916D01*
X363917Y480952D02*
X363250D01*
X363583D01*
Y482951D01*
X363917Y482618D01*
X360918Y480952D02*
X362250D01*
X360918Y482285D01*
Y482618D01*
X361251Y482951D01*
X361917D01*
X362250Y482618D01*
X360251Y482951D02*
X358918D01*
Y482618D01*
X360251Y481285D01*
Y480952D01*
X168682Y694941D02*
X167349D01*
X168015D01*
Y692942D01*
X166682D02*
Y694941D01*
X165683D01*
X165349Y694608D01*
Y693941D01*
X165683Y693608D01*
X166682D01*
X164683Y692942D02*
X164017D01*
X164350D01*
Y694941D01*
X164683Y694608D01*
X161684Y692942D02*
X163017D01*
X161684Y694274D01*
Y694608D01*
X162017Y694941D01*
X162684D01*
X163017Y694608D01*
X161018D02*
X160684Y694941D01*
X160018D01*
X159685Y694608D01*
Y694274D01*
X160018Y693941D01*
X159685Y693608D01*
Y693275D01*
X160018Y692942D01*
X160684D01*
X161018Y693275D01*
Y693608D01*
X160684Y693941D01*
X161018Y694274D01*
Y694608D01*
X160684Y693941D02*
X160018D01*
X148372Y699454D02*
X147039D01*
X147705D01*
Y697455D01*
X146372D02*
Y699454D01*
X145373D01*
X145039Y699121D01*
Y698455D01*
X145373Y698121D01*
X146372D01*
X144373Y697455D02*
X143707D01*
X144040D01*
Y699454D01*
X144373Y699121D01*
X141374Y697455D02*
X142707D01*
X141374Y698788D01*
Y699121D01*
X141707Y699454D01*
X142374D01*
X142707Y699121D01*
X140708Y697788D02*
X140374Y697455D01*
X139708D01*
X139375Y697788D01*
Y699121D01*
X139708Y699454D01*
X140374D01*
X140708Y699121D01*
Y698788D01*
X140374Y698455D01*
X139375D01*
X221644Y729990D02*
Y731323D01*
Y730657D01*
X219644D01*
Y731990D02*
X221644D01*
X220977Y732656D01*
X221644Y733323D01*
X219644D01*
X221311Y735322D02*
X221644Y734989D01*
Y734322D01*
X221311Y733989D01*
X220977D01*
X220644Y734322D01*
Y734989D01*
X220311Y735322D01*
X219978D01*
X219644Y734989D01*
Y734322D01*
X219978Y733989D01*
X219644Y735988D02*
X220977Y737321D01*
X221311Y739321D02*
X221644Y738987D01*
Y738321D01*
X221311Y737988D01*
X220977D01*
X220644Y738321D01*
Y738987D01*
X220311Y739321D01*
X219978D01*
X219644Y738987D01*
Y738321D01*
X219978Y737988D01*
X221644Y739987D02*
X219644D01*
X220311Y740654D01*
X219644Y741320D01*
X221644D01*
Y741986D02*
X219644D01*
Y742986D01*
X219978Y743319D01*
X221311D01*
X221644Y742986D01*
Y741986D01*
Y743986D02*
Y744652D01*
Y744319D01*
X219644D01*
Y743986D01*
Y744652D01*
X221644Y746652D02*
Y745985D01*
X221311Y745652D01*
X219978D01*
X219644Y745985D01*
Y746652D01*
X219978Y746985D01*
X221311D01*
X221644Y746652D01*
G54D140*
X195893Y152160D02*
Y150494D01*
X193394D01*
Y152160D01*
X194643Y150494D02*
Y151327D01*
X195893Y152993D02*
Y154659D01*
Y153826D01*
X193394D01*
X195893Y155492D02*
X193394Y157158D01*
X195893D02*
X193394Y155492D01*
X195476Y159657D02*
X195893Y159241D01*
Y158408D01*
X195476Y157991D01*
X193810D01*
X193394Y158408D01*
Y159241D01*
X193810Y159657D01*
X195893Y160491D02*
X193394D01*
X194227D01*
X195893Y162157D01*
X194643Y160907D01*
X193394Y162157D01*
X186693Y154360D02*
Y152694D01*
X184194D01*
Y154360D01*
X185443Y152694D02*
Y153527D01*
X186693Y155193D02*
Y156859D01*
Y156026D01*
X184194D01*
X186693Y157692D02*
X184194Y159358D01*
X186693D02*
X184194Y157692D01*
X186276Y160191D02*
X186693Y160608D01*
Y161441D01*
X186276Y161857D01*
X184610D01*
X184194Y161441D01*
Y160608D01*
X184610Y160191D01*
X186276D01*
X176693Y154460D02*
Y152794D01*
X174194D01*
Y154460D01*
X175443Y152794D02*
Y153627D01*
X174194Y155293D02*
X176693D01*
Y156543D01*
X176276Y156959D01*
X175443D01*
X175027Y156543D01*
Y155293D01*
Y156126D02*
X174194Y156959D01*
X176693Y157792D02*
X174194Y159458D01*
X176693D02*
X174194Y157792D01*
X176276Y160291D02*
X176693Y160708D01*
Y161541D01*
X176276Y161957D01*
X174610D01*
X174194Y161541D01*
Y160708D01*
X174610Y160291D01*
X176276D01*
X166693Y149260D02*
Y147594D01*
X164194D01*
Y149260D01*
X165443Y147594D02*
Y148427D01*
X166276Y151759D02*
X166693Y151342D01*
Y150509D01*
X166276Y150093D01*
X164610D01*
X164194Y150509D01*
Y151342D01*
X164610Y151759D01*
X164194Y152592D02*
X166693D01*
Y153842D01*
X166276Y154258D01*
X165443D01*
X165027Y153842D01*
Y152592D01*
Y153425D02*
X164194Y154258D01*
X166276Y156757D02*
X166693Y156341D01*
Y155508D01*
X166276Y155091D01*
X165860D01*
X165443Y155508D01*
Y156341D01*
X165027Y156757D01*
X164610D01*
X164194Y156341D01*
Y155508D01*
X164610Y155091D01*
X166693Y157590D02*
X164194D01*
Y158840D01*
X164610Y159257D01*
X166276D01*
X166693Y158840D01*
Y157590D01*
Y160090D02*
X165027D01*
X164194Y160923D01*
X165027Y161756D01*
X166693D01*
X156693Y151960D02*
Y150294D01*
X154194D01*
Y151960D01*
X155443Y150294D02*
Y151127D01*
X154194Y152793D02*
X156693D01*
Y154042D01*
X156276Y154459D01*
X155443D01*
X155027Y154042D01*
Y152793D01*
Y153626D02*
X154194Y154459D01*
X156693Y155292D02*
X154194Y156958D01*
X156693D02*
X154194Y155292D01*
X156693Y159457D02*
Y157791D01*
X154194D01*
Y159457D01*
X155443Y157791D02*
Y158624D01*
X154194Y160291D02*
X156693D01*
Y161540D01*
X156276Y161957D01*
X155443D01*
X155027Y161540D01*
Y160291D01*
Y161124D02*
X154194Y161957D01*
X204194Y152994D02*
X206693D01*
X205860Y153827D01*
X206693Y154660D01*
X204194D01*
X206693Y155493D02*
Y156326D01*
Y155909D01*
X204194D01*
Y155493D01*
Y156326D01*
X206276Y159242D02*
X206693Y158825D01*
Y157992D01*
X206276Y157576D01*
X205860D01*
X205443Y157992D01*
Y158825D01*
X205027Y159242D01*
X204610D01*
X204194Y158825D01*
Y157992D01*
X204610Y157576D01*
X206693Y161324D02*
Y160491D01*
X206276Y160075D01*
X204610D01*
X204194Y160491D01*
Y161324D01*
X204610Y161741D01*
X206276D01*
X206693Y161324D01*
X215976Y154260D02*
X216393Y153843D01*
Y153010D01*
X215976Y152594D01*
X215560D01*
X215143Y153010D01*
Y153843D01*
X214727Y154260D01*
X214310D01*
X213894Y153843D01*
Y153010D01*
X214310Y152594D01*
X215976Y156759D02*
X216393Y156342D01*
Y155509D01*
X215976Y155093D01*
X214310D01*
X213894Y155509D01*
Y156342D01*
X214310Y156759D01*
X216393Y157592D02*
X213894D01*
Y159258D01*
X216393Y160091D02*
X213894D01*
X214727D01*
X216393Y161757D01*
X215143Y160508D01*
X213894Y161757D01*
X218490Y181532D02*
X218907Y181115D01*
Y180282D01*
X218490Y179866D01*
X216824D01*
X216408Y180282D01*
Y181115D01*
X216824Y181532D01*
X218490Y184031D02*
X218907Y183615D01*
Y182782D01*
X218490Y182365D01*
X218074D01*
X217657Y182782D01*
Y183615D01*
X217241Y184031D01*
X216824D01*
X216408Y183615D01*
Y182782D01*
X216824Y182365D01*
X216408Y186530D02*
Y184864D01*
X218074Y186530D01*
X218490D01*
X218907Y186114D01*
Y185281D01*
X218490Y184864D01*
X204294Y180394D02*
X206793D01*
X205960Y181227D01*
X206793Y182060D01*
X204294D01*
X206793Y184142D02*
Y183309D01*
X206376Y182893D01*
X204710D01*
X204294Y183309D01*
Y184142D01*
X204710Y184559D01*
X206376D01*
X206793Y184142D01*
X206376Y187058D02*
X206793Y186642D01*
Y185809D01*
X206376Y185392D01*
X205960D01*
X205543Y185809D01*
Y186642D01*
X205127Y187058D01*
X204710D01*
X204294Y186642D01*
Y185809D01*
X204710Y185392D01*
X206793Y187891D02*
Y188724D01*
Y188308D01*
X204294D01*
Y187891D01*
Y188724D01*
X159593Y181060D02*
Y179394D01*
X157094D01*
Y181060D01*
X158343Y179394D02*
Y180227D01*
X157094Y181893D02*
X159593D01*
X158760Y182726D01*
X159593Y183559D01*
X157094D01*
X159593Y184392D02*
X157094D01*
Y185642D01*
X157510Y186058D01*
X159176D01*
X159593Y185642D01*
Y184392D01*
Y186891D02*
Y187724D01*
Y187308D01*
X157094D01*
Y186891D01*
Y187724D01*
X159593Y190224D02*
Y189391D01*
X159176Y188974D01*
X157510D01*
X157094Y189391D01*
Y190224D01*
X157510Y190640D01*
X159176D01*
X159593Y190224D01*
X166693Y181960D02*
Y180294D01*
X164194D01*
Y181960D01*
X165443Y180294D02*
Y181127D01*
X164194Y182793D02*
X166693D01*
X165860Y183626D01*
X166693Y184459D01*
X164194D01*
X166693Y185292D02*
X164194D01*
Y186542D01*
X164610Y186958D01*
X166276D01*
X166693Y186542D01*
Y185292D01*
X166276Y189457D02*
X166693Y189041D01*
Y188208D01*
X166276Y187791D01*
X164610D01*
X164194Y188208D01*
Y189041D01*
X164610Y189457D01*
X176774Y181462D02*
Y179796D01*
X174275D01*
Y181462D01*
X175525Y179796D02*
Y180629D01*
X174275Y182295D02*
X176774D01*
Y183545D01*
X176358Y183961D01*
X175525D01*
X175108Y183545D01*
Y182295D01*
Y183128D02*
X174275Y183961D01*
X176774Y184794D02*
X174275Y186460D01*
X176774D02*
X174275Y184794D01*
Y187293D02*
Y188126D01*
Y187710D01*
X176774D01*
X176358Y187293D01*
X186593Y181760D02*
Y180094D01*
X184094D01*
Y181760D01*
X185343Y180094D02*
Y180927D01*
X186593Y182593D02*
Y184259D01*
Y183426D01*
X184094D01*
X186593Y185092D02*
X184094Y186758D01*
X186593D02*
X184094Y185092D01*
Y187591D02*
Y188424D01*
Y188008D01*
X186593D01*
X186176Y187591D01*
X196908Y181769D02*
Y180103D01*
X194409D01*
Y181769D01*
X195658Y180103D02*
Y180936D01*
X196908Y182602D02*
Y184268D01*
Y183435D01*
X194409D01*
X196908Y185101D02*
X194409Y186767D01*
X196908D02*
X194409Y185101D01*
X196908Y189266D02*
Y187600D01*
X194409D01*
Y189266D01*
X195658Y187600D02*
Y188433D01*
X194409Y190099D02*
X196908D01*
X194409Y191765D01*
X196908D01*
X106137Y155372D02*
X106553Y155789D01*
Y156622D01*
X106137Y157038D01*
X105720D01*
X105304Y156622D01*
Y156205D01*
Y156622D01*
X104887Y157038D01*
X104470D01*
X104054Y156622D01*
Y155789D01*
X104470Y155372D01*
X106553Y157871D02*
X104887D01*
X104054Y158704D01*
X104887Y159537D01*
X106553D01*
X106137Y160370D02*
X106553Y160787D01*
Y161620D01*
X106137Y162037D01*
X105720D01*
X105304Y161620D01*
Y161204D01*
Y161620D01*
X104887Y162037D01*
X104470D01*
X104054Y161620D01*
Y160787D01*
X104470Y160370D01*
X116576Y156960D02*
X116993Y156543D01*
Y155710D01*
X116576Y155294D01*
X116160D01*
X115743Y155710D01*
Y156543D01*
X115327Y156960D01*
X114910D01*
X114494Y156543D01*
Y155710D01*
X114910Y155294D01*
X116993Y157793D02*
X114494D01*
Y159043D01*
X114910Y159459D01*
X116576D01*
X116993Y159043D01*
Y157793D01*
X114494Y160292D02*
X116160D01*
X116993Y161125D01*
X116160Y161958D01*
X114494D01*
X115743D01*
Y160292D01*
X124194Y155294D02*
X125860D01*
X126693Y156127D01*
X125860Y156960D01*
X124194D01*
X125443D01*
Y155294D01*
X126693Y157793D02*
X124194D01*
Y159043D01*
X124610Y159459D01*
X126276D01*
X126693Y159043D01*
Y157793D01*
X126276Y160292D02*
X126693Y160709D01*
Y161542D01*
X126276Y161958D01*
X125860D01*
X125443Y161542D01*
X125027Y161958D01*
X124610D01*
X124194Y161542D01*
Y160709D01*
X124610Y160292D01*
X125027D01*
X125443Y160709D01*
X125860Y160292D01*
X126276D01*
X125443Y160709D02*
Y161542D01*
X134452Y153021D02*
X136118D01*
Y154270D01*
X135701Y154687D01*
X134452D01*
Y155520D02*
X136951D01*
Y156769D01*
X136534Y157186D01*
X135701D01*
X135285Y156769D01*
Y155520D01*
Y156353D02*
X134452Y157186D01*
X136534Y159685D02*
X136951Y159268D01*
Y158435D01*
X136534Y158019D01*
X136118D01*
X135701Y158435D01*
Y159268D01*
X135285Y159685D01*
X134868D01*
X134452Y159268D01*
Y158435D01*
X134868Y158019D01*
X136951Y160518D02*
Y162184D01*
Y161351D01*
X134452D01*
X146793Y153594D02*
X144294D01*
Y154843D01*
X144710Y155260D01*
X146376D01*
X146793Y154843D01*
Y153594D01*
X144294Y156093D02*
X145960D01*
X146793Y156926D01*
X145960Y157759D01*
X144294D01*
X145543D01*
Y156093D01*
X146376Y160258D02*
X146793Y159842D01*
Y159009D01*
X146376Y158592D01*
X144710D01*
X144294Y159009D01*
Y159842D01*
X144710Y160258D01*
X144294Y161091D02*
Y161924D01*
Y161508D01*
X146793D01*
X146376Y161091D01*
X142193Y179694D02*
X139694D01*
Y180943D01*
X140110Y181360D01*
X141776D01*
X142193Y180943D01*
Y179694D01*
X139694Y182193D02*
X141360D01*
X142193Y183026D01*
X141360Y183859D01*
X139694D01*
X140943D01*
Y182193D01*
X141776Y186358D02*
X142193Y185942D01*
Y185109D01*
X141776Y184692D01*
X140110D01*
X139694Y185109D01*
Y185942D01*
X140110Y186358D01*
X141776Y187191D02*
X142193Y187608D01*
Y188441D01*
X141776Y188857D01*
X140110D01*
X139694Y188441D01*
Y187608D01*
X140110Y187191D01*
X141776D01*
X134065Y179778D02*
X136564D01*
Y181027D01*
X136148Y181444D01*
X135315D01*
X134898Y181027D01*
Y179778D01*
X136564Y182277D02*
X134065D01*
X134898Y183110D01*
X134065Y183943D01*
X136564D01*
X134065Y184776D02*
X136564D01*
X135731Y185609D01*
X136564Y186442D01*
X134065D01*
X136564Y187275D02*
X134065D01*
X135315D01*
Y188942D01*
X136564D01*
X134065D01*
Y191441D02*
Y189775D01*
X135731Y191441D01*
X136148D01*
X136564Y191024D01*
Y190191D01*
X136148Y189775D01*
X124389Y179693D02*
X126055D01*
X126888Y180526D01*
X126055Y181359D01*
X124389D01*
X125639D01*
Y179693D01*
X126888Y182192D02*
X124389D01*
Y183442D01*
X124806Y183858D01*
X126472D01*
X126888Y183442D01*
Y182192D01*
X124806Y184691D02*
X124389Y185108D01*
Y185941D01*
X124806Y186357D01*
X126472D01*
X126888Y185941D01*
Y185108D01*
X126472Y184691D01*
X126055D01*
X125639Y185108D01*
Y186357D01*
X116371Y181529D02*
X116788Y181112D01*
Y180279D01*
X116371Y179863D01*
X115955D01*
X115538Y180279D01*
Y181112D01*
X115122Y181529D01*
X114705D01*
X114289Y181112D01*
Y180279D01*
X114705Y179863D01*
X116371Y184028D02*
X116788Y183612D01*
Y182778D01*
X116371Y182362D01*
X114705D01*
X114289Y182778D01*
Y183612D01*
X114705Y184028D01*
X116788Y184861D02*
X114289D01*
Y186527D01*
X106016Y181783D02*
X106433Y181367D01*
Y180534D01*
X106016Y180117D01*
X104350D01*
X103934Y180534D01*
Y181367D01*
X104350Y181783D01*
X105183D01*
Y180950D01*
X103934Y182616D02*
X106433D01*
X103934Y184283D01*
X106433D01*
Y185116D02*
X103934D01*
Y186365D01*
X104350Y186782D01*
X106016D01*
X106433Y186365D01*
Y185116D01*
X195893Y557160D02*
Y555494D01*
X193394D01*
Y557160D01*
X194643Y555494D02*
Y556327D01*
X195893Y557993D02*
Y559659D01*
Y558826D01*
X193394D01*
X195893Y560492D02*
X193394Y562158D01*
X195893D02*
X193394Y560492D01*
X195476Y564657D02*
X195893Y564241D01*
Y563408D01*
X195476Y562991D01*
X193810D01*
X193394Y563408D01*
Y564241D01*
X193810Y564657D01*
X195893Y565490D02*
X193394D01*
X194227D01*
X195893Y567157D01*
X194643Y565907D01*
X193394Y567157D01*
X186693Y559360D02*
Y557694D01*
X184194D01*
Y559360D01*
X185443Y557694D02*
Y558527D01*
X186693Y560193D02*
Y561859D01*
Y561026D01*
X184194D01*
X186693Y562692D02*
X184194Y564358D01*
X186693D02*
X184194Y562692D01*
X186276Y565191D02*
X186693Y565608D01*
Y566441D01*
X186276Y566857D01*
X184610D01*
X184194Y566441D01*
Y565608D01*
X184610Y565191D01*
X186276D01*
X176693Y559460D02*
Y557794D01*
X174194D01*
Y559460D01*
X175443Y557794D02*
Y558627D01*
X174194Y560293D02*
X176693D01*
Y561543D01*
X176276Y561959D01*
X175443D01*
X175027Y561543D01*
Y560293D01*
Y561126D02*
X174194Y561959D01*
X176693Y562792D02*
X174194Y564458D01*
X176693D02*
X174194Y562792D01*
X176276Y565291D02*
X176693Y565708D01*
Y566541D01*
X176276Y566957D01*
X174610D01*
X174194Y566541D01*
Y565708D01*
X174610Y565291D01*
X176276D01*
X166693Y554260D02*
Y552594D01*
X164194D01*
Y554260D01*
X165443Y552594D02*
Y553427D01*
X166276Y556759D02*
X166693Y556343D01*
Y555509D01*
X166276Y555093D01*
X164610D01*
X164194Y555509D01*
Y556343D01*
X164610Y556759D01*
X164194Y557592D02*
X166693D01*
Y558842D01*
X166276Y559258D01*
X165443D01*
X165027Y558842D01*
Y557592D01*
Y558425D02*
X164194Y559258D01*
X166276Y561757D02*
X166693Y561341D01*
Y560508D01*
X166276Y560091D01*
X165860D01*
X165443Y560508D01*
Y561341D01*
X165027Y561757D01*
X164610D01*
X164194Y561341D01*
Y560508D01*
X164610Y560091D01*
X166693Y562591D02*
X164194D01*
Y563840D01*
X164610Y564257D01*
X166276D01*
X166693Y563840D01*
Y562591D01*
Y565090D02*
X165027D01*
X164194Y565923D01*
X165027Y566756D01*
X166693D01*
X156693Y556960D02*
Y555294D01*
X154194D01*
Y556960D01*
X155443Y555294D02*
Y556127D01*
X154194Y557793D02*
X156693D01*
Y559043D01*
X156276Y559459D01*
X155443D01*
X155027Y559043D01*
Y557793D01*
Y558626D02*
X154194Y559459D01*
X156693Y560292D02*
X154194Y561958D01*
X156693D02*
X154194Y560292D01*
X156693Y564457D02*
Y562791D01*
X154194D01*
Y564457D01*
X155443Y562791D02*
Y563624D01*
X154194Y565290D02*
X156693D01*
Y566540D01*
X156276Y566957D01*
X155443D01*
X155027Y566540D01*
Y565290D01*
Y566123D02*
X154194Y566957D01*
X204194Y557994D02*
X206693D01*
X205860Y558827D01*
X206693Y559660D01*
X204194D01*
X206693Y560493D02*
Y561326D01*
Y560909D01*
X204194D01*
Y560493D01*
Y561326D01*
X206276Y564242D02*
X206693Y563825D01*
Y562992D01*
X206276Y562576D01*
X205860D01*
X205443Y562992D01*
Y563825D01*
X205027Y564242D01*
X204610D01*
X204194Y563825D01*
Y562992D01*
X204610Y562576D01*
X206693Y566324D02*
Y565491D01*
X206276Y565075D01*
X204610D01*
X204194Y565491D01*
Y566324D01*
X204610Y566741D01*
X206276D01*
X206693Y566324D01*
X215976Y559260D02*
X216393Y558843D01*
Y558010D01*
X215976Y557594D01*
X215560D01*
X215143Y558010D01*
Y558843D01*
X214727Y559260D01*
X214310D01*
X213894Y558843D01*
Y558010D01*
X214310Y557594D01*
X215976Y561759D02*
X216393Y561342D01*
Y560509D01*
X215976Y560093D01*
X214310D01*
X213894Y560509D01*
Y561342D01*
X214310Y561759D01*
X216393Y562592D02*
X213894D01*
Y564258D01*
X216393Y565091D02*
X213894D01*
X214727D01*
X216393Y566757D01*
X215143Y565508D01*
X213894Y566757D01*
X218490Y586532D02*
X218907Y586115D01*
Y585282D01*
X218490Y584866D01*
X216824D01*
X216408Y585282D01*
Y586115D01*
X216824Y586532D01*
X218490Y589031D02*
X218907Y588615D01*
Y587781D01*
X218490Y587365D01*
X218074D01*
X217657Y587781D01*
Y588615D01*
X217241Y589031D01*
X216824D01*
X216408Y588615D01*
Y587781D01*
X216824Y587365D01*
X216408Y591530D02*
Y589864D01*
X218074Y591530D01*
X218490D01*
X218907Y591114D01*
Y590281D01*
X218490Y589864D01*
X204294Y585394D02*
X206793D01*
X205960Y586227D01*
X206793Y587060D01*
X204294D01*
X206793Y589143D02*
Y588309D01*
X206376Y587893D01*
X204710D01*
X204294Y588309D01*
Y589143D01*
X204710Y589559D01*
X206376D01*
X206793Y589143D01*
X206376Y592058D02*
X206793Y591642D01*
Y590809D01*
X206376Y590392D01*
X205960D01*
X205543Y590809D01*
Y591642D01*
X205127Y592058D01*
X204710D01*
X204294Y591642D01*
Y590809D01*
X204710Y590392D01*
X206793Y592891D02*
Y593724D01*
Y593308D01*
X204294D01*
Y592891D01*
Y593724D01*
X159593Y586060D02*
Y584394D01*
X157094D01*
Y586060D01*
X158343Y584394D02*
Y585227D01*
X157094Y586893D02*
X159593D01*
X158760Y587726D01*
X159593Y588559D01*
X157094D01*
X159593Y589392D02*
X157094D01*
Y590642D01*
X157510Y591058D01*
X159176D01*
X159593Y590642D01*
Y589392D01*
Y591891D02*
Y592724D01*
Y592308D01*
X157094D01*
Y591891D01*
Y592724D01*
X159593Y595224D02*
Y594390D01*
X159176Y593974D01*
X157510D01*
X157094Y594390D01*
Y595224D01*
X157510Y595640D01*
X159176D01*
X159593Y595224D01*
X166693Y586960D02*
Y585294D01*
X164194D01*
Y586960D01*
X165443Y585294D02*
Y586127D01*
X164194Y587793D02*
X166693D01*
X165860Y588626D01*
X166693Y589459D01*
X164194D01*
X166693Y590292D02*
X164194D01*
Y591542D01*
X164610Y591958D01*
X166276D01*
X166693Y591542D01*
Y590292D01*
X166276Y594457D02*
X166693Y594041D01*
Y593208D01*
X166276Y592791D01*
X164610D01*
X164194Y593208D01*
Y594041D01*
X164610Y594457D01*
X176774Y586462D02*
Y584796D01*
X174275D01*
Y586462D01*
X175525Y584796D02*
Y585629D01*
X174275Y587295D02*
X176774D01*
Y588545D01*
X176358Y588961D01*
X175525D01*
X175108Y588545D01*
Y587295D01*
Y588128D02*
X174275Y588961D01*
X176774Y589794D02*
X174275Y591460D01*
X176774D02*
X174275Y589794D01*
Y592293D02*
Y593126D01*
Y592710D01*
X176774D01*
X176358Y592293D01*
X186593Y586760D02*
Y585094D01*
X184094D01*
Y586760D01*
X185343Y585094D02*
Y585927D01*
X186593Y587593D02*
Y589259D01*
Y588426D01*
X184094D01*
X186593Y590092D02*
X184094Y591758D01*
X186593D02*
X184094Y590092D01*
Y592591D02*
Y593424D01*
Y593008D01*
X186593D01*
X186176Y592591D01*
X196908Y586769D02*
Y585103D01*
X194409D01*
Y586769D01*
X195658Y585103D02*
Y585936D01*
X196908Y587602D02*
Y589268D01*
Y588435D01*
X194409D01*
X196908Y590101D02*
X194409Y591767D01*
X196908D02*
X194409Y590101D01*
X196908Y594266D02*
Y592600D01*
X194409D01*
Y594266D01*
X195658Y592600D02*
Y593433D01*
X194409Y595099D02*
X196908D01*
X194409Y596766D01*
X196908D01*
X106137Y560372D02*
X106553Y560789D01*
Y561622D01*
X106137Y562038D01*
X105720D01*
X105304Y561622D01*
Y561205D01*
Y561622D01*
X104887Y562038D01*
X104470D01*
X104054Y561622D01*
Y560789D01*
X104470Y560372D01*
X106553Y562871D02*
X104887D01*
X104054Y563704D01*
X104887Y564537D01*
X106553D01*
X106137Y565370D02*
X106553Y565787D01*
Y566620D01*
X106137Y567036D01*
X105720D01*
X105304Y566620D01*
Y566203D01*
Y566620D01*
X104887Y567036D01*
X104470D01*
X104054Y566620D01*
Y565787D01*
X104470Y565370D01*
X116576Y561960D02*
X116993Y561543D01*
Y560710D01*
X116576Y560294D01*
X116160D01*
X115743Y560710D01*
Y561543D01*
X115327Y561960D01*
X114910D01*
X114494Y561543D01*
Y560710D01*
X114910Y560294D01*
X116993Y562793D02*
X114494D01*
Y564043D01*
X114910Y564459D01*
X116576D01*
X116993Y564043D01*
Y562793D01*
X114494Y565292D02*
X116160D01*
X116993Y566125D01*
X116160Y566958D01*
X114494D01*
X115743D01*
Y565292D01*
X124194Y560294D02*
X125860D01*
X126693Y561127D01*
X125860Y561960D01*
X124194D01*
X125443D01*
Y560294D01*
X126693Y562793D02*
X124194D01*
Y564043D01*
X124610Y564459D01*
X126276D01*
X126693Y564043D01*
Y562793D01*
X126276Y565292D02*
X126693Y565709D01*
Y566542D01*
X126276Y566958D01*
X125860D01*
X125443Y566542D01*
X125027Y566958D01*
X124610D01*
X124194Y566542D01*
Y565709D01*
X124610Y565292D01*
X125027D01*
X125443Y565709D01*
X125860Y565292D01*
X126276D01*
X125443Y565709D02*
Y566542D01*
X134452Y558020D02*
X136118D01*
Y559270D01*
X135701Y559687D01*
X134452D01*
Y560520D02*
X136951D01*
Y561769D01*
X136534Y562186D01*
X135701D01*
X135285Y561769D01*
Y560520D01*
Y561353D02*
X134452Y562186D01*
X136534Y564685D02*
X136951Y564268D01*
Y563435D01*
X136534Y563019D01*
X136118D01*
X135701Y563435D01*
Y564268D01*
X135285Y564685D01*
X134868D01*
X134452Y564268D01*
Y563435D01*
X134868Y563019D01*
X136951Y565518D02*
Y567184D01*
Y566351D01*
X134452D01*
X146793Y558594D02*
X144294D01*
Y559843D01*
X144710Y560260D01*
X146376D01*
X146793Y559843D01*
Y558594D01*
X144294Y561093D02*
X145960D01*
X146793Y561926D01*
X145960Y562759D01*
X144294D01*
X145543D01*
Y561093D01*
X146376Y565258D02*
X146793Y564842D01*
Y564009D01*
X146376Y563592D01*
X144710D01*
X144294Y564009D01*
Y564842D01*
X144710Y565258D01*
X144294Y566091D02*
Y566924D01*
Y566508D01*
X146793D01*
X146376Y566091D01*
X142193Y584694D02*
X139694D01*
Y585943D01*
X140110Y586360D01*
X141776D01*
X142193Y585943D01*
Y584694D01*
X139694Y587193D02*
X141360D01*
X142193Y588026D01*
X141360Y588859D01*
X139694D01*
X140943D01*
Y587193D01*
X141776Y591358D02*
X142193Y590942D01*
Y590109D01*
X141776Y589692D01*
X140110D01*
X139694Y590109D01*
Y590942D01*
X140110Y591358D01*
X141776Y592191D02*
X142193Y592608D01*
Y593441D01*
X141776Y593857D01*
X140110D01*
X139694Y593441D01*
Y592608D01*
X140110Y592191D01*
X141776D01*
X134065Y584778D02*
X136564D01*
Y586027D01*
X136148Y586444D01*
X135315D01*
X134898Y586027D01*
Y584778D01*
X136564Y587277D02*
X134065D01*
X134898Y588110D01*
X134065Y588943D01*
X136564D01*
X134065Y589776D02*
X136564D01*
X135731Y590609D01*
X136564Y591442D01*
X134065D01*
X136564Y592275D02*
X134065D01*
X135315D01*
Y593941D01*
X136564D01*
X134065D01*
Y596441D02*
Y594775D01*
X135731Y596441D01*
X136148D01*
X136564Y596024D01*
Y595191D01*
X136148Y594775D01*
X124389Y584693D02*
X126055D01*
X126888Y585526D01*
X126055Y586359D01*
X124389D01*
X125639D01*
Y584693D01*
X126888Y587192D02*
X124389D01*
Y588442D01*
X124806Y588858D01*
X126472D01*
X126888Y588442D01*
Y587192D01*
X124806Y589691D02*
X124389Y590108D01*
Y590941D01*
X124806Y591358D01*
X126472D01*
X126888Y590941D01*
Y590108D01*
X126472Y589691D01*
X126055D01*
X125639Y590108D01*
Y591358D01*
X116371Y586529D02*
X116788Y586112D01*
Y585279D01*
X116371Y584863D01*
X115955D01*
X115538Y585279D01*
Y586112D01*
X115122Y586529D01*
X114705D01*
X114289Y586112D01*
Y585279D01*
X114705Y584863D01*
X116371Y589028D02*
X116788Y588612D01*
Y587778D01*
X116371Y587362D01*
X114705D01*
X114289Y587778D01*
Y588612D01*
X114705Y589028D01*
X116788Y589861D02*
X114289D01*
Y591527D01*
X106016Y586784D02*
X106433Y586367D01*
Y585534D01*
X106016Y585117D01*
X104350D01*
X103934Y585534D01*
Y586367D01*
X104350Y586784D01*
X105183D01*
Y585950D01*
X103934Y587616D02*
X106433D01*
X103934Y589283D01*
X106433D01*
Y590116D02*
X103934D01*
Y591365D01*
X104350Y591782D01*
X106016D01*
X106433Y591365D01*
Y590116D01*
M02*
