M48
;Layer_Color=9474304
;FILE_FORMAT=2:4
INCH,TZ
;TYPE=PLATED
T1F00S00C0.0150
T2F00S00C0.0354
T3F00S00C0.0380
T4F00S00C0.0400
T5F00S00C0.0550
T6F00S00C0.0590
T7F00S00C0.0630
T8F00S00C0.0870
;TYPE=NON_PLATED
T9F00S00C0.1181
T10F00S00C0.1299
%
T01
X3339Y3339
X3039Y4039
X3339Y4739
X3425Y5506
X4039Y5039
X4739Y4739
X5259Y5079
X5239Y5419
X5979Y5439
Y5089
X6329
X5509Y4829
X5899Y4019
X5039Y4039
X4739Y3339
X4039Y3039
X7577Y3117
X7629Y4749
Y5069
Y5389
X8596Y4800
X8559Y6069
X9559
X10889Y5749
Y5429
Y5109
X11429Y4329
X11759
X12259Y4749
Y5079
X13579Y5119
Y5439
Y4799
X13586Y3111
X15589Y3124
X15589Y4749
Y5079
X16249Y6299
X17289Y5529
X17619
X18209Y5089
Y4759
X19529Y5199
Y5529
X20539Y6119
X21539Y6059
X19554Y3155
X17636Y3532
X14589Y6139
X9595Y3109
X22839Y4388
X23189Y5409
X23519
X24502Y5400
X25583Y5405
X26688Y5370
X27806Y5404
X28579Y5419
X28909
X29451Y4705
X28631Y4105
X30566Y3112
X32532Y3147
X31550Y4675
X31539Y6109
X32539Y6139
X33889Y5129
X33559Y4758
X34349Y4339
X34679
X35489Y4749
Y5079
X36489Y6029
X37489Y6089
X37522Y4730
X36515Y3138
X30539Y5179
Y5509
X26624Y3150
X38492Y3175
X39619Y3248
X39588Y4760
X39489Y6099
X38489Y6089
X41099Y6159
X42487Y6343
X42039Y5039
X42739Y4739
X43039Y4039
X42739Y3339
X42039Y3039
X41339Y3339
X41039Y4039
X41339Y4739
X41009Y6839
X40809Y7089
X41019Y7339
X41009Y7839
X40809Y8089
X41019Y8339
X41009Y8839
X40809Y9089
X41019Y9339
X41009Y9839
X40809Y10089
X41019Y10339
X40961Y11244
X40739Y12069
Y12439
Y12799
Y13149
X40449Y13399
X40099
X39259Y13349
X38969Y13659
X39259Y13973
X38969Y14279
X37819Y14283
X38109Y13973
X37819Y13659
X38109Y13349
Y12323
X37819Y12013
X38109Y11703
X37819Y11389
X38969
X39259Y11703
X38969Y12009
X39259Y12323
X40099Y11839
X40439
X39807Y10640
X38949Y9629
X39169Y9409
X39489Y7779
Y7449
Y6429
X38489Y6419
Y7369
Y7699
X38519Y8099
X38189
X37609Y9859
X42419Y9839
X42629Y10089
X42429Y10339
Y9339
X42629Y9089
X42419Y8839
X42429Y8339
X42629Y8089
X42419Y7839
X42429Y7339
X42629Y7089
X42419Y6839
X42819Y11839
X42179Y12099
Y12439
Y12789
Y13139
X42459Y13399
X42829
X42477Y13875
X42157
X42587Y14185
Y14515
X42497Y14845
Y15165
Y15485
Y15805
X42237Y15995
X42199Y16449
X41879Y16729
X41539Y16449
X41567Y15995
X41287Y15815
Y15485
Y15155
X41257Y14835
X40937
X40817Y14535
X40746Y15537
X39888Y15559
X40539Y16719
X40869Y16449
X41206Y16725
X40329Y17129
X40349Y17559
X40379Y18079
X40539Y18605
X40869Y18335
X41206Y18599
X41539Y18335
X41879Y18605
X42199Y18329
X42549Y18605
X42279Y19767
X42513Y20566
X42999Y21059
X42040Y21154
X41742Y21919
X41353Y21796
X40589Y21939
X40743Y21204
X40705Y19736
X39056Y19692
X37898Y19315
X37886Y18946
X39886Y18435
X42546Y16725
X42539Y21909
X36652Y19245
X36070Y19658
X36319Y18529
X35413Y18542
X35057Y19171
X34270Y19355
X33478Y19468
X33110Y19469
X32377Y19495
X31589Y19579
X31209Y19588
X30699Y19329
X30470Y18762
X30469Y18379
X30659Y17254
X31811Y17077
X31719Y17599
X32545Y17194
X32490Y16831
X32125Y16738
X32749Y16449
X32889Y17049
X34250Y17199
X34249Y17579
X34333Y18029
X34585Y17779
X34139Y16348
X35687Y16294
X35684Y15543
X35688Y15148
X35177Y14529
X33739Y14529
Y14179
X33439Y14039
X32959
X32659Y14189
Y14539
X32959Y14679
X33439
X31889Y14279
X32179Y13973
X31889Y13659
X32179Y13349
Y12323
X31889Y12009
X32179Y11703
X31889Y11389
X30739
X31029Y11703
X30739Y12013
X31029Y12323
Y13349
X30739Y13659
X31029Y13973
X30739Y14283
X29619Y14138
X28939Y13829
X28826Y12562
X28393
X27960
X27526
X27093
Y12129
Y11696
X27526
Y12129
X27960
Y11696
X28393
Y12129
X28826
Y11696
X29705Y11839
Y11529
X29699Y12279
X29710Y12629
X29239Y12673
X29089Y15179
X29092Y15543
X28596Y16634
X28258Y16693
X27185
X27216Y16336
X26303Y15851
X25919Y15859
X25869Y14649
Y14299
X26169Y14149
X26649
X26949Y14289
Y14639
X26649Y14789
X26169
X24829Y14269
X25119Y13963
X24829Y13649
X25119Y13339
Y12313
X24829Y11999
X25119Y11693
X24829Y11379
X24749Y10459
X25139Y10339
X25147Y10019
X25139Y9599
X24809
X24389Y9539
X24079
X23749Y10459
X23289Y10239
X22959
X22849Y9749
X22519
X22221Y9889
X22509Y9319
Y8979
X22329Y8409
X22319Y8099
X22799
Y8419
X23079Y8599
X24369Y7909
Y7579
X23299Y6539
X22111Y7429
X26009Y8099
Y8419
X25729Y8599
X26489Y8409
Y8099
X26707Y7429
X27033
X27360
X27687
X28187
X28523
X28860
X29197
X29399Y8099
Y8409
X29589Y8979
Y9319
X29619Y9689
X29959
X30019Y10059
Y10309
X30399Y9689
X30800Y9713
X31429Y10189
X32279Y10199
Y9869
X32749Y9339
Y9009
X32909Y8409
X33209
X33799Y8958
Y9298
X33829Y10069
X33569Y9899
X33289Y9759
X34265Y10069
Y10339
X34869Y10399
Y10139
X35239
X35229Y10399
X35885Y10329
Y10049
X36395Y9889
X36699Y9789
X37015
X37039Y9319
Y8989
X37035Y8021
X37365
X37049Y7329
X36637Y7409
X36310
X35983
X35657
X35678Y7870
X34853Y7905
X34840Y7409
X35167
X34513
X34209
X34739Y6509
X35069
X35292Y8706
X35481Y11696
X35048
X34615
X34182
Y12129
Y12562
X34615
Y12129
X35048
Y12562
X35481
Y12129
X35914
Y11696
Y12562
X36326Y12673
X36798Y12629
Y12129
X36719Y11549
X37198Y11548
X37219Y10469
Y10159
X37489Y6419
X32539Y6469
X31539Y6439
X31269Y7559
Y7889
X31589Y8849
Y9179
X29349Y9859
X28797Y10049
Y10329
X28141Y10399
Y10139
X27781
Y10399
X27177Y10339
Y10069
X26709Y10049
X26439Y9899
X26169Y9719
X26319Y9319
Y8979
X27985Y8679
X28324Y8096
X27608Y8088
X26212Y12409
Y12719
X23969Y12313
X23679Y12003
X23969Y11693
X23679Y11379
X23109Y11459
X22619Y11529
Y11839
X22579Y12269
X22624Y12629
X22157Y12683
X23289Y13039
Y13789
X22901Y13795
X22539Y14131
X21979Y14346
X23679Y14273
X23969Y13963
X23679Y13649
X23969Y13339
X23289Y12289
X23079Y15969
X22439Y15869
X24089Y16064
Y17875
X23858Y18670
X23856Y19143
X24502Y19001
X24501Y18701
X24873Y18536
X25510Y18264
X25893Y18262
X25762Y17590
X26047Y17396
X24995Y16969
X23184
X23263Y18422
X23268Y18773
X23087Y20548
X23085Y20916
X24047Y20918
X24048Y20551
X24629Y20599
X24482Y21400
X24851Y21401
X25616Y19415
X28819Y19529
X28836Y19903
X29219Y19769
X29599
X30020Y19628
X30128Y20132
X31064Y20363
X30768Y21134
X28219Y21799
X28374Y20206
X28809Y18529
X32367Y18620
X32371Y18236
X32907Y20037
X33861Y21359
X37594Y17950
X37542Y16278
X37323Y16014
X37069Y15159
X37065Y14818
X36709Y14113
X36029Y13829
X33301Y12719
Y12409
X32659Y12569
X31749Y16089
X28088Y14627
X21729Y14849
X21026Y14591
X21859Y13829
X21740Y12562
X21307
X20874
X20440
X20007
Y12129
Y11696
X20440
Y12129
X20874
Y11696
X21307
Y12129
X21740
Y11696
X21711Y10329
Y10049
X21055Y10139
Y10399
X20695
Y10139
X20091Y10069
Y10339
X19609Y10029
X19379Y9799
X19069Y9719
X19239Y9319
Y8979
X19399Y8409
Y8099
X18929
Y8419
X18649Y8599
X18039Y9399
X18021Y9859
Y10189
X17529Y10079
X16869Y10069
Y9759
X16809Y10419
Y11019
X16859Y11389
Y11703
X16569Y12013
X16859Y12323
Y13349
X16569Y13659
X16859Y13973
X16569Y14283
X15760Y13833
X14759Y13829
X14988Y14461
X14390Y14773
X13039Y14409
X12819Y14189
X12549Y14299
Y13919
X12259Y14569
X11799Y14359
X11499Y14219
Y13869
X11799Y13719
X11584Y13125
X12029Y12719
Y12409
X12916Y12562
Y12129
Y11696
X13349
Y12129
Y12562
X13782
Y12129
Y11696
X14215
Y12129
Y12562
X14649
Y12129
Y11696
X15528Y11839
Y11529
X16124Y11535
X15519Y12249
X15532Y12629
X15064Y12673
X15029Y10289
X15119Y9969
X15399Y9789
X15409Y9389
Y9049
X15319Y8659
Y8309
X16059Y8369
X15809Y8619
X17289Y8709
X17429Y9069
Y9399
X17719Y11389
X18009Y11703
X17719Y12009
X18009Y12323
X18549Y12339
X19128Y12419
Y12729
X18539Y13039
X18009Y13349
X18007Y13767
X17731Y13544
X17725Y14139
X18161Y14406
X18539Y14349
Y13999
X18839Y13849
X19319
X19619Y13989
Y14339
X19319Y14489
X18839
X19798Y15249
X20904Y18553
X21028Y18879
X21409Y18889
X21413Y19247
X18734Y19311
X18141Y19305
X18149Y19023
X18298Y20989
X17929Y20989
X17829Y21489
X18188Y21490
X18556Y21489
X18969Y20919
Y20549
X19810Y20548
X19809Y20915
X20206Y21436
X20776Y21550
X21101Y21952
X15897Y21763
X15613Y21760
X15310Y21920
X12971Y21978
X9635Y21684
X8986Y21594
X8291Y21589
X7608Y21585
X6955Y21403
X6969Y20679
X7431Y19958
X8033Y18401
X9914Y18798
X10271Y18847
X10128Y19422
X9630Y19506
X9772Y19166
X10734Y19529
X11079Y19536
X12094Y18768
X12029Y17084
X13875Y17105
X14403Y18670
X14635Y18937
X14992Y18681
X15478Y18599
X15498Y19278
X15218Y19280
X16469Y19719
X13213Y15344
X11852Y15328
X10408Y15211
X10669Y14519
X10959Y14213
X10669Y13899
X10959Y13589
Y12563
X10669Y12249
X10959Y11943
X10669Y11629
X10889Y10939
X10939Y10229
Y9929
X10969Y9569
X10459Y9709
Y9379
X10169Y10649
X9118Y10399
X8539Y10279
X8439Y9939
X8379Y9439
X8119Y9639
X7879Y9869
X7351Y10049
Y10329
X6695Y10399
Y10139
X6509Y8696
X6923Y8137
X6759Y7429
X7096
X7433
X7769
X7991Y8259
X8231Y8019
X8381Y8699
X8139Y8941
X9049Y8329
Y7979
Y7649
Y7319
X8559Y6389
X9559
X9699Y8489
X9369
X11229Y8529
X11559
X11769Y8279
X12289Y8389
X12299Y8049
X12529Y7429
X12856
X13183
X13509
X14009
X14346
X14683
X15019
X14305Y8010
X13382Y8045
X13781Y8777
X13604Y10139
Y10399
X13964
Y10139
X14619Y10049
Y10329
X12999Y10339
Y10069
X12589Y10289
X12429Y9979
X12119Y9819
X12149Y9269
Y8929
X14589Y6469
X18629Y6554
X19621Y7429
X19947
X20274
X20601
X21101
X21437
X21774
X21288Y7955
X20448Y7958
X20882Y8701
X20539Y6449
X9519Y11629
X9119Y11779
X8739Y11856
X8259Y11839
Y11529
X7380Y11696
X6947
X6514
Y12129
Y12562
X6947
Y12129
X7380
Y12562
X7789Y12669
X7799Y14179
X8179Y14134
X7154Y14184
X6886Y14878
X6419Y16423
X8486Y16295
X9169Y16258
X9519Y14523
X9809Y14213
X9519Y13899
X9809Y13589
Y12563
X9519Y12253
X8989Y12289
X9809Y11943
X6081Y12129
X5648
Y11696
X6081
Y12562
X5648
X4759Y12679
Y12369
X3858Y12142
X3708Y11842
X3358
X3218Y12142
Y12622
X3368Y12922
X3718
X3858Y12622
X3844Y13590
Y15401
X3757Y16403
X3021Y16629
Y17059
X3677Y18277
X4731Y19169
X4751Y19609
X5750Y19821
X5787Y18277
X5887Y15199
X4965Y15573
X4749Y14496
X2938
X3609Y10539
X3519Y10189
Y9869
X3559Y9539
X3239
X3859Y8079
X4189
X4669Y7879
X4899Y8122
X4709Y8758
X4399Y8599
X4819Y10159
X5109Y9939
X5319Y10239
X5731Y10339
Y10069
X6335Y10139
Y10399
X6092Y8120
X6241Y7429
X5914
X5587
X5261
X5311Y21449
X5921Y21589
X6341Y21569
X4662Y21579
X3605Y21886
X3021Y20459
Y20019
X3041Y22283
X3049Y22629
X4105Y22661
X3575Y23222
X3586Y24065
X3572Y24982
X3564Y25922
Y26825
X3573Y27703
X3566Y28560
X3019Y29159
X3619Y29903
X4339Y30322
X4343Y30931
X4329Y31549
X5316Y31807
X5391Y31238
X5335Y29838
X4796Y30063
X5055Y29340
X5887Y29346
X6044Y30003
X4429Y29039
X3447Y32058
X2989Y33929
X3059Y35429
Y35859
X3580Y36248
X5729Y36142
X5412Y37322
X5814Y37554
X6229Y34495
X4841Y34374
X5324Y33589
X6229Y32684
X6028Y23207
X6825Y23188
X7057Y22511
X7573Y22510
X7933Y22511
X8317Y22510
X8711Y22520
X9223Y22590
X9569Y22179
X9608Y23162
X10012Y23140
X10768Y23148
X11077Y23325
X10819Y22479
X12267Y22984
X12604Y23063
X13893Y23077
X13908Y22274
X13399Y22289
X15488Y22545
X15792Y22546
X15572Y23033
X15377Y23340
X15579Y23535
X15111Y23797
X15331Y24019
X15319Y24379
X15257Y25239
X15247Y26023
X15653Y26048
X16006Y26047
X15939Y26699
X15829Y27089
Y27469
X14874Y27400
X13695Y27378
X13669Y26889
X13792Y26380
X14160Y26359
X13298Y26319
X13061Y25063
X12329Y25719
X11931Y25757
X11581Y25786
X10376Y26510
X10362Y27303
X9339Y27699
X9329Y25619
X8551Y25066
X8501Y24566
X9169Y24386
X7859Y24149
X7482Y23628
X7982Y23051
X6505Y22502
X6729Y28197
X6679Y28567
X6699Y28937
X6654Y29572
X7292Y30190
X7774Y30677
X8444Y31357
X9049Y31189
X9019Y30809
X8669Y30199
X8634Y32665
X8640Y33008
X8791Y33329
X9312Y33154
X9694Y33146
X10784Y33200
X10149Y34220
X10055Y34587
X10272Y35187
X10940Y34705
X11404Y35061
X11699Y35059
X11994
X12289
X12585
X12989Y35049
X12229Y35519
X11739Y35509
X11839Y36360
Y36760
Y37160
Y37560
X11439
Y37160
Y36760
Y36360
X12239
X12639
X13039
Y36760
X12639
Y37160
X13039
Y37560
X12639
X12239
Y37160
Y36760
X10899Y36999
X10557Y36437
X9054Y36360
X8654
Y36760
X9054
Y37160
X8654
Y37560
X9054
X8254
X7854
X7454
Y37160
X7854
Y36760
X7454
Y36360
X7854
X8254
Y36760
Y37160
X8249Y35509
X7759
Y35059
X7359
X7260Y35513
X8159Y35059
X8559
X9004Y35036
X8830Y34119
X7615Y34258
X7719Y33283
X7704Y32888
X7699Y32504
X7135Y33589
X6556Y31031
X7459Y28567
X10209Y31557
X10205Y31974
X11949Y32529
X13178Y33245
X13679Y31949
X14407Y31420
X14812Y31418
X15083Y32038
X14412Y32538
X15184Y33190
X15921Y32561
X16393Y32248
X15914Y31663
X15396Y30995
X15527Y30168
X15297Y29988
Y29698
X15537Y29528
X16149Y29529
X16379Y29709
Y29999
X16139Y30169
X17077Y29693
X17432Y29695
X17067Y28992
X17680Y28480
X17839Y27062
X17819Y26077
X18189Y26071
X18557Y26071
X18364Y26552
X18728Y26877
X18730Y27236
X19714Y27234
X19714Y27591
X19744Y26711
X20315Y27083
X20890Y27235
X20887Y26889
X20899Y27578
X21683Y27233
X21683Y26878
X21686Y26529
X21877Y25821
X21105Y25602
X20888Y24807
X20320Y24783
X20314Y23815
X20902Y23837
X20891Y23303
X20778Y22716
X20207Y22367
X20216Y23204
X18936Y23416
X18559Y23243
X17891Y23309
X17873Y23715
X18187Y23716
X18188Y22680
X17821Y22681
X19235Y22383
X19318Y24789
X18465Y24770
X17853Y24768
X16637Y24002
X15000Y23205
X16429Y26419
X19325Y26072
X20315Y26013
X21751Y23837
X21768Y22624
X21508Y29506
X21002Y29193
X20895Y29999
X19130Y30075
Y29722
X19109Y29309
X18319Y30179
X18356Y30794
X18869Y31224
X19312Y30959
X19549Y30679
X19461Y31705
X20129Y31719
X20632Y31722
X21126Y31722
X21627Y31719
X21378Y32648
X19840Y32582
X19842Y32234
X19838Y32942
X19402Y32553
X17592Y32574
X17529Y31068
X17103Y30777
X14807Y30472
X14396Y30467
X14398Y30122
X14848Y29002
X14939Y34699
X15429Y35069
X15724
X16020
X16315
X16610
X16999Y35057
X16259Y35499
X15729Y35509
X15849Y36360
Y36760
Y37160
Y37560
X15449
Y37160
Y36760
Y36360
X16249
X16649
X17049
Y36760
X16649
Y37160
X17049
Y37560
X16649
X16249
Y37160
Y36760
X14909Y36999
X14593Y36447
X14287Y35197
X16544Y33706
X18626Y34025
X18983Y34022
X18981Y34367
X18980Y34738
X18961Y35439
X18581Y35449
X18951Y36739
X19926Y36966
X20481Y36879
X21857Y37343
X23119Y37539
X24039
X24004Y36760
X24404
Y36360
X24004
Y35960
X24404
Y35560
X24004
X23539Y35539
X23529Y36059
X23539Y36539
X23009Y36199
X22514Y36206
X24804Y36360
X25204
Y35960
Y35560
X25604
Y35960
Y36360
Y36760
X25204
X24804
Y35960
Y35560
X24809Y34699
X24289
X24337Y34249
X24641
X24945
X25249
X26319Y34174
Y33762
Y33349
X26609Y33339
X27329Y33429
Y33752
Y34164
Y34577
Y34989
X26609Y34999
X26319
Y34587
X25814Y34928
X26039Y35539
X26529Y35359
X27039Y35539
Y36539
Y37539
X27999Y37549
X28329Y37369
Y36829
X28039Y36539
X28609Y35959
X28919Y35159
X28539Y34609
Y34129
Y33709
X28829Y33229
X28744Y32856
X28421Y32785
X28197Y32561
X28042Y33181
X27159Y32719
X26240Y32333
X26438Y31684
X26743Y31478
X27237Y31453
X27077Y30561
Y30128
X26644
Y30561
X25559Y30539
Y30049
X26202Y29686
X26596Y29342
X26850Y29085
X27136Y28789
X27323Y29350
X27530Y29793
X28172Y30292
X28841Y30586
X28835Y30958
X28866Y31305
X29199Y31451
X29196Y31747
X29108Y32352
X29799Y32429
X29809Y32979
X29287Y33025
X30289Y33786
X31129Y32249
X31559Y31939
X31139Y31399
X31669Y31009
X31069Y30369
Y29949
X31699Y29689
X29949Y29879
Y30359
Y30759
X32869Y31439
X32639Y32349
X33689Y31979
X34369Y31839
X34434Y32424
X33974Y33729
X32606Y33974
X32728Y35395
X33741Y35471
X34329Y35629
X35315Y35432
X36070Y35303
X37079Y35399
X37559Y35029
X36849Y34529
X36230Y33727
X35929Y31999
X36489Y31769
X36889Y31979
X37369Y31989
X37132Y32420
X35899Y31069
X35749Y30249
X35029Y29809
X34349Y30389
X33689Y29799
X33169Y30199
X31178Y28001
X29258Y26840
X29264Y24144
X28835Y24149
X29019Y23305
X29185Y22917
X28218Y22748
X30483Y22737
X30490Y23115
X30440Y23919
X30437Y24745
X32061Y23823
X32071Y23342
X32370Y22736
X31104Y22735
X33300Y23305
X33342Y23877
X34029Y23289
X34827Y23528
X35835Y23288
X35634Y24229
X35257Y25132
X34245Y24406
X37154Y23852
X37077Y23273
X35614Y26809
X26511Y26153
X26152Y26155
X26153Y25468
X26508Y25467
X26729Y25019
X26669Y24459
X26469Y23938
X26305Y23322
X26161Y22316
X26360Y22116
X24851Y22047
X24481Y22049
X24481Y22729
X24850Y22730
X24110Y22713
X23743Y22660
X23739Y22037
X23742Y23522
X24111Y23523
X24478Y23522
X24851Y23522
X24114Y24117
X23743Y24516
X23175Y24113
X22552Y24574
X22431Y23272
X23418Y25503
X23432Y26529
X23433Y26880
X23442Y27234
X22881Y27236
X22881Y27586
X22368Y27235
X22367Y26882
X22369Y26533
X24159Y26372
X24589Y26089
X24589Y26777
X24129Y27189
X24127Y27544
X24055Y29045
X23589Y29510
X23189Y29509
X23185Y29837
X22789Y29459
Y29149
X22409Y29229
X22793Y31123
X23489Y31525
X23867Y31527
X24104Y30575
X24552Y30380
X25315Y31110
X25065Y31639
X23676Y32549
X22789Y32509
X22792Y32857
X22418Y32913
X22795Y33405
X23729Y34249
Y34539
Y34829
X24033Y34249
X25039Y37539
X26039
Y36539
X27899Y35369
X30097Y36537
X32959Y36379
X33009Y37409
X32555Y37116
X33709Y37459
X34419Y37429
X35019
X35629Y37409
X37059Y37369
X22130Y31727
X25805Y27824
X26760Y25903
X24201Y25226
X38170Y23938
X37920Y22749
X39781Y22753
Y24064
X40639Y24289
X40709Y23799
X41437Y23789
X41489Y24289
X42159Y24299
X42539
Y23809
X42146Y23799
X41683Y22844
X40821Y24918
X40909Y25629
X40329Y25619
X39535Y25681
X39429Y27409
X39439Y27799
X40249Y27749
X39899Y27399
X40439Y27109
X40999Y27099
X41319Y26829
X41369Y26359
X41279Y25889
X42011Y26412
X42429Y27079
X42069Y27469
X41759Y27989
X41289Y28019
X41259Y28649
X41769Y28659
X41530Y30589
X41525Y31015
X41169Y31158
X40757Y31154
X40339Y31151
X39968Y31148
X39578Y31151
X39779Y31699
X39409Y31739
X38889Y31809
X38539Y31989
X38069
X37729Y31719
X37709Y30359
X38899Y32369
X38406Y33084
X39739Y33029
X40239
X40648Y33035
X41019Y33019
X41281Y32721
X41309Y32369
X41191Y31786
X40769Y31699
X40239Y31719
X41208Y30781
X41339Y33899
Y34379
Y34819
X40749Y35149
X40249Y35139
X39669Y35129
X39909Y35699
X40249Y35779
X40619Y35669
X41069Y35739
X41439Y35699
X41269Y36019
X41309Y36369
X41629Y36089
X41802Y34353
X40739Y33629
X40269Y33619
X39699
X38477Y34560
X37729Y35396
X37729Y35799
X37729Y36325
X37749Y37389
X38439Y37379
X39089Y37209
X39849Y37169
X40239Y36969
X40509Y37199
X42554Y37308
X39099Y36359
X39119Y35659
X38319Y26832
X40739Y27459
X41894Y38006
Y38406
X41424Y38616
X41414Y38996
X41705Y39546
X42039Y40539
X41339Y40839
X41039Y41539
X41339Y42239
X42039Y42539
X42739Y42239
X43039Y41539
X42739Y40839
X42939Y38999
Y38409
Y38009
X42739Y43839
X43039Y44539
X42739Y45239
X42039Y45539
X41339Y45239
X41039Y44539
X41339Y43839
X42039Y43539
X39619Y43748
X38492Y43675
X38521Y42178
X38205Y42177
X38840Y42177
X39229Y42174
X39459Y41339
X39588Y45260
X39489Y46599
Y46929
X38489Y46919
Y46589
Y47869
Y48199
X38519Y48599
X38189
X39489Y48279
Y47949
X41019Y47839
X40809Y47589
X41009Y47339
X41099Y46659
X42487Y46843
X42419Y47339
X42629Y47589
X42429Y47839
X42419Y48339
X42629Y48589
X42429Y48839
X42419Y49339
X42629Y49589
X42429Y49839
X42419Y50339
X42629Y50589
X42429Y50839
X41019
X40809Y50589
X41009Y50339
X41019Y49839
X40809Y49589
X41009Y49339
X41019Y48839
X40809Y48589
X41009Y48339
X39169Y49909
X38949Y50129
X37609Y50359
X37819Y51889
X38109Y52203
X37819Y52513
X38109Y52823
X39259
X38969Y52509
X39259Y52203
X38969Y51889
X40099Y52339
X40439
X40739Y52569
Y52939
X40961Y51744
X39807Y51140
X42179Y52599
Y52939
X42819Y52339
X37198Y52048
X36719Y52049
X36798Y52629
Y53129
X36326Y53173
X35914Y53062
X35481
X35048
X34615
X34182
Y52629
Y52196
X34615
Y52629
X35048
Y52196
X35481
Y52629
X35914
Y52196
X35885Y50829
Y50549
X36395Y50389
X36699Y50289
X37015
X37039Y49819
Y49489
X37035Y48521
X37365
X37049Y47829
X36637Y47909
X36310
X35983
X35657
X35678Y48370
X34853Y48405
X34840Y47909
X35167
X34513
X34209
X34739Y47009
X35069
X35489Y45579
Y45249
X34679Y44839
X34349
X33559Y45258
X33889Y45629
X32539Y46639
Y46969
X31539Y46939
Y46609
X31550Y45175
X30539Y45679
Y46009
X28909Y45919
X28579
X27806Y45904
X26688Y45870
X25583Y45905
X24502Y45900
X23519Y45909
X23189
X23299Y47039
X22799Y48599
Y48919
X23079Y49099
X22329Y48909
X22319Y48599
X22111Y47929
X22509Y49479
Y49819
X22519Y50249
X22849
X22959Y50739
X23289
X23749Y50959
X23679Y51879
X23969Y52193
X23679Y52503
X23969Y52813
X23289Y52789
X22579Y52769
X22624Y53129
X22157Y53183
X22619Y52339
Y52029
X23109Y51959
X24829Y51879
X25119Y52193
X24829Y52499
X25119Y52813
X26212Y52909
Y53219
X27093Y53062
Y52629
Y52196
X27526
Y52629
Y53062
X27960
Y52629
Y52196
X28393
Y52629
Y53062
X28826
Y52629
Y52196
X29705Y52339
Y52029
X29699Y52779
X29710Y53129
X29239Y53173
X31029Y52823
X30739Y52513
X31029Y52203
X30739Y51889
X31889
X32179Y52203
X31889Y52509
X32179Y52823
X32659Y53069
X33301Y53219
Y52909
X33289Y50259
X33569Y50399
X33829Y50569
X34265
Y50839
X34869Y50899
Y50639
X35239
X35229Y50899
X35292Y49206
X33799Y49458
Y49798
X32749Y49839
Y49509
X32909Y48909
X33209
X31589Y49349
Y49679
X31429Y50689
X32279Y50699
Y50369
X30800Y50213
X30399Y50189
X29959
X29619
X29589Y49819
Y49479
X29399Y48909
Y48599
X29197Y47929
X28860
X28523
X28187
X27687
X27360
X27033
X26707
X26489Y48599
Y48909
X26009Y48919
Y48599
X25729Y49099
X26319Y49479
Y49819
X26169Y50219
X26439Y50399
X26709Y50549
X27177Y50569
Y50839
X27781Y50899
Y50639
X28141
Y50899
X28797Y50829
Y50549
X29349Y50359
X30019Y50559
Y50809
X27985Y49179
X28324Y48596
X27608Y48589
X24369Y48409
Y48079
X24389Y50039
X24079
X24809Y50099
X25139
X25147Y50519
X25139Y50839
X24749Y50959
X22221Y50389
X22839Y44888
X22378Y42206
X22019Y41459
X21999Y41049
X22009Y40659
X22959Y39219
X22919Y38559
X24039Y38539
X25019Y38559
X27379Y38489
X28160Y38914
X30026Y38752
X31993Y38690
X33179Y38859
X33319Y39779
X33973Y40104
X34459Y40390
X34853
Y40784
X35246
Y40390
Y41177
X34853
X34459
Y40784
X34582Y41964
X32749Y41752
X32169Y41409
X31819Y41399
Y41819
X31809Y42249
X30869Y42219
Y41799
Y41409
X30019Y41419
X29649
X29319
X29309Y41779
X29319Y42149
X29649
X29999Y42219
X29852Y40717
X28434Y40705
X27589Y42179
X26444Y42201
X26624Y43650
X28631Y44605
X29451Y45205
X30566Y43612
X32532Y43647
X36515Y43638
X37522Y45230
X37489Y46589
Y46919
X36489Y46529
X37219Y50659
Y50969
X31269Y48389
Y48059
X34817Y39689
X34909Y39419
Y39079
Y38729
Y38399
X33849Y38309
X36018Y39959
X37459Y41289
X26456Y39784
X24340Y42206
X20355Y42227
X20679Y41439
Y41049
Y40669
X18009Y40659
X17999Y41049
X18019Y41459
X18319Y42255
X16339Y42231
X16679Y41439
Y41049
Y40669
X16719Y39529
X18019Y39509
X18444Y38129
X20059Y37909
X14909
X14434Y38129
X14919Y38779
X15009Y39409
X14019Y39509
X14009Y40659
X13999Y41049
X14019Y41459
X14328Y42199
X12311Y42211
X12679Y41439
Y41049
Y40669
X12719Y39529
X11059Y39429
X10929Y38759
X10899Y37909
X10449Y38129
X10082Y39649
X10009Y40659
X9999Y41049
X10019Y41459
X10270Y42176
X8340Y42223
X8679Y41439
Y41049
Y40669
X8695Y39640
X7099Y39489
X7309Y38149
X6699Y38279
X7577Y43617
X7629Y45249
Y45569
Y45889
X8596Y45300
X8559Y46569
Y46889
X9559
Y46569
X10889Y46249
Y45929
Y45609
X11429Y44829
X11759
X12259Y45249
Y45579
X13579Y45619
Y45939
Y45299
X13586Y43611
X15589Y43624
X15589Y45249
Y45579
X16249Y46799
X17289Y46029
X17619
X18209Y45589
Y45259
X19529Y45699
Y46029
X20539Y46619
Y46949
X20601Y47929
X20274
X19947
X19621
X19399Y48599
Y48909
X18929Y48919
Y48599
X18649Y49099
X19239Y49479
Y49819
X19069Y50219
X19379Y50299
X19609Y50529
X20091Y50569
Y50839
X20695Y50899
Y50639
X21055
Y50899
X21711Y50829
Y50549
X21740Y52196
X21307
X20874
X20440
X20007
Y52629
Y53062
X20440
Y52629
X20874
Y53062
X21307
Y52629
X21740
Y53062
X19128Y52919
X18549Y52839
X18009Y52823
X17719Y52509
X18009Y52203
X17719Y51889
X16859
Y52203
X16569Y52513
X16859Y52823
X16809Y51519
Y50919
X16869Y50569
Y50259
X17429Y49899
Y49569
X17289Y49209
X18039Y49899
X18021Y50359
Y50689
X17529Y50579
X15399Y50289
X15409Y49889
Y49549
X15319Y49159
Y48809
X16059Y48869
X15809Y49119
X15019Y47929
X14683
X14346
X14009
X13509
X13183
X12856
X12529
X12299Y48549
X12289Y48889
X11769Y48779
X11559Y49029
X11229
X10969Y50069
X10939Y50429
Y50729
X10889Y51439
X10669Y52129
X10959Y52443
X10669Y52749
X10959Y53063
X9809
X9519Y52753
X8989Y52789
X9119Y52279
X8739Y52356
X8259Y52339
Y52029
X7380Y52196
X6947
X6514
Y52629
Y53062
X6947
Y52629
X7380
Y53062
X7789Y53169
X9809Y52443
X9519Y52129
X10169Y51149
X10459Y50209
Y49879
X9699Y48989
X9369
X9049Y48829
Y48479
Y48149
Y47819
X7769Y47929
X7433
X7096
X6759
X6923Y48637
X6509Y49196
X6695Y50639
Y50899
X7351Y50829
Y50549
X7879Y50369
X8119Y50139
X8379Y49939
X8439Y50439
X8539Y50779
X9118Y50899
X8381Y49199
X8139Y49441
X7991Y48759
X8231Y48519
X12149Y49429
Y49769
X12119Y50319
X12429Y50479
X12589Y50789
X12999Y50839
Y50569
X13604Y50639
Y50899
X13964
Y50639
X14619Y50549
Y50829
X15029Y50789
X15119Y50469
X15528Y52029
Y52339
X15519Y52749
X15532Y53129
X15064Y53173
X14649Y53062
X14215
X13782
X13349
X12916
Y52629
Y52196
X13349
Y52629
X13782
Y52196
X14215
Y52629
X14649
Y52196
X16124Y52035
X12029Y52909
Y53219
X13781Y49277
X13382Y48545
X14305Y48510
X14589Y46969
Y46639
X18629Y47054
X20448Y48458
X21288Y48455
X21437Y47929
X21101
X21774
X21539Y46559
X20882Y49201
X19554Y43655
X17636Y44032
X9595Y43609
X5899Y44519
X5039Y44539
X4739Y43839
X4039Y43539
Y42539
X4739Y42239
X5039Y41539
X4739Y40839
X4039Y40539
X3339Y40839
X3039Y41539
X3339Y42239
Y43839
X3039Y44539
X3339Y45239
X3425Y46006
X4039Y45539
X4739Y45239
X5259Y45579
X5239Y45919
X5979Y45939
Y45589
X6329
X5509Y45329
X5587Y47929
X5261
X5914
X6241
X6092Y48620
X4899Y48622
X4669Y48379
X4189Y48579
X3859
X4399Y49099
X4709Y49258
X4819Y50659
X5109Y50439
X5319Y50739
X5731Y50839
Y50569
X6335Y50639
Y50899
X6081Y52196
X5648
Y52629
Y53062
X6081
Y52629
X4759Y52869
Y53179
X3858Y53122
Y52642
X3708Y52342
X3358
X3218Y52642
Y53122
X3609Y51039
X3519Y50689
Y50369
X3559Y50039
X3239
X5866Y42120
X6284Y39764
X4539Y39409
X3603Y39108
X3718Y53422
X3368
X3844Y54090
Y55901
X3757Y56903
X3021Y57129
Y57559
X3677Y58777
X4731Y59669
X4751Y60109
X5750Y60321
X5787Y58777
X5887Y55699
X4965Y56073
X4749Y54996
X2938
X3021Y60519
Y60959
X3041Y62783
X3049Y63129
X4105Y63161
X3575Y63722
X3586Y64565
X3572Y65482
X3564Y66422
Y67325
X3573Y68203
X3605Y62386
X4662Y62079
X5311Y61949
X5921Y62089
X6341Y62069
X6028Y63707
X6825Y63688
X7057Y63011
X7573Y63010
X7933Y63011
X8317Y63010
X8711Y63020
X9223Y63090
X9569Y62679
X9635Y62184
X8986Y62094
X8291Y62089
X7608Y62085
X6955Y61903
X6969Y61179
X7431Y60458
X8033Y58901
X9914Y59298
X10271Y59347
X10128Y59922
X9630Y60006
X9772Y59666
X10734Y60029
X11079Y60036
X12094Y59268
X12029Y57584
X13875Y57605
X14403Y59170
X14635Y59437
X14992Y59181
X15478Y59099
X15498Y59778
X15218Y59780
X16469Y60219
X18141Y59805
X18149Y59523
X18734Y59811
X18969Y61049
Y61419
X18298Y61489
X17929Y61489
X17829Y61989
X18188Y61990
X18556Y61989
X18188Y63180
X17821Y63181
X17891Y63809
X17873Y64215
X18187Y64216
X18559Y63743
X18936Y63916
X19235Y62883
X20207Y62867
X20216Y63704
X20314Y64315
X20902Y64337
X20891Y63803
X20778Y63216
X21768Y63124
X21751Y64337
X20888Y65307
X20320Y65283
X19318Y65289
X18465Y65270
X17853Y65268
X17819Y66577
X18189Y66571
X18557Y66571
X18364Y67052
X18728Y67377
X18730Y67736
X19714Y67734
X19714Y68091
X19744Y67211
X20315Y67583
X20890Y67735
X20887Y67389
X20899Y68078
X21683Y67733
X21683Y67378
X21686Y67029
X21877Y66321
X21105Y66102
X20315Y66513
X19325Y66572
X17839Y67562
X15829Y67589
Y67969
X15939Y67199
X16006Y66547
X15653Y66548
X15247Y66523
X15257Y65739
X15319Y64879
X15331Y64519
X15111Y64297
X15000Y63705
X15377Y63840
X15579Y64035
X15572Y63533
X15488Y63046
X15792Y63046
X15897Y62263
X15613Y62260
X15310Y62420
X13908Y62774
X13399Y62789
X12971Y62478
X12604Y63563
X12267Y63484
X11077Y63825
X10768Y63648
X10819Y62979
X10012Y63640
X9608Y63662
X9169Y64886
X8501Y65066
X8551Y65566
X9329Y66119
X10376Y67010
X10362Y67803
X9339Y68199
X6729Y68697
X7859Y64649
X7482Y64128
X7982Y63551
X6505Y63002
X6419Y56923
X6886Y55378
X7154Y54684
X7799Y54679
X8179Y54634
X9519Y54399
X9809Y54089
Y54713
X9519Y55023
X10669Y55019
X10959Y54713
X11499Y54719
Y54369
X11799Y54219
Y54859
X12259Y55069
X12549Y54799
X12819Y54689
X13039Y54909
X12549Y54419
X11584Y53625
X10959Y54089
X10669Y54399
X10408Y55711
X11852Y55828
X13213Y55844
X14390Y55273
X14988Y54961
X14759Y54329
X15760Y54333
X16569Y54159
X16859Y53849
Y54473
X16569Y54783
X17725Y54639
X17731Y54044
X18009Y53849
X18007Y54267
X18539Y54499
Y54849
X18161Y54906
X18839Y54989
X19319
X19619Y54839
Y54489
X19319Y54349
X18839
X18539Y53539
X19128Y53229
X19798Y55749
X21026Y55091
X21729Y55349
X21859Y54329
X21409Y59389
X21413Y59747
X21028Y59379
X20904Y59053
X19810Y61048
X19809Y61415
X20206Y61936
X20776Y62050
X21101Y62452
X16637Y64502
X16429Y66919
X14160Y66859
X13792Y66880
X13298Y66819
X13669Y67389
X13695Y67878
X14874Y67900
X13061Y65563
X12329Y66219
X11931Y66257
X11581Y66286
X13893Y63577
X9169Y56758
X8486Y56795
X22439Y56369
X23079Y56469
X24089Y56564
Y58375
X23858Y59170
X23856Y59643
X24502Y59501
X24501Y59201
X24873Y59036
X25510Y58764
X25893Y58762
X25762Y58090
X26047Y57896
X24995Y57469
X23184
X23263Y58922
X23268Y59273
X23087Y61048
X23085Y61416
X24047Y61418
X24048Y61051
X24629Y61099
X24482Y61900
X24851Y61901
X24851Y62547
X24481Y62549
X24481Y63229
X24850Y63230
X24110Y63213
X23743Y63160
X23739Y62537
X23742Y64022
X24111Y64023
X24478Y64022
X24851Y64022
X24114Y64617
X23743Y65016
X23175Y64613
X22552Y65074
X22431Y63772
X23418Y66003
X23432Y67029
X23433Y67380
X23442Y67734
X22881Y67736
X22881Y68086
X22368Y67735
X22367Y67382
X22369Y67033
X24159Y66872
X24589Y66589
X24589Y67277
X24129Y67689
X24127Y68044
X25805Y68324
X26152Y66655
X26511Y66653
X26760Y66403
X26508Y65967
X26153Y65968
X26729Y65519
X26669Y64959
X26469Y64438
X26305Y63822
X26161Y62816
X26360Y62616
X28219Y62299
X28218Y63248
X29185Y63417
X29019Y63805
X28835Y64649
X29264Y64644
X30440Y64419
X30437Y65244
X30490Y63615
X30483Y63237
X31104Y63235
X32370Y63236
X32071Y63842
X32061Y64323
X33342Y64377
X33300Y63805
X34029Y63789
X34827Y64028
X35835Y63788
X35634Y64729
X35257Y65632
X34245Y64906
X33861Y61859
X33478Y59968
X33110Y59969
X32377Y59995
X31589Y60079
X31209Y60088
X30699Y59829
X30470Y59262
X30469Y58879
X30659Y57754
X31811Y57577
X31719Y58099
X32545Y57694
X32490Y57331
X32125Y57238
X32749Y56949
X32889Y57549
X34250Y57699
X34249Y58079
X34333Y58529
X34585Y58279
X35413Y59042
X36319Y59029
X36652Y59745
X36070Y60158
X35057Y59671
X34270Y59855
X32907Y60537
X32367Y59120
X32371Y58736
X31749Y56589
X31889Y54779
X32179Y54473
X31889Y54159
X32179Y53849
X31029
X30739Y54159
X31029Y54473
X30739Y54783
X29619Y54637
X28939Y54329
X29089Y55679
X29092Y56043
X28596Y57134
X28258Y57193
X27185
X27216Y56836
X26303Y56351
X25919Y56359
X25869Y55149
Y54799
X26169Y54649
X26649
X26949Y54789
Y55139
X26649Y55289
X26169
X24829Y54769
X25119Y54463
X24829Y54149
X25119Y53839
X23969
X23679Y54149
X23289Y54289
X22901Y54295
X22539Y54631
X21979Y54846
X23679Y54773
X23969Y54463
X23289Y53539
X28088Y55127
X28809Y59029
X28819Y60029
X28836Y60403
X29219Y60269
X29599
X30020Y60128
X30128Y60632
X31064Y60863
X30768Y61634
X28374Y60706
X25616Y59915
X24201Y65726
X29258Y67340
X31178Y68501
X35614Y67309
X37154Y64352
X37077Y63773
X37594Y58450
X37542Y56778
X37323Y56514
X37069Y55659
X37065Y55318
X36709Y54613
X36029Y54329
X35177Y55029
X35688Y55648
X35684Y56043
X35687Y56794
X34139Y56848
X33739Y55029
Y54679
X33439Y54539
X32959
X32659Y54689
Y55039
X32959Y55179
X33439
X37819Y54783
X38109Y54473
X37819Y54159
X38109Y53849
X39259
X38969Y54159
X39259Y54473
X38969Y54779
X40099Y53899
X40449
X40739Y53649
Y53299
X42179Y53289
Y53639
X42459Y53899
X42829
X42477Y54375
X42157
X42587Y54685
Y55015
X42497Y55345
Y55665
Y55985
Y56305
X42237Y56495
X42199Y56949
X41879Y57229
X41539Y56949
X41567Y56495
X41287Y56315
Y55985
Y55655
X41257Y55335
X40937
X40817Y55035
X40746Y56037
X39888Y56059
X40539Y57219
X40869Y56949
X41206Y57225
X40329Y57629
X40349Y58059
X40379Y58579
X40539Y59105
X40869Y58835
X41206Y59099
X41539Y58835
X41879Y59105
X42199Y58829
X42549Y59105
X42279Y60267
X42513Y61066
X42999Y61559
X42040Y61654
X41742Y62419
X41353Y62296
X40589Y62439
X40743Y61704
X40705Y60236
X39056Y60192
X37898Y59815
X37886Y59446
X39886Y58935
X42546Y57225
X42539Y62409
X41683Y63344
X41437Y64289
X41489Y64789
X42159Y64799
X42539
Y64309
X42146Y64299
X40709
X40639Y64789
X40821Y65418
X40909Y66129
X40329Y66119
X39535Y66181
X39429Y67909
X39439Y68299
X40249Y68249
X39899Y67899
X40439Y67609
X40999Y67599
X41319Y67329
X41369Y66859
X41279Y66389
X42011Y66912
X42429Y67579
X42069Y67969
X41759Y68489
X41289Y68519
X40739Y67959
X38319Y67332
X38170Y64438
X37920Y63249
X39781Y63253
Y64564
X41259Y69149
X41769Y69159
X41530Y71089
X41525Y71515
X41169Y71658
X40757Y71655
X40339Y71651
X39968Y71648
X39578Y71651
X39779Y72199
X39409Y72239
X38889Y72309
X38539Y72489
X38069
X37729Y72219
X37709Y70859
X38899Y72869
X38406Y73584
X39739Y73529
X40239
X40648Y73535
X41019Y73519
X41281Y73221
X41309Y72869
X41191Y72286
X40769Y72199
X40239Y72219
X41208Y71281
X41339Y74399
Y74879
Y75319
X40749Y75649
X40249Y75639
X39669Y75629
X39909Y76199
X40249Y76279
X40619Y76169
X41069Y76239
X41439Y76199
X41269Y76519
X41309Y76869
X41629Y76589
X41802Y74853
X40739Y74129
X40269Y74119
X39699
X38477Y75060
X37729Y75896
X37729Y76299
X37729Y76825
X37749Y77889
X38439Y77879
X39089Y77709
X39849Y77669
X40239Y77469
X40509Y77699
X42554Y77807
X42939Y78509
Y78909
Y79499
X41414Y79496
X41424Y79116
X41894Y78906
Y78506
X41705Y80046
X42039Y81039
X41339Y81339
X41039Y82039
X41339Y82739
X42039Y83039
X42739Y82739
X43039Y82039
X42739Y81339
X39459Y81839
X39229Y82674
X38840Y82677
X38521Y82678
X38205Y82677
X39099Y76859
X39119Y76159
X37559Y75529
X37079Y75899
X36849Y75029
X36230Y74227
X36070Y75803
X35315Y75932
X34329Y76129
X33741Y75971
X32728Y75895
X32959Y76879
X33009Y77909
X32555Y77616
X33709Y77959
X34419Y77929
X35019
X35629Y77909
X37059Y77869
X34909Y78899
Y79229
Y79579
Y79919
X34817Y80189
X34853Y80890
Y81284
X35246
Y80890
X34459
Y81284
Y81677
X34853
X35246
X34582Y82464
X32749Y82252
X32169Y81909
X31819Y81899
Y82319
X31809Y82749
X30869Y82719
Y82299
Y81909
X30019Y81919
X29649
X29319
X29309Y82279
X29319Y82649
X29649
X29999Y82719
X29852Y81217
X28434Y81205
X28160Y79414
X27379Y78989
X27039Y78039
X27999Y78049
X28329Y77869
Y77329
X28039Y77039
X27039
Y76039
X26529Y75859
X26609Y75499
X26319
Y75087
Y74674
Y74262
Y73849
X26609Y73839
X27329Y73929
Y74252
Y74664
Y75077
Y75489
X27899Y75869
X28919Y75659
X28539Y75109
Y74629
Y74209
X28829Y73729
X28744Y73356
X28421Y73285
X28197Y73061
X28042Y73681
X27159Y73219
X26240Y72833
X26438Y72184
X26743Y71978
X27237Y71953
X27077Y71061
Y70628
X26644
Y71061
X25559Y71039
Y70549
X26202Y70186
X26596Y69842
X26850Y69585
X27136Y69289
X27323Y69850
X27530Y70293
X28172Y70792
X28841Y71086
X28835Y71458
X28866Y71805
X29199Y71951
X29196Y72247
X29108Y72852
X29799Y72929
X29809Y73479
X29287Y73525
X30289Y74286
X31129Y72749
X31559Y72439
X31139Y71899
X31669Y71509
X31069Y70869
Y70449
X31699Y70189
X29949Y70379
Y70859
Y71259
X32869Y71939
X32639Y72849
X33689Y72479
X34369Y72339
X34434Y72924
X33974Y74229
X32606Y74474
X33169Y70699
X33689Y70299
X34349Y70889
X35029Y70309
X35749Y70749
X35899Y71569
X35929Y72499
X36489Y72269
X36889Y72479
X37369Y72489
X37132Y72920
X36018Y80459
X33973Y80604
X33319Y80279
X33179Y79359
X33849Y78809
X31993Y79190
X30026Y79252
X30097Y77037
X28609Y76459
X26039Y76039
X25604Y76060
X25204
Y76460
X25604
Y76860
X25204
Y77260
X25604
X26039Y77039
Y78039
X25039
X24039
X24004Y77260
X24404
Y76860
X24004
Y76460
X24404
Y76060
X24004
X23539Y76039
X23529Y76559
X23539Y77039
X23009Y76699
X22514Y76706
X23119Y78039
X22919Y79059
X22959Y79719
X24039Y79039
X25019Y79059
X24804Y77260
Y76860
Y76460
Y76060
X24809Y75199
X24289
X24337Y74749
X24641
X24945
X25249
X24033
X23729
Y75039
Y75329
X25814Y75428
X25065Y72139
X25315Y71610
X24552Y70880
X24104Y71075
X23867Y72027
X23489Y72025
X22793Y71623
X22130Y72227
X22789Y73009
X22792Y73357
X22418Y73413
X22795Y73905
X23676Y73049
X23589Y70010
X23189Y70009
X23185Y70337
X22789Y69959
Y69649
X22409Y69729
X24055Y69545
X26456Y80284
X26444Y82701
X27589Y82679
X24340Y82706
X22378
X22019Y81959
X21999Y81549
X22009Y81159
X37459Y81789
X20679Y81939
Y81549
Y81169
X20355Y82727
X18319Y82755
X18019Y81959
X17999Y81549
X18009Y81159
X18019Y80009
X16719Y80029
X16679Y81169
Y81549
Y81939
X16339Y82731
X14328Y82699
X14019Y81959
X13999Y81549
X14009Y81159
X14019Y80009
X15009Y79909
X14919Y79279
X14909Y78409
X14434Y78629
X15449Y78060
X15849
Y77660
X15449
Y77260
X15849
Y76860
X15449
X16249
X16649
X17049
Y77260
X16649
Y77660
X17049
Y78060
X16649
X16249
Y77660
Y77260
X16259Y75999
X16315Y75569
X16610
X16999Y75557
X16020Y75569
X15724
X15429
X15729Y76009
X14939Y75199
X14287Y75697
X12989Y75549
X12585Y75559
X12289
X11994
X11699
X11404Y75561
X11739Y76009
X12229Y76019
X12239Y76860
X12639
X13039
Y77260
X12639
Y77660
X13039
Y78060
X12639
X12239
X11839
X11439
Y77660
X11839
Y77260
X11439
Y76860
X11839
X12239Y77260
Y77660
X10899Y77499
X10557Y76937
X10272Y75687
X10055Y75087
X10149Y74720
X10940Y75205
X10784Y73700
X9694Y73646
X9312Y73654
X8791Y73829
X8640Y73508
X8634Y73165
X7699Y73004
X7704Y73388
X7719Y73783
X7135Y74089
X7615Y74758
X7759Y75559
X7359
X7260Y76013
X7759Y76009
X8249
X8159Y75559
X8559
X9004Y75536
X8830Y74619
X8654Y76860
X9054
Y77260
X8654
Y77660
X9054
Y78060
X8654
X8254
X7854
X7454
Y77660
X7854
Y77260
X7454
Y76860
X7854
X8254
Y77260
Y77660
X7309Y78649
X6699Y78779
X7099Y79989
X8695Y80140
X8679Y81169
Y81549
Y81939
X8340Y82723
X10270Y82676
X10019Y81959
X9999Y81549
X10009Y81159
X10082Y80149
X11059Y79929
X10929Y79259
X10899Y78409
X10449Y78629
X12719Y80029
X12679Y81169
Y81549
Y81939
X12311Y82711
X14909Y77499
X14593Y76947
X15184Y73690
X15083Y72538
X14812Y71918
X14407Y71920
X14396Y70967
X14398Y70622
X14807Y70972
X15297Y70488
Y70198
X15537Y70028
X16149Y70029
X16379Y70209
Y70499
X16139Y70669
X15527Y70668
X15396Y71495
X15914Y72163
X15921Y73061
X16393Y72748
X17592Y73074
X17529Y71568
X17103Y71277
X17077Y70193
X17432Y70195
X17067Y69492
X17680Y68980
X19109Y69809
X19130Y70222
Y70575
X18319Y70679
X18356Y71294
X18869Y71724
X19312Y71459
X19549Y71179
X19461Y72205
X20129Y72219
X20632Y72222
X21126Y72222
X21627Y72219
X21378Y73148
X19840Y73082
X19842Y72734
X19838Y73442
X19402Y73053
X18983Y74522
X18981Y74867
X18980Y75238
X18961Y75939
X18581Y75949
X18626Y74525
X16544Y74206
X14412Y73038
X13679Y72449
X13178Y73745
X11949Y73029
X10205Y72474
X10209Y72057
X9049Y71689
X9019Y71309
X8669Y70699
X7774Y71177
X7292Y70690
X6654Y70072
X6699Y69437
X6679Y69067
X7459
X6556Y71531
X8444Y71857
X14848Y69502
X21002Y69693
X21508Y70006
X20895Y70499
X20481Y77379
X19926Y77466
X20059Y78409
X18444Y78629
X18951Y77239
X21857Y77843
X5814Y78054
X5412Y77822
X5729Y76642
X6229Y74995
X4841Y74874
X5324Y74089
X5316Y72307
X5391Y71738
X4343Y71431
X4339Y70822
X4796Y70563
X5335Y70338
X5055Y69840
X5887Y69846
X6044Y70504
X3619Y70403
X3019Y69659
X3566Y69060
X4429Y69539
X4329Y72049
X3447Y72558
X2989Y74429
X3059Y75929
Y76359
X3580Y76748
X3603Y79608
X4539Y79909
X4739Y81339
X5039Y82039
X4739Y82739
X4039Y83039
X3339Y82739
X3039Y82039
X3339Y81339
X4039Y81039
X6284Y80264
X5866Y82620
X6229Y73184
T02
X10549Y16599
X11549
X12549
X13549
X14549
X15549
X16549
X17549
X18549
X19549
X20549
X21549
Y17599
X20549
X19549
X18549
X17549
X16549
X15549
X14549
X13549
X12549
X11549
X10549
X10469Y20739
Y21739
X11469
Y20739
X12469
Y21739
X13469
Y20739
X14469
Y21739
X14549Y23689
X13549
X12549
X11549
X10549
Y24689
X11549
X12549
X13549
X14549
X19919Y34569
Y35569
X20919
Y34569
X21919
Y35569
X22919
Y34569
X21549Y57099
Y58099
X20549
Y57099
X19549
Y58099
X18549
Y57099
X17549
Y58099
X16549
Y57099
X15549
Y58099
X14549
Y57099
X13549
Y58099
X12549
Y57099
X11549
Y58099
X10549
Y57099
X10469Y61239
Y62239
X11469
Y61239
X12469
Y62239
X13469
Y61239
X14469
Y62239
X14549Y64189
X13549
X12549
X11549
X10549
Y65189
X11549
X12549
X13549
X14549
X22919Y75069
Y76069
X21919
X20919
X19919
Y75069
X20919
X21919
T03
X6109Y25039
Y26031
X6899
Y25039
X6109Y65539
Y66531
X6899
Y65539
T04
X7089Y3989
X8089
X9089
X10089
X13089
X14089
X15089
X16089
X19039
X20039
X21039
X22039
X24139
X25139
X26139
X27139
X30039
X31039
X32039
X33039
X35989
X36989
X37989
X38989
X41719Y7089
Y8089
Y9089
Y10089
X39189Y17089
X38189
X38119Y21169
X39119
X35989
X34989
X32839
X31839
X29669
X28669
X35189Y17089
X36189
X37189
X3399Y32999
Y34779
X28109Y28029
X29109
X30109
X32214
X33214
X34214
X36319
X37319
Y25629
X36319
X34214
X33214
X32214
X30109
X29109
X28109
X38319
Y28029
X37989Y44489
X38989
X41719Y47589
Y48589
Y49589
Y50589
X36989Y44489
X35989
X33039
X32039
X31039
X30039
X27139
X26139
X25139
X24139
X22039
X21039
X20039
X19039
X16089
X15089
X14089
X13089
X10089
X9089
X8089
X7089
X4779Y37989
X3779
X28669Y61669
X29669
X31839
X32839
X34989
X35989
X36189Y57589
X37189
X35189
X34214Y66129
X33214
X32214
X30109
X29109
X28109
Y68529
X29109
X30109
X32214
X33214
X34214
X36319
X37319
Y66129
X36319
X38319
Y68529
X38119Y61669
X39119
X39189Y57589
X38189
X3399Y73499
Y75279
X3779Y78489
X4779
T05
X40246Y26364
Y28364
Y30364
Y32364
Y34364
Y36364
X25339Y41059
X23339
X21339
X19339
X17339
X15339
X13339
X11339
X9339
X7339
X40246Y66864
Y68864
Y70864
Y72864
Y74864
Y76864
X25339Y81559
X23339
X21339
X19339
X17339
X15339
X13339
X11339
X9339
X7339
T06
X4379Y32509
Y35269
Y73009
Y75769
T07
X41043Y17527
X42383
X37049Y31079
X35029
X33689
Y36379
X35029
X37049
X38389
Y31079
X41043Y22827
X42383
Y58027
X41043
Y63327
X42383
X38389Y71579
Y76879
X37049
X35029
X33689
Y71579
X35029
X37049
T08
X5039Y23169
Y27902
Y63669
Y68402
T09
X1329Y1329
X4039Y4039
X42039
X44732Y1358
X42039Y41539
Y44539
X4039
Y41539
X42039Y82039
X4039
X1329Y84717
X44661Y84828
T10
X24089Y16969
X3844Y14496
X6229Y33589
X3844Y54996
X24089Y57469
X6229Y74089
M30
