G04 Layer_Physical_Order=5*
G04 Layer_Color=32768*
%FSLAX25Y25*%
%MOIN*%
G70*
G01*
G75*
%ADD12C,0.01000*%
%ADD80C,0.02000*%
%ADD92C,0.04000*%
%ADD111C,0.15811*%
%ADD112C,0.06400*%
G04:AMPARAMS|DCode=113|XSize=84mil|YSize=84mil|CornerRadius=0mil|HoleSize=0mil|Usage=FLASHONLY|Rotation=0.000|XOffset=0mil|YOffset=0mil|HoleType=Round|Shape=Relief|Width=14mil|Gap=10mil|Entries=4|*
%AMTHD113*
7,0,0,0.08400,0.06400,0.01400,45*
%
%ADD113THD113*%
G04:AMPARAMS|DCode=114|XSize=79.433mil|YSize=79.433mil|CornerRadius=0mil|HoleSize=0mil|Usage=FLASHONLY|Rotation=0.000|XOffset=0mil|YOffset=0mil|HoleType=Round|Shape=Relief|Width=14mil|Gap=10mil|Entries=4|*
%AMTHD114*
7,0,0,0.07943,0.05943,0.01400,45*
%
%ADD114THD114*%
%ADD115C,0.05943*%
%ADD116C,0.15392*%
%ADD117C,0.11100*%
G04:AMPARAMS|DCode=118|XSize=131mil|YSize=131mil|CornerRadius=0mil|HoleSize=0mil|Usage=FLASHONLY|Rotation=0.000|XOffset=0mil|YOffset=0mil|HoleType=Round|Shape=Relief|Width=14mil|Gap=10mil|Entries=4|*
%AMTHD118*
7,0,0,0.13100,0.11100,0.01400,45*
%
%ADD118THD118*%
G04:AMPARAMS|DCode=119|XSize=82mil|YSize=82mil|CornerRadius=0mil|HoleSize=0mil|Usage=FLASHONLY|Rotation=0.000|XOffset=0mil|YOffset=0mil|HoleType=Round|Shape=Relief|Width=14mil|Gap=10mil|Entries=4|*
%AMTHD119*
7,0,0,0.08200,0.06200,0.01400,45*
%
%ADD119THD119*%
%ADD120C,0.06200*%
%ADD121C,0.08300*%
%ADD122C,0.07900*%
%ADD123C,0.08700*%
G04:AMPARAMS|DCode=124|XSize=59mil|YSize=59mil|CornerRadius=0mil|HoleSize=0mil|Usage=FLASHONLY|Rotation=0.000|XOffset=0mil|YOffset=0mil|HoleType=Round|Shape=Relief|Width=14mil|Gap=10mil|Entries=4|*
%AMTHD124*
7,0,0,0.05900,0.03900,0.01400,45*
%
%ADD124THD124*%
%ADD125C,0.14211*%
G04:AMPARAMS|DCode=126|XSize=99mil|YSize=99mil|CornerRadius=0mil|HoleSize=0mil|Usage=FLASHONLY|Rotation=0.000|XOffset=0mil|YOffset=0mil|HoleType=Round|Shape=Relief|Width=14mil|Gap=10mil|Entries=4|*
%AMTHD126*
7,0,0,0.09900,0.07900,0.01400,45*
%
%ADD126THD126*%
%ADD127C,0.03900*%
G54D12*
X344869Y907340D02*
Y912338D01*
X347369Y914837D01*
X349868Y912338D01*
Y907340D01*
Y911089D01*
X344869D01*
X352367Y912338D02*
Y907340D01*
Y909839D01*
X353617Y911089D01*
X354866Y912338D01*
X356116D01*
X364863D02*
X361114D01*
X359865Y911089D01*
Y908589D01*
X361114Y907340D01*
X364863D01*
X367362Y914837D02*
Y907340D01*
Y911089D01*
X368612Y912338D01*
X371111D01*
X372360Y911089D01*
Y907340D01*
X374860D02*
X377359D01*
X376109D01*
Y912338D01*
X374860D01*
X381108Y907340D02*
Y912338D01*
X382357D01*
X383607Y911089D01*
Y907340D01*
Y911089D01*
X384857Y912338D01*
X386106Y911089D01*
Y907340D01*
X388605Y906090D02*
X393604D01*
X396103Y913588D02*
X397353Y914837D01*
X399852D01*
X401101Y913588D01*
Y908589D01*
X399852Y907340D01*
X397353D01*
X396103Y908589D01*
Y913588D01*
X403601Y907340D02*
Y908589D01*
X404850D01*
Y907340D01*
X403601D01*
X413597D02*
Y914837D01*
X409848Y911089D01*
X414847D01*
X344869Y927337D02*
Y919840D01*
X349868D01*
X353617Y924838D02*
X356116D01*
X357365Y923589D01*
Y919840D01*
X353617D01*
X352367Y921089D01*
X353617Y922339D01*
X357365D01*
X359865Y924838D02*
Y921089D01*
X361114Y919840D01*
X364863D01*
Y918590D01*
X363613Y917341D01*
X362364D01*
X364863Y919840D02*
Y924838D01*
X371111Y919840D02*
X368612D01*
X367362Y921089D01*
Y923589D01*
X368612Y924838D01*
X371111D01*
X372360Y923589D01*
Y922339D01*
X367362D01*
X374860Y924838D02*
Y919840D01*
Y922339D01*
X376109Y923589D01*
X377359Y924838D01*
X378608D01*
X394853Y927337D02*
X389855D01*
Y923589D01*
X392354Y924838D01*
X393604D01*
X394853Y923589D01*
Y921089D01*
X393604Y919840D01*
X391105D01*
X389855Y921089D01*
X344869Y939837D02*
Y932340D01*
X348618D01*
X349868Y933589D01*
Y934839D01*
X348618Y936089D01*
X344869D01*
X348618D01*
X349868Y937338D01*
Y938588D01*
X348618Y939837D01*
X344869D01*
X364863Y938588D02*
X363613Y939837D01*
X361114D01*
X359865Y938588D01*
Y933589D01*
X361114Y932340D01*
X363613D01*
X364863Y933589D01*
Y936089D01*
X362364D01*
X367362Y932340D02*
Y939837D01*
X372360Y932340D01*
Y939837D01*
X374860D02*
Y932340D01*
X378608D01*
X379858Y933589D01*
Y938588D01*
X378608Y939837D01*
X374860D01*
X389855Y932340D02*
Y939837D01*
X393604D01*
X394853Y938588D01*
Y936089D01*
X393604Y934839D01*
X389855D01*
X397353Y932340D02*
X399852D01*
X398602D01*
Y939837D01*
X397353D01*
X404850Y937338D02*
X407349D01*
X408599Y936089D01*
Y932340D01*
X404850D01*
X403601Y933589D01*
X404850Y934839D01*
X408599D01*
X411098Y932340D02*
Y937338D01*
X414847D01*
X416096Y936089D01*
Y932340D01*
X422344D02*
X419845D01*
X418596Y933589D01*
Y936089D01*
X419845Y937338D01*
X422344D01*
X423594Y936089D01*
Y934839D01*
X418596D01*
X404886Y410402D02*
X404894D01*
X25394Y230394D02*
X26394Y229394D01*
X25394Y313394D02*
Y346173D01*
X404886Y815402D02*
X404894D01*
X25394Y635394D02*
X26394Y634394D01*
X25394Y718394D02*
Y751173D01*
G54D80*
X258094Y353594D02*
X260894Y350794D01*
X269215Y394294D02*
X282594Y380915D01*
X232362Y353594D02*
X258094D01*
X260894Y350794D02*
X282508D01*
X282594Y350880D02*
Y380915D01*
X226734Y365814D02*
X232503D01*
Y353779D02*
Y365814D01*
X226752Y389656D02*
X232748D01*
Y394197D01*
X226734Y365814D02*
Y389656D01*
X232748Y394194D02*
X269115D01*
X151485Y378537D02*
X173732D01*
Y358144D02*
Y378537D01*
X151485Y358144D02*
X173732D01*
X151485D02*
Y378537D01*
X111385D02*
X133632D01*
Y358144D02*
Y378537D01*
X111385Y358144D02*
X133632D01*
X111385D02*
Y378537D01*
X71535D02*
X93782D01*
Y358144D02*
Y378537D01*
X71535Y358144D02*
X93782D01*
X71535D02*
Y378537D01*
X53694Y26294D02*
Y45594D01*
X45894Y53394D02*
X53694Y45594D01*
X33194Y53394D02*
X45894D01*
X400394Y25594D02*
Y44894D01*
X425519Y383269D02*
X427394Y381394D01*
X425519Y383269D02*
Y395394D01*
X419894D02*
X425519D01*
X427394Y360894D02*
Y381394D01*
Y60894D02*
Y191394D01*
Y360894D01*
X55494Y424294D02*
X404894D01*
X33894Y355394D02*
Y400794D01*
X422523Y60894D02*
X427394D01*
X404894Y410402D02*
Y424294D01*
X33894Y400794D02*
X55494D01*
Y424294D01*
X400394Y44894D02*
X416394Y60894D01*
X422523D01*
X33194Y53394D02*
Y295894D01*
Y353973D01*
Y354694D02*
X33894Y355394D01*
X33194Y353973D02*
Y354694D01*
X404886Y410402D02*
X419894Y395394D01*
X106594Y263894D02*
X112091Y269391D01*
X33243Y229394D02*
X72094D01*
X112091Y269391D02*
Y318208D01*
X92094Y322594D02*
X107705D01*
X112091Y318208D01*
X33194Y295894D02*
X63078D01*
X79494Y236794D02*
X106594Y263894D01*
X63078Y295894D02*
X73978Y306794D01*
X72094Y229394D02*
X79494Y236794D01*
X73978Y306794D02*
X89778Y322594D01*
X92094D01*
X258094Y758594D02*
X260894Y755794D01*
X269215Y799294D02*
X282594Y785915D01*
X232362Y758594D02*
X258094D01*
X260894Y755794D02*
X282508D01*
X282594Y755879D02*
Y785915D01*
X226734Y770814D02*
X232503D01*
Y758779D02*
Y770814D01*
X226752Y794656D02*
X232748D01*
Y799197D01*
X226734Y770814D02*
Y794656D01*
X232748Y799194D02*
X269115D01*
X151485Y783537D02*
X173732D01*
Y763144D02*
Y783537D01*
X151485Y763144D02*
X173732D01*
X151485D02*
Y783537D01*
X111385D02*
X133632D01*
Y763144D02*
Y783537D01*
X111385Y763144D02*
X133632D01*
X111385D02*
Y783537D01*
X71535D02*
X93782D01*
Y763144D02*
Y783537D01*
X71535Y763144D02*
X93782D01*
X71535D02*
Y783537D01*
X53694Y431294D02*
Y450594D01*
X45894Y458394D02*
X53694Y450594D01*
X33194Y458394D02*
X45894D01*
X400394Y430594D02*
Y449894D01*
X425519Y788269D02*
X427394Y786394D01*
X425519Y788269D02*
Y800394D01*
X419894D02*
X425519D01*
X427394Y765894D02*
Y786394D01*
Y465894D02*
Y596394D01*
Y765894D01*
X55494Y829294D02*
X404894D01*
X33894Y760394D02*
Y805794D01*
X422523Y465894D02*
X427394D01*
X404894Y815402D02*
Y829294D01*
X33894Y805794D02*
X55494D01*
Y829294D01*
X400394Y449894D02*
X416394Y465894D01*
X422523D01*
X33194Y458394D02*
Y700894D01*
Y758973D01*
Y759694D02*
X33894Y760394D01*
X33194Y758973D02*
Y759694D01*
X404886Y815402D02*
X419894Y800394D01*
X106594Y668894D02*
X112091Y674391D01*
X33243Y634394D02*
X72094D01*
X112091Y674391D02*
Y723208D01*
X92094Y727594D02*
X107705D01*
X112091Y723208D01*
X33194Y700894D02*
X63078D01*
X79494Y641794D02*
X106594Y668894D01*
X63078Y700894D02*
X73978Y711794D01*
X72094Y634394D02*
X79494Y641794D01*
X73978Y711794D02*
X89778Y727594D01*
X92094D01*
G54D92*
X0Y0D02*
Y860974D01*
X460610D01*
Y0D02*
Y860974D01*
X0Y0D02*
X460610D01*
X25394Y25394D02*
Y430394D01*
X435394D01*
Y25394D02*
Y430394D01*
X25394Y25394D02*
X435394D01*
X25394Y430394D02*
Y835394D01*
X435394D01*
Y430394D02*
Y835394D01*
X25394Y430394D02*
X435394D01*
G54D111*
X13287Y847175D02*
D03*
X446610Y848283D02*
D03*
X447319Y13583D02*
D03*
X13287Y13287D02*
D03*
G54D112*
X381194Y211694D02*
D03*
X349894D02*
D03*
X37794Y379894D02*
D03*
X47794D02*
D03*
X286694Y211694D02*
D03*
X318394D02*
D03*
X342144Y280294D02*
D03*
X322144D02*
D03*
X363194D02*
D03*
X383194D02*
D03*
X301094D02*
D03*
X281094D02*
D03*
X383194Y256294D02*
D03*
X363194D02*
D03*
X322144D02*
D03*
X342144D02*
D03*
X301094D02*
D03*
X281094D02*
D03*
X359894Y39894D02*
D03*
X369894D02*
D03*
X379894D02*
D03*
X389894D02*
D03*
X300394D02*
D03*
X310394D02*
D03*
X320394D02*
D03*
X330394D02*
D03*
X190394D02*
D03*
X200394D02*
D03*
X210394D02*
D03*
X220394D02*
D03*
X241394D02*
D03*
X251394D02*
D03*
X261394D02*
D03*
X271394D02*
D03*
X130894D02*
D03*
X140894D02*
D03*
X150894D02*
D03*
X160894D02*
D03*
X100894D02*
D03*
X90894D02*
D03*
X80894D02*
D03*
X70894D02*
D03*
X33994Y329994D02*
D03*
Y347794D02*
D03*
X417194Y100894D02*
D03*
Y80894D02*
D03*
X381894Y170894D02*
D03*
X371894D02*
D03*
X361894D02*
D03*
X351894D02*
D03*
X381194Y616694D02*
D03*
X349894D02*
D03*
X37794Y784894D02*
D03*
X47794D02*
D03*
X286694Y616694D02*
D03*
X318394D02*
D03*
X342144Y685294D02*
D03*
X322144D02*
D03*
X363194D02*
D03*
X383194D02*
D03*
X301094D02*
D03*
X281094D02*
D03*
X383194Y661294D02*
D03*
X363194D02*
D03*
X322144D02*
D03*
X342144D02*
D03*
X301094D02*
D03*
X281094D02*
D03*
X359894Y444894D02*
D03*
X369894D02*
D03*
X379894D02*
D03*
X389894D02*
D03*
X300394D02*
D03*
X310394D02*
D03*
X320394D02*
D03*
X330394D02*
D03*
X190394D02*
D03*
X200394D02*
D03*
X210394D02*
D03*
X220394D02*
D03*
X241394D02*
D03*
X251394D02*
D03*
X261394D02*
D03*
X271394D02*
D03*
X130894D02*
D03*
X140894D02*
D03*
X150894D02*
D03*
X160894D02*
D03*
X100894D02*
D03*
X90894D02*
D03*
X80894D02*
D03*
X70894D02*
D03*
X33994Y734994D02*
D03*
Y752794D02*
D03*
X417194Y505894D02*
D03*
Y485894D02*
D03*
X381894Y575894D02*
D03*
X371894D02*
D03*
X361894D02*
D03*
X351894D02*
D03*
G54D113*
X391194Y211694D02*
D03*
X359894D02*
D03*
X296694D02*
D03*
X328394D02*
D03*
X332144Y280294D02*
D03*
X373194D02*
D03*
X291094D02*
D03*
X373194Y256294D02*
D03*
X332144D02*
D03*
X291094D02*
D03*
X417194Y90894D02*
D03*
Y70894D02*
D03*
X391894Y170894D02*
D03*
X391194Y616694D02*
D03*
X359894D02*
D03*
X296694D02*
D03*
X328394D02*
D03*
X332144Y685294D02*
D03*
X373194D02*
D03*
X291094D02*
D03*
X373194Y661294D02*
D03*
X332144D02*
D03*
X291094D02*
D03*
X417194Y495894D02*
D03*
Y475894D02*
D03*
X391894Y575894D02*
D03*
G54D114*
X199194Y345694D02*
D03*
X209194D02*
D03*
X219194D02*
D03*
X229194D02*
D03*
X105494Y175994D02*
D03*
X104694Y217394D02*
D03*
X105494Y246894D02*
D03*
X199194Y750694D02*
D03*
X209194D02*
D03*
X219194D02*
D03*
X229194D02*
D03*
X105494Y580994D02*
D03*
X104694Y622394D02*
D03*
X105494Y651894D02*
D03*
G54D115*
X199194Y355694D02*
D03*
X209194D02*
D03*
X219194D02*
D03*
X229194D02*
D03*
X215494Y175994D02*
D03*
Y165994D02*
D03*
X205494Y175994D02*
D03*
Y165994D02*
D03*
X195494Y175994D02*
D03*
Y165994D02*
D03*
X185494Y175994D02*
D03*
Y165994D02*
D03*
X175494Y175994D02*
D03*
Y165994D02*
D03*
X165494Y175994D02*
D03*
Y165994D02*
D03*
X155494Y175994D02*
D03*
Y165994D02*
D03*
X145494Y175994D02*
D03*
Y165994D02*
D03*
X135494Y175994D02*
D03*
Y165994D02*
D03*
X125494Y175994D02*
D03*
Y165994D02*
D03*
X115494Y175994D02*
D03*
Y165994D02*
D03*
X105494D02*
D03*
X104694Y207394D02*
D03*
X114694D02*
D03*
Y217394D02*
D03*
X124694Y207394D02*
D03*
Y217394D02*
D03*
X134694Y207394D02*
D03*
Y217394D02*
D03*
X144694Y207394D02*
D03*
Y217394D02*
D03*
X105494Y236894D02*
D03*
X115494D02*
D03*
Y246894D02*
D03*
X125494Y236894D02*
D03*
Y246894D02*
D03*
X135494Y236894D02*
D03*
Y246894D02*
D03*
X145494Y236894D02*
D03*
Y246894D02*
D03*
X199194Y760694D02*
D03*
X209194D02*
D03*
X219194D02*
D03*
X229194D02*
D03*
X215494Y580994D02*
D03*
Y570994D02*
D03*
X205494Y580994D02*
D03*
Y570994D02*
D03*
X195494Y580994D02*
D03*
Y570994D02*
D03*
X185494Y580994D02*
D03*
Y570994D02*
D03*
X175494Y580994D02*
D03*
Y570994D02*
D03*
X165494Y580994D02*
D03*
Y570994D02*
D03*
X155494Y580994D02*
D03*
Y570994D02*
D03*
X145494Y580994D02*
D03*
Y570994D02*
D03*
X135494Y580994D02*
D03*
Y570994D02*
D03*
X125494Y580994D02*
D03*
Y570994D02*
D03*
X115494Y580994D02*
D03*
Y570994D02*
D03*
X105494D02*
D03*
X104694Y612394D02*
D03*
X114694D02*
D03*
Y622394D02*
D03*
X124694Y612394D02*
D03*
Y622394D02*
D03*
X134694Y612394D02*
D03*
Y622394D02*
D03*
X144694Y612394D02*
D03*
Y622394D02*
D03*
X105494Y641894D02*
D03*
X115494D02*
D03*
Y651894D02*
D03*
X125494Y641894D02*
D03*
Y651894D02*
D03*
X135494Y641894D02*
D03*
Y651894D02*
D03*
X145494Y641894D02*
D03*
Y651894D02*
D03*
G54D116*
X240894Y169694D02*
D03*
X62294Y335894D02*
D03*
X38438Y144959D02*
D03*
X240894Y574694D02*
D03*
X62294Y740894D02*
D03*
X38438Y549959D02*
D03*
G54D117*
X50394Y231694D02*
D03*
Y636694D02*
D03*
G54D118*
Y279016D02*
D03*
Y684016D02*
D03*
G54D119*
X61094Y250394D02*
D03*
Y655394D02*
D03*
G54D120*
Y260315D02*
D03*
X68994D02*
D03*
Y250394D02*
D03*
X61094Y665315D02*
D03*
X68994D02*
D03*
Y655394D02*
D03*
G54D121*
X43794Y325094D02*
D03*
Y352694D02*
D03*
Y730094D02*
D03*
Y757694D02*
D03*
G54D122*
X73394Y410594D02*
D03*
X93394D02*
D03*
X113394D02*
D03*
X133394D02*
D03*
X153394D02*
D03*
X173394D02*
D03*
X193394D02*
D03*
X213394D02*
D03*
X233394D02*
D03*
X253394D02*
D03*
X402457Y263642D02*
D03*
Y303642D02*
D03*
Y343642D02*
D03*
X73394Y815594D02*
D03*
X93394D02*
D03*
X113394D02*
D03*
X133394D02*
D03*
X153394D02*
D03*
X173394D02*
D03*
X193394D02*
D03*
X213394D02*
D03*
X233394D02*
D03*
X253394D02*
D03*
X402457Y668642D02*
D03*
Y708642D02*
D03*
Y748642D02*
D03*
G54D123*
X336894Y363794D02*
D03*
X350294D02*
D03*
Y310794D02*
D03*
X336894D02*
D03*
X370494Y363794D02*
D03*
X383894D02*
D03*
Y310794D02*
D03*
X370494D02*
D03*
X423826Y228272D02*
D03*
X410426D02*
D03*
Y175272D02*
D03*
X423826D02*
D03*
X336894Y768794D02*
D03*
X350294D02*
D03*
Y715794D02*
D03*
X336894D02*
D03*
X370494Y768794D02*
D03*
X383894D02*
D03*
Y715794D02*
D03*
X370494D02*
D03*
X423826Y633272D02*
D03*
X410426D02*
D03*
Y580272D02*
D03*
X423826D02*
D03*
G54D124*
X413394Y33394D02*
D03*
X427394D02*
D03*
Y47394D02*
D03*
X413394D02*
D03*
X410394Y40394D02*
D03*
X430394D02*
D03*
X420394Y50394D02*
D03*
Y30394D02*
D03*
X33394Y33394D02*
D03*
X47394D02*
D03*
Y47394D02*
D03*
X33394D02*
D03*
X30394Y40394D02*
D03*
X50394D02*
D03*
X40394Y50394D02*
D03*
Y30394D02*
D03*
X33394Y408394D02*
D03*
X47394D02*
D03*
Y422394D02*
D03*
X33394D02*
D03*
X30394Y415394D02*
D03*
X50394D02*
D03*
X40394Y425394D02*
D03*
Y405394D02*
D03*
X413394Y408394D02*
D03*
X427394D02*
D03*
Y422394D02*
D03*
X413394D02*
D03*
X410394Y415394D02*
D03*
X430394D02*
D03*
X420394Y425394D02*
D03*
Y405394D02*
D03*
X413394Y438394D02*
D03*
X427394D02*
D03*
Y452394D02*
D03*
X413394D02*
D03*
X410394Y445394D02*
D03*
X430394D02*
D03*
X420394Y455394D02*
D03*
Y435394D02*
D03*
X33394Y438394D02*
D03*
X47394D02*
D03*
Y452394D02*
D03*
X33394D02*
D03*
X30394Y445394D02*
D03*
X50394D02*
D03*
X40394Y455394D02*
D03*
Y435394D02*
D03*
X33394Y813394D02*
D03*
X47394D02*
D03*
Y827394D02*
D03*
X33394D02*
D03*
X30394Y820394D02*
D03*
X50394D02*
D03*
X40394Y830394D02*
D03*
Y810394D02*
D03*
X413394Y813394D02*
D03*
X427394D02*
D03*
Y827394D02*
D03*
X413394D02*
D03*
X410394Y820394D02*
D03*
X430394D02*
D03*
X420394Y830394D02*
D03*
Y810394D02*
D03*
G54D125*
Y40394D02*
D03*
X40394D02*
D03*
Y415394D02*
D03*
X420394D02*
D03*
Y445394D02*
D03*
X40394D02*
D03*
Y820394D02*
D03*
X420394D02*
D03*
G54D126*
X402457Y283642D02*
D03*
Y323642D02*
D03*
Y363642D02*
D03*
Y688642D02*
D03*
Y728642D02*
D03*
Y768642D02*
D03*
G54D127*
X144033Y186699D02*
D03*
X300204Y196283D02*
D03*
X403794Y180794D02*
D03*
X403294Y171294D02*
D03*
X270768Y305610D02*
D03*
Y301279D02*
D03*
X266437Y305610D02*
D03*
Y301279D02*
D03*
X53239Y335894D02*
D03*
X71349D02*
D03*
X62294Y344949D02*
D03*
Y326839D02*
D03*
X38438Y135904D02*
D03*
Y154014D02*
D03*
X47493Y144959D02*
D03*
X87394Y118564D02*
D03*
X376094Y98594D02*
D03*
X352569Y251315D02*
D03*
X307999Y97132D02*
D03*
X110793Y195356D02*
D03*
X101277Y194222D02*
D03*
X174322Y296949D02*
D03*
X60441Y300035D02*
D03*
X47961Y300633D02*
D03*
X85009Y245659D02*
D03*
X43393Y303222D02*
D03*
X43433Y309305D02*
D03*
X43287Y315495D02*
D03*
X77187Y332827D02*
D03*
X77042Y328883D02*
D03*
X76990Y325042D02*
D03*
X403494Y175594D02*
D03*
X425494Y186050D02*
D03*
X421994Y183294D02*
D03*
X408694Y183350D02*
D03*
X405394Y186050D02*
D03*
Y167194D02*
D03*
X408694Y164494D02*
D03*
X418794Y186050D02*
D03*
X425458Y167250D02*
D03*
X412058D02*
D03*
X191300Y297216D02*
D03*
X237416Y235223D02*
D03*
X244783Y235215D02*
D03*
X241139Y241168D02*
D03*
X181867Y237160D02*
D03*
X185575Y260711D02*
D03*
X228806Y272358D02*
D03*
X234319Y265287D02*
D03*
X240471Y209185D02*
D03*
X181879Y226803D02*
D03*
X138926Y230766D02*
D03*
X149999Y232048D02*
D03*
X153194Y243794D02*
D03*
X152566Y252390D02*
D03*
X130606Y250633D02*
D03*
X123294Y257194D02*
D03*
X119313Y257574D02*
D03*
X129715Y219777D02*
D03*
X133994Y222894D02*
D03*
X102708Y188468D02*
D03*
X122672Y229841D02*
D03*
X108194Y224794D02*
D03*
X149875Y144612D02*
D03*
X351766Y145288D02*
D03*
X280880Y146269D02*
D03*
X210258Y145912D02*
D03*
X143900Y147726D02*
D03*
X68859Y148783D02*
D03*
X115837Y131247D02*
D03*
X229011Y137954D02*
D03*
X210017Y291930D02*
D03*
X237426Y245158D02*
D03*
X152180Y192803D02*
D03*
X181610Y144060D02*
D03*
X187343Y193107D02*
D03*
X179294Y209894D02*
D03*
X265084Y254668D02*
D03*
X248512Y235222D02*
D03*
X263050Y233225D02*
D03*
X241102Y227127D02*
D03*
X248506Y220471D02*
D03*
X244814Y220493D02*
D03*
X238556Y191426D02*
D03*
X232684Y187732D02*
D03*
X282579Y166929D02*
D03*
X271850D02*
D03*
X317194Y175994D02*
D03*
X260471Y173959D02*
D03*
X224394Y158694D02*
D03*
X96300Y195055D02*
D03*
X288359Y199033D02*
D03*
X258933Y182623D02*
D03*
X255100Y182637D02*
D03*
X256155Y194152D02*
D03*
X154980Y192780D02*
D03*
X241113Y235232D02*
D03*
X244806Y227289D02*
D03*
X245894Y260894D02*
D03*
X288094Y185294D02*
D03*
X304694Y183794D02*
D03*
X241294Y271894D02*
D03*
X181891Y260707D02*
D03*
X371543Y238516D02*
D03*
X356336Y242288D02*
D03*
X333416Y238774D02*
D03*
X323701Y227364D02*
D03*
X320611Y238228D02*
D03*
X311039Y227352D02*
D03*
X304403Y239194D02*
D03*
X304834Y227374D02*
D03*
X291848Y229168D02*
D03*
X282184Y227484D02*
D03*
X288352Y241488D02*
D03*
X378982Y193154D02*
D03*
X342704Y193545D02*
D03*
X331097Y194687D02*
D03*
X323774Y194951D02*
D03*
X323705Y182364D02*
D03*
X312094Y195877D02*
D03*
X38581Y126224D02*
D03*
X32181D02*
D03*
X37181Y129224D02*
D03*
X33681D02*
D03*
X334394Y140394D02*
D03*
Y146794D02*
D03*
X337394Y141794D02*
D03*
Y145294D02*
D03*
X266494Y141494D02*
D03*
Y147894D02*
D03*
X269494Y142894D02*
D03*
Y146394D02*
D03*
X389694Y120094D02*
D03*
X392594Y123232D02*
D03*
X381094D02*
D03*
X378194Y120132D02*
D03*
X392594Y117032D02*
D03*
X389694Y113894D02*
D03*
X381094Y117032D02*
D03*
X378194Y113894D02*
D03*
X318894Y120094D02*
D03*
X321794Y123232D02*
D03*
X310294D02*
D03*
X307394Y120132D02*
D03*
X321794Y117032D02*
D03*
X318894Y113894D02*
D03*
X310294Y117032D02*
D03*
X307394Y113894D02*
D03*
X248294Y119994D02*
D03*
X251194Y123132D02*
D03*
X239694D02*
D03*
X236794Y120032D02*
D03*
X251194Y116932D02*
D03*
X248294Y113794D02*
D03*
X239694Y116932D02*
D03*
X236794Y113794D02*
D03*
X95194Y116294D02*
D03*
X98094Y119432D02*
D03*
X106694Y116294D02*
D03*
X109594Y119432D02*
D03*
X95194Y122532D02*
D03*
X98094Y125632D02*
D03*
X109594D02*
D03*
X106694Y122494D02*
D03*
X168594Y113894D02*
D03*
X177194Y120094D02*
D03*
X180094Y123232D02*
D03*
X168594D02*
D03*
X165694Y120132D02*
D03*
X180094Y117032D02*
D03*
X177194Y113894D02*
D03*
X108894Y109394D02*
D03*
X196194Y143394D02*
D03*
Y139894D02*
D03*
X193194Y144894D02*
D03*
Y138494D02*
D03*
X188394Y144894D02*
D03*
Y138494D02*
D03*
X185394Y139994D02*
D03*
Y143494D02*
D03*
X326594Y141894D02*
D03*
Y145394D02*
D03*
X329594Y140394D02*
D03*
Y146794D02*
D03*
X258694Y142994D02*
D03*
Y146494D02*
D03*
X261694Y141494D02*
D03*
Y147894D02*
D03*
X128194Y141894D02*
D03*
X125494Y142994D02*
D03*
X130394Y144094D02*
D03*
X125494Y139194D02*
D03*
X117994Y143594D02*
D03*
Y137194D02*
D03*
X114994Y142194D02*
D03*
Y138694D02*
D03*
X37081Y118424D02*
D03*
X33581D02*
D03*
X38581Y121424D02*
D03*
X32181D02*
D03*
X122594Y145694D02*
D03*
X370694Y151594D02*
D03*
X217294Y148494D02*
D03*
X356879Y151479D02*
D03*
X77894Y126694D02*
D03*
X412058Y185994D02*
D03*
X415394Y183350D02*
D03*
X36094Y105394D02*
D03*
X332094Y84094D02*
D03*
X329094D02*
D03*
X293994Y80994D02*
D03*
Y84094D02*
D03*
X295894Y89794D02*
D03*
Y93194D02*
D03*
X264894Y80994D02*
D03*
Y84094D02*
D03*
X263194Y89794D02*
D03*
Y93194D02*
D03*
X290894Y151794D02*
D03*
X237494Y104594D02*
D03*
X32394Y95394D02*
D03*
X221568Y126835D02*
D03*
X71536Y141836D02*
D03*
X424294Y270794D02*
D03*
X420694Y274694D02*
D03*
X407394Y274594D02*
D03*
X413194Y268294D02*
D03*
X412794Y258894D02*
D03*
X409094Y256294D02*
D03*
X413694Y263594D02*
D03*
X409994Y270994D02*
D03*
X404394Y271094D02*
D03*
X403294Y256194D02*
D03*
X353149Y354319D02*
D03*
X337410Y354706D02*
D03*
X330094Y374094D02*
D03*
X356294D02*
D03*
X343294Y356294D02*
D03*
X329594Y363794D02*
D03*
X350194Y374294D02*
D03*
X344194D02*
D03*
X337094Y374594D02*
D03*
X415305Y305895D02*
D03*
X412084Y307805D02*
D03*
X407572Y311545D02*
D03*
X411690Y311576D02*
D03*
X415251Y310152D02*
D03*
X403392Y311514D02*
D03*
X399677Y311483D02*
D03*
X395776Y311514D02*
D03*
X350294Y298094D02*
D03*
X336894Y297994D02*
D03*
X358994Y310694D02*
D03*
X357494Y302494D02*
D03*
X331694Y301994D02*
D03*
X359294Y319994D02*
D03*
X336894Y319794D02*
D03*
X343694Y318394D02*
D03*
X343494Y303894D02*
D03*
X413394Y338994D02*
D03*
Y343794D02*
D03*
Y348194D02*
D03*
X396994Y336194D02*
D03*
X407394Y336294D02*
D03*
X402694Y336194D02*
D03*
X396694Y351294D02*
D03*
X407494Y351494D02*
D03*
X402494Y351394D02*
D03*
X385394Y319894D02*
D03*
X368894Y319794D02*
D03*
X388994Y323694D02*
D03*
X364894Y317694D02*
D03*
X388894Y318094D02*
D03*
X380694Y319894D02*
D03*
X373694D02*
D03*
X377294Y317194D02*
D03*
X377094Y303594D02*
D03*
X368494Y345294D02*
D03*
X390994Y363594D02*
D03*
X390894Y372094D02*
D03*
X375594Y350294D02*
D03*
X377294Y357994D02*
D03*
X377292Y363245D02*
D03*
X370794Y353994D02*
D03*
X391194Y356594D02*
D03*
X377292Y353961D02*
D03*
X384394Y373794D02*
D03*
X377494Y373894D02*
D03*
X370594Y373694D02*
D03*
X311394Y313994D02*
D03*
X285394Y346094D02*
D03*
Y341294D02*
D03*
Y337094D02*
D03*
X288294Y332294D02*
D03*
X289194Y351594D02*
D03*
X316694Y310094D02*
D03*
X311294Y322494D02*
D03*
X297994Y324294D02*
D03*
X298094Y329794D02*
D03*
X292871Y330249D02*
D03*
X315594Y319394D02*
D03*
X87907Y333287D02*
D03*
X271594Y327194D02*
D03*
X227917Y328570D02*
D03*
X109400Y347045D02*
D03*
X101494Y342198D02*
D03*
X189811Y343667D02*
D03*
X206794Y406694D02*
D03*
Y414394D02*
D03*
X220194Y414594D02*
D03*
X220094Y406594D02*
D03*
X206794Y410494D02*
D03*
X219994D02*
D03*
X70573Y225108D02*
D03*
X75728Y225098D02*
D03*
X92228Y225896D02*
D03*
X87106Y225197D02*
D03*
X95694Y221794D02*
D03*
X83169Y225098D02*
D03*
X79823Y230512D02*
D03*
X79333Y225108D02*
D03*
X65046Y225016D02*
D03*
X89862Y215945D02*
D03*
X63406Y215694D02*
D03*
X76083Y215846D02*
D03*
X97720Y191664D02*
D03*
X59206Y215894D02*
D03*
X262019Y296864D02*
D03*
X264382Y316845D02*
D03*
X267433Y314778D02*
D03*
X272367Y314533D02*
D03*
X266694Y244594D02*
D03*
X267294Y250194D02*
D03*
X267598Y259027D02*
D03*
X273228Y293504D02*
D03*
X271358Y287894D02*
D03*
X265957Y293419D02*
D03*
X258050Y278243D02*
D03*
X79908Y82594D02*
D03*
X74594Y285675D02*
D03*
X195494Y306794D02*
D03*
X90494Y311894D02*
D03*
X67294Y281975D02*
D03*
X66994Y289375D02*
D03*
X86336Y326654D02*
D03*
X86399Y330081D02*
D03*
X158968Y217625D02*
D03*
X110775Y233248D02*
D03*
X152467Y260226D02*
D03*
X198092Y209146D02*
D03*
X198095Y205480D02*
D03*
X189694Y209194D02*
D03*
Y205494D02*
D03*
X234420Y272336D02*
D03*
X241268Y275444D02*
D03*
X245887Y267774D02*
D03*
X333194Y397794D02*
D03*
X240484Y205506D02*
D03*
X342494Y175794D02*
D03*
X318110Y170768D02*
D03*
X137917Y263795D02*
D03*
X156530Y260477D02*
D03*
X187285Y268770D02*
D03*
X187296Y272361D02*
D03*
X197145Y272340D02*
D03*
X189613Y354394D02*
D03*
X66950Y103994D02*
D03*
X63350D02*
D03*
Y101394D02*
D03*
X66950D02*
D03*
X57308Y103394D02*
D03*
Y100694D02*
D03*
X83808Y86994D02*
D03*
X81394Y89408D02*
D03*
X82308Y80194D02*
D03*
X48994Y81219D02*
D03*
X46694Y78794D02*
D03*
X47094Y87580D02*
D03*
X43994Y85994D02*
D03*
X83794Y94394D02*
D03*
X352294Y103994D02*
D03*
X348694D02*
D03*
Y101394D02*
D03*
X358851Y103294D02*
D03*
Y100494D02*
D03*
X342651Y103394D02*
D03*
Y100694D02*
D03*
X363951Y98894D02*
D03*
X281408Y103994D02*
D03*
X277808D02*
D03*
Y101394D02*
D03*
X281408D02*
D03*
X287965Y103294D02*
D03*
Y100494D02*
D03*
X271765Y103394D02*
D03*
Y100694D02*
D03*
X210548Y103994D02*
D03*
X206948D02*
D03*
Y101394D02*
D03*
X210548D02*
D03*
X217106Y103294D02*
D03*
Y100494D02*
D03*
X200906Y103394D02*
D03*
Y100694D02*
D03*
X193794Y97994D02*
D03*
X225094Y89794D02*
D03*
Y93194D02*
D03*
X223194Y80994D02*
D03*
X223294Y84094D02*
D03*
X193994D02*
D03*
Y80994D02*
D03*
X192394Y93194D02*
D03*
Y89794D02*
D03*
X222206Y98894D02*
D03*
X121494Y89294D02*
D03*
Y92694D02*
D03*
X122994Y80494D02*
D03*
X122894Y83894D02*
D03*
X153194Y86594D02*
D03*
Y83094D02*
D03*
X154094Y93894D02*
D03*
Y90494D02*
D03*
X125894Y102894D02*
D03*
X124294Y99794D02*
D03*
X129994Y100694D02*
D03*
Y103394D02*
D03*
X146194Y100494D02*
D03*
Y103294D02*
D03*
X139636Y101394D02*
D03*
X136036D02*
D03*
X150645Y126735D02*
D03*
X136036Y103994D02*
D03*
X139636D02*
D03*
X425394Y238094D02*
D03*
X416831Y228445D02*
D03*
X338494Y383094D02*
D03*
X223668Y268824D02*
D03*
X428294Y133994D02*
D03*
X428194Y118394D02*
D03*
X148125Y314180D02*
D03*
X417421Y219193D02*
D03*
X414370Y237894D02*
D03*
X405894Y219394D02*
D03*
X425394Y219094D02*
D03*
X406394Y242894D02*
D03*
X414894D02*
D03*
X421457Y237992D02*
D03*
X407087D02*
D03*
X178394Y270616D02*
D03*
X158294Y270894D02*
D03*
X292388Y126735D02*
D03*
X164294Y264194D02*
D03*
X328894Y170494D02*
D03*
X244816Y213997D02*
D03*
X248507Y214010D02*
D03*
X178294Y214894D02*
D03*
X181883Y214899D02*
D03*
X261523Y261546D02*
D03*
X327494Y164494D02*
D03*
X223680Y272347D02*
D03*
X216833Y272334D02*
D03*
X363194Y185294D02*
D03*
X228809Y275861D02*
D03*
X265111Y261527D02*
D03*
X261532Y254679D02*
D03*
X248500Y227301D02*
D03*
X182981Y209887D02*
D03*
X259194Y158594D02*
D03*
X82906Y215894D02*
D03*
X46616Y215791D02*
D03*
X47306Y191694D02*
D03*
X235892Y295100D02*
D03*
X232633Y184224D02*
D03*
X214094Y188894D02*
D03*
X210283Y188786D02*
D03*
X282194Y217994D02*
D03*
X283738Y202062D02*
D03*
X421594Y242994D02*
D03*
X263194Y349994D02*
D03*
X266094D02*
D03*
X273294Y349894D02*
D03*
X283294Y373694D02*
D03*
Y368294D02*
D03*
X104494Y381294D02*
D03*
X179994Y410494D02*
D03*
X166794D02*
D03*
X180094Y406594D02*
D03*
X180194Y414594D02*
D03*
X166794Y414394D02*
D03*
Y406694D02*
D03*
X167194Y395294D02*
D03*
X180194Y395094D02*
D03*
X140194D02*
D03*
X127194Y395294D02*
D03*
X126794Y406694D02*
D03*
Y414394D02*
D03*
X140194Y414594D02*
D03*
X140094Y406594D02*
D03*
X126794Y410494D02*
D03*
X139994D02*
D03*
X100817Y396490D02*
D03*
X86947Y396402D02*
D03*
X86794Y406694D02*
D03*
Y414394D02*
D03*
X100194Y414594D02*
D03*
X100094Y406594D02*
D03*
X86794Y410494D02*
D03*
X99994D02*
D03*
X73094Y381494D02*
D03*
X144344Y381294D02*
D03*
X108994Y379094D02*
D03*
Y369994D02*
D03*
X149094D02*
D03*
Y379094D02*
D03*
X184444Y381294D02*
D03*
X109294Y387594D02*
D03*
X149194Y387794D02*
D03*
X425394Y242994D02*
D03*
X352394Y101394D02*
D03*
X332894Y97594D02*
D03*
X261694Y97194D02*
D03*
X48194Y101594D02*
D03*
X121194Y98194D02*
D03*
X324902Y168307D02*
D03*
X306594Y172539D02*
D03*
X186257Y340247D02*
D03*
X189825Y340224D02*
D03*
X70994Y394894D02*
D03*
X58144Y375544D02*
D03*
X363260Y126735D02*
D03*
X78794Y98694D02*
D03*
X81194Y96394D02*
D03*
X73508Y100494D02*
D03*
Y103294D02*
D03*
X53194Y102394D02*
D03*
X51094Y99394D02*
D03*
X168594Y117032D02*
D03*
X190694Y97194D02*
D03*
X196094Y100294D02*
D03*
X337994Y92980D02*
D03*
Y89579D02*
D03*
X350694Y65094D02*
D03*
X347394D02*
D03*
X370394Y93194D02*
D03*
Y89894D02*
D03*
X370349Y80205D02*
D03*
X370151Y97894D02*
D03*
X366994D02*
D03*
X338294Y100694D02*
D03*
X335694Y98994D02*
D03*
X299594Y96894D02*
D03*
X296194D02*
D03*
X293494Y98594D02*
D03*
X267094Y100494D02*
D03*
X264394Y98994D02*
D03*
X228494Y97494D02*
D03*
X225194D02*
D03*
X150294Y102894D02*
D03*
X151194Y99694D02*
D03*
X153994Y97894D02*
D03*
X400994Y118394D02*
D03*
X404394D02*
D03*
X407394Y124394D02*
D03*
Y120694D02*
D03*
Y131494D02*
D03*
Y127994D02*
D03*
X400994Y133994D02*
D03*
X404494D02*
D03*
X408094Y80894D02*
D03*
X410094Y78394D02*
D03*
X410194Y83394D02*
D03*
X424194Y78394D02*
D03*
X424294Y83394D02*
D03*
X426294Y80894D02*
D03*
Y100894D02*
D03*
X424294Y103394D02*
D03*
X424194Y98394D02*
D03*
X410194Y103394D02*
D03*
X410094Y98394D02*
D03*
X408094Y100894D02*
D03*
X306994Y193294D02*
D03*
X292194Y197694D02*
D03*
X189357Y234161D02*
D03*
X178913Y233087D02*
D03*
X178211Y226808D02*
D03*
X178731Y237147D02*
D03*
X155794Y235350D02*
D03*
X208901Y272351D02*
D03*
X197143Y275909D02*
D03*
X234327Y268801D02*
D03*
X201294Y317194D02*
D03*
X206319Y317219D02*
D03*
X211256Y317219D02*
D03*
X216272Y317189D02*
D03*
X221298Y317268D02*
D03*
X208947Y299988D02*
D03*
X191300Y300754D02*
D03*
X208865Y268887D02*
D03*
X216834Y268776D02*
D03*
X345852Y177786D02*
D03*
X373228Y160138D02*
D03*
X215080Y295060D02*
D03*
X214128Y192469D02*
D03*
X230848Y209163D02*
D03*
X230872Y205484D02*
D03*
X99139Y187981D02*
D03*
X120942Y187684D02*
D03*
X96085Y231621D02*
D03*
X139076Y222738D02*
D03*
X96348Y216836D02*
D03*
X385209Y421778D02*
D03*
X392293Y421736D02*
D03*
X281721Y302922D02*
D03*
X255594Y305394D02*
D03*
X234888Y315249D02*
D03*
X250651Y316394D02*
D03*
X224179Y329133D02*
D03*
X227951Y334053D02*
D03*
X225138Y362056D02*
D03*
X149392Y346990D02*
D03*
X93122Y331545D02*
D03*
X100125Y231403D02*
D03*
X245012Y187012D02*
D03*
X245019Y190010D02*
D03*
X156132Y217603D02*
D03*
X153765Y233405D02*
D03*
X227894Y294594D02*
D03*
Y291494D02*
D03*
X161394Y301694D02*
D03*
X163794Y299994D02*
D03*
Y297094D02*
D03*
X161494Y295294D02*
D03*
X144073Y314202D02*
D03*
X143979Y301220D02*
D03*
X155267Y301679D02*
D03*
X152967Y299880D02*
D03*
Y296979D02*
D03*
X155367Y295280D02*
D03*
X348266Y235282D02*
D03*
X292582Y268397D02*
D03*
X161237Y115349D02*
D03*
X258136Y349276D02*
D03*
X236760Y325489D02*
D03*
X169994Y350566D02*
D03*
X129894Y350494D02*
D03*
X90043Y350358D02*
D03*
X204813Y368795D02*
D03*
X76148Y342577D02*
D03*
X296194Y141375D02*
D03*
X367094Y141130D02*
D03*
X81794Y141343D02*
D03*
X157604Y138333D02*
D03*
X225394Y141312D02*
D03*
X132983Y263191D02*
D03*
X164694Y197194D02*
D03*
X183194Y301794D02*
D03*
X287437Y328561D02*
D03*
X291080Y323521D02*
D03*
X281967Y325613D02*
D03*
X284208Y327853D02*
D03*
X408174Y145346D02*
D03*
X409374Y148346D02*
D03*
X412874Y151546D02*
D03*
Y158146D02*
D03*
X415394Y164494D02*
D03*
X418794Y167294D02*
D03*
X421994Y164494D02*
D03*
X415674Y159946D02*
D03*
X412874Y154846D02*
D03*
X412574Y148346D02*
D03*
X382050Y421774D02*
D03*
X388400Y421774D02*
D03*
X373649Y80205D02*
D03*
X241037Y305749D02*
D03*
X154782Y185987D02*
D03*
X146349Y189375D02*
D03*
X149920Y186805D02*
D03*
X65562Y310314D02*
D03*
X144033Y591699D02*
D03*
X300204Y601284D02*
D03*
X403794Y585794D02*
D03*
X403294Y576294D02*
D03*
X270768Y710610D02*
D03*
Y706280D02*
D03*
X266437Y710610D02*
D03*
Y706280D02*
D03*
X53239Y740894D02*
D03*
X71349D02*
D03*
X62294Y749949D02*
D03*
Y731839D02*
D03*
X38438Y540904D02*
D03*
Y559014D02*
D03*
X47493Y549959D02*
D03*
X87394Y523564D02*
D03*
X376094Y503594D02*
D03*
X352569Y656315D02*
D03*
X307999Y502132D02*
D03*
X110793Y600356D02*
D03*
X101277Y599222D02*
D03*
X174322Y701949D02*
D03*
X60441Y705035D02*
D03*
X47961Y705633D02*
D03*
X85009Y650659D02*
D03*
X43393Y708222D02*
D03*
X43433Y714305D02*
D03*
X43287Y720495D02*
D03*
X77187Y737827D02*
D03*
X77042Y733883D02*
D03*
X76990Y730042D02*
D03*
X403494Y580594D02*
D03*
X425494Y591050D02*
D03*
X421994Y588294D02*
D03*
X408694Y588350D02*
D03*
X405394Y591050D02*
D03*
Y572194D02*
D03*
X408694Y569494D02*
D03*
X418794Y591050D02*
D03*
X425458Y572250D02*
D03*
X412058D02*
D03*
X191300Y702216D02*
D03*
X237416Y640223D02*
D03*
X244783Y640215D02*
D03*
X241139Y646168D02*
D03*
X181867Y642160D02*
D03*
X185575Y665711D02*
D03*
X228806Y677358D02*
D03*
X234319Y670287D02*
D03*
X240471Y614185D02*
D03*
X181879Y631803D02*
D03*
X138926Y635766D02*
D03*
X149999Y637048D02*
D03*
X153194Y648794D02*
D03*
X152566Y657390D02*
D03*
X130606Y655633D02*
D03*
X123294Y662194D02*
D03*
X119313Y662574D02*
D03*
X129715Y624777D02*
D03*
X133994Y627894D02*
D03*
X102708Y593468D02*
D03*
X122672Y634841D02*
D03*
X108194Y629794D02*
D03*
X149875Y549612D02*
D03*
X351766Y550287D02*
D03*
X280880Y551269D02*
D03*
X210258Y550912D02*
D03*
X143900Y552726D02*
D03*
X68859Y553783D02*
D03*
X115837Y536247D02*
D03*
X229011Y542954D02*
D03*
X210017Y696930D02*
D03*
X237426Y650158D02*
D03*
X152180Y597802D02*
D03*
X181610Y549060D02*
D03*
X187343Y598107D02*
D03*
X179294Y614894D02*
D03*
X265084Y659668D02*
D03*
X248512Y640222D02*
D03*
X263050Y638225D02*
D03*
X241102Y632127D02*
D03*
X248506Y625471D02*
D03*
X244814Y625493D02*
D03*
X238556Y596426D02*
D03*
X232684Y592732D02*
D03*
X282579Y571929D02*
D03*
X271850D02*
D03*
X317194Y580994D02*
D03*
X260471Y578959D02*
D03*
X224394Y563694D02*
D03*
X96300Y600055D02*
D03*
X288359Y604033D02*
D03*
X258933Y587623D02*
D03*
X255100Y587637D02*
D03*
X256155Y599153D02*
D03*
X154980Y597780D02*
D03*
X241113Y640232D02*
D03*
X244806Y632289D02*
D03*
X245894Y665894D02*
D03*
X288094Y590294D02*
D03*
X304694Y588794D02*
D03*
X241294Y676894D02*
D03*
X181891Y665707D02*
D03*
X371543Y643516D02*
D03*
X356336Y647288D02*
D03*
X333416Y643774D02*
D03*
X323701Y632364D02*
D03*
X320611Y643227D02*
D03*
X311039Y632352D02*
D03*
X304403Y644194D02*
D03*
X304834Y632374D02*
D03*
X291848Y634168D02*
D03*
X282184Y632483D02*
D03*
X288352Y646488D02*
D03*
X378982Y598154D02*
D03*
X342704Y598545D02*
D03*
X331097Y599687D02*
D03*
X323774Y599952D02*
D03*
X323705Y587364D02*
D03*
X312094Y600877D02*
D03*
X38581Y531224D02*
D03*
X32181D02*
D03*
X37181Y534224D02*
D03*
X33681D02*
D03*
X334394Y545394D02*
D03*
Y551794D02*
D03*
X337394Y546794D02*
D03*
Y550294D02*
D03*
X266494Y546494D02*
D03*
Y552894D02*
D03*
X269494Y547894D02*
D03*
Y551394D02*
D03*
X389694Y525094D02*
D03*
X392594Y528232D02*
D03*
X381094D02*
D03*
X378194Y525132D02*
D03*
X392594Y522032D02*
D03*
X389694Y518894D02*
D03*
X381094Y522032D02*
D03*
X378194Y518894D02*
D03*
X318894Y525094D02*
D03*
X321794Y528232D02*
D03*
X310294D02*
D03*
X307394Y525132D02*
D03*
X321794Y522032D02*
D03*
X318894Y518894D02*
D03*
X310294Y522032D02*
D03*
X307394Y518894D02*
D03*
X248294Y524994D02*
D03*
X251194Y528132D02*
D03*
X239694D02*
D03*
X236794Y525032D02*
D03*
X251194Y521932D02*
D03*
X248294Y518794D02*
D03*
X239694Y521932D02*
D03*
X236794Y518794D02*
D03*
X95194Y521294D02*
D03*
X98094Y524432D02*
D03*
X106694Y521294D02*
D03*
X109594Y524432D02*
D03*
X95194Y527532D02*
D03*
X98094Y530632D02*
D03*
X109594D02*
D03*
X106694Y527494D02*
D03*
X168594Y518894D02*
D03*
X177194Y525094D02*
D03*
X180094Y528232D02*
D03*
X168594D02*
D03*
X165694Y525132D02*
D03*
X180094Y522032D02*
D03*
X177194Y518894D02*
D03*
X108894Y514394D02*
D03*
X196194Y548394D02*
D03*
Y544894D02*
D03*
X193194Y549894D02*
D03*
Y543494D02*
D03*
X188394Y549894D02*
D03*
Y543494D02*
D03*
X185394Y544994D02*
D03*
Y548494D02*
D03*
X326594Y546894D02*
D03*
Y550394D02*
D03*
X329594Y545394D02*
D03*
Y551794D02*
D03*
X258694Y547994D02*
D03*
Y551494D02*
D03*
X261694Y546494D02*
D03*
Y552894D02*
D03*
X128194Y546894D02*
D03*
X125494Y547994D02*
D03*
X130394Y549094D02*
D03*
X125494Y544194D02*
D03*
X117994Y548594D02*
D03*
Y542194D02*
D03*
X114994Y547194D02*
D03*
Y543694D02*
D03*
X37081Y523424D02*
D03*
X33581D02*
D03*
X38581Y526424D02*
D03*
X32181D02*
D03*
X122594Y550694D02*
D03*
X370694Y556594D02*
D03*
X217294Y553494D02*
D03*
X356879Y556479D02*
D03*
X77894Y531694D02*
D03*
X412058Y590994D02*
D03*
X415394Y588350D02*
D03*
X36094Y510394D02*
D03*
X332094Y489094D02*
D03*
X329094D02*
D03*
X293994Y485994D02*
D03*
Y489094D02*
D03*
X295894Y494794D02*
D03*
Y498194D02*
D03*
X264894Y485994D02*
D03*
Y489094D02*
D03*
X263194Y494794D02*
D03*
Y498194D02*
D03*
X290894Y556794D02*
D03*
X237494Y509594D02*
D03*
X32394Y500394D02*
D03*
X221568Y531835D02*
D03*
X71536Y546836D02*
D03*
X424294Y675794D02*
D03*
X420694Y679694D02*
D03*
X407394Y679594D02*
D03*
X413194Y673294D02*
D03*
X412794Y663894D02*
D03*
X409094Y661294D02*
D03*
X413694Y668594D02*
D03*
X409994Y675994D02*
D03*
X404394Y676094D02*
D03*
X403294Y661194D02*
D03*
X353149Y759319D02*
D03*
X337410Y759706D02*
D03*
X330094Y779094D02*
D03*
X356294D02*
D03*
X343294Y761294D02*
D03*
X329594Y768794D02*
D03*
X350194Y779294D02*
D03*
X344194D02*
D03*
X337094Y779594D02*
D03*
X415305Y710895D02*
D03*
X412084Y712805D02*
D03*
X407572Y716545D02*
D03*
X411690Y716576D02*
D03*
X415251Y715152D02*
D03*
X403392Y716514D02*
D03*
X399677Y716483D02*
D03*
X395776Y716514D02*
D03*
X350294Y703094D02*
D03*
X336894Y702994D02*
D03*
X358994Y715694D02*
D03*
X357494Y707494D02*
D03*
X331694Y706994D02*
D03*
X359294Y724994D02*
D03*
X336894Y724794D02*
D03*
X343694Y723394D02*
D03*
X343494Y708894D02*
D03*
X413394Y743994D02*
D03*
Y748794D02*
D03*
Y753194D02*
D03*
X396994Y741194D02*
D03*
X407394Y741294D02*
D03*
X402694Y741194D02*
D03*
X396694Y756294D02*
D03*
X407494Y756494D02*
D03*
X402494Y756394D02*
D03*
X385394Y724894D02*
D03*
X368894Y724794D02*
D03*
X388994Y728694D02*
D03*
X364894Y722694D02*
D03*
X388894Y723094D02*
D03*
X380694Y724894D02*
D03*
X373694D02*
D03*
X377294Y722194D02*
D03*
X377094Y708594D02*
D03*
X368494Y750294D02*
D03*
X390994Y768594D02*
D03*
X390894Y777094D02*
D03*
X375594Y755294D02*
D03*
X377294Y762994D02*
D03*
X377292Y768245D02*
D03*
X370794Y758994D02*
D03*
X391194Y761594D02*
D03*
X377292Y758961D02*
D03*
X384394Y778794D02*
D03*
X377494Y778894D02*
D03*
X370594Y778694D02*
D03*
X311394Y718994D02*
D03*
X285394Y751094D02*
D03*
Y746294D02*
D03*
Y742094D02*
D03*
X288294Y737294D02*
D03*
X289194Y756594D02*
D03*
X316694Y715094D02*
D03*
X311294Y727494D02*
D03*
X297994Y729294D02*
D03*
X298094Y734794D02*
D03*
X292871Y735249D02*
D03*
X315594Y724394D02*
D03*
X87907Y738287D02*
D03*
X271594Y732194D02*
D03*
X227917Y733570D02*
D03*
X109400Y752045D02*
D03*
X101494Y747198D02*
D03*
X189811Y748667D02*
D03*
X206794Y811694D02*
D03*
Y819394D02*
D03*
X220194Y819594D02*
D03*
X220094Y811594D02*
D03*
X206794Y815494D02*
D03*
X219994D02*
D03*
X70573Y630108D02*
D03*
X75728Y630098D02*
D03*
X92228Y630896D02*
D03*
X87106Y630197D02*
D03*
X95694Y626794D02*
D03*
X83169Y630098D02*
D03*
X79823Y635512D02*
D03*
X79333Y630108D02*
D03*
X65046Y630016D02*
D03*
X89862Y620945D02*
D03*
X63406Y620694D02*
D03*
X76083Y620847D02*
D03*
X97720Y596664D02*
D03*
X59206Y620894D02*
D03*
X262019Y701864D02*
D03*
X264382Y721845D02*
D03*
X267433Y719778D02*
D03*
X272367Y719533D02*
D03*
X266694Y649594D02*
D03*
X267294Y655194D02*
D03*
X267598Y664027D02*
D03*
X273228Y698504D02*
D03*
X271358Y692894D02*
D03*
X265957Y698419D02*
D03*
X258050Y683243D02*
D03*
X79908Y487594D02*
D03*
X74594Y690675D02*
D03*
X195494Y711794D02*
D03*
X90494Y716894D02*
D03*
X67294Y686975D02*
D03*
X66994Y694375D02*
D03*
X86336Y731653D02*
D03*
X86399Y735081D02*
D03*
X158968Y622625D02*
D03*
X110775Y638248D02*
D03*
X152467Y665226D02*
D03*
X198092Y614146D02*
D03*
X198095Y610480D02*
D03*
X189694Y614194D02*
D03*
Y610494D02*
D03*
X234420Y677336D02*
D03*
X241268Y680444D02*
D03*
X245887Y672774D02*
D03*
X333194Y802794D02*
D03*
X240484Y610506D02*
D03*
X342494Y580794D02*
D03*
X318110Y575768D02*
D03*
X137917Y668795D02*
D03*
X156530Y665477D02*
D03*
X187285Y673770D02*
D03*
X187296Y677361D02*
D03*
X197145Y677340D02*
D03*
X189613Y759394D02*
D03*
X66950Y508994D02*
D03*
X63350D02*
D03*
Y506394D02*
D03*
X66950D02*
D03*
X57308Y508394D02*
D03*
Y505694D02*
D03*
X83808Y491994D02*
D03*
X81394Y494408D02*
D03*
X82308Y485194D02*
D03*
X48994Y486219D02*
D03*
X46694Y483794D02*
D03*
X47094Y492580D02*
D03*
X43994Y490994D02*
D03*
X83794Y499394D02*
D03*
X352294Y508994D02*
D03*
X348694D02*
D03*
Y506394D02*
D03*
X358851Y508294D02*
D03*
Y505494D02*
D03*
X342651Y508394D02*
D03*
Y505694D02*
D03*
X363951Y503894D02*
D03*
X281408Y508994D02*
D03*
X277808D02*
D03*
Y506394D02*
D03*
X281408D02*
D03*
X287965Y508294D02*
D03*
Y505494D02*
D03*
X271765Y508394D02*
D03*
Y505694D02*
D03*
X210548Y508994D02*
D03*
X206948D02*
D03*
Y506394D02*
D03*
X210548D02*
D03*
X217106Y508294D02*
D03*
Y505494D02*
D03*
X200906Y508394D02*
D03*
Y505694D02*
D03*
X193794Y502994D02*
D03*
X225094Y494794D02*
D03*
Y498194D02*
D03*
X223194Y485994D02*
D03*
X223294Y489094D02*
D03*
X193994D02*
D03*
Y485994D02*
D03*
X192394Y498194D02*
D03*
Y494794D02*
D03*
X222206Y503894D02*
D03*
X121494Y494294D02*
D03*
Y497694D02*
D03*
X122994Y485494D02*
D03*
X122894Y488894D02*
D03*
X153194Y491594D02*
D03*
Y488094D02*
D03*
X154094Y498894D02*
D03*
Y495494D02*
D03*
X125894Y507894D02*
D03*
X124294Y504794D02*
D03*
X129994Y505694D02*
D03*
Y508394D02*
D03*
X146194Y505494D02*
D03*
Y508294D02*
D03*
X139636Y506394D02*
D03*
X136036D02*
D03*
X150645Y531735D02*
D03*
X136036Y508994D02*
D03*
X139636D02*
D03*
X425394Y643094D02*
D03*
X416831Y633445D02*
D03*
X338494Y788094D02*
D03*
X223668Y673824D02*
D03*
X428294Y538994D02*
D03*
X428194Y523394D02*
D03*
X148125Y719180D02*
D03*
X417421Y624193D02*
D03*
X414370Y642894D02*
D03*
X405894Y624394D02*
D03*
X425394Y624094D02*
D03*
X406394Y647894D02*
D03*
X414894D02*
D03*
X421457Y642992D02*
D03*
X407087D02*
D03*
X178394Y675616D02*
D03*
X158294Y675894D02*
D03*
X292388Y531735D02*
D03*
X164294Y669194D02*
D03*
X328894Y575494D02*
D03*
X244816Y618997D02*
D03*
X248507Y619010D02*
D03*
X178294Y619894D02*
D03*
X181883Y619899D02*
D03*
X261523Y666546D02*
D03*
X327494Y569494D02*
D03*
X223680Y677348D02*
D03*
X216833Y677333D02*
D03*
X363194Y590294D02*
D03*
X228809Y680861D02*
D03*
X265111Y666527D02*
D03*
X261532Y659679D02*
D03*
X248500Y632301D02*
D03*
X182981Y614887D02*
D03*
X259194Y563594D02*
D03*
X82906Y620894D02*
D03*
X46616Y620791D02*
D03*
X47306Y596694D02*
D03*
X235892Y700100D02*
D03*
X232633Y589224D02*
D03*
X214094Y593894D02*
D03*
X210283Y593786D02*
D03*
X282194Y622994D02*
D03*
X283738Y607062D02*
D03*
X421594Y647994D02*
D03*
X263194Y754994D02*
D03*
X266094D02*
D03*
X273294Y754894D02*
D03*
X283294Y778694D02*
D03*
Y773294D02*
D03*
X104494Y786294D02*
D03*
X179994Y815494D02*
D03*
X166794D02*
D03*
X180094Y811594D02*
D03*
X180194Y819594D02*
D03*
X166794Y819394D02*
D03*
Y811694D02*
D03*
X167194Y800294D02*
D03*
X180194Y800094D02*
D03*
X140194D02*
D03*
X127194Y800294D02*
D03*
X126794Y811694D02*
D03*
Y819394D02*
D03*
X140194Y819594D02*
D03*
X140094Y811594D02*
D03*
X126794Y815494D02*
D03*
X139994D02*
D03*
X100817Y801490D02*
D03*
X86947Y801402D02*
D03*
X86794Y811694D02*
D03*
Y819394D02*
D03*
X100194Y819594D02*
D03*
X100094Y811594D02*
D03*
X86794Y815494D02*
D03*
X99994D02*
D03*
X73094Y786494D02*
D03*
X144344Y786294D02*
D03*
X108994Y784094D02*
D03*
Y774994D02*
D03*
X149094D02*
D03*
Y784094D02*
D03*
X184444Y786294D02*
D03*
X109294Y792594D02*
D03*
X149194Y792794D02*
D03*
X425394Y647994D02*
D03*
X352394Y506394D02*
D03*
X332894Y502594D02*
D03*
X261694Y502194D02*
D03*
X48194Y506594D02*
D03*
X121194Y503194D02*
D03*
X324902Y573307D02*
D03*
X306594Y577539D02*
D03*
X186257Y745247D02*
D03*
X189825Y745224D02*
D03*
X70994Y799894D02*
D03*
X58144Y780544D02*
D03*
X363260Y531735D02*
D03*
X78794Y503694D02*
D03*
X81194Y501394D02*
D03*
X73508Y505494D02*
D03*
Y508294D02*
D03*
X53194Y507394D02*
D03*
X51094Y504394D02*
D03*
X168594Y522032D02*
D03*
X190694Y502194D02*
D03*
X196094Y505294D02*
D03*
X337994Y497979D02*
D03*
Y494580D02*
D03*
X350694Y470094D02*
D03*
X347394D02*
D03*
X370394Y498194D02*
D03*
Y494894D02*
D03*
X370349Y485205D02*
D03*
X370151Y502894D02*
D03*
X366994D02*
D03*
X338294Y505694D02*
D03*
X335694Y503994D02*
D03*
X299594Y501894D02*
D03*
X296194D02*
D03*
X293494Y503594D02*
D03*
X267094Y505494D02*
D03*
X264394Y503994D02*
D03*
X228494Y502494D02*
D03*
X225194D02*
D03*
X150294Y507894D02*
D03*
X151194Y504694D02*
D03*
X153994Y502894D02*
D03*
X400994Y523394D02*
D03*
X404394D02*
D03*
X407394Y529394D02*
D03*
Y525694D02*
D03*
Y536494D02*
D03*
Y532994D02*
D03*
X400994Y538994D02*
D03*
X404494D02*
D03*
X408094Y485894D02*
D03*
X410094Y483394D02*
D03*
X410194Y488394D02*
D03*
X424194Y483394D02*
D03*
X424294Y488394D02*
D03*
X426294Y485894D02*
D03*
Y505894D02*
D03*
X424294Y508394D02*
D03*
X424194Y503394D02*
D03*
X410194Y508394D02*
D03*
X410094Y503394D02*
D03*
X408094Y505894D02*
D03*
X306994Y598294D02*
D03*
X292194Y602694D02*
D03*
X189357Y639161D02*
D03*
X178913Y638087D02*
D03*
X178211Y631808D02*
D03*
X178731Y642147D02*
D03*
X155794Y640350D02*
D03*
X208901Y677351D02*
D03*
X197143Y680909D02*
D03*
X234327Y673801D02*
D03*
X201294Y722194D02*
D03*
X206319Y722219D02*
D03*
X211256Y722219D02*
D03*
X216272Y722189D02*
D03*
X221298Y722268D02*
D03*
X208947Y704988D02*
D03*
X191300Y705754D02*
D03*
X208865Y673887D02*
D03*
X216834Y673776D02*
D03*
X345852Y582786D02*
D03*
X373228Y565138D02*
D03*
X215080Y700060D02*
D03*
X214128Y597469D02*
D03*
X230848Y614163D02*
D03*
X230872Y610484D02*
D03*
X99139Y592981D02*
D03*
X120942Y592684D02*
D03*
X96085Y636621D02*
D03*
X139076Y627738D02*
D03*
X96348Y621836D02*
D03*
X385209Y826778D02*
D03*
X392293Y826736D02*
D03*
X281721Y707922D02*
D03*
X255594Y710394D02*
D03*
X234888Y720249D02*
D03*
X250651Y721394D02*
D03*
X224179Y734133D02*
D03*
X227951Y739053D02*
D03*
X225138Y767056D02*
D03*
X149392Y751991D02*
D03*
X93122Y736545D02*
D03*
X100125Y636403D02*
D03*
X245012Y592012D02*
D03*
X245019Y595010D02*
D03*
X156132Y622603D02*
D03*
X153765Y638405D02*
D03*
X227894Y699594D02*
D03*
Y696494D02*
D03*
X161394Y706694D02*
D03*
X163794Y704994D02*
D03*
Y702094D02*
D03*
X161494Y700294D02*
D03*
X144073Y719203D02*
D03*
X143979Y706220D02*
D03*
X155267Y706679D02*
D03*
X152967Y704880D02*
D03*
Y701979D02*
D03*
X155367Y700280D02*
D03*
X348266Y640282D02*
D03*
X292582Y673397D02*
D03*
X161237Y520350D02*
D03*
X258136Y754276D02*
D03*
X236760Y730489D02*
D03*
X169994Y755566D02*
D03*
X129894Y755494D02*
D03*
X90043Y755358D02*
D03*
X204813Y773795D02*
D03*
X76148Y747577D02*
D03*
X296194Y546375D02*
D03*
X367094Y546130D02*
D03*
X81794Y546343D02*
D03*
X157604Y543333D02*
D03*
X225394Y546312D02*
D03*
X132983Y668191D02*
D03*
X164694Y602194D02*
D03*
X183194Y706794D02*
D03*
X287437Y733561D02*
D03*
X291080Y728521D02*
D03*
X281967Y730613D02*
D03*
X284208Y732853D02*
D03*
X408174Y550346D02*
D03*
X409374Y553346D02*
D03*
X412874Y556546D02*
D03*
Y563146D02*
D03*
X415394Y569494D02*
D03*
X418794Y572294D02*
D03*
X421994Y569494D02*
D03*
X415674Y564946D02*
D03*
X412874Y559846D02*
D03*
X412574Y553346D02*
D03*
X382050Y826774D02*
D03*
X388400Y826774D02*
D03*
X373649Y485205D02*
D03*
X241037Y710749D02*
D03*
X154782Y590987D02*
D03*
X146349Y594375D02*
D03*
X149920Y591805D02*
D03*
X65562Y715314D02*
D03*
M02*
