G04 Layer_Physical_Order=3*
G04 Layer_Color=128*
%FSLAX25Y25*%
%MOIN*%
G70*
G01*
G75*
%ADD12C,0.01000*%
%ADD80C,0.02000*%
%ADD111C,0.15811*%
%ADD112C,0.06400*%
G04:AMPARAMS|DCode=113|XSize=84mil|YSize=84mil|CornerRadius=0mil|HoleSize=0mil|Usage=FLASHONLY|Rotation=0.000|XOffset=0mil|YOffset=0mil|HoleType=Round|Shape=Relief|Width=14mil|Gap=10mil|Entries=4|*
%AMTHD113*
7,0,0,0.08400,0.06400,0.01400,45*
%
%ADD113THD113*%
G04:AMPARAMS|DCode=114|XSize=79.433mil|YSize=79.433mil|CornerRadius=0mil|HoleSize=0mil|Usage=FLASHONLY|Rotation=0.000|XOffset=0mil|YOffset=0mil|HoleType=Round|Shape=Relief|Width=14mil|Gap=10mil|Entries=4|*
%AMTHD114*
7,0,0,0.07943,0.05943,0.01400,45*
%
%ADD114THD114*%
%ADD115C,0.05943*%
%ADD116C,0.15392*%
%ADD117C,0.11100*%
%ADD120C,0.06200*%
%ADD121C,0.08300*%
%ADD122C,0.07900*%
%ADD123C,0.08700*%
%ADD125C,0.14211*%
G04:AMPARAMS|DCode=126|XSize=99mil|YSize=99mil|CornerRadius=0mil|HoleSize=0mil|Usage=FLASHONLY|Rotation=0.000|XOffset=0mil|YOffset=0mil|HoleType=Round|Shape=Relief|Width=14mil|Gap=10mil|Entries=4|*
%AMTHD126*
7,0,0,0.09900,0.07900,0.01400,45*
%
%ADD126THD126*%
%ADD127C,0.03900*%
%ADD128C,0.12000*%
G04:AMPARAMS|DCode=129|XSize=107mil|YSize=107mil|CornerRadius=0mil|HoleSize=0mil|Usage=FLASHONLY|Rotation=0.000|XOffset=0mil|YOffset=0mil|HoleType=Round|Shape=Relief|Width=14mil|Gap=10mil|Entries=4|*
%AMTHD129*
7,0,0,0.10700,0.08700,0.01400,45*
%
%ADD129THD129*%
G54D12*
X182369Y907340D02*
Y912338D01*
X184869Y914837D01*
X187368Y912338D01*
Y907340D01*
Y911089D01*
X182369D01*
X189867Y912338D02*
Y907340D01*
Y909839D01*
X191117Y911089D01*
X192366Y912338D01*
X193616D01*
X202363D02*
X198614D01*
X197365Y911089D01*
Y908589D01*
X198614Y907340D01*
X202363D01*
X204862Y914837D02*
Y907340D01*
Y911089D01*
X206112Y912338D01*
X208611D01*
X209860Y911089D01*
Y907340D01*
X212360D02*
X214859D01*
X213609D01*
Y912338D01*
X212360D01*
X218608Y907340D02*
Y912338D01*
X219857D01*
X221107Y911089D01*
Y907340D01*
Y911089D01*
X222357Y912338D01*
X223606Y911089D01*
Y907340D01*
X226105Y906090D02*
X231104D01*
X233603Y913588D02*
X234853Y914837D01*
X237352D01*
X238601Y913588D01*
Y908589D01*
X237352Y907340D01*
X234853D01*
X233603Y908589D01*
Y913588D01*
X241101Y907340D02*
Y908589D01*
X242350D01*
Y907340D01*
X241101D01*
X251097D02*
Y914837D01*
X247348Y911089D01*
X252347D01*
X182369Y927337D02*
Y919840D01*
X187368D01*
X191117Y924838D02*
X193616D01*
X194865Y923589D01*
Y919840D01*
X191117D01*
X189867Y921089D01*
X191117Y922339D01*
X194865D01*
X197365Y924838D02*
Y921089D01*
X198614Y919840D01*
X202363D01*
Y918590D01*
X201113Y917341D01*
X199864D01*
X202363Y919840D02*
Y924838D01*
X208611Y919840D02*
X206112D01*
X204862Y921089D01*
Y923589D01*
X206112Y924838D01*
X208611D01*
X209860Y923589D01*
Y922339D01*
X204862D01*
X212360Y924838D02*
Y919840D01*
Y922339D01*
X213609Y923589D01*
X214859Y924838D01*
X216108D01*
X227355Y926088D02*
X228605Y927337D01*
X231104D01*
X232353Y926088D01*
Y924838D01*
X231104Y923589D01*
X229854D01*
X231104D01*
X232353Y922339D01*
Y921089D01*
X231104Y919840D01*
X228605D01*
X227355Y921089D01*
X182369Y932340D02*
Y939837D01*
X186118D01*
X187368Y938588D01*
Y936089D01*
X186118Y934839D01*
X182369D01*
X191117Y932340D02*
X193616D01*
X194865Y933589D01*
Y936089D01*
X193616Y937338D01*
X191117D01*
X189867Y936089D01*
Y933589D01*
X191117Y932340D01*
X197365Y937338D02*
Y933589D01*
X198614Y932340D01*
X199864Y933589D01*
X201113Y932340D01*
X202363Y933589D01*
Y937338D01*
X208611Y932340D02*
X206112D01*
X204862Y933589D01*
Y936089D01*
X206112Y937338D01*
X208611D01*
X209860Y936089D01*
Y934839D01*
X204862D01*
X212360Y937338D02*
Y932340D01*
Y934839D01*
X213609Y936089D01*
X214859Y937338D01*
X216108D01*
X227355Y932340D02*
Y939837D01*
X231104D01*
X232353Y938588D01*
Y936089D01*
X231104Y934839D01*
X227355D01*
X234853Y932340D02*
X237352D01*
X236102D01*
Y939837D01*
X234853D01*
X242350Y937338D02*
X244849D01*
X246099Y936089D01*
Y932340D01*
X242350D01*
X241101Y933589D01*
X242350Y934839D01*
X246099D01*
X248598Y932340D02*
Y937338D01*
X252347D01*
X253596Y936089D01*
Y932340D01*
X259844D02*
X257345D01*
X256096Y933589D01*
Y936089D01*
X257345Y937338D01*
X259844D01*
X261094Y936089D01*
Y934839D01*
X256096D01*
X406409Y263594D02*
X406283Y264588D01*
X405914Y265521D01*
X405325Y266332D01*
X404552Y266971D01*
X403645Y267398D01*
X402660Y267586D01*
X401659Y267523D01*
X400706Y267213D01*
X399859Y266676D01*
X399173Y265945D01*
X398690Y265066D01*
X398440Y264095D01*
Y263092D01*
X398690Y262121D01*
X399173Y261243D01*
X399859Y260512D01*
X400706Y259974D01*
X401659Y259665D01*
X402660Y259602D01*
X403645Y259789D01*
X404552Y260216D01*
X405325Y260856D01*
X405914Y261667D01*
X406283Y262599D01*
X406409Y263594D01*
X217394Y410594D02*
X217268Y411588D01*
X216899Y412521D01*
X216310Y413332D01*
X215537Y413971D01*
X214630Y414398D01*
X213645Y414586D01*
X212644Y414523D01*
X211691Y414213D01*
X210844Y413676D01*
X210158Y412945D01*
X209675Y412066D01*
X209425Y411095D01*
Y410092D01*
X209675Y409121D01*
X210158Y408243D01*
X210844Y407512D01*
X211691Y406974D01*
X212644Y406665D01*
X213645Y406602D01*
X214630Y406789D01*
X215537Y407216D01*
X216310Y407856D01*
X216899Y408667D01*
X217268Y409599D01*
X217394Y410594D01*
X177394Y410594D02*
X177268Y411588D01*
X176899Y412521D01*
X176310Y413332D01*
X175537Y413971D01*
X174630Y414398D01*
X173645Y414586D01*
X172644Y414523D01*
X171691Y414213D01*
X170844Y413676D01*
X170158Y412945D01*
X169675Y412066D01*
X169425Y411095D01*
Y410092D01*
X169675Y409121D01*
X170158Y408243D01*
X170844Y407512D01*
X171691Y406974D01*
X172644Y406665D01*
X173645Y406602D01*
X174630Y406789D01*
X175537Y407216D01*
X176310Y407856D01*
X176899Y408667D01*
X177268Y409599D01*
X177394Y410594D01*
X137394Y410594D02*
X137268Y411588D01*
X136899Y412521D01*
X136310Y413332D01*
X135537Y413971D01*
X134630Y414398D01*
X133645Y414586D01*
X132644Y414523D01*
X131691Y414213D01*
X130844Y413676D01*
X130158Y412945D01*
X129675Y412066D01*
X129425Y411095D01*
Y410092D01*
X129675Y409121D01*
X130158Y408243D01*
X130844Y407512D01*
X131691Y406974D01*
X132644Y406665D01*
X133645Y406602D01*
X134630Y406789D01*
X135537Y407216D01*
X136310Y407856D01*
X136899Y408667D01*
X137268Y409599D01*
X137394Y410594D01*
X97394Y410594D02*
X97268Y411588D01*
X96899Y412521D01*
X96310Y413332D01*
X95537Y413971D01*
X94630Y414398D01*
X93645Y414586D01*
X92644Y414523D01*
X91691Y414213D01*
X90844Y413676D01*
X90158Y412945D01*
X89675Y412066D01*
X89425Y411095D01*
Y410092D01*
X89675Y409121D01*
X90158Y408243D01*
X90844Y407512D01*
X91691Y406974D01*
X92644Y406665D01*
X93645Y406602D01*
X94630Y406789D01*
X95537Y407216D01*
X96310Y407856D01*
X96899Y408667D01*
X97268Y409599D01*
X97394Y410594D01*
X414426Y228272D02*
X414300Y229266D01*
X413931Y230199D01*
X413342Y231010D01*
X412569Y231649D01*
X411662Y232076D01*
X410677Y232264D01*
X409677Y232201D01*
X408723Y231891D01*
X407876Y231354D01*
X407190Y230623D01*
X406707Y229744D01*
X406458Y228773D01*
Y227770D01*
X406707Y226799D01*
X407190Y225921D01*
X407876Y225190D01*
X408723Y224652D01*
X409677Y224342D01*
X410677Y224279D01*
X411662Y224467D01*
X412569Y224894D01*
X413342Y225534D01*
X413931Y226345D01*
X414300Y227277D01*
X414426Y228272D01*
X427826Y228272D02*
X427700Y229266D01*
X427331Y230199D01*
X426742Y231010D01*
X425969Y231649D01*
X425062Y232076D01*
X424077Y232264D01*
X423076Y232201D01*
X422123Y231891D01*
X421276Y231354D01*
X420590Y230623D01*
X420107Y229744D01*
X419858Y228773D01*
Y227770D01*
X420107Y226799D01*
X420590Y225921D01*
X421276Y225190D01*
X422123Y224652D01*
X423076Y224342D01*
X424077Y224279D01*
X425062Y224467D01*
X425969Y224894D01*
X426742Y225534D01*
X427331Y226345D01*
X427700Y227277D01*
X427826Y228272D01*
X217394Y410594D02*
X217268Y411588D01*
X216899Y412521D01*
X216310Y413332D01*
X215537Y413971D01*
X214630Y414398D01*
X213645Y414586D01*
X212644Y414523D01*
X211691Y414213D01*
X210844Y413676D01*
X210158Y412945D01*
X209675Y412066D01*
X209425Y411095D01*
Y410092D01*
X209675Y409121D01*
X210158Y408243D01*
X210844Y407512D01*
X211691Y406974D01*
X212644Y406665D01*
X213645Y406602D01*
X214630Y406789D01*
X215537Y407216D01*
X216310Y407856D01*
X216899Y408667D01*
X217268Y409599D01*
X217394Y410594D01*
X177394Y410594D02*
X177268Y411588D01*
X176899Y412521D01*
X176310Y413332D01*
X175537Y413971D01*
X174630Y414398D01*
X173645Y414586D01*
X172644Y414523D01*
X171691Y414213D01*
X170844Y413676D01*
X170158Y412945D01*
X169675Y412066D01*
X169425Y411095D01*
Y410092D01*
X169675Y409121D01*
X170158Y408243D01*
X170844Y407512D01*
X171691Y406974D01*
X172644Y406665D01*
X173645Y406602D01*
X174630Y406789D01*
X175537Y407216D01*
X176310Y407856D01*
X176899Y408667D01*
X177268Y409599D01*
X177394Y410594D01*
X137294Y410694D02*
X137168Y411689D01*
X136799Y412621D01*
X136210Y413432D01*
X135437Y414071D01*
X134530Y414498D01*
X133545Y414686D01*
X132544Y414623D01*
X131591Y414313D01*
X130744Y413776D01*
X130058Y413045D01*
X129575Y412166D01*
X129325Y411195D01*
Y410192D01*
X129575Y409221D01*
X130058Y408343D01*
X130744Y407612D01*
X131591Y407074D01*
X132544Y406765D01*
X133545Y406702D01*
X134530Y406889D01*
X135437Y407316D01*
X136210Y407956D01*
X136799Y408767D01*
X137168Y409699D01*
X137294Y410694D01*
X97394Y410594D02*
X97268Y411588D01*
X96899Y412521D01*
X96310Y413332D01*
X95537Y413971D01*
X94630Y414398D01*
X93645Y414586D01*
X92644Y414523D01*
X91691Y414213D01*
X90844Y413676D01*
X90158Y412945D01*
X89675Y412066D01*
X89425Y411095D01*
Y410092D01*
X89675Y409121D01*
X90158Y408243D01*
X90844Y407512D01*
X91691Y406974D01*
X92644Y406665D01*
X93645Y406602D01*
X94630Y406789D01*
X95537Y407216D01*
X96310Y407856D01*
X96899Y408667D01*
X97268Y409599D01*
X97394Y410594D01*
X335714Y322694D02*
X342794D01*
X435394Y291394D02*
Y293594D01*
X238043Y353594D02*
X258043D01*
X59894Y26394D02*
X60894Y25394D01*
X435394Y380894D02*
Y388394D01*
X25394Y25394D02*
X25509Y128894D01*
X434894Y154394D02*
Y296894D01*
X26394Y369894D02*
Y393394D01*
X406409Y668594D02*
X406283Y669589D01*
X405914Y670521D01*
X405325Y671332D01*
X404552Y671971D01*
X403645Y672398D01*
X402660Y672586D01*
X401659Y672523D01*
X400706Y672213D01*
X399859Y671676D01*
X399173Y670945D01*
X398690Y670066D01*
X398440Y669095D01*
Y668092D01*
X398690Y667121D01*
X399173Y666243D01*
X399859Y665512D01*
X400706Y664974D01*
X401659Y664665D01*
X402660Y664602D01*
X403645Y664789D01*
X404552Y665216D01*
X405325Y665856D01*
X405914Y666667D01*
X406283Y667599D01*
X406409Y668594D01*
X217394Y815594D02*
X217268Y816588D01*
X216899Y817521D01*
X216310Y818332D01*
X215537Y818971D01*
X214630Y819398D01*
X213645Y819586D01*
X212644Y819523D01*
X211691Y819213D01*
X210844Y818676D01*
X210158Y817945D01*
X209675Y817066D01*
X209425Y816095D01*
Y815092D01*
X209675Y814121D01*
X210158Y813243D01*
X210844Y812512D01*
X211691Y811974D01*
X212644Y811664D01*
X213645Y811602D01*
X214630Y811790D01*
X215537Y812216D01*
X216310Y812856D01*
X216899Y813667D01*
X217268Y814599D01*
X217394Y815594D01*
X177394Y815594D02*
X177268Y816588D01*
X176899Y817521D01*
X176310Y818332D01*
X175537Y818971D01*
X174630Y819398D01*
X173645Y819586D01*
X172644Y819523D01*
X171691Y819213D01*
X170844Y818676D01*
X170158Y817945D01*
X169675Y817066D01*
X169425Y816095D01*
Y815092D01*
X169675Y814121D01*
X170158Y813243D01*
X170844Y812512D01*
X171691Y811974D01*
X172644Y811664D01*
X173645Y811602D01*
X174630Y811790D01*
X175537Y812216D01*
X176310Y812856D01*
X176899Y813667D01*
X177268Y814599D01*
X177394Y815594D01*
X137394Y815594D02*
X137268Y816588D01*
X136899Y817521D01*
X136310Y818332D01*
X135537Y818971D01*
X134630Y819398D01*
X133645Y819586D01*
X132644Y819523D01*
X131691Y819213D01*
X130844Y818676D01*
X130158Y817945D01*
X129675Y817066D01*
X129425Y816095D01*
Y815092D01*
X129675Y814121D01*
X130158Y813243D01*
X130844Y812512D01*
X131691Y811974D01*
X132644Y811664D01*
X133645Y811602D01*
X134630Y811790D01*
X135537Y812216D01*
X136310Y812856D01*
X136899Y813667D01*
X137268Y814599D01*
X137394Y815594D01*
X97394Y815594D02*
X97268Y816588D01*
X96899Y817521D01*
X96310Y818332D01*
X95537Y818971D01*
X94630Y819398D01*
X93645Y819586D01*
X92644Y819523D01*
X91691Y819213D01*
X90844Y818676D01*
X90158Y817945D01*
X89675Y817066D01*
X89425Y816095D01*
Y815092D01*
X89675Y814121D01*
X90158Y813243D01*
X90844Y812512D01*
X91691Y811974D01*
X92644Y811664D01*
X93645Y811602D01*
X94630Y811790D01*
X95537Y812216D01*
X96310Y812856D01*
X96899Y813667D01*
X97268Y814599D01*
X97394Y815594D01*
X414426Y633272D02*
X414300Y634266D01*
X413931Y635199D01*
X413342Y636010D01*
X412569Y636649D01*
X411662Y637076D01*
X410677Y637264D01*
X409677Y637201D01*
X408723Y636891D01*
X407876Y636354D01*
X407190Y635623D01*
X406707Y634744D01*
X406458Y633773D01*
Y632770D01*
X406707Y631799D01*
X407190Y630921D01*
X407876Y630190D01*
X408723Y629652D01*
X409677Y629343D01*
X410677Y629280D01*
X411662Y629467D01*
X412569Y629894D01*
X413342Y630534D01*
X413931Y631345D01*
X414300Y632277D01*
X414426Y633272D01*
X427826Y633272D02*
X427700Y634266D01*
X427331Y635199D01*
X426742Y636010D01*
X425969Y636649D01*
X425062Y637076D01*
X424077Y637264D01*
X423076Y637201D01*
X422123Y636891D01*
X421276Y636354D01*
X420590Y635623D01*
X420107Y634744D01*
X419858Y633773D01*
Y632770D01*
X420107Y631799D01*
X420590Y630921D01*
X421276Y630190D01*
X422123Y629652D01*
X423076Y629343D01*
X424077Y629280D01*
X425062Y629467D01*
X425969Y629894D01*
X426742Y630534D01*
X427331Y631345D01*
X427700Y632277D01*
X427826Y633272D01*
X217394Y815594D02*
X217268Y816588D01*
X216899Y817521D01*
X216310Y818332D01*
X215537Y818971D01*
X214630Y819398D01*
X213645Y819586D01*
X212644Y819523D01*
X211691Y819213D01*
X210844Y818676D01*
X210158Y817945D01*
X209675Y817066D01*
X209425Y816095D01*
Y815092D01*
X209675Y814121D01*
X210158Y813243D01*
X210844Y812512D01*
X211691Y811974D01*
X212644Y811664D01*
X213645Y811602D01*
X214630Y811790D01*
X215537Y812216D01*
X216310Y812856D01*
X216899Y813667D01*
X217268Y814599D01*
X217394Y815594D01*
X177394Y815594D02*
X177268Y816588D01*
X176899Y817521D01*
X176310Y818332D01*
X175537Y818971D01*
X174630Y819398D01*
X173645Y819586D01*
X172644Y819523D01*
X171691Y819213D01*
X170844Y818676D01*
X170158Y817945D01*
X169675Y817066D01*
X169425Y816095D01*
Y815092D01*
X169675Y814121D01*
X170158Y813243D01*
X170844Y812512D01*
X171691Y811974D01*
X172644Y811664D01*
X173645Y811602D01*
X174630Y811790D01*
X175537Y812216D01*
X176310Y812856D01*
X176899Y813667D01*
X177268Y814599D01*
X177394Y815594D01*
X137294Y815694D02*
X137168Y816689D01*
X136799Y817621D01*
X136210Y818432D01*
X135437Y819071D01*
X134530Y819498D01*
X133545Y819686D01*
X132544Y819623D01*
X131591Y819313D01*
X130744Y818776D01*
X130058Y818045D01*
X129575Y817166D01*
X129325Y816195D01*
Y815192D01*
X129575Y814221D01*
X130058Y813343D01*
X130744Y812612D01*
X131591Y812074D01*
X132544Y811765D01*
X133545Y811702D01*
X134530Y811889D01*
X135437Y812316D01*
X136210Y812955D01*
X136799Y813767D01*
X137168Y814699D01*
X137294Y815694D01*
X97394Y815594D02*
X97268Y816588D01*
X96899Y817521D01*
X96310Y818332D01*
X95537Y818971D01*
X94630Y819398D01*
X93645Y819586D01*
X92644Y819523D01*
X91691Y819213D01*
X90844Y818676D01*
X90158Y817945D01*
X89675Y817066D01*
X89425Y816095D01*
Y815092D01*
X89675Y814121D01*
X90158Y813243D01*
X90844Y812512D01*
X91691Y811974D01*
X92644Y811664D01*
X93645Y811602D01*
X94630Y811790D01*
X95537Y812216D01*
X96310Y812856D01*
X96899Y813667D01*
X97268Y814599D01*
X97394Y815594D01*
X335714Y727694D02*
X342794D01*
X435394Y696394D02*
Y698594D01*
X238043Y758594D02*
X258043D01*
X59894Y431394D02*
X60894Y430394D01*
X435394Y785894D02*
Y793394D01*
X25394Y430394D02*
X25509Y533894D01*
X434894Y559394D02*
Y701894D01*
X26394Y774894D02*
Y798394D01*
G54D80*
X141729Y147029D02*
X141732Y147031D01*
Y149194D01*
X110894D02*
X141732D01*
X233111Y351700D02*
Y353608D01*
X224367Y351700D02*
X233111D01*
X224367Y351637D02*
Y351700D01*
X226874Y359482D02*
Y394166D01*
X226864Y359482D02*
X226874D01*
X226861Y359490D02*
X233135D01*
Y353613D02*
Y359490D01*
X181627Y281651D02*
X185164D01*
X181627Y267373D02*
Y281651D01*
X172535Y267373D02*
X181627D01*
X172511Y267350D02*
X172535Y267373D01*
X172511Y198155D02*
Y267350D01*
X248394Y415494D02*
X258394D01*
Y405594D02*
Y415494D01*
X248394Y405594D02*
X258394D01*
X248394D02*
Y415494D01*
X404794Y181294D02*
X435394D01*
X404794Y169394D02*
Y181294D01*
Y169394D02*
X434894D01*
X151485Y378537D02*
X173732D01*
Y358144D02*
Y378537D01*
X151485Y358144D02*
X173732D01*
X151485D02*
Y378537D01*
X111385D02*
X133632D01*
Y358144D02*
Y378537D01*
X111385Y358144D02*
X133632D01*
X111385D02*
Y378537D01*
X133632D01*
Y358144D02*
Y378537D01*
X111385Y358144D02*
X133632D01*
X111385D02*
Y378537D01*
X141729Y130958D02*
Y147029D01*
X337794Y25394D02*
Y59194D01*
X278394Y25494D02*
Y45294D01*
X255094Y68594D02*
X278394Y45294D01*
X185594Y25594D02*
Y131094D01*
X110894Y25494D02*
Y44994D01*
X112394Y46494D01*
Y58594D01*
X109094Y61894D02*
X112394Y58594D01*
X109094Y61894D02*
Y87194D01*
X113694Y91794D01*
X25394Y134094D02*
Y135494D01*
X391494Y313894D02*
X394794D01*
X415394D01*
X418294Y310994D01*
Y296394D02*
Y310994D01*
X411294Y289394D02*
X418294Y296394D01*
X395494Y289394D02*
X411294D01*
X392794Y286694D02*
X395494Y289394D01*
X338394Y286694D02*
X392794D01*
X334094D02*
X338394D01*
X328713Y292074D02*
X334094Y286694D01*
X328713Y292074D02*
Y315594D01*
X363794Y343694D02*
X366394Y341094D01*
X370894D01*
X383594Y353794D01*
X412994D01*
X416894Y349894D01*
Y337194D02*
Y349894D01*
X412394Y332694D02*
X416894Y337194D01*
X395294Y332694D02*
X412394D01*
X391294Y328694D02*
X395294Y332694D01*
X391294Y304594D02*
Y328694D01*
X387694Y300994D02*
X391294Y304594D01*
X367694Y300994D02*
X387694D01*
X362094Y306594D02*
X367694Y300994D01*
X362094Y306594D02*
Y331194D01*
X356694Y336594D02*
X362094Y331194D01*
X342794Y322694D02*
X360494Y340394D01*
X335714Y322694D02*
X342794D01*
X319914Y306894D02*
X335714Y322694D01*
X360494Y340394D02*
X363994Y343894D01*
X258094Y353594D02*
X260894Y350794D01*
X233153Y353594D02*
X238094D01*
X71535Y358144D02*
Y378537D01*
Y358144D02*
X93782D01*
Y378537D01*
X71535D02*
X93782D01*
X324194Y380894D02*
Y430194D01*
X354894Y380894D02*
X435394D01*
X55394Y357994D02*
Y369394D01*
X26394Y369894D02*
X55394D01*
X269215Y394294D02*
X282594Y380915D01*
X55394Y357994D02*
X191194D01*
X197494Y351694D01*
X224394D01*
X238094Y353594D02*
X258094D01*
X226794Y394194D02*
X269115D01*
X329494Y67494D02*
X337694Y59294D01*
X67394Y132294D02*
Y149194D01*
Y132294D02*
X76194Y123494D01*
X79294D01*
X81994Y126194D01*
Y149194D01*
X106694D01*
X141729Y130958D02*
X149094Y123594D01*
X152094D01*
X154894Y126394D01*
Y142882D01*
X169282D01*
X214394Y128994D02*
X219994Y123394D01*
X223094D01*
X225094Y125394D01*
X169294Y142870D02*
X177991D01*
X106694Y149194D02*
X110894D01*
X284494Y129394D02*
X290794Y123094D01*
X293894D01*
X296094Y125294D01*
Y151194D01*
X255108Y151161D02*
X277541Y151186D01*
X356794Y127994D02*
X361794Y122994D01*
X364794D01*
X366994Y125194D01*
Y151094D01*
X398194Y25394D02*
Y150994D01*
X398094Y151094D02*
X398194Y150994D01*
X366994Y151094D02*
X398094D01*
X25494Y149194D02*
X67394D01*
X113694Y132994D02*
X121394D01*
Y149194D01*
X187794Y131094D02*
Y148894D01*
X185594Y131094D02*
X187794D01*
Y148894D02*
X206426D01*
X255094Y68594D02*
Y151194D01*
X296094D02*
X348018D01*
X329494Y67494D02*
Y151194D01*
X255495Y198155D02*
Y281735D01*
X172511Y198155D02*
X255495D01*
X196356Y281723D02*
Y304325D01*
X185234D02*
X196356D01*
X185234Y281727D02*
Y304325D01*
X196361Y281735D02*
X255495D01*
X249078Y181372D02*
X270456D01*
X239842Y295080D02*
X270456D01*
X239842Y292001D02*
Y295080D01*
X232061Y292001D02*
X239842D01*
X232061D02*
Y296864D01*
X206038D02*
X232061D01*
X206038D02*
Y317859D01*
X158406D02*
X206038D01*
X158406Y220912D02*
Y317859D01*
X153075Y220912D02*
X158406D01*
X153075Y196649D02*
Y220912D01*
Y196649D02*
X158406D01*
Y181361D02*
Y196649D01*
Y181361D02*
X229673D01*
Y183918D01*
X249078D01*
Y181372D02*
Y183918D01*
X270456Y181372D02*
X272339D01*
Y295080D01*
X270456D02*
X272339D01*
X398194Y150994D02*
Y192524D01*
X435220D01*
X324194Y380894D02*
X356294D01*
X363994Y343894D02*
Y380882D01*
X282712Y336380D02*
X312110Y306982D01*
X319825D01*
X260894Y350794D02*
X282712D01*
Y336380D02*
Y350794D01*
Y380797D01*
X206445Y136973D02*
X214780Y128638D01*
X206445Y136973D02*
Y148810D01*
X277609Y136142D02*
X284999Y128752D01*
X277609Y136142D02*
Y151151D01*
X348067Y136827D02*
X357517Y127377D01*
X348067Y136827D02*
Y151000D01*
X225107Y126164D02*
X254976D01*
X177991Y140832D02*
Y142870D01*
Y140832D02*
X187835D01*
X105117Y113054D02*
X113680D01*
X105117Y106000D02*
Y113054D01*
Y106000D02*
X113680D01*
X113687Y113018D02*
Y132910D01*
X113631Y91782D02*
Y106023D01*
X169282Y142882D02*
X169294Y142870D01*
X141729Y552029D02*
X141732Y552032D01*
Y554194D01*
X110894D02*
X141732D01*
X233111Y756700D02*
Y758608D01*
X224367Y756700D02*
X233111D01*
X224367Y756637D02*
Y756700D01*
X226874Y764482D02*
Y799166D01*
X226864Y764482D02*
X226874D01*
X226861Y764490D02*
X233135D01*
Y758613D02*
Y764490D01*
X181627Y686651D02*
X185164D01*
X181627Y672373D02*
Y686651D01*
X172535Y672373D02*
X181627D01*
X172511Y672350D02*
X172535Y672373D01*
X172511Y603155D02*
Y672350D01*
X248394Y820494D02*
X258394D01*
Y810594D02*
Y820494D01*
X248394Y810594D02*
X258394D01*
X248394D02*
Y820494D01*
X404794Y586294D02*
X435394D01*
X404794Y574394D02*
Y586294D01*
Y574394D02*
X434894D01*
X151485Y783537D02*
X173732D01*
Y763144D02*
Y783537D01*
X151485Y763144D02*
X173732D01*
X151485D02*
Y783537D01*
X111385D02*
X133632D01*
Y763144D02*
Y783537D01*
X111385Y763144D02*
X133632D01*
X111385D02*
Y783537D01*
X133632D01*
Y763144D02*
Y783537D01*
X111385Y763144D02*
X133632D01*
X111385D02*
Y783537D01*
X141729Y535958D02*
Y552029D01*
X337794Y430394D02*
Y464194D01*
X278394Y430494D02*
Y450294D01*
X255094Y473594D02*
X278394Y450294D01*
X185594Y430594D02*
Y536094D01*
X110894Y430494D02*
Y449994D01*
X112394Y451494D01*
Y463594D01*
X109094Y466894D02*
X112394Y463594D01*
X109094Y466894D02*
Y492194D01*
X113694Y496794D01*
X25394Y539094D02*
Y540494D01*
X391494Y718894D02*
X394794D01*
X415394D01*
X418294Y715994D01*
Y701394D02*
Y715994D01*
X411294Y694394D02*
X418294Y701394D01*
X395494Y694394D02*
X411294D01*
X392794Y691694D02*
X395494Y694394D01*
X338394Y691694D02*
X392794D01*
X334094D02*
X338394D01*
X328713Y697074D02*
X334094Y691694D01*
X328713Y697074D02*
Y720594D01*
X363794Y748694D02*
X366394Y746094D01*
X370894D01*
X383594Y758794D01*
X412994D01*
X416894Y754894D01*
Y742194D02*
Y754894D01*
X412394Y737694D02*
X416894Y742194D01*
X395294Y737694D02*
X412394D01*
X391294Y733694D02*
X395294Y737694D01*
X391294Y709594D02*
Y733694D01*
X387694Y705994D02*
X391294Y709594D01*
X367694Y705994D02*
X387694D01*
X362094Y711594D02*
X367694Y705994D01*
X362094Y711594D02*
Y736194D01*
X356694Y741594D02*
X362094Y736194D01*
X342794Y727694D02*
X360494Y745394D01*
X335714Y727694D02*
X342794D01*
X319914Y711894D02*
X335714Y727694D01*
X360494Y745394D02*
X363994Y748894D01*
X258094Y758594D02*
X260894Y755794D01*
X233153Y758594D02*
X238094D01*
X71535Y763144D02*
Y783537D01*
Y763144D02*
X93782D01*
Y783537D01*
X71535D02*
X93782D01*
X324194Y785894D02*
Y835194D01*
X354894Y785894D02*
X435394D01*
X55394Y762994D02*
Y774394D01*
X26394Y774894D02*
X55394D01*
X269215Y799294D02*
X282594Y785915D01*
X55394Y762994D02*
X191194D01*
X197494Y756694D01*
X224394D01*
X238094Y758594D02*
X258094D01*
X226794Y799194D02*
X269115D01*
X329494Y472494D02*
X337694Y464294D01*
X67394Y537294D02*
Y554194D01*
Y537294D02*
X76194Y528494D01*
X79294D01*
X81994Y531194D01*
Y554194D01*
X106694D01*
X141729Y535958D02*
X149094Y528594D01*
X152094D01*
X154894Y531394D01*
Y547882D01*
X169282D01*
X214394Y533994D02*
X219994Y528394D01*
X223094D01*
X225094Y530394D01*
X169294Y547870D02*
X177991D01*
X106694Y554194D02*
X110894D01*
X284494Y534394D02*
X290794Y528094D01*
X293894D01*
X296094Y530294D01*
Y556194D01*
X255108Y556161D02*
X277541Y556186D01*
X356794Y532994D02*
X361794Y527994D01*
X364794D01*
X366994Y530194D01*
Y556094D01*
X398194Y430394D02*
Y555994D01*
X398094Y556094D02*
X398194Y555994D01*
X366994Y556094D02*
X398094D01*
X25494Y554194D02*
X67394D01*
X113694Y537994D02*
X121394D01*
Y554194D01*
X187794Y536094D02*
Y553894D01*
X185594Y536094D02*
X187794D01*
Y553894D02*
X206426D01*
X255094Y473594D02*
Y556194D01*
X296094D02*
X348018D01*
X329494Y472494D02*
Y556194D01*
X255495Y603155D02*
Y686735D01*
X172511Y603155D02*
X255495D01*
X196356Y686723D02*
Y709325D01*
X185234D02*
X196356D01*
X185234Y686727D02*
Y709325D01*
X196361Y686735D02*
X255495D01*
X249078Y586372D02*
X270456D01*
X239842Y700080D02*
X270456D01*
X239842Y697001D02*
Y700080D01*
X232061Y697001D02*
X239842D01*
X232061D02*
Y701864D01*
X206038D02*
X232061D01*
X206038D02*
Y722859D01*
X158406D02*
X206038D01*
X158406Y625912D02*
Y722859D01*
X153075Y625912D02*
X158406D01*
X153075Y601649D02*
Y625912D01*
Y601649D02*
X158406D01*
Y586361D02*
Y601649D01*
Y586361D02*
X229673D01*
Y588918D01*
X249078D01*
Y586372D02*
Y588918D01*
X270456Y586372D02*
X272339D01*
Y700080D01*
X270456D02*
X272339D01*
X398194Y555994D02*
Y597524D01*
X435220D01*
X324194Y785894D02*
X356294D01*
X363994Y748894D02*
Y785882D01*
X282712Y741380D02*
X312110Y711982D01*
X319825D01*
X260894Y755794D02*
X282712D01*
Y741380D02*
Y755794D01*
Y785797D01*
X206445Y541973D02*
X214780Y533638D01*
X206445Y541973D02*
Y553810D01*
X277609Y541142D02*
X284999Y533752D01*
X277609Y541142D02*
Y556151D01*
X348067Y541826D02*
X357517Y532377D01*
X348067Y541826D02*
Y556000D01*
X225107Y531164D02*
X254976D01*
X177991Y545832D02*
Y547870D01*
Y545832D02*
X187835D01*
X105117Y518054D02*
X113680D01*
X105117Y511000D02*
Y518054D01*
Y511000D02*
X113680D01*
X113687Y518018D02*
Y537910D01*
X113631Y496782D02*
Y511023D01*
X169282Y547882D02*
X169294Y547870D01*
G54D111*
X13287Y847175D02*
D03*
X446610Y848283D02*
D03*
X447319Y13583D02*
D03*
X13287Y13287D02*
D03*
G54D112*
X381194Y211694D02*
D03*
X391194D02*
D03*
X359894D02*
D03*
X349894D02*
D03*
X37794Y379894D02*
D03*
X296694Y211694D02*
D03*
X286694D02*
D03*
X318394D02*
D03*
X328394D02*
D03*
X342144Y280294D02*
D03*
X332144D02*
D03*
X373194D02*
D03*
X383194D02*
D03*
X301094D02*
D03*
X291094D02*
D03*
X373194Y256294D02*
D03*
X363194D02*
D03*
X322144D02*
D03*
X332144D02*
D03*
X291094D02*
D03*
X281094D02*
D03*
X359894Y39894D02*
D03*
X369894D02*
D03*
X379894D02*
D03*
X389894D02*
D03*
X300394D02*
D03*
X310394D02*
D03*
X320394D02*
D03*
X330394D02*
D03*
X190394D02*
D03*
X200394D02*
D03*
X210394D02*
D03*
X220394D02*
D03*
X241394D02*
D03*
X251394D02*
D03*
X261394D02*
D03*
X271394D02*
D03*
X130894D02*
D03*
X140894D02*
D03*
X150894D02*
D03*
X160894D02*
D03*
X100894D02*
D03*
X90894D02*
D03*
X80894D02*
D03*
X70894D02*
D03*
X33994Y329994D02*
D03*
Y347794D02*
D03*
X417194Y100894D02*
D03*
Y90894D02*
D03*
Y70894D02*
D03*
X381894Y170894D02*
D03*
X371894D02*
D03*
X361894D02*
D03*
X351894D02*
D03*
X391894D02*
D03*
X381194Y616694D02*
D03*
X391194D02*
D03*
X359894D02*
D03*
X349894D02*
D03*
X37794Y784894D02*
D03*
X296694Y616694D02*
D03*
X286694D02*
D03*
X318394D02*
D03*
X328394D02*
D03*
X342144Y685294D02*
D03*
X332144D02*
D03*
X373194D02*
D03*
X383194D02*
D03*
X301094D02*
D03*
X291094D02*
D03*
X373194Y661294D02*
D03*
X363194D02*
D03*
X322144D02*
D03*
X332144D02*
D03*
X291094D02*
D03*
X281094D02*
D03*
X359894Y444894D02*
D03*
X369894D02*
D03*
X379894D02*
D03*
X389894D02*
D03*
X300394D02*
D03*
X310394D02*
D03*
X320394D02*
D03*
X330394D02*
D03*
X190394D02*
D03*
X200394D02*
D03*
X210394D02*
D03*
X220394D02*
D03*
X241394D02*
D03*
X251394D02*
D03*
X261394D02*
D03*
X271394D02*
D03*
X130894D02*
D03*
X140894D02*
D03*
X150894D02*
D03*
X160894D02*
D03*
X100894D02*
D03*
X90894D02*
D03*
X80894D02*
D03*
X70894D02*
D03*
X33994Y734994D02*
D03*
Y752794D02*
D03*
X417194Y505894D02*
D03*
Y495894D02*
D03*
Y475894D02*
D03*
X381894Y575894D02*
D03*
X371894D02*
D03*
X361894D02*
D03*
X351894D02*
D03*
X391894D02*
D03*
G54D113*
X47794Y379894D02*
D03*
X322144Y280294D02*
D03*
X363194D02*
D03*
X281094D02*
D03*
X383194Y256294D02*
D03*
X342144D02*
D03*
X301094D02*
D03*
X417194Y80894D02*
D03*
X47794Y784894D02*
D03*
X322144Y685294D02*
D03*
X363194D02*
D03*
X281094D02*
D03*
X383194Y661294D02*
D03*
X342144D02*
D03*
X301094D02*
D03*
X417194Y485894D02*
D03*
G54D114*
X199194Y355694D02*
D03*
X209194D02*
D03*
X219194D02*
D03*
X229194D02*
D03*
X105494Y165994D02*
D03*
X104694Y207394D02*
D03*
X199194Y760694D02*
D03*
X209194D02*
D03*
X219194D02*
D03*
X229194D02*
D03*
X105494Y570994D02*
D03*
X104694Y612394D02*
D03*
G54D115*
X199194Y345694D02*
D03*
X209194D02*
D03*
X219194D02*
D03*
X229194D02*
D03*
X215494Y175994D02*
D03*
Y165994D02*
D03*
X205494Y175994D02*
D03*
Y165994D02*
D03*
X195494Y175994D02*
D03*
Y165994D02*
D03*
X185494Y175994D02*
D03*
Y165994D02*
D03*
X175494Y175994D02*
D03*
Y165994D02*
D03*
X165494Y175994D02*
D03*
Y165994D02*
D03*
X155494Y175994D02*
D03*
Y165994D02*
D03*
X145494Y175994D02*
D03*
Y165994D02*
D03*
X135494Y175994D02*
D03*
Y165994D02*
D03*
X125494Y175994D02*
D03*
Y165994D02*
D03*
X115494Y175994D02*
D03*
Y165994D02*
D03*
X105494Y175994D02*
D03*
X104694Y217394D02*
D03*
X114694Y207394D02*
D03*
Y217394D02*
D03*
X124694Y207394D02*
D03*
Y217394D02*
D03*
X134694Y207394D02*
D03*
Y217394D02*
D03*
X144694Y207394D02*
D03*
Y217394D02*
D03*
X105494Y236894D02*
D03*
Y246894D02*
D03*
X115494Y236894D02*
D03*
Y246894D02*
D03*
X125494Y236894D02*
D03*
Y246894D02*
D03*
X135494Y236894D02*
D03*
Y246894D02*
D03*
X145494Y236894D02*
D03*
Y246894D02*
D03*
X199194Y750694D02*
D03*
X209194D02*
D03*
X219194D02*
D03*
X229194D02*
D03*
X215494Y580994D02*
D03*
Y570994D02*
D03*
X205494Y580994D02*
D03*
Y570994D02*
D03*
X195494Y580994D02*
D03*
Y570994D02*
D03*
X185494Y580994D02*
D03*
Y570994D02*
D03*
X175494Y580994D02*
D03*
Y570994D02*
D03*
X165494Y580994D02*
D03*
Y570994D02*
D03*
X155494Y580994D02*
D03*
Y570994D02*
D03*
X145494Y580994D02*
D03*
Y570994D02*
D03*
X135494Y580994D02*
D03*
Y570994D02*
D03*
X125494Y580994D02*
D03*
Y570994D02*
D03*
X115494Y580994D02*
D03*
Y570994D02*
D03*
X105494Y580994D02*
D03*
X104694Y622394D02*
D03*
X114694Y612394D02*
D03*
Y622394D02*
D03*
X124694Y612394D02*
D03*
Y622394D02*
D03*
X134694Y612394D02*
D03*
Y622394D02*
D03*
X144694Y612394D02*
D03*
Y622394D02*
D03*
X105494Y641894D02*
D03*
Y651894D02*
D03*
X115494Y641894D02*
D03*
Y651894D02*
D03*
X125494Y641894D02*
D03*
Y651894D02*
D03*
X135494Y641894D02*
D03*
Y651894D02*
D03*
X145494Y641894D02*
D03*
Y651894D02*
D03*
G54D116*
X240894Y169694D02*
D03*
X62294Y335894D02*
D03*
X38438Y144959D02*
D03*
X240894Y574694D02*
D03*
X62294Y740894D02*
D03*
X38438Y549959D02*
D03*
G54D117*
X50394Y231694D02*
D03*
Y279016D02*
D03*
Y636694D02*
D03*
Y684016D02*
D03*
G54D120*
X61094Y250394D02*
D03*
Y260315D02*
D03*
X68994D02*
D03*
Y250394D02*
D03*
X61094Y655394D02*
D03*
Y665315D02*
D03*
X68994D02*
D03*
Y655394D02*
D03*
G54D121*
X43794Y325094D02*
D03*
Y352694D02*
D03*
Y730094D02*
D03*
Y757694D02*
D03*
G54D122*
X73394Y410594D02*
D03*
X93394D02*
D03*
X113394D02*
D03*
X133394D02*
D03*
X153394D02*
D03*
X173394D02*
D03*
X193394D02*
D03*
X213394D02*
D03*
X233394D02*
D03*
X253394D02*
D03*
X402457Y263642D02*
D03*
Y283642D02*
D03*
Y323642D02*
D03*
Y363642D02*
D03*
X73394Y815594D02*
D03*
X93394D02*
D03*
X113394D02*
D03*
X133394D02*
D03*
X153394D02*
D03*
X173394D02*
D03*
X193394D02*
D03*
X213394D02*
D03*
X233394D02*
D03*
X253394D02*
D03*
X402457Y668642D02*
D03*
Y688642D02*
D03*
Y728642D02*
D03*
Y768642D02*
D03*
G54D123*
X370494Y363794D02*
D03*
X383894D02*
D03*
X423826Y228272D02*
D03*
X410426D02*
D03*
Y175272D02*
D03*
X423826D02*
D03*
X370494Y768794D02*
D03*
X383894D02*
D03*
X423826Y633272D02*
D03*
X410426D02*
D03*
Y580272D02*
D03*
X423826D02*
D03*
G54D125*
X420394Y40394D02*
D03*
X40394D02*
D03*
Y415394D02*
D03*
X420394D02*
D03*
Y445394D02*
D03*
X40394D02*
D03*
Y820394D02*
D03*
X420394D02*
D03*
G54D126*
X402457Y303642D02*
D03*
Y343642D02*
D03*
Y708642D02*
D03*
Y748642D02*
D03*
G54D127*
X413394Y33394D02*
D03*
X427394D02*
D03*
Y47394D02*
D03*
X413394D02*
D03*
X410394Y40394D02*
D03*
X430394D02*
D03*
X420394Y50394D02*
D03*
Y30394D02*
D03*
X33394Y33394D02*
D03*
X47394D02*
D03*
Y47394D02*
D03*
X33394D02*
D03*
X30394Y40394D02*
D03*
X50394D02*
D03*
X40394Y50394D02*
D03*
Y30394D02*
D03*
X33394Y408394D02*
D03*
X47394D02*
D03*
Y422394D02*
D03*
X33394D02*
D03*
X30394Y415394D02*
D03*
X50394D02*
D03*
X40394Y425394D02*
D03*
Y405394D02*
D03*
X413394Y408394D02*
D03*
X427394D02*
D03*
Y422394D02*
D03*
X413394D02*
D03*
X410394Y415394D02*
D03*
X430394D02*
D03*
X420394Y425394D02*
D03*
Y405394D02*
D03*
X429994Y210594D02*
D03*
X338894Y51294D02*
D03*
X101694Y106494D02*
D03*
X300204Y196283D02*
D03*
X341820Y116963D02*
D03*
Y121294D02*
D03*
Y125624D02*
D03*
X346151Y116963D02*
D03*
Y121294D02*
D03*
Y125624D02*
D03*
X350482Y116963D02*
D03*
Y121294D02*
D03*
Y125624D02*
D03*
X354812Y116963D02*
D03*
Y121294D02*
D03*
Y125624D02*
D03*
X359143Y116963D02*
D03*
Y121294D02*
D03*
Y125624D02*
D03*
X425133Y205664D02*
D03*
X270934Y116963D02*
D03*
Y121294D02*
D03*
Y125624D02*
D03*
X275265Y116963D02*
D03*
Y121294D02*
D03*
Y125624D02*
D03*
X279596Y116963D02*
D03*
Y121294D02*
D03*
Y125624D02*
D03*
X283926Y116963D02*
D03*
Y121294D02*
D03*
Y125624D02*
D03*
X288257Y116963D02*
D03*
Y121294D02*
D03*
Y125624D02*
D03*
X129162Y116963D02*
D03*
Y121294D02*
D03*
Y125624D02*
D03*
X133493Y116963D02*
D03*
Y121294D02*
D03*
Y125624D02*
D03*
X137824Y116963D02*
D03*
Y121294D02*
D03*
Y125624D02*
D03*
X142155Y116963D02*
D03*
Y121294D02*
D03*
Y125624D02*
D03*
X146485Y116963D02*
D03*
Y121294D02*
D03*
Y125624D02*
D03*
X56477Y116963D02*
D03*
Y121294D02*
D03*
Y125624D02*
D03*
X60807Y116963D02*
D03*
Y121294D02*
D03*
Y125624D02*
D03*
X65138Y116963D02*
D03*
Y121294D02*
D03*
Y125624D02*
D03*
X69469Y116963D02*
D03*
Y121294D02*
D03*
Y125624D02*
D03*
X73799Y116963D02*
D03*
Y121294D02*
D03*
Y125624D02*
D03*
X270768Y305610D02*
D03*
Y301279D02*
D03*
X266437Y305610D02*
D03*
Y301279D02*
D03*
X240894Y160639D02*
D03*
Y178749D02*
D03*
X249949Y169694D02*
D03*
X231839D02*
D03*
X53239Y335894D02*
D03*
X71349D02*
D03*
X62294Y344949D02*
D03*
Y326839D02*
D03*
X38438Y135904D02*
D03*
Y154014D02*
D03*
X47493Y144959D02*
D03*
X29382D02*
D03*
X348525Y407836D02*
D03*
X352462D02*
D03*
Y403899D02*
D03*
X348525D02*
D03*
X344588D02*
D03*
Y407836D02*
D03*
Y411773D02*
D03*
X348525D02*
D03*
X352462D02*
D03*
X200074Y116963D02*
D03*
Y121294D02*
D03*
Y125624D02*
D03*
X204405Y116963D02*
D03*
Y121294D02*
D03*
Y125624D02*
D03*
X208736Y116963D02*
D03*
Y121294D02*
D03*
Y125624D02*
D03*
X213066Y116963D02*
D03*
Y121294D02*
D03*
Y125624D02*
D03*
X217397Y116963D02*
D03*
Y121294D02*
D03*
Y125624D02*
D03*
X193124Y309593D02*
D03*
X170773Y296933D02*
D03*
X69551Y214034D02*
D03*
X115808Y257859D02*
D03*
X107681Y231480D02*
D03*
X126041Y230631D02*
D03*
X209035Y185526D02*
D03*
X219788Y143464D02*
D03*
X321253Y167376D02*
D03*
X343326Y180288D02*
D03*
X375420Y162783D02*
D03*
X356841Y155434D02*
D03*
X290919Y155430D02*
D03*
X272157Y163363D02*
D03*
X285955Y166344D02*
D03*
X263029Y158508D02*
D03*
X257618Y175905D02*
D03*
X292635Y241438D02*
D03*
X240551Y290452D02*
D03*
X185586Y232433D02*
D03*
X185563Y214887D02*
D03*
X202059Y214365D02*
D03*
X246294Y205994D02*
D03*
X237393Y220372D02*
D03*
X237426Y226599D02*
D03*
X87394Y118564D02*
D03*
X376094Y98594D02*
D03*
X352569Y251315D02*
D03*
X307999Y97132D02*
D03*
X231752Y241132D02*
D03*
X241585Y263720D02*
D03*
X107345Y195285D02*
D03*
X110793Y195356D02*
D03*
X101277Y194222D02*
D03*
X174322Y296949D02*
D03*
X60441Y300035D02*
D03*
X53355Y298380D02*
D03*
X47961Y300633D02*
D03*
X53162Y318071D02*
D03*
X85009Y245659D02*
D03*
X85508Y250659D02*
D03*
X43393Y303222D02*
D03*
X43433Y309305D02*
D03*
X43287Y315495D02*
D03*
X34471Y320576D02*
D03*
X77187Y332827D02*
D03*
X77042Y328883D02*
D03*
X76990Y325042D02*
D03*
X263601Y221158D02*
D03*
X261608Y223165D02*
D03*
X154877Y225455D02*
D03*
X151107Y237971D02*
D03*
X231850Y298371D02*
D03*
X237416Y235223D02*
D03*
X241139Y241168D02*
D03*
X234319Y265287D02*
D03*
X138926Y230766D02*
D03*
X149999Y232048D02*
D03*
X153194Y243794D02*
D03*
X152566Y252390D02*
D03*
X130606Y250633D02*
D03*
X123294Y257194D02*
D03*
X119313Y257574D02*
D03*
X129715Y219777D02*
D03*
X133994Y222894D02*
D03*
X102708Y188468D02*
D03*
X122672Y229841D02*
D03*
X108194Y224794D02*
D03*
X149875Y144612D02*
D03*
X115837Y131247D02*
D03*
X229011Y137954D02*
D03*
X210017Y291930D02*
D03*
X237426Y245158D02*
D03*
X181610Y144060D02*
D03*
X181487Y190227D02*
D03*
X187343Y193107D02*
D03*
X179294Y209894D02*
D03*
X354130Y185417D02*
D03*
X132125Y153439D02*
D03*
X265084Y254668D02*
D03*
X241102Y227127D02*
D03*
X248506Y220471D02*
D03*
X244814Y220493D02*
D03*
X238556Y191426D02*
D03*
X232684Y187732D02*
D03*
X282579Y166929D02*
D03*
X271850D02*
D03*
X317194Y175994D02*
D03*
X260471Y173959D02*
D03*
X224394Y158694D02*
D03*
X96300Y195055D02*
D03*
X288359Y199033D02*
D03*
X258933Y182623D02*
D03*
X255100Y182637D02*
D03*
X256155Y194152D02*
D03*
X248725Y185358D02*
D03*
X238583Y186701D02*
D03*
X181413Y193051D02*
D03*
X241113Y235232D02*
D03*
X244806Y227289D02*
D03*
X245894Y260894D02*
D03*
X288094Y185294D02*
D03*
X304694Y183794D02*
D03*
X157917Y225461D02*
D03*
X241294Y271894D02*
D03*
X178191Y260773D02*
D03*
X358348Y232883D02*
D03*
X333001Y233054D02*
D03*
X323701Y227364D02*
D03*
X320713Y233424D02*
D03*
X311039Y227352D02*
D03*
X304904Y231154D02*
D03*
X304834Y227374D02*
D03*
X290193Y233045D02*
D03*
X282184Y227484D02*
D03*
X288352Y241488D02*
D03*
X378858Y189456D02*
D03*
X366525Y192447D02*
D03*
X334783Y194680D02*
D03*
X323671Y186201D02*
D03*
X323705Y182364D02*
D03*
X315894Y195788D02*
D03*
X304697Y187618D02*
D03*
X371985Y115482D02*
D03*
X389694Y142794D02*
D03*
Y136594D02*
D03*
X381094Y133494D02*
D03*
Y139732D02*
D03*
X392594D02*
D03*
Y133494D02*
D03*
X378194Y136594D02*
D03*
Y142832D02*
D03*
X318894Y142794D02*
D03*
Y136594D02*
D03*
X310294Y133494D02*
D03*
Y139732D02*
D03*
X321794D02*
D03*
Y133494D02*
D03*
X307394Y136594D02*
D03*
Y142832D02*
D03*
X248294Y142694D02*
D03*
Y136494D02*
D03*
X239694Y133394D02*
D03*
Y139632D02*
D03*
X251194D02*
D03*
Y133394D02*
D03*
X236794Y136494D02*
D03*
Y142732D02*
D03*
X91194Y117794D02*
D03*
X168094Y110194D02*
D03*
X106694Y145194D02*
D03*
Y138994D02*
D03*
X98094Y135894D02*
D03*
Y142132D02*
D03*
X109594D02*
D03*
Y135894D02*
D03*
X95194Y138994D02*
D03*
Y145232D02*
D03*
X165694Y142832D02*
D03*
Y136594D02*
D03*
X180094Y133494D02*
D03*
X188394Y144894D02*
D03*
Y138494D02*
D03*
X185394Y139994D02*
D03*
Y143494D02*
D03*
X326594Y141894D02*
D03*
Y145394D02*
D03*
X329594Y140394D02*
D03*
Y146794D02*
D03*
X258694Y142994D02*
D03*
Y146494D02*
D03*
X261694Y141494D02*
D03*
Y147894D02*
D03*
X117994Y143594D02*
D03*
Y137194D02*
D03*
X114994Y142194D02*
D03*
Y138694D02*
D03*
X37081Y118424D02*
D03*
X33581D02*
D03*
X38581Y121424D02*
D03*
X32181D02*
D03*
X122594Y145694D02*
D03*
X370694Y151594D02*
D03*
X217294Y148494D02*
D03*
X360294Y138294D02*
D03*
X356879Y151479D02*
D03*
X147594Y138294D02*
D03*
X77994Y141794D02*
D03*
X333008Y124094D02*
D03*
Y127194D02*
D03*
X372194Y101594D02*
D03*
Y104694D02*
D03*
X300194Y103094D02*
D03*
Y100594D02*
D03*
X35194Y98694D02*
D03*
Y101894D02*
D03*
X84394Y99394D02*
D03*
X91184Y103994D02*
D03*
X251394Y103394D02*
D03*
X247494Y104594D02*
D03*
X229594Y102394D02*
D03*
X232894D02*
D03*
X180213Y101894D02*
D03*
Y98594D02*
D03*
X180394Y93994D02*
D03*
X322794Y101994D02*
D03*
Y98694D02*
D03*
X389494Y96294D02*
D03*
X391694Y94094D02*
D03*
X385194Y80994D02*
D03*
X381894D02*
D03*
X332094Y84094D02*
D03*
X329094D02*
D03*
X343494Y43394D02*
D03*
X346794D02*
D03*
X327494Y93394D02*
D03*
Y90094D02*
D03*
X314294Y101894D02*
D03*
X303994Y96894D02*
D03*
X315894Y91794D02*
D03*
Y88494D02*
D03*
X325394Y64694D02*
D03*
Y61394D02*
D03*
X312694Y78894D02*
D03*
Y75594D02*
D03*
X315394Y64394D02*
D03*
Y61094D02*
D03*
X289094Y54194D02*
D03*
X285794D02*
D03*
X305394Y51794D02*
D03*
Y55094D02*
D03*
X248094Y95994D02*
D03*
X251394D02*
D03*
X243694Y75794D02*
D03*
Y79094D02*
D03*
X257294Y85994D02*
D03*
X260094Y84194D02*
D03*
Y80994D02*
D03*
X293994D02*
D03*
Y84094D02*
D03*
X295894Y89794D02*
D03*
Y93194D02*
D03*
X264894Y80994D02*
D03*
Y84094D02*
D03*
X263194Y89794D02*
D03*
Y93194D02*
D03*
X297051Y118394D02*
D03*
Y115294D02*
D03*
X225794Y122694D02*
D03*
X226191Y118394D02*
D03*
Y115294D02*
D03*
X262122Y127194D02*
D03*
Y124094D02*
D03*
X191282Y127294D02*
D03*
Y124194D02*
D03*
X290894Y151794D02*
D03*
X235194Y54094D02*
D03*
X231894D02*
D03*
X215394Y60594D02*
D03*
X232994Y65394D02*
D03*
X182094Y50894D02*
D03*
Y47594D02*
D03*
X237494Y104594D02*
D03*
X205394Y64494D02*
D03*
Y61194D02*
D03*
X195294Y55294D02*
D03*
Y51994D02*
D03*
X104594Y93794D02*
D03*
Y97094D02*
D03*
X108894Y51094D02*
D03*
Y54294D02*
D03*
Y57494D02*
D03*
X96994Y84894D02*
D03*
X93694D02*
D03*
X90494Y73194D02*
D03*
Y76494D02*
D03*
Y79794D02*
D03*
X95594Y63894D02*
D03*
Y60694D02*
D03*
X85594Y63894D02*
D03*
Y60694D02*
D03*
X76294Y47494D02*
D03*
Y50694D02*
D03*
Y53894D02*
D03*
X52594Y50794D02*
D03*
X52394Y54194D02*
D03*
X55094Y48294D02*
D03*
X59794Y50894D02*
D03*
X63294D02*
D03*
X59794Y54394D02*
D03*
X32394Y95394D02*
D03*
X35594D02*
D03*
X38594Y80794D02*
D03*
X41894D02*
D03*
X218594Y138294D02*
D03*
X71536Y141836D02*
D03*
X424294Y270794D02*
D03*
X420694Y274694D02*
D03*
X407394Y274594D02*
D03*
X413194Y268294D02*
D03*
X412794Y258894D02*
D03*
X409094Y256294D02*
D03*
X413694Y263594D02*
D03*
X409994Y270994D02*
D03*
X404394Y271094D02*
D03*
X403294Y256194D02*
D03*
X417594Y279894D02*
D03*
X417694Y286594D02*
D03*
X412594Y286494D02*
D03*
X412894Y280194D02*
D03*
X402494Y277494D02*
D03*
X398994Y273994D02*
D03*
X394294Y274094D02*
D03*
X394394Y277994D02*
D03*
X413094Y323694D02*
D03*
X411913Y317861D02*
D03*
X406480Y330352D02*
D03*
X412809Y327215D02*
D03*
X410194Y330194D02*
D03*
X402394Y330294D02*
D03*
X397394D02*
D03*
X407694Y316994D02*
D03*
X397794D02*
D03*
X394094Y317394D02*
D03*
X402394Y317194D02*
D03*
X412694Y360194D02*
D03*
X416294Y360894D02*
D03*
X414394Y356994D02*
D03*
X410694Y357394D02*
D03*
X413094Y363694D02*
D03*
X406194Y356694D02*
D03*
X399094Y356994D02*
D03*
X402494Y357794D02*
D03*
X398494Y371694D02*
D03*
X405094Y371994D02*
D03*
X402394Y369694D02*
D03*
X368494Y345294D02*
D03*
X390994Y363594D02*
D03*
X390894Y372094D02*
D03*
X375594Y350294D02*
D03*
X377294Y357994D02*
D03*
X377292Y363245D02*
D03*
X370794Y353994D02*
D03*
X391194Y356594D02*
D03*
X377292Y353961D02*
D03*
X384394Y373794D02*
D03*
X377494Y373894D02*
D03*
X370594Y373694D02*
D03*
X316994Y296894D02*
D03*
X328694Y314394D02*
D03*
X238668Y315269D02*
D03*
X262402Y323327D02*
D03*
X273294Y334294D02*
D03*
X271594Y327194D02*
D03*
X280417Y331811D02*
D03*
X227917Y328570D02*
D03*
X266094Y333394D02*
D03*
X263194Y333494D02*
D03*
Y337619D02*
D03*
X109400Y347045D02*
D03*
X101494Y342198D02*
D03*
X189811Y343667D02*
D03*
X230094Y361994D02*
D03*
X213779Y326476D02*
D03*
X30413Y222835D02*
D03*
X41055Y226613D02*
D03*
X75728Y225098D02*
D03*
X421794Y120994D02*
D03*
Y131394D02*
D03*
X92228Y225896D02*
D03*
X95694Y221794D02*
D03*
X83169Y225098D02*
D03*
X79823Y230512D02*
D03*
X65046Y225016D02*
D03*
X89862Y215945D02*
D03*
X63406Y215694D02*
D03*
X76083Y215846D02*
D03*
X97720Y191664D02*
D03*
X59206Y215894D02*
D03*
X262019Y296864D02*
D03*
X264382Y316845D02*
D03*
X267433Y314778D02*
D03*
X272367Y314533D02*
D03*
X275295Y297933D02*
D03*
X266694Y244594D02*
D03*
X264688Y239381D02*
D03*
X267294Y250194D02*
D03*
X267598Y259027D02*
D03*
X273228Y293504D02*
D03*
X271358Y287894D02*
D03*
X268504Y290846D02*
D03*
X265957Y293419D02*
D03*
X258050Y278243D02*
D03*
X325451Y171941D02*
D03*
X79908Y82594D02*
D03*
X414241Y386156D02*
D03*
X74594Y285675D02*
D03*
X370652Y148179D02*
D03*
X326594Y125694D02*
D03*
X289394Y138294D02*
D03*
X232894Y137894D02*
D03*
Y130394D02*
D03*
Y122894D02*
D03*
X231094Y114594D02*
D03*
X185492Y123394D02*
D03*
X185394Y130394D02*
D03*
X89894Y122894D02*
D03*
X119494Y325294D02*
D03*
X191094Y293094D02*
D03*
X195494Y306794D02*
D03*
X78591Y241494D02*
D03*
X84445Y313574D02*
D03*
X150831Y320379D02*
D03*
X136793Y319493D02*
D03*
X136694Y268894D02*
D03*
X90494Y311894D02*
D03*
X136951Y273779D02*
D03*
X67294Y281975D02*
D03*
X66994Y289375D02*
D03*
X66794Y285675D02*
D03*
X30194Y291594D02*
D03*
X86336Y326654D02*
D03*
X86399Y330081D02*
D03*
X110775Y233248D02*
D03*
X198092Y209146D02*
D03*
X198095Y205480D02*
D03*
X189694Y209194D02*
D03*
Y205494D02*
D03*
X234420Y272336D02*
D03*
X241268Y275444D02*
D03*
X245887Y267774D02*
D03*
X153098Y219196D02*
D03*
X318110Y170768D02*
D03*
X137917Y263795D02*
D03*
X156530Y260477D02*
D03*
X160064Y260470D02*
D03*
X187285Y268770D02*
D03*
X187296Y272361D02*
D03*
X197145Y272340D02*
D03*
X189613Y354394D02*
D03*
X237294Y348294D02*
D03*
X246414Y342494D02*
D03*
X82594Y118394D02*
D03*
X155194Y122494D02*
D03*
X155324Y126294D02*
D03*
X226236D02*
D03*
X296994Y122794D02*
D03*
X297096Y126294D02*
D03*
X367982D02*
D03*
Y121294D02*
D03*
X66950Y103994D02*
D03*
X63350D02*
D03*
X85394Y102794D02*
D03*
X63350Y101394D02*
D03*
X66950D02*
D03*
X57308Y103394D02*
D03*
Y100694D02*
D03*
X83808Y86994D02*
D03*
X81394Y89408D02*
D03*
X82308Y80194D02*
D03*
X48994Y81219D02*
D03*
X46694Y78794D02*
D03*
X47094Y87580D02*
D03*
X43994Y85994D02*
D03*
X52608Y74294D02*
D03*
X55875D02*
D03*
X59141D02*
D03*
X62408D02*
D03*
X67594D02*
D03*
X70960D02*
D03*
X74327D02*
D03*
X77694D02*
D03*
X30594Y358594D02*
D03*
X352294Y103994D02*
D03*
X348694D02*
D03*
X367194Y115494D02*
D03*
X348694Y101394D02*
D03*
X358851Y103294D02*
D03*
Y100494D02*
D03*
X342651Y103394D02*
D03*
Y100694D02*
D03*
X281408Y103994D02*
D03*
X277808D02*
D03*
Y101394D02*
D03*
X281408D02*
D03*
X287965Y103294D02*
D03*
Y100494D02*
D03*
X251465Y100194D02*
D03*
X271765Y103394D02*
D03*
Y100694D02*
D03*
X267065Y74294D02*
D03*
X270332D02*
D03*
X273599D02*
D03*
X276865D02*
D03*
X281865D02*
D03*
X285232D02*
D03*
X288599D02*
D03*
X291965D02*
D03*
X276084Y80885D02*
D03*
X283240Y80959D02*
D03*
X210548Y103994D02*
D03*
X206948D02*
D03*
Y101394D02*
D03*
X210548D02*
D03*
X217106Y103294D02*
D03*
Y100494D02*
D03*
X200906Y103394D02*
D03*
Y100694D02*
D03*
X225094Y89794D02*
D03*
Y93194D02*
D03*
X223194Y80994D02*
D03*
X223294Y84094D02*
D03*
X193994D02*
D03*
Y80994D02*
D03*
X192394Y93194D02*
D03*
Y89794D02*
D03*
X196206Y74294D02*
D03*
X199472D02*
D03*
X202739D02*
D03*
X206006D02*
D03*
X211006D02*
D03*
X214372D02*
D03*
X217739D02*
D03*
X221106D02*
D03*
X228394Y43878D02*
D03*
X212883Y79545D02*
D03*
X150194Y74294D02*
D03*
X146827D02*
D03*
X143460D02*
D03*
X140094D02*
D03*
X135094D02*
D03*
X131827D02*
D03*
X128560D02*
D03*
X125294D02*
D03*
X121494Y89294D02*
D03*
Y92694D02*
D03*
X122994Y80494D02*
D03*
X122894Y83894D02*
D03*
X153194Y86594D02*
D03*
Y83094D02*
D03*
X154094Y93894D02*
D03*
Y90494D02*
D03*
X129994Y100694D02*
D03*
Y103394D02*
D03*
X109394Y102294D02*
D03*
X146194Y100494D02*
D03*
Y103294D02*
D03*
X139636Y101394D02*
D03*
X136036D02*
D03*
Y103994D02*
D03*
X139636D02*
D03*
X425394Y238094D02*
D03*
X416831Y228445D02*
D03*
X345817Y419636D02*
D03*
X331794Y388594D02*
D03*
X159394Y266994D02*
D03*
X223668Y268824D02*
D03*
X374594Y412894D02*
D03*
X263194Y341744D02*
D03*
Y345869D02*
D03*
X428294Y133994D02*
D03*
X424594D02*
D03*
X428194Y118394D02*
D03*
X421794Y127894D02*
D03*
Y124394D02*
D03*
X243374Y342494D02*
D03*
X242894Y346994D02*
D03*
X252494Y342494D02*
D03*
X93394Y276994D02*
D03*
X237294Y345394D02*
D03*
X240334Y342494D02*
D03*
X394594Y413394D02*
D03*
X30594Y354294D02*
D03*
X339725Y401036D02*
D03*
X360175Y399588D02*
D03*
X157294Y355094D02*
D03*
X116988Y350590D02*
D03*
X117394Y355094D02*
D03*
X249454Y342494D02*
D03*
X237294D02*
D03*
X122294Y355194D02*
D03*
X162594Y354994D02*
D03*
X73594Y350594D02*
D03*
X122894Y350590D02*
D03*
X248094Y346994D02*
D03*
X327490Y417520D02*
D03*
X417421Y219193D02*
D03*
X414370Y237894D02*
D03*
X405894Y219394D02*
D03*
X425394Y219094D02*
D03*
X406394Y242894D02*
D03*
X414894D02*
D03*
X69685Y206791D02*
D03*
X421457Y237992D02*
D03*
X407087D02*
D03*
X178394Y270616D02*
D03*
X158294Y270894D02*
D03*
X164294Y264194D02*
D03*
X328894Y170494D02*
D03*
X158294Y274694D02*
D03*
X244816Y213997D02*
D03*
X248507Y214010D02*
D03*
X178294Y214894D02*
D03*
X181883Y214899D02*
D03*
X261523Y261546D02*
D03*
X327494Y164494D02*
D03*
X223680Y272347D02*
D03*
X216833Y272334D02*
D03*
X363194Y185294D02*
D03*
X231894Y295094D02*
D03*
X224094Y292294D02*
D03*
X265111Y261527D02*
D03*
X261532Y254679D02*
D03*
X317494Y160894D02*
D03*
X248500Y227301D02*
D03*
X182981Y209887D02*
D03*
X259194Y158594D02*
D03*
X82906Y215894D02*
D03*
X29894Y339294D02*
D03*
X47506Y196094D02*
D03*
X30494Y226294D02*
D03*
X36052Y218864D02*
D03*
X53106Y214494D02*
D03*
X189513Y367394D02*
D03*
X30206Y166294D02*
D03*
Y204594D02*
D03*
Y200194D02*
D03*
Y170594D02*
D03*
X47306Y191694D02*
D03*
X410994Y61594D02*
D03*
X143958Y304675D02*
D03*
X90194Y308094D02*
D03*
X86694Y301994D02*
D03*
X232633Y184224D02*
D03*
X214094Y188894D02*
D03*
X210283Y188786D02*
D03*
X282194Y217994D02*
D03*
X283738Y202062D02*
D03*
X421594Y242994D02*
D03*
X275894Y421794D02*
D03*
X293194Y414194D02*
D03*
X293094Y417794D02*
D03*
X293194Y421494D02*
D03*
X308694Y414094D02*
D03*
Y422194D02*
D03*
Y417994D02*
D03*
X318094Y422494D02*
D03*
X318194Y418194D02*
D03*
Y413994D02*
D03*
X321694Y414094D02*
D03*
X300194Y414194D02*
D03*
X299994Y422194D02*
D03*
X326394Y323494D02*
D03*
X286094Y359594D02*
D03*
X299494Y298794D02*
D03*
Y303594D02*
D03*
X310694Y303694D02*
D03*
Y299494D02*
D03*
X299494Y307594D02*
D03*
X288658Y313053D02*
D03*
X288349Y309585D02*
D03*
X288412Y305856D02*
D03*
X263194Y349994D02*
D03*
X266094D02*
D03*
X273294Y349894D02*
D03*
Y345769D02*
D03*
Y341644D02*
D03*
Y337519D02*
D03*
X283294Y373694D02*
D03*
Y368294D02*
D03*
X104494Y381294D02*
D03*
X296494Y414194D02*
D03*
X150094Y394094D02*
D03*
X110594Y394294D02*
D03*
X66994Y382794D02*
D03*
X296494Y421494D02*
D03*
X73094Y381494D02*
D03*
X144344Y381294D02*
D03*
X108994Y379094D02*
D03*
Y369994D02*
D03*
X149094D02*
D03*
Y379094D02*
D03*
X184444Y381294D02*
D03*
X109294Y387594D02*
D03*
X149194Y387794D02*
D03*
X429394Y380094D02*
D03*
Y384094D02*
D03*
Y389994D02*
D03*
X425394Y242994D02*
D03*
X414145Y389960D02*
D03*
X418945Y384060D02*
D03*
Y380060D02*
D03*
X417052Y395457D02*
D03*
X44294Y290394D02*
D03*
X58994Y40194D02*
D03*
X352394Y101394D02*
D03*
X324902Y168307D02*
D03*
X230794Y159694D02*
D03*
X145925Y364469D02*
D03*
X185813Y354494D02*
D03*
X157244Y350689D02*
D03*
X154291D02*
D03*
X102717Y351870D02*
D03*
X142874Y351969D02*
D03*
X163150Y350689D02*
D03*
X160197D02*
D03*
X166102D02*
D03*
X119941Y350590D02*
D03*
X125847D02*
D03*
X77594Y350594D02*
D03*
X85594D02*
D03*
X81594D02*
D03*
X72603Y355134D02*
D03*
X77594Y355094D02*
D03*
X82494D02*
D03*
X186257Y340247D02*
D03*
X189825Y340224D02*
D03*
X114042Y350606D02*
D03*
X100553Y345868D02*
D03*
X105571Y364370D02*
D03*
X218572Y373434D02*
D03*
X199257Y369657D02*
D03*
X200594Y379094D02*
D03*
X45394Y394094D02*
D03*
X57294Y361420D02*
D03*
X58144Y375544D02*
D03*
X229594Y392194D02*
D03*
X112294Y85294D02*
D03*
X117694Y82794D02*
D03*
X115594Y85294D02*
D03*
X109394Y99294D02*
D03*
X109694Y95694D02*
D03*
X122594Y50794D02*
D03*
Y47494D02*
D03*
X135794Y54394D02*
D03*
Y51194D02*
D03*
Y47994D02*
D03*
X145894Y64694D02*
D03*
Y61394D02*
D03*
X160594Y83694D02*
D03*
X158094Y86194D02*
D03*
X162494Y62994D02*
D03*
X155894Y47494D02*
D03*
Y50794D02*
D03*
X73508Y100494D02*
D03*
Y103294D02*
D03*
X47594Y126794D02*
D03*
Y123694D02*
D03*
X82594Y115294D02*
D03*
X117594Y43294D02*
D03*
X114294D02*
D03*
X174294Y93994D02*
D03*
Y90694D02*
D03*
X168594Y139732D02*
D03*
Y133494D02*
D03*
X120294Y124094D02*
D03*
Y127194D02*
D03*
X155280Y115294D02*
D03*
Y118394D02*
D03*
X168694Y97594D02*
D03*
Y100694D02*
D03*
X168094Y104194D02*
D03*
X175294Y100794D02*
D03*
X172894Y87094D02*
D03*
X189294Y80994D02*
D03*
Y84194D02*
D03*
X186494Y85994D02*
D03*
X172894Y55294D02*
D03*
X176194D02*
D03*
X227994Y80994D02*
D03*
Y84194D02*
D03*
X230794Y85994D02*
D03*
X243894Y95394D02*
D03*
X240794D02*
D03*
X337994Y92980D02*
D03*
Y89579D02*
D03*
X350694Y65094D02*
D03*
X347394D02*
D03*
X370394Y93194D02*
D03*
Y89894D02*
D03*
X370349Y80205D02*
D03*
X90494Y83294D02*
D03*
X354894Y47494D02*
D03*
Y50794D02*
D03*
X364894Y60294D02*
D03*
X374894Y60894D02*
D03*
Y64194D02*
D03*
X384894D02*
D03*
Y60894D02*
D03*
X394894Y64294D02*
D03*
Y60994D02*
D03*
X370494Y73294D02*
D03*
X384894Y76994D02*
D03*
Y73694D02*
D03*
X394894Y74494D02*
D03*
Y77794D02*
D03*
X351665Y74094D02*
D03*
X348399D02*
D03*
X345132D02*
D03*
X366365D02*
D03*
X363099D02*
D03*
X359832D02*
D03*
X356565D02*
D03*
X342094D02*
D03*
X421574Y138746D02*
D03*
X424774D02*
D03*
X425874Y141846D02*
D03*
Y145146D02*
D03*
X424974Y148446D02*
D03*
Y151646D02*
D03*
Y158046D02*
D03*
Y154846D02*
D03*
X422374Y159946D02*
D03*
X426294Y70894D02*
D03*
X424294Y73394D02*
D03*
X424194Y68394D02*
D03*
X410194Y73394D02*
D03*
X410094Y68394D02*
D03*
X408094Y70894D02*
D03*
X426294Y90894D02*
D03*
X424294Y93394D02*
D03*
X424194Y88394D02*
D03*
X410194Y93394D02*
D03*
X410094Y88394D02*
D03*
X408094Y90894D02*
D03*
X426294Y100894D02*
D03*
X424294Y103394D02*
D03*
X424194Y98394D02*
D03*
X410194Y103394D02*
D03*
X410094Y98394D02*
D03*
X408094Y100894D02*
D03*
X288194Y195294D02*
D03*
X295994Y197694D02*
D03*
X189357Y234161D02*
D03*
X178913Y233087D02*
D03*
X178527Y247683D02*
D03*
X166374Y240017D02*
D03*
X153315Y240188D02*
D03*
X208901Y272351D02*
D03*
X197143Y275909D02*
D03*
X234327Y268801D02*
D03*
X188691Y312240D02*
D03*
X163926Y322479D02*
D03*
X201294Y317194D02*
D03*
X206319Y317219D02*
D03*
X211256Y317219D02*
D03*
X216272Y317189D02*
D03*
X221298Y317268D02*
D03*
X208865Y268887D02*
D03*
X216834Y268776D02*
D03*
X345852Y177786D02*
D03*
X373228Y160138D02*
D03*
X215080Y295060D02*
D03*
X214128Y192469D02*
D03*
X230848Y209163D02*
D03*
X230872Y205484D02*
D03*
X197976Y152490D02*
D03*
X177308Y135436D02*
D03*
X180067Y137667D02*
D03*
X177246Y141387D02*
D03*
X99139Y187981D02*
D03*
X141603Y263587D02*
D03*
X120942Y187684D02*
D03*
X139076Y222738D02*
D03*
X96348Y216836D02*
D03*
X104083Y152105D02*
D03*
X159210Y325607D02*
D03*
X159139Y316631D02*
D03*
X148068Y304716D02*
D03*
X171032Y307774D02*
D03*
X175925Y325741D02*
D03*
X194018Y325530D02*
D03*
X194608Y317053D02*
D03*
X183558Y307943D02*
D03*
X175292Y310684D02*
D03*
X342496Y171994D02*
D03*
X348170Y396886D02*
D03*
X349094Y383994D02*
D03*
Y387294D02*
D03*
Y390794D02*
D03*
Y394194D02*
D03*
X281721Y302922D02*
D03*
X291985Y314510D02*
D03*
X291963Y317472D02*
D03*
X255594Y300494D02*
D03*
Y305394D02*
D03*
X234888Y315249D02*
D03*
X198378Y329419D02*
D03*
X198398Y325821D02*
D03*
X198418Y322341D02*
D03*
X227951Y334053D02*
D03*
X225138Y362056D02*
D03*
X149392Y346990D02*
D03*
X96943Y331462D02*
D03*
X93122Y331545D02*
D03*
X100125Y231403D02*
D03*
X155721Y230329D02*
D03*
X91692Y243860D02*
D03*
X35746Y232220D02*
D03*
X60284Y232075D02*
D03*
X68254Y231882D02*
D03*
X74823Y236277D02*
D03*
X35860Y240645D02*
D03*
X35715Y249824D02*
D03*
X35643Y259220D02*
D03*
Y268255D02*
D03*
X35728Y277027D02*
D03*
X35663Y285599D02*
D03*
X50552Y293397D02*
D03*
X58866Y293462D02*
D03*
X66536Y295718D02*
D03*
X72916Y301905D02*
D03*
X77743Y306772D02*
D03*
X93294Y256194D02*
D03*
X103757Y265096D02*
D03*
X103619Y273026D02*
D03*
X102050Y319744D02*
D03*
X102092Y315571D02*
D03*
X197441Y267110D02*
D03*
X208992Y275785D02*
D03*
X216862Y265291D02*
D03*
X223688Y265330D02*
D03*
X348266Y235282D02*
D03*
X292582Y268397D02*
D03*
X161237Y115349D02*
D03*
X120287Y170843D02*
D03*
X227894Y325094D02*
D03*
X189795Y347377D02*
D03*
X258136Y349276D02*
D03*
X236760Y325489D02*
D03*
X169994Y350566D02*
D03*
X129894Y350494D02*
D03*
X90043Y350358D02*
D03*
X204813Y368795D02*
D03*
X76148Y342577D02*
D03*
X296194Y141375D02*
D03*
X367094Y141130D02*
D03*
X81794Y141343D02*
D03*
X157604Y138333D02*
D03*
X225394Y141312D02*
D03*
X164694Y197194D02*
D03*
X183194Y301794D02*
D03*
X65086Y86959D02*
D03*
X75771Y31170D02*
D03*
X95949Y31085D02*
D03*
X85960Y47999D02*
D03*
X60919Y81199D02*
D03*
X69230Y81375D02*
D03*
X155889Y31241D02*
D03*
X135862Y31109D02*
D03*
X34252Y55062D02*
D03*
X36766Y182772D02*
D03*
X62840Y397640D02*
D03*
X176358Y35324D02*
D03*
X137813Y87767D02*
D03*
X133820Y80446D02*
D03*
X143051Y80100D02*
D03*
X195544Y31554D02*
D03*
X278064Y54037D02*
D03*
X204478Y79584D02*
D03*
X186285Y65535D02*
D03*
X245017Y53996D02*
D03*
X266238Y31496D02*
D03*
X255829Y54050D02*
D03*
X286307Y41048D02*
D03*
X305664Y31120D02*
D03*
X325321Y31469D02*
D03*
X279847Y86787D02*
D03*
X208818Y87012D02*
D03*
X352917Y87055D02*
D03*
X356783Y78696D02*
D03*
X348533Y79050D02*
D03*
X365151Y31378D02*
D03*
X384923Y31749D02*
D03*
X375222Y47300D02*
D03*
X395883Y47596D02*
D03*
X335590Y47579D02*
D03*
X315504Y46749D02*
D03*
X294513Y47051D02*
D03*
X266882Y53701D02*
D03*
X398073Y106403D02*
D03*
X396185Y32475D02*
D03*
X424872Y63430D02*
D03*
X409615Y112441D02*
D03*
X422788Y197672D02*
D03*
X407455Y155373D02*
D03*
X398884Y155589D02*
D03*
X407046Y197355D02*
D03*
X407432Y212036D02*
D03*
X420403Y211536D02*
D03*
X341387Y163476D02*
D03*
X375941Y179500D02*
D03*
X356874Y162943D02*
D03*
X398859Y184354D02*
D03*
X390563Y196924D02*
D03*
X360704Y196576D02*
D03*
X350569Y191707D02*
D03*
X329067Y200375D02*
D03*
X338607Y213588D02*
D03*
X307678Y211336D02*
D03*
X310640Y203633D02*
D03*
X301278Y201323D02*
D03*
X211011Y219517D02*
D03*
X202070Y223668D02*
D03*
X224307Y232716D02*
D03*
X217683Y226236D02*
D03*
X202165Y232043D02*
D03*
X207782Y227161D02*
D03*
X208911Y233028D02*
D03*
X225516Y245743D02*
D03*
X234176Y255031D02*
D03*
X242007Y252261D02*
D03*
X211052Y256015D02*
D03*
X218775Y258212D02*
D03*
X184648Y247701D02*
D03*
X193180Y247890D02*
D03*
X203203Y247832D02*
D03*
X183645Y265523D02*
D03*
X193249Y260721D02*
D03*
X203145Y260133D02*
D03*
X176798Y284802D02*
D03*
X170671Y289921D02*
D03*
X148741Y273996D02*
D03*
X148475Y290016D02*
D03*
X153959Y309954D02*
D03*
X144121Y325384D02*
D03*
X151838Y331899D02*
D03*
X131784Y332448D02*
D03*
X118522Y153276D02*
D03*
X91686Y162583D02*
D03*
X138747Y171053D02*
D03*
X36187Y299026D02*
D03*
X53907Y312378D02*
D03*
X107837Y332002D02*
D03*
X88300Y341193D02*
D03*
X48410Y343743D02*
D03*
X36033Y391077D02*
D03*
X54119Y373217D02*
D03*
X165442Y337061D02*
D03*
X253147Y311101D02*
D03*
X227932Y311229D02*
D03*
X245522Y303796D02*
D03*
X311783Y280005D02*
D03*
X356137Y268086D02*
D03*
X304365Y247445D02*
D03*
X342452Y244058D02*
D03*
X340290Y232890D02*
D03*
X383188Y268319D02*
D03*
X379204Y227489D02*
D03*
X381704Y239385D02*
D03*
X397808Y227532D02*
D03*
Y240643D02*
D03*
X395347Y256811D02*
D03*
X408214Y249175D02*
D03*
X425542Y373075D02*
D03*
X35800Y362476D02*
D03*
X58659Y421201D02*
D03*
X83399Y422230D02*
D03*
X102703Y421765D02*
D03*
X123109Y422105D02*
D03*
X163393Y422307D02*
D03*
X143282Y421991D02*
D03*
X203547Y422272D02*
D03*
X183189Y422552D02*
D03*
X223780Y422056D02*
D03*
X243399D02*
D03*
X264441Y422006D02*
D03*
X264560Y397845D02*
D03*
X284339Y407050D02*
D03*
X281602Y389137D02*
D03*
X300261Y387520D02*
D03*
X298520Y407175D02*
D03*
X319933Y386902D02*
D03*
X325549Y371160D02*
D03*
X300969Y365366D02*
D03*
X327276Y353949D02*
D03*
X302888Y337855D02*
D03*
X326055Y339741D02*
D03*
X339743Y337295D02*
D03*
X360695Y353028D02*
D03*
X344335Y324236D02*
D03*
X371315Y324205D02*
D03*
X362305Y337272D02*
D03*
X384772Y345596D02*
D03*
X384056Y330839D02*
D03*
X418021Y343531D02*
D03*
X420108Y264120D02*
D03*
X413535Y217955D02*
D03*
X57504Y198212D02*
D03*
X37575Y164035D02*
D03*
X64186Y164226D02*
D03*
X84863Y162950D02*
D03*
X80332Y184009D02*
D03*
X57869Y182772D02*
D03*
X74313Y199582D02*
D03*
X58874Y151985D02*
D03*
X49647Y155731D02*
D03*
X207757Y215504D02*
D03*
X192349Y223825D02*
D03*
X203139Y238149D02*
D03*
X217514Y238372D02*
D03*
X209024D02*
D03*
X208876Y248067D02*
D03*
X203145Y270827D02*
D03*
X373649Y80205D02*
D03*
X241037Y305749D02*
D03*
X154782Y185987D02*
D03*
X146349Y189375D02*
D03*
X149920Y186805D02*
D03*
X65562Y310314D02*
D03*
X370769Y232728D02*
D03*
X413394Y438394D02*
D03*
X427394D02*
D03*
Y452394D02*
D03*
X413394D02*
D03*
X410394Y445394D02*
D03*
X430394D02*
D03*
X420394Y455394D02*
D03*
Y435394D02*
D03*
X33394Y438394D02*
D03*
X47394D02*
D03*
Y452394D02*
D03*
X33394D02*
D03*
X30394Y445394D02*
D03*
X50394D02*
D03*
X40394Y455394D02*
D03*
Y435394D02*
D03*
X33394Y813394D02*
D03*
X47394D02*
D03*
Y827394D02*
D03*
X33394D02*
D03*
X30394Y820394D02*
D03*
X50394D02*
D03*
X40394Y830394D02*
D03*
Y810394D02*
D03*
X413394Y813394D02*
D03*
X427394D02*
D03*
Y827394D02*
D03*
X413394D02*
D03*
X410394Y820394D02*
D03*
X430394D02*
D03*
X420394Y830394D02*
D03*
Y810394D02*
D03*
X429994Y615594D02*
D03*
X338894Y456294D02*
D03*
X101694Y511494D02*
D03*
X300204Y601284D02*
D03*
X341820Y521963D02*
D03*
Y526294D02*
D03*
Y530624D02*
D03*
X346151Y521963D02*
D03*
Y526294D02*
D03*
Y530624D02*
D03*
X350482Y521963D02*
D03*
Y526294D02*
D03*
Y530624D02*
D03*
X354812Y521963D02*
D03*
Y526294D02*
D03*
Y530624D02*
D03*
X359143Y521963D02*
D03*
Y526294D02*
D03*
Y530624D02*
D03*
X425133Y610664D02*
D03*
X270934Y521963D02*
D03*
Y526294D02*
D03*
Y530624D02*
D03*
X275265Y521963D02*
D03*
Y526294D02*
D03*
Y530624D02*
D03*
X279596Y521963D02*
D03*
Y526294D02*
D03*
Y530624D02*
D03*
X283926Y521963D02*
D03*
Y526294D02*
D03*
Y530624D02*
D03*
X288257Y521963D02*
D03*
Y526294D02*
D03*
Y530624D02*
D03*
X129162Y521963D02*
D03*
Y526294D02*
D03*
Y530624D02*
D03*
X133493Y521963D02*
D03*
Y526294D02*
D03*
Y530624D02*
D03*
X137824Y521963D02*
D03*
Y526294D02*
D03*
Y530624D02*
D03*
X142155Y521963D02*
D03*
Y526294D02*
D03*
Y530624D02*
D03*
X146485Y521963D02*
D03*
Y526294D02*
D03*
Y530624D02*
D03*
X56477Y521963D02*
D03*
Y526294D02*
D03*
Y530624D02*
D03*
X60807Y521963D02*
D03*
Y526294D02*
D03*
Y530624D02*
D03*
X65138Y521963D02*
D03*
Y526294D02*
D03*
Y530624D02*
D03*
X69469Y521963D02*
D03*
Y526294D02*
D03*
Y530624D02*
D03*
X73799Y521963D02*
D03*
Y526294D02*
D03*
Y530624D02*
D03*
X270768Y710610D02*
D03*
Y706280D02*
D03*
X266437Y710610D02*
D03*
Y706280D02*
D03*
X240894Y565639D02*
D03*
Y583749D02*
D03*
X249949Y574694D02*
D03*
X231839D02*
D03*
X53239Y740894D02*
D03*
X71349D02*
D03*
X62294Y749949D02*
D03*
Y731839D02*
D03*
X38438Y540904D02*
D03*
Y559014D02*
D03*
X47493Y549959D02*
D03*
X29382D02*
D03*
X348525Y812836D02*
D03*
X352462D02*
D03*
Y808899D02*
D03*
X348525D02*
D03*
X344588D02*
D03*
Y812836D02*
D03*
Y816773D02*
D03*
X348525D02*
D03*
X352462D02*
D03*
X200074Y521963D02*
D03*
Y526294D02*
D03*
Y530624D02*
D03*
X204405Y521963D02*
D03*
Y526294D02*
D03*
Y530624D02*
D03*
X208736Y521963D02*
D03*
Y526294D02*
D03*
Y530624D02*
D03*
X213066Y521963D02*
D03*
Y526294D02*
D03*
Y530624D02*
D03*
X217397Y521963D02*
D03*
Y526294D02*
D03*
Y530624D02*
D03*
X193124Y714593D02*
D03*
X170773Y701933D02*
D03*
X69551Y619034D02*
D03*
X115808Y662859D02*
D03*
X107681Y636480D02*
D03*
X126041Y635631D02*
D03*
X209035Y590526D02*
D03*
X219788Y548464D02*
D03*
X321253Y572376D02*
D03*
X343326Y585288D02*
D03*
X375420Y567782D02*
D03*
X356841Y560434D02*
D03*
X290919Y560430D02*
D03*
X272157Y568363D02*
D03*
X285955Y571344D02*
D03*
X263029Y563508D02*
D03*
X257618Y580905D02*
D03*
X292635Y646438D02*
D03*
X240551Y695452D02*
D03*
X185586Y637433D02*
D03*
X185563Y619887D02*
D03*
X202059Y619365D02*
D03*
X246294Y610994D02*
D03*
X237393Y625372D02*
D03*
X237426Y631599D02*
D03*
X87394Y523564D02*
D03*
X376094Y503594D02*
D03*
X352569Y656315D02*
D03*
X307999Y502132D02*
D03*
X231752Y646132D02*
D03*
X241585Y668720D02*
D03*
X107345Y600285D02*
D03*
X110793Y600356D02*
D03*
X101277Y599222D02*
D03*
X174322Y701949D02*
D03*
X60441Y705035D02*
D03*
X53355Y703380D02*
D03*
X47961Y705633D02*
D03*
X53162Y723071D02*
D03*
X85009Y650659D02*
D03*
X85508Y655659D02*
D03*
X43393Y708222D02*
D03*
X43433Y714305D02*
D03*
X43287Y720495D02*
D03*
X34471Y725576D02*
D03*
X77187Y737827D02*
D03*
X77042Y733883D02*
D03*
X76990Y730042D02*
D03*
X263601Y626158D02*
D03*
X261608Y628165D02*
D03*
X154877Y630455D02*
D03*
X151107Y642972D02*
D03*
X231850Y703371D02*
D03*
X237416Y640223D02*
D03*
X241139Y646168D02*
D03*
X234319Y670287D02*
D03*
X138926Y635766D02*
D03*
X149999Y637048D02*
D03*
X153194Y648794D02*
D03*
X152566Y657390D02*
D03*
X130606Y655633D02*
D03*
X123294Y662194D02*
D03*
X119313Y662574D02*
D03*
X129715Y624777D02*
D03*
X133994Y627894D02*
D03*
X102708Y593468D02*
D03*
X122672Y634841D02*
D03*
X108194Y629794D02*
D03*
X149875Y549612D02*
D03*
X115837Y536247D02*
D03*
X229011Y542954D02*
D03*
X210017Y696930D02*
D03*
X237426Y650158D02*
D03*
X181610Y549060D02*
D03*
X181487Y595227D02*
D03*
X187343Y598107D02*
D03*
X179294Y614894D02*
D03*
X354130Y590417D02*
D03*
X132125Y558439D02*
D03*
X265084Y659668D02*
D03*
X241102Y632127D02*
D03*
X248506Y625471D02*
D03*
X244814Y625493D02*
D03*
X238556Y596426D02*
D03*
X232684Y592732D02*
D03*
X282579Y571929D02*
D03*
X271850D02*
D03*
X317194Y580994D02*
D03*
X260471Y578959D02*
D03*
X224394Y563694D02*
D03*
X96300Y600055D02*
D03*
X288359Y604033D02*
D03*
X258933Y587623D02*
D03*
X255100Y587637D02*
D03*
X256155Y599153D02*
D03*
X248725Y590358D02*
D03*
X238583Y591701D02*
D03*
X181413Y598051D02*
D03*
X241113Y640232D02*
D03*
X244806Y632289D02*
D03*
X245894Y665894D02*
D03*
X288094Y590294D02*
D03*
X304694Y588794D02*
D03*
X157917Y630461D02*
D03*
X241294Y676894D02*
D03*
X178191Y665773D02*
D03*
X358348Y637883D02*
D03*
X333001Y638054D02*
D03*
X323701Y632364D02*
D03*
X320713Y638424D02*
D03*
X311039Y632352D02*
D03*
X304904Y636154D02*
D03*
X304834Y632374D02*
D03*
X290193Y638045D02*
D03*
X282184Y632483D02*
D03*
X288352Y646488D02*
D03*
X378858Y594456D02*
D03*
X366525Y597447D02*
D03*
X334783Y599680D02*
D03*
X323671Y591201D02*
D03*
X323705Y587364D02*
D03*
X315894Y600788D02*
D03*
X304697Y592618D02*
D03*
X371985Y520482D02*
D03*
X389694Y547794D02*
D03*
Y541594D02*
D03*
X381094Y538494D02*
D03*
Y544732D02*
D03*
X392594D02*
D03*
Y538494D02*
D03*
X378194Y541594D02*
D03*
Y547832D02*
D03*
X318894Y547794D02*
D03*
Y541594D02*
D03*
X310294Y538494D02*
D03*
Y544732D02*
D03*
X321794D02*
D03*
Y538494D02*
D03*
X307394Y541594D02*
D03*
Y547832D02*
D03*
X248294Y547694D02*
D03*
Y541494D02*
D03*
X239694Y538394D02*
D03*
Y544632D02*
D03*
X251194D02*
D03*
Y538394D02*
D03*
X236794Y541494D02*
D03*
Y547732D02*
D03*
X91194Y522794D02*
D03*
X168094Y515194D02*
D03*
X106694Y550194D02*
D03*
Y543994D02*
D03*
X98094Y540894D02*
D03*
Y547132D02*
D03*
X109594D02*
D03*
Y540894D02*
D03*
X95194Y543994D02*
D03*
Y550232D02*
D03*
X165694Y547832D02*
D03*
Y541594D02*
D03*
X180094Y538494D02*
D03*
X188394Y549894D02*
D03*
Y543494D02*
D03*
X185394Y544994D02*
D03*
Y548494D02*
D03*
X326594Y546894D02*
D03*
Y550394D02*
D03*
X329594Y545394D02*
D03*
Y551794D02*
D03*
X258694Y547994D02*
D03*
Y551494D02*
D03*
X261694Y546494D02*
D03*
Y552894D02*
D03*
X117994Y548594D02*
D03*
Y542194D02*
D03*
X114994Y547194D02*
D03*
Y543694D02*
D03*
X37081Y523424D02*
D03*
X33581D02*
D03*
X38581Y526424D02*
D03*
X32181D02*
D03*
X122594Y550694D02*
D03*
X370694Y556594D02*
D03*
X217294Y553494D02*
D03*
X360294Y543294D02*
D03*
X356879Y556479D02*
D03*
X147594Y543294D02*
D03*
X77994Y546794D02*
D03*
X333008Y529094D02*
D03*
Y532194D02*
D03*
X372194Y506594D02*
D03*
Y509694D02*
D03*
X300194Y508094D02*
D03*
Y505594D02*
D03*
X35194Y503694D02*
D03*
Y506894D02*
D03*
X84394Y504394D02*
D03*
X91184Y508994D02*
D03*
X251394Y508394D02*
D03*
X247494Y509594D02*
D03*
X229594Y507394D02*
D03*
X232894D02*
D03*
X180213Y506894D02*
D03*
Y503594D02*
D03*
X180394Y498994D02*
D03*
X322794Y506994D02*
D03*
Y503694D02*
D03*
X389494Y501294D02*
D03*
X391694Y499094D02*
D03*
X385194Y485994D02*
D03*
X381894D02*
D03*
X332094Y489094D02*
D03*
X329094D02*
D03*
X343494Y448394D02*
D03*
X346794D02*
D03*
X327494Y498394D02*
D03*
Y495094D02*
D03*
X314294Y506894D02*
D03*
X303994Y501894D02*
D03*
X315894Y496794D02*
D03*
Y493494D02*
D03*
X325394Y469694D02*
D03*
Y466394D02*
D03*
X312694Y483894D02*
D03*
Y480594D02*
D03*
X315394Y469394D02*
D03*
Y466094D02*
D03*
X289094Y459194D02*
D03*
X285794D02*
D03*
X305394Y456794D02*
D03*
Y460094D02*
D03*
X248094Y500994D02*
D03*
X251394D02*
D03*
X243694Y480794D02*
D03*
Y484094D02*
D03*
X257294Y490994D02*
D03*
X260094Y489194D02*
D03*
Y485994D02*
D03*
X293994D02*
D03*
Y489094D02*
D03*
X295894Y494794D02*
D03*
Y498194D02*
D03*
X264894Y485994D02*
D03*
Y489094D02*
D03*
X263194Y494794D02*
D03*
Y498194D02*
D03*
X297051Y523394D02*
D03*
Y520294D02*
D03*
X225794Y527694D02*
D03*
X226191Y523394D02*
D03*
Y520294D02*
D03*
X262122Y532194D02*
D03*
Y529094D02*
D03*
X191282Y532294D02*
D03*
Y529194D02*
D03*
X290894Y556794D02*
D03*
X235194Y459094D02*
D03*
X231894D02*
D03*
X215394Y465594D02*
D03*
X232994Y470394D02*
D03*
X182094Y455894D02*
D03*
Y452594D02*
D03*
X237494Y509594D02*
D03*
X205394Y469494D02*
D03*
Y466194D02*
D03*
X195294Y460294D02*
D03*
Y456994D02*
D03*
X104594Y498794D02*
D03*
Y502094D02*
D03*
X108894Y456094D02*
D03*
Y459294D02*
D03*
Y462494D02*
D03*
X96994Y489894D02*
D03*
X93694D02*
D03*
X90494Y478194D02*
D03*
Y481494D02*
D03*
Y484794D02*
D03*
X95594Y468894D02*
D03*
Y465694D02*
D03*
X85594Y468894D02*
D03*
Y465694D02*
D03*
X76294Y452494D02*
D03*
Y455694D02*
D03*
Y458894D02*
D03*
X52594Y455794D02*
D03*
X52394Y459194D02*
D03*
X55094Y453294D02*
D03*
X59794Y455894D02*
D03*
X63294D02*
D03*
X59794Y459394D02*
D03*
X32394Y500394D02*
D03*
X35594D02*
D03*
X38594Y485794D02*
D03*
X41894D02*
D03*
X218594Y543294D02*
D03*
X71536Y546836D02*
D03*
X424294Y675794D02*
D03*
X420694Y679694D02*
D03*
X407394Y679594D02*
D03*
X413194Y673294D02*
D03*
X412794Y663894D02*
D03*
X409094Y661294D02*
D03*
X413694Y668594D02*
D03*
X409994Y675994D02*
D03*
X404394Y676094D02*
D03*
X403294Y661194D02*
D03*
X417594Y684894D02*
D03*
X417694Y691594D02*
D03*
X412594Y691494D02*
D03*
X412894Y685194D02*
D03*
X402494Y682494D02*
D03*
X398994Y678994D02*
D03*
X394294Y679094D02*
D03*
X394394Y682994D02*
D03*
X413094Y728694D02*
D03*
X411913Y722860D02*
D03*
X406480Y735352D02*
D03*
X412809Y732215D02*
D03*
X410194Y735194D02*
D03*
X402394Y735294D02*
D03*
X397394D02*
D03*
X407694Y721994D02*
D03*
X397794D02*
D03*
X394094Y722394D02*
D03*
X402394Y722194D02*
D03*
X412694Y765194D02*
D03*
X416294Y765894D02*
D03*
X414394Y761994D02*
D03*
X410694Y762394D02*
D03*
X413094Y768694D02*
D03*
X406194Y761694D02*
D03*
X399094Y761994D02*
D03*
X402494Y762794D02*
D03*
X398494Y776694D02*
D03*
X405094Y776994D02*
D03*
X402394Y774694D02*
D03*
X368494Y750294D02*
D03*
X390994Y768594D02*
D03*
X390894Y777094D02*
D03*
X375594Y755294D02*
D03*
X377294Y762994D02*
D03*
X377292Y768245D02*
D03*
X370794Y758994D02*
D03*
X391194Y761594D02*
D03*
X377292Y758961D02*
D03*
X384394Y778794D02*
D03*
X377494Y778894D02*
D03*
X370594Y778694D02*
D03*
X316994Y701894D02*
D03*
X328694Y719394D02*
D03*
X238668Y720269D02*
D03*
X262402Y728327D02*
D03*
X273294Y739294D02*
D03*
X271594Y732194D02*
D03*
X280417Y736811D02*
D03*
X227917Y733570D02*
D03*
X266094Y738394D02*
D03*
X263194Y738494D02*
D03*
Y742619D02*
D03*
X109400Y752045D02*
D03*
X101494Y747198D02*
D03*
X189811Y748667D02*
D03*
X230094Y766994D02*
D03*
X213779Y731476D02*
D03*
X30413Y627835D02*
D03*
X41055Y631613D02*
D03*
X75728Y630098D02*
D03*
X421794Y525994D02*
D03*
Y536394D02*
D03*
X92228Y630896D02*
D03*
X95694Y626794D02*
D03*
X83169Y630098D02*
D03*
X79823Y635512D02*
D03*
X65046Y630016D02*
D03*
X89862Y620945D02*
D03*
X63406Y620694D02*
D03*
X76083Y620847D02*
D03*
X97720Y596664D02*
D03*
X59206Y620894D02*
D03*
X262019Y701864D02*
D03*
X264382Y721845D02*
D03*
X267433Y719778D02*
D03*
X272367Y719533D02*
D03*
X275295Y702933D02*
D03*
X266694Y649594D02*
D03*
X264688Y644381D02*
D03*
X267294Y655194D02*
D03*
X267598Y664027D02*
D03*
X273228Y698504D02*
D03*
X271358Y692894D02*
D03*
X268504Y695847D02*
D03*
X265957Y698419D02*
D03*
X258050Y683243D02*
D03*
X325451Y576941D02*
D03*
X79908Y487594D02*
D03*
X414241Y791156D02*
D03*
X74594Y690675D02*
D03*
X370652Y553179D02*
D03*
X326594Y530694D02*
D03*
X289394Y543294D02*
D03*
X232894Y542894D02*
D03*
Y535394D02*
D03*
Y527894D02*
D03*
X231094Y519594D02*
D03*
X185492Y528394D02*
D03*
X185394Y535394D02*
D03*
X89894Y527894D02*
D03*
X119494Y730294D02*
D03*
X191094Y698094D02*
D03*
X195494Y711794D02*
D03*
X78591Y646494D02*
D03*
X84445Y718574D02*
D03*
X150831Y725379D02*
D03*
X136793Y724493D02*
D03*
X136694Y673894D02*
D03*
X90494Y716894D02*
D03*
X136951Y678779D02*
D03*
X67294Y686975D02*
D03*
X66994Y694375D02*
D03*
X66794Y690675D02*
D03*
X30194Y696594D02*
D03*
X86336Y731653D02*
D03*
X86399Y735081D02*
D03*
X110775Y638248D02*
D03*
X198092Y614146D02*
D03*
X198095Y610480D02*
D03*
X189694Y614194D02*
D03*
Y610494D02*
D03*
X234420Y677336D02*
D03*
X241268Y680444D02*
D03*
X245887Y672774D02*
D03*
X153098Y624196D02*
D03*
X318110Y575768D02*
D03*
X137917Y668795D02*
D03*
X156530Y665477D02*
D03*
X160064Y665470D02*
D03*
X187285Y673770D02*
D03*
X187296Y677361D02*
D03*
X197145Y677340D02*
D03*
X189613Y759394D02*
D03*
X237294Y753294D02*
D03*
X246414Y747494D02*
D03*
X82594Y523394D02*
D03*
X155194Y527494D02*
D03*
X155324Y531294D02*
D03*
X226236D02*
D03*
X296994Y527794D02*
D03*
X297096Y531294D02*
D03*
X367982D02*
D03*
Y526294D02*
D03*
X66950Y508994D02*
D03*
X63350D02*
D03*
X85394Y507794D02*
D03*
X63350Y506394D02*
D03*
X66950D02*
D03*
X57308Y508394D02*
D03*
Y505694D02*
D03*
X83808Y491994D02*
D03*
X81394Y494408D02*
D03*
X82308Y485194D02*
D03*
X48994Y486219D02*
D03*
X46694Y483794D02*
D03*
X47094Y492580D02*
D03*
X43994Y490994D02*
D03*
X52608Y479294D02*
D03*
X55875D02*
D03*
X59141D02*
D03*
X62408D02*
D03*
X67594D02*
D03*
X70960D02*
D03*
X74327D02*
D03*
X77694D02*
D03*
X30594Y763594D02*
D03*
X352294Y508994D02*
D03*
X348694D02*
D03*
X367194Y520494D02*
D03*
X348694Y506394D02*
D03*
X358851Y508294D02*
D03*
Y505494D02*
D03*
X342651Y508394D02*
D03*
Y505694D02*
D03*
X281408Y508994D02*
D03*
X277808D02*
D03*
Y506394D02*
D03*
X281408D02*
D03*
X287965Y508294D02*
D03*
Y505494D02*
D03*
X251465Y505194D02*
D03*
X271765Y508394D02*
D03*
Y505694D02*
D03*
X267065Y479294D02*
D03*
X270332D02*
D03*
X273599D02*
D03*
X276865D02*
D03*
X281865D02*
D03*
X285232D02*
D03*
X288599D02*
D03*
X291965D02*
D03*
X276084Y485885D02*
D03*
X283240Y485959D02*
D03*
X210548Y508994D02*
D03*
X206948D02*
D03*
Y506394D02*
D03*
X210548D02*
D03*
X217106Y508294D02*
D03*
Y505494D02*
D03*
X200906Y508394D02*
D03*
Y505694D02*
D03*
X225094Y494794D02*
D03*
Y498194D02*
D03*
X223194Y485994D02*
D03*
X223294Y489094D02*
D03*
X193994D02*
D03*
Y485994D02*
D03*
X192394Y498194D02*
D03*
Y494794D02*
D03*
X196206Y479294D02*
D03*
X199472D02*
D03*
X202739D02*
D03*
X206006D02*
D03*
X211006D02*
D03*
X214372D02*
D03*
X217739D02*
D03*
X221106D02*
D03*
X228394Y448878D02*
D03*
X212883Y484545D02*
D03*
X150194Y479294D02*
D03*
X146827D02*
D03*
X143460D02*
D03*
X140094D02*
D03*
X135094D02*
D03*
X131827D02*
D03*
X128560D02*
D03*
X125294D02*
D03*
X121494Y494294D02*
D03*
Y497694D02*
D03*
X122994Y485494D02*
D03*
X122894Y488894D02*
D03*
X153194Y491594D02*
D03*
Y488094D02*
D03*
X154094Y498894D02*
D03*
Y495494D02*
D03*
X129994Y505694D02*
D03*
Y508394D02*
D03*
X109394Y507294D02*
D03*
X146194Y505494D02*
D03*
Y508294D02*
D03*
X139636Y506394D02*
D03*
X136036D02*
D03*
Y508994D02*
D03*
X139636D02*
D03*
X425394Y643094D02*
D03*
X416831Y633445D02*
D03*
X345817Y824636D02*
D03*
X331794Y793594D02*
D03*
X159394Y671994D02*
D03*
X223668Y673824D02*
D03*
X374594Y817894D02*
D03*
X263194Y746744D02*
D03*
Y750869D02*
D03*
X428294Y538994D02*
D03*
X424594D02*
D03*
X428194Y523394D02*
D03*
X421794Y532894D02*
D03*
Y529394D02*
D03*
X243374Y747494D02*
D03*
X242894Y751994D02*
D03*
X252494Y747494D02*
D03*
X93394Y681994D02*
D03*
X237294Y750394D02*
D03*
X240334Y747494D02*
D03*
X394594Y818394D02*
D03*
X30594Y759294D02*
D03*
X339725Y806036D02*
D03*
X360175Y804589D02*
D03*
X157294Y760094D02*
D03*
X116988Y755590D02*
D03*
X117394Y760094D02*
D03*
X249454Y747494D02*
D03*
X237294D02*
D03*
X122294Y760194D02*
D03*
X162594Y759994D02*
D03*
X73594Y755594D02*
D03*
X122894Y755590D02*
D03*
X248094Y751994D02*
D03*
X327490Y822520D02*
D03*
X417421Y624193D02*
D03*
X414370Y642894D02*
D03*
X405894Y624394D02*
D03*
X425394Y624094D02*
D03*
X406394Y647894D02*
D03*
X414894D02*
D03*
X69685Y611791D02*
D03*
X421457Y642992D02*
D03*
X407087D02*
D03*
X178394Y675616D02*
D03*
X158294Y675894D02*
D03*
X164294Y669194D02*
D03*
X328894Y575494D02*
D03*
X158294Y679694D02*
D03*
X244816Y618997D02*
D03*
X248507Y619010D02*
D03*
X178294Y619894D02*
D03*
X181883Y619899D02*
D03*
X261523Y666546D02*
D03*
X327494Y569494D02*
D03*
X223680Y677348D02*
D03*
X216833Y677333D02*
D03*
X363194Y590294D02*
D03*
X231894Y700094D02*
D03*
X224094Y697294D02*
D03*
X265111Y666527D02*
D03*
X261532Y659679D02*
D03*
X317494Y565894D02*
D03*
X248500Y632301D02*
D03*
X182981Y614887D02*
D03*
X259194Y563594D02*
D03*
X82906Y620894D02*
D03*
X29894Y744294D02*
D03*
X47506Y601094D02*
D03*
X30494Y631294D02*
D03*
X36052Y623864D02*
D03*
X53106Y619494D02*
D03*
X189513Y772394D02*
D03*
X30206Y571294D02*
D03*
Y609594D02*
D03*
Y605194D02*
D03*
Y575594D02*
D03*
X47306Y596694D02*
D03*
X410994Y466594D02*
D03*
X143958Y709675D02*
D03*
X90194Y713094D02*
D03*
X86694Y706994D02*
D03*
X232633Y589224D02*
D03*
X214094Y593894D02*
D03*
X210283Y593786D02*
D03*
X282194Y622994D02*
D03*
X283738Y607062D02*
D03*
X421594Y647994D02*
D03*
X275894Y826794D02*
D03*
X293194Y819194D02*
D03*
X293094Y822794D02*
D03*
X293194Y826494D02*
D03*
X308694Y819094D02*
D03*
Y827194D02*
D03*
Y822994D02*
D03*
X318094Y827494D02*
D03*
X318194Y823194D02*
D03*
Y818994D02*
D03*
X321694Y819094D02*
D03*
X300194Y819194D02*
D03*
X299994Y827194D02*
D03*
X326394Y728494D02*
D03*
X286094Y764594D02*
D03*
X299494Y703794D02*
D03*
Y708594D02*
D03*
X310694Y708694D02*
D03*
Y704494D02*
D03*
X299494Y712594D02*
D03*
X288658Y718053D02*
D03*
X288349Y714585D02*
D03*
X288412Y710856D02*
D03*
X263194Y754994D02*
D03*
X266094D02*
D03*
X273294Y754894D02*
D03*
Y750769D02*
D03*
Y746644D02*
D03*
Y742519D02*
D03*
X283294Y778694D02*
D03*
Y773294D02*
D03*
X104494Y786294D02*
D03*
X296494Y819194D02*
D03*
X150094Y799094D02*
D03*
X110594Y799294D02*
D03*
X66994Y787794D02*
D03*
X296494Y826494D02*
D03*
X73094Y786494D02*
D03*
X144344Y786294D02*
D03*
X108994Y784094D02*
D03*
Y774994D02*
D03*
X149094D02*
D03*
Y784094D02*
D03*
X184444Y786294D02*
D03*
X109294Y792594D02*
D03*
X149194Y792794D02*
D03*
X429394Y785094D02*
D03*
Y789094D02*
D03*
Y794994D02*
D03*
X425394Y647994D02*
D03*
X414145Y794959D02*
D03*
X418945Y789059D02*
D03*
Y785059D02*
D03*
X417052Y800457D02*
D03*
X44294Y695394D02*
D03*
X58994Y445194D02*
D03*
X352394Y506394D02*
D03*
X324902Y573307D02*
D03*
X230794Y564694D02*
D03*
X145925Y769468D02*
D03*
X185813Y759494D02*
D03*
X157244Y755689D02*
D03*
X154291D02*
D03*
X102717Y756870D02*
D03*
X142874Y756968D02*
D03*
X163150Y755689D02*
D03*
X160197D02*
D03*
X166102D02*
D03*
X119941Y755590D02*
D03*
X125847D02*
D03*
X77594Y755594D02*
D03*
X85594D02*
D03*
X81594D02*
D03*
X72603Y760134D02*
D03*
X77594Y760094D02*
D03*
X82494D02*
D03*
X186257Y745247D02*
D03*
X189825Y745224D02*
D03*
X114042Y755606D02*
D03*
X100553Y750868D02*
D03*
X105571Y769370D02*
D03*
X218572Y778434D02*
D03*
X199257Y774657D02*
D03*
X200594Y784094D02*
D03*
X45394Y799094D02*
D03*
X57294Y766420D02*
D03*
X58144Y780544D02*
D03*
X229594Y797194D02*
D03*
X112294Y490294D02*
D03*
X117694Y487794D02*
D03*
X115594Y490294D02*
D03*
X109394Y504294D02*
D03*
X109694Y500694D02*
D03*
X122594Y455794D02*
D03*
Y452494D02*
D03*
X135794Y459394D02*
D03*
Y456194D02*
D03*
Y452994D02*
D03*
X145894Y469694D02*
D03*
Y466394D02*
D03*
X160594Y488694D02*
D03*
X158094Y491194D02*
D03*
X162494Y467994D02*
D03*
X155894Y452494D02*
D03*
Y455794D02*
D03*
X73508Y505494D02*
D03*
Y508294D02*
D03*
X47594Y531794D02*
D03*
Y528694D02*
D03*
X82594Y520294D02*
D03*
X117594Y448294D02*
D03*
X114294D02*
D03*
X174294Y498994D02*
D03*
Y495694D02*
D03*
X168594Y544732D02*
D03*
Y538494D02*
D03*
X120294Y529094D02*
D03*
Y532194D02*
D03*
X155280Y520294D02*
D03*
Y523394D02*
D03*
X168694Y502594D02*
D03*
Y505694D02*
D03*
X168094Y509194D02*
D03*
X175294Y505794D02*
D03*
X172894Y492094D02*
D03*
X189294Y485994D02*
D03*
Y489194D02*
D03*
X186494Y490994D02*
D03*
X172894Y460294D02*
D03*
X176194D02*
D03*
X227994Y485994D02*
D03*
Y489194D02*
D03*
X230794Y490994D02*
D03*
X243894Y500394D02*
D03*
X240794D02*
D03*
X337994Y497979D02*
D03*
Y494580D02*
D03*
X350694Y470094D02*
D03*
X347394D02*
D03*
X370394Y498194D02*
D03*
Y494894D02*
D03*
X370349Y485205D02*
D03*
X90494Y488294D02*
D03*
X354894Y452494D02*
D03*
Y455794D02*
D03*
X364894Y465294D02*
D03*
X374894Y465894D02*
D03*
Y469194D02*
D03*
X384894D02*
D03*
Y465894D02*
D03*
X394894Y469294D02*
D03*
Y465994D02*
D03*
X370494Y478294D02*
D03*
X384894Y481994D02*
D03*
Y478694D02*
D03*
X394894Y479494D02*
D03*
Y482794D02*
D03*
X351665Y479094D02*
D03*
X348399D02*
D03*
X345132D02*
D03*
X366365D02*
D03*
X363099D02*
D03*
X359832D02*
D03*
X356565D02*
D03*
X342094D02*
D03*
X421574Y543746D02*
D03*
X424774D02*
D03*
X425874Y546846D02*
D03*
Y550146D02*
D03*
X424974Y553446D02*
D03*
Y556646D02*
D03*
Y563046D02*
D03*
Y559846D02*
D03*
X422374Y564946D02*
D03*
X426294Y475894D02*
D03*
X424294Y478394D02*
D03*
X424194Y473394D02*
D03*
X410194Y478394D02*
D03*
X410094Y473394D02*
D03*
X408094Y475894D02*
D03*
X426294Y495894D02*
D03*
X424294Y498394D02*
D03*
X424194Y493394D02*
D03*
X410194Y498394D02*
D03*
X410094Y493394D02*
D03*
X408094Y495894D02*
D03*
X426294Y505894D02*
D03*
X424294Y508394D02*
D03*
X424194Y503394D02*
D03*
X410194Y508394D02*
D03*
X410094Y503394D02*
D03*
X408094Y505894D02*
D03*
X288194Y600294D02*
D03*
X295994Y602694D02*
D03*
X189357Y639161D02*
D03*
X178913Y638087D02*
D03*
X178527Y652683D02*
D03*
X166374Y645017D02*
D03*
X153315Y645188D02*
D03*
X208901Y677351D02*
D03*
X197143Y680909D02*
D03*
X234327Y673801D02*
D03*
X188691Y717240D02*
D03*
X163926Y727479D02*
D03*
X201294Y722194D02*
D03*
X206319Y722219D02*
D03*
X211256Y722219D02*
D03*
X216272Y722189D02*
D03*
X221298Y722268D02*
D03*
X208865Y673887D02*
D03*
X216834Y673776D02*
D03*
X345852Y582786D02*
D03*
X373228Y565138D02*
D03*
X215080Y700060D02*
D03*
X214128Y597469D02*
D03*
X230848Y614163D02*
D03*
X230872Y610484D02*
D03*
X197976Y557490D02*
D03*
X177308Y540436D02*
D03*
X180067Y542667D02*
D03*
X177246Y546387D02*
D03*
X99139Y592981D02*
D03*
X141603Y668587D02*
D03*
X120942Y592684D02*
D03*
X139076Y627738D02*
D03*
X96348Y621836D02*
D03*
X104083Y557105D02*
D03*
X159210Y730607D02*
D03*
X159139Y721631D02*
D03*
X148068Y709716D02*
D03*
X171032Y712774D02*
D03*
X175925Y730741D02*
D03*
X194018Y730530D02*
D03*
X194608Y722053D02*
D03*
X183558Y712943D02*
D03*
X175292Y715684D02*
D03*
X342496Y576994D02*
D03*
X348170Y801886D02*
D03*
X349094Y788994D02*
D03*
Y792294D02*
D03*
Y795794D02*
D03*
Y799194D02*
D03*
X281721Y707922D02*
D03*
X291985Y719510D02*
D03*
X291963Y722472D02*
D03*
X255594Y705494D02*
D03*
Y710394D02*
D03*
X234888Y720249D02*
D03*
X198378Y734419D02*
D03*
X198398Y730821D02*
D03*
X198418Y727341D02*
D03*
X227951Y739053D02*
D03*
X225138Y767056D02*
D03*
X149392Y751991D02*
D03*
X96943Y736462D02*
D03*
X93122Y736545D02*
D03*
X100125Y636403D02*
D03*
X155721Y635329D02*
D03*
X91692Y648860D02*
D03*
X35746Y637220D02*
D03*
X60284Y637075D02*
D03*
X68254Y636882D02*
D03*
X74823Y641277D02*
D03*
X35860Y645645D02*
D03*
X35715Y654824D02*
D03*
X35643Y664220D02*
D03*
Y673255D02*
D03*
X35728Y682027D02*
D03*
X35663Y690599D02*
D03*
X50552Y698397D02*
D03*
X58866Y698462D02*
D03*
X66536Y700717D02*
D03*
X72916Y706905D02*
D03*
X77743Y711772D02*
D03*
X93294Y661194D02*
D03*
X103757Y670096D02*
D03*
X103619Y678026D02*
D03*
X102050Y724744D02*
D03*
X102092Y720571D02*
D03*
X197441Y672110D02*
D03*
X208992Y680785D02*
D03*
X216862Y670291D02*
D03*
X223688Y670330D02*
D03*
X348266Y640282D02*
D03*
X292582Y673397D02*
D03*
X161237Y520350D02*
D03*
X120287Y575843D02*
D03*
X227894Y730094D02*
D03*
X189795Y752377D02*
D03*
X258136Y754276D02*
D03*
X236760Y730489D02*
D03*
X169994Y755566D02*
D03*
X129894Y755494D02*
D03*
X90043Y755358D02*
D03*
X204813Y773795D02*
D03*
X76148Y747577D02*
D03*
X296194Y546375D02*
D03*
X367094Y546130D02*
D03*
X81794Y546343D02*
D03*
X157604Y543333D02*
D03*
X225394Y546312D02*
D03*
X164694Y602194D02*
D03*
X183194Y706794D02*
D03*
X65086Y491959D02*
D03*
X75771Y436170D02*
D03*
X95949Y436085D02*
D03*
X85960Y452999D02*
D03*
X60919Y486199D02*
D03*
X69230Y486375D02*
D03*
X155889Y436241D02*
D03*
X135862Y436109D02*
D03*
X34252Y460062D02*
D03*
X36766Y587772D02*
D03*
X62840Y802641D02*
D03*
X176358Y440324D02*
D03*
X137813Y492767D02*
D03*
X133820Y485446D02*
D03*
X143051Y485100D02*
D03*
X195544Y436554D02*
D03*
X278064Y459037D02*
D03*
X204478Y484584D02*
D03*
X186285Y470536D02*
D03*
X245017Y458996D02*
D03*
X266238Y436496D02*
D03*
X255829Y459051D02*
D03*
X286307Y446048D02*
D03*
X305664Y436120D02*
D03*
X325321Y436469D02*
D03*
X279847Y491787D02*
D03*
X208818Y492012D02*
D03*
X352917Y492055D02*
D03*
X356783Y483696D02*
D03*
X348533Y484050D02*
D03*
X365151Y436378D02*
D03*
X384923Y436749D02*
D03*
X375222Y452300D02*
D03*
X395883Y452596D02*
D03*
X335590Y452579D02*
D03*
X315504Y451749D02*
D03*
X294513Y452051D02*
D03*
X266882Y458701D02*
D03*
X398073Y511403D02*
D03*
X396185Y437475D02*
D03*
X424872Y468430D02*
D03*
X409615Y517441D02*
D03*
X422788Y602672D02*
D03*
X407455Y560373D02*
D03*
X398884Y560589D02*
D03*
X407046Y602355D02*
D03*
X407432Y617036D02*
D03*
X420403Y616536D02*
D03*
X341387Y568476D02*
D03*
X375941Y584500D02*
D03*
X356874Y567943D02*
D03*
X398859Y589355D02*
D03*
X390563Y601924D02*
D03*
X360704Y601576D02*
D03*
X350569Y596707D02*
D03*
X329067Y605375D02*
D03*
X338607Y618588D02*
D03*
X307678Y616336D02*
D03*
X310640Y608634D02*
D03*
X301278Y606323D02*
D03*
X211011Y624517D02*
D03*
X202070Y628668D02*
D03*
X224307Y637716D02*
D03*
X217683Y631236D02*
D03*
X202165Y637043D02*
D03*
X207782Y632161D02*
D03*
X208911Y638028D02*
D03*
X225516Y650743D02*
D03*
X234176Y660031D02*
D03*
X242007Y657261D02*
D03*
X211052Y661015D02*
D03*
X218775Y663212D02*
D03*
X184648Y652701D02*
D03*
X193180Y652890D02*
D03*
X203203Y652832D02*
D03*
X183645Y670523D02*
D03*
X193249Y665721D02*
D03*
X203145Y665133D02*
D03*
X176798Y689802D02*
D03*
X170671Y694921D02*
D03*
X148741Y678996D02*
D03*
X148475Y695015D02*
D03*
X153959Y714954D02*
D03*
X144121Y730384D02*
D03*
X151838Y736899D02*
D03*
X131784Y737448D02*
D03*
X118522Y558276D02*
D03*
X91686Y567583D02*
D03*
X138747Y576053D02*
D03*
X36187Y704026D02*
D03*
X53907Y717378D02*
D03*
X107837Y737003D02*
D03*
X88300Y746193D02*
D03*
X48410Y748743D02*
D03*
X36033Y796077D02*
D03*
X54119Y778217D02*
D03*
X165442Y742061D02*
D03*
X253147Y716101D02*
D03*
X227932Y716229D02*
D03*
X245522Y708796D02*
D03*
X311783Y685005D02*
D03*
X356137Y673086D02*
D03*
X304365Y652445D02*
D03*
X342452Y649058D02*
D03*
X340290Y637890D02*
D03*
X383188Y673319D02*
D03*
X379204Y632489D02*
D03*
X381704Y644385D02*
D03*
X397808Y632532D02*
D03*
Y645643D02*
D03*
X395347Y661811D02*
D03*
X408214Y654175D02*
D03*
X425542Y778075D02*
D03*
X35800Y767476D02*
D03*
X58659Y826201D02*
D03*
X83399Y827230D02*
D03*
X102703Y826765D02*
D03*
X123109Y827105D02*
D03*
X163393Y827307D02*
D03*
X143282Y826991D02*
D03*
X203547Y827272D02*
D03*
X183189Y827552D02*
D03*
X223780Y827056D02*
D03*
X243399D02*
D03*
X264441Y827006D02*
D03*
X264560Y802845D02*
D03*
X284339Y812050D02*
D03*
X281602Y794137D02*
D03*
X300261Y792520D02*
D03*
X298520Y812175D02*
D03*
X319933Y791902D02*
D03*
X325549Y776160D02*
D03*
X300969Y770366D02*
D03*
X327276Y758949D02*
D03*
X302888Y742855D02*
D03*
X326055Y744741D02*
D03*
X339743Y742295D02*
D03*
X360695Y758028D02*
D03*
X344335Y729236D02*
D03*
X371315Y729205D02*
D03*
X362305Y742272D02*
D03*
X384772Y750596D02*
D03*
X384056Y735839D02*
D03*
X418021Y748531D02*
D03*
X420108Y669120D02*
D03*
X413535Y622955D02*
D03*
X57504Y603211D02*
D03*
X37575Y569035D02*
D03*
X64186Y569226D02*
D03*
X84863Y567950D02*
D03*
X80332Y589009D02*
D03*
X57869Y587772D02*
D03*
X74313Y604582D02*
D03*
X58874Y556985D02*
D03*
X49647Y560731D02*
D03*
X207757Y620504D02*
D03*
X192349Y628825D02*
D03*
X203139Y643149D02*
D03*
X217514Y643372D02*
D03*
X209024D02*
D03*
X208876Y653067D02*
D03*
X203145Y675827D02*
D03*
X373649Y485205D02*
D03*
X241037Y710749D02*
D03*
X154782Y590987D02*
D03*
X146349Y594375D02*
D03*
X149920Y591805D02*
D03*
X65562Y715314D02*
D03*
X370769Y637728D02*
D03*
G54D128*
X0Y0D02*
Y860974D01*
X460610D01*
Y0D02*
Y860974D01*
X0Y0D02*
X460610D01*
X25394Y25394D02*
X435394D01*
Y430394D01*
X25394D02*
X435394D01*
X25394Y25394D02*
Y430394D01*
X435394D01*
Y835394D01*
X25394D02*
X435394D01*
X25394Y430394D02*
Y835394D01*
G54D129*
X336894Y363794D02*
D03*
X350294D02*
D03*
Y310794D02*
D03*
X336894D02*
D03*
X383894D02*
D03*
X370494D02*
D03*
X336894Y768794D02*
D03*
X350294D02*
D03*
Y715794D02*
D03*
X336894D02*
D03*
X383894D02*
D03*
X370494D02*
D03*
M02*
