G04*
G04 #@! TF.GenerationSoftware,Altium Limited,Altium Designer,18.1.7 (191)*
G04*
G04 Layer_Physical_Order=5*
G04 Layer_Color=32768*
%FSLAX25Y25*%
%MOIN*%
G70*
G01*
G75*
%ADD12C,0.01000*%
%ADD89C,0.02000*%
%ADD97C,0.04000*%
%ADD102C,0.01500*%
%ADD131C,0.15811*%
%ADD132C,0.06400*%
G04:AMPARAMS|DCode=133|XSize=84mil|YSize=84mil|CornerRadius=0mil|HoleSize=0mil|Usage=FLASHONLY|Rotation=0.000|XOffset=0mil|YOffset=0mil|HoleType=Round|Shape=Relief|Width=14mil|Gap=10mil|Entries=4|*
%AMTHD133*
7,0,0,0.08400,0.06400,0.01400,45*
%
%ADD133THD133*%
G04:AMPARAMS|DCode=134|XSize=79.433mil|YSize=79.433mil|CornerRadius=0mil|HoleSize=0mil|Usage=FLASHONLY|Rotation=0.000|XOffset=0mil|YOffset=0mil|HoleType=Round|Shape=Relief|Width=14mil|Gap=10mil|Entries=4|*
%AMTHD134*
7,0,0,0.07943,0.05943,0.01400,45*
%
%ADD134THD134*%
%ADD135C,0.05943*%
%ADD136C,0.15392*%
%ADD137C,0.08700*%
%ADD138C,0.07900*%
G04:AMPARAMS|DCode=139|XSize=99mil|YSize=99mil|CornerRadius=0mil|HoleSize=0mil|Usage=FLASHONLY|Rotation=0.000|XOffset=0mil|YOffset=0mil|HoleType=Round|Shape=Relief|Width=14mil|Gap=10mil|Entries=4|*
%AMTHD139*
7,0,0,0.09900,0.07900,0.01400,45*
%
%ADD139THD139*%
%ADD140C,0.08300*%
%ADD141C,0.11100*%
G04:AMPARAMS|DCode=142|XSize=131mil|YSize=131mil|CornerRadius=0mil|HoleSize=0mil|Usage=FLASHONLY|Rotation=0.000|XOffset=0mil|YOffset=0mil|HoleType=Round|Shape=Relief|Width=14mil|Gap=10mil|Entries=4|*
%AMTHD142*
7,0,0,0.13100,0.11100,0.01400,45*
%
%ADD142THD142*%
G04:AMPARAMS|DCode=143|XSize=82mil|YSize=82mil|CornerRadius=0mil|HoleSize=0mil|Usage=FLASHONLY|Rotation=0.000|XOffset=0mil|YOffset=0mil|HoleType=Round|Shape=Relief|Width=14mil|Gap=10mil|Entries=4|*
%AMTHD143*
7,0,0,0.08200,0.06200,0.01400,45*
%
%ADD143THD143*%
%ADD144C,0.06200*%
%ADD145C,0.14211*%
G04:AMPARAMS|DCode=146|XSize=59mil|YSize=59mil|CornerRadius=0mil|HoleSize=0mil|Usage=FLASHONLY|Rotation=0.000|XOffset=0mil|YOffset=0mil|HoleType=Round|Shape=Relief|Width=14mil|Gap=10mil|Entries=4|*
%AMTHD146*
7,0,0,0.05900,0.03900,0.01400,45*
%
%ADD146THD146*%
%ADD147C,0.03900*%
%ADD148C,0.03400*%
G54D12*
X344869Y939837D02*
Y932340D01*
X348618D01*
X349868Y933589D01*
Y934839D01*
X348618Y936089D01*
X344869D01*
X348618D01*
X349868Y937338D01*
Y938588D01*
X348618Y939837D01*
X344869D01*
X364863Y938588D02*
X363613Y939837D01*
X361114D01*
X359865Y938588D01*
Y933589D01*
X361114Y932340D01*
X363613D01*
X364863Y933589D01*
Y936089D01*
X362364D01*
X367362Y932340D02*
Y939837D01*
X372360Y932340D01*
Y939837D01*
X374860D02*
Y932340D01*
X378608D01*
X379858Y933589D01*
Y938588D01*
X378608Y939837D01*
X374860D01*
X389855Y932340D02*
Y939837D01*
X393604D01*
X394853Y938588D01*
Y936089D01*
X393604Y934839D01*
X389855D01*
X397353Y932340D02*
X399852D01*
X398602D01*
Y939837D01*
X397353D01*
X404850Y937338D02*
X407349D01*
X408599Y936089D01*
Y932340D01*
X404850D01*
X403601Y933589D01*
X404850Y934839D01*
X408599D01*
X411098Y932340D02*
Y937338D01*
X414847D01*
X416096Y936089D01*
Y932340D01*
X422344D02*
X419845D01*
X418596Y933589D01*
Y936089D01*
X419845Y937338D01*
X422344D01*
X423594Y936089D01*
Y934839D01*
X418596D01*
X344869Y927337D02*
Y919840D01*
X349868D01*
X353617Y924838D02*
X356116D01*
X357365Y923589D01*
Y919840D01*
X353617D01*
X352367Y921089D01*
X353617Y922339D01*
X357365D01*
X359865Y924838D02*
Y921089D01*
X361114Y919840D01*
X364863D01*
Y918590D01*
X363613Y917341D01*
X362364D01*
X364863Y919840D02*
Y924838D01*
X371111Y919840D02*
X368612D01*
X367362Y921089D01*
Y923589D01*
X368612Y924838D01*
X371111D01*
X372360Y923589D01*
Y922339D01*
X367362D01*
X374860Y924838D02*
Y919840D01*
Y922339D01*
X376109Y923589D01*
X377359Y924838D01*
X378608D01*
X394853Y927337D02*
X389855D01*
Y923589D01*
X392354Y924838D01*
X393604D01*
X394853Y923589D01*
Y921089D01*
X393604Y919840D01*
X391105D01*
X389855Y921089D01*
X344869Y907340D02*
Y912338D01*
X347369Y914837D01*
X349868Y912338D01*
Y907340D01*
Y911089D01*
X344869D01*
X352367Y912338D02*
Y907340D01*
Y909839D01*
X353617Y911089D01*
X354866Y912338D01*
X356116D01*
X364863D02*
X361114D01*
X359865Y911089D01*
Y908589D01*
X361114Y907340D01*
X364863D01*
X367362Y914837D02*
Y907340D01*
Y911089D01*
X368612Y912338D01*
X371111D01*
X372360Y911089D01*
Y907340D01*
X374860D02*
X377359D01*
X376109D01*
Y912338D01*
X374860D01*
X381108Y907340D02*
Y912338D01*
X382357D01*
X383607Y911089D01*
Y907340D01*
Y911089D01*
X384857Y912338D01*
X386106Y911089D01*
Y907340D01*
X388605Y906090D02*
X393604D01*
X401101Y907340D02*
X396103D01*
X401101Y912338D01*
Y913588D01*
X399852Y914837D01*
X397353D01*
X396103Y913588D01*
X403601Y907340D02*
Y908589D01*
X404850D01*
Y907340D01*
X403601D01*
X409848D02*
X412348D01*
X411098D01*
Y914837D01*
X409848Y913588D01*
X417346Y912338D02*
X419845D01*
X421095Y911089D01*
Y907340D01*
X417346D01*
X416096Y908589D01*
X417346Y909839D01*
X421095D01*
X404886Y410402D02*
X404894D01*
X25394Y230394D02*
X26394Y229394D01*
X25394Y313394D02*
Y346173D01*
X404886Y815402D02*
X404894D01*
X25394Y635394D02*
X26394Y634394D01*
X25394Y718394D02*
Y751173D01*
G54D89*
X33194Y53394D02*
Y164075D01*
Y223721D02*
Y295894D01*
Y179449D02*
Y205294D01*
X258094Y353594D02*
X260894Y350794D01*
X269215Y394294D02*
X282594Y380915D01*
X232362Y353594D02*
X258094D01*
X260894Y350794D02*
X282508D01*
X282594Y350880D02*
Y380915D01*
X226734Y365814D02*
X232503D01*
Y353779D02*
Y365814D01*
X226752Y389656D02*
X232748D01*
Y394197D01*
X226734Y365814D02*
Y389656D01*
X232748Y394194D02*
X269115D01*
X151485Y378537D02*
X173732D01*
Y358144D02*
Y378537D01*
X151485Y358144D02*
X173732D01*
X151485D02*
Y378537D01*
X111385D02*
X133632D01*
Y358144D02*
Y378537D01*
X111385Y358144D02*
X133632D01*
X111385D02*
Y378537D01*
X71535D02*
X93782D01*
Y358144D02*
Y378537D01*
X71535Y358144D02*
X93782D01*
X71535D02*
Y378537D01*
X53694Y26294D02*
Y45594D01*
X45894Y53394D02*
X53694Y45594D01*
X33194Y53394D02*
X45894D01*
X400394Y25594D02*
Y44894D01*
X425519Y383269D02*
X427394Y381394D01*
X425519Y383269D02*
Y395394D01*
X419894D02*
X425519D01*
X427394Y360894D02*
Y381394D01*
Y60894D02*
Y191394D01*
Y360894D01*
X55494Y424294D02*
X404894D01*
X33894Y355394D02*
Y400794D01*
X422523Y60894D02*
X427394D01*
X404894Y410402D02*
Y424294D01*
X33894Y400794D02*
X55494D01*
Y424294D01*
X400394Y44894D02*
X416394Y60894D01*
X422523D01*
X33194Y295894D02*
Y353973D01*
Y354694D02*
X33894Y355394D01*
X33194Y353973D02*
Y354694D01*
X404886Y410402D02*
X419894Y395394D01*
X106594Y263894D02*
X112091Y269391D01*
X33243Y229394D02*
X72094D01*
X112091Y269391D02*
Y318208D01*
X92094Y322594D02*
X107705D01*
X112091Y318208D01*
X33194Y295894D02*
X63078D01*
X79494Y236794D02*
X106594Y263894D01*
X63078Y295894D02*
X73978Y306794D01*
X72094Y229394D02*
X79494Y236794D01*
X73978Y306794D02*
X89778Y322594D01*
X92094D01*
X33194Y458394D02*
Y569075D01*
Y628721D02*
Y700894D01*
Y584449D02*
Y610294D01*
X258094Y758594D02*
X260894Y755794D01*
X269215Y799294D02*
X282594Y785915D01*
X232362Y758594D02*
X258094D01*
X260894Y755794D02*
X282508D01*
X282594Y755879D02*
Y785915D01*
X226734Y770814D02*
X232503D01*
Y758779D02*
Y770814D01*
X226752Y794656D02*
X232748D01*
Y799197D01*
X226734Y770814D02*
Y794656D01*
X232748Y799194D02*
X269115D01*
X151485Y783537D02*
X173732D01*
Y763144D02*
Y783537D01*
X151485Y763144D02*
X173732D01*
X151485D02*
Y783537D01*
X111385D02*
X133632D01*
Y763144D02*
Y783537D01*
X111385Y763144D02*
X133632D01*
X111385D02*
Y783537D01*
X71535D02*
X93782D01*
Y763144D02*
Y783537D01*
X71535Y763144D02*
X93782D01*
X71535D02*
Y783537D01*
X53694Y431294D02*
Y450594D01*
X45894Y458394D02*
X53694Y450594D01*
X33194Y458394D02*
X45894D01*
X400394Y430594D02*
Y449894D01*
X425519Y788269D02*
X427394Y786394D01*
X425519Y788269D02*
Y800394D01*
X419894D02*
X425519D01*
X427394Y765894D02*
Y786394D01*
Y465894D02*
Y596394D01*
Y765894D01*
X55494Y829294D02*
X404894D01*
X33894Y760394D02*
Y805794D01*
X422523Y465894D02*
X427394D01*
X404894Y815402D02*
Y829294D01*
X33894Y805794D02*
X55494D01*
Y829294D01*
X400394Y449894D02*
X416394Y465894D01*
X422523D01*
X33194Y700894D02*
Y758973D01*
Y759694D02*
X33894Y760394D01*
X33194Y758973D02*
Y759694D01*
X404886Y815402D02*
X419894Y800394D01*
X106594Y668894D02*
X112091Y674391D01*
X33243Y634394D02*
X72094D01*
X112091Y674391D02*
Y723208D01*
X92094Y727594D02*
X107705D01*
X112091Y723208D01*
X33194Y700894D02*
X63078D01*
X79494Y641794D02*
X106594Y668894D01*
X63078Y700894D02*
X73978Y711794D01*
X72094Y634394D02*
X79494Y641794D01*
X73978Y711794D02*
X89778Y727594D01*
X92094D01*
G54D97*
X0Y0D02*
X460610D01*
Y860974D01*
X0D02*
X460610D01*
X0Y0D02*
Y860974D01*
X25394Y25394D02*
Y430394D01*
X435394D01*
Y25394D02*
Y430394D01*
X25394Y25394D02*
X435394D01*
X25394Y430394D02*
Y835394D01*
X435394D01*
Y430394D02*
Y835394D01*
X25394Y430394D02*
X435394D01*
G54D102*
X33194Y164173D02*
X51394D01*
X33194Y205294D02*
X52894D01*
Y223721D01*
X33194D02*
X52894D01*
X33194Y179449D02*
X51394D01*
Y164173D02*
Y179449D01*
X33194Y569173D02*
X51394D01*
X33194Y610294D02*
X52894D01*
Y628721D01*
X33194D02*
X52894D01*
X33194Y584449D02*
X51394D01*
Y569173D02*
Y584449D01*
G54D131*
X13287Y13287D02*
D03*
X447319Y13583D02*
D03*
X446610Y848283D02*
D03*
X13287Y847175D02*
D03*
G54D132*
X47794Y379894D02*
D03*
X37794D02*
D03*
X363194Y256294D02*
D03*
X383194D02*
D03*
X322144D02*
D03*
X342144D02*
D03*
X281094D02*
D03*
X301094D02*
D03*
X383194Y280294D02*
D03*
X363194D02*
D03*
X342144D02*
D03*
X322144D02*
D03*
X301094D02*
D03*
X281094D02*
D03*
X391194Y211694D02*
D03*
X359894D02*
D03*
X328394D02*
D03*
X296694D02*
D03*
X417194Y100894D02*
D03*
Y80894D02*
D03*
X389894Y39894D02*
D03*
X379894D02*
D03*
X369894D02*
D03*
X359894D02*
D03*
X330394D02*
D03*
X320394D02*
D03*
X310394D02*
D03*
X300394D02*
D03*
X271394D02*
D03*
X261394D02*
D03*
X251394D02*
D03*
X241394D02*
D03*
X220394D02*
D03*
X210394D02*
D03*
X200394D02*
D03*
X190394D02*
D03*
X160894D02*
D03*
X150894D02*
D03*
X140894D02*
D03*
X130894D02*
D03*
X100894D02*
D03*
X90894D02*
D03*
X80894D02*
D03*
X70894D02*
D03*
X33994Y329994D02*
D03*
Y347794D02*
D03*
X47794Y784894D02*
D03*
X37794D02*
D03*
X363194Y661294D02*
D03*
X383194D02*
D03*
X322144D02*
D03*
X342144D02*
D03*
X281094D02*
D03*
X301094D02*
D03*
X383194Y685294D02*
D03*
X363194D02*
D03*
X342144D02*
D03*
X322144D02*
D03*
X301094D02*
D03*
X281094D02*
D03*
X391194Y616694D02*
D03*
X359894D02*
D03*
X328394D02*
D03*
X296694D02*
D03*
X417194Y505894D02*
D03*
Y485894D02*
D03*
X389894Y444894D02*
D03*
X379894D02*
D03*
X369894D02*
D03*
X359894D02*
D03*
X330394D02*
D03*
X320394D02*
D03*
X310394D02*
D03*
X300394D02*
D03*
X271394D02*
D03*
X261394D02*
D03*
X251394D02*
D03*
X241394D02*
D03*
X220394D02*
D03*
X210394D02*
D03*
X200394D02*
D03*
X190394D02*
D03*
X160894D02*
D03*
X150894D02*
D03*
X140894D02*
D03*
X130894D02*
D03*
X100894D02*
D03*
X90894D02*
D03*
X80894D02*
D03*
X70894D02*
D03*
X33994Y734994D02*
D03*
Y752794D02*
D03*
G54D133*
X373194Y256294D02*
D03*
X332144D02*
D03*
X291094D02*
D03*
X373194Y280294D02*
D03*
X332144D02*
D03*
X291094D02*
D03*
X381194Y211694D02*
D03*
X349894D02*
D03*
X318394D02*
D03*
X286694D02*
D03*
X417194Y90894D02*
D03*
Y70894D02*
D03*
X373194Y661294D02*
D03*
X332144D02*
D03*
X291094D02*
D03*
X373194Y685294D02*
D03*
X332144D02*
D03*
X291094D02*
D03*
X381194Y616694D02*
D03*
X349894D02*
D03*
X318394D02*
D03*
X286694D02*
D03*
X417194Y495894D02*
D03*
Y475894D02*
D03*
G54D134*
X379870Y181280D02*
D03*
X339870Y171280D02*
D03*
X95694Y205694D02*
D03*
Y243187D02*
D03*
X105494Y175994D02*
D03*
X199194Y345694D02*
D03*
X209194D02*
D03*
X219194D02*
D03*
X229194D02*
D03*
X379870Y586280D02*
D03*
X339870Y576280D02*
D03*
X95694Y610694D02*
D03*
Y648187D02*
D03*
X105494Y580994D02*
D03*
X199194Y750694D02*
D03*
X209194D02*
D03*
X219194D02*
D03*
X229194D02*
D03*
G54D135*
X379870Y171280D02*
D03*
X369870Y181280D02*
D03*
Y171280D02*
D03*
X359870Y181280D02*
D03*
Y171280D02*
D03*
X349870Y181280D02*
D03*
Y171280D02*
D03*
X339870Y181280D02*
D03*
X135694Y205694D02*
D03*
Y195694D02*
D03*
X125694Y205694D02*
D03*
Y195694D02*
D03*
X115694Y205694D02*
D03*
Y195694D02*
D03*
X105694Y205694D02*
D03*
Y195694D02*
D03*
X95694D02*
D03*
X135694Y243187D02*
D03*
Y233187D02*
D03*
X125694Y243187D02*
D03*
Y233187D02*
D03*
X115694Y243187D02*
D03*
Y233187D02*
D03*
X105694Y243187D02*
D03*
Y233187D02*
D03*
X95694D02*
D03*
X215494Y175994D02*
D03*
Y165994D02*
D03*
X205494Y175994D02*
D03*
Y165994D02*
D03*
X195494Y175994D02*
D03*
Y165994D02*
D03*
X185494Y175994D02*
D03*
Y165994D02*
D03*
X175494Y175994D02*
D03*
Y165994D02*
D03*
X165494Y175994D02*
D03*
Y165994D02*
D03*
X155494Y175994D02*
D03*
Y165994D02*
D03*
X145494Y175994D02*
D03*
Y165994D02*
D03*
X135494Y175994D02*
D03*
Y165994D02*
D03*
X125494Y175994D02*
D03*
Y165994D02*
D03*
X115494Y175994D02*
D03*
Y165994D02*
D03*
X105494D02*
D03*
X199194Y355694D02*
D03*
X209194D02*
D03*
X219194D02*
D03*
X229194D02*
D03*
X379870Y576280D02*
D03*
X369870Y586280D02*
D03*
Y576280D02*
D03*
X359870Y586280D02*
D03*
Y576280D02*
D03*
X349870Y586280D02*
D03*
Y576280D02*
D03*
X339870Y586280D02*
D03*
X135694Y610694D02*
D03*
Y600694D02*
D03*
X125694Y610694D02*
D03*
Y600694D02*
D03*
X115694Y610694D02*
D03*
Y600694D02*
D03*
X105694Y610694D02*
D03*
Y600694D02*
D03*
X95694D02*
D03*
X135694Y648187D02*
D03*
Y638187D02*
D03*
X125694Y648187D02*
D03*
Y638187D02*
D03*
X115694Y648187D02*
D03*
Y638187D02*
D03*
X105694Y648187D02*
D03*
Y638187D02*
D03*
X95694D02*
D03*
X215494Y580994D02*
D03*
Y570994D02*
D03*
X205494Y580994D02*
D03*
Y570994D02*
D03*
X195494Y580994D02*
D03*
Y570994D02*
D03*
X185494Y580994D02*
D03*
Y570994D02*
D03*
X175494Y580994D02*
D03*
Y570994D02*
D03*
X165494Y580994D02*
D03*
Y570994D02*
D03*
X155494Y580994D02*
D03*
Y570994D02*
D03*
X145494Y580994D02*
D03*
Y570994D02*
D03*
X135494Y580994D02*
D03*
Y570994D02*
D03*
X125494Y580994D02*
D03*
Y570994D02*
D03*
X115494Y580994D02*
D03*
Y570994D02*
D03*
X105494D02*
D03*
X199194Y760694D02*
D03*
X209194D02*
D03*
X219194D02*
D03*
X229194D02*
D03*
G54D136*
X38438Y144959D02*
D03*
X240894Y169694D02*
D03*
X62294Y335894D02*
D03*
X38438Y549959D02*
D03*
X240894Y574694D02*
D03*
X62294Y740894D02*
D03*
G54D137*
X336894Y363794D02*
D03*
X350294D02*
D03*
Y310794D02*
D03*
X336894D02*
D03*
X370494Y363794D02*
D03*
X383894D02*
D03*
Y310794D02*
D03*
X370494D02*
D03*
X423826Y228272D02*
D03*
X410426D02*
D03*
Y175272D02*
D03*
X423826D02*
D03*
X336894Y768794D02*
D03*
X350294D02*
D03*
Y715794D02*
D03*
X336894D02*
D03*
X370494Y768794D02*
D03*
X383894D02*
D03*
Y715794D02*
D03*
X370494D02*
D03*
X423826Y633272D02*
D03*
X410426D02*
D03*
Y580272D02*
D03*
X423826D02*
D03*
G54D138*
X402457Y263642D02*
D03*
Y303642D02*
D03*
Y343642D02*
D03*
X73394Y410594D02*
D03*
X93394D02*
D03*
X113394D02*
D03*
X133394D02*
D03*
X153394D02*
D03*
X173394D02*
D03*
X193394D02*
D03*
X213394D02*
D03*
X233394D02*
D03*
X253394D02*
D03*
X402457Y668642D02*
D03*
Y708642D02*
D03*
Y748642D02*
D03*
X73394Y815594D02*
D03*
X93394D02*
D03*
X113394D02*
D03*
X133394D02*
D03*
X153394D02*
D03*
X173394D02*
D03*
X193394D02*
D03*
X213394D02*
D03*
X233394D02*
D03*
X253394D02*
D03*
G54D139*
X402457Y283642D02*
D03*
Y323642D02*
D03*
Y363642D02*
D03*
Y688642D02*
D03*
Y728642D02*
D03*
Y768642D02*
D03*
G54D140*
X43794Y325094D02*
D03*
Y352694D02*
D03*
Y730094D02*
D03*
Y757694D02*
D03*
G54D141*
X50394Y231694D02*
D03*
Y636694D02*
D03*
G54D142*
Y279016D02*
D03*
Y684016D02*
D03*
G54D143*
X61094Y250394D02*
D03*
Y655394D02*
D03*
G54D144*
Y260315D02*
D03*
X68994D02*
D03*
Y250394D02*
D03*
X61094Y665315D02*
D03*
X68994D02*
D03*
Y655394D02*
D03*
G54D145*
X40394Y40394D02*
D03*
Y415394D02*
D03*
X420394D02*
D03*
Y40394D02*
D03*
X40394Y445394D02*
D03*
Y820394D02*
D03*
X420394D02*
D03*
Y445394D02*
D03*
G54D146*
X40394Y30394D02*
D03*
Y50394D02*
D03*
X50394Y40394D02*
D03*
X30394D02*
D03*
X33394Y47394D02*
D03*
X47394D02*
D03*
Y33394D02*
D03*
X33394D02*
D03*
X40394Y405394D02*
D03*
Y425394D02*
D03*
X50394Y415394D02*
D03*
X30394D02*
D03*
X33394Y422394D02*
D03*
X47394D02*
D03*
Y408394D02*
D03*
X33394D02*
D03*
X420394Y405394D02*
D03*
Y425394D02*
D03*
X430394Y415394D02*
D03*
X410394D02*
D03*
X413394Y422394D02*
D03*
X427394D02*
D03*
Y408394D02*
D03*
X413394D02*
D03*
X420394Y30394D02*
D03*
Y50394D02*
D03*
X430394Y40394D02*
D03*
X410394D02*
D03*
X413394Y47394D02*
D03*
X427394D02*
D03*
Y33394D02*
D03*
X413394D02*
D03*
X40394Y435394D02*
D03*
Y455394D02*
D03*
X50394Y445394D02*
D03*
X30394D02*
D03*
X33394Y452394D02*
D03*
X47394D02*
D03*
Y438394D02*
D03*
X33394D02*
D03*
X40394Y810394D02*
D03*
Y830394D02*
D03*
X50394Y820394D02*
D03*
X30394D02*
D03*
X33394Y827394D02*
D03*
X47394D02*
D03*
Y813394D02*
D03*
X33394D02*
D03*
X420394Y810394D02*
D03*
Y830394D02*
D03*
X430394Y820394D02*
D03*
X410394D02*
D03*
X413394Y827394D02*
D03*
X427394D02*
D03*
Y813394D02*
D03*
X413394D02*
D03*
X420394Y435394D02*
D03*
Y455394D02*
D03*
X430394Y445394D02*
D03*
X410394D02*
D03*
X413394Y452394D02*
D03*
X427394D02*
D03*
Y438394D02*
D03*
X413394D02*
D03*
G54D147*
X170402Y202087D02*
D03*
X234667Y295499D02*
D03*
X236794Y299042D02*
D03*
X160669Y217625D02*
D03*
X142438Y91749D02*
D03*
X228859Y88500D02*
D03*
X40756Y115709D02*
D03*
X264794Y117642D02*
D03*
X92337Y261048D02*
D03*
X300713Y320205D02*
D03*
X300736Y324016D02*
D03*
Y327461D02*
D03*
X327734Y187982D02*
D03*
X320399Y239197D02*
D03*
X165087Y195000D02*
D03*
X205039Y82299D02*
D03*
X412134Y166358D02*
D03*
X425716D02*
D03*
X421976Y184075D02*
D03*
X347694Y148042D02*
D03*
X346063Y151575D02*
D03*
X323108Y169262D02*
D03*
X293748Y329564D02*
D03*
X352488Y166654D02*
D03*
X347961Y166555D02*
D03*
X317055Y197559D02*
D03*
X282114Y199331D02*
D03*
X284279Y176496D02*
D03*
X283098Y184862D02*
D03*
X325124Y191163D02*
D03*
X378472Y229843D02*
D03*
X316957Y177185D02*
D03*
X301898Y177382D02*
D03*
X302708Y167457D02*
D03*
X305348Y164887D02*
D03*
X295894Y171083D02*
D03*
X306324Y173249D02*
D03*
X300846Y183794D02*
D03*
X303746Y193294D02*
D03*
X258933Y182623D02*
D03*
X255164Y183164D02*
D03*
X256155Y194152D02*
D03*
X245012Y187012D02*
D03*
X141256Y153267D02*
D03*
X374437Y242736D02*
D03*
X367744Y225315D02*
D03*
X367547Y229649D02*
D03*
X289689Y228566D02*
D03*
X303275Y225909D02*
D03*
X348933Y241358D02*
D03*
X356327Y230728D02*
D03*
X312738Y242047D02*
D03*
X398158Y234445D02*
D03*
X335568Y242288D02*
D03*
X282405Y223054D02*
D03*
X47493Y144959D02*
D03*
X38438Y154014D02*
D03*
Y135904D02*
D03*
X287565Y241488D02*
D03*
X363437Y362602D02*
D03*
Y359255D02*
D03*
Y369094D02*
D03*
Y365850D02*
D03*
X357480Y362500D02*
D03*
Y365846D02*
D03*
X355315Y356398D02*
D03*
X350295Y354626D02*
D03*
X86258Y329726D02*
D03*
X85874Y325886D02*
D03*
X87907Y333287D02*
D03*
X93122Y331545D02*
D03*
X70913Y91634D02*
D03*
X263136Y295473D02*
D03*
X266582Y293701D02*
D03*
X302803Y350394D02*
D03*
X405898Y297401D02*
D03*
X409342D02*
D03*
X402453D02*
D03*
X329724Y312846D02*
D03*
X373694Y319894D02*
D03*
X368894Y319794D02*
D03*
X190987Y297245D02*
D03*
X210010Y291386D02*
D03*
X197779Y287205D02*
D03*
X217913Y94587D02*
D03*
X215303Y91536D02*
D03*
X403098Y391732D02*
D03*
X299161Y333957D02*
D03*
X295618D02*
D03*
X281051Y346949D02*
D03*
X377606Y411614D02*
D03*
X82294Y163194D02*
D03*
X77213Y164862D02*
D03*
X85994Y163542D02*
D03*
X260577Y203736D02*
D03*
X263236Y233268D02*
D03*
X280854Y329823D02*
D03*
X277114Y330118D02*
D03*
X295717Y337008D02*
D03*
X299161Y337205D02*
D03*
X270028Y343602D02*
D03*
X174322Y296949D02*
D03*
X85667Y262696D02*
D03*
X275394Y292195D02*
D03*
X265132Y254518D02*
D03*
X261532Y254679D02*
D03*
X267469Y259252D02*
D03*
X265008Y262205D02*
D03*
X261169Y261546D02*
D03*
X266998Y250194D02*
D03*
X299606Y239567D02*
D03*
X373280Y91230D02*
D03*
X373381Y88342D02*
D03*
X214614Y192323D02*
D03*
X214024Y188583D02*
D03*
X245019Y190010D02*
D03*
X238556Y191426D02*
D03*
X239694Y205494D02*
D03*
X260471Y173959D02*
D03*
X299953Y235728D02*
D03*
X226680Y271742D02*
D03*
X271894Y328494D02*
D03*
X266694Y244594D02*
D03*
X237394Y245242D02*
D03*
X248512Y235322D02*
D03*
X248432Y227233D02*
D03*
X244794Y210342D02*
D03*
X244816Y213997D02*
D03*
X244814Y220493D02*
D03*
X232684Y187732D02*
D03*
X235894Y209994D02*
D03*
X239681Y209173D02*
D03*
X231694Y206594D02*
D03*
X232733Y184124D02*
D03*
X232194Y210194D02*
D03*
X360894Y86342D02*
D03*
X301094Y91142D02*
D03*
X351278Y121361D02*
D03*
X257494Y123642D02*
D03*
X57894Y174394D02*
D03*
X161794Y252542D02*
D03*
X187194Y192942D02*
D03*
X187294Y272542D02*
D03*
X226668Y267824D02*
D03*
X195494Y306794D02*
D03*
X211094Y302542D02*
D03*
X219834Y267776D02*
D03*
X137917Y263795D02*
D03*
X181794Y226642D02*
D03*
X110794Y221542D02*
D03*
X157832Y217603D02*
D03*
X152225Y242217D02*
D03*
X179194Y242994D02*
D03*
X287694Y313794D02*
D03*
X179091Y257407D02*
D03*
X207401Y272351D02*
D03*
X207394Y268742D02*
D03*
X164894Y264642D02*
D03*
X189961Y308189D02*
D03*
X195669Y313110D02*
D03*
X81398Y274725D02*
D03*
X119313Y257574D02*
D03*
X188194Y263894D02*
D03*
X413287Y343583D02*
D03*
X405898Y337402D02*
D03*
X395760D02*
D03*
X402453D02*
D03*
X399106D02*
D03*
X409342D02*
D03*
X412008Y340039D02*
D03*
X411909Y347126D02*
D03*
X395571Y349882D02*
D03*
X405807D02*
D03*
X402461D02*
D03*
X409154D02*
D03*
X399016D02*
D03*
X329724Y309598D02*
D03*
X331693Y303102D02*
D03*
X343307Y301626D02*
D03*
X355315Y303398D02*
D03*
X329724Y306252D02*
D03*
X336910Y301528D02*
D03*
X350295Y301626D02*
D03*
X357480Y306252D02*
D03*
Y312846D02*
D03*
Y309500D02*
D03*
X422160Y219043D02*
D03*
X412106D02*
D03*
X408760D02*
D03*
X408746Y237500D02*
D03*
X412092D02*
D03*
X430610Y228295D02*
D03*
Y231642D02*
D03*
Y224949D02*
D03*
X399043Y270000D02*
D03*
X409154Y269882D02*
D03*
X402461D02*
D03*
X405807D02*
D03*
X395571D02*
D03*
X413287Y263583D02*
D03*
X411909Y267126D02*
D03*
X412008Y260039D02*
D03*
X409342Y257401D02*
D03*
X399106D02*
D03*
X402453D02*
D03*
X395760D02*
D03*
X405898D02*
D03*
X399016Y309882D02*
D03*
X409154D02*
D03*
X402461D02*
D03*
X405807D02*
D03*
X395571D02*
D03*
X413287Y303583D02*
D03*
X411909Y307126D02*
D03*
X412008Y300039D02*
D03*
X399106Y297401D02*
D03*
X395760D02*
D03*
X365293Y356102D02*
D03*
X376907Y354626D02*
D03*
X388915Y356398D02*
D03*
X370510Y354528D02*
D03*
X383895Y354626D02*
D03*
X391080Y369094D02*
D03*
Y359252D02*
D03*
Y365846D02*
D03*
Y362500D02*
D03*
X357480Y359252D02*
D03*
Y369094D02*
D03*
X250671Y394971D02*
D03*
X285925Y378740D02*
D03*
X292913Y371752D02*
D03*
X291535Y364665D02*
D03*
X293110Y355118D02*
D03*
X378051Y399410D02*
D03*
X385630D02*
D03*
X381791D02*
D03*
X394882D02*
D03*
X398721D02*
D03*
X391142D02*
D03*
X371949Y117323D02*
D03*
X374902D02*
D03*
X323130Y106299D02*
D03*
X247287Y123033D02*
D03*
Y129433D02*
D03*
X250287Y124433D02*
D03*
Y127933D02*
D03*
X239487Y124533D02*
D03*
Y128033D02*
D03*
X242487Y123033D02*
D03*
Y129433D02*
D03*
X344482Y131246D02*
D03*
X296654Y120472D02*
D03*
X304482Y138188D02*
D03*
X307621Y135288D02*
D03*
Y146788D02*
D03*
X304521Y149688D02*
D03*
X301420Y135288D02*
D03*
X298282Y138188D02*
D03*
X301420Y146788D02*
D03*
X298282Y149688D02*
D03*
X257382Y106299D02*
D03*
X254429D02*
D03*
X272204Y129199D02*
D03*
X242028Y151673D02*
D03*
X224410Y120472D02*
D03*
X225939Y149688D02*
D03*
X229078Y146788D02*
D03*
X225939Y138188D02*
D03*
X229078Y135288D02*
D03*
X232178Y149688D02*
D03*
X235278Y146788D02*
D03*
Y135288D02*
D03*
X232139Y138188D02*
D03*
X226929Y117258D02*
D03*
X185138Y106299D02*
D03*
X182185D02*
D03*
X192584Y117559D02*
D03*
X195458D02*
D03*
X152165Y120472D02*
D03*
X170298Y129433D02*
D03*
Y123033D02*
D03*
X167298Y128033D02*
D03*
Y124533D02*
D03*
X178098Y127933D02*
D03*
Y124433D02*
D03*
X175098Y129433D02*
D03*
Y123033D02*
D03*
X159994Y138188D02*
D03*
X163132Y135288D02*
D03*
Y146788D02*
D03*
X160032Y149688D02*
D03*
X156932Y135288D02*
D03*
X153794Y138188D02*
D03*
X156932Y146788D02*
D03*
X153794Y149688D02*
D03*
X109941Y106299D02*
D03*
X112894D02*
D03*
X158366Y117421D02*
D03*
X155413D02*
D03*
X327658Y88681D02*
D03*
Y91732D02*
D03*
X340453D02*
D03*
Y88681D02*
D03*
X386122Y88779D02*
D03*
Y91831D02*
D03*
X373130Y103740D02*
D03*
X376083Y109646D02*
D03*
X373130D02*
D03*
X376083Y103740D02*
D03*
X340779Y103701D02*
D03*
X337826D02*
D03*
X255413Y88681D02*
D03*
Y91732D02*
D03*
X268209D02*
D03*
Y88681D02*
D03*
X313878Y88779D02*
D03*
Y91831D02*
D03*
X300886Y103740D02*
D03*
X303839Y109646D02*
D03*
X300886D02*
D03*
X303839Y103740D02*
D03*
X268535Y103701D02*
D03*
X265582D02*
D03*
X183169Y91732D02*
D03*
X195965D02*
D03*
X241634Y88779D02*
D03*
Y91831D02*
D03*
X228642Y103740D02*
D03*
X231594Y109449D02*
D03*
X228642D02*
D03*
X231594Y103740D02*
D03*
X196291Y103701D02*
D03*
X193338D02*
D03*
X228839Y91437D02*
D03*
X110925Y88681D02*
D03*
Y91732D02*
D03*
X123721D02*
D03*
Y88681D02*
D03*
X169390Y88779D02*
D03*
Y91831D02*
D03*
X156398Y103740D02*
D03*
X159350Y109646D02*
D03*
X156398D02*
D03*
X159350Y103740D02*
D03*
X124046Y103701D02*
D03*
X121094D02*
D03*
X134646Y121161D02*
D03*
X48850Y103701D02*
D03*
X51802D02*
D03*
X40650Y106299D02*
D03*
X37697D02*
D03*
X87106Y109646D02*
D03*
X84153Y103740D02*
D03*
X403794Y180794D02*
D03*
X403294Y171294D02*
D03*
X53239Y335894D02*
D03*
X71349D02*
D03*
X62294Y344949D02*
D03*
Y326839D02*
D03*
X60441Y300035D02*
D03*
X43393Y303222D02*
D03*
X43433Y309305D02*
D03*
X77187Y332827D02*
D03*
X77042Y328883D02*
D03*
X76990Y325042D02*
D03*
X403494Y175594D02*
D03*
X425494Y186050D02*
D03*
X408694Y183350D02*
D03*
X405394Y186050D02*
D03*
Y167194D02*
D03*
X408694Y164494D02*
D03*
X418794Y186050D02*
D03*
X237416Y235223D02*
D03*
X244783Y235315D02*
D03*
X241139Y241168D02*
D03*
X181867Y237160D02*
D03*
X232007Y271058D02*
D03*
X123294Y257194D02*
D03*
X179294Y209894D02*
D03*
X241102Y227127D02*
D03*
X248506Y220471D02*
D03*
X241113Y235232D02*
D03*
X244806Y227289D02*
D03*
X245894Y260894D02*
D03*
X307746Y196568D02*
D03*
X97287Y123033D02*
D03*
Y129433D02*
D03*
X100287Y124433D02*
D03*
Y127933D02*
D03*
X82632Y138188D02*
D03*
X85771Y135288D02*
D03*
X91971D02*
D03*
X88832Y138188D02*
D03*
X89487Y124533D02*
D03*
Y128033D02*
D03*
X92487Y123033D02*
D03*
Y129433D02*
D03*
X412058Y185994D02*
D03*
X415394Y183350D02*
D03*
X336910Y354528D02*
D03*
X329724Y359252D02*
D03*
X343307Y354626D02*
D03*
X329724Y369094D02*
D03*
X331693Y356102D02*
D03*
X329724Y362598D02*
D03*
Y365846D02*
D03*
X343694Y318394D02*
D03*
X385394Y319894D02*
D03*
X364894Y317694D02*
D03*
X388894Y318094D02*
D03*
X380694Y319894D02*
D03*
X377294Y317194D02*
D03*
X377094Y303594D02*
D03*
X311394Y313994D02*
D03*
X279870Y387500D02*
D03*
X289194Y351594D02*
D03*
X316694Y310094D02*
D03*
X311294Y322494D02*
D03*
X315594Y319394D02*
D03*
X109400Y347045D02*
D03*
X101494Y342198D02*
D03*
X206794Y406694D02*
D03*
Y414394D02*
D03*
X220194Y414594D02*
D03*
X220094Y406594D02*
D03*
X206794Y410494D02*
D03*
X219994D02*
D03*
X74594Y285675D02*
D03*
X90494Y311894D02*
D03*
X67294Y281975D02*
D03*
X66994Y289375D02*
D03*
X198095Y205480D02*
D03*
X189694Y209194D02*
D03*
Y205494D02*
D03*
X187285Y268770D02*
D03*
X197145Y272340D02*
D03*
X189613Y354394D02*
D03*
X97146Y91831D02*
D03*
Y88779D02*
D03*
X51476Y88681D02*
D03*
Y91732D02*
D03*
X38681Y88681D02*
D03*
X425492Y237500D02*
D03*
X403642Y231594D02*
D03*
X429200Y133994D02*
D03*
Y118494D02*
D03*
X148125Y314180D02*
D03*
X403642Y224902D02*
D03*
X425394Y219094D02*
D03*
X422146Y237500D02*
D03*
X403642Y228248D02*
D03*
X178394Y270616D02*
D03*
X158294Y270894D02*
D03*
X248507Y214010D02*
D03*
X232009Y274561D02*
D03*
X182981Y209887D02*
D03*
X283294Y371725D02*
D03*
Y366817D02*
D03*
X104494Y381294D02*
D03*
X179994Y410494D02*
D03*
X166794D02*
D03*
X180094Y406594D02*
D03*
X180194Y414594D02*
D03*
X166794Y414394D02*
D03*
Y406694D02*
D03*
X167194Y395294D02*
D03*
X180194Y395094D02*
D03*
X140194D02*
D03*
X127194Y395294D02*
D03*
X126794Y406694D02*
D03*
Y414394D02*
D03*
X140194Y414594D02*
D03*
X140094Y406594D02*
D03*
X126794Y410494D02*
D03*
X139994D02*
D03*
X100817Y396490D02*
D03*
X86947Y396402D02*
D03*
X86794Y406694D02*
D03*
Y414394D02*
D03*
X100194Y414594D02*
D03*
X100094Y406594D02*
D03*
X86794Y410494D02*
D03*
X99994D02*
D03*
X73094Y381494D02*
D03*
X144344Y381294D02*
D03*
X108994Y379094D02*
D03*
Y369994D02*
D03*
X149094D02*
D03*
Y379094D02*
D03*
X184444Y381294D02*
D03*
X109294Y387594D02*
D03*
X149194Y387794D02*
D03*
X393773Y423638D02*
D03*
X389773D02*
D03*
X383873D02*
D03*
X189825Y340224D02*
D03*
X70994Y394894D02*
D03*
X58144Y375544D02*
D03*
X403868Y118394D02*
D03*
X407087D02*
D03*
X403868Y121555D02*
D03*
X410268Y118394D02*
D03*
X403868Y124705D02*
D03*
Y133994D02*
D03*
X406988D02*
D03*
X408094Y80894D02*
D03*
X410094Y78394D02*
D03*
X410194Y83394D02*
D03*
X424194Y78394D02*
D03*
X424294Y83394D02*
D03*
X426294Y80894D02*
D03*
Y100894D02*
D03*
X424294Y103394D02*
D03*
X424194Y98394D02*
D03*
X410194Y103394D02*
D03*
X410094Y98394D02*
D03*
X408094Y100894D02*
D03*
X287846Y196513D02*
D03*
X178211Y226808D02*
D03*
X178731Y237147D02*
D03*
X201294Y317194D02*
D03*
X206319Y317219D02*
D03*
X211256Y317219D02*
D03*
X216272Y317189D02*
D03*
X221298Y317268D02*
D03*
X234888Y315249D02*
D03*
X225138Y362056D02*
D03*
X149392Y346990D02*
D03*
X227194Y291494D02*
D03*
X161394Y301694D02*
D03*
X163794Y299994D02*
D03*
Y297094D02*
D03*
X161494Y295294D02*
D03*
X143979Y301220D02*
D03*
X155267Y301679D02*
D03*
X152967Y299880D02*
D03*
Y296979D02*
D03*
X155367Y295280D02*
D03*
X258136Y349276D02*
D03*
X236760Y325489D02*
D03*
X90043Y350358D02*
D03*
X204813Y368795D02*
D03*
X76148Y342577D02*
D03*
X132983Y263191D02*
D03*
X183194Y301794D02*
D03*
X284694Y329694D02*
D03*
X408174Y146653D02*
D03*
X412874Y151546D02*
D03*
Y158146D02*
D03*
X415394Y164494D02*
D03*
X418794Y167294D02*
D03*
X421994Y164494D02*
D03*
X415674Y159946D02*
D03*
X412874Y154846D02*
D03*
X412574Y148346D02*
D03*
X65562Y310314D02*
D03*
X79921Y120472D02*
D03*
X115847Y153150D02*
D03*
X38681Y91732D02*
D03*
X370526Y149688D02*
D03*
X373665Y146788D02*
D03*
X370526Y138188D02*
D03*
X373665Y135288D02*
D03*
X376765Y149688D02*
D03*
X379865Y146788D02*
D03*
Y135288D02*
D03*
X376726Y138188D02*
D03*
X368898Y120472D02*
D03*
X304002Y129532D02*
D03*
X301003Y128132D02*
D03*
Y124632D02*
D03*
X311803Y128032D02*
D03*
Y124532D02*
D03*
X308803Y129532D02*
D03*
Y123132D02*
D03*
X391972Y123132D02*
D03*
Y129532D02*
D03*
X394972Y124532D02*
D03*
Y128032D02*
D03*
X384172Y124632D02*
D03*
Y128132D02*
D03*
X387172Y123132D02*
D03*
Y129532D02*
D03*
X385728Y150394D02*
D03*
X323130Y103347D02*
D03*
X183169Y88681D02*
D03*
X195965D02*
D03*
X320374Y62106D02*
D03*
X300197Y70079D02*
D03*
X298031Y72244D02*
D03*
X328937Y56102D02*
D03*
Y53150D02*
D03*
X318526Y73819D02*
D03*
Y70866D02*
D03*
X320374Y65059D02*
D03*
X349508Y59557D02*
D03*
X367913Y63878D02*
D03*
X404528Y153543D02*
D03*
Y150351D02*
D03*
X387162Y155905D02*
D03*
X390354D02*
D03*
X403868Y130807D02*
D03*
X403937Y127756D02*
D03*
X427559Y120965D02*
D03*
Y131595D02*
D03*
X409201Y391732D02*
D03*
X406150D02*
D03*
X276917Y387500D02*
D03*
X427756Y295866D02*
D03*
X73524Y306004D02*
D03*
X79724Y135236D02*
D03*
X82579Y146752D02*
D03*
X85433Y149606D02*
D03*
X88287Y146752D02*
D03*
X55694Y205594D02*
D03*
X355294Y158094D02*
D03*
X227194Y294594D02*
D03*
X182775Y257411D02*
D03*
X236994Y273194D02*
D03*
X245887Y267774D02*
D03*
X158994Y252394D02*
D03*
X156294Y236994D02*
D03*
X153194D02*
D03*
X140094Y187194D02*
D03*
X47694Y161594D02*
D03*
X105894Y220494D02*
D03*
X76294Y201194D02*
D03*
X57766Y210846D02*
D03*
X56191Y166654D02*
D03*
X39764Y161687D02*
D03*
X120283Y117677D02*
D03*
X112992Y124016D02*
D03*
X116834Y124263D02*
D03*
X112934Y119980D02*
D03*
X112897Y116290D02*
D03*
X33965Y55276D02*
D03*
X40657Y119744D02*
D03*
X82882Y88248D02*
D03*
X84134Y109311D02*
D03*
X87106Y103740D02*
D03*
X84358Y90906D02*
D03*
X82581Y117275D02*
D03*
X85435D02*
D03*
X50894Y117973D02*
D03*
X44488Y123622D02*
D03*
X56012Y129195D02*
D03*
X123158Y117677D02*
D03*
X156693Y88386D02*
D03*
X156602Y91004D02*
D03*
X127953Y129332D02*
D03*
X204929Y86280D02*
D03*
X185236Y119980D02*
D03*
X60343Y83032D02*
D03*
Y86673D02*
D03*
Y90315D02*
D03*
X60179Y93923D02*
D03*
X40748Y124016D02*
D03*
X48130Y118012D02*
D03*
X205028Y90020D02*
D03*
X204929Y94045D02*
D03*
X185145Y116290D02*
D03*
X189377Y124165D02*
D03*
X185343Y123976D02*
D03*
X229882Y117258D02*
D03*
X132579Y86513D02*
D03*
Y82869D02*
D03*
Y93799D02*
D03*
X277173Y82638D02*
D03*
X276882Y86761D02*
D03*
X277079Y90403D02*
D03*
Y94154D02*
D03*
X267604Y117556D02*
D03*
X62304Y121901D02*
D03*
X199960Y129098D02*
D03*
X214575Y87559D02*
D03*
X70000Y87642D02*
D03*
X73425Y94587D02*
D03*
X143194Y88142D02*
D03*
X132579Y90156D02*
D03*
X146012Y94217D02*
D03*
X202758Y129098D02*
D03*
X206594Y121742D02*
D03*
X216929Y152953D02*
D03*
X57794Y131842D02*
D03*
X130794Y129342D02*
D03*
X169847Y151442D02*
D03*
X257394Y116342D02*
D03*
X257480Y119980D02*
D03*
X261694Y124242D02*
D03*
X274994Y129242D02*
D03*
X278994Y121742D02*
D03*
X287394Y88242D02*
D03*
X290500Y94217D02*
D03*
X287594Y91942D02*
D03*
X301094Y88442D02*
D03*
X302854Y117321D02*
D03*
X299902D02*
D03*
X304002Y123232D02*
D03*
X315158Y150984D02*
D03*
X351279Y86316D02*
D03*
Y82672D02*
D03*
X351246Y89959D02*
D03*
Y93636D02*
D03*
X333894Y124142D02*
D03*
X329694Y116342D02*
D03*
X337194Y118442D02*
D03*
X339594Y117342D02*
D03*
X347294Y131242D02*
D03*
X329921Y124242D02*
D03*
X329694Y120542D02*
D03*
X361614Y90059D02*
D03*
X362402Y94587D02*
D03*
X408294Y149842D02*
D03*
X346063Y144488D02*
D03*
X125984Y153347D02*
D03*
X224394Y158842D02*
D03*
X67677Y216060D02*
D03*
X52894Y196142D02*
D03*
X58094Y192442D02*
D03*
X77294Y187494D02*
D03*
X66794Y185842D02*
D03*
X66394Y179742D02*
D03*
X57894Y180342D02*
D03*
X91494Y162242D02*
D03*
X96394Y162294D02*
D03*
X147294Y212394D02*
D03*
X155618Y191693D02*
D03*
X143494Y189694D02*
D03*
X145894Y184994D02*
D03*
X152565Y191688D02*
D03*
X148265Y197503D02*
D03*
X191300Y300754D02*
D03*
X215103Y294981D02*
D03*
X219831Y271457D02*
D03*
X250537Y316340D02*
D03*
X144430Y313879D02*
D03*
X47980Y300492D02*
D03*
X43158Y315453D02*
D03*
X224161Y329035D02*
D03*
X227917Y328570D02*
D03*
X241294Y298342D02*
D03*
X129870Y350591D02*
D03*
X191381Y343802D02*
D03*
X186164Y340258D02*
D03*
X227997Y333860D02*
D03*
X170028Y350689D02*
D03*
X266437Y301279D02*
D03*
X255094Y281342D02*
D03*
X243294Y301842D02*
D03*
X256294Y309994D02*
D03*
X246694Y299742D02*
D03*
X266437Y305610D02*
D03*
X270768D02*
D03*
X264514Y317423D02*
D03*
X275539Y295866D02*
D03*
X270768Y301279D02*
D03*
X267369Y315159D02*
D03*
X272552Y315101D02*
D03*
X284776Y349904D02*
D03*
X170402Y607087D02*
D03*
X234667Y700499D02*
D03*
X236794Y704042D02*
D03*
X160669Y622625D02*
D03*
X142438Y496749D02*
D03*
X228859Y493501D02*
D03*
X40756Y520709D02*
D03*
X264794Y522642D02*
D03*
X92337Y666048D02*
D03*
X300713Y725205D02*
D03*
X300736Y729016D02*
D03*
Y732461D02*
D03*
X327734Y592982D02*
D03*
X320399Y644197D02*
D03*
X165087Y600000D02*
D03*
X205039Y487299D02*
D03*
X412134Y571358D02*
D03*
X425716D02*
D03*
X421976Y589075D02*
D03*
X347694Y553042D02*
D03*
X346063Y556575D02*
D03*
X323108Y574262D02*
D03*
X293748Y734564D02*
D03*
X352488Y571654D02*
D03*
X347961Y571555D02*
D03*
X317055Y602559D02*
D03*
X282114Y604331D02*
D03*
X284279Y581496D02*
D03*
X283098Y589862D02*
D03*
X325124Y596163D02*
D03*
X378472Y634843D02*
D03*
X316957Y582185D02*
D03*
X301898Y582382D02*
D03*
X302708Y572457D02*
D03*
X305348Y569887D02*
D03*
X295894Y576083D02*
D03*
X306324Y578249D02*
D03*
X300846Y588794D02*
D03*
X303746Y598294D02*
D03*
X258933Y587623D02*
D03*
X255164Y588164D02*
D03*
X256155Y599153D02*
D03*
X245012Y592012D02*
D03*
X141256Y558267D02*
D03*
X374437Y647736D02*
D03*
X367744Y630315D02*
D03*
X367547Y634649D02*
D03*
X289689Y633566D02*
D03*
X303275Y630909D02*
D03*
X348933Y646358D02*
D03*
X356327Y635728D02*
D03*
X312738Y647047D02*
D03*
X398158Y639445D02*
D03*
X335568Y647288D02*
D03*
X282405Y628054D02*
D03*
X47493Y549959D02*
D03*
X38438Y559014D02*
D03*
Y540904D02*
D03*
X287565Y646488D02*
D03*
X363437Y767602D02*
D03*
Y764255D02*
D03*
Y774094D02*
D03*
Y770850D02*
D03*
X357480Y767500D02*
D03*
Y770847D02*
D03*
X355315Y761398D02*
D03*
X350295Y759626D02*
D03*
X86258Y734726D02*
D03*
X85874Y730886D02*
D03*
X87907Y738287D02*
D03*
X93122Y736545D02*
D03*
X70913Y496634D02*
D03*
X263136Y700473D02*
D03*
X266582Y698701D02*
D03*
X302803Y755394D02*
D03*
X405898Y702401D02*
D03*
X409342D02*
D03*
X402453D02*
D03*
X329724Y717846D02*
D03*
X373694Y724894D02*
D03*
X368894Y724794D02*
D03*
X190987Y702245D02*
D03*
X210010Y696386D02*
D03*
X197779Y692205D02*
D03*
X217913Y499587D02*
D03*
X215303Y496535D02*
D03*
X403098Y796732D02*
D03*
X299161Y738957D02*
D03*
X295618D02*
D03*
X281051Y751949D02*
D03*
X377606Y816614D02*
D03*
X82294Y568194D02*
D03*
X77213Y569862D02*
D03*
X85994Y568542D02*
D03*
X260577Y608736D02*
D03*
X263236Y638268D02*
D03*
X280854Y734823D02*
D03*
X277114Y735118D02*
D03*
X295717Y742008D02*
D03*
X299161Y742205D02*
D03*
X270028Y748602D02*
D03*
X174322Y701949D02*
D03*
X85667Y667696D02*
D03*
X275394Y697195D02*
D03*
X265132Y659518D02*
D03*
X261532Y659679D02*
D03*
X267469Y664252D02*
D03*
X265008Y667205D02*
D03*
X261169Y666546D02*
D03*
X266998Y655194D02*
D03*
X299606Y644567D02*
D03*
X373280Y496231D02*
D03*
X373381Y493342D02*
D03*
X214614Y597323D02*
D03*
X214024Y593583D02*
D03*
X245019Y595010D02*
D03*
X238556Y596426D02*
D03*
X239694Y610494D02*
D03*
X260471Y578959D02*
D03*
X299953Y640728D02*
D03*
X226680Y676742D02*
D03*
X271894Y733494D02*
D03*
X266694Y649594D02*
D03*
X237394Y650242D02*
D03*
X248512Y640322D02*
D03*
X248432Y632233D02*
D03*
X244794Y615342D02*
D03*
X244816Y618997D02*
D03*
X244814Y625493D02*
D03*
X232684Y592732D02*
D03*
X235894Y614994D02*
D03*
X239681Y614173D02*
D03*
X231694Y611594D02*
D03*
X232733Y589124D02*
D03*
X232194Y615194D02*
D03*
X360894Y491342D02*
D03*
X301094Y496142D02*
D03*
X351278Y526361D02*
D03*
X257494Y528642D02*
D03*
X57894Y579394D02*
D03*
X161794Y657542D02*
D03*
X187194Y597942D02*
D03*
X187294Y677542D02*
D03*
X226668Y672824D02*
D03*
X195494Y711794D02*
D03*
X211094Y707542D02*
D03*
X219834Y672776D02*
D03*
X137917Y668795D02*
D03*
X181794Y631642D02*
D03*
X110794Y626542D02*
D03*
X157832Y622603D02*
D03*
X152225Y647217D02*
D03*
X179194Y647994D02*
D03*
X287694Y718794D02*
D03*
X179091Y662407D02*
D03*
X207401Y677351D02*
D03*
X207394Y673742D02*
D03*
X164894Y669642D02*
D03*
X189961Y713189D02*
D03*
X195669Y718110D02*
D03*
X81398Y679725D02*
D03*
X119313Y662574D02*
D03*
X188194Y668894D02*
D03*
X413287Y748583D02*
D03*
X405898Y742402D02*
D03*
X395760D02*
D03*
X402453D02*
D03*
X399106D02*
D03*
X409342D02*
D03*
X412008Y745039D02*
D03*
X411909Y752126D02*
D03*
X395571Y754882D02*
D03*
X405807D02*
D03*
X402461D02*
D03*
X409154D02*
D03*
X399016D02*
D03*
X329724Y714598D02*
D03*
X331693Y708102D02*
D03*
X343307Y706626D02*
D03*
X355315Y708398D02*
D03*
X329724Y711252D02*
D03*
X336910Y706528D02*
D03*
X350295Y706626D02*
D03*
X357480Y711252D02*
D03*
Y717846D02*
D03*
Y714500D02*
D03*
X422160Y624043D02*
D03*
X412106D02*
D03*
X408760D02*
D03*
X408746Y642500D02*
D03*
X412092D02*
D03*
X430610Y633295D02*
D03*
Y636642D02*
D03*
Y629949D02*
D03*
X399043Y675000D02*
D03*
X409154Y674882D02*
D03*
X402461D02*
D03*
X405807D02*
D03*
X395571D02*
D03*
X413287Y668583D02*
D03*
X411909Y672126D02*
D03*
X412008Y665039D02*
D03*
X409342Y662401D02*
D03*
X399106D02*
D03*
X402453D02*
D03*
X395760D02*
D03*
X405898D02*
D03*
X399016Y714882D02*
D03*
X409154D02*
D03*
X402461D02*
D03*
X405807D02*
D03*
X395571D02*
D03*
X413287Y708583D02*
D03*
X411909Y712126D02*
D03*
X412008Y705039D02*
D03*
X399106Y702401D02*
D03*
X395760D02*
D03*
X365293Y761102D02*
D03*
X376907Y759626D02*
D03*
X388915Y761398D02*
D03*
X370510Y759528D02*
D03*
X383895Y759626D02*
D03*
X391080Y774094D02*
D03*
Y764252D02*
D03*
Y770847D02*
D03*
Y767500D02*
D03*
X357480Y764252D02*
D03*
Y774094D02*
D03*
X250671Y799971D02*
D03*
X285925Y783740D02*
D03*
X292913Y776752D02*
D03*
X291535Y769665D02*
D03*
X293110Y760118D02*
D03*
X378051Y804410D02*
D03*
X385630D02*
D03*
X381791D02*
D03*
X394882D02*
D03*
X398721D02*
D03*
X391142D02*
D03*
X371949Y522323D02*
D03*
X374902D02*
D03*
X323130Y511299D02*
D03*
X247287Y528033D02*
D03*
Y534433D02*
D03*
X250287Y529433D02*
D03*
Y532933D02*
D03*
X239487Y529533D02*
D03*
Y533033D02*
D03*
X242487Y528033D02*
D03*
Y534433D02*
D03*
X344482Y536246D02*
D03*
X296654Y525472D02*
D03*
X304482Y543188D02*
D03*
X307621Y540288D02*
D03*
Y551788D02*
D03*
X304521Y554688D02*
D03*
X301420Y540288D02*
D03*
X298282Y543188D02*
D03*
X301420Y551788D02*
D03*
X298282Y554688D02*
D03*
X257382Y511299D02*
D03*
X254429D02*
D03*
X272204Y534199D02*
D03*
X242028Y556673D02*
D03*
X224410Y525472D02*
D03*
X225939Y554688D02*
D03*
X229078Y551788D02*
D03*
X225939Y543188D02*
D03*
X229078Y540288D02*
D03*
X232178Y554688D02*
D03*
X235278Y551788D02*
D03*
Y540288D02*
D03*
X232139Y543188D02*
D03*
X226929Y522258D02*
D03*
X185138Y511299D02*
D03*
X182185D02*
D03*
X192584Y522559D02*
D03*
X195458D02*
D03*
X152165Y525472D02*
D03*
X170298Y534433D02*
D03*
Y528033D02*
D03*
X167298Y533033D02*
D03*
Y529533D02*
D03*
X178098Y532933D02*
D03*
Y529433D02*
D03*
X175098Y534433D02*
D03*
Y528033D02*
D03*
X159994Y543188D02*
D03*
X163132Y540288D02*
D03*
Y551788D02*
D03*
X160032Y554688D02*
D03*
X156932Y540288D02*
D03*
X153794Y543188D02*
D03*
X156932Y551788D02*
D03*
X153794Y554688D02*
D03*
X109941Y511299D02*
D03*
X112894D02*
D03*
X158366Y522421D02*
D03*
X155413D02*
D03*
X327658Y493681D02*
D03*
Y496732D02*
D03*
X340453D02*
D03*
Y493681D02*
D03*
X386122Y493780D02*
D03*
Y496831D02*
D03*
X373130Y508740D02*
D03*
X376083Y514646D02*
D03*
X373130D02*
D03*
X376083Y508740D02*
D03*
X340779Y508701D02*
D03*
X337826D02*
D03*
X255413Y493681D02*
D03*
Y496732D02*
D03*
X268209D02*
D03*
Y493681D02*
D03*
X313878Y493780D02*
D03*
Y496831D02*
D03*
X300886Y508740D02*
D03*
X303839Y514646D02*
D03*
X300886D02*
D03*
X303839Y508740D02*
D03*
X268535Y508701D02*
D03*
X265582D02*
D03*
X183169Y496732D02*
D03*
X195965D02*
D03*
X241634Y493780D02*
D03*
Y496831D02*
D03*
X228642Y508740D02*
D03*
X231594Y514449D02*
D03*
X228642D02*
D03*
X231594Y508740D02*
D03*
X196291Y508701D02*
D03*
X193338D02*
D03*
X228839Y496437D02*
D03*
X110925Y493681D02*
D03*
Y496732D02*
D03*
X123721D02*
D03*
Y493681D02*
D03*
X169390Y493780D02*
D03*
Y496831D02*
D03*
X156398Y508740D02*
D03*
X159350Y514646D02*
D03*
X156398D02*
D03*
X159350Y508740D02*
D03*
X124046Y508701D02*
D03*
X121094D02*
D03*
X134646Y526161D02*
D03*
X48850Y508701D02*
D03*
X51802D02*
D03*
X40650Y511299D02*
D03*
X37697D02*
D03*
X87106Y514646D02*
D03*
X84153Y508740D02*
D03*
X403794Y585794D02*
D03*
X403294Y576294D02*
D03*
X53239Y740894D02*
D03*
X71349D02*
D03*
X62294Y749949D02*
D03*
Y731839D02*
D03*
X60441Y705035D02*
D03*
X43393Y708222D02*
D03*
X43433Y714305D02*
D03*
X77187Y737827D02*
D03*
X77042Y733883D02*
D03*
X76990Y730042D02*
D03*
X403494Y580594D02*
D03*
X425494Y591050D02*
D03*
X408694Y588350D02*
D03*
X405394Y591050D02*
D03*
Y572194D02*
D03*
X408694Y569494D02*
D03*
X418794Y591050D02*
D03*
X237416Y640223D02*
D03*
X244783Y640315D02*
D03*
X241139Y646168D02*
D03*
X181867Y642160D02*
D03*
X232007Y676058D02*
D03*
X123294Y662194D02*
D03*
X179294Y614894D02*
D03*
X241102Y632127D02*
D03*
X248506Y625471D02*
D03*
X241113Y640232D02*
D03*
X244806Y632289D02*
D03*
X245894Y665894D02*
D03*
X307746Y601568D02*
D03*
X97287Y528033D02*
D03*
Y534433D02*
D03*
X100287Y529433D02*
D03*
Y532933D02*
D03*
X82632Y543188D02*
D03*
X85771Y540288D02*
D03*
X91971D02*
D03*
X88832Y543188D02*
D03*
X89487Y529533D02*
D03*
Y533033D02*
D03*
X92487Y528033D02*
D03*
Y534433D02*
D03*
X412058Y590994D02*
D03*
X415394Y588350D02*
D03*
X336910Y759528D02*
D03*
X329724Y764252D02*
D03*
X343307Y759626D02*
D03*
X329724Y774094D02*
D03*
X331693Y761102D02*
D03*
X329724Y767598D02*
D03*
Y770847D02*
D03*
X343694Y723394D02*
D03*
X385394Y724894D02*
D03*
X364894Y722694D02*
D03*
X388894Y723094D02*
D03*
X380694Y724894D02*
D03*
X377294Y722194D02*
D03*
X377094Y708594D02*
D03*
X311394Y718994D02*
D03*
X279870Y792500D02*
D03*
X289194Y756594D02*
D03*
X316694Y715094D02*
D03*
X311294Y727494D02*
D03*
X315594Y724394D02*
D03*
X109400Y752045D02*
D03*
X101494Y747198D02*
D03*
X206794Y811694D02*
D03*
Y819394D02*
D03*
X220194Y819594D02*
D03*
X220094Y811594D02*
D03*
X206794Y815494D02*
D03*
X219994D02*
D03*
X74594Y690675D02*
D03*
X90494Y716894D02*
D03*
X67294Y686975D02*
D03*
X66994Y694375D02*
D03*
X198095Y610480D02*
D03*
X189694Y614194D02*
D03*
Y610494D02*
D03*
X187285Y673770D02*
D03*
X197145Y677340D02*
D03*
X189613Y759394D02*
D03*
X97146Y496831D02*
D03*
Y493780D02*
D03*
X51476Y493681D02*
D03*
Y496732D02*
D03*
X38681Y493681D02*
D03*
X425492Y642500D02*
D03*
X403642Y636594D02*
D03*
X429200Y538994D02*
D03*
Y523494D02*
D03*
X148125Y719180D02*
D03*
X403642Y629902D02*
D03*
X425394Y624094D02*
D03*
X422146Y642500D02*
D03*
X403642Y633248D02*
D03*
X178394Y675616D02*
D03*
X158294Y675894D02*
D03*
X248507Y619010D02*
D03*
X232009Y679561D02*
D03*
X182981Y614887D02*
D03*
X283294Y776725D02*
D03*
Y771817D02*
D03*
X104494Y786294D02*
D03*
X179994Y815494D02*
D03*
X166794D02*
D03*
X180094Y811594D02*
D03*
X180194Y819594D02*
D03*
X166794Y819394D02*
D03*
Y811694D02*
D03*
X167194Y800294D02*
D03*
X180194Y800094D02*
D03*
X140194D02*
D03*
X127194Y800294D02*
D03*
X126794Y811694D02*
D03*
Y819394D02*
D03*
X140194Y819594D02*
D03*
X140094Y811594D02*
D03*
X126794Y815494D02*
D03*
X139994D02*
D03*
X100817Y801490D02*
D03*
X86947Y801402D02*
D03*
X86794Y811694D02*
D03*
Y819394D02*
D03*
X100194Y819594D02*
D03*
X100094Y811594D02*
D03*
X86794Y815494D02*
D03*
X99994D02*
D03*
X73094Y786494D02*
D03*
X144344Y786294D02*
D03*
X108994Y784094D02*
D03*
Y774994D02*
D03*
X149094D02*
D03*
Y784094D02*
D03*
X184444Y786294D02*
D03*
X109294Y792594D02*
D03*
X149194Y792794D02*
D03*
X393773Y828638D02*
D03*
X389773D02*
D03*
X383873D02*
D03*
X189825Y745224D02*
D03*
X70994Y799894D02*
D03*
X58144Y780544D02*
D03*
X403868Y523394D02*
D03*
X407087D02*
D03*
X403868Y526555D02*
D03*
X410268Y523394D02*
D03*
X403868Y529705D02*
D03*
Y538994D02*
D03*
X406988D02*
D03*
X408094Y485894D02*
D03*
X410094Y483394D02*
D03*
X410194Y488394D02*
D03*
X424194Y483394D02*
D03*
X424294Y488394D02*
D03*
X426294Y485894D02*
D03*
Y505894D02*
D03*
X424294Y508394D02*
D03*
X424194Y503394D02*
D03*
X410194Y508394D02*
D03*
X410094Y503394D02*
D03*
X408094Y505894D02*
D03*
X287846Y601513D02*
D03*
X178211Y631808D02*
D03*
X178731Y642147D02*
D03*
X201294Y722194D02*
D03*
X206319Y722219D02*
D03*
X211256Y722219D02*
D03*
X216272Y722189D02*
D03*
X221298Y722268D02*
D03*
X234888Y720249D02*
D03*
X225138Y767056D02*
D03*
X149392Y751991D02*
D03*
X227194Y696494D02*
D03*
X161394Y706694D02*
D03*
X163794Y704994D02*
D03*
Y702094D02*
D03*
X161494Y700294D02*
D03*
X143979Y706220D02*
D03*
X155267Y706679D02*
D03*
X152967Y704880D02*
D03*
Y701979D02*
D03*
X155367Y700280D02*
D03*
X258136Y754276D02*
D03*
X236760Y730489D02*
D03*
X90043Y755358D02*
D03*
X204813Y773795D02*
D03*
X76148Y747577D02*
D03*
X132983Y668191D02*
D03*
X183194Y706794D02*
D03*
X284694Y734694D02*
D03*
X408174Y551653D02*
D03*
X412874Y556546D02*
D03*
Y563146D02*
D03*
X415394Y569494D02*
D03*
X418794Y572294D02*
D03*
X421994Y569494D02*
D03*
X415674Y564946D02*
D03*
X412874Y559846D02*
D03*
X412574Y553346D02*
D03*
X65562Y715314D02*
D03*
X79921Y525472D02*
D03*
X115847Y558150D02*
D03*
X38681Y496732D02*
D03*
X370526Y554688D02*
D03*
X373665Y551788D02*
D03*
X370526Y543188D02*
D03*
X373665Y540288D02*
D03*
X376765Y554688D02*
D03*
X379865Y551788D02*
D03*
Y540288D02*
D03*
X376726Y543188D02*
D03*
X368898Y525472D02*
D03*
X304002Y534532D02*
D03*
X301003Y533132D02*
D03*
Y529632D02*
D03*
X311803Y533032D02*
D03*
Y529532D02*
D03*
X308803Y534532D02*
D03*
Y528132D02*
D03*
X391972Y528132D02*
D03*
Y534532D02*
D03*
X394972Y529532D02*
D03*
Y533032D02*
D03*
X384172Y529632D02*
D03*
Y533132D02*
D03*
X387172Y528132D02*
D03*
Y534532D02*
D03*
X385728Y555394D02*
D03*
X323130Y508347D02*
D03*
X183169Y493681D02*
D03*
X195965D02*
D03*
X320374Y467106D02*
D03*
X300197Y475079D02*
D03*
X298031Y477244D02*
D03*
X328937Y461102D02*
D03*
Y458150D02*
D03*
X318526Y478819D02*
D03*
Y475866D02*
D03*
X320374Y470059D02*
D03*
X349508Y464557D02*
D03*
X367913Y468878D02*
D03*
X404528Y558543D02*
D03*
Y555351D02*
D03*
X387162Y560906D02*
D03*
X390354D02*
D03*
X403868Y535807D02*
D03*
X403937Y532756D02*
D03*
X427559Y525965D02*
D03*
Y536594D02*
D03*
X409201Y796732D02*
D03*
X406150D02*
D03*
X276917Y792500D02*
D03*
X427756Y700866D02*
D03*
X73524Y711004D02*
D03*
X79724Y540236D02*
D03*
X82579Y551752D02*
D03*
X85433Y554606D02*
D03*
X88287Y551752D02*
D03*
X55694Y610594D02*
D03*
X355294Y563094D02*
D03*
X227194Y699594D02*
D03*
X182775Y662411D02*
D03*
X236994Y678194D02*
D03*
X245887Y672774D02*
D03*
X158994Y657394D02*
D03*
X156294Y641994D02*
D03*
X153194D02*
D03*
X140094Y592194D02*
D03*
X47694Y566594D02*
D03*
X105894Y625494D02*
D03*
X76294Y606194D02*
D03*
X57766Y615846D02*
D03*
X56191Y571654D02*
D03*
X39764Y566687D02*
D03*
X120283Y522677D02*
D03*
X112992Y529016D02*
D03*
X116834Y529263D02*
D03*
X112934Y524980D02*
D03*
X112897Y521290D02*
D03*
X33965Y460276D02*
D03*
X40657Y524744D02*
D03*
X82882Y493248D02*
D03*
X84134Y514311D02*
D03*
X87106Y508740D02*
D03*
X84358Y495906D02*
D03*
X82581Y522275D02*
D03*
X85435D02*
D03*
X50894Y522972D02*
D03*
X44488Y528622D02*
D03*
X56012Y534195D02*
D03*
X123158Y522677D02*
D03*
X156693Y493386D02*
D03*
X156602Y496004D02*
D03*
X127953Y534332D02*
D03*
X204929Y491280D02*
D03*
X185236Y524980D02*
D03*
X60343Y488032D02*
D03*
Y491673D02*
D03*
Y495315D02*
D03*
X60179Y498923D02*
D03*
X40748Y529016D02*
D03*
X48130Y523012D02*
D03*
X205028Y495020D02*
D03*
X204929Y499045D02*
D03*
X185145Y521290D02*
D03*
X189377Y529165D02*
D03*
X185343Y528976D02*
D03*
X229882Y522258D02*
D03*
X132579Y491513D02*
D03*
Y487869D02*
D03*
Y498799D02*
D03*
X277173Y487638D02*
D03*
X276882Y491761D02*
D03*
X277079Y495403D02*
D03*
Y499154D02*
D03*
X267604Y522556D02*
D03*
X62304Y526901D02*
D03*
X199960Y534098D02*
D03*
X214575Y492559D02*
D03*
X70000Y492642D02*
D03*
X73425Y499587D02*
D03*
X143194Y493142D02*
D03*
X132579Y495156D02*
D03*
X146012Y499217D02*
D03*
X202758Y534098D02*
D03*
X206594Y526742D02*
D03*
X216929Y557953D02*
D03*
X57794Y536842D02*
D03*
X130794Y534342D02*
D03*
X169847Y556442D02*
D03*
X257394Y521342D02*
D03*
X257480Y524980D02*
D03*
X261694Y529242D02*
D03*
X274994Y534242D02*
D03*
X278994Y526742D02*
D03*
X287394Y493242D02*
D03*
X290500Y499217D02*
D03*
X287594Y496942D02*
D03*
X301094Y493442D02*
D03*
X302854Y522321D02*
D03*
X299902D02*
D03*
X304002Y528232D02*
D03*
X315158Y555984D02*
D03*
X351279Y491316D02*
D03*
Y487672D02*
D03*
X351246Y494959D02*
D03*
Y498636D02*
D03*
X333894Y529142D02*
D03*
X329694Y521342D02*
D03*
X337194Y523442D02*
D03*
X339594Y522342D02*
D03*
X347294Y536242D02*
D03*
X329921Y529242D02*
D03*
X329694Y525542D02*
D03*
X361614Y495059D02*
D03*
X362402Y499587D02*
D03*
X408294Y554842D02*
D03*
X346063Y549488D02*
D03*
X125984Y558347D02*
D03*
X224394Y563842D02*
D03*
X67677Y621060D02*
D03*
X52894Y601142D02*
D03*
X58094Y597442D02*
D03*
X77294Y592494D02*
D03*
X66794Y590842D02*
D03*
X66394Y584742D02*
D03*
X57894Y585342D02*
D03*
X91494Y567242D02*
D03*
X96394Y567294D02*
D03*
X147294Y617394D02*
D03*
X155618Y596693D02*
D03*
X143494Y594694D02*
D03*
X145894Y589994D02*
D03*
X152565Y596688D02*
D03*
X148265Y602503D02*
D03*
X191300Y705754D02*
D03*
X215103Y699981D02*
D03*
X219831Y676457D02*
D03*
X250537Y721340D02*
D03*
X144430Y718879D02*
D03*
X47980Y705492D02*
D03*
X43158Y720453D02*
D03*
X224161Y734035D02*
D03*
X227917Y733570D02*
D03*
X241294Y703342D02*
D03*
X129870Y755591D02*
D03*
X191381Y748802D02*
D03*
X186164Y745258D02*
D03*
X227997Y738860D02*
D03*
X170028Y755689D02*
D03*
X266437Y706280D02*
D03*
X255094Y686342D02*
D03*
X243294Y706842D02*
D03*
X256294Y714994D02*
D03*
X246694Y704742D02*
D03*
X266437Y710610D02*
D03*
X270768D02*
D03*
X264514Y722423D02*
D03*
X275539Y700866D02*
D03*
X270768Y706280D02*
D03*
X267369Y720159D02*
D03*
X272552Y720101D02*
D03*
X284776Y754904D02*
D03*
G54D148*
X333760Y386201D02*
D03*
X365828Y396112D02*
D03*
X333760Y791201D02*
D03*
X365828Y801112D02*
D03*
M02*
