G04*
G04 #@! TF.GenerationSoftware,Altium Limited,Altium Designer,18.1.7 (191)*
G04*
G04 Layer_Color=16711935*
%FSLAX25Y25*%
%MOIN*%
G70*
G01*
G75*
%ADD12C,0.01000*%
%ADD84C,0.06000*%
%ADD126C,0.05800*%
%ADD128C,0.03000*%
G04:AMPARAMS|DCode=253|XSize=118.74mil|YSize=118.74mil|CornerRadius=59.37mil|HoleSize=0mil|Usage=FLASHONLY|Rotation=90.000|XOffset=0mil|YOffset=0mil|HoleType=Round|Shape=RoundedRectangle|*
%AMROUNDEDRECTD253*
21,1,0.11874,0.00000,0,0,90.0*
21,1,0.00000,0.11874,0,0,90.0*
1,1,0.11874,0.00000,0.00000*
1,1,0.11874,0.00000,0.00000*
1,1,0.11874,0.00000,0.00000*
1,1,0.11874,0.00000,0.00000*
%
%ADD253ROUNDEDRECTD253*%
%ADD325C,0.06706*%
%ADD326R,0.06706X0.06706*%
%ADD327O,0.06800X0.12800*%
G04:AMPARAMS|DCode=328|XSize=141mil|YSize=91mil|CornerRadius=0mil|HoleSize=0mil|Usage=FLASHONLY|Rotation=90.000|XOffset=0mil|YOffset=0mil|HoleType=Round|Shape=Octagon|*
%AMOCTAGOND328*
4,1,8,0.02275,0.07050,-0.02275,0.07050,-0.04550,0.04775,-0.04550,-0.04775,-0.02275,-0.07050,0.02275,-0.07050,0.04550,-0.04775,0.04550,0.04775,0.02275,0.07050,0.0*
%
%ADD328OCTAGOND328*%

%ADD329O,0.17300X0.09050*%
%ADD330O,0.12800X0.06800*%
%ADD331O,0.09050X0.17300*%
%ADD332C,0.10800*%
%ADD333P,0.08443X8X292.5*%
%ADD334C,0.13850*%
%ADD335C,0.06600*%
%ADD336C,0.03300*%
%ADD337C,0.01000*%
%ADD338R,0.03543X0.07045*%
%ADD339R,0.07045X0.03543*%
G04:AMPARAMS|DCode=340|XSize=58mil|YSize=58mil|CornerRadius=29mil|HoleSize=0mil|Usage=FLASHONLY|Rotation=90.000|XOffset=0mil|YOffset=0mil|HoleType=Round|Shape=RoundedRectangle|*
%AMROUNDEDRECTD340*
21,1,0.05800,0.00000,0,0,90.0*
21,1,0.00000,0.05800,0,0,90.0*
1,1,0.05800,0.00000,0.00000*
1,1,0.05800,0.00000,0.00000*
1,1,0.05800,0.00000,0.00000*
1,1,0.05800,0.00000,0.00000*
%
%ADD340ROUNDEDRECTD340*%
G04:AMPARAMS|DCode=341|XSize=54mil|YSize=71mil|CornerRadius=15.5mil|HoleSize=0mil|Usage=FLASHONLY|Rotation=180.000|XOffset=0mil|YOffset=0mil|HoleType=Round|Shape=RoundedRectangle|*
%AMROUNDEDRECTD341*
21,1,0.05400,0.04000,0,0,180.0*
21,1,0.02300,0.07100,0,0,180.0*
1,1,0.03100,-0.01150,0.02000*
1,1,0.03100,0.01150,0.02000*
1,1,0.03100,0.01150,-0.02000*
1,1,0.03100,-0.01150,-0.02000*
%
%ADD341ROUNDEDRECTD341*%
G04:AMPARAMS|DCode=342|XSize=54mil|YSize=71mil|CornerRadius=15.5mil|HoleSize=0mil|Usage=FLASHONLY|Rotation=90.000|XOffset=0mil|YOffset=0mil|HoleType=Round|Shape=RoundedRectangle|*
%AMROUNDEDRECTD342*
21,1,0.05400,0.04000,0,0,90.0*
21,1,0.02300,0.07100,0,0,90.0*
1,1,0.03100,0.02000,0.01150*
1,1,0.03100,0.02000,-0.01150*
1,1,0.03100,-0.02000,-0.01150*
1,1,0.03100,-0.02000,0.01150*
%
%ADD342ROUNDEDRECTD342*%
G54D12*
X14869Y969840D02*
Y974838D01*
X17369Y977337D01*
X19868Y974838D01*
Y969840D01*
Y973589D01*
X14869D01*
X22367Y974838D02*
Y969840D01*
Y972339D01*
X23617Y973589D01*
X24866Y974838D01*
X26116D01*
X34863D02*
X31114D01*
X29865Y973589D01*
Y971089D01*
X31114Y969840D01*
X34863D01*
X37362Y977337D02*
Y969840D01*
Y973589D01*
X38612Y974838D01*
X41111D01*
X42360Y973589D01*
Y969840D01*
X44860D02*
X47359D01*
X46109D01*
Y974838D01*
X44860D01*
X51108Y969840D02*
Y974838D01*
X52357D01*
X53607Y973589D01*
Y969840D01*
Y973589D01*
X54856Y974838D01*
X56106Y973589D01*
Y969840D01*
X58605Y968590D02*
X63604D01*
X71101Y969840D02*
X66103D01*
X71101Y974838D01*
Y976088D01*
X69852Y977337D01*
X67352D01*
X66103Y976088D01*
X73601Y969840D02*
Y971089D01*
X74850D01*
Y969840D01*
X73601D01*
X79848D02*
X82348D01*
X81098D01*
Y977337D01*
X79848Y976088D01*
X87346Y974838D02*
X89845D01*
X91095Y973589D01*
Y969840D01*
X87346D01*
X86096Y971089D01*
X87346Y972339D01*
X91095D01*
X14869Y989837D02*
Y982340D01*
X18618D01*
X19868Y983589D01*
Y984839D01*
X18618Y986089D01*
X14869D01*
X18618D01*
X19868Y987338D01*
Y988588D01*
X18618Y989837D01*
X14869D01*
X23617Y982340D02*
X26116D01*
X27365Y983589D01*
Y986089D01*
X26116Y987338D01*
X23617D01*
X22367Y986089D01*
Y983589D01*
X23617Y982340D01*
X31114Y988588D02*
Y987338D01*
X29865D01*
X32364D01*
X31114D01*
Y983589D01*
X32364Y982340D01*
X48608Y988588D02*
X47359Y989837D01*
X44860D01*
X43610Y988588D01*
Y987338D01*
X44860Y986089D01*
X47359D01*
X48608Y984839D01*
Y983589D01*
X47359Y982340D01*
X44860D01*
X43610Y983589D01*
X52357Y982340D02*
X54856D01*
X56106Y983589D01*
Y986089D01*
X54856Y987338D01*
X52357D01*
X51108Y986089D01*
Y983589D01*
X52357Y982340D01*
X58605D02*
X61105D01*
X59855D01*
Y989837D01*
X58605D01*
X69852D02*
Y982340D01*
X66103D01*
X64853Y983589D01*
Y986089D01*
X66103Y987338D01*
X69852D01*
X76100Y982340D02*
X73601D01*
X72351Y983589D01*
Y986089D01*
X73601Y987338D01*
X76100D01*
X77349Y986089D01*
Y984839D01*
X72351D01*
X79848Y987338D02*
Y982340D01*
Y984839D01*
X81098Y986089D01*
X82348Y987338D01*
X83597D01*
X87346Y982340D02*
Y987338D01*
X88596D01*
X89845Y986089D01*
Y982340D01*
Y986089D01*
X91095Y987338D01*
X92344Y986089D01*
Y982340D01*
X96093Y987338D02*
X98592D01*
X99842Y986089D01*
Y982340D01*
X96093D01*
X94844Y983589D01*
X96093Y984839D01*
X99842D01*
X102341Y982340D02*
X106090D01*
X107340Y983589D01*
X106090Y984839D01*
X103591D01*
X102341Y986089D01*
X103591Y987338D01*
X107340D01*
X109839Y982340D02*
Y989837D01*
Y984839D02*
X113588Y987338D01*
X109839Y984839D02*
X113588Y982340D01*
G54D84*
X44331Y30945D02*
D03*
X36457D02*
D03*
X30945Y36457D02*
D03*
Y44331D02*
D03*
X36457Y49843D02*
D03*
X44331D02*
D03*
X49843Y44331D02*
D03*
Y36457D02*
D03*
X44331Y405945D02*
D03*
X36457D02*
D03*
X30945Y411457D02*
D03*
Y419331D02*
D03*
X36457Y424843D02*
D03*
X44331D02*
D03*
X49843Y419331D02*
D03*
Y411457D02*
D03*
X424331Y405945D02*
D03*
X416457D02*
D03*
X410945Y411457D02*
D03*
Y419331D02*
D03*
X416457Y424843D02*
D03*
X424331D02*
D03*
X429843Y419331D02*
D03*
Y411457D02*
D03*
X424331Y30945D02*
D03*
X416457D02*
D03*
X410945Y36457D02*
D03*
Y44331D02*
D03*
X416457Y49843D02*
D03*
X424331D02*
D03*
X429843Y44331D02*
D03*
Y36457D02*
D03*
X44331Y435945D02*
D03*
X36457D02*
D03*
X30945Y441457D02*
D03*
Y449331D02*
D03*
X36457Y454843D02*
D03*
X44331D02*
D03*
X49843Y449331D02*
D03*
Y441457D02*
D03*
X44331Y810945D02*
D03*
X36457D02*
D03*
X30945Y816457D02*
D03*
Y824331D02*
D03*
X36457Y829842D02*
D03*
X44331D02*
D03*
X49843Y824331D02*
D03*
Y816457D02*
D03*
X424331Y810945D02*
D03*
X416457D02*
D03*
X410945Y816457D02*
D03*
Y824331D02*
D03*
X416457Y829842D02*
D03*
X424331D02*
D03*
X429843Y824331D02*
D03*
Y816457D02*
D03*
X424331Y435945D02*
D03*
X416457D02*
D03*
X410945Y441457D02*
D03*
Y449331D02*
D03*
X416457Y454843D02*
D03*
X424331D02*
D03*
X429843Y449331D02*
D03*
Y441457D02*
D03*
G54D126*
X310894Y261142D02*
D03*
X280894Y241142D02*
D03*
X340894Y291142D02*
D03*
X310894Y251142D02*
D03*
X380894Y291142D02*
D03*
X350894Y271142D02*
D03*
X270894Y360842D02*
D03*
X250894Y331142D02*
D03*
X390894Y51142D02*
D03*
X380894D02*
D03*
X370894D02*
D03*
X390894Y81142D02*
D03*
X370894D02*
D03*
Y71142D02*
D03*
X340894Y61142D02*
D03*
Y31142D02*
D03*
X320894Y51142D02*
D03*
X310894D02*
D03*
X300894D02*
D03*
X370894Y351142D02*
D03*
X350894Y331142D02*
D03*
X370894D02*
D03*
X420894Y321142D02*
D03*
X350894Y401142D02*
D03*
X410894Y201142D02*
D03*
X40894Y261142D02*
D03*
X80807Y266791D02*
D03*
X200894Y391142D02*
D03*
X410894Y161142D02*
D03*
Y251142D02*
D03*
X210894Y391142D02*
D03*
X60894Y371142D02*
D03*
X280894Y331142D02*
D03*
X300894Y341142D02*
D03*
X270894Y171142D02*
D03*
X260894D02*
D03*
X80894Y381142D02*
D03*
X120894D02*
D03*
X160894D02*
D03*
X420894Y361142D02*
D03*
X230894Y31142D02*
D03*
X200894Y51142D02*
D03*
X280894Y41142D02*
D03*
X260894Y51142D02*
D03*
X280894Y191142D02*
D03*
X290894Y291142D02*
D03*
X190894Y281142D02*
D03*
X220894Y321142D02*
D03*
X210894Y311142D02*
D03*
Y321142D02*
D03*
X160894Y51142D02*
D03*
X150894D02*
D03*
X140894D02*
D03*
X130894D02*
D03*
X100894D02*
D03*
X90894D02*
D03*
X80894D02*
D03*
X70901Y51149D02*
D03*
X100894Y81142D02*
D03*
X80894D02*
D03*
X60894Y71142D02*
D03*
X40894Y101142D02*
D03*
X170894Y81142D02*
D03*
X150894D02*
D03*
X120894Y111142D02*
D03*
X110894Y101142D02*
D03*
X250894Y81142D02*
D03*
X220894D02*
D03*
X190894Y91142D02*
D03*
X180894Y81142D02*
D03*
X320894D02*
D03*
X310894Y71142D02*
D03*
X260894Y91142D02*
D03*
X250894D02*
D03*
X320894Y181142D02*
D03*
X280894Y171142D02*
D03*
X300894D02*
D03*
X270894Y191142D02*
D03*
X320894D02*
D03*
X290894Y171142D02*
D03*
X360894Y201142D02*
D03*
X340894Y211142D02*
D03*
X310894D02*
D03*
X250894Y309994D02*
D03*
X160894Y191142D02*
D03*
X81102Y211142D02*
D03*
X80894Y191142D02*
D03*
X400894Y211142D02*
D03*
X150894Y251142D02*
D03*
X51494Y161394D02*
D03*
X80894Y201142D02*
D03*
Y181142D02*
D03*
X54894Y201142D02*
D03*
X71102Y211142D02*
D03*
X90894Y251142D02*
D03*
X140894Y271142D02*
D03*
X170894D02*
D03*
X200894Y301142D02*
D03*
X180894Y321142D02*
D03*
X240894D02*
D03*
X210894Y371142D02*
D03*
X160894Y291142D02*
D03*
X140894D02*
D03*
X180894Y341142D02*
D03*
X190894Y361142D02*
D03*
X170894Y351142D02*
D03*
X130894D02*
D03*
X90894D02*
D03*
X80894Y341142D02*
D03*
X60894Y301142D02*
D03*
X360894Y51142D02*
D03*
X200894Y311142D02*
D03*
X230894Y381142D02*
D03*
X310894Y666142D02*
D03*
X280894Y646142D02*
D03*
X340894Y696142D02*
D03*
X310894Y656142D02*
D03*
X380894Y696142D02*
D03*
X350894Y676142D02*
D03*
X270894Y765842D02*
D03*
X250894Y736142D02*
D03*
X390894Y456142D02*
D03*
X380894D02*
D03*
X370894D02*
D03*
X390894Y486142D02*
D03*
X370894D02*
D03*
Y476142D02*
D03*
X340894Y466142D02*
D03*
Y436142D02*
D03*
X320894Y456142D02*
D03*
X310894D02*
D03*
X300894D02*
D03*
X370894Y756142D02*
D03*
X350894Y736142D02*
D03*
X370894D02*
D03*
X420894Y726142D02*
D03*
X350894Y806142D02*
D03*
X410894Y606142D02*
D03*
X40894Y666142D02*
D03*
X80807Y671791D02*
D03*
X200894Y796142D02*
D03*
X410894Y566142D02*
D03*
Y656142D02*
D03*
X210894Y796142D02*
D03*
X60894Y776142D02*
D03*
X280894Y736142D02*
D03*
X300894Y746142D02*
D03*
X270894Y576142D02*
D03*
X260894D02*
D03*
X80894Y786142D02*
D03*
X120894D02*
D03*
X160894D02*
D03*
X420894Y766142D02*
D03*
X230894Y436142D02*
D03*
X200894Y456142D02*
D03*
X280894Y446142D02*
D03*
X260894Y456142D02*
D03*
X280894Y596142D02*
D03*
X290894Y696142D02*
D03*
X190894Y686142D02*
D03*
X220894Y726142D02*
D03*
X210894Y716142D02*
D03*
Y726142D02*
D03*
X160894Y456142D02*
D03*
X150894D02*
D03*
X140894D02*
D03*
X130894D02*
D03*
X100894D02*
D03*
X90894D02*
D03*
X80894D02*
D03*
X70901Y456149D02*
D03*
X100894Y486142D02*
D03*
X80894D02*
D03*
X60894Y476142D02*
D03*
X40894Y506142D02*
D03*
X170894Y486142D02*
D03*
X150894D02*
D03*
X120894Y516142D02*
D03*
X110894Y506142D02*
D03*
X250894Y486142D02*
D03*
X220894D02*
D03*
X190894Y496142D02*
D03*
X180894Y486142D02*
D03*
X320894D02*
D03*
X310894Y476142D02*
D03*
X260894Y496142D02*
D03*
X250894D02*
D03*
X320894Y586142D02*
D03*
X280894Y576142D02*
D03*
X300894D02*
D03*
X270894Y596142D02*
D03*
X320894D02*
D03*
X290894Y576142D02*
D03*
X360894Y606142D02*
D03*
X340894Y616142D02*
D03*
X310894D02*
D03*
X250894Y714994D02*
D03*
X160894Y596142D02*
D03*
X81102Y616142D02*
D03*
X80894Y596142D02*
D03*
X400894Y616142D02*
D03*
X150894Y656142D02*
D03*
X51494Y566394D02*
D03*
X80894Y606142D02*
D03*
Y586142D02*
D03*
X54894Y606142D02*
D03*
X71102Y616142D02*
D03*
X90894Y656142D02*
D03*
X140894Y676142D02*
D03*
X170894D02*
D03*
X200894Y706142D02*
D03*
X180894Y726142D02*
D03*
X240894D02*
D03*
X210894Y776142D02*
D03*
X160894Y696142D02*
D03*
X140894D02*
D03*
X180894Y746142D02*
D03*
X190894Y766142D02*
D03*
X170894Y756142D02*
D03*
X130894D02*
D03*
X90894D02*
D03*
X80894Y746142D02*
D03*
X60894Y706142D02*
D03*
X360894Y456142D02*
D03*
X200894Y716142D02*
D03*
X230894Y786142D02*
D03*
G54D128*
X363450Y103327D02*
D03*
X291206Y111988D02*
D03*
X146718D02*
D03*
X142387D02*
D03*
X138057D02*
D03*
Y107658D02*
D03*
X133726Y111988D02*
D03*
Y107658D02*
D03*
X218962Y111988D02*
D03*
X74474D02*
D03*
X138057Y103327D02*
D03*
X146718D02*
D03*
Y107658D02*
D03*
X142387D02*
D03*
Y103327D02*
D03*
X205970Y107658D02*
D03*
X210301D02*
D03*
X61482Y103327D02*
D03*
Y111988D02*
D03*
X65813Y107658D02*
D03*
Y111988D02*
D03*
X74474Y103327D02*
D03*
X70143D02*
D03*
X74474Y107658D02*
D03*
X70143D02*
D03*
Y111988D02*
D03*
X61482Y107658D02*
D03*
X65813Y103327D02*
D03*
X214632Y107658D02*
D03*
Y111988D02*
D03*
X210301D02*
D03*
X205970Y103327D02*
D03*
X218962D02*
D03*
Y107658D02*
D03*
X214632Y103327D02*
D03*
X210301D02*
D03*
X205970Y111988D02*
D03*
X133726Y103327D02*
D03*
X282545Y107658D02*
D03*
X286876Y103327D02*
D03*
Y107658D02*
D03*
X291206Y103327D02*
D03*
X286876Y111988D02*
D03*
X291206Y107658D02*
D03*
X282545Y111988D02*
D03*
Y103327D02*
D03*
X278214Y111988D02*
D03*
Y103327D02*
D03*
Y107658D02*
D03*
X354789D02*
D03*
X350458Y103327D02*
D03*
X354789D02*
D03*
X359120Y107658D02*
D03*
X354789Y111988D02*
D03*
X350458Y107658D02*
D03*
X359120Y103327D02*
D03*
X363450Y107658D02*
D03*
X359120Y111988D02*
D03*
X350458D02*
D03*
X363450D02*
D03*
Y508327D02*
D03*
X291206Y516988D02*
D03*
X146718D02*
D03*
X142387D02*
D03*
X138057D02*
D03*
Y512658D02*
D03*
X133726Y516988D02*
D03*
Y512658D02*
D03*
X218962Y516988D02*
D03*
X74474D02*
D03*
X138057Y508327D02*
D03*
X146718D02*
D03*
Y512658D02*
D03*
X142387D02*
D03*
Y508327D02*
D03*
X205970Y512658D02*
D03*
X210301D02*
D03*
X61482Y508327D02*
D03*
Y516988D02*
D03*
X65813Y512658D02*
D03*
Y516988D02*
D03*
X74474Y508327D02*
D03*
X70143D02*
D03*
X74474Y512658D02*
D03*
X70143D02*
D03*
Y516988D02*
D03*
X61482Y512658D02*
D03*
X65813Y508327D02*
D03*
X214632Y512658D02*
D03*
Y516988D02*
D03*
X210301D02*
D03*
X205970Y508327D02*
D03*
X218962D02*
D03*
Y512658D02*
D03*
X214632Y508327D02*
D03*
X210301D02*
D03*
X205970Y516988D02*
D03*
X133726Y508327D02*
D03*
X282545Y512658D02*
D03*
X286876Y508327D02*
D03*
Y512658D02*
D03*
X291206Y508327D02*
D03*
X286876Y516988D02*
D03*
X291206Y512658D02*
D03*
X282545Y516988D02*
D03*
Y508327D02*
D03*
X278214Y516988D02*
D03*
Y508327D02*
D03*
Y512658D02*
D03*
X354789D02*
D03*
X350458Y508327D02*
D03*
X354789D02*
D03*
X359120Y512658D02*
D03*
X354789Y516988D02*
D03*
X350458Y512658D02*
D03*
X359120Y508327D02*
D03*
X363450Y512658D02*
D03*
X359120Y516988D02*
D03*
X350458D02*
D03*
X363450D02*
D03*
G54D253*
X37894Y847974D02*
D03*
X423780D02*
D03*
Y13189D02*
D03*
X37894Y12894D02*
D03*
G54D325*
X379870Y181280D02*
D03*
Y171280D02*
D03*
X369870Y181280D02*
D03*
Y171280D02*
D03*
X359870Y181280D02*
D03*
Y171280D02*
D03*
X349870Y181280D02*
D03*
Y171280D02*
D03*
X339870Y181280D02*
D03*
X135694Y205694D02*
D03*
Y195694D02*
D03*
X125694Y205694D02*
D03*
Y195694D02*
D03*
X115694Y205694D02*
D03*
Y195694D02*
D03*
X105694Y205694D02*
D03*
Y195694D02*
D03*
X95694Y205694D02*
D03*
X135694Y243187D02*
D03*
Y233187D02*
D03*
X125694Y243187D02*
D03*
Y233187D02*
D03*
X115694Y243187D02*
D03*
Y233187D02*
D03*
X105694Y243187D02*
D03*
Y233187D02*
D03*
X95694Y243187D02*
D03*
X215494Y165994D02*
D03*
X205494Y175994D02*
D03*
Y165994D02*
D03*
X195494Y175994D02*
D03*
Y165994D02*
D03*
X185494Y175994D02*
D03*
Y165994D02*
D03*
X175494Y175994D02*
D03*
Y165994D02*
D03*
X165494Y175994D02*
D03*
Y165994D02*
D03*
X155494Y175994D02*
D03*
Y165994D02*
D03*
X145494Y175994D02*
D03*
Y165994D02*
D03*
X135494Y175994D02*
D03*
Y165994D02*
D03*
X125494Y175994D02*
D03*
Y165994D02*
D03*
X115494Y175994D02*
D03*
Y165994D02*
D03*
X105494Y175994D02*
D03*
Y165994D02*
D03*
X199194Y345694D02*
D03*
Y355694D02*
D03*
X209194Y345694D02*
D03*
Y355694D02*
D03*
X219194Y345694D02*
D03*
Y355694D02*
D03*
X229194Y345694D02*
D03*
X379870Y586280D02*
D03*
Y576280D02*
D03*
X369870Y586280D02*
D03*
Y576280D02*
D03*
X359870Y586280D02*
D03*
Y576280D02*
D03*
X349870Y586280D02*
D03*
Y576280D02*
D03*
X339870Y586280D02*
D03*
X135694Y610694D02*
D03*
Y600694D02*
D03*
X125694Y610694D02*
D03*
Y600694D02*
D03*
X115694Y610694D02*
D03*
Y600694D02*
D03*
X105694Y610694D02*
D03*
Y600694D02*
D03*
X95694Y610694D02*
D03*
X135694Y648187D02*
D03*
Y638187D02*
D03*
X125694Y648187D02*
D03*
Y638187D02*
D03*
X115694Y648187D02*
D03*
Y638187D02*
D03*
X105694Y648187D02*
D03*
Y638187D02*
D03*
X95694Y648187D02*
D03*
X215494Y570994D02*
D03*
X205494Y580994D02*
D03*
Y570994D02*
D03*
X195494Y580994D02*
D03*
Y570994D02*
D03*
X185494Y580994D02*
D03*
Y570994D02*
D03*
X175494Y580994D02*
D03*
Y570994D02*
D03*
X165494Y580994D02*
D03*
Y570994D02*
D03*
X155494Y580994D02*
D03*
Y570994D02*
D03*
X145494Y580994D02*
D03*
Y570994D02*
D03*
X135494Y580994D02*
D03*
Y570994D02*
D03*
X125494Y580994D02*
D03*
Y570994D02*
D03*
X115494Y580994D02*
D03*
Y570994D02*
D03*
X105494Y580994D02*
D03*
Y570994D02*
D03*
X199194Y750694D02*
D03*
Y760694D02*
D03*
X209194Y750694D02*
D03*
Y760694D02*
D03*
X219194Y750694D02*
D03*
Y760694D02*
D03*
X229194Y750694D02*
D03*
G54D326*
X339870Y171280D02*
D03*
X95694Y195694D02*
D03*
Y233187D02*
D03*
X215494Y175994D02*
D03*
X229194Y355694D02*
D03*
X339870Y576280D02*
D03*
X95694Y600694D02*
D03*
Y638187D02*
D03*
X215494Y580994D02*
D03*
X229194Y760694D02*
D03*
G54D327*
X359894Y211694D02*
D03*
X349894D02*
D03*
X296694D02*
D03*
X286694D02*
D03*
X318394D02*
D03*
X328394D02*
D03*
X363194Y280294D02*
D03*
X373194D02*
D03*
X383194D02*
D03*
X301094D02*
D03*
X291094D02*
D03*
X281094D02*
D03*
X383194Y256294D02*
D03*
X373194D02*
D03*
X363194D02*
D03*
X322144D02*
D03*
X332144D02*
D03*
X342144D02*
D03*
X301094D02*
D03*
X291094D02*
D03*
X281094D02*
D03*
X359894Y39894D02*
D03*
X369894D02*
D03*
X379894D02*
D03*
X389894D02*
D03*
X300394D02*
D03*
X310394D02*
D03*
X320394D02*
D03*
X330394D02*
D03*
X190394D02*
D03*
X200394D02*
D03*
X210394D02*
D03*
X220394D02*
D03*
X241394D02*
D03*
X251394D02*
D03*
X261394D02*
D03*
X271394D02*
D03*
X130894D02*
D03*
X140894D02*
D03*
X150894D02*
D03*
X160894D02*
D03*
X100894D02*
D03*
X90894D02*
D03*
X80894D02*
D03*
X70894D02*
D03*
X342144Y280294D02*
D03*
X332144D02*
D03*
X322144D02*
D03*
X381194Y211694D02*
D03*
X391194D02*
D03*
X37794Y379894D02*
D03*
X47794D02*
D03*
X359894Y616694D02*
D03*
X349894D02*
D03*
X296694D02*
D03*
X286694D02*
D03*
X318394D02*
D03*
X328394D02*
D03*
X363194Y685294D02*
D03*
X373194D02*
D03*
X383194D02*
D03*
X301094D02*
D03*
X291094D02*
D03*
X281094D02*
D03*
X383194Y661294D02*
D03*
X373194D02*
D03*
X363194D02*
D03*
X322144D02*
D03*
X332144D02*
D03*
X342144D02*
D03*
X301094D02*
D03*
X291094D02*
D03*
X281094D02*
D03*
X359894Y444894D02*
D03*
X369894D02*
D03*
X379894D02*
D03*
X389894D02*
D03*
X300394D02*
D03*
X310394D02*
D03*
X320394D02*
D03*
X330394D02*
D03*
X190394D02*
D03*
X200394D02*
D03*
X210394D02*
D03*
X220394D02*
D03*
X241394D02*
D03*
X251394D02*
D03*
X261394D02*
D03*
X271394D02*
D03*
X130894D02*
D03*
X140894D02*
D03*
X150894D02*
D03*
X160894D02*
D03*
X100894D02*
D03*
X90894D02*
D03*
X80894D02*
D03*
X70894D02*
D03*
X342144Y685294D02*
D03*
X332144D02*
D03*
X322144D02*
D03*
X381194Y616694D02*
D03*
X391194D02*
D03*
X37794Y784894D02*
D03*
X47794D02*
D03*
G54D328*
X336894Y363794D02*
D03*
X350294D02*
D03*
Y310794D02*
D03*
X336894D02*
D03*
X370494Y363794D02*
D03*
X383894D02*
D03*
Y310794D02*
D03*
X370494D02*
D03*
X423826Y228272D02*
D03*
X410426D02*
D03*
Y175272D02*
D03*
X423826D02*
D03*
X336894Y768794D02*
D03*
X350294D02*
D03*
Y715794D02*
D03*
X336894D02*
D03*
X370494Y768794D02*
D03*
X383894D02*
D03*
Y715794D02*
D03*
X370494D02*
D03*
X423826Y633272D02*
D03*
X410426D02*
D03*
Y580272D02*
D03*
X423826D02*
D03*
G54D329*
X402457Y263642D02*
D03*
Y283642D02*
D03*
Y303642D02*
D03*
Y323642D02*
D03*
Y363642D02*
D03*
Y343642D02*
D03*
Y668642D02*
D03*
Y688642D02*
D03*
Y708642D02*
D03*
Y728642D02*
D03*
Y768642D02*
D03*
Y748642D02*
D03*
G54D330*
X417194Y100894D02*
D03*
Y90894D02*
D03*
Y80894D02*
D03*
Y70894D02*
D03*
Y505894D02*
D03*
Y495894D02*
D03*
Y485894D02*
D03*
Y475894D02*
D03*
G54D331*
X73394Y410594D02*
D03*
X93394D02*
D03*
X113394D02*
D03*
X133394D02*
D03*
X153394D02*
D03*
X173394D02*
D03*
X193394D02*
D03*
X213394D02*
D03*
X233394D02*
D03*
X253394D02*
D03*
X73394Y815594D02*
D03*
X93394D02*
D03*
X113394D02*
D03*
X133394D02*
D03*
X153394D02*
D03*
X173394D02*
D03*
X193394D02*
D03*
X213394D02*
D03*
X233394D02*
D03*
X253394D02*
D03*
G54D332*
X43794Y325094D02*
D03*
Y352694D02*
D03*
Y730094D02*
D03*
Y757694D02*
D03*
G54D333*
X33994Y329994D02*
D03*
Y347794D02*
D03*
Y734994D02*
D03*
Y752794D02*
D03*
G54D334*
X50394Y231694D02*
D03*
Y279016D02*
D03*
Y636694D02*
D03*
Y684016D02*
D03*
G54D335*
X61094Y250394D02*
D03*
Y260315D02*
D03*
X68994D02*
D03*
Y250394D02*
D03*
X61094Y655394D02*
D03*
Y665315D02*
D03*
X68994D02*
D03*
Y655394D02*
D03*
G54D336*
X166494Y363596D02*
D03*
X170494D02*
D03*
Y367596D02*
D03*
X166494D02*
D03*
Y371596D02*
D03*
X170494D02*
D03*
Y375596D02*
D03*
X166494D02*
D03*
X158494D02*
D03*
X154494D02*
D03*
Y371596D02*
D03*
X158494D02*
D03*
Y367596D02*
D03*
X154494D02*
D03*
Y363596D02*
D03*
X158494D02*
D03*
X162494D02*
D03*
Y367596D02*
D03*
Y375596D02*
D03*
Y371596D02*
D03*
X122394D02*
D03*
Y375596D02*
D03*
Y367596D02*
D03*
Y363596D02*
D03*
X118394D02*
D03*
X114394D02*
D03*
Y367596D02*
D03*
X118394D02*
D03*
Y371596D02*
D03*
X114394D02*
D03*
Y375596D02*
D03*
X118394D02*
D03*
X126394D02*
D03*
X130394D02*
D03*
Y371596D02*
D03*
X126394D02*
D03*
Y367596D02*
D03*
X130394D02*
D03*
Y363596D02*
D03*
X126394D02*
D03*
X86543D02*
D03*
X90543D02*
D03*
Y367596D02*
D03*
X86543D02*
D03*
Y371596D02*
D03*
X90543D02*
D03*
Y375596D02*
D03*
X86543D02*
D03*
X78543D02*
D03*
X74543D02*
D03*
Y371596D02*
D03*
X78543D02*
D03*
Y367596D02*
D03*
X74543D02*
D03*
Y363596D02*
D03*
X78543D02*
D03*
X82543D02*
D03*
Y367596D02*
D03*
Y375596D02*
D03*
Y371596D02*
D03*
X248043Y363596D02*
D03*
Y367596D02*
D03*
Y359596D02*
D03*
Y355596D02*
D03*
X244043D02*
D03*
X240043D02*
D03*
Y359596D02*
D03*
X244043D02*
D03*
Y363596D02*
D03*
X240043D02*
D03*
Y367596D02*
D03*
X244043D02*
D03*
X252043D02*
D03*
X256043D02*
D03*
Y363596D02*
D03*
X252043D02*
D03*
Y359596D02*
D03*
X256043D02*
D03*
Y355596D02*
D03*
X252043D02*
D03*
X166494Y768596D02*
D03*
X170494D02*
D03*
Y772596D02*
D03*
X166494D02*
D03*
Y776596D02*
D03*
X170494D02*
D03*
Y780596D02*
D03*
X166494D02*
D03*
X158494D02*
D03*
X154494D02*
D03*
Y776596D02*
D03*
X158494D02*
D03*
Y772596D02*
D03*
X154494D02*
D03*
Y768596D02*
D03*
X158494D02*
D03*
X162494D02*
D03*
Y772596D02*
D03*
Y780596D02*
D03*
Y776596D02*
D03*
X122394D02*
D03*
Y780596D02*
D03*
Y772596D02*
D03*
Y768596D02*
D03*
X118394D02*
D03*
X114394D02*
D03*
Y772596D02*
D03*
X118394D02*
D03*
Y776596D02*
D03*
X114394D02*
D03*
Y780596D02*
D03*
X118394D02*
D03*
X126394D02*
D03*
X130394D02*
D03*
Y776596D02*
D03*
X126394D02*
D03*
Y772596D02*
D03*
X130394D02*
D03*
Y768596D02*
D03*
X126394D02*
D03*
X86543D02*
D03*
X90543D02*
D03*
Y772596D02*
D03*
X86543D02*
D03*
Y776596D02*
D03*
X90543D02*
D03*
Y780596D02*
D03*
X86543D02*
D03*
X78543D02*
D03*
X74543D02*
D03*
Y776596D02*
D03*
X78543D02*
D03*
Y772596D02*
D03*
X74543D02*
D03*
Y768596D02*
D03*
X78543D02*
D03*
X82543D02*
D03*
Y772596D02*
D03*
Y780596D02*
D03*
Y776596D02*
D03*
X248043Y768596D02*
D03*
Y772596D02*
D03*
Y764596D02*
D03*
Y760596D02*
D03*
X244043D02*
D03*
X240043D02*
D03*
Y764596D02*
D03*
X244043D02*
D03*
Y768596D02*
D03*
X240043D02*
D03*
Y772596D02*
D03*
X244043D02*
D03*
X252043D02*
D03*
X256043D02*
D03*
Y768596D02*
D03*
X252043D02*
D03*
Y764596D02*
D03*
X256043D02*
D03*
Y760596D02*
D03*
X252043D02*
D03*
G54D337*
X360294Y403081D02*
D03*
X355963D02*
D03*
X360294Y407412D02*
D03*
X355963D02*
D03*
X360294Y411742D02*
D03*
X355963D02*
D03*
X360294Y808081D02*
D03*
X355963D02*
D03*
X360294Y812412D02*
D03*
X355963D02*
D03*
X360294Y816743D02*
D03*
X355963D02*
D03*
G54D338*
X93504Y266534D02*
D03*
Y671534D02*
D03*
G54D339*
X83050Y241358D02*
D03*
Y646358D02*
D03*
G54D340*
X360894Y151142D02*
D03*
X401221Y161319D02*
D03*
X380894Y411142D02*
D03*
X360894Y556142D02*
D03*
X401221Y566319D02*
D03*
X380894Y816142D02*
D03*
G54D341*
X96406Y266457D02*
D03*
X90405D02*
D03*
X96406Y671457D02*
D03*
X90405D02*
D03*
G54D342*
X82972Y244457D02*
D03*
Y238457D02*
D03*
Y649457D02*
D03*
Y643457D02*
D03*
M02*
