M48
;Layer_Color=9474304
;FILE_FORMAT=2:4
INCH,TZ
;TYPE=PLATED
T1F00S00C0.0100
T2F00S00C0.0150
T3F00S00C0.0354
T4F00S00C0.0380
T5F00S00C0.0400
T6F00S00C0.0550
T7F00S00C0.0590
T8F00S00C0.0630
T9F00S00C0.0870
;TYPE=NON_PLATED
T10F00S00C0.1181
T11F00S00C0.1299
%
T01
X27821Y10333
X28254
Y10766
X27821
Y11199
X28254
X28688
X29121
Y10766
Y10333
X28688
Y10766
X35046
X35479
Y10333
X35046
Y11199
X35479
X35912
Y10766
Y10333
X36345
Y10766
Y11199
X21896
X21463
X21030
X20597
Y10766
X21030
Y10333
X20597
X21463
Y10766
X21896
Y10333
X14672
Y10766
Y11199
X14239
Y10766
Y10333
X13806
X13373
Y10766
X13806
Y11199
X13373
X7447
X7014
X6581
Y10766
Y10333
X7014
Y10766
X7447
Y10333
X6148
Y10766
Y11199
X7454Y36360
X7854
X8254
Y36760
Y37160
Y37560
X7854
Y37160
Y36760
X7454
Y37160
Y37560
X8654
X9054
Y37160
X8654
Y36760
X9054
Y36360
X8654
X11439
Y36760
Y37160
Y37560
X11839
Y37160
Y36760
Y36360
X12239
X12639
X13039
Y36760
X12639
Y37160
X13039
Y37560
X12639
X12239
Y37160
Y36760
X15449
Y36360
X15849
X16249
Y36760
Y37160
Y37560
X15849
Y37160
Y36760
X15449Y37160
Y37560
X16649
X17049
Y37160
X16649
Y36760
X17049
Y36360
X16649
X24004
Y36760
X24404
Y36360
Y35960
X24004
Y35560
X24404
X24804
X25204
X25604
Y35960
X25204
Y36360
X25604
Y36760
X25204
X24804
Y36360
Y35960
X28198Y33927
X28592
X33376Y38620
X35596Y40308
X36029
Y40741
X35596
Y41174
X36029
X36583Y39611
X36345Y50833
Y51266
X35912
Y50833
X35479
Y51266
X35046
Y50833
Y51699
X35479
X35912
X36345
X29121
Y51266
Y50833
X28688
Y51266
Y51699
X28254
X27821
Y51266
Y50833
X28254
Y51266
X21896
Y50833
X21463
Y51266
X21030
X20597
Y50833
X21030
Y51699
X20597
X21463
X21896
X14672
Y51266
Y50833
X14239
Y51266
Y51699
X13806
X13373
Y51266
Y50833
X13806
Y51266
X7447
Y50833
X7014
Y51266
X6581
Y50833
Y51699
X7014
X7447
X6148
Y51266
Y50833
X24004Y76060
Y76460
Y76860
Y77260
X24404
Y76860
Y76460
Y76060
X24804
X25204
X25604
Y76460
X25204
Y76860
X25604
Y77260
X25204
X24804
Y76860
Y76460
X28198Y74427
X28592
X33376Y79120
X35596Y80808
X36029
Y81241
X35596
Y81674
X36029
X36583Y80111
X17049Y78060
X16649
X16249
Y77660
Y77260
Y76860
X15849
X15449
Y77260
X15849
Y77660
X15449
Y78060
X15849
X16649Y77660
X17049
Y77260
X16649
Y76860
X17049
X13039
X12639
Y77260
X13039
Y77660
X12639
Y78060
X13039
X12239
X11839
X11439
Y77660
X11839
Y77260
X11439
Y76860
X11839
X12239
Y77260
Y77660
X9054
Y78060
X8654
X8254
Y77660
Y77260
Y76860
X7854
X7454
Y77260
X7854
Y77660
X7454
Y78060
X7854
X8654Y77660
Y77260
X9054
Y76860
X8654
T02
X3339Y3339
X4039Y3039
X4739Y3339
X5039Y4039
X5899Y4019
X5979Y5089
X6329
X5965Y5429
X5509Y5139
X5259Y5389
X4959Y5434
X4739Y4739
X4039Y5039
X3339Y4739
X3396Y5528
X3612Y5994
X3039Y4039
X6585Y3327
X8593
X8596Y4800
X7629Y4749
X7609Y5054
X7599Y5399
X8500Y6069
X9559
X10889Y5749
Y5429
Y5109
X11663Y5108
Y4778
X12259Y4749
Y5079
X13579Y5119
Y5439
X14589Y6139
X15591Y6053
X17165Y5935
X17495
X17535Y5413
X17205
X17939Y5724
X18218Y5728
X18209Y5089
Y4759
X19390Y5116
X19561Y5362
X20539Y6119
X21539Y6059
X17933Y3366
X14596Y3376
X11831Y3366
X23268Y4311
X23189Y5409
X23519
X24502Y5400
X24513Y6191
X24779Y6194
X25583Y5405
X26688Y5370
X27806Y5404
X28579Y5419
X28909
X29451Y4705
X30566Y5156
X30539Y5509
X31309Y6299
X31539Y6070
X32037Y6211
X32507Y6062
X32894Y5610
Y5315
X34311Y4793
Y4463
X35489Y4749
Y5079
X34951Y5956
X36479Y6024
X37489Y6060
X37522Y4730
X37520Y3337
X34882Y3346
X31565
X31550Y4675
X28642Y3396
X38489Y6080
X39489Y6099
X41099Y6159
X42487Y6343
X42039Y5039
X41339Y4739
X41039Y4039
X41339Y3339
X42039Y3039
X42739Y3339
X43039Y4039
X42739Y4739
X42419Y6839
X42629Y7089
X42429Y7339
X42419Y7839
X42629Y8089
X42429Y8339
X42419Y8839
X42629Y9089
X42429Y9339
X42419Y9839
X42629Y10089
X42429Y10339
X41019
X40809Y10089
X41009Y9839
X41019Y9339
X40809Y9089
X41009Y8839
X41019Y8339
X40809Y8089
X41009Y7839
X41019Y7339
X40809Y7089
X41009Y6839
X39489Y6429
X38489Y6410
X38307Y8489
X38002
X37701
X38612Y8878
Y9183
X39518Y9754
X37608Y10374
Y10965
X38278Y11388
X38573
X38717Y12313
X38417Y12463
Y12813
X38717Y12953
X39197
X39497Y12803
Y12453
X39197Y12313
X40387Y12470
X40394Y12776
X40387Y13081
Y13399
X40699
X39931Y13563
X39656Y13839
X39104
X39380Y13563
X38829
X37986Y13529
X37673Y13819
X37676Y14969
X37986Y14679
X38573Y15039
X38716Y15591
X39035
X39075Y14685
X39646
X39360Y14970
X40453Y15035
Y15354
X40829Y14984
X40817Y14665
X41257Y14835
X41287Y15155
Y15485
Y15815
X41567Y15995
X41539Y16449
X41213Y16636
X40869Y16449
X40539Y16719
X40329Y17129
X40349Y17559
X40379Y18079
X40539Y18605
X40869Y18335
X41206Y18599
X41539Y18335
X41879Y18605
X42198Y18407
X42549Y18605
X42279Y19767
X42513Y20566
X42999Y21059
X42040Y21154
X42216Y21904
X42539Y21909
X41211Y21904
X40876
X40743Y21204
X40705Y19736
X41879Y16729
X42199Y16449
X42237Y15995
X42497Y15805
Y15485
Y15165
Y14845
X42587Y14515
Y14185
X42477Y13875
X42157
X42270Y13399
X42598
X42920
X42756Y13159
X42431
X42441Y12099
X42756Y12096
X42920Y11849
X42598Y11839
X42270
X41027
X40709
X40387
Y12156
X42572Y16636
X37366Y14679
X37053Y14969
Y13819
X37366Y13529
X37490Y11732
X37195
X36890Y12047
X35669Y12144
X35128Y12136
X34729Y13124
X34448Y13125
X33986Y13346
X33389Y12414
X32992Y12424
X32969Y12054
X33343Y12043
Y11738
X32969Y11634
X33719Y11844
X33959Y11734
X34078Y10370
X33783
X34437Y9843
Y9547
X34045Y9173
Y8868
X33907Y8091
X33602
X33302
X33002
X32766Y8868
Y9173
X32116Y9636
X32313Y10335
Y10630
X31359Y11394
X31073Y11398
X30880Y12313
X31180Y12453
Y12803
X30880Y12953
X30400
X30100Y12813
Y12463
X30400Y12323
X30285Y11732
X29990
X29665Y12047
X28469Y12154
X27899Y12174
X27499Y12924
X27220Y12920
X26437Y13150
X26169Y12424
X26149Y12064
X26113Y11788
X26479Y11764
X26760Y11756
X25739Y11634
X25748Y11998
X25749Y12364
X25029Y12443
Y12793
X24729Y12943
X24249
X23949Y12803
Y12453
X24249Y12303
X24729
X24921Y13563
X24646Y13839
X25197
X25187Y14685
X24616
X24902Y14970
X25472
X24203Y15167
X24089Y16064
X23079Y15969
X22439Y15884
X22594Y14969
X22908Y14679
X23218Y14969
X23528Y14679
Y13529
X23214Y13819
X22908Y13529
X22594Y13819
X22441Y12047
X22693Y11726
X22988
X22864Y10945
X23159
Y10374
X22864
X22431Y9882
X22402Y9611
X22884Y9144
X22886Y8850
X22955Y8486
X23253Y8489
X23553
X23858
X24163Y8878
Y9183
X25541Y9173
Y8868
X25778Y8091
X26077
X26378
X26683
X26821Y8868
Y9173
X27193Y9497
Y9793
X27708Y9415
Y9040
X27688Y8676
X27717Y8264
X28739Y8824
X28759Y9194
X29050Y9422
X29649Y9604
X29656Y9882
X30089Y10374
X30384
Y10965
X30089
X30109Y9114
Y8844
X30179Y8464
X30477Y8489
X30778
X31083
X31388Y8878
Y9183
X31853Y7382
Y7087
X32037Y6506
X30020Y7008
X29803Y7224
X28681Y7008
X28351
X29085Y8533
X26853Y10370
X26558
X25738Y10630
X25443
X24921Y10039
X24075Y11378
X23780
X24370Y13563
X27008Y14606
X28258Y13839
Y13425
X29828Y13819
X30142Y13529
X30448Y13819
X30762Y13529
Y14679
X30452Y14969
X30142Y14679
X29828Y14969
X29806Y16665
X30271Y16746
X30535Y16489
X30632Y17325
X30190Y17738
X30085Y18379
X30085Y18762
X30375Y19329
X30775Y19657
X31265Y19638
X31706Y19756
X32512Y19116
X32773Y18798
X32778Y18417
X32257Y18663
X32956Y19343
X31696Y17719
X31735Y16804
X32311Y16926
X32136Y14970
X32707
X32421Y14685
X31850
X31516Y15098
X31604Y13839
X31870Y13573
X32136Y13839
X32402Y13573
X34606Y14449
X34769Y14804
X34606Y15157
X35030Y15069
X35529Y15809
X35249Y16665
X34796Y16656
X33536Y15681
X35448Y13804
X35482Y13425
X37313Y10965
X37313Y10374
X36939Y9864
X36865Y9615
X36240Y9459
X36161Y9006
X36089Y8634
X36429Y8464
X37417Y8473
X37338Y8834
X37328Y9123
X35125Y8996
X35128Y8632
Y8267
X35125Y9364
X35251Y6988
X35581
X35984
X36314
X36791Y6388
X37489Y6390
X29589Y17108
X28428Y17650
X28310Y18486
X28336Y19532
X28211Y19933
X28785Y19651
X29275
X30389Y20754
X26058Y20374
X25616Y19415
X25516Y18316
X25893Y18262
X25743Y17598
X26047Y17396
X26479Y16350
X24995Y16969
X24869Y18544
X24501Y18701
X24502Y19001
X23856Y19143
X23879Y18674
X23268Y18773
X23273Y18412
X24089Y17875
X23184Y16969
X23169Y20659
X23219Y21019
X23589Y20999
X23968Y20917
X23969Y20549
X24579Y20534
X24479Y21034
X24482Y21400
X24851Y21401
X21101Y21952
X20276Y21132
X19810Y20548
X18969Y20549
Y20919
X18298Y20989
X17929Y20989
X18556Y21489
X19577Y21585
X18719Y19294
X18141Y19305
X17919Y19119
X16509Y19500
X17040Y20209
X15619Y20455
X15562Y19169
X15256Y19169
X14826Y19750
X14349Y18969
X14009Y18719
X14589Y18499
X13875Y17105
X14126Y15327
X13213Y15344
X12598Y15335
X11585Y15315
X11447Y14262
X11417Y13839
X10866Y13839
X11142Y13563
X10591
X10315Y13839
X10039Y13563
X10029Y12793
Y12443
X9729Y12303
X9249
X8949Y12453
Y12803
X9249Y12943
X9729
X9197Y13529
X8883Y13819
X8577Y13529
X8263Y13819
X7972Y13524
X8258Y14675
X8543Y14961
X8829Y14675
X10118Y14685
X9639Y16229
X9149Y16224
X8599Y16354
X8229Y16319
X7721Y16486
X7729Y18749
X6679Y18584
X6639Y17974
X6477Y20054
X7629Y20119
X6768Y21606
X6559Y13764
X6585Y13425
X6782Y12131
X7992Y12047
X8258Y11727
X8544
X8413Y10931
X8711Y10965
Y10374
X8415
X7982Y9862
X7969Y9584
X7343Y9459
X7091Y9163
X7000Y8764
X7411Y8524
X8504Y8469
X8804Y8489
X9104
X9409
X9715Y8878
Y9183
X8436Y9091
X8288Y8825
X8500Y6389
X9559
X7402Y6988
X7082Y6998
X11329Y8091
X11629
X11929
X12234
X12372Y8868
Y9173
X12795Y9547
Y9843
X12405Y10370
X12109
X11289Y10630
X10994
X11290Y11629
X11293Y11998
X11299Y12402
X11683Y12426
X11663Y12047
Y11742
X12028Y11768
X12316
X13465Y12116
X14006Y12131
X15217Y12047
X15541Y11742
X15837
X15935Y10965
X15640
X15640Y10374
X15935
X15207Y9872
X15207Y9602
X14601Y9422
X14244Y9175
X14319Y8814
X14639Y8534
X15856Y8489
X16156
X16457
X16762
X16939Y8878
Y9183
X15660Y9100
X15669Y8839
X15591Y6383
X14589Y6469
X14390Y7008
X14060
X13258Y8287
Y8651
Y9016
Y9380
X11093Y9173
Y8868
X10413Y9902
X9636Y11378
X9341
X12481Y13234
X12795Y12933
X13079Y12934
X13809Y13425
X13800Y13809
X15379Y13819
X15693Y13529
X15999Y13819
X16313Y13529
X17156Y13563
X17707
X17431Y13839
X17982
X17972Y14685
X17402
X17687Y14970
X18258
X16985Y15144
X16313Y14679
X16003Y14969
X15693Y14679
X15379Y14969
X16730Y12803
Y12453
X17030Y12303
X17510
X17810Y12443
Y12793
X17510Y12943
X17030
X16930Y11393
X16644Y11398
X18514Y11629
X18524Y11998
X18534Y12398
X18938Y12416
X18894Y12043
Y11738
X19258Y11756
X19546
X19629Y10370
X19334
X18514Y10630
X18218
X17667Y9882
X18317Y9173
Y8868
X18564Y8087
X18853Y8091
X19154
X19459
X19596Y8868
Y9173
X20020Y9547
Y9843
X20493Y9405
X20503Y9002
X20493Y8628
X20504Y8230
X21457Y8756
X21530Y9154
X21791Y9459
X21860Y8533
X21693Y7402
X21363
X21536Y6384
X20539Y6449
X20659Y12174
X21209Y12124
X21033Y13425
Y13839
X20276Y12910
X19996Y12910
X19568Y13254
X21693Y15295
X21402Y18858
X21461Y19232
X20839Y18459
X16067Y21763
X15783Y21760
X14729Y21239
X12185Y14400
X6339Y15329
X5619Y16665
X5789Y17439
Y18034
X5809Y19244
X5289Y19614
X5569Y20559
X5777Y21085
X5579Y21494
X5019Y21619
X4419Y21823
X3519Y21879
X3819Y19754
X4069Y17604
X4909Y17049
X4769Y16159
X3976Y16169
X3519Y16119
X3844Y15401
X2938Y14496
X4749
X3844Y13590
X3612Y12963
X4075Y12402
X4449Y12362
X4429Y11983
X4439Y11703
X4813Y11801
X5089Y11797
X4066Y11974
X4076Y11571
X3652Y11073
X3770Y10630
X4065
X4885Y10370
X5180
X5571Y9838
X5581Y9547
X6018Y9392
X6034Y9032
Y8667
Y8303
X5010Y8091
X4705
X4404
X4104
X3868Y8868
Y9173
X5148
Y8868
X4843Y12771
X5601Y12919
X5779Y13184
X6230Y12190
X6028Y23207
X3575Y23222
X3586Y24065
X3572Y24982
X3564Y25922
Y26825
X3573Y27703
X3566Y28560
X3019Y29159
X3617Y29882
X4339Y30322
X4343Y30931
X4316Y31545
X5316Y31807
X5391Y31238
X5335Y29838
X4798Y30049
X5055Y29340
X5887Y29346
X6044Y30003
X4429Y29039
X3447Y32058
X2989Y33929
X3059Y35429
Y35859
X3580Y36248
X5729Y36142
X5412Y37322
X5814Y37554
X6229Y34495
X4841Y34374
X5324Y33589
X6229Y32684
X3947Y21990
X3051Y22323
X6825Y23188
X7482Y23628
X8632Y25612
X8567Y26270
X8626Y26781
X8140Y27472
X9369Y27279
X9339Y27699
X10362Y27303
X10376Y26510
X9234Y26105
X11931Y25757
X12329Y25719
X13298Y26319
X13792Y26380
X14169Y26354
X13669Y26889
X13695Y27378
X14874Y27400
X15829Y27469
Y27089
X15939Y26699
X16489Y26464
X16260Y25616
X15972Y25619
X15899Y25239
X16179Y25254
X16419Y24409
X16659Y24264
X17919Y24299
X17849Y24779
X18169Y24768
X18187Y23716
X17873Y23715
X17821Y22681
X18179Y22664
X20149Y22184
X21768Y22624
X21751Y23837
X20739Y26874
X20740Y27235
X20769Y27594
X19714Y27234
X19729Y26809
X18728Y26877
X18729Y27254
X18819Y26389
X18149Y26099
X17849Y26104
X17909Y25741
X18277Y25741
X17839Y27062
X17652Y28474
X17067Y28992
X17062Y29695
X17432Y29695
X16379Y29709
Y29999
X16139Y30169
X15527Y30168
X15297Y29988
Y29698
X15537Y29528
X16149Y29529
X14848Y29002
X14807Y30472
X14443Y30482
X14398Y30122
X14443Y31388
X14812Y31418
X15083Y32038
X14444Y32549
X15184Y33190
X15921Y32561
X16393Y32248
X15914Y31663
X15396Y30995
X17101Y30758
X17524Y31112
X18356Y30794
X18319Y30179
X19130Y30075
X19099Y29724
X19069Y29321
X19778Y28720
X21001Y29139
X21510Y29498
X21109Y30254
X21126Y31722
X20632Y31722
X20129Y31719
X19842Y32234
X19840Y32582
X19838Y32942
X19402Y32553
X19567Y31311
X19549Y30679
X18996Y30819
X18869Y31224
X17592Y32574
X16544Y33706
X16610Y35069
X16315
X16020
X15724
X15429
X15729Y35509
X16259Y35499
X17003Y35069
X17972Y34990
X18581Y35449
X18961Y35439
X18980Y34738
X19138Y34380
X18983Y34022
X18616Y34026
X18951Y36739
X19926Y36966
X20481Y36879
X21857Y37343
X21378Y32648
X21627Y31719
X13627Y31939
X11949Y32529
X12067Y33268
X10784Y33200
X9694Y33146
X9312Y33154
X8791Y33329
X8626Y32973
X8587Y32589
X7699Y32504
X7704Y32888
X7719Y33283
X7135Y33589
X7615Y34258
X7759Y35059
X7359
X7260Y35513
X7759Y35509
X8249
X8159Y35059
X8559
X9004Y35036
X8830Y34119
X10149Y34220
X10055Y34587
X10272Y35187
X10940Y34705
X11404Y35070
X11699Y35069
X11994
X12289
X12585
X12987Y35059
X12229Y35519
X11739Y35509
X10557Y36437
X10899Y36999
X14909
X14593Y36447
X14287Y35197
X14939Y34699
X10205Y31974
X10209Y31557
X9049Y31189
X9019Y30809
X8669Y30199
X7774Y30677
X7352Y30600
X7205Y30118
X6654Y29572
X6699Y28937
X6679Y28567
X6729Y28197
X7459Y28567
X6556Y31031
X8444Y31357
X7697Y32106
X10589Y22049
X11079Y22154
X15315Y22119
X15619Y22119
X15709Y22474
X15405Y22474
X15299Y23319
X15603Y23319
X15629Y23699
X15319
X15223Y24222
X22552Y24574
X23175Y24113
X24114Y24117
X24111Y23523
X23742Y23522
X24478Y23532
X24851Y23532
X24843Y22723
X24481Y22729
X24110Y22713
X23743Y22660
X24481Y22049
X24851Y22047
X26370Y22116
X26171Y22316
X26324Y23327
X26469Y23934
X26669Y24459
X26700Y25019
X26973Y25266
X26513Y25452
X26153Y25468
X26117Y26155
X26501Y26220
X26747Y25925
X24589Y26089
X24589Y26777
X24159Y26372
X24201Y25226
X23418Y25503
X23739Y24524
X22431Y23272
X22669Y26414
X22667Y26782
X22668Y27174
X23201Y27106
X23201Y27456
X23699Y27319
X21983Y27146
X21983Y26778
X21983Y26417
X22124Y28904
X22719Y29149
Y29459
X23089Y29549
X23085Y29837
X23679Y29904
X24129Y29834
X23949Y30204
X24329Y30184
X24669Y29974
X23467Y29550
X23489Y31525
X23867Y31527
X23676Y32549
X22790Y32490
X22792Y32857
X22416Y32904
X22800Y33386
X23729Y34249
Y34539
Y34829
X24289Y34699
X24337Y34249
X24641
X24945
X25249
X24809Y34699
X24033Y34249
X23539Y35539
X23529Y36059
X23539Y36539
X23009Y36199
X22514Y36206
X23119Y37539
X24039
X25039
X26039
X27039
X27999Y37549
X28329Y37173
Y36682
X27977Y36545
X27042Y36555
X27039Y35539
X26529Y35359
X26028Y35542
X25814Y34928
X27003Y34360
X28105Y34695
X28478Y34990
X28919Y35159
X29163Y34703
X29311Y35512
X29154Y36467
X29291Y37175
X28609Y35959
X27899Y35369
X27711Y33012
X28085Y32982
X28469Y32969
X28719Y32354
X28709Y32039
X28719Y31754
X28989Y31889
Y32199
X28769Y31379
X28548Y30925
X27593Y30345
X27077Y30561
X26644
Y30128
X27077
X27072Y29193
X27539Y29220
X27554Y29587
X26658Y29370
X26314Y29547
X26099Y30365
X25629Y30999
X25054Y31634
X26451Y31742
X26737Y31516
X27255Y31510
X27554Y31929
X27489Y32199
X27759Y32349
X27779Y32049
X27189Y32849
X26191Y32392
X25507Y32845
X29375Y32956
X29562Y33396
X29572Y33701
X29916Y33720
Y33396
X30074Y32746
Y32402
X30071Y32020
X31129Y32249
X31559Y31939
X31589Y32559
X32032Y33602
X32357Y33612
X32682Y33602
X32928Y32953
X33100Y32382
X32972Y31285
Y30960
Y30625
X33169Y30310
X33691Y30153
X34331Y30163
X35030
X35531Y30340
X35748Y30625
Y30950
Y31285
X36489Y31769
X36889Y31979
X37369Y31989
X37132Y32420
X36230Y33727
X35546Y35157
X35531Y35640
X35748Y35925
Y36250
Y36585
Y36909
X36344
Y36585
Y36260
Y35926
X36529Y35610
X37051Y35453
X35030Y35463
X34331
X33691Y35453
X33169Y35610
X33184Y35128
X32574Y34833
X32269Y34823
X31954Y34803
X31545Y36132
Y36447
Y37569
X31870
X32552Y36813
X32972Y36909
Y36585
Y36260
Y35925
X33974Y33729
X34434Y32424
X34369Y31839
X31669Y31009
X31693Y30268
X31069Y30369
Y29949
X29951Y29923
X29949Y30359
Y30759
X31139Y31399
X30280Y35039
X26039Y36539
X22789Y31179
X22130Y31727
X25189Y28334
X25509Y28134
X30524Y27148
X29658Y24470
X29961Y23957
X29995Y23573
X29747Y23280
X30347
X30327Y22591
X31400Y23122
X32089Y23348
X32040Y23920
X31274Y24205
X33557Y24229
X33758Y23288
X34018Y23496
X34796Y23175
X35633Y23073
X36755Y22965
X36774Y22531
X37355Y22758
X37444Y24274
X36272Y24096
X34893Y24136
X35150Y24835
X35614Y26809
X35396Y28122
X28757Y24149
X28941Y23305
X28969Y22857
X28241Y22305
X37847Y22984
X37759Y23654
X38497Y24037
X39304Y24205
X39816Y23444
X39795Y22881
X40364Y22825
Y23159
Y22490
X39747Y22138
X40875Y23750
X41209
X42215
X42549
X43061Y23164
Y22830
Y22495
X42316Y24677
X41201Y26004
X41329Y26358
X41191Y26713
X40915Y26988
X40581
X40246
X39904Y27000
X39557Y26988
X39576Y27740
X39911
X40245
X40590
X40934
X41201Y28004
X41329Y28358
X41191Y28713
X40915Y28988
X40581
X40246
X39902
X39557
X39576Y29740
X39911
X40245
X40590
X40934
X41201Y30004
X41329Y30358
X41191Y30713
X40915Y30988
X40581
X40246
X39902
X39557
X39576Y31740
X39911
X40245
X40590
X40934
X41201Y32004
X41329Y32358
X41191Y32713
X40915Y32988
X40581
X40246
X39902
X39557
X39576Y33740
X39911
X40245
X40590
X40934
X41201Y34004
X41329Y34358
X41802Y34353
X41191Y34713
X40915Y34988
X40581
X40246
X39902
X39557
X39576Y35740
X39911
X40245
X40590
X40934
X41201Y36004
X41329Y36358
X41191Y36713
X40915Y36988
X40581
X40246
X39902
X39557
X39108Y36909
Y36585
Y36250
Y35925
X38891Y35640
X38390Y35463
X37691
X38406Y33084
X38539Y31989
X38069
X37729Y31719
X38889Y31809
X37709Y30359
X38366Y29636
X38319Y26832
X39576Y25740
X39911
X40245
X40590
X40934
X42776Y29587
X41580Y38366
X41705Y39546
X42150Y39124
X40920Y39173
X40615
X40310
X39872Y39941
X39488
X39114
X38563
X38179
X37805
X37761Y41161
X37643Y41959
X38387Y42364
X38977
X39377
X39381Y41319
X38981
X38771Y40849
X38381Y40729
X38553Y37913
X38179
X37795
X39104
X39488
X39862
X41339Y40839
X42039Y40539
X42739Y40839
X43039Y41539
X42739Y42239
X42039Y42539
X41339Y42239
X41039Y41539
X41339Y43839
X42039Y43539
X42739Y43839
X43039Y44539
X42739Y45239
X42039Y45539
X41339Y45239
X41039Y44539
X41099Y46659
X41009Y47339
X40809Y47589
X41019Y47839
X41009Y48339
X40809Y48589
X41019Y48839
X41009Y49339
X40809Y49589
X41019Y49839
X41009Y50339
X40809Y50589
X41019Y50839
X42429
X42629Y50589
X42419Y50339
X42429Y49839
X42629Y49589
X42419Y49339
X42429Y48839
X42629Y48589
X42419Y48339
X42429Y47839
X42629Y47589
X42419Y47339
X42487Y46843
X39489Y46929
Y46599
X38489Y46580
Y46910
X38307Y48989
X38002
X37701
X38612Y49378
Y49683
X39518Y50254
X37608Y50874
Y51465
X38278Y51888
X38573
X38717Y52813
X38417Y52963
X39197Y52813
X39497Y52953
X40387Y52970
Y52656
Y52339
X40709
X41027
X42270
X42598
X42920Y52349
X42756Y52596
X42441Y52599
X37490Y52232
X37195
X36890Y52547
X35669Y52644
X35128Y52636
X33959Y52234
X33719Y52344
X33343Y52238
Y52543
X32969Y52554
X32992Y52924
X33389Y52914
X32969Y52134
X32313Y51130
Y50835
X32116Y50136
X32766Y49673
Y49368
X33002Y48591
X33302
X33602
X33907
X34045Y49368
Y49673
X34437Y50047
Y50343
X34078Y50870
X33783
X35125Y49864
Y49496
X35128Y49132
Y48767
X36089Y49134
X36161Y49506
X36240Y49959
X36865Y50115
X36939Y50364
X37313Y50874
X37313Y51465
X37328Y49623
X37338Y49334
X37417Y48973
X36429Y48964
X36314Y47488
X35984
X35581
X35251
X34951Y46456
X35489Y45579
Y45249
X34311Y45293
Y44963
X34882Y43846
X37520Y43837
X37522Y45230
X37489Y46560
Y46890
X36791Y46888
X36479Y46524
X32894Y46110
Y45815
X32507Y46562
X32037Y46711
Y47006
X31853Y47587
Y47882
X31539Y46570
X31309Y46799
X30539Y46009
X30566Y45656
X31550Y45175
X31565Y43846
X28642Y43896
X28579Y45919
X28909
X27806Y45904
X26688Y45870
X25583Y45905
X24502Y45900
X24513Y46691
X24779Y46694
X23519Y45909
X23189
X23268Y44811
X22378Y42206
X22019Y41459
X21999Y41049
X22009Y40659
X22959Y39219
X22919Y38559
X24039Y38539
X25019Y38559
X25067Y39497
X27603Y39144
X27692Y38750
X27987
X28389Y38841
X28593Y37874
X27379Y38489
X27633Y40138
Y41161
X28095Y42185
X29916Y42165
X33036Y42146
X36235Y42205
X31870Y37884
X31545
X29451Y45205
X30020Y47508
X29803Y47724
X28681Y47508
X28351
X27717Y48764
X27688Y49176
X27708Y49540
Y49915
X27193Y49997
Y50293
X26853Y50870
X26558
X25738Y51130
X25443
X24921Y50539
X25541Y49673
Y49368
X25778Y48591
X26077
X26378
X26683
X26821Y49368
Y49673
X28759Y49694
X28739Y49324
X29085Y49033
X29050Y49922
X29649Y50104
X29656Y50382
X30089Y50874
X30384
Y51465
X30089
X29990Y52232
X30285
X30400Y52823
X30100Y52963
X29665Y52547
X28469Y52654
X27899Y52674
X26760Y52256
X26479Y52264
X26113Y52288
X26149Y52564
X26169Y52924
X25749Y52864
X25748Y52498
X25739Y52134
X25029Y52943
X24729Y52803
X24249
X23949Y52953
X24075Y51878
X23780
X23159Y51445
X22864
X22864Y50874
X23159
X22431Y50382
X22402Y50111
X22884Y49644
X22886Y49350
X22955Y48986
X23253Y48989
X23553
X23858
X24163Y49378
Y49683
X22988Y52226
X22693
X22441Y52547
X30880Y52813
X31180Y52953
X31073Y51898
X31359Y51894
X31388Y49683
Y49378
X31083Y48989
X30778
X30477
X30179Y48964
X30109Y49344
Y49614
X26189Y42166
X24340Y42206
X20355Y42227
X20679Y41439
Y41049
Y40669
X18009Y40659
X17999Y41049
X18019Y41459
X18319Y42255
X17933Y43866
X18209Y45259
Y45589
X18218Y46228
X17939Y46224
X17495Y46435
X17165
X17205Y45913
X17535
X19561Y45862
X19390Y45616
X20539Y46619
Y46949
X21536Y46884
X21539Y46559
X21693Y47902
X21363
X21457Y49256
X21530Y49654
X21791Y49959
X21860Y49033
X20493Y49128
X20503Y49502
X20493Y49905
X20020Y50047
Y50343
X19629Y50870
X19334
X18514Y51130
X18218
X18514Y52129
X18524Y52498
X18534Y52898
X18938Y52916
X18894Y52543
Y52238
X19258Y52256
X19546
X20659Y52674
X21209Y52624
X17810Y52943
X17510Y52803
X17030
X16730Y52953
X16644Y51898
X16930Y51893
X15935Y51465
X15640
X15640Y50874
X15935
X15207Y50372
X15207Y50102
X14601Y49922
X14244Y49675
X14319Y49314
X14639Y49034
X15856Y48989
X16156
X16457
X16762
X16939Y49378
Y49683
X15660Y49600
X15669Y49339
X15591Y46883
Y46553
X14589Y46639
Y46969
X14390Y47508
X14060
X13579Y45939
Y45619
X12259Y45579
Y45249
X11663Y45278
Y45608
X10889Y45609
Y45929
Y46249
X9559Y46569
Y46889
X8500
Y46569
X8596Y45300
X7629Y45249
X7609Y45554
X7599Y45899
X7402Y47488
X7082Y47498
X7000Y49264
X7091Y49663
X7343Y49959
X7969Y50084
X7982Y50362
X8415Y50874
X8711
Y51465
X8413Y51431
X8544Y52227
X8258
X7992Y52547
X6782Y52631
X8949Y52953
X9249Y52803
X9729
X10029Y52943
X11299Y52902
X11683Y52926
X11663Y52547
Y52242
X12028Y52268
X12316
X11290Y52129
X11293Y52498
X11289Y51130
X10994
X10413Y50402
X11093Y49673
Y49368
X11329Y48591
X11629
X11929
X12234
X12372Y49368
Y49673
X12795Y50047
Y50343
X12405Y50870
X12109
X13258Y49880
Y49516
Y49151
Y48787
X13465Y52616
X14006Y52631
X15217Y52547
X15541Y52242
X15837
X17667Y50382
X18317Y49673
Y49368
X18564Y48587
X18853Y48591
X19154
X19459
X19596Y49368
Y49673
X20504Y48730
X16339Y42231
X16679Y41439
Y41049
Y40669
X16719Y39529
X18019Y39509
X18444Y38129
X20059Y37909
X14909
X14434Y38129
X14919Y38779
X15009Y39409
X14019Y39509
X14009Y40659
X13999Y41049
X14019Y41459
X14328Y42199
X14596Y43876
X11831Y43866
X12311Y42211
X12679Y41439
Y41049
Y40669
X12719Y39529
X11059Y39429
X10929Y38759
X10899Y37909
X10449Y38129
X10082Y39649
X10009Y40659
X9999Y41049
X10019Y41459
X10270Y42176
X8340Y42223
X8679Y41439
Y41049
Y40669
X8695Y39640
X7099Y39489
X7309Y38149
X6699Y38279
X6585Y43827
X8593
X8504Y48969
X8804Y48989
X9104
X9409
X9715Y49378
Y49683
X8436Y49591
X8288Y49325
X7411Y49024
X9341Y51878
X9636
X6230Y52690
X5089Y52297
X4813Y52301
X4439Y52203
X4429Y52483
X4066Y52474
X4076Y52071
X4075Y52902
X4449Y52862
X3652Y51573
X3770Y51130
X4065
X4885Y50870
X5180
X5571Y50338
X5581Y50047
X6018Y49892
X6034Y49531
Y49167
Y48803
X5010Y48591
X4705
X4404
X4104
X3868Y49368
Y49673
X5148
Y49368
X5259Y45889
X4959Y45934
X5509Y45639
X5979Y45589
X6329
X5965Y45929
X5899Y44519
X5039Y44539
X4739Y45239
X4039Y45539
X3339Y45239
X3396Y46028
X3612Y46494
X3039Y44539
X3339Y43839
X4039Y43539
Y42539
X3339Y42239
X3039Y41539
X3339Y40839
X4039Y40539
X4739Y40839
X5039Y41539
X4739Y42239
X5866Y42120
X6284Y39764
X4539Y39409
X3603Y39108
X4739Y43839
X4843Y53271
X5601Y53419
X5779Y53684
X4749Y54996
X4769Y56659
X3976Y56669
X3519Y56619
X3844Y55901
X2938Y54996
X3844Y54090
X3612Y53463
X6339Y55829
X5619Y57165
X5789Y57939
Y58534
X5809Y59744
X5289Y60114
X5569Y61059
X5777Y61585
X5579Y61994
X5019Y62119
X4419Y62323
X3947Y62490
X3519Y62379
X3051Y62823
X3575Y63722
X3586Y64565
X3572Y65482
X3564Y66422
Y67325
X3573Y68203
X6028Y63707
X3819Y60254
X4069Y58104
X4909Y57549
X6639Y58474
X6679Y59084
X7729Y59249
X7629Y60619
X6477Y60554
X6768Y62106
X6825Y63688
X7482Y64128
X8632Y66112
X8567Y66770
X8626Y67281
X8140Y67972
X9369Y67779
X9339Y68199
X10362Y67803
X10376Y67010
X9234Y66605
X11931Y66257
X12329Y66219
X13298Y66819
X13792Y66880
X14169Y66854
X13669Y67389
X13695Y67878
X14874Y67900
X15829Y67969
Y67589
X15939Y67199
X16489Y66964
X16260Y66116
X15972Y66119
X15899Y65739
X16179Y65754
X16419Y64909
X16659Y64764
X17919Y64799
X17849Y65279
X18169Y65268
X18187Y64216
X17873Y64215
X17821Y63181
X18179Y63164
X18556Y61989
X18298Y61489
X17929Y61489
X18969Y61419
Y61049
X19810Y61048
X20276Y61632
X19577Y62085
X20149Y62684
X21101Y62452
X21768Y63124
X21751Y64337
X20739Y67374
X20740Y67735
X20769Y68094
X19714Y67734
X19729Y67309
X18728Y67377
X18729Y67754
X18819Y66889
X18149Y66599
X17849Y66604
X17909Y66241
X18277Y66241
X17839Y67562
X15223Y64722
X15319Y64199
X15629
X15603Y63819
X15299Y63819
X15405Y62974
X15709Y62974
X15619Y62619
X15315Y62619
X15783Y62260
X16067Y62263
X15619Y60955
X15562Y59669
X15256Y59669
X14826Y60250
X14349Y59469
X14009Y59219
X14589Y58999
X13875Y57605
X14126Y55827
X13213Y55844
X12598Y55835
X11585Y55815
X11447Y54762
X11417Y54339
X10866Y54339
X11142Y54063
X10591
X10315Y54339
X10039Y54063
X10029Y53293
X9729Y53443
X9249
X8949Y53303
X9197Y54029
X8883Y54319
X8577Y54029
X8263Y54319
X7972Y54024
X8258Y55175
X8543Y55461
X8829Y55175
X10118Y55185
X9639Y56729
X9149Y56724
X8599Y56854
X8229Y56819
X7721Y56986
X6559Y54264
X6585Y53925
X12481Y53734
X12795Y53433
X13079Y53434
X13809Y53925
X13800Y54309
X15379Y54319
X15693Y54029
X15999Y54319
X16313Y54029
X17156Y54063
X17707
X17431Y54339
X17982
X17972Y55185
X17402
X17687Y55470
X18258
X16985Y55644
X16313Y55179
X16003Y55469
X15693Y55179
X15379Y55469
X16730Y53303
X17030Y53443
X17510
X17810Y53293
X19568Y53754
X19996Y53410
X20276Y53410
X21033Y53925
Y54339
X21693Y55795
X21402Y59358
X21461Y59732
X20839Y58959
X18719Y59794
X18141Y59805
X17919Y59619
X16509Y60000
X17040Y60709
X14729Y61739
X11079Y62654
X10589Y62549
X12185Y54900
X6729Y68697
X21983Y67646
X21983Y67278
X21983Y66917
X22669Y66914
X22667Y67282
X22668Y67674
X23201Y67606
X23201Y67956
X23699Y67819
X24159Y66872
X24589Y66589
X24589Y67277
X24201Y65726
X23418Y66003
X23739Y65024
X24114Y64617
X24111Y64023
X23742Y64022
X24478Y64032
X24851Y64032
X24843Y63223
X24481Y63229
X24110Y63213
X23743Y63160
X24481Y62549
X24851Y62547
X24851Y61901
X24482Y61900
X24479Y61534
X24579Y61034
X23969Y61049
X23968Y61417
X23589Y61499
X23219Y61519
X23169Y61159
X23268Y59273
X23273Y58912
X23879Y59174
X23856Y59643
X24502Y59501
X24501Y59201
X24869Y59044
X25516Y58816
X25893Y58762
X25743Y58098
X26047Y57896
X26479Y56850
X24995Y57469
X24089Y56564
X24203Y55667
X24616Y55185
X24902Y55470
X25472
X25187Y55185
X25197Y54339
X24921Y54063
X24646Y54339
X24370Y54063
X24249Y53443
X23949Y53303
X24729Y53443
X25029Y53293
X26437Y53650
X27220Y53420
X27499Y53424
X28258Y53925
Y54339
X29828Y54319
X30142Y54029
X30448Y54319
X30762Y54029
X30880Y53453
X31180Y53303
X30400Y53453
X30100Y53313
X30142Y55179
X30452Y55469
X30762Y55179
X31850Y55185
X32136Y55470
X32707
X32421Y55185
X32402Y54073
X32136Y54339
X31870Y54073
X31604Y54339
X31516Y55598
X29828Y55469
X29806Y57165
X30271Y57246
X30535Y56989
X30632Y57825
X30190Y58238
X30085Y58879
X30085Y59262
X30375Y59829
X30775Y60157
X31265Y60138
X31706Y60256
X32512Y59616
X32773Y59298
X32778Y58917
X32257Y59163
X32956Y59843
X31696Y58219
X31735Y57304
X32311Y57426
X33536Y56181
X34606Y55657
X35030Y55569
X34769Y55304
X34606Y54949
X34729Y53624
X34448Y53625
X33986Y53846
X35482Y53925
X35448Y54304
X37053Y54319
X37366Y54029
Y55179
X37053Y55469
X35529Y56309
X35249Y57165
X34796Y57156
X29589Y57608
X28428Y58150
X28310Y58986
X28336Y60032
X28211Y60433
X28785Y60151
X29275
X30389Y61254
X30327Y63091
X30347Y63780
X29747
X29995Y64073
X29961Y64457
X29658Y64970
X28757Y64649
X28941Y63805
X28969Y63357
X28241Y62805
X26370Y62616
X26171Y62816
X26324Y63827
X26469Y64434
X26669Y64959
X26700Y65519
X26973Y65766
X26513Y65952
X26153Y65968
X26117Y66655
X26501Y66720
X26747Y66425
X25509Y68634
X25189Y68834
X23175Y64613
X22552Y65074
X22431Y63772
X26058Y60874
X25616Y59915
X24089Y58375
X23184Y57469
X23079Y56469
X22439Y56384
X22594Y55469
X22908Y55179
X23218Y55469
X23528Y55179
Y54029
X23214Y54319
X22908Y54029
X22594Y54319
X27008Y55106
X31400Y63622
X32089Y63848
X32040Y64420
X31274Y64705
X33557Y64729
X33758Y63788
X34018Y63996
X34796Y63675
X35633Y63573
X36755Y63465
X36774Y63032
X37355Y63258
X37444Y64774
X36272Y64596
X34893Y64636
X35150Y65335
X35614Y67309
X35396Y68622
X30524Y67648
X38319Y67332
X39557Y67488
X39904Y67500
X40246Y67488
X40581
X40915
X41191Y67213
X41329Y66858
X41201Y66504
X40934Y66240
X40590
X40245
X39911
X39576
X39304Y64705
X38497Y64537
X37759Y64154
X37847Y63484
X39795Y63381
X39816Y63944
X40364Y63659
Y63325
Y62990
X39747Y62638
X40876Y62404
X41211
X42216
X42539Y62409
X43061Y62995
Y63330
Y63664
X42549Y64250
X42215
X41209
X40875
X42316Y65177
X42040Y61654
X42999Y61559
X42513Y61066
X42279Y60267
X42549Y59105
X42198Y58907
X41879Y59105
X41539Y58835
X41206Y59099
X40869Y58835
X40539Y59105
X40379Y58579
X40349Y58059
X40329Y57629
X40539Y57219
X40869Y56949
X41213Y57136
X41539Y56949
X41567Y56495
X41287Y56315
Y55985
Y55655
X41257Y55335
X40829Y55484
X40817Y55165
X40453Y55535
Y55854
X39646Y55185
X39075
X39360Y55470
X38573Y55539
X38716Y56091
X39035
X39104Y54339
X39380Y54063
X38829
X38717Y53453
X38417Y53313
X39197Y53453
X39497Y53303
X40394Y53276
X40387Y53581
Y53899
X40699
X39931Y54063
X39656Y54339
X37986Y54029
X37673Y54319
X37676Y55469
X37986Y55179
X42497Y55345
Y55665
Y55985
Y56305
X42237Y56495
X42199Y56949
X42572Y57136
X41879Y57229
X42587Y55015
Y54685
X42477Y54375
X42157
X42270Y53899
X42598
X42920
X42756Y53659
X42431
X40705Y60236
X40743Y61704
X40590Y68240
X40934
X41201Y68504
X40245Y68240
X39911
X39576
X39557Y69488
X39902
X40246
X40581
X40915
X41191Y69213
X41329Y68858
X41201Y70504
X41329Y70858
X41191Y71213
X40915Y71488
X40581
X40246
X39902
X39557
X39576Y72240
X39911
X40245
X40590
X40934
X41201Y72504
X41329Y72858
X41191Y73213
X40915Y73488
X40581
X40246
X39902
X39557
X39576Y74240
X39911
X40245
X40590
X40934
X41201Y74504
X41329Y74858
X41802Y74853
X41191Y75213
X40915Y75488
X40581
X40246
X39902
X39557
X39576Y76240
X39911
X40245
X40590
X40934
X41201Y76504
X41329Y76858
X41191Y77213
X40915Y77488
X40581
X40246
X39902
X39557
X39108Y77409
Y77085
Y76750
Y76425
X38891Y76140
X38390Y75963
X37691
X37795Y78413
X38179
X38553
X39104
X39488
X39862
X40310Y79673
X40615
X40920
X41705Y80046
X42150Y79624
X41580Y78866
X42039Y81039
X42739Y81339
X43039Y82039
X42739Y82739
X42039Y83039
X41339Y82739
X41039Y82039
X41339Y81339
X39872Y80441
X39488
X39114
X38563
X38179
X37805
X37761Y81661
X37643Y82459
X38387Y82864
X38977
X39377
X39381Y81819
X38981
X38771Y81349
X38381Y81229
X38406Y73584
X38539Y72489
X38069
X37729Y72219
X38889Y72309
X37709Y70859
X38366Y70136
X39576Y70240
X39911
X40245
X40590
X40934
X42776Y70087
X37369Y72489
X36889Y72479
X36489Y72269
X35748Y71785
Y71450
Y71125
X35531Y70840
X35030Y70663
X34331
X33691Y70653
X33169Y70810
X32972Y71125
Y71460
Y71785
X33100Y72882
X32928Y73453
X32682Y74102
X32357Y74112
X32032Y74102
X31954Y75303
X32269Y75323
X32574Y75333
X33184Y75628
X33169Y76110
X32972Y76425
Y76760
Y77085
Y77409
X32552Y77313
X31545Y76947
Y76632
Y78069
Y78384
X31870
Y78069
X29291Y77675
X29154Y76967
X28329Y77182
X27977Y77045
X27042Y77055
X27039Y78039
X27999Y78049
X28329Y77673
X28593Y78374
X28389Y79341
X27987Y79250
X27692
X27603Y79644
X27379Y78989
X27633Y80638
Y81661
X28095Y82685
X29916Y82665
X33036Y82646
X36235Y82705
X36344Y77409
Y77085
Y76760
Y76426
X36529Y76110
X37051Y75953
X35531Y76140
X35546Y75657
X35030Y75963
X34331
X33691Y75953
X33974Y74229
X34434Y72924
X34369Y72339
X31559Y72439
X31589Y73059
X31129Y72749
X31139Y71899
X31669Y71509
X31693Y70768
X31069Y70869
Y70449
X29951Y70423
X29949Y70859
Y71259
X30071Y72520
X30074Y72902
Y73246
X29916Y73896
Y74220
X29572Y74201
X29562Y73896
X29375Y73456
X28469Y73469
X28085Y73482
X27711Y73512
X27189Y73349
X27489Y72699
X27554Y72429
X27779Y72549
X27759Y72849
X28719Y72854
X28709Y72539
X28719Y72254
X28989Y72389
Y72699
X28769Y71879
X28548Y71425
X27593Y70844
X27077Y71061
X26644
Y70628
X27077
X27072Y69693
X27539Y69720
X27554Y70087
X26658Y69870
X26314Y70047
X26099Y70865
X25629Y71499
X25054Y72134
X23867Y72027
X23489Y72025
X22789Y71679
X22130Y72227
X22790Y72990
X22792Y73357
X22416Y73404
X22800Y73886
X23676Y73049
X23729Y74749
Y75039
Y75329
X24289Y75199
X24337Y74749
X24641
X24945
X25249
X24809Y75199
X24033Y74749
X23539Y76039
X23529Y76559
X23539Y77039
X23009Y76699
X22514Y76706
X23119Y78039
X24039
X25039
X26039
Y77039
X26028Y76042
X26529Y75859
X27039Y76039
X27899Y75869
X28105Y75195
X28478Y75490
X28919Y75659
X29163Y75203
X29311Y76012
X28609Y76459
X30280Y75539
X27003Y74860
X25814Y75428
X25507Y73345
X26191Y72892
X26451Y72242
X26737Y72016
X27255Y72010
X24669Y70474
X24329Y70684
X23949Y70704
X24129Y70334
X23679Y70404
X23467Y70050
X23089Y70049
X23085Y70337
X22719Y69959
Y69649
X22124Y69404
X22919Y79059
X22959Y79719
X24039Y79039
X25019Y79059
X25067Y79997
X24340Y82706
X26189Y82666
X22378Y82706
X22019Y81959
X21999Y81549
X22009Y81159
X35748Y77409
Y77085
Y76750
Y76425
X36230Y74227
X37132Y72920
X21378Y73148
X21627Y72219
X21126Y72222
X20632Y72222
X20129Y72219
X19842Y72734
X19840Y73082
X19838Y73442
X19402Y73053
X19567Y71811
X19549Y71179
X18996Y71319
X18869Y71724
X18356Y71294
X18319Y70679
X19130Y70575
X19099Y70224
X19069Y69821
X19778Y69220
X21001Y69639
X21510Y69998
X21109Y70754
X17432Y70195
X17062Y70195
X16379Y70209
Y70499
X16139Y70669
X15527Y70668
X15297Y70488
Y70198
X15537Y70028
X16149Y70029
X17067Y69492
X17652Y68974
X17524Y71612
X17101Y71258
X15396Y71495
X14812Y71918
X14443Y71888
Y70982
X14807Y70972
X14398Y70622
X14848Y69502
X15083Y72538
X14444Y73049
X15184Y73690
X15921Y73061
X16393Y72748
X15914Y72163
X13627Y72439
X11949Y73029
X12067Y73768
X10784Y73700
X9694Y73646
X9312Y73654
X8791Y73829
X8626Y73473
X8587Y73089
X7699Y73004
X7704Y73388
X7719Y73783
X7135Y74089
X7615Y74758
X7759Y75559
X7359
X7260Y76013
X7759Y76009
X8249
X8159Y75559
X8559
X9004Y75536
X8830Y74619
X10149Y74720
X10055Y75087
X10272Y75687
X10940Y75205
X11404Y75570
X11699Y75569
X11994
X12289
X12585
X12987Y75559
X12229Y76019
X11739Y76009
X10557Y76937
X10899Y77499
Y78409
X10449Y78629
X10929Y79259
X11059Y79929
X10082Y80149
X10009Y81159
X9999Y81549
X10019Y81959
X10270Y82676
X8340Y82723
X8679Y81939
Y81549
Y81169
X8695Y80140
X7099Y79989
X7309Y78649
X6699Y78779
X7697Y72606
X8444Y71857
X9049Y71689
X9019Y71309
X8669Y70699
X7774Y71177
X7352Y71100
X7205Y70618
X6654Y70072
X6699Y69437
X6679Y69067
X7459
X6556Y71531
X10209Y72057
X10205Y72474
X14287Y75697
X14939Y75199
X15429Y75569
X15724
X16020
X16315
X16610
X17003Y75569
X17972Y75490
X18581Y75949
X18961Y75939
X18980Y75238
X19138Y74880
X18983Y74522
X18616Y74526
X16544Y74206
X16259Y75999
X15729Y76009
X14593Y76947
X14909Y77499
Y78409
X14434Y78629
X14919Y79279
X15009Y79909
X14019Y80009
X14009Y81159
X13999Y81549
X14019Y81959
X14328Y82699
X12311Y82711
X12679Y81939
Y81549
Y81169
X12719Y80029
X16719
X16679Y81169
Y81549
Y81939
X16339Y82731
X18319Y82755
X18019Y81959
X17999Y81549
X18009Y81159
X18019Y80009
X18444Y78629
X20059Y78409
X19926Y77466
X20481Y77379
X18951Y77239
X21857Y77843
X20679Y81169
Y81549
Y81939
X20355Y82727
X17592Y73074
X6229Y73184
X5316Y72307
X5391Y71738
X4343Y71431
X4339Y70822
X4798Y70549
X5335Y70338
X5055Y69840
X5887Y69846
X6044Y70504
X3617Y70382
X3019Y69659
X3566Y69060
X4429Y69539
X4316Y72045
X3447Y72558
X2989Y74429
X3059Y75929
Y76359
X3580Y76748
X5729Y76642
X5412Y77822
X5814Y78054
X6284Y80264
X4539Y79909
X3603Y79608
X4039Y81039
X4739Y81339
X5039Y82039
X4739Y82739
X4039Y83039
X3339Y82739
X3039Y82039
X3339Y81339
X5866Y82620
X6229Y74995
X4841Y74874
X5324Y74089
T03
X37987Y17128
Y18128
X36987
Y17128
X35987
Y18128
X34987
Y17128
X33987
Y18128
X21549Y17599
Y16599
X20549
Y17599
X19549
Y16599
X18549
Y17599
X17549
Y16599
X16549
Y17599
X15549
Y16599
X14549
Y17599
X13549
Y16599
X12549
Y17599
X11549
Y16599
X10549
Y17599
X10569Y19569
X11569
X12569
X13569
Y20569
X12569
X11569
X10569
X9569
Y19569
Y23319
X10569
X11569
X12569
X13569
Y24319
X12569
X11569
X10569
X9569
X19919Y34569
Y35569
X20919
Y34569
X21919
Y35569
X22919
Y34569
X21549Y57099
Y58099
X20549
Y57099
X19549
Y58099
X18549
Y57099
X17549
Y58099
X16549
Y57099
X15549
Y58099
X14549
Y57099
X13549
Y58099
X12549
Y57099
X11549
Y58099
X10549
Y57099
X10569Y60069
X11569
X12569
X13569
Y61069
X12569
X11569
X10569
X9569
Y60069
Y63819
X10569
X11569
X12569
X13569
Y64819
X12569
X11569
X10569
X9569
X33987Y58628
X34987
X35987
X36987
Y57628
X35987
X34987
X33987
X37987
Y58628
X22919Y75069
Y76069
X21919
X20919
X19919
Y75069
X20919
X21919
T04
X6109Y25039
Y26031
X6899
Y25039
X6109Y65539
Y66531
X6899
Y65539
T05
X7089Y3989
X8089
X9089
X10089
X13089
X14089
X15089
X16089
X19039
X20039
X21039
X22039
X24139
X25139
X26139
X27139
X30039
X31039
X32039
X33039
X35989
X36989
X37989
X38989
X41719Y7089
Y8089
Y9089
Y10089
X39119Y21169
X38119
X35989
X34989
X32839
X31839
X29669
X28669
X3399Y32999
Y34779
X28109Y28029
X29109
X30109
X32214
X33214
X34214
X36319
X37319
Y25629
X36319
X34214
X33214
X32214
X30109
X29109
X28109
X38319
Y28029
X37989Y44489
X38989
X41719Y47589
Y48589
Y49589
Y50589
X36989Y44489
X35989
X33039
X32039
X31039
X30039
X27139
X26139
X25139
X24139
X22039
X21039
X20039
X19039
X16089
X15089
X14089
X13089
X10089
X9089
X8089
X7089
X4779Y37989
X3779
X28669Y61669
X29669
X31839
X32839
X34989
X35989
X36319Y66129
X37319
Y68529
X36319
X34214
X33214
X32214
X30109
X29109
X28109
Y66129
X29109
X30109
X32214
X33214
X34214
X38319
Y68529
X38119Y61669
X39119
X3399Y73499
Y75279
X3779Y78489
X4779
T06
X40246Y26364
Y28364
Y30364
Y32364
Y34364
Y36364
X25339Y41059
X23339
X21339
X19339
X17339
X15339
X13339
X11339
X9339
X7339
X40246Y66864
Y68864
Y70864
Y72864
Y74864
Y76864
X25339Y81559
X23339
X21339
X19339
X17339
X15339
X13339
X11339
X9339
X7339
T07
X4379Y32509
Y35269
Y73009
Y75769
T08
X41043Y17527
X42383
X37049Y31079
X35029
X33689
Y36379
X35029
X37049
X38389
Y31079
X41043Y22827
X42383
Y58027
X41043
Y63327
X42383
X38389Y71579
Y76879
X37049
X35029
X33689
Y71579
X35029
X37049
T09
X5039Y23169
Y27902
Y63669
Y68402
T10
X1329Y1329
X4039Y4039
X42039
X44732Y1358
X42039Y41539
Y44539
X4039
Y41539
X42039Y82039
X4039
X1329Y84717
X44661Y84828
T11
X24089Y16969
X3844Y14496
X6229Y33589
X3844Y54996
X24089Y57469
X6229Y74089
M30
