G04*
G04 #@! TF.GenerationSoftware,Altium Limited,Altium Designer,18.1.7 (191)*
G04*
G04 Layer_Color=8421504*
%FSLAX25Y25*%
%MOIN*%
G70*
G01*
G75*
G04:AMPARAMS|DCode=11|XSize=78.74mil|YSize=78.74mil|CornerRadius=39.37mil|HoleSize=0mil|Usage=FLASHONLY|Rotation=90.000|XOffset=0mil|YOffset=0mil|HoleType=Round|Shape=RoundedRectangle|*
%AMROUNDEDRECTD11*
21,1,0.07874,0.00000,0,0,90.0*
21,1,0.00000,0.07874,0,0,90.0*
1,1,0.07874,0.00000,0.00000*
1,1,0.07874,0.00000,0.00000*
1,1,0.07874,0.00000,0.00000*
1,1,0.07874,0.00000,0.00000*
%
%ADD11ROUNDEDRECTD11*%
%ADD12C,0.01000*%
%ADD159C,0.05000*%
%ADD185O,0.05900X0.11900*%
%ADD186O,0.11900X0.05900*%
%ADD187R,0.06181X0.05276*%
%ADD188R,0.08898X0.07520*%
%ADD189R,0.02359X0.01181*%
%ADD190R,0.01201X0.01024*%
%ADD191R,0.05312X0.02162*%
%ADD192R,0.06887X0.02162*%
G04:AMPARAMS|DCode=193|XSize=20mil|YSize=22mil|CornerRadius=3.4mil|HoleSize=0mil|Usage=FLASHONLY|Rotation=270.000|XOffset=0mil|YOffset=0mil|HoleType=Round|Shape=RoundedRectangle|*
%AMROUNDEDRECTD193*
21,1,0.02000,0.01520,0,0,270.0*
21,1,0.01320,0.02200,0,0,270.0*
1,1,0.00680,-0.00760,-0.00660*
1,1,0.00680,-0.00760,0.00660*
1,1,0.00680,0.00760,0.00660*
1,1,0.00680,0.00760,-0.00660*
%
%ADD193ROUNDEDRECTD193*%
%ADD194O,0.00784X0.03147*%
%ADD195O,0.03147X0.00784*%
%ADD196R,0.02600X0.05400*%
%ADD197R,0.01454X0.01454*%
G04:AMPARAMS|DCode=198|XSize=20mil|YSize=22mil|CornerRadius=3.4mil|HoleSize=0mil|Usage=FLASHONLY|Rotation=180.000|XOffset=0mil|YOffset=0mil|HoleType=Round|Shape=RoundedRectangle|*
%AMROUNDEDRECTD198*
21,1,0.02000,0.01520,0,0,180.0*
21,1,0.01320,0.02200,0,0,180.0*
1,1,0.00680,-0.00660,0.00760*
1,1,0.00680,0.00660,0.00760*
1,1,0.00680,0.00660,-0.00760*
1,1,0.00680,-0.00660,-0.00760*
%
%ADD198ROUNDEDRECTD198*%
%ADD199R,0.01454X0.01454*%
%ADD200R,0.01378X0.00984*%
%ADD201R,0.03737X0.02556*%
%ADD202R,0.04524X0.03934*%
%ADD203R,0.04524X0.04328*%
%ADD204R,0.04524X0.05509*%
%ADD205R,0.02531X0.03737*%
%ADD206R,0.03343X0.05312*%
%ADD207R,0.07700X0.07700*%
%ADD208R,0.05312X0.13186*%
%ADD209R,0.03540X0.10430*%
%ADD210R,0.00784X0.01769*%
G04:AMPARAMS|DCode=211|XSize=27.13mil|YSize=37.37mil|CornerRadius=4.83mil|HoleSize=0mil|Usage=FLASHONLY|Rotation=90.000|XOffset=0mil|YOffset=0mil|HoleType=Round|Shape=RoundedRectangle|*
%AMROUNDEDRECTD211*
21,1,0.02713,0.02772,0,0,90.0*
21,1,0.01748,0.03737,0,0,90.0*
1,1,0.00965,0.01386,0.00874*
1,1,0.00965,0.01386,-0.00874*
1,1,0.00965,-0.01386,-0.00874*
1,1,0.00965,-0.01386,0.00874*
%
%ADD211ROUNDEDRECTD211*%
G04:AMPARAMS|DCode=212|XSize=27.13mil|YSize=37.37mil|CornerRadius=4.83mil|HoleSize=0mil|Usage=FLASHONLY|Rotation=0.000|XOffset=0mil|YOffset=0mil|HoleType=Round|Shape=RoundedRectangle|*
%AMROUNDEDRECTD212*
21,1,0.02713,0.02772,0,0,0.0*
21,1,0.01748,0.03737,0,0,0.0*
1,1,0.00965,0.00874,-0.01386*
1,1,0.00965,-0.00874,-0.01386*
1,1,0.00965,-0.00874,0.01386*
1,1,0.00965,0.00874,0.01386*
%
%ADD212ROUNDEDRECTD212*%
%ADD213R,0.10430X0.03540*%
%ADD214R,0.02162X0.02950*%
%ADD215R,0.02950X0.02162*%
%ADD216R,0.02438X0.03265*%
%ADD217R,0.13186X0.05312*%
G04:AMPARAMS|DCode=218|XSize=61mil|YSize=69mil|CornerRadius=14.75mil|HoleSize=0mil|Usage=FLASHONLY|Rotation=0.000|XOffset=0mil|YOffset=0mil|HoleType=Round|Shape=RoundedRectangle|*
%AMROUNDEDRECTD218*
21,1,0.06100,0.03950,0,0,0.0*
21,1,0.03150,0.06900,0,0,0.0*
1,1,0.02950,0.01575,-0.01975*
1,1,0.02950,-0.01575,-0.01975*
1,1,0.02950,-0.01575,0.01975*
1,1,0.02950,0.01575,0.01975*
%
%ADD218ROUNDEDRECTD218*%
%ADD219R,0.04918X0.05312*%
%ADD220R,0.03265X0.02438*%
%ADD221R,0.02200X0.02200*%
%ADD222R,0.03400X0.03000*%
%ADD223R,0.02200X0.02200*%
%ADD224R,0.02162X0.03147*%
%ADD225R,0.03147X0.02162*%
%ADD226R,0.04131X0.06493*%
%ADD227R,0.06493X0.04131*%
%ADD228R,0.00984X0.01378*%
%ADD229R,0.04600X0.04600*%
%ADD230R,0.04600X0.04600*%
%ADD231R,0.07700X0.07700*%
%ADD232O,0.05706X0.02162*%
%ADD233R,0.02753X0.10824*%
%ADD234R,0.00902X0.01375*%
%ADD235O,0.06887X0.00781*%
%ADD236O,0.00781X0.06887*%
%ADD237R,0.04524X0.03343*%
%ADD238O,0.08855X0.02162*%
%ADD239R,0.03737X0.03343*%
%ADD240R,0.03343X0.01375*%
%ADD241R,0.07800X0.07800*%
%ADD242O,0.02950X0.00902*%
%ADD243O,0.00902X0.02950*%
%ADD244R,0.02950X0.01965*%
%ADD245O,0.05509X0.01965*%
%ADD246R,0.04800X0.08100*%
%ADD247R,0.15942X0.13580*%
%ADD248R,0.04721X0.01965*%
%ADD249R,0.09249X0.12005*%
%ADD250R,0.04721X0.02950*%
%ADD251R,0.01769X0.01965*%
%ADD252R,0.01965X0.01769*%
G36*
X328446Y748227D02*
X328447Y745828D01*
X326146Y743528D01*
X318647Y743528D01*
X317247Y744928D01*
X317246Y749127D01*
X318646Y750527D01*
X326147Y750528D01*
X328446Y748227D01*
D02*
G37*
G36*
Y343227D02*
X328447Y340828D01*
X326146Y338527D01*
X318647Y338528D01*
X317247Y339928D01*
X317246Y344127D01*
X318646Y345527D01*
X326147Y345528D01*
X328446Y343227D01*
D02*
G37*
G54D11*
X37894Y12894D02*
D03*
X423780Y13189D02*
D03*
Y847974D02*
D03*
X37894D02*
D03*
G54D12*
X329869Y964837D02*
X334868D01*
X332369D01*
Y957340D01*
X338617D02*
X341116D01*
X342365Y958589D01*
Y961089D01*
X341116Y962338D01*
X338617D01*
X337367Y961089D01*
Y958589D01*
X338617Y957340D01*
X344865Y954841D02*
Y962338D01*
X348613D01*
X349863Y961089D01*
Y958589D01*
X348613Y957340D01*
X344865D01*
X359860D02*
Y964837D01*
X363609D01*
X364858Y963588D01*
Y961089D01*
X363609Y959839D01*
X359860D01*
X368607Y962338D02*
X371106D01*
X372356Y961089D01*
Y957340D01*
X368607D01*
X367357Y958589D01*
X368607Y959839D01*
X372356D01*
X374855Y957340D02*
X378604D01*
X379853Y958589D01*
X378604Y959839D01*
X376104D01*
X374855Y961089D01*
X376104Y962338D01*
X379853D01*
X383602Y963588D02*
Y962338D01*
X382352D01*
X384852D01*
X383602D01*
Y958589D01*
X384852Y957340D01*
X392349D02*
X389850D01*
X388600Y958589D01*
Y961089D01*
X389850Y962338D01*
X392349D01*
X393599Y961089D01*
Y959839D01*
X388600D01*
X329869Y944840D02*
Y949838D01*
X332369Y952337D01*
X334868Y949838D01*
Y944840D01*
Y948589D01*
X329869D01*
X337367Y949838D02*
Y944840D01*
Y947339D01*
X338617Y948589D01*
X339866Y949838D01*
X341116D01*
X349863D02*
X346114D01*
X344865Y948589D01*
Y946089D01*
X346114Y944840D01*
X349863D01*
X352362Y952337D02*
Y944840D01*
Y948589D01*
X353612Y949838D01*
X356111D01*
X357361Y948589D01*
Y944840D01*
X359860D02*
X362359D01*
X361109D01*
Y949838D01*
X359860D01*
X366108Y944840D02*
Y949838D01*
X367357D01*
X368607Y948589D01*
Y944840D01*
Y948589D01*
X369857Y949838D01*
X371106Y948589D01*
Y944840D01*
X373605Y943590D02*
X378604D01*
X386101Y944840D02*
X381103D01*
X386101Y949838D01*
Y951088D01*
X384852Y952337D01*
X382352D01*
X381103Y951088D01*
X388600Y944840D02*
Y946089D01*
X389850D01*
Y944840D01*
X388600D01*
X394848D02*
X397348D01*
X396098D01*
Y952337D01*
X394848Y951088D01*
X402346Y949838D02*
X404845D01*
X406095Y948589D01*
Y944840D01*
X402346D01*
X401096Y946089D01*
X402346Y947339D01*
X406095D01*
G54D159*
X49843Y36457D02*
D03*
Y44331D02*
D03*
X44331Y49843D02*
D03*
X36457D02*
D03*
X30945Y44331D02*
D03*
Y36457D02*
D03*
X36457Y30945D02*
D03*
X44331D02*
D03*
X49843Y411457D02*
D03*
Y419331D02*
D03*
X44331Y424843D02*
D03*
X36457D02*
D03*
X30945Y419331D02*
D03*
Y411457D02*
D03*
X36457Y405945D02*
D03*
X44331D02*
D03*
X429843Y411457D02*
D03*
Y419331D02*
D03*
X424331Y424843D02*
D03*
X416457D02*
D03*
X410945Y419331D02*
D03*
Y411457D02*
D03*
X416457Y405945D02*
D03*
X424331D02*
D03*
X429843Y36457D02*
D03*
Y44331D02*
D03*
X424331Y49843D02*
D03*
X416457D02*
D03*
X410945Y44331D02*
D03*
Y36457D02*
D03*
X416457Y30945D02*
D03*
X424331D02*
D03*
X49843Y441457D02*
D03*
Y449331D02*
D03*
X44331Y454843D02*
D03*
X36457D02*
D03*
X30945Y449331D02*
D03*
Y441457D02*
D03*
X36457Y435945D02*
D03*
X44331D02*
D03*
X49843Y816457D02*
D03*
Y824331D02*
D03*
X44331Y829842D02*
D03*
X36457D02*
D03*
X30945Y824331D02*
D03*
Y816457D02*
D03*
X36457Y810945D02*
D03*
X44331D02*
D03*
X429843Y816457D02*
D03*
Y824331D02*
D03*
X424331Y829842D02*
D03*
X416457D02*
D03*
X410945Y824331D02*
D03*
Y816457D02*
D03*
X416457Y810945D02*
D03*
X424331D02*
D03*
X429843Y441457D02*
D03*
Y449331D02*
D03*
X424331Y454843D02*
D03*
X416457D02*
D03*
X410945Y449331D02*
D03*
Y441457D02*
D03*
X416457Y435945D02*
D03*
X424331D02*
D03*
G54D185*
X47794Y379894D02*
D03*
X37794D02*
D03*
X383194Y256294D02*
D03*
X363194D02*
D03*
X373194D02*
D03*
X342144D02*
D03*
X322144D02*
D03*
X332144D02*
D03*
X301094D02*
D03*
X281094D02*
D03*
X291094D02*
D03*
X363194Y280294D02*
D03*
X383194D02*
D03*
X373194D02*
D03*
X322144D02*
D03*
X342144D02*
D03*
X332144D02*
D03*
X281094D02*
D03*
X301094D02*
D03*
X291094D02*
D03*
X391194Y211694D02*
D03*
X381194D02*
D03*
X359894D02*
D03*
X349894D02*
D03*
X328394D02*
D03*
X318394D02*
D03*
X296694D02*
D03*
X286694D02*
D03*
X359894Y39894D02*
D03*
X369894D02*
D03*
X389894D02*
D03*
X379894D02*
D03*
X300394D02*
D03*
X310394D02*
D03*
X330394D02*
D03*
X320394D02*
D03*
X241394D02*
D03*
X251394D02*
D03*
X271394D02*
D03*
X261394D02*
D03*
X190394D02*
D03*
X200394D02*
D03*
X220394D02*
D03*
X210394D02*
D03*
X130894D02*
D03*
X140894D02*
D03*
X160894D02*
D03*
X150894D02*
D03*
X70894D02*
D03*
X80894D02*
D03*
X100894D02*
D03*
X90894D02*
D03*
X47794Y784894D02*
D03*
X37794D02*
D03*
X383194Y661294D02*
D03*
X363194D02*
D03*
X373194D02*
D03*
X342144D02*
D03*
X322144D02*
D03*
X332144D02*
D03*
X301094D02*
D03*
X281094D02*
D03*
X291094D02*
D03*
X363194Y685294D02*
D03*
X383194D02*
D03*
X373194D02*
D03*
X322144D02*
D03*
X342144D02*
D03*
X332144D02*
D03*
X281094D02*
D03*
X301094D02*
D03*
X291094D02*
D03*
X391194Y616694D02*
D03*
X381194D02*
D03*
X359894D02*
D03*
X349894D02*
D03*
X328394D02*
D03*
X318394D02*
D03*
X296694D02*
D03*
X286694D02*
D03*
X359894Y444894D02*
D03*
X369894D02*
D03*
X389894D02*
D03*
X379894D02*
D03*
X300394D02*
D03*
X310394D02*
D03*
X330394D02*
D03*
X320394D02*
D03*
X241394D02*
D03*
X251394D02*
D03*
X271394D02*
D03*
X261394D02*
D03*
X190394D02*
D03*
X200394D02*
D03*
X220394D02*
D03*
X210394D02*
D03*
X130894D02*
D03*
X140894D02*
D03*
X160894D02*
D03*
X150894D02*
D03*
X70894D02*
D03*
X80894D02*
D03*
X100894D02*
D03*
X90894D02*
D03*
G54D186*
X417194Y70894D02*
D03*
Y80894D02*
D03*
Y100894D02*
D03*
Y90894D02*
D03*
Y475894D02*
D03*
Y485894D02*
D03*
Y505894D02*
D03*
Y495894D02*
D03*
G54D187*
X71662Y110886D02*
D03*
X64296Y104429D02*
D03*
X64294Y110887D02*
D03*
X71662Y104425D02*
D03*
X288394D02*
D03*
X281026Y110887D02*
D03*
X281028Y104429D02*
D03*
X288395Y110886D02*
D03*
X360639D02*
D03*
X353272Y104429D02*
D03*
X353270Y110887D02*
D03*
X360638Y104425D02*
D03*
X143906D02*
D03*
X136538Y110887D02*
D03*
X136540Y104429D02*
D03*
X143907Y110886D02*
D03*
X216151D02*
D03*
X208784Y104429D02*
D03*
X208782Y110887D02*
D03*
X216150Y104425D02*
D03*
X71662Y515886D02*
D03*
X64296Y509429D02*
D03*
X64294Y515887D02*
D03*
X71662Y509425D02*
D03*
X288394D02*
D03*
X281026Y515887D02*
D03*
X281028Y509429D02*
D03*
X288395Y515886D02*
D03*
X360639D02*
D03*
X353272Y509429D02*
D03*
X353270Y515887D02*
D03*
X360638Y509425D02*
D03*
X143906D02*
D03*
X136538Y515887D02*
D03*
X136540Y509429D02*
D03*
X143907Y515886D02*
D03*
X216151D02*
D03*
X208784Y509429D02*
D03*
X208782Y515887D02*
D03*
X216150Y509425D02*
D03*
G54D188*
X242724Y366210D02*
D03*
X253362Y366206D02*
D03*
X253362Y356950D02*
D03*
X242724Y356955D02*
D03*
X157175Y364954D02*
D03*
X167813Y364950D02*
D03*
X167813Y374206D02*
D03*
X157175Y374210D02*
D03*
X117075D02*
D03*
X127713Y374206D02*
D03*
X127713Y364950D02*
D03*
X117075Y364954D02*
D03*
X77224D02*
D03*
X87862Y364950D02*
D03*
X87862Y374206D02*
D03*
X77224Y374210D02*
D03*
X242724Y771210D02*
D03*
X253362Y771206D02*
D03*
X253362Y761950D02*
D03*
X242724Y761954D02*
D03*
X157175Y769954D02*
D03*
X167813Y769950D02*
D03*
X167813Y779206D02*
D03*
X157175Y779210D02*
D03*
X117075D02*
D03*
X127713Y779206D02*
D03*
X127713Y769950D02*
D03*
X117075Y769954D02*
D03*
X77224D02*
D03*
X87862Y769950D02*
D03*
X87862Y779206D02*
D03*
X77224Y779210D02*
D03*
G54D189*
X281079Y320454D02*
D03*
X283838D02*
D03*
X281079Y725454D02*
D03*
X283838D02*
D03*
G54D190*
X72020Y287643D02*
D03*
X72021Y285675D02*
D03*
Y283706D02*
D03*
X69365Y283706D02*
D03*
Y285675D02*
D03*
X69365Y287643D02*
D03*
X72020Y692643D02*
D03*
X72021Y690675D02*
D03*
Y688706D02*
D03*
X69365Y688706D02*
D03*
Y690675D02*
D03*
X69365Y692643D02*
D03*
G54D191*
X311760Y347933D02*
D03*
Y336122D02*
D03*
Y752933D02*
D03*
Y741122D02*
D03*
G54D192*
X312547Y342028D02*
D03*
Y747028D02*
D03*
G54D193*
X250494Y294732D02*
D03*
Y290942D02*
D03*
X284254Y170036D02*
D03*
Y173826D02*
D03*
X77409Y167785D02*
D03*
Y171575D02*
D03*
X85960Y165894D02*
D03*
Y169684D02*
D03*
X201583Y188317D02*
D03*
Y192106D02*
D03*
X89827Y165894D02*
D03*
Y169684D02*
D03*
X93694Y165894D02*
D03*
Y169684D02*
D03*
X82094Y169694D02*
D03*
Y165904D02*
D03*
X238794Y294842D02*
D03*
Y291052D02*
D03*
X246394Y292242D02*
D03*
Y296032D02*
D03*
X242694Y296542D02*
D03*
Y292752D02*
D03*
X235087Y191073D02*
D03*
Y187284D02*
D03*
X207823Y292254D02*
D03*
Y288465D02*
D03*
X213269Y293281D02*
D03*
Y289491D02*
D03*
X317076Y187564D02*
D03*
Y183774D02*
D03*
X48794Y397594D02*
D03*
Y393804D02*
D03*
X58894Y33494D02*
D03*
Y37284D02*
D03*
X393807Y419589D02*
D03*
Y415799D02*
D03*
X234794Y289442D02*
D03*
Y293232D02*
D03*
X95194Y360507D02*
D03*
Y364297D02*
D03*
X161394Y270994D02*
D03*
Y274783D02*
D03*
X154894Y284294D02*
D03*
Y288084D02*
D03*
Y278794D02*
D03*
Y275004D02*
D03*
X97494Y342094D02*
D03*
Y345883D02*
D03*
X78994Y341794D02*
D03*
Y338004D02*
D03*
X264713Y320049D02*
D03*
Y323839D02*
D03*
X175394Y356794D02*
D03*
Y353004D02*
D03*
X282294Y302294D02*
D03*
Y306083D02*
D03*
X207794Y373294D02*
D03*
Y377083D02*
D03*
X207894Y369294D02*
D03*
Y365504D02*
D03*
X226794Y369794D02*
D03*
Y373584D02*
D03*
X135295Y360600D02*
D03*
Y364390D02*
D03*
X175294Y360594D02*
D03*
Y364384D02*
D03*
X259494Y341094D02*
D03*
Y337304D02*
D03*
X269437Y320049D02*
D03*
Y323839D02*
D03*
X227846Y320748D02*
D03*
Y316958D02*
D03*
X202803Y296684D02*
D03*
Y292894D02*
D03*
X297046Y187805D02*
D03*
Y184016D02*
D03*
X292520Y125128D02*
D03*
Y121339D02*
D03*
X317055Y195227D02*
D03*
Y191437D02*
D03*
X364961Y125227D02*
D03*
Y121437D02*
D03*
X76378Y125424D02*
D03*
Y121634D02*
D03*
X148425Y125620D02*
D03*
Y121831D02*
D03*
X220472Y125345D02*
D03*
Y121555D02*
D03*
X77409Y158435D02*
D03*
Y162224D02*
D03*
X47961Y305072D02*
D03*
Y308862D02*
D03*
X373228Y407912D02*
D03*
Y411702D02*
D03*
Y415712D02*
D03*
Y419502D02*
D03*
X272831Y337235D02*
D03*
Y333445D02*
D03*
X276866Y333435D02*
D03*
Y337225D02*
D03*
X250494Y699732D02*
D03*
Y695942D02*
D03*
X284254Y575036D02*
D03*
Y578826D02*
D03*
X77409Y572785D02*
D03*
Y576575D02*
D03*
X85960Y570894D02*
D03*
Y574684D02*
D03*
X201583Y593317D02*
D03*
Y597106D02*
D03*
X89827Y570894D02*
D03*
Y574684D02*
D03*
X93694Y570894D02*
D03*
Y574684D02*
D03*
X82094Y574694D02*
D03*
Y570904D02*
D03*
X238794Y699842D02*
D03*
Y696052D02*
D03*
X246394Y697242D02*
D03*
Y701032D02*
D03*
X242694Y701542D02*
D03*
Y697752D02*
D03*
X235087Y596073D02*
D03*
Y592283D02*
D03*
X207823Y697254D02*
D03*
Y693465D02*
D03*
X213269Y698281D02*
D03*
Y694491D02*
D03*
X317076Y592564D02*
D03*
Y588774D02*
D03*
X48794Y802594D02*
D03*
Y798804D02*
D03*
X58894Y438494D02*
D03*
Y442283D02*
D03*
X393807Y824589D02*
D03*
Y820799D02*
D03*
X234794Y694442D02*
D03*
Y698232D02*
D03*
X95194Y765507D02*
D03*
Y769297D02*
D03*
X161394Y675994D02*
D03*
Y679783D02*
D03*
X154894Y689294D02*
D03*
Y693083D02*
D03*
Y683794D02*
D03*
Y680004D02*
D03*
X97494Y747094D02*
D03*
Y750883D02*
D03*
X78994Y746794D02*
D03*
Y743004D02*
D03*
X264713Y725049D02*
D03*
Y728839D02*
D03*
X175394Y761794D02*
D03*
Y758004D02*
D03*
X282294Y707294D02*
D03*
Y711084D02*
D03*
X207794Y778294D02*
D03*
Y782084D02*
D03*
X207894Y774294D02*
D03*
Y770504D02*
D03*
X226794Y774794D02*
D03*
Y778583D02*
D03*
X135295Y765600D02*
D03*
Y769390D02*
D03*
X175294Y765594D02*
D03*
Y769383D02*
D03*
X259494Y746094D02*
D03*
Y742304D02*
D03*
X269437Y725049D02*
D03*
Y728839D02*
D03*
X227846Y725748D02*
D03*
Y721958D02*
D03*
X202803Y701684D02*
D03*
Y697894D02*
D03*
X297046Y592805D02*
D03*
Y589016D02*
D03*
X292520Y530128D02*
D03*
Y526339D02*
D03*
X317055Y600227D02*
D03*
Y596437D02*
D03*
X364961Y530227D02*
D03*
Y526437D02*
D03*
X76378Y530424D02*
D03*
Y526634D02*
D03*
X148425Y530620D02*
D03*
Y526831D02*
D03*
X220472Y530345D02*
D03*
Y526555D02*
D03*
X77409Y563435D02*
D03*
Y567225D02*
D03*
X47961Y710072D02*
D03*
Y713862D02*
D03*
X373228Y812912D02*
D03*
Y816702D02*
D03*
Y820712D02*
D03*
Y824502D02*
D03*
X272831Y742235D02*
D03*
Y738445D02*
D03*
X276866Y738435D02*
D03*
Y742225D02*
D03*
G54D194*
X59120Y98090D02*
D03*
X61088D02*
D03*
X63057D02*
D03*
X65025D02*
D03*
X66994D02*
D03*
X68962D02*
D03*
X70931D02*
D03*
X72899D02*
D03*
X74868D02*
D03*
X76836D02*
D03*
Y117225D02*
D03*
X74868D02*
D03*
X72899D02*
D03*
X70931D02*
D03*
X68962D02*
D03*
X66994D02*
D03*
X65025D02*
D03*
X63057D02*
D03*
X61088D02*
D03*
X59120D02*
D03*
X275852D02*
D03*
X277820D02*
D03*
X279789D02*
D03*
X281757D02*
D03*
X283726D02*
D03*
X285695D02*
D03*
X287663D02*
D03*
X289632D02*
D03*
X291600D02*
D03*
X293568D02*
D03*
Y98090D02*
D03*
X291600D02*
D03*
X289632D02*
D03*
X287663D02*
D03*
X285695D02*
D03*
X283726D02*
D03*
X281757D02*
D03*
X279789D02*
D03*
X277820D02*
D03*
X275852D02*
D03*
X348096D02*
D03*
X350065D02*
D03*
X352033D02*
D03*
X354002D02*
D03*
X355970D02*
D03*
X357939D02*
D03*
X359907D02*
D03*
X361876D02*
D03*
X363844D02*
D03*
X365813D02*
D03*
Y117225D02*
D03*
X363844D02*
D03*
X361876D02*
D03*
X359907D02*
D03*
X357939D02*
D03*
X355970D02*
D03*
X354002D02*
D03*
X352033D02*
D03*
X350065D02*
D03*
X348096D02*
D03*
X131364D02*
D03*
X133332D02*
D03*
X135301D02*
D03*
X137269D02*
D03*
X139238D02*
D03*
X141206D02*
D03*
X143175D02*
D03*
X145143D02*
D03*
X147112D02*
D03*
X149080D02*
D03*
Y98090D02*
D03*
X147112D02*
D03*
X145143D02*
D03*
X143175D02*
D03*
X141206D02*
D03*
X139238D02*
D03*
X137269D02*
D03*
X135301D02*
D03*
X133332D02*
D03*
X131364D02*
D03*
X203608D02*
D03*
X205576D02*
D03*
X207545D02*
D03*
X209513D02*
D03*
X211482D02*
D03*
X213450D02*
D03*
X215419D02*
D03*
X217387D02*
D03*
X219356D02*
D03*
X221324D02*
D03*
Y117225D02*
D03*
X219356D02*
D03*
X217387D02*
D03*
X215419D02*
D03*
X213450D02*
D03*
X211482D02*
D03*
X209513D02*
D03*
X207545D02*
D03*
X205576D02*
D03*
X203608D02*
D03*
X59120Y503090D02*
D03*
X61088D02*
D03*
X63057D02*
D03*
X65025D02*
D03*
X66994D02*
D03*
X68962D02*
D03*
X70931D02*
D03*
X72899D02*
D03*
X74868D02*
D03*
X76836D02*
D03*
Y522225D02*
D03*
X74868D02*
D03*
X72899D02*
D03*
X70931D02*
D03*
X68962D02*
D03*
X66994D02*
D03*
X65025D02*
D03*
X63057D02*
D03*
X61088D02*
D03*
X59120D02*
D03*
X275852D02*
D03*
X277820D02*
D03*
X279789D02*
D03*
X281757D02*
D03*
X283726D02*
D03*
X285695D02*
D03*
X287663D02*
D03*
X289632D02*
D03*
X291600D02*
D03*
X293568D02*
D03*
Y503090D02*
D03*
X291600D02*
D03*
X289632D02*
D03*
X287663D02*
D03*
X285695D02*
D03*
X283726D02*
D03*
X281757D02*
D03*
X279789D02*
D03*
X277820D02*
D03*
X275852D02*
D03*
X348096D02*
D03*
X350065D02*
D03*
X352033D02*
D03*
X354002D02*
D03*
X355970D02*
D03*
X357939D02*
D03*
X359907D02*
D03*
X361876D02*
D03*
X363844D02*
D03*
X365813D02*
D03*
Y522225D02*
D03*
X363844D02*
D03*
X361876D02*
D03*
X359907D02*
D03*
X357939D02*
D03*
X355970D02*
D03*
X354002D02*
D03*
X352033D02*
D03*
X350065D02*
D03*
X348096D02*
D03*
X131364D02*
D03*
X133332D02*
D03*
X135301D02*
D03*
X137269D02*
D03*
X139238D02*
D03*
X141206D02*
D03*
X143175D02*
D03*
X145143D02*
D03*
X147112D02*
D03*
X149080D02*
D03*
Y503090D02*
D03*
X147112D02*
D03*
X145143D02*
D03*
X143175D02*
D03*
X141206D02*
D03*
X139238D02*
D03*
X137269D02*
D03*
X135301D02*
D03*
X133332D02*
D03*
X131364D02*
D03*
X203608D02*
D03*
X205576D02*
D03*
X207545D02*
D03*
X209513D02*
D03*
X211482D02*
D03*
X213450D02*
D03*
X215419D02*
D03*
X217387D02*
D03*
X219356D02*
D03*
X221324D02*
D03*
Y522225D02*
D03*
X219356D02*
D03*
X217387D02*
D03*
X215419D02*
D03*
X213450D02*
D03*
X211482D02*
D03*
X209513D02*
D03*
X207545D02*
D03*
X205576D02*
D03*
X203608D02*
D03*
G54D195*
X79494Y100768D02*
D03*
Y102736D02*
D03*
Y104705D02*
D03*
Y106673D02*
D03*
Y108642D02*
D03*
Y110610D02*
D03*
Y112579D02*
D03*
Y114547D02*
D03*
X56462D02*
D03*
Y112579D02*
D03*
Y110610D02*
D03*
Y108642D02*
D03*
Y106673D02*
D03*
Y104705D02*
D03*
Y102736D02*
D03*
Y100768D02*
D03*
X273195D02*
D03*
Y102736D02*
D03*
Y104705D02*
D03*
Y106673D02*
D03*
Y108642D02*
D03*
Y110610D02*
D03*
Y112579D02*
D03*
Y114547D02*
D03*
X296226D02*
D03*
Y112579D02*
D03*
Y110610D02*
D03*
Y108642D02*
D03*
Y106673D02*
D03*
Y104705D02*
D03*
Y102736D02*
D03*
Y100768D02*
D03*
X368470D02*
D03*
Y102736D02*
D03*
Y104705D02*
D03*
Y106673D02*
D03*
Y108642D02*
D03*
Y110610D02*
D03*
Y112579D02*
D03*
Y114547D02*
D03*
X345439D02*
D03*
Y112579D02*
D03*
Y110610D02*
D03*
Y108642D02*
D03*
Y106673D02*
D03*
Y104705D02*
D03*
Y102736D02*
D03*
Y100768D02*
D03*
X128706D02*
D03*
Y102736D02*
D03*
Y104705D02*
D03*
Y106673D02*
D03*
Y108642D02*
D03*
Y110610D02*
D03*
Y112579D02*
D03*
Y114547D02*
D03*
X151738D02*
D03*
Y112579D02*
D03*
Y110610D02*
D03*
Y108642D02*
D03*
Y106673D02*
D03*
Y104705D02*
D03*
Y102736D02*
D03*
Y100768D02*
D03*
X223982D02*
D03*
Y102736D02*
D03*
Y104705D02*
D03*
Y106673D02*
D03*
Y108642D02*
D03*
Y110610D02*
D03*
Y112579D02*
D03*
Y114547D02*
D03*
X200950D02*
D03*
Y112579D02*
D03*
Y110610D02*
D03*
Y108642D02*
D03*
Y106673D02*
D03*
Y104705D02*
D03*
Y102736D02*
D03*
Y100768D02*
D03*
X79494Y505768D02*
D03*
Y507736D02*
D03*
Y509705D02*
D03*
Y511673D02*
D03*
Y513642D02*
D03*
Y515610D02*
D03*
Y517579D02*
D03*
Y519547D02*
D03*
X56462D02*
D03*
Y517579D02*
D03*
Y515610D02*
D03*
Y513642D02*
D03*
Y511673D02*
D03*
Y509705D02*
D03*
Y507736D02*
D03*
Y505768D02*
D03*
X273195D02*
D03*
Y507736D02*
D03*
Y509705D02*
D03*
Y511673D02*
D03*
Y513642D02*
D03*
Y515610D02*
D03*
Y517579D02*
D03*
Y519547D02*
D03*
X296226D02*
D03*
Y517579D02*
D03*
Y515610D02*
D03*
Y513642D02*
D03*
Y511673D02*
D03*
Y509705D02*
D03*
Y507736D02*
D03*
Y505768D02*
D03*
X368470D02*
D03*
Y507736D02*
D03*
Y509705D02*
D03*
Y511673D02*
D03*
Y513642D02*
D03*
Y515610D02*
D03*
Y517579D02*
D03*
Y519547D02*
D03*
X345439D02*
D03*
Y517579D02*
D03*
Y515610D02*
D03*
Y513642D02*
D03*
Y511673D02*
D03*
Y509705D02*
D03*
Y507736D02*
D03*
Y505768D02*
D03*
X128706D02*
D03*
Y507736D02*
D03*
Y509705D02*
D03*
Y511673D02*
D03*
Y513642D02*
D03*
Y515610D02*
D03*
Y517579D02*
D03*
Y519547D02*
D03*
X151738D02*
D03*
Y517579D02*
D03*
Y515610D02*
D03*
Y513642D02*
D03*
Y511673D02*
D03*
Y509705D02*
D03*
Y507736D02*
D03*
Y505768D02*
D03*
X223982D02*
D03*
Y507736D02*
D03*
Y509705D02*
D03*
Y511673D02*
D03*
Y513642D02*
D03*
Y515610D02*
D03*
Y517579D02*
D03*
Y519547D02*
D03*
X200950D02*
D03*
Y517579D02*
D03*
Y515610D02*
D03*
Y513642D02*
D03*
Y511673D02*
D03*
Y509705D02*
D03*
Y507736D02*
D03*
Y505768D02*
D03*
G54D196*
X240543Y347057D02*
D03*
X245543D02*
D03*
X250543D02*
D03*
X255543D02*
D03*
X169994Y355057D02*
D03*
X164994D02*
D03*
X159994D02*
D03*
X154994D02*
D03*
X114894D02*
D03*
X119894D02*
D03*
X124894D02*
D03*
X129894D02*
D03*
X90043D02*
D03*
X85043D02*
D03*
X80043D02*
D03*
X75043D02*
D03*
X240543Y752057D02*
D03*
X245543D02*
D03*
X250543D02*
D03*
X255543D02*
D03*
X169994Y760057D02*
D03*
X164994D02*
D03*
X159994D02*
D03*
X154994D02*
D03*
X114894D02*
D03*
X119894D02*
D03*
X124894D02*
D03*
X129894D02*
D03*
X90043D02*
D03*
X85043D02*
D03*
X80043D02*
D03*
X75043D02*
D03*
G54D197*
X323524Y295000D02*
D03*
X326279D02*
D03*
X286024Y294508D02*
D03*
X288779D02*
D03*
X369882Y295591D02*
D03*
X367126D02*
D03*
X392547Y239095D02*
D03*
X389791D02*
D03*
X323524Y700000D02*
D03*
X326279D02*
D03*
X286024Y699508D02*
D03*
X288779D02*
D03*
X369882Y700591D02*
D03*
X367126D02*
D03*
X392547Y644095D02*
D03*
X389791D02*
D03*
G54D198*
X163885Y208592D02*
D03*
X160095D02*
D03*
X90211Y259169D02*
D03*
X86421D02*
D03*
X361841Y131398D02*
D03*
X358051D02*
D03*
X265394Y274794D02*
D03*
X261604D02*
D03*
X163194Y228642D02*
D03*
X159404D02*
D03*
X116194Y260794D02*
D03*
X119983D02*
D03*
X188128Y188248D02*
D03*
X184339D02*
D03*
X129394Y260794D02*
D03*
X125604D02*
D03*
X261218Y266260D02*
D03*
X265008D02*
D03*
X196101Y192382D02*
D03*
X192311D02*
D03*
X361841Y138091D02*
D03*
X358051D02*
D03*
X255409Y186819D02*
D03*
X259198D02*
D03*
X259207Y190793D02*
D03*
X255418D02*
D03*
X255389Y179340D02*
D03*
X259178D02*
D03*
X37558Y356713D02*
D03*
X33768D02*
D03*
X423652Y395457D02*
D03*
X419862D02*
D03*
X414694Y58194D02*
D03*
X410904D02*
D03*
X312700Y239282D02*
D03*
X308910D02*
D03*
X301446Y191916D02*
D03*
X297656D02*
D03*
X248494Y311794D02*
D03*
X252284D02*
D03*
X163698Y200807D02*
D03*
X167488D02*
D03*
X61394Y213842D02*
D03*
X65184D02*
D03*
X61394Y209742D02*
D03*
X65184D02*
D03*
X60495Y186142D02*
D03*
X64284D02*
D03*
X64294Y173942D02*
D03*
X60504D02*
D03*
X64294Y177942D02*
D03*
X60504D02*
D03*
X322989Y239253D02*
D03*
X326779D02*
D03*
X79708Y324988D02*
D03*
X83498D02*
D03*
X79709Y329094D02*
D03*
X83499D02*
D03*
X134250Y353760D02*
D03*
X138039D02*
D03*
X93597Y352486D02*
D03*
X97387D02*
D03*
X83526Y333084D02*
D03*
X79737D02*
D03*
X89494Y282694D02*
D03*
X93283D02*
D03*
X89494Y287094D02*
D03*
X93283D02*
D03*
X144994Y284394D02*
D03*
X148784D02*
D03*
X144894Y278894D02*
D03*
X148684D02*
D03*
X155994Y259694D02*
D03*
X152204D02*
D03*
X236894Y336994D02*
D03*
X233104D02*
D03*
X296620Y226575D02*
D03*
X292830D02*
D03*
X296641Y239153D02*
D03*
X292851D02*
D03*
X288469Y225996D02*
D03*
X284679D02*
D03*
X75094Y345994D02*
D03*
X78883D02*
D03*
X335530Y226439D02*
D03*
X331740D02*
D03*
X322635Y226791D02*
D03*
X326425D02*
D03*
X312687Y226908D02*
D03*
X308898D02*
D03*
X61994Y124342D02*
D03*
X65784D02*
D03*
X72894Y139042D02*
D03*
X69104D02*
D03*
X213894Y144142D02*
D03*
X217684D02*
D03*
X141694Y144242D02*
D03*
X145484D02*
D03*
X60365Y150689D02*
D03*
X56575D02*
D03*
X39663Y166260D02*
D03*
X43453D02*
D03*
X69094Y143142D02*
D03*
X72883D02*
D03*
X287267Y238948D02*
D03*
X283477D02*
D03*
X213694Y302694D02*
D03*
X217483D02*
D03*
X208294Y302594D02*
D03*
X204504D02*
D03*
X292846Y183264D02*
D03*
X289056D02*
D03*
X286094Y144142D02*
D03*
X289883D02*
D03*
X289894Y139942D02*
D03*
X286104D02*
D03*
X289894Y131742D02*
D03*
X286104D02*
D03*
X278594Y124542D02*
D03*
X282383D02*
D03*
X348945Y238610D02*
D03*
X345156D02*
D03*
X346836Y226442D02*
D03*
X343046D02*
D03*
X312361Y183288D02*
D03*
X308571D02*
D03*
X358041Y141437D02*
D03*
X361831D02*
D03*
X358836Y230728D02*
D03*
X362626D02*
D03*
X362656Y234567D02*
D03*
X358866D02*
D03*
X358856Y226791D02*
D03*
X362646D02*
D03*
X381100Y229843D02*
D03*
X384890D02*
D03*
X384900Y233780D02*
D03*
X381110D02*
D03*
X381100Y225807D02*
D03*
X384890D02*
D03*
X350794Y124542D02*
D03*
X354584D02*
D03*
X72894Y131142D02*
D03*
X69104D02*
D03*
X145494Y140142D02*
D03*
X141704D02*
D03*
X145594Y132042D02*
D03*
X141804D02*
D03*
X134294Y124442D02*
D03*
X138084D02*
D03*
X217694Y140042D02*
D03*
X213904D02*
D03*
X217794Y131942D02*
D03*
X214004D02*
D03*
X206594Y124442D02*
D03*
X210384D02*
D03*
X65550Y306808D02*
D03*
X61760D02*
D03*
X80707Y309658D02*
D03*
X84497D02*
D03*
X335568Y239216D02*
D03*
X331778D02*
D03*
X347458Y420079D02*
D03*
X351248D02*
D03*
X341908Y422244D02*
D03*
X338118D02*
D03*
X337828Y418212D02*
D03*
X334038D02*
D03*
X273076Y343602D02*
D03*
X276866D02*
D03*
X163885Y613592D02*
D03*
X160095D02*
D03*
X90211Y664169D02*
D03*
X86421D02*
D03*
X361841Y536398D02*
D03*
X358051D02*
D03*
X265394Y679794D02*
D03*
X261604D02*
D03*
X163194Y633642D02*
D03*
X159404D02*
D03*
X116194Y665794D02*
D03*
X119983D02*
D03*
X188128Y593248D02*
D03*
X184339D02*
D03*
X129394Y665794D02*
D03*
X125604D02*
D03*
X261218Y671260D02*
D03*
X265008D02*
D03*
X196101Y597382D02*
D03*
X192311D02*
D03*
X361841Y543090D02*
D03*
X358051D02*
D03*
X255409Y591819D02*
D03*
X259198D02*
D03*
X259207Y595793D02*
D03*
X255418D02*
D03*
X255389Y584340D02*
D03*
X259178D02*
D03*
X37558Y761713D02*
D03*
X33768D02*
D03*
X423652Y800457D02*
D03*
X419862D02*
D03*
X414694Y463194D02*
D03*
X410904D02*
D03*
X312700Y644281D02*
D03*
X308910D02*
D03*
X301446Y596916D02*
D03*
X297656D02*
D03*
X248494Y716794D02*
D03*
X252284D02*
D03*
X163698Y605807D02*
D03*
X167488D02*
D03*
X61394Y618842D02*
D03*
X65184D02*
D03*
X61394Y614742D02*
D03*
X65184D02*
D03*
X60495Y591142D02*
D03*
X64284D02*
D03*
X64294Y578942D02*
D03*
X60504D02*
D03*
X64294Y582942D02*
D03*
X60504D02*
D03*
X322989Y644253D02*
D03*
X326779D02*
D03*
X79708Y729988D02*
D03*
X83498D02*
D03*
X79709Y734094D02*
D03*
X83499D02*
D03*
X134250Y758760D02*
D03*
X138039D02*
D03*
X93597Y757486D02*
D03*
X97387D02*
D03*
X83526Y738084D02*
D03*
X79737D02*
D03*
X89494Y687694D02*
D03*
X93283D02*
D03*
X89494Y692094D02*
D03*
X93283D02*
D03*
X144994Y689394D02*
D03*
X148784D02*
D03*
X144894Y683894D02*
D03*
X148684D02*
D03*
X155994Y664694D02*
D03*
X152204D02*
D03*
X236894Y741994D02*
D03*
X233104D02*
D03*
X296620Y631575D02*
D03*
X292830D02*
D03*
X296641Y644153D02*
D03*
X292851D02*
D03*
X288469Y630996D02*
D03*
X284679D02*
D03*
X75094Y750994D02*
D03*
X78883D02*
D03*
X335530Y631439D02*
D03*
X331740D02*
D03*
X322635Y631791D02*
D03*
X326425D02*
D03*
X312687Y631908D02*
D03*
X308898D02*
D03*
X61994Y529342D02*
D03*
X65784D02*
D03*
X72894Y544042D02*
D03*
X69104D02*
D03*
X213894Y549142D02*
D03*
X217684D02*
D03*
X141694Y549242D02*
D03*
X145484D02*
D03*
X60365Y555689D02*
D03*
X56575D02*
D03*
X39663Y571260D02*
D03*
X43453D02*
D03*
X69094Y548142D02*
D03*
X72883D02*
D03*
X287267Y643948D02*
D03*
X283477D02*
D03*
X213694Y707694D02*
D03*
X217483D02*
D03*
X208294Y707594D02*
D03*
X204504D02*
D03*
X292846Y588264D02*
D03*
X289056D02*
D03*
X286094Y549142D02*
D03*
X289883D02*
D03*
X289894Y544942D02*
D03*
X286104D02*
D03*
X289894Y536742D02*
D03*
X286104D02*
D03*
X278594Y529542D02*
D03*
X282383D02*
D03*
X348945Y643610D02*
D03*
X345156D02*
D03*
X346836Y631442D02*
D03*
X343046D02*
D03*
X312361Y588287D02*
D03*
X308571D02*
D03*
X358041Y546437D02*
D03*
X361831D02*
D03*
X358836Y635728D02*
D03*
X362626D02*
D03*
X362656Y639567D02*
D03*
X358866D02*
D03*
X358856Y631791D02*
D03*
X362646D02*
D03*
X381100Y634843D02*
D03*
X384890D02*
D03*
X384900Y638780D02*
D03*
X381110D02*
D03*
X381100Y630807D02*
D03*
X384890D02*
D03*
X350794Y529542D02*
D03*
X354584D02*
D03*
X72894Y536142D02*
D03*
X69104D02*
D03*
X145494Y545142D02*
D03*
X141704D02*
D03*
X145594Y537042D02*
D03*
X141804D02*
D03*
X134294Y529442D02*
D03*
X138084D02*
D03*
X217694Y545042D02*
D03*
X213904D02*
D03*
X217794Y536942D02*
D03*
X214004D02*
D03*
X206594Y529442D02*
D03*
X210384D02*
D03*
X65550Y711808D02*
D03*
X61760D02*
D03*
X80707Y714657D02*
D03*
X84497D02*
D03*
X335568Y644216D02*
D03*
X331778D02*
D03*
X347458Y825079D02*
D03*
X351248D02*
D03*
X341908Y827244D02*
D03*
X338118D02*
D03*
X337828Y823212D02*
D03*
X334038D02*
D03*
X273076Y748602D02*
D03*
X276866D02*
D03*
G54D199*
X339398Y239685D02*
D03*
Y236929D02*
D03*
X303177Y239882D02*
D03*
Y237126D02*
D03*
X339398Y644685D02*
D03*
Y641929D02*
D03*
X303177Y644882D02*
D03*
Y642126D02*
D03*
G54D200*
X303472Y227480D02*
D03*
Y231024D02*
D03*
Y632480D02*
D03*
Y636024D02*
D03*
G54D201*
X48583Y209351D02*
D03*
Y205020D02*
D03*
Y200690D02*
D03*
Y196359D02*
D03*
Y192028D02*
D03*
Y187698D02*
D03*
Y183367D02*
D03*
Y179036D02*
D03*
Y614351D02*
D03*
Y610020D02*
D03*
Y605690D02*
D03*
Y601359D02*
D03*
Y597028D02*
D03*
Y592698D02*
D03*
Y588367D02*
D03*
Y584036D02*
D03*
G54D202*
X44450Y213780D02*
D03*
Y618780D02*
D03*
G54D203*
X34253Y213583D02*
D03*
Y618583D02*
D03*
G54D204*
X42717Y172639D02*
D03*
Y577639D02*
D03*
G54D205*
X38190Y171753D02*
D03*
Y576753D02*
D03*
G54D206*
X33662Y172540D02*
D03*
Y577540D02*
D03*
G54D207*
X421530Y384941D02*
D03*
X405756D02*
D03*
X206794Y387794D02*
D03*
X222568D02*
D03*
X425026Y126378D02*
D03*
X409252D02*
D03*
X265094Y381694D02*
D03*
X280868D02*
D03*
X421530Y789941D02*
D03*
X405756D02*
D03*
X206794Y792794D02*
D03*
X222568D02*
D03*
X425026Y531378D02*
D03*
X409252D02*
D03*
X265094Y786694D02*
D03*
X280868D02*
D03*
G54D208*
X305094Y321730D02*
D03*
Y301257D02*
D03*
Y726730D02*
D03*
Y706257D02*
D03*
G54D209*
X299114Y360630D02*
D03*
X311910D02*
D03*
X299114Y373721D02*
D03*
X311910D02*
D03*
X299114Y765630D02*
D03*
X311910D02*
D03*
X299114Y778721D02*
D03*
X311910D02*
D03*
G54D210*
X286906Y343012D02*
D03*
X281000Y335532D02*
D03*
X282968D02*
D03*
X284937D02*
D03*
X286906D02*
D03*
X281000Y343012D02*
D03*
X282968D02*
D03*
X284937D02*
D03*
X286906Y748012D02*
D03*
X281000Y740532D02*
D03*
X282968D02*
D03*
X284937D02*
D03*
X286906D02*
D03*
X281000Y748012D02*
D03*
X282968D02*
D03*
X284937D02*
D03*
G54D211*
X305264Y341850D02*
D03*
Y336496D02*
D03*
X337598Y386201D02*
D03*
Y391555D02*
D03*
X269061Y123071D02*
D03*
Y128425D02*
D03*
X196858Y123169D02*
D03*
Y128524D02*
D03*
X124606Y123110D02*
D03*
Y128465D02*
D03*
X341535Y129547D02*
D03*
Y124193D02*
D03*
X167694Y196719D02*
D03*
Y191365D02*
D03*
X163681Y312579D02*
D03*
Y317933D02*
D03*
X190191Y315563D02*
D03*
Y320918D02*
D03*
X61294Y200019D02*
D03*
Y194665D02*
D03*
X159994Y248519D02*
D03*
Y243165D02*
D03*
X52658Y123504D02*
D03*
Y128858D02*
D03*
X159994Y238419D02*
D03*
Y233065D02*
D03*
X305264Y746850D02*
D03*
Y741496D02*
D03*
X337598Y791201D02*
D03*
Y796555D02*
D03*
X269061Y528071D02*
D03*
Y533425D02*
D03*
X196858Y528169D02*
D03*
Y533524D02*
D03*
X124606Y528110D02*
D03*
Y533465D02*
D03*
X341535Y534547D02*
D03*
Y529193D02*
D03*
X167694Y601719D02*
D03*
Y596365D02*
D03*
X163681Y717579D02*
D03*
Y722933D02*
D03*
X190191Y720563D02*
D03*
Y725918D02*
D03*
X61294Y605019D02*
D03*
Y599665D02*
D03*
X159994Y653519D02*
D03*
Y648165D02*
D03*
X52658Y528504D02*
D03*
Y533858D02*
D03*
X159994Y643419D02*
D03*
Y638065D02*
D03*
G54D212*
X326248Y329429D02*
D03*
X320894D02*
D03*
X315815Y329528D02*
D03*
X310461D02*
D03*
X307500Y113976D02*
D03*
X302146D02*
D03*
X190047Y113839D02*
D03*
X195402D02*
D03*
X234527Y113813D02*
D03*
X229173D02*
D03*
X192210Y90905D02*
D03*
X186856D02*
D03*
X117705Y113937D02*
D03*
X123059D02*
D03*
X163012Y113976D02*
D03*
X157658D02*
D03*
X120000Y90945D02*
D03*
X114646D02*
D03*
X160323Y90906D02*
D03*
X165677D02*
D03*
X382368Y90905D02*
D03*
X377013D02*
D03*
X331344D02*
D03*
X336698D02*
D03*
X133471Y268894D02*
D03*
X128117D02*
D03*
Y319494D02*
D03*
X133471D02*
D03*
X286117Y366817D02*
D03*
X291471D02*
D03*
X66717Y390094D02*
D03*
X72071D02*
D03*
X189916Y390093D02*
D03*
X195271D02*
D03*
X92271Y390094D02*
D03*
X86916D02*
D03*
X127216Y390093D02*
D03*
X132571D02*
D03*
X172571Y390093D02*
D03*
X167216D02*
D03*
X188282Y293149D02*
D03*
X182928D02*
D03*
X147865Y260342D02*
D03*
X142511D02*
D03*
X326371Y323429D02*
D03*
X321017D02*
D03*
X421552Y150346D02*
D03*
X416197D02*
D03*
X52517Y352094D02*
D03*
X57871D02*
D03*
X217871Y379194D02*
D03*
X212516D02*
D03*
X82171Y390094D02*
D03*
X76816D02*
D03*
X122371D02*
D03*
X117016D02*
D03*
X157116Y390093D02*
D03*
X162471D02*
D03*
X262193Y113937D02*
D03*
X267547D02*
D03*
X264454Y90905D02*
D03*
X259100D02*
D03*
X304769D02*
D03*
X310124D02*
D03*
X379547Y113878D02*
D03*
X374193D02*
D03*
X334117Y113842D02*
D03*
X339471D02*
D03*
X90197Y113779D02*
D03*
X84842D02*
D03*
X45461Y113937D02*
D03*
X50815D02*
D03*
X47756Y90945D02*
D03*
X42402D02*
D03*
X88071D02*
D03*
X93425D02*
D03*
X232525Y90905D02*
D03*
X237879D02*
D03*
X250671Y390093D02*
D03*
X245317D02*
D03*
X267571D02*
D03*
X262217D02*
D03*
X326248Y734429D02*
D03*
X320894D02*
D03*
X315815Y734528D02*
D03*
X310461D02*
D03*
X307500Y518976D02*
D03*
X302146D02*
D03*
X190047Y518839D02*
D03*
X195402D02*
D03*
X234527Y518813D02*
D03*
X229173D02*
D03*
X192210Y495905D02*
D03*
X186856D02*
D03*
X117705Y518937D02*
D03*
X123059D02*
D03*
X163012Y518976D02*
D03*
X157658D02*
D03*
X120000Y495945D02*
D03*
X114646D02*
D03*
X160323Y495906D02*
D03*
X165677D02*
D03*
X382368Y495905D02*
D03*
X377013D02*
D03*
X331344D02*
D03*
X336698D02*
D03*
X133471Y673894D02*
D03*
X128117D02*
D03*
Y724494D02*
D03*
X133471D02*
D03*
X286117Y771817D02*
D03*
X291471D02*
D03*
X66717Y795094D02*
D03*
X72071D02*
D03*
X189916Y795093D02*
D03*
X195271D02*
D03*
X92271Y795094D02*
D03*
X86916D02*
D03*
X127216Y795093D02*
D03*
X132571D02*
D03*
X172571Y795093D02*
D03*
X167216D02*
D03*
X188282Y698149D02*
D03*
X182928D02*
D03*
X147865Y665342D02*
D03*
X142511D02*
D03*
X326371Y728429D02*
D03*
X321017D02*
D03*
X421552Y555346D02*
D03*
X416197D02*
D03*
X52517Y757094D02*
D03*
X57871D02*
D03*
X217871Y784194D02*
D03*
X212516D02*
D03*
X82171Y795094D02*
D03*
X76816D02*
D03*
X122371D02*
D03*
X117016D02*
D03*
X157116Y795093D02*
D03*
X162471D02*
D03*
X262193Y518937D02*
D03*
X267547D02*
D03*
X264454Y495905D02*
D03*
X259100D02*
D03*
X304769D02*
D03*
X310124D02*
D03*
X379547Y518878D02*
D03*
X374193D02*
D03*
X334117Y518842D02*
D03*
X339471D02*
D03*
X90197Y518780D02*
D03*
X84842D02*
D03*
X45461Y518937D02*
D03*
X50815D02*
D03*
X47756Y495945D02*
D03*
X42402D02*
D03*
X88071D02*
D03*
X93425D02*
D03*
X232525Y495905D02*
D03*
X237879D02*
D03*
X250671Y795093D02*
D03*
X245317D02*
D03*
X267571D02*
D03*
X262217D02*
D03*
G54D213*
X381791Y395669D02*
D03*
Y382874D02*
D03*
X394882Y395669D02*
D03*
Y382874D02*
D03*
X381791Y800669D02*
D03*
Y787874D02*
D03*
X394882Y800669D02*
D03*
Y787874D02*
D03*
G54D214*
X395594Y228807D02*
D03*
X388901D02*
D03*
X388843Y234445D02*
D03*
X395536D02*
D03*
X374339Y234075D02*
D03*
X367646D02*
D03*
X367744Y239390D02*
D03*
X374437D02*
D03*
X395594Y633807D02*
D03*
X388901D02*
D03*
X388843Y639445D02*
D03*
X395536D02*
D03*
X374339Y639075D02*
D03*
X367646D02*
D03*
X367744Y644390D02*
D03*
X374437D02*
D03*
G54D215*
X312846Y193588D02*
D03*
Y186895D02*
D03*
X307546Y186895D02*
D03*
Y193588D02*
D03*
X287646Y187169D02*
D03*
Y193862D02*
D03*
X293046Y193762D02*
D03*
Y187069D02*
D03*
X312846Y598588D02*
D03*
Y591895D02*
D03*
X307546Y591895D02*
D03*
Y598588D02*
D03*
X287646Y592169D02*
D03*
Y598862D02*
D03*
X293046Y598762D02*
D03*
Y592069D02*
D03*
G54D216*
X303780Y126279D02*
D03*
X309016D02*
D03*
X170118Y126181D02*
D03*
X175354D02*
D03*
X92264Y126279D02*
D03*
X97500D02*
D03*
X188212Y298494D02*
D03*
X182976D02*
D03*
X331929Y54724D02*
D03*
X337165D02*
D03*
X160999Y298487D02*
D03*
X155762D02*
D03*
X386949Y126279D02*
D03*
X392185D02*
D03*
X242264Y126181D02*
D03*
X247500D02*
D03*
X138236Y260000D02*
D03*
X132999D02*
D03*
X303780Y531280D02*
D03*
X309016D02*
D03*
X170118Y531181D02*
D03*
X175354D02*
D03*
X92264Y531280D02*
D03*
X97500D02*
D03*
X188212Y703494D02*
D03*
X182976D02*
D03*
X331929Y459724D02*
D03*
X337165D02*
D03*
X160999Y703487D02*
D03*
X155762D02*
D03*
X386949Y531280D02*
D03*
X392185D02*
D03*
X242264Y531181D02*
D03*
X247500D02*
D03*
X138236Y665000D02*
D03*
X132999D02*
D03*
G54D217*
X177559Y142618D02*
D03*
X157087D02*
D03*
X322047D02*
D03*
X301575D02*
D03*
X394291D02*
D03*
X373819D02*
D03*
X106398D02*
D03*
X85925D02*
D03*
X249705D02*
D03*
X229232D02*
D03*
X177559Y547618D02*
D03*
X157087D02*
D03*
X322047D02*
D03*
X301575D02*
D03*
X394291D02*
D03*
X373819D02*
D03*
X106398D02*
D03*
X85925D02*
D03*
X249705D02*
D03*
X229232D02*
D03*
G54D218*
X183935Y97894D02*
D03*
X195133D02*
D03*
X111724Y97933D02*
D03*
X122923D02*
D03*
X168815Y97953D02*
D03*
X157616D02*
D03*
X256179Y97894D02*
D03*
X267377D02*
D03*
X313143D02*
D03*
X301945D02*
D03*
X328386Y97854D02*
D03*
X339584D02*
D03*
X385449Y97953D02*
D03*
X374250D02*
D03*
X39480Y97933D02*
D03*
X50679D02*
D03*
X96472Y97953D02*
D03*
X85274D02*
D03*
X240961Y97854D02*
D03*
X229762D02*
D03*
X183935Y502894D02*
D03*
X195133D02*
D03*
X111724Y502933D02*
D03*
X122923D02*
D03*
X168815Y502953D02*
D03*
X157616D02*
D03*
X256179Y502894D02*
D03*
X267377D02*
D03*
X313143D02*
D03*
X301945D02*
D03*
X328386Y502854D02*
D03*
X339584D02*
D03*
X385449Y502953D02*
D03*
X374250D02*
D03*
X39480Y502933D02*
D03*
X50679D02*
D03*
X96472Y502953D02*
D03*
X85274D02*
D03*
X240961Y502854D02*
D03*
X229762D02*
D03*
G54D219*
X95866Y69095D02*
D03*
Y80512D02*
D03*
X49831Y76595D02*
D03*
Y65177D02*
D03*
X87331Y80532D02*
D03*
Y69114D02*
D03*
X185854Y65276D02*
D03*
Y76693D02*
D03*
X194417D02*
D03*
Y65276D02*
D03*
X240382Y69016D02*
D03*
Y80433D02*
D03*
X231819D02*
D03*
Y69016D02*
D03*
X330343Y65276D02*
D03*
Y76693D02*
D03*
X338906D02*
D03*
Y65276D02*
D03*
X384772Y69114D02*
D03*
Y80532D02*
D03*
X376209D02*
D03*
Y69114D02*
D03*
X258037Y65118D02*
D03*
Y76535D02*
D03*
X266563Y76496D02*
D03*
Y65079D02*
D03*
X312626Y69114D02*
D03*
Y80532D02*
D03*
X304063D02*
D03*
Y69114D02*
D03*
X113512Y65177D02*
D03*
Y76595D02*
D03*
X122075D02*
D03*
Y65177D02*
D03*
X168110Y69095D02*
D03*
Y80512D02*
D03*
X159575Y80532D02*
D03*
Y69114D02*
D03*
X41339Y65158D02*
D03*
Y76575D02*
D03*
X95866Y474094D02*
D03*
Y485512D02*
D03*
X49831Y481595D02*
D03*
Y470177D02*
D03*
X87331Y485532D02*
D03*
Y474114D02*
D03*
X185854Y470276D02*
D03*
Y481693D02*
D03*
X194417D02*
D03*
Y470276D02*
D03*
X240382Y474016D02*
D03*
Y485433D02*
D03*
X231819D02*
D03*
Y474016D02*
D03*
X330343Y470276D02*
D03*
Y481693D02*
D03*
X338906D02*
D03*
Y470276D02*
D03*
X384772Y474114D02*
D03*
Y485532D02*
D03*
X376209D02*
D03*
Y474114D02*
D03*
X258037Y470118D02*
D03*
Y481535D02*
D03*
X266563Y481496D02*
D03*
Y470079D02*
D03*
X312626Y474114D02*
D03*
Y485532D02*
D03*
X304063D02*
D03*
Y474114D02*
D03*
X113512Y470177D02*
D03*
Y481595D02*
D03*
X122075D02*
D03*
Y470177D02*
D03*
X168110Y474094D02*
D03*
Y485512D02*
D03*
X159575Y485532D02*
D03*
Y474114D02*
D03*
X41339Y470157D02*
D03*
Y481575D02*
D03*
G54D220*
X77739Y262217D02*
D03*
Y267453D02*
D03*
X158689Y191201D02*
D03*
Y196437D02*
D03*
X389894Y59230D02*
D03*
Y53994D02*
D03*
X379894Y59230D02*
D03*
Y53994D02*
D03*
X369894Y59230D02*
D03*
Y53994D02*
D03*
X359894Y59230D02*
D03*
Y53994D02*
D03*
X320394Y59230D02*
D03*
Y53994D02*
D03*
X310394Y59212D02*
D03*
Y53976D02*
D03*
X300394Y59230D02*
D03*
Y53994D02*
D03*
X220394Y59230D02*
D03*
Y53994D02*
D03*
X210394Y59230D02*
D03*
Y53994D02*
D03*
X200394Y59212D02*
D03*
Y53976D02*
D03*
X190394Y59230D02*
D03*
Y53994D02*
D03*
X160894Y59230D02*
D03*
Y53994D02*
D03*
X150894Y59294D02*
D03*
Y54058D02*
D03*
X140694Y59294D02*
D03*
Y54058D02*
D03*
X130894Y59212D02*
D03*
Y53976D02*
D03*
X400689Y150630D02*
D03*
Y155866D02*
D03*
X90894Y59194D02*
D03*
Y53957D02*
D03*
X100694Y59712D02*
D03*
Y54476D02*
D03*
X80794Y59594D02*
D03*
Y54357D02*
D03*
X70894Y59212D02*
D03*
Y53976D02*
D03*
X77739Y667217D02*
D03*
Y672453D02*
D03*
X158689Y596201D02*
D03*
Y601437D02*
D03*
X389894Y464230D02*
D03*
Y458994D02*
D03*
X379894Y464230D02*
D03*
Y458994D02*
D03*
X369894Y464230D02*
D03*
Y458994D02*
D03*
X359894Y464230D02*
D03*
Y458994D02*
D03*
X320394Y464230D02*
D03*
Y458994D02*
D03*
X310394Y464212D02*
D03*
Y458976D02*
D03*
X300394Y464230D02*
D03*
Y458994D02*
D03*
X220394Y464230D02*
D03*
Y458994D02*
D03*
X210394Y464230D02*
D03*
Y458994D02*
D03*
X200394Y464212D02*
D03*
Y458976D02*
D03*
X190394Y464230D02*
D03*
Y458994D02*
D03*
X160894Y464230D02*
D03*
Y458994D02*
D03*
X150894Y464294D02*
D03*
Y459058D02*
D03*
X140694Y464294D02*
D03*
Y459058D02*
D03*
X130894Y464212D02*
D03*
Y458976D02*
D03*
X400689Y555630D02*
D03*
Y560866D02*
D03*
X90894Y464194D02*
D03*
Y458957D02*
D03*
X100694Y464712D02*
D03*
Y459476D02*
D03*
X80794Y464594D02*
D03*
Y459358D02*
D03*
X70894Y464212D02*
D03*
Y458976D02*
D03*
G54D221*
X383907Y419889D02*
D03*
Y411158D02*
D03*
X150594Y391294D02*
D03*
Y382563D02*
D03*
X110794Y391294D02*
D03*
Y382563D02*
D03*
X383907Y824889D02*
D03*
Y816158D02*
D03*
X150594Y796294D02*
D03*
Y787563D02*
D03*
X110794Y796294D02*
D03*
Y787563D02*
D03*
G54D222*
X48994Y360994D02*
D03*
X57331Y364794D02*
D03*
Y357254D02*
D03*
X194094Y368994D02*
D03*
X202431Y372794D02*
D03*
Y365253D02*
D03*
X48994Y765994D02*
D03*
X57331Y769794D02*
D03*
Y762254D02*
D03*
X194094Y773994D02*
D03*
X202431Y777794D02*
D03*
Y770254D02*
D03*
G54D223*
X229594Y389194D02*
D03*
X238324D02*
D03*
X69494Y383094D02*
D03*
X78224D02*
D03*
X30754Y362420D02*
D03*
X39485D02*
D03*
X33263Y291594D02*
D03*
X41994D02*
D03*
X204166Y379180D02*
D03*
X195435D02*
D03*
X229594Y794194D02*
D03*
X238324D02*
D03*
X69494Y788094D02*
D03*
X78224D02*
D03*
X30754Y767420D02*
D03*
X39485D02*
D03*
X33263Y696594D02*
D03*
X41994D02*
D03*
X204166Y784180D02*
D03*
X195435D02*
D03*
G54D224*
X233053Y332245D02*
D03*
X236794D02*
D03*
X240534D02*
D03*
Y322205D02*
D03*
X236794D02*
D03*
X233053D02*
D03*
Y737245D02*
D03*
X236794D02*
D03*
X240534D02*
D03*
Y727206D02*
D03*
X236794D02*
D03*
X233053D02*
D03*
G54D225*
X179494Y357053D02*
D03*
Y360794D02*
D03*
Y364534D02*
D03*
X189533D02*
D03*
Y360794D02*
D03*
Y357053D02*
D03*
X139429Y356988D02*
D03*
Y360728D02*
D03*
Y364469D02*
D03*
X149469D02*
D03*
Y360728D02*
D03*
Y356988D02*
D03*
X99272D02*
D03*
Y360728D02*
D03*
Y364469D02*
D03*
X109311D02*
D03*
Y360728D02*
D03*
Y356988D02*
D03*
X83102Y337441D02*
D03*
Y341181D02*
D03*
Y344921D02*
D03*
X93141D02*
D03*
Y341181D02*
D03*
Y337441D02*
D03*
X212174Y365953D02*
D03*
Y369694D02*
D03*
Y373434D02*
D03*
X222213D02*
D03*
Y369694D02*
D03*
Y365953D02*
D03*
X179494Y762053D02*
D03*
Y765794D02*
D03*
Y769534D02*
D03*
X189533D02*
D03*
Y765794D02*
D03*
Y762053D02*
D03*
X139429Y761988D02*
D03*
Y765728D02*
D03*
Y769468D02*
D03*
X149469D02*
D03*
Y765728D02*
D03*
Y761988D02*
D03*
X99272D02*
D03*
Y765728D02*
D03*
Y769468D02*
D03*
X109311D02*
D03*
Y765728D02*
D03*
Y761988D02*
D03*
X83102Y742441D02*
D03*
Y746181D02*
D03*
Y749921D02*
D03*
X93141D02*
D03*
Y746181D02*
D03*
Y742441D02*
D03*
X212174Y770954D02*
D03*
Y774694D02*
D03*
Y778434D02*
D03*
X222213D02*
D03*
Y774694D02*
D03*
Y770954D02*
D03*
G54D226*
X292410Y359694D02*
D03*
X281977D02*
D03*
X422291Y143546D02*
D03*
X411858D02*
D03*
X292410Y764694D02*
D03*
X281977D02*
D03*
X422291Y548546D02*
D03*
X411858D02*
D03*
G54D227*
X323694Y302783D02*
D03*
Y313216D02*
D03*
Y707783D02*
D03*
Y718216D02*
D03*
G54D228*
X312090Y231117D02*
D03*
X308547D02*
D03*
X326933Y234967D02*
D03*
X323390D02*
D03*
X334941Y230763D02*
D03*
X331398D02*
D03*
X292556Y230890D02*
D03*
X296100D02*
D03*
X287097Y230510D02*
D03*
X283554D02*
D03*
X64765Y205635D02*
D03*
X61222D02*
D03*
X60422Y190142D02*
D03*
X63965D02*
D03*
Y165871D02*
D03*
X60422D02*
D03*
Y182042D02*
D03*
X63965D02*
D03*
Y169942D02*
D03*
X60422D02*
D03*
X342860Y230453D02*
D03*
X346403D02*
D03*
X135665Y158194D02*
D03*
X132122D02*
D03*
X373453Y225512D02*
D03*
X369910D02*
D03*
Y229646D02*
D03*
X373453D02*
D03*
X51144Y166447D02*
D03*
X47601D02*
D03*
X61222Y217842D02*
D03*
X64765D02*
D03*
X312090Y636117D02*
D03*
X308547D02*
D03*
X326933Y639967D02*
D03*
X323390D02*
D03*
X334941Y635763D02*
D03*
X331398D02*
D03*
X292556Y635890D02*
D03*
X296100D02*
D03*
X287097Y635510D02*
D03*
X283554D02*
D03*
X64765Y610635D02*
D03*
X61222D02*
D03*
X60422Y595142D02*
D03*
X63965D02*
D03*
Y570871D02*
D03*
X60422D02*
D03*
Y587042D02*
D03*
X63965D02*
D03*
Y574942D02*
D03*
X60422D02*
D03*
X342860Y635453D02*
D03*
X346403D02*
D03*
X135665Y563194D02*
D03*
X132122D02*
D03*
X373453Y630512D02*
D03*
X369910D02*
D03*
Y634646D02*
D03*
X373453D02*
D03*
X51144Y571447D02*
D03*
X47601D02*
D03*
X61222Y622842D02*
D03*
X64765D02*
D03*
G54D229*
X39495Y303270D02*
D03*
X31161D02*
D03*
Y309370D02*
D03*
X39495D02*
D03*
X163594Y384294D02*
D03*
X171927D02*
D03*
X132027D02*
D03*
X123694D02*
D03*
X83494D02*
D03*
X91827D02*
D03*
X31161Y315470D02*
D03*
X39495D02*
D03*
Y708270D02*
D03*
X31161D02*
D03*
Y714370D02*
D03*
X39495D02*
D03*
X163594Y789294D02*
D03*
X171927D02*
D03*
X132027D02*
D03*
X123694D02*
D03*
X83494D02*
D03*
X91827D02*
D03*
X31161Y720470D02*
D03*
X39495D02*
D03*
G54D230*
X256494Y390127D02*
D03*
Y381794D02*
D03*
X61694Y381760D02*
D03*
Y390094D02*
D03*
X190369Y375591D02*
D03*
Y383925D02*
D03*
X256494Y795127D02*
D03*
Y786794D02*
D03*
X61694Y786760D02*
D03*
Y795094D02*
D03*
X190369Y780591D02*
D03*
Y788925D02*
D03*
G54D231*
X180694Y388768D02*
D03*
Y372994D02*
D03*
X140694Y373194D02*
D03*
Y388968D02*
D03*
X100794D02*
D03*
Y373194D02*
D03*
X65694Y357820D02*
D03*
Y373594D02*
D03*
X180694Y793768D02*
D03*
Y777994D02*
D03*
X140694Y778194D02*
D03*
Y793968D02*
D03*
X100794D02*
D03*
Y778194D02*
D03*
X65694Y762820D02*
D03*
Y778594D02*
D03*
G54D232*
X312008Y163169D02*
D03*
Y168169D02*
D03*
Y173169D02*
D03*
Y178169D02*
D03*
X290748Y163169D02*
D03*
Y168169D02*
D03*
Y173169D02*
D03*
Y178169D02*
D03*
X312008Y568169D02*
D03*
Y573169D02*
D03*
Y578169D02*
D03*
Y583169D02*
D03*
X290748Y568169D02*
D03*
Y573169D02*
D03*
Y578169D02*
D03*
Y583169D02*
D03*
G54D233*
X201294Y310502D02*
D03*
Y326486D02*
D03*
X206294Y310502D02*
D03*
Y326486D02*
D03*
X211294Y310502D02*
D03*
Y326486D02*
D03*
X216294Y310502D02*
D03*
Y326486D02*
D03*
X221294Y310502D02*
D03*
Y326486D02*
D03*
X201294Y715502D02*
D03*
Y731486D02*
D03*
X206294Y715502D02*
D03*
Y731486D02*
D03*
X211294Y715502D02*
D03*
Y731486D02*
D03*
X216294Y715502D02*
D03*
Y731486D02*
D03*
X221294Y715502D02*
D03*
Y731486D02*
D03*
G54D234*
X280490Y317895D02*
D03*
X282458D02*
D03*
X284427D02*
D03*
Y323013D02*
D03*
X282458D02*
D03*
X280490D02*
D03*
Y722894D02*
D03*
X282458D02*
D03*
X284427D02*
D03*
Y728013D02*
D03*
X282458D02*
D03*
X280490D02*
D03*
G54D235*
X255429Y274553D02*
D03*
Y272584D02*
D03*
Y270616D02*
D03*
Y268647D02*
D03*
Y266679D02*
D03*
Y264710D02*
D03*
Y262742D02*
D03*
Y260773D02*
D03*
Y258805D02*
D03*
Y256836D02*
D03*
Y254868D02*
D03*
Y252899D02*
D03*
Y250931D02*
D03*
Y248962D02*
D03*
Y246994D02*
D03*
Y245025D02*
D03*
Y243057D02*
D03*
Y241088D02*
D03*
Y239120D02*
D03*
Y237151D02*
D03*
Y235183D02*
D03*
Y233214D02*
D03*
Y231246D02*
D03*
Y229277D02*
D03*
Y227309D02*
D03*
Y225340D02*
D03*
Y223372D02*
D03*
Y221403D02*
D03*
Y219435D02*
D03*
Y217466D02*
D03*
Y215498D02*
D03*
Y213529D02*
D03*
Y211561D02*
D03*
Y209592D02*
D03*
Y207624D02*
D03*
Y205655D02*
D03*
X172358D02*
D03*
Y207624D02*
D03*
Y209592D02*
D03*
Y211561D02*
D03*
Y213529D02*
D03*
Y215498D02*
D03*
Y217466D02*
D03*
Y219435D02*
D03*
Y221403D02*
D03*
Y223372D02*
D03*
Y225340D02*
D03*
Y227309D02*
D03*
Y229277D02*
D03*
Y231246D02*
D03*
Y233214D02*
D03*
Y235183D02*
D03*
Y237151D02*
D03*
Y239120D02*
D03*
Y241088D02*
D03*
Y243057D02*
D03*
Y245025D02*
D03*
Y246994D02*
D03*
Y248962D02*
D03*
Y250931D02*
D03*
Y252899D02*
D03*
Y254868D02*
D03*
Y256836D02*
D03*
Y258805D02*
D03*
Y260773D02*
D03*
Y262742D02*
D03*
Y264710D02*
D03*
Y266679D02*
D03*
Y268647D02*
D03*
Y270616D02*
D03*
Y272584D02*
D03*
Y274553D02*
D03*
X255429Y679553D02*
D03*
Y677584D02*
D03*
Y675616D02*
D03*
Y673647D02*
D03*
Y671679D02*
D03*
Y669710D02*
D03*
Y667742D02*
D03*
Y665773D02*
D03*
Y663805D02*
D03*
Y661836D02*
D03*
Y659868D02*
D03*
Y657899D02*
D03*
Y655931D02*
D03*
Y653962D02*
D03*
Y651994D02*
D03*
Y650025D02*
D03*
Y648057D02*
D03*
Y646088D02*
D03*
Y644120D02*
D03*
Y642151D02*
D03*
Y640183D02*
D03*
Y638214D02*
D03*
Y636246D02*
D03*
Y634277D02*
D03*
Y632309D02*
D03*
Y630340D02*
D03*
Y628372D02*
D03*
Y626403D02*
D03*
Y624435D02*
D03*
Y622466D02*
D03*
Y620498D02*
D03*
Y618529D02*
D03*
Y616561D02*
D03*
Y614592D02*
D03*
Y612624D02*
D03*
Y610655D02*
D03*
X172358D02*
D03*
Y612624D02*
D03*
Y614592D02*
D03*
Y616561D02*
D03*
Y618529D02*
D03*
Y620498D02*
D03*
Y622466D02*
D03*
Y624435D02*
D03*
Y626403D02*
D03*
Y628372D02*
D03*
Y630340D02*
D03*
Y632309D02*
D03*
Y634277D02*
D03*
Y636246D02*
D03*
Y638214D02*
D03*
Y640183D02*
D03*
Y642151D02*
D03*
Y644120D02*
D03*
Y646088D02*
D03*
Y648057D02*
D03*
Y650025D02*
D03*
Y651994D02*
D03*
Y653962D02*
D03*
Y655931D02*
D03*
Y657899D02*
D03*
Y659868D02*
D03*
Y661836D02*
D03*
Y663805D02*
D03*
Y665773D02*
D03*
Y667742D02*
D03*
Y669710D02*
D03*
Y671679D02*
D03*
Y673647D02*
D03*
Y675616D02*
D03*
Y677584D02*
D03*
Y679553D02*
D03*
G54D236*
X248342Y198568D02*
D03*
X246374D02*
D03*
X244406D02*
D03*
X242437D02*
D03*
X240469D02*
D03*
X238500D02*
D03*
X236531D02*
D03*
X234563D02*
D03*
X232594D02*
D03*
X230626D02*
D03*
X228658D02*
D03*
X226689D02*
D03*
X224721D02*
D03*
X222752D02*
D03*
X220783D02*
D03*
X218815D02*
D03*
X216846D02*
D03*
X214878D02*
D03*
X212910D02*
D03*
X210941D02*
D03*
X208972D02*
D03*
X207004D02*
D03*
X205035D02*
D03*
X203067D02*
D03*
X201098D02*
D03*
X199130D02*
D03*
X197161D02*
D03*
X195193D02*
D03*
X193224D02*
D03*
X191256D02*
D03*
X189287D02*
D03*
X187319D02*
D03*
X185350D02*
D03*
X183382D02*
D03*
X181413D02*
D03*
X179445D02*
D03*
Y281639D02*
D03*
X181413D02*
D03*
X183382D02*
D03*
X185350D02*
D03*
X187319D02*
D03*
X189287D02*
D03*
X191256D02*
D03*
X193224D02*
D03*
X195193D02*
D03*
X197161D02*
D03*
X199130D02*
D03*
X201098D02*
D03*
X203067D02*
D03*
X205035D02*
D03*
X207004D02*
D03*
X208972D02*
D03*
X210941D02*
D03*
X212910D02*
D03*
X214878D02*
D03*
X216846D02*
D03*
X218815D02*
D03*
X220783D02*
D03*
X222752D02*
D03*
X224721D02*
D03*
X226689D02*
D03*
X228658D02*
D03*
X230626D02*
D03*
X232594D02*
D03*
X234563D02*
D03*
X236531D02*
D03*
X238500D02*
D03*
X240469D02*
D03*
X242437D02*
D03*
X244406D02*
D03*
X246374D02*
D03*
X248342D02*
D03*
Y603569D02*
D03*
X246374D02*
D03*
X244406D02*
D03*
X242437D02*
D03*
X240469D02*
D03*
X238500D02*
D03*
X236531D02*
D03*
X234563D02*
D03*
X232594D02*
D03*
X230626D02*
D03*
X228658D02*
D03*
X226689D02*
D03*
X224721D02*
D03*
X222752D02*
D03*
X220783D02*
D03*
X218815D02*
D03*
X216846D02*
D03*
X214878D02*
D03*
X212910D02*
D03*
X210941D02*
D03*
X208972D02*
D03*
X207004D02*
D03*
X205035D02*
D03*
X203067D02*
D03*
X201098D02*
D03*
X199130D02*
D03*
X197161D02*
D03*
X195193D02*
D03*
X193224D02*
D03*
X191256D02*
D03*
X189287D02*
D03*
X187319D02*
D03*
X185350D02*
D03*
X183382D02*
D03*
X181413D02*
D03*
X179445D02*
D03*
Y686639D02*
D03*
X181413D02*
D03*
X183382D02*
D03*
X185350D02*
D03*
X187319D02*
D03*
X189287D02*
D03*
X191256D02*
D03*
X193224D02*
D03*
X195193D02*
D03*
X197161D02*
D03*
X199130D02*
D03*
X201098D02*
D03*
X203067D02*
D03*
X205035D02*
D03*
X207004D02*
D03*
X208972D02*
D03*
X210941D02*
D03*
X212910D02*
D03*
X214878D02*
D03*
X216846D02*
D03*
X218815D02*
D03*
X220783D02*
D03*
X222752D02*
D03*
X224721D02*
D03*
X226689D02*
D03*
X228658D02*
D03*
X230626D02*
D03*
X232594D02*
D03*
X234563D02*
D03*
X236531D02*
D03*
X238500D02*
D03*
X240469D02*
D03*
X242437D02*
D03*
X244406D02*
D03*
X246374D02*
D03*
X248342D02*
D03*
G54D237*
X169608Y321071D02*
D03*
X184175D02*
D03*
Y312410D02*
D03*
X169608D02*
D03*
Y726071D02*
D03*
X184175D02*
D03*
Y717410D02*
D03*
X169608D02*
D03*
G54D238*
X136906Y276994D02*
D03*
Y281994D02*
D03*
Y286994D02*
D03*
Y291994D02*
D03*
Y296994D02*
D03*
Y301994D02*
D03*
Y306994D02*
D03*
Y311994D02*
D03*
X100882Y276994D02*
D03*
Y281994D02*
D03*
Y286994D02*
D03*
Y291994D02*
D03*
Y296994D02*
D03*
Y301994D02*
D03*
Y306994D02*
D03*
Y311994D02*
D03*
X136906Y681994D02*
D03*
Y686994D02*
D03*
Y691994D02*
D03*
Y696994D02*
D03*
Y701994D02*
D03*
Y706994D02*
D03*
Y711994D02*
D03*
Y716994D02*
D03*
X100882Y681994D02*
D03*
Y686994D02*
D03*
Y691994D02*
D03*
Y696994D02*
D03*
Y701994D02*
D03*
Y706994D02*
D03*
Y711994D02*
D03*
Y716994D02*
D03*
G54D239*
X247263Y332565D02*
D03*
X255924Y316423D02*
D03*
Y332565D02*
D03*
X247263Y316423D02*
D03*
Y737565D02*
D03*
X255924Y721423D02*
D03*
Y737565D02*
D03*
X247263Y721423D02*
D03*
G54D240*
X85140Y287250D02*
D03*
X78447D02*
D03*
Y284100D02*
D03*
X85140D02*
D03*
Y692250D02*
D03*
X78447D02*
D03*
Y689100D02*
D03*
X85140D02*
D03*
G54D241*
X268602Y303445D02*
D03*
Y708445D02*
D03*
G54D242*
X262205Y300492D02*
D03*
Y306398D02*
D03*
X275000D02*
D03*
Y300492D02*
D03*
X262205Y705492D02*
D03*
Y711398D02*
D03*
X275000D02*
D03*
Y705492D02*
D03*
G54D243*
X264665Y309842D02*
D03*
X266634D02*
D03*
X268602D02*
D03*
X270571D02*
D03*
X272539D02*
D03*
Y297047D02*
D03*
X270571D02*
D03*
X268602D02*
D03*
X266634D02*
D03*
X264665D02*
D03*
Y714843D02*
D03*
X266634D02*
D03*
X268602D02*
D03*
X270571D02*
D03*
X272539D02*
D03*
Y702047D02*
D03*
X270571D02*
D03*
X268602D02*
D03*
X266634D02*
D03*
X264665D02*
D03*
G54D244*
X53355Y305167D02*
D03*
Y301230D02*
D03*
X60441Y303199D02*
D03*
X53355Y710167D02*
D03*
Y706230D02*
D03*
X60441Y708199D02*
D03*
G54D245*
X73736Y312755D02*
D03*
Y317755D02*
D03*
X47948Y312755D02*
D03*
Y317755D02*
D03*
X73736Y717755D02*
D03*
Y722755D02*
D03*
X47948Y717755D02*
D03*
Y722755D02*
D03*
G54D246*
X362528Y388312D02*
D03*
X346928D02*
D03*
X362528Y793312D02*
D03*
X346928D02*
D03*
G54D247*
X329331Y401083D02*
D03*
X291929D02*
D03*
X329331Y806083D02*
D03*
X291929D02*
D03*
G54D248*
X368463Y399912D02*
D03*
Y404912D02*
D03*
Y409912D02*
D03*
Y414912D02*
D03*
X347794Y399912D02*
D03*
Y404912D02*
D03*
Y409912D02*
D03*
Y414912D02*
D03*
X368463Y804912D02*
D03*
Y809912D02*
D03*
Y814912D02*
D03*
Y819912D02*
D03*
X347794Y804912D02*
D03*
Y809912D02*
D03*
Y814912D02*
D03*
Y819912D02*
D03*
G54D249*
X358128Y407412D02*
D03*
Y812412D02*
D03*
G54D250*
X297488Y347343D02*
D03*
Y340256D02*
D03*
Y752343D02*
D03*
Y745256D02*
D03*
G54D251*
X210294Y128372D02*
D03*
Y132142D02*
D03*
X206094Y128342D02*
D03*
Y132112D02*
D03*
X192126Y128740D02*
D03*
Y124970D02*
D03*
X201772Y125620D02*
D03*
Y121851D02*
D03*
X218602Y91732D02*
D03*
Y87962D02*
D03*
X138094Y132242D02*
D03*
Y128472D02*
D03*
X133994Y132212D02*
D03*
Y128442D02*
D03*
X119783Y123395D02*
D03*
Y127165D02*
D03*
X129535Y122106D02*
D03*
Y125876D02*
D03*
X146394Y87942D02*
D03*
Y91712D02*
D03*
X402694Y76694D02*
D03*
Y72924D02*
D03*
Y93924D02*
D03*
Y97694D02*
D03*
X389807Y415789D02*
D03*
Y419559D02*
D03*
X364764Y91732D02*
D03*
Y87962D02*
D03*
X316948Y174583D02*
D03*
Y170813D02*
D03*
X283046Y187146D02*
D03*
Y190916D02*
D03*
X165594Y274694D02*
D03*
Y270924D02*
D03*
X172526Y194761D02*
D03*
Y190991D02*
D03*
X93394Y311864D02*
D03*
Y308094D02*
D03*
X143994Y307594D02*
D03*
Y311364D02*
D03*
X164794Y236912D02*
D03*
Y233142D02*
D03*
X165294Y251542D02*
D03*
Y247772D02*
D03*
X262102Y236494D02*
D03*
Y240264D02*
D03*
X248294Y187942D02*
D03*
Y191712D02*
D03*
X165294Y255342D02*
D03*
Y259112D02*
D03*
X241794Y191564D02*
D03*
Y187794D02*
D03*
X261994Y225494D02*
D03*
Y229264D02*
D03*
X230994Y288772D02*
D03*
Y292542D02*
D03*
X163020Y191427D02*
D03*
Y195197D02*
D03*
X290846Y91732D02*
D03*
Y87962D02*
D03*
X74114D02*
D03*
Y91732D02*
D03*
X72794Y222194D02*
D03*
Y225964D02*
D03*
X148130Y311373D02*
D03*
Y307603D02*
D03*
X176633Y194755D02*
D03*
Y190985D02*
D03*
X82353Y266889D02*
D03*
Y270659D02*
D03*
X82359Y262849D02*
D03*
Y259080D02*
D03*
X258594Y307542D02*
D03*
Y303772D02*
D03*
X85594Y54164D02*
D03*
Y57934D02*
D03*
X105494Y57864D02*
D03*
Y54094D02*
D03*
X95694Y54064D02*
D03*
Y57834D02*
D03*
X195294Y59803D02*
D03*
Y56033D02*
D03*
X205394Y57964D02*
D03*
Y54194D02*
D03*
X215394Y57864D02*
D03*
Y54094D02*
D03*
X274016Y125620D02*
D03*
Y121851D02*
D03*
X264370Y128839D02*
D03*
Y125068D02*
D03*
X55794Y54342D02*
D03*
Y58112D02*
D03*
X75894Y60594D02*
D03*
Y56824D02*
D03*
X354894Y54094D02*
D03*
Y57864D02*
D03*
X278194Y132312D02*
D03*
Y128542D02*
D03*
X282394Y132342D02*
D03*
Y128572D02*
D03*
X346226Y125778D02*
D03*
Y122008D02*
D03*
X336910Y130315D02*
D03*
Y126545D02*
D03*
X350494Y128542D02*
D03*
Y132312D02*
D03*
X354694Y128572D02*
D03*
Y132342D02*
D03*
X364894Y53994D02*
D03*
Y57764D02*
D03*
X374894D02*
D03*
Y53994D02*
D03*
X394894Y54094D02*
D03*
Y57864D02*
D03*
X384894Y57764D02*
D03*
Y53994D02*
D03*
X116634Y53907D02*
D03*
Y57677D02*
D03*
X135794Y61064D02*
D03*
Y57294D02*
D03*
X145794Y54224D02*
D03*
Y57994D02*
D03*
X155905Y54036D02*
D03*
Y57806D02*
D03*
X305294Y61964D02*
D03*
Y58194D02*
D03*
X315394Y57964D02*
D03*
Y54194D02*
D03*
X343110Y54459D02*
D03*
Y50689D02*
D03*
X325394Y57964D02*
D03*
Y54194D02*
D03*
X57284Y125817D02*
D03*
Y122047D02*
D03*
X47646Y125157D02*
D03*
Y121388D02*
D03*
X61194Y128342D02*
D03*
Y132112D02*
D03*
X65294Y128272D02*
D03*
Y132042D02*
D03*
X303346Y187642D02*
D03*
Y183872D02*
D03*
X97594Y165624D02*
D03*
Y169394D02*
D03*
X373571Y398130D02*
D03*
Y401900D02*
D03*
X341828Y414212D02*
D03*
Y417982D02*
D03*
X291287Y337599D02*
D03*
Y341369D02*
D03*
X305165Y350424D02*
D03*
Y346654D02*
D03*
X210294Y533372D02*
D03*
Y537142D02*
D03*
X206094Y533342D02*
D03*
Y537112D02*
D03*
X192126Y533740D02*
D03*
Y529970D02*
D03*
X201772Y530620D02*
D03*
Y526851D02*
D03*
X218602Y496732D02*
D03*
Y492962D02*
D03*
X138094Y537242D02*
D03*
Y533472D02*
D03*
X133994Y537212D02*
D03*
Y533442D02*
D03*
X119783Y528395D02*
D03*
Y532165D02*
D03*
X129535Y527107D02*
D03*
Y530876D02*
D03*
X146394Y492942D02*
D03*
Y496712D02*
D03*
X402694Y481694D02*
D03*
Y477924D02*
D03*
Y498924D02*
D03*
Y502694D02*
D03*
X389807Y820789D02*
D03*
Y824559D02*
D03*
X364764Y496732D02*
D03*
Y492962D02*
D03*
X316948Y579583D02*
D03*
Y575813D02*
D03*
X283046Y592146D02*
D03*
Y595916D02*
D03*
X165594Y679694D02*
D03*
Y675924D02*
D03*
X172526Y599761D02*
D03*
Y595991D02*
D03*
X93394Y716864D02*
D03*
Y713094D02*
D03*
X143994Y712594D02*
D03*
Y716364D02*
D03*
X164794Y641912D02*
D03*
Y638142D02*
D03*
X165294Y656542D02*
D03*
Y652772D02*
D03*
X262102Y641494D02*
D03*
Y645264D02*
D03*
X248294Y592942D02*
D03*
Y596712D02*
D03*
X165294Y660342D02*
D03*
Y664112D02*
D03*
X241794Y596564D02*
D03*
Y592794D02*
D03*
X261994Y630494D02*
D03*
Y634264D02*
D03*
X230994Y693772D02*
D03*
Y697542D02*
D03*
X163020Y596427D02*
D03*
Y600197D02*
D03*
X290846Y496732D02*
D03*
Y492962D02*
D03*
X74114D02*
D03*
Y496732D02*
D03*
X72794Y627194D02*
D03*
Y630964D02*
D03*
X148130Y716373D02*
D03*
Y712603D02*
D03*
X176633Y599755D02*
D03*
Y595985D02*
D03*
X82353Y671889D02*
D03*
Y675659D02*
D03*
X82359Y667849D02*
D03*
Y664080D02*
D03*
X258594Y712542D02*
D03*
Y708772D02*
D03*
X85594Y459164D02*
D03*
Y462934D02*
D03*
X105494Y462864D02*
D03*
Y459094D02*
D03*
X95694Y459064D02*
D03*
Y462834D02*
D03*
X195294Y464803D02*
D03*
Y461033D02*
D03*
X205394Y462964D02*
D03*
Y459194D02*
D03*
X215394Y462864D02*
D03*
Y459094D02*
D03*
X274016Y530620D02*
D03*
Y526851D02*
D03*
X264370Y533839D02*
D03*
Y530068D02*
D03*
X55794Y459342D02*
D03*
Y463112D02*
D03*
X75894Y465594D02*
D03*
Y461824D02*
D03*
X354894Y459094D02*
D03*
Y462864D02*
D03*
X278194Y537312D02*
D03*
Y533542D02*
D03*
X282394Y537342D02*
D03*
Y533572D02*
D03*
X346226Y530778D02*
D03*
Y527008D02*
D03*
X336910Y535315D02*
D03*
Y531545D02*
D03*
X350494Y533542D02*
D03*
Y537312D02*
D03*
X354694Y533572D02*
D03*
Y537342D02*
D03*
X364894Y458994D02*
D03*
Y462764D02*
D03*
X374894D02*
D03*
Y458994D02*
D03*
X394894Y459094D02*
D03*
Y462864D02*
D03*
X384894Y462764D02*
D03*
Y458994D02*
D03*
X116634Y458907D02*
D03*
Y462677D02*
D03*
X135794Y466064D02*
D03*
Y462294D02*
D03*
X145794Y459224D02*
D03*
Y462994D02*
D03*
X155905Y459035D02*
D03*
Y462806D02*
D03*
X305294Y466964D02*
D03*
Y463194D02*
D03*
X315394Y462964D02*
D03*
Y459194D02*
D03*
X343110Y459459D02*
D03*
Y455689D02*
D03*
X325394Y462964D02*
D03*
Y459194D02*
D03*
X57284Y530817D02*
D03*
Y527047D02*
D03*
X47646Y530158D02*
D03*
Y526388D02*
D03*
X61194Y533342D02*
D03*
Y537112D02*
D03*
X65294Y533272D02*
D03*
Y537042D02*
D03*
X303346Y592642D02*
D03*
Y588872D02*
D03*
X97594Y570624D02*
D03*
Y574394D02*
D03*
X373571Y803130D02*
D03*
Y806900D02*
D03*
X341828Y819212D02*
D03*
Y822982D02*
D03*
X291287Y742599D02*
D03*
Y746369D02*
D03*
X305165Y755424D02*
D03*
Y751654D02*
D03*
G54D252*
X213894Y136042D02*
D03*
X217664D02*
D03*
X209864Y141842D02*
D03*
X206094D02*
D03*
X145464Y136242D02*
D03*
X141694D02*
D03*
X133894Y141442D02*
D03*
X137664D02*
D03*
X282064Y142342D02*
D03*
X278294D02*
D03*
X68994Y135142D02*
D03*
X72764D02*
D03*
X417004Y156146D02*
D03*
X420774D02*
D03*
X325594Y318217D02*
D03*
X321824D02*
D03*
X280694Y314294D02*
D03*
X284464D02*
D03*
X296638Y235109D02*
D03*
X292868D02*
D03*
X283475Y234870D02*
D03*
X287245D02*
D03*
X191998Y310256D02*
D03*
X195768D02*
D03*
X165764Y266994D02*
D03*
X161994D02*
D03*
X89594Y301994D02*
D03*
X93364D02*
D03*
X162764Y220842D02*
D03*
X158994D02*
D03*
X223294Y289042D02*
D03*
X227064D02*
D03*
X163664Y224742D02*
D03*
X159894D02*
D03*
X186994Y288194D02*
D03*
X183224D02*
D03*
X280664Y326594D02*
D03*
X276894D02*
D03*
X96888Y334081D02*
D03*
X93118D02*
D03*
X226294Y365394D02*
D03*
X230064D02*
D03*
X56624Y154642D02*
D03*
X60394D02*
D03*
X284824Y326494D02*
D03*
X288594D02*
D03*
X286894Y371825D02*
D03*
X290664D02*
D03*
X351250Y141437D02*
D03*
X355020D02*
D03*
X105571Y351870D02*
D03*
X109341D02*
D03*
X149498Y351969D02*
D03*
X145728D02*
D03*
X185843Y351694D02*
D03*
X189613D02*
D03*
X238673Y317941D02*
D03*
X234903D02*
D03*
X62554Y53994D02*
D03*
X66324D02*
D03*
X289864Y135942D02*
D03*
X286094D02*
D03*
X182194Y59942D02*
D03*
X185964D02*
D03*
X241041Y85354D02*
D03*
X244811D02*
D03*
X223425Y74016D02*
D03*
X219655D02*
D03*
X185894Y54094D02*
D03*
X182124D02*
D03*
X224994D02*
D03*
X228764D02*
D03*
X96651Y85354D02*
D03*
X100421D02*
D03*
X80413Y69685D02*
D03*
X76643D02*
D03*
X345965D02*
D03*
X349735D02*
D03*
X358041Y134744D02*
D03*
X361811D02*
D03*
X389398Y85354D02*
D03*
X385628D02*
D03*
X61494Y141042D02*
D03*
X65264D02*
D03*
X369356Y69646D02*
D03*
X365586D02*
D03*
X168928Y59350D02*
D03*
X165158D02*
D03*
X149803Y69784D02*
D03*
X146033D02*
D03*
X122594Y54194D02*
D03*
X126364D02*
D03*
X169257Y54169D02*
D03*
X165487D02*
D03*
X250294Y59742D02*
D03*
X254064D02*
D03*
X313285Y85354D02*
D03*
X317055D02*
D03*
X293405Y69685D02*
D03*
X289635D02*
D03*
X295894Y54194D02*
D03*
X292124D02*
D03*
X312682Y235148D02*
D03*
X308912D02*
D03*
X326378Y230943D02*
D03*
X322608D02*
D03*
X335572Y234983D02*
D03*
X331802D02*
D03*
X345163Y234468D02*
D03*
X348933D02*
D03*
X358886Y238504D02*
D03*
X362656D02*
D03*
X384906Y237868D02*
D03*
X381136D02*
D03*
X220698Y335001D02*
D03*
X216928D02*
D03*
X340579Y155335D02*
D03*
X336809D02*
D03*
X89894Y179842D02*
D03*
X86124D02*
D03*
X162564Y204750D02*
D03*
X158794D02*
D03*
X355332Y420079D02*
D03*
X359102D02*
D03*
X334102Y414272D02*
D03*
X337872D02*
D03*
X369172Y419882D02*
D03*
X365402D02*
D03*
X288531Y347032D02*
D03*
X284761D02*
D03*
X213894Y541042D02*
D03*
X217664D02*
D03*
X209864Y546842D02*
D03*
X206094D02*
D03*
X145464Y541242D02*
D03*
X141694D02*
D03*
X133894Y546442D02*
D03*
X137664D02*
D03*
X282064Y547342D02*
D03*
X278294D02*
D03*
X68994Y540142D02*
D03*
X72764D02*
D03*
X417004Y561146D02*
D03*
X420774D02*
D03*
X325594Y723217D02*
D03*
X321824D02*
D03*
X280694Y719294D02*
D03*
X284464D02*
D03*
X296638Y640109D02*
D03*
X292868D02*
D03*
X283475Y639870D02*
D03*
X287245D02*
D03*
X191998Y715256D02*
D03*
X195768D02*
D03*
X165764Y671994D02*
D03*
X161994D02*
D03*
X89594Y706994D02*
D03*
X93364D02*
D03*
X162764Y625842D02*
D03*
X158994D02*
D03*
X223294Y694042D02*
D03*
X227064D02*
D03*
X163664Y629742D02*
D03*
X159894D02*
D03*
X186994Y693194D02*
D03*
X183224D02*
D03*
X280664Y731594D02*
D03*
X276894D02*
D03*
X96888Y739081D02*
D03*
X93118D02*
D03*
X226294Y770394D02*
D03*
X230064D02*
D03*
X56624Y559642D02*
D03*
X60394D02*
D03*
X284824Y731494D02*
D03*
X288594D02*
D03*
X286894Y776825D02*
D03*
X290664D02*
D03*
X351250Y546437D02*
D03*
X355020D02*
D03*
X105571Y756870D02*
D03*
X109341D02*
D03*
X149498Y756968D02*
D03*
X145728D02*
D03*
X185843Y756694D02*
D03*
X189613D02*
D03*
X238673Y722941D02*
D03*
X234903D02*
D03*
X62554Y458994D02*
D03*
X66324D02*
D03*
X289864Y540942D02*
D03*
X286094D02*
D03*
X182194Y464942D02*
D03*
X185964D02*
D03*
X241041Y490354D02*
D03*
X244811D02*
D03*
X223425Y479016D02*
D03*
X219655D02*
D03*
X185894Y459094D02*
D03*
X182124D02*
D03*
X224994D02*
D03*
X228764D02*
D03*
X96651Y490354D02*
D03*
X100421D02*
D03*
X80413Y474685D02*
D03*
X76643D02*
D03*
X345965D02*
D03*
X349735D02*
D03*
X358041Y539744D02*
D03*
X361811D02*
D03*
X389398Y490354D02*
D03*
X385628D02*
D03*
X61494Y546042D02*
D03*
X65264D02*
D03*
X369356Y474646D02*
D03*
X365586D02*
D03*
X168928Y464350D02*
D03*
X165158D02*
D03*
X149803Y474784D02*
D03*
X146033D02*
D03*
X122594Y459194D02*
D03*
X126364D02*
D03*
X169257Y459169D02*
D03*
X165487D02*
D03*
X250294Y464742D02*
D03*
X254064D02*
D03*
X313285Y490354D02*
D03*
X317055D02*
D03*
X293405Y474685D02*
D03*
X289635D02*
D03*
X295894Y459194D02*
D03*
X292124D02*
D03*
X312682Y640148D02*
D03*
X308912D02*
D03*
X326378Y635943D02*
D03*
X322608D02*
D03*
X335572Y639983D02*
D03*
X331802D02*
D03*
X345163Y639468D02*
D03*
X348933D02*
D03*
X358886Y643504D02*
D03*
X362656D02*
D03*
X384906Y642868D02*
D03*
X381136D02*
D03*
X220698Y740001D02*
D03*
X216928D02*
D03*
X340579Y560335D02*
D03*
X336809D02*
D03*
X89894Y584842D02*
D03*
X86124D02*
D03*
X162564Y609750D02*
D03*
X158794D02*
D03*
X355332Y825079D02*
D03*
X359102D02*
D03*
X334102Y819272D02*
D03*
X337872D02*
D03*
X369172Y824882D02*
D03*
X365402D02*
D03*
X288531Y752032D02*
D03*
X284761D02*
D03*
M02*
