G04 Layer_Color=8388736*
%FSLAX25Y25*%
%MOIN*%
G70*
G01*
G75*
%ADD12C,0.01000*%
%ADD40C,0.06000*%
%ADD109C,0.03000*%
%ADD220C,0.12205*%
%ADD221R,0.10400X0.16800*%
%ADD222R,0.03543X0.07045*%
G04:AMPARAMS|DCode=223|XSize=118.74mil|YSize=118.74mil|CornerRadius=59.37mil|HoleSize=0mil|Usage=FLASHONLY|Rotation=90.000|XOffset=0mil|YOffset=0mil|HoleType=Round|Shape=RoundedRectangle|*
%AMROUNDEDRECTD223*
21,1,0.11874,0.00000,0,0,90.0*
21,1,0.00000,0.11874,0,0,90.0*
1,1,0.11874,0.00000,0.00000*
1,1,0.11874,0.00000,0.00000*
1,1,0.11874,0.00000,0.00000*
1,1,0.11874,0.00000,0.00000*
%
%ADD223ROUNDEDRECTD223*%
%ADD224R,0.08700X0.08700*%
%ADD225R,0.13400X0.07100*%
G04:AMPARAMS|DCode=226|XSize=113mil|YSize=113mil|CornerRadius=30.25mil|HoleSize=0mil|Usage=FLASHONLY|Rotation=0.000|XOffset=0mil|YOffset=0mil|HoleType=Round|Shape=RoundedRectangle|*
%AMROUNDEDRECTD226*
21,1,0.11300,0.05250,0,0,0.0*
21,1,0.05250,0.11300,0,0,0.0*
1,1,0.06050,0.02625,-0.02625*
1,1,0.06050,-0.02625,-0.02625*
1,1,0.06050,-0.02625,0.02625*
1,1,0.06050,0.02625,0.02625*
%
%ADD226ROUNDEDRECTD226*%
%ADD227R,0.04816X0.01965*%
%ADD228R,0.01581X0.01975*%
%ADD229R,0.09061X0.06305*%
%ADD230R,0.06699X0.05124*%
%ADD231R,0.05912X0.06699*%
%ADD232R,0.06699X0.03156*%
G04:AMPARAMS|DCode=233|XSize=26mil|YSize=28mil|CornerRadius=6.4mil|HoleSize=0mil|Usage=FLASHONLY|Rotation=180.000|XOffset=0mil|YOffset=0mil|HoleType=Round|Shape=RoundedRectangle|*
%AMROUNDEDRECTD233*
21,1,0.02600,0.01520,0,0,180.0*
21,1,0.01320,0.02800,0,0,180.0*
1,1,0.01280,-0.00660,0.00760*
1,1,0.01280,0.00660,0.00760*
1,1,0.01280,0.00660,-0.00760*
1,1,0.01280,-0.00660,-0.00760*
%
%ADD233ROUNDEDRECTD233*%
G04:AMPARAMS|DCode=234|XSize=26mil|YSize=28mil|CornerRadius=6.4mil|HoleSize=0mil|Usage=FLASHONLY|Rotation=270.000|XOffset=0mil|YOffset=0mil|HoleType=Round|Shape=RoundedRectangle|*
%AMROUNDEDRECTD234*
21,1,0.02600,0.01520,0,0,270.0*
21,1,0.01320,0.02800,0,0,270.0*
1,1,0.01280,-0.00760,-0.00660*
1,1,0.01280,-0.00760,0.00660*
1,1,0.01280,0.00760,0.00660*
1,1,0.01280,0.00760,-0.00660*
%
%ADD234ROUNDEDRECTD234*%
%ADD235R,0.02565X0.02368*%
%ADD236R,0.02368X0.02565*%
%ADD237R,0.03038X0.03865*%
G04:AMPARAMS|DCode=238|XSize=71mil|YSize=79mil|CornerRadius=19.75mil|HoleSize=0mil|Usage=FLASHONLY|Rotation=180.000|XOffset=0mil|YOffset=0mil|HoleType=Round|Shape=RoundedRectangle|*
%AMROUNDEDRECTD238*
21,1,0.07100,0.03950,0,0,180.0*
21,1,0.03150,0.07900,0,0,180.0*
1,1,0.03950,-0.01575,0.01975*
1,1,0.03950,0.01575,0.01975*
1,1,0.03950,0.01575,-0.01975*
1,1,0.03950,-0.01575,-0.01975*
%
%ADD238ROUNDEDRECTD238*%
%ADD239O,0.01384X0.03747*%
%ADD240O,0.03747X0.01384*%
%ADD241R,0.16542X0.14573*%
G04:AMPARAMS|DCode=242|XSize=33.13mil|YSize=43.37mil|CornerRadius=7.83mil|HoleSize=0mil|Usage=FLASHONLY|Rotation=0.000|XOffset=0mil|YOffset=0mil|HoleType=Round|Shape=RoundedRectangle|*
%AMROUNDEDRECTD242*
21,1,0.03313,0.02772,0,0,0.0*
21,1,0.01748,0.04337,0,0,0.0*
1,1,0.01565,0.00874,-0.01386*
1,1,0.01565,-0.00874,-0.01386*
1,1,0.01565,-0.00874,0.01386*
1,1,0.01565,0.00874,0.01386*
%
%ADD242ROUNDEDRECTD242*%
G04:AMPARAMS|DCode=243|XSize=33.13mil|YSize=43.37mil|CornerRadius=7.83mil|HoleSize=0mil|Usage=FLASHONLY|Rotation=90.000|XOffset=0mil|YOffset=0mil|HoleType=Round|Shape=RoundedRectangle|*
%AMROUNDEDRECTD243*
21,1,0.03313,0.02772,0,0,90.0*
21,1,0.01748,0.04337,0,0,90.0*
1,1,0.01565,0.01386,0.00874*
1,1,0.01565,0.01386,-0.00874*
1,1,0.01565,-0.01386,-0.00874*
1,1,0.01565,-0.01386,0.00874*
%
%ADD243ROUNDEDRECTD243*%
%ADD244R,0.14186X0.06312*%
%ADD245R,0.20500X0.17800*%
%ADD246R,0.03600X0.06400*%
G04:AMPARAMS|DCode=247|XSize=60mil|YSize=68mil|CornerRadius=17mil|HoleSize=0mil|Usage=FLASHONLY|Rotation=90.000|XOffset=0mil|YOffset=0mil|HoleType=Round|Shape=RoundedRectangle|*
%AMROUNDEDRECTD247*
21,1,0.06000,0.03400,0,0,90.0*
21,1,0.02600,0.06800,0,0,90.0*
1,1,0.03400,0.01700,0.01300*
1,1,0.03400,0.01700,-0.01300*
1,1,0.03400,-0.01700,-0.01300*
1,1,0.03400,-0.01700,0.01300*
%
%ADD247ROUNDEDRECTD247*%
G04:AMPARAMS|DCode=248|XSize=60mil|YSize=68mil|CornerRadius=17mil|HoleSize=0mil|Usage=FLASHONLY|Rotation=180.000|XOffset=0mil|YOffset=0mil|HoleType=Round|Shape=RoundedRectangle|*
%AMROUNDEDRECTD248*
21,1,0.06000,0.03400,0,0,180.0*
21,1,0.02600,0.06800,0,0,180.0*
1,1,0.03400,-0.01300,0.01700*
1,1,0.03400,0.01300,0.01700*
1,1,0.03400,0.01300,-0.01700*
1,1,0.03400,-0.01300,-0.01700*
%
%ADD248ROUNDEDRECTD248*%
%ADD249R,0.08700X0.08700*%
%ADD250R,0.05600X0.05600*%
%ADD251R,0.05600X0.05600*%
%ADD252R,0.05524X0.04343*%
%ADD253R,0.05918X0.06312*%
%ADD254R,0.02800X0.02800*%
%ADD255R,0.04400X0.04000*%
%ADD256R,0.02800X0.02800*%
%ADD257R,0.05131X0.07493*%
%ADD258R,0.07493X0.05131*%
%ADD259O,0.06706X0.03162*%
%ADD260R,0.06312X0.14186*%
G04:AMPARAMS|DCode=261|XSize=30mil|YSize=32mil|CornerRadius=8.4mil|HoleSize=0mil|Usage=FLASHONLY|Rotation=180.000|XOffset=0mil|YOffset=0mil|HoleType=Round|Shape=RoundedRectangle|*
%AMROUNDEDRECTD261*
21,1,0.03000,0.01520,0,0,180.0*
21,1,0.01320,0.03200,0,0,180.0*
1,1,0.01680,-0.00660,0.00760*
1,1,0.01680,0.00660,0.00760*
1,1,0.01680,0.00660,-0.00760*
1,1,0.01680,-0.00660,-0.00760*
%
%ADD261ROUNDEDRECTD261*%
%ADD262R,0.03753X0.11824*%
%ADD263R,0.04343X0.13792*%
%ADD264R,0.17532X0.05446*%
%ADD265R,0.06063X0.02520*%
%ADD266R,0.02126X0.02598*%
%ADD267O,0.01981X0.07887*%
%ADD268O,0.07887X0.01981*%
%ADD269O,0.09855X0.03162*%
G04:AMPARAMS|DCode=270|XSize=37.13mil|YSize=47.37mil|CornerRadius=9.83mil|HoleSize=0mil|Usage=FLASHONLY|Rotation=0.000|XOffset=0mil|YOffset=0mil|HoleType=Round|Shape=RoundedRectangle|*
%AMROUNDEDRECTD270*
21,1,0.03713,0.02772,0,0,0.0*
21,1,0.01748,0.04737,0,0,0.0*
1,1,0.01965,0.00874,-0.01386*
1,1,0.01965,-0.00874,-0.01386*
1,1,0.01965,-0.00874,0.01386*
1,1,0.01965,0.00874,0.01386*
%
%ADD270ROUNDEDRECTD270*%
G04:AMPARAMS|DCode=271|XSize=80mil|YSize=80mil|CornerRadius=40mil|HoleSize=0mil|Usage=FLASHONLY|Rotation=90.000|XOffset=0mil|YOffset=0mil|HoleType=Round|Shape=RoundedRectangle|*
%AMROUNDEDRECTD271*
21,1,0.08000,0.00000,0,0,90.0*
21,1,0.00000,0.08000,0,0,90.0*
1,1,0.08000,0.00000,0.00000*
1,1,0.08000,0.00000,0.00000*
1,1,0.08000,0.00000,0.00000*
1,1,0.08000,0.00000,0.00000*
%
%ADD271ROUNDEDRECTD271*%
G04:AMPARAMS|DCode=272|XSize=80mil|YSize=80mil|CornerRadius=40mil|HoleSize=0mil|Usage=FLASHONLY|Rotation=0.000|XOffset=0mil|YOffset=0mil|HoleType=Round|Shape=RoundedRectangle|*
%AMROUNDEDRECTD272*
21,1,0.08000,0.00000,0,0,0.0*
21,1,0.00000,0.08000,0,0,0.0*
1,1,0.08000,0.00000,0.00000*
1,1,0.08000,0.00000,0.00000*
1,1,0.08000,0.00000,0.00000*
1,1,0.08000,0.00000,0.00000*
%
%ADD272ROUNDEDRECTD272*%
%ADD273R,0.03747X0.02762*%
%ADD274R,0.02762X0.03747*%
%ADD275R,0.04737X0.04343*%
%ADD276R,0.03943X0.01975*%
%ADD277R,0.02080X0.01863*%
%ADD278O,0.01502X0.03550*%
%ADD279O,0.03550X0.01502*%
%ADD280R,0.08471X0.08471*%
%ADD281R,0.03865X0.03038*%
%ADD282R,0.03550X0.02565*%
%ADD283O,0.06509X0.02965*%
G04:AMPARAMS|DCode=284|XSize=54mil|YSize=71mil|CornerRadius=15.5mil|HoleSize=0mil|Usage=FLASHONLY|Rotation=180.000|XOffset=0mil|YOffset=0mil|HoleType=Round|Shape=RoundedRectangle|*
%AMROUNDEDRECTD284*
21,1,0.05400,0.04000,0,0,180.0*
21,1,0.02300,0.07100,0,0,180.0*
1,1,0.03100,-0.01150,0.02000*
1,1,0.03100,0.01150,0.02000*
1,1,0.03100,0.01150,-0.02000*
1,1,0.03100,-0.01150,-0.02000*
%
%ADD284ROUNDEDRECTD284*%
%ADD285R,0.03950X0.03162*%
%ADD286R,0.03162X0.03950*%
%ADD287C,0.00400*%
%ADD288R,0.06706X0.06706*%
%ADD289C,0.06706*%
%ADD290O,0.06800X0.12800*%
%ADD291O,0.17300X0.09050*%
%ADD292O,0.12800X0.06800*%
G04:AMPARAMS|DCode=293|XSize=141mil|YSize=91mil|CornerRadius=0mil|HoleSize=0mil|Usage=FLASHONLY|Rotation=270.000|XOffset=0mil|YOffset=0mil|HoleType=Round|Shape=Octagon|*
%AMOCTAGOND293*
4,1,8,-0.02275,-0.07050,0.02275,-0.07050,0.04550,-0.04775,0.04550,0.04775,0.02275,0.07050,-0.02275,0.07050,-0.04550,0.04775,-0.04550,-0.04775,-0.02275,-0.07050,0.0*
%
%ADD293OCTAGOND293*%

%ADD294O,0.09050X0.17300*%
%ADD295P,0.08443X8X292.5*%
%ADD296C,0.10800*%
%ADD297C,0.06600*%
%ADD298C,0.13850*%
%ADD299C,0.02600*%
%ADD300C,0.03300*%
G36*
X73027Y687782D02*
X68322D01*
X68323Y687782D01*
X68322D01*
Y693573D01*
X73027D01*
Y687782D01*
D02*
G37*
G36*
X249328Y690188D02*
X249344Y683661D01*
Y682696D01*
X178463D01*
Y690574D01*
X249328D01*
Y690188D01*
D02*
G37*
G36*
X176302Y609673D02*
X168424D01*
Y680539D01*
X168809D01*
X175337Y680554D01*
X176302D01*
Y609673D01*
D02*
G37*
G36*
X259364Y609669D02*
X258978D01*
X252451Y609653D01*
X251486D01*
Y680535D01*
X259364D01*
Y609669D01*
D02*
G37*
G36*
X249325Y599634D02*
X178459D01*
Y600020D01*
X178443Y606547D01*
Y607512D01*
X249325D01*
Y599634D01*
D02*
G37*
G36*
X73027Y282782D02*
X68322D01*
X68323Y282782D01*
X68322D01*
Y288573D01*
X73027D01*
Y282782D01*
D02*
G37*
G36*
X249328Y285188D02*
X249344Y278661D01*
Y277696D01*
X178463D01*
Y285574D01*
X249328D01*
Y285188D01*
D02*
G37*
G36*
X176302Y204673D02*
X168424D01*
Y275539D01*
X168809D01*
X175337Y275554D01*
X176302D01*
Y204673D01*
D02*
G37*
G36*
X259364Y204669D02*
X258978D01*
X252451Y204653D01*
X251486D01*
Y275535D01*
X259364D01*
Y204669D01*
D02*
G37*
G36*
X249325Y194634D02*
X178459D01*
Y195020D01*
X178443Y201547D01*
Y202512D01*
X249325D01*
Y194634D01*
D02*
G37*
G54D12*
X407369Y964837D02*
X412368D01*
X409869D01*
Y957340D01*
X416117D02*
X418616D01*
X419865Y958589D01*
Y961089D01*
X418616Y962338D01*
X416117D01*
X414867Y961089D01*
Y958589D01*
X416117Y957340D01*
X422365Y954841D02*
Y962338D01*
X426113D01*
X427363Y961089D01*
Y958589D01*
X426113Y957340D01*
X422365D01*
X442358Y963588D02*
X441109Y964837D01*
X438609D01*
X437360Y963588D01*
Y962338D01*
X438609Y961089D01*
X441109D01*
X442358Y959839D01*
Y958589D01*
X441109Y957340D01*
X438609D01*
X437360Y958589D01*
X446107Y957340D02*
X448606D01*
X449856Y958589D01*
Y961089D01*
X448606Y962338D01*
X446107D01*
X444857Y961089D01*
Y958589D01*
X446107Y957340D01*
X452355D02*
X454854D01*
X453605D01*
Y964837D01*
X452355D01*
X463601D02*
Y957340D01*
X459853D01*
X458603Y958589D01*
Y961089D01*
X459853Y962338D01*
X463601D01*
X469849Y957340D02*
X467350D01*
X466101Y958589D01*
Y961089D01*
X467350Y962338D01*
X469849D01*
X471099Y961089D01*
Y959839D01*
X466101D01*
X473598Y962338D02*
Y957340D01*
Y959839D01*
X474848Y961089D01*
X476097Y962338D01*
X477347D01*
X481096Y957340D02*
Y962338D01*
X482345D01*
X483595Y961089D01*
Y957340D01*
Y961089D01*
X484844Y962338D01*
X486094Y961089D01*
Y957340D01*
X489843Y962338D02*
X492342D01*
X493592Y961089D01*
Y957340D01*
X489843D01*
X488593Y958589D01*
X489843Y959839D01*
X493592D01*
X496091Y957340D02*
X499840D01*
X501089Y958589D01*
X499840Y959839D01*
X497340D01*
X496091Y961089D01*
X497340Y962338D01*
X501089D01*
X503588Y957340D02*
Y964837D01*
Y959839D02*
X507337Y962338D01*
X503588Y959839D02*
X507337Y957340D01*
X407369Y944840D02*
Y949838D01*
X409869Y952337D01*
X412368Y949838D01*
Y944840D01*
Y948589D01*
X407369D01*
X414867Y949838D02*
Y944840D01*
Y947339D01*
X416117Y948589D01*
X417366Y949838D01*
X418616D01*
X427363D02*
X423614D01*
X422365Y948589D01*
Y946089D01*
X423614Y944840D01*
X427363D01*
X429862Y952337D02*
Y944840D01*
Y948589D01*
X431112Y949838D01*
X433611D01*
X434861Y948589D01*
Y944840D01*
X437360D02*
X439859D01*
X438609D01*
Y949838D01*
X437360D01*
X443608Y944840D02*
Y949838D01*
X444857D01*
X446107Y948589D01*
Y944840D01*
Y948589D01*
X447357Y949838D01*
X448606Y948589D01*
Y944840D01*
X451105Y943590D02*
X456104D01*
X463601Y944840D02*
X458603D01*
X463601Y949838D01*
Y951088D01*
X462352Y952337D01*
X459853D01*
X458603Y951088D01*
X466101Y944840D02*
Y946089D01*
X467350D01*
Y944840D01*
X466101D01*
X472348Y951088D02*
X473598Y952337D01*
X476097D01*
X477347Y951088D01*
Y946089D01*
X476097Y944840D01*
X473598D01*
X472348Y946089D01*
Y951088D01*
X481096Y949838D02*
X483595D01*
X484844Y948589D01*
Y944840D01*
X481096D01*
X479846Y946089D01*
X481096Y947339D01*
X484844D01*
G54D40*
X429843Y36457D02*
D03*
Y44331D02*
D03*
X424331Y49843D02*
D03*
X416457D02*
D03*
X410945Y44331D02*
D03*
Y36457D02*
D03*
X416457Y30945D02*
D03*
X424331D02*
D03*
X49843Y36457D02*
D03*
Y44331D02*
D03*
X44331Y49843D02*
D03*
X36457D02*
D03*
X30945Y44331D02*
D03*
Y36457D02*
D03*
X36457Y30945D02*
D03*
X44331D02*
D03*
X429843Y411457D02*
D03*
Y419331D02*
D03*
X424331Y424843D02*
D03*
X416457D02*
D03*
X410945Y419331D02*
D03*
Y411457D02*
D03*
X416457Y405945D02*
D03*
X424331D02*
D03*
X49843Y411457D02*
D03*
Y419331D02*
D03*
X44331Y424843D02*
D03*
X36457D02*
D03*
X30945Y419331D02*
D03*
Y411457D02*
D03*
X36457Y405945D02*
D03*
X44331D02*
D03*
X429843Y441457D02*
D03*
Y449331D02*
D03*
X424331Y454843D02*
D03*
X416457D02*
D03*
X410945Y449331D02*
D03*
Y441457D02*
D03*
X416457Y435945D02*
D03*
X424331D02*
D03*
X49843Y441457D02*
D03*
Y449331D02*
D03*
X44331Y454843D02*
D03*
X36457D02*
D03*
X30945Y449331D02*
D03*
Y441457D02*
D03*
X36457Y435945D02*
D03*
X44331D02*
D03*
X429843Y816457D02*
D03*
Y824331D02*
D03*
X424331Y829842D02*
D03*
X416457D02*
D03*
X410945Y824331D02*
D03*
Y816457D02*
D03*
X416457Y810945D02*
D03*
X424331D02*
D03*
X49843Y816457D02*
D03*
Y824331D02*
D03*
X44331Y829842D02*
D03*
X36457D02*
D03*
X30945Y824331D02*
D03*
Y816457D02*
D03*
X36457Y810945D02*
D03*
X44331D02*
D03*
G54D109*
X205970Y107658D02*
D03*
Y111988D02*
D03*
X210301Y103327D02*
D03*
Y107658D02*
D03*
Y111988D02*
D03*
X214632Y103327D02*
D03*
Y107658D02*
D03*
Y111988D02*
D03*
X218962Y103327D02*
D03*
Y107658D02*
D03*
Y111988D02*
D03*
X205970Y103327D02*
D03*
X133726Y107658D02*
D03*
Y111988D02*
D03*
X138057Y103327D02*
D03*
Y107658D02*
D03*
Y111988D02*
D03*
X142387Y103327D02*
D03*
Y107658D02*
D03*
Y111988D02*
D03*
X146718Y103327D02*
D03*
Y107658D02*
D03*
Y111988D02*
D03*
X133726Y103327D02*
D03*
X61482Y107658D02*
D03*
Y111988D02*
D03*
X65813Y103327D02*
D03*
Y107658D02*
D03*
Y111988D02*
D03*
X70143Y103327D02*
D03*
Y107658D02*
D03*
Y111988D02*
D03*
X74474Y103327D02*
D03*
Y107658D02*
D03*
Y111988D02*
D03*
X61482Y103327D02*
D03*
X350458Y107658D02*
D03*
Y111988D02*
D03*
X354789Y103327D02*
D03*
Y107658D02*
D03*
Y111988D02*
D03*
X359120Y103327D02*
D03*
Y107658D02*
D03*
Y111988D02*
D03*
X363450Y103327D02*
D03*
Y107658D02*
D03*
Y111988D02*
D03*
X350458Y103327D02*
D03*
X278214Y107658D02*
D03*
Y111988D02*
D03*
X282545Y103327D02*
D03*
Y107658D02*
D03*
Y111988D02*
D03*
X286876Y103327D02*
D03*
Y107658D02*
D03*
Y111988D02*
D03*
X291206Y103327D02*
D03*
Y107658D02*
D03*
Y111988D02*
D03*
X278214Y103327D02*
D03*
X205970Y512658D02*
D03*
Y516988D02*
D03*
X210301Y508327D02*
D03*
Y512658D02*
D03*
Y516988D02*
D03*
X214632Y508327D02*
D03*
Y512658D02*
D03*
Y516988D02*
D03*
X218962Y508327D02*
D03*
Y512658D02*
D03*
Y516988D02*
D03*
X205970Y508327D02*
D03*
X133726Y512658D02*
D03*
Y516988D02*
D03*
X138057Y508327D02*
D03*
Y512658D02*
D03*
Y516988D02*
D03*
X142387Y508327D02*
D03*
Y512658D02*
D03*
Y516988D02*
D03*
X146718Y508327D02*
D03*
Y512658D02*
D03*
Y516988D02*
D03*
X133726Y508327D02*
D03*
X61482Y512658D02*
D03*
Y516988D02*
D03*
X65813Y508327D02*
D03*
Y512658D02*
D03*
Y516988D02*
D03*
X70143Y508327D02*
D03*
Y512658D02*
D03*
Y516988D02*
D03*
X74474Y508327D02*
D03*
Y512658D02*
D03*
Y516988D02*
D03*
X61482Y508327D02*
D03*
X350458Y512658D02*
D03*
Y516988D02*
D03*
X354789Y508327D02*
D03*
Y512658D02*
D03*
Y516988D02*
D03*
X359120Y508327D02*
D03*
Y512658D02*
D03*
Y516988D02*
D03*
X363450Y508327D02*
D03*
Y512658D02*
D03*
Y516988D02*
D03*
X350458Y508327D02*
D03*
X278214Y512658D02*
D03*
Y516988D02*
D03*
X282545Y508327D02*
D03*
Y512658D02*
D03*
Y516988D02*
D03*
X286876Y508327D02*
D03*
Y512658D02*
D03*
Y516988D02*
D03*
X291206Y508327D02*
D03*
Y512658D02*
D03*
Y516988D02*
D03*
X278214Y508327D02*
D03*
G54D220*
X44540Y144959D02*
X44457Y145964D01*
X44209Y146941D01*
X43804Y147864D01*
X43253Y148707D01*
X42570Y149449D01*
X41775Y150068D01*
X40889Y150548D01*
X39935Y150875D01*
X38941Y151041D01*
X37934D01*
X36939Y150875D01*
X35986Y150548D01*
X35100Y150068D01*
X34304Y149449D01*
X33622Y148707D01*
X33071Y147864D01*
X32666Y146941D01*
X32418Y145964D01*
X32335Y144959D01*
X32418Y143955D01*
X32666Y142978D01*
X33071Y142055D01*
X33622Y141211D01*
X34304Y140470D01*
X35100Y139851D01*
X35986Y139371D01*
X36939Y139044D01*
X37934Y138878D01*
X38941D01*
X39935Y139044D01*
X40889Y139371D01*
X41775Y139851D01*
X42570Y140470D01*
X43253Y141211D01*
X43804Y142055D01*
X44209Y142978D01*
X44457Y143955D01*
X44540Y144959D01*
X68396Y335894D02*
X68313Y336898D01*
X68065Y337875D01*
X67661Y338798D01*
X67109Y339642D01*
X66427Y340383D01*
X65631Y341002D01*
X64745Y341482D01*
X63792Y341809D01*
X62798Y341975D01*
X61790D01*
X60796Y341809D01*
X59842Y341482D01*
X58956Y341002D01*
X58161Y340383D01*
X57478Y339642D01*
X56927Y338798D01*
X56522Y337875D01*
X56275Y336898D01*
X56191Y335894D01*
X56275Y334889D01*
X56522Y333912D01*
X56927Y332989D01*
X57478Y332146D01*
X58161Y331404D01*
X58956Y330785D01*
X59842Y330305D01*
X60796Y329978D01*
X61790Y329812D01*
X62798D01*
X63792Y329978D01*
X64745Y330305D01*
X65631Y330785D01*
X66427Y331404D01*
X67109Y332146D01*
X67661Y332989D01*
X68065Y333912D01*
X68313Y334889D01*
X68396Y335894D01*
X246996Y169694D02*
X246913Y170698D01*
X246665Y171675D01*
X246261Y172598D01*
X245709Y173442D01*
X245027Y174183D01*
X244231Y174802D01*
X243345Y175282D01*
X242392Y175609D01*
X241398Y175775D01*
X240390D01*
X239396Y175609D01*
X238442Y175282D01*
X237556Y174802D01*
X236761Y174183D01*
X236078Y173442D01*
X235527Y172598D01*
X235122Y171675D01*
X234875Y170698D01*
X234791Y169694D01*
X234875Y168689D01*
X235122Y167712D01*
X235527Y166789D01*
X236078Y165946D01*
X236761Y165204D01*
X237556Y164585D01*
X238442Y164105D01*
X239396Y163778D01*
X240390Y163612D01*
X241398D01*
X242392Y163778D01*
X243345Y164105D01*
X244231Y164585D01*
X245027Y165204D01*
X245709Y165946D01*
X246261Y166789D01*
X246665Y167712D01*
X246913Y168689D01*
X246996Y169694D01*
X44540Y549959D02*
X44457Y550964D01*
X44209Y551941D01*
X43804Y552864D01*
X43253Y553707D01*
X42570Y554449D01*
X41775Y555068D01*
X40889Y555548D01*
X39935Y555875D01*
X38941Y556041D01*
X37934D01*
X36939Y555875D01*
X35986Y555548D01*
X35100Y555068D01*
X34304Y554449D01*
X33622Y553707D01*
X33071Y552864D01*
X32666Y551941D01*
X32418Y550964D01*
X32335Y549959D01*
X32418Y548955D01*
X32666Y547978D01*
X33071Y547055D01*
X33622Y546211D01*
X34304Y545470D01*
X35100Y544851D01*
X35986Y544371D01*
X36939Y544044D01*
X37934Y543878D01*
X38941D01*
X39935Y544044D01*
X40889Y544371D01*
X41775Y544851D01*
X42570Y545470D01*
X43253Y546211D01*
X43804Y547055D01*
X44209Y547978D01*
X44457Y548955D01*
X44540Y549959D01*
X68396Y740894D02*
X68313Y741898D01*
X68065Y742875D01*
X67661Y743798D01*
X67109Y744642D01*
X66427Y745383D01*
X65631Y746002D01*
X64745Y746482D01*
X63792Y746809D01*
X62798Y746975D01*
X61790D01*
X60796Y746809D01*
X59842Y746482D01*
X58956Y746002D01*
X58161Y745383D01*
X57478Y744642D01*
X56927Y743798D01*
X56522Y742875D01*
X56275Y741898D01*
X56191Y740894D01*
X56275Y739889D01*
X56522Y738912D01*
X56927Y737989D01*
X57478Y737146D01*
X58161Y736404D01*
X58956Y735785D01*
X59842Y735305D01*
X60796Y734978D01*
X61790Y734812D01*
X62798D01*
X63792Y734978D01*
X64745Y735305D01*
X65631Y735785D01*
X66427Y736404D01*
X67109Y737146D01*
X67661Y737989D01*
X68065Y738912D01*
X68313Y739889D01*
X68396Y740894D01*
X246996Y574694D02*
X246913Y575698D01*
X246665Y576675D01*
X246261Y577598D01*
X245709Y578442D01*
X245027Y579183D01*
X244231Y579802D01*
X243345Y580282D01*
X242392Y580609D01*
X241398Y580775D01*
X240390D01*
X239396Y580609D01*
X238442Y580282D01*
X237556Y579802D01*
X236761Y579183D01*
X236078Y578442D01*
X235527Y577598D01*
X235122Y576675D01*
X234875Y575698D01*
X234791Y574694D01*
X234875Y573689D01*
X235122Y572712D01*
X235527Y571789D01*
X236078Y570946D01*
X236761Y570204D01*
X237556Y569585D01*
X238442Y569105D01*
X239396Y568778D01*
X240390Y568612D01*
X241398D01*
X242392Y568778D01*
X243345Y569105D01*
X244231Y569585D01*
X245027Y570204D01*
X245709Y570946D01*
X246261Y571789D01*
X246665Y572712D01*
X246913Y573689D01*
X246996Y574694D01*
G54D221*
X268502Y303445D02*
D03*
Y708445D02*
D03*
G54D222*
X93392Y250316D02*
D03*
Y655316D02*
D03*
G54D223*
X37894Y12894D02*
D03*
X423780Y13189D02*
D03*
Y847974D02*
D03*
X37894D02*
D03*
G54D224*
X409252Y126378D02*
D03*
X425026D02*
D03*
X287008Y340650D02*
D03*
X271234D02*
D03*
X222568Y387794D02*
D03*
X206794D02*
D03*
X392899Y388936D02*
D03*
X377125D02*
D03*
X280868Y381694D02*
D03*
X265094D02*
D03*
X409252Y531378D02*
D03*
X425026D02*
D03*
X287008Y745650D02*
D03*
X271234D02*
D03*
X222568Y792794D02*
D03*
X206794D02*
D03*
X392899Y793936D02*
D03*
X377125D02*
D03*
X280868Y786694D02*
D03*
X265094D02*
D03*
G54D225*
X285433Y419085D02*
D03*
Y395374D02*
D03*
Y824085D02*
D03*
Y800374D02*
D03*
G54D226*
X348525Y407836D02*
D03*
Y812836D02*
D03*
G54D227*
X339076Y411773D02*
D03*
Y409805D02*
D03*
Y407836D02*
D03*
Y405868D02*
D03*
Y403899D02*
D03*
X357974Y411773D02*
D03*
Y409805D02*
D03*
Y407836D02*
D03*
Y405868D02*
D03*
Y403899D02*
D03*
X339076Y816773D02*
D03*
Y814805D02*
D03*
Y812836D02*
D03*
Y810868D02*
D03*
Y808899D02*
D03*
X357974Y816773D02*
D03*
Y814805D02*
D03*
Y812836D02*
D03*
Y810868D02*
D03*
Y808899D02*
D03*
G54D228*
X89665Y217618D02*
D03*
X86122D02*
D03*
X82087Y228740D02*
D03*
X78543D02*
D03*
X356122Y184894D02*
D03*
X359665D02*
D03*
X348622D02*
D03*
X352165D02*
D03*
X132122Y158194D02*
D03*
X135665D02*
D03*
X367881Y230453D02*
D03*
X364337D02*
D03*
X86221Y177854D02*
D03*
X89764D02*
D03*
X89764Y185138D02*
D03*
X86221D02*
D03*
X86122Y170571D02*
D03*
X89665D02*
D03*
X91831Y192421D02*
D03*
X88287D02*
D03*
X85827Y210335D02*
D03*
X89370D02*
D03*
X284341Y230510D02*
D03*
X287885D02*
D03*
X301068Y230890D02*
D03*
X297525D02*
D03*
X352165Y230763D02*
D03*
X355709D02*
D03*
X330012Y231017D02*
D03*
X326468D02*
D03*
X313961Y231117D02*
D03*
X317504D02*
D03*
X89665Y622618D02*
D03*
X86122D02*
D03*
X82087Y633740D02*
D03*
X78543D02*
D03*
X356122Y589894D02*
D03*
X359665D02*
D03*
X348622D02*
D03*
X352165D02*
D03*
X132122Y563194D02*
D03*
X135665D02*
D03*
X367881Y635453D02*
D03*
X364337D02*
D03*
X86221Y582854D02*
D03*
X89764D02*
D03*
X89764Y590138D02*
D03*
X86221D02*
D03*
X86122Y575571D02*
D03*
X89665D02*
D03*
X91831Y597421D02*
D03*
X88287D02*
D03*
X85827Y615335D02*
D03*
X89370D02*
D03*
X284341Y635510D02*
D03*
X287885D02*
D03*
X301068Y635890D02*
D03*
X297525D02*
D03*
X352165Y635763D02*
D03*
X355709D02*
D03*
X330012Y636017D02*
D03*
X326468D02*
D03*
X313961Y636117D02*
D03*
X317504D02*
D03*
G54D229*
X39961Y162205D02*
D03*
Y223228D02*
D03*
Y567205D02*
D03*
Y628228D02*
D03*
G54D230*
X77362Y223228D02*
D03*
Y628228D02*
D03*
G54D231*
X77756Y166142D02*
D03*
Y571142D02*
D03*
G54D232*
X79724Y192717D02*
D03*
Y188386D02*
D03*
Y184055D02*
D03*
Y197047D02*
D03*
Y201378D02*
D03*
Y205709D02*
D03*
Y210039D02*
D03*
Y214370D02*
D03*
Y218701D02*
D03*
Y597717D02*
D03*
Y593386D02*
D03*
Y589055D02*
D03*
Y602047D02*
D03*
Y606378D02*
D03*
Y610709D02*
D03*
Y615039D02*
D03*
Y619370D02*
D03*
Y623701D02*
D03*
G54D233*
X80707Y309658D02*
D03*
X84497D02*
D03*
X65550Y306808D02*
D03*
X61760D02*
D03*
X105099Y191671D02*
D03*
X101310D02*
D03*
X210320Y124567D02*
D03*
X206531D02*
D03*
X217353Y131496D02*
D03*
X213563D02*
D03*
Y138091D02*
D03*
X217353D02*
D03*
X138110Y124606D02*
D03*
X134320D02*
D03*
X145109Y131398D02*
D03*
X141319D02*
D03*
Y138091D02*
D03*
X145109D02*
D03*
X69075Y131398D02*
D03*
X72865D02*
D03*
X354809Y124567D02*
D03*
X351019D02*
D03*
X382223Y185432D02*
D03*
X378433D02*
D03*
X370572Y185424D02*
D03*
X374361D02*
D03*
X334857Y182347D02*
D03*
X331067D02*
D03*
X338914Y190163D02*
D03*
X342704D02*
D03*
X312131Y183782D02*
D03*
X315921D02*
D03*
X323723Y191592D02*
D03*
X319933D02*
D03*
X364523Y226442D02*
D03*
X368313D02*
D03*
X368335Y238610D02*
D03*
X364545D02*
D03*
X278775Y124567D02*
D03*
X282565D02*
D03*
X285807Y131398D02*
D03*
X289597D02*
D03*
Y138091D02*
D03*
X285807D02*
D03*
X289587Y141437D02*
D03*
X285797D02*
D03*
X292294Y185394D02*
D03*
X296083D02*
D03*
X205563Y302555D02*
D03*
X209353D02*
D03*
X217165Y302647D02*
D03*
X213375D02*
D03*
X284264Y238948D02*
D03*
X288054D02*
D03*
X72854Y141437D02*
D03*
X69065D02*
D03*
X89991Y228543D02*
D03*
X86201D02*
D03*
X56575Y150689D02*
D03*
X60365D02*
D03*
X141309Y141437D02*
D03*
X145098D02*
D03*
X217343D02*
D03*
X213553D02*
D03*
X72865Y138091D02*
D03*
X69075D02*
D03*
X65866Y124606D02*
D03*
X62076D02*
D03*
X318101Y226908D02*
D03*
X314311D02*
D03*
X326991Y226754D02*
D03*
X330781D02*
D03*
X356297Y226439D02*
D03*
X352508D02*
D03*
X78883Y345994D02*
D03*
X75094D02*
D03*
X289257Y225996D02*
D03*
X285467D02*
D03*
X297820Y239153D02*
D03*
X301610D02*
D03*
X301589Y226575D02*
D03*
X297799D02*
D03*
X285748Y296358D02*
D03*
X281958D02*
D03*
X236894Y336994D02*
D03*
X233104D02*
D03*
X148684Y278894D02*
D03*
X144894D02*
D03*
X144994Y284394D02*
D03*
X148784D02*
D03*
X93283Y287094D02*
D03*
X89494D02*
D03*
X89494Y282694D02*
D03*
X93283D02*
D03*
X79737Y333084D02*
D03*
X83526D02*
D03*
X333515Y408736D02*
D03*
X329725D02*
D03*
X97387Y352486D02*
D03*
X93597D02*
D03*
X134235Y353949D02*
D03*
X138025D02*
D03*
X83499Y329094D02*
D03*
X79709D02*
D03*
X79708Y324988D02*
D03*
X83498D02*
D03*
X330806Y239222D02*
D03*
X327016D02*
D03*
X85512Y181496D02*
D03*
X89302D02*
D03*
X89321Y174213D02*
D03*
X85532D02*
D03*
X89291Y188779D02*
D03*
X85502D02*
D03*
X86486Y213976D02*
D03*
X90276D02*
D03*
Y221260D02*
D03*
X86486D02*
D03*
X136840Y186447D02*
D03*
X140630D02*
D03*
X256351Y297177D02*
D03*
X252561D02*
D03*
X300204Y193294D02*
D03*
X303994D02*
D03*
X318113Y239282D02*
D03*
X314323D02*
D03*
X421555Y380060D02*
D03*
X425345D02*
D03*
X414694Y58194D02*
D03*
X410904D02*
D03*
X419862Y395457D02*
D03*
X423652D02*
D03*
X37594Y356494D02*
D03*
X33804D02*
D03*
X259178Y179340D02*
D03*
X255389D02*
D03*
X259207Y190793D02*
D03*
X255418D02*
D03*
X259198Y186819D02*
D03*
X255409D02*
D03*
X358051Y138091D02*
D03*
X361841D02*
D03*
X196441Y192407D02*
D03*
X192652D02*
D03*
X264719Y266224D02*
D03*
X260929D02*
D03*
X151031Y254548D02*
D03*
X147242D02*
D03*
X131161Y254454D02*
D03*
X134951D02*
D03*
X146194Y229194D02*
D03*
X142404D02*
D03*
X123319Y254453D02*
D03*
X127109D02*
D03*
X136301Y229362D02*
D03*
X132511D02*
D03*
X119302Y254541D02*
D03*
X115512D02*
D03*
X119287Y229347D02*
D03*
X115498D02*
D03*
X142372Y224824D02*
D03*
X146161D02*
D03*
X135635Y199936D02*
D03*
X139425D02*
D03*
X126647Y224916D02*
D03*
X130437D02*
D03*
X118838Y225028D02*
D03*
X122628D02*
D03*
X138284Y224994D02*
D03*
X134494D02*
D03*
X118671Y199457D02*
D03*
X122460D02*
D03*
X111003Y225003D02*
D03*
X114793D02*
D03*
X110788Y199489D02*
D03*
X114577D02*
D03*
X358041Y141437D02*
D03*
X361831D02*
D03*
X358051Y131398D02*
D03*
X361841D02*
D03*
X356336Y239216D02*
D03*
X352546D02*
D03*
X80707Y714657D02*
D03*
X84497D02*
D03*
X65550Y711808D02*
D03*
X61760D02*
D03*
X105099Y596671D02*
D03*
X101310D02*
D03*
X210320Y529567D02*
D03*
X206531D02*
D03*
X217353Y536496D02*
D03*
X213563D02*
D03*
Y543090D02*
D03*
X217353D02*
D03*
X138110Y529606D02*
D03*
X134320D02*
D03*
X145109Y536398D02*
D03*
X141319D02*
D03*
Y543090D02*
D03*
X145109D02*
D03*
X69075Y536398D02*
D03*
X72865D02*
D03*
X354809Y529567D02*
D03*
X351019D02*
D03*
X382223Y590432D02*
D03*
X378433D02*
D03*
X370572Y590424D02*
D03*
X374361D02*
D03*
X334857Y587347D02*
D03*
X331067D02*
D03*
X338914Y595163D02*
D03*
X342704D02*
D03*
X312131Y588782D02*
D03*
X315921D02*
D03*
X323723Y596592D02*
D03*
X319933D02*
D03*
X364523Y631442D02*
D03*
X368313D02*
D03*
X368335Y643610D02*
D03*
X364545D02*
D03*
X278775Y529567D02*
D03*
X282565D02*
D03*
X285807Y536398D02*
D03*
X289597D02*
D03*
Y543090D02*
D03*
X285807D02*
D03*
X289587Y546437D02*
D03*
X285797D02*
D03*
X292294Y590394D02*
D03*
X296083D02*
D03*
X205563Y707555D02*
D03*
X209353D02*
D03*
X217165Y707648D02*
D03*
X213375D02*
D03*
X284264Y643948D02*
D03*
X288054D02*
D03*
X72854Y546437D02*
D03*
X69065D02*
D03*
X89991Y633543D02*
D03*
X86201D02*
D03*
X56575Y555689D02*
D03*
X60365D02*
D03*
X141309Y546437D02*
D03*
X145098D02*
D03*
X217343D02*
D03*
X213553D02*
D03*
X72865Y543090D02*
D03*
X69075D02*
D03*
X65866Y529606D02*
D03*
X62076D02*
D03*
X318101Y631908D02*
D03*
X314311D02*
D03*
X326991Y631754D02*
D03*
X330781D02*
D03*
X356297Y631439D02*
D03*
X352508D02*
D03*
X78883Y750994D02*
D03*
X75094D02*
D03*
X289257Y630996D02*
D03*
X285467D02*
D03*
X297820Y644153D02*
D03*
X301610D02*
D03*
X301589Y631575D02*
D03*
X297799D02*
D03*
X285748Y701358D02*
D03*
X281958D02*
D03*
X236894Y741994D02*
D03*
X233104D02*
D03*
X148684Y683894D02*
D03*
X144894D02*
D03*
X144994Y689394D02*
D03*
X148784D02*
D03*
X93283Y692094D02*
D03*
X89494D02*
D03*
X89494Y687694D02*
D03*
X93283D02*
D03*
X79737Y738084D02*
D03*
X83526D02*
D03*
X333515Y813736D02*
D03*
X329725D02*
D03*
X97387Y757486D02*
D03*
X93597D02*
D03*
X134235Y758949D02*
D03*
X138025D02*
D03*
X83499Y734094D02*
D03*
X79709D02*
D03*
X79708Y729988D02*
D03*
X83498D02*
D03*
X330806Y644222D02*
D03*
X327016D02*
D03*
X85512Y586496D02*
D03*
X89302D02*
D03*
X89321Y579213D02*
D03*
X85532D02*
D03*
X89291Y593780D02*
D03*
X85502D02*
D03*
X86486Y618976D02*
D03*
X90276D02*
D03*
Y626260D02*
D03*
X86486D02*
D03*
X136840Y591447D02*
D03*
X140630D02*
D03*
X256351Y702177D02*
D03*
X252561D02*
D03*
X300204Y598294D02*
D03*
X303994D02*
D03*
X318113Y644281D02*
D03*
X314323D02*
D03*
X421555Y785059D02*
D03*
X425345D02*
D03*
X414694Y463194D02*
D03*
X410904D02*
D03*
X419862Y800457D02*
D03*
X423652D02*
D03*
X37594Y761494D02*
D03*
X33804D02*
D03*
X259178Y584340D02*
D03*
X255389D02*
D03*
X259207Y595793D02*
D03*
X255418D02*
D03*
X259198Y591819D02*
D03*
X255409D02*
D03*
X358051Y543090D02*
D03*
X361841D02*
D03*
X196441Y597407D02*
D03*
X192652D02*
D03*
X264719Y671224D02*
D03*
X260929D02*
D03*
X151031Y659548D02*
D03*
X147242D02*
D03*
X131161Y659454D02*
D03*
X134951D02*
D03*
X146194Y634194D02*
D03*
X142404D02*
D03*
X123319Y659453D02*
D03*
X127109D02*
D03*
X136301Y634362D02*
D03*
X132511D02*
D03*
X119302Y659541D02*
D03*
X115512D02*
D03*
X119287Y634347D02*
D03*
X115498D02*
D03*
X142372Y629824D02*
D03*
X146161D02*
D03*
X135635Y604936D02*
D03*
X139425D02*
D03*
X126647Y629916D02*
D03*
X130437D02*
D03*
X118838Y630028D02*
D03*
X122628D02*
D03*
X138284Y629994D02*
D03*
X134494D02*
D03*
X118671Y604457D02*
D03*
X122460D02*
D03*
X111003Y630003D02*
D03*
X114793D02*
D03*
X110788Y604489D02*
D03*
X114577D02*
D03*
X358041Y546437D02*
D03*
X361831D02*
D03*
X358051Y536398D02*
D03*
X361841D02*
D03*
X356336Y644216D02*
D03*
X352546D02*
D03*
G54D234*
X47961Y308862D02*
D03*
Y305072D02*
D03*
X220472Y125345D02*
D03*
Y121555D02*
D03*
X148425Y125620D02*
D03*
Y121831D02*
D03*
X76378Y125424D02*
D03*
Y121634D02*
D03*
X364961Y125227D02*
D03*
Y121437D02*
D03*
X382918Y193394D02*
D03*
Y189604D02*
D03*
X339003Y182356D02*
D03*
Y186146D02*
D03*
X292520Y121339D02*
D03*
Y125128D02*
D03*
X300294Y189183D02*
D03*
Y185394D02*
D03*
X201694Y288094D02*
D03*
Y291883D02*
D03*
X227846Y320748D02*
D03*
Y316958D02*
D03*
X306794Y169594D02*
D03*
Y165804D02*
D03*
X269783Y323248D02*
D03*
Y319458D02*
D03*
X259494Y341094D02*
D03*
Y337304D02*
D03*
X175294Y364384D02*
D03*
Y360594D02*
D03*
X135295Y360600D02*
D03*
Y364390D02*
D03*
X226794Y369794D02*
D03*
Y373584D02*
D03*
X207894Y369294D02*
D03*
Y365504D02*
D03*
X207794Y377083D02*
D03*
Y373294D02*
D03*
X175394Y356794D02*
D03*
Y353004D02*
D03*
X265256Y323248D02*
D03*
Y319458D02*
D03*
X78994Y338004D02*
D03*
Y341794D02*
D03*
X97494Y342094D02*
D03*
Y345883D02*
D03*
X154894Y275004D02*
D03*
Y278794D02*
D03*
X158494Y249294D02*
D03*
Y245504D02*
D03*
X154894Y288084D02*
D03*
Y284294D02*
D03*
X161394Y270994D02*
D03*
Y274783D02*
D03*
X333194Y404484D02*
D03*
Y400694D02*
D03*
X340725Y390593D02*
D03*
Y386803D02*
D03*
X335194Y386794D02*
D03*
Y390583D02*
D03*
X95194Y360507D02*
D03*
Y364297D02*
D03*
X235899Y292285D02*
D03*
Y288495D02*
D03*
X58894Y33494D02*
D03*
Y37284D02*
D03*
X48794Y393804D02*
D03*
Y397594D02*
D03*
X320024Y187564D02*
D03*
Y183774D02*
D03*
X213269Y289491D02*
D03*
Y293281D02*
D03*
X207549Y292262D02*
D03*
Y288472D02*
D03*
X235349Y191266D02*
D03*
Y187476D02*
D03*
X154374Y245485D02*
D03*
Y249275D02*
D03*
X47961Y713862D02*
D03*
Y710072D02*
D03*
X220472Y530345D02*
D03*
Y526555D02*
D03*
X148425Y530620D02*
D03*
Y526831D02*
D03*
X76378Y530424D02*
D03*
Y526634D02*
D03*
X364961Y530227D02*
D03*
Y526437D02*
D03*
X382918Y598394D02*
D03*
Y594604D02*
D03*
X339003Y587356D02*
D03*
Y591146D02*
D03*
X292520Y526339D02*
D03*
Y530128D02*
D03*
X300294Y594183D02*
D03*
Y590394D02*
D03*
X201694Y693094D02*
D03*
Y696883D02*
D03*
X227846Y725748D02*
D03*
Y721958D02*
D03*
X306794Y574594D02*
D03*
Y570804D02*
D03*
X269783Y728248D02*
D03*
Y724458D02*
D03*
X259494Y746094D02*
D03*
Y742304D02*
D03*
X175294Y769383D02*
D03*
Y765594D02*
D03*
X135295Y765600D02*
D03*
Y769390D02*
D03*
X226794Y774794D02*
D03*
Y778583D02*
D03*
X207894Y774294D02*
D03*
Y770504D02*
D03*
X207794Y782084D02*
D03*
Y778294D02*
D03*
X175394Y761794D02*
D03*
Y758004D02*
D03*
X265256Y728248D02*
D03*
Y724458D02*
D03*
X78994Y743004D02*
D03*
Y746794D02*
D03*
X97494Y747094D02*
D03*
Y750883D02*
D03*
X154894Y680004D02*
D03*
Y683794D02*
D03*
X158494Y654294D02*
D03*
Y650504D02*
D03*
X154894Y693083D02*
D03*
Y689294D02*
D03*
X161394Y675994D02*
D03*
Y679783D02*
D03*
X333194Y809484D02*
D03*
Y805694D02*
D03*
X340725Y795593D02*
D03*
Y791803D02*
D03*
X335194Y791794D02*
D03*
Y795583D02*
D03*
X95194Y765507D02*
D03*
Y769297D02*
D03*
X235899Y697285D02*
D03*
Y693495D02*
D03*
X58894Y438494D02*
D03*
Y442283D02*
D03*
X48794Y798804D02*
D03*
Y802594D02*
D03*
X320024Y592564D02*
D03*
Y588774D02*
D03*
X213269Y694491D02*
D03*
Y698281D02*
D03*
X207549Y697262D02*
D03*
Y693472D02*
D03*
X235349Y596266D02*
D03*
Y592476D02*
D03*
X154374Y650485D02*
D03*
Y654275D02*
D03*
G54D235*
X105036Y196846D02*
D03*
X101296D02*
D03*
X391294Y185435D02*
D03*
X387554D02*
D03*
X216928Y335001D02*
D03*
X220668D02*
D03*
X103445Y158268D02*
D03*
X107185D02*
D03*
X368293Y234468D02*
D03*
X364553D02*
D03*
X352570Y234983D02*
D03*
X356310D02*
D03*
X330764Y235042D02*
D03*
X327024D02*
D03*
X314326Y235148D02*
D03*
X318066D02*
D03*
X292124Y54194D02*
D03*
X295864D02*
D03*
X289665Y69685D02*
D03*
X293406D02*
D03*
X317092Y85197D02*
D03*
X313352D02*
D03*
X254921Y61910D02*
D03*
X251181D02*
D03*
X165487Y54169D02*
D03*
X169227D02*
D03*
X126364Y54194D02*
D03*
X122624D02*
D03*
X146063Y69784D02*
D03*
X149803D02*
D03*
X165157Y59350D02*
D03*
X168898D02*
D03*
X365616Y69646D02*
D03*
X369356D02*
D03*
X66240Y141437D02*
D03*
X62500D02*
D03*
X385695Y85197D02*
D03*
X389435D02*
D03*
X361811Y134744D02*
D03*
X358071D02*
D03*
X349705Y69685D02*
D03*
X345965D02*
D03*
X76673D02*
D03*
X80413D02*
D03*
X100394Y85236D02*
D03*
X96653D02*
D03*
X228764Y54094D02*
D03*
X225024D02*
D03*
X182124D02*
D03*
X185864D02*
D03*
X219685Y74016D02*
D03*
X223425D02*
D03*
X244848Y85197D02*
D03*
X241108D02*
D03*
X185925Y60630D02*
D03*
X182185D02*
D03*
X285827Y134744D02*
D03*
X289567D02*
D03*
X66294Y53994D02*
D03*
X62554D02*
D03*
X234903Y317941D02*
D03*
X238643D02*
D03*
X189584Y351694D02*
D03*
X185843D02*
D03*
X145728Y351969D02*
D03*
X149469D02*
D03*
X109311Y351870D02*
D03*
X105571D02*
D03*
X355020Y141437D02*
D03*
X351279D02*
D03*
X286924Y373794D02*
D03*
X290664D02*
D03*
X284824Y326494D02*
D03*
X288564D02*
D03*
X56595Y154035D02*
D03*
X60335D02*
D03*
X226324Y365394D02*
D03*
X230064D02*
D03*
X96888Y334081D02*
D03*
X93148D02*
D03*
X280664Y326594D02*
D03*
X276924D02*
D03*
X186964Y288194D02*
D03*
X183224D02*
D03*
X164370Y225689D02*
D03*
X160630D02*
D03*
X224124Y288594D02*
D03*
X227864D02*
D03*
X162464Y221394D02*
D03*
X158724D02*
D03*
X89624Y301994D02*
D03*
X93364D02*
D03*
X165764Y266994D02*
D03*
X162024D02*
D03*
X341095Y397936D02*
D03*
X337355D02*
D03*
X284262Y234870D02*
D03*
X288002D02*
D03*
X301576Y235109D02*
D03*
X297836D02*
D03*
X280724Y314294D02*
D03*
X284464D02*
D03*
X325564Y313394D02*
D03*
X321824D02*
D03*
X417004Y156146D02*
D03*
X420744D02*
D03*
X68996Y134744D02*
D03*
X72736D02*
D03*
X421575Y384060D02*
D03*
X425315D02*
D03*
X145079Y134744D02*
D03*
X141339D02*
D03*
X134547Y141437D02*
D03*
X138287D02*
D03*
X213583Y134744D02*
D03*
X217323D02*
D03*
X210531Y141437D02*
D03*
X206791D02*
D03*
X282776D02*
D03*
X279035D02*
D03*
X105036Y601847D02*
D03*
X101296D02*
D03*
X391294Y590436D02*
D03*
X387554D02*
D03*
X216928Y740001D02*
D03*
X220668D02*
D03*
X103445Y563268D02*
D03*
X107185D02*
D03*
X368293Y639468D02*
D03*
X364553D02*
D03*
X352570Y639983D02*
D03*
X356310D02*
D03*
X330764Y640042D02*
D03*
X327024D02*
D03*
X314326Y640148D02*
D03*
X318066D02*
D03*
X292124Y459194D02*
D03*
X295864D02*
D03*
X289665Y474685D02*
D03*
X293406D02*
D03*
X317092Y490197D02*
D03*
X313352D02*
D03*
X254921Y466910D02*
D03*
X251181D02*
D03*
X165487Y459169D02*
D03*
X169227D02*
D03*
X126364Y459194D02*
D03*
X122624D02*
D03*
X146063Y474784D02*
D03*
X149803D02*
D03*
X165157Y464350D02*
D03*
X168898D02*
D03*
X365616Y474646D02*
D03*
X369356D02*
D03*
X66240Y546437D02*
D03*
X62500D02*
D03*
X385695Y490197D02*
D03*
X389435D02*
D03*
X361811Y539744D02*
D03*
X358071D02*
D03*
X349705Y474685D02*
D03*
X345965D02*
D03*
X76673D02*
D03*
X80413D02*
D03*
X100394Y490236D02*
D03*
X96653D02*
D03*
X228764Y459094D02*
D03*
X225024D02*
D03*
X182124D02*
D03*
X185864D02*
D03*
X219685Y479016D02*
D03*
X223425D02*
D03*
X244848Y490197D02*
D03*
X241108D02*
D03*
X185925Y465630D02*
D03*
X182185D02*
D03*
X285827Y539744D02*
D03*
X289567D02*
D03*
X66294Y458994D02*
D03*
X62554D02*
D03*
X234903Y722941D02*
D03*
X238643D02*
D03*
X189584Y756694D02*
D03*
X185843D02*
D03*
X145728Y756968D02*
D03*
X149469D02*
D03*
X109311Y756870D02*
D03*
X105571D02*
D03*
X355020Y546437D02*
D03*
X351279D02*
D03*
X286924Y778794D02*
D03*
X290664D02*
D03*
X284824Y731494D02*
D03*
X288564D02*
D03*
X56595Y559035D02*
D03*
X60335D02*
D03*
X226324Y770394D02*
D03*
X230064D02*
D03*
X96888Y739081D02*
D03*
X93148D02*
D03*
X280664Y731594D02*
D03*
X276924D02*
D03*
X186964Y693194D02*
D03*
X183224D02*
D03*
X164370Y630689D02*
D03*
X160630D02*
D03*
X224124Y693594D02*
D03*
X227864D02*
D03*
X162464Y626394D02*
D03*
X158724D02*
D03*
X89624Y706994D02*
D03*
X93364D02*
D03*
X165764Y671994D02*
D03*
X162024D02*
D03*
X341095Y802936D02*
D03*
X337355D02*
D03*
X284262Y639870D02*
D03*
X288002D02*
D03*
X301576Y640109D02*
D03*
X297836D02*
D03*
X280724Y719294D02*
D03*
X284464D02*
D03*
X325564Y718394D02*
D03*
X321824D02*
D03*
X417004Y561146D02*
D03*
X420744D02*
D03*
X68996Y539744D02*
D03*
X72736D02*
D03*
X421575Y789059D02*
D03*
X425315D02*
D03*
X145079Y539744D02*
D03*
X141339D02*
D03*
X134547Y546437D02*
D03*
X138287D02*
D03*
X213583Y539744D02*
D03*
X217323D02*
D03*
X210531Y546437D02*
D03*
X206791D02*
D03*
X282776D02*
D03*
X279035D02*
D03*
G54D236*
X96759Y213543D02*
D03*
Y209803D02*
D03*
X365836Y185436D02*
D03*
Y189176D02*
D03*
X327043Y186122D02*
D03*
Y182382D02*
D03*
X308094Y183824D02*
D03*
Y187564D02*
D03*
X65847Y131595D02*
D03*
Y127854D02*
D03*
X62106Y132215D02*
D03*
Y128475D02*
D03*
X47539Y121457D02*
D03*
Y125197D02*
D03*
X57284Y122047D02*
D03*
Y125787D02*
D03*
X325394Y54224D02*
D03*
Y57964D02*
D03*
X343110Y50689D02*
D03*
Y54429D02*
D03*
X315394Y54224D02*
D03*
Y57964D02*
D03*
X305294Y58224D02*
D03*
Y61964D02*
D03*
X155905Y57776D02*
D03*
Y54035D02*
D03*
X145794Y57964D02*
D03*
Y54224D02*
D03*
X135794Y57324D02*
D03*
Y61064D02*
D03*
X116634Y57677D02*
D03*
Y53937D02*
D03*
X384894Y54024D02*
D03*
Y57764D02*
D03*
X394894Y57864D02*
D03*
Y54124D02*
D03*
X374894Y54024D02*
D03*
Y57764D02*
D03*
X364894D02*
D03*
Y54024D02*
D03*
X354789Y131653D02*
D03*
Y127913D02*
D03*
X351049Y132244D02*
D03*
Y128504D02*
D03*
X336910Y126575D02*
D03*
Y130315D02*
D03*
X346226Y122008D02*
D03*
Y125748D02*
D03*
X282545Y127815D02*
D03*
Y131555D02*
D03*
X278805Y128504D02*
D03*
Y132244D02*
D03*
X354894Y57864D02*
D03*
Y54124D02*
D03*
X75894Y56854D02*
D03*
Y60594D02*
D03*
X55794Y55064D02*
D03*
Y51324D02*
D03*
X264370Y125098D02*
D03*
Y128839D02*
D03*
X274016Y121850D02*
D03*
Y125591D02*
D03*
X215394Y54124D02*
D03*
Y57864D02*
D03*
X205394Y54224D02*
D03*
Y57964D02*
D03*
X195294Y58524D02*
D03*
Y62264D02*
D03*
X95694Y57834D02*
D03*
Y54094D02*
D03*
X105494Y54124D02*
D03*
Y57864D02*
D03*
X85594Y57934D02*
D03*
Y54194D02*
D03*
X258594Y301630D02*
D03*
Y305370D02*
D03*
X81959Y241919D02*
D03*
Y245659D02*
D03*
X81953Y253468D02*
D03*
Y249728D02*
D03*
X176633Y192515D02*
D03*
Y196255D02*
D03*
X148130Y311373D02*
D03*
Y307633D02*
D03*
X97628Y240216D02*
D03*
Y243957D02*
D03*
X74114Y87992D02*
D03*
Y91732D02*
D03*
X290846D02*
D03*
Y87992D02*
D03*
X162675Y192939D02*
D03*
Y196679D02*
D03*
X231894Y288524D02*
D03*
Y292264D02*
D03*
X261994Y225524D02*
D03*
Y229264D02*
D03*
X241794Y191564D02*
D03*
Y187824D02*
D03*
X165294Y255424D02*
D03*
Y259164D02*
D03*
X248194Y188024D02*
D03*
Y191764D02*
D03*
X262102Y236494D02*
D03*
Y240234D02*
D03*
X165394Y249264D02*
D03*
Y245524D02*
D03*
X165902Y234159D02*
D03*
Y230419D02*
D03*
X143994Y307624D02*
D03*
Y311364D02*
D03*
X93394Y311864D02*
D03*
Y308124D02*
D03*
X156167Y253373D02*
D03*
Y257113D02*
D03*
X172526Y196261D02*
D03*
Y192521D02*
D03*
X165594Y274664D02*
D03*
Y270924D02*
D03*
X399194Y414624D02*
D03*
Y418364D02*
D03*
X288194Y188524D02*
D03*
Y192264D02*
D03*
X339094Y174189D02*
D03*
Y170449D02*
D03*
X364764Y91732D02*
D03*
Y87992D02*
D03*
X402694Y93924D02*
D03*
Y97664D02*
D03*
Y76664D02*
D03*
Y72924D02*
D03*
X146260Y87992D02*
D03*
Y91732D02*
D03*
X129528Y122047D02*
D03*
Y125787D02*
D03*
X119783Y123425D02*
D03*
Y127165D02*
D03*
X134350Y132185D02*
D03*
Y128445D02*
D03*
X138091Y131595D02*
D03*
Y127854D02*
D03*
X218602Y91732D02*
D03*
Y87992D02*
D03*
X201772Y125591D02*
D03*
Y121850D02*
D03*
X192126Y128740D02*
D03*
Y125000D02*
D03*
X206659Y128504D02*
D03*
Y132244D02*
D03*
X210301Y127913D02*
D03*
Y131653D02*
D03*
X96759Y618543D02*
D03*
Y614803D02*
D03*
X365836Y590436D02*
D03*
Y594176D02*
D03*
X327043Y591122D02*
D03*
Y587382D02*
D03*
X308094Y588824D02*
D03*
Y592564D02*
D03*
X65847Y536594D02*
D03*
Y532854D02*
D03*
X62106Y537215D02*
D03*
Y533475D02*
D03*
X47539Y526457D02*
D03*
Y530197D02*
D03*
X57284Y527047D02*
D03*
Y530787D02*
D03*
X325394Y459224D02*
D03*
Y462964D02*
D03*
X343110Y455689D02*
D03*
Y459429D02*
D03*
X315394Y459224D02*
D03*
Y462964D02*
D03*
X305294Y463224D02*
D03*
Y466964D02*
D03*
X155905Y462776D02*
D03*
Y459035D02*
D03*
X145794Y462964D02*
D03*
Y459224D02*
D03*
X135794Y462324D02*
D03*
Y466064D02*
D03*
X116634Y462677D02*
D03*
Y458937D02*
D03*
X384894Y459024D02*
D03*
Y462764D02*
D03*
X394894Y462864D02*
D03*
Y459124D02*
D03*
X374894Y459024D02*
D03*
Y462764D02*
D03*
X364894D02*
D03*
Y459024D02*
D03*
X354789Y536654D02*
D03*
Y532913D02*
D03*
X351049Y537244D02*
D03*
Y533504D02*
D03*
X336910Y531575D02*
D03*
Y535315D02*
D03*
X346226Y527008D02*
D03*
Y530748D02*
D03*
X282545Y532815D02*
D03*
Y536555D02*
D03*
X278805Y533504D02*
D03*
Y537244D02*
D03*
X354894Y462864D02*
D03*
Y459124D02*
D03*
X75894Y461854D02*
D03*
Y465594D02*
D03*
X55794Y460064D02*
D03*
Y456324D02*
D03*
X264370Y530098D02*
D03*
Y533839D02*
D03*
X274016Y526850D02*
D03*
Y530590D02*
D03*
X215394Y459124D02*
D03*
Y462864D02*
D03*
X205394Y459224D02*
D03*
Y462964D02*
D03*
X195294Y463524D02*
D03*
Y467264D02*
D03*
X95694Y462834D02*
D03*
Y459094D02*
D03*
X105494Y459124D02*
D03*
Y462864D02*
D03*
X85594Y462934D02*
D03*
Y459194D02*
D03*
X258594Y706630D02*
D03*
Y710370D02*
D03*
X81959Y646919D02*
D03*
Y650659D02*
D03*
X81953Y658468D02*
D03*
Y654728D02*
D03*
X176633Y597515D02*
D03*
Y601255D02*
D03*
X148130Y716373D02*
D03*
Y712633D02*
D03*
X97628Y645217D02*
D03*
Y648957D02*
D03*
X74114Y492992D02*
D03*
Y496732D02*
D03*
X290846D02*
D03*
Y492992D02*
D03*
X162675Y597939D02*
D03*
Y601679D02*
D03*
X231894Y693524D02*
D03*
Y697264D02*
D03*
X261994Y630524D02*
D03*
Y634264D02*
D03*
X241794Y596564D02*
D03*
Y592824D02*
D03*
X165294Y660424D02*
D03*
Y664164D02*
D03*
X248194Y593024D02*
D03*
Y596764D02*
D03*
X262102Y641494D02*
D03*
Y645234D02*
D03*
X165394Y654264D02*
D03*
Y650524D02*
D03*
X165902Y639159D02*
D03*
Y635419D02*
D03*
X143994Y712624D02*
D03*
Y716364D02*
D03*
X93394Y716864D02*
D03*
Y713124D02*
D03*
X156167Y658373D02*
D03*
Y662113D02*
D03*
X172526Y601261D02*
D03*
Y597521D02*
D03*
X165594Y679664D02*
D03*
Y675924D02*
D03*
X399194Y819624D02*
D03*
Y823364D02*
D03*
X288194Y593524D02*
D03*
Y597264D02*
D03*
X339094Y579189D02*
D03*
Y575449D02*
D03*
X364764Y496732D02*
D03*
Y492992D02*
D03*
X402694Y498924D02*
D03*
Y502664D02*
D03*
Y481664D02*
D03*
Y477924D02*
D03*
X146260Y492992D02*
D03*
Y496732D02*
D03*
X129528Y527047D02*
D03*
Y530787D02*
D03*
X119783Y528425D02*
D03*
Y532165D02*
D03*
X134350Y537185D02*
D03*
Y533445D02*
D03*
X138091Y536594D02*
D03*
Y532854D02*
D03*
X218602Y496732D02*
D03*
Y492992D02*
D03*
X201772Y530590D02*
D03*
Y526850D02*
D03*
X192126Y533740D02*
D03*
Y530000D02*
D03*
X206659Y533504D02*
D03*
Y537244D02*
D03*
X210301Y532913D02*
D03*
Y536654D02*
D03*
G54D237*
X240512Y147933D02*
D03*
X235276D02*
D03*
X385000D02*
D03*
X379764D02*
D03*
X132999Y260000D02*
D03*
X138236D02*
D03*
X392992Y152756D02*
D03*
X398228D02*
D03*
X155762Y298487D02*
D03*
X160999D02*
D03*
X337165Y54724D02*
D03*
X331929D02*
D03*
X182976Y298494D02*
D03*
X188212D02*
D03*
X96024Y147933D02*
D03*
X90787D02*
D03*
X168268Y147933D02*
D03*
X163031D02*
D03*
X312756D02*
D03*
X307520D02*
D03*
X240512Y552933D02*
D03*
X235276D02*
D03*
X385000D02*
D03*
X379764D02*
D03*
X132999Y665000D02*
D03*
X138236D02*
D03*
X392992Y557756D02*
D03*
X398228D02*
D03*
X155762Y703487D02*
D03*
X160999D02*
D03*
X337165Y459724D02*
D03*
X331929D02*
D03*
X182976Y703494D02*
D03*
X188212D02*
D03*
X96024Y552933D02*
D03*
X90787D02*
D03*
X168268Y552933D02*
D03*
X163031D02*
D03*
X312756D02*
D03*
X307520D02*
D03*
G54D238*
X85148Y97933D02*
D03*
X96346D02*
D03*
X50679D02*
D03*
X39480D02*
D03*
X374091Y97894D02*
D03*
X385289D02*
D03*
X339754Y97933D02*
D03*
X328555D02*
D03*
X301945Y97894D02*
D03*
X313143D02*
D03*
X267377D02*
D03*
X256179D02*
D03*
X157392Y97933D02*
D03*
X168590D02*
D03*
X122923D02*
D03*
X111724D02*
D03*
X229602Y97894D02*
D03*
X240801D02*
D03*
X195133D02*
D03*
X183935D02*
D03*
X85148Y502933D02*
D03*
X96346D02*
D03*
X50679D02*
D03*
X39480D02*
D03*
X374091Y502894D02*
D03*
X385289D02*
D03*
X339754Y502933D02*
D03*
X328555D02*
D03*
X301945Y502894D02*
D03*
X313143D02*
D03*
X267377D02*
D03*
X256179D02*
D03*
X157392Y502933D02*
D03*
X168590D02*
D03*
X122923D02*
D03*
X111724D02*
D03*
X229602Y502894D02*
D03*
X240801D02*
D03*
X195133D02*
D03*
X183935D02*
D03*
G54D239*
X203608Y98090D02*
D03*
X205576D02*
D03*
X207545D02*
D03*
X209513D02*
D03*
X211482D02*
D03*
X213450D02*
D03*
X215419D02*
D03*
X217387D02*
D03*
X219356D02*
D03*
X221324D02*
D03*
Y117225D02*
D03*
X219356D02*
D03*
X217387D02*
D03*
X215419D02*
D03*
X213450D02*
D03*
X211482D02*
D03*
X209513D02*
D03*
X207545D02*
D03*
X205576D02*
D03*
X203608D02*
D03*
X131364Y98090D02*
D03*
X133332D02*
D03*
X135301D02*
D03*
X137269D02*
D03*
X139238D02*
D03*
X141206D02*
D03*
X143175D02*
D03*
X145143D02*
D03*
X147112D02*
D03*
X149080D02*
D03*
Y117225D02*
D03*
X147112D02*
D03*
X145143D02*
D03*
X143175D02*
D03*
X141206D02*
D03*
X139238D02*
D03*
X137269D02*
D03*
X135301D02*
D03*
X133332D02*
D03*
X131364D02*
D03*
X59120Y98090D02*
D03*
X61088D02*
D03*
X63057D02*
D03*
X65025D02*
D03*
X66994D02*
D03*
X68962D02*
D03*
X70931D02*
D03*
X72899D02*
D03*
X74868D02*
D03*
X76836D02*
D03*
Y117225D02*
D03*
X74868D02*
D03*
X72899D02*
D03*
X70931D02*
D03*
X68962D02*
D03*
X66994D02*
D03*
X65025D02*
D03*
X63057D02*
D03*
X61088D02*
D03*
X59120D02*
D03*
X348096Y98090D02*
D03*
X350065D02*
D03*
X352033D02*
D03*
X354002D02*
D03*
X355970D02*
D03*
X357939D02*
D03*
X359907D02*
D03*
X361876D02*
D03*
X363844D02*
D03*
X365813D02*
D03*
Y117225D02*
D03*
X363844D02*
D03*
X361876D02*
D03*
X359907D02*
D03*
X357939D02*
D03*
X355970D02*
D03*
X354002D02*
D03*
X352033D02*
D03*
X350065D02*
D03*
X348096D02*
D03*
X275852Y98090D02*
D03*
X277820D02*
D03*
X279789D02*
D03*
X281757D02*
D03*
X283726D02*
D03*
X285695D02*
D03*
X287663D02*
D03*
X289632D02*
D03*
X291600D02*
D03*
X293568D02*
D03*
Y117225D02*
D03*
X291600D02*
D03*
X289632D02*
D03*
X287663D02*
D03*
X285695D02*
D03*
X283726D02*
D03*
X281757D02*
D03*
X279789D02*
D03*
X277820D02*
D03*
X275852D02*
D03*
X203608Y503090D02*
D03*
X205576D02*
D03*
X207545D02*
D03*
X209513D02*
D03*
X211482D02*
D03*
X213450D02*
D03*
X215419D02*
D03*
X217387D02*
D03*
X219356D02*
D03*
X221324D02*
D03*
Y522225D02*
D03*
X219356D02*
D03*
X217387D02*
D03*
X215419D02*
D03*
X213450D02*
D03*
X211482D02*
D03*
X209513D02*
D03*
X207545D02*
D03*
X205576D02*
D03*
X203608D02*
D03*
X131364Y503090D02*
D03*
X133332D02*
D03*
X135301D02*
D03*
X137269D02*
D03*
X139238D02*
D03*
X141206D02*
D03*
X143175D02*
D03*
X145143D02*
D03*
X147112D02*
D03*
X149080D02*
D03*
Y522225D02*
D03*
X147112D02*
D03*
X145143D02*
D03*
X143175D02*
D03*
X141206D02*
D03*
X139238D02*
D03*
X137269D02*
D03*
X135301D02*
D03*
X133332D02*
D03*
X131364D02*
D03*
X59120Y503090D02*
D03*
X61088D02*
D03*
X63057D02*
D03*
X65025D02*
D03*
X66994D02*
D03*
X68962D02*
D03*
X70931D02*
D03*
X72899D02*
D03*
X74868D02*
D03*
X76836D02*
D03*
Y522225D02*
D03*
X74868D02*
D03*
X72899D02*
D03*
X70931D02*
D03*
X68962D02*
D03*
X66994D02*
D03*
X65025D02*
D03*
X63057D02*
D03*
X61088D02*
D03*
X59120D02*
D03*
X348096Y503090D02*
D03*
X350065D02*
D03*
X352033D02*
D03*
X354002D02*
D03*
X355970D02*
D03*
X357939D02*
D03*
X359907D02*
D03*
X361876D02*
D03*
X363844D02*
D03*
X365813D02*
D03*
Y522225D02*
D03*
X363844D02*
D03*
X361876D02*
D03*
X359907D02*
D03*
X357939D02*
D03*
X355970D02*
D03*
X354002D02*
D03*
X352033D02*
D03*
X350065D02*
D03*
X348096D02*
D03*
X275852Y503090D02*
D03*
X277820D02*
D03*
X279789D02*
D03*
X281757D02*
D03*
X283726D02*
D03*
X285695D02*
D03*
X287663D02*
D03*
X289632D02*
D03*
X291600D02*
D03*
X293568D02*
D03*
Y522225D02*
D03*
X291600D02*
D03*
X289632D02*
D03*
X287663D02*
D03*
X285695D02*
D03*
X283726D02*
D03*
X281757D02*
D03*
X279789D02*
D03*
X277820D02*
D03*
X275852D02*
D03*
G54D240*
X223982Y100768D02*
D03*
Y102736D02*
D03*
Y104705D02*
D03*
Y106673D02*
D03*
Y108642D02*
D03*
Y110610D02*
D03*
Y112579D02*
D03*
Y114547D02*
D03*
X200950D02*
D03*
Y112579D02*
D03*
Y110610D02*
D03*
Y108642D02*
D03*
Y106673D02*
D03*
Y104705D02*
D03*
Y102736D02*
D03*
Y100768D02*
D03*
X151738D02*
D03*
Y102736D02*
D03*
Y104705D02*
D03*
Y106673D02*
D03*
Y108642D02*
D03*
Y110610D02*
D03*
Y112579D02*
D03*
Y114547D02*
D03*
X128706D02*
D03*
Y112579D02*
D03*
Y110610D02*
D03*
Y108642D02*
D03*
Y106673D02*
D03*
Y104705D02*
D03*
Y102736D02*
D03*
Y100768D02*
D03*
X79494D02*
D03*
Y102736D02*
D03*
Y104705D02*
D03*
Y106673D02*
D03*
Y108642D02*
D03*
Y110610D02*
D03*
Y112579D02*
D03*
Y114547D02*
D03*
X56462D02*
D03*
Y112579D02*
D03*
Y110610D02*
D03*
Y108642D02*
D03*
Y106673D02*
D03*
Y104705D02*
D03*
Y102736D02*
D03*
Y100768D02*
D03*
X368470D02*
D03*
Y102736D02*
D03*
Y104705D02*
D03*
Y106673D02*
D03*
Y108642D02*
D03*
Y110610D02*
D03*
Y112579D02*
D03*
Y114547D02*
D03*
X345439D02*
D03*
Y112579D02*
D03*
Y110610D02*
D03*
Y108642D02*
D03*
Y106673D02*
D03*
Y104705D02*
D03*
Y102736D02*
D03*
Y100768D02*
D03*
X296226D02*
D03*
Y102736D02*
D03*
Y104705D02*
D03*
Y106673D02*
D03*
Y108642D02*
D03*
Y110610D02*
D03*
Y112579D02*
D03*
Y114547D02*
D03*
X273195D02*
D03*
Y112579D02*
D03*
Y110610D02*
D03*
Y108642D02*
D03*
Y106673D02*
D03*
Y104705D02*
D03*
Y102736D02*
D03*
Y100768D02*
D03*
X223982Y505768D02*
D03*
Y507736D02*
D03*
Y509705D02*
D03*
Y511673D02*
D03*
Y513642D02*
D03*
Y515610D02*
D03*
Y517579D02*
D03*
Y519547D02*
D03*
X200950D02*
D03*
Y517579D02*
D03*
Y515610D02*
D03*
Y513642D02*
D03*
Y511673D02*
D03*
Y509705D02*
D03*
Y507736D02*
D03*
Y505768D02*
D03*
X151738D02*
D03*
Y507736D02*
D03*
Y509705D02*
D03*
Y511673D02*
D03*
Y513642D02*
D03*
Y515610D02*
D03*
Y517579D02*
D03*
Y519547D02*
D03*
X128706D02*
D03*
Y517579D02*
D03*
Y515610D02*
D03*
Y513642D02*
D03*
Y511673D02*
D03*
Y509705D02*
D03*
Y507736D02*
D03*
Y505768D02*
D03*
X79494D02*
D03*
Y507736D02*
D03*
Y509705D02*
D03*
Y511673D02*
D03*
Y513642D02*
D03*
Y515610D02*
D03*
Y517579D02*
D03*
Y519547D02*
D03*
X56462D02*
D03*
Y517579D02*
D03*
Y515610D02*
D03*
Y513642D02*
D03*
Y511673D02*
D03*
Y509705D02*
D03*
Y507736D02*
D03*
Y505768D02*
D03*
X368470D02*
D03*
Y507736D02*
D03*
Y509705D02*
D03*
Y511673D02*
D03*
Y513642D02*
D03*
Y515610D02*
D03*
Y517579D02*
D03*
Y519547D02*
D03*
X345439D02*
D03*
Y517579D02*
D03*
Y515610D02*
D03*
Y513642D02*
D03*
Y511673D02*
D03*
Y509705D02*
D03*
Y507736D02*
D03*
Y505768D02*
D03*
X296226D02*
D03*
Y507736D02*
D03*
Y509705D02*
D03*
Y511673D02*
D03*
Y513642D02*
D03*
Y515610D02*
D03*
Y517579D02*
D03*
Y519547D02*
D03*
X273195D02*
D03*
Y517579D02*
D03*
Y515610D02*
D03*
Y513642D02*
D03*
Y511673D02*
D03*
Y509705D02*
D03*
Y507736D02*
D03*
Y505768D02*
D03*
G54D241*
X212466Y107658D02*
D03*
X140222D02*
D03*
X67978D02*
D03*
X356954D02*
D03*
X284710D02*
D03*
X212466Y512658D02*
D03*
X140222D02*
D03*
X67978D02*
D03*
X356954D02*
D03*
X284710D02*
D03*
G54D242*
X93425Y90945D02*
D03*
X88071D02*
D03*
X42402D02*
D03*
X47756D02*
D03*
X51083Y113878D02*
D03*
X45728D02*
D03*
X84842Y113779D02*
D03*
X90197D02*
D03*
X340045Y113839D02*
D03*
X334690D02*
D03*
X374193Y113878D02*
D03*
X379547D02*
D03*
X310124Y90905D02*
D03*
X304769D02*
D03*
X259100D02*
D03*
X264454D02*
D03*
X267801Y113937D02*
D03*
X262446D02*
D03*
X245317Y390093D02*
D03*
X250671D02*
D03*
X162471Y390093D02*
D03*
X157116D02*
D03*
X117016Y390094D02*
D03*
X122371D02*
D03*
X76816D02*
D03*
X82171D02*
D03*
X212516Y379194D02*
D03*
X217871D02*
D03*
X57871Y352094D02*
D03*
X52517D02*
D03*
X161571Y240594D02*
D03*
X156217D02*
D03*
X416197Y150346D02*
D03*
X421552D02*
D03*
X321017Y319394D02*
D03*
X326371D02*
D03*
X142511Y260342D02*
D03*
X147865D02*
D03*
X182928Y293149D02*
D03*
X188282D02*
D03*
X291471Y368294D02*
D03*
X286117D02*
D03*
X133471Y319494D02*
D03*
X128117D02*
D03*
Y268894D02*
D03*
X133471D02*
D03*
X336698Y90905D02*
D03*
X331344D02*
D03*
X377013D02*
D03*
X382368D02*
D03*
X165669Y90945D02*
D03*
X160315D02*
D03*
X114646D02*
D03*
X120000D02*
D03*
X157658Y113976D02*
D03*
X163012D02*
D03*
X123248Y113878D02*
D03*
X117894D02*
D03*
X237879Y90905D02*
D03*
X232525D02*
D03*
X186856D02*
D03*
X192210D02*
D03*
X229173Y113813D02*
D03*
X234527D02*
D03*
X195557Y113839D02*
D03*
X190202D02*
D03*
X302146Y113976D02*
D03*
X307500D02*
D03*
X93425Y495945D02*
D03*
X88071D02*
D03*
X42402D02*
D03*
X47756D02*
D03*
X51083Y518878D02*
D03*
X45728D02*
D03*
X84842Y518780D02*
D03*
X90197D02*
D03*
X340045Y518839D02*
D03*
X334690D02*
D03*
X374193Y518878D02*
D03*
X379547D02*
D03*
X310124Y495905D02*
D03*
X304769D02*
D03*
X259100D02*
D03*
X264454D02*
D03*
X267801Y518937D02*
D03*
X262446D02*
D03*
X245317Y795093D02*
D03*
X250671D02*
D03*
X162471Y795093D02*
D03*
X157116D02*
D03*
X117016Y795094D02*
D03*
X122371D02*
D03*
X76816D02*
D03*
X82171D02*
D03*
X212516Y784194D02*
D03*
X217871D02*
D03*
X57871Y757094D02*
D03*
X52517D02*
D03*
X161571Y645594D02*
D03*
X156217D02*
D03*
X416197Y555346D02*
D03*
X421552D02*
D03*
X321017Y724394D02*
D03*
X326371D02*
D03*
X142511Y665342D02*
D03*
X147865D02*
D03*
X182928Y698149D02*
D03*
X188282D02*
D03*
X291471Y773294D02*
D03*
X286117D02*
D03*
X133471Y724494D02*
D03*
X128117D02*
D03*
Y673894D02*
D03*
X133471D02*
D03*
X336698Y495905D02*
D03*
X331344D02*
D03*
X377013D02*
D03*
X382368D02*
D03*
X165669Y495945D02*
D03*
X160315D02*
D03*
X114646D02*
D03*
X120000D02*
D03*
X157658Y518976D02*
D03*
X163012D02*
D03*
X123248Y518878D02*
D03*
X117894D02*
D03*
X237879Y495905D02*
D03*
X232525D02*
D03*
X186856D02*
D03*
X192210D02*
D03*
X229173Y518813D02*
D03*
X234527D02*
D03*
X195557Y518839D02*
D03*
X190202D02*
D03*
X302146Y518976D02*
D03*
X307500D02*
D03*
G54D243*
X52658Y128858D02*
D03*
Y123504D02*
D03*
X160944Y229970D02*
D03*
Y235324D02*
D03*
X86417Y198701D02*
D03*
Y204055D02*
D03*
X368325Y408059D02*
D03*
Y413413D02*
D03*
X190191Y320918D02*
D03*
Y315563D02*
D03*
X163681Y317933D02*
D03*
Y312579D02*
D03*
X167653Y192929D02*
D03*
Y198283D02*
D03*
X341535Y124193D02*
D03*
Y129547D02*
D03*
X124606Y128465D02*
D03*
Y123110D02*
D03*
X196817Y128425D02*
D03*
Y123071D02*
D03*
X269061Y128425D02*
D03*
Y123071D02*
D03*
X52658Y533858D02*
D03*
Y528504D02*
D03*
X160944Y634970D02*
D03*
Y640324D02*
D03*
X86417Y603701D02*
D03*
Y609055D02*
D03*
X368325Y813059D02*
D03*
Y818413D02*
D03*
X190191Y725918D02*
D03*
Y720563D02*
D03*
X163681Y722933D02*
D03*
Y717579D02*
D03*
X167653Y597929D02*
D03*
Y603283D02*
D03*
X341535Y529193D02*
D03*
Y534547D02*
D03*
X124606Y533465D02*
D03*
Y528110D02*
D03*
X196817Y533425D02*
D03*
Y528071D02*
D03*
X269061Y533425D02*
D03*
Y528071D02*
D03*
G54D244*
X84842Y131595D02*
D03*
X105315D02*
D03*
X373819D02*
D03*
X394291D02*
D03*
X301575D02*
D03*
X322047D02*
D03*
X157087D02*
D03*
X177559D02*
D03*
X229331D02*
D03*
X249803D02*
D03*
X84842Y536594D02*
D03*
X105315D02*
D03*
X373819D02*
D03*
X394291D02*
D03*
X301575D02*
D03*
X322047D02*
D03*
X157087D02*
D03*
X177559D02*
D03*
X229331D02*
D03*
X249803D02*
D03*
G54D245*
X82543Y369496D02*
D03*
X122394D02*
D03*
X162494D02*
D03*
X248043Y361496D02*
D03*
X82543Y774496D02*
D03*
X122394D02*
D03*
X162494D02*
D03*
X248043Y766496D02*
D03*
G54D246*
X90043Y355057D02*
D03*
X85043D02*
D03*
X80043D02*
D03*
X75043D02*
D03*
X114894D02*
D03*
X119894D02*
D03*
X124894D02*
D03*
X129894D02*
D03*
X169994D02*
D03*
X164994D02*
D03*
X159994D02*
D03*
X154994D02*
D03*
X240543Y347057D02*
D03*
X245543D02*
D03*
X250543D02*
D03*
X255543D02*
D03*
X90043Y760057D02*
D03*
X85043D02*
D03*
X80043D02*
D03*
X75043D02*
D03*
X114894D02*
D03*
X119894D02*
D03*
X124894D02*
D03*
X129894D02*
D03*
X169994D02*
D03*
X164994D02*
D03*
X159994D02*
D03*
X154994D02*
D03*
X240543Y752057D02*
D03*
X245543D02*
D03*
X250543D02*
D03*
X255543D02*
D03*
G54D247*
X332012Y421143D02*
D03*
Y413603D02*
D03*
Y826143D02*
D03*
Y818603D02*
D03*
G54D248*
X368465Y420236D02*
D03*
X360925D02*
D03*
X368465Y825236D02*
D03*
X360925D02*
D03*
G54D249*
X65694Y373594D02*
D03*
Y357820D02*
D03*
X100794Y373194D02*
D03*
Y388968D02*
D03*
X140694D02*
D03*
Y373194D02*
D03*
X180694Y372994D02*
D03*
Y388768D02*
D03*
X65694Y778594D02*
D03*
Y762820D02*
D03*
X100794Y778194D02*
D03*
Y793968D02*
D03*
X140694D02*
D03*
Y778194D02*
D03*
X180694Y777994D02*
D03*
Y793768D02*
D03*
G54D250*
X39495Y315470D02*
D03*
X31161D02*
D03*
X91827Y384294D02*
D03*
X83494D02*
D03*
X123694D02*
D03*
X132027D02*
D03*
X171927D02*
D03*
X163594D02*
D03*
X39495Y309370D02*
D03*
X31161D02*
D03*
Y303270D02*
D03*
X39495D02*
D03*
Y720470D02*
D03*
X31161D02*
D03*
X91827Y789294D02*
D03*
X83494D02*
D03*
X123694D02*
D03*
X132027D02*
D03*
X171927D02*
D03*
X163594D02*
D03*
X39495Y714370D02*
D03*
X31161D02*
D03*
Y708270D02*
D03*
X39495D02*
D03*
G54D251*
X61694Y390094D02*
D03*
Y381760D02*
D03*
X256494Y381794D02*
D03*
Y390127D02*
D03*
X190369Y383925D02*
D03*
Y375591D02*
D03*
X61694Y795094D02*
D03*
Y786760D02*
D03*
X256494Y786794D02*
D03*
Y795127D02*
D03*
X190369Y788925D02*
D03*
Y780591D02*
D03*
G54D252*
X169608Y312410D02*
D03*
X184175D02*
D03*
Y321071D02*
D03*
X169608D02*
D03*
Y717410D02*
D03*
X184175D02*
D03*
Y726071D02*
D03*
X169608D02*
D03*
G54D253*
X159646Y69095D02*
D03*
Y80512D02*
D03*
X168110D02*
D03*
Y69095D02*
D03*
X121949Y65158D02*
D03*
Y76575D02*
D03*
X113583D02*
D03*
Y65158D02*
D03*
X304198Y69055D02*
D03*
Y80472D02*
D03*
X312565D02*
D03*
Y69055D02*
D03*
X266502Y65216D02*
D03*
Y76634D02*
D03*
X258037Y76535D02*
D03*
Y65118D02*
D03*
X376344Y69055D02*
D03*
Y80472D02*
D03*
X384809D02*
D03*
Y69055D02*
D03*
X338746Y65216D02*
D03*
Y76634D02*
D03*
X330281Y76535D02*
D03*
Y65118D02*
D03*
X231856Y69055D02*
D03*
Y80472D02*
D03*
X240320D02*
D03*
Y69055D02*
D03*
X194257Y65216D02*
D03*
Y76634D02*
D03*
X185793Y76535D02*
D03*
Y65118D02*
D03*
X87402Y69095D02*
D03*
Y80512D02*
D03*
X49741Y65185D02*
D03*
Y76602D02*
D03*
X41339Y76575D02*
D03*
Y65158D02*
D03*
X95866Y80512D02*
D03*
Y69095D02*
D03*
X159646Y474094D02*
D03*
Y485512D02*
D03*
X168110D02*
D03*
Y474094D02*
D03*
X121949Y470157D02*
D03*
Y481575D02*
D03*
X113583D02*
D03*
Y470157D02*
D03*
X304198Y474055D02*
D03*
Y485472D02*
D03*
X312565D02*
D03*
Y474055D02*
D03*
X266502Y470217D02*
D03*
Y481634D02*
D03*
X258037Y481535D02*
D03*
Y470118D02*
D03*
X376344Y474055D02*
D03*
Y485472D02*
D03*
X384809D02*
D03*
Y474055D02*
D03*
X338746Y470217D02*
D03*
Y481634D02*
D03*
X330281Y481535D02*
D03*
Y470118D02*
D03*
X231856Y474055D02*
D03*
Y485472D02*
D03*
X240320D02*
D03*
Y474055D02*
D03*
X194257Y470217D02*
D03*
Y481634D02*
D03*
X185793Y481535D02*
D03*
Y470118D02*
D03*
X87402Y474094D02*
D03*
Y485512D02*
D03*
X49741Y470185D02*
D03*
Y481602D02*
D03*
X41339Y481575D02*
D03*
Y470157D02*
D03*
X95866Y485512D02*
D03*
Y474094D02*
D03*
G54D254*
X110794Y382563D02*
D03*
Y391294D02*
D03*
X150594Y382563D02*
D03*
Y391294D02*
D03*
X110794Y787563D02*
D03*
Y796294D02*
D03*
X150594Y787563D02*
D03*
Y796294D02*
D03*
G54D255*
X202431Y365253D02*
D03*
Y372794D02*
D03*
X194094Y368994D02*
D03*
X57331Y357254D02*
D03*
Y364794D02*
D03*
X48994Y360994D02*
D03*
X202431Y770254D02*
D03*
Y777794D02*
D03*
X194094Y773994D02*
D03*
X57331Y762254D02*
D03*
Y769794D02*
D03*
X48994Y765994D02*
D03*
G54D256*
X195435Y379180D02*
D03*
X204166D02*
D03*
X41994Y291594D02*
D03*
X33263D02*
D03*
X39485Y362420D02*
D03*
X30754D02*
D03*
X78224Y383094D02*
D03*
X69494D02*
D03*
X238324Y389194D02*
D03*
X229594D02*
D03*
X416914Y389960D02*
D03*
X425645D02*
D03*
X195435Y784180D02*
D03*
X204166D02*
D03*
X41994Y696594D02*
D03*
X33263D02*
D03*
X39485Y767420D02*
D03*
X30754D02*
D03*
X78224Y788094D02*
D03*
X69494D02*
D03*
X238324Y794194D02*
D03*
X229594D02*
D03*
X416914Y794959D02*
D03*
X425645D02*
D03*
G54D257*
X411858Y143546D02*
D03*
X422291D02*
D03*
X349942Y419636D02*
D03*
X339509D02*
D03*
X281977Y359694D02*
D03*
X292410D02*
D03*
X411858Y548546D02*
D03*
X422291D02*
D03*
X349942Y824636D02*
D03*
X339509D02*
D03*
X281977Y764694D02*
D03*
X292410D02*
D03*
G54D258*
X323694Y307310D02*
D03*
Y296877D02*
D03*
Y712310D02*
D03*
Y701877D02*
D03*
G54D259*
X312894Y177776D02*
D03*
Y172776D02*
D03*
Y167776D02*
D03*
Y162776D02*
D03*
X334154Y177776D02*
D03*
Y172776D02*
D03*
Y167776D02*
D03*
Y162776D02*
D03*
X312894Y582776D02*
D03*
Y577776D02*
D03*
Y572776D02*
D03*
Y567776D02*
D03*
X334154Y582776D02*
D03*
Y577776D02*
D03*
Y572776D02*
D03*
Y567776D02*
D03*
G54D260*
X305094Y301257D02*
D03*
Y321730D02*
D03*
X313294Y418330D02*
D03*
Y397857D02*
D03*
X305094Y706257D02*
D03*
Y726730D02*
D03*
X313294Y823330D02*
D03*
Y802857D02*
D03*
G54D261*
X86021Y241979D02*
D03*
X89811D02*
D03*
X86021Y646979D02*
D03*
X89811D02*
D03*
G54D262*
X221294Y326486D02*
D03*
Y310502D02*
D03*
X216294Y326486D02*
D03*
Y310502D02*
D03*
X211294Y326486D02*
D03*
Y310502D02*
D03*
X206294Y326486D02*
D03*
Y310502D02*
D03*
X201294Y326486D02*
D03*
Y310502D02*
D03*
X221294Y731486D02*
D03*
Y715502D02*
D03*
X216294Y731486D02*
D03*
Y715502D02*
D03*
X211294Y731486D02*
D03*
Y715502D02*
D03*
X206294Y731486D02*
D03*
Y715502D02*
D03*
X201294Y731486D02*
D03*
Y715502D02*
D03*
G54D263*
X345911Y389136D02*
D03*
X369139D02*
D03*
X345911Y794136D02*
D03*
X369139D02*
D03*
G54D264*
X385025Y418052D02*
D03*
Y405021D02*
D03*
Y823052D02*
D03*
Y810021D02*
D03*
G54D265*
X282458Y320454D02*
D03*
Y725454D02*
D03*
G54D266*
X280490Y323013D02*
D03*
X282458D02*
D03*
X284427D02*
D03*
Y317895D02*
D03*
X282458D02*
D03*
X280490D02*
D03*
Y728013D02*
D03*
X282458D02*
D03*
X284427D02*
D03*
Y722894D02*
D03*
X282458D02*
D03*
X280490D02*
D03*
G54D267*
X248342Y281639D02*
D03*
X246374D02*
D03*
X244406D02*
D03*
X242437D02*
D03*
X240469D02*
D03*
X238500D02*
D03*
X236531D02*
D03*
X234563D02*
D03*
X232594D02*
D03*
X230626D02*
D03*
X228658D02*
D03*
X226689D02*
D03*
X224721D02*
D03*
X222752D02*
D03*
X220783D02*
D03*
X218815D02*
D03*
X216846D02*
D03*
X214878D02*
D03*
X212910D02*
D03*
X210941D02*
D03*
X208972D02*
D03*
X207004D02*
D03*
X205035D02*
D03*
X203067D02*
D03*
X201098D02*
D03*
X199130D02*
D03*
X197161D02*
D03*
X195193D02*
D03*
X193224D02*
D03*
X191256D02*
D03*
X189287D02*
D03*
X187319D02*
D03*
X185350D02*
D03*
X183382D02*
D03*
X181413D02*
D03*
X179445D02*
D03*
Y198568D02*
D03*
X181413D02*
D03*
X183382D02*
D03*
X185350D02*
D03*
X187319D02*
D03*
X189287D02*
D03*
X191256D02*
D03*
X193224D02*
D03*
X195193D02*
D03*
X197161D02*
D03*
X199130D02*
D03*
X201098D02*
D03*
X203067D02*
D03*
X205035D02*
D03*
X207004D02*
D03*
X208972D02*
D03*
X210941D02*
D03*
X212910D02*
D03*
X214878D02*
D03*
X216846D02*
D03*
X218815D02*
D03*
X220783D02*
D03*
X222752D02*
D03*
X224721D02*
D03*
X226689D02*
D03*
X228658D02*
D03*
X230626D02*
D03*
X232594D02*
D03*
X234563D02*
D03*
X236531D02*
D03*
X238500D02*
D03*
X240469D02*
D03*
X242437D02*
D03*
X244406D02*
D03*
X246374D02*
D03*
X248342D02*
D03*
Y686639D02*
D03*
X246374D02*
D03*
X244406D02*
D03*
X242437D02*
D03*
X240469D02*
D03*
X238500D02*
D03*
X236531D02*
D03*
X234563D02*
D03*
X232594D02*
D03*
X230626D02*
D03*
X228658D02*
D03*
X226689D02*
D03*
X224721D02*
D03*
X222752D02*
D03*
X220783D02*
D03*
X218815D02*
D03*
X216846D02*
D03*
X214878D02*
D03*
X212910D02*
D03*
X210941D02*
D03*
X208972D02*
D03*
X207004D02*
D03*
X205035D02*
D03*
X203067D02*
D03*
X201098D02*
D03*
X199130D02*
D03*
X197161D02*
D03*
X195193D02*
D03*
X193224D02*
D03*
X191256D02*
D03*
X189287D02*
D03*
X187319D02*
D03*
X185350D02*
D03*
X183382D02*
D03*
X181413D02*
D03*
X179445D02*
D03*
Y603569D02*
D03*
X181413D02*
D03*
X183382D02*
D03*
X185350D02*
D03*
X187319D02*
D03*
X189287D02*
D03*
X191256D02*
D03*
X193224D02*
D03*
X195193D02*
D03*
X197161D02*
D03*
X199130D02*
D03*
X201098D02*
D03*
X203067D02*
D03*
X205035D02*
D03*
X207004D02*
D03*
X208972D02*
D03*
X210941D02*
D03*
X212910D02*
D03*
X214878D02*
D03*
X216846D02*
D03*
X218815D02*
D03*
X220783D02*
D03*
X222752D02*
D03*
X224721D02*
D03*
X226689D02*
D03*
X228658D02*
D03*
X230626D02*
D03*
X232594D02*
D03*
X234563D02*
D03*
X236531D02*
D03*
X238500D02*
D03*
X240469D02*
D03*
X242437D02*
D03*
X244406D02*
D03*
X246374D02*
D03*
X248342D02*
D03*
G54D268*
X172358Y274553D02*
D03*
Y272584D02*
D03*
Y270616D02*
D03*
Y268647D02*
D03*
Y266679D02*
D03*
Y264710D02*
D03*
Y262742D02*
D03*
Y260773D02*
D03*
Y258805D02*
D03*
Y256836D02*
D03*
Y254868D02*
D03*
Y252899D02*
D03*
Y250931D02*
D03*
Y248962D02*
D03*
Y246994D02*
D03*
Y245025D02*
D03*
Y243057D02*
D03*
Y241088D02*
D03*
Y239120D02*
D03*
Y237151D02*
D03*
Y235183D02*
D03*
Y233214D02*
D03*
Y231246D02*
D03*
Y229277D02*
D03*
Y227309D02*
D03*
Y225340D02*
D03*
Y223372D02*
D03*
Y221403D02*
D03*
Y219435D02*
D03*
Y217466D02*
D03*
Y215498D02*
D03*
Y213529D02*
D03*
Y211561D02*
D03*
Y209592D02*
D03*
Y207624D02*
D03*
Y205655D02*
D03*
X255429D02*
D03*
Y207624D02*
D03*
Y209592D02*
D03*
Y211561D02*
D03*
Y213529D02*
D03*
Y215498D02*
D03*
Y217466D02*
D03*
Y219435D02*
D03*
Y221403D02*
D03*
Y223372D02*
D03*
Y225340D02*
D03*
Y227309D02*
D03*
Y229277D02*
D03*
Y231246D02*
D03*
Y233214D02*
D03*
Y235183D02*
D03*
Y237151D02*
D03*
Y239120D02*
D03*
Y241088D02*
D03*
Y243057D02*
D03*
Y245025D02*
D03*
Y246994D02*
D03*
Y248962D02*
D03*
Y250931D02*
D03*
Y252899D02*
D03*
Y254868D02*
D03*
Y256836D02*
D03*
Y258805D02*
D03*
Y260773D02*
D03*
Y262742D02*
D03*
Y264710D02*
D03*
Y266679D02*
D03*
Y268647D02*
D03*
Y270616D02*
D03*
Y272584D02*
D03*
Y274553D02*
D03*
X172358Y679553D02*
D03*
Y677584D02*
D03*
Y675616D02*
D03*
Y673647D02*
D03*
Y671679D02*
D03*
Y669710D02*
D03*
Y667742D02*
D03*
Y665773D02*
D03*
Y663805D02*
D03*
Y661836D02*
D03*
Y659868D02*
D03*
Y657899D02*
D03*
Y655931D02*
D03*
Y653962D02*
D03*
Y651994D02*
D03*
Y650025D02*
D03*
Y648057D02*
D03*
Y646088D02*
D03*
Y644120D02*
D03*
Y642151D02*
D03*
Y640183D02*
D03*
Y638214D02*
D03*
Y636246D02*
D03*
Y634277D02*
D03*
Y632309D02*
D03*
Y630340D02*
D03*
Y628372D02*
D03*
Y626403D02*
D03*
Y624435D02*
D03*
Y622466D02*
D03*
Y620498D02*
D03*
Y618529D02*
D03*
Y616561D02*
D03*
Y614592D02*
D03*
Y612624D02*
D03*
Y610655D02*
D03*
X255429D02*
D03*
Y612624D02*
D03*
Y614592D02*
D03*
Y616561D02*
D03*
Y618529D02*
D03*
Y620498D02*
D03*
Y622466D02*
D03*
Y624435D02*
D03*
Y626403D02*
D03*
Y628372D02*
D03*
Y630340D02*
D03*
Y632309D02*
D03*
Y634277D02*
D03*
Y636246D02*
D03*
Y638214D02*
D03*
Y640183D02*
D03*
Y642151D02*
D03*
Y644120D02*
D03*
Y646088D02*
D03*
Y648057D02*
D03*
Y650025D02*
D03*
Y651994D02*
D03*
Y653962D02*
D03*
Y655931D02*
D03*
Y657899D02*
D03*
Y659868D02*
D03*
Y661836D02*
D03*
Y663805D02*
D03*
Y665773D02*
D03*
Y667742D02*
D03*
Y669710D02*
D03*
Y671679D02*
D03*
Y673647D02*
D03*
Y675616D02*
D03*
Y677584D02*
D03*
Y679553D02*
D03*
G54D269*
X100882Y311994D02*
D03*
Y306994D02*
D03*
Y301994D02*
D03*
Y296994D02*
D03*
Y291994D02*
D03*
Y286994D02*
D03*
Y281994D02*
D03*
Y276994D02*
D03*
X136906Y311994D02*
D03*
Y306994D02*
D03*
Y301994D02*
D03*
Y296994D02*
D03*
Y291994D02*
D03*
Y286994D02*
D03*
Y281994D02*
D03*
Y276994D02*
D03*
X100882Y716994D02*
D03*
Y711994D02*
D03*
Y706994D02*
D03*
Y701994D02*
D03*
Y696994D02*
D03*
Y691994D02*
D03*
Y686994D02*
D03*
Y681994D02*
D03*
X136906Y716994D02*
D03*
Y711994D02*
D03*
Y706994D02*
D03*
Y701994D02*
D03*
Y696994D02*
D03*
Y691994D02*
D03*
Y686994D02*
D03*
Y681994D02*
D03*
G54D270*
X262217Y390093D02*
D03*
X267571D02*
D03*
X167216D02*
D03*
X172571D02*
D03*
X132571Y390093D02*
D03*
X127216D02*
D03*
X86916Y390094D02*
D03*
X92271D02*
D03*
X195271Y390093D02*
D03*
X189916D02*
D03*
X72071Y390094D02*
D03*
X66717D02*
D03*
X262217Y795093D02*
D03*
X267571D02*
D03*
X167216D02*
D03*
X172571D02*
D03*
X132571Y795093D02*
D03*
X127216D02*
D03*
X86916Y795094D02*
D03*
X92271D02*
D03*
X195271Y795093D02*
D03*
X189916D02*
D03*
X72071Y795094D02*
D03*
X66717D02*
D03*
G54D271*
X55394Y397194D02*
D03*
X400994Y401894D02*
D03*
X55394Y802194D02*
D03*
X400994Y806894D02*
D03*
G54D272*
X401994Y56994D02*
D03*
Y461994D02*
D03*
G54D273*
X222213Y365953D02*
D03*
Y369694D02*
D03*
Y373434D02*
D03*
X212174D02*
D03*
Y369694D02*
D03*
Y365953D02*
D03*
X93141Y337441D02*
D03*
Y341181D02*
D03*
Y344921D02*
D03*
X83102D02*
D03*
Y341181D02*
D03*
Y337441D02*
D03*
X109311Y356988D02*
D03*
Y360728D02*
D03*
Y364469D02*
D03*
X99272D02*
D03*
Y360728D02*
D03*
Y356988D02*
D03*
X149469D02*
D03*
Y360728D02*
D03*
Y364469D02*
D03*
X139429D02*
D03*
Y360728D02*
D03*
Y356988D02*
D03*
X189533Y357053D02*
D03*
Y360794D02*
D03*
Y364534D02*
D03*
X179494D02*
D03*
Y360794D02*
D03*
Y357053D02*
D03*
X222213Y770954D02*
D03*
Y774694D02*
D03*
Y778434D02*
D03*
X212174D02*
D03*
Y774694D02*
D03*
Y770954D02*
D03*
X93141Y742441D02*
D03*
Y746181D02*
D03*
Y749921D02*
D03*
X83102D02*
D03*
Y746181D02*
D03*
Y742441D02*
D03*
X109311Y761988D02*
D03*
Y765728D02*
D03*
Y769468D02*
D03*
X99272D02*
D03*
Y765728D02*
D03*
Y761988D02*
D03*
X149469D02*
D03*
Y765728D02*
D03*
Y769468D02*
D03*
X139429D02*
D03*
Y765728D02*
D03*
Y761988D02*
D03*
X189533Y762053D02*
D03*
Y765794D02*
D03*
Y769534D02*
D03*
X179494D02*
D03*
Y765794D02*
D03*
Y762053D02*
D03*
G54D274*
X233053Y322205D02*
D03*
X236794D02*
D03*
X240534D02*
D03*
Y332245D02*
D03*
X236794D02*
D03*
X233053D02*
D03*
Y727206D02*
D03*
X236794D02*
D03*
X240534D02*
D03*
Y737245D02*
D03*
X236794D02*
D03*
X233053D02*
D03*
G54D275*
X247263Y316423D02*
D03*
X255924Y332565D02*
D03*
Y316423D02*
D03*
X247263Y332565D02*
D03*
Y721423D02*
D03*
X255924Y737565D02*
D03*
Y721423D02*
D03*
X247263Y737565D02*
D03*
G54D276*
X85140Y284100D02*
D03*
X78447D02*
D03*
Y287250D02*
D03*
X85140D02*
D03*
Y689100D02*
D03*
X78447D02*
D03*
Y692250D02*
D03*
X85140D02*
D03*
G54D277*
X72021Y283706D02*
D03*
Y285675D02*
D03*
X69365Y283706D02*
D03*
Y285675D02*
D03*
X72021Y287643D02*
D03*
X69365D02*
D03*
X72021Y688706D02*
D03*
Y690675D02*
D03*
X69365Y688706D02*
D03*
Y690675D02*
D03*
X72021Y692643D02*
D03*
X69365D02*
D03*
G54D278*
X264665Y297047D02*
D03*
X266634D02*
D03*
X268602D02*
D03*
X270571D02*
D03*
X272539D02*
D03*
Y309842D02*
D03*
X270571D02*
D03*
X268602D02*
D03*
X266634D02*
D03*
X264665D02*
D03*
Y702047D02*
D03*
X266634D02*
D03*
X268602D02*
D03*
X270571D02*
D03*
X272539D02*
D03*
Y714843D02*
D03*
X270571D02*
D03*
X268602D02*
D03*
X266634D02*
D03*
X264665D02*
D03*
G54D279*
X275000Y300492D02*
D03*
Y306398D02*
D03*
X262205D02*
D03*
Y300492D02*
D03*
X275000Y705492D02*
D03*
Y711398D02*
D03*
X262205D02*
D03*
Y705492D02*
D03*
G54D280*
X268602Y303445D02*
D03*
Y708445D02*
D03*
G54D281*
X70894Y53976D02*
D03*
Y59212D02*
D03*
X80794Y54357D02*
D03*
Y59594D02*
D03*
X100694Y54476D02*
D03*
Y59712D02*
D03*
X90894Y53957D02*
D03*
Y59194D02*
D03*
X130894Y53976D02*
D03*
Y59212D02*
D03*
X140694Y54058D02*
D03*
Y59294D02*
D03*
X150894Y54058D02*
D03*
Y59294D02*
D03*
X160894Y53994D02*
D03*
Y59230D02*
D03*
X190394Y53994D02*
D03*
Y59230D02*
D03*
X200394Y53976D02*
D03*
Y59212D02*
D03*
X210394Y53994D02*
D03*
Y59230D02*
D03*
X220394Y53994D02*
D03*
Y59230D02*
D03*
X300394Y53994D02*
D03*
Y59230D02*
D03*
X310394Y53976D02*
D03*
Y59212D02*
D03*
X320394Y53994D02*
D03*
Y59230D02*
D03*
X359894Y53994D02*
D03*
Y59230D02*
D03*
X369894Y53994D02*
D03*
Y59230D02*
D03*
X379894Y53994D02*
D03*
Y59230D02*
D03*
X389894Y53994D02*
D03*
Y59230D02*
D03*
X158166Y197959D02*
D03*
Y192723D02*
D03*
X77339Y250263D02*
D03*
Y245026D02*
D03*
X70894Y458976D02*
D03*
Y464212D02*
D03*
X80794Y459358D02*
D03*
Y464594D02*
D03*
X100694Y459476D02*
D03*
Y464712D02*
D03*
X90894Y458957D02*
D03*
Y464194D02*
D03*
X130894Y458976D02*
D03*
Y464212D02*
D03*
X140694Y459058D02*
D03*
Y464294D02*
D03*
X150894Y459058D02*
D03*
Y464294D02*
D03*
X160894Y458994D02*
D03*
Y464230D02*
D03*
X190394Y458994D02*
D03*
Y464230D02*
D03*
X200394Y458976D02*
D03*
Y464212D02*
D03*
X210394Y458994D02*
D03*
Y464230D02*
D03*
X220394Y458994D02*
D03*
Y464230D02*
D03*
X300394Y458994D02*
D03*
Y464230D02*
D03*
X310394Y458976D02*
D03*
Y464212D02*
D03*
X320394Y458994D02*
D03*
Y464230D02*
D03*
X359894Y458994D02*
D03*
Y464230D02*
D03*
X369894Y458994D02*
D03*
Y464230D02*
D03*
X379894Y458994D02*
D03*
Y464230D02*
D03*
X389894Y458994D02*
D03*
Y464230D02*
D03*
X158166Y602959D02*
D03*
Y597723D02*
D03*
X77339Y655263D02*
D03*
Y650027D02*
D03*
G54D282*
X60441Y303199D02*
D03*
X53355Y301230D02*
D03*
Y305167D02*
D03*
X60441Y708199D02*
D03*
X53355Y706230D02*
D03*
Y710167D02*
D03*
G54D283*
X47948Y317755D02*
D03*
Y312755D02*
D03*
X73736Y317755D02*
D03*
Y312755D02*
D03*
X47948Y722755D02*
D03*
Y717755D02*
D03*
X73736Y722755D02*
D03*
Y717755D02*
D03*
G54D284*
X96294Y250394D02*
D03*
X90294D02*
D03*
X96294Y655394D02*
D03*
X90294D02*
D03*
G54D285*
X291994Y195240D02*
D03*
Y188547D02*
D03*
X296294Y188447D02*
D03*
Y195140D02*
D03*
X311894Y193640D02*
D03*
Y186947D02*
D03*
X316094Y186847D02*
D03*
Y193540D02*
D03*
X330894Y192440D02*
D03*
Y185747D02*
D03*
X335094Y185747D02*
D03*
Y192440D02*
D03*
X291994Y600240D02*
D03*
Y593547D02*
D03*
X296294Y593447D02*
D03*
Y600140D02*
D03*
X311894Y598640D02*
D03*
Y591947D02*
D03*
X316094Y591847D02*
D03*
Y598540D02*
D03*
X330894Y597440D02*
D03*
Y590747D02*
D03*
X335094Y590747D02*
D03*
Y597440D02*
D03*
G54D286*
X376540Y193894D02*
D03*
X369847D02*
D03*
X369805Y189456D02*
D03*
X376498D02*
D03*
X376540Y598894D02*
D03*
X369847D02*
D03*
X369805Y594456D02*
D03*
X376498D02*
D03*
G54D287*
X38386Y212205D02*
D03*
Y180709D02*
D03*
Y617205D02*
D03*
Y585709D02*
D03*
G54D288*
X145494Y246894D02*
D03*
X144694Y217394D02*
D03*
X215494Y175994D02*
D03*
X229194Y355694D02*
D03*
X145494Y651894D02*
D03*
X144694Y622394D02*
D03*
X215494Y580994D02*
D03*
X229194Y760694D02*
D03*
G54D289*
X145494Y236894D02*
D03*
X135494Y246894D02*
D03*
Y236894D02*
D03*
X125494Y246894D02*
D03*
Y236894D02*
D03*
X115494Y246894D02*
D03*
Y236894D02*
D03*
X105494Y246894D02*
D03*
Y236894D02*
D03*
X144694Y207394D02*
D03*
X134694Y217394D02*
D03*
Y207394D02*
D03*
X124694Y217394D02*
D03*
Y207394D02*
D03*
X114694Y217394D02*
D03*
Y207394D02*
D03*
X104694Y217394D02*
D03*
Y207394D02*
D03*
X105494Y165994D02*
D03*
Y175994D02*
D03*
X115494Y165994D02*
D03*
Y175994D02*
D03*
X125494Y165994D02*
D03*
Y175994D02*
D03*
X135494Y165994D02*
D03*
Y175994D02*
D03*
X145494Y165994D02*
D03*
Y175994D02*
D03*
X155494Y165994D02*
D03*
Y175994D02*
D03*
X165494Y165994D02*
D03*
Y175994D02*
D03*
X175494Y165994D02*
D03*
Y175994D02*
D03*
X185494Y165994D02*
D03*
Y175994D02*
D03*
X195494Y165994D02*
D03*
Y175994D02*
D03*
X205494Y165994D02*
D03*
Y175994D02*
D03*
X215494Y165994D02*
D03*
X229194Y345694D02*
D03*
X219194Y355694D02*
D03*
Y345694D02*
D03*
X209194Y355694D02*
D03*
Y345694D02*
D03*
X199194Y355694D02*
D03*
Y345694D02*
D03*
X145494Y641894D02*
D03*
X135494Y651894D02*
D03*
Y641894D02*
D03*
X125494Y651894D02*
D03*
Y641894D02*
D03*
X115494Y651894D02*
D03*
Y641894D02*
D03*
X105494Y651894D02*
D03*
Y641894D02*
D03*
X144694Y612394D02*
D03*
X134694Y622394D02*
D03*
Y612394D02*
D03*
X124694Y622394D02*
D03*
Y612394D02*
D03*
X114694Y622394D02*
D03*
Y612394D02*
D03*
X104694Y622394D02*
D03*
Y612394D02*
D03*
X105494Y570994D02*
D03*
Y580994D02*
D03*
X115494Y570994D02*
D03*
Y580994D02*
D03*
X125494Y570994D02*
D03*
Y580994D02*
D03*
X135494Y570994D02*
D03*
Y580994D02*
D03*
X145494Y570994D02*
D03*
Y580994D02*
D03*
X155494Y570994D02*
D03*
Y580994D02*
D03*
X165494Y570994D02*
D03*
Y580994D02*
D03*
X175494Y570994D02*
D03*
Y580994D02*
D03*
X185494Y570994D02*
D03*
Y580994D02*
D03*
X195494Y570994D02*
D03*
Y580994D02*
D03*
X205494Y570994D02*
D03*
Y580994D02*
D03*
X215494Y570994D02*
D03*
X229194Y750694D02*
D03*
X219194Y760694D02*
D03*
Y750694D02*
D03*
X209194Y760694D02*
D03*
Y750694D02*
D03*
X199194Y760694D02*
D03*
Y750694D02*
D03*
G54D290*
X391894Y170894D02*
D03*
X351894D02*
D03*
X361894D02*
D03*
X371894D02*
D03*
X381894D02*
D03*
X70894Y39894D02*
D03*
X80894D02*
D03*
X90894D02*
D03*
X100894D02*
D03*
X160894D02*
D03*
X150894D02*
D03*
X140894D02*
D03*
X130894D02*
D03*
X271394D02*
D03*
X261394D02*
D03*
X251394D02*
D03*
X241394D02*
D03*
X220394D02*
D03*
X210394D02*
D03*
X200394D02*
D03*
X190394D02*
D03*
X330394D02*
D03*
X320394D02*
D03*
X310394D02*
D03*
X300394D02*
D03*
X389894D02*
D03*
X379894D02*
D03*
X369894D02*
D03*
X359894D02*
D03*
X281094Y256294D02*
D03*
X291094D02*
D03*
X301094D02*
D03*
X342144D02*
D03*
X332144D02*
D03*
X322144D02*
D03*
X363194D02*
D03*
X373194D02*
D03*
X383194D02*
D03*
X281094Y280294D02*
D03*
X291094D02*
D03*
X301094D02*
D03*
X383194D02*
D03*
X373194D02*
D03*
X363194D02*
D03*
X322144D02*
D03*
X332144D02*
D03*
X342144D02*
D03*
X328394Y211694D02*
D03*
X318394D02*
D03*
X286694D02*
D03*
X296694D02*
D03*
X47794Y379894D02*
D03*
X37794D02*
D03*
X349894Y211694D02*
D03*
X359894D02*
D03*
X391194D02*
D03*
X381194D02*
D03*
X391894Y575894D02*
D03*
X351894D02*
D03*
X361894D02*
D03*
X371894D02*
D03*
X381894D02*
D03*
X70894Y444894D02*
D03*
X80894D02*
D03*
X90894D02*
D03*
X100894D02*
D03*
X160894D02*
D03*
X150894D02*
D03*
X140894D02*
D03*
X130894D02*
D03*
X271394D02*
D03*
X261394D02*
D03*
X251394D02*
D03*
X241394D02*
D03*
X220394D02*
D03*
X210394D02*
D03*
X200394D02*
D03*
X190394D02*
D03*
X330394D02*
D03*
X320394D02*
D03*
X310394D02*
D03*
X300394D02*
D03*
X389894D02*
D03*
X379894D02*
D03*
X369894D02*
D03*
X359894D02*
D03*
X281094Y661294D02*
D03*
X291094D02*
D03*
X301094D02*
D03*
X342144D02*
D03*
X332144D02*
D03*
X322144D02*
D03*
X363194D02*
D03*
X373194D02*
D03*
X383194D02*
D03*
X281094Y685294D02*
D03*
X291094D02*
D03*
X301094D02*
D03*
X383194D02*
D03*
X373194D02*
D03*
X363194D02*
D03*
X322144D02*
D03*
X332144D02*
D03*
X342144D02*
D03*
X328394Y616694D02*
D03*
X318394D02*
D03*
X286694D02*
D03*
X296694D02*
D03*
X47794Y784894D02*
D03*
X37794D02*
D03*
X349894Y616694D02*
D03*
X359894D02*
D03*
X391194D02*
D03*
X381194D02*
D03*
G54D291*
X402457Y343642D02*
D03*
Y363642D02*
D03*
Y323642D02*
D03*
Y303642D02*
D03*
Y283642D02*
D03*
Y263642D02*
D03*
Y748642D02*
D03*
Y768642D02*
D03*
Y728642D02*
D03*
Y708642D02*
D03*
Y688642D02*
D03*
Y668642D02*
D03*
G54D292*
X417194Y70894D02*
D03*
Y80894D02*
D03*
Y90894D02*
D03*
Y100894D02*
D03*
Y475894D02*
D03*
Y485894D02*
D03*
Y495894D02*
D03*
Y505894D02*
D03*
G54D293*
X423826Y175272D02*
D03*
X410426D02*
D03*
Y228272D02*
D03*
X423826D02*
D03*
X370494Y310794D02*
D03*
X383894D02*
D03*
Y363794D02*
D03*
X370494D02*
D03*
X336894Y310794D02*
D03*
X350294D02*
D03*
Y363794D02*
D03*
X336894D02*
D03*
X423826Y580272D02*
D03*
X410426D02*
D03*
Y633272D02*
D03*
X423826D02*
D03*
X370494Y715794D02*
D03*
X383894D02*
D03*
Y768794D02*
D03*
X370494D02*
D03*
X336894Y715794D02*
D03*
X350294D02*
D03*
Y768794D02*
D03*
X336894D02*
D03*
G54D294*
X253394Y410594D02*
D03*
X233394D02*
D03*
X213394D02*
D03*
X193394D02*
D03*
X173394D02*
D03*
X153394D02*
D03*
X133394D02*
D03*
X113394D02*
D03*
X93394D02*
D03*
X73394D02*
D03*
X253394Y815594D02*
D03*
X233394D02*
D03*
X213394D02*
D03*
X193394D02*
D03*
X173394D02*
D03*
X153394D02*
D03*
X133394D02*
D03*
X113394D02*
D03*
X93394D02*
D03*
X73394D02*
D03*
G54D295*
X33994Y347794D02*
D03*
Y329994D02*
D03*
Y752794D02*
D03*
Y734994D02*
D03*
G54D296*
X43794Y352694D02*
D03*
Y325094D02*
D03*
Y757694D02*
D03*
Y730094D02*
D03*
G54D297*
X68994Y250394D02*
D03*
Y260315D02*
D03*
X61094D02*
D03*
Y250394D02*
D03*
X68994Y655394D02*
D03*
Y665315D02*
D03*
X61094D02*
D03*
Y655394D02*
D03*
G54D298*
X50394Y279016D02*
D03*
Y231694D02*
D03*
Y684016D02*
D03*
Y636694D02*
D03*
G54D299*
X348525Y407836D02*
D03*
X352462D02*
D03*
Y403899D02*
D03*
X348525D02*
D03*
X344588D02*
D03*
Y407836D02*
D03*
Y411773D02*
D03*
X348525D02*
D03*
X352462D02*
D03*
X348525Y812836D02*
D03*
X352462D02*
D03*
Y808899D02*
D03*
X348525D02*
D03*
X344588D02*
D03*
Y812836D02*
D03*
Y816773D02*
D03*
X348525D02*
D03*
X352462D02*
D03*
G54D300*
X82543Y371596D02*
D03*
Y375596D02*
D03*
Y367596D02*
D03*
Y363596D02*
D03*
X78543D02*
D03*
X74543D02*
D03*
Y367596D02*
D03*
X78543D02*
D03*
Y371596D02*
D03*
X74543D02*
D03*
Y375596D02*
D03*
X78543D02*
D03*
X86543D02*
D03*
X90543D02*
D03*
Y371596D02*
D03*
X86543D02*
D03*
Y367596D02*
D03*
X90543D02*
D03*
Y363596D02*
D03*
X86543D02*
D03*
X126394D02*
D03*
X130394D02*
D03*
Y367596D02*
D03*
X126394D02*
D03*
Y371596D02*
D03*
X130394D02*
D03*
Y375596D02*
D03*
X126394D02*
D03*
X118394D02*
D03*
X114394D02*
D03*
Y371596D02*
D03*
X118394D02*
D03*
Y367596D02*
D03*
X114394D02*
D03*
Y363596D02*
D03*
X118394D02*
D03*
X122394D02*
D03*
Y367596D02*
D03*
Y375596D02*
D03*
Y371596D02*
D03*
X162494D02*
D03*
Y375596D02*
D03*
Y367596D02*
D03*
Y363596D02*
D03*
X158494D02*
D03*
X154494D02*
D03*
Y367596D02*
D03*
X158494D02*
D03*
Y371596D02*
D03*
X154494D02*
D03*
Y375596D02*
D03*
X158494D02*
D03*
X166494D02*
D03*
X170494D02*
D03*
Y371596D02*
D03*
X166494D02*
D03*
Y367596D02*
D03*
X170494D02*
D03*
Y363596D02*
D03*
X166494D02*
D03*
X252043Y355596D02*
D03*
X256043D02*
D03*
Y359596D02*
D03*
X252043D02*
D03*
Y363596D02*
D03*
X256043D02*
D03*
Y367596D02*
D03*
X252043D02*
D03*
X244043D02*
D03*
X240043D02*
D03*
Y363596D02*
D03*
X244043D02*
D03*
Y359596D02*
D03*
X240043D02*
D03*
Y355596D02*
D03*
X244043D02*
D03*
X248043D02*
D03*
Y359596D02*
D03*
Y367596D02*
D03*
Y363596D02*
D03*
X82543Y776596D02*
D03*
Y780596D02*
D03*
Y772596D02*
D03*
Y768596D02*
D03*
X78543D02*
D03*
X74543D02*
D03*
Y772596D02*
D03*
X78543D02*
D03*
Y776596D02*
D03*
X74543D02*
D03*
Y780596D02*
D03*
X78543D02*
D03*
X86543D02*
D03*
X90543D02*
D03*
Y776596D02*
D03*
X86543D02*
D03*
Y772596D02*
D03*
X90543D02*
D03*
Y768596D02*
D03*
X86543D02*
D03*
X126394D02*
D03*
X130394D02*
D03*
Y772596D02*
D03*
X126394D02*
D03*
Y776596D02*
D03*
X130394D02*
D03*
Y780596D02*
D03*
X126394D02*
D03*
X118394D02*
D03*
X114394D02*
D03*
Y776596D02*
D03*
X118394D02*
D03*
Y772596D02*
D03*
X114394D02*
D03*
Y768596D02*
D03*
X118394D02*
D03*
X122394D02*
D03*
Y772596D02*
D03*
Y780596D02*
D03*
Y776596D02*
D03*
X162494D02*
D03*
Y780596D02*
D03*
Y772596D02*
D03*
Y768596D02*
D03*
X158494D02*
D03*
X154494D02*
D03*
Y772596D02*
D03*
X158494D02*
D03*
Y776596D02*
D03*
X154494D02*
D03*
Y780596D02*
D03*
X158494D02*
D03*
X166494D02*
D03*
X170494D02*
D03*
Y776596D02*
D03*
X166494D02*
D03*
Y772596D02*
D03*
X170494D02*
D03*
Y768596D02*
D03*
X166494D02*
D03*
X252043Y760596D02*
D03*
X256043D02*
D03*
Y764596D02*
D03*
X252043D02*
D03*
Y768596D02*
D03*
X256043D02*
D03*
Y772596D02*
D03*
X252043D02*
D03*
X244043D02*
D03*
X240043D02*
D03*
Y768596D02*
D03*
X244043D02*
D03*
Y764596D02*
D03*
X240043D02*
D03*
Y760596D02*
D03*
X244043D02*
D03*
X248043D02*
D03*
Y764596D02*
D03*
Y772596D02*
D03*
Y768596D02*
D03*
M02*
