G04 Layer_Physical_Order=3*
G04 Layer_Color=128*
%FSLAX25Y25*%
%MOIN*%
G70*
G01*
G75*
%ADD12C,0.01000*%
%ADD81C,0.02000*%
%ADD90C,0.01500*%
%ADD113C,0.15811*%
%ADD114C,0.06337*%
%ADD115C,0.14211*%
%ADD117C,0.05943*%
G04:AMPARAMS|DCode=118|XSize=79.433mil|YSize=79.433mil|CornerRadius=0mil|HoleSize=0mil|Usage=FLASHONLY|Rotation=0.000|XOffset=0mil|YOffset=0mil|HoleType=Round|Shape=Relief|Width=14mil|Gap=10mil|Entries=4|*
%AMTHD118*
7,0,0,0.07943,0.05943,0.01400,45*
%
%ADD118THD118*%
G04:AMPARAMS|DCode=119|XSize=84mil|YSize=84mil|CornerRadius=0mil|HoleSize=0mil|Usage=FLASHONLY|Rotation=0.000|XOffset=0mil|YOffset=0mil|HoleType=Round|Shape=Relief|Width=14mil|Gap=10mil|Entries=4|*
%AMTHD119*
7,0,0,0.08400,0.06400,0.01400,45*
%
%ADD119THD119*%
%ADD120C,0.06400*%
%ADD121C,0.07900*%
G04:AMPARAMS|DCode=122|XSize=99mil|YSize=99mil|CornerRadius=0mil|HoleSize=0mil|Usage=FLASHONLY|Rotation=0.000|XOffset=0mil|YOffset=0mil|HoleType=Round|Shape=Relief|Width=14mil|Gap=10mil|Entries=4|*
%AMTHD122*
7,0,0,0.09900,0.07900,0.01400,45*
%
%ADD122THD122*%
%ADD123C,0.08700*%
%ADD124C,0.08300*%
%ADD125C,0.06200*%
%ADD128C,0.11100*%
%ADD129C,0.15392*%
%ADD130C,0.03900*%
%ADD131C,0.12000*%
%ADD132R,0.02657X0.04134*%
G04:AMPARAMS|DCode=133|XSize=107mil|YSize=107mil|CornerRadius=0mil|HoleSize=0mil|Usage=FLASHONLY|Rotation=0.000|XOffset=0mil|YOffset=0mil|HoleType=Round|Shape=Relief|Width=14mil|Gap=10mil|Entries=4|*
%AMTHD133*
7,0,0,0.10700,0.08700,0.01400,45*
%
%ADD133THD133*%
%ADD134C,0.03400*%
G54D12*
X182369Y932340D02*
Y939837D01*
X186118D01*
X187368Y938588D01*
Y936089D01*
X186118Y934839D01*
X182369D01*
X191117Y932340D02*
X193616D01*
X194865Y933589D01*
Y936089D01*
X193616Y937338D01*
X191117D01*
X189867Y936089D01*
Y933589D01*
X191117Y932340D01*
X197365Y937338D02*
Y933589D01*
X198614Y932340D01*
X199864Y933589D01*
X201113Y932340D01*
X202363Y933589D01*
Y937338D01*
X208611Y932340D02*
X206112D01*
X204862Y933589D01*
Y936089D01*
X206112Y937338D01*
X208611D01*
X209860Y936089D01*
Y934839D01*
X204862D01*
X212360Y937338D02*
Y932340D01*
Y934839D01*
X213609Y936089D01*
X214859Y937338D01*
X216108D01*
X227355Y932340D02*
Y939837D01*
X231104D01*
X232353Y938588D01*
Y936089D01*
X231104Y934839D01*
X227355D01*
X234853Y932340D02*
X237352D01*
X236102D01*
Y939837D01*
X234853D01*
X242350Y937338D02*
X244849D01*
X246099Y936089D01*
Y932340D01*
X242350D01*
X241101Y933589D01*
X242350Y934839D01*
X246099D01*
X248598Y932340D02*
Y937338D01*
X252347D01*
X253596Y936089D01*
Y932340D01*
X259844D02*
X257345D01*
X256096Y933589D01*
Y936089D01*
X257345Y937338D01*
X259844D01*
X261094Y936089D01*
Y934839D01*
X256096D01*
X182369Y927337D02*
Y919840D01*
X187368D01*
X191117Y924838D02*
X193616D01*
X194865Y923589D01*
Y919840D01*
X191117D01*
X189867Y921089D01*
X191117Y922339D01*
X194865D01*
X197365Y924838D02*
Y921089D01*
X198614Y919840D01*
X202363D01*
Y918590D01*
X201113Y917341D01*
X199864D01*
X202363Y919840D02*
Y924838D01*
X208611Y919840D02*
X206112D01*
X204862Y921089D01*
Y923589D01*
X206112Y924838D01*
X208611D01*
X209860Y923589D01*
Y922339D01*
X204862D01*
X212360Y924838D02*
Y919840D01*
Y922339D01*
X213609Y923589D01*
X214859Y924838D01*
X216108D01*
X227355Y926088D02*
X228605Y927337D01*
X231104D01*
X232353Y926088D01*
Y924838D01*
X231104Y923589D01*
X229854D01*
X231104D01*
X232353Y922339D01*
Y921089D01*
X231104Y919840D01*
X228605D01*
X227355Y921089D01*
X182369Y907340D02*
Y912338D01*
X184869Y914837D01*
X187368Y912338D01*
Y907340D01*
Y911089D01*
X182369D01*
X189867Y912338D02*
Y907340D01*
Y909839D01*
X191117Y911089D01*
X192366Y912338D01*
X193616D01*
X202363D02*
X198614D01*
X197365Y911089D01*
Y908589D01*
X198614Y907340D01*
X202363D01*
X204862Y914837D02*
Y907340D01*
Y911089D01*
X206112Y912338D01*
X208611D01*
X209860Y911089D01*
Y907340D01*
X212360D02*
X214859D01*
X213609D01*
Y912338D01*
X212360D01*
X218608Y907340D02*
Y912338D01*
X219857D01*
X221107Y911089D01*
Y907340D01*
Y911089D01*
X222357Y912338D01*
X223606Y911089D01*
Y907340D01*
X226105Y906090D02*
X231104D01*
X238601Y907340D02*
X233603D01*
X238601Y912338D01*
Y913588D01*
X237352Y914837D01*
X234853D01*
X233603Y913588D01*
X241101Y907340D02*
Y908589D01*
X242350D01*
Y907340D01*
X241101D01*
X247348Y913588D02*
X248598Y914837D01*
X251097D01*
X252347Y913588D01*
Y908589D01*
X251097Y907340D01*
X248598D01*
X247348Y908589D01*
Y913588D01*
X256096Y912338D02*
X258595D01*
X259844Y911089D01*
Y907340D01*
X256096D01*
X254846Y908589D01*
X256096Y909839D01*
X259844D01*
X97394Y410594D02*
X97268Y411588D01*
X96899Y412521D01*
X96310Y413332D01*
X95537Y413971D01*
X94630Y414398D01*
X93645Y414586D01*
X92644Y414523D01*
X91691Y414213D01*
X90844Y413676D01*
X90158Y412945D01*
X89675Y412066D01*
X89425Y411095D01*
Y410092D01*
X89675Y409121D01*
X90158Y408243D01*
X90844Y407512D01*
X91691Y406974D01*
X92644Y406665D01*
X93645Y406602D01*
X94630Y406789D01*
X95537Y407216D01*
X96310Y407856D01*
X96899Y408667D01*
X97268Y409599D01*
X97394Y410594D01*
X137294Y410694D02*
X137168Y411689D01*
X136799Y412621D01*
X136210Y413432D01*
X135437Y414071D01*
X134530Y414498D01*
X133545Y414686D01*
X132544Y414623D01*
X131591Y414313D01*
X130744Y413776D01*
X130058Y413045D01*
X129575Y412166D01*
X129325Y411195D01*
Y410192D01*
X129575Y409221D01*
X130058Y408343D01*
X130744Y407612D01*
X131591Y407074D01*
X132544Y406765D01*
X133545Y406702D01*
X134530Y406889D01*
X135437Y407316D01*
X136210Y407956D01*
X136799Y408767D01*
X137168Y409699D01*
X137294Y410694D01*
X177394Y410594D02*
X177268Y411588D01*
X176899Y412521D01*
X176310Y413332D01*
X175537Y413971D01*
X174630Y414398D01*
X173645Y414586D01*
X172644Y414523D01*
X171691Y414213D01*
X170844Y413676D01*
X170158Y412945D01*
X169675Y412066D01*
X169425Y411095D01*
Y410092D01*
X169675Y409121D01*
X170158Y408243D01*
X170844Y407512D01*
X171691Y406974D01*
X172644Y406665D01*
X173645Y406602D01*
X174630Y406789D01*
X175537Y407216D01*
X176310Y407856D01*
X176899Y408667D01*
X177268Y409599D01*
X177394Y410594D01*
X217394Y410594D02*
X217268Y411588D01*
X216899Y412521D01*
X216310Y413332D01*
X215537Y413971D01*
X214630Y414398D01*
X213645Y414586D01*
X212644Y414523D01*
X211691Y414213D01*
X210844Y413676D01*
X210158Y412945D01*
X209675Y412066D01*
X209425Y411095D01*
Y410092D01*
X209675Y409121D01*
X210158Y408243D01*
X210844Y407512D01*
X211691Y406974D01*
X212644Y406665D01*
X213645Y406602D01*
X214630Y406789D01*
X215537Y407216D01*
X216310Y407856D01*
X216899Y408667D01*
X217268Y409599D01*
X217394Y410594D01*
X427826Y228272D02*
X427700Y229266D01*
X427331Y230199D01*
X426742Y231010D01*
X425969Y231649D01*
X425062Y232076D01*
X424077Y232264D01*
X423076Y232201D01*
X422123Y231891D01*
X421276Y231354D01*
X420590Y230623D01*
X420107Y229744D01*
X419858Y228773D01*
Y227770D01*
X420107Y226799D01*
X420590Y225921D01*
X421276Y225190D01*
X422123Y224652D01*
X423076Y224342D01*
X424077Y224279D01*
X425062Y224467D01*
X425969Y224894D01*
X426742Y225534D01*
X427331Y226345D01*
X427700Y227277D01*
X427826Y228272D01*
X414426Y228272D02*
X414300Y229266D01*
X413931Y230199D01*
X413342Y231010D01*
X412569Y231649D01*
X411662Y232076D01*
X410677Y232264D01*
X409677Y232201D01*
X408723Y231891D01*
X407876Y231354D01*
X407190Y230623D01*
X406707Y229744D01*
X406458Y228773D01*
Y227770D01*
X406707Y226799D01*
X407190Y225921D01*
X407876Y225190D01*
X408723Y224652D01*
X409677Y224342D01*
X410677Y224279D01*
X411662Y224467D01*
X412569Y224894D01*
X413342Y225534D01*
X413931Y226345D01*
X414300Y227277D01*
X414426Y228272D01*
X97394Y410594D02*
X97268Y411588D01*
X96899Y412521D01*
X96310Y413332D01*
X95537Y413971D01*
X94630Y414398D01*
X93645Y414586D01*
X92644Y414523D01*
X91691Y414213D01*
X90844Y413676D01*
X90158Y412945D01*
X89675Y412066D01*
X89425Y411095D01*
Y410092D01*
X89675Y409121D01*
X90158Y408243D01*
X90844Y407512D01*
X91691Y406974D01*
X92644Y406665D01*
X93645Y406602D01*
X94630Y406789D01*
X95537Y407216D01*
X96310Y407856D01*
X96899Y408667D01*
X97268Y409599D01*
X97394Y410594D01*
X137394Y410594D02*
X137268Y411588D01*
X136899Y412521D01*
X136310Y413332D01*
X135537Y413971D01*
X134630Y414398D01*
X133645Y414586D01*
X132644Y414523D01*
X131691Y414213D01*
X130844Y413676D01*
X130158Y412945D01*
X129675Y412066D01*
X129425Y411095D01*
Y410092D01*
X129675Y409121D01*
X130158Y408243D01*
X130844Y407512D01*
X131691Y406974D01*
X132644Y406665D01*
X133645Y406602D01*
X134630Y406789D01*
X135537Y407216D01*
X136310Y407856D01*
X136899Y408667D01*
X137268Y409599D01*
X137394Y410594D01*
X177394Y410594D02*
X177268Y411588D01*
X176899Y412521D01*
X176310Y413332D01*
X175537Y413971D01*
X174630Y414398D01*
X173645Y414586D01*
X172644Y414523D01*
X171691Y414213D01*
X170844Y413676D01*
X170158Y412945D01*
X169675Y412066D01*
X169425Y411095D01*
Y410092D01*
X169675Y409121D01*
X170158Y408243D01*
X170844Y407512D01*
X171691Y406974D01*
X172644Y406665D01*
X173645Y406602D01*
X174630Y406789D01*
X175537Y407216D01*
X176310Y407856D01*
X176899Y408667D01*
X177268Y409599D01*
X177394Y410594D01*
X217394Y410594D02*
X217268Y411588D01*
X216899Y412521D01*
X216310Y413332D01*
X215537Y413971D01*
X214630Y414398D01*
X213645Y414586D01*
X212644Y414523D01*
X211691Y414213D01*
X210844Y413676D01*
X210158Y412945D01*
X209675Y412066D01*
X209425Y411095D01*
Y410092D01*
X209675Y409121D01*
X210158Y408243D01*
X210844Y407512D01*
X211691Y406974D01*
X212644Y406665D01*
X213645Y406602D01*
X214630Y406789D01*
X215537Y407216D01*
X216310Y407856D01*
X216899Y408667D01*
X217268Y409599D01*
X217394Y410594D01*
X406409Y263594D02*
X406283Y264588D01*
X405914Y265521D01*
X405325Y266332D01*
X404552Y266971D01*
X403645Y267398D01*
X402660Y267586D01*
X401659Y267523D01*
X400706Y267213D01*
X399859Y266676D01*
X399173Y265945D01*
X398690Y265066D01*
X398440Y264095D01*
Y263092D01*
X398690Y262121D01*
X399173Y261243D01*
X399859Y260512D01*
X400706Y259974D01*
X401659Y259665D01*
X402660Y259602D01*
X403645Y259789D01*
X404552Y260216D01*
X405325Y260856D01*
X405914Y261667D01*
X406283Y262599D01*
X406409Y263594D01*
X26394Y369894D02*
Y393394D01*
X434894Y154394D02*
Y296894D01*
X25394Y25394D02*
X25509Y128894D01*
X435394Y380894D02*
Y388394D01*
X59894Y26394D02*
X60894Y25394D01*
X238043Y353594D02*
X258043D01*
X435394Y291394D02*
Y293594D01*
X335714Y322694D02*
X342794D01*
X97394Y815594D02*
X97268Y816588D01*
X96899Y817521D01*
X96310Y818332D01*
X95537Y818971D01*
X94630Y819398D01*
X93645Y819586D01*
X92644Y819523D01*
X91691Y819213D01*
X90844Y818676D01*
X90158Y817945D01*
X89675Y817066D01*
X89425Y816095D01*
Y815092D01*
X89675Y814121D01*
X90158Y813243D01*
X90844Y812512D01*
X91691Y811974D01*
X92644Y811664D01*
X93645Y811602D01*
X94630Y811790D01*
X95537Y812216D01*
X96310Y812856D01*
X96899Y813667D01*
X97268Y814599D01*
X97394Y815594D01*
X137294Y815694D02*
X137168Y816689D01*
X136799Y817621D01*
X136210Y818432D01*
X135437Y819071D01*
X134530Y819498D01*
X133545Y819686D01*
X132544Y819623D01*
X131591Y819313D01*
X130744Y818776D01*
X130058Y818045D01*
X129575Y817166D01*
X129325Y816195D01*
Y815192D01*
X129575Y814221D01*
X130058Y813343D01*
X130744Y812612D01*
X131591Y812074D01*
X132544Y811765D01*
X133545Y811702D01*
X134530Y811889D01*
X135437Y812316D01*
X136210Y812955D01*
X136799Y813767D01*
X137168Y814699D01*
X137294Y815694D01*
X177394Y815594D02*
X177268Y816588D01*
X176899Y817521D01*
X176310Y818332D01*
X175537Y818971D01*
X174630Y819398D01*
X173645Y819586D01*
X172644Y819523D01*
X171691Y819213D01*
X170844Y818676D01*
X170158Y817945D01*
X169675Y817066D01*
X169425Y816095D01*
Y815092D01*
X169675Y814121D01*
X170158Y813243D01*
X170844Y812512D01*
X171691Y811974D01*
X172644Y811664D01*
X173645Y811602D01*
X174630Y811790D01*
X175537Y812216D01*
X176310Y812856D01*
X176899Y813667D01*
X177268Y814599D01*
X177394Y815594D01*
X217394Y815594D02*
X217268Y816588D01*
X216899Y817521D01*
X216310Y818332D01*
X215537Y818971D01*
X214630Y819398D01*
X213645Y819586D01*
X212644Y819523D01*
X211691Y819213D01*
X210844Y818676D01*
X210158Y817945D01*
X209675Y817066D01*
X209425Y816095D01*
Y815092D01*
X209675Y814121D01*
X210158Y813243D01*
X210844Y812512D01*
X211691Y811974D01*
X212644Y811664D01*
X213645Y811602D01*
X214630Y811790D01*
X215537Y812216D01*
X216310Y812856D01*
X216899Y813667D01*
X217268Y814599D01*
X217394Y815594D01*
X427826Y633272D02*
X427700Y634266D01*
X427331Y635199D01*
X426742Y636010D01*
X425969Y636649D01*
X425062Y637076D01*
X424077Y637264D01*
X423076Y637201D01*
X422123Y636891D01*
X421276Y636354D01*
X420590Y635623D01*
X420107Y634744D01*
X419858Y633773D01*
Y632770D01*
X420107Y631799D01*
X420590Y630921D01*
X421276Y630190D01*
X422123Y629652D01*
X423076Y629343D01*
X424077Y629280D01*
X425062Y629467D01*
X425969Y629894D01*
X426742Y630534D01*
X427331Y631345D01*
X427700Y632277D01*
X427826Y633272D01*
X414426Y633272D02*
X414300Y634266D01*
X413931Y635199D01*
X413342Y636010D01*
X412569Y636649D01*
X411662Y637076D01*
X410677Y637264D01*
X409677Y637201D01*
X408723Y636891D01*
X407876Y636354D01*
X407190Y635623D01*
X406707Y634744D01*
X406458Y633773D01*
Y632770D01*
X406707Y631799D01*
X407190Y630921D01*
X407876Y630190D01*
X408723Y629652D01*
X409677Y629343D01*
X410677Y629280D01*
X411662Y629467D01*
X412569Y629894D01*
X413342Y630534D01*
X413931Y631345D01*
X414300Y632277D01*
X414426Y633272D01*
X97394Y815594D02*
X97268Y816588D01*
X96899Y817521D01*
X96310Y818332D01*
X95537Y818971D01*
X94630Y819398D01*
X93645Y819586D01*
X92644Y819523D01*
X91691Y819213D01*
X90844Y818676D01*
X90158Y817945D01*
X89675Y817066D01*
X89425Y816095D01*
Y815092D01*
X89675Y814121D01*
X90158Y813243D01*
X90844Y812512D01*
X91691Y811974D01*
X92644Y811664D01*
X93645Y811602D01*
X94630Y811790D01*
X95537Y812216D01*
X96310Y812856D01*
X96899Y813667D01*
X97268Y814599D01*
X97394Y815594D01*
X137394Y815594D02*
X137268Y816588D01*
X136899Y817521D01*
X136310Y818332D01*
X135537Y818971D01*
X134630Y819398D01*
X133645Y819586D01*
X132644Y819523D01*
X131691Y819213D01*
X130844Y818676D01*
X130158Y817945D01*
X129675Y817066D01*
X129425Y816095D01*
Y815092D01*
X129675Y814121D01*
X130158Y813243D01*
X130844Y812512D01*
X131691Y811974D01*
X132644Y811664D01*
X133645Y811602D01*
X134630Y811790D01*
X135537Y812216D01*
X136310Y812856D01*
X136899Y813667D01*
X137268Y814599D01*
X137394Y815594D01*
X177394Y815594D02*
X177268Y816588D01*
X176899Y817521D01*
X176310Y818332D01*
X175537Y818971D01*
X174630Y819398D01*
X173645Y819586D01*
X172644Y819523D01*
X171691Y819213D01*
X170844Y818676D01*
X170158Y817945D01*
X169675Y817066D01*
X169425Y816095D01*
Y815092D01*
X169675Y814121D01*
X170158Y813243D01*
X170844Y812512D01*
X171691Y811974D01*
X172644Y811664D01*
X173645Y811602D01*
X174630Y811790D01*
X175537Y812216D01*
X176310Y812856D01*
X176899Y813667D01*
X177268Y814599D01*
X177394Y815594D01*
X217394Y815594D02*
X217268Y816588D01*
X216899Y817521D01*
X216310Y818332D01*
X215537Y818971D01*
X214630Y819398D01*
X213645Y819586D01*
X212644Y819523D01*
X211691Y819213D01*
X210844Y818676D01*
X210158Y817945D01*
X209675Y817066D01*
X209425Y816095D01*
Y815092D01*
X209675Y814121D01*
X210158Y813243D01*
X210844Y812512D01*
X211691Y811974D01*
X212644Y811664D01*
X213645Y811602D01*
X214630Y811790D01*
X215537Y812216D01*
X216310Y812856D01*
X216899Y813667D01*
X217268Y814599D01*
X217394Y815594D01*
X406409Y668594D02*
X406283Y669589D01*
X405914Y670521D01*
X405325Y671332D01*
X404552Y671971D01*
X403645Y672398D01*
X402660Y672586D01*
X401659Y672523D01*
X400706Y672213D01*
X399859Y671676D01*
X399173Y670945D01*
X398690Y670066D01*
X398440Y669095D01*
Y668092D01*
X398690Y667121D01*
X399173Y666243D01*
X399859Y665512D01*
X400706Y664974D01*
X401659Y664665D01*
X402660Y664602D01*
X403645Y664789D01*
X404552Y665216D01*
X405325Y665856D01*
X405914Y666667D01*
X406283Y667599D01*
X406409Y668594D01*
X26394Y774894D02*
Y798394D01*
X434894Y559394D02*
Y701894D01*
X25394Y430394D02*
X25509Y533894D01*
X435394Y785894D02*
Y793394D01*
X59894Y431394D02*
X60894Y430394D01*
X238043Y758594D02*
X258043D01*
X435394Y696394D02*
Y698594D01*
X335714Y727694D02*
X342794D01*
G54D81*
X282712Y350794D02*
Y380797D01*
Y336380D02*
Y350794D01*
X260894D02*
X282712D01*
X312110Y306982D02*
X319825D01*
X282712Y336380D02*
X312110Y306982D01*
X363994Y343894D02*
Y380882D01*
X324194Y380894D02*
X356294D01*
X398194Y192524D02*
X435220D01*
X398194Y149194D02*
Y192524D01*
X270456Y295080D02*
X272339D01*
Y181372D02*
Y295080D01*
X270456Y181372D02*
X272339D01*
X249078D02*
Y183918D01*
X229673D02*
X249078D01*
X229673Y181361D02*
Y183918D01*
X158406Y181361D02*
X229673D01*
X158406D02*
Y196649D01*
X153075D02*
X158406D01*
X153075D02*
Y220912D01*
X158406D01*
Y317859D01*
X206038D01*
Y296864D02*
Y317859D01*
Y296864D02*
X232061D01*
Y292001D02*
Y296864D01*
Y292001D02*
X239842D01*
Y295080D01*
X270456D01*
X249078Y181372D02*
X270456D01*
X196361Y281735D02*
X255495D01*
X185234Y281727D02*
Y304325D01*
X196356D01*
Y281723D02*
Y304325D01*
X172511Y198155D02*
X255495D01*
Y281735D01*
X398194Y25394D02*
Y149194D01*
X226794Y394194D02*
X269115D01*
X238094Y353594D02*
X258094D01*
X197494Y351694D02*
X224394D01*
X191194Y357994D02*
X197494Y351694D01*
X55394Y357994D02*
X191194D01*
X269215Y394294D02*
X282594Y380915D01*
X26394Y369894D02*
X55394D01*
Y357994D02*
Y369394D01*
X354894Y380894D02*
X435394D01*
X324194D02*
Y430194D01*
X71535Y378537D02*
X93782D01*
Y358144D02*
Y378537D01*
X71535Y358144D02*
X93782D01*
X71535D02*
Y378537D01*
X233153Y353594D02*
X238094D01*
X258094D02*
X260894Y350794D01*
X360494Y340394D02*
X363994Y343894D01*
X319914Y306894D02*
X335714Y322694D01*
X342794D01*
X360494Y340394D01*
X356694Y336594D02*
X362094Y331194D01*
Y306594D02*
Y331194D01*
Y306594D02*
X367694Y300994D01*
X387694D01*
X391294Y304594D01*
Y328694D01*
X395294Y332694D01*
X412394D01*
X416894Y337194D01*
Y349894D01*
X412994Y353794D02*
X416894Y349894D01*
X383594Y353794D02*
X412994D01*
X370894Y341094D02*
X383594Y353794D01*
X366394Y341094D02*
X370894D01*
X363794Y343694D02*
X366394Y341094D01*
X328713Y292074D02*
Y315594D01*
Y292074D02*
X334094Y286694D01*
X338394D01*
X392794D01*
X395494Y289394D01*
X411294D01*
X418294Y296394D01*
Y310994D01*
X415394Y313894D02*
X418294Y310994D01*
X394794Y313894D02*
X415394D01*
X391494D02*
X394794D01*
X25394Y134094D02*
Y135494D01*
X111385Y358144D02*
Y378537D01*
Y358144D02*
X133632D01*
Y378537D01*
X111385D02*
X133632D01*
X111385Y358144D02*
Y378537D01*
Y358144D02*
X133632D01*
Y378537D01*
X111385D02*
X133632D01*
X151485Y358144D02*
Y378537D01*
Y358144D02*
X173732D01*
Y378537D01*
X151485D02*
X173732D01*
X404794Y169394D02*
X434894D01*
X404794D02*
Y181294D01*
X435394D01*
X248394Y405594D02*
Y415494D01*
Y405594D02*
X258394D01*
Y415494D01*
X248394D02*
X258394D01*
X172511Y198155D02*
Y267350D01*
X172535Y267373D01*
X181627D01*
Y281651D01*
X185164D01*
X233135Y353613D02*
Y359490D01*
X226861D02*
X233135D01*
X226864Y359482D02*
X226874D01*
Y394166D01*
X224367Y351637D02*
Y351700D01*
X233111D01*
Y353608D01*
X282712Y755794D02*
Y785797D01*
Y741380D02*
Y755794D01*
X260894D02*
X282712D01*
X312110Y711982D02*
X319825D01*
X282712Y741380D02*
X312110Y711982D01*
X363994Y748894D02*
Y785882D01*
X324194Y785894D02*
X356294D01*
X398194Y597524D02*
X435220D01*
X398194Y554194D02*
Y597524D01*
X270456Y700080D02*
X272339D01*
Y586372D02*
Y700080D01*
X270456Y586372D02*
X272339D01*
X249078D02*
Y588918D01*
X229673D02*
X249078D01*
X229673Y586361D02*
Y588918D01*
X158406Y586361D02*
X229673D01*
X158406D02*
Y601649D01*
X153075D02*
X158406D01*
X153075D02*
Y625912D01*
X158406D01*
Y722859D01*
X206038D01*
Y701864D02*
Y722859D01*
Y701864D02*
X232061D01*
Y697001D02*
Y701864D01*
Y697001D02*
X239842D01*
Y700080D01*
X270456D01*
X249078Y586372D02*
X270456D01*
X196361Y686735D02*
X255495D01*
X185234Y686727D02*
Y709325D01*
X196356D01*
Y686723D02*
Y709325D01*
X172511Y603155D02*
X255495D01*
Y686735D01*
X398194Y430394D02*
Y554194D01*
X226794Y799194D02*
X269115D01*
X238094Y758594D02*
X258094D01*
X197494Y756694D02*
X224394D01*
X191194Y762994D02*
X197494Y756694D01*
X55394Y762994D02*
X191194D01*
X269215Y799294D02*
X282594Y785915D01*
X26394Y774894D02*
X55394D01*
Y762994D02*
Y774394D01*
X354894Y785894D02*
X435394D01*
X324194D02*
Y835194D01*
X71535Y783537D02*
X93782D01*
Y763144D02*
Y783537D01*
X71535Y763144D02*
X93782D01*
X71535D02*
Y783537D01*
X233153Y758594D02*
X238094D01*
X258094D02*
X260894Y755794D01*
X360494Y745394D02*
X363994Y748894D01*
X319914Y711894D02*
X335714Y727694D01*
X342794D01*
X360494Y745394D01*
X356694Y741594D02*
X362094Y736194D01*
Y711594D02*
Y736194D01*
Y711594D02*
X367694Y705994D01*
X387694D01*
X391294Y709594D01*
Y733694D01*
X395294Y737694D01*
X412394D01*
X416894Y742194D01*
Y754894D01*
X412994Y758794D02*
X416894Y754894D01*
X383594Y758794D02*
X412994D01*
X370894Y746094D02*
X383594Y758794D01*
X366394Y746094D02*
X370894D01*
X363794Y748694D02*
X366394Y746094D01*
X328713Y697074D02*
Y720594D01*
Y697074D02*
X334094Y691694D01*
X338394D01*
X392794D01*
X395494Y694394D01*
X411294D01*
X418294Y701394D01*
Y715994D01*
X415394Y718894D02*
X418294Y715994D01*
X394794Y718894D02*
X415394D01*
X391494D02*
X394794D01*
X25394Y539094D02*
Y540494D01*
X111385Y763144D02*
Y783537D01*
Y763144D02*
X133632D01*
Y783537D01*
X111385D02*
X133632D01*
X111385Y763144D02*
Y783537D01*
Y763144D02*
X133632D01*
Y783537D01*
X111385D02*
X133632D01*
X151485Y763144D02*
Y783537D01*
Y763144D02*
X173732D01*
Y783537D01*
X151485D02*
X173732D01*
X404794Y574394D02*
X434894D01*
X404794D02*
Y586294D01*
X435394D01*
X248394Y810594D02*
Y820494D01*
Y810594D02*
X258394D01*
Y820494D01*
X248394D02*
X258394D01*
X172511Y603155D02*
Y672350D01*
X172535Y672373D01*
X181627D01*
Y686651D01*
X185164D01*
X233135Y758613D02*
Y764490D01*
X226861D02*
X233135D01*
X226864Y764482D02*
X226874D01*
Y799166D01*
X224367Y756637D02*
Y756700D01*
X233111D01*
Y758608D01*
G54D90*
X332776Y122539D02*
X355413Y145177D01*
X364961Y154724D02*
X382283D01*
X326378D02*
X364961D01*
X355413Y145177D02*
Y154724D01*
X332776Y116634D02*
Y122539D01*
X311614Y141240D02*
X326378D01*
Y148894D01*
X383858Y140945D02*
X398170D01*
X383858Y122539D02*
Y138189D01*
X375689Y114370D02*
X383858Y122539D01*
Y138189D02*
Y153150D01*
X382283Y154724D02*
X383858Y153150D01*
X260531Y116634D02*
Y131988D01*
X266043Y137500D01*
X275492D01*
X260531Y116634D02*
X263386Y113779D01*
X270866D01*
X271457Y114370D01*
X303445D01*
X311614Y122539D02*
Y138189D01*
X303445Y114370D02*
X311614Y122539D01*
Y138189D02*
Y153150D01*
X310039Y154724D02*
X311614Y153150D01*
X292717Y154724D02*
X310039D01*
X75984D02*
X93307D01*
X94882Y153150D01*
Y138189D02*
Y153150D01*
X86713Y114370D02*
X94882Y122539D01*
Y138189D01*
X54724Y114370D02*
X86713D01*
X54134Y113779D02*
X54724Y114370D01*
X46654Y113779D02*
X54134D01*
X43799Y116634D02*
X46654Y113779D01*
X49311Y137500D02*
X58760D01*
X43799Y131988D02*
X49311Y137500D01*
X43799Y116634D02*
Y131988D01*
X25494Y149194D02*
X70472D01*
X94882D02*
X142717D01*
X116043Y116634D02*
Y131988D01*
X121555Y137500D01*
X131004D01*
X116043Y116634D02*
X118898Y113779D01*
X126378D01*
X126969Y114370D01*
X158957D01*
X167126Y122539D02*
Y138189D01*
X158957Y114370D02*
X167126Y122539D01*
Y138189D02*
Y153150D01*
X165551Y154724D02*
X167126Y153150D01*
X148228Y154724D02*
X165551D01*
X220472D02*
X237795D01*
X239370Y153150D01*
Y138189D02*
Y153150D01*
X231201Y114370D02*
X239370Y122539D01*
Y138189D01*
X199213Y114370D02*
X231201D01*
X198622Y113779D02*
X199213Y114370D01*
X191142Y113779D02*
X198622D01*
X188287Y116634D02*
X191142Y113779D01*
X193799Y137500D02*
X203248D01*
X188287Y131988D02*
X193799Y137500D01*
X188287Y116634D02*
Y131988D01*
X326378Y141240D02*
Y154724D01*
X367913Y114370D02*
X375689D01*
X364665Y117618D02*
X367913Y114370D01*
X347244Y117618D02*
X364665D01*
X346063Y116437D02*
X347244Y117618D01*
X332972Y116437D02*
X346063D01*
X64764Y143504D02*
Y149194D01*
X70472D02*
Y149213D01*
X58760Y137500D02*
X64764Y143504D01*
X70472Y149213D02*
X75984Y154724D01*
X142717Y149213D02*
X148228Y154724D01*
X131004Y137500D02*
X137008Y143504D01*
Y149194D01*
X203248Y137500D02*
X209252Y143504D01*
Y148894D01*
X214642D02*
X220472Y154724D01*
X167126Y148894D02*
X214642D01*
X275492Y137500D02*
X281496Y143504D01*
Y148894D01*
X286886D02*
X292717Y154724D01*
X239370Y148894D02*
X286886D01*
X332776Y527539D02*
X355413Y550177D01*
X364961Y559724D02*
X382283D01*
X326378D02*
X364961D01*
X355413Y550177D02*
Y559724D01*
X332776Y521634D02*
Y527539D01*
X311614Y546240D02*
X326378D01*
Y553894D01*
X383858Y545945D02*
X398170D01*
X383858Y527539D02*
Y543189D01*
X375689Y519370D02*
X383858Y527539D01*
Y543189D02*
Y558150D01*
X382283Y559724D02*
X383858Y558150D01*
X260531Y521634D02*
Y536988D01*
X266043Y542500D01*
X275492D01*
X260531Y521634D02*
X263386Y518780D01*
X270866D01*
X271457Y519370D01*
X303445D01*
X311614Y527539D02*
Y543189D01*
X303445Y519370D02*
X311614Y527539D01*
Y543189D02*
Y558150D01*
X310039Y559724D02*
X311614Y558150D01*
X292717Y559724D02*
X310039D01*
X75984D02*
X93307D01*
X94882Y558150D01*
Y543189D02*
Y558150D01*
X86713Y519370D02*
X94882Y527539D01*
Y543189D01*
X54724Y519370D02*
X86713D01*
X54134Y518780D02*
X54724Y519370D01*
X46654Y518780D02*
X54134D01*
X43799Y521634D02*
X46654Y518780D01*
X49311Y542500D02*
X58760D01*
X43799Y536988D02*
X49311Y542500D01*
X43799Y521634D02*
Y536988D01*
X25494Y554194D02*
X70472D01*
X94882D02*
X142717D01*
X116043Y521634D02*
Y536988D01*
X121555Y542500D01*
X131004D01*
X116043Y521634D02*
X118898Y518780D01*
X126378D01*
X126969Y519370D01*
X158957D01*
X167126Y527539D02*
Y543189D01*
X158957Y519370D02*
X167126Y527539D01*
Y543189D02*
Y558150D01*
X165551Y559724D02*
X167126Y558150D01*
X148228Y559724D02*
X165551D01*
X220472D02*
X237795D01*
X239370Y558150D01*
Y543189D02*
Y558150D01*
X231201Y519370D02*
X239370Y527539D01*
Y543189D01*
X199213Y519370D02*
X231201D01*
X198622Y518780D02*
X199213Y519370D01*
X191142Y518780D02*
X198622D01*
X188287Y521634D02*
X191142Y518780D01*
X193799Y542500D02*
X203248D01*
X188287Y536988D02*
X193799Y542500D01*
X188287Y521634D02*
Y536988D01*
X326378Y546240D02*
Y559724D01*
X367913Y519370D02*
X375689D01*
X364665Y522618D02*
X367913Y519370D01*
X347244Y522618D02*
X364665D01*
X346063Y521437D02*
X347244Y522618D01*
X332972Y521437D02*
X346063D01*
X64764Y548504D02*
Y554194D01*
X70472D02*
Y554213D01*
X58760Y542500D02*
X64764Y548504D01*
X70472Y554213D02*
X75984Y559724D01*
X142717Y554213D02*
X148228Y559724D01*
X131004Y542500D02*
X137008Y548504D01*
Y554194D01*
X203248Y542500D02*
X209252Y548504D01*
Y553894D01*
X214642D02*
X220472Y559724D01*
X167126Y553894D02*
X214642D01*
X275492Y542500D02*
X281496Y548504D01*
Y553894D01*
X286886D02*
X292717Y559724D01*
X239370Y553894D02*
X286886D01*
G54D113*
X13287Y13287D02*
D03*
X447319Y13583D02*
D03*
X446610Y848283D02*
D03*
X13287Y847175D02*
D03*
G54D114*
X38386Y212205D02*
D03*
Y180709D02*
D03*
Y617205D02*
D03*
Y585709D02*
D03*
G54D115*
X420394Y40394D02*
D03*
X40394D02*
D03*
X420394Y415394D02*
D03*
X40394D02*
D03*
X420394Y445394D02*
D03*
X40394D02*
D03*
X420394Y820394D02*
D03*
X40394D02*
D03*
G54D117*
X145494Y246894D02*
D03*
Y236894D02*
D03*
X135494Y246894D02*
D03*
Y236894D02*
D03*
X125494Y246894D02*
D03*
Y236894D02*
D03*
X115494Y246894D02*
D03*
Y236894D02*
D03*
X105494Y246894D02*
D03*
Y236894D02*
D03*
X144694Y217394D02*
D03*
Y207394D02*
D03*
X134694Y217394D02*
D03*
Y207394D02*
D03*
X124694Y217394D02*
D03*
Y207394D02*
D03*
X114694Y217394D02*
D03*
Y207394D02*
D03*
X104694Y217394D02*
D03*
X105494Y175994D02*
D03*
X115494Y165994D02*
D03*
Y175994D02*
D03*
X125494Y165994D02*
D03*
Y175994D02*
D03*
X135494Y165994D02*
D03*
Y175994D02*
D03*
X145494Y165994D02*
D03*
Y175994D02*
D03*
X155494Y165994D02*
D03*
Y175994D02*
D03*
X165494Y165994D02*
D03*
Y175994D02*
D03*
X175494Y165994D02*
D03*
Y175994D02*
D03*
X185494Y165994D02*
D03*
Y175994D02*
D03*
X195494Y165994D02*
D03*
Y175994D02*
D03*
X205494Y165994D02*
D03*
Y175994D02*
D03*
X215494Y165994D02*
D03*
Y175994D02*
D03*
X229194Y345694D02*
D03*
X219194D02*
D03*
X209194D02*
D03*
X199194D02*
D03*
X145494Y651894D02*
D03*
Y641894D02*
D03*
X135494Y651894D02*
D03*
Y641894D02*
D03*
X125494Y651894D02*
D03*
Y641894D02*
D03*
X115494Y651894D02*
D03*
Y641894D02*
D03*
X105494Y651894D02*
D03*
Y641894D02*
D03*
X144694Y622394D02*
D03*
Y612394D02*
D03*
X134694Y622394D02*
D03*
Y612394D02*
D03*
X124694Y622394D02*
D03*
Y612394D02*
D03*
X114694Y622394D02*
D03*
Y612394D02*
D03*
X104694Y622394D02*
D03*
X105494Y580994D02*
D03*
X115494Y570994D02*
D03*
Y580994D02*
D03*
X125494Y570994D02*
D03*
Y580994D02*
D03*
X135494Y570994D02*
D03*
Y580994D02*
D03*
X145494Y570994D02*
D03*
Y580994D02*
D03*
X155494Y570994D02*
D03*
Y580994D02*
D03*
X165494Y570994D02*
D03*
Y580994D02*
D03*
X175494Y570994D02*
D03*
Y580994D02*
D03*
X185494Y570994D02*
D03*
Y580994D02*
D03*
X195494Y570994D02*
D03*
Y580994D02*
D03*
X205494Y570994D02*
D03*
Y580994D02*
D03*
X215494Y570994D02*
D03*
Y580994D02*
D03*
X229194Y750694D02*
D03*
X219194D02*
D03*
X209194D02*
D03*
X199194D02*
D03*
G54D118*
X104694Y207394D02*
D03*
X105494Y165994D02*
D03*
X229194Y355694D02*
D03*
X219194D02*
D03*
X209194D02*
D03*
X199194D02*
D03*
X104694Y612394D02*
D03*
X105494Y570994D02*
D03*
X229194Y760694D02*
D03*
X219194D02*
D03*
X209194D02*
D03*
X199194D02*
D03*
G54D119*
X417194Y80894D02*
D03*
X301094Y256294D02*
D03*
X342144D02*
D03*
X383194D02*
D03*
X281094Y280294D02*
D03*
X363194D02*
D03*
X322144D02*
D03*
X47794Y379894D02*
D03*
X417194Y485894D02*
D03*
X301094Y661294D02*
D03*
X342144D02*
D03*
X383194D02*
D03*
X281094Y685294D02*
D03*
X363194D02*
D03*
X322144D02*
D03*
X47794Y784894D02*
D03*
G54D120*
X391894Y170894D02*
D03*
X351894D02*
D03*
X361894D02*
D03*
X371894D02*
D03*
X381894D02*
D03*
X417194Y70894D02*
D03*
Y90894D02*
D03*
Y100894D02*
D03*
X33994Y347794D02*
D03*
Y329994D02*
D03*
X70894Y39894D02*
D03*
X80894D02*
D03*
X90894D02*
D03*
X100894D02*
D03*
X160894D02*
D03*
X150894D02*
D03*
X140894D02*
D03*
X130894D02*
D03*
X271394D02*
D03*
X261394D02*
D03*
X251394D02*
D03*
X241394D02*
D03*
X220394D02*
D03*
X210394D02*
D03*
X200394D02*
D03*
X190394D02*
D03*
X330394D02*
D03*
X320394D02*
D03*
X310394D02*
D03*
X300394D02*
D03*
X389894D02*
D03*
X379894D02*
D03*
X369894D02*
D03*
X359894D02*
D03*
X281094Y256294D02*
D03*
X291094D02*
D03*
X332144D02*
D03*
X322144D02*
D03*
X363194D02*
D03*
X373194D02*
D03*
X291094Y280294D02*
D03*
X301094D02*
D03*
X383194D02*
D03*
X373194D02*
D03*
X332144D02*
D03*
X342144D02*
D03*
X328394Y211694D02*
D03*
X318394D02*
D03*
X286694D02*
D03*
X296694D02*
D03*
X37794Y379894D02*
D03*
X349894Y211694D02*
D03*
X359894D02*
D03*
X391194D02*
D03*
X381194D02*
D03*
X391894Y575894D02*
D03*
X351894D02*
D03*
X361894D02*
D03*
X371894D02*
D03*
X381894D02*
D03*
X417194Y475894D02*
D03*
Y495894D02*
D03*
Y505894D02*
D03*
X33994Y752794D02*
D03*
Y734994D02*
D03*
X70894Y444894D02*
D03*
X80894D02*
D03*
X90894D02*
D03*
X100894D02*
D03*
X160894D02*
D03*
X150894D02*
D03*
X140894D02*
D03*
X130894D02*
D03*
X271394D02*
D03*
X261394D02*
D03*
X251394D02*
D03*
X241394D02*
D03*
X220394D02*
D03*
X210394D02*
D03*
X200394D02*
D03*
X190394D02*
D03*
X330394D02*
D03*
X320394D02*
D03*
X310394D02*
D03*
X300394D02*
D03*
X389894D02*
D03*
X379894D02*
D03*
X369894D02*
D03*
X359894D02*
D03*
X281094Y661294D02*
D03*
X291094D02*
D03*
X332144D02*
D03*
X322144D02*
D03*
X363194D02*
D03*
X373194D02*
D03*
X291094Y685294D02*
D03*
X301094D02*
D03*
X383194D02*
D03*
X373194D02*
D03*
X332144D02*
D03*
X342144D02*
D03*
X328394Y616694D02*
D03*
X318394D02*
D03*
X286694D02*
D03*
X296694D02*
D03*
X37794Y784894D02*
D03*
X349894Y616694D02*
D03*
X359894D02*
D03*
X391194D02*
D03*
X381194D02*
D03*
G54D121*
X402457Y363642D02*
D03*
Y323642D02*
D03*
Y283642D02*
D03*
Y263642D02*
D03*
X253394Y410594D02*
D03*
X233394D02*
D03*
X213394D02*
D03*
X193394D02*
D03*
X173394D02*
D03*
X153394D02*
D03*
X133394D02*
D03*
X113394D02*
D03*
X93394D02*
D03*
X73394D02*
D03*
X402457Y768642D02*
D03*
Y728642D02*
D03*
Y688642D02*
D03*
Y668642D02*
D03*
X253394Y815594D02*
D03*
X233394D02*
D03*
X213394D02*
D03*
X193394D02*
D03*
X173394D02*
D03*
X153394D02*
D03*
X133394D02*
D03*
X113394D02*
D03*
X93394D02*
D03*
X73394D02*
D03*
G54D122*
X402457Y343642D02*
D03*
Y303642D02*
D03*
Y748642D02*
D03*
Y708642D02*
D03*
G54D123*
X423826Y175272D02*
D03*
X410426D02*
D03*
Y228272D02*
D03*
X423826D02*
D03*
X383894Y363794D02*
D03*
X370494D02*
D03*
X423826Y580272D02*
D03*
X410426D02*
D03*
Y633272D02*
D03*
X423826D02*
D03*
X383894Y768794D02*
D03*
X370494D02*
D03*
G54D124*
X43794Y352694D02*
D03*
Y325094D02*
D03*
Y757694D02*
D03*
Y730094D02*
D03*
G54D125*
X68994Y250394D02*
D03*
Y260315D02*
D03*
X61094D02*
D03*
Y250394D02*
D03*
X68994Y655394D02*
D03*
Y665315D02*
D03*
X61094D02*
D03*
Y655394D02*
D03*
G54D128*
X50394Y279016D02*
D03*
Y231694D02*
D03*
Y684016D02*
D03*
Y636694D02*
D03*
G54D129*
X38438Y144959D02*
D03*
X62294Y335894D02*
D03*
X240894Y169694D02*
D03*
X38438Y549959D02*
D03*
X62294Y740894D02*
D03*
X240894Y574694D02*
D03*
G54D130*
X420394Y30394D02*
D03*
Y50394D02*
D03*
X430394Y40394D02*
D03*
X410394D02*
D03*
X413394Y47394D02*
D03*
X427394D02*
D03*
Y33394D02*
D03*
X413394D02*
D03*
X40394Y30394D02*
D03*
Y50394D02*
D03*
X50394Y40394D02*
D03*
X30394D02*
D03*
X33394Y47394D02*
D03*
X47394D02*
D03*
Y33394D02*
D03*
X33394D02*
D03*
X420394Y405394D02*
D03*
Y425394D02*
D03*
X430394Y415394D02*
D03*
X410394D02*
D03*
X413394Y422394D02*
D03*
X427394D02*
D03*
Y408394D02*
D03*
X413394D02*
D03*
X40394Y405394D02*
D03*
Y425394D02*
D03*
X50394Y415394D02*
D03*
X30394D02*
D03*
X33394Y422394D02*
D03*
X47394D02*
D03*
Y408394D02*
D03*
X33394D02*
D03*
X225197Y146653D02*
D03*
X297539Y148228D02*
D03*
X73524Y306004D02*
D03*
X76968Y321063D02*
D03*
X179724Y349902D02*
D03*
X255020Y328543D02*
D03*
X292224Y299410D02*
D03*
X285335Y292815D02*
D03*
X331988Y296457D02*
D03*
X383661Y296358D02*
D03*
X427756Y295866D02*
D03*
X417618Y326083D02*
D03*
X409350Y388189D02*
D03*
X383071Y383465D02*
D03*
X398425Y378051D02*
D03*
X401968Y395669D02*
D03*
X162303Y203543D02*
D03*
X52165Y215551D02*
D03*
X53248Y173622D02*
D03*
X65059Y197343D02*
D03*
X38189Y197539D02*
D03*
X266634Y345866D02*
D03*
X427559Y131595D02*
D03*
X424311D02*
D03*
X427559Y120965D02*
D03*
X91240Y203346D02*
D03*
X86417Y207283D02*
D03*
X69587Y210039D02*
D03*
X74606Y203346D02*
D03*
Y214370D02*
D03*
X83169Y222342D02*
D03*
X390354Y155905D02*
D03*
X387162D02*
D03*
X403543Y151040D02*
D03*
Y154232D02*
D03*
X367913Y63878D02*
D03*
X349508Y59557D02*
D03*
X399311Y138681D02*
D03*
X320374Y65059D02*
D03*
X318526Y70866D02*
D03*
Y73819D02*
D03*
X328937Y53150D02*
D03*
Y56102D02*
D03*
X298031Y72244D02*
D03*
X300197Y70079D02*
D03*
X320374Y62106D02*
D03*
X195965Y88681D02*
D03*
X183169D02*
D03*
X204626Y93799D02*
D03*
Y90256D02*
D03*
Y86713D02*
D03*
Y83169D02*
D03*
X132382Y93799D02*
D03*
Y90256D02*
D03*
Y86713D02*
D03*
Y83169D02*
D03*
X60138Y93799D02*
D03*
Y90256D02*
D03*
Y86713D02*
D03*
Y83169D02*
D03*
X276870D02*
D03*
Y86713D02*
D03*
Y90256D02*
D03*
X323130Y103347D02*
D03*
X387787Y149587D02*
D03*
Y146087D02*
D03*
X384787Y151087D02*
D03*
Y144687D02*
D03*
X312543D02*
D03*
Y151087D02*
D03*
X315543Y146087D02*
D03*
Y149587D02*
D03*
X368898Y120472D02*
D03*
X38681Y91732D02*
D03*
X40846Y116929D02*
D03*
X40748Y120571D02*
D03*
Y124016D02*
D03*
X70965Y88484D02*
D03*
Y91929D02*
D03*
X106890Y153347D02*
D03*
X79921Y120472D02*
D03*
X44488Y123622D02*
D03*
X289894Y318894D02*
D03*
Y321994D02*
D03*
X274894Y318894D02*
D03*
X287123Y317313D02*
D03*
Y323513D02*
D03*
X260394Y203894D02*
D03*
X235894Y209994D02*
D03*
X244794Y210594D02*
D03*
X370769Y232728D02*
D03*
X65562Y310314D02*
D03*
X149920Y186805D02*
D03*
X146349Y189375D02*
D03*
X241037Y305749D02*
D03*
X203145Y270827D02*
D03*
X208876Y248067D02*
D03*
X202067Y237992D02*
D03*
X217514Y238372D02*
D03*
X192323Y238090D02*
D03*
Y223228D02*
D03*
X202756Y211319D02*
D03*
X413535Y217955D02*
D03*
X420108Y264120D02*
D03*
X418021Y343531D02*
D03*
X384056Y330839D02*
D03*
X384772Y345596D02*
D03*
X362305Y337272D02*
D03*
X371315Y324205D02*
D03*
X344335Y324236D02*
D03*
X360695Y353028D02*
D03*
X339743Y337295D02*
D03*
X326055Y339741D02*
D03*
X302888Y337855D02*
D03*
X327276Y353949D02*
D03*
X300969Y365366D02*
D03*
X325549Y371160D02*
D03*
X319933Y386902D02*
D03*
X298520Y407175D02*
D03*
X300261Y387520D02*
D03*
X281602Y389137D02*
D03*
X284339Y407050D02*
D03*
X264560Y397845D02*
D03*
X264441Y422006D02*
D03*
X243399Y422056D02*
D03*
X223780D02*
D03*
X183189Y422552D02*
D03*
X203547Y422272D02*
D03*
X143282Y421991D02*
D03*
X163393Y422307D02*
D03*
X123109Y422105D02*
D03*
X102703Y421765D02*
D03*
X83399Y422230D02*
D03*
X58659Y421201D02*
D03*
X35800Y362476D02*
D03*
X425542Y373075D02*
D03*
X408214Y249175D02*
D03*
X395347Y256811D02*
D03*
X397808Y240643D02*
D03*
Y227532D02*
D03*
X381704Y239385D02*
D03*
X379204Y227489D02*
D03*
X383188Y268319D02*
D03*
X340290Y232890D02*
D03*
X342452Y244058D02*
D03*
X304365Y247445D02*
D03*
X356137Y268086D02*
D03*
X311783Y280005D02*
D03*
X245522Y303796D02*
D03*
X227932Y311229D02*
D03*
X253147Y311101D02*
D03*
X165442Y337061D02*
D03*
X54119Y373217D02*
D03*
X36033Y391077D02*
D03*
X48410Y343743D02*
D03*
X88300Y341193D02*
D03*
X107837Y332002D02*
D03*
X53907Y312378D02*
D03*
X36187Y299026D02*
D03*
X138747Y171053D02*
D03*
X120669Y332677D02*
D03*
X151838Y331899D02*
D03*
X144121Y325384D02*
D03*
X153959Y309954D02*
D03*
X148475Y290016D02*
D03*
X148741Y273996D02*
D03*
X170671Y289921D02*
D03*
X176798Y284802D02*
D03*
X203145Y260133D02*
D03*
X193249Y260721D02*
D03*
X183645Y265523D02*
D03*
X203203Y247832D02*
D03*
X193180Y247890D02*
D03*
X184648Y247701D02*
D03*
X218775Y258212D02*
D03*
X211052Y256015D02*
D03*
X242007Y252261D02*
D03*
X234176Y255031D02*
D03*
X225516Y245743D02*
D03*
X202067Y231102D02*
D03*
X211122Y230807D02*
D03*
X192323Y231004D02*
D03*
X217683Y226236D02*
D03*
X224307Y232716D02*
D03*
X202070Y223668D02*
D03*
X211011Y219517D02*
D03*
X307678Y211336D02*
D03*
X338607Y213588D02*
D03*
X350569Y191707D02*
D03*
X390563Y196924D02*
D03*
X398859Y184354D02*
D03*
X375941Y179500D02*
D03*
X420403Y211536D02*
D03*
X407432Y212036D02*
D03*
X407046Y197355D02*
D03*
X422788Y197672D02*
D03*
X424872Y63430D02*
D03*
X62840Y397640D02*
D03*
X183194Y301794D02*
D03*
X164694Y197194D02*
D03*
X76148Y342577D02*
D03*
X204813Y368795D02*
D03*
X90043Y350358D02*
D03*
X129894Y350494D02*
D03*
X169994Y350566D02*
D03*
X236760Y325489D02*
D03*
X258136Y349276D02*
D03*
X189795Y347377D02*
D03*
X227894Y325094D02*
D03*
X292582Y268397D02*
D03*
X348266Y235282D02*
D03*
X223688Y265330D02*
D03*
X216862Y265291D02*
D03*
X208992Y275785D02*
D03*
X197441Y267110D02*
D03*
X102092Y315571D02*
D03*
X102050Y319744D02*
D03*
X103619Y273026D02*
D03*
X103757Y265096D02*
D03*
X93294Y256194D02*
D03*
X77743Y306772D02*
D03*
X72047Y301181D02*
D03*
X66536Y295718D02*
D03*
X58866Y293462D02*
D03*
X50552Y293397D02*
D03*
X35663Y285599D02*
D03*
X35728Y277027D02*
D03*
X35643Y268255D02*
D03*
Y259220D02*
D03*
X35715Y249824D02*
D03*
X35860Y240645D02*
D03*
X74823Y236277D02*
D03*
X68254Y231882D02*
D03*
X60284Y232075D02*
D03*
X35746Y232220D02*
D03*
X91692Y243860D02*
D03*
X155721Y230329D02*
D03*
X93122Y331545D02*
D03*
X96943Y331462D02*
D03*
X149392Y346990D02*
D03*
X225138Y362056D02*
D03*
X227951Y334053D02*
D03*
X198418Y322341D02*
D03*
X198398Y325821D02*
D03*
X198378Y329419D02*
D03*
X234888Y315249D02*
D03*
X255594Y305394D02*
D03*
Y300494D02*
D03*
X277794Y320494D02*
D03*
X287094Y320394D02*
D03*
X287694Y313794D02*
D03*
X349094Y394194D02*
D03*
Y390794D02*
D03*
Y387294D02*
D03*
Y383994D02*
D03*
X348170Y396886D02*
D03*
X339173Y167717D02*
D03*
X175292Y310684D02*
D03*
X183558Y307943D02*
D03*
X194608Y317053D02*
D03*
X194018Y325530D02*
D03*
X175925Y325741D02*
D03*
X171032Y307774D02*
D03*
X148068Y304716D02*
D03*
X159139Y316631D02*
D03*
X159210Y325607D02*
D03*
X98710Y216836D02*
D03*
X139076Y222738D02*
D03*
X120942Y187684D02*
D03*
X141603Y263587D02*
D03*
X99139Y187981D02*
D03*
X188189Y151279D02*
D03*
X231694Y206594D02*
D03*
Y210094D02*
D03*
X214128Y192469D02*
D03*
X215080Y295060D02*
D03*
X361811Y151772D02*
D03*
X216834Y268776D02*
D03*
X208865Y268887D02*
D03*
X221298Y317268D02*
D03*
X216272Y317189D02*
D03*
X211256Y317219D02*
D03*
X206319Y317219D02*
D03*
X201294Y317194D02*
D03*
X163926Y322479D02*
D03*
X188691Y312240D02*
D03*
X234327Y268801D02*
D03*
X197143Y275909D02*
D03*
X208901Y272351D02*
D03*
X153315Y240188D02*
D03*
X166374Y240017D02*
D03*
X178527Y247683D02*
D03*
X178913Y233087D02*
D03*
X189357Y234161D02*
D03*
X295994Y197891D02*
D03*
X288194Y195294D02*
D03*
X408094Y100894D02*
D03*
X410094Y98394D02*
D03*
X410194Y103394D02*
D03*
X424194Y98394D02*
D03*
X424294Y103394D02*
D03*
X426294Y100894D02*
D03*
X408094Y90894D02*
D03*
X410094Y88394D02*
D03*
X410194Y93394D02*
D03*
X424194Y88394D02*
D03*
X424294Y93394D02*
D03*
X426294Y90894D02*
D03*
X408094Y70894D02*
D03*
X410094Y68394D02*
D03*
X410194Y73394D02*
D03*
X424194Y68394D02*
D03*
X424294Y73394D02*
D03*
X426294Y70894D02*
D03*
X422374Y159946D02*
D03*
X424974Y154846D02*
D03*
Y158046D02*
D03*
Y151646D02*
D03*
Y148446D02*
D03*
X425874Y145146D02*
D03*
Y141846D02*
D03*
X424774Y138746D02*
D03*
X421574D02*
D03*
X229594Y392194D02*
D03*
X58144Y375544D02*
D03*
X57294Y361420D02*
D03*
X45394Y394094D02*
D03*
X200594Y379094D02*
D03*
X199257Y369657D02*
D03*
X218572Y373434D02*
D03*
X105571Y364370D02*
D03*
X100553Y345868D02*
D03*
X114042Y350606D02*
D03*
X189825Y340224D02*
D03*
X186257Y340247D02*
D03*
X82494Y355094D02*
D03*
X77594D02*
D03*
X72603Y355134D02*
D03*
X81594Y350594D02*
D03*
X85594D02*
D03*
X77594D02*
D03*
X125847Y350590D02*
D03*
X119941D02*
D03*
X166102Y350689D02*
D03*
X160197D02*
D03*
X163150D02*
D03*
X142874Y351969D02*
D03*
X102717Y351870D02*
D03*
X154291Y350689D02*
D03*
X157244D02*
D03*
X185813Y354494D02*
D03*
X145925Y364469D02*
D03*
X230794Y159694D02*
D03*
X324902Y168307D02*
D03*
X44294Y290394D02*
D03*
X417052Y395457D02*
D03*
X418945Y380060D02*
D03*
Y384060D02*
D03*
X414145Y389960D02*
D03*
X425394Y242994D02*
D03*
X429394Y389994D02*
D03*
Y384094D02*
D03*
Y380094D02*
D03*
X149194Y387794D02*
D03*
X109294Y387594D02*
D03*
X184444Y381294D02*
D03*
X149094Y379094D02*
D03*
Y369994D02*
D03*
X108994D02*
D03*
Y379094D02*
D03*
X144344Y381294D02*
D03*
X73094Y381494D02*
D03*
X296494Y421494D02*
D03*
X66994Y382794D02*
D03*
X110594Y394294D02*
D03*
X150094Y394094D02*
D03*
X296494Y414194D02*
D03*
X104494Y381294D02*
D03*
X283294Y368294D02*
D03*
Y373694D02*
D03*
X269882Y333563D02*
D03*
Y345866D02*
D03*
X273130D02*
D03*
X273294Y349894D02*
D03*
X266094Y349994D02*
D03*
X263194D02*
D03*
X277794Y323594D02*
D03*
X286989Y307975D02*
D03*
X299494Y307594D02*
D03*
X310694Y299494D02*
D03*
Y303694D02*
D03*
X299494Y303594D02*
D03*
Y298794D02*
D03*
X286094Y359594D02*
D03*
X326394Y323494D02*
D03*
X299994Y422194D02*
D03*
X300194Y414194D02*
D03*
X321694Y414094D02*
D03*
X318194Y413994D02*
D03*
Y418194D02*
D03*
X318094Y422494D02*
D03*
X308694Y417994D02*
D03*
Y422194D02*
D03*
Y414094D02*
D03*
X293194Y421494D02*
D03*
X293094Y417794D02*
D03*
X293194Y414194D02*
D03*
X275894Y421794D02*
D03*
X421594Y242994D02*
D03*
X283738Y202062D02*
D03*
X214094Y188894D02*
D03*
X232633Y184224D02*
D03*
X86694Y301994D02*
D03*
X90194Y308094D02*
D03*
X143958Y304675D02*
D03*
X410994Y61594D02*
D03*
X189513Y367394D02*
D03*
X29894Y339294D02*
D03*
X216929Y152953D02*
D03*
X182981Y209887D02*
D03*
X248500Y227301D02*
D03*
X261532Y254679D02*
D03*
X265111Y261527D02*
D03*
X224094Y292294D02*
D03*
X231894Y295094D02*
D03*
X344685Y185138D02*
D03*
X216833Y272334D02*
D03*
X223680Y272347D02*
D03*
X327494Y164494D02*
D03*
X261523Y261546D02*
D03*
X181883Y214899D02*
D03*
X178294Y214894D02*
D03*
X248507Y214010D02*
D03*
X244816Y213997D02*
D03*
X158294Y274694D02*
D03*
X328894Y170494D02*
D03*
X164294Y264194D02*
D03*
X158294Y270894D02*
D03*
X178394Y270616D02*
D03*
X407087Y237992D02*
D03*
X421457D02*
D03*
X414894Y242894D02*
D03*
X406394D02*
D03*
X425394Y219094D02*
D03*
X405894Y219394D02*
D03*
X414370Y237894D02*
D03*
X417421Y219193D02*
D03*
X327490Y417520D02*
D03*
X248094Y346994D02*
D03*
X122894Y350590D02*
D03*
X73594Y350594D02*
D03*
X162594Y354994D02*
D03*
X122294Y355194D02*
D03*
X237294Y342494D02*
D03*
X249454D02*
D03*
X117394Y355094D02*
D03*
X116988Y350590D02*
D03*
X157294Y355094D02*
D03*
X360175Y399588D02*
D03*
X339725Y401036D02*
D03*
X30594Y354294D02*
D03*
X394594Y413394D02*
D03*
X240334Y342494D02*
D03*
X237294Y345394D02*
D03*
X93394Y276994D02*
D03*
X252494Y342494D02*
D03*
X242894Y346994D02*
D03*
X243374Y342494D02*
D03*
X425984Y118394D02*
D03*
X424409Y120994D02*
D03*
X429200Y118494D02*
D03*
X425984Y133994D02*
D03*
X429200D02*
D03*
X263194Y345869D02*
D03*
Y341744D02*
D03*
X377953Y413091D02*
D03*
X223668Y268824D02*
D03*
X159394Y266994D02*
D03*
X331794Y388594D02*
D03*
X345817Y419636D02*
D03*
X416831Y228445D02*
D03*
X425394Y238094D02*
D03*
X30594Y358594D02*
D03*
X38681Y88681D02*
D03*
X51476Y91732D02*
D03*
Y88681D02*
D03*
X97146Y88779D02*
D03*
Y91831D02*
D03*
X246414Y342494D02*
D03*
X237294Y348294D02*
D03*
X189613Y354394D02*
D03*
X197145Y272340D02*
D03*
X187296Y272361D02*
D03*
X187285Y268770D02*
D03*
X160064Y260470D02*
D03*
X156530Y260477D02*
D03*
X137917Y263795D02*
D03*
X318110Y170768D02*
D03*
X153098Y219196D02*
D03*
X245887Y267774D02*
D03*
X241268Y275444D02*
D03*
X234420Y272336D02*
D03*
X189694Y205494D02*
D03*
Y209194D02*
D03*
X198095Y205480D02*
D03*
X198092Y209146D02*
D03*
X110775Y233248D02*
D03*
X86399Y330081D02*
D03*
X86336Y326654D02*
D03*
X30194Y291594D02*
D03*
X66794Y285675D02*
D03*
X66994Y289375D02*
D03*
X67294Y281975D02*
D03*
X136951Y273779D02*
D03*
X90494Y311894D02*
D03*
X136694Y268894D02*
D03*
X136793Y319493D02*
D03*
X150831Y320379D02*
D03*
X84445Y313574D02*
D03*
X78591Y241494D02*
D03*
X195494Y306794D02*
D03*
X191094Y293094D02*
D03*
X119494Y325294D02*
D03*
X74594Y285675D02*
D03*
X414241Y386156D02*
D03*
X325451Y171941D02*
D03*
X258050Y278243D02*
D03*
X265957Y293419D02*
D03*
X268504Y290846D02*
D03*
X271358Y287894D02*
D03*
X273228Y293504D02*
D03*
X267598Y259027D02*
D03*
X267294Y250194D02*
D03*
X264688Y239381D02*
D03*
X266694Y244594D02*
D03*
X275295Y297933D02*
D03*
X272367Y314533D02*
D03*
X267433Y314778D02*
D03*
X264382Y316845D02*
D03*
X262019Y296864D02*
D03*
X97720Y191664D02*
D03*
X422700Y133994D02*
D03*
Y118394D02*
D03*
X213779Y326476D02*
D03*
X230094Y361994D02*
D03*
X189811Y343667D02*
D03*
X101494Y342198D02*
D03*
X109400Y347045D02*
D03*
X263194Y337619D02*
D03*
X263287Y333563D02*
D03*
X266535D02*
D03*
X227917Y328570D02*
D03*
X274894Y321994D02*
D03*
X271594Y327194D02*
D03*
X273228Y333563D02*
D03*
X262402Y323327D02*
D03*
X238668Y315269D02*
D03*
X328694Y314394D02*
D03*
X316994Y296894D02*
D03*
X370594Y373694D02*
D03*
X377494Y373894D02*
D03*
X384394Y373794D02*
D03*
X377292Y353961D02*
D03*
X391194Y356594D02*
D03*
X370794Y353994D02*
D03*
X377292Y363245D02*
D03*
X377294Y357994D02*
D03*
X375594Y350294D02*
D03*
X390894Y372094D02*
D03*
X390994Y363594D02*
D03*
X368494Y345294D02*
D03*
X402394Y369694D02*
D03*
X405094Y371994D02*
D03*
X398494Y371694D02*
D03*
X402494Y357794D02*
D03*
X399094Y356994D02*
D03*
X406194Y356694D02*
D03*
X413094Y363694D02*
D03*
X410694Y357394D02*
D03*
X414394Y356994D02*
D03*
X416294Y360894D02*
D03*
X412694Y360194D02*
D03*
X402394Y317194D02*
D03*
X394094Y317394D02*
D03*
X397794Y316994D02*
D03*
X407694D02*
D03*
X397394Y330294D02*
D03*
X402394D02*
D03*
X410194Y330194D02*
D03*
X412809Y327215D02*
D03*
X406480Y330352D02*
D03*
X411913Y317861D02*
D03*
X413094Y323694D02*
D03*
X394394Y277994D02*
D03*
X394294Y274094D02*
D03*
X398994Y273994D02*
D03*
X402494Y277494D02*
D03*
X412894Y280194D02*
D03*
X412594Y286494D02*
D03*
X417694Y286594D02*
D03*
X417594Y279894D02*
D03*
X403294Y256194D02*
D03*
X404394Y271094D02*
D03*
X409994Y270994D02*
D03*
X413694Y263594D02*
D03*
X409094Y256294D02*
D03*
X412794Y258894D02*
D03*
X413194Y268294D02*
D03*
X407394Y274594D02*
D03*
X420694Y274694D02*
D03*
X424294Y270794D02*
D03*
X125984Y153347D02*
D03*
X98810Y149587D02*
D03*
Y146087D02*
D03*
X95810Y151087D02*
D03*
Y144687D02*
D03*
X304697Y187618D02*
D03*
X315894Y196378D02*
D03*
X323705Y182364D02*
D03*
X323671Y186201D02*
D03*
X334783Y195467D02*
D03*
X366437Y192421D02*
D03*
X379645Y189456D02*
D03*
X288352Y241488D02*
D03*
X282184Y227484D02*
D03*
X290193Y233045D02*
D03*
X304921Y235728D02*
D03*
X304904Y231154D02*
D03*
X311630Y227352D02*
D03*
X320713Y233424D02*
D03*
X323701Y227364D02*
D03*
X333001Y233054D02*
D03*
X358348Y232883D02*
D03*
X178191Y260773D02*
D03*
X241294Y271894D02*
D03*
X157917Y225461D02*
D03*
X304694Y183794D02*
D03*
X288094Y185294D02*
D03*
X245894Y260894D02*
D03*
X244806Y227289D02*
D03*
X241113Y235232D02*
D03*
X181413Y193051D02*
D03*
X238583Y186701D02*
D03*
X248725Y185358D02*
D03*
X256155Y194152D02*
D03*
X255100Y182637D02*
D03*
X258933Y182623D02*
D03*
X96300Y195055D02*
D03*
X224394Y158694D02*
D03*
X260471Y173959D02*
D03*
X317194Y175994D02*
D03*
X232684Y187732D02*
D03*
X238556Y191426D02*
D03*
X244814Y220493D02*
D03*
X248506Y220471D02*
D03*
X241102Y227127D02*
D03*
X265084Y254668D02*
D03*
X132125Y153439D02*
D03*
X354130Y186007D02*
D03*
X179294Y209894D02*
D03*
X187343Y193107D02*
D03*
X181487Y190227D02*
D03*
X237426Y245158D02*
D03*
X210017Y291930D02*
D03*
X108194Y224794D02*
D03*
X122672Y229841D02*
D03*
X102708Y188468D02*
D03*
X133994Y222894D02*
D03*
X129715Y219777D02*
D03*
X119313Y257574D02*
D03*
X123294Y257194D02*
D03*
X130606Y250633D02*
D03*
X152566Y252390D02*
D03*
X153194Y243794D02*
D03*
X149999Y232048D02*
D03*
X138926Y230766D02*
D03*
X234319Y265287D02*
D03*
X241139Y241168D02*
D03*
X237416Y235223D02*
D03*
X231850Y298371D02*
D03*
X151107Y237971D02*
D03*
X154877Y225455D02*
D03*
X261608Y223165D02*
D03*
X263601Y221158D02*
D03*
X76990Y325042D02*
D03*
X77042Y328883D02*
D03*
X77187Y332827D02*
D03*
X34471Y320576D02*
D03*
X43287Y315495D02*
D03*
X43433Y309305D02*
D03*
X43393Y303222D02*
D03*
X85508Y250659D02*
D03*
X85009Y245659D02*
D03*
X53162Y318071D02*
D03*
X47961Y300633D02*
D03*
X53355Y298380D02*
D03*
X60441Y300035D02*
D03*
X174322Y296949D02*
D03*
X101277Y194222D02*
D03*
X110793Y195356D02*
D03*
X107345Y195285D02*
D03*
X241585Y263720D02*
D03*
X231752Y241132D02*
D03*
X352569Y251315D02*
D03*
X237426Y226599D02*
D03*
X245794Y205494D02*
D03*
X195768Y215846D02*
D03*
X185563Y214887D02*
D03*
X185586Y232433D02*
D03*
X240551Y290452D02*
D03*
X292635Y241438D02*
D03*
X257618Y175905D02*
D03*
X375420Y162783D02*
D03*
X321253Y167376D02*
D03*
X208394Y184594D02*
D03*
X126041Y230631D02*
D03*
X107681Y231480D02*
D03*
X115808Y257859D02*
D03*
X170773Y296933D02*
D03*
X193124Y309593D02*
D03*
X29382Y144959D02*
D03*
X47493D02*
D03*
X38438Y154014D02*
D03*
Y135904D02*
D03*
X62294Y326839D02*
D03*
Y344949D02*
D03*
X71349Y335894D02*
D03*
X53239D02*
D03*
X231839Y169694D02*
D03*
X249949D02*
D03*
X240894Y178749D02*
D03*
Y160639D02*
D03*
X266437Y301279D02*
D03*
Y305610D02*
D03*
X270768Y301279D02*
D03*
Y305610D02*
D03*
X425133Y205664D02*
D03*
X300204Y196283D02*
D03*
X429994Y210594D02*
D03*
X84153Y103740D02*
D03*
X87106Y109646D02*
D03*
X84153D02*
D03*
X87106Y103740D02*
D03*
X37697Y106299D02*
D03*
X40650D02*
D03*
X51802Y103701D02*
D03*
X48850D02*
D03*
X73425Y94587D02*
D03*
X62402Y121161D02*
D03*
X67618Y121457D02*
D03*
X84350Y91142D02*
D03*
Y88287D02*
D03*
X44390Y120079D02*
D03*
Y117028D02*
D03*
X65847Y134252D02*
D03*
Y138386D02*
D03*
X138091D02*
D03*
Y134252D02*
D03*
X116634Y117421D02*
D03*
Y120472D02*
D03*
X156693Y88386D02*
D03*
X156693Y91240D02*
D03*
X139862Y121457D02*
D03*
X134646Y121161D02*
D03*
X145669Y94587D02*
D03*
X121094Y103701D02*
D03*
X124046D02*
D03*
X159350Y103740D02*
D03*
X156398Y109646D02*
D03*
X159350D02*
D03*
X156398Y103740D02*
D03*
X169390Y91831D02*
D03*
Y88779D02*
D03*
X123721Y88681D02*
D03*
Y91732D02*
D03*
X110925D02*
D03*
Y88681D02*
D03*
X116831Y124016D02*
D03*
X210335Y138386D02*
D03*
Y134252D02*
D03*
X228839Y88386D02*
D03*
Y91339D02*
D03*
X212106Y121457D02*
D03*
X206890Y121161D02*
D03*
X217913Y94587D02*
D03*
X193338Y103701D02*
D03*
X196291D02*
D03*
X231594Y103740D02*
D03*
X228642Y109646D02*
D03*
X231594D02*
D03*
X228642Y103740D02*
D03*
X241634Y91831D02*
D03*
Y88779D02*
D03*
X195965Y91732D02*
D03*
X183169D02*
D03*
X282579Y138386D02*
D03*
Y134252D02*
D03*
X301181Y88386D02*
D03*
Y91240D02*
D03*
X284350Y121457D02*
D03*
X279134Y121161D02*
D03*
X290158Y94587D02*
D03*
X265582Y103701D02*
D03*
X268535D02*
D03*
X303839Y103740D02*
D03*
X300886Y109646D02*
D03*
X303839D02*
D03*
X300886Y103740D02*
D03*
X313878Y91831D02*
D03*
Y88779D02*
D03*
X268209Y88681D02*
D03*
Y91732D02*
D03*
X255413D02*
D03*
Y88681D02*
D03*
X354823Y138386D02*
D03*
Y134252D02*
D03*
X373425Y88386D02*
D03*
Y91240D02*
D03*
X356594Y121457D02*
D03*
X351378Y121161D02*
D03*
X362402Y94587D02*
D03*
X337826Y103701D02*
D03*
X340779D02*
D03*
X376083Y103740D02*
D03*
X373130Y109646D02*
D03*
X376083D02*
D03*
X373130Y103740D02*
D03*
X386122Y91831D02*
D03*
Y88779D02*
D03*
X340453Y88681D02*
D03*
Y91732D02*
D03*
X327658D02*
D03*
Y88681D02*
D03*
X112992Y123425D02*
D03*
Y119980D02*
D03*
X113091Y116339D02*
D03*
X143209Y91929D02*
D03*
Y88484D02*
D03*
X215453Y91929D02*
D03*
Y88484D02*
D03*
X276870Y93799D02*
D03*
X287697Y91929D02*
D03*
Y88484D02*
D03*
X351279Y82972D02*
D03*
X361614Y90059D02*
D03*
X361024Y86614D02*
D03*
X112894Y106299D02*
D03*
X109941D02*
D03*
X146161Y153347D02*
D03*
X168054Y144687D02*
D03*
Y151087D02*
D03*
X171054Y146087D02*
D03*
Y149587D02*
D03*
X152165Y120472D02*
D03*
X189336Y123976D02*
D03*
X188943Y120433D02*
D03*
Y117382D02*
D03*
X182185Y106299D02*
D03*
X185138D02*
D03*
X185335Y116339D02*
D03*
X185236Y119980D02*
D03*
Y123425D02*
D03*
X224410Y120472D02*
D03*
X261187Y117480D02*
D03*
Y120531D02*
D03*
X261679Y124075D02*
D03*
X257480Y123425D02*
D03*
Y119980D02*
D03*
X257579Y116339D02*
D03*
X254429Y106299D02*
D03*
X257382D02*
D03*
X296654Y120472D02*
D03*
X333431Y120433D02*
D03*
Y117382D02*
D03*
X333858Y123917D02*
D03*
X329823Y116339D02*
D03*
X329724Y119980D02*
D03*
Y123425D02*
D03*
X243299Y149587D02*
D03*
Y146087D02*
D03*
X240299Y151087D02*
D03*
Y144687D02*
D03*
X323130Y106299D02*
D03*
X351246Y90059D02*
D03*
Y93636D02*
D03*
X351279Y86516D02*
D03*
X346063Y151575D02*
D03*
Y148031D02*
D03*
Y144488D02*
D03*
X339665Y162205D02*
D03*
X264370Y131496D02*
D03*
X195571Y132382D02*
D03*
X124508Y131988D02*
D03*
X48622Y127756D02*
D03*
X74606Y184055D02*
D03*
Y188386D02*
D03*
X39961Y166831D02*
D03*
X73032Y167028D02*
D03*
X91732Y217618D02*
D03*
X63287Y154035D02*
D03*
X30512Y223228D02*
D03*
X72736Y223819D02*
D03*
X91535Y210335D02*
D03*
X420394Y435394D02*
D03*
Y455394D02*
D03*
X430394Y445394D02*
D03*
X410394D02*
D03*
X413394Y452394D02*
D03*
X427394D02*
D03*
Y438394D02*
D03*
X413394D02*
D03*
X40394Y435394D02*
D03*
Y455394D02*
D03*
X50394Y445394D02*
D03*
X30394D02*
D03*
X33394Y452394D02*
D03*
X47394D02*
D03*
Y438394D02*
D03*
X33394D02*
D03*
X420394Y810394D02*
D03*
Y830394D02*
D03*
X430394Y820394D02*
D03*
X410394D02*
D03*
X413394Y827394D02*
D03*
X427394D02*
D03*
Y813394D02*
D03*
X413394D02*
D03*
X40394Y810394D02*
D03*
Y830394D02*
D03*
X50394Y820394D02*
D03*
X30394D02*
D03*
X33394Y827394D02*
D03*
X47394D02*
D03*
Y813394D02*
D03*
X33394D02*
D03*
X225197Y551653D02*
D03*
X297539Y553228D02*
D03*
X73524Y711004D02*
D03*
X76968Y726063D02*
D03*
X179724Y754902D02*
D03*
X255020Y733543D02*
D03*
X292224Y704410D02*
D03*
X285335Y697815D02*
D03*
X331988Y701457D02*
D03*
X383661Y701358D02*
D03*
X427756Y700866D02*
D03*
X417618Y731083D02*
D03*
X409350Y793189D02*
D03*
X383071Y788465D02*
D03*
X398425Y783051D02*
D03*
X401968Y800669D02*
D03*
X162303Y608543D02*
D03*
X52165Y620551D02*
D03*
X53248Y578622D02*
D03*
X65059Y602343D02*
D03*
X38189Y602539D02*
D03*
X266634Y750866D02*
D03*
X427559Y536594D02*
D03*
X424311D02*
D03*
X427559Y525965D02*
D03*
X91240Y608347D02*
D03*
X86417Y612284D02*
D03*
X69587Y615039D02*
D03*
X74606Y608347D02*
D03*
Y619370D02*
D03*
X83169Y627343D02*
D03*
X390354Y560906D02*
D03*
X387162D02*
D03*
X403543Y556040D02*
D03*
Y559232D02*
D03*
X367913Y468878D02*
D03*
X349508Y464557D02*
D03*
X399311Y543681D02*
D03*
X320374Y470059D02*
D03*
X318526Y475866D02*
D03*
Y478819D02*
D03*
X328937Y458150D02*
D03*
Y461102D02*
D03*
X298031Y477244D02*
D03*
X300197Y475079D02*
D03*
X320374Y467106D02*
D03*
X195965Y493681D02*
D03*
X183169D02*
D03*
X204626Y498799D02*
D03*
Y495256D02*
D03*
Y491713D02*
D03*
Y488169D02*
D03*
X132382Y498799D02*
D03*
Y495256D02*
D03*
Y491713D02*
D03*
Y488169D02*
D03*
X60138Y498799D02*
D03*
Y495256D02*
D03*
Y491713D02*
D03*
Y488169D02*
D03*
X276870D02*
D03*
Y491713D02*
D03*
Y495256D02*
D03*
X323130Y508347D02*
D03*
X387787Y554587D02*
D03*
Y551087D02*
D03*
X384787Y556087D02*
D03*
Y549687D02*
D03*
X312543D02*
D03*
Y556087D02*
D03*
X315543Y551087D02*
D03*
Y554587D02*
D03*
X368898Y525472D02*
D03*
X38681Y496732D02*
D03*
X40846Y521929D02*
D03*
X40748Y525571D02*
D03*
Y529016D02*
D03*
X70965Y493484D02*
D03*
Y496929D02*
D03*
X106890Y558347D02*
D03*
X79921Y525472D02*
D03*
X44488Y528622D02*
D03*
X289894Y723894D02*
D03*
Y726994D02*
D03*
X274894Y723894D02*
D03*
X287123Y722313D02*
D03*
Y728513D02*
D03*
X260394Y608894D02*
D03*
X235894Y614994D02*
D03*
X244794Y615594D02*
D03*
X370769Y637728D02*
D03*
X65562Y715314D02*
D03*
X149920Y591805D02*
D03*
X146349Y594375D02*
D03*
X241037Y710749D02*
D03*
X203145Y675827D02*
D03*
X208876Y653067D02*
D03*
X202067Y642992D02*
D03*
X217514Y643372D02*
D03*
X192323Y643090D02*
D03*
Y628228D02*
D03*
X202756Y616319D02*
D03*
X413535Y622955D02*
D03*
X420108Y669120D02*
D03*
X418021Y748531D02*
D03*
X384056Y735839D02*
D03*
X384772Y750596D02*
D03*
X362305Y742272D02*
D03*
X371315Y729205D02*
D03*
X344335Y729236D02*
D03*
X360695Y758028D02*
D03*
X339743Y742295D02*
D03*
X326055Y744741D02*
D03*
X302888Y742855D02*
D03*
X327276Y758949D02*
D03*
X300969Y770366D02*
D03*
X325549Y776160D02*
D03*
X319933Y791902D02*
D03*
X298520Y812175D02*
D03*
X300261Y792520D02*
D03*
X281602Y794137D02*
D03*
X284339Y812050D02*
D03*
X264560Y802845D02*
D03*
X264441Y827006D02*
D03*
X243399Y827056D02*
D03*
X223780D02*
D03*
X183189Y827552D02*
D03*
X203547Y827272D02*
D03*
X143282Y826991D02*
D03*
X163393Y827307D02*
D03*
X123109Y827105D02*
D03*
X102703Y826765D02*
D03*
X83399Y827230D02*
D03*
X58659Y826201D02*
D03*
X35800Y767476D02*
D03*
X425542Y778075D02*
D03*
X408214Y654175D02*
D03*
X395347Y661811D02*
D03*
X397808Y645643D02*
D03*
Y632532D02*
D03*
X381704Y644385D02*
D03*
X379204Y632489D02*
D03*
X383188Y673319D02*
D03*
X340290Y637890D02*
D03*
X342452Y649058D02*
D03*
X304365Y652445D02*
D03*
X356137Y673086D02*
D03*
X311783Y685005D02*
D03*
X245522Y708796D02*
D03*
X227932Y716229D02*
D03*
X253147Y716101D02*
D03*
X165442Y742061D02*
D03*
X54119Y778217D02*
D03*
X36033Y796077D02*
D03*
X48410Y748743D02*
D03*
X88300Y746193D02*
D03*
X107837Y737003D02*
D03*
X53907Y717378D02*
D03*
X36187Y704026D02*
D03*
X138747Y576053D02*
D03*
X120669Y737677D02*
D03*
X151838Y736899D02*
D03*
X144121Y730384D02*
D03*
X153959Y714954D02*
D03*
X148475Y695015D02*
D03*
X148741Y678996D02*
D03*
X170671Y694921D02*
D03*
X176798Y689802D02*
D03*
X203145Y665133D02*
D03*
X193249Y665721D02*
D03*
X183645Y670523D02*
D03*
X203203Y652832D02*
D03*
X193180Y652890D02*
D03*
X184648Y652701D02*
D03*
X218775Y663212D02*
D03*
X211052Y661015D02*
D03*
X242007Y657261D02*
D03*
X234176Y660031D02*
D03*
X225516Y650743D02*
D03*
X202067Y636102D02*
D03*
X211122Y635807D02*
D03*
X192323Y636004D02*
D03*
X217683Y631236D02*
D03*
X224307Y637716D02*
D03*
X202070Y628668D02*
D03*
X211011Y624517D02*
D03*
X307678Y616336D02*
D03*
X338607Y618588D02*
D03*
X350569Y596707D02*
D03*
X390563Y601924D02*
D03*
X398859Y589355D02*
D03*
X375941Y584500D02*
D03*
X420403Y616536D02*
D03*
X407432Y617036D02*
D03*
X407046Y602355D02*
D03*
X422788Y602672D02*
D03*
X424872Y468430D02*
D03*
X62840Y802641D02*
D03*
X183194Y706794D02*
D03*
X164694Y602194D02*
D03*
X76148Y747577D02*
D03*
X204813Y773795D02*
D03*
X90043Y755358D02*
D03*
X129894Y755494D02*
D03*
X169994Y755566D02*
D03*
X236760Y730489D02*
D03*
X258136Y754276D02*
D03*
X189795Y752377D02*
D03*
X227894Y730094D02*
D03*
X292582Y673397D02*
D03*
X348266Y640282D02*
D03*
X223688Y670330D02*
D03*
X216862Y670291D02*
D03*
X208992Y680785D02*
D03*
X197441Y672110D02*
D03*
X102092Y720571D02*
D03*
X102050Y724744D02*
D03*
X103619Y678026D02*
D03*
X103757Y670096D02*
D03*
X93294Y661194D02*
D03*
X77743Y711772D02*
D03*
X72047Y706181D02*
D03*
X66536Y700717D02*
D03*
X58866Y698462D02*
D03*
X50552Y698397D02*
D03*
X35663Y690599D02*
D03*
X35728Y682027D02*
D03*
X35643Y673255D02*
D03*
Y664220D02*
D03*
X35715Y654824D02*
D03*
X35860Y645645D02*
D03*
X74823Y641277D02*
D03*
X68254Y636882D02*
D03*
X60284Y637075D02*
D03*
X35746Y637220D02*
D03*
X91692Y648860D02*
D03*
X155721Y635329D02*
D03*
X93122Y736545D02*
D03*
X96943Y736462D02*
D03*
X149392Y751991D02*
D03*
X225138Y767056D02*
D03*
X227951Y739053D02*
D03*
X198418Y727341D02*
D03*
X198398Y730821D02*
D03*
X198378Y734419D02*
D03*
X234888Y720249D02*
D03*
X255594Y710394D02*
D03*
Y705494D02*
D03*
X277794Y725494D02*
D03*
X287094Y725394D02*
D03*
X287694Y718794D02*
D03*
X349094Y799194D02*
D03*
Y795794D02*
D03*
Y792294D02*
D03*
Y788994D02*
D03*
X348170Y801886D02*
D03*
X339173Y572717D02*
D03*
X175292Y715684D02*
D03*
X183558Y712943D02*
D03*
X194608Y722053D02*
D03*
X194018Y730530D02*
D03*
X175925Y730741D02*
D03*
X171032Y712774D02*
D03*
X148068Y709716D02*
D03*
X159139Y721631D02*
D03*
X159210Y730607D02*
D03*
X98710Y621836D02*
D03*
X139076Y627738D02*
D03*
X120942Y592684D02*
D03*
X141603Y668587D02*
D03*
X99139Y592981D02*
D03*
X188189Y556280D02*
D03*
X231694Y611594D02*
D03*
Y615094D02*
D03*
X214128Y597469D02*
D03*
X215080Y700060D02*
D03*
X361811Y556772D02*
D03*
X216834Y673776D02*
D03*
X208865Y673887D02*
D03*
X221298Y722268D02*
D03*
X216272Y722189D02*
D03*
X211256Y722219D02*
D03*
X206319Y722219D02*
D03*
X201294Y722194D02*
D03*
X163926Y727479D02*
D03*
X188691Y717240D02*
D03*
X234327Y673801D02*
D03*
X197143Y680909D02*
D03*
X208901Y677351D02*
D03*
X153315Y645188D02*
D03*
X166374Y645017D02*
D03*
X178527Y652683D02*
D03*
X178913Y638087D02*
D03*
X189357Y639161D02*
D03*
X295994Y602890D02*
D03*
X288194Y600294D02*
D03*
X408094Y505894D02*
D03*
X410094Y503394D02*
D03*
X410194Y508394D02*
D03*
X424194Y503394D02*
D03*
X424294Y508394D02*
D03*
X426294Y505894D02*
D03*
X408094Y495894D02*
D03*
X410094Y493394D02*
D03*
X410194Y498394D02*
D03*
X424194Y493394D02*
D03*
X424294Y498394D02*
D03*
X426294Y495894D02*
D03*
X408094Y475894D02*
D03*
X410094Y473394D02*
D03*
X410194Y478394D02*
D03*
X424194Y473394D02*
D03*
X424294Y478394D02*
D03*
X426294Y475894D02*
D03*
X422374Y564946D02*
D03*
X424974Y559846D02*
D03*
Y563046D02*
D03*
Y556646D02*
D03*
Y553446D02*
D03*
X425874Y550146D02*
D03*
Y546846D02*
D03*
X424774Y543746D02*
D03*
X421574D02*
D03*
X229594Y797194D02*
D03*
X58144Y780544D02*
D03*
X57294Y766420D02*
D03*
X45394Y799094D02*
D03*
X200594Y784094D02*
D03*
X199257Y774657D02*
D03*
X218572Y778434D02*
D03*
X105571Y769370D02*
D03*
X100553Y750868D02*
D03*
X114042Y755606D02*
D03*
X189825Y745224D02*
D03*
X186257Y745247D02*
D03*
X82494Y760094D02*
D03*
X77594D02*
D03*
X72603Y760134D02*
D03*
X81594Y755594D02*
D03*
X85594D02*
D03*
X77594D02*
D03*
X125847Y755590D02*
D03*
X119941D02*
D03*
X166102Y755689D02*
D03*
X160197D02*
D03*
X163150D02*
D03*
X142874Y756968D02*
D03*
X102717Y756870D02*
D03*
X154291Y755689D02*
D03*
X157244D02*
D03*
X185813Y759494D02*
D03*
X145925Y769468D02*
D03*
X230794Y564694D02*
D03*
X324902Y573307D02*
D03*
X44294Y695394D02*
D03*
X417052Y800457D02*
D03*
X418945Y785059D02*
D03*
Y789059D02*
D03*
X414145Y794959D02*
D03*
X425394Y647994D02*
D03*
X429394Y794994D02*
D03*
Y789094D02*
D03*
Y785094D02*
D03*
X149194Y792794D02*
D03*
X109294Y792594D02*
D03*
X184444Y786294D02*
D03*
X149094Y784094D02*
D03*
Y774994D02*
D03*
X108994D02*
D03*
Y784094D02*
D03*
X144344Y786294D02*
D03*
X73094Y786494D02*
D03*
X296494Y826494D02*
D03*
X66994Y787794D02*
D03*
X110594Y799294D02*
D03*
X150094Y799094D02*
D03*
X296494Y819194D02*
D03*
X104494Y786294D02*
D03*
X283294Y773294D02*
D03*
Y778694D02*
D03*
X269882Y738563D02*
D03*
Y750866D02*
D03*
X273130D02*
D03*
X273294Y754894D02*
D03*
X266094Y754994D02*
D03*
X263194D02*
D03*
X277794Y728594D02*
D03*
X286989Y712975D02*
D03*
X299494Y712594D02*
D03*
X310694Y704494D02*
D03*
Y708694D02*
D03*
X299494Y708594D02*
D03*
Y703794D02*
D03*
X286094Y764594D02*
D03*
X326394Y728494D02*
D03*
X299994Y827194D02*
D03*
X300194Y819194D02*
D03*
X321694Y819094D02*
D03*
X318194Y818994D02*
D03*
Y823194D02*
D03*
X318094Y827494D02*
D03*
X308694Y822994D02*
D03*
Y827194D02*
D03*
Y819094D02*
D03*
X293194Y826494D02*
D03*
X293094Y822794D02*
D03*
X293194Y819194D02*
D03*
X275894Y826794D02*
D03*
X421594Y647994D02*
D03*
X283738Y607062D02*
D03*
X214094Y593894D02*
D03*
X232633Y589224D02*
D03*
X86694Y706994D02*
D03*
X90194Y713094D02*
D03*
X143958Y709675D02*
D03*
X410994Y466594D02*
D03*
X189513Y772394D02*
D03*
X29894Y744294D02*
D03*
X216929Y557953D02*
D03*
X182981Y614887D02*
D03*
X248500Y632301D02*
D03*
X261532Y659679D02*
D03*
X265111Y666527D02*
D03*
X224094Y697294D02*
D03*
X231894Y700094D02*
D03*
X344685Y590138D02*
D03*
X216833Y677333D02*
D03*
X223680Y677348D02*
D03*
X327494Y569494D02*
D03*
X261523Y666546D02*
D03*
X181883Y619899D02*
D03*
X178294Y619894D02*
D03*
X248507Y619010D02*
D03*
X244816Y618997D02*
D03*
X158294Y679694D02*
D03*
X328894Y575494D02*
D03*
X164294Y669194D02*
D03*
X158294Y675894D02*
D03*
X178394Y675616D02*
D03*
X407087Y642992D02*
D03*
X421457D02*
D03*
X414894Y647894D02*
D03*
X406394D02*
D03*
X425394Y624094D02*
D03*
X405894Y624394D02*
D03*
X414370Y642894D02*
D03*
X417421Y624193D02*
D03*
X327490Y822520D02*
D03*
X248094Y751994D02*
D03*
X122894Y755590D02*
D03*
X73594Y755594D02*
D03*
X162594Y759994D02*
D03*
X122294Y760194D02*
D03*
X237294Y747494D02*
D03*
X249454D02*
D03*
X117394Y760094D02*
D03*
X116988Y755590D02*
D03*
X157294Y760094D02*
D03*
X360175Y804589D02*
D03*
X339725Y806036D02*
D03*
X30594Y759294D02*
D03*
X394594Y818394D02*
D03*
X240334Y747494D02*
D03*
X237294Y750394D02*
D03*
X93394Y681994D02*
D03*
X252494Y747494D02*
D03*
X242894Y751994D02*
D03*
X243374Y747494D02*
D03*
X425984Y523394D02*
D03*
X424409Y525994D02*
D03*
X429200Y523494D02*
D03*
X425984Y538994D02*
D03*
X429200D02*
D03*
X263194Y750869D02*
D03*
Y746744D02*
D03*
X377953Y818091D02*
D03*
X223668Y673824D02*
D03*
X159394Y671994D02*
D03*
X331794Y793594D02*
D03*
X345817Y824636D02*
D03*
X416831Y633445D02*
D03*
X425394Y643094D02*
D03*
X30594Y763594D02*
D03*
X38681Y493681D02*
D03*
X51476Y496732D02*
D03*
Y493681D02*
D03*
X97146Y493780D02*
D03*
Y496831D02*
D03*
X246414Y747494D02*
D03*
X237294Y753294D02*
D03*
X189613Y759394D02*
D03*
X197145Y677340D02*
D03*
X187296Y677361D02*
D03*
X187285Y673770D02*
D03*
X160064Y665470D02*
D03*
X156530Y665477D02*
D03*
X137917Y668795D02*
D03*
X318110Y575768D02*
D03*
X153098Y624196D02*
D03*
X245887Y672774D02*
D03*
X241268Y680444D02*
D03*
X234420Y677336D02*
D03*
X189694Y610494D02*
D03*
Y614194D02*
D03*
X198095Y610480D02*
D03*
X198092Y614146D02*
D03*
X110775Y638248D02*
D03*
X86399Y735081D02*
D03*
X86336Y731653D02*
D03*
X30194Y696594D02*
D03*
X66794Y690675D02*
D03*
X66994Y694375D02*
D03*
X67294Y686975D02*
D03*
X136951Y678779D02*
D03*
X90494Y716894D02*
D03*
X136694Y673894D02*
D03*
X136793Y724493D02*
D03*
X150831Y725379D02*
D03*
X84445Y718574D02*
D03*
X78591Y646494D02*
D03*
X195494Y711794D02*
D03*
X191094Y698094D02*
D03*
X119494Y730294D02*
D03*
X74594Y690675D02*
D03*
X414241Y791156D02*
D03*
X325451Y576941D02*
D03*
X258050Y683243D02*
D03*
X265957Y698419D02*
D03*
X268504Y695847D02*
D03*
X271358Y692894D02*
D03*
X273228Y698504D02*
D03*
X267598Y664027D02*
D03*
X267294Y655194D02*
D03*
X264688Y644381D02*
D03*
X266694Y649594D02*
D03*
X275295Y702933D02*
D03*
X272367Y719533D02*
D03*
X267433Y719778D02*
D03*
X264382Y721845D02*
D03*
X262019Y701864D02*
D03*
X97720Y596664D02*
D03*
X422700Y538994D02*
D03*
Y523394D02*
D03*
X213779Y731476D02*
D03*
X230094Y766994D02*
D03*
X189811Y748667D02*
D03*
X101494Y747198D02*
D03*
X109400Y752045D02*
D03*
X263194Y742619D02*
D03*
X263287Y738563D02*
D03*
X266535D02*
D03*
X227917Y733570D02*
D03*
X274894Y726994D02*
D03*
X271594Y732194D02*
D03*
X273228Y738563D02*
D03*
X262402Y728327D02*
D03*
X238668Y720269D02*
D03*
X328694Y719394D02*
D03*
X316994Y701894D02*
D03*
X370594Y778694D02*
D03*
X377494Y778894D02*
D03*
X384394Y778794D02*
D03*
X377292Y758961D02*
D03*
X391194Y761594D02*
D03*
X370794Y758994D02*
D03*
X377292Y768245D02*
D03*
X377294Y762994D02*
D03*
X375594Y755294D02*
D03*
X390894Y777094D02*
D03*
X390994Y768594D02*
D03*
X368494Y750294D02*
D03*
X402394Y774694D02*
D03*
X405094Y776994D02*
D03*
X398494Y776694D02*
D03*
X402494Y762794D02*
D03*
X399094Y761994D02*
D03*
X406194Y761694D02*
D03*
X413094Y768694D02*
D03*
X410694Y762394D02*
D03*
X414394Y761994D02*
D03*
X416294Y765894D02*
D03*
X412694Y765194D02*
D03*
X402394Y722194D02*
D03*
X394094Y722394D02*
D03*
X397794Y721994D02*
D03*
X407694D02*
D03*
X397394Y735294D02*
D03*
X402394D02*
D03*
X410194Y735194D02*
D03*
X412809Y732215D02*
D03*
X406480Y735352D02*
D03*
X411913Y722860D02*
D03*
X413094Y728694D02*
D03*
X394394Y682994D02*
D03*
X394294Y679094D02*
D03*
X398994Y678994D02*
D03*
X402494Y682494D02*
D03*
X412894Y685194D02*
D03*
X412594Y691494D02*
D03*
X417694Y691594D02*
D03*
X417594Y684894D02*
D03*
X403294Y661194D02*
D03*
X404394Y676094D02*
D03*
X409994Y675994D02*
D03*
X413694Y668594D02*
D03*
X409094Y661294D02*
D03*
X412794Y663894D02*
D03*
X413194Y673294D02*
D03*
X407394Y679594D02*
D03*
X420694Y679694D02*
D03*
X424294Y675794D02*
D03*
X125984Y558347D02*
D03*
X98810Y554587D02*
D03*
Y551087D02*
D03*
X95810Y556087D02*
D03*
Y549687D02*
D03*
X304697Y592618D02*
D03*
X315894Y601378D02*
D03*
X323705Y587364D02*
D03*
X323671Y591201D02*
D03*
X334783Y600467D02*
D03*
X366437Y597421D02*
D03*
X379645Y594456D02*
D03*
X288352Y646488D02*
D03*
X282184Y632483D02*
D03*
X290193Y638045D02*
D03*
X304921Y640728D02*
D03*
X304904Y636154D02*
D03*
X311630Y632352D02*
D03*
X320713Y638424D02*
D03*
X323701Y632364D02*
D03*
X333001Y638054D02*
D03*
X358348Y637883D02*
D03*
X178191Y665773D02*
D03*
X241294Y676894D02*
D03*
X157917Y630461D02*
D03*
X304694Y588794D02*
D03*
X288094Y590294D02*
D03*
X245894Y665894D02*
D03*
X244806Y632289D02*
D03*
X241113Y640232D02*
D03*
X181413Y598051D02*
D03*
X238583Y591701D02*
D03*
X248725Y590358D02*
D03*
X256155Y599153D02*
D03*
X255100Y587637D02*
D03*
X258933Y587623D02*
D03*
X96300Y600055D02*
D03*
X224394Y563694D02*
D03*
X260471Y578959D02*
D03*
X317194Y580994D02*
D03*
X232684Y592732D02*
D03*
X238556Y596426D02*
D03*
X244814Y625493D02*
D03*
X248506Y625471D02*
D03*
X241102Y632127D02*
D03*
X265084Y659668D02*
D03*
X132125Y558439D02*
D03*
X354130Y591007D02*
D03*
X179294Y614894D02*
D03*
X187343Y598107D02*
D03*
X181487Y595227D02*
D03*
X237426Y650158D02*
D03*
X210017Y696930D02*
D03*
X108194Y629794D02*
D03*
X122672Y634841D02*
D03*
X102708Y593468D02*
D03*
X133994Y627894D02*
D03*
X129715Y624777D02*
D03*
X119313Y662574D02*
D03*
X123294Y662194D02*
D03*
X130606Y655633D02*
D03*
X152566Y657390D02*
D03*
X153194Y648794D02*
D03*
X149999Y637048D02*
D03*
X138926Y635766D02*
D03*
X234319Y670287D02*
D03*
X241139Y646168D02*
D03*
X237416Y640223D02*
D03*
X231850Y703371D02*
D03*
X151107Y642972D02*
D03*
X154877Y630455D02*
D03*
X261608Y628165D02*
D03*
X263601Y626158D02*
D03*
X76990Y730042D02*
D03*
X77042Y733883D02*
D03*
X77187Y737827D02*
D03*
X34471Y725576D02*
D03*
X43287Y720495D02*
D03*
X43433Y714305D02*
D03*
X43393Y708222D02*
D03*
X85508Y655659D02*
D03*
X85009Y650659D02*
D03*
X53162Y723071D02*
D03*
X47961Y705633D02*
D03*
X53355Y703380D02*
D03*
X60441Y705035D02*
D03*
X174322Y701949D02*
D03*
X101277Y599222D02*
D03*
X110793Y600356D02*
D03*
X107345Y600285D02*
D03*
X241585Y668720D02*
D03*
X231752Y646132D02*
D03*
X352569Y656315D02*
D03*
X237426Y631599D02*
D03*
X245794Y610494D02*
D03*
X195768Y620847D02*
D03*
X185563Y619887D02*
D03*
X185586Y637433D02*
D03*
X240551Y695452D02*
D03*
X292635Y646438D02*
D03*
X257618Y580905D02*
D03*
X375420Y567782D02*
D03*
X321253Y572376D02*
D03*
X208394Y589594D02*
D03*
X126041Y635631D02*
D03*
X107681Y636480D02*
D03*
X115808Y662859D02*
D03*
X170773Y701933D02*
D03*
X193124Y714593D02*
D03*
X29382Y549959D02*
D03*
X47493D02*
D03*
X38438Y559014D02*
D03*
Y540904D02*
D03*
X62294Y731839D02*
D03*
Y749949D02*
D03*
X71349Y740894D02*
D03*
X53239D02*
D03*
X231839Y574694D02*
D03*
X249949D02*
D03*
X240894Y583749D02*
D03*
Y565639D02*
D03*
X266437Y706280D02*
D03*
Y710610D02*
D03*
X270768Y706280D02*
D03*
Y710610D02*
D03*
X425133Y610664D02*
D03*
X300204Y601284D02*
D03*
X429994Y615594D02*
D03*
X84153Y508740D02*
D03*
X87106Y514646D02*
D03*
X84153D02*
D03*
X87106Y508740D02*
D03*
X37697Y511299D02*
D03*
X40650D02*
D03*
X51802Y508701D02*
D03*
X48850D02*
D03*
X73425Y499587D02*
D03*
X62402Y526161D02*
D03*
X67618Y526457D02*
D03*
X84350Y496142D02*
D03*
Y493287D02*
D03*
X44390Y525079D02*
D03*
Y522028D02*
D03*
X65847Y539252D02*
D03*
Y543386D02*
D03*
X138091D02*
D03*
Y539252D02*
D03*
X116634Y522421D02*
D03*
Y525472D02*
D03*
X156693Y493386D02*
D03*
X156693Y496240D02*
D03*
X139862Y526457D02*
D03*
X134646Y526161D02*
D03*
X145669Y499587D02*
D03*
X121094Y508701D02*
D03*
X124046D02*
D03*
X159350Y508740D02*
D03*
X156398Y514646D02*
D03*
X159350D02*
D03*
X156398Y508740D02*
D03*
X169390Y496831D02*
D03*
Y493780D02*
D03*
X123721Y493681D02*
D03*
Y496732D02*
D03*
X110925D02*
D03*
Y493681D02*
D03*
X116831Y529016D02*
D03*
X210335Y543386D02*
D03*
Y539252D02*
D03*
X228839Y493386D02*
D03*
Y496339D02*
D03*
X212106Y526457D02*
D03*
X206890Y526161D02*
D03*
X217913Y499587D02*
D03*
X193338Y508701D02*
D03*
X196291D02*
D03*
X231594Y508740D02*
D03*
X228642Y514646D02*
D03*
X231594D02*
D03*
X228642Y508740D02*
D03*
X241634Y496831D02*
D03*
Y493780D02*
D03*
X195965Y496732D02*
D03*
X183169D02*
D03*
X282579Y543386D02*
D03*
Y539252D02*
D03*
X301181Y493386D02*
D03*
Y496240D02*
D03*
X284350Y526457D02*
D03*
X279134Y526161D02*
D03*
X290158Y499587D02*
D03*
X265582Y508701D02*
D03*
X268535D02*
D03*
X303839Y508740D02*
D03*
X300886Y514646D02*
D03*
X303839D02*
D03*
X300886Y508740D02*
D03*
X313878Y496831D02*
D03*
Y493780D02*
D03*
X268209Y493681D02*
D03*
Y496732D02*
D03*
X255413D02*
D03*
Y493681D02*
D03*
X354823Y543386D02*
D03*
Y539252D02*
D03*
X373425Y493386D02*
D03*
Y496240D02*
D03*
X356594Y526457D02*
D03*
X351378Y526161D02*
D03*
X362402Y499587D02*
D03*
X337826Y508701D02*
D03*
X340779D02*
D03*
X376083Y508740D02*
D03*
X373130Y514646D02*
D03*
X376083D02*
D03*
X373130Y508740D02*
D03*
X386122Y496831D02*
D03*
Y493780D02*
D03*
X340453Y493681D02*
D03*
Y496732D02*
D03*
X327658D02*
D03*
Y493681D02*
D03*
X112992Y528425D02*
D03*
Y524980D02*
D03*
X113091Y521339D02*
D03*
X143209Y496929D02*
D03*
Y493484D02*
D03*
X215453Y496929D02*
D03*
Y493484D02*
D03*
X276870Y498799D02*
D03*
X287697Y496929D02*
D03*
Y493484D02*
D03*
X351279Y487972D02*
D03*
X361614Y495059D02*
D03*
X361024Y491614D02*
D03*
X112894Y511299D02*
D03*
X109941D02*
D03*
X146161Y558347D02*
D03*
X168054Y549687D02*
D03*
Y556087D02*
D03*
X171054Y551087D02*
D03*
Y554587D02*
D03*
X152165Y525472D02*
D03*
X189336Y528976D02*
D03*
X188943Y525433D02*
D03*
Y522382D02*
D03*
X182185Y511299D02*
D03*
X185138D02*
D03*
X185335Y521339D02*
D03*
X185236Y524980D02*
D03*
Y528425D02*
D03*
X224410Y525472D02*
D03*
X261187Y522480D02*
D03*
Y525531D02*
D03*
X261679Y529075D02*
D03*
X257480Y528425D02*
D03*
Y524980D02*
D03*
X257579Y521339D02*
D03*
X254429Y511299D02*
D03*
X257382D02*
D03*
X296654Y525472D02*
D03*
X333431Y525433D02*
D03*
Y522382D02*
D03*
X333858Y528917D02*
D03*
X329823Y521339D02*
D03*
X329724Y524980D02*
D03*
Y528425D02*
D03*
X243299Y554587D02*
D03*
Y551087D02*
D03*
X240299Y556087D02*
D03*
Y549687D02*
D03*
X323130Y511299D02*
D03*
X351246Y495059D02*
D03*
Y498636D02*
D03*
X351279Y491516D02*
D03*
X346063Y556575D02*
D03*
Y553031D02*
D03*
Y549488D02*
D03*
X339665Y567205D02*
D03*
X264370Y536496D02*
D03*
X195571Y537382D02*
D03*
X124508Y536988D02*
D03*
X48622Y532756D02*
D03*
X74606Y589055D02*
D03*
Y593386D02*
D03*
X39961Y571831D02*
D03*
X73032Y572028D02*
D03*
X91732Y622618D02*
D03*
X63287Y559035D02*
D03*
X30512Y628228D02*
D03*
X72736Y628819D02*
D03*
X91535Y615335D02*
D03*
G54D131*
X0Y0D02*
X460610D01*
Y860974D01*
X0D02*
X460610D01*
X0Y0D02*
Y860974D01*
X25394Y25394D02*
Y430394D01*
X435394D01*
Y25394D02*
Y430394D01*
X25394Y25394D02*
X435394D01*
X25394Y430394D02*
Y835394D01*
X435394D01*
Y430394D02*
Y835394D01*
X25394Y430394D02*
X435394D01*
G54D132*
X313533Y147736D02*
D03*
X385777D02*
D03*
X241289D02*
D03*
X169045D02*
D03*
X96801D02*
D03*
X313533Y552736D02*
D03*
X385777D02*
D03*
X241289D02*
D03*
X169045D02*
D03*
X96801D02*
D03*
G54D133*
X370494Y310794D02*
D03*
X383894D02*
D03*
X336894D02*
D03*
X350294D02*
D03*
Y363794D02*
D03*
X336894D02*
D03*
X370494Y715794D02*
D03*
X383894D02*
D03*
X336894D02*
D03*
X350294D02*
D03*
Y768794D02*
D03*
X336894D02*
D03*
G54D134*
X348525Y407836D02*
D03*
X352462D02*
D03*
Y403899D02*
D03*
X348525D02*
D03*
X344588D02*
D03*
Y407836D02*
D03*
Y411773D02*
D03*
X348525D02*
D03*
X352462D02*
D03*
X348525Y812836D02*
D03*
X352462D02*
D03*
Y808899D02*
D03*
X348525D02*
D03*
X344588D02*
D03*
Y812836D02*
D03*
Y816773D02*
D03*
X348525D02*
D03*
X352462D02*
D03*
M02*
