G04 Layer_Color=32896*
%FSLAX24Y24*%
%MOIN*%
G70*
G01*
G75*
%ADD12C,0.0100*%
%ADD72C,0.0080*%
%ADD123C,0.0040*%
%ADD124C,0.0060*%
%ADD127C,0.0039*%
%ADD138R,0.0295X0.0879*%
%ADD139R,0.0879X0.0295*%
%ADD256C,0.0020*%
%ADD257R,0.0240X0.0118*%
%ADD258R,0.0240X0.0110*%
%ADD259R,0.0118X0.0240*%
%ADD260R,0.0110X0.0240*%
%ADD261R,0.0138X0.0315*%
%ADD262R,0.0240X0.0118*%
%ADD263R,0.0315X0.0138*%
%ADD264R,0.0230X0.0246*%
%ADD265R,0.0190X0.0413*%
%ADD266R,0.0236X0.0246*%
%ADD267R,0.0197X0.0413*%
%ADD268R,0.0240X0.0536*%
%ADD269R,0.0236X0.0536*%
%ADD270R,0.0300X0.0575*%
%ADD271R,0.0295X0.0575*%
%ADD272R,0.0190X0.0194*%
%ADD273R,0.0187X0.0194*%
%ADD274R,0.0536X0.0240*%
%ADD275R,0.0536X0.0236*%
%ADD276R,0.0170X0.0645*%
%ADD277R,0.0165X0.0635*%
%ADD278R,0.0645X0.0170*%
%ADD279R,0.0635X0.0165*%
%ADD280R,0.0079X0.0556*%
%ADD281R,0.0317X0.0114*%
%ADD282R,0.0137X0.0080*%
%ADD283R,0.0137X0.0083*%
%ADD284R,0.0210X0.0860*%
%ADD285R,0.0860X0.0210*%
%ADD286R,0.0118X0.0240*%
%ADD287R,0.0575X0.0300*%
%ADD288R,0.0575X0.0295*%
%ADD289R,0.0194X0.0194*%
%ADD290R,0.0010X0.0010*%
%ADD291R,0.0020X0.0010*%
%ADD292R,0.0021X0.0010*%
%ADD293R,0.0011X0.0010*%
%ADD294R,0.0556X0.0079*%
G36*
X31039Y28365D02*
X31039Y28366D01*
X31042Y28368D01*
X31046Y28371D01*
X31051Y28375D01*
X31058Y28381D01*
X31066Y28386D01*
X31075Y28393D01*
X31085Y28399D01*
X31086D01*
X31086Y28400D01*
X31090Y28402D01*
X31095Y28405D01*
X31102Y28409D01*
X31110Y28413D01*
X31118Y28416D01*
X31128Y28421D01*
X31136Y28424D01*
Y28377D01*
X31135D01*
X31134Y28376D01*
X31132Y28375D01*
X31129Y28373D01*
X31126Y28371D01*
X31121Y28369D01*
X31112Y28364D01*
X31101Y28357D01*
X31089Y28349D01*
X31077Y28340D01*
X31065Y28331D01*
X31065Y28330D01*
X31064Y28329D01*
X31060Y28326D01*
X31055Y28320D01*
X31048Y28314D01*
X31041Y28305D01*
X31034Y28296D01*
X31027Y28286D01*
X31022Y28277D01*
X30990D01*
Y28676D01*
X31039D01*
Y28365D01*
D02*
G37*
G36*
X36302Y25026D02*
X36253D01*
Y25337D01*
X36253Y25336D01*
X36250Y25334D01*
X36246Y25331D01*
X36241Y25327D01*
X36234Y25321D01*
X36226Y25316D01*
X36217Y25309D01*
X36207Y25303D01*
X36206D01*
X36206Y25303D01*
X36202Y25300D01*
X36197Y25297D01*
X36190Y25293D01*
X36182Y25289D01*
X36174Y25286D01*
X36164Y25281D01*
X36156Y25278D01*
Y25326D01*
X36157D01*
X36158Y25326D01*
X36160Y25327D01*
X36163Y25329D01*
X36166Y25331D01*
X36171Y25333D01*
X36180Y25338D01*
X36191Y25345D01*
X36203Y25353D01*
X36215Y25362D01*
X36227Y25371D01*
X36227Y25372D01*
X36228Y25373D01*
X36232Y25376D01*
X36237Y25382D01*
X36244Y25388D01*
X36251Y25397D01*
X36258Y25406D01*
X36265Y25416D01*
X36270Y25425D01*
X36302D01*
Y25026D01*
D02*
G37*
G36*
X39309Y28365D02*
X39309Y28366D01*
X39312Y28368D01*
X39316Y28371D01*
X39321Y28375D01*
X39328Y28381D01*
X39336Y28386D01*
X39345Y28393D01*
X39355Y28399D01*
X39356D01*
X39356Y28400D01*
X39360Y28402D01*
X39365Y28405D01*
X39372Y28409D01*
X39380Y28413D01*
X39388Y28416D01*
X39398Y28421D01*
X39406Y28424D01*
Y28377D01*
X39405D01*
X39404Y28376D01*
X39402Y28375D01*
X39399Y28373D01*
X39396Y28371D01*
X39392Y28369D01*
X39382Y28364D01*
X39371Y28357D01*
X39359Y28349D01*
X39347Y28340D01*
X39335Y28331D01*
X39335Y28330D01*
X39334Y28329D01*
X39330Y28326D01*
X39325Y28320D01*
X39318Y28314D01*
X39311Y28305D01*
X39304Y28296D01*
X39297Y28286D01*
X39292Y28277D01*
X39260D01*
Y28676D01*
X39309D01*
Y28365D01*
D02*
G37*
G36*
X3322Y37386D02*
X3273D01*
Y37697D01*
X3273Y37696D01*
X3270Y37694D01*
X3266Y37691D01*
X3261Y37687D01*
X3254Y37681D01*
X3246Y37676D01*
X3237Y37669D01*
X3227Y37663D01*
X3226D01*
X3226Y37663D01*
X3222Y37660D01*
X3217Y37657D01*
X3210Y37653D01*
X3202Y37649D01*
X3194Y37646D01*
X3184Y37641D01*
X3176Y37638D01*
Y37685D01*
X3177D01*
X3178Y37686D01*
X3180Y37687D01*
X3183Y37689D01*
X3186Y37691D01*
X3191Y37693D01*
X3200Y37698D01*
X3211Y37705D01*
X3223Y37713D01*
X3235Y37722D01*
X3247Y37731D01*
X3247Y37732D01*
X3248Y37733D01*
X3252Y37736D01*
X3257Y37742D01*
X3264Y37748D01*
X3271Y37757D01*
X3278Y37766D01*
X3285Y37776D01*
X3290Y37785D01*
X3322D01*
Y37386D01*
D02*
G37*
G36*
X35174Y28365D02*
X35174Y28366D01*
X35177Y28368D01*
X35181Y28371D01*
X35186Y28375D01*
X35193Y28381D01*
X35201Y28386D01*
X35210Y28393D01*
X35220Y28399D01*
X35221D01*
X35221Y28400D01*
X35225Y28402D01*
X35230Y28405D01*
X35237Y28409D01*
X35245Y28413D01*
X35253Y28416D01*
X35263Y28421D01*
X35271Y28424D01*
Y28377D01*
X35270D01*
X35269Y28376D01*
X35267Y28375D01*
X35264Y28373D01*
X35261Y28371D01*
X35257Y28369D01*
X35247Y28364D01*
X35236Y28357D01*
X35224Y28349D01*
X35212Y28340D01*
X35200Y28331D01*
X35200Y28330D01*
X35199Y28329D01*
X35195Y28326D01*
X35190Y28320D01*
X35183Y28314D01*
X35176Y28305D01*
X35169Y28296D01*
X35162Y28286D01*
X35157Y28277D01*
X35125D01*
Y28676D01*
X35174D01*
Y28365D01*
D02*
G37*
G36*
X32167Y25026D02*
X32118D01*
Y25337D01*
X32118Y25336D01*
X32115Y25334D01*
X32111Y25331D01*
X32106Y25327D01*
X32099Y25321D01*
X32091Y25316D01*
X32082Y25309D01*
X32072Y25303D01*
X32071D01*
X32071Y25303D01*
X32067Y25300D01*
X32062Y25297D01*
X32055Y25293D01*
X32047Y25289D01*
X32039Y25286D01*
X32029Y25281D01*
X32021Y25278D01*
Y25326D01*
X32022D01*
X32023Y25326D01*
X32025Y25327D01*
X32028Y25329D01*
X32031Y25331D01*
X32036Y25333D01*
X32045Y25338D01*
X32056Y25345D01*
X32068Y25353D01*
X32080Y25362D01*
X32092Y25371D01*
X32092Y25372D01*
X32093Y25373D01*
X32097Y25376D01*
X32102Y25382D01*
X32109Y25388D01*
X32116Y25397D01*
X32123Y25406D01*
X32130Y25416D01*
X32135Y25425D01*
X32167D01*
Y25026D01*
D02*
G37*
G36*
X34532Y20566D02*
X34483D01*
Y20877D01*
X34483Y20876D01*
X34480Y20874D01*
X34476Y20871D01*
X34471Y20867D01*
X34464Y20861D01*
X34456Y20856D01*
X34447Y20849D01*
X34437Y20843D01*
X34436D01*
X34436Y20843D01*
X34432Y20840D01*
X34427Y20837D01*
X34420Y20833D01*
X34412Y20829D01*
X34404Y20826D01*
X34394Y20821D01*
X34386Y20818D01*
Y20865D01*
X34387D01*
X34388Y20866D01*
X34390Y20867D01*
X34393Y20869D01*
X34396Y20871D01*
X34401Y20873D01*
X34410Y20878D01*
X34421Y20885D01*
X34433Y20893D01*
X34445Y20902D01*
X34457Y20911D01*
X34457Y20912D01*
X34458Y20913D01*
X34462Y20916D01*
X34467Y20922D01*
X34474Y20928D01*
X34481Y20937D01*
X34488Y20946D01*
X34495Y20956D01*
X34500Y20965D01*
X34532D01*
Y20566D01*
D02*
G37*
G36*
X37662D02*
X37613D01*
Y20877D01*
X37613Y20876D01*
X37610Y20874D01*
X37606Y20871D01*
X37601Y20867D01*
X37594Y20861D01*
X37586Y20856D01*
X37577Y20849D01*
X37567Y20843D01*
X37566D01*
X37566Y20843D01*
X37562Y20840D01*
X37557Y20837D01*
X37550Y20833D01*
X37542Y20829D01*
X37534Y20826D01*
X37524Y20821D01*
X37516Y20818D01*
Y20865D01*
X37517D01*
X37518Y20866D01*
X37520Y20867D01*
X37523Y20869D01*
X37526Y20871D01*
X37531Y20873D01*
X37540Y20878D01*
X37551Y20885D01*
X37563Y20893D01*
X37575Y20902D01*
X37587Y20911D01*
X37587Y20912D01*
X37588Y20913D01*
X37592Y20916D01*
X37597Y20922D01*
X37604Y20928D01*
X37611Y20937D01*
X37618Y20946D01*
X37625Y20956D01*
X37630Y20965D01*
X37662D01*
Y20566D01*
D02*
G37*
G36*
X31382D02*
X31333D01*
Y20877D01*
X31333Y20876D01*
X31330Y20874D01*
X31326Y20871D01*
X31321Y20867D01*
X31314Y20861D01*
X31306Y20856D01*
X31297Y20849D01*
X31287Y20843D01*
X31286D01*
X31286Y20843D01*
X31282Y20840D01*
X31277Y20837D01*
X31270Y20833D01*
X31262Y20829D01*
X31254Y20826D01*
X31244Y20821D01*
X31236Y20818D01*
Y20865D01*
X31237D01*
X31238Y20866D01*
X31240Y20867D01*
X31243Y20869D01*
X31246Y20871D01*
X31251Y20873D01*
X31260Y20878D01*
X31271Y20885D01*
X31283Y20893D01*
X31295Y20902D01*
X31307Y20911D01*
X31307Y20912D01*
X31308Y20913D01*
X31312Y20916D01*
X31317Y20922D01*
X31324Y20928D01*
X31331Y20937D01*
X31338Y20946D01*
X31345Y20956D01*
X31350Y20965D01*
X31382D01*
Y20566D01*
D02*
G37*
G36*
X28032Y25026D02*
X27983D01*
Y25337D01*
X27983Y25336D01*
X27980Y25334D01*
X27976Y25331D01*
X27971Y25327D01*
X27964Y25321D01*
X27956Y25316D01*
X27947Y25309D01*
X27937Y25303D01*
X27936D01*
X27936Y25303D01*
X27932Y25300D01*
X27927Y25297D01*
X27920Y25293D01*
X27912Y25289D01*
X27904Y25286D01*
X27894Y25281D01*
X27886Y25278D01*
Y25326D01*
X27887D01*
X27888Y25326D01*
X27890Y25327D01*
X27893Y25329D01*
X27896Y25331D01*
X27901Y25333D01*
X27910Y25338D01*
X27921Y25345D01*
X27933Y25353D01*
X27945Y25362D01*
X27957Y25371D01*
X27957Y25372D01*
X27958Y25373D01*
X27962Y25376D01*
X27967Y25382D01*
X27974Y25388D01*
X27981Y25397D01*
X27988Y25406D01*
X27995Y25416D01*
X28000Y25425D01*
X28032D01*
Y25026D01*
D02*
G37*
G36*
X28212Y20566D02*
X28163D01*
Y20877D01*
X28163Y20876D01*
X28160Y20874D01*
X28156Y20871D01*
X28151Y20867D01*
X28144Y20861D01*
X28136Y20856D01*
X28127Y20849D01*
X28117Y20843D01*
X28116D01*
X28116Y20843D01*
X28112Y20840D01*
X28107Y20837D01*
X28100Y20833D01*
X28092Y20829D01*
X28084Y20826D01*
X28074Y20821D01*
X28066Y20818D01*
Y20865D01*
X28067D01*
X28068Y20866D01*
X28070Y20867D01*
X28073Y20869D01*
X28076Y20871D01*
X28081Y20873D01*
X28090Y20878D01*
X28101Y20885D01*
X28113Y20893D01*
X28125Y20902D01*
X28137Y20911D01*
X28137Y20912D01*
X28138Y20913D01*
X28142Y20916D01*
X28147Y20922D01*
X28154Y20928D01*
X28161Y20937D01*
X28168Y20946D01*
X28175Y20956D01*
X28180Y20965D01*
X28212D01*
Y20566D01*
D02*
G37*
G36*
X31039Y68865D02*
X31039Y68866D01*
X31042Y68868D01*
X31046Y68871D01*
X31051Y68875D01*
X31058Y68881D01*
X31066Y68886D01*
X31075Y68893D01*
X31085Y68899D01*
X31086D01*
X31086Y68900D01*
X31090Y68902D01*
X31095Y68905D01*
X31102Y68909D01*
X31110Y68913D01*
X31118Y68916D01*
X31128Y68921D01*
X31136Y68924D01*
Y68877D01*
X31135D01*
X31134Y68876D01*
X31132Y68875D01*
X31129Y68873D01*
X31126Y68871D01*
X31121Y68869D01*
X31112Y68864D01*
X31101Y68857D01*
X31089Y68849D01*
X31077Y68840D01*
X31065Y68831D01*
X31065Y68830D01*
X31064Y68829D01*
X31060Y68826D01*
X31055Y68820D01*
X31048Y68814D01*
X31041Y68805D01*
X31034Y68796D01*
X31027Y68786D01*
X31022Y68777D01*
X30990D01*
Y69176D01*
X31039D01*
Y68865D01*
D02*
G37*
G36*
X36302Y65526D02*
X36253D01*
Y65837D01*
X36253Y65836D01*
X36250Y65834D01*
X36246Y65831D01*
X36241Y65827D01*
X36234Y65821D01*
X36226Y65816D01*
X36217Y65809D01*
X36207Y65803D01*
X36206D01*
X36206Y65803D01*
X36202Y65800D01*
X36197Y65797D01*
X36190Y65793D01*
X36182Y65789D01*
X36174Y65786D01*
X36164Y65781D01*
X36156Y65778D01*
Y65826D01*
X36157D01*
X36158Y65826D01*
X36160Y65827D01*
X36163Y65829D01*
X36166Y65831D01*
X36171Y65833D01*
X36180Y65838D01*
X36191Y65845D01*
X36203Y65853D01*
X36215Y65862D01*
X36227Y65871D01*
X36227Y65872D01*
X36228Y65873D01*
X36232Y65876D01*
X36237Y65882D01*
X36244Y65888D01*
X36251Y65897D01*
X36258Y65906D01*
X36265Y65916D01*
X36270Y65925D01*
X36302D01*
Y65526D01*
D02*
G37*
G36*
X39309Y68865D02*
X39309Y68866D01*
X39312Y68868D01*
X39316Y68871D01*
X39321Y68875D01*
X39328Y68881D01*
X39336Y68886D01*
X39345Y68893D01*
X39355Y68899D01*
X39356D01*
X39356Y68900D01*
X39360Y68902D01*
X39365Y68905D01*
X39372Y68909D01*
X39380Y68913D01*
X39388Y68916D01*
X39398Y68921D01*
X39406Y68924D01*
Y68877D01*
X39405D01*
X39404Y68876D01*
X39402Y68875D01*
X39399Y68873D01*
X39396Y68871D01*
X39392Y68869D01*
X39382Y68864D01*
X39371Y68857D01*
X39359Y68849D01*
X39347Y68840D01*
X39335Y68831D01*
X39335Y68830D01*
X39334Y68829D01*
X39330Y68826D01*
X39325Y68820D01*
X39318Y68814D01*
X39311Y68805D01*
X39304Y68796D01*
X39297Y68786D01*
X39292Y68777D01*
X39260D01*
Y69176D01*
X39309D01*
Y68865D01*
D02*
G37*
G36*
X3322Y77886D02*
X3273D01*
Y78197D01*
X3273Y78196D01*
X3270Y78194D01*
X3266Y78191D01*
X3261Y78187D01*
X3254Y78181D01*
X3246Y78176D01*
X3237Y78169D01*
X3227Y78163D01*
X3226D01*
X3226Y78163D01*
X3222Y78160D01*
X3217Y78157D01*
X3210Y78153D01*
X3202Y78149D01*
X3194Y78146D01*
X3184Y78141D01*
X3176Y78138D01*
Y78186D01*
X3177D01*
X3178Y78186D01*
X3180Y78187D01*
X3183Y78189D01*
X3186Y78191D01*
X3191Y78193D01*
X3200Y78198D01*
X3211Y78205D01*
X3223Y78213D01*
X3235Y78222D01*
X3247Y78231D01*
X3247Y78232D01*
X3248Y78233D01*
X3252Y78236D01*
X3257Y78242D01*
X3264Y78248D01*
X3271Y78257D01*
X3278Y78266D01*
X3285Y78276D01*
X3290Y78285D01*
X3322D01*
Y77886D01*
D02*
G37*
G36*
X35174Y68865D02*
X35174Y68866D01*
X35177Y68868D01*
X35181Y68871D01*
X35186Y68875D01*
X35193Y68881D01*
X35201Y68886D01*
X35210Y68893D01*
X35220Y68899D01*
X35221D01*
X35221Y68900D01*
X35225Y68902D01*
X35230Y68905D01*
X35237Y68909D01*
X35245Y68913D01*
X35253Y68916D01*
X35263Y68921D01*
X35271Y68924D01*
Y68877D01*
X35270D01*
X35269Y68876D01*
X35267Y68875D01*
X35264Y68873D01*
X35261Y68871D01*
X35257Y68869D01*
X35247Y68864D01*
X35236Y68857D01*
X35224Y68849D01*
X35212Y68840D01*
X35200Y68831D01*
X35200Y68830D01*
X35199Y68829D01*
X35195Y68826D01*
X35190Y68820D01*
X35183Y68814D01*
X35176Y68805D01*
X35169Y68796D01*
X35162Y68786D01*
X35157Y68777D01*
X35125D01*
Y69176D01*
X35174D01*
Y68865D01*
D02*
G37*
G36*
X32167Y65526D02*
X32118D01*
Y65837D01*
X32118Y65836D01*
X32115Y65834D01*
X32111Y65831D01*
X32106Y65827D01*
X32099Y65821D01*
X32091Y65816D01*
X32082Y65809D01*
X32072Y65803D01*
X32071D01*
X32071Y65803D01*
X32067Y65800D01*
X32062Y65797D01*
X32055Y65793D01*
X32047Y65789D01*
X32039Y65786D01*
X32029Y65781D01*
X32021Y65778D01*
Y65826D01*
X32022D01*
X32023Y65826D01*
X32025Y65827D01*
X32028Y65829D01*
X32031Y65831D01*
X32036Y65833D01*
X32045Y65838D01*
X32056Y65845D01*
X32068Y65853D01*
X32080Y65862D01*
X32092Y65871D01*
X32092Y65872D01*
X32093Y65873D01*
X32097Y65876D01*
X32102Y65882D01*
X32109Y65888D01*
X32116Y65897D01*
X32123Y65906D01*
X32130Y65916D01*
X32135Y65925D01*
X32167D01*
Y65526D01*
D02*
G37*
G36*
X34532Y61066D02*
X34483D01*
Y61377D01*
X34483Y61376D01*
X34480Y61374D01*
X34476Y61371D01*
X34471Y61367D01*
X34464Y61361D01*
X34456Y61356D01*
X34447Y61349D01*
X34437Y61343D01*
X34436D01*
X34436Y61343D01*
X34432Y61340D01*
X34427Y61337D01*
X34420Y61333D01*
X34412Y61329D01*
X34404Y61326D01*
X34394Y61321D01*
X34386Y61318D01*
Y61365D01*
X34387D01*
X34388Y61366D01*
X34390Y61367D01*
X34393Y61369D01*
X34396Y61371D01*
X34401Y61373D01*
X34410Y61378D01*
X34421Y61385D01*
X34433Y61393D01*
X34445Y61402D01*
X34457Y61411D01*
X34457Y61412D01*
X34458Y61413D01*
X34462Y61416D01*
X34467Y61422D01*
X34474Y61428D01*
X34481Y61437D01*
X34488Y61446D01*
X34495Y61456D01*
X34500Y61465D01*
X34532D01*
Y61066D01*
D02*
G37*
G36*
X37662D02*
X37613D01*
Y61377D01*
X37613Y61376D01*
X37610Y61374D01*
X37606Y61371D01*
X37601Y61367D01*
X37594Y61361D01*
X37586Y61356D01*
X37577Y61349D01*
X37567Y61343D01*
X37566D01*
X37566Y61343D01*
X37562Y61340D01*
X37557Y61337D01*
X37550Y61333D01*
X37542Y61329D01*
X37534Y61326D01*
X37524Y61321D01*
X37516Y61318D01*
Y61365D01*
X37517D01*
X37518Y61366D01*
X37520Y61367D01*
X37523Y61369D01*
X37526Y61371D01*
X37531Y61373D01*
X37540Y61378D01*
X37551Y61385D01*
X37563Y61393D01*
X37575Y61402D01*
X37587Y61411D01*
X37587Y61412D01*
X37588Y61413D01*
X37592Y61416D01*
X37597Y61422D01*
X37604Y61428D01*
X37611Y61437D01*
X37618Y61446D01*
X37625Y61456D01*
X37630Y61465D01*
X37662D01*
Y61066D01*
D02*
G37*
G36*
X31382D02*
X31333D01*
Y61377D01*
X31333Y61376D01*
X31330Y61374D01*
X31326Y61371D01*
X31321Y61367D01*
X31314Y61361D01*
X31306Y61356D01*
X31297Y61349D01*
X31287Y61343D01*
X31286D01*
X31286Y61343D01*
X31282Y61340D01*
X31277Y61337D01*
X31270Y61333D01*
X31262Y61329D01*
X31254Y61326D01*
X31244Y61321D01*
X31236Y61318D01*
Y61365D01*
X31237D01*
X31238Y61366D01*
X31240Y61367D01*
X31243Y61369D01*
X31246Y61371D01*
X31251Y61373D01*
X31260Y61378D01*
X31271Y61385D01*
X31283Y61393D01*
X31295Y61402D01*
X31307Y61411D01*
X31307Y61412D01*
X31308Y61413D01*
X31312Y61416D01*
X31317Y61422D01*
X31324Y61428D01*
X31331Y61437D01*
X31338Y61446D01*
X31345Y61456D01*
X31350Y61465D01*
X31382D01*
Y61066D01*
D02*
G37*
G36*
X28032Y65526D02*
X27983D01*
Y65837D01*
X27983Y65836D01*
X27980Y65834D01*
X27976Y65831D01*
X27971Y65827D01*
X27964Y65821D01*
X27956Y65816D01*
X27947Y65809D01*
X27937Y65803D01*
X27936D01*
X27936Y65803D01*
X27932Y65800D01*
X27927Y65797D01*
X27920Y65793D01*
X27912Y65789D01*
X27904Y65786D01*
X27894Y65781D01*
X27886Y65778D01*
Y65826D01*
X27887D01*
X27888Y65826D01*
X27890Y65827D01*
X27893Y65829D01*
X27896Y65831D01*
X27901Y65833D01*
X27910Y65838D01*
X27921Y65845D01*
X27933Y65853D01*
X27945Y65862D01*
X27957Y65871D01*
X27957Y65872D01*
X27958Y65873D01*
X27962Y65876D01*
X27967Y65882D01*
X27974Y65888D01*
X27981Y65897D01*
X27988Y65906D01*
X27995Y65916D01*
X28000Y65925D01*
X28032D01*
Y65526D01*
D02*
G37*
G36*
X28212Y61066D02*
X28163D01*
Y61377D01*
X28163Y61376D01*
X28160Y61374D01*
X28156Y61371D01*
X28151Y61367D01*
X28144Y61361D01*
X28136Y61356D01*
X28127Y61349D01*
X28117Y61343D01*
X28116D01*
X28116Y61343D01*
X28112Y61340D01*
X28107Y61337D01*
X28100Y61333D01*
X28092Y61329D01*
X28084Y61326D01*
X28074Y61321D01*
X28066Y61318D01*
Y61365D01*
X28067D01*
X28068Y61366D01*
X28070Y61367D01*
X28073Y61369D01*
X28076Y61371D01*
X28081Y61373D01*
X28090Y61378D01*
X28101Y61385D01*
X28113Y61393D01*
X28125Y61402D01*
X28137Y61411D01*
X28137Y61412D01*
X28138Y61413D01*
X28142Y61416D01*
X28147Y61422D01*
X28154Y61428D01*
X28161Y61437D01*
X28168Y61446D01*
X28175Y61456D01*
X28180Y61465D01*
X28212D01*
Y61066D01*
D02*
G37*
D12*
X43561Y43211D02*
Y47611D01*
X2561Y43211D02*
Y47611D01*
X24611Y47511D02*
X43561D01*
X2561D02*
X21192D01*
X42961Y47711D02*
X43561Y47511D01*
X42961Y47311D02*
X43561Y47511D01*
X2561D02*
X3161Y47311D01*
X2561Y47511D02*
X3161Y47711D01*
X4061Y42322D02*
Y46081D01*
X42061Y42322D02*
Y46081D01*
X4061Y45981D02*
X21391D01*
X24411D02*
X42061D01*
X4061D02*
X4661Y45781D01*
X4061Y45981D02*
X4661Y46181D01*
X41461D02*
X42061Y45981D01*
X41461Y45781D02*
X42061Y45981D01*
X-2009Y4061D02*
X3300D01*
X-2009Y41561D02*
X3300D01*
X-1909Y4061D02*
Y21141D01*
Y24161D02*
Y41561D01*
Y4061D02*
X-1709Y4661D01*
X-2109D02*
X-1909Y4061D01*
X-2109Y40961D02*
X-1909Y41561D01*
X-1709Y40961D01*
X-4589Y43061D02*
X2461D01*
X-4589Y2561D02*
X2461D01*
X-4489Y24411D02*
Y43061D01*
Y2561D02*
Y20892D01*
X-4689Y42461D02*
X-4489Y43061D01*
X-4289Y42461D01*
X-4489Y2561D02*
X-4289Y3161D01*
X-4689D02*
X-4489Y2561D01*
X4061Y42322D02*
Y44621D01*
X2561Y43211D02*
Y44621D01*
X3311Y44521D02*
X4061D01*
X2561D02*
X3311D01*
X3461Y44721D02*
X4061Y44521D01*
X3461Y44321D02*
X4061Y44521D01*
X2561D02*
X3161Y44321D01*
X2561Y44521D02*
X3161Y44721D01*
X841Y41561D02*
X3300D01*
X841Y43061D02*
X2411D01*
X941Y41561D02*
Y42311D01*
Y43061D01*
Y41561D02*
X1141Y42161D01*
X741D02*
X941Y41561D01*
X741Y42461D02*
X941Y43061D01*
X1141Y42461D01*
X-3309Y2561D02*
X2461D01*
X-3309Y33911D02*
X2281D01*
X-3209Y2561D02*
Y16566D01*
Y19586D02*
Y33911D01*
Y2561D02*
X-3009Y3161D01*
X-3409D02*
X-3209Y2561D01*
X-3409Y33311D02*
X-3209Y33911D01*
X-3009Y33311D01*
X1065Y27884D02*
X7271D01*
X1065Y23231D02*
Y27884D01*
Y23231D02*
X7271D01*
Y27884D01*
X35451Y5691D02*
Y6683D01*
X37227Y5691D02*
Y6683D01*
X28361Y5661D02*
Y6653D01*
X30137Y5661D02*
Y6653D01*
X14476Y5663D02*
Y6656D01*
X16252Y5663D02*
Y6656D01*
X7596Y5663D02*
Y6656D01*
X9372Y5663D02*
Y6656D01*
X37307Y9451D02*
X38299D01*
X37307Y7675D02*
X38299D01*
X30218Y9451D02*
X31210D01*
X30218Y7675D02*
X31210D01*
X16041Y9451D02*
X17033D01*
X16041Y7675D02*
X17033D01*
X9072Y9451D02*
X10065D01*
X9072Y7675D02*
X10065D01*
X34717Y5699D02*
Y6691D01*
X32941Y5699D02*
Y6691D01*
X27628Y5669D02*
Y6661D01*
X25852Y5669D02*
Y6661D01*
X13746Y5669D02*
Y6661D01*
X11970Y5669D02*
Y6661D01*
X6876Y5669D02*
Y6661D01*
X5100Y5669D02*
Y6661D01*
X31727Y9451D02*
X32719D01*
X31727Y7675D02*
X32719D01*
X24638Y9451D02*
X25630D01*
X24638Y7675D02*
X25630D01*
X10461Y9451D02*
X11453D01*
X10461Y7675D02*
X11453D01*
X3492Y9451D02*
X4485D01*
X3492Y7675D02*
X4485D01*
X37634Y38415D02*
Y39407D01*
X39410Y38415D02*
Y39407D01*
X23043Y5663D02*
Y6656D01*
X21267Y5663D02*
Y6656D01*
X23132Y7675D02*
X24124D01*
X23132Y9451D02*
X24124D01*
X18766Y5669D02*
Y6661D01*
X20542Y5669D02*
Y6661D01*
X17552Y7675D02*
X18544D01*
X17552Y9451D02*
X18544D01*
X26431Y37691D02*
Y38683D01*
X28207Y37691D02*
Y38683D01*
X17599Y37221D02*
X18591D01*
X17599Y38997D02*
X18591D01*
X13599Y37241D02*
X14591D01*
X13599Y39017D02*
X14591D01*
X9609Y37241D02*
X10601D01*
X9609Y39017D02*
X10601D01*
X6091Y37481D02*
X7083D01*
X6091Y35705D02*
X7083D01*
X20601Y38301D02*
Y39293D01*
X22377Y38301D02*
Y39293D01*
X43561Y83711D02*
Y88111D01*
X2561Y83711D02*
Y88111D01*
X24611Y88011D02*
X43561D01*
X2561D02*
X21192D01*
X42961Y88211D02*
X43561Y88011D01*
X42961Y87811D02*
X43561Y88011D01*
X2561D02*
X3161Y87811D01*
X2561Y88011D02*
X3161Y88211D01*
X4061Y82822D02*
Y86581D01*
X42061Y82822D02*
Y86581D01*
X4061Y86481D02*
X21391D01*
X24411D02*
X42061D01*
X4061D02*
X4661Y86281D01*
X4061Y86481D02*
X4661Y86681D01*
X41461D02*
X42061Y86481D01*
X41461Y86281D02*
X42061Y86481D01*
X-2009Y44561D02*
X3300D01*
X-2009Y82061D02*
X3300D01*
X-1909Y44561D02*
Y61641D01*
Y64661D02*
Y82061D01*
Y44561D02*
X-1709Y45161D01*
X-2109D02*
X-1909Y44561D01*
X-2109Y81461D02*
X-1909Y82061D01*
X-1709Y81461D01*
X-4589Y83561D02*
X2461D01*
X-4589Y43061D02*
X2461D01*
X-4489Y64911D02*
Y83561D01*
Y43061D02*
Y61392D01*
X-4689Y82961D02*
X-4489Y83561D01*
X-4289Y82961D01*
X-4489Y43061D02*
X-4289Y43661D01*
X-4689D02*
X-4489Y43061D01*
X4061Y82822D02*
Y85121D01*
X2561Y83711D02*
Y85121D01*
X3311Y85021D02*
X4061D01*
X2561D02*
X3311D01*
X3461Y85221D02*
X4061Y85021D01*
X3461Y84821D02*
X4061Y85021D01*
X2561D02*
X3161Y84821D01*
X2561Y85021D02*
X3161Y85221D01*
X841Y82061D02*
X3300D01*
X841Y83561D02*
X2411D01*
X941Y82061D02*
Y82811D01*
Y83561D01*
Y82061D02*
X1141Y82661D01*
X741D02*
X941Y82061D01*
X741Y82961D02*
X941Y83561D01*
X1141Y82961D01*
X-3309Y43061D02*
X2461D01*
X-3309Y74411D02*
X2281D01*
X-3209Y43061D02*
Y57066D01*
Y60086D02*
Y74411D01*
Y43061D02*
X-3009Y43661D01*
X-3409D02*
X-3209Y43061D01*
X-3409Y73811D02*
X-3209Y74411D01*
X-3009Y73811D01*
X1065Y68384D02*
X7271D01*
X1065Y63731D02*
Y68384D01*
Y63731D02*
X7271D01*
Y68384D01*
X35451Y46191D02*
Y47183D01*
X37227Y46191D02*
Y47183D01*
X28361Y46161D02*
Y47153D01*
X30137Y46161D02*
Y47153D01*
X14476Y46163D02*
Y47156D01*
X16252Y46163D02*
Y47156D01*
X7596Y46163D02*
Y47156D01*
X9372Y46163D02*
Y47156D01*
X37307Y49951D02*
X38299D01*
X37307Y48175D02*
X38299D01*
X30218Y49951D02*
X31210D01*
X30218Y48175D02*
X31210D01*
X16041Y49951D02*
X17033D01*
X16041Y48175D02*
X17033D01*
X9072Y49951D02*
X10065D01*
X9072Y48175D02*
X10065D01*
X34717Y46199D02*
Y47191D01*
X32941Y46199D02*
Y47191D01*
X27628Y46169D02*
Y47161D01*
X25852Y46169D02*
Y47161D01*
X13746Y46169D02*
Y47161D01*
X11970Y46169D02*
Y47161D01*
X6876Y46169D02*
Y47161D01*
X5100Y46169D02*
Y47161D01*
X31727Y49951D02*
X32719D01*
X31727Y48175D02*
X32719D01*
X24638Y49951D02*
X25630D01*
X24638Y48175D02*
X25630D01*
X10461Y49951D02*
X11453D01*
X10461Y48175D02*
X11453D01*
X3492Y49951D02*
X4485D01*
X3492Y48175D02*
X4485D01*
X37634Y78915D02*
Y79907D01*
X39410Y78915D02*
Y79907D01*
X23043Y46163D02*
Y47156D01*
X21267Y46163D02*
Y47156D01*
X23132Y48175D02*
X24124D01*
X23132Y49951D02*
X24124D01*
X18766Y46169D02*
Y47161D01*
X20542Y46169D02*
Y47161D01*
X17552Y48175D02*
X18544D01*
X17552Y49951D02*
X18544D01*
X26431Y78191D02*
Y79183D01*
X28207Y78191D02*
Y79183D01*
X17599Y77721D02*
X18591D01*
X17599Y79497D02*
X18591D01*
X13599Y77741D02*
X14591D01*
X13599Y79517D02*
X14591D01*
X9609Y77741D02*
X10601D01*
X9609Y79517D02*
X10601D01*
X6091Y77981D02*
X7083D01*
X6091Y76205D02*
X7083D01*
X20601Y78801D02*
Y79793D01*
X22377Y78801D02*
Y79793D01*
D72*
X23816Y34731D02*
G03*
X23816Y34731I-130J0D01*
G01*
X15261Y35531D02*
G03*
X15261Y35531I-130J0D01*
G01*
X11251D02*
G03*
X11251Y35531I-130J0D01*
G01*
X7266D02*
G03*
X7266Y35531I-130J0D01*
G01*
X23881Y34964D02*
Y36501D01*
Y34964D02*
X25776D01*
Y36501D01*
X15326Y35764D02*
Y37301D01*
Y35764D02*
X17221D01*
Y37301D01*
X11316Y35764D02*
Y37301D01*
Y35764D02*
X13211D01*
Y37301D01*
X7331Y35764D02*
Y37301D01*
Y35764D02*
X9226D01*
Y37301D01*
X23816Y75231D02*
G03*
X23816Y75231I-130J0D01*
G01*
X15261Y76031D02*
G03*
X15261Y76031I-130J0D01*
G01*
X11251D02*
G03*
X11251Y76031I-130J0D01*
G01*
X7266D02*
G03*
X7266Y76031I-130J0D01*
G01*
X23881Y75464D02*
Y77001D01*
Y75464D02*
X25776D01*
Y77001D01*
X15326Y76264D02*
Y77801D01*
Y76264D02*
X17221D01*
Y77801D01*
X11316Y76264D02*
Y77801D01*
Y76264D02*
X13211D01*
Y77801D01*
X7331Y76264D02*
Y77801D01*
Y76264D02*
X9226D01*
Y77801D01*
D123*
X10114Y22633D02*
X10468D01*
X15964Y20493D02*
X16318D01*
X23814Y29199D02*
X24168D01*
X36924Y18999D02*
X37278D01*
X34394Y18693D02*
X34748D01*
X31934Y19009D02*
X32288D01*
X29424Y18993D02*
X29778D01*
X36924Y19749D02*
X37278D01*
X34394Y19443D02*
X34748D01*
X31934Y19759D02*
X32288D01*
X29424Y19743D02*
X29778D01*
X39513Y19024D02*
Y19378D01*
X26334Y38893D02*
X26688D01*
X16834Y39169D02*
X17188D01*
X12834Y39169D02*
X13188D01*
X8804Y39169D02*
X9158D01*
X19104Y39169D02*
X19458D01*
X6784Y38893D02*
X7138D01*
X3881Y31325D02*
X4238D01*
X3881Y31821D02*
X4248D01*
X13111Y25431D02*
X13401D01*
X13101Y25951D02*
X13401D01*
X16001Y20241D02*
X16291D01*
X16001Y19721D02*
X16301D01*
X24045Y29476D02*
X24335D01*
X24035Y29996D02*
X24335D01*
X5945Y38434D02*
Y38791D01*
X6441Y38424D02*
Y38791D01*
X38191Y18879D02*
X38509D01*
Y19351D01*
X38191D02*
X38509D01*
X38191Y18879D02*
Y19351D01*
X35671Y18829D02*
Y19301D01*
X35989D01*
Y18829D02*
Y19301D01*
X35671Y18829D02*
X35989D01*
X33201Y18889D02*
X33519D01*
Y19361D01*
X33201D02*
X33519D01*
X33201Y18889D02*
Y19361D01*
X30691Y18873D02*
Y19345D01*
X31009D01*
Y18873D02*
Y19345D01*
X30691Y18873D02*
X31009D01*
X37694Y19343D02*
X38011D01*
X37694Y18871D02*
Y19343D01*
Y18871D02*
X38011D01*
Y19343D01*
X35481Y18841D02*
Y19313D01*
X35164Y18841D02*
X35481D01*
X35164D02*
Y19313D01*
X35481D01*
X33021Y18881D02*
Y19353D01*
X32704Y18881D02*
X33021D01*
X32704D02*
Y19353D01*
X33021D01*
X30194Y19338D02*
X30511D01*
X30194Y18865D02*
Y19338D01*
Y18865D02*
X30511D01*
Y19338D01*
X42855Y13058D02*
Y15618D01*
X40097Y13058D02*
Y15618D01*
X28651Y33111D02*
Y35671D01*
X31409Y33111D02*
Y35671D01*
X27151Y42151D02*
X29711D01*
X27151Y39393D02*
X29711D01*
X25917Y38441D02*
Y38798D01*
X25421Y38441D02*
Y38808D01*
X16621Y38205D02*
X16978D01*
X16621Y38701D02*
X16988D01*
X3881Y30105D02*
X4238D01*
X3881Y30601D02*
X4248D01*
X12631Y38205D02*
X12988D01*
X12631Y38701D02*
X12998D01*
X8611Y38205D02*
X8968D01*
X8611Y38701D02*
X8978D01*
X19307Y37801D02*
Y38158D01*
X18811Y37801D02*
Y38168D01*
X3881Y30715D02*
X4238D01*
X3881Y31211D02*
X4248D01*
X17814Y29373D02*
X18168D01*
X18633Y29454D02*
Y29808D01*
X36344Y42305D02*
X36634D01*
X36344Y41785D02*
X36644D01*
X33483Y41616D02*
Y41906D01*
X32963Y41606D02*
Y41906D01*
X36716Y40918D02*
Y41272D01*
X40674Y12059D02*
X41028D01*
X40674Y11519D02*
X41028D01*
X14644Y25573D02*
X14998D01*
X15513Y24184D02*
Y24538D01*
X32123Y30014D02*
Y30368D01*
X32903Y30014D02*
Y30368D01*
X15404Y19173D02*
X15758D01*
X23781Y30268D02*
X24136D01*
X23145Y7169D02*
X23499D01*
X23844Y5984D02*
Y6338D01*
X18305Y7159D02*
X18659D01*
X17664Y5984D02*
Y6338D01*
X4812Y21701D02*
X5102D01*
X4802Y22221D02*
X5102D01*
X37320Y7169D02*
X37674D01*
X30231D02*
X30585D01*
X16054D02*
X16408D01*
X9085D02*
X9440D01*
X38019Y5984D02*
Y6338D01*
X30633Y5834D02*
Y6188D01*
X17048Y5984D02*
Y6338D01*
X10278Y5984D02*
Y6338D01*
X32480Y7159D02*
X32834D01*
X25391D02*
X25745D01*
X11263D02*
X11617D01*
X4244Y7169D02*
X4598D01*
X31853Y5984D02*
Y6338D01*
X24750Y5984D02*
Y6338D01*
X10878Y5917D02*
Y6272D01*
X3467Y6439D02*
Y6793D01*
X24644Y39169D02*
X24998D01*
X15824Y39169D02*
X16178D01*
X11814Y39169D02*
X12168D01*
X7794Y38893D02*
X8148D01*
X21364Y38079D02*
X21718D01*
X5364Y35369D02*
X5718D01*
X15513Y23184D02*
Y23538D01*
X22228Y10123D02*
X22582D01*
X18494Y10229D02*
X18848D01*
X36403Y10113D02*
X36757D01*
X29314D02*
X29668D01*
X15137D02*
X15491D01*
X8168D02*
X8523D01*
X32670Y10239D02*
X33024D01*
X25581D02*
X25935D01*
X11404D02*
X11758D01*
X4435D02*
X4790D01*
X28518Y31937D02*
Y32227D01*
X29037Y31937D02*
Y32237D01*
X28724Y36989D02*
X29078D01*
X28724Y37539D02*
X29078D01*
X7693Y29834D02*
Y30188D01*
X4834Y29209D02*
X5188D01*
X12924Y31833D02*
X13278D01*
X12924Y26773D02*
X13278D01*
X10114Y63133D02*
X10468D01*
X15964Y60993D02*
X16318D01*
X23814Y69699D02*
X24168D01*
X36924Y59499D02*
X37278D01*
X34394Y59193D02*
X34748D01*
X31934Y59509D02*
X32288D01*
X29424Y59493D02*
X29778D01*
X36924Y60249D02*
X37278D01*
X34394Y59943D02*
X34748D01*
X31934Y60259D02*
X32288D01*
X29424Y60243D02*
X29778D01*
X39513Y59524D02*
Y59878D01*
X26334Y79393D02*
X26688D01*
X16834Y79669D02*
X17188D01*
X12834Y79669D02*
X13188D01*
X8804Y79669D02*
X9158D01*
X19104Y79669D02*
X19458D01*
X6784Y79393D02*
X7138D01*
X3881Y71825D02*
X4238D01*
X3881Y72321D02*
X4248D01*
X13111Y65931D02*
X13401D01*
X13101Y66451D02*
X13401D01*
X16001Y60741D02*
X16291D01*
X16001Y60221D02*
X16301D01*
X24045Y69976D02*
X24335D01*
X24035Y70496D02*
X24335D01*
X5945Y78934D02*
Y79291D01*
X6441Y78924D02*
Y79291D01*
X38191Y59379D02*
X38509D01*
Y59851D01*
X38191D02*
X38509D01*
X38191Y59379D02*
Y59851D01*
X35671Y59329D02*
Y59801D01*
X35989D01*
Y59329D02*
Y59801D01*
X35671Y59329D02*
X35989D01*
X33201Y59389D02*
X33519D01*
Y59861D01*
X33201D02*
X33519D01*
X33201Y59389D02*
Y59861D01*
X30691Y59373D02*
Y59845D01*
X31009D01*
Y59373D02*
Y59845D01*
X30691Y59373D02*
X31009D01*
X37694Y59843D02*
X38011D01*
X37694Y59371D02*
Y59843D01*
Y59371D02*
X38011D01*
Y59843D01*
X35481Y59341D02*
Y59813D01*
X35164Y59341D02*
X35481D01*
X35164D02*
Y59813D01*
X35481D01*
X33021Y59381D02*
Y59853D01*
X32704Y59381D02*
X33021D01*
X32704D02*
Y59853D01*
X33021D01*
X30194Y59838D02*
X30511D01*
X30194Y59365D02*
Y59838D01*
Y59365D02*
X30511D01*
Y59838D01*
X42855Y53558D02*
Y56118D01*
X40097Y53558D02*
Y56118D01*
X28651Y73611D02*
Y76171D01*
X31409Y73611D02*
Y76171D01*
X27151Y82651D02*
X29711D01*
X27151Y79893D02*
X29711D01*
X25917Y78941D02*
Y79298D01*
X25421Y78941D02*
Y79308D01*
X16621Y78705D02*
X16978D01*
X16621Y79201D02*
X16988D01*
X3881Y70605D02*
X4238D01*
X3881Y71101D02*
X4248D01*
X12631Y78705D02*
X12988D01*
X12631Y79201D02*
X12998D01*
X8611Y78705D02*
X8968D01*
X8611Y79201D02*
X8978D01*
X19307Y78301D02*
Y78658D01*
X18811Y78301D02*
Y78668D01*
X3881Y71215D02*
X4238D01*
X3881Y71711D02*
X4248D01*
X17814Y69873D02*
X18168D01*
X18633Y69954D02*
Y70308D01*
X36344Y82805D02*
X36634D01*
X36344Y82285D02*
X36644D01*
X33483Y82116D02*
Y82406D01*
X32963Y82106D02*
Y82406D01*
X36716Y81418D02*
Y81772D01*
X40674Y52559D02*
X41028D01*
X40674Y52019D02*
X41028D01*
X14644Y66073D02*
X14998D01*
X15513Y64684D02*
Y65038D01*
X32123Y70514D02*
Y70868D01*
X32903Y70514D02*
Y70868D01*
X15404Y59673D02*
X15758D01*
X23781Y70768D02*
X24136D01*
X23145Y47669D02*
X23499D01*
X23844Y46484D02*
Y46838D01*
X18305Y47659D02*
X18659D01*
X17664Y46484D02*
Y46838D01*
X4812Y62201D02*
X5102D01*
X4802Y62721D02*
X5102D01*
X37320Y47669D02*
X37674D01*
X30231D02*
X30585D01*
X16054D02*
X16408D01*
X9085D02*
X9440D01*
X38019Y46484D02*
Y46838D01*
X30633Y46334D02*
Y46688D01*
X17048Y46484D02*
Y46838D01*
X10278Y46484D02*
Y46838D01*
X32480Y47659D02*
X32834D01*
X25391D02*
X25745D01*
X11263D02*
X11617D01*
X4244Y47669D02*
X4598D01*
X31853Y46484D02*
Y46838D01*
X24750Y46484D02*
Y46838D01*
X10878Y46417D02*
Y46772D01*
X3467Y46939D02*
Y47293D01*
X24644Y79669D02*
X24998D01*
X15824Y79669D02*
X16178D01*
X11814Y79669D02*
X12168D01*
X7794Y79393D02*
X8148D01*
X21364Y78579D02*
X21718D01*
X5364Y75869D02*
X5718D01*
X15513Y63684D02*
Y64038D01*
X22228Y50623D02*
X22582D01*
X18494Y50729D02*
X18848D01*
X36403Y50613D02*
X36757D01*
X29314D02*
X29668D01*
X15137D02*
X15491D01*
X8168D02*
X8523D01*
X32670Y50739D02*
X33024D01*
X25581D02*
X25935D01*
X11404D02*
X11758D01*
X4435D02*
X4790D01*
X28518Y72437D02*
Y72727D01*
X29037Y72437D02*
Y72737D01*
X28724Y77489D02*
X29078D01*
X28724Y78039D02*
X29078D01*
X7693Y70334D02*
Y70688D01*
X4834Y69709D02*
X5188D01*
X12924Y72333D02*
X13278D01*
X12924Y67273D02*
X13278D01*
D124*
X42091Y7111D02*
G03*
X42091Y7111I-350J0D01*
G01*
Y8111D02*
G03*
X42091Y8111I-350J0D01*
G01*
Y9111D02*
G03*
X42091Y9111I-350J0D01*
G01*
Y10111D02*
G03*
X42091Y10111I-350J0D01*
G01*
X36361Y4011D02*
G03*
X36361Y4011I-350J0D01*
G01*
X37361D02*
G03*
X37361Y4011I-350J0D01*
G01*
X38361D02*
G03*
X38361Y4011I-350J0D01*
G01*
X39361D02*
G03*
X39361Y4011I-350J0D01*
G01*
X30411D02*
G03*
X30411Y4011I-350J0D01*
G01*
X31411D02*
G03*
X31411Y4011I-350J0D01*
G01*
X32411D02*
G03*
X32411Y4011I-350J0D01*
G01*
X33411D02*
G03*
X33411Y4011I-350J0D01*
G01*
X13361D02*
G03*
X13361Y4011I-350J0D01*
G01*
X14361D02*
G03*
X14361Y4011I-350J0D01*
G01*
X15361D02*
G03*
X15361Y4011I-350J0D01*
G01*
X16361D02*
G03*
X16361Y4011I-350J0D01*
G01*
X7461D02*
G03*
X7461Y4011I-350J0D01*
G01*
X8461D02*
G03*
X8461Y4011I-350J0D01*
G01*
X9461D02*
G03*
X9461Y4011I-350J0D01*
G01*
X10461D02*
G03*
X10461Y4011I-350J0D01*
G01*
X22411D02*
G03*
X22411Y4011I-350J0D01*
G01*
X21411D02*
G03*
X21411Y4011I-350J0D01*
G01*
X20411D02*
G03*
X20411Y4011I-350J0D01*
G01*
X19411D02*
G03*
X19411Y4011I-350J0D01*
G01*
X27511D02*
G03*
X27511Y4011I-350J0D01*
G01*
X26511D02*
G03*
X26511Y4011I-350J0D01*
G01*
X25511D02*
G03*
X25511Y4011I-350J0D01*
G01*
X24511D02*
G03*
X24511Y4011I-350J0D01*
G01*
X39561Y17111D02*
G03*
X39561Y17111I-350J0D01*
G01*
X35561D02*
G03*
X35561Y17111I-350J0D01*
G01*
X36561D02*
G03*
X36561Y17111I-350J0D01*
G01*
X37561D02*
G03*
X37561Y17111I-350J0D01*
G01*
X38561D02*
G03*
X38561Y17111I-350J0D01*
G01*
X34004Y38795D02*
Y38991D01*
X34182Y38795D02*
Y38991D01*
X33631Y38791D02*
Y38987D01*
X33453Y38791D02*
Y38987D01*
X24221Y10705D02*
X24417D01*
X24221Y10883D02*
X24417D01*
X7059Y21969D02*
Y22165D01*
X7238Y21969D02*
Y22165D01*
X5854Y21971D02*
Y22167D01*
X6032Y21971D02*
Y22167D01*
X8053Y21972D02*
Y22169D01*
X7875Y21972D02*
Y22169D01*
X8820Y22976D02*
Y23173D01*
X8642Y22976D02*
Y23173D01*
X3581Y28365D02*
Y28561D01*
X3759Y28365D02*
Y28561D01*
X41591Y6811D02*
X41891Y7411D01*
X41491Y7911D02*
X41991Y8311D01*
X41641Y9411D02*
X41791Y8811D01*
X41541Y10361D02*
X41991Y9911D01*
X3911Y32461D02*
X4961D01*
X3911Y35361D02*
X4961D01*
Y35261D02*
Y35361D01*
X3911Y35261D02*
X4961D01*
X3911Y32561D02*
X4961D01*
Y32461D02*
Y32561D01*
X3561Y34211D02*
Y34561D01*
X3411Y33711D02*
X3561Y34211D01*
Y33261D02*
Y33711D01*
X3261Y33911D02*
X3411D01*
X3261D02*
Y34011D01*
Y33811D02*
Y33911D01*
X3111Y35261D02*
X3711D01*
X3111Y32561D02*
X3711D01*
X2261Y34411D02*
X2411D01*
X2261Y33411D02*
Y34411D01*
Y33411D02*
X2411D01*
X4013Y28361D02*
Y28557D01*
X4191Y28361D02*
Y28557D01*
X9061Y28201D02*
X9257D01*
X9061Y28379D02*
X9257D01*
X14611Y28371D02*
X14807D01*
X14611Y28549D02*
X14807D01*
X9061Y28641D02*
X9257D01*
X9061Y28819D02*
X9257D01*
X14601Y27821D02*
X14797D01*
X14601Y27999D02*
X14797D01*
X16073Y27211D02*
Y27407D01*
X16251Y27211D02*
Y27407D01*
X15601Y28541D02*
Y28737D01*
X15423Y28541D02*
Y28737D01*
X16211Y24291D02*
X16407D01*
X16211Y24469D02*
X16407D01*
X15421Y27615D02*
Y27811D01*
X15599Y27615D02*
Y27811D01*
X3595Y22163D02*
X3791D01*
X3595Y22341D02*
X3791D01*
X8830Y21972D02*
Y22169D01*
X8652Y21972D02*
Y22169D01*
X33253Y40181D02*
Y40377D01*
X33431Y40181D02*
Y40377D01*
X33084Y40983D02*
X33281D01*
X33084Y40805D02*
X33281D01*
X5074Y31483D02*
X5271D01*
X5074Y31661D02*
X5271D01*
X21597Y14061D02*
Y14257D01*
X21775Y14061D02*
Y14257D01*
X22203Y14065D02*
Y14261D01*
X22025Y14065D02*
Y14261D01*
X18320Y10862D02*
Y11058D01*
X18142Y10862D02*
Y11058D01*
X23621Y10871D02*
Y11067D01*
X23443Y10871D02*
Y11067D01*
X26241Y34175D02*
X26437D01*
X26241Y33997D02*
X26437D01*
X26459Y32057D02*
Y32254D01*
X26637Y32057D02*
Y32254D01*
X17649Y35415D02*
Y35611D01*
X17471Y35415D02*
Y35611D01*
X28307Y29746D02*
X28504D01*
X28307Y29567D02*
X28504D01*
X13639Y35398D02*
Y35594D01*
X13461Y35398D02*
Y35594D01*
X25701Y30266D02*
Y30463D01*
X25879Y30266D02*
Y30463D01*
X9614Y35398D02*
Y35594D01*
X9436Y35398D02*
Y35594D01*
X20713Y37441D02*
Y37637D01*
X20891Y37441D02*
Y37637D01*
X20899Y36665D02*
Y36861D01*
X20721Y36665D02*
Y36861D01*
X9861Y34321D02*
Y34517D01*
X9683Y34321D02*
Y34517D01*
X7621Y34709D02*
X7817D01*
X7621Y34531D02*
X7817D01*
X8009Y33915D02*
Y34111D01*
X7831Y33915D02*
Y34111D01*
X35773Y14061D02*
Y14257D01*
X35951Y14061D02*
Y14257D01*
X28683Y14061D02*
Y14257D01*
X28861Y14061D02*
Y14257D01*
X14506Y14061D02*
Y14257D01*
X14684Y14061D02*
Y14257D01*
X7517Y14061D02*
Y14257D01*
X7695Y14061D02*
Y14257D01*
X36379Y14065D02*
Y14261D01*
X36201Y14065D02*
Y14261D01*
X29289Y14065D02*
Y14261D01*
X29111Y14065D02*
Y14261D01*
X15112Y14065D02*
Y14261D01*
X14934Y14065D02*
Y14261D01*
X8124Y14065D02*
Y14261D01*
X7945Y14065D02*
Y14261D01*
X32317Y10862D02*
Y11058D01*
X32495Y10862D02*
Y11058D01*
X25228Y10862D02*
Y11058D01*
X25406Y10862D02*
Y11058D01*
X11051Y10862D02*
Y11058D01*
X11229Y10862D02*
Y11058D01*
X4082Y10862D02*
Y11058D01*
X4261Y10862D02*
Y11058D01*
X37391Y10881D02*
Y11077D01*
X37213Y10881D02*
Y11077D01*
X30311Y10881D02*
Y11077D01*
X30133Y10881D02*
Y11077D01*
X17141Y9931D02*
X17337D01*
X17141Y10109D02*
X17337D01*
X10031Y9921D02*
X10227D01*
X10031Y10099D02*
X10227D01*
X38401Y10711D02*
X38597D01*
X38401Y10889D02*
X38597D01*
X31291Y10701D02*
X31487D01*
X31291Y10879D02*
X31487D01*
X17141Y10711D02*
X17337D01*
X17141Y10889D02*
X17337D01*
X10031Y10711D02*
X10227D01*
X10031Y10889D02*
X10227D01*
X35825Y23171D02*
X36021D01*
X35825Y22993D02*
X36021D01*
X31885Y23171D02*
X32081D01*
X31885Y22993D02*
X32081D01*
X28495Y23651D02*
X28691D01*
X28495Y23473D02*
X28691D01*
X37505Y23171D02*
X37701D01*
X37505Y22993D02*
X37701D01*
X33535Y23171D02*
X33731D01*
X33535Y22993D02*
X33731D01*
X30085Y23171D02*
X30281D01*
X30085Y22993D02*
X30281D01*
X5071Y30439D02*
X5267D01*
X5071Y30261D02*
X5267D01*
X5071Y31049D02*
X5267D01*
X5071Y30871D02*
X5267D01*
X35711Y4161D02*
X36311Y3861D01*
X36811Y4261D02*
X37211Y3761D01*
X37711Y3961D02*
X38311Y4111D01*
X38811Y3761D02*
X39261Y4211D01*
X29761Y4161D02*
X30361Y3861D01*
X30861Y4261D02*
X31261Y3761D01*
X31761Y3961D02*
X32361Y4111D01*
X32861Y3761D02*
X33311Y4211D01*
X12711Y4161D02*
X13311Y3861D01*
X13811Y4261D02*
X14211Y3761D01*
X14711Y3961D02*
X15311Y4111D01*
X15811Y3761D02*
X16261Y4211D01*
X6811Y4161D02*
X7411Y3861D01*
X7911Y4261D02*
X8311Y3761D01*
X8811Y3961D02*
X9411Y4111D01*
X9911Y3761D02*
X10361Y4211D01*
X21861Y3761D02*
X22311Y4211D01*
X20761Y3961D02*
X21361Y4111D01*
X19861Y4261D02*
X20261Y3761D01*
X18761Y4161D02*
X19361Y3861D01*
X26961Y3761D02*
X27411Y4211D01*
X25861Y3961D02*
X26461Y4111D01*
X24961Y4261D02*
X25361Y3761D01*
X23861Y4161D02*
X24461Y3861D01*
X3584Y29181D02*
X3821Y29024D01*
Y29341D01*
X3584Y29181D02*
X3821Y29341D01*
X3387Y28905D02*
Y29461D01*
Y28905D02*
X4181D01*
Y29461D01*
X3387D02*
X4181D01*
X33643Y10421D02*
X33840D01*
X33643Y10243D02*
X33840D01*
X26555Y10421D02*
X26751D01*
X26555Y10243D02*
X26751D01*
X12378Y10451D02*
X12574D01*
X12378Y10273D02*
X12574D01*
X5409Y10421D02*
X5605D01*
X5409Y10243D02*
X5605D01*
X9273Y30921D02*
Y31117D01*
X9451Y30921D02*
Y31117D01*
X9071Y30309D02*
X9267D01*
X9071Y30131D02*
X9267D01*
X14373Y30821D02*
Y31017D01*
X14551Y30821D02*
Y31017D01*
X17529Y18945D02*
Y19141D01*
X17351Y18945D02*
Y19141D01*
X38401Y10311D02*
X38597D01*
X38401Y10489D02*
X38597D01*
X31291Y10311D02*
X31487D01*
X31291Y10489D02*
X31487D01*
X17141Y10321D02*
X17337D01*
X17141Y10499D02*
X17337D01*
X10031Y10311D02*
X10227D01*
X10031Y10489D02*
X10227D01*
X16491Y27205D02*
Y27401D01*
X16669Y27205D02*
Y27401D01*
X20001Y29834D02*
Y30031D01*
X20179Y29834D02*
Y30031D01*
X36261Y18949D02*
Y19145D01*
X36439Y18949D02*
Y19145D01*
X33731Y18919D02*
Y19115D01*
X33909Y18919D02*
Y19115D01*
X31449Y18959D02*
Y19155D01*
X31271Y18959D02*
Y19155D01*
X28939Y18943D02*
Y19140D01*
X28761Y18943D02*
Y19140D01*
X3595Y22741D02*
X3791D01*
X3595Y22563D02*
X3791D01*
X33848Y39905D02*
X34044D01*
X33848Y39727D02*
X34044D01*
X39851Y41575D02*
Y41771D01*
X40029Y41575D02*
Y41771D01*
X28311Y31127D02*
X28507D01*
X28311Y30949D02*
X28507D01*
X28311Y30697D02*
X28507D01*
X28311Y30519D02*
X28507D01*
X27589Y32225D02*
X27785D01*
X27589Y32403D02*
X27785D01*
X24485Y18833D02*
X24681D01*
X24485Y19011D02*
X24681D01*
X26319Y23665D02*
Y23861D01*
X26141Y23665D02*
Y23861D01*
X22521Y28969D02*
X22717D01*
X22521Y28791D02*
X22717D01*
X35825Y23641D02*
X36021D01*
X35825Y23463D02*
X36021D01*
X31885Y23651D02*
X32081D01*
X31885Y23473D02*
X32081D01*
X28495Y23171D02*
X28691D01*
X28495Y22993D02*
X28691D01*
X15981Y22249D02*
X16177D01*
X15981Y22071D02*
X16177D01*
X16311Y26809D02*
X16507D01*
X16311Y26631D02*
X16507D01*
X15991Y22649D02*
X16187D01*
X15991Y22471D02*
X16187D01*
X16463Y25651D02*
Y25847D01*
X16641Y25651D02*
Y25847D01*
X23893Y18861D02*
Y19057D01*
X24071Y18861D02*
Y19057D01*
X26133Y22661D02*
Y22857D01*
X26311Y22661D02*
Y22857D01*
X37505Y23641D02*
X37701D01*
X37505Y23463D02*
X37701D01*
X33535Y23641D02*
X33731D01*
X33535Y23463D02*
X33731D01*
X30085Y23651D02*
X30281D01*
X30085Y23473D02*
X30281D01*
X23299Y28965D02*
Y29161D01*
X23121Y28965D02*
Y29161D01*
X16649Y24875D02*
Y25071D01*
X16471Y24875D02*
Y25071D01*
X16365Y19233D02*
X16561D01*
X16365Y19411D02*
X16561D01*
X18435Y28753D02*
X18631D01*
X18435Y28931D02*
X18631D01*
X16323Y23121D02*
Y23317D01*
X16501Y23121D02*
Y23317D01*
X22497Y14061D02*
Y14257D01*
X22675Y14061D02*
Y14257D01*
X18557Y10861D02*
Y11057D01*
X18735Y10861D02*
Y11057D01*
X19469Y10421D02*
X19665D01*
X19469Y10243D02*
X19665D01*
X24221Y10099D02*
X24417D01*
X24221Y9921D02*
X24417D01*
X22741Y36649D02*
X22937D01*
X22741Y36471D02*
X22937D01*
X9864Y33469D02*
Y33666D01*
X9686Y33469D02*
Y33666D01*
X36841Y14061D02*
Y14257D01*
X36663Y14061D02*
Y14257D01*
X29761Y14061D02*
Y14257D01*
X29583Y14061D02*
Y14257D01*
X15581Y14061D02*
Y14257D01*
X15403Y14061D02*
Y14257D01*
X8595Y14061D02*
Y14257D01*
X8417Y14061D02*
Y14257D01*
X32910Y10861D02*
Y11057D01*
X32732Y10861D02*
Y11057D01*
X25821Y10861D02*
Y11057D01*
X25643Y10861D02*
Y11057D01*
X11644Y10861D02*
Y11057D01*
X11466Y10861D02*
Y11057D01*
X4675Y10861D02*
Y11057D01*
X4497Y10861D02*
Y11057D01*
X33160Y18101D02*
X33356D01*
X33160Y18279D02*
X33356D01*
X22976Y15151D02*
X23173D01*
X22976Y14973D02*
X23173D01*
X30188Y16697D02*
Y16893D01*
X30366Y16697D02*
Y16893D01*
X28104Y15988D02*
X28301D01*
X28104Y15809D02*
X28301D01*
X17839Y15456D02*
X18035D01*
X17839Y15278D02*
X18035D01*
X10329Y15840D02*
X10525D01*
X10329Y15662D02*
X10525D01*
X19611Y36361D02*
Y37481D01*
Y36361D02*
X20131D01*
Y37481D01*
X19611D02*
X20131D01*
X25621Y18641D02*
X25817D01*
X25621Y18819D02*
X25817D01*
X25615Y19221D02*
X25811D01*
X25615Y19043D02*
X25811D01*
X25631Y17951D02*
X25827D01*
X25631Y18129D02*
X25827D01*
X5855Y32201D02*
X6051D01*
X5855Y32023D02*
X6051D01*
X3291Y12531D02*
X3487D01*
X3291Y12709D02*
X3487D01*
X4811Y39495D02*
Y39691D01*
X4989Y39495D02*
Y39691D01*
X6001Y3461D02*
Y3657D01*
X5823Y3461D02*
Y3657D01*
X42100Y39657D02*
X42297D01*
X42100Y39479D02*
X42297D01*
X41205Y5931D02*
X41401D01*
X41205Y5753D02*
X41401D01*
X42270Y38118D02*
X42466D01*
X42270Y37939D02*
X42466D01*
X42266Y38338D02*
X42463D01*
X42266Y38516D02*
X42463D01*
X36675Y22993D02*
X36871D01*
X36675Y23171D02*
X36871D01*
X32715Y22993D02*
X32911D01*
X32715Y23171D02*
X32911D01*
X29285Y22992D02*
X29481D01*
X29285Y23170D02*
X29481D01*
X38335Y22993D02*
X38531D01*
X38335Y23171D02*
X38531D01*
X34365Y22993D02*
X34561D01*
X34365Y23171D02*
X34561D01*
X30905Y22993D02*
X31101D01*
X30905Y23171D02*
X31101D01*
X38911Y17261D02*
X39511Y16961D01*
X34961Y16911D02*
X35411Y17361D01*
X35911Y17011D02*
X36511Y17161D01*
X37011Y17361D02*
X37411Y16861D01*
X37911Y17261D02*
X38511Y16961D01*
X39251Y18801D02*
Y19595D01*
X38695Y18801D02*
X39251D01*
X38695D02*
Y19595D01*
X39251D01*
X38971Y19398D02*
X39131Y19161D01*
X38814D02*
X39131D01*
X38814D02*
X38971Y19398D01*
X15129Y30435D02*
Y30631D01*
X14951Y30435D02*
Y30631D01*
X3692Y21869D02*
X3889D01*
X3692Y21691D02*
X3889D01*
X13646Y22660D02*
X13842D01*
X13646Y22838D02*
X13842D01*
X8983Y10881D02*
Y11077D01*
X9161Y10881D02*
Y11077D01*
X15943Y10881D02*
Y11077D01*
X16121Y10881D02*
Y11077D01*
X31291Y10099D02*
X31487D01*
X31291Y9921D02*
X31487D01*
X38401Y10099D02*
X38597D01*
X38401Y9921D02*
X38597D01*
X9383Y10881D02*
Y11077D01*
X9561Y10881D02*
Y11077D01*
X16343Y10881D02*
Y11077D01*
X16521Y10881D02*
Y11077D01*
X30533Y10881D02*
Y11077D01*
X30711Y10881D02*
Y11077D01*
X37613Y10881D02*
Y11077D01*
X37791Y10881D02*
Y11077D01*
X24221Y10479D02*
X24417D01*
X24221Y10301D02*
X24417D01*
X23043Y10871D02*
Y11067D01*
X23221Y10871D02*
Y11067D01*
X10669Y35120D02*
X10866D01*
X10669Y35299D02*
X10866D01*
X14685Y35130D02*
X14882D01*
X14685Y35308D02*
X14882D01*
X18697Y35103D02*
X18893D01*
X18697Y35281D02*
X18893D01*
X26626Y33291D02*
Y33488D01*
X26447Y33291D02*
Y33488D01*
X22613Y37091D02*
Y37287D01*
X22791Y37091D02*
Y37287D01*
X9428Y36172D02*
Y36368D01*
X9606Y36172D02*
Y36368D01*
X13463Y36172D02*
Y36368D01*
X13641Y36172D02*
Y36368D01*
X17463Y36171D02*
Y36367D01*
X17641Y36171D02*
Y36367D01*
X26241Y34595D02*
X26437D01*
X26241Y34417D02*
X26437D01*
X26912Y32057D02*
Y32254D01*
X27090Y32057D02*
Y32254D01*
X3481Y35911D02*
X4275D01*
X3481D02*
Y36467D01*
X4275D01*
Y35911D02*
Y36467D01*
X3841Y36031D02*
X4078Y36191D01*
X3841Y36031D02*
Y36349D01*
X4078Y36191D01*
X19597Y38221D02*
X20391D01*
Y37665D02*
Y38221D01*
X19597Y37665D02*
X20391D01*
X19597D02*
Y38221D01*
X19794Y37941D02*
X20031Y38101D01*
Y37784D02*
Y38101D01*
X19794Y37941D02*
X20031Y37784D01*
X7011Y38051D02*
X7805D01*
X7011D02*
Y38607D01*
X7805D01*
Y38051D02*
Y38607D01*
X7371Y38171D02*
X7608Y38331D01*
X7371Y38171D02*
Y38489D01*
X7608Y38331D01*
X10821Y38317D02*
Y39111D01*
X11377D01*
Y38317D02*
Y39111D01*
X10821Y38317D02*
X11377D01*
X10941Y38751D02*
X11101Y38514D01*
X10941Y38751D02*
X11258D01*
X11101Y38514D02*
X11258Y38751D01*
X14801Y38317D02*
Y39111D01*
X15357D01*
Y38317D02*
Y39111D01*
X14801Y38317D02*
X15357D01*
X14921Y38751D02*
X15081Y38514D01*
X14921Y38751D02*
X15238D01*
X15081Y38514D02*
X15238Y38751D01*
X23021Y38661D02*
X23815D01*
X23021D02*
Y39217D01*
X23815D01*
Y38661D02*
Y39217D01*
X23381Y38781D02*
X23618Y38941D01*
X23381Y38781D02*
Y39098D01*
X23618Y38941D01*
X18159Y18945D02*
Y19141D01*
X17981Y18945D02*
Y19141D01*
X5101Y35561D02*
Y36681D01*
Y35561D02*
X5621D01*
Y36681D01*
X5101D02*
X5621D01*
X30611Y16695D02*
Y16891D01*
X30789Y16695D02*
Y16891D01*
X21221Y29834D02*
Y30031D01*
X21399Y29834D02*
Y30031D01*
X22721Y31855D02*
Y32051D01*
X22899Y31855D02*
Y32051D01*
X20781Y29831D02*
Y30027D01*
X20603Y29831D02*
Y30027D01*
X20431Y29019D02*
X20627D01*
X20431Y28841D02*
X20627D01*
X11735Y25513D02*
X11931D01*
X11735Y25691D02*
X11931D01*
X7233Y29791D02*
Y29987D01*
X7411Y29791D02*
Y29987D01*
X7551Y30829D02*
X7747D01*
X7551Y30651D02*
X7747D01*
X41752Y39298D02*
X42546D01*
Y38742D02*
Y39298D01*
X41752Y38742D02*
X42546D01*
X41752D02*
Y39298D01*
X41949Y39018D02*
X42186Y39178D01*
Y38860D02*
Y39178D01*
X41949Y39018D02*
X42186Y38860D01*
X25555Y31116D02*
X25752D01*
X25555Y30937D02*
X25752D01*
X13111Y40831D02*
X13611D01*
X13111D02*
X13611Y41331D01*
X13111D02*
X13611Y40831D01*
X13111D02*
Y41331D01*
X13611D01*
Y40831D02*
Y41331D01*
X9111D02*
X9611Y40831D01*
X9111D02*
X9611Y41331D01*
Y40831D02*
Y41331D01*
X9111D02*
X9611D01*
X9111Y40831D02*
Y41331D01*
Y40831D02*
X9611D01*
X11111D02*
X11611Y41331D01*
X11111D02*
X11611Y40831D01*
X11111Y41331D02*
X11611D01*
Y40831D02*
Y41331D01*
X11111Y40831D02*
X11611D01*
X11111D02*
Y41331D01*
X7111Y40831D02*
X7611Y41331D01*
X7111D02*
X7611Y40831D01*
X7111Y41331D02*
X7611D01*
Y40831D02*
Y41331D01*
X7111Y40831D02*
X7611D01*
X7111D02*
Y41331D01*
X21352Y47151D02*
X21551D01*
X21451D01*
Y47751D01*
X21352Y47651D01*
X21851D02*
X21951Y47751D01*
X22151D01*
X22251Y47651D01*
Y47251D01*
X22151Y47151D01*
X21951D01*
X21851Y47251D01*
Y47651D01*
X22751Y47151D02*
Y47751D01*
X22451Y47451D01*
X22851D01*
X23051Y47151D02*
Y47251D01*
X23151D01*
Y47151D01*
X23051D01*
X23551D02*
X23751D01*
X23651D01*
Y47751D01*
X23551Y47651D01*
X24351Y47151D02*
Y47751D01*
X24051Y47451D01*
X24451D01*
X21551Y45721D02*
X21651Y45621D01*
X21851D01*
X21951Y45721D01*
Y46121D01*
X21851Y46221D01*
X21651D01*
X21551Y46121D01*
Y46021D01*
X21651Y45921D01*
X21951D01*
X22551Y46221D02*
X22351Y46121D01*
X22151Y45921D01*
Y45721D01*
X22251Y45621D01*
X22451D01*
X22551Y45721D01*
Y45821D01*
X22451Y45921D01*
X22151D01*
X22751Y45621D02*
Y45721D01*
X22851D01*
Y45621D01*
X22751D01*
X23651Y46221D02*
X23251D01*
Y45921D01*
X23451Y46021D01*
X23551D01*
X23651Y45921D01*
Y45721D01*
X23551Y45621D01*
X23351D01*
X23251Y45721D01*
X24251Y45621D02*
X23851D01*
X24251Y46021D01*
Y46121D01*
X24151Y46221D01*
X23951D01*
X23851Y46121D01*
X-1649Y21301D02*
X-1549Y21401D01*
Y21601D01*
X-1649Y21701D01*
X-2049D01*
X-2149Y21601D01*
Y21401D01*
X-2049Y21301D01*
X-1949D01*
X-1849Y21401D01*
Y21701D01*
X-2149Y22301D02*
Y21901D01*
X-1849D01*
X-1949Y22101D01*
Y22201D01*
X-1849Y22301D01*
X-1649D01*
X-1549Y22201D01*
Y22001D01*
X-1649Y21901D01*
X-1549Y22501D02*
X-1649D01*
Y22601D01*
X-1549D01*
Y22501D01*
Y23401D02*
Y23001D01*
X-1949Y23401D01*
X-2049D01*
X-2149Y23301D01*
Y23101D01*
X-2049Y23001D01*
X-2149Y24001D02*
Y23601D01*
X-1849D01*
X-1949Y23801D01*
Y23901D01*
X-1849Y24001D01*
X-1649D01*
X-1549Y23901D01*
Y23701D01*
X-1649Y23601D01*
X-4129Y21052D02*
Y21251D01*
Y21152D01*
X-4729D01*
X-4629Y21052D01*
Y21551D02*
X-4729Y21651D01*
Y21851D01*
X-4629Y21951D01*
X-4229D01*
X-4129Y21851D01*
Y21651D01*
X-4229Y21551D01*
X-4629D01*
X-4129Y22551D02*
Y22151D01*
X-4529Y22551D01*
X-4629D01*
X-4729Y22451D01*
Y22251D01*
X-4629Y22151D01*
X-4129Y22751D02*
X-4229D01*
Y22851D01*
X-4129D01*
Y22751D01*
X-4629Y23251D02*
X-4729Y23351D01*
Y23551D01*
X-4629Y23651D01*
X-4529D01*
X-4429Y23551D01*
X-4329Y23651D01*
X-4229D01*
X-4129Y23551D01*
Y23351D01*
X-4229Y23251D01*
X-4329D01*
X-4429Y23351D01*
X-4529Y23251D01*
X-4629D01*
X-4429Y23351D02*
Y23551D01*
X-4729Y23851D02*
Y24251D01*
X-4629D01*
X-4229Y23851D01*
X-4129D01*
X4621Y44751D02*
X4721Y44851D01*
X4921D01*
X5021Y44751D01*
Y44651D01*
X4921Y44551D01*
X4821D01*
X4921D01*
X5021Y44451D01*
Y44351D01*
X4921Y44251D01*
X4721D01*
X4621Y44351D01*
X5221Y44251D02*
Y44351D01*
X5321D01*
Y44251D01*
X5221D01*
X5721Y44751D02*
X5821Y44851D01*
X6021D01*
X6121Y44751D01*
Y44651D01*
X6021Y44551D01*
X6121Y44451D01*
Y44351D01*
X6021Y44251D01*
X5821D01*
X5721Y44351D01*
Y44451D01*
X5821Y44551D01*
X5721Y44651D01*
Y44751D01*
X5821Y44551D02*
X6021D01*
X6320Y44251D02*
X6520D01*
X6420D01*
Y44851D01*
X6320Y44751D01*
X761Y39271D02*
X661Y39371D01*
Y39571D01*
X761Y39671D01*
X861D01*
X961Y39571D01*
Y39471D01*
Y39571D01*
X1061Y39671D01*
X1161D01*
X1261Y39571D01*
Y39371D01*
X1161Y39271D01*
X1261Y39871D02*
X1161D01*
Y39971D01*
X1261D01*
Y39871D01*
X761Y40371D02*
X661Y40471D01*
Y40671D01*
X761Y40771D01*
X861D01*
X961Y40671D01*
X1061Y40771D01*
X1161D01*
X1261Y40671D01*
Y40471D01*
X1161Y40371D01*
X1061D01*
X961Y40471D01*
X861Y40371D01*
X761D01*
X961Y40471D02*
Y40671D01*
X1261Y40970D02*
Y41170D01*
Y41070D01*
X661D01*
X761Y40970D01*
X-3449Y16726D02*
Y17126D01*
X-3349D01*
X-2949Y16726D01*
X-2849D01*
X-2949Y17326D02*
X-2849Y17426D01*
Y17626D01*
X-2949Y17726D01*
X-3349D01*
X-3449Y17626D01*
Y17426D01*
X-3349Y17326D01*
X-3249D01*
X-3149Y17426D01*
Y17726D01*
X-2849Y17926D02*
X-2949D01*
Y18026D01*
X-2849D01*
Y17926D01*
X-3449Y18826D02*
X-3349Y18626D01*
X-3149Y18426D01*
X-2949D01*
X-2849Y18526D01*
Y18726D01*
X-2949Y18826D01*
X-3049D01*
X-3149Y18726D01*
Y18426D01*
X-3349Y19026D02*
X-3449Y19126D01*
Y19326D01*
X-3349Y19426D01*
X-3249D01*
X-3149Y19326D01*
Y19226D01*
Y19326D01*
X-3049Y19426D01*
X-2949D01*
X-2849Y19326D01*
Y19126D01*
X-2949Y19026D01*
X42091Y47611D02*
G03*
X42091Y47611I-350J0D01*
G01*
Y48611D02*
G03*
X42091Y48611I-350J0D01*
G01*
Y49611D02*
G03*
X42091Y49611I-350J0D01*
G01*
Y50611D02*
G03*
X42091Y50611I-350J0D01*
G01*
X36361Y44511D02*
G03*
X36361Y44511I-350J0D01*
G01*
X37361D02*
G03*
X37361Y44511I-350J0D01*
G01*
X38361D02*
G03*
X38361Y44511I-350J0D01*
G01*
X39361D02*
G03*
X39361Y44511I-350J0D01*
G01*
X30411D02*
G03*
X30411Y44511I-350J0D01*
G01*
X31411D02*
G03*
X31411Y44511I-350J0D01*
G01*
X32411D02*
G03*
X32411Y44511I-350J0D01*
G01*
X33411D02*
G03*
X33411Y44511I-350J0D01*
G01*
X13361D02*
G03*
X13361Y44511I-350J0D01*
G01*
X14361D02*
G03*
X14361Y44511I-350J0D01*
G01*
X15361D02*
G03*
X15361Y44511I-350J0D01*
G01*
X16361D02*
G03*
X16361Y44511I-350J0D01*
G01*
X7461D02*
G03*
X7461Y44511I-350J0D01*
G01*
X8461D02*
G03*
X8461Y44511I-350J0D01*
G01*
X9461D02*
G03*
X9461Y44511I-350J0D01*
G01*
X10461D02*
G03*
X10461Y44511I-350J0D01*
G01*
X22411D02*
G03*
X22411Y44511I-350J0D01*
G01*
X21411D02*
G03*
X21411Y44511I-350J0D01*
G01*
X20411D02*
G03*
X20411Y44511I-350J0D01*
G01*
X19411D02*
G03*
X19411Y44511I-350J0D01*
G01*
X27511D02*
G03*
X27511Y44511I-350J0D01*
G01*
X26511D02*
G03*
X26511Y44511I-350J0D01*
G01*
X25511D02*
G03*
X25511Y44511I-350J0D01*
G01*
X24511D02*
G03*
X24511Y44511I-350J0D01*
G01*
X39561Y57611D02*
G03*
X39561Y57611I-350J0D01*
G01*
X35561D02*
G03*
X35561Y57611I-350J0D01*
G01*
X36561D02*
G03*
X36561Y57611I-350J0D01*
G01*
X37561D02*
G03*
X37561Y57611I-350J0D01*
G01*
X38561D02*
G03*
X38561Y57611I-350J0D01*
G01*
X34004Y79295D02*
Y79491D01*
X34182Y79295D02*
Y79491D01*
X33631Y79291D02*
Y79487D01*
X33453Y79291D02*
Y79487D01*
X24221Y51205D02*
X24417D01*
X24221Y51383D02*
X24417D01*
X7059Y62469D02*
Y62665D01*
X7238Y62469D02*
Y62665D01*
X5854Y62471D02*
Y62667D01*
X6032Y62471D02*
Y62667D01*
X8053Y62472D02*
Y62669D01*
X7875Y62472D02*
Y62669D01*
X8820Y63476D02*
Y63673D01*
X8642Y63476D02*
Y63673D01*
X3581Y68865D02*
Y69061D01*
X3759Y68865D02*
Y69061D01*
X41591Y47311D02*
X41891Y47911D01*
X41491Y48411D02*
X41991Y48811D01*
X41641Y49911D02*
X41791Y49311D01*
X41541Y50861D02*
X41991Y50411D01*
X3911Y72961D02*
X4961D01*
X3911Y75861D02*
X4961D01*
Y75761D02*
Y75861D01*
X3911Y75761D02*
X4961D01*
X3911Y73061D02*
X4961D01*
Y72961D02*
Y73061D01*
X3561Y74711D02*
Y75061D01*
X3411Y74211D02*
X3561Y74711D01*
Y73761D02*
Y74211D01*
X3261Y74411D02*
X3411D01*
X3261D02*
Y74511D01*
Y74311D02*
Y74411D01*
X3111Y75761D02*
X3711D01*
X3111Y73061D02*
X3711D01*
X2261Y74911D02*
X2411D01*
X2261Y73911D02*
Y74911D01*
Y73911D02*
X2411D01*
X4013Y68861D02*
Y69057D01*
X4191Y68861D02*
Y69057D01*
X9061Y68701D02*
X9257D01*
X9061Y68879D02*
X9257D01*
X14611Y68871D02*
X14807D01*
X14611Y69049D02*
X14807D01*
X9061Y69141D02*
X9257D01*
X9061Y69319D02*
X9257D01*
X14601Y68321D02*
X14797D01*
X14601Y68499D02*
X14797D01*
X16073Y67711D02*
Y67907D01*
X16251Y67711D02*
Y67907D01*
X15601Y69041D02*
Y69237D01*
X15423Y69041D02*
Y69237D01*
X16211Y64791D02*
X16407D01*
X16211Y64969D02*
X16407D01*
X15421Y68115D02*
Y68311D01*
X15599Y68115D02*
Y68311D01*
X3595Y62663D02*
X3791D01*
X3595Y62841D02*
X3791D01*
X8830Y62472D02*
Y62669D01*
X8652Y62472D02*
Y62669D01*
X33253Y80681D02*
Y80877D01*
X33431Y80681D02*
Y80877D01*
X33084Y81483D02*
X33281D01*
X33084Y81305D02*
X33281D01*
X5074Y71983D02*
X5271D01*
X5074Y72161D02*
X5271D01*
X21597Y54561D02*
Y54757D01*
X21775Y54561D02*
Y54757D01*
X22203Y54565D02*
Y54761D01*
X22025Y54565D02*
Y54761D01*
X18320Y51362D02*
Y51558D01*
X18142Y51362D02*
Y51558D01*
X23621Y51371D02*
Y51567D01*
X23443Y51371D02*
Y51567D01*
X26241Y74675D02*
X26437D01*
X26241Y74497D02*
X26437D01*
X26459Y72557D02*
Y72754D01*
X26637Y72557D02*
Y72754D01*
X17649Y75915D02*
Y76111D01*
X17471Y75915D02*
Y76111D01*
X28307Y70246D02*
X28504D01*
X28307Y70067D02*
X28504D01*
X13639Y75898D02*
Y76094D01*
X13461Y75898D02*
Y76094D01*
X25701Y70766D02*
Y70963D01*
X25879Y70766D02*
Y70963D01*
X9614Y75898D02*
Y76094D01*
X9436Y75898D02*
Y76094D01*
X20713Y77941D02*
Y78137D01*
X20891Y77941D02*
Y78137D01*
X20899Y77165D02*
Y77361D01*
X20721Y77165D02*
Y77361D01*
X9861Y74821D02*
Y75017D01*
X9683Y74821D02*
Y75017D01*
X7621Y75209D02*
X7817D01*
X7621Y75031D02*
X7817D01*
X8009Y74415D02*
Y74611D01*
X7831Y74415D02*
Y74611D01*
X35773Y54561D02*
Y54757D01*
X35951Y54561D02*
Y54757D01*
X28683Y54561D02*
Y54757D01*
X28861Y54561D02*
Y54757D01*
X14506Y54561D02*
Y54757D01*
X14684Y54561D02*
Y54757D01*
X7517Y54561D02*
Y54757D01*
X7695Y54561D02*
Y54757D01*
X36379Y54565D02*
Y54761D01*
X36201Y54565D02*
Y54761D01*
X29289Y54565D02*
Y54761D01*
X29111Y54565D02*
Y54761D01*
X15112Y54565D02*
Y54761D01*
X14934Y54565D02*
Y54761D01*
X8124Y54565D02*
Y54761D01*
X7945Y54565D02*
Y54761D01*
X32317Y51362D02*
Y51558D01*
X32495Y51362D02*
Y51558D01*
X25228Y51362D02*
Y51558D01*
X25406Y51362D02*
Y51558D01*
X11051Y51362D02*
Y51558D01*
X11229Y51362D02*
Y51558D01*
X4082Y51362D02*
Y51558D01*
X4261Y51362D02*
Y51558D01*
X37391Y51381D02*
Y51577D01*
X37213Y51381D02*
Y51577D01*
X30311Y51381D02*
Y51577D01*
X30133Y51381D02*
Y51577D01*
X17141Y50431D02*
X17337D01*
X17141Y50609D02*
X17337D01*
X10031Y50421D02*
X10227D01*
X10031Y50599D02*
X10227D01*
X38401Y51211D02*
X38597D01*
X38401Y51389D02*
X38597D01*
X31291Y51201D02*
X31487D01*
X31291Y51379D02*
X31487D01*
X17141Y51211D02*
X17337D01*
X17141Y51389D02*
X17337D01*
X10031Y51211D02*
X10227D01*
X10031Y51389D02*
X10227D01*
X35825Y63671D02*
X36021D01*
X35825Y63493D02*
X36021D01*
X31885Y63671D02*
X32081D01*
X31885Y63493D02*
X32081D01*
X28495Y64151D02*
X28691D01*
X28495Y63973D02*
X28691D01*
X37505Y63671D02*
X37701D01*
X37505Y63493D02*
X37701D01*
X33535Y63671D02*
X33731D01*
X33535Y63493D02*
X33731D01*
X30085Y63671D02*
X30281D01*
X30085Y63493D02*
X30281D01*
X5071Y70939D02*
X5267D01*
X5071Y70761D02*
X5267D01*
X5071Y71549D02*
X5267D01*
X5071Y71371D02*
X5267D01*
X35711Y44661D02*
X36311Y44361D01*
X36811Y44761D02*
X37211Y44261D01*
X37711Y44461D02*
X38311Y44611D01*
X38811Y44261D02*
X39261Y44711D01*
X29761Y44661D02*
X30361Y44361D01*
X30861Y44761D02*
X31261Y44261D01*
X31761Y44461D02*
X32361Y44611D01*
X32861Y44261D02*
X33311Y44711D01*
X12711Y44661D02*
X13311Y44361D01*
X13811Y44761D02*
X14211Y44261D01*
X14711Y44461D02*
X15311Y44611D01*
X15811Y44261D02*
X16261Y44711D01*
X6811Y44661D02*
X7411Y44361D01*
X7911Y44761D02*
X8311Y44261D01*
X8811Y44461D02*
X9411Y44611D01*
X9911Y44261D02*
X10361Y44711D01*
X21861Y44261D02*
X22311Y44711D01*
X20761Y44461D02*
X21361Y44611D01*
X19861Y44761D02*
X20261Y44261D01*
X18761Y44661D02*
X19361Y44361D01*
X26961Y44261D02*
X27411Y44711D01*
X25861Y44461D02*
X26461Y44611D01*
X24961Y44761D02*
X25361Y44261D01*
X23861Y44661D02*
X24461Y44361D01*
X3584Y69681D02*
X3821Y69524D01*
Y69841D01*
X3584Y69681D02*
X3821Y69841D01*
X3387Y69405D02*
Y69961D01*
Y69405D02*
X4181D01*
Y69961D01*
X3387D02*
X4181D01*
X33643Y50921D02*
X33840D01*
X33643Y50743D02*
X33840D01*
X26555Y50921D02*
X26751D01*
X26555Y50743D02*
X26751D01*
X12378Y50951D02*
X12574D01*
X12378Y50773D02*
X12574D01*
X5409Y50921D02*
X5605D01*
X5409Y50743D02*
X5605D01*
X9273Y71421D02*
Y71617D01*
X9451Y71421D02*
Y71617D01*
X9071Y70809D02*
X9267D01*
X9071Y70631D02*
X9267D01*
X14373Y71321D02*
Y71517D01*
X14551Y71321D02*
Y71517D01*
X17529Y59445D02*
Y59641D01*
X17351Y59445D02*
Y59641D01*
X38401Y50811D02*
X38597D01*
X38401Y50989D02*
X38597D01*
X31291Y50811D02*
X31487D01*
X31291Y50989D02*
X31487D01*
X17141Y50821D02*
X17337D01*
X17141Y50999D02*
X17337D01*
X10031Y50811D02*
X10227D01*
X10031Y50989D02*
X10227D01*
X16491Y67705D02*
Y67901D01*
X16669Y67705D02*
Y67901D01*
X20001Y70334D02*
Y70531D01*
X20179Y70334D02*
Y70531D01*
X36261Y59449D02*
Y59645D01*
X36439Y59449D02*
Y59645D01*
X33731Y59419D02*
Y59615D01*
X33909Y59419D02*
Y59615D01*
X31449Y59459D02*
Y59655D01*
X31271Y59459D02*
Y59655D01*
X28939Y59443D02*
Y59640D01*
X28761Y59443D02*
Y59640D01*
X3595Y63241D02*
X3791D01*
X3595Y63063D02*
X3791D01*
X33848Y80405D02*
X34044D01*
X33848Y80227D02*
X34044D01*
X39851Y82075D02*
Y82271D01*
X40029Y82075D02*
Y82271D01*
X28311Y71627D02*
X28507D01*
X28311Y71449D02*
X28507D01*
X28311Y71197D02*
X28507D01*
X28311Y71019D02*
X28507D01*
X27589Y72725D02*
X27785D01*
X27589Y72903D02*
X27785D01*
X24485Y59333D02*
X24681D01*
X24485Y59511D02*
X24681D01*
X26319Y64165D02*
Y64361D01*
X26141Y64165D02*
Y64361D01*
X22521Y69469D02*
X22717D01*
X22521Y69291D02*
X22717D01*
X35825Y64141D02*
X36021D01*
X35825Y63963D02*
X36021D01*
X31885Y64151D02*
X32081D01*
X31885Y63973D02*
X32081D01*
X28495Y63671D02*
X28691D01*
X28495Y63493D02*
X28691D01*
X15981Y62749D02*
X16177D01*
X15981Y62571D02*
X16177D01*
X16311Y67309D02*
X16507D01*
X16311Y67131D02*
X16507D01*
X15991Y63149D02*
X16187D01*
X15991Y62971D02*
X16187D01*
X16463Y66151D02*
Y66347D01*
X16641Y66151D02*
Y66347D01*
X23893Y59361D02*
Y59557D01*
X24071Y59361D02*
Y59557D01*
X26133Y63161D02*
Y63357D01*
X26311Y63161D02*
Y63357D01*
X37505Y64141D02*
X37701D01*
X37505Y63963D02*
X37701D01*
X33535Y64141D02*
X33731D01*
X33535Y63963D02*
X33731D01*
X30085Y64151D02*
X30281D01*
X30085Y63973D02*
X30281D01*
X23299Y69465D02*
Y69661D01*
X23121Y69465D02*
Y69661D01*
X16649Y65375D02*
Y65571D01*
X16471Y65375D02*
Y65571D01*
X16365Y59733D02*
X16561D01*
X16365Y59911D02*
X16561D01*
X18435Y69253D02*
X18631D01*
X18435Y69431D02*
X18631D01*
X16323Y63621D02*
Y63817D01*
X16501Y63621D02*
Y63817D01*
X22497Y54561D02*
Y54757D01*
X22675Y54561D02*
Y54757D01*
X18557Y51361D02*
Y51557D01*
X18735Y51361D02*
Y51557D01*
X19469Y50921D02*
X19665D01*
X19469Y50743D02*
X19665D01*
X24221Y50599D02*
X24417D01*
X24221Y50421D02*
X24417D01*
X22741Y77149D02*
X22937D01*
X22741Y76971D02*
X22937D01*
X9864Y73969D02*
Y74166D01*
X9686Y73969D02*
Y74166D01*
X36841Y54561D02*
Y54757D01*
X36663Y54561D02*
Y54757D01*
X29761Y54561D02*
Y54757D01*
X29583Y54561D02*
Y54757D01*
X15581Y54561D02*
Y54757D01*
X15403Y54561D02*
Y54757D01*
X8595Y54561D02*
Y54757D01*
X8417Y54561D02*
Y54757D01*
X32910Y51361D02*
Y51557D01*
X32732Y51361D02*
Y51557D01*
X25821Y51361D02*
Y51557D01*
X25643Y51361D02*
Y51557D01*
X11644Y51361D02*
Y51557D01*
X11466Y51361D02*
Y51557D01*
X4675Y51361D02*
Y51557D01*
X4497Y51361D02*
Y51557D01*
X33160Y58601D02*
X33356D01*
X33160Y58779D02*
X33356D01*
X22976Y55651D02*
X23173D01*
X22976Y55473D02*
X23173D01*
X30188Y57197D02*
Y57393D01*
X30366Y57197D02*
Y57393D01*
X28104Y56488D02*
X28301D01*
X28104Y56309D02*
X28301D01*
X17839Y55956D02*
X18035D01*
X17839Y55778D02*
X18035D01*
X10329Y56340D02*
X10525D01*
X10329Y56162D02*
X10525D01*
X19611Y76861D02*
Y77981D01*
Y76861D02*
X20131D01*
Y77981D01*
X19611D02*
X20131D01*
X25621Y59141D02*
X25817D01*
X25621Y59319D02*
X25817D01*
X25615Y59721D02*
X25811D01*
X25615Y59543D02*
X25811D01*
X25631Y58451D02*
X25827D01*
X25631Y58629D02*
X25827D01*
X5855Y72701D02*
X6051D01*
X5855Y72523D02*
X6051D01*
X3291Y53031D02*
X3487D01*
X3291Y53209D02*
X3487D01*
X4811Y79995D02*
Y80191D01*
X4989Y79995D02*
Y80191D01*
X6001Y43961D02*
Y44157D01*
X5823Y43961D02*
Y44157D01*
X42100Y80157D02*
X42297D01*
X42100Y79979D02*
X42297D01*
X41205Y46431D02*
X41401D01*
X41205Y46253D02*
X41401D01*
X42270Y78618D02*
X42466D01*
X42270Y78439D02*
X42466D01*
X42266Y78838D02*
X42463D01*
X42266Y79016D02*
X42463D01*
X36675Y63493D02*
X36871D01*
X36675Y63671D02*
X36871D01*
X32715Y63493D02*
X32911D01*
X32715Y63671D02*
X32911D01*
X29285Y63492D02*
X29481D01*
X29285Y63670D02*
X29481D01*
X38335Y63493D02*
X38531D01*
X38335Y63671D02*
X38531D01*
X34365Y63493D02*
X34561D01*
X34365Y63671D02*
X34561D01*
X30905Y63493D02*
X31101D01*
X30905Y63671D02*
X31101D01*
X38911Y57761D02*
X39511Y57461D01*
X34961Y57411D02*
X35411Y57861D01*
X35911Y57511D02*
X36511Y57661D01*
X37011Y57861D02*
X37411Y57361D01*
X37911Y57761D02*
X38511Y57461D01*
X39251Y59301D02*
Y60095D01*
X38695Y59301D02*
X39251D01*
X38695D02*
Y60095D01*
X39251D01*
X38971Y59898D02*
X39131Y59661D01*
X38814D02*
X39131D01*
X38814D02*
X38971Y59898D01*
X15129Y70935D02*
Y71131D01*
X14951Y70935D02*
Y71131D01*
X3692Y62369D02*
X3889D01*
X3692Y62191D02*
X3889D01*
X13646Y63160D02*
X13842D01*
X13646Y63338D02*
X13842D01*
X8983Y51381D02*
Y51577D01*
X9161Y51381D02*
Y51577D01*
X15943Y51381D02*
Y51577D01*
X16121Y51381D02*
Y51577D01*
X31291Y50599D02*
X31487D01*
X31291Y50421D02*
X31487D01*
X38401Y50599D02*
X38597D01*
X38401Y50421D02*
X38597D01*
X9383Y51381D02*
Y51577D01*
X9561Y51381D02*
Y51577D01*
X16343Y51381D02*
Y51577D01*
X16521Y51381D02*
Y51577D01*
X30533Y51381D02*
Y51577D01*
X30711Y51381D02*
Y51577D01*
X37613Y51381D02*
Y51577D01*
X37791Y51381D02*
Y51577D01*
X24221Y50979D02*
X24417D01*
X24221Y50801D02*
X24417D01*
X23043Y51371D02*
Y51567D01*
X23221Y51371D02*
Y51567D01*
X10669Y75620D02*
X10866D01*
X10669Y75799D02*
X10866D01*
X14685Y75630D02*
X14882D01*
X14685Y75809D02*
X14882D01*
X18697Y75603D02*
X18893D01*
X18697Y75781D02*
X18893D01*
X26626Y73791D02*
Y73988D01*
X26447Y73791D02*
Y73988D01*
X22613Y77591D02*
Y77787D01*
X22791Y77591D02*
Y77787D01*
X9428Y76672D02*
Y76868D01*
X9606Y76672D02*
Y76868D01*
X13463Y76672D02*
Y76868D01*
X13641Y76672D02*
Y76868D01*
X17463Y76671D02*
Y76867D01*
X17641Y76671D02*
Y76867D01*
X26241Y75095D02*
X26437D01*
X26241Y74917D02*
X26437D01*
X26912Y72557D02*
Y72754D01*
X27090Y72557D02*
Y72754D01*
X3481Y76411D02*
X4275D01*
X3481D02*
Y76967D01*
X4275D01*
Y76411D02*
Y76967D01*
X3841Y76531D02*
X4078Y76691D01*
X3841Y76531D02*
Y76849D01*
X4078Y76691D01*
X19597Y78721D02*
X20391D01*
Y78165D02*
Y78721D01*
X19597Y78165D02*
X20391D01*
X19597D02*
Y78721D01*
X19794Y78441D02*
X20031Y78601D01*
Y78284D02*
Y78601D01*
X19794Y78441D02*
X20031Y78284D01*
X7011Y78551D02*
X7805D01*
X7011D02*
Y79107D01*
X7805D01*
Y78551D02*
Y79107D01*
X7371Y78671D02*
X7608Y78831D01*
X7371Y78671D02*
Y78988D01*
X7608Y78831D01*
X10821Y78817D02*
Y79611D01*
X11377D01*
Y78817D02*
Y79611D01*
X10821Y78817D02*
X11377D01*
X10941Y79251D02*
X11101Y79014D01*
X10941Y79251D02*
X11258D01*
X11101Y79014D02*
X11258Y79251D01*
X14801Y78817D02*
Y79611D01*
X15357D01*
Y78817D02*
Y79611D01*
X14801Y78817D02*
X15357D01*
X14921Y79251D02*
X15081Y79014D01*
X14921Y79251D02*
X15238D01*
X15081Y79014D02*
X15238Y79251D01*
X23021Y79161D02*
X23815D01*
X23021D02*
Y79717D01*
X23815D01*
Y79161D02*
Y79717D01*
X23381Y79281D02*
X23618Y79441D01*
X23381Y79281D02*
Y79598D01*
X23618Y79441D01*
X18159Y59445D02*
Y59641D01*
X17981Y59445D02*
Y59641D01*
X5101Y76061D02*
Y77181D01*
Y76061D02*
X5621D01*
Y77181D01*
X5101D02*
X5621D01*
X30611Y57195D02*
Y57391D01*
X30789Y57195D02*
Y57391D01*
X21221Y70334D02*
Y70531D01*
X21399Y70334D02*
Y70531D01*
X22721Y72355D02*
Y72551D01*
X22899Y72355D02*
Y72551D01*
X20781Y70331D02*
Y70527D01*
X20603Y70331D02*
Y70527D01*
X20431Y69519D02*
X20627D01*
X20431Y69341D02*
X20627D01*
X11735Y66013D02*
X11931D01*
X11735Y66191D02*
X11931D01*
X7233Y70291D02*
Y70487D01*
X7411Y70291D02*
Y70487D01*
X7551Y71329D02*
X7747D01*
X7551Y71151D02*
X7747D01*
X41752Y79798D02*
X42546D01*
Y79242D02*
Y79798D01*
X41752Y79242D02*
X42546D01*
X41752D02*
Y79798D01*
X41949Y79518D02*
X42186Y79678D01*
Y79360D02*
Y79678D01*
X41949Y79518D02*
X42186Y79360D01*
X25555Y71616D02*
X25752D01*
X25555Y71437D02*
X25752D01*
X13111Y81331D02*
X13611D01*
X13111D02*
X13611Y81831D01*
X13111D02*
X13611Y81331D01*
X13111D02*
Y81831D01*
X13611D01*
Y81331D02*
Y81831D01*
X9111D02*
X9611Y81331D01*
X9111D02*
X9611Y81831D01*
Y81331D02*
Y81831D01*
X9111D02*
X9611D01*
X9111Y81331D02*
Y81831D01*
Y81331D02*
X9611D01*
X11111D02*
X11611Y81831D01*
X11111D02*
X11611Y81331D01*
X11111Y81831D02*
X11611D01*
Y81331D02*
Y81831D01*
X11111Y81331D02*
X11611D01*
X11111D02*
Y81831D01*
X7111Y81331D02*
X7611Y81831D01*
X7111D02*
X7611Y81331D01*
X7111Y81831D02*
X7611D01*
Y81331D02*
Y81831D01*
X7111Y81331D02*
X7611D01*
X7111D02*
Y81831D01*
X21352Y87651D02*
X21551D01*
X21451D01*
Y88251D01*
X21352Y88151D01*
X21851D02*
X21951Y88251D01*
X22151D01*
X22251Y88151D01*
Y87751D01*
X22151Y87651D01*
X21951D01*
X21851Y87751D01*
Y88151D01*
X22751Y87651D02*
Y88251D01*
X22451Y87951D01*
X22851D01*
X23051Y87651D02*
Y87751D01*
X23151D01*
Y87651D01*
X23051D01*
X23551D02*
X23751D01*
X23651D01*
Y88251D01*
X23551Y88151D01*
X24351Y87651D02*
Y88251D01*
X24051Y87951D01*
X24451D01*
X21551Y86221D02*
X21651Y86121D01*
X21851D01*
X21951Y86221D01*
Y86621D01*
X21851Y86721D01*
X21651D01*
X21551Y86621D01*
Y86521D01*
X21651Y86421D01*
X21951D01*
X22551Y86721D02*
X22351Y86621D01*
X22151Y86421D01*
Y86221D01*
X22251Y86121D01*
X22451D01*
X22551Y86221D01*
Y86321D01*
X22451Y86421D01*
X22151D01*
X22751Y86121D02*
Y86221D01*
X22851D01*
Y86121D01*
X22751D01*
X23651Y86721D02*
X23251D01*
Y86421D01*
X23451Y86521D01*
X23551D01*
X23651Y86421D01*
Y86221D01*
X23551Y86121D01*
X23351D01*
X23251Y86221D01*
X24251Y86121D02*
X23851D01*
X24251Y86521D01*
Y86621D01*
X24151Y86721D01*
X23951D01*
X23851Y86621D01*
X-1649Y61801D02*
X-1549Y61901D01*
Y62101D01*
X-1649Y62201D01*
X-2049D01*
X-2149Y62101D01*
Y61901D01*
X-2049Y61801D01*
X-1949D01*
X-1849Y61901D01*
Y62201D01*
X-2149Y62801D02*
Y62401D01*
X-1849D01*
X-1949Y62601D01*
Y62701D01*
X-1849Y62801D01*
X-1649D01*
X-1549Y62701D01*
Y62501D01*
X-1649Y62401D01*
X-1549Y63001D02*
X-1649D01*
Y63101D01*
X-1549D01*
Y63001D01*
Y63901D02*
Y63501D01*
X-1949Y63901D01*
X-2049D01*
X-2149Y63801D01*
Y63601D01*
X-2049Y63501D01*
X-2149Y64501D02*
Y64101D01*
X-1849D01*
X-1949Y64301D01*
Y64401D01*
X-1849Y64501D01*
X-1649D01*
X-1549Y64401D01*
Y64201D01*
X-1649Y64101D01*
X-4129Y61552D02*
Y61751D01*
Y61652D01*
X-4729D01*
X-4629Y61552D01*
Y62051D02*
X-4729Y62151D01*
Y62351D01*
X-4629Y62451D01*
X-4229D01*
X-4129Y62351D01*
Y62151D01*
X-4229Y62051D01*
X-4629D01*
X-4129Y63051D02*
Y62651D01*
X-4529Y63051D01*
X-4629D01*
X-4729Y62951D01*
Y62751D01*
X-4629Y62651D01*
X-4129Y63251D02*
X-4229D01*
Y63351D01*
X-4129D01*
Y63251D01*
X-4629Y63751D02*
X-4729Y63851D01*
Y64051D01*
X-4629Y64151D01*
X-4529D01*
X-4429Y64051D01*
X-4329Y64151D01*
X-4229D01*
X-4129Y64051D01*
Y63851D01*
X-4229Y63751D01*
X-4329D01*
X-4429Y63851D01*
X-4529Y63751D01*
X-4629D01*
X-4429Y63851D02*
Y64051D01*
X-4729Y64351D02*
Y64751D01*
X-4629D01*
X-4229Y64351D01*
X-4129D01*
X4621Y85251D02*
X4721Y85351D01*
X4921D01*
X5021Y85251D01*
Y85151D01*
X4921Y85051D01*
X4821D01*
X4921D01*
X5021Y84951D01*
Y84851D01*
X4921Y84751D01*
X4721D01*
X4621Y84851D01*
X5221Y84751D02*
Y84851D01*
X5321D01*
Y84751D01*
X5221D01*
X5721Y85251D02*
X5821Y85351D01*
X6021D01*
X6121Y85251D01*
Y85151D01*
X6021Y85051D01*
X6121Y84951D01*
Y84851D01*
X6021Y84751D01*
X5821D01*
X5721Y84851D01*
Y84951D01*
X5821Y85051D01*
X5721Y85151D01*
Y85251D01*
X5821Y85051D02*
X6021D01*
X6320Y84751D02*
X6520D01*
X6420D01*
Y85351D01*
X6320Y85251D01*
X761Y79771D02*
X661Y79871D01*
Y80071D01*
X761Y80171D01*
X861D01*
X961Y80071D01*
Y79971D01*
Y80071D01*
X1061Y80171D01*
X1161D01*
X1261Y80071D01*
Y79871D01*
X1161Y79771D01*
X1261Y80371D02*
X1161D01*
Y80471D01*
X1261D01*
Y80371D01*
X761Y80871D02*
X661Y80971D01*
Y81171D01*
X761Y81271D01*
X861D01*
X961Y81171D01*
X1061Y81271D01*
X1161D01*
X1261Y81171D01*
Y80971D01*
X1161Y80871D01*
X1061D01*
X961Y80971D01*
X861Y80871D01*
X761D01*
X961Y80971D02*
Y81171D01*
X1261Y81470D02*
Y81670D01*
Y81570D01*
X661D01*
X761Y81470D01*
X-3449Y57226D02*
Y57626D01*
X-3349D01*
X-2949Y57226D01*
X-2849D01*
X-2949Y57826D02*
X-2849Y57926D01*
Y58126D01*
X-2949Y58226D01*
X-3349D01*
X-3449Y58126D01*
Y57926D01*
X-3349Y57826D01*
X-3249D01*
X-3149Y57926D01*
Y58226D01*
X-2849Y58426D02*
X-2949D01*
Y58526D01*
X-2849D01*
Y58426D01*
X-3449Y59326D02*
X-3349Y59126D01*
X-3149Y58926D01*
X-2949D01*
X-2849Y59026D01*
Y59226D01*
X-2949Y59326D01*
X-3049D01*
X-3149Y59226D01*
Y58926D01*
X-3349Y59526D02*
X-3449Y59626D01*
Y59826D01*
X-3349Y59926D01*
X-3249D01*
X-3149Y59826D01*
Y59726D01*
Y59826D01*
X-3049Y59926D01*
X-2949D01*
X-2849Y59826D01*
Y59626D01*
X-2949Y59526D01*
D127*
X10114Y22909D02*
X10468D01*
X15964Y20769D02*
X16318D01*
X23814Y28923D02*
X24168D01*
X36924Y18723D02*
X37278D01*
X34394Y18969D02*
X34748D01*
X31934Y18733D02*
X32288D01*
X29424Y18718D02*
X29778D01*
X36924Y19473D02*
X37278D01*
X34394Y19719D02*
X34748D01*
X31934Y19483D02*
X32288D01*
X29424Y19468D02*
X29778D01*
X39789Y19024D02*
Y19378D01*
X26334Y39169D02*
X26688D01*
X16834Y38893D02*
X17188D01*
X12834Y38893D02*
X13188D01*
X8804Y38893D02*
X9158D01*
X19104Y38893D02*
X19458D01*
X6784Y39169D02*
X7138D01*
X17814Y29649D02*
X18168D01*
X18909Y29454D02*
Y29808D01*
X36992Y40918D02*
Y41272D01*
X40674Y11783D02*
X41028D01*
X40674Y11243D02*
X41028D01*
X14644Y25849D02*
X14998D01*
X15789Y24184D02*
Y24538D01*
X32399Y30014D02*
Y30368D01*
X33179Y30014D02*
Y30368D01*
X15404Y19449D02*
X15758D01*
X23781Y30543D02*
X24136D01*
X23145Y6893D02*
X23499D01*
X24120Y5984D02*
Y6338D01*
X18305Y6883D02*
X18659D01*
X17940Y5984D02*
Y6338D01*
X37320Y6893D02*
X37674D01*
X30231D02*
X30585D01*
X16054D02*
X16408D01*
X9085D02*
X9440D01*
X38295Y5984D02*
Y6338D01*
X30909Y5834D02*
Y6188D01*
X17324Y5984D02*
Y6338D01*
X10554Y5984D02*
Y6338D01*
X32480Y6883D02*
X32834D01*
X25391D02*
X25745D01*
X11263D02*
X11617D01*
X4244Y6893D02*
X4598D01*
X32129Y5984D02*
Y6338D01*
X25026Y5984D02*
Y6338D01*
X11154Y5917D02*
Y6272D01*
X3742Y6439D02*
Y6793D01*
X24644Y38893D02*
X24998D01*
X15824Y38893D02*
X16178D01*
X11814Y38893D02*
X12168D01*
X7794Y39169D02*
X8148D01*
X21364Y37803D02*
X21718D01*
X5364Y35093D02*
X5718D01*
X15789Y23184D02*
Y23538D01*
X22228Y10399D02*
X22582D01*
X18494Y9953D02*
X18848D01*
X36403Y10389D02*
X36757D01*
X29314D02*
X29668D01*
X15137D02*
X15491D01*
X8168D02*
X8523D01*
X32670Y9963D02*
X33024D01*
X25581D02*
X25935D01*
X11404D02*
X11758D01*
X4435D02*
X4790D01*
X28724Y36713D02*
X29078D01*
X28724Y37263D02*
X29078D01*
X7969Y29834D02*
Y30188D01*
X4834Y28933D02*
X5188D01*
X12924Y32109D02*
X13278D01*
X12924Y27049D02*
X13278D01*
X10114Y63409D02*
X10468D01*
X15964Y61269D02*
X16318D01*
X23814Y69423D02*
X24168D01*
X36924Y59223D02*
X37278D01*
X34394Y59469D02*
X34748D01*
X31934Y59233D02*
X32288D01*
X29424Y59218D02*
X29778D01*
X36924Y59973D02*
X37278D01*
X34394Y60219D02*
X34748D01*
X31934Y59983D02*
X32288D01*
X29424Y59968D02*
X29778D01*
X39789Y59524D02*
Y59878D01*
X26334Y79669D02*
X26688D01*
X16834Y79393D02*
X17188D01*
X12834Y79393D02*
X13188D01*
X8804Y79393D02*
X9158D01*
X19104Y79393D02*
X19458D01*
X6784Y79669D02*
X7138D01*
X17814Y70149D02*
X18168D01*
X18909Y69954D02*
Y70308D01*
X36992Y81418D02*
Y81772D01*
X40674Y52283D02*
X41028D01*
X40674Y51743D02*
X41028D01*
X14644Y66349D02*
X14998D01*
X15789Y64684D02*
Y65038D01*
X32399Y70514D02*
Y70868D01*
X33179Y70514D02*
Y70868D01*
X15404Y59949D02*
X15758D01*
X23781Y71043D02*
X24136D01*
X23145Y47393D02*
X23499D01*
X24120Y46484D02*
Y46838D01*
X18305Y47383D02*
X18659D01*
X17940Y46484D02*
Y46838D01*
X37320Y47393D02*
X37674D01*
X30231D02*
X30585D01*
X16054D02*
X16408D01*
X9085D02*
X9440D01*
X38295Y46484D02*
Y46838D01*
X30909Y46334D02*
Y46688D01*
X17324Y46484D02*
Y46838D01*
X10554Y46484D02*
Y46838D01*
X32480Y47383D02*
X32834D01*
X25391D02*
X25745D01*
X11263D02*
X11617D01*
X4244Y47393D02*
X4598D01*
X32129Y46484D02*
Y46838D01*
X25026Y46484D02*
Y46838D01*
X11154Y46417D02*
Y46772D01*
X3742Y46939D02*
Y47293D01*
X24644Y79393D02*
X24998D01*
X15824Y79393D02*
X16178D01*
X11814Y79393D02*
X12168D01*
X7794Y79669D02*
X8148D01*
X21364Y78303D02*
X21718D01*
X5364Y75593D02*
X5718D01*
X15789Y63684D02*
Y64038D01*
X22228Y50899D02*
X22582D01*
X18494Y50453D02*
X18848D01*
X36403Y50889D02*
X36757D01*
X29314D02*
X29668D01*
X15137D02*
X15491D01*
X8168D02*
X8523D01*
X32670Y50463D02*
X33024D01*
X25581D02*
X25935D01*
X11404D02*
X11758D01*
X4435D02*
X4790D01*
X28724Y77213D02*
X29078D01*
X28724Y77763D02*
X29078D01*
X7969Y70334D02*
Y70688D01*
X4834Y69433D02*
X5188D01*
X12924Y72609D02*
X13278D01*
X12924Y67549D02*
X13278D01*
D138*
X36534Y6191D02*
D03*
X29444Y6161D02*
D03*
X15559Y6163D02*
D03*
X8679D02*
D03*
X33634Y6192D02*
D03*
X26545Y6162D02*
D03*
X12663D02*
D03*
X5793D02*
D03*
X38717Y38915D02*
D03*
X22350Y6163D02*
D03*
X19459Y6162D02*
D03*
X27514Y38191D02*
D03*
X21684Y38801D02*
D03*
X36534Y46691D02*
D03*
X29444Y46661D02*
D03*
X15559Y46663D02*
D03*
X8679D02*
D03*
X33634Y46692D02*
D03*
X26545Y46662D02*
D03*
X12663D02*
D03*
X5793D02*
D03*
X38717Y79415D02*
D03*
X22350Y46663D02*
D03*
X19459Y46662D02*
D03*
X27514Y78691D02*
D03*
X21684Y79301D02*
D03*
D139*
X37807Y8368D02*
D03*
X30718Y8368D02*
D03*
X16541D02*
D03*
X9572Y8368D02*
D03*
X32227Y8368D02*
D03*
X25138Y8368D02*
D03*
X10961D02*
D03*
X3992Y8368D02*
D03*
X23632Y8368D02*
D03*
X18052Y8368D02*
D03*
X18092Y38304D02*
D03*
X14092Y38324D02*
D03*
X10102D02*
D03*
X6590Y36398D02*
D03*
X37807Y48868D02*
D03*
X30718Y48868D02*
D03*
X16541D02*
D03*
X9572Y48868D02*
D03*
X32227Y48868D02*
D03*
X25138Y48868D02*
D03*
X10961D02*
D03*
X3992Y48868D02*
D03*
X23632Y48868D02*
D03*
X18052Y48868D02*
D03*
X18092Y78804D02*
D03*
X14092Y78824D02*
D03*
X10102D02*
D03*
X6590Y76898D02*
D03*
D256*
X37391Y20316D02*
Y22071D01*
X39891Y20316D02*
Y22071D01*
X37391D02*
X39891D01*
X37391Y20316D02*
X37516D01*
X39771D01*
X39891D01*
X37516Y19941D02*
X39771D01*
X37516D02*
Y20316D01*
X39771Y19941D02*
Y20316D01*
X34261D02*
Y22071D01*
X36761Y20316D02*
Y22071D01*
X34261D02*
X36761D01*
X34261Y20316D02*
X34386D01*
X36641D01*
X36761D01*
X34386Y19941D02*
X36641D01*
X34386D02*
Y20316D01*
X36641Y19941D02*
Y20316D01*
X31111D02*
Y22071D01*
X33611Y20316D02*
Y22071D01*
X31111D02*
X33611D01*
X31111Y20316D02*
X31236D01*
X33491D01*
X33611D01*
X31236Y19941D02*
X33491D01*
X31236D02*
Y20316D01*
X33491Y19941D02*
Y20316D01*
X27941D02*
Y22071D01*
X30441Y20316D02*
Y22071D01*
X27941D02*
X30441D01*
X27941Y20316D02*
X28066D01*
X30321D01*
X30441D01*
X28066Y19941D02*
X30321D01*
X28066D02*
Y20316D01*
X30321Y19941D02*
Y20316D01*
X30641Y24401D02*
Y24776D01*
X28386Y24401D02*
Y24776D01*
Y24401D02*
X30641D01*
Y24776D02*
X31261D01*
X28386D02*
X30641D01*
X27761D02*
X28386D01*
X27761Y26531D02*
X31261D01*
Y24776D02*
Y26531D01*
X27761Y24776D02*
Y26531D01*
X31896Y24776D02*
Y26531D01*
X35396Y24776D02*
Y26531D01*
X31896D02*
X35396D01*
X31896Y24776D02*
X32521D01*
X34776D01*
X35396D01*
X32521Y24401D02*
X34776D01*
X32521D02*
Y24776D01*
X34776Y24401D02*
Y24776D01*
X38911Y24401D02*
Y24776D01*
X36656Y24401D02*
Y24776D01*
Y24401D02*
X38911D01*
Y24776D02*
X39531D01*
X36656D02*
X38911D01*
X36031D02*
X36656D01*
X36031Y26531D02*
X39531D01*
Y24776D02*
Y26531D01*
X36031Y24776D02*
Y26531D01*
X31261Y27171D02*
Y28926D01*
X27761Y27171D02*
Y28926D01*
Y27171D02*
X31261D01*
X30636Y28926D02*
X31261D01*
X28381D02*
X30636D01*
X27761D02*
X28381D01*
Y29301D02*
X30636D01*
Y28926D02*
Y29301D01*
X28381Y28926D02*
Y29301D01*
X36651Y28926D02*
Y29301D01*
X38906Y28926D02*
Y29301D01*
X36651D02*
X38906D01*
X36031Y28926D02*
X36651D01*
X38906D01*
X39531D01*
X36031Y27171D02*
X39531D01*
X36031D02*
Y28926D01*
X39531Y27171D02*
Y28926D01*
X35396Y27171D02*
Y28926D01*
X31896Y27171D02*
Y28926D01*
Y27171D02*
X35396D01*
X34771Y28926D02*
X35396D01*
X32516D02*
X34771D01*
X31896D02*
X32516D01*
Y29301D02*
X34771D01*
Y28926D02*
Y29301D01*
X32516Y28926D02*
Y29301D01*
X3051Y37136D02*
Y38891D01*
X5551Y37136D02*
Y38891D01*
X3051D02*
X5551D01*
X3051Y37136D02*
X3176D01*
X5431D01*
X5551D01*
X3176Y36761D02*
X5431D01*
X3176D02*
Y37136D01*
X5431Y36761D02*
Y37136D01*
X37391Y60816D02*
Y62571D01*
X39891Y60816D02*
Y62571D01*
X37391D02*
X39891D01*
X37391Y60816D02*
X37516D01*
X39771D01*
X39891D01*
X37516Y60441D02*
X39771D01*
X37516D02*
Y60816D01*
X39771Y60441D02*
Y60816D01*
X34261D02*
Y62571D01*
X36761Y60816D02*
Y62571D01*
X34261D02*
X36761D01*
X34261Y60816D02*
X34386D01*
X36641D01*
X36761D01*
X34386Y60441D02*
X36641D01*
X34386D02*
Y60816D01*
X36641Y60441D02*
Y60816D01*
X31111D02*
Y62571D01*
X33611Y60816D02*
Y62571D01*
X31111D02*
X33611D01*
X31111Y60816D02*
X31236D01*
X33491D01*
X33611D01*
X31236Y60441D02*
X33491D01*
X31236D02*
Y60816D01*
X33491Y60441D02*
Y60816D01*
X27941D02*
Y62571D01*
X30441Y60816D02*
Y62571D01*
X27941D02*
X30441D01*
X27941Y60816D02*
X28066D01*
X30321D01*
X30441D01*
X28066Y60441D02*
X30321D01*
X28066D02*
Y60816D01*
X30321Y60441D02*
Y60816D01*
X30641Y64901D02*
Y65276D01*
X28386Y64901D02*
Y65276D01*
Y64901D02*
X30641D01*
Y65276D02*
X31261D01*
X28386D02*
X30641D01*
X27761D02*
X28386D01*
X27761Y67031D02*
X31261D01*
Y65276D02*
Y67031D01*
X27761Y65276D02*
Y67031D01*
X31896Y65276D02*
Y67031D01*
X35396Y65276D02*
Y67031D01*
X31896D02*
X35396D01*
X31896Y65276D02*
X32521D01*
X34776D01*
X35396D01*
X32521Y64901D02*
X34776D01*
X32521D02*
Y65276D01*
X34776Y64901D02*
Y65276D01*
X38911Y64901D02*
Y65276D01*
X36656Y64901D02*
Y65276D01*
Y64901D02*
X38911D01*
Y65276D02*
X39531D01*
X36656D02*
X38911D01*
X36031D02*
X36656D01*
X36031Y67031D02*
X39531D01*
Y65276D02*
Y67031D01*
X36031Y65276D02*
Y67031D01*
X31261Y67671D02*
Y69426D01*
X27761Y67671D02*
Y69426D01*
Y67671D02*
X31261D01*
X30636Y69426D02*
X31261D01*
X28381D02*
X30636D01*
X27761D02*
X28381D01*
Y69801D02*
X30636D01*
Y69426D02*
Y69801D01*
X28381Y69426D02*
Y69801D01*
X36651Y69426D02*
Y69801D01*
X38906Y69426D02*
Y69801D01*
X36651D02*
X38906D01*
X36031Y69426D02*
X36651D01*
X38906D01*
X39531D01*
X36031Y67671D02*
X39531D01*
X36031D02*
Y69426D01*
X39531Y67671D02*
Y69426D01*
X35396Y67671D02*
Y69426D01*
X31896Y67671D02*
Y69426D01*
Y67671D02*
X35396D01*
X34771Y69426D02*
X35396D01*
X32516D02*
X34771D01*
X31896D02*
X32516D01*
Y69801D02*
X34771D01*
Y69426D02*
Y69801D01*
X32516Y69426D02*
Y69801D01*
X3051Y77636D02*
Y79391D01*
X5551Y77636D02*
Y79391D01*
X3051D02*
X5551D01*
X3051Y77636D02*
X3176D01*
X5431D01*
X5551D01*
X3176Y77261D02*
X5431D01*
X3176D02*
Y77636D01*
X5431Y77261D02*
Y77636D01*
D257*
X34094Y38732D02*
D03*
X33541Y39050D02*
D03*
X7148Y22228D02*
D03*
X5942Y22230D02*
D03*
X7965Y21910D02*
D03*
X8732Y22914D02*
D03*
X4101Y28620D02*
D03*
X16161Y27470D02*
D03*
X15511Y28800D02*
D03*
Y27552D02*
D03*
X8742Y21910D02*
D03*
X33341Y40440D02*
D03*
X21685Y14320D02*
D03*
X22115Y14002D02*
D03*
X18232Y10799D02*
D03*
X23531Y11130D02*
D03*
X26547Y32317D02*
D03*
X17561Y35352D02*
D03*
X13551Y35335D02*
D03*
X25789Y30525D02*
D03*
X9526Y35335D02*
D03*
X20801Y37700D02*
D03*
X20811Y36602D02*
D03*
X9771Y34580D02*
D03*
X7921Y33852D02*
D03*
X35861Y14320D02*
D03*
X28771D02*
D03*
X14594D02*
D03*
X7605D02*
D03*
X36291Y14002D02*
D03*
X29201D02*
D03*
X15024D02*
D03*
X8035Y14002D02*
D03*
X32407Y10799D02*
D03*
X25318Y10799D02*
D03*
X11141D02*
D03*
X4172Y10799D02*
D03*
X37301Y11140D02*
D03*
X30221Y11140D02*
D03*
X30278Y16634D02*
D03*
X4901Y39432D02*
D03*
X5911Y3720D02*
D03*
X9471Y11140D02*
D03*
X16431D02*
D03*
X30621D02*
D03*
X37701D02*
D03*
X23131Y11130D02*
D03*
X22701Y37350D02*
D03*
X9516Y36431D02*
D03*
X13551Y36431D02*
D03*
X17551Y36430D02*
D03*
X27000Y32317D02*
D03*
X30701Y16632D02*
D03*
X21311Y29772D02*
D03*
X22811Y31792D02*
D03*
X20691Y30090D02*
D03*
X34094Y79232D02*
D03*
X33541Y79550D02*
D03*
X7148Y62728D02*
D03*
X5942Y62730D02*
D03*
X7965Y62410D02*
D03*
X8732Y63414D02*
D03*
X4101Y69120D02*
D03*
X16161Y67970D02*
D03*
X15511Y69300D02*
D03*
Y68052D02*
D03*
X8742Y62410D02*
D03*
X33341Y80940D02*
D03*
X21685Y54820D02*
D03*
X22115Y54502D02*
D03*
X18232Y51299D02*
D03*
X23531Y51630D02*
D03*
X26547Y72817D02*
D03*
X17561Y75852D02*
D03*
X13551Y75835D02*
D03*
X25789Y71025D02*
D03*
X9526Y75835D02*
D03*
X20801Y78200D02*
D03*
X20811Y77102D02*
D03*
X9771Y75080D02*
D03*
X7921Y74352D02*
D03*
X35861Y54820D02*
D03*
X28771D02*
D03*
X14594D02*
D03*
X7605D02*
D03*
X36291Y54502D02*
D03*
X29201D02*
D03*
X15024D02*
D03*
X8035Y54502D02*
D03*
X32407Y51299D02*
D03*
X25318Y51299D02*
D03*
X11141D02*
D03*
X4172Y51299D02*
D03*
X37301Y51640D02*
D03*
X30221Y51640D02*
D03*
X30278Y57134D02*
D03*
X4901Y79932D02*
D03*
X5911Y44220D02*
D03*
X9471Y51640D02*
D03*
X16431D02*
D03*
X30621D02*
D03*
X37701D02*
D03*
X23131Y51630D02*
D03*
X22701Y77850D02*
D03*
X9516Y76931D02*
D03*
X13551Y76931D02*
D03*
X17551Y76930D02*
D03*
X27000Y72817D02*
D03*
X30701Y57132D02*
D03*
X21311Y70272D02*
D03*
X22811Y72292D02*
D03*
X20691Y70590D02*
D03*
D258*
X34094Y39056D02*
D03*
X33541Y38726D02*
D03*
X7148Y21904D02*
D03*
X5942Y21906D02*
D03*
X7965Y22234D02*
D03*
X8732Y23238D02*
D03*
X3671Y28626D02*
D03*
X4101Y28296D02*
D03*
X16161Y27146D02*
D03*
X15511Y28476D02*
D03*
Y27876D02*
D03*
X8742Y22234D02*
D03*
X33341Y40116D02*
D03*
X21685Y13996D02*
D03*
X22115Y14326D02*
D03*
X18232Y11123D02*
D03*
X23531Y10806D02*
D03*
X26547Y31992D02*
D03*
X17561Y35676D02*
D03*
X13551Y35659D02*
D03*
X25789Y30201D02*
D03*
X9526Y35659D02*
D03*
X20801Y37376D02*
D03*
X20811Y36926D02*
D03*
X9771Y34256D02*
D03*
X7921Y34176D02*
D03*
X35861Y13996D02*
D03*
X28771D02*
D03*
X14594D02*
D03*
X7605D02*
D03*
X36291Y14326D02*
D03*
X29201D02*
D03*
X15024D02*
D03*
X8035Y14326D02*
D03*
X32407Y11123D02*
D03*
X25318Y11123D02*
D03*
X11141D02*
D03*
X4172Y11123D02*
D03*
X37301Y10816D02*
D03*
X30221Y10816D02*
D03*
X9361Y30856D02*
D03*
X14461Y30756D02*
D03*
X17441Y19206D02*
D03*
X16581Y27466D02*
D03*
X20091Y30096D02*
D03*
X36351Y19210D02*
D03*
X33821Y19180D02*
D03*
X31361Y19220D02*
D03*
X28851Y19205D02*
D03*
X39941Y41836D02*
D03*
X26231Y23926D02*
D03*
X16551Y25586D02*
D03*
X23981Y18796D02*
D03*
X26221Y22596D02*
D03*
X23211Y29226D02*
D03*
X16561Y25136D02*
D03*
X16411Y23056D02*
D03*
X22585Y13996D02*
D03*
X18645Y10796D02*
D03*
X9776Y33731D02*
D03*
X36751Y13996D02*
D03*
X29671D02*
D03*
X15491D02*
D03*
X8505D02*
D03*
X32820Y10796D02*
D03*
X25731Y10796D02*
D03*
X11554D02*
D03*
X4585Y10796D02*
D03*
X30278Y16958D02*
D03*
X4901Y39756D02*
D03*
X5911Y3396D02*
D03*
X15041Y30696D02*
D03*
X9071Y10816D02*
D03*
X16031D02*
D03*
X9471D02*
D03*
X16431D02*
D03*
X30621D02*
D03*
X37701D02*
D03*
X23131Y10806D02*
D03*
X26537Y33553D02*
D03*
X22701Y37026D02*
D03*
X9516Y36107D02*
D03*
X13551Y36107D02*
D03*
X17551Y36106D02*
D03*
X27000Y31992D02*
D03*
X18071Y19206D02*
D03*
X30701Y16956D02*
D03*
X21311Y30096D02*
D03*
X22811Y32116D02*
D03*
X20691Y29766D02*
D03*
X7321Y29726D02*
D03*
X34094Y79556D02*
D03*
X33541Y79226D02*
D03*
X7148Y62404D02*
D03*
X5942Y62406D02*
D03*
X7965Y62734D02*
D03*
X8732Y63738D02*
D03*
X3671Y69126D02*
D03*
X4101Y68796D02*
D03*
X16161Y67646D02*
D03*
X15511Y68976D02*
D03*
Y68376D02*
D03*
X8742Y62734D02*
D03*
X33341Y80616D02*
D03*
X21685Y54496D02*
D03*
X22115Y54826D02*
D03*
X18232Y51623D02*
D03*
X23531Y51306D02*
D03*
X26547Y72492D02*
D03*
X17561Y76176D02*
D03*
X13551Y76159D02*
D03*
X25789Y70701D02*
D03*
X9526Y76159D02*
D03*
X20801Y77876D02*
D03*
X20811Y77426D02*
D03*
X9771Y74756D02*
D03*
X7921Y74676D02*
D03*
X35861Y54496D02*
D03*
X28771D02*
D03*
X14594D02*
D03*
X7605D02*
D03*
X36291Y54826D02*
D03*
X29201D02*
D03*
X15024D02*
D03*
X8035Y54826D02*
D03*
X32407Y51623D02*
D03*
X25318Y51623D02*
D03*
X11141D02*
D03*
X4172Y51623D02*
D03*
X37301Y51316D02*
D03*
X30221Y51316D02*
D03*
X9361Y71356D02*
D03*
X14461Y71256D02*
D03*
X17441Y59706D02*
D03*
X16581Y67966D02*
D03*
X20091Y70596D02*
D03*
X36351Y59710D02*
D03*
X33821Y59680D02*
D03*
X31361Y59720D02*
D03*
X28851Y59705D02*
D03*
X39941Y82336D02*
D03*
X26231Y64426D02*
D03*
X16551Y66086D02*
D03*
X23981Y59296D02*
D03*
X26221Y63096D02*
D03*
X23211Y69726D02*
D03*
X16561Y65636D02*
D03*
X16411Y63556D02*
D03*
X22585Y54496D02*
D03*
X18645Y51296D02*
D03*
X9776Y74231D02*
D03*
X36751Y54496D02*
D03*
X29671D02*
D03*
X15491D02*
D03*
X8505D02*
D03*
X32820Y51296D02*
D03*
X25731Y51296D02*
D03*
X11554D02*
D03*
X4585Y51296D02*
D03*
X30278Y57458D02*
D03*
X4901Y80256D02*
D03*
X5911Y43896D02*
D03*
X15041Y71196D02*
D03*
X9071Y51316D02*
D03*
X16031D02*
D03*
X9471D02*
D03*
X16431D02*
D03*
X30621D02*
D03*
X37701D02*
D03*
X23131Y51306D02*
D03*
X26537Y74053D02*
D03*
X22701Y77526D02*
D03*
X9516Y76607D02*
D03*
X13551Y76607D02*
D03*
X17551Y76606D02*
D03*
X27000Y72492D02*
D03*
X18071Y59706D02*
D03*
X30701Y57456D02*
D03*
X21311Y70596D02*
D03*
X22811Y72616D02*
D03*
X20691Y70266D02*
D03*
X7321Y70226D02*
D03*
D259*
X24480Y10795D02*
D03*
X9320Y28291D02*
D03*
X14870Y28461D02*
D03*
X9320Y28731D02*
D03*
X14860Y27911D02*
D03*
X16470Y24381D02*
D03*
X3532Y22251D02*
D03*
X33343Y40895D02*
D03*
X5012Y31571D02*
D03*
X26500Y34087D02*
D03*
X28567Y29657D02*
D03*
X7880Y34621D02*
D03*
X17400Y10021D02*
D03*
X10290Y10011D02*
D03*
X38660Y10801D02*
D03*
X31550Y10791D02*
D03*
X17400Y10801D02*
D03*
X10290Y10801D02*
D03*
X35762Y23081D02*
D03*
X31822Y23081D02*
D03*
X28432Y23561D02*
D03*
X37442Y23081D02*
D03*
X33472D02*
D03*
X30022Y23081D02*
D03*
X5330Y30351D02*
D03*
Y30961D02*
D03*
X22914Y15061D02*
D03*
X28042Y15898D02*
D03*
X17776Y15366D02*
D03*
X10266Y15750D02*
D03*
X25880Y18731D02*
D03*
X25552Y19131D02*
D03*
X25890Y18041D02*
D03*
X5792Y32111D02*
D03*
X3550Y12621D02*
D03*
X42038Y39567D02*
D03*
X41142Y5841D02*
D03*
X42207Y38028D02*
D03*
X36612Y23081D02*
D03*
X32652D02*
D03*
X29222Y23080D02*
D03*
X38272Y23081D02*
D03*
X34302D02*
D03*
X30842D02*
D03*
X13583Y22748D02*
D03*
X26500Y34507D02*
D03*
X20690Y28931D02*
D03*
X11672Y25601D02*
D03*
X24480Y51295D02*
D03*
X9320Y68791D02*
D03*
X14870Y68961D02*
D03*
X9320Y69231D02*
D03*
X14860Y68411D02*
D03*
X16470Y64881D02*
D03*
X3532Y62751D02*
D03*
X33343Y81395D02*
D03*
X5012Y72071D02*
D03*
X26500Y74587D02*
D03*
X28567Y70157D02*
D03*
X7880Y75121D02*
D03*
X17400Y50521D02*
D03*
X10290Y50511D02*
D03*
X38660Y51301D02*
D03*
X31550Y51291D02*
D03*
X17400Y51301D02*
D03*
X10290Y51301D02*
D03*
X35762Y63581D02*
D03*
X31822Y63581D02*
D03*
X28432Y64061D02*
D03*
X37442Y63581D02*
D03*
X33472D02*
D03*
X30022Y63581D02*
D03*
X5330Y70851D02*
D03*
Y71461D02*
D03*
X22914Y55561D02*
D03*
X28042Y56398D02*
D03*
X17776Y55866D02*
D03*
X10266Y56250D02*
D03*
X25880Y59231D02*
D03*
X25552Y59631D02*
D03*
X25890Y58541D02*
D03*
X5792Y72611D02*
D03*
X3550Y53121D02*
D03*
X42038Y80067D02*
D03*
X41142Y46341D02*
D03*
X42207Y78528D02*
D03*
X36612Y63581D02*
D03*
X32652D02*
D03*
X29222Y63580D02*
D03*
X38272Y63581D02*
D03*
X34302D02*
D03*
X30842D02*
D03*
X13583Y63248D02*
D03*
X26500Y75007D02*
D03*
X20690Y69431D02*
D03*
X11672Y66101D02*
D03*
D260*
X24156Y10795D02*
D03*
X8996Y28291D02*
D03*
X14546Y28461D02*
D03*
X8996Y28731D02*
D03*
X14536Y27911D02*
D03*
X16146Y24381D02*
D03*
X3856Y22251D02*
D03*
X33019Y40895D02*
D03*
X5336Y31571D02*
D03*
X26176Y34087D02*
D03*
X28242Y29657D02*
D03*
X7556Y34621D02*
D03*
X17076Y10021D02*
D03*
X9966Y10011D02*
D03*
X38336Y10801D02*
D03*
X31226Y10791D02*
D03*
X17076Y10801D02*
D03*
X9966Y10801D02*
D03*
X36086Y23081D02*
D03*
X32146Y23081D02*
D03*
X28756Y23561D02*
D03*
X37766Y23081D02*
D03*
X33796D02*
D03*
X30346Y23081D02*
D03*
X5006Y30351D02*
D03*
Y30961D02*
D03*
X33905Y10331D02*
D03*
X26816D02*
D03*
X12639Y10361D02*
D03*
X5670Y10331D02*
D03*
X9006Y30221D02*
D03*
X38336Y10401D02*
D03*
X31226Y10401D02*
D03*
X17076Y10411D02*
D03*
X9966Y10401D02*
D03*
X3856Y22651D02*
D03*
X34109Y39815D02*
D03*
X28572Y31037D02*
D03*
Y30607D02*
D03*
X27524Y32315D02*
D03*
X24746Y18921D02*
D03*
X22456Y28881D02*
D03*
X36086Y23551D02*
D03*
X32146Y23561D02*
D03*
X28756Y23081D02*
D03*
X15916Y22161D02*
D03*
X16246Y26721D02*
D03*
X15926Y22561D02*
D03*
X37766Y23551D02*
D03*
X33796Y23551D02*
D03*
X30346Y23561D02*
D03*
X16626Y19321D02*
D03*
X18696Y28841D02*
D03*
X19730Y10331D02*
D03*
X24156Y10011D02*
D03*
X22676Y36561D02*
D03*
X33095Y18191D02*
D03*
X23238Y15061D02*
D03*
X28366Y15898D02*
D03*
X18100Y15366D02*
D03*
X10590Y15750D02*
D03*
X25556Y18731D02*
D03*
X25876Y19131D02*
D03*
X25566Y18041D02*
D03*
X6116Y32111D02*
D03*
X3226Y12621D02*
D03*
X42362Y39567D02*
D03*
X41466Y5841D02*
D03*
X42531Y38028D02*
D03*
X42201Y38428D02*
D03*
X36936Y23081D02*
D03*
X32976D02*
D03*
X29546Y23080D02*
D03*
X38596Y23081D02*
D03*
X34626D02*
D03*
X31166D02*
D03*
X3627Y21781D02*
D03*
X13907Y22748D02*
D03*
X31226Y10011D02*
D03*
X38336D02*
D03*
X24156Y10391D02*
D03*
X10931Y35209D02*
D03*
X14947Y35219D02*
D03*
X18958Y35191D02*
D03*
X26176Y34507D02*
D03*
X20366Y28931D02*
D03*
X11996Y25601D02*
D03*
X7486Y30741D02*
D03*
X25817Y31026D02*
D03*
X24156Y51295D02*
D03*
X8996Y68791D02*
D03*
X14546Y68961D02*
D03*
X8996Y69231D02*
D03*
X14536Y68411D02*
D03*
X16146Y64881D02*
D03*
X3856Y62751D02*
D03*
X33019Y81395D02*
D03*
X5336Y72071D02*
D03*
X26176Y74587D02*
D03*
X28242Y70157D02*
D03*
X7556Y75121D02*
D03*
X17076Y50521D02*
D03*
X9966Y50511D02*
D03*
X38336Y51301D02*
D03*
X31226Y51291D02*
D03*
X17076Y51301D02*
D03*
X9966Y51301D02*
D03*
X36086Y63581D02*
D03*
X32146Y63581D02*
D03*
X28756Y64061D02*
D03*
X37766Y63581D02*
D03*
X33796D02*
D03*
X30346Y63581D02*
D03*
X5006Y70851D02*
D03*
Y71461D02*
D03*
X33905Y50831D02*
D03*
X26816D02*
D03*
X12639Y50861D02*
D03*
X5670Y50831D02*
D03*
X9006Y70721D02*
D03*
X38336Y50901D02*
D03*
X31226Y50901D02*
D03*
X17076Y50911D02*
D03*
X9966Y50901D02*
D03*
X3856Y63151D02*
D03*
X34109Y80315D02*
D03*
X28572Y71537D02*
D03*
Y71107D02*
D03*
X27524Y72815D02*
D03*
X24746Y59421D02*
D03*
X22456Y69381D02*
D03*
X36086Y64051D02*
D03*
X32146Y64061D02*
D03*
X28756Y63581D02*
D03*
X15916Y62661D02*
D03*
X16246Y67221D02*
D03*
X15926Y63061D02*
D03*
X37766Y64051D02*
D03*
X33796Y64051D02*
D03*
X30346Y64061D02*
D03*
X16626Y59821D02*
D03*
X18696Y69341D02*
D03*
X19730Y50831D02*
D03*
X24156Y50511D02*
D03*
X22676Y77061D02*
D03*
X33095Y58691D02*
D03*
X23238Y55561D02*
D03*
X28366Y56398D02*
D03*
X18100Y55866D02*
D03*
X10590Y56250D02*
D03*
X25556Y59231D02*
D03*
X25876Y59631D02*
D03*
X25566Y58541D02*
D03*
X6116Y72611D02*
D03*
X3226Y53121D02*
D03*
X42362Y80067D02*
D03*
X41466Y46341D02*
D03*
X42531Y78528D02*
D03*
X42201Y78928D02*
D03*
X36936Y63581D02*
D03*
X32976D02*
D03*
X29546Y63580D02*
D03*
X38596Y63581D02*
D03*
X34626D02*
D03*
X31166D02*
D03*
X3627Y62281D02*
D03*
X13907Y63248D02*
D03*
X31226Y50511D02*
D03*
X38336D02*
D03*
X24156Y50891D02*
D03*
X10931Y75709D02*
D03*
X14947Y75719D02*
D03*
X18958Y75691D02*
D03*
X26176Y75007D02*
D03*
X20366Y69431D02*
D03*
X11996Y66101D02*
D03*
X7486Y71241D02*
D03*
X25817Y71526D02*
D03*
D261*
X10045Y22771D02*
D03*
X10537D02*
D03*
X16387Y20631D02*
D03*
X15895D02*
D03*
X23745Y29061D02*
D03*
X24237D02*
D03*
X36855Y18861D02*
D03*
X37347D02*
D03*
X34325Y18831D02*
D03*
X34817D02*
D03*
X31865Y18871D02*
D03*
X32357D02*
D03*
X29355Y18855D02*
D03*
X29847D02*
D03*
X36855Y19611D02*
D03*
X37347D02*
D03*
X34325Y19581D02*
D03*
X34817D02*
D03*
X31865Y19621D02*
D03*
X32357D02*
D03*
X29355Y19605D02*
D03*
X29847D02*
D03*
X26757Y39031D02*
D03*
X26265Y39031D02*
D03*
X16765Y39031D02*
D03*
X17257Y39031D02*
D03*
X12765Y39031D02*
D03*
X13257Y39031D02*
D03*
X8735Y39031D02*
D03*
X9227Y39031D02*
D03*
X19035Y39031D02*
D03*
X19527Y39031D02*
D03*
X7207Y39031D02*
D03*
X6715Y39031D02*
D03*
X17745Y29511D02*
D03*
X18237D02*
D03*
X41097Y11921D02*
D03*
X40605D02*
D03*
X41097Y11381D02*
D03*
X40605D02*
D03*
X14575Y25711D02*
D03*
X15067D02*
D03*
X15335Y19311D02*
D03*
X15827Y19311D02*
D03*
X24205Y30406D02*
D03*
X23713D02*
D03*
X23076Y7031D02*
D03*
X23568D02*
D03*
X18236Y7021D02*
D03*
X18728D02*
D03*
X37743Y7031D02*
D03*
X37251D02*
D03*
X30654D02*
D03*
X30162D02*
D03*
X16477D02*
D03*
X15985D02*
D03*
X9509D02*
D03*
X9016D02*
D03*
X32903Y7021D02*
D03*
X32411D02*
D03*
X25814D02*
D03*
X25322D02*
D03*
X11686D02*
D03*
X11194D02*
D03*
X4667Y7031D02*
D03*
X4175D02*
D03*
X24575Y39031D02*
D03*
X25067Y39031D02*
D03*
X15755Y39031D02*
D03*
X16247Y39031D02*
D03*
X11745Y39031D02*
D03*
X12237D02*
D03*
X8217Y39031D02*
D03*
X7725Y39031D02*
D03*
X21295Y37941D02*
D03*
X21787Y37941D02*
D03*
X5295Y35231D02*
D03*
X5787Y35231D02*
D03*
X22159Y10261D02*
D03*
X22651D02*
D03*
X18917Y10091D02*
D03*
X18425D02*
D03*
X36334Y10251D02*
D03*
X36826D02*
D03*
X29245D02*
D03*
X29737D02*
D03*
X15068D02*
D03*
X15560D02*
D03*
X8099D02*
D03*
X8592D02*
D03*
X33093Y10101D02*
D03*
X32601D02*
D03*
X26004D02*
D03*
X25512D02*
D03*
X11827D02*
D03*
X11335D02*
D03*
X4858D02*
D03*
X4366D02*
D03*
X29147Y36851D02*
D03*
X28655Y36851D02*
D03*
X29147Y37401D02*
D03*
X28655Y37401D02*
D03*
X4765Y29071D02*
D03*
X5257D02*
D03*
X13347Y31971D02*
D03*
X12855D02*
D03*
X13347Y26911D02*
D03*
X12855D02*
D03*
X10045Y63271D02*
D03*
X10537D02*
D03*
X16387Y61131D02*
D03*
X15895D02*
D03*
X23745Y69561D02*
D03*
X24237D02*
D03*
X36855Y59361D02*
D03*
X37347D02*
D03*
X34325Y59331D02*
D03*
X34817D02*
D03*
X31865Y59371D02*
D03*
X32357D02*
D03*
X29355Y59355D02*
D03*
X29847D02*
D03*
X36855Y60111D02*
D03*
X37347D02*
D03*
X34325Y60081D02*
D03*
X34817D02*
D03*
X31865Y60121D02*
D03*
X32357D02*
D03*
X29355Y60105D02*
D03*
X29847D02*
D03*
X26757Y79531D02*
D03*
X26265Y79531D02*
D03*
X16765Y79531D02*
D03*
X17257Y79531D02*
D03*
X12765Y79531D02*
D03*
X13257Y79531D02*
D03*
X8735Y79531D02*
D03*
X9227Y79531D02*
D03*
X19035Y79531D02*
D03*
X19527Y79531D02*
D03*
X7207Y79531D02*
D03*
X6715Y79531D02*
D03*
X17745Y70011D02*
D03*
X18237D02*
D03*
X41097Y52421D02*
D03*
X40605D02*
D03*
X41097Y51881D02*
D03*
X40605D02*
D03*
X14575Y66211D02*
D03*
X15067D02*
D03*
X15335Y59811D02*
D03*
X15827Y59811D02*
D03*
X24205Y70906D02*
D03*
X23713D02*
D03*
X23076Y47531D02*
D03*
X23568D02*
D03*
X18236Y47521D02*
D03*
X18728D02*
D03*
X37743Y47531D02*
D03*
X37251D02*
D03*
X30654D02*
D03*
X30162D02*
D03*
X16477D02*
D03*
X15985D02*
D03*
X9509D02*
D03*
X9016D02*
D03*
X32903Y47521D02*
D03*
X32411D02*
D03*
X25814D02*
D03*
X25322D02*
D03*
X11686D02*
D03*
X11194D02*
D03*
X4667Y47531D02*
D03*
X4175D02*
D03*
X24575Y79531D02*
D03*
X25067Y79531D02*
D03*
X15755Y79531D02*
D03*
X16247Y79531D02*
D03*
X11745Y79531D02*
D03*
X12237D02*
D03*
X8217Y79531D02*
D03*
X7725Y79531D02*
D03*
X21295Y78441D02*
D03*
X21787Y78441D02*
D03*
X5295Y75731D02*
D03*
X5787Y75731D02*
D03*
X22159Y50761D02*
D03*
X22651D02*
D03*
X18917Y50591D02*
D03*
X18425D02*
D03*
X36334Y50751D02*
D03*
X36826D02*
D03*
X29245D02*
D03*
X29737D02*
D03*
X15068D02*
D03*
X15560D02*
D03*
X8099D02*
D03*
X8592D02*
D03*
X33093Y50601D02*
D03*
X32601D02*
D03*
X26004D02*
D03*
X25512D02*
D03*
X11827D02*
D03*
X11335D02*
D03*
X4858D02*
D03*
X4366D02*
D03*
X29147Y77351D02*
D03*
X28655Y77351D02*
D03*
X29147Y77901D02*
D03*
X28655Y77901D02*
D03*
X4765Y69571D02*
D03*
X5257D02*
D03*
X13347Y72471D02*
D03*
X12855D02*
D03*
X13347Y67411D02*
D03*
X12855D02*
D03*
D262*
X3671Y28302D02*
D03*
X9361Y31180D02*
D03*
X14461Y31080D02*
D03*
X17441Y18882D02*
D03*
X16581Y27142D02*
D03*
X20091Y29772D02*
D03*
X36351Y18886D02*
D03*
X33821Y18856D02*
D03*
X31361Y18896D02*
D03*
X28851Y18881D02*
D03*
X39941Y41512D02*
D03*
X26231Y23602D02*
D03*
X16551Y25910D02*
D03*
X23981Y19120D02*
D03*
X26221Y22920D02*
D03*
X23211Y28902D02*
D03*
X16561Y24812D02*
D03*
X16411Y23380D02*
D03*
X22585Y14320D02*
D03*
X18645Y11120D02*
D03*
X9776Y33407D02*
D03*
X36751Y14320D02*
D03*
X29671D02*
D03*
X15491D02*
D03*
X8505D02*
D03*
X32820Y11120D02*
D03*
X25731Y11120D02*
D03*
X11554D02*
D03*
X4585Y11120D02*
D03*
X15041Y30372D02*
D03*
X9071Y11140D02*
D03*
X16031D02*
D03*
X26537Y33229D02*
D03*
X18071Y18882D02*
D03*
X7321Y30050D02*
D03*
X3671Y68802D02*
D03*
X9361Y71680D02*
D03*
X14461Y71580D02*
D03*
X17441Y59382D02*
D03*
X16581Y67642D02*
D03*
X20091Y70272D02*
D03*
X36351Y59386D02*
D03*
X33821Y59356D02*
D03*
X31361Y59396D02*
D03*
X28851Y59381D02*
D03*
X39941Y82012D02*
D03*
X26231Y64102D02*
D03*
X16551Y66410D02*
D03*
X23981Y59620D02*
D03*
X26221Y63420D02*
D03*
X23211Y69402D02*
D03*
X16561Y65312D02*
D03*
X16411Y63880D02*
D03*
X22585Y54820D02*
D03*
X18645Y51620D02*
D03*
X9776Y73907D02*
D03*
X36751Y54820D02*
D03*
X29671D02*
D03*
X15491D02*
D03*
X8505D02*
D03*
X32820Y51620D02*
D03*
X25731Y51620D02*
D03*
X11554D02*
D03*
X4585Y51620D02*
D03*
X15041Y70872D02*
D03*
X9071Y51640D02*
D03*
X16031D02*
D03*
X26537Y73729D02*
D03*
X18071Y59382D02*
D03*
X7321Y70550D02*
D03*
D263*
X39651Y18955D02*
D03*
Y19447D02*
D03*
X18771Y29877D02*
D03*
Y29385D02*
D03*
X36854Y41341D02*
D03*
X36854Y40849D02*
D03*
X15651Y24607D02*
D03*
Y24115D02*
D03*
X32261Y30437D02*
D03*
X32261Y29945D02*
D03*
X33041Y30437D02*
D03*
X33041Y29945D02*
D03*
X23982Y5915D02*
D03*
Y6407D02*
D03*
X17802Y5915D02*
D03*
Y6407D02*
D03*
X38157Y6407D02*
D03*
Y5915D02*
D03*
X30771Y6257D02*
D03*
Y5765D02*
D03*
X17186Y6407D02*
D03*
Y5915D02*
D03*
X10416Y6407D02*
D03*
Y5915D02*
D03*
X31991Y6407D02*
D03*
Y5915D02*
D03*
X24888Y6407D02*
D03*
Y5915D02*
D03*
X11016Y6341D02*
D03*
Y5848D02*
D03*
X3604Y6862D02*
D03*
Y6370D02*
D03*
X15651Y23607D02*
D03*
Y23115D02*
D03*
X7831Y29765D02*
D03*
Y30257D02*
D03*
X39651Y59455D02*
D03*
Y59947D02*
D03*
X18771Y70377D02*
D03*
Y69885D02*
D03*
X36854Y81841D02*
D03*
X36854Y81349D02*
D03*
X15651Y65107D02*
D03*
Y64615D02*
D03*
X32261Y70937D02*
D03*
X32261Y70445D02*
D03*
X33041Y70937D02*
D03*
X33041Y70445D02*
D03*
X23982Y46415D02*
D03*
Y46907D02*
D03*
X17802Y46415D02*
D03*
Y46907D02*
D03*
X38157Y46907D02*
D03*
Y46415D02*
D03*
X30771Y46757D02*
D03*
Y46265D02*
D03*
X17186Y46907D02*
D03*
Y46415D02*
D03*
X10416Y46907D02*
D03*
Y46415D02*
D03*
X31991Y46907D02*
D03*
Y46415D02*
D03*
X24888Y46907D02*
D03*
Y46415D02*
D03*
X11016Y46841D02*
D03*
Y46348D02*
D03*
X3604Y47362D02*
D03*
Y46870D02*
D03*
X15651Y64107D02*
D03*
Y63615D02*
D03*
X7831Y70265D02*
D03*
Y70757D02*
D03*
D264*
X25581Y34752D02*
D03*
X25081D02*
D03*
X17026Y35552D02*
D03*
X16526D02*
D03*
X13016D02*
D03*
X12516D02*
D03*
X9031D02*
D03*
X8531D02*
D03*
X25581Y75252D02*
D03*
X25081D02*
D03*
X17026Y76052D02*
D03*
X16526D02*
D03*
X13016D02*
D03*
X12516D02*
D03*
X9031D02*
D03*
X8531D02*
D03*
D265*
X25581Y34717D02*
D03*
X25081D02*
D03*
X17026Y35517D02*
D03*
X16526D02*
D03*
X13016D02*
D03*
X12516D02*
D03*
X9031D02*
D03*
X8531D02*
D03*
X25581Y75217D02*
D03*
X25081D02*
D03*
X17026Y76017D02*
D03*
X16526D02*
D03*
X13016D02*
D03*
X12516D02*
D03*
X9031D02*
D03*
X8531D02*
D03*
D266*
X24576Y34752D02*
D03*
X24076D02*
D03*
X16021Y35552D02*
D03*
X15521D02*
D03*
X12011D02*
D03*
X11511D02*
D03*
X8026D02*
D03*
X7526D02*
D03*
X24576Y75252D02*
D03*
X24076D02*
D03*
X16021Y76052D02*
D03*
X15521D02*
D03*
X12011D02*
D03*
X11511D02*
D03*
X8026D02*
D03*
X7526D02*
D03*
D267*
X24576Y34717D02*
D03*
X24076D02*
D03*
X16021Y35517D02*
D03*
X15521D02*
D03*
X12011D02*
D03*
X11511D02*
D03*
X8026D02*
D03*
X7526D02*
D03*
X24576Y75217D02*
D03*
X24076D02*
D03*
X16021Y76017D02*
D03*
X15521D02*
D03*
X12011D02*
D03*
X11511D02*
D03*
X8026D02*
D03*
X7526D02*
D03*
D268*
X3761Y31573D02*
D03*
X16501Y38453D02*
D03*
X3761Y30353D02*
D03*
X12511Y38453D02*
D03*
X8491D02*
D03*
X3761Y30963D02*
D03*
Y72073D02*
D03*
X16501Y78953D02*
D03*
X3761Y70853D02*
D03*
X12511Y78953D02*
D03*
X8491D02*
D03*
X3761Y71463D02*
D03*
D269*
X4356Y31573D02*
D03*
X17096Y38453D02*
D03*
X4356Y30353D02*
D03*
X13106Y38453D02*
D03*
X9086D02*
D03*
X4356Y30963D02*
D03*
Y72073D02*
D03*
X17096Y78953D02*
D03*
X4356Y70853D02*
D03*
X13106Y78953D02*
D03*
X9086D02*
D03*
X4356Y71463D02*
D03*
D270*
X13541Y25694D02*
D03*
X15861Y19979D02*
D03*
X24475Y29739D02*
D03*
X36204Y42043D02*
D03*
X5242Y21964D02*
D03*
X13541Y66194D02*
D03*
X15861Y60479D02*
D03*
X24475Y70239D02*
D03*
X36204Y82543D02*
D03*
X5242Y62464D02*
D03*
D271*
X12969Y25694D02*
D03*
X16433Y19979D02*
D03*
X23903Y29739D02*
D03*
X36777Y42043D02*
D03*
X4670Y21964D02*
D03*
X12969Y66194D02*
D03*
X16433Y60479D02*
D03*
X23903Y70239D02*
D03*
X36777Y82543D02*
D03*
X4670Y62464D02*
D03*
D272*
X39146Y21194D02*
D03*
X36016D02*
D03*
X32866D02*
D03*
X29696D02*
D03*
X30516Y25654D02*
D03*
X34651D02*
D03*
X38786D02*
D03*
X28506Y28048D02*
D03*
X36776D02*
D03*
X32641D02*
D03*
X4806Y38014D02*
D03*
X39146Y61694D02*
D03*
X36016D02*
D03*
X32866D02*
D03*
X29696D02*
D03*
X30516Y66154D02*
D03*
X34651D02*
D03*
X38786D02*
D03*
X28506Y68548D02*
D03*
X36776D02*
D03*
X32641D02*
D03*
X4806Y78514D02*
D03*
D273*
X38141Y21194D02*
D03*
X35011D02*
D03*
X31861D02*
D03*
X28691D02*
D03*
X28511Y25654D02*
D03*
X32646D02*
D03*
X36781D02*
D03*
X30511Y28048D02*
D03*
X38781D02*
D03*
X34646D02*
D03*
X3801Y38014D02*
D03*
X38141Y61694D02*
D03*
X35011D02*
D03*
X31861D02*
D03*
X28691D02*
D03*
X28511Y66154D02*
D03*
X32646D02*
D03*
X36781D02*
D03*
X30511Y68548D02*
D03*
X38781D02*
D03*
X34646D02*
D03*
X3801Y78514D02*
D03*
D274*
X6193Y38911D02*
D03*
X25669Y38321D02*
D03*
X19059Y37681D02*
D03*
X6193Y79411D02*
D03*
X25669Y78821D02*
D03*
X19059Y78181D02*
D03*
D275*
X6193Y38316D02*
D03*
X25669Y38916D02*
D03*
X19059Y38276D02*
D03*
X6193Y78816D02*
D03*
X25669Y79416D02*
D03*
X19059Y78776D02*
D03*
D276*
X35316Y6193D02*
D03*
X28226Y6163D02*
D03*
X14341Y6166D02*
D03*
X7461D02*
D03*
X34852Y6189D02*
D03*
X27763Y6159D02*
D03*
X13881D02*
D03*
X7011D02*
D03*
X37499Y38918D02*
D03*
X21132Y6166D02*
D03*
X20677Y6159D02*
D03*
X26296Y38193D02*
D03*
X20466Y38804D02*
D03*
X35316Y46693D02*
D03*
X28226Y46663D02*
D03*
X14341Y46666D02*
D03*
X7461D02*
D03*
X34852Y46689D02*
D03*
X27763Y46659D02*
D03*
X13881D02*
D03*
X7011D02*
D03*
X37499Y79418D02*
D03*
X21132Y46666D02*
D03*
X20677Y46659D02*
D03*
X26296Y78693D02*
D03*
X20466Y79304D02*
D03*
D277*
X37361Y6189D02*
D03*
X30271Y6158D02*
D03*
X16386Y6161D02*
D03*
X9506D02*
D03*
X32807Y6194D02*
D03*
X25719Y6164D02*
D03*
X11837D02*
D03*
X4966D02*
D03*
X39544Y38913D02*
D03*
X23177Y6161D02*
D03*
X18633Y6164D02*
D03*
X28341Y38189D02*
D03*
X22511Y38799D02*
D03*
X37361Y46689D02*
D03*
X30271Y46659D02*
D03*
X16386Y46661D02*
D03*
X9506D02*
D03*
X32807Y46694D02*
D03*
X25719Y46664D02*
D03*
X11837D02*
D03*
X4966D02*
D03*
X39544Y79413D02*
D03*
X23177Y46661D02*
D03*
X18633Y46664D02*
D03*
X28341Y78689D02*
D03*
X22511Y79299D02*
D03*
D278*
X37810Y9586D02*
D03*
X30721Y9586D02*
D03*
X16543D02*
D03*
X9575Y9586D02*
D03*
X32230Y9586D02*
D03*
X25141Y9586D02*
D03*
X10963D02*
D03*
X3995Y9586D02*
D03*
X23635Y9586D02*
D03*
X18055Y9586D02*
D03*
X18089Y37086D02*
D03*
X14089Y37106D02*
D03*
X10099D02*
D03*
X6593Y37616D02*
D03*
X37810Y50086D02*
D03*
X30721Y50086D02*
D03*
X16543D02*
D03*
X9575Y50086D02*
D03*
X32230Y50086D02*
D03*
X25141Y50086D02*
D03*
X10963D02*
D03*
X3995Y50086D02*
D03*
X23635Y50086D02*
D03*
X18055Y50086D02*
D03*
X18089Y77586D02*
D03*
X14089Y77606D02*
D03*
X10099D02*
D03*
X6593Y78116D02*
D03*
D279*
X37805Y7541D02*
D03*
X30716Y7541D02*
D03*
X16538D02*
D03*
X9570Y7541D02*
D03*
X32225Y7541D02*
D03*
X25136Y7541D02*
D03*
X10958D02*
D03*
X3990Y7541D02*
D03*
X23630Y7541D02*
D03*
X18050Y7541D02*
D03*
X18094Y39131D02*
D03*
X14094Y39151D02*
D03*
X10104D02*
D03*
X6588Y35571D02*
D03*
X37805Y48041D02*
D03*
X30716Y48041D02*
D03*
X16538D02*
D03*
X9570Y48041D02*
D03*
X32225Y48041D02*
D03*
X25136Y48041D02*
D03*
X10958D02*
D03*
X3990Y48041D02*
D03*
X23630Y48041D02*
D03*
X18050Y48041D02*
D03*
X18094Y79631D02*
D03*
X14094Y79651D02*
D03*
X10104D02*
D03*
X6588Y76071D02*
D03*
D280*
X3545Y29183D02*
D03*
X4117Y36189D02*
D03*
X19755Y37943D02*
D03*
X7647Y38329D02*
D03*
X23657Y38939D02*
D03*
X41910Y39020D02*
D03*
X3545Y69683D02*
D03*
X4117Y76689D02*
D03*
X19755Y78443D02*
D03*
X7647Y78829D02*
D03*
X23657Y79439D02*
D03*
X41910Y79520D02*
D03*
D281*
X38350Y18936D02*
D03*
X35830Y18886D02*
D03*
X33360Y18946D02*
D03*
X30850Y18930D02*
D03*
X37852Y19286D02*
D03*
X35322Y19256D02*
D03*
X32862Y19296D02*
D03*
X30353Y19281D02*
D03*
X38350Y59436D02*
D03*
X35830Y59386D02*
D03*
X33360Y59446D02*
D03*
X30850Y59430D02*
D03*
X37852Y59786D02*
D03*
X35322Y59756D02*
D03*
X32862Y59796D02*
D03*
X30353Y59781D02*
D03*
D282*
X38349Y19371D02*
D03*
X35829Y19321D02*
D03*
X33359Y19381D02*
D03*
X30849Y19365D02*
D03*
X37853Y18851D02*
D03*
X35323Y18821D02*
D03*
X32863Y18861D02*
D03*
X30353Y18845D02*
D03*
X38349Y59871D02*
D03*
X35829Y59821D02*
D03*
X33359Y59881D02*
D03*
X30849Y59865D02*
D03*
X37853Y59351D02*
D03*
X35323Y59321D02*
D03*
X32863Y59361D02*
D03*
X30353Y59345D02*
D03*
D283*
X38349Y18857D02*
D03*
X35829Y18807D02*
D03*
X33359Y18867D02*
D03*
X30849Y18851D02*
D03*
X37853Y19365D02*
D03*
X35323Y19335D02*
D03*
X32863Y19375D02*
D03*
X30353Y19359D02*
D03*
X38349Y59357D02*
D03*
X35829Y59307D02*
D03*
X33359Y59367D02*
D03*
X30849Y59351D02*
D03*
X37853Y59865D02*
D03*
X35323Y59835D02*
D03*
X32863Y59875D02*
D03*
X30353Y59859D02*
D03*
D284*
X42740Y14338D02*
D03*
X40218D02*
D03*
X28766Y34391D02*
D03*
X31288D02*
D03*
X42740Y54838D02*
D03*
X40218D02*
D03*
X28766Y74891D02*
D03*
X31288D02*
D03*
D285*
X28431Y42036D02*
D03*
Y39514D02*
D03*
Y82536D02*
D03*
Y80014D02*
D03*
D286*
X33581Y10331D02*
D03*
X26492D02*
D03*
X12315Y10361D02*
D03*
X5347Y10331D02*
D03*
X9330Y30221D02*
D03*
X38660Y10401D02*
D03*
X31550Y10401D02*
D03*
X17400Y10411D02*
D03*
X10290Y10401D02*
D03*
X3532Y22651D02*
D03*
X33785Y39815D02*
D03*
X28249Y31037D02*
D03*
Y30607D02*
D03*
X27848Y32315D02*
D03*
X24422Y18921D02*
D03*
X22780Y28881D02*
D03*
X35762Y23551D02*
D03*
X31822Y23561D02*
D03*
X28432Y23081D02*
D03*
X16240Y22161D02*
D03*
X16570Y26721D02*
D03*
X16250Y22561D02*
D03*
X37442Y23551D02*
D03*
X33472Y23551D02*
D03*
X30022Y23561D02*
D03*
X16302Y19321D02*
D03*
X18372Y28841D02*
D03*
X19406Y10331D02*
D03*
X24480Y10011D02*
D03*
X23000Y36561D02*
D03*
X33419Y18191D02*
D03*
X42525Y38428D02*
D03*
X3951Y21781D02*
D03*
X31550Y10011D02*
D03*
X38660D02*
D03*
X24480Y10391D02*
D03*
X10607Y35209D02*
D03*
X14623Y35219D02*
D03*
X18634Y35191D02*
D03*
X7810Y30741D02*
D03*
X25493Y31026D02*
D03*
X33581Y50831D02*
D03*
X26492D02*
D03*
X12315Y50861D02*
D03*
X5347Y50831D02*
D03*
X9330Y70721D02*
D03*
X38660Y50901D02*
D03*
X31550Y50901D02*
D03*
X17400Y50911D02*
D03*
X10290Y50901D02*
D03*
X3532Y63151D02*
D03*
X33785Y80315D02*
D03*
X28249Y71537D02*
D03*
Y71107D02*
D03*
X27848Y72815D02*
D03*
X24422Y59421D02*
D03*
X22780Y69381D02*
D03*
X35762Y64051D02*
D03*
X31822Y64061D02*
D03*
X28432Y63581D02*
D03*
X16240Y62661D02*
D03*
X16570Y67221D02*
D03*
X16250Y63061D02*
D03*
X37442Y64051D02*
D03*
X33472Y64051D02*
D03*
X30022Y64061D02*
D03*
X16302Y59821D02*
D03*
X18372Y69341D02*
D03*
X19406Y50831D02*
D03*
X24480Y50511D02*
D03*
X23000Y77061D02*
D03*
X33419Y58691D02*
D03*
X42525Y78928D02*
D03*
X3951Y62281D02*
D03*
X31550Y50511D02*
D03*
X38660D02*
D03*
X24480Y50891D02*
D03*
X10607Y75709D02*
D03*
X14623Y75719D02*
D03*
X18634Y75691D02*
D03*
X7810Y71241D02*
D03*
X25493Y71526D02*
D03*
D287*
X33220Y42046D02*
D03*
X28780Y31797D02*
D03*
X33220Y82546D02*
D03*
X28780Y72297D02*
D03*
D288*
X33220Y41474D02*
D03*
X28780Y32369D02*
D03*
X33220Y81974D02*
D03*
X28780Y72869D02*
D03*
D289*
X29514Y25654D02*
D03*
X33649D02*
D03*
X37784D02*
D03*
X29508Y28048D02*
D03*
X37778D02*
D03*
X33643D02*
D03*
X29514Y66154D02*
D03*
X33649D02*
D03*
X37784D02*
D03*
X29508Y68548D02*
D03*
X37778D02*
D03*
X33643D02*
D03*
D290*
X9205Y33062D02*
D03*
X8995Y33042D02*
D03*
X9215Y33002D02*
D03*
X8985Y32992D02*
D03*
Y32982D02*
D03*
X9225Y32952D02*
D03*
X8975Y32942D02*
D03*
Y32932D02*
D03*
X9625Y32912D02*
D03*
X9635Y32902D02*
D03*
X9605D02*
D03*
X9235D02*
D03*
X8595D02*
D03*
X9645Y32892D02*
D03*
X9595D02*
D03*
X9235D02*
D03*
X8965D02*
D03*
X9655Y32882D02*
D03*
X9575D02*
D03*
X8965D02*
D03*
X8625D02*
D03*
X9665Y32872D02*
D03*
X9675Y32862D02*
D03*
X9545D02*
D03*
X8655D02*
D03*
X9685Y32852D02*
D03*
X9535D02*
D03*
X9245D02*
D03*
X8955D02*
D03*
X9695Y32842D02*
D03*
X9275D02*
D03*
X8685D02*
D03*
X9705Y32832D02*
D03*
X9505D02*
D03*
X9295D02*
D03*
X8905D02*
D03*
X9715Y32822D02*
D03*
X8885D02*
D03*
X8715D02*
D03*
X9725Y32812D02*
D03*
X9475D02*
D03*
X9345D02*
D03*
X8855D02*
D03*
X9735Y32802D02*
D03*
X9375D02*
D03*
X8835D02*
D03*
X8745D02*
D03*
X9745Y32792D02*
D03*
X9445D02*
D03*
X9395D02*
D03*
X8805D02*
D03*
X8755D02*
D03*
X9755Y32782D02*
D03*
X8785D02*
D03*
X8775D02*
D03*
X9755Y32762D02*
D03*
X9745Y32752D02*
D03*
X8455D02*
D03*
X8465Y32742D02*
D03*
X9725Y32722D02*
D03*
X8485Y32712D02*
D03*
X9705Y32692D02*
D03*
X8505Y32682D02*
D03*
X9685Y32662D02*
D03*
X8525Y32652D02*
D03*
X9665Y32632D02*
D03*
X9655Y32622D02*
D03*
X8545D02*
D03*
X9635Y32592D02*
D03*
X8575Y32582D02*
D03*
X8565Y32562D02*
D03*
X9645Y32542D02*
D03*
X9655Y32522D02*
D03*
X8545Y32512D02*
D03*
X9665Y32502D02*
D03*
X8535Y32492D02*
D03*
X9675Y32472D02*
D03*
X9685Y32452D02*
D03*
X8515Y32442D02*
D03*
X9695Y32432D02*
D03*
X8505Y32422D02*
D03*
X9705Y32402D02*
D03*
X9725Y32392D02*
D03*
X8375Y32372D02*
D03*
X9935Y32212D02*
D03*
Y32202D02*
D03*
Y32192D02*
D03*
Y32182D02*
D03*
Y32172D02*
D03*
Y32162D02*
D03*
X8285Y32152D02*
D03*
X9815Y32132D02*
D03*
X8495Y32102D02*
D03*
X9705Y32092D02*
D03*
X8505Y32072D02*
D03*
X9695Y32062D02*
D03*
X9685Y32042D02*
D03*
X8525Y32022D02*
D03*
X8975Y32002D02*
D03*
X8535D02*
D03*
X9665Y31992D02*
D03*
X9235Y31982D02*
D03*
X8545Y31972D02*
D03*
X9245Y31962D02*
D03*
X8955Y31952D02*
D03*
X8555D02*
D03*
X9645Y31942D02*
D03*
X8945Y31932D02*
D03*
X8565Y31922D02*
D03*
X9265Y31912D02*
D03*
X8565D02*
D03*
X9645Y31902D02*
D03*
X9275Y31892D02*
D03*
X8925Y31882D02*
D03*
X8545D02*
D03*
X9665Y31872D02*
D03*
X8535D02*
D03*
X9285Y31862D02*
D03*
X8915Y31852D02*
D03*
X8525D02*
D03*
X9685Y31842D02*
D03*
X8515D02*
D03*
X9695Y31832D02*
D03*
X8905D02*
D03*
X9705Y31812D02*
D03*
X9305D02*
D03*
X8895D02*
D03*
X8495D02*
D03*
X9315Y31792D02*
D03*
X9725Y31782D02*
D03*
X8885D02*
D03*
X8475D02*
D03*
X9735Y31772D02*
D03*
X8875Y31762D02*
D03*
X8455Y31752D02*
D03*
X9755Y31742D02*
D03*
X9335D02*
D03*
X9345Y31722D02*
D03*
X9435Y31712D02*
D03*
X8855D02*
D03*
X8755D02*
D03*
X9465Y31702D02*
D03*
X9415D02*
D03*
X8785D02*
D03*
X9395Y31692D02*
D03*
X9355D02*
D03*
X8805D02*
D03*
X9495Y31682D02*
D03*
X9365Y31672D02*
D03*
X8835D02*
D03*
X8695D02*
D03*
X9525Y31662D02*
D03*
X9535Y31652D02*
D03*
X8665D02*
D03*
X9565Y31632D02*
D03*
X8635D02*
D03*
X9595Y31612D02*
D03*
X8605D02*
D03*
X9205Y73562D02*
D03*
X8995Y73542D02*
D03*
X9215Y73502D02*
D03*
X8985Y73492D02*
D03*
Y73482D02*
D03*
X9225Y73452D02*
D03*
X8975Y73442D02*
D03*
Y73432D02*
D03*
X9625Y73412D02*
D03*
X9635Y73402D02*
D03*
X9605D02*
D03*
X9235D02*
D03*
X8595D02*
D03*
X9645Y73392D02*
D03*
X9595D02*
D03*
X9235D02*
D03*
X8965D02*
D03*
X9655Y73382D02*
D03*
X9575D02*
D03*
X8965D02*
D03*
X8625D02*
D03*
X9665Y73372D02*
D03*
X9675Y73362D02*
D03*
X9545D02*
D03*
X8655D02*
D03*
X9685Y73352D02*
D03*
X9535D02*
D03*
X9245D02*
D03*
X8955D02*
D03*
X9695Y73342D02*
D03*
X9275D02*
D03*
X8685D02*
D03*
X9705Y73332D02*
D03*
X9505D02*
D03*
X9295D02*
D03*
X8905D02*
D03*
X9715Y73322D02*
D03*
X8885D02*
D03*
X8715D02*
D03*
X9725Y73312D02*
D03*
X9475D02*
D03*
X9345D02*
D03*
X8855D02*
D03*
X9735Y73302D02*
D03*
X9375D02*
D03*
X8835D02*
D03*
X8745D02*
D03*
X9745Y73292D02*
D03*
X9445D02*
D03*
X9395D02*
D03*
X8805D02*
D03*
X8755D02*
D03*
X9755Y73282D02*
D03*
X8785D02*
D03*
X8775D02*
D03*
X9755Y73262D02*
D03*
X9745Y73252D02*
D03*
X8455D02*
D03*
X8465Y73242D02*
D03*
X9725Y73222D02*
D03*
X8485Y73212D02*
D03*
X9705Y73192D02*
D03*
X8505Y73182D02*
D03*
X9685Y73162D02*
D03*
X8525Y73152D02*
D03*
X9665Y73132D02*
D03*
X9655Y73122D02*
D03*
X8545D02*
D03*
X9635Y73092D02*
D03*
X8575Y73082D02*
D03*
X8565Y73062D02*
D03*
X9645Y73042D02*
D03*
X9655Y73022D02*
D03*
X8545Y73012D02*
D03*
X9665Y73002D02*
D03*
X8535Y72992D02*
D03*
X9675Y72972D02*
D03*
X9685Y72952D02*
D03*
X8515Y72942D02*
D03*
X9695Y72932D02*
D03*
X8505Y72922D02*
D03*
X9705Y72902D02*
D03*
X9725Y72892D02*
D03*
X8375Y72872D02*
D03*
X9935Y72712D02*
D03*
Y72702D02*
D03*
Y72692D02*
D03*
Y72682D02*
D03*
Y72672D02*
D03*
Y72662D02*
D03*
X8285Y72652D02*
D03*
X9815Y72632D02*
D03*
X8495Y72602D02*
D03*
X9705Y72592D02*
D03*
X8505Y72572D02*
D03*
X9695Y72562D02*
D03*
X9685Y72542D02*
D03*
X8525Y72522D02*
D03*
X8975Y72502D02*
D03*
X8535D02*
D03*
X9665Y72492D02*
D03*
X9235Y72482D02*
D03*
X8545Y72472D02*
D03*
X9245Y72462D02*
D03*
X8955Y72452D02*
D03*
X8555D02*
D03*
X9645Y72442D02*
D03*
X8945Y72432D02*
D03*
X8565Y72422D02*
D03*
X9265Y72412D02*
D03*
X8565D02*
D03*
X9645Y72402D02*
D03*
X9275Y72392D02*
D03*
X8925Y72382D02*
D03*
X8545D02*
D03*
X9665Y72372D02*
D03*
X8535D02*
D03*
X9285Y72362D02*
D03*
X8915Y72352D02*
D03*
X8525D02*
D03*
X9685Y72342D02*
D03*
X8515D02*
D03*
X9695Y72332D02*
D03*
X8905D02*
D03*
X9705Y72312D02*
D03*
X9305D02*
D03*
X8895D02*
D03*
X8495D02*
D03*
X9315Y72292D02*
D03*
X9725Y72282D02*
D03*
X8885D02*
D03*
X8475D02*
D03*
X9735Y72272D02*
D03*
X8875Y72262D02*
D03*
X8455Y72252D02*
D03*
X9755Y72242D02*
D03*
X9335D02*
D03*
X9345Y72222D02*
D03*
X9435Y72212D02*
D03*
X8855D02*
D03*
X8755D02*
D03*
X9465Y72202D02*
D03*
X9415D02*
D03*
X8785D02*
D03*
X9395Y72192D02*
D03*
X9355D02*
D03*
X8805D02*
D03*
X9495Y72182D02*
D03*
X9365Y72172D02*
D03*
X8835D02*
D03*
X8695D02*
D03*
X9525Y72162D02*
D03*
X9535Y72152D02*
D03*
X8665D02*
D03*
X9565Y72132D02*
D03*
X8635D02*
D03*
X9595Y72112D02*
D03*
X8605D02*
D03*
D291*
X8480Y32392D02*
D03*
X9780Y32382D02*
D03*
X8430D02*
D03*
X9830Y32372D02*
D03*
X9880Y32362D02*
D03*
X8320D02*
D03*
X9930Y32352D02*
D03*
X9920Y32152D02*
D03*
X9870Y32142D02*
D03*
X8340D02*
D03*
X8390Y32132D02*
D03*
X9760Y32122D02*
D03*
X8440D02*
D03*
X8480Y72892D02*
D03*
X9780Y72882D02*
D03*
X8430D02*
D03*
X9830Y72872D02*
D03*
X9880Y72862D02*
D03*
X8320D02*
D03*
X9930Y72852D02*
D03*
X9920Y72652D02*
D03*
X9870Y72642D02*
D03*
X8340D02*
D03*
X8390Y72632D02*
D03*
X9760Y72622D02*
D03*
X8440D02*
D03*
D292*
X8269Y32352D02*
D03*
Y72852D02*
D03*
D293*
X8264Y32342D02*
D03*
Y32332D02*
D03*
Y32322D02*
D03*
Y32312D02*
D03*
Y32302D02*
D03*
Y32292D02*
D03*
Y32282D02*
D03*
Y32272D02*
D03*
Y32262D02*
D03*
Y32252D02*
D03*
Y32242D02*
D03*
Y32232D02*
D03*
Y32222D02*
D03*
Y32212D02*
D03*
Y32202D02*
D03*
Y32192D02*
D03*
Y32182D02*
D03*
Y32172D02*
D03*
Y32162D02*
D03*
Y72842D02*
D03*
Y72832D02*
D03*
Y72822D02*
D03*
Y72812D02*
D03*
Y72802D02*
D03*
Y72792D02*
D03*
Y72782D02*
D03*
Y72772D02*
D03*
Y72762D02*
D03*
Y72752D02*
D03*
Y72742D02*
D03*
Y72732D02*
D03*
Y72722D02*
D03*
Y72712D02*
D03*
Y72702D02*
D03*
Y72692D02*
D03*
Y72682D02*
D03*
Y72672D02*
D03*
Y72662D02*
D03*
D294*
X38973Y19437D02*
D03*
X11099Y38475D02*
D03*
X15079D02*
D03*
X38973Y59937D02*
D03*
X11099Y78975D02*
D03*
X15079D02*
D03*
M02*
