G04 Layer_Color=2752767*
%FSLAX24Y24*%
%MOIN*%
G70*
G01*
G75*
%ADD12C,0.0100*%
%ADD16C,0.0150*%
%ADD19C,0.0033*%
%ADD20C,0.0160*%
D12*
X88220Y3000D02*
Y3600D01*
X88520D01*
X88620Y3500D01*
Y3300D01*
X88520Y3200D01*
X88220D01*
X88420D02*
X88620Y3000D01*
X88920D02*
X89120D01*
X89220Y3100D01*
Y3300D01*
X89120Y3400D01*
X88920D01*
X88820Y3300D01*
Y3100D01*
X88920Y3000D01*
X89420Y3400D02*
Y3100D01*
X89520Y3000D01*
X89820D01*
Y3400D01*
X90020Y3000D02*
Y3400D01*
X90320D01*
X90420Y3300D01*
Y3000D01*
X91020Y3600D02*
Y3000D01*
X90720D01*
X90620Y3100D01*
Y3300D01*
X90720Y3400D01*
X91020D01*
X83162Y3000D02*
Y3600D01*
X83562Y3000D01*
Y3600D01*
X83761Y3000D02*
Y3600D01*
X84061D01*
X84161Y3500D01*
Y3300D01*
X84061Y3200D01*
X83761D01*
X84361Y3600D02*
X84761D01*
X84561D01*
Y3000D01*
X84961Y3600D02*
Y3000D01*
Y3300D01*
X85361D01*
Y3600D01*
Y3000D01*
X69706Y3500D02*
X69806Y3600D01*
X70006D01*
X70106Y3500D01*
Y3400D01*
X70006Y3300D01*
X69906D01*
X70006D01*
X70106Y3200D01*
Y3100D01*
X70006Y3000D01*
X69806D01*
X69706Y3100D01*
X70305Y3000D02*
Y3100D01*
X70405D01*
Y3000D01*
X70305D01*
X70805Y3500D02*
X70905Y3600D01*
X71105D01*
X71205Y3500D01*
Y3100D01*
X71105Y3000D01*
X70905D01*
X70805Y3100D01*
Y3500D01*
X71405D02*
X71505Y3600D01*
X71705D01*
X71805Y3500D01*
Y3100D01*
X71705Y3000D01*
X71505D01*
X71405Y3100D01*
Y3500D01*
X72005D02*
X72105Y3600D01*
X72305D01*
X72405Y3500D01*
Y3100D01*
X72305Y3000D01*
X72105D01*
X72005Y3100D01*
Y3500D01*
X72605Y3000D02*
Y3400D01*
X72705D01*
X72805Y3300D01*
Y3000D01*
Y3300D01*
X72905Y3400D01*
X73005Y3300D01*
Y3000D01*
X73205D02*
Y3400D01*
X73304D01*
X73404Y3300D01*
Y3000D01*
Y3300D01*
X73504Y3400D01*
X73604Y3300D01*
Y3000D01*
X74604D02*
X74404Y3200D01*
Y3400D01*
X74604Y3600D01*
X74904Y3000D02*
X75104D01*
X75004D01*
Y3600D01*
X74904Y3500D01*
X75404Y3000D02*
X75604D01*
X75504D01*
Y3600D01*
X75404Y3500D01*
X75904D02*
X76004Y3600D01*
X76204D01*
X76304Y3500D01*
Y3400D01*
X76204Y3300D01*
X76304Y3200D01*
Y3100D01*
X76204Y3000D01*
X76004D01*
X75904Y3100D01*
Y3200D01*
X76004Y3300D01*
X75904Y3400D01*
Y3500D01*
X76004Y3300D02*
X76204D01*
X76503Y3000D02*
Y3100D01*
X76603D01*
Y3000D01*
X76503D01*
X77003D02*
X77203D01*
X77103D01*
Y3600D01*
X77003Y3500D01*
X77503Y3000D02*
X77703D01*
X77603D01*
Y3600D01*
X77503Y3500D01*
X78003Y3000D02*
Y3400D01*
X78103D01*
X78203Y3300D01*
Y3000D01*
Y3300D01*
X78303Y3400D01*
X78403Y3300D01*
Y3000D01*
X78603D02*
X78803D01*
X78703D01*
Y3400D01*
X78603D01*
X79103Y3000D02*
X79303D01*
X79203D01*
Y3600D01*
X79103D01*
X79602Y3000D02*
X79802Y3200D01*
Y3400D01*
X79602Y3600D01*
X63027Y1500D02*
Y2100D01*
X62728Y1800D01*
X63127D01*
X63927Y2100D02*
X64327D01*
X64127D01*
Y1500D01*
X64627D02*
X64827D01*
X64927Y1600D01*
Y1800D01*
X64827Y1900D01*
X64627D01*
X64527Y1800D01*
Y1600D01*
X64627Y1500D01*
X65227Y2000D02*
Y1900D01*
X65127D01*
X65327D01*
X65227D01*
Y1600D01*
X65327Y1500D01*
X65727Y1900D02*
X65926D01*
X66026Y1800D01*
Y1500D01*
X65727D01*
X65627Y1600D01*
X65727Y1700D01*
X66026D01*
X66226Y1500D02*
X66426D01*
X66326D01*
Y2100D01*
X66226D01*
X63027Y3000D02*
Y3600D01*
X62728Y3300D01*
X63127D01*
D16*
X56769Y4050D02*
X95558D01*
X56769Y2550D02*
X95558D01*
X56769Y1050D02*
X95558D01*
Y5550D01*
X56769D02*
X95558D01*
X56769Y1050D02*
Y5550D01*
X87770Y1050D02*
Y5550D01*
X82712Y1050D02*
Y5550D01*
X69256Y1050D02*
Y5550D01*
X62278Y1050D02*
Y5550D01*
D19*
X57700Y3100D02*
X57850Y3400D01*
X57550D02*
X57850D01*
X57550D02*
X57700Y3100D01*
Y3000D02*
X57950Y3500D01*
X57450D02*
X57950D01*
X57450D02*
X57700Y3000D01*
X1350Y84639D02*
X1450Y84839D01*
X1250D02*
X1450D01*
X1250D02*
X1350Y84639D01*
Y84572D02*
X1517Y84906D01*
X1184D02*
X1517D01*
X1184D02*
X1350Y84572D01*
X44750Y84750D02*
X44850Y84950D01*
X44650D02*
X44850D01*
X44650D02*
X44750Y84750D01*
Y84683D02*
X44917Y85017D01*
X44583D02*
X44917D01*
X44583D02*
X44750Y84683D01*
X44821Y1280D02*
X44921Y1480D01*
X44721D02*
X44921D01*
X44721D02*
X44821Y1280D01*
Y1213D02*
X44988Y1547D01*
X44654D02*
X44988D01*
X44654D02*
X44821Y1213D01*
X1350Y1250D02*
X1450Y1450D01*
X1250D02*
X1450D01*
X1250D02*
X1350Y1250D01*
Y1184D02*
X1517Y1517D01*
X1184D02*
X1517D01*
X1184D02*
X1350Y1184D01*
D20*
X88220Y5220D02*
Y4500D01*
Y4860D01*
X88700D01*
Y5220D01*
Y4500D01*
X89060D02*
X89300D01*
X89420Y4620D01*
Y4860D01*
X89300Y4980D01*
X89060D01*
X88940Y4860D01*
Y4620D01*
X89060Y4500D01*
X89660D02*
X89900D01*
X89780D01*
Y5220D01*
X89660D01*
X90620Y4500D02*
X90380D01*
X90260Y4620D01*
Y4860D01*
X90380Y4980D01*
X90620D01*
X90740Y4860D01*
Y4740D01*
X90260D01*
X91699Y5220D02*
X92179D01*
X91939D01*
Y4500D01*
X92419Y4980D02*
Y4620D01*
X92539Y4500D01*
X92899D01*
Y4380D01*
X92779Y4260D01*
X92659D01*
X92899Y4500D02*
Y4980D01*
X93139Y4260D02*
Y4980D01*
X93499D01*
X93619Y4860D01*
Y4620D01*
X93499Y4500D01*
X93139D01*
X94219D02*
X93979D01*
X93859Y4620D01*
Y4860D01*
X93979Y4980D01*
X94219D01*
X94338Y4860D01*
Y4740D01*
X93859D01*
X83162Y4500D02*
Y5220D01*
X83522D01*
X83642Y5100D01*
Y4860D01*
X83522Y4740D01*
X83162D01*
X83881Y4500D02*
X84121D01*
X84001D01*
Y5220D01*
X83881D01*
X84601Y4980D02*
X84841D01*
X84961Y4860D01*
Y4500D01*
X84601D01*
X84481Y4620D01*
X84601Y4740D01*
X84961D01*
X85321Y5100D02*
Y4980D01*
X85201D01*
X85441D01*
X85321D01*
Y4620D01*
X85441Y4500D01*
X86161D02*
X85921D01*
X85801Y4620D01*
Y4860D01*
X85921Y4980D01*
X86161D01*
X86281Y4860D01*
Y4740D01*
X85801D01*
X87000Y5220D02*
Y4500D01*
X86641D01*
X86521Y4620D01*
Y4860D01*
X86641Y4980D01*
X87000D01*
X70185Y5220D02*
X69706D01*
Y4860D01*
X69946D01*
X69706D01*
Y4500D01*
X70425D02*
X70665D01*
X70545D01*
Y4980D01*
X70425D01*
X71025Y4500D02*
Y4980D01*
X71385D01*
X71505Y4860D01*
Y4500D01*
X71745D02*
X71985D01*
X71865D01*
Y4980D01*
X71745D01*
X72345Y4500D02*
X72705D01*
X72825Y4620D01*
X72705Y4740D01*
X72465D01*
X72345Y4860D01*
X72465Y4980D01*
X72825D01*
X73065Y5220D02*
Y4500D01*
Y4860D01*
X73185Y4980D01*
X73424D01*
X73544Y4860D01*
Y4500D01*
X74144D02*
X73904D01*
X73784Y4620D01*
Y4860D01*
X73904Y4980D01*
X74144D01*
X74264Y4860D01*
Y4740D01*
X73784D01*
X74984Y5220D02*
Y4500D01*
X74624D01*
X74504Y4620D01*
Y4860D01*
X74624Y4980D01*
X74984D01*
X75944Y5220D02*
Y4500D01*
Y4860D01*
X76423D01*
Y5220D01*
Y4500D01*
X76783D02*
X77023D01*
X77143Y4620D01*
Y4860D01*
X77023Y4980D01*
X76783D01*
X76663Y4860D01*
Y4620D01*
X76783Y4500D01*
X77383D02*
X77623D01*
X77503D01*
Y5220D01*
X77383D01*
X78343Y4500D02*
X78103D01*
X77983Y4620D01*
Y4860D01*
X78103Y4980D01*
X78343D01*
X78463Y4860D01*
Y4740D01*
X77983D01*
X79902Y5100D02*
X79782Y5220D01*
X79542D01*
X79422Y5100D01*
Y4980D01*
X79542Y4860D01*
X79782D01*
X79902Y4740D01*
Y4620D01*
X79782Y4500D01*
X79542D01*
X79422Y4620D01*
X80142Y4500D02*
X80382D01*
X80262D01*
Y4980D01*
X80142D01*
X80742D02*
X81222D01*
X80742Y4500D01*
X81222D01*
X81822D02*
X81582D01*
X81462Y4620D01*
Y4860D01*
X81582Y4980D01*
X81822D01*
X81942Y4860D01*
Y4740D01*
X81462D01*
X62728Y5220D02*
Y4500D01*
Y4860D01*
X63207D01*
Y5220D01*
Y4500D01*
X63447D02*
X63687D01*
X63567D01*
Y4980D01*
X63447D01*
X64167Y5100D02*
Y4980D01*
X64047D01*
X64287D01*
X64167D01*
Y4620D01*
X64287Y4500D01*
X65847Y5100D02*
X65727Y5220D01*
X65487D01*
X65367Y5100D01*
Y4620D01*
X65487Y4500D01*
X65727D01*
X65847Y4620D01*
X66206Y4500D02*
X66446D01*
X66566Y4620D01*
Y4860D01*
X66446Y4980D01*
X66206D01*
X66086Y4860D01*
Y4620D01*
X66206Y4500D01*
X66806Y4980D02*
Y4620D01*
X66926Y4500D01*
X67286D01*
Y4980D01*
X67526Y4500D02*
Y4980D01*
X67886D01*
X68006Y4860D01*
Y4500D01*
X68366Y5100D02*
Y4980D01*
X68246D01*
X68486D01*
X68366D01*
Y4620D01*
X68486Y4500D01*
X58149Y5100D02*
X58029Y5220D01*
X57789D01*
X57669Y5100D01*
Y4980D01*
X57789Y4860D01*
X58029D01*
X58149Y4740D01*
Y4620D01*
X58029Y4500D01*
X57789D01*
X57669Y4620D01*
X58389Y4980D02*
Y4620D01*
X58508Y4500D01*
X58868D01*
Y4380D01*
X58748Y4260D01*
X58628D01*
X58868Y4500D02*
Y4980D01*
X59108Y4500D02*
Y4980D01*
X59228D01*
X59348Y4860D01*
Y4500D01*
Y4860D01*
X59468Y4980D01*
X59588Y4860D01*
Y4500D01*
X59828Y5220D02*
Y4500D01*
X60188D01*
X60308Y4620D01*
Y4740D01*
Y4860D01*
X60188Y4980D01*
X59828D01*
X60668Y4500D02*
X60908D01*
X61028Y4620D01*
Y4860D01*
X60908Y4980D01*
X60668D01*
X60548Y4860D01*
Y4620D01*
X60668Y4500D01*
X61268D02*
X61508D01*
X61388D01*
Y5220D01*
X61268D01*
M02*
