G04 Layer_Color=32768*
%FSLAX24Y24*%
%MOIN*%
G70*
G01*
G75*
%ADD12C,0.0100*%
%ADD127C,0.0039*%
%ADD256C,0.0020*%
%ADD295C,0.0020*%
D12*
X43561Y2561D02*
Y43061D01*
X2561Y2561D02*
X43561D01*
X2561D02*
Y43061D01*
X43561D01*
Y83561D01*
X2561Y43061D02*
X43561D01*
X2561D02*
Y83561D01*
X43561D01*
D127*
X21455Y8221D02*
X21849D01*
X21652Y8024D02*
Y8418D01*
X19935Y8221D02*
X20329D01*
X20132Y8024D02*
Y8418D01*
X21544Y36991D02*
X21938D01*
X21741Y36794D02*
Y37188D01*
X32174Y16851D02*
X32568D01*
X32371Y16654D02*
Y17048D01*
X11714Y29471D02*
X12108D01*
X11911Y29274D02*
Y29668D01*
X34874Y40608D02*
Y41002D01*
X34677Y40805D02*
X35071D01*
X21411Y23835D02*
Y24229D01*
X21214Y24032D02*
X21608D01*
X35577Y38935D02*
X35971D01*
X35774Y38738D02*
Y39132D01*
X34110Y8221D02*
X34504D01*
X34307Y8024D02*
Y8418D01*
X27021Y8221D02*
X27415D01*
X27218Y8024D02*
Y8418D01*
X12844Y8221D02*
X13238D01*
X13041Y8024D02*
Y8418D01*
X5876Y8221D02*
X6269D01*
X6072Y8024D02*
Y8418D01*
X35630Y8221D02*
X36024D01*
X35827Y8024D02*
Y8418D01*
X28541Y8221D02*
X28935D01*
X28738Y8024D02*
Y8418D01*
X14364Y8221D02*
X14758D01*
X14561Y8024D02*
Y8418D01*
X7396Y8221D02*
X7789D01*
X7592Y8024D02*
Y8418D01*
X38327Y41175D02*
X38721D01*
X38524Y40978D02*
Y41372D01*
X34494Y41788D02*
Y42182D01*
X34297Y41985D02*
X34691D01*
X40811Y12384D02*
Y12778D01*
X40614Y12581D02*
X41008D01*
X34441Y30044D02*
Y30438D01*
X34244Y30241D02*
X34638D01*
X34873Y12151D02*
X35267D01*
X35070Y11954D02*
Y12348D01*
X27981Y11954D02*
Y12348D01*
X27784Y12151D02*
X28178D01*
X20698D02*
X21092D01*
X20895Y11954D02*
Y12348D01*
X13804Y11954D02*
Y12348D01*
X13607Y12151D02*
X14001D01*
X6639D02*
X7032D01*
X6835Y11954D02*
Y12348D01*
X36745Y23374D02*
Y23768D01*
X36548Y23571D02*
X36942D01*
X32588D02*
X32982D01*
X32785Y23374D02*
Y23768D01*
X29355Y23374D02*
Y23768D01*
X29158Y23571D02*
X29552D01*
X38208D02*
X38602D01*
X38405Y23374D02*
Y23768D01*
X34435Y23374D02*
Y23768D01*
X34238Y23571D02*
X34632D01*
X30778D02*
X31172D01*
X30975Y23374D02*
Y23768D01*
X29214Y36181D02*
X29608D01*
X29411Y35984D02*
Y36378D01*
X8637Y34140D02*
X9031D01*
X8834Y33943D02*
Y34337D01*
X10254Y36094D02*
X10648D01*
X10451Y35898D02*
Y36291D01*
X14270Y36094D02*
X14663D01*
X14467Y35898D02*
Y36291D01*
X18276Y36101D02*
X18670D01*
X18473Y35904D02*
Y36298D01*
X27413Y33506D02*
Y33900D01*
X27217Y33703D02*
X27610D01*
X6350Y21902D02*
Y22295D01*
X6154Y22098D02*
X6547D01*
X6754Y21902D02*
Y22295D01*
X6557Y22098D02*
X6951D01*
X8309Y22827D02*
Y23220D01*
X8112Y23024D02*
X8506D01*
X9224Y22837D02*
Y23230D01*
X9028Y23033D02*
X9421D01*
X7571Y21902D02*
Y22295D01*
X7374Y22098D02*
X7768D01*
X8348Y21902D02*
Y22295D01*
X8152Y22098D02*
X8545D01*
X26882Y30169D02*
Y30563D01*
X26685Y30366D02*
X27079D01*
X21455Y48721D02*
X21849D01*
X21652Y48524D02*
Y48918D01*
X19935Y48721D02*
X20329D01*
X20132Y48524D02*
Y48918D01*
X21544Y77491D02*
X21938D01*
X21741Y77294D02*
Y77688D01*
X32174Y57351D02*
X32568D01*
X32371Y57154D02*
Y57548D01*
X11714Y69971D02*
X12108D01*
X11911Y69774D02*
Y70168D01*
X34874Y81108D02*
Y81502D01*
X34677Y81305D02*
X35071D01*
X21411Y64335D02*
Y64729D01*
X21214Y64532D02*
X21608D01*
X35577Y79435D02*
X35971D01*
X35774Y79238D02*
Y79632D01*
X34110Y48721D02*
X34504D01*
X34307Y48524D02*
Y48918D01*
X27021Y48721D02*
X27415D01*
X27218Y48524D02*
Y48918D01*
X12844Y48721D02*
X13238D01*
X13041Y48524D02*
Y48918D01*
X5876Y48721D02*
X6269D01*
X6072Y48524D02*
Y48918D01*
X35630Y48721D02*
X36024D01*
X35827Y48524D02*
Y48918D01*
X28541Y48721D02*
X28935D01*
X28738Y48524D02*
Y48918D01*
X14364Y48721D02*
X14758D01*
X14561Y48524D02*
Y48918D01*
X7396Y48721D02*
X7789D01*
X7592Y48524D02*
Y48918D01*
X38327Y81675D02*
X38721D01*
X38524Y81478D02*
Y81872D01*
X34494Y82288D02*
Y82682D01*
X34297Y82485D02*
X34691D01*
X40811Y52884D02*
Y53278D01*
X40614Y53081D02*
X41008D01*
X34441Y70544D02*
Y70938D01*
X34244Y70741D02*
X34638D01*
X34873Y52651D02*
X35267D01*
X35070Y52454D02*
Y52848D01*
X27981Y52454D02*
Y52848D01*
X27784Y52651D02*
X28178D01*
X20698D02*
X21092D01*
X20895Y52454D02*
Y52848D01*
X13804Y52454D02*
Y52848D01*
X13607Y52651D02*
X14001D01*
X6639D02*
X7032D01*
X6835Y52454D02*
Y52848D01*
X36745Y63874D02*
Y64268D01*
X36548Y64071D02*
X36942D01*
X32588D02*
X32982D01*
X32785Y63874D02*
Y64268D01*
X29355Y63874D02*
Y64268D01*
X29158Y64071D02*
X29552D01*
X38208D02*
X38602D01*
X38405Y63874D02*
Y64268D01*
X34435Y63874D02*
Y64268D01*
X34238Y64071D02*
X34632D01*
X30778D02*
X31172D01*
X30975Y63874D02*
Y64268D01*
X29214Y76681D02*
X29608D01*
X29411Y76484D02*
Y76878D01*
X8637Y74640D02*
X9031D01*
X8834Y74443D02*
Y74837D01*
X10254Y76594D02*
X10648D01*
X10451Y76398D02*
Y76791D01*
X14270Y76594D02*
X14663D01*
X14467Y76398D02*
Y76791D01*
X18276Y76601D02*
X18670D01*
X18473Y76404D02*
Y76798D01*
X27413Y74006D02*
Y74400D01*
X27217Y74203D02*
X27610D01*
X6350Y62402D02*
Y62795D01*
X6154Y62598D02*
X6547D01*
X6754Y62402D02*
Y62795D01*
X6557Y62598D02*
X6951D01*
X8309Y63327D02*
Y63720D01*
X8112Y63524D02*
X8506D01*
X9224Y63337D02*
Y63730D01*
X9028Y63533D02*
X9421D01*
X7571Y62402D02*
Y62795D01*
X7374Y62598D02*
X7768D01*
X8348Y62402D02*
Y62795D01*
X8152Y62598D02*
X8545D01*
X26882Y70669D02*
Y71063D01*
X26685Y70866D02*
X27079D01*
D256*
X33894Y38511D02*
Y39271D01*
X34284D01*
Y38511D02*
Y39271D01*
X33894Y38511D02*
X34284D01*
X33741Y38511D02*
Y39271D01*
X33351Y38511D02*
X33741D01*
X33351D02*
Y39271D01*
X33741D01*
X23941Y10595D02*
X24701D01*
X23941D02*
Y10985D01*
X24701D01*
Y10595D02*
Y10985D01*
X6957Y22449D02*
X7348D01*
X6957Y21689D02*
Y22449D01*
Y21689D02*
X7348D01*
Y22449D01*
X5752Y22451D02*
X6142D01*
X5752Y21691D02*
Y22451D01*
Y21691D02*
X6142D01*
Y22451D01*
X7765Y21689D02*
X8155D01*
Y22449D01*
X7765D02*
X8155D01*
X7765Y21689D02*
Y22449D01*
X8532Y22693D02*
X8922D01*
Y23453D01*
X8532D02*
X8922D01*
X8532Y22693D02*
Y23453D01*
X9789Y23047D02*
X10793D01*
Y22495D02*
Y23047D01*
X9789Y22495D02*
X10793D01*
X9789D02*
Y23047D01*
X15639Y20355D02*
Y20907D01*
Y20355D02*
X16643D01*
Y20907D01*
X15639D02*
X16643D01*
X3471Y28081D02*
Y28841D01*
X3861D01*
Y28081D02*
Y28841D01*
X3471Y28081D02*
X3861D01*
X24493Y28785D02*
Y29337D01*
X23489D02*
X24493D01*
X23489Y28785D02*
Y29337D01*
Y28785D02*
X24493D01*
X3911Y28841D02*
X4301D01*
X3911Y28081D02*
Y28841D01*
Y28081D02*
X4301D01*
Y28841D01*
X8781Y28091D02*
X9541D01*
X8781D02*
Y28481D01*
X9541D01*
Y28091D02*
Y28481D01*
X14331Y28261D02*
X15091D01*
X14331D02*
Y28651D01*
X15091D01*
Y28261D02*
Y28651D01*
X8781Y28531D02*
X9541D01*
X8781D02*
Y28921D01*
X9541D01*
Y28531D02*
Y28921D01*
X14321Y27711D02*
X15081D01*
X14321D02*
Y28101D01*
X15081D01*
Y27711D02*
Y28101D01*
X15971Y27691D02*
X16361D01*
X15971Y26931D02*
Y27691D01*
Y26931D02*
X16361D01*
Y27691D01*
X15711Y28261D02*
Y29021D01*
X15321Y28261D02*
X15711D01*
X15321D02*
Y29021D01*
X15711D01*
X15931Y24181D02*
X16691D01*
X15931D02*
Y24571D01*
X16691D01*
Y24181D02*
Y24571D01*
X15311Y27331D02*
Y28091D01*
X15701D01*
Y27331D02*
Y28091D01*
X15311Y27331D02*
X15701D01*
X37603Y18585D02*
Y19137D01*
X36599D02*
X37603D01*
X36599Y18585D02*
Y19137D01*
Y18585D02*
X37603D01*
X35073Y18555D02*
Y19107D01*
X34069Y18555D02*
X35073D01*
X34069D02*
Y19107D01*
X35073D01*
X32613Y18595D02*
Y19147D01*
X31609D02*
X32613D01*
X31609Y18595D02*
Y19147D01*
Y18595D02*
X32613D01*
X30103Y18580D02*
Y19131D01*
X29099D02*
X30103D01*
X29099Y18580D02*
Y19131D01*
Y18580D02*
X30103D01*
X37603Y19335D02*
Y19887D01*
X36599D02*
X37603D01*
X36599Y19335D02*
Y19887D01*
Y19335D02*
X37603D01*
X35073Y19305D02*
Y19857D01*
X34069Y19305D02*
X35073D01*
X34069D02*
Y19857D01*
X35073D01*
X32613Y19345D02*
Y19897D01*
X31609D02*
X32613D01*
X31609Y19345D02*
Y19897D01*
Y19345D02*
X32613D01*
X30103Y19330D02*
Y19881D01*
X29099D02*
X30103D01*
X29099Y19330D02*
Y19881D01*
Y19330D02*
X30103D01*
X3311Y22061D02*
Y22451D01*
Y22061D02*
X4071D01*
Y22451D01*
X3311D02*
X4071D01*
X39375Y19703D02*
X39927D01*
X39375Y18699D02*
Y19703D01*
Y18699D02*
X39927D01*
Y19703D01*
X8542Y21689D02*
X8932D01*
Y22449D01*
X8542D02*
X8932D01*
X8542Y21689D02*
Y22449D01*
X33151Y40661D02*
X33541D01*
X33151Y39901D02*
Y40661D01*
Y39901D02*
X33541D01*
Y40661D01*
X33564Y40695D02*
Y41085D01*
X32804D02*
X33564D01*
X32804Y40695D02*
Y41085D01*
Y40695D02*
X33564D01*
X4791Y31381D02*
Y31771D01*
Y31381D02*
X5551D01*
Y31771D01*
X4791D02*
X5551D01*
X21495Y14541D02*
X21885D01*
X21495Y13781D02*
Y14541D01*
Y13781D02*
X21885D01*
Y14541D01*
X21915Y13781D02*
X22305D01*
Y14541D01*
X21915D02*
X22305D01*
X21915Y13781D02*
Y14541D01*
X18032Y10578D02*
X18422D01*
Y11338D01*
X18032D02*
X18422D01*
X18032Y10578D02*
Y11338D01*
X23731Y10591D02*
Y11351D01*
X23341Y10591D02*
X23731D01*
X23341D02*
Y11351D01*
X23731D01*
X26009Y38755D02*
Y39307D01*
Y38755D02*
X27013D01*
Y39307D01*
X26009D02*
X27013D01*
X26720Y33887D02*
Y34277D01*
X25961D02*
X26720D01*
X25961Y33887D02*
Y34277D01*
Y33887D02*
X26720D01*
X26357Y32537D02*
X26747D01*
X26357Y31777D02*
Y32537D01*
Y31777D02*
X26747D01*
Y32537D01*
X17361Y35131D02*
X17751D01*
Y35891D01*
X17361D02*
X17751D01*
X17361Y35131D02*
Y35891D01*
X17513Y38755D02*
Y39307D01*
X16509D02*
X17513D01*
X16509Y38755D02*
Y39307D01*
Y38755D02*
X17513D01*
X28787Y29457D02*
Y29848D01*
X28027D02*
X28787D01*
X28027Y29457D02*
Y29848D01*
Y29457D02*
X28787D01*
X13351Y35114D02*
X13741D01*
Y35874D01*
X13351D02*
X13741D01*
X13351Y35114D02*
Y35874D01*
X13513Y38755D02*
Y39307D01*
X12509D02*
X13513D01*
X12509Y38755D02*
Y39307D01*
Y38755D02*
X13513D01*
X25599Y30746D02*
X25989D01*
X25599Y29986D02*
Y30746D01*
Y29986D02*
X25989D01*
Y30746D01*
X9326Y35114D02*
X9716D01*
Y35874D01*
X9326D02*
X9716D01*
X9326Y35114D02*
Y35874D01*
X9483Y38755D02*
Y39307D01*
X8479D02*
X9483D01*
X8479Y38755D02*
Y39307D01*
Y38755D02*
X9483D01*
X20611Y37921D02*
X21001D01*
X20611Y37161D02*
Y37921D01*
Y37161D02*
X21001D01*
Y37921D01*
X20611Y36381D02*
X21001D01*
Y37141D01*
X20611D02*
X21001D01*
X20611Y36381D02*
Y37141D01*
X19783Y38755D02*
Y39307D01*
X18779D02*
X19783D01*
X18779Y38755D02*
Y39307D01*
Y38755D02*
X19783D01*
X9971Y34041D02*
Y34801D01*
X9581Y34041D02*
X9971D01*
X9581D02*
Y34801D01*
X9971D01*
X8101Y34421D02*
Y34811D01*
X7341D02*
X8101D01*
X7341Y34421D02*
Y34811D01*
Y34421D02*
X8101D01*
X7721Y33631D02*
X8111D01*
Y34391D01*
X7721D02*
X8111D01*
X7721Y33631D02*
Y34391D01*
X6459Y38755D02*
Y39307D01*
Y38755D02*
X7463D01*
Y39307D01*
X6459D02*
X7463D01*
X35671Y14541D02*
X36061D01*
X35671Y13781D02*
Y14541D01*
Y13781D02*
X36061D01*
Y14541D01*
X28581D02*
X28971D01*
X28581Y13781D02*
Y14541D01*
Y13781D02*
X28971D01*
Y14541D01*
X14404D02*
X14794D01*
X14404Y13781D02*
Y14541D01*
Y13781D02*
X14794D01*
Y14541D01*
X7415D02*
X7805D01*
X7415Y13781D02*
Y14541D01*
Y13781D02*
X7805D01*
Y14541D01*
X36091Y13781D02*
X36481D01*
Y14541D01*
X36091D02*
X36481D01*
X36091Y13781D02*
Y14541D01*
X29001Y13781D02*
X29391D01*
Y14541D01*
X29001D02*
X29391D01*
X29001Y13781D02*
Y14541D01*
X14824Y13781D02*
X15214D01*
Y14541D01*
X14824D02*
X15214D01*
X14824Y13781D02*
Y14541D01*
X7835Y13781D02*
X8226D01*
Y14541D01*
X7835D02*
X8226D01*
X7835Y13781D02*
Y14541D01*
X32207Y10578D02*
Y11338D01*
X32597D01*
Y10578D02*
Y11338D01*
X32207Y10578D02*
X32597D01*
X25118D02*
Y11338D01*
X25508D01*
Y10578D02*
Y11338D01*
X25118Y10578D02*
X25508D01*
X10941D02*
Y11338D01*
X11331D01*
Y10578D02*
Y11338D01*
X10941Y10578D02*
X11331D01*
X3972D02*
Y11338D01*
X4363D01*
Y10578D02*
Y11338D01*
X3972Y10578D02*
X4363D01*
X37501Y10601D02*
Y11361D01*
X37111Y10601D02*
X37501D01*
X37111D02*
Y11361D01*
X37501D01*
X30421Y10601D02*
Y11361D01*
X30031Y10601D02*
X30421D01*
X30031D02*
Y11361D01*
X30421D01*
X16861Y9821D02*
X17621D01*
X16861D02*
Y10211D01*
X17621D01*
Y9821D02*
Y10211D01*
X9751Y9811D02*
X10511D01*
X9751D02*
Y10201D01*
X10511D01*
Y9811D02*
Y10201D01*
X38121Y10601D02*
X38881D01*
X38121D02*
Y10991D01*
X38881D01*
Y10601D02*
Y10991D01*
X31011Y10591D02*
X31771D01*
X31011D02*
Y10981D01*
X31771D01*
Y10591D02*
Y10981D01*
X16861Y10601D02*
X17621D01*
X16861D02*
Y10991D01*
X17621D01*
Y10601D02*
Y10991D01*
X9751Y10601D02*
X10511D01*
X9751D02*
Y10991D01*
X10511D01*
Y10601D02*
Y10991D01*
X35541Y23281D02*
X36301D01*
Y22891D02*
Y23281D01*
X35541Y22891D02*
X36301D01*
X35541D02*
Y23281D01*
X31601D02*
X32361D01*
Y22891D02*
Y23281D01*
X31601Y22891D02*
X32361D01*
X31601D02*
Y23281D01*
X28211Y23761D02*
X28971D01*
Y23371D02*
Y23761D01*
X28211Y23371D02*
X28971D01*
X28211D02*
Y23761D01*
X37221Y23281D02*
X37981D01*
Y22891D02*
Y23281D01*
X37221Y22891D02*
X37981D01*
X37221D02*
Y23281D01*
X33251D02*
X34011D01*
Y22891D02*
Y23281D01*
X33251Y22891D02*
X34011D01*
X33251D02*
Y23281D01*
X29801D02*
X30561D01*
Y22891D02*
Y23281D01*
X29801Y22891D02*
X30561D01*
X29801D02*
Y23281D01*
X5551Y30151D02*
Y30541D01*
X4791D02*
X5551D01*
X4791Y30151D02*
Y30541D01*
Y30151D02*
X5551D01*
Y30761D02*
Y31151D01*
X4791D02*
X5551D01*
X4791Y30761D02*
Y31151D01*
Y30761D02*
X5551D01*
X14031Y25304D02*
Y26081D01*
X12474Y25304D02*
Y26081D01*
Y25304D02*
X14031D01*
X12474Y26081D02*
X14031D01*
X15371Y19591D02*
Y20368D01*
X16928Y19591D02*
Y20368D01*
X15371D02*
X16928D01*
X15371Y19591D02*
X16928D01*
X24965Y29349D02*
Y30126D01*
X23408Y29349D02*
Y30126D01*
Y29349D02*
X24965D01*
X23408Y30126D02*
X24965D01*
X33360Y10531D02*
X34120D01*
Y10141D02*
Y10531D01*
X33360Y10141D02*
X34120D01*
X33360D02*
Y10531D01*
X26271D02*
X27031D01*
Y10141D02*
Y10531D01*
X26271Y10141D02*
X27031D01*
X26271D02*
Y10531D01*
X12094Y10561D02*
X12854D01*
Y10171D02*
Y10561D01*
X12094Y10171D02*
X12854D01*
X12094D02*
Y10561D01*
X5126Y10531D02*
X5885D01*
Y10141D02*
Y10531D01*
X5126Y10141D02*
X5885D01*
X5126D02*
Y10531D01*
X9171Y31401D02*
X9561D01*
X9171Y30641D02*
Y31401D01*
Y30641D02*
X9561D01*
Y31401D01*
X9551Y30021D02*
Y30411D01*
X8791D02*
X9551D01*
X8791Y30021D02*
Y30411D01*
Y30021D02*
X9551D01*
X14271Y31301D02*
X14661D01*
X14271Y30541D02*
Y31301D01*
Y30541D02*
X14661D01*
Y31301D01*
X17241Y18661D02*
X17631D01*
Y19421D01*
X17241D02*
X17631D01*
X17241Y18661D02*
Y19421D01*
X38121Y10201D02*
X38881D01*
X38121D02*
Y10591D01*
X38881D01*
Y10201D02*
Y10591D01*
X31011Y10201D02*
X31771D01*
X31011D02*
Y10591D01*
X31771D01*
Y10201D02*
Y10591D01*
X16861Y10211D02*
X17621D01*
X16861D02*
Y10601D01*
X17621D01*
Y10211D02*
Y10601D01*
X9751Y10201D02*
X10511D01*
X9751D02*
Y10591D01*
X10511D01*
Y10201D02*
Y10591D01*
X16381Y26921D02*
Y27681D01*
X16771D01*
Y26921D02*
Y27681D01*
X16381Y26921D02*
X16771D01*
X17489Y29787D02*
X18493D01*
Y29235D02*
Y29787D01*
X17489Y29235D02*
X18493D01*
X17489D02*
Y29787D01*
X19047Y29129D02*
Y30133D01*
X18495Y29129D02*
X19047D01*
X18495D02*
Y30133D01*
X19047D01*
X19891Y29551D02*
Y30311D01*
X20281D01*
Y29551D02*
Y30311D01*
X19891Y29551D02*
X20281D01*
X36151Y18665D02*
Y19425D01*
X36541D01*
Y18665D02*
Y19425D01*
X36151Y18665D02*
X36541D01*
X33621Y18635D02*
Y19395D01*
X34011D01*
Y18635D02*
Y19395D01*
X33621Y18635D02*
X34011D01*
X31161Y18675D02*
X31551D01*
Y19435D01*
X31161D02*
X31551D01*
X31161Y18675D02*
Y19435D01*
X28651Y18660D02*
X29041D01*
Y19420D01*
X28651D02*
X29041D01*
X28651Y18660D02*
Y19420D01*
X3311Y22851D02*
X4071D01*
Y22461D02*
Y22851D01*
X3311Y22461D02*
X4071D01*
X3311D02*
Y22851D01*
X33564Y40015D02*
X34324D01*
Y39625D02*
Y40015D01*
X33564Y39625D02*
X34324D01*
X33564D02*
Y40015D01*
X35714Y41655D02*
Y42432D01*
X37271Y41655D02*
Y42432D01*
X35714D02*
X37271D01*
X35714Y41655D02*
X37271D01*
X32833Y42536D02*
X33610D01*
X32833Y40979D02*
X33610D01*
Y42536D01*
X32833Y40979D02*
Y42536D01*
X39741Y41291D02*
Y42051D01*
X40131D01*
Y41291D02*
Y42051D01*
X39741Y41291D02*
X40131D01*
X37130Y40593D02*
Y41597D01*
X36579Y40593D02*
X37130D01*
X36579D02*
Y41597D01*
X37130D01*
X28028Y31237D02*
X28787D01*
Y30847D02*
Y31237D01*
X28028Y30847D02*
X28787D01*
X28028D02*
Y31237D01*
Y30807D02*
X28787D01*
Y30417D02*
Y30807D01*
X28028Y30417D02*
X28787D01*
X28028D02*
Y30807D01*
X27309Y32115D02*
X28069D01*
X27309D02*
Y32505D01*
X28069D01*
Y32115D02*
Y32505D01*
X24201Y18731D02*
Y19121D01*
Y18731D02*
X24961D01*
Y19121D01*
X24201D02*
X24961D01*
X26031Y23381D02*
X26421D01*
Y24141D01*
X26031D02*
X26421D01*
X26031Y23381D02*
Y24141D01*
X23001Y28681D02*
Y29071D01*
X22241D02*
X23001D01*
X22241Y28681D02*
Y29071D01*
Y28681D02*
X23001D01*
X35541Y23751D02*
X36301D01*
Y23361D02*
Y23751D01*
X35541Y23361D02*
X36301D01*
X35541D02*
Y23751D01*
X31601Y23761D02*
X32361D01*
Y23371D02*
Y23761D01*
X31601Y23371D02*
X32361D01*
X31601D02*
Y23761D01*
X28211Y23281D02*
X28971D01*
Y22891D02*
Y23281D01*
X28211Y22891D02*
X28971D01*
X28211D02*
Y23281D01*
X16461Y21961D02*
Y22351D01*
X15701D02*
X16461D01*
X15701Y21961D02*
Y22351D01*
Y21961D02*
X16461D01*
X16791Y26521D02*
Y26911D01*
X16031D02*
X16791D01*
X16031Y26521D02*
Y26911D01*
Y26521D02*
X16791D01*
X40349Y11645D02*
X41353D01*
X40349D02*
Y12197D01*
X41353D01*
Y11645D02*
Y12197D01*
X40349Y11105D02*
X41353D01*
X40349D02*
Y11657D01*
X41353D01*
Y11105D02*
Y11657D01*
X14319Y25987D02*
X15323D01*
Y25435D02*
Y25987D01*
X14319Y25435D02*
X15323D01*
X14319D02*
Y25987D01*
X16471Y22361D02*
Y22751D01*
X15711D02*
X16471D01*
X15711Y22361D02*
Y22751D01*
Y22361D02*
X16471D01*
X16361Y26131D02*
X16751D01*
X16361Y25371D02*
Y26131D01*
Y25371D02*
X16751D01*
Y26131D01*
X23791Y19341D02*
X24181D01*
X23791Y18581D02*
Y19341D01*
Y18581D02*
X24181D01*
Y19341D01*
X26031Y23141D02*
X26421D01*
X26031Y22381D02*
Y23141D01*
Y22381D02*
X26421D01*
Y23141D01*
X37221Y23751D02*
X37981D01*
Y23361D02*
Y23751D01*
X37221Y23361D02*
X37981D01*
X37221D02*
Y23751D01*
X33251D02*
X34011D01*
Y23361D02*
Y23751D01*
X33251Y23361D02*
X34011D01*
X33251D02*
Y23751D01*
X29801Y23761D02*
X30561D01*
Y23371D02*
Y23761D01*
X29801Y23371D02*
X30561D01*
X29801D02*
Y23761D01*
X23011Y28681D02*
X23401D01*
Y29441D01*
X23011D02*
X23401D01*
X23011Y28681D02*
Y29441D01*
X15927Y23859D02*
Y24863D01*
X15375Y23859D02*
X15927D01*
X15375D02*
Y24863D01*
X15927D01*
X16361Y24591D02*
X16751D01*
Y25351D01*
X16361D02*
X16751D01*
X16361Y24591D02*
Y25351D01*
X32537Y29689D02*
Y30693D01*
X31985Y29689D02*
X32537D01*
X31985D02*
Y30693D01*
X32537D01*
X33317Y29689D02*
Y30693D01*
X32765Y29689D02*
X33317D01*
X32765D02*
Y30693D01*
X33317D01*
X16081Y19131D02*
Y19521D01*
Y19131D02*
X16841D01*
Y19521D01*
X16081D02*
X16841D01*
X15079Y19587D02*
X16083D01*
Y19035D02*
Y19587D01*
X15079Y19035D02*
X16083D01*
X15079D02*
Y19587D01*
X23457Y30130D02*
Y30681D01*
Y30130D02*
X24461D01*
Y30681D01*
X23457D02*
X24461D01*
X18151Y28651D02*
Y29041D01*
Y28651D02*
X18911D01*
Y29041D01*
X18151D02*
X18911D01*
X16221Y23601D02*
X16611D01*
X16221Y22841D02*
Y23601D01*
Y22841D02*
X16611D01*
Y23601D01*
X23824Y6755D02*
Y7307D01*
X22820D02*
X23824D01*
X22820Y6755D02*
Y7307D01*
Y6755D02*
X23824D01*
X23707Y6663D02*
X24258D01*
X23707Y5659D02*
Y6663D01*
Y5659D02*
X24258D01*
Y6663D01*
X18984Y6745D02*
Y7297D01*
X17980D02*
X18984D01*
X17980Y6745D02*
Y7297D01*
Y6745D02*
X18984D01*
X17527Y6663D02*
X18078D01*
X17527Y5659D02*
Y6663D01*
Y5659D02*
X18078D01*
Y6663D01*
X22395Y14541D02*
X22785D01*
X22395Y13781D02*
Y14541D01*
Y13781D02*
X22785D01*
Y14541D01*
X18455Y11341D02*
X18845D01*
X18455Y10581D02*
Y11341D01*
Y10581D02*
X18845D01*
Y11341D01*
X19185Y10531D02*
X19945D01*
Y10141D02*
Y10531D01*
X19185Y10141D02*
X19945D01*
X19185D02*
Y10531D01*
X24701Y9811D02*
Y10201D01*
X23941D02*
X24701D01*
X23941Y9811D02*
Y10201D01*
Y9811D02*
X24701D01*
X5732Y21574D02*
Y22351D01*
X4175Y21574D02*
Y22351D01*
Y21574D02*
X5732D01*
X4175Y22351D02*
X5732D01*
X23221Y36361D02*
Y36751D01*
X22461D02*
X23221D01*
X22461Y36361D02*
Y36751D01*
Y36361D02*
X23221D01*
X9576Y33186D02*
X9966D01*
Y33946D01*
X9576D02*
X9966D01*
X9576Y33186D02*
Y33946D01*
X36995Y6755D02*
X37999D01*
X36995D02*
Y7307D01*
X37999D01*
Y6755D02*
Y7307D01*
X29906Y6755D02*
X30910D01*
X29906D02*
Y7307D01*
X30910D01*
Y6755D02*
Y7307D01*
X15729Y6755D02*
X16733D01*
X15729D02*
Y7307D01*
X16733D01*
Y6755D02*
Y7307D01*
X8760Y6755D02*
X9764D01*
X8760D02*
Y7307D01*
X9764D01*
Y6755D02*
Y7307D01*
X38432Y5659D02*
Y6663D01*
X37881Y5659D02*
X38432D01*
X37881D02*
Y6663D01*
X38432D01*
X31047Y5509D02*
Y6513D01*
X30495Y5509D02*
X31047D01*
X30495D02*
Y6513D01*
X31047D01*
X17462Y5659D02*
Y6663D01*
X16911Y5659D02*
X17462D01*
X16911D02*
Y6663D01*
X17462D01*
X10692Y5659D02*
Y6663D01*
X10141Y5659D02*
X10692D01*
X10141D02*
Y6663D01*
X10692D01*
X32155Y6745D02*
X33159D01*
X32155D02*
Y7297D01*
X33159D01*
Y6745D02*
Y7297D01*
X25066Y6745D02*
X26070D01*
X25066D02*
Y7297D01*
X26070D01*
Y6745D02*
Y7297D01*
X10938Y6745D02*
X11942D01*
X10938D02*
Y7297D01*
X11942D01*
Y6745D02*
Y7297D01*
X3919Y6755D02*
X4923D01*
X3919D02*
Y7307D01*
X4923D01*
Y6755D02*
Y7307D01*
X32267Y5659D02*
Y6663D01*
X31715Y5659D02*
X32267D01*
X31715D02*
Y6663D01*
X32267D01*
X25164Y5659D02*
Y6663D01*
X24613Y5659D02*
X25164D01*
X24613D02*
Y6663D01*
X25164D01*
X11291Y5593D02*
Y6596D01*
X10740Y5593D02*
X11291D01*
X10740D02*
Y6596D01*
X11291D01*
X3880Y6114D02*
Y7118D01*
X3329Y6114D02*
X3880D01*
X3329D02*
Y7118D01*
X3880D01*
X36951Y13781D02*
Y14541D01*
X36561Y13781D02*
X36951D01*
X36561D02*
Y14541D01*
X36951D01*
X29871Y13781D02*
Y14541D01*
X29481Y13781D02*
X29871D01*
X29481D02*
Y14541D01*
X29871D01*
X15691Y13781D02*
Y14541D01*
X15301Y13781D02*
X15691D01*
X15301D02*
Y14541D01*
X15691D01*
X8705Y13781D02*
Y14541D01*
X8315Y13781D02*
X8705D01*
X8315D02*
Y14541D01*
X8705D01*
X33020Y10581D02*
Y11341D01*
X32630Y10581D02*
X33020D01*
X32630D02*
Y11341D01*
X33020D01*
X25931Y10581D02*
Y11341D01*
X25541Y10581D02*
X25931D01*
X25541D02*
Y11341D01*
X25931D01*
X11754Y10581D02*
Y11341D01*
X11364Y10581D02*
X11754D01*
X11364D02*
Y11341D01*
X11754D01*
X4785Y10581D02*
Y11341D01*
X4395Y10581D02*
X4785D01*
X4395D02*
Y11341D01*
X4785D01*
X32880Y17991D02*
X33640D01*
X32880D02*
Y18381D01*
X33640D01*
Y17991D02*
Y18381D01*
X22693Y15261D02*
X23453D01*
Y14871D02*
Y15261D01*
X22693Y14871D02*
X23453D01*
X22693D02*
Y15261D01*
X30078Y16413D02*
Y17173D01*
X30468D01*
Y16413D02*
Y17173D01*
X30078Y16413D02*
X30468D01*
X27821Y16098D02*
X28581D01*
Y15707D02*
Y16098D01*
X27821Y15707D02*
X28581D01*
X27821D02*
Y16098D01*
X17555Y15566D02*
X18315D01*
Y15176D02*
Y15566D01*
X17555Y15176D02*
X18315D01*
X17555D02*
Y15566D01*
X10045Y15950D02*
X10805D01*
Y15560D02*
Y15950D01*
X10045Y15560D02*
X10805D01*
X10045D02*
Y15950D01*
X25323Y38755D02*
Y39307D01*
X24319D02*
X25323D01*
X24319Y38755D02*
Y39307D01*
Y38755D02*
X25323D01*
X16503Y38755D02*
Y39307D01*
X15499D02*
X16503D01*
X15499Y38755D02*
Y39307D01*
Y38755D02*
X16503D01*
X12493Y38755D02*
Y39307D01*
X11489D02*
X12493D01*
X11489Y38755D02*
Y39307D01*
Y38755D02*
X12493D01*
X7469D02*
Y39307D01*
Y38755D02*
X8473D01*
Y39307D01*
X7469D02*
X8473D01*
X22043Y37665D02*
Y38217D01*
X21039D02*
X22043D01*
X21039Y37665D02*
Y38217D01*
Y37665D02*
X22043D01*
X6043Y34955D02*
Y35507D01*
X5039D02*
X6043D01*
X5039Y34955D02*
Y35507D01*
Y34955D02*
X6043D01*
X25341Y18531D02*
X26101D01*
X25341D02*
Y18921D01*
X26101D01*
Y18531D02*
Y18921D01*
X25331Y19331D02*
X26091D01*
Y18941D02*
Y19331D01*
X25331Y18941D02*
X26091D01*
X25331D02*
Y19331D01*
X25351Y17841D02*
X26111D01*
X25351D02*
Y18231D01*
X26111D01*
Y17841D02*
Y18231D01*
X5571Y32311D02*
X6331D01*
Y31921D02*
Y32311D01*
X5571Y31921D02*
X6331D01*
X5571D02*
Y32311D01*
X3011Y12421D02*
X3771D01*
X3011D02*
Y12811D01*
X3771D01*
Y12421D02*
Y12811D01*
X4701Y39211D02*
Y39971D01*
X5091D01*
Y39211D02*
Y39971D01*
X4701Y39211D02*
X5091D01*
X6111Y3181D02*
Y3941D01*
X5721Y3181D02*
X6111D01*
X5721D02*
Y3941D01*
X6111D01*
X41817Y39767D02*
X42577D01*
Y39377D02*
Y39767D01*
X41817Y39377D02*
X42577D01*
X41817D02*
Y39767D01*
X40921Y6041D02*
X41681D01*
Y5651D02*
Y6041D01*
X40921Y5651D02*
X41681D01*
X40921D02*
Y6041D01*
X41986Y38228D02*
X42746D01*
Y37837D02*
Y38228D01*
X41986Y37837D02*
X42746D01*
X41986D02*
Y38228D01*
X41986D02*
X42746D01*
X41986D02*
Y38618D01*
X42746D01*
Y38228D02*
Y38618D01*
X36391Y22891D02*
Y23281D01*
Y22891D02*
X37151D01*
Y23281D01*
X36391D02*
X37151D01*
X32431Y22891D02*
Y23281D01*
Y22891D02*
X33191D01*
Y23281D01*
X32431D02*
X33191D01*
X29001Y22890D02*
Y23280D01*
Y22890D02*
X29761D01*
Y23280D01*
X29001D02*
X29761D01*
X38051Y22891D02*
Y23281D01*
Y22891D02*
X38811D01*
Y23281D01*
X38051D02*
X38811D01*
X34081Y22891D02*
Y23281D01*
Y22891D02*
X34841D01*
Y23281D01*
X34081D02*
X34841D01*
X30621Y22891D02*
Y23281D01*
Y22891D02*
X31381D01*
Y23281D01*
X30621D02*
X31381D01*
X15927Y22859D02*
Y23863D01*
X15375Y22859D02*
X15927D01*
X15375D02*
Y23863D01*
X15927D01*
X21903Y10537D02*
X22907D01*
Y9985D02*
Y10537D01*
X21903Y9985D02*
X22907D01*
X21903D02*
Y10537D01*
X18169Y9815D02*
X19173D01*
X18169D02*
Y10367D01*
X19173D01*
Y9815D02*
Y10367D01*
X36078Y10527D02*
X37082D01*
Y9975D02*
Y10527D01*
X36078Y9975D02*
X37082D01*
X36078D02*
Y10527D01*
X28989D02*
X29993D01*
Y9975D02*
Y10527D01*
X28989Y9975D02*
X29993D01*
X28989D02*
Y10527D01*
X14812D02*
X15816D01*
Y9975D02*
Y10527D01*
X14812Y9975D02*
X15816D01*
X14812D02*
Y10527D01*
X7843D02*
X8847D01*
Y9975D02*
Y10527D01*
X7843Y9975D02*
X8847D01*
X7843D02*
Y10527D01*
X32345Y9825D02*
X33349D01*
X32345D02*
Y10377D01*
X33349D01*
Y9825D02*
Y10377D01*
X25256Y9825D02*
X26260D01*
X25256D02*
Y10377D01*
X26260D01*
Y9825D02*
Y10377D01*
X11079Y9825D02*
X12083D01*
X11079D02*
Y10377D01*
X12083D01*
Y9825D02*
Y10377D01*
X4110Y9825D02*
X5114D01*
X4110D02*
Y10377D01*
X5114D01*
Y9825D02*
Y10377D01*
X28390Y31307D02*
X29167D01*
X28390Y32864D02*
X29167D01*
X28390Y31307D02*
Y32864D01*
X29167Y31307D02*
Y32864D01*
X28399Y36575D02*
X29403D01*
X28399D02*
Y37127D01*
X29403D01*
Y36575D02*
Y37127D01*
X28399Y37125D02*
X29403D01*
X28399D02*
Y37677D01*
X29403D01*
Y37125D02*
Y37677D01*
X14841Y30151D02*
X15231D01*
Y30911D01*
X14841D02*
X15231D01*
X14841Y30151D02*
Y30911D01*
X4172Y21581D02*
Y21971D01*
X3412D02*
X4172D01*
X3412Y21581D02*
Y21971D01*
Y21581D02*
X4172D01*
X13362Y22558D02*
Y22948D01*
Y22558D02*
X14122D01*
Y22948D01*
X13362D02*
X14122D01*
X8881Y11361D02*
X9271D01*
X8881Y10601D02*
Y11361D01*
Y10601D02*
X9271D01*
Y11361D01*
X15841D02*
X16231D01*
X15841Y10601D02*
Y11361D01*
Y10601D02*
X16231D01*
Y11361D01*
X31771Y9811D02*
Y10201D01*
X31011D02*
X31771D01*
X31011Y9811D02*
Y10201D01*
Y9811D02*
X31771D01*
X38881D02*
Y10201D01*
X38121D02*
X38881D01*
X38121Y9811D02*
Y10201D01*
Y9811D02*
X38881D01*
X9281Y11361D02*
X9671D01*
X9281Y10601D02*
Y11361D01*
Y10601D02*
X9671D01*
Y11361D01*
X16241D02*
X16631D01*
X16241Y10601D02*
Y11361D01*
Y10601D02*
X16631D01*
Y11361D01*
X30431D02*
X30821D01*
X30431Y10601D02*
Y11361D01*
Y10601D02*
X30821D01*
Y11361D01*
X37511D02*
X37901D01*
X37511Y10601D02*
Y11361D01*
Y10601D02*
X37901D01*
Y11361D01*
X24701Y10191D02*
Y10581D01*
X23941D02*
X24701D01*
X23941Y10191D02*
Y10581D01*
Y10191D02*
X24701D01*
X22941Y11351D02*
X23331D01*
X22941Y10591D02*
Y11351D01*
Y10591D02*
X23331D01*
Y11351D01*
X10386Y35018D02*
Y35409D01*
Y35018D02*
X11146D01*
Y35409D01*
X10386D02*
X11146D01*
X14402Y35028D02*
Y35419D01*
Y35028D02*
X15161D01*
Y35419D01*
X14402D02*
X15161D01*
X18413Y35001D02*
Y35391D01*
Y35001D02*
X19173D01*
Y35391D01*
X18413D02*
X19173D01*
X26337Y33008D02*
X26728D01*
Y33768D01*
X26337D02*
X26728D01*
X26337Y33008D02*
Y33768D01*
X22511Y37571D02*
X22901D01*
X22511Y36811D02*
Y37571D01*
Y36811D02*
X22901D01*
Y37571D01*
X9326Y36652D02*
X9716D01*
X9326Y35892D02*
Y36652D01*
Y35892D02*
X9716D01*
Y36652D01*
X13361D02*
X13751D01*
X13361Y35892D02*
Y36652D01*
Y35892D02*
X13751D01*
Y36652D01*
X17361Y36651D02*
X17751D01*
X17361Y35891D02*
Y36651D01*
Y35891D02*
X17751D01*
Y36651D01*
X26720Y34307D02*
Y34697D01*
X25961D02*
X26720D01*
X25961Y34307D02*
Y34697D01*
Y34307D02*
X26720D01*
X26810Y32537D02*
X27200D01*
X26810Y31777D02*
Y32537D01*
Y31777D02*
X27200D01*
Y32537D01*
X17871Y18661D02*
X18261D01*
Y19421D01*
X17871D02*
X18261D01*
X17871Y18661D02*
Y19421D01*
X30501Y16411D02*
Y17171D01*
X30891D01*
Y16411D02*
Y17171D01*
X30501Y16411D02*
X30891D01*
X21111Y29551D02*
Y30311D01*
X21501D01*
Y29551D02*
Y30311D01*
X21111Y29551D02*
X21501D01*
X22611Y31571D02*
Y32331D01*
X23001D01*
Y31571D02*
Y32331D01*
X22611Y31571D02*
X23001D01*
X20891Y29551D02*
Y30311D01*
X20501Y29551D02*
X20891D01*
X20501D02*
Y30311D01*
X20891D01*
X20911Y28731D02*
Y29121D01*
X20151D02*
X20911D01*
X20151Y28731D02*
Y29121D01*
Y28731D02*
X20911D01*
X11451Y25411D02*
Y25801D01*
Y25411D02*
X12211D01*
Y25801D01*
X11451D02*
X12211D01*
X7131Y30271D02*
X7521D01*
X7131Y29511D02*
Y30271D01*
Y29511D02*
X7521D01*
Y30271D01*
X8031Y30541D02*
Y30931D01*
X7271D02*
X8031D01*
X7271Y30541D02*
Y30931D01*
Y30541D02*
X8031D01*
X7555Y30513D02*
X8107D01*
X7555Y29509D02*
Y30513D01*
Y29509D02*
X8107D01*
Y30513D01*
X5513Y28795D02*
Y29347D01*
X4509D02*
X5513D01*
X4509Y28795D02*
Y29347D01*
Y28795D02*
X5513D01*
X12599Y31695D02*
Y32247D01*
Y31695D02*
X13603D01*
Y32247D01*
X12599D02*
X13603D01*
X12599Y26635D02*
Y27187D01*
Y26635D02*
X13603D01*
Y27187D01*
X12599D02*
X13603D01*
X25272Y31226D02*
X26032D01*
Y30835D02*
Y31226D01*
X25272Y30835D02*
X26032D01*
X25272D02*
Y31226D01*
X33894Y79011D02*
Y79771D01*
X34284D01*
Y79011D02*
Y79771D01*
X33894Y79011D02*
X34284D01*
X33741Y79011D02*
Y79771D01*
X33351Y79011D02*
X33741D01*
X33351D02*
Y79771D01*
X33741D01*
X23941Y51095D02*
X24701D01*
X23941D02*
Y51485D01*
X24701D01*
Y51095D02*
Y51485D01*
X6957Y62949D02*
X7348D01*
X6957Y62189D02*
Y62949D01*
Y62189D02*
X7348D01*
Y62949D01*
X5752Y62951D02*
X6142D01*
X5752Y62191D02*
Y62951D01*
Y62191D02*
X6142D01*
Y62951D01*
X7765Y62189D02*
X8155D01*
Y62949D01*
X7765D02*
X8155D01*
X7765Y62189D02*
Y62949D01*
X8532Y63193D02*
X8922D01*
Y63953D01*
X8532D02*
X8922D01*
X8532Y63193D02*
Y63953D01*
X9789Y63547D02*
X10793D01*
Y62995D02*
Y63547D01*
X9789Y62995D02*
X10793D01*
X9789D02*
Y63547D01*
X15639Y60855D02*
Y61407D01*
Y60855D02*
X16643D01*
Y61407D01*
X15639D02*
X16643D01*
X3471Y68581D02*
Y69341D01*
X3861D01*
Y68581D02*
Y69341D01*
X3471Y68581D02*
X3861D01*
X24493Y69285D02*
Y69837D01*
X23489D02*
X24493D01*
X23489Y69285D02*
Y69837D01*
Y69285D02*
X24493D01*
X3911Y69341D02*
X4301D01*
X3911Y68581D02*
Y69341D01*
Y68581D02*
X4301D01*
Y69341D01*
X8781Y68591D02*
X9541D01*
X8781D02*
Y68981D01*
X9541D01*
Y68591D02*
Y68981D01*
X14331Y68761D02*
X15091D01*
X14331D02*
Y69151D01*
X15091D01*
Y68761D02*
Y69151D01*
X8781Y69031D02*
X9541D01*
X8781D02*
Y69421D01*
X9541D01*
Y69031D02*
Y69421D01*
X14321Y68211D02*
X15081D01*
X14321D02*
Y68601D01*
X15081D01*
Y68211D02*
Y68601D01*
X15971Y68191D02*
X16361D01*
X15971Y67431D02*
Y68191D01*
Y67431D02*
X16361D01*
Y68191D01*
X15711Y68761D02*
Y69521D01*
X15321Y68761D02*
X15711D01*
X15321D02*
Y69521D01*
X15711D01*
X15931Y64681D02*
X16691D01*
X15931D02*
Y65071D01*
X16691D01*
Y64681D02*
Y65071D01*
X15311Y67831D02*
Y68591D01*
X15701D01*
Y67831D02*
Y68591D01*
X15311Y67831D02*
X15701D01*
X37603Y59085D02*
Y59637D01*
X36599D02*
X37603D01*
X36599Y59085D02*
Y59637D01*
Y59085D02*
X37603D01*
X35073Y59055D02*
Y59607D01*
X34069Y59055D02*
X35073D01*
X34069D02*
Y59607D01*
X35073D01*
X32613Y59095D02*
Y59647D01*
X31609D02*
X32613D01*
X31609Y59095D02*
Y59647D01*
Y59095D02*
X32613D01*
X30103Y59080D02*
Y59631D01*
X29099D02*
X30103D01*
X29099Y59080D02*
Y59631D01*
Y59080D02*
X30103D01*
X37603Y59835D02*
Y60387D01*
X36599D02*
X37603D01*
X36599Y59835D02*
Y60387D01*
Y59835D02*
X37603D01*
X35073Y59805D02*
Y60357D01*
X34069Y59805D02*
X35073D01*
X34069D02*
Y60357D01*
X35073D01*
X32613Y59845D02*
Y60397D01*
X31609D02*
X32613D01*
X31609Y59845D02*
Y60397D01*
Y59845D02*
X32613D01*
X30103Y59830D02*
Y60381D01*
X29099D02*
X30103D01*
X29099Y59830D02*
Y60381D01*
Y59830D02*
X30103D01*
X3311Y62561D02*
Y62951D01*
Y62561D02*
X4071D01*
Y62951D01*
X3311D02*
X4071D01*
X39375Y60203D02*
X39927D01*
X39375Y59199D02*
Y60203D01*
Y59199D02*
X39927D01*
Y60203D01*
X8542Y62189D02*
X8932D01*
Y62949D01*
X8542D02*
X8932D01*
X8542Y62189D02*
Y62949D01*
X33151Y81161D02*
X33541D01*
X33151Y80401D02*
Y81161D01*
Y80401D02*
X33541D01*
Y81161D01*
X33564Y81195D02*
Y81585D01*
X32804D02*
X33564D01*
X32804Y81195D02*
Y81585D01*
Y81195D02*
X33564D01*
X4791Y71881D02*
Y72271D01*
Y71881D02*
X5551D01*
Y72271D01*
X4791D02*
X5551D01*
X21495Y55041D02*
X21885D01*
X21495Y54281D02*
Y55041D01*
Y54281D02*
X21885D01*
Y55041D01*
X21915Y54281D02*
X22305D01*
Y55041D01*
X21915D02*
X22305D01*
X21915Y54281D02*
Y55041D01*
X18032Y51078D02*
X18422D01*
Y51838D01*
X18032D02*
X18422D01*
X18032Y51078D02*
Y51838D01*
X23731Y51091D02*
Y51851D01*
X23341Y51091D02*
X23731D01*
X23341D02*
Y51851D01*
X23731D01*
X26009Y79255D02*
Y79807D01*
Y79255D02*
X27013D01*
Y79807D01*
X26009D02*
X27013D01*
X26720Y74387D02*
Y74777D01*
X25961D02*
X26720D01*
X25961Y74387D02*
Y74777D01*
Y74387D02*
X26720D01*
X26357Y73037D02*
X26747D01*
X26357Y72277D02*
Y73037D01*
Y72277D02*
X26747D01*
Y73037D01*
X17361Y75631D02*
X17751D01*
Y76391D01*
X17361D02*
X17751D01*
X17361Y75631D02*
Y76391D01*
X17513Y79255D02*
Y79807D01*
X16509D02*
X17513D01*
X16509Y79255D02*
Y79807D01*
Y79255D02*
X17513D01*
X28787Y69957D02*
Y70348D01*
X28027D02*
X28787D01*
X28027Y69957D02*
Y70348D01*
Y69957D02*
X28787D01*
X13351Y75614D02*
X13741D01*
Y76374D01*
X13351D02*
X13741D01*
X13351Y75614D02*
Y76374D01*
X13513Y79255D02*
Y79807D01*
X12509D02*
X13513D01*
X12509Y79255D02*
Y79807D01*
Y79255D02*
X13513D01*
X25599Y71246D02*
X25989D01*
X25599Y70486D02*
Y71246D01*
Y70486D02*
X25989D01*
Y71246D01*
X9326Y75614D02*
X9716D01*
Y76374D01*
X9326D02*
X9716D01*
X9326Y75614D02*
Y76374D01*
X9483Y79255D02*
Y79807D01*
X8479D02*
X9483D01*
X8479Y79255D02*
Y79807D01*
Y79255D02*
X9483D01*
X20611Y78421D02*
X21001D01*
X20611Y77661D02*
Y78421D01*
Y77661D02*
X21001D01*
Y78421D01*
X20611Y76881D02*
X21001D01*
Y77641D01*
X20611D02*
X21001D01*
X20611Y76881D02*
Y77641D01*
X19783Y79255D02*
Y79807D01*
X18779D02*
X19783D01*
X18779Y79255D02*
Y79807D01*
Y79255D02*
X19783D01*
X9971Y74541D02*
Y75301D01*
X9581Y74541D02*
X9971D01*
X9581D02*
Y75301D01*
X9971D01*
X8101Y74921D02*
Y75311D01*
X7341D02*
X8101D01*
X7341Y74921D02*
Y75311D01*
Y74921D02*
X8101D01*
X7721Y74131D02*
X8111D01*
Y74891D01*
X7721D02*
X8111D01*
X7721Y74131D02*
Y74891D01*
X6459Y79255D02*
Y79807D01*
Y79255D02*
X7463D01*
Y79807D01*
X6459D02*
X7463D01*
X35671Y55041D02*
X36061D01*
X35671Y54281D02*
Y55041D01*
Y54281D02*
X36061D01*
Y55041D01*
X28581D02*
X28971D01*
X28581Y54281D02*
Y55041D01*
Y54281D02*
X28971D01*
Y55041D01*
X14404D02*
X14794D01*
X14404Y54281D02*
Y55041D01*
Y54281D02*
X14794D01*
Y55041D01*
X7415D02*
X7805D01*
X7415Y54281D02*
Y55041D01*
Y54281D02*
X7805D01*
Y55041D01*
X36091Y54281D02*
X36481D01*
Y55041D01*
X36091D02*
X36481D01*
X36091Y54281D02*
Y55041D01*
X29001Y54281D02*
X29391D01*
Y55041D01*
X29001D02*
X29391D01*
X29001Y54281D02*
Y55041D01*
X14824Y54281D02*
X15214D01*
Y55041D01*
X14824D02*
X15214D01*
X14824Y54281D02*
Y55041D01*
X7835Y54281D02*
X8226D01*
Y55041D01*
X7835D02*
X8226D01*
X7835Y54281D02*
Y55041D01*
X32207Y51078D02*
Y51838D01*
X32597D01*
Y51078D02*
Y51838D01*
X32207Y51078D02*
X32597D01*
X25118D02*
Y51838D01*
X25508D01*
Y51078D02*
Y51838D01*
X25118Y51078D02*
X25508D01*
X10941D02*
Y51838D01*
X11331D01*
Y51078D02*
Y51838D01*
X10941Y51078D02*
X11331D01*
X3972D02*
Y51838D01*
X4363D01*
Y51078D02*
Y51838D01*
X3972Y51078D02*
X4363D01*
X37501Y51101D02*
Y51861D01*
X37111Y51101D02*
X37501D01*
X37111D02*
Y51861D01*
X37501D01*
X30421Y51101D02*
Y51861D01*
X30031Y51101D02*
X30421D01*
X30031D02*
Y51861D01*
X30421D01*
X16861Y50321D02*
X17621D01*
X16861D02*
Y50711D01*
X17621D01*
Y50321D02*
Y50711D01*
X9751Y50311D02*
X10511D01*
X9751D02*
Y50701D01*
X10511D01*
Y50311D02*
Y50701D01*
X38121Y51101D02*
X38881D01*
X38121D02*
Y51491D01*
X38881D01*
Y51101D02*
Y51491D01*
X31011Y51091D02*
X31771D01*
X31011D02*
Y51481D01*
X31771D01*
Y51091D02*
Y51481D01*
X16861Y51101D02*
X17621D01*
X16861D02*
Y51491D01*
X17621D01*
Y51101D02*
Y51491D01*
X9751Y51101D02*
X10511D01*
X9751D02*
Y51491D01*
X10511D01*
Y51101D02*
Y51491D01*
X35541Y63781D02*
X36301D01*
Y63391D02*
Y63781D01*
X35541Y63391D02*
X36301D01*
X35541D02*
Y63781D01*
X31601D02*
X32361D01*
Y63391D02*
Y63781D01*
X31601Y63391D02*
X32361D01*
X31601D02*
Y63781D01*
X28211Y64261D02*
X28971D01*
Y63871D02*
Y64261D01*
X28211Y63871D02*
X28971D01*
X28211D02*
Y64261D01*
X37221Y63781D02*
X37981D01*
Y63391D02*
Y63781D01*
X37221Y63391D02*
X37981D01*
X37221D02*
Y63781D01*
X33251D02*
X34011D01*
Y63391D02*
Y63781D01*
X33251Y63391D02*
X34011D01*
X33251D02*
Y63781D01*
X29801D02*
X30561D01*
Y63391D02*
Y63781D01*
X29801Y63391D02*
X30561D01*
X29801D02*
Y63781D01*
X5551Y70651D02*
Y71041D01*
X4791D02*
X5551D01*
X4791Y70651D02*
Y71041D01*
Y70651D02*
X5551D01*
Y71261D02*
Y71651D01*
X4791D02*
X5551D01*
X4791Y71261D02*
Y71651D01*
Y71261D02*
X5551D01*
X14031Y65804D02*
Y66581D01*
X12474Y65804D02*
Y66581D01*
Y65804D02*
X14031D01*
X12474Y66581D02*
X14031D01*
X15371Y60091D02*
Y60868D01*
X16928Y60091D02*
Y60868D01*
X15371D02*
X16928D01*
X15371Y60091D02*
X16928D01*
X24965Y69849D02*
Y70626D01*
X23408Y69849D02*
Y70626D01*
Y69849D02*
X24965D01*
X23408Y70626D02*
X24965D01*
X33360Y51031D02*
X34120D01*
Y50641D02*
Y51031D01*
X33360Y50641D02*
X34120D01*
X33360D02*
Y51031D01*
X26271D02*
X27031D01*
Y50641D02*
Y51031D01*
X26271Y50641D02*
X27031D01*
X26271D02*
Y51031D01*
X12094Y51061D02*
X12854D01*
Y50671D02*
Y51061D01*
X12094Y50671D02*
X12854D01*
X12094D02*
Y51061D01*
X5126Y51031D02*
X5885D01*
Y50641D02*
Y51031D01*
X5126Y50641D02*
X5885D01*
X5126D02*
Y51031D01*
X9171Y71901D02*
X9561D01*
X9171Y71141D02*
Y71901D01*
Y71141D02*
X9561D01*
Y71901D01*
X9551Y70521D02*
Y70911D01*
X8791D02*
X9551D01*
X8791Y70521D02*
Y70911D01*
Y70521D02*
X9551D01*
X14271Y71801D02*
X14661D01*
X14271Y71041D02*
Y71801D01*
Y71041D02*
X14661D01*
Y71801D01*
X17241Y59161D02*
X17631D01*
Y59921D01*
X17241D02*
X17631D01*
X17241Y59161D02*
Y59921D01*
X38121Y50701D02*
X38881D01*
X38121D02*
Y51091D01*
X38881D01*
Y50701D02*
Y51091D01*
X31011Y50701D02*
X31771D01*
X31011D02*
Y51091D01*
X31771D01*
Y50701D02*
Y51091D01*
X16861Y50711D02*
X17621D01*
X16861D02*
Y51101D01*
X17621D01*
Y50711D02*
Y51101D01*
X9751Y50701D02*
X10511D01*
X9751D02*
Y51091D01*
X10511D01*
Y50701D02*
Y51091D01*
X16381Y67421D02*
Y68181D01*
X16771D01*
Y67421D02*
Y68181D01*
X16381Y67421D02*
X16771D01*
X17489Y70287D02*
X18493D01*
Y69735D02*
Y70287D01*
X17489Y69735D02*
X18493D01*
X17489D02*
Y70287D01*
X19047Y69629D02*
Y70633D01*
X18495Y69629D02*
X19047D01*
X18495D02*
Y70633D01*
X19047D01*
X19891Y70051D02*
Y70811D01*
X20281D01*
Y70051D02*
Y70811D01*
X19891Y70051D02*
X20281D01*
X36151Y59165D02*
Y59925D01*
X36541D01*
Y59165D02*
Y59925D01*
X36151Y59165D02*
X36541D01*
X33621Y59135D02*
Y59895D01*
X34011D01*
Y59135D02*
Y59895D01*
X33621Y59135D02*
X34011D01*
X31161Y59175D02*
X31551D01*
Y59935D01*
X31161D02*
X31551D01*
X31161Y59175D02*
Y59935D01*
X28651Y59160D02*
X29041D01*
Y59920D01*
X28651D02*
X29041D01*
X28651Y59160D02*
Y59920D01*
X3311Y63351D02*
X4071D01*
Y62961D02*
Y63351D01*
X3311Y62961D02*
X4071D01*
X3311D02*
Y63351D01*
X33564Y80515D02*
X34324D01*
Y80125D02*
Y80515D01*
X33564Y80125D02*
X34324D01*
X33564D02*
Y80515D01*
X35714Y82155D02*
Y82932D01*
X37271Y82155D02*
Y82932D01*
X35714D02*
X37271D01*
X35714Y82155D02*
X37271D01*
X32833Y83036D02*
X33610D01*
X32833Y81479D02*
X33610D01*
Y83036D01*
X32833Y81479D02*
Y83036D01*
X39741Y81791D02*
Y82551D01*
X40131D01*
Y81791D02*
Y82551D01*
X39741Y81791D02*
X40131D01*
X37130Y81093D02*
Y82097D01*
X36579Y81093D02*
X37130D01*
X36579D02*
Y82097D01*
X37130D01*
X28028Y71737D02*
X28787D01*
Y71347D02*
Y71737D01*
X28028Y71347D02*
X28787D01*
X28028D02*
Y71737D01*
Y71307D02*
X28787D01*
Y70917D02*
Y71307D01*
X28028Y70917D02*
X28787D01*
X28028D02*
Y71307D01*
X27309Y72615D02*
X28069D01*
X27309D02*
Y73005D01*
X28069D01*
Y72615D02*
Y73005D01*
X24201Y59231D02*
Y59621D01*
Y59231D02*
X24961D01*
Y59621D01*
X24201D02*
X24961D01*
X26031Y63881D02*
X26421D01*
Y64641D01*
X26031D02*
X26421D01*
X26031Y63881D02*
Y64641D01*
X23001Y69181D02*
Y69571D01*
X22241D02*
X23001D01*
X22241Y69181D02*
Y69571D01*
Y69181D02*
X23001D01*
X35541Y64251D02*
X36301D01*
Y63861D02*
Y64251D01*
X35541Y63861D02*
X36301D01*
X35541D02*
Y64251D01*
X31601Y64261D02*
X32361D01*
Y63871D02*
Y64261D01*
X31601Y63871D02*
X32361D01*
X31601D02*
Y64261D01*
X28211Y63781D02*
X28971D01*
Y63391D02*
Y63781D01*
X28211Y63391D02*
X28971D01*
X28211D02*
Y63781D01*
X16461Y62461D02*
Y62851D01*
X15701D02*
X16461D01*
X15701Y62461D02*
Y62851D01*
Y62461D02*
X16461D01*
X16791Y67021D02*
Y67411D01*
X16031D02*
X16791D01*
X16031Y67021D02*
Y67411D01*
Y67021D02*
X16791D01*
X40349Y52145D02*
X41353D01*
X40349D02*
Y52697D01*
X41353D01*
Y52145D02*
Y52697D01*
X40349Y51605D02*
X41353D01*
X40349D02*
Y52157D01*
X41353D01*
Y51605D02*
Y52157D01*
X14319Y66487D02*
X15323D01*
Y65935D02*
Y66487D01*
X14319Y65935D02*
X15323D01*
X14319D02*
Y66487D01*
X16471Y62861D02*
Y63251D01*
X15711D02*
X16471D01*
X15711Y62861D02*
Y63251D01*
Y62861D02*
X16471D01*
X16361Y66631D02*
X16751D01*
X16361Y65871D02*
Y66631D01*
Y65871D02*
X16751D01*
Y66631D01*
X23791Y59841D02*
X24181D01*
X23791Y59081D02*
Y59841D01*
Y59081D02*
X24181D01*
Y59841D01*
X26031Y63641D02*
X26421D01*
X26031Y62881D02*
Y63641D01*
Y62881D02*
X26421D01*
Y63641D01*
X37221Y64251D02*
X37981D01*
Y63861D02*
Y64251D01*
X37221Y63861D02*
X37981D01*
X37221D02*
Y64251D01*
X33251D02*
X34011D01*
Y63861D02*
Y64251D01*
X33251Y63861D02*
X34011D01*
X33251D02*
Y64251D01*
X29801Y64261D02*
X30561D01*
Y63871D02*
Y64261D01*
X29801Y63871D02*
X30561D01*
X29801D02*
Y64261D01*
X23011Y69181D02*
X23401D01*
Y69941D01*
X23011D02*
X23401D01*
X23011Y69181D02*
Y69941D01*
X15927Y64359D02*
Y65363D01*
X15375Y64359D02*
X15927D01*
X15375D02*
Y65363D01*
X15927D01*
X16361Y65091D02*
X16751D01*
Y65851D01*
X16361D02*
X16751D01*
X16361Y65091D02*
Y65851D01*
X32537Y70189D02*
Y71193D01*
X31985Y70189D02*
X32537D01*
X31985D02*
Y71193D01*
X32537D01*
X33317Y70189D02*
Y71193D01*
X32765Y70189D02*
X33317D01*
X32765D02*
Y71193D01*
X33317D01*
X16081Y59631D02*
Y60021D01*
Y59631D02*
X16841D01*
Y60021D01*
X16081D02*
X16841D01*
X15079Y60087D02*
X16083D01*
Y59535D02*
Y60087D01*
X15079Y59535D02*
X16083D01*
X15079D02*
Y60087D01*
X23457Y70630D02*
Y71181D01*
Y70630D02*
X24461D01*
Y71181D01*
X23457D02*
X24461D01*
X18151Y69151D02*
Y69541D01*
Y69151D02*
X18911D01*
Y69541D01*
X18151D02*
X18911D01*
X16221Y64101D02*
X16611D01*
X16221Y63341D02*
Y64101D01*
Y63341D02*
X16611D01*
Y64101D01*
X23824Y47255D02*
Y47807D01*
X22820D02*
X23824D01*
X22820Y47255D02*
Y47807D01*
Y47255D02*
X23824D01*
X23707Y47163D02*
X24258D01*
X23707Y46159D02*
Y47163D01*
Y46159D02*
X24258D01*
Y47163D01*
X18984Y47245D02*
Y47797D01*
X17980D02*
X18984D01*
X17980Y47245D02*
Y47797D01*
Y47245D02*
X18984D01*
X17527Y47163D02*
X18078D01*
X17527Y46159D02*
Y47163D01*
Y46159D02*
X18078D01*
Y47163D01*
X22395Y55041D02*
X22785D01*
X22395Y54281D02*
Y55041D01*
Y54281D02*
X22785D01*
Y55041D01*
X18455Y51841D02*
X18845D01*
X18455Y51081D02*
Y51841D01*
Y51081D02*
X18845D01*
Y51841D01*
X19185Y51031D02*
X19945D01*
Y50641D02*
Y51031D01*
X19185Y50641D02*
X19945D01*
X19185D02*
Y51031D01*
X24701Y50311D02*
Y50701D01*
X23941D02*
X24701D01*
X23941Y50311D02*
Y50701D01*
Y50311D02*
X24701D01*
X5732Y62074D02*
Y62851D01*
X4175Y62074D02*
Y62851D01*
Y62074D02*
X5732D01*
X4175Y62851D02*
X5732D01*
X23221Y76861D02*
Y77251D01*
X22461D02*
X23221D01*
X22461Y76861D02*
Y77251D01*
Y76861D02*
X23221D01*
X9576Y73686D02*
X9966D01*
Y74446D01*
X9576D02*
X9966D01*
X9576Y73686D02*
Y74446D01*
X36995Y47255D02*
X37999D01*
X36995D02*
Y47807D01*
X37999D01*
Y47255D02*
Y47807D01*
X29906Y47255D02*
X30910D01*
X29906D02*
Y47807D01*
X30910D01*
Y47255D02*
Y47807D01*
X15729Y47255D02*
X16733D01*
X15729D02*
Y47807D01*
X16733D01*
Y47255D02*
Y47807D01*
X8760Y47255D02*
X9764D01*
X8760D02*
Y47807D01*
X9764D01*
Y47255D02*
Y47807D01*
X38432Y46159D02*
Y47163D01*
X37881Y46159D02*
X38432D01*
X37881D02*
Y47163D01*
X38432D01*
X31047Y46009D02*
Y47013D01*
X30495Y46009D02*
X31047D01*
X30495D02*
Y47013D01*
X31047D01*
X17462Y46159D02*
Y47163D01*
X16911Y46159D02*
X17462D01*
X16911D02*
Y47163D01*
X17462D01*
X10692Y46159D02*
Y47163D01*
X10141Y46159D02*
X10692D01*
X10141D02*
Y47163D01*
X10692D01*
X32155Y47245D02*
X33159D01*
X32155D02*
Y47797D01*
X33159D01*
Y47245D02*
Y47797D01*
X25066Y47245D02*
X26070D01*
X25066D02*
Y47797D01*
X26070D01*
Y47245D02*
Y47797D01*
X10938Y47245D02*
X11942D01*
X10938D02*
Y47797D01*
X11942D01*
Y47245D02*
Y47797D01*
X3919Y47255D02*
X4923D01*
X3919D02*
Y47807D01*
X4923D01*
Y47255D02*
Y47807D01*
X32267Y46159D02*
Y47163D01*
X31715Y46159D02*
X32267D01*
X31715D02*
Y47163D01*
X32267D01*
X25164Y46159D02*
Y47163D01*
X24613Y46159D02*
X25164D01*
X24613D02*
Y47163D01*
X25164D01*
X11291Y46093D02*
Y47096D01*
X10740Y46093D02*
X11291D01*
X10740D02*
Y47096D01*
X11291D01*
X3880Y46614D02*
Y47618D01*
X3329Y46614D02*
X3880D01*
X3329D02*
Y47618D01*
X3880D01*
X36951Y54281D02*
Y55041D01*
X36561Y54281D02*
X36951D01*
X36561D02*
Y55041D01*
X36951D01*
X29871Y54281D02*
Y55041D01*
X29481Y54281D02*
X29871D01*
X29481D02*
Y55041D01*
X29871D01*
X15691Y54281D02*
Y55041D01*
X15301Y54281D02*
X15691D01*
X15301D02*
Y55041D01*
X15691D01*
X8705Y54281D02*
Y55041D01*
X8315Y54281D02*
X8705D01*
X8315D02*
Y55041D01*
X8705D01*
X33020Y51081D02*
Y51841D01*
X32630Y51081D02*
X33020D01*
X32630D02*
Y51841D01*
X33020D01*
X25931Y51081D02*
Y51841D01*
X25541Y51081D02*
X25931D01*
X25541D02*
Y51841D01*
X25931D01*
X11754Y51081D02*
Y51841D01*
X11364Y51081D02*
X11754D01*
X11364D02*
Y51841D01*
X11754D01*
X4785Y51081D02*
Y51841D01*
X4395Y51081D02*
X4785D01*
X4395D02*
Y51841D01*
X4785D01*
X32880Y58491D02*
X33640D01*
X32880D02*
Y58881D01*
X33640D01*
Y58491D02*
Y58881D01*
X22693Y55761D02*
X23453D01*
Y55371D02*
Y55761D01*
X22693Y55371D02*
X23453D01*
X22693D02*
Y55761D01*
X30078Y56913D02*
Y57673D01*
X30468D01*
Y56913D02*
Y57673D01*
X30078Y56913D02*
X30468D01*
X27821Y56598D02*
X28581D01*
Y56207D02*
Y56598D01*
X27821Y56207D02*
X28581D01*
X27821D02*
Y56598D01*
X17555Y56066D02*
X18315D01*
Y55676D02*
Y56066D01*
X17555Y55676D02*
X18315D01*
X17555D02*
Y56066D01*
X10045Y56450D02*
X10805D01*
Y56060D02*
Y56450D01*
X10045Y56060D02*
X10805D01*
X10045D02*
Y56450D01*
X25323Y79255D02*
Y79807D01*
X24319D02*
X25323D01*
X24319Y79255D02*
Y79807D01*
Y79255D02*
X25323D01*
X16503Y79255D02*
Y79807D01*
X15499D02*
X16503D01*
X15499Y79255D02*
Y79807D01*
Y79255D02*
X16503D01*
X12493Y79255D02*
Y79807D01*
X11489D02*
X12493D01*
X11489Y79255D02*
Y79807D01*
Y79255D02*
X12493D01*
X7469D02*
Y79807D01*
Y79255D02*
X8473D01*
Y79807D01*
X7469D02*
X8473D01*
X22043Y78165D02*
Y78717D01*
X21039D02*
X22043D01*
X21039Y78165D02*
Y78717D01*
Y78165D02*
X22043D01*
X6043Y75455D02*
Y76007D01*
X5039D02*
X6043D01*
X5039Y75455D02*
Y76007D01*
Y75455D02*
X6043D01*
X25341Y59031D02*
X26101D01*
X25341D02*
Y59421D01*
X26101D01*
Y59031D02*
Y59421D01*
X25331Y59831D02*
X26091D01*
Y59441D02*
Y59831D01*
X25331Y59441D02*
X26091D01*
X25331D02*
Y59831D01*
X25351Y58341D02*
X26111D01*
X25351D02*
Y58731D01*
X26111D01*
Y58341D02*
Y58731D01*
X5571Y72811D02*
X6331D01*
Y72421D02*
Y72811D01*
X5571Y72421D02*
X6331D01*
X5571D02*
Y72811D01*
X3011Y52921D02*
X3771D01*
X3011D02*
Y53311D01*
X3771D01*
Y52921D02*
Y53311D01*
X4701Y79711D02*
Y80471D01*
X5091D01*
Y79711D02*
Y80471D01*
X4701Y79711D02*
X5091D01*
X6111Y43681D02*
Y44441D01*
X5721Y43681D02*
X6111D01*
X5721D02*
Y44441D01*
X6111D01*
X41817Y80267D02*
X42577D01*
Y79877D02*
Y80267D01*
X41817Y79877D02*
X42577D01*
X41817D02*
Y80267D01*
X40921Y46541D02*
X41681D01*
Y46151D02*
Y46541D01*
X40921Y46151D02*
X41681D01*
X40921D02*
Y46541D01*
X41986Y78728D02*
X42746D01*
Y78337D02*
Y78728D01*
X41986Y78337D02*
X42746D01*
X41986D02*
Y78728D01*
X41986D02*
X42746D01*
X41986D02*
Y79118D01*
X42746D01*
Y78728D02*
Y79118D01*
X36391Y63391D02*
Y63781D01*
Y63391D02*
X37151D01*
Y63781D01*
X36391D02*
X37151D01*
X32431Y63391D02*
Y63781D01*
Y63391D02*
X33191D01*
Y63781D01*
X32431D02*
X33191D01*
X29001Y63390D02*
Y63780D01*
Y63390D02*
X29761D01*
Y63780D01*
X29001D02*
X29761D01*
X38051Y63391D02*
Y63781D01*
Y63391D02*
X38811D01*
Y63781D01*
X38051D02*
X38811D01*
X34081Y63391D02*
Y63781D01*
Y63391D02*
X34841D01*
Y63781D01*
X34081D02*
X34841D01*
X30621Y63391D02*
Y63781D01*
Y63391D02*
X31381D01*
Y63781D01*
X30621D02*
X31381D01*
X15927Y63359D02*
Y64363D01*
X15375Y63359D02*
X15927D01*
X15375D02*
Y64363D01*
X15927D01*
X21903Y51037D02*
X22907D01*
Y50485D02*
Y51037D01*
X21903Y50485D02*
X22907D01*
X21903D02*
Y51037D01*
X18169Y50315D02*
X19173D01*
X18169D02*
Y50867D01*
X19173D01*
Y50315D02*
Y50867D01*
X36078Y51027D02*
X37082D01*
Y50475D02*
Y51027D01*
X36078Y50475D02*
X37082D01*
X36078D02*
Y51027D01*
X28989D02*
X29993D01*
Y50475D02*
Y51027D01*
X28989Y50475D02*
X29993D01*
X28989D02*
Y51027D01*
X14812D02*
X15816D01*
Y50475D02*
Y51027D01*
X14812Y50475D02*
X15816D01*
X14812D02*
Y51027D01*
X7843D02*
X8847D01*
Y50475D02*
Y51027D01*
X7843Y50475D02*
X8847D01*
X7843D02*
Y51027D01*
X32345Y50325D02*
X33349D01*
X32345D02*
Y50877D01*
X33349D01*
Y50325D02*
Y50877D01*
X25256Y50325D02*
X26260D01*
X25256D02*
Y50877D01*
X26260D01*
Y50325D02*
Y50877D01*
X11079Y50325D02*
X12083D01*
X11079D02*
Y50877D01*
X12083D01*
Y50325D02*
Y50877D01*
X4110Y50325D02*
X5114D01*
X4110D02*
Y50877D01*
X5114D01*
Y50325D02*
Y50877D01*
X28390Y71807D02*
X29167D01*
X28390Y73364D02*
X29167D01*
X28390Y71807D02*
Y73364D01*
X29167Y71807D02*
Y73364D01*
X28399Y77075D02*
X29403D01*
X28399D02*
Y77627D01*
X29403D01*
Y77075D02*
Y77627D01*
X28399Y77625D02*
X29403D01*
X28399D02*
Y78177D01*
X29403D01*
Y77625D02*
Y78177D01*
X14841Y70651D02*
X15231D01*
Y71411D01*
X14841D02*
X15231D01*
X14841Y70651D02*
Y71411D01*
X4172Y62081D02*
Y62471D01*
X3412D02*
X4172D01*
X3412Y62081D02*
Y62471D01*
Y62081D02*
X4172D01*
X13362Y63058D02*
Y63448D01*
Y63058D02*
X14122D01*
Y63448D01*
X13362D02*
X14122D01*
X8881Y51861D02*
X9271D01*
X8881Y51101D02*
Y51861D01*
Y51101D02*
X9271D01*
Y51861D01*
X15841D02*
X16231D01*
X15841Y51101D02*
Y51861D01*
Y51101D02*
X16231D01*
Y51861D01*
X31771Y50311D02*
Y50701D01*
X31011D02*
X31771D01*
X31011Y50311D02*
Y50701D01*
Y50311D02*
X31771D01*
X38881D02*
Y50701D01*
X38121D02*
X38881D01*
X38121Y50311D02*
Y50701D01*
Y50311D02*
X38881D01*
X9281Y51861D02*
X9671D01*
X9281Y51101D02*
Y51861D01*
Y51101D02*
X9671D01*
Y51861D01*
X16241D02*
X16631D01*
X16241Y51101D02*
Y51861D01*
Y51101D02*
X16631D01*
Y51861D01*
X30431D02*
X30821D01*
X30431Y51101D02*
Y51861D01*
Y51101D02*
X30821D01*
Y51861D01*
X37511D02*
X37901D01*
X37511Y51101D02*
Y51861D01*
Y51101D02*
X37901D01*
Y51861D01*
X24701Y50691D02*
Y51081D01*
X23941D02*
X24701D01*
X23941Y50691D02*
Y51081D01*
Y50691D02*
X24701D01*
X22941Y51851D02*
X23331D01*
X22941Y51091D02*
Y51851D01*
Y51091D02*
X23331D01*
Y51851D01*
X10386Y75518D02*
Y75909D01*
Y75518D02*
X11146D01*
Y75909D01*
X10386D02*
X11146D01*
X14402Y75528D02*
Y75918D01*
Y75528D02*
X15161D01*
Y75918D01*
X14402D02*
X15161D01*
X18413Y75501D02*
Y75891D01*
Y75501D02*
X19173D01*
Y75891D01*
X18413D02*
X19173D01*
X26337Y73508D02*
X26728D01*
Y74268D01*
X26337D02*
X26728D01*
X26337Y73508D02*
Y74268D01*
X22511Y78071D02*
X22901D01*
X22511Y77311D02*
Y78071D01*
Y77311D02*
X22901D01*
Y78071D01*
X9326Y77152D02*
X9716D01*
X9326Y76392D02*
Y77152D01*
Y76392D02*
X9716D01*
Y77152D01*
X13361D02*
X13751D01*
X13361Y76392D02*
Y77152D01*
Y76392D02*
X13751D01*
Y77152D01*
X17361Y77151D02*
X17751D01*
X17361Y76391D02*
Y77151D01*
Y76391D02*
X17751D01*
Y77151D01*
X26720Y74807D02*
Y75197D01*
X25961D02*
X26720D01*
X25961Y74807D02*
Y75197D01*
Y74807D02*
X26720D01*
X26810Y73037D02*
X27200D01*
X26810Y72277D02*
Y73037D01*
Y72277D02*
X27200D01*
Y73037D01*
X17871Y59161D02*
X18261D01*
Y59921D01*
X17871D02*
X18261D01*
X17871Y59161D02*
Y59921D01*
X30501Y56911D02*
Y57671D01*
X30891D01*
Y56911D02*
Y57671D01*
X30501Y56911D02*
X30891D01*
X21111Y70051D02*
Y70811D01*
X21501D01*
Y70051D02*
Y70811D01*
X21111Y70051D02*
X21501D01*
X22611Y72071D02*
Y72831D01*
X23001D01*
Y72071D02*
Y72831D01*
X22611Y72071D02*
X23001D01*
X20891Y70051D02*
Y70811D01*
X20501Y70051D02*
X20891D01*
X20501D02*
Y70811D01*
X20891D01*
X20911Y69231D02*
Y69621D01*
X20151D02*
X20911D01*
X20151Y69231D02*
Y69621D01*
Y69231D02*
X20911D01*
X11451Y65911D02*
Y66301D01*
Y65911D02*
X12211D01*
Y66301D01*
X11451D02*
X12211D01*
X7131Y70771D02*
X7521D01*
X7131Y70011D02*
Y70771D01*
Y70011D02*
X7521D01*
Y70771D01*
X8031Y71041D02*
Y71431D01*
X7271D02*
X8031D01*
X7271Y71041D02*
Y71431D01*
Y71041D02*
X8031D01*
X7555Y71013D02*
X8107D01*
X7555Y70009D02*
Y71013D01*
Y70009D02*
X8107D01*
Y71013D01*
X5513Y69295D02*
Y69847D01*
X4509D02*
X5513D01*
X4509Y69295D02*
Y69847D01*
Y69295D02*
X5513D01*
X12599Y72195D02*
Y72747D01*
Y72195D02*
X13603D01*
Y72747D01*
X12599D02*
X13603D01*
X12599Y67135D02*
Y67687D01*
Y67135D02*
X13603D01*
Y67687D01*
X12599D02*
X13603D01*
X25272Y71726D02*
X26032D01*
Y71335D02*
Y71726D01*
X25272Y71335D02*
X26032D01*
X25272D02*
Y71726D01*
D295*
X22361Y6843D02*
Y9599D01*
X20944Y6843D02*
Y9599D01*
X22361D01*
X20944Y6843D02*
X22361D01*
X20841D02*
Y9599D01*
X19424Y6843D02*
Y9599D01*
X20841D01*
X19424Y6843D02*
X20841D01*
X22440Y36341D02*
Y37641D01*
X21042Y36341D02*
Y37641D01*
Y36341D02*
X22440D01*
X21042Y37641D02*
X22440D01*
X30924Y15788D02*
Y17914D01*
X33818Y15788D02*
Y17914D01*
X30924D02*
X33818D01*
X30924Y15788D02*
X33818D01*
X9559Y27306D02*
Y31636D01*
X14263Y27306D02*
Y31636D01*
X9559D02*
X14263D01*
X9559Y27306D02*
X14263D01*
X33762Y40097D02*
X35986D01*
X33762Y41514D02*
X35986D01*
Y40097D02*
Y41514D01*
X33762Y40097D02*
Y41514D01*
X16805Y28638D02*
X26017D01*
X16805Y19426D02*
X26017D01*
Y28638D01*
X16805Y19426D02*
Y28638D01*
X34396Y38227D02*
Y39644D01*
X37152Y38227D02*
Y39644D01*
X34396D02*
X37152D01*
X34396Y38227D02*
X37152D01*
X35015Y6843D02*
Y9599D01*
X33598Y6843D02*
Y9599D01*
X35015D01*
X33598Y6843D02*
X35015D01*
X27927D02*
Y9599D01*
X26510Y6843D02*
Y9599D01*
X27927D01*
X26510Y6843D02*
X27927D01*
X13750D02*
Y9599D01*
X12332Y6843D02*
Y9599D01*
X13750D01*
X12332Y6843D02*
X13750D01*
X6781D02*
Y9599D01*
X5364Y6843D02*
Y9599D01*
X6781D01*
X5364Y6843D02*
X6781D01*
X36535D02*
Y9599D01*
X35118Y6843D02*
Y9599D01*
X36535D01*
X35118Y6843D02*
X36535D01*
X29447D02*
Y9599D01*
X28030Y6843D02*
Y9599D01*
X29447D01*
X28030Y6843D02*
X29447D01*
X15270D02*
Y9599D01*
X13852Y6843D02*
Y9599D01*
X15270D01*
X13852Y6843D02*
X15270D01*
X8301D02*
Y9599D01*
X6884Y6843D02*
Y9599D01*
X8301D01*
X6884Y6843D02*
X8301D01*
X39686Y39955D02*
Y42396D01*
X37363Y39955D02*
Y42396D01*
X39686D01*
X37363Y39955D02*
X39686D01*
X20954Y31871D02*
X21348D01*
X21151Y31674D02*
Y32068D01*
X19716Y30321D02*
Y33421D01*
Y30321D02*
X22586D01*
Y33421D01*
X19716D02*
X22586D01*
X33707Y41592D02*
X35282D01*
X33707Y42379D02*
X35282D01*
Y41592D02*
Y42379D01*
X33707Y41592D02*
Y42379D01*
X40024Y12975D02*
X41598D01*
X40024Y12187D02*
X41598D01*
X40024D02*
Y12975D01*
X41598Y12187D02*
Y12975D01*
X33654Y30635D02*
X35228D01*
X33654Y29847D02*
X35228D01*
X33654D02*
Y30635D01*
X35228Y29847D02*
Y30635D01*
X37097Y10596D02*
Y13706D01*
X33042Y10596D02*
Y13706D01*
X37097D01*
X33042Y10596D02*
X37097D01*
X25954D02*
X30009D01*
X25954Y13706D02*
X30009D01*
X25954Y10596D02*
Y13706D01*
X30009Y10596D02*
Y13706D01*
X22923Y10596D02*
Y13706D01*
X18868Y10596D02*
Y13706D01*
X22923D01*
X18868Y10596D02*
X22923D01*
X11776D02*
X15832D01*
X11776Y13706D02*
X15832D01*
X11776Y10596D02*
Y13706D01*
X15832Y10596D02*
Y13706D01*
X8863Y10596D02*
Y13706D01*
X4808Y10596D02*
Y13706D01*
X8863D01*
X4808Y10596D02*
X8863D01*
X36391Y23374D02*
X37100D01*
X36391Y23768D02*
X37100D01*
Y23374D02*
Y23768D01*
X36391Y23374D02*
Y23768D01*
X32431Y23374D02*
Y23768D01*
X33140Y23374D02*
Y23768D01*
X32431D02*
X33140D01*
X32431Y23374D02*
X33140D01*
X29001D02*
X29710D01*
X29001Y23768D02*
X29710D01*
Y23374D02*
Y23768D01*
X29001Y23374D02*
Y23768D01*
X38051Y23374D02*
Y23768D01*
X38760Y23374D02*
Y23768D01*
X38051D02*
X38760D01*
X38051Y23374D02*
X38760D01*
X34081D02*
X34790D01*
X34081Y23768D02*
X34790D01*
Y23374D02*
Y23768D01*
X34081Y23374D02*
Y23768D01*
X30621Y23374D02*
Y23768D01*
X31330Y23374D02*
Y23768D01*
X30621D02*
X31330D01*
X30621Y23374D02*
X31330D01*
X30198Y35787D02*
Y36575D01*
X28624Y35787D02*
Y36575D01*
Y35787D02*
X30198D01*
X28624Y36575D02*
X30198D01*
X9533Y33490D02*
Y34789D01*
X8135Y33490D02*
Y34789D01*
Y33490D02*
X9533D01*
X8135Y34789D02*
X9533D01*
X11150Y35445D02*
Y36744D01*
X9752Y35445D02*
Y36744D01*
Y35445D02*
X11150D01*
X9752Y36744D02*
X11150D01*
X15165Y35445D02*
Y36744D01*
X13768Y35445D02*
Y36744D01*
Y35445D02*
X15165D01*
X13768Y36744D02*
X15165D01*
X19172Y35451D02*
Y36751D01*
X17774Y35451D02*
Y36751D01*
Y35451D02*
X19172D01*
X17774Y36751D02*
X19172D01*
X26764Y33004D02*
X28063D01*
X26764Y34402D02*
X28063D01*
X26764Y33004D02*
Y34402D01*
X28063Y33004D02*
Y34402D01*
X6845Y28254D02*
Y28924D01*
Y28254D02*
X7337D01*
Y28924D01*
X6845D02*
X7337D01*
X6154Y22453D02*
X6547D01*
X6154Y21744D02*
X6547D01*
Y22453D01*
X6154Y21744D02*
Y22453D01*
X6557D02*
X6951D01*
X6557Y21744D02*
X6951D01*
Y22453D01*
X6557Y21744D02*
Y22453D01*
X8112Y23378D02*
X8506D01*
X8112Y22669D02*
X8506D01*
Y23378D01*
X8112Y22669D02*
Y23378D01*
X9028Y23388D02*
X9421D01*
X9028Y22679D02*
X9421D01*
Y23388D01*
X9028Y22679D02*
Y23388D01*
X7374Y22453D02*
X7768D01*
X7374Y21744D02*
X7768D01*
Y22453D01*
X7374Y21744D02*
Y22453D01*
X8152D02*
X8545D01*
X8152Y21744D02*
X8545D01*
Y22453D01*
X8152Y21744D02*
Y22453D01*
X26045Y29530D02*
X27719D01*
X26045Y31203D02*
X27719D01*
X26045Y29530D02*
Y31203D01*
X27719Y29530D02*
Y31203D01*
X22361Y47343D02*
Y50099D01*
X20944Y47343D02*
Y50099D01*
X22361D01*
X20944Y47343D02*
X22361D01*
X20841D02*
Y50099D01*
X19424Y47343D02*
Y50099D01*
X20841D01*
X19424Y47343D02*
X20841D01*
X22440Y76841D02*
Y78141D01*
X21042Y76841D02*
Y78141D01*
Y76841D02*
X22440D01*
X21042Y78141D02*
X22440D01*
X30924Y56288D02*
Y58414D01*
X33818Y56288D02*
Y58414D01*
X30924D02*
X33818D01*
X30924Y56288D02*
X33818D01*
X9559Y67806D02*
Y72136D01*
X14263Y67806D02*
Y72136D01*
X9559D02*
X14263D01*
X9559Y67806D02*
X14263D01*
X33762Y80597D02*
X35986D01*
X33762Y82014D02*
X35986D01*
Y80597D02*
Y82014D01*
X33762Y80597D02*
Y82014D01*
X16805Y69138D02*
X26017D01*
X16805Y59926D02*
X26017D01*
Y69138D01*
X16805Y59926D02*
Y69138D01*
X34396Y78727D02*
Y80144D01*
X37152Y78727D02*
Y80144D01*
X34396D02*
X37152D01*
X34396Y78727D02*
X37152D01*
X35015Y47343D02*
Y50099D01*
X33598Y47343D02*
Y50099D01*
X35015D01*
X33598Y47343D02*
X35015D01*
X27927D02*
Y50099D01*
X26510Y47343D02*
Y50099D01*
X27927D01*
X26510Y47343D02*
X27927D01*
X13750D02*
Y50099D01*
X12332Y47343D02*
Y50099D01*
X13750D01*
X12332Y47343D02*
X13750D01*
X6781D02*
Y50099D01*
X5364Y47343D02*
Y50099D01*
X6781D01*
X5364Y47343D02*
X6781D01*
X36535D02*
Y50099D01*
X35118Y47343D02*
Y50099D01*
X36535D01*
X35118Y47343D02*
X36535D01*
X29447D02*
Y50099D01*
X28030Y47343D02*
Y50099D01*
X29447D01*
X28030Y47343D02*
X29447D01*
X15270D02*
Y50099D01*
X13852Y47343D02*
Y50099D01*
X15270D01*
X13852Y47343D02*
X15270D01*
X8301D02*
Y50099D01*
X6884Y47343D02*
Y50099D01*
X8301D01*
X6884Y47343D02*
X8301D01*
X39686Y80455D02*
Y82896D01*
X37363Y80455D02*
Y82896D01*
X39686D01*
X37363Y80455D02*
X39686D01*
X20954Y72371D02*
X21348D01*
X21151Y72174D02*
Y72568D01*
X19716Y70821D02*
Y73921D01*
Y70821D02*
X22586D01*
Y73921D01*
X19716D02*
X22586D01*
X33707Y82092D02*
X35282D01*
X33707Y82879D02*
X35282D01*
Y82092D02*
Y82879D01*
X33707Y82092D02*
Y82879D01*
X40024Y53475D02*
X41598D01*
X40024Y52687D02*
X41598D01*
X40024D02*
Y53475D01*
X41598Y52687D02*
Y53475D01*
X33654Y71135D02*
X35228D01*
X33654Y70347D02*
X35228D01*
X33654D02*
Y71135D01*
X35228Y70347D02*
Y71135D01*
X37097Y51096D02*
Y54206D01*
X33042Y51096D02*
Y54206D01*
X37097D01*
X33042Y51096D02*
X37097D01*
X25954D02*
X30009D01*
X25954Y54206D02*
X30009D01*
X25954Y51096D02*
Y54206D01*
X30009Y51096D02*
Y54206D01*
X22923Y51096D02*
Y54206D01*
X18868Y51096D02*
Y54206D01*
X22923D01*
X18868Y51096D02*
X22923D01*
X11776D02*
X15832D01*
X11776Y54206D02*
X15832D01*
X11776Y51096D02*
Y54206D01*
X15832Y51096D02*
Y54206D01*
X8863Y51096D02*
Y54206D01*
X4808Y51096D02*
Y54206D01*
X8863D01*
X4808Y51096D02*
X8863D01*
X36391Y63874D02*
X37100D01*
X36391Y64268D02*
X37100D01*
Y63874D02*
Y64268D01*
X36391Y63874D02*
Y64268D01*
X32431Y63874D02*
Y64268D01*
X33140Y63874D02*
Y64268D01*
X32431D02*
X33140D01*
X32431Y63874D02*
X33140D01*
X29001D02*
X29710D01*
X29001Y64268D02*
X29710D01*
Y63874D02*
Y64268D01*
X29001Y63874D02*
Y64268D01*
X38051Y63874D02*
Y64268D01*
X38760Y63874D02*
Y64268D01*
X38051D02*
X38760D01*
X38051Y63874D02*
X38760D01*
X34081D02*
X34790D01*
X34081Y64268D02*
X34790D01*
Y63874D02*
Y64268D01*
X34081Y63874D02*
Y64268D01*
X30621Y63874D02*
Y64268D01*
X31330Y63874D02*
Y64268D01*
X30621D02*
X31330D01*
X30621Y63874D02*
X31330D01*
X30198Y76287D02*
Y77075D01*
X28624Y76287D02*
Y77075D01*
Y76287D02*
X30198D01*
X28624Y77075D02*
X30198D01*
X9533Y73990D02*
Y75289D01*
X8135Y73990D02*
Y75289D01*
Y73990D02*
X9533D01*
X8135Y75289D02*
X9533D01*
X11150Y75945D02*
Y77244D01*
X9752Y75945D02*
Y77244D01*
Y75945D02*
X11150D01*
X9752Y77244D02*
X11150D01*
X15165Y75945D02*
Y77244D01*
X13768Y75945D02*
Y77244D01*
Y75945D02*
X15165D01*
X13768Y77244D02*
X15165D01*
X19172Y75951D02*
Y77251D01*
X17774Y75951D02*
Y77251D01*
Y75951D02*
X19172D01*
X17774Y77251D02*
X19172D01*
X26764Y73504D02*
X28063D01*
X26764Y74902D02*
X28063D01*
X26764Y73504D02*
Y74902D01*
X28063Y73504D02*
Y74902D01*
X6845Y68754D02*
Y69424D01*
Y68754D02*
X7337D01*
Y69424D01*
X6845D02*
X7337D01*
X6154Y62953D02*
X6547D01*
X6154Y62244D02*
X6547D01*
Y62953D01*
X6154Y62244D02*
Y62953D01*
X6557D02*
X6951D01*
X6557Y62244D02*
X6951D01*
Y62953D01*
X6557Y62244D02*
Y62953D01*
X8112Y63878D02*
X8506D01*
X8112Y63169D02*
X8506D01*
Y63878D01*
X8112Y63169D02*
Y63878D01*
X9028Y63888D02*
X9421D01*
X9028Y63179D02*
X9421D01*
Y63888D01*
X9028Y63179D02*
Y63888D01*
X7374Y62953D02*
X7768D01*
X7374Y62244D02*
X7768D01*
Y62953D01*
X7374Y62244D02*
Y62953D01*
X8152D02*
X8545D01*
X8152Y62244D02*
X8545D01*
Y62953D01*
X8152Y62244D02*
Y62953D01*
X26045Y70030D02*
X27719D01*
X26045Y71703D02*
X27719D01*
X26045Y70030D02*
Y71703D01*
X27719Y70030D02*
Y71703D01*
M02*
