G04 Layer_Physical_Order=3*
G04 Layer_Color=128*
%FSLAX24Y24*%
%MOIN*%
G70*
G01*
G75*
%ADD12C,0.0100*%
%ADD72C,0.0240*%
%ADD74C,0.0080*%
%ADD76C,0.0400*%
%ADD98C,0.0290*%
%ADD100C,0.0340*%
%ADD101C,0.0380*%
%ADD104C,0.1581*%
%ADD105C,0.0494*%
G04:AMPARAMS|DCode=106|XSize=79.433mil|YSize=79.433mil|CornerRadius=0mil|HoleSize=0mil|Usage=FLASHONLY|Rotation=0.000|XOffset=0mil|YOffset=0mil|HoleType=Round|Shape=Relief|Width=14mil|Gap=10mil|Entries=4|*
%AMTHD106*
7,0,0,0.0794,0.0594,0.0140,45*
%
%ADD106THD106*%
G04:AMPARAMS|DCode=107|XSize=84mil|YSize=84mil|CornerRadius=0mil|HoleSize=0mil|Usage=FLASHONLY|Rotation=0.000|XOffset=0mil|YOffset=0mil|HoleType=Round|Shape=Relief|Width=14mil|Gap=10mil|Entries=4|*
%AMTHD107*
7,0,0,0.0840,0.0640,0.0140,45*
%
%ADD107THD107*%
%ADD108C,0.0540*%
%ADD109C,0.0730*%
%ADD110C,0.0520*%
%ADD113C,0.1010*%
%ADD114C,0.0770*%
%ADD115C,0.1321*%
%ADD117C,0.1439*%
%ADD118C,0.0690*%
G04:AMPARAMS|DCode=119|XSize=99mil|YSize=99mil|CornerRadius=0mil|HoleSize=0mil|Usage=FLASHONLY|Rotation=0.000|XOffset=0mil|YOffset=0mil|HoleType=Round|Shape=Relief|Width=14mil|Gap=10mil|Entries=4|*
%AMTHD119*
7,0,0,0.0990,0.0790,0.0140,45*
%
%ADD119THD119*%
%ADD120C,0.0360*%
%ADD121C,0.0240*%
%ADD122C,0.0280*%
G04:AMPARAMS|DCode=123|XSize=107mil|YSize=107mil|CornerRadius=0mil|HoleSize=0mil|Usage=FLASHONLY|Rotation=0.000|XOffset=0mil|YOffset=0mil|HoleType=Round|Shape=Relief|Width=14mil|Gap=10mil|Entries=4|*
%AMTHD123*
7,0,0,0.1070,0.0870,0.0140,45*
%
%ADD123THD123*%
%ADD124C,0.0440*%
D12*
X9761Y41081D02*
G03*
X9761Y41081I-400J0D01*
G01*
X13751Y41091D02*
G03*
X13751Y41091I-400J0D01*
G01*
X17761Y41081D02*
G03*
X17761Y41081I-400J0D01*
G01*
X21761D02*
G03*
X21761Y41081I-400J0D01*
G01*
X25761D02*
G03*
X25761Y41081I-400J0D01*
G01*
X42804Y17549D02*
G03*
X42804Y17549I-400J0D01*
G01*
X41464D02*
G03*
X41464Y17549I-400J0D01*
G01*
X42804Y22849D02*
G03*
X42804Y22849I-400J0D01*
G01*
X41464D02*
G03*
X41464Y22849I-400J0D01*
G01*
X9761Y41081D02*
G03*
X9761Y41081I-400J0D01*
G01*
X13761D02*
G03*
X13761Y41081I-400J0D01*
G01*
X17761D02*
G03*
X17761Y41081I-400J0D01*
G01*
X34071Y38331D02*
G03*
X34071Y38331I-200J0D01*
G01*
X38181Y41311D02*
G03*
X38181Y41311I-200J0D01*
G01*
X21761Y41081D02*
G03*
X21761Y41081I-400J0D01*
G01*
X40663Y26381D02*
G03*
X40663Y26381I-400J0D01*
G01*
X22701Y39441D02*
X26933D01*
X22701Y35381D02*
Y39441D01*
X23831Y35381D02*
X25831D01*
X19771Y35191D02*
X22461D01*
X19141Y35821D02*
X19771Y35191D01*
X5561Y35821D02*
X19141D01*
X26943Y39451D02*
X28281Y38113D01*
Y32991D02*
Y38113D01*
X37371Y12911D02*
X40361Y15901D01*
X28281Y32991D02*
X30561Y30711D01*
X39561Y25561D02*
X40161Y24961D01*
X40361Y18199D02*
Y23311D01*
Y15901D02*
Y18199D01*
X2661Y37011D02*
X5561D01*
X2661D02*
Y39361D01*
X43511Y15461D02*
Y29711D01*
X2573Y12911D02*
X37371D01*
X2561Y2561D02*
X2573Y12911D01*
X5561Y35821D02*
Y36961D01*
X35511Y38111D02*
X43561D01*
Y38861D01*
X32441Y38111D02*
X35839D01*
X40161Y23511D02*
Y24961D01*
X40361Y21111D02*
X42741D01*
X6011Y2661D02*
X6111Y2561D01*
X40161Y23511D02*
X40361Y23311D01*
X32441Y38111D02*
Y43041D01*
X2541Y29611D02*
X5751D01*
X6841Y30701D01*
X8421Y32281D01*
X12971D01*
X13101Y32151D01*
Y26721D02*
Y32151D01*
X12951Y26571D02*
X13101Y26721D01*
X10841Y26571D02*
X12951D01*
X8081Y23811D02*
X10841Y26571D01*
X7231Y22961D02*
X8081Y23811D01*
X2561Y22961D02*
X7231D01*
X15276Y37792D02*
X17276D01*
Y36192D02*
Y37792D01*
X15276Y36192D02*
X17276D01*
X15276D02*
Y37792D01*
X11261Y37781D02*
X13261D01*
Y36181D02*
Y37781D01*
X11261Y36181D02*
X13261D01*
X11261D02*
Y37781D01*
X7276D02*
X9276D01*
Y36181D02*
Y37781D01*
X7276Y36181D02*
X9276D01*
X7276D02*
Y37781D01*
X23826Y36981D02*
X25826D01*
Y35381D02*
Y36981D01*
X23826Y35381D02*
X25826D01*
X23826D02*
Y36981D01*
X22651Y35381D02*
X23831D01*
X25831D02*
X26111Y35101D01*
X28230D01*
X22461Y35191D02*
X22651Y35381D01*
X39391Y25731D02*
X39561Y25561D01*
X42211Y27781D02*
X42741Y27251D01*
Y21131D02*
Y27251D01*
X43561Y29161D02*
Y29381D01*
X42741Y20591D02*
Y21131D01*
Y20591D02*
X43561Y19771D01*
X36071Y34061D02*
X36421Y34411D01*
Y37341D01*
X35751Y38011D02*
X36421Y37341D01*
X32431Y38011D02*
X35751D01*
X32171Y38271D02*
X32431Y38011D01*
X32171Y38271D02*
Y40611D01*
X31691Y41091D02*
X32171Y40611D01*
X31511Y41271D02*
X31691Y41091D01*
X29331Y41271D02*
X31511D01*
X27551Y43051D02*
X29331Y41271D01*
X30561Y30711D02*
X32013D01*
X33593Y32291D01*
X34301D01*
X36071Y34061D01*
X33593Y32291D02*
X34301D01*
X35691Y33681D02*
X36231Y33141D01*
Y30681D02*
Y33141D01*
Y30681D02*
X36791Y30121D01*
X38791D01*
X39151Y30481D01*
Y32891D01*
X39551Y33291D01*
X41261D01*
X41711Y33741D01*
Y35011D01*
X41321Y35401D02*
X41711Y35011D01*
X38381Y35401D02*
X41321D01*
X37111Y34131D02*
X38381Y35401D01*
X36661Y34131D02*
X37111D01*
X36401Y34391D02*
X36661Y34131D01*
X32893Y29229D02*
Y31581D01*
Y29229D02*
X33431Y28691D01*
X33861D01*
X39301D01*
X39571Y28961D01*
X41151D01*
X41851Y29661D01*
Y31121D01*
X41561Y31411D02*
X41851Y31121D01*
X39501Y31411D02*
X41561D01*
X39171D02*
X39501D01*
X39391Y25731D02*
Y26521D01*
X40651Y27781D01*
X42211D01*
X9761Y81581D02*
G03*
X9761Y81581I-400J0D01*
G01*
X13751Y81591D02*
G03*
X13751Y81591I-400J0D01*
G01*
X17761Y81581D02*
G03*
X17761Y81581I-400J0D01*
G01*
X21761D02*
G03*
X21761Y81581I-400J0D01*
G01*
X25761D02*
G03*
X25761Y81581I-400J0D01*
G01*
X42804Y58049D02*
G03*
X42804Y58049I-400J0D01*
G01*
X41464D02*
G03*
X41464Y58049I-400J0D01*
G01*
X42804Y63349D02*
G03*
X42804Y63349I-400J0D01*
G01*
X41464D02*
G03*
X41464Y63349I-400J0D01*
G01*
X9761Y81581D02*
G03*
X9761Y81581I-400J0D01*
G01*
X13761D02*
G03*
X13761Y81581I-400J0D01*
G01*
X17761D02*
G03*
X17761Y81581I-400J0D01*
G01*
X34071Y78831D02*
G03*
X34071Y78831I-200J0D01*
G01*
X38181Y81811D02*
G03*
X38181Y81811I-200J0D01*
G01*
X21761Y81581D02*
G03*
X21761Y81581I-400J0D01*
G01*
X40663Y66881D02*
G03*
X40663Y66881I-400J0D01*
G01*
X22701Y79941D02*
X26933D01*
X22701Y75881D02*
Y79941D01*
X23831Y75881D02*
X25831D01*
X19771Y75691D02*
X22461D01*
X19141Y76321D02*
X19771Y75691D01*
X5561Y76321D02*
X19141D01*
X26943Y79951D02*
X28281Y78613D01*
Y73491D02*
Y78613D01*
X37371Y53411D02*
X40361Y56401D01*
X28281Y73491D02*
X30561Y71211D01*
X39561Y66061D02*
X40161Y65461D01*
X40361Y58699D02*
Y63811D01*
Y56401D02*
Y58699D01*
X2661Y77511D02*
X5561D01*
X2661D02*
Y79861D01*
X43511Y55961D02*
Y70211D01*
X2573Y53411D02*
X37371D01*
X2561Y43061D02*
X2573Y53411D01*
X5561Y76321D02*
Y77461D01*
X35511Y78611D02*
X43561D01*
Y79361D01*
X32441Y78611D02*
X35839D01*
X40161Y64011D02*
Y65461D01*
X40361Y61611D02*
X42741D01*
X6011Y43161D02*
X6111Y43061D01*
X40161Y64011D02*
X40361Y63811D01*
X32441Y78611D02*
Y83541D01*
X2541Y70111D02*
X5751D01*
X6841Y71201D01*
X8421Y72781D01*
X12971D01*
X13101Y72651D01*
Y67221D02*
Y72651D01*
X12951Y67071D02*
X13101Y67221D01*
X10841Y67071D02*
X12951D01*
X8081Y64311D02*
X10841Y67071D01*
X7231Y63461D02*
X8081Y64311D01*
X2561Y63461D02*
X7231D01*
X15276Y78292D02*
X17276D01*
Y76692D02*
Y78292D01*
X15276Y76692D02*
X17276D01*
X15276D02*
Y78292D01*
X11261Y78281D02*
X13261D01*
Y76681D02*
Y78281D01*
X11261Y76681D02*
X13261D01*
X11261D02*
Y78281D01*
X7276D02*
X9276D01*
Y76681D02*
Y78281D01*
X7276Y76681D02*
X9276D01*
X7276D02*
Y78281D01*
X23826Y77481D02*
X25826D01*
Y75881D02*
Y77481D01*
X23826Y75881D02*
X25826D01*
X23826D02*
Y77481D01*
X22651Y75881D02*
X23831D01*
X25831D02*
X26111Y75601D01*
X28230D01*
X22461Y75691D02*
X22651Y75881D01*
X39391Y66231D02*
X39561Y66061D01*
X42211Y68281D02*
X42741Y67751D01*
Y61631D02*
Y67751D01*
X43561Y69661D02*
Y69881D01*
X42741Y61091D02*
Y61631D01*
Y61091D02*
X43561Y60271D01*
X36071Y74561D02*
X36421Y74911D01*
Y77841D01*
X35751Y78511D02*
X36421Y77841D01*
X32431Y78511D02*
X35751D01*
X32171Y78771D02*
X32431Y78511D01*
X32171Y78771D02*
Y81111D01*
X31691Y81591D02*
X32171Y81111D01*
X31511Y81771D02*
X31691Y81591D01*
X29331Y81771D02*
X31511D01*
X27551Y83551D02*
X29331Y81771D01*
X30561Y71211D02*
X32013D01*
X33593Y72791D01*
X34301D01*
X36071Y74561D01*
X33593Y72791D02*
X34301D01*
X35691Y74181D02*
X36231Y73641D01*
Y71181D02*
Y73641D01*
Y71181D02*
X36791Y70621D01*
X38791D01*
X39151Y70981D01*
Y73391D01*
X39551Y73791D01*
X41261D01*
X41711Y74241D01*
Y75511D01*
X41321Y75901D02*
X41711Y75511D01*
X38381Y75901D02*
X41321D01*
X37111Y74631D02*
X38381Y75901D01*
X36661Y74631D02*
X37111D01*
X36401Y74891D02*
X36661Y74631D01*
X32893Y69729D02*
Y72081D01*
Y69729D02*
X33431Y69191D01*
X33861D01*
X39301D01*
X39571Y69461D01*
X41151D01*
X41851Y70161D01*
Y71621D01*
X41561Y71911D02*
X41851Y71621D01*
X39501Y71911D02*
X41561D01*
X39171D02*
X39501D01*
X39391Y66231D02*
Y67021D01*
X40651Y68281D01*
X42211D01*
D72*
X13235Y13427D02*
X36733D01*
X36881Y13014D02*
X37079Y13211D01*
X13110Y13014D02*
X36881D01*
X37079Y13211D02*
X37384Y13516D01*
X36733Y13427D02*
X37000Y13694D01*
X12311Y14351D02*
X13235Y13427D01*
X12022Y14101D02*
X13110Y13014D01*
X12311Y14351D02*
Y14471D01*
X11691Y14261D02*
X11851Y14101D01*
X12022D01*
X37384Y13516D02*
Y14644D01*
X37000Y13694D02*
Y14650D01*
X37001Y14651D01*
X37384Y14644D02*
X37501Y14761D01*
Y14981D01*
X37351Y15131D02*
X37501Y14981D01*
X37081Y15131D02*
X37351D01*
X36931Y14981D02*
X37081Y15131D01*
X36931Y14721D02*
Y14981D01*
Y14721D02*
X37001Y14651D01*
X13235Y53927D02*
X36733D01*
X36881Y53514D02*
X37079Y53711D01*
X13110Y53514D02*
X36881D01*
X37079Y53711D02*
X37384Y54016D01*
X36733Y53927D02*
X37000Y54194D01*
X12311Y54851D02*
X13235Y53927D01*
X12022Y54601D02*
X13110Y53514D01*
X12311Y54851D02*
Y54971D01*
X11691Y54761D02*
X11851Y54601D01*
X12022D01*
X37384Y54016D02*
Y55144D01*
X37000Y54194D02*
Y55150D01*
X37001Y55151D01*
X37384Y55144D02*
X37501Y55261D01*
Y55481D01*
X37351Y55631D02*
X37501Y55481D01*
X37081Y55631D02*
X37351D01*
X36931Y55481D02*
X37081Y55631D01*
X36931Y55221D02*
Y55481D01*
Y55221D02*
X37001Y55151D01*
D74*
X12221Y14561D02*
X12311Y14471D01*
X11911Y14561D02*
X12221D01*
X11691Y14341D02*
X11911Y14561D01*
X11691Y14261D02*
Y14341D01*
X12221Y55061D02*
X12311Y54971D01*
X11911Y55061D02*
X12221D01*
X11691Y54841D02*
X11911Y55061D01*
X11691Y54761D02*
Y54841D01*
D76*
X22Y22D02*
Y86119D01*
X46083D01*
Y22D02*
Y86119D01*
X22Y22D02*
X46083D01*
X2561Y2561D02*
Y43061D01*
X43561D01*
Y2561D02*
Y43061D01*
X2561Y2561D02*
X43561D01*
X2561Y43061D02*
Y83561D01*
X43561D01*
Y43061D02*
Y83561D01*
X2561Y43061D02*
X43561D01*
D98*
X42061Y3061D02*
D03*
Y5061D02*
D03*
X43061Y4061D02*
D03*
X41061D02*
D03*
X41361Y4761D02*
D03*
X42761D02*
D03*
Y3361D02*
D03*
X41361D02*
D03*
X42061Y40561D02*
D03*
Y42561D02*
D03*
X43061Y41561D02*
D03*
X41061D02*
D03*
X41361Y42261D02*
D03*
X42761D02*
D03*
Y40861D02*
D03*
X41361D02*
D03*
X4061Y40561D02*
D03*
Y42561D02*
D03*
X5061Y41561D02*
D03*
X3061D02*
D03*
X3361Y42261D02*
D03*
X4761D02*
D03*
Y40861D02*
D03*
X3361D02*
D03*
X4061Y3061D02*
D03*
Y5061D02*
D03*
X5061Y4061D02*
D03*
X3061D02*
D03*
X3361Y4761D02*
D03*
X4761D02*
D03*
Y3361D02*
D03*
X3361D02*
D03*
X35861Y14641D02*
D03*
X36751D02*
D03*
X28741D02*
D03*
X21721Y14631D02*
D03*
X22981Y39241D02*
D03*
X5836Y37576D02*
D03*
X5751Y36164D02*
D03*
X4561Y39431D02*
D03*
X20081Y37931D02*
D03*
X19947Y36987D02*
D03*
X18351Y29091D02*
D03*
X21879Y37365D02*
D03*
X10579Y36459D02*
D03*
X9001Y34514D02*
D03*
X14914Y34817D02*
D03*
X11426Y35082D02*
D03*
X17271Y34751D02*
D03*
X22177Y33496D02*
D03*
X8271Y35531D02*
D03*
X7781D02*
D03*
X7282Y35535D02*
D03*
X8181Y35081D02*
D03*
X8581D02*
D03*
X7781D02*
D03*
X12606Y35081D02*
D03*
X12016D02*
D03*
X16632Y35091D02*
D03*
X16041D02*
D03*
X16337D02*
D03*
X14309Y35219D02*
D03*
X10293Y35209D02*
D03*
X15451Y35091D02*
D03*
X15746D02*
D03*
X19811Y32661D02*
D03*
X18603Y35471D02*
D03*
X14614Y36469D02*
D03*
X15991Y14361D02*
D03*
X23101Y15991D02*
D03*
X28280Y16715D02*
D03*
X27207D02*
D03*
X32512Y16852D02*
D03*
X8968Y20169D02*
D03*
X12646Y22706D02*
D03*
X35268Y41199D02*
D03*
X34874D02*
D03*
X34480D02*
D03*
Y40805D02*
D03*
Y40412D02*
D03*
X34874D02*
D03*
X35268D02*
D03*
Y40805D02*
D03*
X34874D02*
D03*
X16271Y37181D02*
D03*
Y37581D02*
D03*
Y36781D02*
D03*
Y36381D02*
D03*
X15871D02*
D03*
X15471D02*
D03*
Y36781D02*
D03*
X15871D02*
D03*
Y37181D02*
D03*
X15471D02*
D03*
Y37581D02*
D03*
X15871D02*
D03*
X16671D02*
D03*
X17071D02*
D03*
Y37181D02*
D03*
X16671D02*
D03*
Y36781D02*
D03*
X17071D02*
D03*
Y36381D02*
D03*
X16671D02*
D03*
X12261Y37181D02*
D03*
Y37581D02*
D03*
Y36781D02*
D03*
Y36381D02*
D03*
X11861D02*
D03*
X11461D02*
D03*
Y36781D02*
D03*
X11861D02*
D03*
Y37181D02*
D03*
X11461D02*
D03*
Y37581D02*
D03*
X11861D02*
D03*
X12661D02*
D03*
X13061D02*
D03*
Y37181D02*
D03*
X12661D02*
D03*
Y36781D02*
D03*
X13061D02*
D03*
Y36381D02*
D03*
X12661D02*
D03*
X8276Y37181D02*
D03*
Y37581D02*
D03*
Y36781D02*
D03*
Y36381D02*
D03*
X7876D02*
D03*
X7476D02*
D03*
Y36781D02*
D03*
X7876D02*
D03*
Y37181D02*
D03*
X7476D02*
D03*
Y37581D02*
D03*
X7876D02*
D03*
X8676D02*
D03*
X9076D02*
D03*
Y37181D02*
D03*
X8676D02*
D03*
Y36781D02*
D03*
X9076D02*
D03*
Y36381D02*
D03*
X8676D02*
D03*
X35261Y10161D02*
D03*
X5921Y4041D02*
D03*
X4451Y29061D02*
D03*
X40281Y11921D02*
D03*
Y11381D02*
D03*
X39891Y12581D02*
D03*
X41727Y39567D02*
D03*
X41916Y38028D02*
D03*
Y38428D02*
D03*
X41436Y39018D02*
D03*
X42961Y39021D02*
D03*
Y38431D02*
D03*
Y38031D02*
D03*
X5481Y32111D02*
D03*
X3361Y15481D02*
D03*
X14941Y38801D02*
D03*
X10951Y38781D02*
D03*
X18466Y38151D02*
D03*
X14931Y37931D02*
D03*
Y37021D02*
D03*
X10921D02*
D03*
Y37931D02*
D03*
X14456Y38151D02*
D03*
X7331Y38171D02*
D03*
X6721Y38301D02*
D03*
X11081Y39451D02*
D03*
X15031Y39431D02*
D03*
X10471Y38151D02*
D03*
X28351Y36851D02*
D03*
Y37391D02*
D03*
X27351Y33774D02*
D03*
Y34186D02*
D03*
Y34599D02*
D03*
Y35011D02*
D03*
X26631Y35021D02*
D03*
X26341D02*
D03*
X28897Y30567D02*
D03*
X28917Y30937D02*
D03*
X28887Y31327D02*
D03*
X29971Y30781D02*
D03*
X31091Y29971D02*
D03*
Y30391D02*
D03*
X29971Y30381D02*
D03*
Y29901D02*
D03*
X28631Y35981D02*
D03*
X32661Y32371D02*
D03*
X27611Y42201D02*
D03*
X20601Y27381D02*
D03*
X20241Y27421D02*
D03*
X25871Y17281D02*
D03*
X25901Y18371D02*
D03*
X25541Y18381D02*
D03*
X25521Y19501D02*
D03*
X28261Y20261D02*
D03*
X28301Y21831D02*
D03*
X28921Y20111D02*
D03*
X28851Y19511D02*
D03*
X20821Y18476D02*
D03*
X21081Y18761D02*
D03*
X21221Y19271D02*
D03*
X21421Y18931D02*
D03*
X23291Y18191D02*
D03*
X23331Y18581D02*
D03*
X23581Y18841D02*
D03*
X23811Y18561D02*
D03*
X8691Y30221D02*
D03*
X9041Y30831D02*
D03*
X14751Y30731D02*
D03*
X15011Y19301D02*
D03*
X16941Y19321D02*
D03*
X18311Y22801D02*
D03*
X16691Y23071D02*
D03*
X41121Y6181D02*
D03*
X43091Y20781D02*
D03*
Y21381D02*
D03*
X29131Y22991D02*
D03*
X37411Y24011D02*
D03*
X35729Y24009D02*
D03*
X34031Y24021D02*
D03*
X32391D02*
D03*
X30721Y24031D02*
D03*
X4752Y19191D02*
D03*
X3042Y17081D02*
D03*
Y20041D02*
D03*
Y20481D02*
D03*
Y16651D02*
D03*
X24371Y24131D02*
D03*
X24711Y23771D02*
D03*
X18973Y36761D02*
D03*
X5332Y21471D02*
D03*
X3642D02*
D03*
X3071Y22651D02*
D03*
X4772Y19631D02*
D03*
X9801Y13388D02*
D03*
Y14268D02*
D03*
X16901Y13825D02*
D03*
Y13388D02*
D03*
Y14268D02*
D03*
X23961Y13825D02*
D03*
Y13388D02*
D03*
Y14268D02*
D03*
X31031Y13825D02*
D03*
Y13388D02*
D03*
Y14268D02*
D03*
X38161D02*
D03*
Y13388D02*
D03*
Y13825D02*
D03*
X33011Y13651D02*
D03*
X26111Y13831D02*
D03*
X5421Y13841D02*
D03*
X16061Y14896D02*
D03*
X38691Y9721D02*
D03*
X37991Y10211D02*
D03*
X30931Y10151D02*
D03*
X31571Y9711D02*
D03*
X22566Y11571D02*
D03*
X23801Y10221D02*
D03*
X24511Y9731D02*
D03*
X3051Y15251D02*
D03*
X3011Y33951D02*
D03*
X3061Y13141D02*
D03*
X8312Y21611D02*
D03*
X16191Y18851D02*
D03*
X17241Y20011D02*
D03*
X17441Y19501D02*
D03*
X17791Y19371D02*
D03*
X18754Y19224D02*
D03*
X21991Y20466D02*
D03*
X25941Y15881D02*
D03*
X22461Y15891D02*
D03*
X18201Y20801D02*
D03*
X17841Y20891D02*
D03*
X24231Y22701D02*
D03*
X24531Y23141D02*
D03*
X24481Y22381D02*
D03*
X19741Y27691D02*
D03*
X28831Y18551D02*
D03*
X24325Y26201D02*
D03*
X31771Y16111D02*
D03*
X26461Y25531D02*
D03*
X26561Y26111D02*
D03*
X26181Y25301D02*
D03*
X22901Y27251D02*
D03*
X22451Y29271D02*
D03*
X22091Y28681D02*
D03*
X22851Y27611D02*
D03*
X23211Y29531D02*
D03*
X24801Y23421D02*
D03*
X36341Y18551D02*
D03*
X21901Y27391D02*
D03*
X22221Y27611D02*
D03*
X16711Y10241D02*
D03*
X17421Y9721D02*
D03*
X8507Y11571D02*
D03*
X10311Y9731D02*
D03*
X32771Y16471D02*
D03*
X24841Y22331D02*
D03*
X24621Y22041D02*
D03*
X26201Y26201D02*
D03*
X26221Y22311D02*
D03*
X18141Y21181D02*
D03*
X17851Y21511D02*
D03*
X24721Y18621D02*
D03*
X24991Y21751D02*
D03*
X24781Y21441D02*
D03*
X24991Y21141D02*
D03*
X33881Y18531D02*
D03*
X31131Y18541D02*
D03*
X38341Y19721D02*
D03*
X15851Y27491D02*
D03*
X31051Y19241D02*
D03*
X36351Y19531D02*
D03*
X33821D02*
D03*
X35321Y19681D02*
D03*
X32861Y19741D02*
D03*
X30361D02*
D03*
X31741Y17621D02*
D03*
X32911Y17071D02*
D03*
X16451Y26441D02*
D03*
X29662Y14641D02*
D03*
X15851Y27111D02*
D03*
X6990Y20701D02*
D03*
X24831Y34721D02*
D03*
X12311Y35081D02*
D03*
X7381Y35081D02*
D03*
X16281Y35521D02*
D03*
X12251Y35541D02*
D03*
X23751Y34271D02*
D03*
X24967D02*
D03*
X11761Y35531D02*
D03*
X11720Y35081D02*
D03*
X15751Y35531D02*
D03*
X36035Y39913D02*
D03*
X33994Y40125D02*
D03*
X37981Y41311D02*
D03*
X3081Y35451D02*
D03*
X39481Y41361D02*
D03*
X24055Y34271D02*
D03*
X23751Y34561D02*
D03*
X9361Y27721D02*
D03*
X25271Y34271D02*
D03*
X24311Y34721D02*
D03*
X24359Y34271D02*
D03*
X41751Y13460D02*
D03*
Y14060D02*
D03*
Y14810D02*
D03*
Y15460D02*
D03*
X42251D02*
D03*
X42138Y13457D02*
D03*
X26341Y34609D02*
D03*
Y34196D02*
D03*
X37481Y41311D02*
D03*
X22501Y27361D02*
D03*
X15961Y26721D02*
D03*
X33201Y38881D02*
D03*
X34603Y41985D02*
D03*
X19081Y13851D02*
D03*
X13985Y10421D02*
D03*
X13625D02*
D03*
X15901Y10241D02*
D03*
X15485Y14641D02*
D03*
X13625Y10161D02*
D03*
X13985D02*
D03*
X12786Y6591D02*
D03*
X8501Y14611D02*
D03*
X5172Y12761D02*
D03*
X13046Y6591D02*
D03*
X14641Y10351D02*
D03*
Y10071D02*
D03*
X10991Y10101D02*
D03*
X13021Y10361D02*
D03*
Y10091D02*
D03*
X15961Y8431D02*
D03*
X15771Y8611D02*
D03*
X15671Y7891D02*
D03*
X15501Y8081D02*
D03*
X16541Y8781D02*
D03*
X15126Y6591D02*
D03*
X12107Y8081D02*
D03*
X11937Y7891D02*
D03*
X11837Y8611D02*
D03*
X11647Y8431D02*
D03*
X12551Y7451D02*
D03*
X12878D02*
D03*
X13204D02*
D03*
X13531D02*
D03*
X14031D02*
D03*
X14368D02*
D03*
X14704D02*
D03*
X15041D02*
D03*
X13491Y8711D02*
D03*
X14171D02*
D03*
X10951Y8761D02*
D03*
X10681D02*
D03*
X17186Y5571D02*
D03*
X23982D02*
D03*
X17802Y5551D02*
D03*
X17772Y8761D02*
D03*
X18042D02*
D03*
X21262Y8711D02*
D03*
X20582D02*
D03*
X22132Y7451D02*
D03*
X21796D02*
D03*
X21459D02*
D03*
X21122D02*
D03*
X20622D02*
D03*
X20296D02*
D03*
X19969D02*
D03*
X19642D02*
D03*
X18208Y6651D02*
D03*
X18738Y8431D02*
D03*
X18928Y8611D02*
D03*
X19028Y7891D02*
D03*
X19198Y8081D02*
D03*
X21922Y6591D02*
D03*
X22192D02*
D03*
X23632Y8781D02*
D03*
X22592Y8081D02*
D03*
X22762Y7891D02*
D03*
X22862Y8611D02*
D03*
X23052Y8431D02*
D03*
X20112Y10091D02*
D03*
Y10361D02*
D03*
X18082Y10081D02*
D03*
X21732Y10071D02*
D03*
Y10351D02*
D03*
X19842Y6591D02*
D03*
X23582Y6651D02*
D03*
X19582Y6591D02*
D03*
X21076Y10161D02*
D03*
X20716D02*
D03*
X22992Y10241D02*
D03*
X20716Y10421D02*
D03*
X21076D02*
D03*
X24888Y5551D02*
D03*
X24858Y8761D02*
D03*
X25128D02*
D03*
X28348Y8711D02*
D03*
X27668D02*
D03*
X29218Y7451D02*
D03*
X28882D02*
D03*
X28545D02*
D03*
X28208D02*
D03*
X27708D02*
D03*
X27382D02*
D03*
X27055D02*
D03*
X26728D02*
D03*
X25294Y6651D02*
D03*
X25824Y8431D02*
D03*
X26014Y8611D02*
D03*
X26114Y7891D02*
D03*
X26284Y8081D02*
D03*
X29008Y6591D02*
D03*
X29278D02*
D03*
X30718Y8781D02*
D03*
X29678Y8081D02*
D03*
X29848Y7891D02*
D03*
X29948Y8611D02*
D03*
X30138Y8431D02*
D03*
X27198Y10091D02*
D03*
Y10361D02*
D03*
X25168Y10101D02*
D03*
X28818Y10071D02*
D03*
Y10351D02*
D03*
X26928Y6591D02*
D03*
X30668Y6651D02*
D03*
X26668Y6591D02*
D03*
X28162Y10161D02*
D03*
X27802D02*
D03*
X29652Y11571D02*
D03*
X30078Y10241D02*
D03*
X27802Y10421D02*
D03*
X28162D02*
D03*
X38157Y5571D02*
D03*
X31947Y8761D02*
D03*
X32217D02*
D03*
X35431Y8711D02*
D03*
X34757D02*
D03*
X36307Y7451D02*
D03*
X35970D02*
D03*
X35633D02*
D03*
X35297D02*
D03*
X34797D02*
D03*
X34470D02*
D03*
X34143D02*
D03*
X33817D02*
D03*
X32383Y6651D02*
D03*
X32913Y8431D02*
D03*
X33103Y8611D02*
D03*
X33203Y7891D02*
D03*
X33373Y8081D02*
D03*
X36097Y6591D02*
D03*
X36367D02*
D03*
X37807Y8781D02*
D03*
X36937Y7891D02*
D03*
X37037Y8611D02*
D03*
X37227Y8431D02*
D03*
X34287Y10091D02*
D03*
Y10361D02*
D03*
X32257Y10101D02*
D03*
X35907Y10071D02*
D03*
Y10351D02*
D03*
X34017Y6591D02*
D03*
X37757Y6651D02*
D03*
X33757Y6591D02*
D03*
X34891Y10161D02*
D03*
X36741Y11571D02*
D03*
X37167Y10241D02*
D03*
X34891Y10421D02*
D03*
X35251D02*
D03*
X3081Y35881D02*
D03*
X10318Y5571D02*
D03*
X3712Y8761D02*
D03*
X9942Y8791D02*
D03*
X3982Y8761D02*
D03*
X7202Y8711D02*
D03*
X6522D02*
D03*
X8072Y7451D02*
D03*
X7736D02*
D03*
X7399D02*
D03*
X7062D02*
D03*
X6562D02*
D03*
X6236D02*
D03*
X5909D02*
D03*
X5582D02*
D03*
X4678Y8431D02*
D03*
X4868Y8611D02*
D03*
X4968Y7891D02*
D03*
X5138Y8081D02*
D03*
X8256Y6591D02*
D03*
X8526D02*
D03*
X9672Y8781D02*
D03*
X8702Y7891D02*
D03*
X8802Y8611D02*
D03*
X8992Y8431D02*
D03*
X6052Y10091D02*
D03*
Y10361D02*
D03*
X4022Y10101D02*
D03*
X7672Y10071D02*
D03*
Y10351D02*
D03*
X6176Y6591D02*
D03*
X5916D02*
D03*
X7017Y10161D02*
D03*
X6657D02*
D03*
X8932Y10241D02*
D03*
X6657Y10421D02*
D03*
X7017D02*
D03*
X31101Y5551D02*
D03*
X32041Y5601D02*
D03*
X36820Y12151D02*
D03*
Y12651D02*
D03*
X33320Y12151D02*
D03*
X33570Y11651D02*
D03*
X25481Y12901D02*
D03*
Y12151D02*
D03*
X26481Y11651D02*
D03*
X26231Y12151D02*
D03*
X29731Y12651D02*
D03*
Y12151D02*
D03*
X19395Y11651D02*
D03*
X19145Y12151D02*
D03*
X22645Y12651D02*
D03*
Y12151D02*
D03*
X11304Y12901D02*
D03*
Y12151D02*
D03*
X12304Y11651D02*
D03*
X12054Y12151D02*
D03*
X15554Y12651D02*
D03*
Y12151D02*
D03*
X15475Y11571D02*
D03*
X3585Y10401D02*
D03*
Y11401D02*
D03*
Y12151D02*
D03*
Y12901D02*
D03*
X4331Y12881D02*
D03*
X4335Y12151D02*
D03*
X5335Y11651D02*
D03*
X5085Y12151D02*
D03*
X8585Y12651D02*
D03*
Y12151D02*
D03*
X5335Y15151D02*
D03*
X11304Y13651D02*
D03*
X3604Y6026D02*
D03*
X3641Y32021D02*
D03*
X22141Y31771D02*
D03*
X21151Y31791D02*
D03*
X20651Y31751D02*
D03*
X24663Y34271D02*
D03*
X23751Y34851D02*
D03*
X18983Y35461D02*
D03*
X19301Y27561D02*
D03*
X18751Y27151D02*
D03*
X18411Y26811D02*
D03*
X17781Y26101D02*
D03*
X18201Y26221D02*
D03*
X21411Y27631D02*
D03*
X15691Y26081D02*
D03*
X31833Y17098D02*
D03*
X24071Y20721D02*
D03*
X24211Y24711D02*
D03*
X15631Y22081D02*
D03*
X15591Y22451D02*
D03*
X20921Y27601D02*
D03*
X24371Y26771D02*
D03*
X24421Y27231D02*
D03*
X24091Y27411D02*
D03*
X23341Y27271D02*
D03*
X23311Y26911D02*
D03*
X16001Y23771D02*
D03*
X18991Y20571D02*
D03*
X19271Y20811D02*
D03*
X19541Y21051D02*
D03*
X19781Y21321D02*
D03*
X15051Y18781D02*
D03*
X10641Y14831D02*
D03*
X17771Y23141D02*
D03*
X16611Y23961D02*
D03*
X11101Y22521D02*
D03*
X14551Y26081D02*
D03*
X15641Y24931D02*
D03*
X18371Y24281D02*
D03*
X5821Y30951D02*
D03*
X5651Y30351D02*
D03*
X3041Y29181D02*
D03*
X6701Y28589D02*
D03*
X6721Y28959D02*
D03*
X6751Y28219D02*
D03*
X14401Y27561D02*
D03*
X7421Y30491D02*
D03*
X6991Y30071D02*
D03*
X13691Y26911D02*
D03*
X13701Y31971D02*
D03*
X10031Y25241D02*
D03*
X9061Y32631D02*
D03*
X15171Y32531D02*
D03*
X8381Y31771D02*
D03*
X7671Y23871D02*
D03*
X13971Y26471D02*
D03*
X19381Y27111D02*
D03*
X24201Y25821D02*
D03*
X22341Y20831D02*
D03*
X18141Y21981D02*
D03*
X18771Y21591D02*
D03*
X18671Y23101D02*
D03*
X18411Y24751D02*
D03*
X17861Y24731D02*
D03*
X17951Y23491D02*
D03*
X21471Y27221D02*
D03*
X24651Y20591D02*
D03*
X18131Y26581D02*
D03*
X21171Y24701D02*
D03*
X21651Y31781D02*
D03*
X19571Y30701D02*
D03*
X19821Y29561D02*
D03*
X18721Y29091D02*
D03*
X11971Y32551D02*
D03*
X10941Y26251D02*
D03*
X9681Y10041D02*
D03*
X23901Y8781D02*
D03*
X16811D02*
D03*
X30991D02*
D03*
X38071D02*
D03*
X4311Y11561D02*
D03*
X9311D02*
D03*
Y12311D02*
D03*
Y13061D02*
D03*
Y13811D02*
D03*
Y14561D02*
D03*
X16311Y11561D02*
D03*
Y12311D02*
D03*
Y13061D02*
D03*
Y13811D02*
D03*
X18561Y11561D02*
D03*
Y12311D02*
D03*
Y13061D02*
D03*
Y13811D02*
D03*
X25311D02*
D03*
Y11561D02*
D03*
X23311D02*
D03*
Y12311D02*
D03*
Y13061D02*
D03*
Y13811D02*
D03*
Y14251D02*
D03*
X24061Y14811D02*
D03*
X30311Y11561D02*
D03*
Y12311D02*
D03*
Y13061D02*
D03*
Y13811D02*
D03*
X32561Y11561D02*
D03*
Y12311D02*
D03*
Y13061D02*
D03*
Y13811D02*
D03*
X32231Y14191D02*
D03*
X37561Y11561D02*
D03*
Y12311D02*
D03*
Y13061D02*
D03*
Y13811D02*
D03*
X37811Y15311D02*
D03*
X7481Y28589D02*
D03*
X41409Y37906D02*
D03*
X16733Y6755D02*
D03*
X15396Y6591D02*
D03*
X11409Y6616D02*
D03*
X9764Y6755D02*
D03*
X11006Y5504D02*
D03*
X8532Y8081D02*
D03*
X4411Y6636D02*
D03*
X4274Y6272D02*
D03*
X4451Y6085D02*
D03*
X32512Y17335D02*
D03*
X26221Y27521D02*
D03*
X26617Y29364D02*
D03*
X26872Y29106D02*
D03*
X27917Y30607D02*
D03*
X27157Y28880D02*
D03*
X27344Y29372D02*
D03*
X26761Y25741D02*
D03*
X26751Y25041D02*
D03*
X26491Y23951D02*
D03*
X26691Y24481D02*
D03*
X27551Y29815D02*
D03*
X27325Y31390D02*
D03*
X23381Y30131D02*
D03*
X24511Y30368D02*
D03*
X26765Y31499D02*
D03*
X26460Y31706D02*
D03*
X26224Y29708D02*
D03*
X5942Y21611D02*
D03*
X10297Y19037D02*
D03*
X11111Y19441D02*
D03*
X10307Y19431D02*
D03*
X10671Y19382D02*
D03*
X9943Y19530D02*
D03*
X32769Y17896D02*
D03*
X11715Y14914D02*
D03*
X12030Y13861D02*
D03*
X37344Y16035D02*
D03*
X35602Y18004D02*
D03*
X35936Y12584D02*
D03*
Y12151D02*
D03*
Y11718D02*
D03*
X35503Y12584D02*
D03*
Y12151D02*
D03*
Y11718D02*
D03*
X35070Y12584D02*
D03*
Y12151D02*
D03*
Y11718D02*
D03*
X34637Y12584D02*
D03*
Y12151D02*
D03*
Y11718D02*
D03*
X34204Y12584D02*
D03*
Y12151D02*
D03*
Y11718D02*
D03*
X27115D02*
D03*
Y12151D02*
D03*
Y12584D02*
D03*
X27548Y11718D02*
D03*
Y12151D02*
D03*
Y12584D02*
D03*
X27981Y11718D02*
D03*
Y12151D02*
D03*
Y12584D02*
D03*
X28414Y11718D02*
D03*
Y12151D02*
D03*
Y12584D02*
D03*
X28847Y11718D02*
D03*
Y12151D02*
D03*
Y12584D02*
D03*
X21761D02*
D03*
Y12151D02*
D03*
Y11718D02*
D03*
X21328Y12584D02*
D03*
Y12151D02*
D03*
Y11718D02*
D03*
X20895Y12584D02*
D03*
Y12151D02*
D03*
Y11718D02*
D03*
X20462Y12584D02*
D03*
Y12151D02*
D03*
Y11718D02*
D03*
X20029Y12584D02*
D03*
Y12151D02*
D03*
Y11718D02*
D03*
X12938D02*
D03*
Y12151D02*
D03*
Y12584D02*
D03*
X13371Y11718D02*
D03*
Y12151D02*
D03*
Y12584D02*
D03*
X13804Y11718D02*
D03*
Y12151D02*
D03*
Y12584D02*
D03*
X14237Y11718D02*
D03*
Y12151D02*
D03*
Y12584D02*
D03*
X14670Y11718D02*
D03*
Y12151D02*
D03*
Y12584D02*
D03*
X7702D02*
D03*
Y12151D02*
D03*
Y11718D02*
D03*
X7269Y12584D02*
D03*
Y12151D02*
D03*
Y11718D02*
D03*
X6835Y12584D02*
D03*
Y12151D02*
D03*
Y11718D02*
D03*
X6402Y12584D02*
D03*
Y12151D02*
D03*
Y11718D02*
D03*
X5969Y12584D02*
D03*
Y12151D02*
D03*
Y11718D02*
D03*
X3136Y14251D02*
D03*
X4947D02*
D03*
X4041Y15157D02*
D03*
Y13346D02*
D03*
X6251Y32706D02*
D03*
Y34517D02*
D03*
X7157Y33611D02*
D03*
X5346D02*
D03*
X23206Y16991D02*
D03*
X25017D02*
D03*
X24111Y17897D02*
D03*
Y16086D02*
D03*
X7630Y21606D02*
D03*
X6362Y21591D02*
D03*
X9008Y21616D02*
D03*
X6350Y22512D02*
D03*
X8004Y23073D02*
D03*
X9598Y23555D02*
D03*
X8339Y22531D02*
D03*
X9591Y22201D02*
D03*
X10022Y23161D02*
D03*
X9244Y22611D02*
D03*
X42108Y14805D02*
D03*
Y14057D02*
D03*
X7594Y22531D02*
D03*
X4191Y22651D02*
D03*
X3063Y22305D02*
D03*
X21400Y32669D02*
D03*
X7831Y29411D02*
D03*
X5561Y29071D02*
D03*
X37561Y14561D02*
D03*
X23031Y36221D02*
D03*
X19381Y34231D02*
D03*
X10261Y34521D02*
D03*
X10101Y33381D02*
D03*
X10961Y34801D02*
D03*
X21461Y34901D02*
D03*
X35721Y24441D02*
D03*
X32731Y24841D02*
D03*
X31361D02*
D03*
X30711Y24801D02*
D03*
X29561Y24811D02*
D03*
X29041Y24471D02*
D03*
X28771Y22991D02*
D03*
X26341Y33784D02*
D03*
Y33371D02*
D03*
X26631Y33361D02*
D03*
X22813Y32879D02*
D03*
X28063Y33203D02*
D03*
X26771Y32721D02*
D03*
X27181Y32741D02*
D03*
X27351Y33451D02*
D03*
X25261Y31241D02*
D03*
X26262Y32354D02*
D03*
X24075Y32629D02*
D03*
X24031Y31661D02*
D03*
X32891Y31461D02*
D03*
X28551Y29241D02*
D03*
X13931Y18461D02*
D03*
X14381Y18381D02*
D03*
X10661Y18968D02*
D03*
X9801Y13825D02*
D03*
X10961Y14311D02*
D03*
X7571Y14601D02*
D03*
X14641Y14641D02*
D03*
X22581D02*
D03*
X42061Y43561D02*
D03*
Y45561D02*
D03*
X43061Y44561D02*
D03*
X41061D02*
D03*
X41361Y45261D02*
D03*
X42761D02*
D03*
Y43861D02*
D03*
X41361D02*
D03*
X42061Y81061D02*
D03*
Y83061D02*
D03*
X43061Y82061D02*
D03*
X41061D02*
D03*
X41361Y82761D02*
D03*
X42761D02*
D03*
Y81361D02*
D03*
X41361D02*
D03*
X4061Y81061D02*
D03*
Y83061D02*
D03*
X5061Y82061D02*
D03*
X3061D02*
D03*
X3361Y82761D02*
D03*
X4761D02*
D03*
Y81361D02*
D03*
X3361D02*
D03*
X4061Y43561D02*
D03*
Y45561D02*
D03*
X5061Y44561D02*
D03*
X3061D02*
D03*
X3361Y45261D02*
D03*
X4761D02*
D03*
Y43861D02*
D03*
X3361D02*
D03*
X35861Y55141D02*
D03*
X36751D02*
D03*
X28741D02*
D03*
X21721Y55131D02*
D03*
X22981Y79741D02*
D03*
X5836Y78076D02*
D03*
X5751Y76664D02*
D03*
X4561Y79931D02*
D03*
X20081Y78431D02*
D03*
X19947Y77487D02*
D03*
X18351Y69591D02*
D03*
X21879Y77865D02*
D03*
X10579Y76959D02*
D03*
X9001Y75014D02*
D03*
X14914Y75317D02*
D03*
X11426Y75582D02*
D03*
X17271Y75251D02*
D03*
X22177Y73996D02*
D03*
X8271Y76031D02*
D03*
X7781D02*
D03*
X7282Y76035D02*
D03*
X8181Y75581D02*
D03*
X8581D02*
D03*
X7781D02*
D03*
X12606Y75581D02*
D03*
X12016D02*
D03*
X16632Y75591D02*
D03*
X16041D02*
D03*
X16337D02*
D03*
X14309Y75718D02*
D03*
X10293Y75709D02*
D03*
X15451Y75591D02*
D03*
X15746D02*
D03*
X19811Y73161D02*
D03*
X18603Y75971D02*
D03*
X14614Y76968D02*
D03*
X15991Y54861D02*
D03*
X23101Y56491D02*
D03*
X28280Y57215D02*
D03*
X27207D02*
D03*
X32512Y57352D02*
D03*
X8968Y60669D02*
D03*
X12646Y63206D02*
D03*
X35268Y81699D02*
D03*
X34874D02*
D03*
X34480D02*
D03*
Y81305D02*
D03*
Y80912D02*
D03*
X34874D02*
D03*
X35268D02*
D03*
Y81305D02*
D03*
X34874D02*
D03*
X16271Y77681D02*
D03*
Y78081D02*
D03*
Y77281D02*
D03*
Y76881D02*
D03*
X15871D02*
D03*
X15471D02*
D03*
Y77281D02*
D03*
X15871D02*
D03*
Y77681D02*
D03*
X15471D02*
D03*
Y78081D02*
D03*
X15871D02*
D03*
X16671D02*
D03*
X17071D02*
D03*
Y77681D02*
D03*
X16671D02*
D03*
Y77281D02*
D03*
X17071D02*
D03*
Y76881D02*
D03*
X16671D02*
D03*
X12261Y77681D02*
D03*
Y78081D02*
D03*
Y77281D02*
D03*
Y76881D02*
D03*
X11861D02*
D03*
X11461D02*
D03*
Y77281D02*
D03*
X11861D02*
D03*
Y77681D02*
D03*
X11461D02*
D03*
Y78081D02*
D03*
X11861D02*
D03*
X12661D02*
D03*
X13061D02*
D03*
Y77681D02*
D03*
X12661D02*
D03*
Y77281D02*
D03*
X13061D02*
D03*
Y76881D02*
D03*
X12661D02*
D03*
X8276Y77681D02*
D03*
Y78081D02*
D03*
Y77281D02*
D03*
Y76881D02*
D03*
X7876D02*
D03*
X7476D02*
D03*
Y77281D02*
D03*
X7876D02*
D03*
Y77681D02*
D03*
X7476D02*
D03*
Y78081D02*
D03*
X7876D02*
D03*
X8676D02*
D03*
X9076D02*
D03*
Y77681D02*
D03*
X8676D02*
D03*
Y77281D02*
D03*
X9076D02*
D03*
Y76881D02*
D03*
X8676D02*
D03*
X35261Y50661D02*
D03*
X5921Y44541D02*
D03*
X4451Y69561D02*
D03*
X40281Y52421D02*
D03*
Y51881D02*
D03*
X39891Y53081D02*
D03*
X41727Y80067D02*
D03*
X41916Y78528D02*
D03*
Y78928D02*
D03*
X41436Y79518D02*
D03*
X42961Y79521D02*
D03*
Y78931D02*
D03*
Y78531D02*
D03*
X5481Y72611D02*
D03*
X3361Y55981D02*
D03*
X14941Y79301D02*
D03*
X10951Y79281D02*
D03*
X18466Y78651D02*
D03*
X14931Y78431D02*
D03*
Y77521D02*
D03*
X10921D02*
D03*
Y78431D02*
D03*
X14456Y78651D02*
D03*
X7331Y78671D02*
D03*
X6721Y78801D02*
D03*
X11081Y79951D02*
D03*
X15031Y79931D02*
D03*
X10471Y78651D02*
D03*
X28351Y77351D02*
D03*
Y77891D02*
D03*
X27351Y74274D02*
D03*
Y74686D02*
D03*
Y75099D02*
D03*
Y75511D02*
D03*
X26631Y75521D02*
D03*
X26341D02*
D03*
X28897Y71067D02*
D03*
X28917Y71437D02*
D03*
X28887Y71827D02*
D03*
X29971Y71281D02*
D03*
X31091Y70471D02*
D03*
Y70891D02*
D03*
X29971Y70881D02*
D03*
Y70401D02*
D03*
X28631Y76481D02*
D03*
X32661Y72871D02*
D03*
X27611Y82701D02*
D03*
X20601Y67881D02*
D03*
X20241Y67921D02*
D03*
X25871Y57781D02*
D03*
X25901Y58871D02*
D03*
X25541Y58881D02*
D03*
X25521Y60001D02*
D03*
X28261Y60761D02*
D03*
X28301Y62331D02*
D03*
X28921Y60611D02*
D03*
X28851Y60011D02*
D03*
X20821Y58976D02*
D03*
X21081Y59261D02*
D03*
X21221Y59771D02*
D03*
X21421Y59431D02*
D03*
X23291Y58691D02*
D03*
X23331Y59081D02*
D03*
X23581Y59341D02*
D03*
X23811Y59061D02*
D03*
X8691Y70721D02*
D03*
X9041Y71331D02*
D03*
X14751Y71231D02*
D03*
X15011Y59801D02*
D03*
X16941Y59821D02*
D03*
X18311Y63301D02*
D03*
X16691Y63571D02*
D03*
X41121Y46681D02*
D03*
X43091Y61281D02*
D03*
Y61881D02*
D03*
X29131Y63491D02*
D03*
X37411Y64511D02*
D03*
X35729Y64509D02*
D03*
X34031Y64521D02*
D03*
X32391D02*
D03*
X30721Y64531D02*
D03*
X4752Y59691D02*
D03*
X3042Y57581D02*
D03*
Y60541D02*
D03*
Y60981D02*
D03*
Y57151D02*
D03*
X24371Y64631D02*
D03*
X24711Y64271D02*
D03*
X18973Y77261D02*
D03*
X5332Y61971D02*
D03*
X3642D02*
D03*
X3071Y63151D02*
D03*
X4772Y60131D02*
D03*
X9801Y53888D02*
D03*
Y54768D02*
D03*
X16901Y54325D02*
D03*
Y53888D02*
D03*
Y54768D02*
D03*
X23961Y54325D02*
D03*
Y53888D02*
D03*
Y54768D02*
D03*
X31031Y54325D02*
D03*
Y53888D02*
D03*
Y54768D02*
D03*
X38161D02*
D03*
Y53888D02*
D03*
Y54325D02*
D03*
X33011Y54151D02*
D03*
X26111Y54331D02*
D03*
X5421Y54341D02*
D03*
X16061Y55396D02*
D03*
X38691Y50221D02*
D03*
X37991Y50711D02*
D03*
X30931Y50651D02*
D03*
X31571Y50211D02*
D03*
X22566Y52071D02*
D03*
X23801Y50721D02*
D03*
X24511Y50231D02*
D03*
X3051Y55751D02*
D03*
X3011Y74451D02*
D03*
X3061Y53641D02*
D03*
X8312Y62111D02*
D03*
X16191Y59351D02*
D03*
X17241Y60511D02*
D03*
X17441Y60001D02*
D03*
X17791Y59871D02*
D03*
X18754Y59724D02*
D03*
X21991Y60966D02*
D03*
X25941Y56381D02*
D03*
X22461Y56391D02*
D03*
X18201Y61301D02*
D03*
X17841Y61391D02*
D03*
X24231Y63201D02*
D03*
X24531Y63641D02*
D03*
X24481Y62881D02*
D03*
X19741Y68191D02*
D03*
X28831Y59051D02*
D03*
X24325Y66701D02*
D03*
X31771Y56611D02*
D03*
X26461Y66031D02*
D03*
X26561Y66611D02*
D03*
X26181Y65801D02*
D03*
X22901Y67751D02*
D03*
X22451Y69771D02*
D03*
X22091Y69181D02*
D03*
X22851Y68111D02*
D03*
X23211Y70031D02*
D03*
X24801Y63921D02*
D03*
X36341Y59051D02*
D03*
X21901Y67891D02*
D03*
X22221Y68111D02*
D03*
X16711Y50741D02*
D03*
X17421Y50221D02*
D03*
X8507Y52071D02*
D03*
X10311Y50231D02*
D03*
X32771Y56971D02*
D03*
X24841Y62831D02*
D03*
X24621Y62541D02*
D03*
X26201Y66701D02*
D03*
X26221Y62811D02*
D03*
X18141Y61681D02*
D03*
X17851Y62011D02*
D03*
X24721Y59121D02*
D03*
X24991Y62251D02*
D03*
X24781Y61941D02*
D03*
X24991Y61641D02*
D03*
X33881Y59031D02*
D03*
X31131Y59041D02*
D03*
X38341Y60221D02*
D03*
X15851Y67991D02*
D03*
X31051Y59741D02*
D03*
X36351Y60031D02*
D03*
X33821D02*
D03*
X35321Y60181D02*
D03*
X32861Y60241D02*
D03*
X30361D02*
D03*
X31741Y58121D02*
D03*
X32911Y57571D02*
D03*
X16451Y66941D02*
D03*
X29662Y55141D02*
D03*
X15851Y67611D02*
D03*
X6990Y61201D02*
D03*
X24831Y75221D02*
D03*
X12311Y75581D02*
D03*
X7381Y75581D02*
D03*
X16281Y76021D02*
D03*
X12251Y76041D02*
D03*
X23751Y74771D02*
D03*
X24967D02*
D03*
X11761Y76031D02*
D03*
X11720Y75581D02*
D03*
X15751Y76031D02*
D03*
X36035Y80413D02*
D03*
X33994Y80625D02*
D03*
X37981Y81811D02*
D03*
X3081Y75951D02*
D03*
X39481Y81861D02*
D03*
X24055Y74771D02*
D03*
X23751Y75061D02*
D03*
X9361Y68221D02*
D03*
X25271Y74771D02*
D03*
X24311Y75221D02*
D03*
X24359Y74771D02*
D03*
X41751Y53960D02*
D03*
Y54560D02*
D03*
Y55310D02*
D03*
Y55960D02*
D03*
X42251D02*
D03*
X42138Y53957D02*
D03*
X26341Y75109D02*
D03*
Y74696D02*
D03*
X37481Y81811D02*
D03*
X22501Y67861D02*
D03*
X15961Y67221D02*
D03*
X33201Y79381D02*
D03*
X34603Y82485D02*
D03*
X19081Y54351D02*
D03*
X13985Y50921D02*
D03*
X13625D02*
D03*
X15901Y50741D02*
D03*
X15485Y55141D02*
D03*
X13625Y50661D02*
D03*
X13985D02*
D03*
X12786Y47091D02*
D03*
X8501Y55111D02*
D03*
X5172Y53261D02*
D03*
X13046Y47091D02*
D03*
X14641Y50851D02*
D03*
Y50571D02*
D03*
X10991Y50601D02*
D03*
X13021Y50861D02*
D03*
Y50591D02*
D03*
X15961Y48931D02*
D03*
X15771Y49111D02*
D03*
X15671Y48391D02*
D03*
X15501Y48581D02*
D03*
X16541Y49281D02*
D03*
X15126Y47091D02*
D03*
X12107Y48581D02*
D03*
X11937Y48391D02*
D03*
X11837Y49111D02*
D03*
X11647Y48931D02*
D03*
X12551Y47951D02*
D03*
X12878D02*
D03*
X13204D02*
D03*
X13531D02*
D03*
X14031D02*
D03*
X14368D02*
D03*
X14704D02*
D03*
X15041D02*
D03*
X13491Y49211D02*
D03*
X14171D02*
D03*
X10951Y49261D02*
D03*
X10681D02*
D03*
X17186Y46071D02*
D03*
X23982D02*
D03*
X17802Y46051D02*
D03*
X17772Y49261D02*
D03*
X18042D02*
D03*
X21262Y49211D02*
D03*
X20582D02*
D03*
X22132Y47951D02*
D03*
X21796D02*
D03*
X21459D02*
D03*
X21122D02*
D03*
X20622D02*
D03*
X20296D02*
D03*
X19969D02*
D03*
X19642D02*
D03*
X18208Y47151D02*
D03*
X18738Y48931D02*
D03*
X18928Y49111D02*
D03*
X19028Y48391D02*
D03*
X19198Y48581D02*
D03*
X21922Y47091D02*
D03*
X22192D02*
D03*
X23632Y49281D02*
D03*
X22592Y48581D02*
D03*
X22762Y48391D02*
D03*
X22862Y49111D02*
D03*
X23052Y48931D02*
D03*
X20112Y50591D02*
D03*
Y50861D02*
D03*
X18082Y50581D02*
D03*
X21732Y50571D02*
D03*
Y50851D02*
D03*
X19842Y47091D02*
D03*
X23582Y47151D02*
D03*
X19582Y47091D02*
D03*
X21076Y50661D02*
D03*
X20716D02*
D03*
X22992Y50741D02*
D03*
X20716Y50921D02*
D03*
X21076D02*
D03*
X24888Y46051D02*
D03*
X24858Y49261D02*
D03*
X25128D02*
D03*
X28348Y49211D02*
D03*
X27668D02*
D03*
X29218Y47951D02*
D03*
X28882D02*
D03*
X28545D02*
D03*
X28208D02*
D03*
X27708D02*
D03*
X27382D02*
D03*
X27055D02*
D03*
X26728D02*
D03*
X25294Y47151D02*
D03*
X25824Y48931D02*
D03*
X26014Y49111D02*
D03*
X26114Y48391D02*
D03*
X26284Y48581D02*
D03*
X29008Y47091D02*
D03*
X29278D02*
D03*
X30718Y49281D02*
D03*
X29678Y48581D02*
D03*
X29848Y48391D02*
D03*
X29948Y49111D02*
D03*
X30138Y48931D02*
D03*
X27198Y50591D02*
D03*
Y50861D02*
D03*
X25168Y50601D02*
D03*
X28818Y50571D02*
D03*
Y50851D02*
D03*
X26928Y47091D02*
D03*
X30668Y47151D02*
D03*
X26668Y47091D02*
D03*
X28162Y50661D02*
D03*
X27802D02*
D03*
X29652Y52071D02*
D03*
X30078Y50741D02*
D03*
X27802Y50921D02*
D03*
X28162D02*
D03*
X38157Y46071D02*
D03*
X31947Y49261D02*
D03*
X32217D02*
D03*
X35431Y49211D02*
D03*
X34757D02*
D03*
X36307Y47951D02*
D03*
X35970D02*
D03*
X35633D02*
D03*
X35297D02*
D03*
X34797D02*
D03*
X34470D02*
D03*
X34143D02*
D03*
X33817D02*
D03*
X32383Y47151D02*
D03*
X32913Y48931D02*
D03*
X33103Y49111D02*
D03*
X33203Y48391D02*
D03*
X33373Y48581D02*
D03*
X36097Y47091D02*
D03*
X36367D02*
D03*
X37807Y49281D02*
D03*
X36937Y48391D02*
D03*
X37037Y49111D02*
D03*
X37227Y48931D02*
D03*
X34287Y50591D02*
D03*
Y50861D02*
D03*
X32257Y50601D02*
D03*
X35907Y50571D02*
D03*
Y50851D02*
D03*
X34017Y47091D02*
D03*
X37757Y47151D02*
D03*
X33757Y47091D02*
D03*
X34891Y50661D02*
D03*
X36741Y52071D02*
D03*
X37167Y50741D02*
D03*
X34891Y50921D02*
D03*
X35251D02*
D03*
X3081Y76381D02*
D03*
X10318Y46071D02*
D03*
X3712Y49261D02*
D03*
X9942Y49291D02*
D03*
X3982Y49261D02*
D03*
X7202Y49211D02*
D03*
X6522D02*
D03*
X8072Y47951D02*
D03*
X7736D02*
D03*
X7399D02*
D03*
X7062D02*
D03*
X6562D02*
D03*
X6236D02*
D03*
X5909D02*
D03*
X5582D02*
D03*
X4678Y48931D02*
D03*
X4868Y49111D02*
D03*
X4968Y48391D02*
D03*
X5138Y48581D02*
D03*
X8256Y47091D02*
D03*
X8526D02*
D03*
X9672Y49281D02*
D03*
X8702Y48391D02*
D03*
X8802Y49111D02*
D03*
X8992Y48931D02*
D03*
X6052Y50591D02*
D03*
Y50861D02*
D03*
X4022Y50601D02*
D03*
X7672Y50571D02*
D03*
Y50851D02*
D03*
X6176Y47091D02*
D03*
X5916D02*
D03*
X7017Y50661D02*
D03*
X6657D02*
D03*
X8932Y50741D02*
D03*
X6657Y50921D02*
D03*
X7017D02*
D03*
X31101Y46051D02*
D03*
X32041Y46101D02*
D03*
X36820Y52651D02*
D03*
Y53151D02*
D03*
X33320Y52651D02*
D03*
X33570Y52151D02*
D03*
X25481Y53401D02*
D03*
Y52651D02*
D03*
X26481Y52151D02*
D03*
X26231Y52651D02*
D03*
X29731Y53151D02*
D03*
Y52651D02*
D03*
X19395Y52151D02*
D03*
X19145Y52651D02*
D03*
X22645Y53151D02*
D03*
Y52651D02*
D03*
X11304Y53401D02*
D03*
Y52651D02*
D03*
X12304Y52151D02*
D03*
X12054Y52651D02*
D03*
X15554Y53151D02*
D03*
Y52651D02*
D03*
X15475Y52071D02*
D03*
X3585Y50901D02*
D03*
Y51901D02*
D03*
Y52651D02*
D03*
Y53401D02*
D03*
X4331Y53381D02*
D03*
X4335Y52651D02*
D03*
X5335Y52151D02*
D03*
X5085Y52651D02*
D03*
X8585Y53151D02*
D03*
Y52651D02*
D03*
X5335Y55651D02*
D03*
X11304Y54151D02*
D03*
X3604Y46526D02*
D03*
X3641Y72521D02*
D03*
X22141Y72271D02*
D03*
X21151Y72291D02*
D03*
X20651Y72251D02*
D03*
X24663Y74771D02*
D03*
X23751Y75351D02*
D03*
X18983Y75961D02*
D03*
X19301Y68061D02*
D03*
X18751Y67651D02*
D03*
X18411Y67311D02*
D03*
X17781Y66601D02*
D03*
X18201Y66721D02*
D03*
X21411Y68131D02*
D03*
X15691Y66581D02*
D03*
X31833Y57598D02*
D03*
X24071Y61221D02*
D03*
X24211Y65211D02*
D03*
X15631Y62581D02*
D03*
X15591Y62951D02*
D03*
X20921Y68101D02*
D03*
X24371Y67271D02*
D03*
X24421Y67731D02*
D03*
X24091Y67911D02*
D03*
X23341Y67771D02*
D03*
X23311Y67411D02*
D03*
X16001Y64271D02*
D03*
X18991Y61071D02*
D03*
X19271Y61311D02*
D03*
X19541Y61551D02*
D03*
X19781Y61821D02*
D03*
X15051Y59281D02*
D03*
X10641Y55331D02*
D03*
X17771Y63641D02*
D03*
X16611Y64461D02*
D03*
X11101Y63021D02*
D03*
X14551Y66581D02*
D03*
X15641Y65431D02*
D03*
X18371Y64781D02*
D03*
X5821Y71451D02*
D03*
X5651Y70851D02*
D03*
X3041Y69681D02*
D03*
X6701Y69089D02*
D03*
X6721Y69459D02*
D03*
X6751Y68719D02*
D03*
X14401Y68061D02*
D03*
X7421Y70991D02*
D03*
X6991Y70571D02*
D03*
X13691Y67411D02*
D03*
X13701Y72471D02*
D03*
X10031Y65741D02*
D03*
X9061Y73131D02*
D03*
X15171Y73031D02*
D03*
X8381Y72271D02*
D03*
X7671Y64371D02*
D03*
X13971Y66971D02*
D03*
X19381Y67611D02*
D03*
X24201Y66321D02*
D03*
X22341Y61331D02*
D03*
X18141Y62481D02*
D03*
X18771Y62091D02*
D03*
X18671Y63601D02*
D03*
X18411Y65251D02*
D03*
X17861Y65231D02*
D03*
X17951Y63991D02*
D03*
X21471Y67721D02*
D03*
X24651Y61091D02*
D03*
X18131Y67081D02*
D03*
X21171Y65201D02*
D03*
X21651Y72281D02*
D03*
X19571Y71201D02*
D03*
X19821Y70061D02*
D03*
X18721Y69591D02*
D03*
X11971Y73051D02*
D03*
X10941Y66751D02*
D03*
X9681Y50541D02*
D03*
X23901Y49281D02*
D03*
X16811D02*
D03*
X30991D02*
D03*
X38071D02*
D03*
X4311Y52061D02*
D03*
X9311D02*
D03*
Y52811D02*
D03*
Y53561D02*
D03*
Y54311D02*
D03*
Y55061D02*
D03*
X16311Y52061D02*
D03*
Y52811D02*
D03*
Y53561D02*
D03*
Y54311D02*
D03*
X18561Y52061D02*
D03*
Y52811D02*
D03*
Y53561D02*
D03*
Y54311D02*
D03*
X25311D02*
D03*
Y52061D02*
D03*
X23311D02*
D03*
Y52811D02*
D03*
Y53561D02*
D03*
Y54311D02*
D03*
Y54751D02*
D03*
X24061Y55311D02*
D03*
X30311Y52061D02*
D03*
Y52811D02*
D03*
Y53561D02*
D03*
Y54311D02*
D03*
X32561Y52061D02*
D03*
Y52811D02*
D03*
Y53561D02*
D03*
Y54311D02*
D03*
X32231Y54691D02*
D03*
X37561Y52061D02*
D03*
Y52811D02*
D03*
Y53561D02*
D03*
Y54311D02*
D03*
X37811Y55811D02*
D03*
X7481Y69089D02*
D03*
X41409Y78406D02*
D03*
X16733Y47255D02*
D03*
X15396Y47091D02*
D03*
X11409Y47116D02*
D03*
X9764Y47255D02*
D03*
X11006Y46004D02*
D03*
X8532Y48581D02*
D03*
X4411Y47136D02*
D03*
X4274Y46772D02*
D03*
X4451Y46585D02*
D03*
X32512Y57835D02*
D03*
X26221Y68021D02*
D03*
X26617Y69864D02*
D03*
X26872Y69606D02*
D03*
X27917Y71107D02*
D03*
X27157Y69380D02*
D03*
X27344Y69872D02*
D03*
X26761Y66241D02*
D03*
X26751Y65541D02*
D03*
X26491Y64451D02*
D03*
X26691Y64981D02*
D03*
X27551Y70315D02*
D03*
X27325Y71890D02*
D03*
X23381Y70631D02*
D03*
X24511Y70868D02*
D03*
X26765Y71999D02*
D03*
X26460Y72206D02*
D03*
X26224Y70208D02*
D03*
X5942Y62111D02*
D03*
X10297Y59537D02*
D03*
X11111Y59941D02*
D03*
X10307Y59931D02*
D03*
X10671Y59882D02*
D03*
X9943Y60030D02*
D03*
X32769Y58396D02*
D03*
X11715Y55414D02*
D03*
X12030Y54361D02*
D03*
X37344Y56535D02*
D03*
X35602Y58504D02*
D03*
X35936Y53084D02*
D03*
Y52651D02*
D03*
Y52218D02*
D03*
X35503Y53084D02*
D03*
Y52651D02*
D03*
Y52218D02*
D03*
X35070Y53084D02*
D03*
Y52651D02*
D03*
Y52218D02*
D03*
X34637Y53084D02*
D03*
Y52651D02*
D03*
Y52218D02*
D03*
X34204Y53084D02*
D03*
Y52651D02*
D03*
Y52218D02*
D03*
X27115D02*
D03*
Y52651D02*
D03*
Y53084D02*
D03*
X27548Y52218D02*
D03*
Y52651D02*
D03*
Y53084D02*
D03*
X27981Y52218D02*
D03*
Y52651D02*
D03*
Y53084D02*
D03*
X28414Y52218D02*
D03*
Y52651D02*
D03*
Y53084D02*
D03*
X28847Y52218D02*
D03*
Y52651D02*
D03*
Y53084D02*
D03*
X21761D02*
D03*
Y52651D02*
D03*
Y52218D02*
D03*
X21328Y53084D02*
D03*
Y52651D02*
D03*
Y52218D02*
D03*
X20895Y53084D02*
D03*
Y52651D02*
D03*
Y52218D02*
D03*
X20462Y53084D02*
D03*
Y52651D02*
D03*
Y52218D02*
D03*
X20029Y53084D02*
D03*
Y52651D02*
D03*
Y52218D02*
D03*
X12938D02*
D03*
Y52651D02*
D03*
Y53084D02*
D03*
X13371Y52218D02*
D03*
Y52651D02*
D03*
Y53084D02*
D03*
X13804Y52218D02*
D03*
Y52651D02*
D03*
Y53084D02*
D03*
X14237Y52218D02*
D03*
Y52651D02*
D03*
Y53084D02*
D03*
X14670Y52218D02*
D03*
Y52651D02*
D03*
Y53084D02*
D03*
X7702D02*
D03*
Y52651D02*
D03*
Y52218D02*
D03*
X7269Y53084D02*
D03*
Y52651D02*
D03*
Y52218D02*
D03*
X6835Y53084D02*
D03*
Y52651D02*
D03*
Y52218D02*
D03*
X6402Y53084D02*
D03*
Y52651D02*
D03*
Y52218D02*
D03*
X5969Y53084D02*
D03*
Y52651D02*
D03*
Y52218D02*
D03*
X3136Y54751D02*
D03*
X4947D02*
D03*
X4041Y55657D02*
D03*
Y53846D02*
D03*
X6251Y73206D02*
D03*
Y75017D02*
D03*
X7157Y74111D02*
D03*
X5346D02*
D03*
X23206Y57491D02*
D03*
X25017D02*
D03*
X24111Y58397D02*
D03*
Y56586D02*
D03*
X7630Y62106D02*
D03*
X6362Y62091D02*
D03*
X9008Y62116D02*
D03*
X6350Y63012D02*
D03*
X8004Y63573D02*
D03*
X9598Y64055D02*
D03*
X8339Y63032D02*
D03*
X9591Y62701D02*
D03*
X10022Y63661D02*
D03*
X9244Y63111D02*
D03*
X42108Y55305D02*
D03*
Y54557D02*
D03*
X7594Y63032D02*
D03*
X4191Y63151D02*
D03*
X3063Y62805D02*
D03*
X21400Y73169D02*
D03*
X7831Y69911D02*
D03*
X5561Y69571D02*
D03*
X37561Y55061D02*
D03*
X23031Y76721D02*
D03*
X19381Y74731D02*
D03*
X10261Y75021D02*
D03*
X10101Y73881D02*
D03*
X10961Y75301D02*
D03*
X21461Y75401D02*
D03*
X35721Y64941D02*
D03*
X32731Y65341D02*
D03*
X31361D02*
D03*
X30711Y65301D02*
D03*
X29561Y65311D02*
D03*
X29041Y64971D02*
D03*
X28771Y63491D02*
D03*
X26341Y74284D02*
D03*
Y73871D02*
D03*
X26631Y73861D02*
D03*
X22813Y73379D02*
D03*
X28063Y73703D02*
D03*
X26771Y73221D02*
D03*
X27181Y73241D02*
D03*
X27351Y73951D02*
D03*
X25261Y71741D02*
D03*
X26262Y72854D02*
D03*
X24075Y73129D02*
D03*
X24031Y72161D02*
D03*
X32891Y71961D02*
D03*
X28551Y69741D02*
D03*
X13931Y58961D02*
D03*
X14381Y58881D02*
D03*
X10661Y59468D02*
D03*
X9801Y54325D02*
D03*
X10961Y54811D02*
D03*
X7571Y55101D02*
D03*
X14641Y55141D02*
D03*
X22581D02*
D03*
D100*
X32771Y41774D02*
D03*
Y82274D02*
D03*
D101*
X39881Y20041D02*
D03*
X29161Y29931D02*
D03*
X42111Y29061D02*
D03*
X39041Y26831D02*
D03*
X31721Y29711D02*
D03*
X39881Y60541D02*
D03*
X29161Y70431D02*
D03*
X42111Y69561D02*
D03*
X39041Y67331D02*
D03*
X31721Y70211D02*
D03*
D104*
X1350Y1350D02*
D03*
X44754Y1380D02*
D03*
X44683Y84850D02*
D03*
X1350Y84739D02*
D03*
D105*
X14571Y24711D02*
D03*
Y23711D02*
D03*
X13571Y24711D02*
D03*
Y23711D02*
D03*
X12571Y24711D02*
D03*
Y23711D02*
D03*
X11571Y24711D02*
D03*
Y23711D02*
D03*
X10571Y24711D02*
D03*
Y23711D02*
D03*
X14571Y21861D02*
D03*
Y20861D02*
D03*
X13571Y21861D02*
D03*
Y20861D02*
D03*
X12571Y21861D02*
D03*
Y20861D02*
D03*
X11571Y21861D02*
D03*
Y20861D02*
D03*
X10571Y21861D02*
D03*
Y17621D02*
D03*
X11571Y16621D02*
D03*
Y17621D02*
D03*
X12571Y16621D02*
D03*
Y17621D02*
D03*
X13571Y16621D02*
D03*
Y17621D02*
D03*
X14571Y16621D02*
D03*
Y17621D02*
D03*
X15571Y16621D02*
D03*
Y17621D02*
D03*
X16571Y16621D02*
D03*
Y17621D02*
D03*
X17571Y16621D02*
D03*
Y17621D02*
D03*
X18571Y16621D02*
D03*
Y17621D02*
D03*
X19571Y16621D02*
D03*
Y17621D02*
D03*
X20571Y16621D02*
D03*
Y17621D02*
D03*
X21571Y16621D02*
D03*
Y17621D02*
D03*
X22941Y35591D02*
D03*
Y34591D02*
D03*
X21941D02*
D03*
X20941D02*
D03*
X19941D02*
D03*
X14571Y65211D02*
D03*
Y64211D02*
D03*
X13571Y65211D02*
D03*
Y64211D02*
D03*
X12571Y65211D02*
D03*
Y64211D02*
D03*
X11571Y65211D02*
D03*
Y64211D02*
D03*
X10571Y65211D02*
D03*
Y64211D02*
D03*
X14571Y62361D02*
D03*
Y61361D02*
D03*
X13571Y62361D02*
D03*
Y61361D02*
D03*
X12571Y62361D02*
D03*
Y61361D02*
D03*
X11571Y62361D02*
D03*
Y61361D02*
D03*
X10571Y62361D02*
D03*
Y58121D02*
D03*
X11571Y57121D02*
D03*
Y58121D02*
D03*
X12571Y57121D02*
D03*
Y58121D02*
D03*
X13571Y57121D02*
D03*
Y58121D02*
D03*
X14571Y57121D02*
D03*
Y58121D02*
D03*
X15571Y57121D02*
D03*
Y58121D02*
D03*
X16571Y57121D02*
D03*
Y58121D02*
D03*
X17571Y57121D02*
D03*
Y58121D02*
D03*
X18571Y57121D02*
D03*
Y58121D02*
D03*
X19571Y57121D02*
D03*
Y58121D02*
D03*
X20571Y57121D02*
D03*
Y58121D02*
D03*
X21571Y57121D02*
D03*
Y58121D02*
D03*
X22941Y76091D02*
D03*
Y75091D02*
D03*
X21941D02*
D03*
X20941D02*
D03*
X19941D02*
D03*
D106*
X10571Y20861D02*
D03*
Y16621D02*
D03*
X21941Y35591D02*
D03*
X20941D02*
D03*
X19941D02*
D03*
X10571Y61361D02*
D03*
Y57121D02*
D03*
X21941Y76091D02*
D03*
X20941D02*
D03*
X19941D02*
D03*
D107*
X41741Y8111D02*
D03*
X30131Y25651D02*
D03*
X34236D02*
D03*
X38341D02*
D03*
X28131Y28051D02*
D03*
X36341D02*
D03*
X32236D02*
D03*
X4801Y38011D02*
D03*
X41741Y48611D02*
D03*
X30131Y66151D02*
D03*
X34236D02*
D03*
X38341D02*
D03*
X28131Y68551D02*
D03*
X36341D02*
D03*
X32236D02*
D03*
X4801Y78511D02*
D03*
D108*
X41741Y7111D02*
D03*
Y9111D02*
D03*
Y10111D02*
D03*
X3421Y34801D02*
D03*
Y33021D02*
D03*
X36011Y4011D02*
D03*
X37011D02*
D03*
X38011D02*
D03*
X39011D02*
D03*
X30061D02*
D03*
X31061D02*
D03*
X32061D02*
D03*
X33061D02*
D03*
X13011D02*
D03*
X14011D02*
D03*
X15011D02*
D03*
X16011D02*
D03*
X7111D02*
D03*
X8111D02*
D03*
X9111D02*
D03*
X10111D02*
D03*
X39141Y21191D02*
D03*
X38141D02*
D03*
X36011D02*
D03*
X35011D02*
D03*
X32861D02*
D03*
X31861D02*
D03*
X29691D02*
D03*
X28691D02*
D03*
X22061Y4011D02*
D03*
X21061D02*
D03*
X20061D02*
D03*
X19061D02*
D03*
X27161D02*
D03*
X26161D02*
D03*
X25161D02*
D03*
X24161D02*
D03*
X28131Y25651D02*
D03*
X29131D02*
D03*
X33236D02*
D03*
X32236D02*
D03*
X36341D02*
D03*
X37341D02*
D03*
X29131Y28051D02*
D03*
X30131D02*
D03*
X38341D02*
D03*
X37341D02*
D03*
X33236D02*
D03*
X34236D02*
D03*
X3801Y38011D02*
D03*
X39211Y17111D02*
D03*
X35211D02*
D03*
X36211D02*
D03*
X37211D02*
D03*
X38211D02*
D03*
X41741Y47611D02*
D03*
Y49611D02*
D03*
Y50611D02*
D03*
X3421Y75301D02*
D03*
Y73521D02*
D03*
X36011Y44511D02*
D03*
X37011D02*
D03*
X38011D02*
D03*
X39011D02*
D03*
X30061D02*
D03*
X31061D02*
D03*
X32061D02*
D03*
X33061D02*
D03*
X13011D02*
D03*
X14011D02*
D03*
X15011D02*
D03*
X16011D02*
D03*
X7111D02*
D03*
X8111D02*
D03*
X9111D02*
D03*
X10111D02*
D03*
X39141Y61691D02*
D03*
X38141D02*
D03*
X36011D02*
D03*
X35011D02*
D03*
X32861D02*
D03*
X31861D02*
D03*
X29691D02*
D03*
X28691D02*
D03*
X22061Y44511D02*
D03*
X21061D02*
D03*
X20061D02*
D03*
X19061D02*
D03*
X27161D02*
D03*
X26161D02*
D03*
X25161D02*
D03*
X24161D02*
D03*
X28131Y66151D02*
D03*
X29131D02*
D03*
X33236D02*
D03*
X32236D02*
D03*
X36341D02*
D03*
X37341D02*
D03*
X29131Y68551D02*
D03*
X30131D02*
D03*
X38341D02*
D03*
X37341D02*
D03*
X33236D02*
D03*
X34236D02*
D03*
X3801Y78511D02*
D03*
X39211Y57611D02*
D03*
X35211D02*
D03*
X36211D02*
D03*
X37211D02*
D03*
X38211D02*
D03*
D109*
X4401Y35291D02*
D03*
Y32531D02*
D03*
Y75791D02*
D03*
Y73031D02*
D03*
D110*
X6921Y25061D02*
D03*
Y26053D02*
D03*
X6131D02*
D03*
Y25061D02*
D03*
X6921Y65561D02*
D03*
Y66553D02*
D03*
X6131D02*
D03*
Y65561D02*
D03*
D113*
X5061Y27923D02*
D03*
Y23191D02*
D03*
Y68423D02*
D03*
Y63691D02*
D03*
D114*
X42404Y17549D02*
D03*
X41064D02*
D03*
Y22849D02*
D03*
X42404D02*
D03*
X38411Y36401D02*
D03*
X37071D02*
D03*
X42404Y58049D02*
D03*
X41064D02*
D03*
Y63349D02*
D03*
X42404D02*
D03*
X38411Y76901D02*
D03*
X37071D02*
D03*
D115*
X42061Y4061D02*
D03*
Y41561D02*
D03*
X4061D02*
D03*
Y4061D02*
D03*
X42061Y44561D02*
D03*
Y82061D02*
D03*
X4061D02*
D03*
Y44561D02*
D03*
D117*
X4041Y14251D02*
D03*
X6251Y33611D02*
D03*
X24111Y16991D02*
D03*
X4041Y54751D02*
D03*
X6251Y74111D02*
D03*
X24111Y57491D02*
D03*
D118*
X25361Y41081D02*
D03*
X23361D02*
D03*
X21361D02*
D03*
X19361D02*
D03*
X17361D02*
D03*
X15361D02*
D03*
X13361D02*
D03*
X11361D02*
D03*
X9361D02*
D03*
X7361D02*
D03*
X40267Y36386D02*
D03*
Y32386D02*
D03*
Y28386D02*
D03*
Y26386D02*
D03*
X25361Y81581D02*
D03*
X23361D02*
D03*
X21361D02*
D03*
X19361D02*
D03*
X17361D02*
D03*
X15361D02*
D03*
X13361D02*
D03*
X11361D02*
D03*
X9361D02*
D03*
X7361D02*
D03*
X40267Y76886D02*
D03*
Y72886D02*
D03*
Y68886D02*
D03*
Y66886D02*
D03*
D119*
Y34386D02*
D03*
Y30386D02*
D03*
Y74886D02*
D03*
Y70886D02*
D03*
D120*
X9274Y19195D02*
D03*
Y59695D02*
D03*
D121*
X26665Y30150D02*
D03*
Y30583D02*
D03*
X27098Y30150D02*
D03*
Y30583D02*
D03*
X26665Y70650D02*
D03*
Y71083D02*
D03*
X27098Y70650D02*
D03*
Y71083D02*
D03*
D122*
X37081Y37391D02*
D03*
X37771Y37411D02*
D03*
X38461Y37401D02*
D03*
X37751Y35418D02*
D03*
X39141Y35681D02*
D03*
X37101Y35421D02*
D03*
X37751Y36346D02*
D03*
X37751Y35821D02*
D03*
X37581Y35051D02*
D03*
X39111Y37231D02*
D03*
X39121Y36381D02*
D03*
X36871Y34551D02*
D03*
X40261Y36991D02*
D03*
X40531Y37221D02*
D03*
X39871Y37191D02*
D03*
X40271Y35801D02*
D03*
X39931Y35721D02*
D03*
X40641Y35691D02*
D03*
X41331Y36391D02*
D03*
X41091Y35761D02*
D03*
X41461Y35721D02*
D03*
X41651Y36111D02*
D03*
X41291Y36041D02*
D03*
X40261Y31741D02*
D03*
X39431Y31761D02*
D03*
X39801Y31721D02*
D03*
X40791D02*
D03*
X39761Y33051D02*
D03*
X40261D02*
D03*
X41041Y33041D02*
D03*
X41731D02*
D03*
X42081Y31961D02*
D03*
X41781Y31691D02*
D03*
X41331Y32391D02*
D03*
X38671Y27311D02*
D03*
X39461Y27821D02*
D03*
X39451Y27431D02*
D03*
X39921Y27421D02*
D03*
X40271Y27771D02*
D03*
X41311Y28041D02*
D03*
X41281Y28671D02*
D03*
X41791Y28681D02*
D03*
X41781Y28011D02*
D03*
X37081Y77891D02*
D03*
X37771Y77911D02*
D03*
X38461Y77901D02*
D03*
X37751Y75918D02*
D03*
X39141Y76181D02*
D03*
X37101Y75921D02*
D03*
X37751Y76846D02*
D03*
X37751Y76321D02*
D03*
X37581Y75551D02*
D03*
X39111Y77731D02*
D03*
X39121Y76881D02*
D03*
X36871Y75051D02*
D03*
X40261Y77491D02*
D03*
X40531Y77721D02*
D03*
X39871Y77691D02*
D03*
X40271Y76301D02*
D03*
X39931Y76221D02*
D03*
X40641Y76191D02*
D03*
X41331Y76891D02*
D03*
X41091Y76261D02*
D03*
X41461Y76221D02*
D03*
X41651Y76611D02*
D03*
X41291Y76541D02*
D03*
X40261Y72241D02*
D03*
X39431Y72261D02*
D03*
X39801Y72221D02*
D03*
X40791D02*
D03*
X39761Y73551D02*
D03*
X40261D02*
D03*
X41041Y73541D02*
D03*
X41731D02*
D03*
X42081Y72461D02*
D03*
X41781Y72191D02*
D03*
X41331Y72891D02*
D03*
X38671Y67811D02*
D03*
X39461Y68321D02*
D03*
X39451Y67931D02*
D03*
X39921Y67921D02*
D03*
X40271Y68271D02*
D03*
X41311Y68541D02*
D03*
X41281Y69171D02*
D03*
X41791Y69181D02*
D03*
X41781Y68511D02*
D03*
D123*
X33711Y31101D02*
D03*
X35051D02*
D03*
Y36401D02*
D03*
X33711D02*
D03*
X37071Y31101D02*
D03*
X38411D02*
D03*
X33711Y71601D02*
D03*
X35051D02*
D03*
Y76901D02*
D03*
X33711D02*
D03*
X37071Y71601D02*
D03*
X38411D02*
D03*
D124*
X35120Y38614D02*
D03*
X35140Y39411D02*
D03*
X35120Y79114D02*
D03*
X35140Y79911D02*
D03*
M02*
