G04 Layer_Color=8388736*
%FSLAX24Y24*%
%MOIN*%
G70*
G01*
G75*
%ADD12C,0.0100*%
%ADD74C,0.0080*%
%ADD84C,0.0150*%
%ADD132C,0.0010*%
%ADD133C,0.0060*%
D12*
X46083Y-1000D02*
Y-78D01*
X22Y-1000D02*
Y-128D01*
X24602Y-900D02*
X46083D01*
X22D02*
X21183D01*
X45483Y-700D02*
X46083Y-900D01*
X45483Y-1100D02*
X46083Y-900D01*
X22D02*
X622Y-1100D01*
X22Y-900D02*
X622Y-700D01*
X46183Y86119D02*
X47583D01*
X46183Y22D02*
X47583D01*
X47483Y44670D02*
Y86119D01*
Y22D02*
Y41151D01*
X47283Y85519D02*
X47483Y86119D01*
X47683Y85519D01*
X47483Y22D02*
X47683Y622D01*
X47283D02*
X47483Y22D01*
X60300Y43250D02*
Y42650D01*
X60700D01*
X61000Y43050D02*
X61200D01*
X61300Y42950D01*
Y42650D01*
X61000D01*
X60900Y42750D01*
X61000Y42850D01*
X61300D01*
X61500Y43050D02*
Y42750D01*
X61600Y42650D01*
X61899D01*
Y42550D01*
X61800Y42450D01*
X61700D01*
X61899Y42650D02*
Y43050D01*
X62399Y42650D02*
X62199D01*
X62099Y42750D01*
Y42950D01*
X62199Y43050D01*
X62399D01*
X62499Y42950D01*
Y42850D01*
X62099D01*
X62699Y43050D02*
Y42650D01*
Y42850D01*
X62799Y42950D01*
X62899Y43050D01*
X62999D01*
X60300Y29450D02*
X60500D01*
X60400D01*
Y30050D01*
X60300Y29950D01*
X60800Y29450D02*
X61000D01*
X60900D01*
Y30050D01*
X60800Y29950D01*
X60300Y30650D02*
X60500D01*
X60400D01*
Y31250D01*
X60300Y31150D01*
X60800D02*
X60900Y31250D01*
X61100D01*
X61200Y31150D01*
Y30750D01*
X61100Y30650D01*
X60900D01*
X60800Y30750D01*
Y31150D01*
X60300Y31950D02*
X60400Y31850D01*
X60600D01*
X60700Y31950D01*
Y32350D01*
X60600Y32450D01*
X60400D01*
X60300Y32350D01*
Y32250D01*
X60400Y32150D01*
X60700D01*
X60300Y33550D02*
X60400Y33650D01*
X60600D01*
X60700Y33550D01*
Y33450D01*
X60600Y33350D01*
X60700Y33250D01*
Y33150D01*
X60600Y33050D01*
X60400D01*
X60300Y33150D01*
Y33250D01*
X60400Y33350D01*
X60300Y33450D01*
Y33550D01*
X60400Y33350D02*
X60600D01*
X60300Y34850D02*
X60700D01*
Y34750D01*
X60300Y34350D01*
Y34250D01*
X60700Y36050D02*
X60500Y35950D01*
X60300Y35750D01*
Y35550D01*
X60400Y35450D01*
X60600D01*
X60700Y35550D01*
Y35650D01*
X60600Y35750D01*
X60300D01*
X60700Y37250D02*
X60300D01*
Y36950D01*
X60500Y37050D01*
X60600D01*
X60700Y36950D01*
Y36750D01*
X60600Y36650D01*
X60400D01*
X60300Y36750D01*
X60600Y37850D02*
Y38450D01*
X60300Y38150D01*
X60700D01*
X60300Y39550D02*
X60400Y39650D01*
X60600D01*
X60700Y39550D01*
Y39450D01*
X60600Y39350D01*
X60500D01*
X60600D01*
X60700Y39250D01*
Y39150D01*
X60600Y39050D01*
X60400D01*
X60300Y39150D01*
X60700Y40250D02*
X60300D01*
X60700Y40650D01*
Y40750D01*
X60600Y40850D01*
X60400D01*
X60300Y40750D01*
Y41450D02*
X60500D01*
X60400D01*
Y42050D01*
X60300Y41950D01*
X64399Y42650D02*
Y43250D01*
X64799Y42650D01*
Y43250D01*
X65099Y43050D02*
X65299D01*
X65399Y42950D01*
Y42650D01*
X65099D01*
X64999Y42750D01*
X65099Y42850D01*
X65399D01*
X65599Y42650D02*
Y43050D01*
X65699D01*
X65799Y42950D01*
Y42650D01*
Y42950D01*
X65899Y43050D01*
X65999Y42950D01*
Y42650D01*
X66498D02*
X66299D01*
X66199Y42750D01*
Y42950D01*
X66299Y43050D01*
X66498D01*
X66598Y42950D01*
Y42850D01*
X66199D01*
X64399Y30050D02*
Y29450D01*
X64699D01*
X64799Y29550D01*
Y29650D01*
X64699Y29750D01*
X64399D01*
X64699D01*
X64799Y29850D01*
Y29950D01*
X64699Y30050D01*
X64399D01*
X65099Y29450D02*
X65299D01*
X65399Y29550D01*
Y29750D01*
X65299Y29850D01*
X65099D01*
X64999Y29750D01*
Y29550D01*
X65099Y29450D01*
X65699Y29950D02*
Y29850D01*
X65599D01*
X65799D01*
X65699D01*
Y29550D01*
X65799Y29450D01*
X66199Y29950D02*
Y29850D01*
X66099D01*
X66299D01*
X66199D01*
Y29550D01*
X66299Y29450D01*
X66698D02*
X66898D01*
X66998Y29550D01*
Y29750D01*
X66898Y29850D01*
X66698D01*
X66598Y29750D01*
Y29550D01*
X66698Y29450D01*
X67198D02*
Y29850D01*
X67298D01*
X67398Y29750D01*
Y29450D01*
Y29750D01*
X67498Y29850D01*
X67598Y29750D01*
Y29450D01*
X68698Y30050D02*
X68498D01*
X68398Y29950D01*
Y29550D01*
X68498Y29450D01*
X68698D01*
X68798Y29550D01*
Y29950D01*
X68698Y30050D01*
X68998Y29850D02*
X69198Y29450D01*
X69398Y29850D01*
X69897Y29450D02*
X69697D01*
X69597Y29550D01*
Y29750D01*
X69697Y29850D01*
X69897D01*
X69997Y29750D01*
Y29650D01*
X69597D01*
X70197Y29850D02*
Y29450D01*
Y29650D01*
X70297Y29750D01*
X70397Y29850D01*
X70497D01*
X70797Y29450D02*
X70997D01*
X70897D01*
Y30050D01*
X70797D01*
X71397Y29850D02*
X71597D01*
X71697Y29750D01*
Y29450D01*
X71397D01*
X71297Y29550D01*
X71397Y29650D01*
X71697D01*
X71897Y29850D02*
Y29550D01*
X71997Y29450D01*
X72297D01*
Y29350D01*
X72197Y29250D01*
X72097D01*
X72297Y29450D02*
Y29850D01*
X64399Y31250D02*
Y30650D01*
X64699D01*
X64799Y30750D01*
Y30850D01*
X64699Y30950D01*
X64399D01*
X64699D01*
X64799Y31050D01*
Y31150D01*
X64699Y31250D01*
X64399D01*
X65099Y30650D02*
X65299D01*
X65399Y30750D01*
Y30950D01*
X65299Y31050D01*
X65099D01*
X64999Y30950D01*
Y30750D01*
X65099Y30650D01*
X65699Y31150D02*
Y31050D01*
X65599D01*
X65799D01*
X65699D01*
Y30750D01*
X65799Y30650D01*
X66199Y31150D02*
Y31050D01*
X66099D01*
X66299D01*
X66199D01*
Y30750D01*
X66299Y30650D01*
X66698D02*
X66898D01*
X66998Y30750D01*
Y30950D01*
X66898Y31050D01*
X66698D01*
X66598Y30950D01*
Y30750D01*
X66698Y30650D01*
X67198D02*
Y31050D01*
X67298D01*
X67398Y30950D01*
Y30650D01*
Y30950D01*
X67498Y31050D01*
X67598Y30950D01*
Y30650D01*
X68798Y31150D02*
X68698Y31250D01*
X68498D01*
X68398Y31150D01*
Y31050D01*
X68498Y30950D01*
X68698D01*
X68798Y30850D01*
Y30750D01*
X68698Y30650D01*
X68498D01*
X68398Y30750D01*
X69098Y30650D02*
X69298D01*
X69398Y30750D01*
Y30950D01*
X69298Y31050D01*
X69098D01*
X68998Y30950D01*
Y30750D01*
X69098Y30650D01*
X69597D02*
X69797D01*
X69697D01*
Y31250D01*
X69597D01*
X70497D02*
Y30650D01*
X70197D01*
X70097Y30750D01*
Y30950D01*
X70197Y31050D01*
X70497D01*
X70997Y30650D02*
X70797D01*
X70697Y30750D01*
Y30950D01*
X70797Y31050D01*
X70997D01*
X71097Y30950D01*
Y30850D01*
X70697D01*
X71297Y31050D02*
Y30650D01*
Y30850D01*
X71397Y30950D01*
X71497Y31050D01*
X71597D01*
X64399Y32450D02*
Y31850D01*
X64699D01*
X64799Y31950D01*
Y32050D01*
X64699Y32150D01*
X64399D01*
X64699D01*
X64799Y32250D01*
Y32350D01*
X64699Y32450D01*
X64399D01*
X65099Y31850D02*
X65299D01*
X65399Y31950D01*
Y32150D01*
X65299Y32250D01*
X65099D01*
X64999Y32150D01*
Y31950D01*
X65099Y31850D01*
X65699Y32350D02*
Y32250D01*
X65599D01*
X65799D01*
X65699D01*
Y31950D01*
X65799Y31850D01*
X66199Y32350D02*
Y32250D01*
X66099D01*
X66299D01*
X66199D01*
Y31950D01*
X66299Y31850D01*
X66698D02*
X66898D01*
X66998Y31950D01*
Y32150D01*
X66898Y32250D01*
X66698D01*
X66598Y32150D01*
Y31950D01*
X66698Y31850D01*
X67198D02*
Y32250D01*
X67298D01*
X67398Y32150D01*
Y31850D01*
Y32150D01*
X67498Y32250D01*
X67598Y32150D01*
Y31850D01*
X68398Y32450D02*
Y31850D01*
X68798D01*
X69098Y32250D02*
X69298D01*
X69398Y32150D01*
Y31850D01*
X69098D01*
X68998Y31950D01*
X69098Y32050D01*
X69398D01*
X69597Y32250D02*
Y31950D01*
X69697Y31850D01*
X69997D01*
Y31750D01*
X69897Y31650D01*
X69797D01*
X69997Y31850D02*
Y32250D01*
X70497Y31850D02*
X70297D01*
X70197Y31950D01*
Y32150D01*
X70297Y32250D01*
X70497D01*
X70597Y32150D01*
Y32050D01*
X70197D01*
X70797Y32250D02*
Y31850D01*
Y32050D01*
X70897Y32150D01*
X70997Y32250D01*
X71097D01*
X64399Y33650D02*
Y33050D01*
X64699D01*
X64799Y33150D01*
Y33550D01*
X64699Y33650D01*
X64399D01*
X64999Y33050D02*
X65199D01*
X65099D01*
Y33450D01*
X64999D01*
X65799Y33050D02*
X65599D01*
X65499Y33150D01*
Y33350D01*
X65599Y33450D01*
X65799D01*
X65899Y33350D01*
Y33250D01*
X65499D01*
X66099Y33050D02*
X66299D01*
X66199D01*
Y33650D01*
X66099D01*
X66898Y33050D02*
X66698D01*
X66598Y33150D01*
Y33350D01*
X66698Y33450D01*
X66898D01*
X66998Y33350D01*
Y33250D01*
X66598D01*
X67598Y33450D02*
X67298D01*
X67198Y33350D01*
Y33150D01*
X67298Y33050D01*
X67598D01*
X67898Y33550D02*
Y33450D01*
X67798D01*
X67998D01*
X67898D01*
Y33150D01*
X67998Y33050D01*
X68298Y33450D02*
Y33050D01*
Y33250D01*
X68398Y33350D01*
X68498Y33450D01*
X68598D01*
X68898Y33050D02*
X69098D01*
X68998D01*
Y33450D01*
X68898D01*
X69797D02*
X69497D01*
X69398Y33350D01*
Y33150D01*
X69497Y33050D01*
X69797D01*
X69997Y33550D02*
X70097Y33650D01*
X70297D01*
X70397Y33550D01*
Y33450D01*
X70297Y33350D01*
X70197D01*
X70297D01*
X70397Y33250D01*
Y33150D01*
X70297Y33050D01*
X70097D01*
X69997Y33150D01*
X64399Y34250D02*
Y34850D01*
X64699D01*
X64799Y34750D01*
Y34550D01*
X64699Y34450D01*
X64399D01*
X65099Y34250D02*
X65299D01*
X65399Y34350D01*
Y34550D01*
X65299Y34650D01*
X65099D01*
X64999Y34550D01*
Y34350D01*
X65099Y34250D01*
X65599Y34650D02*
Y34350D01*
X65699Y34250D01*
X65799Y34350D01*
X65899Y34250D01*
X65999Y34350D01*
Y34650D01*
X66498Y34250D02*
X66299D01*
X66199Y34350D01*
Y34550D01*
X66299Y34650D01*
X66498D01*
X66598Y34550D01*
Y34450D01*
X66199D01*
X66798Y34650D02*
Y34250D01*
Y34450D01*
X66898Y34550D01*
X66998Y34650D01*
X67098D01*
X67998Y34250D02*
Y34850D01*
X68298D01*
X68398Y34750D01*
Y34550D01*
X68298Y34450D01*
X67998D01*
X68598Y34250D02*
X68798D01*
X68698D01*
Y34850D01*
X68598D01*
X69198Y34650D02*
X69398D01*
X69497Y34550D01*
Y34250D01*
X69198D01*
X69098Y34350D01*
X69198Y34450D01*
X69497D01*
X69697Y34250D02*
Y34650D01*
X69997D01*
X70097Y34550D01*
Y34250D01*
X70597D02*
X70397D01*
X70297Y34350D01*
Y34550D01*
X70397Y34650D01*
X70597D01*
X70697Y34550D01*
Y34450D01*
X70297D01*
X64399Y36050D02*
Y35450D01*
X64699D01*
X64799Y35550D01*
Y35950D01*
X64699Y36050D01*
X64399D01*
X64999Y35450D02*
X65199D01*
X65099D01*
Y35850D01*
X64999D01*
X65799Y35450D02*
X65599D01*
X65499Y35550D01*
Y35750D01*
X65599Y35850D01*
X65799D01*
X65899Y35750D01*
Y35650D01*
X65499D01*
X66099Y35450D02*
X66299D01*
X66199D01*
Y36050D01*
X66099D01*
X66898Y35450D02*
X66698D01*
X66598Y35550D01*
Y35750D01*
X66698Y35850D01*
X66898D01*
X66998Y35750D01*
Y35650D01*
X66598D01*
X67598Y35850D02*
X67298D01*
X67198Y35750D01*
Y35550D01*
X67298Y35450D01*
X67598D01*
X67898Y35950D02*
Y35850D01*
X67798D01*
X67998D01*
X67898D01*
Y35550D01*
X67998Y35450D01*
X68298Y35850D02*
Y35450D01*
Y35650D01*
X68398Y35750D01*
X68498Y35850D01*
X68598D01*
X68898Y35450D02*
X69098D01*
X68998D01*
Y35850D01*
X68898D01*
X69797D02*
X69497D01*
X69398Y35750D01*
Y35550D01*
X69497Y35450D01*
X69797D01*
X70397D02*
X69997D01*
X70397Y35850D01*
Y35950D01*
X70297Y36050D01*
X70097D01*
X69997Y35950D01*
X64799Y37150D02*
X64699Y37250D01*
X64499D01*
X64399Y37150D01*
Y36750D01*
X64499Y36650D01*
X64699D01*
X64799Y36750D01*
Y36950D01*
X64599D01*
X64999Y37050D02*
Y36650D01*
Y36850D01*
X65099Y36950D01*
X65199Y37050D01*
X65299D01*
X65699Y36650D02*
X65899D01*
X65999Y36750D01*
Y36950D01*
X65899Y37050D01*
X65699D01*
X65599Y36950D01*
Y36750D01*
X65699Y36650D01*
X66199Y37050D02*
Y36750D01*
X66299Y36650D01*
X66598D01*
Y37050D01*
X66798Y36650D02*
Y37050D01*
X67098D01*
X67198Y36950D01*
Y36650D01*
X67798Y37250D02*
Y36650D01*
X67498D01*
X67398Y36750D01*
Y36950D01*
X67498Y37050D01*
X67798D01*
X68598Y36650D02*
Y37250D01*
X68898D01*
X68998Y37150D01*
Y36950D01*
X68898Y36850D01*
X68598D01*
X69198Y36650D02*
X69398D01*
X69298D01*
Y37250D01*
X69198D01*
X69797Y37050D02*
X69997D01*
X70097Y36950D01*
Y36650D01*
X69797D01*
X69697Y36750D01*
X69797Y36850D01*
X70097D01*
X70297Y36650D02*
Y37050D01*
X70597D01*
X70697Y36950D01*
Y36650D01*
X71197D02*
X70997D01*
X70897Y36750D01*
Y36950D01*
X70997Y37050D01*
X71197D01*
X71297Y36950D01*
Y36850D01*
X70897D01*
X64399Y38450D02*
Y37850D01*
X64699D01*
X64799Y37950D01*
Y38350D01*
X64699Y38450D01*
X64399D01*
X64999Y37850D02*
X65199D01*
X65099D01*
Y38250D01*
X64999D01*
X65799Y37850D02*
X65599D01*
X65499Y37950D01*
Y38150D01*
X65599Y38250D01*
X65799D01*
X65899Y38150D01*
Y38050D01*
X65499D01*
X66099Y37850D02*
X66299D01*
X66199D01*
Y38450D01*
X66099D01*
X66898Y37850D02*
X66698D01*
X66598Y37950D01*
Y38150D01*
X66698Y38250D01*
X66898D01*
X66998Y38150D01*
Y38050D01*
X66598D01*
X67598Y38250D02*
X67298D01*
X67198Y38150D01*
Y37950D01*
X67298Y37850D01*
X67598D01*
X67898Y38350D02*
Y38250D01*
X67798D01*
X67998D01*
X67898D01*
Y37950D01*
X67998Y37850D01*
X68298Y38250D02*
Y37850D01*
Y38050D01*
X68398Y38150D01*
X68498Y38250D01*
X68598D01*
X68898Y37850D02*
X69098D01*
X68998D01*
Y38250D01*
X68898D01*
X69797D02*
X69497D01*
X69398Y38150D01*
Y37950D01*
X69497Y37850D01*
X69797D01*
X69997D02*
X70197D01*
X70097D01*
Y38450D01*
X69997Y38350D01*
X64399Y39650D02*
X64799D01*
X64599D01*
Y39050D01*
X65099D02*
X65299D01*
X65399Y39150D01*
Y39350D01*
X65299Y39450D01*
X65099D01*
X64999Y39350D01*
Y39150D01*
X65099Y39050D01*
X65599Y38850D02*
Y39450D01*
X65899D01*
X65999Y39350D01*
Y39150D01*
X65899Y39050D01*
X65599D01*
X66798Y39650D02*
Y39050D01*
X67198D01*
X67498Y39450D02*
X67698D01*
X67798Y39350D01*
Y39050D01*
X67498D01*
X67398Y39150D01*
X67498Y39250D01*
X67798D01*
X67998Y39450D02*
Y39150D01*
X68098Y39050D01*
X68398D01*
Y38950D01*
X68298Y38850D01*
X68198D01*
X68398Y39050D02*
Y39450D01*
X68898Y39050D02*
X68698D01*
X68598Y39150D01*
Y39350D01*
X68698Y39450D01*
X68898D01*
X68998Y39350D01*
Y39250D01*
X68598D01*
X69198Y39450D02*
Y39050D01*
Y39250D01*
X69298Y39350D01*
X69398Y39450D01*
X69497D01*
X64399Y40850D02*
X64799D01*
X64599D01*
Y40250D01*
X65099D02*
X65299D01*
X65399Y40350D01*
Y40550D01*
X65299Y40650D01*
X65099D01*
X64999Y40550D01*
Y40350D01*
X65099Y40250D01*
X65599Y40050D02*
Y40650D01*
X65899D01*
X65999Y40550D01*
Y40350D01*
X65899Y40250D01*
X65599D01*
X67198Y40750D02*
X67098Y40850D01*
X66898D01*
X66798Y40750D01*
Y40650D01*
X66898Y40550D01*
X67098D01*
X67198Y40450D01*
Y40350D01*
X67098Y40250D01*
X66898D01*
X66798Y40350D01*
X67498Y40250D02*
X67698D01*
X67798Y40350D01*
Y40550D01*
X67698Y40650D01*
X67498D01*
X67398Y40550D01*
Y40350D01*
X67498Y40250D01*
X67998D02*
X68198D01*
X68098D01*
Y40850D01*
X67998D01*
X68898D02*
Y40250D01*
X68598D01*
X68498Y40350D01*
Y40550D01*
X68598Y40650D01*
X68898D01*
X69398Y40250D02*
X69198D01*
X69098Y40350D01*
Y40550D01*
X69198Y40650D01*
X69398D01*
X69497Y40550D01*
Y40450D01*
X69098D01*
X69697Y40650D02*
Y40250D01*
Y40450D01*
X69797Y40550D01*
X69897Y40650D01*
X69997D01*
X64399Y42050D02*
X64799D01*
X64599D01*
Y41450D01*
X65099D02*
X65299D01*
X65399Y41550D01*
Y41750D01*
X65299Y41850D01*
X65099D01*
X64999Y41750D01*
Y41550D01*
X65099Y41450D01*
X65599Y41250D02*
Y41850D01*
X65899D01*
X65999Y41750D01*
Y41550D01*
X65899Y41450D01*
X65599D01*
X67098Y42050D02*
X66898D01*
X66798Y41950D01*
Y41550D01*
X66898Y41450D01*
X67098D01*
X67198Y41550D01*
Y41950D01*
X67098Y42050D01*
X67398Y41850D02*
X67598Y41450D01*
X67798Y41850D01*
X68298Y41450D02*
X68098D01*
X67998Y41550D01*
Y41750D01*
X68098Y41850D01*
X68298D01*
X68398Y41750D01*
Y41650D01*
X67998D01*
X68598Y41850D02*
Y41450D01*
Y41650D01*
X68698Y41750D01*
X68798Y41850D01*
X68898D01*
X69198Y41450D02*
X69398D01*
X69298D01*
Y42050D01*
X69198D01*
X69797Y41850D02*
X69997D01*
X70097Y41750D01*
Y41450D01*
X69797D01*
X69697Y41550D01*
X69797Y41650D01*
X70097D01*
X70297Y41850D02*
Y41550D01*
X70397Y41450D01*
X70697D01*
Y41350D01*
X70597Y41250D01*
X70497D01*
X70697Y41450D02*
Y41850D01*
X73697Y42650D02*
Y43250D01*
X73897Y43050D01*
X74096Y43250D01*
Y42650D01*
X74396Y43050D02*
X74596D01*
X74696Y42950D01*
Y42650D01*
X74396D01*
X74296Y42750D01*
X74396Y42850D01*
X74696D01*
X74996Y43150D02*
Y43050D01*
X74896D01*
X75096D01*
X74996D01*
Y42750D01*
X75096Y42650D01*
X75696D02*
X75496D01*
X75396Y42750D01*
Y42950D01*
X75496Y43050D01*
X75696D01*
X75796Y42950D01*
Y42850D01*
X75396D01*
X75996Y43050D02*
Y42650D01*
Y42850D01*
X76096Y42950D01*
X76196Y43050D01*
X76296D01*
X76596Y42650D02*
X76796D01*
X76696D01*
Y43050D01*
X76596D01*
X77195D02*
X77395D01*
X77495Y42950D01*
Y42650D01*
X77195D01*
X77095Y42750D01*
X77195Y42850D01*
X77495D01*
X77695Y42650D02*
X77895D01*
X77795D01*
Y43250D01*
X77695D01*
X74096Y31150D02*
X73996Y31250D01*
X73797D01*
X73697Y31150D01*
Y31050D01*
X73797Y30950D01*
X73996D01*
X74096Y30850D01*
Y30750D01*
X73996Y30650D01*
X73797D01*
X73697Y30750D01*
X74396Y30650D02*
X74596D01*
X74696Y30750D01*
Y30950D01*
X74596Y31050D01*
X74396D01*
X74296Y30950D01*
Y30750D01*
X74396Y30650D01*
X74896D02*
X75096D01*
X74996D01*
Y31250D01*
X74896D01*
X75796D02*
Y30650D01*
X75496D01*
X75396Y30750D01*
Y30950D01*
X75496Y31050D01*
X75796D01*
X76296Y30650D02*
X76096D01*
X75996Y30750D01*
Y30950D01*
X76096Y31050D01*
X76296D01*
X76396Y30950D01*
Y30850D01*
X75996D01*
X76596Y31050D02*
Y30650D01*
Y30850D01*
X76696Y30950D01*
X76796Y31050D01*
X76896D01*
X77795Y30650D02*
Y31250D01*
X78095D01*
X78195Y31150D01*
Y30950D01*
X78095Y30850D01*
X77795D01*
X77995D02*
X78195Y30650D01*
X78695D02*
X78495D01*
X78395Y30750D01*
Y30950D01*
X78495Y31050D01*
X78695D01*
X78795Y30950D01*
Y30850D01*
X78395D01*
X78995Y30650D02*
X79295D01*
X79395Y30750D01*
X79295Y30850D01*
X79095D01*
X78995Y30950D01*
X79095Y31050D01*
X79395D01*
X79595Y30650D02*
X79795D01*
X79695D01*
Y31050D01*
X79595D01*
X80094Y30650D02*
X80394D01*
X80494Y30750D01*
X80394Y30850D01*
X80194D01*
X80094Y30950D01*
X80194Y31050D01*
X80494D01*
X80794Y31150D02*
Y31050D01*
X80694D01*
X80894D01*
X80794D01*
Y30750D01*
X80894Y30650D01*
X74096Y32350D02*
X73996Y32450D01*
X73797D01*
X73697Y32350D01*
Y31950D01*
X73797Y31850D01*
X73996D01*
X74096Y31950D01*
X74396Y31850D02*
X74596D01*
X74696Y31950D01*
Y32150D01*
X74596Y32250D01*
X74396D01*
X74296Y32150D01*
Y31950D01*
X74396Y31850D01*
X74896Y31650D02*
Y32250D01*
X75196D01*
X75296Y32150D01*
Y31950D01*
X75196Y31850D01*
X74896D01*
X75496Y31650D02*
Y32250D01*
X75796D01*
X75896Y32150D01*
Y31950D01*
X75796Y31850D01*
X75496D01*
X76396D02*
X76196D01*
X76096Y31950D01*
Y32150D01*
X76196Y32250D01*
X76396D01*
X76496Y32150D01*
Y32050D01*
X76096D01*
X76696Y32250D02*
Y31850D01*
Y32050D01*
X76796Y32150D01*
X76896Y32250D01*
X76996D01*
X74096Y33650D02*
X73697D01*
Y33350D01*
X73897D01*
X73697D01*
Y33050D01*
X74296D02*
Y33650D01*
X74596D01*
X74696Y33550D01*
Y33350D01*
X74596Y33250D01*
X74296D01*
X74496D02*
X74696Y33050D01*
X74896Y33350D02*
X75296D01*
X75796Y33050D02*
Y33650D01*
X75496Y33350D01*
X75896D01*
X76696Y33650D02*
X77095D01*
X76896D01*
Y33050D01*
X77695Y33550D02*
X77595Y33650D01*
X77395D01*
X77295Y33550D01*
Y33150D01*
X77395Y33050D01*
X77595D01*
X77695Y33150D01*
Y33350D01*
X77495D01*
X77895Y33050D02*
X78095D01*
X77995D01*
Y33650D01*
X77895Y33550D01*
X78395Y33650D02*
X78795D01*
Y33550D01*
X78395Y33150D01*
Y33050D01*
X78995Y33550D02*
X79095Y33650D01*
X79295D01*
X79395Y33550D01*
Y33150D01*
X79295Y33050D01*
X79095D01*
X78995Y33150D01*
Y33550D01*
X74096Y34750D02*
X73996Y34850D01*
X73797D01*
X73697Y34750D01*
Y34350D01*
X73797Y34250D01*
X73996D01*
X74096Y34350D01*
X74396Y34250D02*
X74596D01*
X74696Y34350D01*
Y34550D01*
X74596Y34650D01*
X74396D01*
X74296Y34550D01*
Y34350D01*
X74396Y34250D01*
X74896Y34050D02*
Y34650D01*
X75196D01*
X75296Y34550D01*
Y34350D01*
X75196Y34250D01*
X74896D01*
X75496Y34050D02*
Y34650D01*
X75796D01*
X75896Y34550D01*
Y34350D01*
X75796Y34250D01*
X75496D01*
X76396D02*
X76196D01*
X76096Y34350D01*
Y34550D01*
X76196Y34650D01*
X76396D01*
X76496Y34550D01*
Y34450D01*
X76096D01*
X76696Y34650D02*
Y34250D01*
Y34450D01*
X76796Y34550D01*
X76896Y34650D01*
X76996D01*
X74096Y36050D02*
X73697D01*
Y35750D01*
X73897D01*
X73697D01*
Y35450D01*
X74296D02*
Y36050D01*
X74596D01*
X74696Y35950D01*
Y35750D01*
X74596Y35650D01*
X74296D01*
X74496D02*
X74696Y35450D01*
X74896Y35750D02*
X75296D01*
X75796Y35450D02*
Y36050D01*
X75496Y35750D01*
X75896D01*
X76696Y36050D02*
X77095D01*
X76896D01*
Y35450D01*
X77695Y35950D02*
X77595Y36050D01*
X77395D01*
X77295Y35950D01*
Y35550D01*
X77395Y35450D01*
X77595D01*
X77695Y35550D01*
Y35750D01*
X77495D01*
X77895Y35450D02*
X78095D01*
X77995D01*
Y36050D01*
X77895Y35950D01*
X78395Y36050D02*
X78795D01*
Y35950D01*
X78395Y35550D01*
Y35450D01*
X78995Y35950D02*
X79095Y36050D01*
X79295D01*
X79395Y35950D01*
Y35550D01*
X79295Y35450D01*
X79095D01*
X78995Y35550D01*
Y35950D01*
X74096Y37150D02*
X73996Y37250D01*
X73797D01*
X73697Y37150D01*
Y36750D01*
X73797Y36650D01*
X73996D01*
X74096Y36750D01*
X74396Y36650D02*
X74596D01*
X74696Y36750D01*
Y36950D01*
X74596Y37050D01*
X74396D01*
X74296Y36950D01*
Y36750D01*
X74396Y36650D01*
X74896Y36450D02*
Y37050D01*
X75196D01*
X75296Y36950D01*
Y36750D01*
X75196Y36650D01*
X74896D01*
X75496Y36450D02*
Y37050D01*
X75796D01*
X75896Y36950D01*
Y36750D01*
X75796Y36650D01*
X75496D01*
X76396D02*
X76196D01*
X76096Y36750D01*
Y36950D01*
X76196Y37050D01*
X76396D01*
X76496Y36950D01*
Y36850D01*
X76096D01*
X76696Y37050D02*
Y36650D01*
Y36850D01*
X76796Y36950D01*
X76896Y37050D01*
X76996D01*
X74096Y38450D02*
X73697D01*
Y38150D01*
X73897D01*
X73697D01*
Y37850D01*
X74296D02*
Y38450D01*
X74596D01*
X74696Y38350D01*
Y38150D01*
X74596Y38050D01*
X74296D01*
X74496D02*
X74696Y37850D01*
X74896Y38150D02*
X75296D01*
X75796Y37850D02*
Y38450D01*
X75496Y38150D01*
X75896D01*
X76696Y38450D02*
X77095D01*
X76896D01*
Y37850D01*
X77695Y38350D02*
X77595Y38450D01*
X77395D01*
X77295Y38350D01*
Y37950D01*
X77395Y37850D01*
X77595D01*
X77695Y37950D01*
Y38150D01*
X77495D01*
X77895Y37850D02*
X78095D01*
X77995D01*
Y38450D01*
X77895Y38350D01*
X78395Y38450D02*
X78795D01*
Y38350D01*
X78395Y37950D01*
Y37850D01*
X78995Y38350D02*
X79095Y38450D01*
X79295D01*
X79395Y38350D01*
Y37950D01*
X79295Y37850D01*
X79095D01*
X78995Y37950D01*
Y38350D01*
X74096Y39550D02*
X73996Y39650D01*
X73797D01*
X73697Y39550D01*
Y39150D01*
X73797Y39050D01*
X73996D01*
X74096Y39150D01*
X74396Y39050D02*
X74596D01*
X74696Y39150D01*
Y39350D01*
X74596Y39450D01*
X74396D01*
X74296Y39350D01*
Y39150D01*
X74396Y39050D01*
X74896Y38850D02*
Y39450D01*
X75196D01*
X75296Y39350D01*
Y39150D01*
X75196Y39050D01*
X74896D01*
X75496Y38850D02*
Y39450D01*
X75796D01*
X75896Y39350D01*
Y39150D01*
X75796Y39050D01*
X75496D01*
X76396D02*
X76196D01*
X76096Y39150D01*
Y39350D01*
X76196Y39450D01*
X76396D01*
X76496Y39350D01*
Y39250D01*
X76096D01*
X76696Y39450D02*
Y39050D01*
Y39250D01*
X76796Y39350D01*
X76896Y39450D01*
X76996D01*
X74096Y40750D02*
X73996Y40850D01*
X73797D01*
X73697Y40750D01*
Y40650D01*
X73797Y40550D01*
X73996D01*
X74096Y40450D01*
Y40350D01*
X73996Y40250D01*
X73797D01*
X73697Y40350D01*
X74396Y40250D02*
X74596D01*
X74696Y40350D01*
Y40550D01*
X74596Y40650D01*
X74396D01*
X74296Y40550D01*
Y40350D01*
X74396Y40250D01*
X74896D02*
X75096D01*
X74996D01*
Y40850D01*
X74896D01*
X75796D02*
Y40250D01*
X75496D01*
X75396Y40350D01*
Y40550D01*
X75496Y40650D01*
X75796D01*
X76296Y40250D02*
X76096D01*
X75996Y40350D01*
Y40550D01*
X76096Y40650D01*
X76296D01*
X76396Y40550D01*
Y40450D01*
X75996D01*
X76596Y40650D02*
Y40250D01*
Y40450D01*
X76696Y40550D01*
X76796Y40650D01*
X76896D01*
X77795Y40250D02*
Y40850D01*
X78095D01*
X78195Y40750D01*
Y40550D01*
X78095Y40450D01*
X77795D01*
X77995D02*
X78195Y40250D01*
X78695D02*
X78495D01*
X78395Y40350D01*
Y40550D01*
X78495Y40650D01*
X78695D01*
X78795Y40550D01*
Y40450D01*
X78395D01*
X78995Y40250D02*
X79295D01*
X79395Y40350D01*
X79295Y40450D01*
X79095D01*
X78995Y40550D01*
X79095Y40650D01*
X79395D01*
X79595Y40250D02*
X79795D01*
X79695D01*
Y40650D01*
X79595D01*
X80094Y40250D02*
X80394D01*
X80494Y40350D01*
X80394Y40450D01*
X80194D01*
X80094Y40550D01*
X80194Y40650D01*
X80494D01*
X80794Y40750D02*
Y40650D01*
X80694D01*
X80894D01*
X80794D01*
Y40350D01*
X80894Y40250D01*
X82294Y43250D02*
X82694D01*
X82494D01*
Y42650D01*
X82894Y43250D02*
Y42650D01*
Y42950D01*
X82994Y43050D01*
X83194D01*
X83294Y42950D01*
Y42650D01*
X83494D02*
X83694D01*
X83594D01*
Y43050D01*
X83494D01*
X84394D02*
X84094D01*
X83994Y42950D01*
Y42750D01*
X84094Y42650D01*
X84394D01*
X84593D02*
Y43250D01*
Y42850D02*
X84893Y43050D01*
X84593Y42850D02*
X84893Y42650D01*
X85193D02*
Y43050D01*
X85493D01*
X85593Y42950D01*
Y42650D01*
X86093D02*
X85893D01*
X85793Y42750D01*
Y42950D01*
X85893Y43050D01*
X86093D01*
X86193Y42950D01*
Y42850D01*
X85793D01*
X86393Y42650D02*
X86693D01*
X86793Y42750D01*
X86693Y42850D01*
X86493D01*
X86393Y42950D01*
X86493Y43050D01*
X86793D01*
X86993Y42650D02*
X87293D01*
X87393Y42750D01*
X87293Y42850D01*
X87093D01*
X86993Y42950D01*
X87093Y43050D01*
X87393D01*
X82294Y31150D02*
X82394Y31250D01*
X82594D01*
X82694Y31150D01*
Y30750D01*
X82594Y30650D01*
X82394D01*
X82294Y30750D01*
Y31150D01*
X82894Y30650D02*
Y30750D01*
X82994D01*
Y30650D01*
X82894D01*
X83394Y31150D02*
X83494Y31250D01*
X83694D01*
X83794Y31150D01*
Y30750D01*
X83694Y30650D01*
X83494D01*
X83394Y30750D01*
Y31150D01*
X83994Y30650D02*
X84194D01*
X84094D01*
Y31250D01*
X83994Y31150D01*
X84494D02*
X84593Y31250D01*
X84793D01*
X84893Y31150D01*
Y30750D01*
X84793Y30650D01*
X84593D01*
X84494Y30750D01*
Y31150D01*
X85093Y30650D02*
Y31050D01*
X85193D01*
X85293Y30950D01*
Y30650D01*
Y30950D01*
X85393Y31050D01*
X85493Y30950D01*
Y30650D01*
X85693D02*
Y31050D01*
X85793D01*
X85893Y30950D01*
Y30650D01*
Y30950D01*
X85993Y31050D01*
X86093Y30950D01*
Y30650D01*
X82294Y32350D02*
X82394Y32450D01*
X82594D01*
X82694Y32350D01*
Y31950D01*
X82594Y31850D01*
X82394D01*
X82294Y31950D01*
Y32350D01*
X82894Y31850D02*
Y31950D01*
X82994D01*
Y31850D01*
X82894D01*
X83394Y32350D02*
X83494Y32450D01*
X83694D01*
X83794Y32350D01*
Y31950D01*
X83694Y31850D01*
X83494D01*
X83394Y31950D01*
Y32350D01*
X83994Y32450D02*
X84394D01*
Y32350D01*
X83994Y31950D01*
Y31850D01*
X84593D02*
X84793D01*
X84693D01*
Y32450D01*
X84593Y32350D01*
X85093Y31850D02*
Y32250D01*
X85193D01*
X85293Y32150D01*
Y31850D01*
Y32150D01*
X85393Y32250D01*
X85493Y32150D01*
Y31850D01*
X85693D02*
Y32250D01*
X85793D01*
X85893Y32150D01*
Y31850D01*
Y32150D01*
X85993Y32250D01*
X86093Y32150D01*
Y31850D01*
X82294Y33550D02*
X82394Y33650D01*
X82594D01*
X82694Y33550D01*
Y33150D01*
X82594Y33050D01*
X82394D01*
X82294Y33150D01*
Y33550D01*
X82894Y33050D02*
Y33150D01*
X82994D01*
Y33050D01*
X82894D01*
X83394D02*
X83594D01*
X83494D01*
Y33650D01*
X83394Y33550D01*
X83894D02*
X83994Y33650D01*
X84194D01*
X84294Y33550D01*
Y33450D01*
X84194Y33350D01*
X84094D01*
X84194D01*
X84294Y33250D01*
Y33150D01*
X84194Y33050D01*
X83994D01*
X83894Y33150D01*
X84494Y33650D02*
X84893D01*
Y33550D01*
X84494Y33150D01*
Y33050D01*
X85093D02*
Y33450D01*
X85193D01*
X85293Y33350D01*
Y33050D01*
Y33350D01*
X85393Y33450D01*
X85493Y33350D01*
Y33050D01*
X85693D02*
Y33450D01*
X85793D01*
X85893Y33350D01*
Y33050D01*
Y33350D01*
X85993Y33450D01*
X86093Y33350D01*
Y33050D01*
X82294Y34750D02*
X82394Y34850D01*
X82594D01*
X82694Y34750D01*
Y34350D01*
X82594Y34250D01*
X82394D01*
X82294Y34350D01*
Y34750D01*
X82894Y34250D02*
Y34350D01*
X82994D01*
Y34250D01*
X82894D01*
X83394Y34750D02*
X83494Y34850D01*
X83694D01*
X83794Y34750D01*
Y34350D01*
X83694Y34250D01*
X83494D01*
X83394Y34350D01*
Y34750D01*
X83994D02*
X84094Y34850D01*
X84294D01*
X84394Y34750D01*
Y34650D01*
X84294Y34550D01*
X84194D01*
X84294D01*
X84394Y34450D01*
Y34350D01*
X84294Y34250D01*
X84094D01*
X83994Y34350D01*
X84993Y34850D02*
X84793Y34750D01*
X84593Y34550D01*
Y34350D01*
X84693Y34250D01*
X84893D01*
X84993Y34350D01*
Y34450D01*
X84893Y34550D01*
X84593D01*
X85193Y34250D02*
Y34650D01*
X85293D01*
X85393Y34550D01*
Y34250D01*
Y34550D01*
X85493Y34650D01*
X85593Y34550D01*
Y34250D01*
X85793D02*
Y34650D01*
X85893D01*
X85993Y34550D01*
Y34250D01*
Y34550D01*
X86093Y34650D01*
X86193Y34550D01*
Y34250D01*
X82294Y35450D02*
X82494D01*
X82394D01*
Y36050D01*
X82294Y35950D01*
X82794Y35450D02*
Y35550D01*
X82894D01*
Y35450D01*
X82794D01*
X83294Y35950D02*
X83394Y36050D01*
X83594D01*
X83694Y35950D01*
Y35550D01*
X83594Y35450D01*
X83394D01*
X83294Y35550D01*
Y35950D01*
X83894Y35450D02*
X84094D01*
X83994D01*
Y36050D01*
X83894Y35950D01*
X84793Y36050D02*
X84593Y35950D01*
X84394Y35750D01*
Y35550D01*
X84494Y35450D01*
X84693D01*
X84793Y35550D01*
Y35650D01*
X84693Y35750D01*
X84394D01*
X84993Y35450D02*
Y35850D01*
X85093D01*
X85193Y35750D01*
Y35450D01*
Y35750D01*
X85293Y35850D01*
X85393Y35750D01*
Y35450D01*
X85593D02*
Y35850D01*
X85693D01*
X85793Y35750D01*
Y35450D01*
Y35750D01*
X85893Y35850D01*
X85993Y35750D01*
Y35450D01*
X82294Y37150D02*
X82394Y37250D01*
X82594D01*
X82694Y37150D01*
Y36750D01*
X82594Y36650D01*
X82394D01*
X82294Y36750D01*
Y37150D01*
X82894Y36650D02*
Y36750D01*
X82994D01*
Y36650D01*
X82894D01*
X83394Y37150D02*
X83494Y37250D01*
X83694D01*
X83794Y37150D01*
Y36750D01*
X83694Y36650D01*
X83494D01*
X83394Y36750D01*
Y37150D01*
X83994D02*
X84094Y37250D01*
X84294D01*
X84394Y37150D01*
Y37050D01*
X84294Y36950D01*
X84194D01*
X84294D01*
X84394Y36850D01*
Y36750D01*
X84294Y36650D01*
X84094D01*
X83994Y36750D01*
X84993Y37250D02*
X84793Y37150D01*
X84593Y36950D01*
Y36750D01*
X84693Y36650D01*
X84893D01*
X84993Y36750D01*
Y36850D01*
X84893Y36950D01*
X84593D01*
X85193Y36650D02*
Y37050D01*
X85293D01*
X85393Y36950D01*
Y36650D01*
Y36950D01*
X85493Y37050D01*
X85593Y36950D01*
Y36650D01*
X85793D02*
Y37050D01*
X85893D01*
X85993Y36950D01*
Y36650D01*
Y36950D01*
X86093Y37050D01*
X86193Y36950D01*
Y36650D01*
X82294Y38350D02*
X82394Y38450D01*
X82594D01*
X82694Y38350D01*
Y37950D01*
X82594Y37850D01*
X82394D01*
X82294Y37950D01*
Y38350D01*
X82894Y37850D02*
Y37950D01*
X82994D01*
Y37850D01*
X82894D01*
X83394D02*
X83594D01*
X83494D01*
Y38450D01*
X83394Y38350D01*
X83894D02*
X83994Y38450D01*
X84194D01*
X84294Y38350D01*
Y38250D01*
X84194Y38150D01*
X84094D01*
X84194D01*
X84294Y38050D01*
Y37950D01*
X84194Y37850D01*
X83994D01*
X83894Y37950D01*
X84494Y38450D02*
X84893D01*
Y38350D01*
X84494Y37950D01*
Y37850D01*
X85093D02*
Y38250D01*
X85193D01*
X85293Y38150D01*
Y37850D01*
Y38150D01*
X85393Y38250D01*
X85493Y38150D01*
Y37850D01*
X85693D02*
Y38250D01*
X85793D01*
X85893Y38150D01*
Y37850D01*
Y38150D01*
X85993Y38250D01*
X86093Y38150D01*
Y37850D01*
X82294Y39550D02*
X82394Y39650D01*
X82594D01*
X82694Y39550D01*
Y39150D01*
X82594Y39050D01*
X82394D01*
X82294Y39150D01*
Y39550D01*
X82894Y39050D02*
Y39150D01*
X82994D01*
Y39050D01*
X82894D01*
X83394Y39550D02*
X83494Y39650D01*
X83694D01*
X83794Y39550D01*
Y39150D01*
X83694Y39050D01*
X83494D01*
X83394Y39150D01*
Y39550D01*
X83994Y39650D02*
X84394D01*
Y39550D01*
X83994Y39150D01*
Y39050D01*
X84593D02*
X84793D01*
X84693D01*
Y39650D01*
X84593Y39550D01*
X85093Y39050D02*
Y39450D01*
X85193D01*
X85293Y39350D01*
Y39050D01*
Y39350D01*
X85393Y39450D01*
X85493Y39350D01*
Y39050D01*
X85693D02*
Y39450D01*
X85793D01*
X85893Y39350D01*
Y39050D01*
Y39350D01*
X85993Y39450D01*
X86093Y39350D01*
Y39050D01*
X82294Y40750D02*
X82394Y40850D01*
X82594D01*
X82694Y40750D01*
Y40350D01*
X82594Y40250D01*
X82394D01*
X82294Y40350D01*
Y40750D01*
X82894Y40250D02*
Y40350D01*
X82994D01*
Y40250D01*
X82894D01*
X83394Y40750D02*
X83494Y40850D01*
X83694D01*
X83794Y40750D01*
Y40350D01*
X83694Y40250D01*
X83494D01*
X83394Y40350D01*
Y40750D01*
X83994Y40250D02*
X84194D01*
X84094D01*
Y40850D01*
X83994Y40750D01*
X84494D02*
X84593Y40850D01*
X84793D01*
X84893Y40750D01*
Y40350D01*
X84793Y40250D01*
X84593D01*
X84494Y40350D01*
Y40750D01*
X85093Y40250D02*
Y40650D01*
X85193D01*
X85293Y40550D01*
Y40250D01*
Y40550D01*
X85393Y40650D01*
X85493Y40550D01*
Y40250D01*
X85693D02*
Y40650D01*
X85793D01*
X85893Y40550D01*
Y40250D01*
Y40550D01*
X85993Y40650D01*
X86093Y40550D01*
Y40250D01*
X89192Y43150D02*
X89093Y43250D01*
X88893D01*
X88793Y43150D01*
Y42750D01*
X88893Y42650D01*
X89093D01*
X89192Y42750D01*
X89492Y42650D02*
X89692D01*
X89792Y42750D01*
Y42950D01*
X89692Y43050D01*
X89492D01*
X89392Y42950D01*
Y42750D01*
X89492Y42650D01*
X89992D02*
Y43050D01*
X90292D01*
X90392Y42950D01*
Y42650D01*
X90592D02*
X90892D01*
X90992Y42750D01*
X90892Y42850D01*
X90692D01*
X90592Y42950D01*
X90692Y43050D01*
X90992D01*
X91292Y43150D02*
Y43050D01*
X91192D01*
X91392D01*
X91292D01*
Y42750D01*
X91392Y42650D01*
X91792Y43050D02*
X91992D01*
X92092Y42950D01*
Y42650D01*
X91792D01*
X91692Y42750D01*
X91792Y42850D01*
X92092D01*
X92291Y42650D02*
Y43050D01*
X92591D01*
X92691Y42950D01*
Y42650D01*
X92991Y43150D02*
Y43050D01*
X92891D01*
X93091D01*
X92991D01*
Y42750D01*
X93091Y42650D01*
X88793Y31150D02*
X88893Y31250D01*
X89093D01*
X89192Y31150D01*
Y31050D01*
X89093Y30950D01*
X88993D01*
X89093D01*
X89192Y30850D01*
Y30750D01*
X89093Y30650D01*
X88893D01*
X88793Y30750D01*
X89392Y30650D02*
Y30750D01*
X89492D01*
Y30650D01*
X89392D01*
X90292Y31250D02*
X89892D01*
Y30950D01*
X90092Y31050D01*
X90192D01*
X90292Y30950D01*
Y30750D01*
X90192Y30650D01*
X89992D01*
X89892Y30750D01*
X89093Y33050D02*
Y33650D01*
X88793Y33350D01*
X89192D01*
X89392Y33050D02*
Y33150D01*
X89492D01*
Y33050D01*
X89392D01*
X90292Y33650D02*
X90092Y33550D01*
X89892Y33350D01*
Y33150D01*
X89992Y33050D01*
X90192D01*
X90292Y33150D01*
Y33250D01*
X90192Y33350D01*
X89892D01*
X89093Y35450D02*
Y36050D01*
X88793Y35750D01*
X89192D01*
X89392Y35450D02*
Y35550D01*
X89492D01*
Y35450D01*
X89392D01*
X90292Y36050D02*
X90092Y35950D01*
X89892Y35750D01*
Y35550D01*
X89992Y35450D01*
X90192D01*
X90292Y35550D01*
Y35650D01*
X90192Y35750D01*
X89892D01*
X89093Y37850D02*
Y38450D01*
X88793Y38150D01*
X89192D01*
X89392Y37850D02*
Y37950D01*
X89492D01*
Y37850D01*
X89392D01*
X90292Y38450D02*
X90092Y38350D01*
X89892Y38150D01*
Y37950D01*
X89992Y37850D01*
X90192D01*
X90292Y37950D01*
Y38050D01*
X90192Y38150D01*
X89892D01*
X88793Y40750D02*
X88893Y40850D01*
X89093D01*
X89192Y40750D01*
Y40650D01*
X89093Y40550D01*
X88993D01*
X89093D01*
X89192Y40450D01*
Y40350D01*
X89093Y40250D01*
X88893D01*
X88793Y40350D01*
X89392Y40250D02*
Y40350D01*
X89492D01*
Y40250D01*
X89392D01*
X90292Y40850D02*
X89892D01*
Y40550D01*
X90092Y40650D01*
X90192D01*
X90292Y40550D01*
Y40350D01*
X90192Y40250D01*
X89992D01*
X89892Y40350D01*
X94491Y43250D02*
Y42650D01*
X94791D01*
X94891Y42750D01*
Y42850D01*
X94791Y42950D01*
X94491D01*
X94791D01*
X94891Y43050D01*
Y43150D01*
X94791Y43250D01*
X94491D01*
X95191Y42650D02*
X95391D01*
X95491Y42750D01*
Y42950D01*
X95391Y43050D01*
X95191D01*
X95091Y42950D01*
Y42750D01*
X95191Y42650D01*
X95791Y43050D02*
X95991D01*
X96091Y42950D01*
Y42650D01*
X95791D01*
X95691Y42750D01*
X95791Y42850D01*
X96091D01*
X96291Y43050D02*
Y42650D01*
Y42850D01*
X96391Y42950D01*
X96491Y43050D01*
X96591D01*
X97290Y43250D02*
Y42650D01*
X96990D01*
X96890Y42750D01*
Y42950D01*
X96990Y43050D01*
X97290D01*
X98090Y43250D02*
Y42650D01*
X98490D01*
X98790Y43050D02*
X98990D01*
X99090Y42950D01*
Y42650D01*
X98790D01*
X98690Y42750D01*
X98790Y42850D01*
X99090D01*
X99290Y43050D02*
Y42750D01*
X99390Y42650D01*
X99690D01*
Y42550D01*
X99590Y42450D01*
X99490D01*
X99690Y42650D02*
Y43050D01*
X100189Y42650D02*
X99989D01*
X99889Y42750D01*
Y42950D01*
X99989Y43050D01*
X100189D01*
X100289Y42950D01*
Y42850D01*
X99889D01*
X100489Y43050D02*
Y42650D01*
Y42850D01*
X100589Y42950D01*
X100689Y43050D01*
X100789D01*
X102089Y43150D02*
X101989Y43250D01*
X101789D01*
X101689Y43150D01*
Y43050D01*
X101789Y42950D01*
X101989D01*
X102089Y42850D01*
Y42750D01*
X101989Y42650D01*
X101789D01*
X101689Y42750D01*
X102389Y43150D02*
Y43050D01*
X102289D01*
X102489D01*
X102389D01*
Y42750D01*
X102489Y42650D01*
X102888Y43050D02*
X103088D01*
X103188Y42950D01*
Y42650D01*
X102888D01*
X102789Y42750D01*
X102888Y42850D01*
X103188D01*
X103788Y43050D02*
X103488D01*
X103388Y42950D01*
Y42750D01*
X103488Y42650D01*
X103788D01*
X103988D02*
Y43250D01*
Y42850D02*
X104288Y43050D01*
X103988Y42850D02*
X104288Y42650D01*
D74*
X57700Y43250D02*
X57300D01*
Y42950D01*
X57500D01*
X57300D01*
Y42650D01*
X57900D02*
X58100D01*
X58000D01*
Y43050D01*
X57900D01*
X58400Y42650D02*
X58600D01*
X58500D01*
Y43250D01*
X58400D01*
X59199Y42650D02*
X58999D01*
X58899Y42750D01*
Y42950D01*
X58999Y43050D01*
X59199D01*
X59299Y42950D01*
Y42850D01*
X58899D01*
X57798Y31012D02*
X57698Y31112D01*
X57498D01*
X57398Y31012D01*
Y30613D01*
X57498Y30513D01*
X57698D01*
X57798Y30613D01*
Y30812D01*
X57598D01*
X57998Y31112D02*
Y30513D01*
X58298D01*
X58398Y30613D01*
Y30713D01*
X58298Y30812D01*
X57998D01*
X58298D01*
X58398Y30912D01*
Y31012D01*
X58298Y31112D01*
X57998D01*
X58998Y31012D02*
X58898Y31112D01*
X58698D01*
X58598Y31012D01*
Y30912D01*
X58698Y30812D01*
X58898D01*
X58998Y30713D01*
Y30613D01*
X58898Y30513D01*
X58698D01*
X58598Y30613D01*
X57798Y41812D02*
X57698Y41912D01*
X57498D01*
X57398Y41812D01*
Y41413D01*
X57498Y41313D01*
X57698D01*
X57798Y41413D01*
Y41613D01*
X57598D01*
X57998Y41912D02*
X58398D01*
X58198D01*
Y41313D01*
X58898Y41912D02*
X58698D01*
X58598Y41812D01*
Y41413D01*
X58698Y41313D01*
X58898D01*
X58998Y41413D01*
Y41812D01*
X58898Y41912D01*
X57798Y40612D02*
X57698Y40712D01*
X57498D01*
X57398Y40612D01*
Y40213D01*
X57498Y40113D01*
X57698D01*
X57798Y40213D01*
Y40413D01*
X57598D01*
X57998Y40712D02*
X58398D01*
X58198D01*
Y40113D01*
X58998Y40612D02*
X58898Y40712D01*
X58698D01*
X58598Y40612D01*
Y40512D01*
X58698Y40413D01*
X58898D01*
X58998Y40313D01*
Y40213D01*
X58898Y40113D01*
X58698D01*
X58598Y40213D01*
X57798Y32412D02*
X57698Y32512D01*
X57498D01*
X57398Y32412D01*
Y32013D01*
X57498Y31913D01*
X57698D01*
X57798Y32013D01*
Y32213D01*
X57598D01*
X57998Y32512D02*
Y31913D01*
X58298D01*
X58398Y32013D01*
Y32113D01*
X58298Y32213D01*
X57998D01*
X58298D01*
X58398Y32312D01*
Y32412D01*
X58298Y32512D01*
X57998D01*
X58598D02*
Y31913D01*
X58998D01*
X57798Y39412D02*
X57698Y39512D01*
X57498D01*
X57398Y39412D01*
Y39013D01*
X57498Y38913D01*
X57698D01*
X57798Y39013D01*
Y39213D01*
X57598D01*
X57998Y39512D02*
X58398D01*
X58198D01*
Y38913D01*
X58598Y39512D02*
Y38913D01*
X58998D01*
X57798Y34612D02*
X57698Y34712D01*
X57498D01*
X57398Y34612D01*
Y34213D01*
X57498Y34113D01*
X57698D01*
X57798Y34213D01*
Y34413D01*
X57598D01*
X57998Y34113D02*
Y34712D01*
X58298D01*
X58398Y34612D01*
Y34413D01*
X58298Y34313D01*
X57998D01*
X58998Y34113D02*
X58598D01*
X58998Y34512D01*
Y34612D01*
X58898Y34712D01*
X58698D01*
X58598Y34612D01*
X57798Y37012D02*
X57698Y37112D01*
X57498D01*
X57398Y37012D01*
Y36613D01*
X57498Y36513D01*
X57698D01*
X57798Y36613D01*
Y36813D01*
X57598D01*
X57998Y36513D02*
Y37112D01*
X58298D01*
X58398Y37012D01*
Y36813D01*
X58298Y36713D01*
X57998D01*
X58598Y36513D02*
X58798D01*
X58698D01*
Y37112D01*
X58598Y37012D01*
X55016Y84566D02*
Y85365D01*
X55549Y84566D01*
Y85365D01*
X56215D02*
X55949D01*
X55815Y85232D01*
Y84699D01*
X55949Y84566D01*
X56215D01*
X56349Y84699D01*
Y85232D01*
X56215Y85365D01*
X56615D02*
X57148D01*
X56882D01*
Y84566D01*
X57948Y85365D02*
X57415D01*
Y84566D01*
X57948D01*
X57415Y84966D02*
X57682D01*
X58748Y85232D02*
X58615Y85365D01*
X58348D01*
X58215Y85232D01*
Y85099D01*
X58348Y84966D01*
X58615D01*
X58748Y84832D01*
Y84699D01*
X58615Y84566D01*
X58348D01*
X58215Y84699D01*
X60081Y84566D02*
X59814Y84832D01*
Y85099D01*
X60081Y85365D01*
X60481D02*
Y84699D01*
X60614Y84566D01*
X60881D01*
X61014Y84699D01*
Y85365D01*
X61280Y84566D02*
Y85365D01*
X61814Y84566D01*
Y85365D01*
X62080D02*
Y84566D01*
X62613D01*
X63413Y85365D02*
X62880D01*
Y84566D01*
X63413D01*
X62880Y84966D02*
X63146D01*
X64213Y85232D02*
X64079Y85365D01*
X63813D01*
X63680Y85232D01*
Y85099D01*
X63813Y84966D01*
X64079D01*
X64213Y84832D01*
Y84699D01*
X64079Y84566D01*
X63813D01*
X63680Y84699D01*
X65013Y85232D02*
X64879Y85365D01*
X64613D01*
X64479Y85232D01*
Y85099D01*
X64613Y84966D01*
X64879D01*
X65013Y84832D01*
Y84699D01*
X64879Y84566D01*
X64613D01*
X64479Y84699D01*
X66612Y85232D02*
X66479Y85365D01*
X66212D01*
X66079Y85232D01*
Y85099D01*
X66212Y84966D01*
X66479D01*
X66612Y84832D01*
Y84699D01*
X66479Y84566D01*
X66212D01*
X66079Y84699D01*
X66879Y84566D02*
Y85365D01*
X67278D01*
X67412Y85232D01*
Y84966D01*
X67278Y84832D01*
X66879D01*
X68211Y85365D02*
X67678D01*
Y84566D01*
X68211D01*
X67678Y84966D02*
X67945D01*
X69011Y85232D02*
X68878Y85365D01*
X68611D01*
X68478Y85232D01*
Y84699D01*
X68611Y84566D01*
X68878D01*
X69011Y84699D01*
X69278Y85365D02*
X69544D01*
X69411D01*
Y84566D01*
X69278D01*
X69544D01*
X70477Y85365D02*
X69944D01*
Y84966D01*
X70211D01*
X69944D01*
Y84566D01*
X70744Y85365D02*
X71011D01*
X70877D01*
Y84566D01*
X70744D01*
X71011D01*
X71944Y85365D02*
X71410D01*
Y84566D01*
X71944D01*
X71410Y84966D02*
X71677D01*
X72210Y85365D02*
Y84566D01*
X72610D01*
X72743Y84699D01*
Y85232D01*
X72610Y85365D01*
X72210D01*
X74210D02*
X73943D01*
X73810Y85232D01*
Y84699D01*
X73943Y84566D01*
X74210D01*
X74343Y84699D01*
Y85232D01*
X74210Y85365D01*
X74609D02*
X75143D01*
X74876D01*
Y84566D01*
X75409Y85365D02*
Y84566D01*
Y84966D01*
X75942D01*
Y85365D01*
Y84566D01*
X76742Y85365D02*
X76209D01*
Y84566D01*
X76742D01*
X76209Y84966D02*
X76475D01*
X77009Y84566D02*
Y85365D01*
X77408D01*
X77542Y85232D01*
Y84966D01*
X77408Y84832D01*
X77009D01*
X77275D02*
X77542Y84566D01*
X77808Y85365D02*
Y84566D01*
X78075Y84832D01*
X78342Y84566D01*
Y85365D01*
X78608D02*
X78875D01*
X78741D01*
Y84566D01*
X78608D01*
X78875D01*
X79808Y85232D02*
X79674Y85365D01*
X79408D01*
X79275Y85232D01*
Y85099D01*
X79408Y84966D01*
X79674D01*
X79808Y84832D01*
Y84699D01*
X79674Y84566D01*
X79408D01*
X79275Y84699D01*
X80607Y85365D02*
X80074D01*
Y84566D01*
X80607D01*
X80074Y84966D02*
X80341D01*
X80874Y84566D02*
X81141Y84832D01*
Y85099D01*
X80874Y85365D01*
X56000Y81613D02*
X56267D01*
X56133D01*
Y82413D01*
X56000Y82279D01*
X56666Y81613D02*
Y81746D01*
X56800D01*
Y81613D01*
X56666D01*
X58666Y82413D02*
X58133D01*
Y82013D01*
X58399D01*
X58133D01*
Y81613D01*
X58932D02*
Y82146D01*
X59199Y82413D01*
X59466Y82146D01*
Y81613D01*
Y82013D01*
X58932D01*
X59732Y82413D02*
Y81613D01*
X60132D01*
X60265Y81746D01*
Y81880D01*
X60132Y82013D01*
X59732D01*
X60132D01*
X60265Y82146D01*
Y82279D01*
X60132Y82413D01*
X59732D01*
X60532Y81613D02*
Y82413D01*
X60932D01*
X61065Y82279D01*
Y82013D01*
X60932Y81880D01*
X60532D01*
X60798D02*
X61065Y81613D01*
X61332Y82413D02*
X61598D01*
X61465D01*
Y81613D01*
X61332D01*
X61598D01*
X62531Y82279D02*
X62398Y82413D01*
X62131D01*
X61998Y82279D01*
Y81746D01*
X62131Y81613D01*
X62398D01*
X62531Y81746D01*
X62798Y81613D02*
Y82146D01*
X63064Y82413D01*
X63331Y82146D01*
Y81613D01*
Y82013D01*
X62798D01*
X63598Y82413D02*
X64131D01*
X63864D01*
Y81613D01*
X64930Y82413D02*
X64397D01*
Y81613D01*
X64930D01*
X64397Y82013D02*
X64664D01*
X65997Y81613D02*
Y82413D01*
X66397D01*
X66530Y82279D01*
Y82013D01*
X66397Y81880D01*
X65997D01*
X67330Y82279D02*
X67196Y82413D01*
X66930D01*
X66796Y82279D01*
Y81746D01*
X66930Y81613D01*
X67196D01*
X67330Y81746D01*
X67596Y82413D02*
Y81613D01*
X67996D01*
X68129Y81746D01*
Y81880D01*
X67996Y82013D01*
X67596D01*
X67996D01*
X68129Y82146D01*
Y82279D01*
X67996Y82413D01*
X67596D01*
X69196D02*
X69462D01*
X69329D01*
Y81613D01*
X69196D01*
X69462D01*
X69862D02*
Y82413D01*
X70395Y81613D01*
Y82413D01*
X71462Y81613D02*
Y82146D01*
X71728Y82413D01*
X71995Y82146D01*
Y81613D01*
Y82013D01*
X71462D01*
X72795Y82279D02*
X72661Y82413D01*
X72395D01*
X72261Y82279D01*
Y81746D01*
X72395Y81613D01*
X72661D01*
X72795Y81746D01*
X73594Y82279D02*
X73461Y82413D01*
X73194D01*
X73061Y82279D01*
Y81746D01*
X73194Y81613D01*
X73461D01*
X73594Y81746D01*
X74261Y82413D02*
X73994D01*
X73861Y82279D01*
Y81746D01*
X73994Y81613D01*
X74261D01*
X74394Y81746D01*
Y82279D01*
X74261Y82413D01*
X74661Y81613D02*
Y82413D01*
X75061D01*
X75194Y82279D01*
Y82013D01*
X75061Y81880D01*
X74661D01*
X74927D02*
X75194Y81613D01*
X75460Y82413D02*
Y81613D01*
X75860D01*
X75994Y81746D01*
Y82279D01*
X75860Y82413D01*
X75460D01*
X76260Y81613D02*
Y82146D01*
X76527Y82413D01*
X76793Y82146D01*
Y81613D01*
Y82013D01*
X76260D01*
X77060Y81613D02*
Y82413D01*
X77593Y81613D01*
Y82413D01*
X78393Y82279D02*
X78259Y82413D01*
X77993D01*
X77860Y82279D01*
Y81746D01*
X77993Y81613D01*
X78259D01*
X78393Y81746D01*
X79192Y82413D02*
X78659D01*
Y81613D01*
X79192D01*
X78659Y82013D02*
X78926D01*
X80259Y82413D02*
Y81613D01*
X80525Y81880D01*
X80792Y81613D01*
Y82413D01*
X81059D02*
X81325D01*
X81192D01*
Y81613D01*
X81059D01*
X81325D01*
X81725Y82413D02*
X82258D01*
X81992D01*
Y81613D01*
X82525Y82413D02*
Y81613D01*
Y82013D01*
X83058D01*
Y82413D01*
Y81613D01*
X84124Y82413D02*
X84391D01*
X84258D01*
Y81613D01*
X84124D01*
X84391D01*
X84791D02*
Y82413D01*
X85191D01*
X85324Y82279D01*
Y82013D01*
X85191Y81880D01*
X84791D01*
X86124Y82279D02*
X85990Y82413D01*
X85724D01*
X85590Y82279D01*
Y81746D01*
X85724Y81613D01*
X85990D01*
X86124Y81746D01*
X86390Y82013D02*
X86923D01*
X87190Y81613D02*
Y82146D01*
X87456Y82413D01*
X87723Y82146D01*
Y81613D01*
Y82013D01*
X87190D01*
X87990D02*
X88523D01*
X89323Y82413D02*
X89056Y82279D01*
X88789Y82013D01*
Y81746D01*
X88923Y81613D01*
X89189D01*
X89323Y81746D01*
Y81880D01*
X89189Y82013D01*
X88789D01*
X89589Y82279D02*
X89722Y82413D01*
X89989D01*
X90122Y82279D01*
Y81746D01*
X89989Y81613D01*
X89722D01*
X89589Y81746D01*
Y82279D01*
X90389D02*
X90522Y82413D01*
X90789D01*
X90922Y82279D01*
Y81746D01*
X90789Y81613D01*
X90522D01*
X90389Y81746D01*
Y82279D01*
X92522D02*
X92388Y82413D01*
X92122D01*
X91988Y82279D01*
Y81746D01*
X92122Y81613D01*
X92388D01*
X92522Y81746D01*
X92788Y82413D02*
Y81613D01*
X93321D01*
X93588D02*
Y82146D01*
X93854Y82413D01*
X94121Y82146D01*
Y81613D01*
Y82013D01*
X93588D01*
X94921Y82279D02*
X94787Y82413D01*
X94521D01*
X94388Y82279D01*
Y82146D01*
X94521Y82013D01*
X94787D01*
X94921Y81880D01*
Y81746D01*
X94787Y81613D01*
X94521D01*
X94388Y81746D01*
X95720Y82279D02*
X95587Y82413D01*
X95321D01*
X95187Y82279D01*
Y82146D01*
X95321Y82013D01*
X95587D01*
X95720Y81880D01*
Y81746D01*
X95587Y81613D01*
X95321D01*
X95187Y81746D01*
X97320Y81613D02*
X96787D01*
X97320Y82146D01*
Y82279D01*
X97187Y82413D01*
X96920D01*
X96787Y82279D01*
X98653Y81613D02*
X98386Y81880D01*
Y82146D01*
X98653Y82413D01*
X99053D02*
Y81613D01*
X99586D01*
X99852D02*
Y82146D01*
X100119Y82413D01*
X100386Y82146D01*
Y81613D01*
Y82013D01*
X99852D01*
X100652Y82413D02*
X101185D01*
X100919D01*
Y81613D01*
X101985Y82413D02*
X101452D01*
Y81613D01*
X101985D01*
X101452Y82013D02*
X101719D01*
X102785Y82279D02*
X102652Y82413D01*
X102385D01*
X102252Y82279D01*
Y82146D01*
X102385Y82013D01*
X102652D01*
X102785Y81880D01*
Y81746D01*
X102652Y81613D01*
X102385D01*
X102252Y81746D01*
X103051Y82413D02*
X103585D01*
X103318D01*
Y81613D01*
X104651D02*
Y82413D01*
X105051D01*
X105184Y82279D01*
Y82013D01*
X105051Y81880D01*
X104651D01*
X104917D02*
X105184Y81613D01*
X105984Y82413D02*
X105451D01*
Y81613D01*
X105984D01*
X105451Y82013D02*
X105717D01*
X106250Y82413D02*
Y81880D01*
X106517Y81613D01*
X106784Y81880D01*
Y82413D01*
X107050D02*
X107317D01*
X107183D01*
Y81613D01*
X107050D01*
X107317D01*
X108250Y82279D02*
X108116Y82413D01*
X107850D01*
X107717Y82279D01*
Y82146D01*
X107850Y82013D01*
X108116D01*
X108250Y81880D01*
Y81746D01*
X108116Y81613D01*
X107850D01*
X107717Y81746D01*
X108516Y82413D02*
X108783D01*
X108650D01*
Y81613D01*
X108516D01*
X108783D01*
X109583Y82413D02*
X109316D01*
X109183Y82279D01*
Y81746D01*
X109316Y81613D01*
X109583D01*
X109716Y81746D01*
Y82279D01*
X109583Y82413D01*
X109983Y81613D02*
Y82413D01*
X110516Y81613D01*
Y82413D01*
X110782Y81613D02*
X111049Y81880D01*
Y82146D01*
X110782Y82413D01*
X56533Y78660D02*
X56000D01*
X56533Y79193D01*
Y79327D01*
X56400Y79460D01*
X56133D01*
X56000Y79327D01*
X56800Y78660D02*
Y78794D01*
X56933D01*
Y78660D01*
X56800D01*
X58266Y79460D02*
X58799D01*
X58533D01*
Y78660D01*
X59066Y79460D02*
Y78660D01*
Y79060D01*
X59599D01*
Y79460D01*
Y78660D01*
X60399Y79460D02*
X59865D01*
Y78660D01*
X60399D01*
X59865Y79060D02*
X60132D01*
X61465Y78660D02*
Y79460D01*
X61865D01*
X61998Y79327D01*
Y79060D01*
X61865Y78927D01*
X61465D01*
X62798Y79327D02*
X62665Y79460D01*
X62398D01*
X62265Y79327D01*
Y78794D01*
X62398Y78660D01*
X62665D01*
X62798Y78794D01*
X63064Y79460D02*
Y78660D01*
X63464D01*
X63598Y78794D01*
Y78927D01*
X63464Y79060D01*
X63064D01*
X63464D01*
X63598Y79193D01*
Y79327D01*
X63464Y79460D01*
X63064D01*
X64664Y78660D02*
Y79460D01*
X64930Y79193D01*
X65197Y79460D01*
Y78660D01*
X65464Y79460D02*
Y78794D01*
X65597Y78660D01*
X65863D01*
X65997Y78794D01*
Y79460D01*
X66796Y79327D02*
X66663Y79460D01*
X66397D01*
X66263Y79327D01*
Y79193D01*
X66397Y79060D01*
X66663D01*
X66796Y78927D01*
Y78794D01*
X66663Y78660D01*
X66397D01*
X66263Y78794D01*
X67063Y79460D02*
X67596D01*
X67330D01*
Y78660D01*
X68663Y79460D02*
Y78660D01*
X69062D01*
X69196Y78794D01*
Y78927D01*
X69062Y79060D01*
X68663D01*
X69062D01*
X69196Y79193D01*
Y79327D01*
X69062Y79460D01*
X68663D01*
X69995D02*
X69462D01*
Y78660D01*
X69995D01*
X69462Y79060D02*
X69729D01*
X71062Y79460D02*
Y78660D01*
X71595D01*
X72395Y79460D02*
X71862D01*
Y78660D01*
X72395D01*
X71862Y79060D02*
X72128D01*
X72661Y78660D02*
Y79193D01*
X72928Y79460D01*
X73194Y79193D01*
Y78660D01*
Y79060D01*
X72661D01*
X73461Y79460D02*
Y78660D01*
X73861D01*
X73994Y78794D01*
Y79327D01*
X73861Y79460D01*
X73461D01*
X75594D02*
X75060D01*
Y79060D01*
X75327D01*
X75060D01*
Y78660D01*
X75860D02*
Y79460D01*
X76260D01*
X76393Y79327D01*
Y79060D01*
X76260Y78927D01*
X75860D01*
X76127D02*
X76393Y78660D01*
X77193Y79460D02*
X76660D01*
Y78660D01*
X77193D01*
X76660Y79060D02*
X76927D01*
X77993Y79460D02*
X77460D01*
Y78660D01*
X77993D01*
X77460Y79060D02*
X77726D01*
X79059Y78660D02*
Y79193D01*
X79326Y79460D01*
X79592Y79193D01*
Y78660D01*
Y79060D01*
X79059D01*
X80392Y79327D02*
X80259Y79460D01*
X79992D01*
X79859Y79327D01*
Y79193D01*
X79992Y79060D01*
X80259D01*
X80392Y78927D01*
Y78794D01*
X80259Y78660D01*
X79992D01*
X79859Y78794D01*
X81192Y79327D02*
X81059Y79460D01*
X80792D01*
X80659Y79327D01*
Y79193D01*
X80792Y79060D01*
X81059D01*
X81192Y78927D01*
Y78794D01*
X81059Y78660D01*
X80792D01*
X80659Y78794D01*
X81992Y79460D02*
X81458D01*
Y78660D01*
X81992D01*
X81458Y79060D02*
X81725D01*
X82258Y78660D02*
Y79460D01*
X82525Y79193D01*
X82791Y79460D01*
Y78660D01*
X83058Y79460D02*
Y78660D01*
X83458D01*
X83591Y78794D01*
Y78927D01*
X83458Y79060D01*
X83058D01*
X83458D01*
X83591Y79193D01*
Y79327D01*
X83458Y79460D01*
X83058D01*
X83858D02*
Y78660D01*
X84391D01*
X84657Y79460D02*
Y79327D01*
X84924Y79060D01*
X85191Y79327D01*
Y79460D01*
X84924Y79060D02*
Y78660D01*
X86257D02*
Y79460D01*
X86657D01*
X86790Y79327D01*
Y79060D01*
X86657Y78927D01*
X86257D01*
X87057Y78660D02*
Y79460D01*
X87456D01*
X87590Y79327D01*
Y79060D01*
X87456Y78927D01*
X87057D01*
X87323D02*
X87590Y78660D01*
X88256Y79460D02*
X87990D01*
X87856Y79327D01*
Y78794D01*
X87990Y78660D01*
X88256D01*
X88390Y78794D01*
Y79327D01*
X88256Y79460D01*
X89189Y79327D02*
X89056Y79460D01*
X88789D01*
X88656Y79327D01*
Y78794D01*
X88789Y78660D01*
X89056D01*
X89189Y78794D01*
X89989Y79460D02*
X89456D01*
Y78660D01*
X89989D01*
X89456Y79060D02*
X89722D01*
X90789Y79327D02*
X90655Y79460D01*
X90389D01*
X90256Y79327D01*
Y79193D01*
X90389Y79060D01*
X90655D01*
X90789Y78927D01*
Y78794D01*
X90655Y78660D01*
X90389D01*
X90256Y78794D01*
X91588Y79327D02*
X91455Y79460D01*
X91189D01*
X91055Y79327D01*
Y79193D01*
X91189Y79060D01*
X91455D01*
X91588Y78927D01*
Y78794D01*
X91455Y78660D01*
X91189D01*
X91055Y78794D01*
X93188Y79327D02*
X93055Y79460D01*
X92788D01*
X92655Y79327D01*
Y78794D01*
X92788Y78660D01*
X93055D01*
X93188Y78794D01*
X93854Y79460D02*
X93588D01*
X93455Y79327D01*
Y78794D01*
X93588Y78660D01*
X93854D01*
X93988Y78794D01*
Y79327D01*
X93854Y79460D01*
X94254Y78660D02*
Y79460D01*
X94521Y79193D01*
X94787Y79460D01*
Y78660D01*
X95054D02*
Y79460D01*
X95454D01*
X95587Y79327D01*
Y79060D01*
X95454Y78927D01*
X95054D01*
X95854Y78660D02*
Y79193D01*
X96120Y79460D01*
X96387Y79193D01*
Y78660D01*
Y79060D01*
X95854D01*
X96653Y79460D02*
X97187D01*
X96920D01*
Y78660D01*
X97453Y79460D02*
X97720D01*
X97587D01*
Y78660D01*
X97453D01*
X97720D01*
X98120Y79460D02*
Y78660D01*
X98520D01*
X98653Y78794D01*
Y78927D01*
X98520Y79060D01*
X98120D01*
X98520D01*
X98653Y79193D01*
Y79327D01*
X98520Y79460D01*
X98120D01*
X98919D02*
Y78660D01*
X99453D01*
X100252Y79460D02*
X99719D01*
Y78660D01*
X100252D01*
X99719Y79060D02*
X99986D01*
X100519Y78660D02*
Y78794D01*
X100652D01*
Y78660D01*
X100519D01*
X56000Y75390D02*
X56133Y75523D01*
X56400D01*
X56533Y75390D01*
Y75256D01*
X56400Y75123D01*
X56267D01*
X56400D01*
X56533Y74990D01*
Y74857D01*
X56400Y74723D01*
X56133D01*
X56000Y74857D01*
X56800Y74723D02*
Y74857D01*
X56933D01*
Y74723D01*
X56800D01*
X58266Y75523D02*
Y74723D01*
X58799D01*
X59066D02*
Y75256D01*
X59332Y75523D01*
X59599Y75256D01*
Y74723D01*
Y75123D01*
X59066D01*
X59865Y74723D02*
Y75523D01*
X60132Y75256D01*
X60399Y75523D01*
Y74723D01*
X60665Y75523D02*
X60932D01*
X60798D01*
Y74723D01*
X60665D01*
X60932D01*
X61332D02*
Y75523D01*
X61865Y74723D01*
Y75523D01*
X62131Y74723D02*
Y75256D01*
X62398Y75523D01*
X62665Y75256D01*
Y74723D01*
Y75123D01*
X62131D01*
X62931Y75523D02*
X63464D01*
X63198D01*
Y74723D01*
X64264Y75523D02*
X63731D01*
Y74723D01*
X64264D01*
X63731Y75123D02*
X63997D01*
X65330Y74723D02*
Y75256D01*
X65597Y75523D01*
X65863Y75256D01*
Y74723D01*
Y75123D01*
X65330D01*
X66130Y74723D02*
Y75523D01*
X66663Y74723D01*
Y75523D01*
X66930D02*
Y74723D01*
X67330D01*
X67463Y74857D01*
Y75390D01*
X67330Y75523D01*
X66930D01*
X68529Y74723D02*
Y75523D01*
X68929D01*
X69062Y75390D01*
Y75123D01*
X68929Y74990D01*
X68529D01*
X69329Y74723D02*
Y75523D01*
X69729D01*
X69862Y75390D01*
Y75123D01*
X69729Y74990D01*
X69329D01*
X69596D02*
X69862Y74723D01*
X70662Y75523D02*
X70129D01*
Y74723D01*
X70662D01*
X70129Y75123D02*
X70395D01*
X70929Y74723D02*
Y75523D01*
X71328D01*
X71462Y75390D01*
Y75123D01*
X71328Y74990D01*
X70929D01*
X71728Y74723D02*
Y75523D01*
X72128D01*
X72261Y75390D01*
Y75123D01*
X72128Y74990D01*
X71728D01*
X71995D02*
X72261Y74723D01*
X73061Y75523D02*
X72528D01*
Y74723D01*
X73061D01*
X72528Y75123D02*
X72795D01*
X73861Y75390D02*
X73728Y75523D01*
X73461D01*
X73328Y75390D01*
Y74857D01*
X73461Y74723D01*
X73728D01*
X73861Y74857D01*
Y75123D01*
X73594D01*
X74927Y75523D02*
X75460D01*
X75194D01*
Y74723D01*
X76127Y75523D02*
X75860D01*
X75727Y75390D01*
Y74857D01*
X75860Y74723D01*
X76127D01*
X76260Y74857D01*
Y75390D01*
X76127Y75523D01*
X77326D02*
Y74723D01*
X77726D01*
X77860Y74857D01*
Y74990D01*
X77726Y75123D01*
X77326D01*
X77726D01*
X77860Y75256D01*
Y75390D01*
X77726Y75523D01*
X77326D01*
X78659D02*
X78126D01*
Y74723D01*
X78659D01*
X78126Y75123D02*
X78393D01*
X80259Y75523D02*
X79726D01*
Y75123D01*
X79992D01*
X79726D01*
Y74723D01*
X80525D02*
Y75523D01*
X80925D01*
X81059Y75390D01*
Y75123D01*
X80925Y74990D01*
X80525D01*
X80792D02*
X81059Y74723D01*
X81725D02*
Y75523D01*
X81325Y75123D01*
X81858D01*
X82925Y75523D02*
X83458D01*
X83191D01*
Y74723D01*
X84258Y75390D02*
X84124Y75523D01*
X83858D01*
X83724Y75390D01*
Y74857D01*
X83858Y74723D01*
X84124D01*
X84258Y74857D01*
Y75123D01*
X83991D01*
X84524Y74723D02*
X84791D01*
X84657D01*
Y75523D01*
X84524Y75390D01*
X85191Y75523D02*
X85724D01*
Y75390D01*
X85191Y74857D01*
Y74723D01*
X85990Y75390D02*
X86124Y75523D01*
X86390D01*
X86523Y75390D01*
Y74857D01*
X86390Y74723D01*
X86124D01*
X85990Y74857D01*
Y75390D01*
X56400Y71770D02*
Y72570D01*
X56000Y72170D01*
X56533D01*
X56800Y71770D02*
Y71904D01*
X56933D01*
Y71770D01*
X56800D01*
X58266D02*
Y72570D01*
X58666D01*
X58799Y72437D01*
Y72170D01*
X58666Y72037D01*
X58266D01*
X59066Y72570D02*
Y71770D01*
X59599D01*
X59865D02*
Y72304D01*
X60132Y72570D01*
X60399Y72304D01*
Y71770D01*
Y72170D01*
X59865D01*
X60665Y72570D02*
X61198D01*
X60932D01*
Y71770D01*
X61465Y72570D02*
X61731D01*
X61598D01*
Y71770D01*
X61465D01*
X61731D01*
X62131D02*
Y72570D01*
X62665Y71770D01*
Y72570D01*
X63464Y72437D02*
X63331Y72570D01*
X63064D01*
X62931Y72437D01*
Y71904D01*
X63064Y71770D01*
X63331D01*
X63464Y71904D01*
Y72170D01*
X63198D01*
X65064Y72570D02*
X64531D01*
Y72170D01*
X64797D01*
X64531D01*
Y71770D01*
X65330Y72570D02*
X65597D01*
X65464D01*
Y71770D01*
X65330D01*
X65597D01*
X65997D02*
Y72570D01*
X66530Y71770D01*
Y72570D01*
X66796D02*
X67063D01*
X66930D01*
Y71770D01*
X66796D01*
X67063D01*
X67996Y72437D02*
X67863Y72570D01*
X67596D01*
X67463Y72437D01*
Y72304D01*
X67596Y72170D01*
X67863D01*
X67996Y72037D01*
Y71904D01*
X67863Y71770D01*
X67596D01*
X67463Y71904D01*
X68263Y72570D02*
Y71770D01*
Y72170D01*
X68796D01*
Y72570D01*
Y71770D01*
X69862Y72170D02*
X70395D01*
X71462Y72570D02*
Y71770D01*
X71862D01*
X71995Y71904D01*
Y72037D01*
X71862Y72170D01*
X71462D01*
X71862D01*
X71995Y72304D01*
Y72437D01*
X71862Y72570D01*
X71462D01*
X72661D02*
X72395D01*
X72261Y72437D01*
Y71904D01*
X72395Y71770D01*
X72661D01*
X72795Y71904D01*
Y72437D01*
X72661Y72570D01*
X73061D02*
X73594D01*
X73328D01*
Y71770D01*
X73861Y72570D02*
Y71770D01*
Y72170D01*
X74394D01*
Y72570D01*
Y71770D01*
X75994Y72437D02*
X75860Y72570D01*
X75594D01*
X75460Y72437D01*
Y72304D01*
X75594Y72170D01*
X75860D01*
X75994Y72037D01*
Y71904D01*
X75860Y71770D01*
X75594D01*
X75460Y71904D01*
X76260Y72570D02*
X76527D01*
X76393D01*
Y71770D01*
X76260D01*
X76527D01*
X76927Y72570D02*
Y71770D01*
X77326D01*
X77460Y71904D01*
Y72437D01*
X77326Y72570D01*
X76927D01*
X78259D02*
X77726D01*
Y71770D01*
X78259D01*
X77726Y72170D02*
X77993D01*
X79059Y72437D02*
X78926Y72570D01*
X78659D01*
X78526Y72437D01*
Y72304D01*
X78659Y72170D01*
X78926D01*
X79059Y72037D01*
Y71904D01*
X78926Y71770D01*
X78659D01*
X78526Y71904D01*
X80659Y72570D02*
X80126D01*
Y71770D01*
X80659D01*
X80126Y72170D02*
X80392D01*
X80925Y71770D02*
Y72570D01*
X81458Y71770D01*
Y72570D01*
X81725D02*
X81992D01*
X81858D01*
Y71770D01*
X81725D01*
X81992D01*
X82925Y72437D02*
X82791Y72570D01*
X82525D01*
X82391Y72437D01*
Y71904D01*
X82525Y71770D01*
X82791D01*
X82925Y71904D01*
Y72170D01*
X82658D01*
X84524Y72437D02*
X84391Y72570D01*
X84124D01*
X83991Y72437D01*
Y71904D01*
X84124Y71770D01*
X84391D01*
X84524Y71904D01*
Y72170D01*
X84258D01*
X85191Y72570D02*
X84924D01*
X84791Y72437D01*
Y71904D01*
X84924Y71770D01*
X85191D01*
X85324Y71904D01*
Y72437D01*
X85191Y72570D01*
X85590D02*
Y71770D01*
X86124D01*
X86390Y72570D02*
Y71770D01*
X86790D01*
X86923Y71904D01*
Y72437D01*
X86790Y72570D01*
X86390D01*
X87990Y71770D02*
Y72570D01*
X88390D01*
X88523Y72437D01*
Y72170D01*
X88390Y72037D01*
X87990D01*
X88789Y72570D02*
Y71770D01*
X89323D01*
X89589D02*
Y72304D01*
X89856Y72570D01*
X90122Y72304D01*
Y71770D01*
Y72170D01*
X89589D01*
X90389Y72570D02*
X90922D01*
X90655D01*
Y71770D01*
X91722Y72570D02*
X91189D01*
Y71770D01*
X91722D01*
X91189Y72170D02*
X91455D01*
X91988Y72570D02*
Y71770D01*
X92388D01*
X92522Y71904D01*
Y72437D01*
X92388Y72570D01*
X91988D01*
X56533Y69617D02*
X56000D01*
Y69218D01*
X56267Y69351D01*
X56400D01*
X56533Y69218D01*
Y68951D01*
X56400Y68818D01*
X56133D01*
X56000Y68951D01*
X56800Y68818D02*
Y68951D01*
X56933D01*
Y68818D01*
X56800D01*
X58799Y69484D02*
X58666Y69617D01*
X58399D01*
X58266Y69484D01*
Y69351D01*
X58399Y69218D01*
X58666D01*
X58799Y69084D01*
Y68951D01*
X58666Y68818D01*
X58399D01*
X58266Y68951D01*
X59466Y69617D02*
X59199D01*
X59066Y69484D01*
Y68951D01*
X59199Y68818D01*
X59466D01*
X59599Y68951D01*
Y69484D01*
X59466Y69617D01*
X59865D02*
Y68818D01*
X60399D01*
X60665Y69617D02*
Y68818D01*
X61065D01*
X61198Y68951D01*
Y69484D01*
X61065Y69617D01*
X60665D01*
X61998D02*
X61465D01*
Y68818D01*
X61998D01*
X61465Y69218D02*
X61731D01*
X62265Y68818D02*
Y69617D01*
X62665D01*
X62798Y69484D01*
Y69218D01*
X62665Y69084D01*
X62265D01*
X62531D02*
X62798Y68818D01*
X63064D02*
Y69617D01*
X63331Y69351D01*
X63598Y69617D01*
Y68818D01*
X63864D02*
Y69351D01*
X64131Y69617D01*
X64397Y69351D01*
Y68818D01*
Y69218D01*
X63864D01*
X65197Y69484D02*
X65064Y69617D01*
X64797D01*
X64664Y69484D01*
Y69351D01*
X64797Y69218D01*
X65064D01*
X65197Y69084D01*
Y68951D01*
X65064Y68818D01*
X64797D01*
X64664Y68951D01*
X65464Y69617D02*
Y68818D01*
Y69084D01*
X65997Y69617D01*
X65597Y69218D01*
X65997Y68818D01*
X67063Y69218D02*
X67596D01*
X68663Y69617D02*
Y68818D01*
X69062D01*
X69196Y68951D01*
Y69084D01*
X69062Y69218D01*
X68663D01*
X69062D01*
X69196Y69351D01*
Y69484D01*
X69062Y69617D01*
X68663D01*
X69862D02*
X69596D01*
X69462Y69484D01*
Y68951D01*
X69596Y68818D01*
X69862D01*
X69995Y68951D01*
Y69484D01*
X69862Y69617D01*
X70262D02*
X70795D01*
X70529D01*
Y68818D01*
X71062Y69617D02*
Y68818D01*
Y69218D01*
X71595D01*
Y69617D01*
Y68818D01*
X73194Y69484D02*
X73061Y69617D01*
X72795D01*
X72661Y69484D01*
Y69351D01*
X72795Y69218D01*
X73061D01*
X73194Y69084D01*
Y68951D01*
X73061Y68818D01*
X72795D01*
X72661Y68951D01*
X73461Y69617D02*
X73728D01*
X73594D01*
Y68818D01*
X73461D01*
X73728D01*
X74127Y69617D02*
Y68818D01*
X74527D01*
X74661Y68951D01*
Y69484D01*
X74527Y69617D01*
X74127D01*
X75460D02*
X74927D01*
Y68818D01*
X75460D01*
X74927Y69218D02*
X75194D01*
X76260Y69484D02*
X76127Y69617D01*
X75860D01*
X75727Y69484D01*
Y69351D01*
X75860Y69218D01*
X76127D01*
X76260Y69084D01*
Y68951D01*
X76127Y68818D01*
X75860D01*
X75727Y68951D01*
X77860Y69484D02*
X77726Y69617D01*
X77460D01*
X77326Y69484D01*
Y68951D01*
X77460Y68818D01*
X77726D01*
X77860Y68951D01*
Y69218D01*
X77593D01*
X78126Y68818D02*
Y69617D01*
X78526D01*
X78659Y69484D01*
Y69218D01*
X78526Y69084D01*
X78126D01*
X78393D02*
X78659Y68818D01*
X79459Y69617D02*
X78926D01*
Y68818D01*
X79459D01*
X78926Y69218D02*
X79192D01*
X80259Y69617D02*
X79726D01*
Y68818D01*
X80259D01*
X79726Y69218D02*
X79992D01*
X80525Y68818D02*
Y69617D01*
X81059Y68818D01*
Y69617D01*
X56000Y60720D02*
X56133Y60854D01*
X56400D01*
X56533Y60720D01*
Y60587D01*
X56400Y60454D01*
X56533Y60321D01*
Y60187D01*
X56400Y60054D01*
X56133D01*
X56000Y60187D01*
Y60321D01*
X56133Y60454D01*
X56000Y60587D01*
Y60720D01*
X56133Y60454D02*
X56400D01*
X56800Y60054D02*
Y60187D01*
X56933D01*
Y60054D01*
X56800D01*
X58799Y60720D02*
X58666Y60854D01*
X58399D01*
X58266Y60720D01*
Y60587D01*
X58399Y60454D01*
X58666D01*
X58799Y60321D01*
Y60187D01*
X58666Y60054D01*
X58399D01*
X58266Y60187D01*
X59066Y60854D02*
X59332D01*
X59199D01*
Y60054D01*
X59066D01*
X59332D01*
X59732Y60854D02*
Y60054D01*
X60265D01*
X60532Y60854D02*
Y60054D01*
Y60321D01*
X61065Y60854D01*
X60665Y60454D01*
X61065Y60054D01*
X61865Y60720D02*
X61731Y60854D01*
X61465D01*
X61332Y60720D01*
Y60587D01*
X61465Y60454D01*
X61731D01*
X61865Y60321D01*
Y60187D01*
X61731Y60054D01*
X61465D01*
X61332Y60187D01*
X62665Y60720D02*
X62531Y60854D01*
X62265D01*
X62131Y60720D01*
Y60187D01*
X62265Y60054D01*
X62531D01*
X62665Y60187D01*
X62931Y60054D02*
Y60854D01*
X63331D01*
X63464Y60720D01*
Y60454D01*
X63331Y60321D01*
X62931D01*
X63198D02*
X63464Y60054D01*
X64264Y60854D02*
X63731D01*
Y60054D01*
X64264D01*
X63731Y60454D02*
X63997D01*
X65064Y60854D02*
X64531D01*
Y60054D01*
X65064D01*
X64531Y60454D02*
X64797D01*
X65330Y60054D02*
Y60854D01*
X65863Y60054D01*
Y60854D01*
X66930Y60454D02*
X67463D01*
X68529Y60854D02*
Y60054D01*
X68796Y60321D01*
X69062Y60054D01*
Y60854D01*
X69329D02*
Y60054D01*
Y60454D01*
X69862D01*
Y60854D01*
Y60054D01*
X70129Y60854D02*
X70395D01*
X70262D01*
Y60054D01*
X70129D01*
X70395D01*
X70795Y60854D02*
X71328D01*
X71062D01*
Y60054D01*
X72128Y60854D02*
X71595D01*
Y60054D01*
X72128D01*
X71595Y60454D02*
X71862D01*
X73728Y60854D02*
X73194D01*
Y60054D01*
X73728D01*
X73194Y60454D02*
X73461D01*
X73994Y60054D02*
Y60854D01*
X74394D01*
X74527Y60720D01*
Y60454D01*
X74394Y60321D01*
X73994D01*
X75194Y60854D02*
X74927D01*
X74794Y60720D01*
Y60187D01*
X74927Y60054D01*
X75194D01*
X75327Y60187D01*
Y60720D01*
X75194Y60854D01*
X75594D02*
X76127Y60054D01*
Y60854D02*
X75594Y60054D01*
X76393Y60854D02*
Y60720D01*
X76660Y60454D01*
X76927Y60720D01*
Y60854D01*
X76660Y60454D02*
Y60054D01*
X77993Y60854D02*
X78259D01*
X78126D01*
Y60054D01*
X77993D01*
X78259D01*
X78659D02*
Y60854D01*
X79192Y60054D01*
Y60854D01*
X79459D02*
Y60054D01*
Y60321D01*
X79992Y60854D01*
X79592Y60454D01*
X79992Y60054D01*
X80392Y59921D02*
X80525Y60054D01*
Y60187D01*
X80392D01*
Y60054D01*
X80525D01*
X80392Y59921D01*
X80259Y59787D01*
X81858Y60854D02*
Y60054D01*
X82258D01*
X82391Y60187D01*
Y60321D01*
X82258Y60454D01*
X81858D01*
X82258D01*
X82391Y60587D01*
Y60720D01*
X82258Y60854D01*
X81858D01*
X83058D02*
X82791D01*
X82658Y60720D01*
Y60187D01*
X82791Y60054D01*
X83058D01*
X83191Y60187D01*
Y60720D01*
X83058Y60854D01*
X83458D02*
X83991D01*
X83724D01*
Y60054D01*
X84258Y60854D02*
Y60054D01*
Y60454D01*
X84791D01*
Y60854D01*
Y60054D01*
X86390Y60720D02*
X86257Y60854D01*
X85990D01*
X85857Y60720D01*
Y60587D01*
X85990Y60454D01*
X86257D01*
X86390Y60321D01*
Y60187D01*
X86257Y60054D01*
X85990D01*
X85857Y60187D01*
X86657Y60854D02*
X86923D01*
X86790D01*
Y60054D01*
X86657D01*
X86923D01*
X87323Y60854D02*
Y60054D01*
X87723D01*
X87856Y60187D01*
Y60720D01*
X87723Y60854D01*
X87323D01*
X88656D02*
X88123D01*
Y60054D01*
X88656D01*
X88123Y60454D02*
X88390D01*
X89456Y60720D02*
X89323Y60854D01*
X89056D01*
X88923Y60720D01*
Y60587D01*
X89056Y60454D01*
X89323D01*
X89456Y60321D01*
Y60187D01*
X89323Y60054D01*
X89056D01*
X88923Y60187D01*
X89722Y60054D02*
Y60187D01*
X89856D01*
Y60054D01*
X89722D01*
X91189D02*
Y60854D01*
X91722Y60054D01*
Y60854D01*
X92388D02*
X92122D01*
X91988Y60720D01*
Y60187D01*
X92122Y60054D01*
X92388D01*
X92522Y60187D01*
Y60720D01*
X92388Y60854D01*
X94121Y60720D02*
X93988Y60854D01*
X93721D01*
X93588Y60720D01*
Y60587D01*
X93721Y60454D01*
X93988D01*
X94121Y60321D01*
Y60187D01*
X93988Y60054D01*
X93721D01*
X93588Y60187D01*
X94388Y60854D02*
X94654D01*
X94521D01*
Y60054D01*
X94388D01*
X94654D01*
X95054Y60854D02*
Y60054D01*
X95587D01*
X95854Y60854D02*
Y60054D01*
Y60321D01*
X96387Y60854D01*
X95987Y60454D01*
X96387Y60054D01*
X97853Y60854D02*
X97587D01*
X97453Y60720D01*
Y60187D01*
X97587Y60054D01*
X97853D01*
X97986Y60187D01*
Y60720D01*
X97853Y60854D01*
X98253Y60054D02*
Y60854D01*
X98786Y60054D01*
Y60854D01*
X99852Y60054D02*
Y60854D01*
X100252D01*
X100386Y60720D01*
Y60454D01*
X100252Y60321D01*
X99852D01*
X100652Y60054D02*
Y60587D01*
X100919Y60854D01*
X101185Y60587D01*
Y60054D01*
Y60454D01*
X100652D01*
X101452Y60854D02*
Y60054D01*
X101852D01*
X101985Y60187D01*
Y60720D01*
X101852Y60854D01*
X101452D01*
X102785Y60720D02*
X102652Y60854D01*
X102385D01*
X102252Y60720D01*
Y60587D01*
X102385Y60454D01*
X102652D01*
X102785Y60321D01*
Y60187D01*
X102652Y60054D01*
X102385D01*
X102252Y60187D01*
X56533Y66665D02*
X56267Y66531D01*
X56000Y66265D01*
Y65998D01*
X56133Y65865D01*
X56400D01*
X56533Y65998D01*
Y66132D01*
X56400Y66265D01*
X56000D01*
X56800Y65865D02*
Y65998D01*
X56933D01*
Y65865D01*
X56800D01*
X58799Y66531D02*
X58666Y66665D01*
X58399D01*
X58266Y66531D01*
Y66398D01*
X58399Y66265D01*
X58666D01*
X58799Y66132D01*
Y65998D01*
X58666Y65865D01*
X58399D01*
X58266Y65998D01*
X59466Y66665D02*
X59199D01*
X59066Y66531D01*
Y65998D01*
X59199Y65865D01*
X59466D01*
X59599Y65998D01*
Y66531D01*
X59466Y66665D01*
X59865D02*
Y65865D01*
X60399D01*
X60665Y66665D02*
Y65865D01*
X61065D01*
X61198Y65998D01*
Y66531D01*
X61065Y66665D01*
X60665D01*
X61998D02*
X61465D01*
Y65865D01*
X61998D01*
X61465Y66265D02*
X61731D01*
X62265Y65865D02*
Y66665D01*
X62665D01*
X62798Y66531D01*
Y66265D01*
X62665Y66132D01*
X62265D01*
X62531D02*
X62798Y65865D01*
X64397Y66531D02*
X64264Y66665D01*
X63997D01*
X63864Y66531D01*
Y66398D01*
X63997Y66265D01*
X64264D01*
X64397Y66132D01*
Y65998D01*
X64264Y65865D01*
X63997D01*
X63864Y65998D01*
X64664Y65865D02*
Y66398D01*
X64930Y66665D01*
X65197Y66398D01*
Y65865D01*
Y66265D01*
X64664D01*
X65464Y65865D02*
Y66665D01*
X65730Y66398D01*
X65997Y66665D01*
Y65865D01*
X66263D02*
Y66665D01*
X66663D01*
X66796Y66531D01*
Y66265D01*
X66663Y66132D01*
X66263D01*
X67063Y66665D02*
Y65865D01*
X67596D01*
X68396Y66665D02*
X67863D01*
Y65865D01*
X68396D01*
X67863Y66265D02*
X68129D01*
X69196Y66531D02*
X69062Y66665D01*
X68796D01*
X68663Y66531D01*
Y66398D01*
X68796Y66265D01*
X69062D01*
X69196Y66132D01*
Y65998D01*
X69062Y65865D01*
X68796D01*
X68663Y65998D01*
X70262Y66665D02*
X70795D01*
X70529D01*
Y65865D01*
X71462Y66665D02*
X71195D01*
X71062Y66531D01*
Y65998D01*
X71195Y65865D01*
X71462D01*
X71595Y65998D01*
Y66531D01*
X71462Y66665D01*
X72661D02*
Y65865D01*
X73061D01*
X73194Y65998D01*
Y66132D01*
X73061Y66265D01*
X72661D01*
X73061D01*
X73194Y66398D01*
Y66531D01*
X73061Y66665D01*
X72661D01*
X73994D02*
X73461D01*
Y65865D01*
X73994D01*
X73461Y66265D02*
X73728D01*
X75060Y65865D02*
Y66665D01*
X75460D01*
X75594Y66531D01*
Y66265D01*
X75460Y66132D01*
X75060D01*
X75860Y65865D02*
Y66665D01*
X76260D01*
X76393Y66531D01*
Y66265D01*
X76260Y66132D01*
X75860D01*
X76127D02*
X76393Y65865D01*
X77060Y66665D02*
X76793D01*
X76660Y66531D01*
Y65998D01*
X76793Y65865D01*
X77060D01*
X77193Y65998D01*
Y66531D01*
X77060Y66665D01*
X77460D02*
Y66132D01*
X77726Y65865D01*
X77993Y66132D01*
Y66665D01*
X78259D02*
X78526D01*
X78393D01*
Y65865D01*
X78259D01*
X78526D01*
X78926Y66665D02*
Y65865D01*
X79326D01*
X79459Y65998D01*
Y66531D01*
X79326Y66665D01*
X78926D01*
X80259D02*
X79726D01*
Y65865D01*
X80259D01*
X79726Y66265D02*
X79992D01*
X80525Y66665D02*
Y65865D01*
X80925D01*
X81059Y65998D01*
Y66531D01*
X80925Y66665D01*
X80525D01*
X57969Y55133D02*
Y55666D01*
X58235Y55932D01*
X58502Y55666D01*
Y55133D01*
Y55533D01*
X57969D01*
X58768Y55932D02*
Y55133D01*
X59168D01*
X59301Y55266D01*
Y55799D01*
X59168Y55932D01*
X58768D01*
X59568D02*
Y55133D01*
X59968D01*
X60101Y55266D01*
Y55799D01*
X59968Y55932D01*
X59568D01*
X61167Y55133D02*
Y55932D01*
X61567D01*
X61701Y55799D01*
Y55533D01*
X61567Y55399D01*
X61167D01*
X61434D02*
X61701Y55133D01*
X62367Y55932D02*
X62101D01*
X61967Y55799D01*
Y55266D01*
X62101Y55133D01*
X62367D01*
X62500Y55266D01*
Y55799D01*
X62367Y55932D01*
X62767D02*
Y55133D01*
Y55533D01*
X63300D01*
Y55932D01*
Y55133D01*
X64100Y55799D02*
X63967Y55932D01*
X63700D01*
X63567Y55799D01*
Y55666D01*
X63700Y55533D01*
X63967D01*
X64100Y55399D01*
Y55266D01*
X63967Y55133D01*
X63700D01*
X63567Y55266D01*
X65166Y55932D02*
Y55133D01*
X65699D01*
X66366Y55932D02*
X66099D01*
X65966Y55799D01*
Y55266D01*
X66099Y55133D01*
X66366D01*
X66499Y55266D01*
Y55799D01*
X66366Y55932D01*
X67299Y55799D02*
X67166Y55932D01*
X66899D01*
X66766Y55799D01*
Y55266D01*
X66899Y55133D01*
X67166D01*
X67299Y55266D01*
Y55533D01*
X67032D01*
X67965Y55932D02*
X67699D01*
X67565Y55799D01*
Y55266D01*
X67699Y55133D01*
X67965D01*
X68099Y55266D01*
Y55799D01*
X67965Y55932D01*
X56000Y63712D02*
X56533D01*
Y63579D01*
X56000Y63046D01*
Y62912D01*
X56800D02*
Y63046D01*
X56933D01*
Y62912D01*
X56800D01*
X58799Y63712D02*
X58266D01*
Y63312D01*
X58533D01*
X58266D01*
Y62912D01*
X59066Y63712D02*
X59332D01*
X59199D01*
Y62912D01*
X59066D01*
X59332D01*
X59732D02*
Y63712D01*
X60265Y62912D01*
Y63712D01*
X60532D02*
X60798D01*
X60665D01*
Y62912D01*
X60532D01*
X60798D01*
X61731Y63579D02*
X61598Y63712D01*
X61332D01*
X61198Y63579D01*
Y63445D01*
X61332Y63312D01*
X61598D01*
X61731Y63179D01*
Y63046D01*
X61598Y62912D01*
X61332D01*
X61198Y63046D01*
X61998Y63712D02*
Y62912D01*
Y63312D01*
X62531D01*
Y63712D01*
Y62912D01*
X63331Y63712D02*
X62798D01*
Y62912D01*
X63331D01*
X62798Y63312D02*
X63064D01*
X63598Y63712D02*
Y62912D01*
X63997D01*
X64131Y63046D01*
Y63579D01*
X63997Y63712D01*
X63598D01*
X65197Y62912D02*
Y63712D01*
X65597D01*
X65730Y63579D01*
Y63312D01*
X65597Y63179D01*
X65197D01*
X66530Y63579D02*
X66397Y63712D01*
X66130D01*
X65997Y63579D01*
Y63046D01*
X66130Y62912D01*
X66397D01*
X66530Y63046D01*
X66796Y63712D02*
Y62912D01*
X67196D01*
X67330Y63046D01*
Y63179D01*
X67196Y63312D01*
X66796D01*
X67196D01*
X67330Y63445D01*
Y63579D01*
X67196Y63712D01*
X66796D01*
X68396Y62912D02*
Y63712D01*
X68663Y63445D01*
X68929Y63712D01*
Y62912D01*
X69196Y63712D02*
Y63046D01*
X69329Y62912D01*
X69596D01*
X69729Y63046D01*
Y63712D01*
X70529Y63579D02*
X70395Y63712D01*
X70129D01*
X69995Y63579D01*
Y63445D01*
X70129Y63312D01*
X70395D01*
X70529Y63179D01*
Y63046D01*
X70395Y62912D01*
X70129D01*
X69995Y63046D01*
X70795Y63712D02*
X71328D01*
X71062D01*
Y62912D01*
X72395Y63712D02*
Y62912D01*
X72795D01*
X72928Y63046D01*
Y63179D01*
X72795Y63312D01*
X72395D01*
X72795D01*
X72928Y63445D01*
Y63579D01*
X72795Y63712D01*
X72395D01*
X73728D02*
X73194D01*
Y62912D01*
X73728D01*
X73194Y63312D02*
X73461D01*
X74794Y62912D02*
Y63712D01*
X75060Y63445D01*
X75327Y63712D01*
Y62912D01*
X75594D02*
Y63445D01*
X75860Y63712D01*
X76127Y63445D01*
Y62912D01*
Y63312D01*
X75594D01*
X76393Y62912D02*
Y63712D01*
X76927Y62912D01*
Y63712D01*
X77726D02*
X77193D01*
Y62912D01*
X77726D01*
X77193Y63312D02*
X77460D01*
X77993Y63712D02*
Y62912D01*
X78526D01*
X78793Y63712D02*
X79059D01*
X78926D01*
Y62912D01*
X78793D01*
X79059D01*
X79459Y63712D02*
X79992D01*
Y63579D01*
X79459Y63046D01*
Y62912D01*
X79992D01*
X80792Y63712D02*
X80259D01*
Y62912D01*
X80792D01*
X80259Y63312D02*
X80525D01*
X81059Y63712D02*
Y62912D01*
X81458D01*
X81592Y63046D01*
Y63579D01*
X81458Y63712D01*
X81059D01*
X83191D02*
X82658D01*
Y63312D01*
X82925D01*
X82658D01*
Y62912D01*
X83858Y63712D02*
X83591D01*
X83458Y63579D01*
Y63046D01*
X83591Y62912D01*
X83858D01*
X83991Y63046D01*
Y63579D01*
X83858Y63712D01*
X84258Y62912D02*
Y63712D01*
X84657D01*
X84791Y63579D01*
Y63312D01*
X84657Y63179D01*
X84258D01*
X84524D02*
X84791Y62912D01*
X85857D02*
Y63445D01*
X86124Y63712D01*
X86390Y63445D01*
Y62912D01*
Y63312D01*
X85857D01*
X87190Y63579D02*
X87057Y63712D01*
X86790D01*
X86657Y63579D01*
Y63445D01*
X86790Y63312D01*
X87057D01*
X87190Y63179D01*
Y63046D01*
X87057Y62912D01*
X86790D01*
X86657Y63046D01*
X87990Y63579D02*
X87856Y63712D01*
X87590D01*
X87456Y63579D01*
Y63445D01*
X87590Y63312D01*
X87856D01*
X87990Y63179D01*
Y63046D01*
X87856Y62912D01*
X87590D01*
X87456Y63046D01*
X88789Y63712D02*
X88256D01*
Y62912D01*
X88789D01*
X88256Y63312D02*
X88523D01*
X89056Y62912D02*
Y63712D01*
X89323Y63445D01*
X89589Y63712D01*
Y62912D01*
X89856Y63712D02*
Y62912D01*
X90256D01*
X90389Y63046D01*
Y63179D01*
X90256Y63312D01*
X89856D01*
X90256D01*
X90389Y63445D01*
Y63579D01*
X90256Y63712D01*
X89856D01*
X90655D02*
Y62912D01*
X91189D01*
X91455Y63712D02*
Y63579D01*
X91722Y63312D01*
X91988Y63579D01*
Y63712D01*
X91722Y63312D02*
Y62912D01*
X92255D02*
Y63046D01*
X92388D01*
Y62912D01*
X92255D01*
X56000Y57234D02*
X56133Y57101D01*
X56400D01*
X56533Y57234D01*
Y57768D01*
X56400Y57901D01*
X56133D01*
X56000Y57768D01*
Y57634D01*
X56133Y57501D01*
X56533D01*
X56800Y57101D02*
Y57234D01*
X56933D01*
Y57101D01*
X56800D01*
X58799Y57768D02*
X58666Y57901D01*
X58399D01*
X58266Y57768D01*
Y57634D01*
X58399Y57501D01*
X58666D01*
X58799Y57368D01*
Y57234D01*
X58666Y57101D01*
X58399D01*
X58266Y57234D01*
X59066Y57901D02*
Y57234D01*
X59199Y57101D01*
X59466D01*
X59599Y57234D01*
Y57901D01*
X59865Y57101D02*
Y57901D01*
X60265D01*
X60399Y57768D01*
Y57501D01*
X60265Y57368D01*
X59865D01*
X60665Y57101D02*
Y57901D01*
X61065D01*
X61198Y57768D01*
Y57501D01*
X61065Y57368D01*
X60665D01*
X61465Y57901D02*
Y57101D01*
X61998D01*
X62265Y57901D02*
X62531D01*
X62398D01*
Y57101D01*
X62265D01*
X62531D01*
X63464Y57901D02*
X62931D01*
Y57101D01*
X63464D01*
X62931Y57501D02*
X63198D01*
X63731Y57101D02*
Y57901D01*
X64131D01*
X64264Y57768D01*
Y57501D01*
X64131Y57368D01*
X63731D01*
X63997D02*
X64264Y57101D01*
X65330D02*
Y57901D01*
X65597Y57634D01*
X65863Y57901D01*
Y57101D01*
X66130D02*
Y57634D01*
X66397Y57901D01*
X66663Y57634D01*
Y57101D01*
Y57501D01*
X66130D01*
X66930Y57101D02*
Y57901D01*
X67330D01*
X67463Y57768D01*
Y57501D01*
X67330Y57368D01*
X66930D01*
X67196D02*
X67463Y57101D01*
X67730Y57901D02*
Y57101D01*
Y57368D01*
X68263Y57901D01*
X67863Y57501D01*
X68263Y57101D01*
X68529Y57901D02*
X68796D01*
X68663D01*
Y57101D01*
X68529D01*
X68796D01*
X69196D02*
Y57901D01*
X69729Y57101D01*
Y57901D01*
X70529Y57768D02*
X70395Y57901D01*
X70129D01*
X69995Y57768D01*
Y57234D01*
X70129Y57101D01*
X70395D01*
X70529Y57234D01*
Y57501D01*
X70262D01*
X71595D02*
X72128D01*
X73594Y57901D02*
X73328D01*
X73194Y57768D01*
Y57234D01*
X73328Y57101D01*
X73594D01*
X73728Y57234D01*
Y57768D01*
X73594Y57901D01*
X73994Y57101D02*
Y57901D01*
X74527Y57101D01*
Y57901D01*
X76127Y57768D02*
X75994Y57901D01*
X75727D01*
X75594Y57768D01*
Y57634D01*
X75727Y57501D01*
X75994D01*
X76127Y57368D01*
Y57234D01*
X75994Y57101D01*
X75727D01*
X75594Y57234D01*
X76793Y57901D02*
X76527D01*
X76393Y57768D01*
Y57234D01*
X76527Y57101D01*
X76793D01*
X76927Y57234D01*
Y57768D01*
X76793Y57901D01*
X77193D02*
Y57101D01*
X77726D01*
X77993Y57901D02*
Y57101D01*
X78393D01*
X78526Y57234D01*
Y57768D01*
X78393Y57901D01*
X77993D01*
X79326D02*
X78793D01*
Y57101D01*
X79326D01*
X78793Y57501D02*
X79059D01*
X79592Y57101D02*
Y57901D01*
X79992D01*
X80126Y57768D01*
Y57501D01*
X79992Y57368D01*
X79592D01*
X79859D02*
X80126Y57101D01*
X81725Y57768D02*
X81592Y57901D01*
X81325D01*
X81192Y57768D01*
Y57634D01*
X81325Y57501D01*
X81592D01*
X81725Y57368D01*
Y57234D01*
X81592Y57101D01*
X81325D01*
X81192Y57234D01*
X81992Y57901D02*
X82258D01*
X82125D01*
Y57101D01*
X81992D01*
X82258D01*
X82658Y57901D02*
Y57101D01*
X83058D01*
X83191Y57234D01*
Y57768D01*
X83058Y57901D01*
X82658D01*
X83991D02*
X83458D01*
Y57101D01*
X83991D01*
X83458Y57501D02*
X83724D01*
X57969Y53164D02*
Y53697D01*
X58235Y53964D01*
X58502Y53697D01*
Y53164D01*
Y53564D01*
X57969D01*
X58768Y53964D02*
Y53164D01*
X59168D01*
X59301Y53297D01*
Y53831D01*
X59168Y53964D01*
X58768D01*
X59568D02*
Y53164D01*
X59968D01*
X60101Y53297D01*
Y53831D01*
X59968Y53964D01*
X59568D01*
X61167D02*
Y53297D01*
X61301Y53164D01*
X61567D01*
X61701Y53297D01*
Y53964D01*
X61967D02*
Y53164D01*
X62500D01*
X63567D02*
Y53964D01*
X63833Y53697D01*
X64100Y53964D01*
Y53164D01*
X64366D02*
Y53697D01*
X64633Y53964D01*
X64900Y53697D01*
Y53164D01*
Y53564D01*
X64366D01*
X65166Y53164D02*
Y53964D01*
X65566D01*
X65699Y53831D01*
Y53564D01*
X65566Y53431D01*
X65166D01*
X65433D02*
X65699Y53164D01*
X65966Y53964D02*
Y53164D01*
Y53431D01*
X66499Y53964D01*
X66099Y53564D01*
X66499Y53164D01*
X66766Y53964D02*
X67032D01*
X66899D01*
Y53164D01*
X66766D01*
X67032D01*
X67432D02*
Y53964D01*
X67965Y53164D01*
Y53964D01*
X68765Y53831D02*
X68632Y53964D01*
X68365D01*
X68232Y53831D01*
Y53297D01*
X68365Y53164D01*
X68632D01*
X68765Y53297D01*
Y53564D01*
X68498D01*
X69831Y53164D02*
Y53697D01*
X70098Y53964D01*
X70364Y53697D01*
Y53164D01*
Y53564D01*
X69831D01*
X70631Y53164D02*
Y53964D01*
X71164Y53164D01*
Y53964D01*
X71431D02*
Y53164D01*
X71831D01*
X71964Y53297D01*
Y53831D01*
X71831Y53964D01*
X71431D01*
X73030D02*
X73297D01*
X73164D01*
Y53164D01*
X73030D01*
X73297D01*
X73697Y53964D02*
Y53164D01*
X74097D01*
X74230Y53297D01*
Y53831D01*
X74097Y53964D01*
X73697D01*
X56000Y50211D02*
X56267D01*
X56133D01*
Y51011D01*
X56000Y50878D01*
X56666D02*
X56800Y51011D01*
X57066D01*
X57200Y50878D01*
Y50345D01*
X57066Y50211D01*
X56800D01*
X56666Y50345D01*
Y50878D01*
X57466Y50211D02*
Y50345D01*
X57599D01*
Y50211D01*
X57466D01*
X58932Y51011D02*
Y50211D01*
X59466D01*
X59732D02*
Y50745D01*
X59999Y51011D01*
X60265Y50745D01*
Y50211D01*
Y50611D01*
X59732D01*
X60532Y51011D02*
Y50878D01*
X60798Y50611D01*
X61065Y50878D01*
Y51011D01*
X60798Y50611D02*
Y50211D01*
X61865Y51011D02*
X61332D01*
Y50211D01*
X61865D01*
X61332Y50611D02*
X61598D01*
X62131Y50211D02*
Y51011D01*
X62531D01*
X62665Y50878D01*
Y50611D01*
X62531Y50478D01*
X62131D01*
X62398D02*
X62665Y50211D01*
X64264Y50878D02*
X64131Y51011D01*
X63864D01*
X63731Y50878D01*
Y50745D01*
X63864Y50611D01*
X64131D01*
X64264Y50478D01*
Y50345D01*
X64131Y50211D01*
X63864D01*
X63731Y50345D01*
X64531Y51011D02*
X65064D01*
X64797D01*
Y50211D01*
X65330D02*
Y50745D01*
X65597Y51011D01*
X65863Y50745D01*
Y50211D01*
Y50611D01*
X65330D01*
X66663Y50878D02*
X66530Y51011D01*
X66263D01*
X66130Y50878D01*
Y50345D01*
X66263Y50211D01*
X66530D01*
X66663Y50345D01*
X66930Y51011D02*
Y50211D01*
Y50478D01*
X67463Y51011D01*
X67063Y50611D01*
X67463Y50211D01*
X67730Y51011D02*
Y50345D01*
X67863Y50211D01*
X68129D01*
X68263Y50345D01*
Y51011D01*
X68529Y50211D02*
Y51011D01*
X68929D01*
X69062Y50878D01*
Y50611D01*
X68929Y50478D01*
X68529D01*
X70129Y50611D02*
X70662D01*
X72261Y50878D02*
X72128Y51011D01*
X71862D01*
X71728Y50878D01*
Y50745D01*
X71862Y50611D01*
X72128D01*
X72261Y50478D01*
Y50345D01*
X72128Y50211D01*
X71862D01*
X71728Y50345D01*
X73061Y51011D02*
X72528D01*
Y50211D01*
X73061D01*
X72528Y50611D02*
X72795D01*
X73861Y51011D02*
X73328D01*
Y50211D01*
X73861D01*
X73328Y50611D02*
X73594D01*
X74927Y51011D02*
Y50211D01*
X75327D01*
X75460Y50345D01*
Y50878D01*
X75327Y51011D01*
X74927D01*
X76260D02*
X75727D01*
Y50211D01*
X76260D01*
X75727Y50611D02*
X75994D01*
X76527Y51011D02*
X77060D01*
X76793D01*
Y50211D01*
X77326D02*
Y50745D01*
X77593Y51011D01*
X77860Y50745D01*
Y50211D01*
Y50611D01*
X77326D01*
X78126Y51011D02*
X78393D01*
X78259D01*
Y50211D01*
X78126D01*
X78393D01*
X78793Y51011D02*
Y50211D01*
X79326D01*
X80392D02*
Y50745D01*
X80659Y51011D01*
X80925Y50745D01*
Y50211D01*
Y50611D01*
X80392D01*
X57950Y77100D02*
Y77900D01*
X58217Y77633D01*
X58483Y77900D01*
Y77100D01*
X58750Y77900D02*
Y77233D01*
X58883Y77100D01*
X59150D01*
X59283Y77233D01*
Y77900D01*
X60083Y77766D02*
X59949Y77900D01*
X59683D01*
X59549Y77766D01*
Y77633D01*
X59683Y77500D01*
X59949D01*
X60083Y77367D01*
Y77233D01*
X59949Y77100D01*
X59683D01*
X59549Y77233D01*
X60349Y77900D02*
X60882D01*
X60616D01*
Y77100D01*
X61949Y77900D02*
Y77100D01*
Y77500D01*
X62482D01*
Y77900D01*
Y77100D01*
X62748D02*
Y77633D01*
X63015Y77900D01*
X63282Y77633D01*
Y77100D01*
Y77500D01*
X62748D01*
X63548Y77100D02*
Y77900D01*
X64081Y77100D01*
Y77900D01*
X64348D02*
Y77100D01*
X64748D01*
X64881Y77233D01*
Y77766D01*
X64748Y77900D01*
X64348D01*
X65148D02*
Y77100D01*
X65681D01*
X66481Y77900D02*
X65947D01*
Y77100D01*
X66481D01*
X65947Y77500D02*
X66214D01*
X67547Y77100D02*
Y77900D01*
X67813Y77633D01*
X68080Y77900D01*
Y77100D01*
X68347Y77900D02*
X68613D01*
X68480D01*
Y77100D01*
X68347D01*
X68613D01*
X69013D02*
Y77900D01*
X69546Y77100D01*
Y77900D01*
X69813D02*
X70079D01*
X69946D01*
Y77100D01*
X69813D01*
X70079D01*
X70479D02*
Y77900D01*
X70746Y77633D01*
X71012Y77900D01*
Y77100D01*
X71279Y77900D02*
Y77233D01*
X71412Y77100D01*
X71679D01*
X71812Y77233D01*
Y77900D01*
X72079Y77100D02*
Y77900D01*
X72345Y77633D01*
X72612Y77900D01*
Y77100D01*
X74211Y77900D02*
X73945Y77766D01*
X73678Y77500D01*
Y77233D01*
X73812Y77100D01*
X74078D01*
X74211Y77233D01*
Y77367D01*
X74078Y77500D01*
X73678D01*
X75811Y77766D02*
X75678Y77900D01*
X75411D01*
X75278Y77766D01*
Y77233D01*
X75411Y77100D01*
X75678D01*
X75811Y77233D01*
X76077Y77900D02*
Y77766D01*
X76344Y77500D01*
X76611Y77766D01*
Y77900D01*
X76344Y77500D02*
Y77100D01*
X77410Y77766D02*
X77277Y77900D01*
X77010D01*
X76877Y77766D01*
Y77233D01*
X77010Y77100D01*
X77277D01*
X77410Y77233D01*
X77677Y77900D02*
Y77100D01*
X78210D01*
X79010Y77900D02*
X78477D01*
Y77100D01*
X79010D01*
X78477Y77500D02*
X78743D01*
X79810Y77766D02*
X79676Y77900D01*
X79410D01*
X79276Y77766D01*
Y77633D01*
X79410Y77500D01*
X79676D01*
X79810Y77367D01*
Y77233D01*
X79676Y77100D01*
X79410D01*
X79276Y77233D01*
X80876Y77500D02*
X81409D01*
X83009Y77100D02*
X82475D01*
X83009Y77633D01*
Y77766D01*
X82875Y77900D01*
X82609D01*
X82475Y77766D01*
X83808Y77900D02*
X83542Y77766D01*
X83275Y77500D01*
Y77233D01*
X83408Y77100D01*
X83675D01*
X83808Y77233D01*
Y77367D01*
X83675Y77500D01*
X83275D01*
X84075Y77766D02*
X84208Y77900D01*
X84475D01*
X84608Y77766D01*
Y77233D01*
X84475Y77100D01*
X84208D01*
X84075Y77233D01*
Y77766D01*
X85408D02*
X85274Y77900D01*
X85008D01*
X84875Y77766D01*
Y77233D01*
X85008Y77100D01*
X85274D01*
X85408Y77233D01*
X87007Y77900D02*
X86474D01*
Y77500D01*
X86741D01*
X86474D01*
Y77100D01*
X87674Y77900D02*
X87407D01*
X87274Y77766D01*
Y77233D01*
X87407Y77100D01*
X87674D01*
X87807Y77233D01*
Y77766D01*
X87674Y77900D01*
X88074Y77100D02*
Y77900D01*
X88473D01*
X88607Y77766D01*
Y77500D01*
X88473Y77367D01*
X88074D01*
X88340D02*
X88607Y77100D01*
X89673D02*
X89940D01*
X89806D01*
Y77900D01*
X89673Y77766D01*
X90340D02*
X90473Y77900D01*
X90739D01*
X90873Y77766D01*
Y77233D01*
X90739Y77100D01*
X90473D01*
X90340Y77233D01*
Y77766D01*
X92472D02*
X92339Y77900D01*
X92072D01*
X91939Y77766D01*
Y77633D01*
X92072Y77500D01*
X92339D01*
X92472Y77367D01*
Y77233D01*
X92339Y77100D01*
X92072D01*
X91939Y77233D01*
X93272Y77900D02*
X92739D01*
Y77100D01*
X93272D01*
X92739Y77500D02*
X93005D01*
X94072Y77766D02*
X93938Y77900D01*
X93672D01*
X93538Y77766D01*
Y77233D01*
X93672Y77100D01*
X93938D01*
X94072Y77233D01*
X94738Y77900D02*
X94472D01*
X94338Y77766D01*
Y77233D01*
X94472Y77100D01*
X94738D01*
X94871Y77233D01*
Y77766D01*
X94738Y77900D01*
X95138Y77100D02*
Y77900D01*
X95671Y77100D01*
Y77900D01*
X95938D02*
Y77100D01*
X96338D01*
X96471Y77233D01*
Y77766D01*
X96338Y77900D01*
X95938D01*
X97271Y77766D02*
X97137Y77900D01*
X96871D01*
X96737Y77766D01*
Y77633D01*
X96871Y77500D01*
X97137D01*
X97271Y77367D01*
Y77233D01*
X97137Y77100D01*
X96871D01*
X96737Y77233D01*
X97537Y77100D02*
Y77233D01*
X97670D01*
Y77100D01*
X97537D01*
X55500Y45050D02*
Y44150D01*
X55950D01*
X56100Y44300D01*
Y44900D01*
X55950Y45050D01*
X55500D01*
X57000D02*
X56400D01*
Y44150D01*
X57000D01*
X56400Y44600D02*
X56700D01*
X57299Y45050D02*
X57899D01*
X57599D01*
Y44150D01*
X58199D02*
Y44750D01*
X58499Y45050D01*
X58799Y44750D01*
Y44150D01*
Y44600D01*
X58199D01*
X59099Y45050D02*
X59399D01*
X59249D01*
Y44150D01*
X59099D01*
X59399D01*
X59849Y45050D02*
Y44150D01*
X60448D01*
X61648D02*
Y44750D01*
X61948Y45050D01*
X62248Y44750D01*
Y44150D01*
Y44600D01*
X61648D01*
D84*
X59700Y42350D02*
X105088D01*
X59700Y43550D02*
X105088D01*
X59700Y29150D02*
Y43550D01*
Y29150D02*
X63799D01*
X59700Y30350D02*
X63799D01*
X59700Y31550D02*
X63799D01*
X59700Y32750D02*
X63799D01*
X59700Y33950D02*
X63799D01*
X59700Y35150D02*
X63799D01*
X59700Y36350D02*
X63799D01*
X59700Y37550D02*
X63799D01*
X59700Y38750D02*
X63799D01*
X59700Y39950D02*
X63799D01*
X59700Y41150D02*
X63799D01*
Y29150D02*
Y43550D01*
Y29150D02*
X73097D01*
X63799Y30350D02*
X73097D01*
X63799Y31550D02*
X73097D01*
X63799Y32750D02*
X73097D01*
X63799Y33950D02*
X73097D01*
X63799Y35150D02*
X73097D01*
X63799Y36350D02*
X73097D01*
X63799Y37550D02*
X73097D01*
X63799Y38750D02*
X73097D01*
X63799Y39950D02*
X73097D01*
X63799Y41150D02*
X73097D01*
Y29150D02*
Y43550D01*
Y29150D02*
X81694D01*
X73097Y30350D02*
X81694D01*
X73097Y31550D02*
X81694D01*
X73097Y32750D02*
X81694D01*
X73097Y33950D02*
X81694D01*
X73097Y35150D02*
X81694D01*
X73097Y36350D02*
X81694D01*
X73097Y37550D02*
X81694D01*
X73097Y38750D02*
X81694D01*
X73097Y39950D02*
X81694D01*
X73097Y41150D02*
X81694D01*
Y29150D02*
Y43550D01*
Y29150D02*
X88193D01*
X81694Y30350D02*
X88193D01*
X81694Y31550D02*
X88193D01*
X81694Y32750D02*
X88193D01*
X81694Y33950D02*
X88193D01*
X81694Y35150D02*
X88193D01*
X81694Y36350D02*
X88193D01*
X81694Y37550D02*
X88193D01*
X81694Y38750D02*
X88193D01*
X81694Y39950D02*
X88193D01*
X81694Y41150D02*
X88193D01*
Y29150D02*
Y43550D01*
Y29150D02*
X93891D01*
X88193Y30350D02*
X93891D01*
X88193Y31550D02*
X93891D01*
X88193Y32750D02*
X93891D01*
X88193Y33950D02*
X93891D01*
X88193Y35150D02*
X93891D01*
X88193Y36350D02*
X93891D01*
X88193Y37550D02*
X93891D01*
X88193Y38750D02*
X93891D01*
X88193Y39950D02*
X93891D01*
X88193Y41150D02*
X93891D01*
Y29150D02*
Y43550D01*
Y29150D02*
X105088D01*
X93891Y30350D02*
X105088D01*
X93891Y31550D02*
X105088D01*
X93891Y32750D02*
X105088D01*
X93891Y33950D02*
X105088D01*
X93891Y35150D02*
X105088D01*
X93891Y36350D02*
X105088D01*
X93891Y37550D02*
X105088D01*
X93891Y38750D02*
X105088D01*
X93891Y39950D02*
X105088D01*
X93891Y41150D02*
X105088D01*
Y29150D02*
Y43550D01*
D132*
X104488Y29150D02*
X105088Y29750D01*
X103888Y29150D02*
X105088Y30350D01*
X103288Y29150D02*
X104488Y30350D01*
X102688Y29150D02*
X103888Y30350D01*
X102088Y29150D02*
X103288Y30350D01*
X101488Y29150D02*
X102688Y30350D01*
X100888Y29150D02*
X102088Y30350D01*
X100288Y29150D02*
X101488Y30350D01*
X99688Y29150D02*
X100888Y30350D01*
X99088Y29150D02*
X100288Y30350D01*
X98488Y29150D02*
X99688Y30350D01*
X97888Y29150D02*
X99088Y30350D01*
X97288Y29150D02*
X98488Y30350D01*
X96688Y29150D02*
X97888Y30350D01*
X96088Y29150D02*
X97288Y30350D01*
X95488Y29150D02*
X96688Y30350D01*
X94888Y29150D02*
X96088Y30350D01*
X94288Y29150D02*
X95488Y30350D01*
X93891Y29353D02*
X94888Y30350D01*
X93891Y29953D02*
X94288Y30350D01*
X104488D02*
X105088Y30950D01*
X103888Y30350D02*
X105088Y31550D01*
X103288Y30350D02*
X104488Y31550D01*
X102688Y30350D02*
X103888Y31550D01*
X102088Y30350D02*
X103288Y31550D01*
X101488Y30350D02*
X102688Y31550D01*
X100888Y30350D02*
X102088Y31550D01*
X100288Y30350D02*
X101488Y31550D01*
X99688Y30350D02*
X100888Y31550D01*
X99088Y30350D02*
X100288Y31550D01*
X98488Y30350D02*
X99688Y31550D01*
X97888Y30350D02*
X99088Y31550D01*
X97288Y30350D02*
X98488Y31550D01*
X96688Y30350D02*
X97888Y31550D01*
X96088Y30350D02*
X97288Y31550D01*
X95488Y30350D02*
X96688Y31550D01*
X94888Y30350D02*
X96088Y31550D01*
X94288Y30350D02*
X95488Y31550D01*
X93891Y30553D02*
X94888Y31550D01*
X93891Y31153D02*
X94288Y31550D01*
X104488D02*
X105088Y32150D01*
X103888Y31550D02*
X105088Y32750D01*
X103288Y31550D02*
X104488Y32750D01*
X102688Y31550D02*
X103888Y32750D01*
X102088Y31550D02*
X103288Y32750D01*
X101488Y31550D02*
X102688Y32750D01*
X100888Y31550D02*
X102088Y32750D01*
X100288Y31550D02*
X101488Y32750D01*
X99688Y31550D02*
X100888Y32750D01*
X99088Y31550D02*
X100288Y32750D01*
X98488Y31550D02*
X99688Y32750D01*
X97888Y31550D02*
X99088Y32750D01*
X97288Y31550D02*
X98488Y32750D01*
X96688Y31550D02*
X97888Y32750D01*
X96088Y31550D02*
X97288Y32750D01*
X95488Y31550D02*
X96688Y32750D01*
X94888Y31550D02*
X96088Y32750D01*
X94288Y31550D02*
X95488Y32750D01*
X93891Y31753D02*
X94888Y32750D01*
X93891Y32353D02*
X94288Y32750D01*
X104488D02*
X105088Y33350D01*
X103888Y32750D02*
X105088Y33950D01*
X103288Y32750D02*
X104488Y33950D01*
X102688Y32750D02*
X103888Y33950D01*
X102088Y32750D02*
X103288Y33950D01*
X101488Y32750D02*
X102688Y33950D01*
X100888Y32750D02*
X102088Y33950D01*
X100288Y32750D02*
X101488Y33950D01*
X99688Y32750D02*
X100888Y33950D01*
X99088Y32750D02*
X100288Y33950D01*
X98488Y32750D02*
X99688Y33950D01*
X97888Y32750D02*
X99088Y33950D01*
X97288Y32750D02*
X98488Y33950D01*
X96688Y32750D02*
X97888Y33950D01*
X96088Y32750D02*
X97288Y33950D01*
X95488Y32750D02*
X96688Y33950D01*
X94888Y32750D02*
X96088Y33950D01*
X94288Y32750D02*
X95488Y33950D01*
X93891Y32953D02*
X94888Y33950D01*
X93891Y33553D02*
X94288Y33950D01*
X104488D02*
X105088Y34550D01*
X103888Y33950D02*
X105088Y35150D01*
X103288Y33950D02*
X104488Y35150D01*
X102688Y33950D02*
X103888Y35150D01*
X102088Y33950D02*
X103288Y35150D01*
X101488Y33950D02*
X102688Y35150D01*
X100888Y33950D02*
X102088Y35150D01*
X100288Y33950D02*
X101488Y35150D01*
X99688Y33950D02*
X100888Y35150D01*
X99088Y33950D02*
X100288Y35150D01*
X98488Y33950D02*
X99688Y35150D01*
X97888Y33950D02*
X99088Y35150D01*
X97288Y33950D02*
X98488Y35150D01*
X96688Y33950D02*
X97888Y35150D01*
X96088Y33950D02*
X97288Y35150D01*
X95488Y33950D02*
X96688Y35150D01*
X94888Y33950D02*
X96088Y35150D01*
X94288Y33950D02*
X95488Y35150D01*
X93891Y34153D02*
X94888Y35150D01*
X93891Y34753D02*
X94288Y35150D01*
X104488D02*
X105088Y35750D01*
X103888Y35150D02*
X105088Y36350D01*
X103288Y35150D02*
X104488Y36350D01*
X102688Y35150D02*
X103888Y36350D01*
X102088Y35150D02*
X103288Y36350D01*
X101488Y35150D02*
X102688Y36350D01*
X100888Y35150D02*
X102088Y36350D01*
X100288Y35150D02*
X101488Y36350D01*
X99688Y35150D02*
X100888Y36350D01*
X99088Y35150D02*
X100288Y36350D01*
X98488Y35150D02*
X99688Y36350D01*
X97888Y35150D02*
X99088Y36350D01*
X97288Y35150D02*
X98488Y36350D01*
X96688Y35150D02*
X97888Y36350D01*
X96088Y35150D02*
X97288Y36350D01*
X95488Y35150D02*
X96688Y36350D01*
X94888Y35150D02*
X96088Y36350D01*
X94288Y35150D02*
X95488Y36350D01*
X93891Y35353D02*
X94888Y36350D01*
X93891Y35953D02*
X94288Y36350D01*
X104488D02*
X105088Y36950D01*
X103888Y36350D02*
X105088Y37550D01*
X103288Y36350D02*
X104488Y37550D01*
X102688Y36350D02*
X103888Y37550D01*
X102088Y36350D02*
X103288Y37550D01*
X101488Y36350D02*
X102688Y37550D01*
X100888Y36350D02*
X102088Y37550D01*
X100288Y36350D02*
X101488Y37550D01*
X99688Y36350D02*
X100888Y37550D01*
X99088Y36350D02*
X100288Y37550D01*
X98488Y36350D02*
X99688Y37550D01*
X97888Y36350D02*
X99088Y37550D01*
X97288Y36350D02*
X98488Y37550D01*
X96688Y36350D02*
X97888Y37550D01*
X96088Y36350D02*
X97288Y37550D01*
X95488Y36350D02*
X96688Y37550D01*
X94888Y36350D02*
X96088Y37550D01*
X94288Y36350D02*
X95488Y37550D01*
X93891Y36553D02*
X94888Y37550D01*
X93891Y37153D02*
X94288Y37550D01*
X104488D02*
X105088Y38150D01*
X103888Y37550D02*
X105088Y38750D01*
X103288Y37550D02*
X104488Y38750D01*
X102688Y37550D02*
X103888Y38750D01*
X102088Y37550D02*
X103288Y38750D01*
X101488Y37550D02*
X102688Y38750D01*
X100888Y37550D02*
X102088Y38750D01*
X100288Y37550D02*
X101488Y38750D01*
X99688Y37550D02*
X100888Y38750D01*
X99088Y37550D02*
X100288Y38750D01*
X98488Y37550D02*
X99688Y38750D01*
X97888Y37550D02*
X99088Y38750D01*
X97288Y37550D02*
X98488Y38750D01*
X96688Y37550D02*
X97888Y38750D01*
X96088Y37550D02*
X97288Y38750D01*
X95488Y37550D02*
X96688Y38750D01*
X94888Y37550D02*
X96088Y38750D01*
X94288Y37550D02*
X95488Y38750D01*
X93891Y37753D02*
X94888Y38750D01*
X93891Y38353D02*
X94288Y38750D01*
X104488D02*
X105088Y39350D01*
X103888Y38750D02*
X105088Y39950D01*
X103288Y38750D02*
X104488Y39950D01*
X102688Y38750D02*
X103888Y39950D01*
X102088Y38750D02*
X103288Y39950D01*
X101488Y38750D02*
X102688Y39950D01*
X100888Y38750D02*
X102088Y39950D01*
X100288Y38750D02*
X101488Y39950D01*
X99688Y38750D02*
X100888Y39950D01*
X99088Y38750D02*
X100288Y39950D01*
X98488Y38750D02*
X99688Y39950D01*
X97888Y38750D02*
X99088Y39950D01*
X97288Y38750D02*
X98488Y39950D01*
X96688Y38750D02*
X97888Y39950D01*
X96088Y38750D02*
X97288Y39950D01*
X95488Y38750D02*
X96688Y39950D01*
X94888Y38750D02*
X96088Y39950D01*
X94288Y38750D02*
X95488Y39950D01*
X93891Y38953D02*
X94888Y39950D01*
X93891Y39553D02*
X94288Y39950D01*
X104488D02*
X105088Y40550D01*
X103888Y39950D02*
X105088Y41150D01*
X103288Y39950D02*
X104488Y41150D01*
X102688Y39950D02*
X103888Y41150D01*
X102088Y39950D02*
X103288Y41150D01*
X101488Y39950D02*
X102688Y41150D01*
X100888Y39950D02*
X102088Y41150D01*
X100288Y39950D02*
X101488Y41150D01*
X99688Y39950D02*
X100888Y41150D01*
X99088Y39950D02*
X100288Y41150D01*
X98488Y39950D02*
X99688Y41150D01*
X97888Y39950D02*
X99088Y41150D01*
X97288Y39950D02*
X98488Y41150D01*
X96688Y39950D02*
X97888Y41150D01*
X96088Y39950D02*
X97288Y41150D01*
X95488Y39950D02*
X96688Y41150D01*
X94888Y39950D02*
X96088Y41150D01*
X94288Y39950D02*
X95488Y41150D01*
X93891Y40153D02*
X94888Y41150D01*
X93891Y40753D02*
X94288Y41150D01*
X104488D02*
X105088Y41750D01*
X103888Y41150D02*
X105088Y42350D01*
X103288Y41150D02*
X104488Y42350D01*
X102688Y41150D02*
X103888Y42350D01*
X102088Y41150D02*
X103288Y42350D01*
X101488Y41150D02*
X102688Y42350D01*
X100888Y41150D02*
X102088Y42350D01*
X100288Y41150D02*
X101488Y42350D01*
X99688Y41150D02*
X100888Y42350D01*
X99088Y41150D02*
X100288Y42350D01*
X98488Y41150D02*
X99688Y42350D01*
X97888Y41150D02*
X99088Y42350D01*
X97288Y41150D02*
X98488Y42350D01*
X96688Y41150D02*
X97888Y42350D01*
X96088Y41150D02*
X97288Y42350D01*
X95488Y41150D02*
X96688Y42350D01*
X94888Y41150D02*
X96088Y42350D01*
X94288Y41150D02*
X95488Y42350D01*
X93891Y41353D02*
X94888Y42350D01*
X93891Y41953D02*
X94288Y42350D01*
D133*
X21343Y-1260D02*
X21543D01*
X21443D01*
Y-660D01*
X21343Y-760D01*
X21842Y-1260D02*
X22042D01*
X21942D01*
Y-660D01*
X21842Y-760D01*
X22342Y-660D02*
X22742D01*
Y-760D01*
X22342Y-1160D01*
Y-1260D01*
X22942D02*
Y-1160D01*
X23042D01*
Y-1260D01*
X22942D01*
X23442Y-760D02*
X23542Y-660D01*
X23742D01*
X23842Y-760D01*
Y-1160D01*
X23742Y-1260D01*
X23542D01*
X23442Y-1160D01*
Y-760D01*
X24042D02*
X24142Y-660D01*
X24342D01*
X24442Y-760D01*
Y-1160D01*
X24342Y-1260D01*
X24142D01*
X24042Y-1160D01*
Y-760D01*
X47843Y41711D02*
Y41311D01*
X47443Y41711D01*
X47343D01*
X47243Y41611D01*
Y41411D01*
X47343Y41311D01*
X47843Y41911D02*
Y42111D01*
Y42011D01*
X47243D01*
X47343Y41911D01*
Y42411D02*
X47243Y42510D01*
Y42710D01*
X47343Y42810D01*
X47443D01*
X47543Y42710D01*
X47643Y42810D01*
X47743D01*
X47843Y42710D01*
Y42510D01*
X47743Y42411D01*
X47643D01*
X47543Y42510D01*
X47443Y42411D01*
X47343D01*
X47543Y42510D02*
Y42710D01*
X47843Y43010D02*
X47743D01*
Y43110D01*
X47843D01*
Y43010D01*
X47243Y43910D02*
X47343Y43710D01*
X47543Y43510D01*
X47743D01*
X47843Y43610D01*
Y43810D01*
X47743Y43910D01*
X47643D01*
X47543Y43810D01*
Y43510D01*
X47743Y44110D02*
X47843Y44210D01*
Y44410D01*
X47743Y44510D01*
X47343D01*
X47243Y44410D01*
Y44210D01*
X47343Y44110D01*
X47443D01*
X47543Y44210D01*
Y44510D01*
M02*
