G04 Layer_Color=8388736*
%FSLAX24Y24*%
%MOIN*%
G70*
G01*
G75*
%ADD46C,0.0600*%
%ADD92C,0.0580*%
%ADD190C,0.1220*%
%ADD191R,0.1040X0.1680*%
G04:AMPARAMS|DCode=192|XSize=118.7mil|YSize=118.7mil|CornerRadius=59.4mil|HoleSize=0mil|Usage=FLASHONLY|Rotation=90.000|XOffset=0mil|YOffset=0mil|HoleType=Round|Shape=RoundedRectangle|*
%AMROUNDEDRECTD192*
21,1,0.1187,0.0000,0,0,90.0*
21,1,0.0000,0.1187,0,0,90.0*
1,1,0.1187,0.0000,0.0000*
1,1,0.1187,0.0000,0.0000*
1,1,0.1187,0.0000,0.0000*
1,1,0.1187,0.0000,0.0000*
%
%ADD192ROUNDEDRECTD192*%
%ADD193R,0.0887X0.0887*%
%ADD194O,0.0395X0.0190*%
%ADD195O,0.0190X0.0395*%
%ADD196R,0.0237X0.0198*%
G04:AMPARAMS|DCode=197|XSize=30mil|YSize=32mil|CornerRadius=8.4mil|HoleSize=0mil|Usage=FLASHONLY|Rotation=0.000|XOffset=0mil|YOffset=0mil|HoleType=Round|Shape=RoundedRectangle|*
%AMROUNDEDRECTD197*
21,1,0.0300,0.0152,0,0,0.0*
21,1,0.0132,0.0320,0,0,0.0*
1,1,0.0168,0.0066,-0.0076*
1,1,0.0168,-0.0066,-0.0076*
1,1,0.0168,-0.0066,0.0076*
1,1,0.0168,0.0066,0.0076*
%
%ADD197ROUNDEDRECTD197*%
%ADD198R,0.0320X0.0320*%
G04:AMPARAMS|DCode=199|XSize=37.1mil|YSize=47.4mil|CornerRadius=9.8mil|HoleSize=0mil|Usage=FLASHONLY|Rotation=0.000|XOffset=0mil|YOffset=0mil|HoleType=Round|Shape=RoundedRectangle|*
%AMROUNDEDRECTD199*
21,1,0.0371,0.0277,0,0,0.0*
21,1,0.0175,0.0474,0,0,0.0*
1,1,0.0197,0.0087,-0.0139*
1,1,0.0197,-0.0087,-0.0139*
1,1,0.0197,-0.0087,0.0139*
1,1,0.0197,0.0087,0.0139*
%
%ADD199ROUNDEDRECTD199*%
G04:AMPARAMS|DCode=200|XSize=37.1mil|YSize=47.4mil|CornerRadius=9.8mil|HoleSize=0mil|Usage=FLASHONLY|Rotation=270.000|XOffset=0mil|YOffset=0mil|HoleType=Round|Shape=RoundedRectangle|*
%AMROUNDEDRECTD200*
21,1,0.0371,0.0277,0,0,270.0*
21,1,0.0175,0.0474,0,0,270.0*
1,1,0.0197,-0.0139,-0.0087*
1,1,0.0197,-0.0139,0.0087*
1,1,0.0197,0.0139,0.0087*
1,1,0.0197,0.0139,-0.0087*
%
%ADD200ROUNDEDRECTD200*%
G04:AMPARAMS|DCode=201|XSize=30mil|YSize=32mil|CornerRadius=8.4mil|HoleSize=0mil|Usage=FLASHONLY|Rotation=270.000|XOffset=0mil|YOffset=0mil|HoleType=Round|Shape=RoundedRectangle|*
%AMROUNDEDRECTD201*
21,1,0.0300,0.0152,0,0,270.0*
21,1,0.0132,0.0320,0,0,270.0*
1,1,0.0168,-0.0076,-0.0066*
1,1,0.0168,-0.0076,0.0066*
1,1,0.0168,0.0076,0.0066*
1,1,0.0168,0.0076,-0.0066*
%
%ADD201ROUNDEDRECTD201*%
%ADD202R,0.0208X0.0186*%
%ADD203R,0.0434X0.0237*%
%ADD204R,0.1182X0.0474*%
%ADD205R,0.0440X0.0400*%
%ADD206R,0.0320X0.0320*%
%ADD207R,0.0870X0.0870*%
%ADD208R,0.0870X0.0870*%
%ADD209R,0.0316X0.0415*%
%ADD210R,0.0415X0.0316*%
%ADD211R,0.0513X0.0749*%
G04:AMPARAMS|DCode=212|XSize=60mil|YSize=68mil|CornerRadius=17mil|HoleSize=0mil|Usage=FLASHONLY|Rotation=270.000|XOffset=0mil|YOffset=0mil|HoleType=Round|Shape=RoundedRectangle|*
%AMROUNDEDRECTD212*
21,1,0.0600,0.0340,0,0,270.0*
21,1,0.0260,0.0680,0,0,270.0*
1,1,0.0340,-0.0170,-0.0130*
1,1,0.0340,-0.0170,0.0130*
1,1,0.0340,0.0170,0.0130*
1,1,0.0340,0.0170,-0.0130*
%
%ADD212ROUNDEDRECTD212*%
%ADD213R,0.0631X0.1419*%
%ADD214R,0.0198X0.0237*%
%ADD215O,0.0218X0.0749*%
%ADD216R,0.0330X0.0330*%
%ADD217R,0.0671X0.0533*%
%ADD218R,0.0749X0.0631*%
%ADD219R,0.0533X0.0671*%
%ADD220R,0.0671X0.0395*%
G04:AMPARAMS|DCode=221|XSize=60mil|YSize=68mil|CornerRadius=17mil|HoleSize=0mil|Usage=FLASHONLY|Rotation=0.000|XOffset=0mil|YOffset=0mil|HoleType=Round|Shape=RoundedRectangle|*
%AMROUNDEDRECTD221*
21,1,0.0600,0.0340,0,0,0.0*
21,1,0.0260,0.0680,0,0,0.0*
1,1,0.0340,0.0130,-0.0170*
1,1,0.0340,-0.0130,-0.0170*
1,1,0.0340,-0.0130,0.0170*
1,1,0.0340,0.0130,0.0170*
%
%ADD221ROUNDEDRECTD221*%
%ADD222R,0.0560X0.0560*%
%ADD223R,0.0560X0.0560*%
%ADD224R,0.1340X0.0710*%
%ADD225R,0.0710X0.1340*%
%ADD226R,0.0280X0.0360*%
G04:AMPARAMS|DCode=227|XSize=80mil|YSize=80mil|CornerRadius=40mil|HoleSize=0mil|Usage=FLASHONLY|Rotation=0.000|XOffset=0mil|YOffset=0mil|HoleType=Round|Shape=RoundedRectangle|*
%AMROUNDEDRECTD227*
21,1,0.0800,0.0000,0,0,0.0*
21,1,0.0000,0.0800,0,0,0.0*
1,1,0.0800,0.0000,0.0000*
1,1,0.0800,0.0000,0.0000*
1,1,0.0800,0.0000,0.0000*
1,1,0.0800,0.0000,0.0000*
%
%ADD227ROUNDEDRECTD227*%
G04:AMPARAMS|DCode=228|XSize=80mil|YSize=80mil|CornerRadius=40mil|HoleSize=0mil|Usage=FLASHONLY|Rotation=90.000|XOffset=0mil|YOffset=0mil|HoleType=Round|Shape=RoundedRectangle|*
%AMROUNDEDRECTD228*
21,1,0.0800,0.0000,0,0,90.0*
21,1,0.0000,0.0800,0,0,90.0*
1,1,0.0800,0.0000,0.0000*
1,1,0.0800,0.0000,0.0000*
1,1,0.0800,0.0000,0.0000*
1,1,0.0800,0.0000,0.0000*
%
%ADD228ROUNDEDRECTD228*%
%ADD229R,0.0375X0.1182*%
%ADD230R,0.1753X0.0545*%
%ADD231R,0.0360X0.0640*%
%ADD232R,0.1379X0.0434*%
%ADD233R,0.0434X0.1379*%
%ADD234O,0.0789X0.0198*%
%ADD235O,0.0198X0.0789*%
%ADD236R,0.0482X0.0198*%
%ADD237O,0.0986X0.0316*%
%ADD238O,0.0671X0.0316*%
%ADD239R,0.0552X0.0434*%
%ADD240R,0.0213X0.0260*%
%ADD241R,0.0606X0.0252*%
%ADD242R,0.0330X0.0330*%
%ADD243R,0.0270X0.0270*%
%ADD244O,0.0905X0.1730*%
%ADD245C,0.0671*%
%ADD246R,0.0671X0.0671*%
%ADD247O,0.0680X0.1280*%
G04:AMPARAMS|DCode=248|XSize=141mil|YSize=91mil|CornerRadius=0mil|HoleSize=0mil|Usage=FLASHONLY|Rotation=180.000|XOffset=0mil|YOffset=0mil|HoleType=Round|Shape=Octagon|*
%AMOCTAGOND248*
4,1,8,-0.0705,0.0228,-0.0705,-0.0228,-0.0478,-0.0455,0.0478,-0.0455,0.0705,-0.0228,0.0705,0.0228,0.0478,0.0455,-0.0478,0.0455,-0.0705,0.0228,0.0*
%
%ADD248OCTAGOND248*%

G04:AMPARAMS|DCode=249|XSize=141mil|YSize=91mil|CornerRadius=0mil|HoleSize=0mil|Usage=FLASHONLY|Rotation=270.000|XOffset=0mil|YOffset=0mil|HoleType=Round|Shape=Octagon|*
%AMOCTAGOND249*
4,1,8,-0.0228,-0.0705,0.0228,-0.0705,0.0455,-0.0478,0.0455,0.0478,0.0228,0.0705,-0.0228,0.0705,-0.0455,0.0478,-0.0455,-0.0478,-0.0228,-0.0705,0.0*
%
%ADD249OCTAGOND249*%

%ADD250C,0.1385*%
%ADD251C,0.0660*%
%ADD252C,0.1080*%
%ADD253P,0.0844X8X292.5*%
%ADD254O,0.1730X0.0905*%
%ADD255O,0.1280X0.0680*%
G36*
X25850Y36765D02*
Y36371D01*
Y35967D01*
Y35574D01*
Y35298D01*
X23802D01*
Y35574D01*
Y35967D01*
Y36371D01*
Y36775D01*
Y37060D01*
X25850D01*
Y36765D01*
D02*
G37*
G36*
X36137Y12584D02*
Y12367D01*
Y12150D01*
Y11934D01*
Y11717D01*
Y11501D01*
X34002D01*
Y11717D01*
Y11934D01*
Y12150D01*
Y12367D01*
Y12584D01*
Y12585D01*
Y12801D01*
X36137D01*
Y12584D01*
D02*
G37*
G36*
X13285Y37565D02*
Y37171D01*
Y36767D01*
Y36374D01*
Y36098D01*
X11237D01*
Y36374D01*
Y36767D01*
Y37171D01*
Y37575D01*
Y37860D01*
X13285D01*
Y37565D01*
D02*
G37*
G36*
X17295D02*
Y37171D01*
Y36767D01*
Y36374D01*
Y36098D01*
X15247D01*
Y36374D01*
Y36767D01*
Y37171D01*
Y37575D01*
Y37860D01*
X17295D01*
Y37565D01*
D02*
G37*
G36*
X9300D02*
Y37171D01*
Y36767D01*
Y36374D01*
Y36098D01*
X7252D01*
Y36374D01*
Y36767D01*
Y37171D01*
Y37575D01*
Y37860D01*
X9300D01*
Y37565D01*
D02*
G37*
G36*
X7903Y12584D02*
Y12367D01*
Y12150D01*
Y11934D01*
Y11717D01*
Y11501D01*
X5768D01*
Y11717D01*
Y11934D01*
Y12150D01*
Y12367D01*
Y12584D01*
Y12585D01*
Y12801D01*
X7903D01*
Y12584D01*
D02*
G37*
G36*
X35160Y41189D02*
X35161Y41174D01*
X35173Y41145D01*
X35195Y41124D01*
X35223Y41112D01*
X35238Y41110D01*
Y40904D01*
X35225Y40902D01*
X35200Y40892D01*
X35181Y40873D01*
X35171Y40848D01*
X35169Y40835D01*
Y40795D01*
X35160D01*
Y40786D01*
X35161Y40770D01*
X35173Y40742D01*
X35195Y40720D01*
X35223Y40708D01*
X35238Y40707D01*
Y40510D01*
X35223Y40508D01*
X35195Y40497D01*
X35173Y40475D01*
X35161Y40447D01*
X35160Y40431D01*
Y40412D01*
X34982D01*
X34981Y40431D01*
X34966Y40466D01*
X34939Y40493D01*
X34903Y40508D01*
X34884Y40510D01*
X34864D01*
X34845Y40508D01*
X34810Y40493D01*
X34782Y40466D01*
X34768Y40431D01*
X34766Y40412D01*
X34589D01*
Y40421D01*
X34587Y40437D01*
X34575Y40465D01*
X34554Y40487D01*
X34525Y40499D01*
X34510Y40500D01*
Y40707D01*
X34523Y40708D01*
X34548Y40718D01*
X34567Y40737D01*
X34578Y40762D01*
X34579Y40776D01*
Y40815D01*
X34589D01*
Y40825D01*
X34587Y40840D01*
X34575Y40869D01*
X34554Y40890D01*
X34525Y40902D01*
X34510Y40904D01*
Y41101D01*
X34525Y41102D01*
X34554Y41114D01*
X34575Y41136D01*
X34587Y41164D01*
X34589Y41179D01*
Y41199D01*
X34766D01*
X34768Y41180D01*
X34782Y41144D01*
X34810Y41117D01*
X34845Y41102D01*
X34864Y41101D01*
X34884D01*
X34903Y41102D01*
X34939Y41117D01*
X34966Y41144D01*
X34981Y41180D01*
X34982Y41199D01*
X35160D01*
Y41189D01*
D02*
G37*
G36*
X14872Y12584D02*
Y12367D01*
Y12150D01*
Y11934D01*
Y11717D01*
Y11501D01*
X12737D01*
Y11717D01*
Y11934D01*
Y12150D01*
Y12367D01*
Y12584D01*
Y12585D01*
Y12801D01*
X14872D01*
Y12584D01*
D02*
G37*
G36*
X29049D02*
Y12367D01*
Y12150D01*
Y11934D01*
Y11717D01*
Y11501D01*
X26914D01*
Y11717D01*
Y11934D01*
Y12150D01*
Y12367D01*
Y12584D01*
Y12585D01*
Y12801D01*
X29049D01*
Y12584D01*
D02*
G37*
G36*
X21963D02*
Y12367D01*
Y12150D01*
Y11934D01*
Y11717D01*
Y11501D01*
X19828D01*
Y11717D01*
Y11934D01*
Y12150D01*
Y12367D01*
Y12584D01*
Y12585D01*
Y12801D01*
X21963D01*
Y12584D01*
D02*
G37*
%LPC*%
G36*
X25623Y35682D02*
X25604Y35680D01*
X25569Y35665D01*
X25541Y35638D01*
X25527Y35603D01*
X25525Y35584D01*
Y35584D01*
X25526Y35565D01*
X25527Y35545D01*
X25542Y35510D01*
X25569Y35483D01*
X25605Y35468D01*
X25624Y35466D01*
X25625Y35473D01*
X25647Y35475D01*
X25686Y35491D01*
X25715Y35521D01*
X25732Y35560D01*
X25733Y35574D01*
X25722D01*
Y35584D01*
X25720Y35603D01*
X25705Y35638D01*
X25678Y35665D01*
X25642Y35680D01*
X25623Y35682D01*
D02*
G37*
G36*
X24826D02*
X24807Y35680D01*
X24771Y35665D01*
X24744Y35638D01*
X24729Y35603D01*
X24728Y35584D01*
Y35574D01*
Y35564D01*
X24729Y35547D01*
X24742Y35515D01*
X24767Y35490D01*
X24799Y35477D01*
X24816Y35475D01*
X24826D01*
X24847Y35477D01*
X24886Y35494D01*
X24916Y35523D01*
X24932Y35563D01*
X24933Y35574D01*
X24924D01*
Y35584D01*
X24923Y35603D01*
X24908Y35638D01*
X24881Y35665D01*
X24845Y35680D01*
X24826Y35682D01*
D02*
G37*
G36*
X25230D02*
X25210Y35680D01*
X25175Y35665D01*
X25148Y35638D01*
X25133Y35603D01*
X25131Y35584D01*
Y35574D01*
X25121D01*
Y35574D01*
X25123Y35553D01*
X25140Y35514D01*
X25169Y35484D01*
X25208Y35468D01*
X25230Y35466D01*
X25249Y35467D01*
X25284Y35482D01*
X25311Y35509D01*
X25326Y35545D01*
X25328Y35564D01*
Y35574D01*
Y35584D01*
X25326Y35603D01*
X25311Y35638D01*
X25284Y35665D01*
X25249Y35680D01*
X25230Y35682D01*
D02*
G37*
G36*
X24029D02*
X24010Y35680D01*
X23974Y35665D01*
X23947Y35638D01*
X23932Y35603D01*
X23930Y35584D01*
Y35574D01*
X23920D01*
Y35574D01*
X23923Y35553D01*
X23939Y35514D01*
X23969Y35484D01*
X24008Y35468D01*
X24029Y35466D01*
X24050Y35468D01*
X24089Y35484D01*
X24119Y35514D01*
X24135Y35553D01*
X24137Y35574D01*
Y35574D01*
X24117D01*
Y35593D01*
X24116Y35611D01*
X24102Y35643D01*
X24078Y35667D01*
X24046Y35680D01*
X24029Y35682D01*
D02*
G37*
G36*
X24432Y35692D02*
X24411Y35690D01*
X24372Y35674D01*
X24342Y35644D01*
X24326Y35605D01*
X24324Y35584D01*
Y35574D01*
Y35564D01*
X24326Y35545D01*
X24341Y35509D01*
X24368Y35482D01*
X24403Y35467D01*
X24422Y35466D01*
X24444Y35468D01*
X24483Y35484D01*
X24512Y35514D01*
X24529Y35553D01*
X24531Y35574D01*
Y35574D01*
X24521D01*
Y35603D01*
X24519Y35621D01*
X24506Y35653D01*
X24481Y35677D01*
X24450Y35690D01*
X24432Y35692D01*
D02*
G37*
G36*
X25230Y36076D02*
X25210Y36074D01*
X25175Y36059D01*
X25148Y36032D01*
X25133Y35997D01*
X25131Y35977D01*
Y35967D01*
X25122D01*
X25123Y35958D01*
X25138Y35923D01*
X25165Y35896D01*
X25200Y35881D01*
X25220Y35879D01*
X25241Y35881D01*
X25281Y35897D01*
X25311Y35928D01*
X25328Y35968D01*
X25328Y35970D01*
Y35977D01*
X25326Y35997D01*
X25311Y36032D01*
X25284Y36059D01*
X25249Y36074D01*
X25230Y36076D01*
D02*
G37*
G36*
X25623D02*
X25604Y36074D01*
X25569Y36059D01*
X25541Y36032D01*
X25527Y35997D01*
X25525Y35977D01*
Y35967D01*
X25517D01*
X25517Y35966D01*
X25533Y35927D01*
X25563Y35897D01*
X25602Y35881D01*
X25623Y35879D01*
X25644Y35881D01*
X25682Y35897D01*
X25712Y35926D01*
X25727Y35964D01*
X25728Y35967D01*
X25722D01*
Y35977D01*
X25720Y35997D01*
X25705Y36032D01*
X25678Y36059D01*
X25642Y36074D01*
X25623Y36076D01*
D02*
G37*
G36*
X24826D02*
X24807Y36074D01*
X24771Y36059D01*
X24744Y36032D01*
X24729Y35997D01*
X24728Y35977D01*
Y35967D01*
X24722D01*
X24722Y35964D01*
X24738Y35926D01*
X24767Y35897D01*
X24805Y35881D01*
X24826Y35879D01*
X24846Y35881D01*
X24882Y35896D01*
X24909Y35923D01*
X24924Y35960D01*
X24925Y35967D01*
X24924D01*
Y35977D01*
X24923Y35997D01*
X24908Y36032D01*
X24881Y36059D01*
X24845Y36074D01*
X24826Y36076D01*
D02*
G37*
G36*
X24029D02*
X24010Y36074D01*
X23974Y36059D01*
X23947Y36032D01*
X23932Y35997D01*
X23930Y35977D01*
Y35967D01*
X23922D01*
X23922Y35966D01*
X23939Y35927D01*
X23969Y35897D01*
X24008Y35881D01*
X24029Y35879D01*
X24048Y35881D01*
X24084Y35896D01*
X24112Y35923D01*
X24126Y35959D01*
X24127Y35967D01*
X24117D01*
Y35987D01*
X24116Y36004D01*
X24102Y36036D01*
X24078Y36061D01*
X24046Y36074D01*
X24029Y36076D01*
D02*
G37*
G36*
X24432Y36086D02*
X24411Y36084D01*
X24372Y36067D01*
X24342Y36037D01*
X24326Y35998D01*
X24324Y35977D01*
X24326Y35958D01*
X24341Y35923D01*
X24368Y35896D01*
X24403Y35881D01*
X24422Y35879D01*
X24443Y35881D01*
X24481Y35897D01*
X24511Y35926D01*
X24527Y35964D01*
X24527Y35967D01*
X24521D01*
Y35997D01*
X24519Y36014D01*
X24506Y36046D01*
X24481Y36071D01*
X24450Y36084D01*
X24432Y36086D01*
D02*
G37*
G36*
X25230Y36893D02*
X25208Y36891D01*
X25169Y36874D01*
X25140Y36845D01*
X25123Y36806D01*
X25121Y36784D01*
Y36775D01*
X25123Y36755D01*
X25138Y36720D01*
X25165Y36693D01*
X25200Y36678D01*
X25220Y36676D01*
X25241Y36678D01*
X25281Y36695D01*
X25311Y36725D01*
X25328Y36765D01*
X25328Y36767D01*
Y36794D01*
X25326Y36813D01*
X25311Y36849D01*
X25284Y36876D01*
X25249Y36891D01*
X25230Y36893D01*
D02*
G37*
G36*
X25623D02*
X25602Y36891D01*
X25563Y36874D01*
X25533Y36845D01*
X25517Y36806D01*
X25515Y36784D01*
X25517Y36763D01*
X25533Y36724D01*
X25563Y36694D01*
X25602Y36678D01*
X25623Y36676D01*
X25644Y36678D01*
X25682Y36694D01*
X25712Y36723D01*
X25727Y36762D01*
X25729Y36782D01*
Y36806D01*
X25729Y36806D01*
X25713Y36845D01*
X25683Y36874D01*
X25644Y36891D01*
X25623Y36893D01*
D02*
G37*
G36*
X24836Y36883D02*
X24826D01*
X24805Y36881D01*
X24766Y36865D01*
X24736Y36835D01*
X24720Y36796D01*
Y36782D01*
X24722Y36762D01*
X24738Y36723D01*
X24767Y36694D01*
X24805Y36678D01*
X24826Y36676D01*
X24846Y36678D01*
X24882Y36693D01*
X24909Y36721D01*
X24924Y36757D01*
X24925Y36765D01*
X24924D01*
Y36794D01*
X24923Y36812D01*
X24909Y36843D01*
X24885Y36868D01*
X24853Y36881D01*
X24836Y36883D01*
D02*
G37*
G36*
X24028Y36892D02*
X24027Y36885D01*
X24005Y36883D01*
X23966Y36867D01*
X23937Y36837D01*
X23920Y36798D01*
X23920D01*
Y36785D01*
X23922Y36763D01*
X23939Y36724D01*
X23969Y36694D01*
X24008Y36678D01*
X24029Y36676D01*
X24048Y36678D01*
X24084Y36693D01*
X24112Y36720D01*
X24126Y36756D01*
X24128Y36775D01*
X24127D01*
X24126Y36794D01*
X24125Y36813D01*
X24110Y36848D01*
X24083Y36875D01*
X24047Y36890D01*
X24028Y36892D01*
D02*
G37*
G36*
X24422Y36893D02*
X24403Y36891D01*
X24368Y36876D01*
X24341Y36849D01*
X24326Y36813D01*
X24324Y36794D01*
Y36786D01*
Y36784D01*
Y36775D01*
X24326Y36755D01*
X24341Y36720D01*
X24368Y36693D01*
X24403Y36678D01*
X24422Y36676D01*
X24443Y36678D01*
X24481Y36694D01*
X24511Y36723D01*
X24527Y36762D01*
X24529Y36782D01*
Y36806D01*
X24529Y36806D01*
X24512Y36845D01*
X24483Y36874D01*
X24444Y36891D01*
X24422Y36893D01*
D02*
G37*
G36*
X24432Y36489D02*
X24411Y36487D01*
X24372Y36471D01*
X24342Y36441D01*
X24326Y36402D01*
X24324Y36381D01*
Y36371D01*
X24326Y36352D01*
X24341Y36316D01*
X24368Y36289D01*
X24403Y36274D01*
X24422Y36273D01*
X24443Y36275D01*
X24481Y36291D01*
X24511Y36320D01*
X24527Y36358D01*
X24528Y36371D01*
X24521D01*
Y36401D01*
X24519Y36418D01*
X24506Y36450D01*
X24481Y36474D01*
X24450Y36487D01*
X24432Y36489D01*
D02*
G37*
G36*
X24826Y36479D02*
X24807Y36477D01*
X24771Y36463D01*
X24744Y36436D01*
X24729Y36400D01*
X24728Y36381D01*
Y36371D01*
X24721D01*
X24722Y36358D01*
X24738Y36320D01*
X24767Y36291D01*
X24805Y36275D01*
X24826Y36273D01*
X24846Y36275D01*
X24882Y36289D01*
X24909Y36317D01*
X24924Y36353D01*
X24926Y36371D01*
X24924D01*
Y36381D01*
X24923Y36400D01*
X24908Y36436D01*
X24881Y36463D01*
X24845Y36477D01*
X24826Y36479D01*
D02*
G37*
G36*
X24029D02*
X24010Y36477D01*
X23974Y36463D01*
X23947Y36436D01*
X23932Y36400D01*
X23930Y36381D01*
Y36371D01*
X23921D01*
X23922Y36360D01*
X23939Y36321D01*
X23969Y36291D01*
X24008Y36275D01*
X24029Y36273D01*
X24048Y36275D01*
X24084Y36289D01*
X24112Y36317D01*
X24126Y36353D01*
X24128Y36371D01*
X24117D01*
Y36391D01*
X24116Y36408D01*
X24102Y36440D01*
X24078Y36464D01*
X24046Y36478D01*
X24029Y36479D01*
D02*
G37*
G36*
X25230D02*
X25210Y36477D01*
X25175Y36463D01*
X25148Y36436D01*
X25133Y36400D01*
X25131Y36381D01*
Y36371D01*
X25121D01*
X25123Y36352D01*
X25138Y36316D01*
X25165Y36289D01*
X25200Y36274D01*
X25220Y36273D01*
X25241Y36275D01*
X25281Y36291D01*
X25311Y36322D01*
X25328Y36361D01*
X25329Y36371D01*
X25328D01*
Y36381D01*
X25326Y36400D01*
X25311Y36436D01*
X25284Y36463D01*
X25249Y36477D01*
X25230Y36479D01*
D02*
G37*
G36*
X25623D02*
X25604Y36477D01*
X25569Y36463D01*
X25541Y36436D01*
X25527Y36400D01*
X25525Y36381D01*
Y36371D01*
X25516D01*
X25517Y36360D01*
X25533Y36321D01*
X25563Y36291D01*
X25602Y36275D01*
X25623Y36273D01*
X25644Y36275D01*
X25682Y36291D01*
X25712Y36320D01*
X25727Y36358D01*
X25729Y36371D01*
X25722D01*
Y36381D01*
X25720Y36400D01*
X25705Y36436D01*
X25678Y36463D01*
X25642Y36477D01*
X25623Y36479D01*
D02*
G37*
G36*
X35937Y12250D02*
X35918Y12248D01*
X35883Y12233D01*
X35856Y12206D01*
X35841Y12170D01*
X35840Y12150D01*
X35832D01*
X35834Y12132D01*
X35849Y12094D01*
X35878Y12066D01*
X35915Y12051D01*
X35935Y12049D01*
X35935Y12049D01*
X35955Y12051D01*
X35993Y12067D01*
X36021Y12097D01*
X36036Y12135D01*
X36037Y12155D01*
X36032Y12155D01*
X36032Y12155D01*
X36030Y12174D01*
X36016Y12208D01*
X35990Y12234D01*
X35956Y12249D01*
X35937Y12250D01*
D02*
G37*
G36*
X35070Y12686D02*
X35070Y12686D01*
X35050Y12684D01*
X35013Y12669D01*
X34986Y12640D01*
X34971Y12603D01*
X34970Y12584D01*
X34971Y12565D01*
X34986Y12528D01*
X35013Y12500D01*
X35050Y12484D01*
X35070Y12482D01*
X35090Y12484D01*
X35126Y12500D01*
X35154Y12528D01*
X35168Y12565D01*
X35170Y12584D01*
X35168Y12603D01*
X35154Y12640D01*
X35126Y12669D01*
X35090Y12684D01*
X35070Y12686D01*
D02*
G37*
G36*
X34637Y12250D02*
X34637Y12250D01*
X34618Y12249D01*
X34582Y12233D01*
X34555Y12206D01*
X34541Y12170D01*
X34540Y12150D01*
X34535D01*
X34537Y12135D01*
X34552Y12097D01*
X34581Y12068D01*
X34619Y12053D01*
X34640Y12052D01*
X34659Y12054D01*
X34695Y12069D01*
X34722Y12096D01*
X34736Y12132D01*
X34737Y12151D01*
X34736Y12170D01*
X34721Y12206D01*
X34693Y12234D01*
X34657Y12249D01*
X34637Y12250D01*
D02*
G37*
G36*
Y12684D02*
X34637Y12684D01*
X34618Y12682D01*
X34582Y12667D01*
X34555Y12639D01*
X34541Y12603D01*
X34540Y12584D01*
X34535D01*
X34537Y12568D01*
X34552Y12530D01*
X34581Y12501D01*
X34619Y12486D01*
X34640Y12485D01*
X34659Y12487D01*
X34695Y12502D01*
X34722Y12529D01*
X34736Y12565D01*
X34737Y12584D01*
X34736Y12603D01*
X34721Y12639D01*
X34693Y12667D01*
X34657Y12682D01*
X34637Y12684D01*
D02*
G37*
G36*
X35937Y12684D02*
X35918Y12681D01*
X35883Y12666D01*
X35856Y12639D01*
X35841Y12603D01*
X35840Y12584D01*
X35832D01*
X35834Y12565D01*
X35849Y12527D01*
X35878Y12499D01*
X35915Y12484D01*
X35935Y12482D01*
X35935Y12482D01*
X35955Y12484D01*
X35993Y12500D01*
X36021Y12530D01*
X36036Y12568D01*
X36037Y12588D01*
X36032Y12589D01*
X36032Y12589D01*
X36030Y12607D01*
X36016Y12641D01*
X35990Y12668D01*
X35956Y12682D01*
X35937Y12684D01*
D02*
G37*
G36*
X34205Y12686D02*
X34185Y12684D01*
X34148Y12669D01*
X34120Y12640D01*
X34104Y12604D01*
X34103Y12587D01*
X34104Y12569D01*
X34118Y12532D01*
X34146Y12503D01*
X34182Y12487D01*
X34202Y12485D01*
Y12485D01*
X34222Y12487D01*
X34258Y12503D01*
X34285Y12532D01*
X34299Y12569D01*
X34300Y12589D01*
X34307D01*
X34306Y12604D01*
X34290Y12641D01*
X34262Y12669D01*
X34225Y12684D01*
X34205Y12686D01*
D02*
G37*
G36*
X35500Y12684D02*
X35500Y12684D01*
X35480Y12682D01*
X35445Y12667D01*
X35418Y12639D01*
X35404Y12603D01*
X35402Y12584D01*
X35404Y12565D01*
X35419Y12529D01*
X35446Y12501D01*
X35483Y12486D01*
X35502Y12485D01*
X35502Y12485D01*
X35522Y12487D01*
X35557Y12502D01*
X35584Y12529D01*
X35598Y12565D01*
X35600Y12585D01*
X35605D01*
X35602Y12603D01*
X35586Y12640D01*
X35557Y12668D01*
X35520Y12682D01*
X35500Y12684D01*
D02*
G37*
G36*
Y12250D02*
X35500Y12250D01*
X35480Y12249D01*
X35445Y12234D01*
X35418Y12206D01*
X35404Y12170D01*
X35402Y12151D01*
X35404Y12132D01*
X35419Y12096D01*
X35446Y12068D01*
X35483Y12053D01*
X35502Y12052D01*
X35502Y12052D01*
X35522Y12054D01*
X35557Y12069D01*
X35584Y12096D01*
X35598Y12132D01*
X35600Y12152D01*
X35605D01*
X35602Y12170D01*
X35586Y12207D01*
X35557Y12235D01*
X35520Y12249D01*
X35500Y12250D01*
D02*
G37*
G36*
Y11817D02*
X35500Y11817D01*
X35480Y11815D01*
X35445Y11800D01*
X35418Y11773D01*
X35404Y11737D01*
X35402Y11718D01*
X35404Y11699D01*
X35419Y11663D01*
X35446Y11635D01*
X35483Y11620D01*
X35502Y11619D01*
X35502Y11619D01*
X35522Y11620D01*
X35557Y11635D01*
X35584Y11663D01*
X35598Y11699D01*
X35600Y11719D01*
X35605D01*
X35602Y11737D01*
X35586Y11774D01*
X35557Y11802D01*
X35520Y11816D01*
X35500Y11817D01*
D02*
G37*
G36*
X34205Y11820D02*
X34185Y11818D01*
X34148Y11803D01*
X34120Y11774D01*
X34104Y11737D01*
X34102Y11718D01*
X34104Y11699D01*
X34119Y11663D01*
X34147Y11635D01*
X34183Y11620D01*
X34202Y11619D01*
X34222Y11621D01*
X34258Y11637D01*
X34285Y11665D01*
X34299Y11703D01*
X34300Y11722D01*
X34307D01*
X34306Y11737D01*
X34290Y11775D01*
X34262Y11803D01*
X34225Y11818D01*
X34205Y11820D01*
D02*
G37*
G36*
X35070Y11820D02*
X35070Y11820D01*
X35050Y11818D01*
X35013Y11803D01*
X34986Y11774D01*
X34971Y11737D01*
X34970Y11718D01*
X34971Y11699D01*
X34986Y11662D01*
X35013Y11633D01*
X35050Y11618D01*
X35070Y11616D01*
X35090Y11618D01*
X35126Y11633D01*
X35154Y11662D01*
X35168Y11699D01*
X35170Y11718D01*
X35168Y11737D01*
X35154Y11774D01*
X35126Y11803D01*
X35090Y11818D01*
X35070Y11820D01*
D02*
G37*
G36*
X34205Y12253D02*
X34185Y12251D01*
X34148Y12236D01*
X34120Y12207D01*
X34104Y12170D01*
X34102Y12151D01*
X34104Y12132D01*
X34119Y12096D01*
X34147Y12068D01*
X34183Y12054D01*
X34202Y12052D01*
X34222Y12054D01*
X34258Y12070D01*
X34285Y12099D01*
X34299Y12136D01*
X34300Y12155D01*
X34307D01*
X34306Y12171D01*
X34290Y12208D01*
X34262Y12236D01*
X34225Y12251D01*
X34205Y12253D01*
D02*
G37*
G36*
X35070Y12253D02*
X35070Y12253D01*
X35050Y12251D01*
X35013Y12236D01*
X34986Y12207D01*
X34971Y12170D01*
X34970Y12151D01*
X34971Y12132D01*
X34986Y12095D01*
X35013Y12066D01*
X35050Y12051D01*
X35070Y12049D01*
X35090Y12051D01*
X35126Y12066D01*
X35154Y12095D01*
X35168Y12132D01*
X35170Y12151D01*
X35168Y12170D01*
X35154Y12207D01*
X35126Y12236D01*
X35090Y12251D01*
X35070Y12253D01*
D02*
G37*
G36*
X34637Y11817D02*
X34637Y11817D01*
X34618Y11815D01*
X34582Y11800D01*
X34555Y11773D01*
X34541Y11737D01*
X34540Y11717D01*
X34535D01*
X34537Y11702D01*
X34552Y11664D01*
X34581Y11635D01*
X34619Y11620D01*
X34640Y11619D01*
X34659Y11620D01*
X34695Y11635D01*
X34722Y11663D01*
X34736Y11699D01*
X34737Y11718D01*
X34736Y11737D01*
X34721Y11773D01*
X34693Y11801D01*
X34657Y11816D01*
X34637Y11817D01*
D02*
G37*
G36*
X35937Y11817D02*
X35918Y11815D01*
X35883Y11800D01*
X35856Y11772D01*
X35841Y11737D01*
X35840Y11717D01*
X35832D01*
X35834Y11698D01*
X35849Y11661D01*
X35878Y11633D01*
X35915Y11618D01*
X35935Y11616D01*
X35935Y11616D01*
X35955Y11618D01*
X35993Y11634D01*
X36021Y11664D01*
X36036Y11702D01*
X36037Y11722D01*
X36032Y11722D01*
X36032Y11722D01*
X36030Y11741D01*
X36016Y11775D01*
X35990Y11801D01*
X35956Y11816D01*
X35937Y11817D01*
D02*
G37*
G36*
X11464Y37279D02*
X11445Y37277D01*
X11409Y37263D01*
X11382Y37236D01*
X11367Y37200D01*
X11365Y37181D01*
Y37171D01*
X11356D01*
X11357Y37160D01*
X11374Y37121D01*
X11404Y37091D01*
X11443Y37075D01*
X11464Y37073D01*
X11483Y37075D01*
X11519Y37089D01*
X11547Y37117D01*
X11562Y37153D01*
X11563Y37171D01*
X11552D01*
Y37191D01*
X11551Y37208D01*
X11537Y37240D01*
X11513Y37264D01*
X11481Y37278D01*
X11464Y37279D01*
D02*
G37*
G36*
X13058D02*
X13039Y37277D01*
X13004Y37263D01*
X12976Y37236D01*
X12962Y37200D01*
X12960Y37181D01*
Y37171D01*
X12951D01*
X12952Y37160D01*
X12968Y37121D01*
X12998Y37091D01*
X13037Y37075D01*
X13058Y37073D01*
X13079Y37075D01*
X13117Y37091D01*
X13147Y37120D01*
X13162Y37158D01*
X13164Y37171D01*
X13157D01*
Y37181D01*
X13155Y37200D01*
X13140Y37236D01*
X13113Y37263D01*
X13077Y37277D01*
X13058Y37279D01*
D02*
G37*
G36*
X12665D02*
X12645Y37277D01*
X12610Y37263D01*
X12583Y37236D01*
X12568Y37200D01*
X12566Y37181D01*
Y37171D01*
X12556D01*
X12558Y37152D01*
X12573Y37116D01*
X12600Y37089D01*
X12636Y37074D01*
X12655Y37073D01*
X12676Y37075D01*
X12716Y37091D01*
X12746Y37122D01*
X12763Y37161D01*
X12764Y37171D01*
X12763D01*
Y37181D01*
X12761Y37200D01*
X12746Y37236D01*
X12719Y37263D01*
X12684Y37277D01*
X12665Y37279D01*
D02*
G37*
G36*
X11867Y37289D02*
X11846Y37287D01*
X11807Y37271D01*
X11777Y37241D01*
X11761Y37202D01*
X11759Y37181D01*
Y37171D01*
X11761Y37152D01*
X11776Y37116D01*
X11803Y37089D01*
X11838Y37074D01*
X11857Y37073D01*
X11878Y37075D01*
X11916Y37091D01*
X11946Y37120D01*
X11962Y37158D01*
X11963Y37171D01*
X11956D01*
Y37201D01*
X11954Y37218D01*
X11941Y37250D01*
X11917Y37274D01*
X11885Y37287D01*
X11867Y37289D01*
D02*
G37*
G36*
X12261Y37279D02*
X12242Y37277D01*
X12206Y37263D01*
X12179Y37236D01*
X12164Y37200D01*
X12163Y37181D01*
Y37171D01*
X12156D01*
X12157Y37158D01*
X12173Y37120D01*
X12202Y37091D01*
X12240Y37075D01*
X12261Y37073D01*
X12281Y37075D01*
X12317Y37089D01*
X12344Y37117D01*
X12359Y37153D01*
X12361Y37171D01*
X12359D01*
Y37181D01*
X12358Y37200D01*
X12343Y37236D01*
X12316Y37263D01*
X12280Y37277D01*
X12261Y37279D01*
D02*
G37*
G36*
X13058Y36876D02*
X13039Y36874D01*
X13004Y36859D01*
X12976Y36832D01*
X12962Y36797D01*
X12960Y36777D01*
Y36767D01*
X12952D01*
X12952Y36766D01*
X12968Y36727D01*
X12998Y36697D01*
X13037Y36681D01*
X13058Y36679D01*
X13079Y36681D01*
X13117Y36697D01*
X13147Y36726D01*
X13162Y36764D01*
X13163Y36767D01*
X13157D01*
Y36777D01*
X13155Y36797D01*
X13140Y36832D01*
X13113Y36859D01*
X13077Y36874D01*
X13058Y36876D01*
D02*
G37*
G36*
X12665D02*
X12645Y36874D01*
X12610Y36859D01*
X12583Y36832D01*
X12568Y36797D01*
X12566Y36777D01*
Y36767D01*
X12557D01*
X12558Y36758D01*
X12573Y36723D01*
X12600Y36695D01*
X12636Y36681D01*
X12655Y36679D01*
X12676Y36681D01*
X12716Y36697D01*
X12746Y36728D01*
X12763Y36768D01*
X12763Y36770D01*
Y36777D01*
X12761Y36797D01*
X12746Y36832D01*
X12719Y36859D01*
X12684Y36874D01*
X12665Y36876D01*
D02*
G37*
G36*
X11867Y36886D02*
X11846Y36884D01*
X11807Y36867D01*
X11777Y36837D01*
X11761Y36798D01*
X11759Y36777D01*
X11761Y36758D01*
X11776Y36723D01*
X11803Y36695D01*
X11838Y36681D01*
X11857Y36679D01*
X11878Y36681D01*
X11916Y36697D01*
X11946Y36726D01*
X11962Y36764D01*
X11962Y36767D01*
X11956D01*
Y36797D01*
X11954Y36814D01*
X11941Y36846D01*
X11917Y36871D01*
X11885Y36884D01*
X11867Y36886D01*
D02*
G37*
G36*
X12261Y36876D02*
X12242Y36874D01*
X12206Y36859D01*
X12179Y36832D01*
X12164Y36797D01*
X12163Y36777D01*
Y36767D01*
X12157D01*
X12157Y36764D01*
X12173Y36726D01*
X12202Y36697D01*
X12240Y36681D01*
X12261Y36679D01*
X12281Y36681D01*
X12317Y36696D01*
X12344Y36723D01*
X12359Y36760D01*
X12360Y36767D01*
X12359D01*
Y36777D01*
X12358Y36797D01*
X12343Y36832D01*
X12316Y36859D01*
X12280Y36874D01*
X12261Y36876D01*
D02*
G37*
G36*
X13058Y37693D02*
X13037Y37691D01*
X12998Y37674D01*
X12968Y37645D01*
X12952Y37606D01*
X12950Y37584D01*
X12952Y37563D01*
X12968Y37524D01*
X12998Y37494D01*
X13037Y37478D01*
X13058Y37476D01*
X13079Y37478D01*
X13117Y37494D01*
X13147Y37523D01*
X13162Y37562D01*
X13164Y37582D01*
Y37606D01*
X13164Y37606D01*
X13148Y37645D01*
X13118Y37674D01*
X13079Y37691D01*
X13058Y37693D01*
D02*
G37*
G36*
X12665D02*
X12643Y37691D01*
X12604Y37674D01*
X12575Y37645D01*
X12558Y37606D01*
X12556Y37584D01*
Y37575D01*
X12558Y37555D01*
X12573Y37520D01*
X12600Y37493D01*
X12636Y37478D01*
X12655Y37476D01*
X12676Y37478D01*
X12716Y37495D01*
X12746Y37525D01*
X12763Y37565D01*
X12763Y37567D01*
Y37594D01*
X12761Y37613D01*
X12746Y37649D01*
X12719Y37676D01*
X12684Y37691D01*
X12665Y37693D01*
D02*
G37*
G36*
X11857D02*
X11838Y37691D01*
X11803Y37676D01*
X11776Y37649D01*
X11761Y37613D01*
X11759Y37594D01*
Y37586D01*
Y37584D01*
Y37575D01*
X11761Y37555D01*
X11776Y37520D01*
X11803Y37493D01*
X11838Y37478D01*
X11857Y37476D01*
X11878Y37478D01*
X11916Y37494D01*
X11946Y37523D01*
X11962Y37562D01*
X11964Y37582D01*
Y37606D01*
X11964Y37606D01*
X11947Y37645D01*
X11918Y37674D01*
X11879Y37691D01*
X11857Y37693D01*
D02*
G37*
G36*
X12271Y37683D02*
X12261D01*
X12240Y37681D01*
X12201Y37665D01*
X12171Y37635D01*
X12155Y37596D01*
Y37582D01*
X12157Y37562D01*
X12173Y37523D01*
X12202Y37494D01*
X12240Y37478D01*
X12261Y37476D01*
X12281Y37478D01*
X12317Y37493D01*
X12344Y37521D01*
X12359Y37557D01*
X12360Y37565D01*
X12359D01*
Y37594D01*
X12358Y37612D01*
X12345Y37643D01*
X12320Y37668D01*
X12288Y37681D01*
X12271Y37683D01*
D02*
G37*
G36*
X11463Y37692D02*
X11462Y37685D01*
X11440Y37683D01*
X11401Y37667D01*
X11372Y37637D01*
X11355Y37598D01*
X11355D01*
Y37585D01*
X11357Y37563D01*
X11374Y37524D01*
X11404Y37494D01*
X11443Y37478D01*
X11464Y37476D01*
X11483Y37478D01*
X11519Y37493D01*
X11547Y37520D01*
X11562Y37556D01*
X11563Y37575D01*
X11562D01*
X11562Y37594D01*
X11560Y37613D01*
X11545Y37648D01*
X11518Y37675D01*
X11482Y37690D01*
X11463Y37692D01*
D02*
G37*
G36*
X11464Y36876D02*
X11445Y36874D01*
X11409Y36859D01*
X11382Y36832D01*
X11367Y36797D01*
X11365Y36777D01*
Y36767D01*
X11357D01*
X11357Y36766D01*
X11374Y36727D01*
X11404Y36697D01*
X11443Y36681D01*
X11464Y36679D01*
X11483Y36681D01*
X11519Y36696D01*
X11547Y36723D01*
X11562Y36759D01*
X11562Y36767D01*
X11552D01*
Y36787D01*
X11551Y36804D01*
X11537Y36836D01*
X11513Y36861D01*
X11481Y36874D01*
X11464Y36876D01*
D02*
G37*
G36*
Y36482D02*
X11445Y36480D01*
X11409Y36465D01*
X11382Y36438D01*
X11367Y36403D01*
X11365Y36384D01*
Y36374D01*
X11356D01*
Y36374D01*
X11358Y36353D01*
X11374Y36314D01*
X11404Y36284D01*
X11443Y36268D01*
X11464Y36266D01*
X11485Y36268D01*
X11524Y36284D01*
X11554Y36314D01*
X11570Y36353D01*
X11572Y36374D01*
Y36374D01*
X11552D01*
Y36393D01*
X11551Y36411D01*
X11537Y36443D01*
X11513Y36467D01*
X11481Y36480D01*
X11464Y36482D01*
D02*
G37*
G36*
X11867Y36492D02*
X11846Y36490D01*
X11807Y36474D01*
X11777Y36444D01*
X11761Y36405D01*
X11759Y36384D01*
Y36374D01*
Y36364D01*
X11761Y36345D01*
X11776Y36309D01*
X11803Y36282D01*
X11838Y36267D01*
X11857Y36266D01*
X11879Y36268D01*
X11918Y36284D01*
X11947Y36314D01*
X11964Y36353D01*
X11966Y36374D01*
Y36374D01*
X11956D01*
Y36403D01*
X11954Y36421D01*
X11941Y36453D01*
X11917Y36477D01*
X11885Y36490D01*
X11867Y36492D01*
D02*
G37*
G36*
X12665Y36482D02*
X12645Y36480D01*
X12610Y36465D01*
X12583Y36438D01*
X12568Y36403D01*
X12566Y36384D01*
Y36374D01*
X12556D01*
Y36374D01*
X12558Y36353D01*
X12575Y36314D01*
X12604Y36284D01*
X12643Y36268D01*
X12665Y36266D01*
X12684Y36267D01*
X12719Y36282D01*
X12746Y36309D01*
X12761Y36345D01*
X12763Y36364D01*
Y36374D01*
Y36384D01*
X12761Y36403D01*
X12746Y36438D01*
X12719Y36465D01*
X12684Y36480D01*
X12665Y36482D01*
D02*
G37*
G36*
X13058D02*
X13039Y36480D01*
X13004Y36465D01*
X12976Y36438D01*
X12962Y36403D01*
X12960Y36384D01*
Y36384D01*
X12961Y36365D01*
X12962Y36345D01*
X12977Y36310D01*
X13004Y36283D01*
X13040Y36268D01*
X13059Y36266D01*
X13060Y36273D01*
X13082Y36275D01*
X13121Y36291D01*
X13150Y36321D01*
X13167Y36360D01*
X13168Y36374D01*
X13157D01*
Y36384D01*
X13155Y36403D01*
X13140Y36438D01*
X13113Y36465D01*
X13077Y36480D01*
X13058Y36482D01*
D02*
G37*
G36*
X12261D02*
X12242Y36480D01*
X12206Y36465D01*
X12179Y36438D01*
X12164Y36403D01*
X12163Y36384D01*
Y36374D01*
Y36364D01*
X12164Y36347D01*
X12178Y36315D01*
X12202Y36290D01*
X12234Y36277D01*
X12251Y36275D01*
X12261D01*
X12282Y36277D01*
X12321Y36294D01*
X12351Y36323D01*
X12367Y36363D01*
X12368Y36374D01*
X12359D01*
Y36384D01*
X12358Y36403D01*
X12343Y36438D01*
X12316Y36465D01*
X12280Y36480D01*
X12261Y36482D01*
D02*
G37*
G36*
X15474Y37279D02*
X15455Y37277D01*
X15419Y37263D01*
X15392Y37236D01*
X15377Y37200D01*
X15375Y37181D01*
Y37171D01*
X15366D01*
X15367Y37160D01*
X15384Y37121D01*
X15414Y37091D01*
X15453Y37075D01*
X15474Y37073D01*
X15493Y37075D01*
X15529Y37089D01*
X15557Y37117D01*
X15572Y37153D01*
X15573Y37171D01*
X15562D01*
Y37191D01*
X15561Y37208D01*
X15547Y37240D01*
X15523Y37264D01*
X15491Y37278D01*
X15474Y37279D01*
D02*
G37*
G36*
Y36876D02*
X15455Y36874D01*
X15419Y36859D01*
X15392Y36832D01*
X15377Y36797D01*
X15375Y36777D01*
Y36767D01*
X15367D01*
X15367Y36766D01*
X15384Y36727D01*
X15414Y36697D01*
X15453Y36681D01*
X15474Y36679D01*
X15493Y36681D01*
X15529Y36696D01*
X15557Y36723D01*
X15572Y36759D01*
X15572Y36767D01*
X15562D01*
Y36787D01*
X15561Y36804D01*
X15547Y36836D01*
X15523Y36861D01*
X15491Y36874D01*
X15474Y36876D01*
D02*
G37*
G36*
X17068D02*
X17049Y36874D01*
X17014Y36859D01*
X16986Y36832D01*
X16972Y36797D01*
X16970Y36777D01*
Y36767D01*
X16962D01*
X16962Y36766D01*
X16978Y36727D01*
X17008Y36697D01*
X17047Y36681D01*
X17068Y36679D01*
X17089Y36681D01*
X17127Y36697D01*
X17157Y36726D01*
X17172Y36764D01*
X17173Y36767D01*
X17167D01*
Y36777D01*
X17165Y36797D01*
X17150Y36832D01*
X17123Y36859D01*
X17087Y36874D01*
X17068Y36876D01*
D02*
G37*
G36*
X16675D02*
X16655Y36874D01*
X16620Y36859D01*
X16593Y36832D01*
X16578Y36797D01*
X16576Y36777D01*
Y36767D01*
X16567D01*
X16568Y36758D01*
X16583Y36723D01*
X16610Y36695D01*
X16646Y36681D01*
X16665Y36679D01*
X16686Y36681D01*
X16726Y36697D01*
X16756Y36728D01*
X16773Y36768D01*
X16773Y36770D01*
Y36777D01*
X16771Y36797D01*
X16756Y36832D01*
X16729Y36859D01*
X16694Y36874D01*
X16675Y36876D01*
D02*
G37*
G36*
X15877Y36886D02*
X15856Y36884D01*
X15817Y36867D01*
X15787Y36837D01*
X15771Y36798D01*
X15769Y36777D01*
X15771Y36758D01*
X15786Y36723D01*
X15813Y36695D01*
X15848Y36681D01*
X15867Y36679D01*
X15888Y36681D01*
X15926Y36697D01*
X15956Y36726D01*
X15972Y36764D01*
X15972Y36767D01*
X15966D01*
Y36797D01*
X15964Y36814D01*
X15951Y36846D01*
X15927Y36871D01*
X15895Y36884D01*
X15877Y36886D01*
D02*
G37*
G36*
X16271Y36876D02*
X16252Y36874D01*
X16216Y36859D01*
X16189Y36832D01*
X16174Y36797D01*
X16173Y36777D01*
Y36767D01*
X16167D01*
X16167Y36764D01*
X16183Y36726D01*
X16212Y36697D01*
X16250Y36681D01*
X16271Y36679D01*
X16291Y36681D01*
X16327Y36696D01*
X16354Y36723D01*
X16369Y36760D01*
X16370Y36767D01*
X16369D01*
Y36777D01*
X16368Y36797D01*
X16353Y36832D01*
X16326Y36859D01*
X16290Y36874D01*
X16271Y36876D01*
D02*
G37*
G36*
X15473Y37692D02*
X15472Y37685D01*
X15450Y37683D01*
X15411Y37667D01*
X15382Y37637D01*
X15365Y37598D01*
X15365D01*
Y37585D01*
X15367Y37563D01*
X15384Y37524D01*
X15414Y37494D01*
X15453Y37478D01*
X15474Y37476D01*
X15493Y37478D01*
X15529Y37493D01*
X15557Y37520D01*
X15572Y37556D01*
X15573Y37575D01*
X15572D01*
X15572Y37594D01*
X15570Y37613D01*
X15555Y37648D01*
X15528Y37675D01*
X15492Y37690D01*
X15473Y37692D01*
D02*
G37*
G36*
X17068Y37693D02*
X17047Y37691D01*
X17008Y37674D01*
X16978Y37645D01*
X16962Y37606D01*
X16960Y37584D01*
X16962Y37563D01*
X16978Y37524D01*
X17008Y37494D01*
X17047Y37478D01*
X17068Y37476D01*
X17089Y37478D01*
X17127Y37494D01*
X17157Y37523D01*
X17172Y37562D01*
X17174Y37582D01*
Y37606D01*
X17174Y37606D01*
X17158Y37645D01*
X17128Y37674D01*
X17089Y37691D01*
X17068Y37693D01*
D02*
G37*
G36*
X16675D02*
X16653Y37691D01*
X16614Y37674D01*
X16585Y37645D01*
X16568Y37606D01*
X16566Y37584D01*
Y37575D01*
X16568Y37555D01*
X16583Y37520D01*
X16610Y37493D01*
X16646Y37478D01*
X16665Y37476D01*
X16686Y37478D01*
X16726Y37495D01*
X16756Y37525D01*
X16773Y37565D01*
X16773Y37567D01*
Y37594D01*
X16771Y37613D01*
X16756Y37649D01*
X16729Y37676D01*
X16694Y37691D01*
X16675Y37693D01*
D02*
G37*
G36*
X15867D02*
X15848Y37691D01*
X15813Y37676D01*
X15786Y37649D01*
X15771Y37613D01*
X15769Y37594D01*
Y37586D01*
Y37584D01*
Y37575D01*
X15771Y37555D01*
X15786Y37520D01*
X15813Y37493D01*
X15848Y37478D01*
X15867Y37476D01*
X15888Y37478D01*
X15926Y37494D01*
X15956Y37523D01*
X15972Y37562D01*
X15974Y37582D01*
Y37606D01*
X15974Y37606D01*
X15957Y37645D01*
X15928Y37674D01*
X15889Y37691D01*
X15867Y37693D01*
D02*
G37*
G36*
X16281Y37683D02*
X16271D01*
X16250Y37681D01*
X16211Y37665D01*
X16181Y37635D01*
X16165Y37596D01*
Y37582D01*
X16167Y37562D01*
X16183Y37523D01*
X16212Y37494D01*
X16250Y37478D01*
X16271Y37476D01*
X16291Y37478D01*
X16327Y37493D01*
X16354Y37521D01*
X16369Y37557D01*
X16370Y37565D01*
X16369D01*
Y37594D01*
X16368Y37612D01*
X16355Y37643D01*
X16330Y37668D01*
X16298Y37681D01*
X16281Y37683D01*
D02*
G37*
G36*
X17068Y37279D02*
X17049Y37277D01*
X17014Y37263D01*
X16986Y37236D01*
X16972Y37200D01*
X16970Y37181D01*
Y37171D01*
X16961D01*
X16962Y37160D01*
X16978Y37121D01*
X17008Y37091D01*
X17047Y37075D01*
X17068Y37073D01*
X17089Y37075D01*
X17127Y37091D01*
X17157Y37120D01*
X17172Y37158D01*
X17174Y37171D01*
X17167D01*
Y37181D01*
X17165Y37200D01*
X17150Y37236D01*
X17123Y37263D01*
X17087Y37277D01*
X17068Y37279D01*
D02*
G37*
G36*
X16675D02*
X16655Y37277D01*
X16620Y37263D01*
X16593Y37236D01*
X16578Y37200D01*
X16576Y37181D01*
Y37171D01*
X16566D01*
X16568Y37152D01*
X16583Y37116D01*
X16610Y37089D01*
X16646Y37074D01*
X16665Y37073D01*
X16686Y37075D01*
X16726Y37091D01*
X16756Y37122D01*
X16773Y37161D01*
X16774Y37171D01*
X16773D01*
Y37181D01*
X16771Y37200D01*
X16756Y37236D01*
X16729Y37263D01*
X16694Y37277D01*
X16675Y37279D01*
D02*
G37*
G36*
X15877Y37289D02*
X15856Y37287D01*
X15817Y37271D01*
X15787Y37241D01*
X15771Y37202D01*
X15769Y37181D01*
Y37171D01*
X15771Y37152D01*
X15786Y37116D01*
X15813Y37089D01*
X15848Y37074D01*
X15867Y37073D01*
X15888Y37075D01*
X15926Y37091D01*
X15956Y37120D01*
X15972Y37158D01*
X15973Y37171D01*
X15966D01*
Y37201D01*
X15964Y37218D01*
X15951Y37250D01*
X15927Y37274D01*
X15895Y37287D01*
X15877Y37289D01*
D02*
G37*
G36*
X16271Y37279D02*
X16252Y37277D01*
X16216Y37263D01*
X16189Y37236D01*
X16174Y37200D01*
X16173Y37181D01*
Y37171D01*
X16166D01*
X16167Y37158D01*
X16183Y37120D01*
X16212Y37091D01*
X16250Y37075D01*
X16271Y37073D01*
X16291Y37075D01*
X16327Y37089D01*
X16354Y37117D01*
X16369Y37153D01*
X16371Y37171D01*
X16369D01*
Y37181D01*
X16368Y37200D01*
X16353Y37236D01*
X16326Y37263D01*
X16290Y37277D01*
X16271Y37279D01*
D02*
G37*
G36*
X16675Y36482D02*
X16655Y36480D01*
X16620Y36465D01*
X16593Y36438D01*
X16578Y36403D01*
X16576Y36384D01*
Y36374D01*
X16566D01*
Y36374D01*
X16568Y36353D01*
X16585Y36314D01*
X16614Y36284D01*
X16653Y36268D01*
X16675Y36266D01*
X16694Y36267D01*
X16729Y36282D01*
X16756Y36309D01*
X16771Y36345D01*
X16773Y36364D01*
Y36374D01*
Y36384D01*
X16771Y36403D01*
X16756Y36438D01*
X16729Y36465D01*
X16694Y36480D01*
X16675Y36482D01*
D02*
G37*
G36*
X15877Y36492D02*
X15856Y36490D01*
X15817Y36474D01*
X15787Y36444D01*
X15771Y36405D01*
X15769Y36384D01*
Y36374D01*
Y36364D01*
X15771Y36345D01*
X15786Y36309D01*
X15813Y36282D01*
X15848Y36267D01*
X15867Y36266D01*
X15889Y36268D01*
X15928Y36284D01*
X15957Y36314D01*
X15974Y36353D01*
X15976Y36374D01*
Y36374D01*
X15966D01*
Y36403D01*
X15964Y36421D01*
X15951Y36453D01*
X15927Y36477D01*
X15895Y36490D01*
X15877Y36492D01*
D02*
G37*
G36*
X15474Y36482D02*
X15455Y36480D01*
X15419Y36465D01*
X15392Y36438D01*
X15377Y36403D01*
X15375Y36384D01*
Y36374D01*
X15366D01*
Y36374D01*
X15368Y36353D01*
X15384Y36314D01*
X15414Y36284D01*
X15453Y36268D01*
X15474Y36266D01*
X15495Y36268D01*
X15534Y36284D01*
X15564Y36314D01*
X15580Y36353D01*
X15582Y36374D01*
Y36374D01*
X15562D01*
Y36393D01*
X15561Y36411D01*
X15547Y36443D01*
X15523Y36467D01*
X15491Y36480D01*
X15474Y36482D01*
D02*
G37*
G36*
X17068D02*
X17049Y36480D01*
X17014Y36465D01*
X16986Y36438D01*
X16972Y36403D01*
X16970Y36384D01*
Y36384D01*
X16971Y36365D01*
X16972Y36345D01*
X16987Y36310D01*
X17014Y36283D01*
X17050Y36268D01*
X17069Y36266D01*
X17070Y36273D01*
X17092Y36275D01*
X17131Y36291D01*
X17160Y36321D01*
X17177Y36360D01*
X17178Y36374D01*
X17167D01*
Y36384D01*
X17165Y36403D01*
X17150Y36438D01*
X17123Y36465D01*
X17087Y36480D01*
X17068Y36482D01*
D02*
G37*
G36*
X16271D02*
X16252Y36480D01*
X16216Y36465D01*
X16189Y36438D01*
X16174Y36403D01*
X16173Y36384D01*
Y36374D01*
Y36364D01*
X16174Y36347D01*
X16188Y36315D01*
X16212Y36290D01*
X16244Y36277D01*
X16261Y36275D01*
X16271D01*
X16292Y36277D01*
X16331Y36294D01*
X16361Y36323D01*
X16377Y36363D01*
X16378Y36374D01*
X16369D01*
Y36384D01*
X16368Y36403D01*
X16353Y36438D01*
X16326Y36465D01*
X16290Y36480D01*
X16271Y36482D01*
D02*
G37*
G36*
X9073Y37279D02*
X9054Y37277D01*
X9019Y37263D01*
X8991Y37236D01*
X8977Y37200D01*
X8975Y37181D01*
Y37171D01*
X8966D01*
X8967Y37160D01*
X8983Y37121D01*
X9013Y37091D01*
X9052Y37075D01*
X9073Y37073D01*
X9094Y37075D01*
X9132Y37091D01*
X9162Y37120D01*
X9177Y37158D01*
X9179Y37171D01*
X9172D01*
Y37181D01*
X9170Y37200D01*
X9155Y37236D01*
X9128Y37263D01*
X9092Y37277D01*
X9073Y37279D01*
D02*
G37*
G36*
X8680D02*
X8660Y37277D01*
X8625Y37263D01*
X8598Y37236D01*
X8583Y37200D01*
X8581Y37181D01*
Y37171D01*
X8571D01*
X8573Y37152D01*
X8588Y37116D01*
X8615Y37089D01*
X8650Y37074D01*
X8670Y37073D01*
X8691Y37075D01*
X8731Y37091D01*
X8761Y37122D01*
X8778Y37161D01*
X8779Y37171D01*
X8778D01*
Y37181D01*
X8776Y37200D01*
X8761Y37236D01*
X8734Y37263D01*
X8699Y37277D01*
X8680Y37279D01*
D02*
G37*
G36*
X7882Y37289D02*
X7861Y37287D01*
X7822Y37271D01*
X7792Y37241D01*
X7776Y37202D01*
X7774Y37181D01*
Y37171D01*
X7776Y37152D01*
X7791Y37116D01*
X7818Y37089D01*
X7853Y37074D01*
X7872Y37073D01*
X7893Y37075D01*
X7931Y37091D01*
X7961Y37120D01*
X7977Y37158D01*
X7978Y37171D01*
X7971D01*
Y37201D01*
X7969Y37218D01*
X7956Y37250D01*
X7932Y37274D01*
X7900Y37287D01*
X7882Y37289D01*
D02*
G37*
G36*
X8276Y37279D02*
X8257Y37277D01*
X8221Y37263D01*
X8194Y37236D01*
X8179Y37200D01*
X8178Y37181D01*
Y37171D01*
X8171D01*
X8172Y37158D01*
X8188Y37120D01*
X8217Y37091D01*
X8255Y37075D01*
X8276Y37073D01*
X8296Y37075D01*
X8332Y37089D01*
X8359Y37117D01*
X8374Y37153D01*
X8376Y37171D01*
X8374D01*
Y37181D01*
X8373Y37200D01*
X8358Y37236D01*
X8331Y37263D01*
X8295Y37277D01*
X8276Y37279D01*
D02*
G37*
G36*
X7479D02*
X7460Y37277D01*
X7424Y37263D01*
X7397Y37236D01*
X7382Y37200D01*
X7380Y37181D01*
Y37171D01*
X7371D01*
X7372Y37160D01*
X7389Y37121D01*
X7419Y37091D01*
X7458Y37075D01*
X7479Y37073D01*
X7498Y37075D01*
X7534Y37089D01*
X7562Y37117D01*
X7576Y37153D01*
X7578Y37171D01*
X7567D01*
Y37191D01*
X7566Y37208D01*
X7552Y37240D01*
X7528Y37264D01*
X7496Y37278D01*
X7479Y37279D01*
D02*
G37*
G36*
X7478Y37692D02*
X7477Y37685D01*
X7455Y37683D01*
X7416Y37667D01*
X7387Y37637D01*
X7370Y37598D01*
X7370D01*
Y37585D01*
X7372Y37563D01*
X7389Y37524D01*
X7419Y37494D01*
X7458Y37478D01*
X7479Y37476D01*
X7498Y37478D01*
X7534Y37493D01*
X7562Y37520D01*
X7576Y37556D01*
X7578Y37575D01*
X7577D01*
X7576Y37594D01*
X7575Y37613D01*
X7560Y37648D01*
X7533Y37675D01*
X7497Y37690D01*
X7478Y37692D01*
D02*
G37*
G36*
X9073Y37693D02*
X9052Y37691D01*
X9013Y37674D01*
X8983Y37645D01*
X8967Y37606D01*
X8965Y37584D01*
X8967Y37563D01*
X8983Y37524D01*
X9013Y37494D01*
X9052Y37478D01*
X9073Y37476D01*
X9094Y37478D01*
X9132Y37494D01*
X9162Y37523D01*
X9177Y37562D01*
X9179Y37582D01*
Y37606D01*
X9179Y37606D01*
X9163Y37645D01*
X9133Y37674D01*
X9094Y37691D01*
X9073Y37693D01*
D02*
G37*
G36*
X8680D02*
X8658Y37691D01*
X8619Y37674D01*
X8590Y37645D01*
X8573Y37606D01*
X8571Y37584D01*
Y37575D01*
X8573Y37555D01*
X8588Y37520D01*
X8615Y37493D01*
X8650Y37478D01*
X8670Y37476D01*
X8691Y37478D01*
X8731Y37495D01*
X8761Y37525D01*
X8778Y37565D01*
X8778Y37567D01*
Y37594D01*
X8776Y37613D01*
X8761Y37649D01*
X8734Y37676D01*
X8699Y37691D01*
X8680Y37693D01*
D02*
G37*
G36*
X7872D02*
X7853Y37691D01*
X7818Y37676D01*
X7791Y37649D01*
X7776Y37613D01*
X7774Y37594D01*
Y37586D01*
Y37584D01*
Y37575D01*
X7776Y37555D01*
X7791Y37520D01*
X7818Y37493D01*
X7853Y37478D01*
X7872Y37476D01*
X7893Y37478D01*
X7931Y37494D01*
X7961Y37523D01*
X7977Y37562D01*
X7979Y37582D01*
Y37606D01*
X7979Y37606D01*
X7962Y37645D01*
X7933Y37674D01*
X7894Y37691D01*
X7872Y37693D01*
D02*
G37*
G36*
X8286Y37683D02*
X8276D01*
X8255Y37681D01*
X8216Y37665D01*
X8186Y37635D01*
X8170Y37596D01*
Y37582D01*
X8172Y37562D01*
X8188Y37523D01*
X8217Y37494D01*
X8255Y37478D01*
X8276Y37476D01*
X8296Y37478D01*
X8332Y37493D01*
X8359Y37521D01*
X8374Y37557D01*
X8375Y37565D01*
X8374D01*
Y37594D01*
X8373Y37612D01*
X8359Y37643D01*
X8335Y37668D01*
X8303Y37681D01*
X8286Y37683D01*
D02*
G37*
G36*
X8680Y36482D02*
X8660Y36480D01*
X8625Y36465D01*
X8598Y36438D01*
X8583Y36403D01*
X8581Y36384D01*
Y36374D01*
X8571D01*
Y36374D01*
X8573Y36353D01*
X8590Y36314D01*
X8619Y36284D01*
X8658Y36268D01*
X8680Y36266D01*
X8699Y36267D01*
X8734Y36282D01*
X8761Y36309D01*
X8776Y36345D01*
X8778Y36364D01*
Y36374D01*
Y36384D01*
X8776Y36403D01*
X8761Y36438D01*
X8734Y36465D01*
X8699Y36480D01*
X8680Y36482D01*
D02*
G37*
G36*
X7479D02*
X7460Y36480D01*
X7424Y36465D01*
X7397Y36438D01*
X7382Y36403D01*
X7380Y36384D01*
Y36374D01*
X7370D01*
Y36374D01*
X7373Y36353D01*
X7389Y36314D01*
X7419Y36284D01*
X7458Y36268D01*
X7479Y36266D01*
X7500Y36268D01*
X7539Y36284D01*
X7569Y36314D01*
X7585Y36353D01*
X7587Y36374D01*
Y36374D01*
X7567D01*
Y36393D01*
X7566Y36411D01*
X7552Y36443D01*
X7528Y36467D01*
X7496Y36480D01*
X7479Y36482D01*
D02*
G37*
G36*
X7882Y36492D02*
X7861Y36490D01*
X7822Y36474D01*
X7792Y36444D01*
X7776Y36405D01*
X7774Y36384D01*
Y36374D01*
Y36364D01*
X7776Y36345D01*
X7791Y36309D01*
X7818Y36282D01*
X7853Y36267D01*
X7872Y36266D01*
X7894Y36268D01*
X7933Y36284D01*
X7962Y36314D01*
X7979Y36353D01*
X7981Y36374D01*
Y36374D01*
X7971D01*
Y36403D01*
X7969Y36421D01*
X7956Y36453D01*
X7932Y36477D01*
X7900Y36490D01*
X7882Y36492D01*
D02*
G37*
G36*
X9073Y36482D02*
X9054Y36480D01*
X9019Y36465D01*
X8991Y36438D01*
X8977Y36403D01*
X8975Y36384D01*
Y36384D01*
X8975Y36365D01*
X8977Y36345D01*
X8992Y36310D01*
X9019Y36283D01*
X9055Y36268D01*
X9074Y36266D01*
X9075Y36273D01*
X9097Y36275D01*
X9136Y36291D01*
X9165Y36321D01*
X9182Y36360D01*
X9183Y36374D01*
X9172D01*
Y36384D01*
X9170Y36403D01*
X9155Y36438D01*
X9128Y36465D01*
X9092Y36480D01*
X9073Y36482D01*
D02*
G37*
G36*
X8680Y36876D02*
X8660Y36874D01*
X8625Y36859D01*
X8598Y36832D01*
X8583Y36797D01*
X8581Y36777D01*
Y36767D01*
X8572D01*
X8573Y36758D01*
X8588Y36723D01*
X8615Y36695D01*
X8650Y36681D01*
X8670Y36679D01*
X8691Y36681D01*
X8731Y36697D01*
X8761Y36728D01*
X8778Y36768D01*
X8778Y36770D01*
Y36777D01*
X8776Y36797D01*
X8761Y36832D01*
X8734Y36859D01*
X8699Y36874D01*
X8680Y36876D01*
D02*
G37*
G36*
X9073D02*
X9054Y36874D01*
X9019Y36859D01*
X8991Y36832D01*
X8977Y36797D01*
X8975Y36777D01*
Y36767D01*
X8967D01*
X8967Y36766D01*
X8983Y36727D01*
X9013Y36697D01*
X9052Y36681D01*
X9073Y36679D01*
X9094Y36681D01*
X9132Y36697D01*
X9162Y36726D01*
X9177Y36764D01*
X9178Y36767D01*
X9172D01*
Y36777D01*
X9170Y36797D01*
X9155Y36832D01*
X9128Y36859D01*
X9092Y36874D01*
X9073Y36876D01*
D02*
G37*
G36*
X8276D02*
X8257Y36874D01*
X8221Y36859D01*
X8194Y36832D01*
X8179Y36797D01*
X8178Y36777D01*
Y36767D01*
X8172D01*
X8172Y36764D01*
X8188Y36726D01*
X8217Y36697D01*
X8255Y36681D01*
X8276Y36679D01*
X8296Y36681D01*
X8332Y36696D01*
X8359Y36723D01*
X8374Y36760D01*
X8375Y36767D01*
X8374D01*
Y36777D01*
X8373Y36797D01*
X8358Y36832D01*
X8331Y36859D01*
X8295Y36874D01*
X8276Y36876D01*
D02*
G37*
G36*
X7479D02*
X7460Y36874D01*
X7424Y36859D01*
X7397Y36832D01*
X7382Y36797D01*
X7380Y36777D01*
Y36767D01*
X7372D01*
X7372Y36766D01*
X7389Y36727D01*
X7419Y36697D01*
X7458Y36681D01*
X7479Y36679D01*
X7498Y36681D01*
X7534Y36696D01*
X7562Y36723D01*
X7576Y36759D01*
X7577Y36767D01*
X7567D01*
Y36787D01*
X7566Y36804D01*
X7552Y36836D01*
X7528Y36861D01*
X7496Y36874D01*
X7479Y36876D01*
D02*
G37*
G36*
X7882Y36886D02*
X7861Y36884D01*
X7822Y36867D01*
X7792Y36837D01*
X7776Y36798D01*
X7774Y36777D01*
X7776Y36758D01*
X7791Y36723D01*
X7818Y36695D01*
X7853Y36681D01*
X7872Y36679D01*
X7893Y36681D01*
X7931Y36697D01*
X7961Y36726D01*
X7977Y36764D01*
X7977Y36767D01*
X7971D01*
Y36797D01*
X7969Y36814D01*
X7956Y36846D01*
X7932Y36871D01*
X7900Y36884D01*
X7882Y36886D01*
D02*
G37*
G36*
X8276Y36482D02*
X8257Y36480D01*
X8221Y36465D01*
X8194Y36438D01*
X8179Y36403D01*
X8178Y36384D01*
Y36374D01*
Y36364D01*
X8179Y36347D01*
X8192Y36315D01*
X8217Y36290D01*
X8249Y36277D01*
X8266Y36275D01*
X8276D01*
X8297Y36277D01*
X8336Y36294D01*
X8366Y36323D01*
X8382Y36363D01*
X8383Y36374D01*
X8374D01*
Y36384D01*
X8373Y36403D01*
X8358Y36438D01*
X8331Y36465D01*
X8295Y36480D01*
X8276Y36482D01*
D02*
G37*
G36*
X6835Y12686D02*
X6835Y12686D01*
X6816Y12684D01*
X6779Y12669D01*
X6751Y12640D01*
X6737Y12603D01*
X6736Y12584D01*
X6737Y12565D01*
X6751Y12528D01*
X6779Y12500D01*
X6816Y12484D01*
X6835Y12482D01*
X6855Y12484D01*
X6892Y12500D01*
X6919Y12528D01*
X6934Y12565D01*
X6935Y12584D01*
X6934Y12603D01*
X6919Y12640D01*
X6892Y12669D01*
X6855Y12684D01*
X6835Y12686D01*
D02*
G37*
G36*
X5970Y12686D02*
X5950Y12684D01*
X5914Y12669D01*
X5885Y12640D01*
X5870Y12604D01*
X5868Y12587D01*
X5870Y12569D01*
X5884Y12532D01*
X5912Y12503D01*
X5948Y12487D01*
X5968Y12485D01*
Y12485D01*
X5988Y12487D01*
X6024Y12503D01*
X6051Y12532D01*
X6064Y12569D01*
X6065Y12589D01*
X6073D01*
X6071Y12604D01*
X6056Y12641D01*
X6028Y12669D01*
X5991Y12684D01*
X5970Y12686D01*
D02*
G37*
G36*
X6403Y12250D02*
X6403Y12250D01*
X6384Y12249D01*
X6348Y12233D01*
X6321Y12206D01*
X6307Y12170D01*
X6305Y12150D01*
X6301D01*
X6302Y12135D01*
X6318Y12097D01*
X6347Y12068D01*
X6385Y12053D01*
X6405Y12052D01*
X6425Y12054D01*
X6460Y12069D01*
X6487Y12096D01*
X6501Y12132D01*
X6503Y12151D01*
X6501Y12170D01*
X6486Y12206D01*
X6459Y12234D01*
X6423Y12249D01*
X6403Y12250D01*
D02*
G37*
G36*
X7703Y12250D02*
X7684Y12248D01*
X7648Y12233D01*
X7621Y12206D01*
X7607Y12170D01*
X7605Y12150D01*
X7598D01*
X7600Y12132D01*
X7615Y12094D01*
X7643Y12066D01*
X7680Y12051D01*
X7700Y12049D01*
X7700Y12049D01*
X7721Y12051D01*
X7759Y12067D01*
X7787Y12097D01*
X7802Y12135D01*
X7803Y12155D01*
X7798Y12155D01*
X7798Y12155D01*
X7796Y12174D01*
X7782Y12208D01*
X7756Y12234D01*
X7721Y12249D01*
X7703Y12250D01*
D02*
G37*
G36*
Y12684D02*
X7684Y12681D01*
X7648Y12666D01*
X7621Y12639D01*
X7607Y12603D01*
X7605Y12584D01*
X7598D01*
X7600Y12565D01*
X7615Y12527D01*
X7643Y12499D01*
X7680Y12484D01*
X7700Y12482D01*
X7700Y12482D01*
X7721Y12484D01*
X7759Y12500D01*
X7787Y12530D01*
X7802Y12568D01*
X7803Y12588D01*
X7798Y12589D01*
X7798Y12589D01*
X7796Y12607D01*
X7782Y12641D01*
X7756Y12668D01*
X7721Y12682D01*
X7703Y12684D01*
D02*
G37*
G36*
X7265Y12684D02*
X7265Y12684D01*
X7246Y12682D01*
X7211Y12667D01*
X7184Y12639D01*
X7169Y12603D01*
X7168Y12584D01*
X7170Y12565D01*
X7184Y12529D01*
X7212Y12501D01*
X7248Y12486D01*
X7268Y12485D01*
X7268Y12485D01*
X7287Y12487D01*
X7323Y12502D01*
X7350Y12529D01*
X7364Y12565D01*
X7365Y12585D01*
X7370D01*
X7368Y12603D01*
X7352Y12640D01*
X7323Y12668D01*
X7286Y12682D01*
X7265Y12684D01*
D02*
G37*
G36*
X6403Y12684D02*
X6403Y12684D01*
X6384Y12682D01*
X6348Y12667D01*
X6321Y12639D01*
X6307Y12603D01*
X6305Y12584D01*
X6301D01*
X6302Y12568D01*
X6318Y12530D01*
X6347Y12501D01*
X6385Y12486D01*
X6405Y12485D01*
X6425Y12487D01*
X6460Y12502D01*
X6487Y12529D01*
X6501Y12565D01*
X6503Y12584D01*
X6501Y12603D01*
X6486Y12639D01*
X6459Y12667D01*
X6423Y12682D01*
X6403Y12684D01*
D02*
G37*
G36*
X7265Y11817D02*
X7265Y11817D01*
X7246Y11815D01*
X7211Y11800D01*
X7184Y11773D01*
X7169Y11737D01*
X7168Y11718D01*
X7170Y11699D01*
X7184Y11663D01*
X7212Y11635D01*
X7248Y11620D01*
X7268Y11619D01*
X7268Y11619D01*
X7287Y11620D01*
X7323Y11635D01*
X7350Y11663D01*
X7364Y11699D01*
X7365Y11719D01*
X7370D01*
X7368Y11737D01*
X7352Y11774D01*
X7323Y11802D01*
X7286Y11816D01*
X7265Y11817D01*
D02*
G37*
G36*
X6403Y11817D02*
X6403Y11817D01*
X6384Y11815D01*
X6348Y11800D01*
X6321Y11773D01*
X6307Y11737D01*
X6305Y11717D01*
X6301D01*
X6302Y11702D01*
X6318Y11664D01*
X6347Y11635D01*
X6385Y11620D01*
X6405Y11619D01*
X6425Y11620D01*
X6460Y11635D01*
X6487Y11663D01*
X6501Y11699D01*
X6503Y11718D01*
X6501Y11737D01*
X6486Y11773D01*
X6459Y11801D01*
X6423Y11816D01*
X6403Y11817D01*
D02*
G37*
G36*
X7703Y11817D02*
X7684Y11815D01*
X7648Y11800D01*
X7621Y11772D01*
X7607Y11737D01*
X7605Y11717D01*
X7598D01*
X7600Y11698D01*
X7615Y11661D01*
X7643Y11633D01*
X7680Y11618D01*
X7700Y11616D01*
X7700Y11616D01*
X7721Y11618D01*
X7759Y11634D01*
X7787Y11664D01*
X7802Y11702D01*
X7803Y11722D01*
X7798Y11722D01*
X7798Y11722D01*
X7796Y11741D01*
X7782Y11775D01*
X7756Y11801D01*
X7721Y11816D01*
X7703Y11817D01*
D02*
G37*
G36*
X6835Y11820D02*
X6835Y11820D01*
X6816Y11818D01*
X6779Y11803D01*
X6751Y11774D01*
X6737Y11737D01*
X6736Y11718D01*
X6737Y11699D01*
X6751Y11662D01*
X6779Y11633D01*
X6816Y11618D01*
X6835Y11616D01*
X6855Y11618D01*
X6892Y11633D01*
X6919Y11662D01*
X6934Y11699D01*
X6935Y11718D01*
X6934Y11737D01*
X6919Y11774D01*
X6892Y11803D01*
X6855Y11818D01*
X6835Y11820D01*
D02*
G37*
G36*
X5970Y11820D02*
X5950Y11818D01*
X5914Y11803D01*
X5885Y11774D01*
X5870Y11737D01*
X5868Y11718D01*
X5870Y11699D01*
X5885Y11663D01*
X5912Y11635D01*
X5948Y11620D01*
X5968Y11619D01*
X5988Y11621D01*
X6024Y11637D01*
X6051Y11665D01*
X6064Y11703D01*
X6065Y11722D01*
X6073D01*
X6071Y11737D01*
X6056Y11775D01*
X6028Y11803D01*
X5991Y11818D01*
X5970Y11820D01*
D02*
G37*
G36*
Y12253D02*
X5950Y12251D01*
X5914Y12236D01*
X5885Y12207D01*
X5870Y12170D01*
X5868Y12151D01*
X5870Y12132D01*
X5885Y12096D01*
X5912Y12068D01*
X5948Y12054D01*
X5968Y12052D01*
X5988Y12054D01*
X6024Y12070D01*
X6051Y12099D01*
X6064Y12136D01*
X6065Y12155D01*
X6073D01*
X6071Y12171D01*
X6056Y12208D01*
X6028Y12236D01*
X5991Y12251D01*
X5970Y12253D01*
D02*
G37*
G36*
X7265Y12250D02*
X7265Y12250D01*
X7246Y12249D01*
X7211Y12234D01*
X7184Y12206D01*
X7169Y12170D01*
X7168Y12151D01*
X7170Y12132D01*
X7184Y12096D01*
X7212Y12068D01*
X7248Y12053D01*
X7268Y12052D01*
X7268Y12052D01*
X7287Y12054D01*
X7323Y12069D01*
X7350Y12096D01*
X7364Y12132D01*
X7365Y12152D01*
X7370D01*
X7368Y12170D01*
X7352Y12207D01*
X7323Y12235D01*
X7286Y12249D01*
X7265Y12250D01*
D02*
G37*
G36*
X6835Y12253D02*
X6835Y12253D01*
X6816Y12251D01*
X6779Y12236D01*
X6751Y12207D01*
X6737Y12170D01*
X6736Y12151D01*
X6737Y12132D01*
X6751Y12095D01*
X6779Y12066D01*
X6816Y12051D01*
X6835Y12049D01*
X6855Y12051D01*
X6892Y12066D01*
X6919Y12095D01*
X6934Y12132D01*
X6935Y12151D01*
X6934Y12170D01*
X6919Y12207D01*
X6892Y12236D01*
X6855Y12251D01*
X6835Y12253D01*
D02*
G37*
G36*
X34874Y40904D02*
X34855Y40902D01*
X34819Y40887D01*
X34792Y40860D01*
X34778Y40824D01*
X34776Y40805D01*
D01*
X34778Y40786D01*
X34792Y40751D01*
X34819Y40723D01*
X34855Y40709D01*
X34874Y40707D01*
X34893Y40709D01*
X34929Y40723D01*
X34956Y40751D01*
X34971Y40786D01*
X34973Y40805D01*
D01*
X34971Y40824D01*
X34956Y40860D01*
X34929Y40887D01*
X34893Y40902D01*
X34874Y40904D01*
D02*
G37*
G36*
X13804Y12686D02*
X13804Y12686D01*
X13784Y12684D01*
X13748Y12669D01*
X13720Y12640D01*
X13706Y12603D01*
X13704Y12584D01*
X13706Y12565D01*
X13720Y12528D01*
X13748Y12500D01*
X13784Y12484D01*
X13804Y12482D01*
X13824Y12484D01*
X13860Y12500D01*
X13888Y12528D01*
X13903Y12565D01*
X13904Y12584D01*
X13903Y12603D01*
X13888Y12640D01*
X13860Y12669D01*
X13824Y12684D01*
X13804Y12686D01*
D02*
G37*
G36*
X12939Y12686D02*
X12919Y12684D01*
X12882Y12669D01*
X12854Y12640D01*
X12839Y12604D01*
X12837Y12587D01*
X12838Y12569D01*
X12853Y12532D01*
X12880Y12503D01*
X12917Y12487D01*
X12937Y12485D01*
Y12485D01*
X12956Y12487D01*
X12992Y12503D01*
X13019Y12532D01*
X13033Y12569D01*
X13034Y12589D01*
X13041D01*
X13040Y12604D01*
X13025Y12641D01*
X12996Y12669D01*
X12959Y12684D01*
X12939Y12686D01*
D02*
G37*
G36*
X13372Y12250D02*
X13372Y12250D01*
X13352Y12249D01*
X13317Y12233D01*
X13290Y12206D01*
X13276Y12170D01*
X13274Y12150D01*
X13269D01*
X13271Y12135D01*
X13286Y12097D01*
X13315Y12068D01*
X13354Y12053D01*
X13374Y12052D01*
X13393Y12054D01*
X13429Y12069D01*
X13456Y12096D01*
X13470Y12132D01*
X13471Y12151D01*
X13470Y12170D01*
X13455Y12206D01*
X13427Y12234D01*
X13391Y12249D01*
X13372Y12250D01*
D02*
G37*
G36*
X14672Y12250D02*
X14652Y12248D01*
X14617Y12233D01*
X14590Y12206D01*
X14576Y12170D01*
X14574Y12150D01*
X14567D01*
X14568Y12132D01*
X14583Y12094D01*
X14612Y12066D01*
X14649Y12051D01*
X14669Y12049D01*
X14669Y12049D01*
X14690Y12051D01*
X14727Y12067D01*
X14756Y12097D01*
X14770Y12135D01*
X14771Y12155D01*
X14767Y12155D01*
X14767Y12155D01*
X14765Y12174D01*
X14751Y12208D01*
X14724Y12234D01*
X14690Y12249D01*
X14672Y12250D01*
D02*
G37*
G36*
X13372Y12684D02*
X13372Y12684D01*
X13352Y12682D01*
X13317Y12667D01*
X13290Y12639D01*
X13276Y12603D01*
X13274Y12584D01*
X13269D01*
X13271Y12568D01*
X13286Y12530D01*
X13315Y12501D01*
X13354Y12486D01*
X13374Y12485D01*
X13393Y12487D01*
X13429Y12502D01*
X13456Y12529D01*
X13470Y12565D01*
X13471Y12584D01*
X13470Y12603D01*
X13455Y12639D01*
X13427Y12667D01*
X13391Y12682D01*
X13372Y12684D01*
D02*
G37*
G36*
X14672Y12684D02*
X14652Y12681D01*
X14617Y12666D01*
X14590Y12639D01*
X14576Y12603D01*
X14574Y12584D01*
X14567D01*
X14568Y12565D01*
X14583Y12527D01*
X14612Y12499D01*
X14649Y12484D01*
X14669Y12482D01*
X14669Y12482D01*
X14690Y12484D01*
X14727Y12500D01*
X14756Y12530D01*
X14770Y12568D01*
X14771Y12588D01*
X14767Y12589D01*
X14767Y12589D01*
X14765Y12607D01*
X14751Y12641D01*
X14724Y12668D01*
X14690Y12682D01*
X14672Y12684D01*
D02*
G37*
G36*
X14234Y12684D02*
X14234Y12684D01*
X14215Y12682D01*
X14179Y12667D01*
X14152Y12639D01*
X14138Y12603D01*
X14137Y12584D01*
X14138Y12565D01*
X14153Y12529D01*
X14181Y12501D01*
X14217Y12486D01*
X14237Y12485D01*
X14237Y12485D01*
X14256Y12487D01*
X14291Y12502D01*
X14318Y12529D01*
X14333Y12565D01*
X14334Y12585D01*
X14339D01*
X14337Y12603D01*
X14320Y12640D01*
X14291Y12668D01*
X14254Y12682D01*
X14234Y12684D01*
D02*
G37*
G36*
Y11817D02*
X14234Y11817D01*
X14215Y11815D01*
X14179Y11800D01*
X14152Y11773D01*
X14138Y11737D01*
X14137Y11718D01*
X14138Y11699D01*
X14153Y11663D01*
X14181Y11635D01*
X14217Y11620D01*
X14237Y11619D01*
X14237Y11619D01*
X14256Y11620D01*
X14291Y11635D01*
X14318Y11663D01*
X14333Y11699D01*
X14334Y11719D01*
X14339D01*
X14337Y11737D01*
X14320Y11774D01*
X14291Y11802D01*
X14254Y11816D01*
X14234Y11817D01*
D02*
G37*
G36*
X13372Y11817D02*
X13372Y11817D01*
X13352Y11815D01*
X13317Y11800D01*
X13290Y11773D01*
X13276Y11737D01*
X13274Y11717D01*
X13269D01*
X13271Y11702D01*
X13286Y11664D01*
X13315Y11635D01*
X13354Y11620D01*
X13374Y11619D01*
X13393Y11620D01*
X13429Y11635D01*
X13456Y11663D01*
X13470Y11699D01*
X13471Y11718D01*
X13470Y11737D01*
X13455Y11773D01*
X13427Y11801D01*
X13391Y11816D01*
X13372Y11817D01*
D02*
G37*
G36*
X14672Y11817D02*
X14652Y11815D01*
X14617Y11800D01*
X14590Y11772D01*
X14576Y11737D01*
X14574Y11717D01*
X14567D01*
X14568Y11698D01*
X14583Y11661D01*
X14612Y11633D01*
X14649Y11618D01*
X14669Y11616D01*
X14669Y11616D01*
X14690Y11618D01*
X14727Y11634D01*
X14756Y11664D01*
X14770Y11702D01*
X14771Y11722D01*
X14767Y11722D01*
X14767Y11722D01*
X14765Y11741D01*
X14751Y11775D01*
X14724Y11801D01*
X14690Y11816D01*
X14672Y11817D01*
D02*
G37*
G36*
X13804Y11820D02*
X13804Y11820D01*
X13784Y11818D01*
X13748Y11803D01*
X13720Y11774D01*
X13706Y11737D01*
X13704Y11718D01*
X13706Y11699D01*
X13720Y11662D01*
X13748Y11633D01*
X13784Y11618D01*
X13804Y11616D01*
X13824Y11618D01*
X13860Y11633D01*
X13888Y11662D01*
X13903Y11699D01*
X13904Y11718D01*
X13903Y11737D01*
X13888Y11774D01*
X13860Y11803D01*
X13824Y11818D01*
X13804Y11820D01*
D02*
G37*
G36*
X12939Y11820D02*
X12919Y11818D01*
X12882Y11803D01*
X12854Y11774D01*
X12839Y11737D01*
X12837Y11718D01*
X12838Y11699D01*
X12853Y11663D01*
X12881Y11635D01*
X12917Y11620D01*
X12937Y11619D01*
X12956Y11621D01*
X12992Y11637D01*
X13019Y11665D01*
X13033Y11703D01*
X13034Y11722D01*
X13041D01*
X13040Y11737D01*
X13025Y11775D01*
X12996Y11803D01*
X12959Y11818D01*
X12939Y11820D01*
D02*
G37*
G36*
Y12253D02*
X12919Y12251D01*
X12882Y12236D01*
X12854Y12207D01*
X12839Y12170D01*
X12837Y12151D01*
X12838Y12132D01*
X12853Y12096D01*
X12881Y12068D01*
X12917Y12054D01*
X12937Y12052D01*
X12956Y12054D01*
X12992Y12070D01*
X13019Y12099D01*
X13033Y12136D01*
X13034Y12155D01*
X13041D01*
X13040Y12171D01*
X13025Y12208D01*
X12996Y12236D01*
X12959Y12251D01*
X12939Y12253D01*
D02*
G37*
G36*
X14234Y12250D02*
X14234Y12250D01*
X14215Y12249D01*
X14179Y12234D01*
X14152Y12206D01*
X14138Y12170D01*
X14137Y12151D01*
X14138Y12132D01*
X14153Y12096D01*
X14181Y12068D01*
X14217Y12053D01*
X14237Y12052D01*
X14237Y12052D01*
X14256Y12054D01*
X14291Y12069D01*
X14318Y12096D01*
X14333Y12132D01*
X14334Y12152D01*
X14339D01*
X14337Y12170D01*
X14320Y12207D01*
X14291Y12235D01*
X14254Y12249D01*
X14234Y12250D01*
D02*
G37*
G36*
X13804Y12253D02*
X13804Y12253D01*
X13784Y12251D01*
X13748Y12236D01*
X13720Y12207D01*
X13706Y12170D01*
X13704Y12151D01*
X13706Y12132D01*
X13720Y12095D01*
X13748Y12066D01*
X13784Y12051D01*
X13804Y12049D01*
X13824Y12051D01*
X13860Y12066D01*
X13888Y12095D01*
X13903Y12132D01*
X13904Y12151D01*
X13903Y12170D01*
X13888Y12207D01*
X13860Y12236D01*
X13824Y12251D01*
X13804Y12253D01*
D02*
G37*
G36*
X27981Y12686D02*
X27981Y12686D01*
X27961Y12684D01*
X27925Y12669D01*
X27897Y12640D01*
X27883Y12603D01*
X27881Y12584D01*
X27883Y12565D01*
X27897Y12528D01*
X27925Y12500D01*
X27961Y12484D01*
X27981Y12482D01*
X28001Y12484D01*
X28038Y12500D01*
X28065Y12528D01*
X28080Y12565D01*
X28081Y12584D01*
X28080Y12603D01*
X28065Y12640D01*
X28038Y12669D01*
X28001Y12684D01*
X27981Y12686D01*
D02*
G37*
G36*
X28849Y12250D02*
X28829Y12248D01*
X28794Y12233D01*
X28767Y12206D01*
X28753Y12170D01*
X28751Y12150D01*
X28744D01*
X28745Y12132D01*
X28761Y12094D01*
X28789Y12066D01*
X28826Y12051D01*
X28846Y12049D01*
X28846Y12049D01*
X28867Y12051D01*
X28904Y12067D01*
X28933Y12097D01*
X28947Y12135D01*
X28949Y12155D01*
X28944Y12155D01*
X28944Y12155D01*
X28942Y12174D01*
X28928Y12208D01*
X28902Y12234D01*
X28867Y12249D01*
X28849Y12250D01*
D02*
G37*
G36*
X27549Y12250D02*
X27549Y12250D01*
X27529Y12249D01*
X27494Y12233D01*
X27467Y12206D01*
X27453Y12170D01*
X27451Y12150D01*
X27447D01*
X27448Y12135D01*
X27464Y12097D01*
X27493Y12068D01*
X27531Y12053D01*
X27551Y12052D01*
X27571Y12054D01*
X27606Y12069D01*
X27633Y12096D01*
X27647Y12132D01*
X27649Y12151D01*
X27647Y12170D01*
X27632Y12206D01*
X27605Y12234D01*
X27568Y12249D01*
X27549Y12250D01*
D02*
G37*
G36*
Y12684D02*
X27549Y12684D01*
X27529Y12682D01*
X27494Y12667D01*
X27467Y12639D01*
X27453Y12603D01*
X27451Y12584D01*
X27447D01*
X27448Y12568D01*
X27464Y12530D01*
X27493Y12501D01*
X27531Y12486D01*
X27551Y12485D01*
X27571Y12487D01*
X27606Y12502D01*
X27633Y12529D01*
X27647Y12565D01*
X27649Y12584D01*
X27647Y12603D01*
X27632Y12639D01*
X27605Y12667D01*
X27568Y12682D01*
X27549Y12684D01*
D02*
G37*
G36*
X28849Y12684D02*
X28829Y12681D01*
X28794Y12666D01*
X28767Y12639D01*
X28753Y12603D01*
X28751Y12584D01*
X28744D01*
X28745Y12565D01*
X28761Y12527D01*
X28789Y12499D01*
X28826Y12484D01*
X28846Y12482D01*
X28846Y12482D01*
X28867Y12484D01*
X28904Y12500D01*
X28933Y12530D01*
X28947Y12568D01*
X28949Y12588D01*
X28944Y12589D01*
X28944Y12589D01*
X28942Y12607D01*
X28928Y12641D01*
X28902Y12668D01*
X28867Y12682D01*
X28849Y12684D01*
D02*
G37*
G36*
X27116Y12686D02*
X27096Y12684D01*
X27059Y12669D01*
X27031Y12640D01*
X27016Y12604D01*
X27014Y12587D01*
X27015Y12569D01*
X27030Y12532D01*
X27057Y12503D01*
X27094Y12487D01*
X27114Y12485D01*
Y12485D01*
X27133Y12487D01*
X27170Y12503D01*
X27197Y12532D01*
X27210Y12569D01*
X27211Y12589D01*
X27218D01*
X27217Y12604D01*
X27202Y12641D01*
X27173Y12669D01*
X27136Y12684D01*
X27116Y12686D01*
D02*
G37*
G36*
X28411Y12684D02*
X28411Y12684D01*
X28392Y12682D01*
X28356Y12667D01*
X28329Y12639D01*
X28315Y12603D01*
X28314Y12584D01*
X28315Y12565D01*
X28330Y12529D01*
X28358Y12501D01*
X28394Y12486D01*
X28414Y12485D01*
X28414Y12485D01*
X28433Y12487D01*
X28469Y12502D01*
X28496Y12529D01*
X28510Y12565D01*
X28511Y12585D01*
X28516D01*
X28514Y12603D01*
X28498Y12640D01*
X28469Y12668D01*
X28431Y12682D01*
X28411Y12684D01*
D02*
G37*
G36*
Y11817D02*
X28411Y11817D01*
X28392Y11815D01*
X28356Y11800D01*
X28329Y11773D01*
X28315Y11737D01*
X28314Y11718D01*
X28315Y11699D01*
X28330Y11663D01*
X28358Y11635D01*
X28394Y11620D01*
X28414Y11619D01*
X28414Y11619D01*
X28433Y11620D01*
X28469Y11635D01*
X28496Y11663D01*
X28510Y11699D01*
X28511Y11719D01*
X28516D01*
X28514Y11737D01*
X28498Y11774D01*
X28469Y11802D01*
X28431Y11816D01*
X28411Y11817D01*
D02*
G37*
G36*
X27981Y11820D02*
X27981Y11820D01*
X27961Y11818D01*
X27925Y11803D01*
X27897Y11774D01*
X27883Y11737D01*
X27881Y11718D01*
X27883Y11699D01*
X27897Y11662D01*
X27925Y11633D01*
X27961Y11618D01*
X27981Y11616D01*
X28001Y11618D01*
X28038Y11633D01*
X28065Y11662D01*
X28080Y11699D01*
X28081Y11718D01*
X28080Y11737D01*
X28065Y11774D01*
X28038Y11803D01*
X28001Y11818D01*
X27981Y11820D01*
D02*
G37*
G36*
X27116Y11820D02*
X27096Y11818D01*
X27059Y11803D01*
X27031Y11774D01*
X27016Y11737D01*
X27014Y11718D01*
X27016Y11699D01*
X27031Y11663D01*
X27058Y11635D01*
X27094Y11620D01*
X27114Y11619D01*
X27133Y11621D01*
X27170Y11637D01*
X27197Y11665D01*
X27210Y11703D01*
X27211Y11722D01*
X27218D01*
X27217Y11737D01*
X27202Y11775D01*
X27173Y11803D01*
X27136Y11818D01*
X27116Y11820D01*
D02*
G37*
G36*
Y12253D02*
X27096Y12251D01*
X27059Y12236D01*
X27031Y12207D01*
X27016Y12170D01*
X27014Y12151D01*
X27016Y12132D01*
X27031Y12096D01*
X27058Y12068D01*
X27094Y12054D01*
X27114Y12052D01*
X27133Y12054D01*
X27170Y12070D01*
X27197Y12099D01*
X27210Y12136D01*
X27211Y12155D01*
X27218D01*
X27217Y12171D01*
X27202Y12208D01*
X27173Y12236D01*
X27136Y12251D01*
X27116Y12253D01*
D02*
G37*
G36*
X28411Y12250D02*
X28411Y12250D01*
X28392Y12249D01*
X28356Y12234D01*
X28329Y12206D01*
X28315Y12170D01*
X28314Y12151D01*
X28315Y12132D01*
X28330Y12096D01*
X28358Y12068D01*
X28394Y12053D01*
X28414Y12052D01*
X28414Y12052D01*
X28433Y12054D01*
X28469Y12069D01*
X28496Y12096D01*
X28510Y12132D01*
X28511Y12152D01*
X28516D01*
X28514Y12170D01*
X28498Y12207D01*
X28469Y12235D01*
X28431Y12249D01*
X28411Y12250D01*
D02*
G37*
G36*
X28849Y11817D02*
X28829Y11815D01*
X28794Y11800D01*
X28767Y11772D01*
X28753Y11737D01*
X28751Y11717D01*
X28744D01*
X28745Y11698D01*
X28761Y11661D01*
X28789Y11633D01*
X28826Y11618D01*
X28846Y11616D01*
X28846Y11616D01*
X28867Y11618D01*
X28904Y11634D01*
X28933Y11664D01*
X28947Y11702D01*
X28949Y11722D01*
X28944Y11722D01*
X28944Y11722D01*
X28942Y11741D01*
X28928Y11775D01*
X28902Y11801D01*
X28867Y11816D01*
X28849Y11817D01*
D02*
G37*
G36*
X27549Y11817D02*
X27549Y11817D01*
X27529Y11815D01*
X27494Y11800D01*
X27467Y11773D01*
X27453Y11737D01*
X27451Y11717D01*
X27447D01*
X27448Y11702D01*
X27464Y11664D01*
X27493Y11635D01*
X27531Y11620D01*
X27551Y11619D01*
X27571Y11620D01*
X27606Y11635D01*
X27633Y11663D01*
X27647Y11699D01*
X27649Y11718D01*
X27647Y11737D01*
X27632Y11773D01*
X27605Y11801D01*
X27568Y11816D01*
X27549Y11817D01*
D02*
G37*
G36*
X27981Y12253D02*
X27981Y12253D01*
X27961Y12251D01*
X27925Y12236D01*
X27897Y12207D01*
X27883Y12170D01*
X27881Y12151D01*
X27883Y12132D01*
X27897Y12095D01*
X27925Y12066D01*
X27961Y12051D01*
X27981Y12049D01*
X28001Y12051D01*
X28038Y12066D01*
X28065Y12095D01*
X28080Y12132D01*
X28081Y12151D01*
X28080Y12170D01*
X28065Y12207D01*
X28038Y12236D01*
X28001Y12251D01*
X27981Y12253D01*
D02*
G37*
G36*
X20895Y12686D02*
X20895Y12686D01*
X20875Y12684D01*
X20839Y12669D01*
X20811Y12640D01*
X20797Y12603D01*
X20795Y12584D01*
X20797Y12565D01*
X20811Y12528D01*
X20839Y12500D01*
X20875Y12484D01*
X20895Y12482D01*
X20915Y12484D01*
X20952Y12500D01*
X20979Y12528D01*
X20994Y12565D01*
X20995Y12584D01*
X20994Y12603D01*
X20979Y12640D01*
X20952Y12669D01*
X20915Y12684D01*
X20895Y12686D01*
D02*
G37*
G36*
X20463Y12250D02*
X20463Y12250D01*
X20443Y12249D01*
X20408Y12233D01*
X20381Y12206D01*
X20367Y12170D01*
X20365Y12150D01*
X20361D01*
X20362Y12135D01*
X20378Y12097D01*
X20407Y12068D01*
X20445Y12053D01*
X20465Y12052D01*
X20485Y12054D01*
X20520Y12069D01*
X20547Y12096D01*
X20561Y12132D01*
X20563Y12151D01*
X20561Y12170D01*
X20546Y12206D01*
X20519Y12234D01*
X20482Y12249D01*
X20463Y12250D01*
D02*
G37*
G36*
X21763Y12250D02*
X21743Y12248D01*
X21708Y12233D01*
X21681Y12206D01*
X21667Y12170D01*
X21665Y12150D01*
X21658D01*
X21660Y12132D01*
X21675Y12094D01*
X21703Y12066D01*
X21740Y12051D01*
X21760Y12049D01*
X21760Y12049D01*
X21781Y12051D01*
X21818Y12067D01*
X21847Y12097D01*
X21861Y12135D01*
X21863Y12155D01*
X21858Y12155D01*
X21858Y12155D01*
X21856Y12174D01*
X21842Y12208D01*
X21816Y12234D01*
X21781Y12249D01*
X21763Y12250D01*
D02*
G37*
G36*
X20030Y12686D02*
X20010Y12684D01*
X19973Y12669D01*
X19945Y12640D01*
X19930Y12604D01*
X19928Y12587D01*
X19929Y12569D01*
X19944Y12532D01*
X19971Y12503D01*
X20008Y12487D01*
X20028Y12485D01*
Y12485D01*
X20047Y12487D01*
X20084Y12503D01*
X20111Y12532D01*
X20124Y12569D01*
X20125Y12589D01*
X20132D01*
X20131Y12604D01*
X20116Y12641D01*
X20087Y12669D01*
X20050Y12684D01*
X20030Y12686D01*
D02*
G37*
G36*
X20463Y12684D02*
X20463Y12684D01*
X20443Y12682D01*
X20408Y12667D01*
X20381Y12639D01*
X20367Y12603D01*
X20365Y12584D01*
X20361D01*
X20362Y12568D01*
X20378Y12530D01*
X20407Y12501D01*
X20445Y12486D01*
X20465Y12485D01*
X20485Y12487D01*
X20520Y12502D01*
X20547Y12529D01*
X20561Y12565D01*
X20563Y12584D01*
X20561Y12603D01*
X20546Y12639D01*
X20519Y12667D01*
X20482Y12682D01*
X20463Y12684D01*
D02*
G37*
G36*
X21763Y12684D02*
X21743Y12681D01*
X21708Y12666D01*
X21681Y12639D01*
X21667Y12603D01*
X21665Y12584D01*
X21658D01*
X21660Y12565D01*
X21675Y12527D01*
X21703Y12499D01*
X21740Y12484D01*
X21760Y12482D01*
X21760Y12482D01*
X21781Y12484D01*
X21818Y12500D01*
X21847Y12530D01*
X21861Y12568D01*
X21863Y12588D01*
X21858Y12589D01*
X21858Y12589D01*
X21856Y12607D01*
X21842Y12641D01*
X21816Y12668D01*
X21781Y12682D01*
X21763Y12684D01*
D02*
G37*
G36*
X21325Y12684D02*
X21325Y12684D01*
X21306Y12682D01*
X21270Y12667D01*
X21243Y12639D01*
X21229Y12603D01*
X21228Y12584D01*
X21229Y12565D01*
X21244Y12529D01*
X21272Y12501D01*
X21308Y12486D01*
X21328Y12485D01*
X21328Y12485D01*
X21347Y12487D01*
X21383Y12502D01*
X21410Y12529D01*
X21424Y12565D01*
X21425Y12585D01*
X21430D01*
X21428Y12603D01*
X21412Y12640D01*
X21383Y12668D01*
X21345Y12682D01*
X21325Y12684D01*
D02*
G37*
G36*
Y11817D02*
X21325Y11817D01*
X21306Y11815D01*
X21270Y11800D01*
X21243Y11773D01*
X21229Y11737D01*
X21228Y11718D01*
X21229Y11699D01*
X21244Y11663D01*
X21272Y11635D01*
X21308Y11620D01*
X21328Y11619D01*
X21328Y11619D01*
X21347Y11620D01*
X21383Y11635D01*
X21410Y11663D01*
X21424Y11699D01*
X21425Y11719D01*
X21430D01*
X21428Y11737D01*
X21412Y11774D01*
X21383Y11802D01*
X21345Y11816D01*
X21325Y11817D01*
D02*
G37*
G36*
X20895Y11820D02*
X20895Y11820D01*
X20875Y11818D01*
X20839Y11803D01*
X20811Y11774D01*
X20797Y11737D01*
X20795Y11718D01*
X20797Y11699D01*
X20811Y11662D01*
X20839Y11633D01*
X20875Y11618D01*
X20895Y11616D01*
X20915Y11618D01*
X20952Y11633D01*
X20979Y11662D01*
X20994Y11699D01*
X20995Y11718D01*
X20994Y11737D01*
X20979Y11774D01*
X20952Y11803D01*
X20915Y11818D01*
X20895Y11820D01*
D02*
G37*
G36*
X20030Y11820D02*
X20010Y11818D01*
X19973Y11803D01*
X19945Y11774D01*
X19930Y11737D01*
X19928Y11718D01*
X19930Y11699D01*
X19945Y11663D01*
X19972Y11635D01*
X20008Y11620D01*
X20028Y11619D01*
X20047Y11621D01*
X20084Y11637D01*
X20111Y11665D01*
X20124Y11703D01*
X20125Y11722D01*
X20132D01*
X20131Y11737D01*
X20116Y11775D01*
X20087Y11803D01*
X20050Y11818D01*
X20030Y11820D01*
D02*
G37*
G36*
X20463Y11817D02*
X20463Y11817D01*
X20443Y11815D01*
X20408Y11800D01*
X20381Y11773D01*
X20367Y11737D01*
X20365Y11717D01*
X20361D01*
X20362Y11702D01*
X20378Y11664D01*
X20407Y11635D01*
X20445Y11620D01*
X20465Y11619D01*
X20485Y11620D01*
X20520Y11635D01*
X20547Y11663D01*
X20561Y11699D01*
X20563Y11718D01*
X20561Y11737D01*
X20546Y11773D01*
X20519Y11801D01*
X20482Y11816D01*
X20463Y11817D01*
D02*
G37*
G36*
X20030Y12253D02*
X20010Y12251D01*
X19973Y12236D01*
X19945Y12207D01*
X19930Y12170D01*
X19928Y12151D01*
X19930Y12132D01*
X19945Y12096D01*
X19972Y12068D01*
X20008Y12054D01*
X20028Y12052D01*
X20047Y12054D01*
X20084Y12070D01*
X20111Y12099D01*
X20124Y12136D01*
X20125Y12155D01*
X20132D01*
X20131Y12171D01*
X20116Y12208D01*
X20087Y12236D01*
X20050Y12251D01*
X20030Y12253D01*
D02*
G37*
G36*
X21325Y12250D02*
X21325Y12250D01*
X21306Y12249D01*
X21270Y12234D01*
X21243Y12206D01*
X21229Y12170D01*
X21228Y12151D01*
X21229Y12132D01*
X21244Y12096D01*
X21272Y12068D01*
X21308Y12053D01*
X21328Y12052D01*
X21328Y12052D01*
X21347Y12054D01*
X21383Y12069D01*
X21410Y12096D01*
X21424Y12132D01*
X21425Y12152D01*
X21430D01*
X21428Y12170D01*
X21412Y12207D01*
X21383Y12235D01*
X21345Y12249D01*
X21325Y12250D01*
D02*
G37*
G36*
X21763Y11817D02*
X21743Y11815D01*
X21708Y11800D01*
X21681Y11772D01*
X21667Y11737D01*
X21665Y11717D01*
X21658D01*
X21660Y11698D01*
X21675Y11661D01*
X21703Y11633D01*
X21740Y11618D01*
X21760Y11616D01*
X21760Y11616D01*
X21781Y11618D01*
X21818Y11634D01*
X21847Y11664D01*
X21861Y11702D01*
X21863Y11722D01*
X21858Y11722D01*
X21858Y11722D01*
X21856Y11741D01*
X21842Y11775D01*
X21816Y11801D01*
X21781Y11816D01*
X21763Y11817D01*
D02*
G37*
G36*
X20895Y12253D02*
X20895Y12253D01*
X20875Y12251D01*
X20839Y12236D01*
X20811Y12207D01*
X20797Y12170D01*
X20795Y12151D01*
X20797Y12132D01*
X20811Y12095D01*
X20839Y12066D01*
X20875Y12051D01*
X20895Y12049D01*
X20915Y12051D01*
X20952Y12066D01*
X20979Y12095D01*
X20994Y12132D01*
X20995Y12151D01*
X20994Y12170D01*
X20979Y12207D01*
X20952Y12236D01*
X20915Y12251D01*
X20895Y12253D01*
D02*
G37*
%LPD*%
G36*
X25850Y77265D02*
Y76871D01*
Y76467D01*
Y76074D01*
Y75798D01*
X23802D01*
Y76074D01*
Y76467D01*
Y76871D01*
Y77275D01*
Y77560D01*
X25850D01*
Y77265D01*
D02*
G37*
G36*
X36137Y53084D02*
Y52867D01*
Y52650D01*
Y52434D01*
Y52217D01*
Y52001D01*
X34002D01*
Y52217D01*
Y52434D01*
Y52650D01*
Y52867D01*
Y53084D01*
Y53085D01*
Y53301D01*
X36137D01*
Y53084D01*
D02*
G37*
G36*
X13285Y78065D02*
Y77671D01*
Y77267D01*
Y76874D01*
Y76598D01*
X11237D01*
Y76874D01*
Y77267D01*
Y77671D01*
Y78075D01*
Y78360D01*
X13285D01*
Y78065D01*
D02*
G37*
G36*
X17295D02*
Y77671D01*
Y77267D01*
Y76874D01*
Y76598D01*
X15247D01*
Y76874D01*
Y77267D01*
Y77671D01*
Y78075D01*
Y78360D01*
X17295D01*
Y78065D01*
D02*
G37*
G36*
X9300D02*
Y77671D01*
Y77267D01*
Y76874D01*
Y76598D01*
X7252D01*
Y76874D01*
Y77267D01*
Y77671D01*
Y78075D01*
Y78360D01*
X9300D01*
Y78065D01*
D02*
G37*
G36*
X7903Y53084D02*
Y52867D01*
Y52650D01*
Y52434D01*
Y52217D01*
Y52001D01*
X5768D01*
Y52217D01*
Y52434D01*
Y52650D01*
Y52867D01*
Y53084D01*
Y53085D01*
Y53301D01*
X7903D01*
Y53084D01*
D02*
G37*
G36*
X35160Y81689D02*
X35161Y81674D01*
X35173Y81645D01*
X35195Y81624D01*
X35223Y81612D01*
X35238Y81610D01*
Y81404D01*
X35225Y81402D01*
X35200Y81392D01*
X35181Y81373D01*
X35171Y81348D01*
X35169Y81335D01*
Y81295D01*
X35160D01*
Y81286D01*
X35161Y81270D01*
X35173Y81242D01*
X35195Y81220D01*
X35223Y81208D01*
X35238Y81207D01*
Y81010D01*
X35223Y81008D01*
X35195Y80997D01*
X35173Y80975D01*
X35161Y80947D01*
X35160Y80931D01*
Y80912D01*
X34982D01*
X34981Y80931D01*
X34966Y80966D01*
X34939Y80993D01*
X34903Y81008D01*
X34884Y81010D01*
X34864D01*
X34845Y81008D01*
X34810Y80993D01*
X34782Y80966D01*
X34768Y80931D01*
X34766Y80912D01*
X34589D01*
Y80921D01*
X34587Y80937D01*
X34575Y80965D01*
X34554Y80987D01*
X34525Y80999D01*
X34510Y81000D01*
Y81207D01*
X34523Y81208D01*
X34548Y81218D01*
X34567Y81237D01*
X34578Y81262D01*
X34579Y81276D01*
Y81315D01*
X34589D01*
Y81325D01*
X34587Y81340D01*
X34575Y81369D01*
X34554Y81390D01*
X34525Y81402D01*
X34510Y81404D01*
Y81601D01*
X34525Y81602D01*
X34554Y81614D01*
X34575Y81636D01*
X34587Y81664D01*
X34589Y81679D01*
Y81699D01*
X34766D01*
X34768Y81680D01*
X34782Y81644D01*
X34810Y81617D01*
X34845Y81602D01*
X34864Y81601D01*
X34884D01*
X34903Y81602D01*
X34939Y81617D01*
X34966Y81644D01*
X34981Y81680D01*
X34982Y81699D01*
X35160D01*
Y81689D01*
D02*
G37*
G36*
X14872Y53084D02*
Y52867D01*
Y52650D01*
Y52434D01*
Y52217D01*
Y52001D01*
X12737D01*
Y52217D01*
Y52434D01*
Y52650D01*
Y52867D01*
Y53084D01*
Y53085D01*
Y53301D01*
X14872D01*
Y53084D01*
D02*
G37*
G36*
X29049D02*
Y52867D01*
Y52650D01*
Y52434D01*
Y52217D01*
Y52001D01*
X26914D01*
Y52217D01*
Y52434D01*
Y52650D01*
Y52867D01*
Y53084D01*
Y53085D01*
Y53301D01*
X29049D01*
Y53084D01*
D02*
G37*
G36*
X21963D02*
Y52867D01*
Y52650D01*
Y52434D01*
Y52217D01*
Y52001D01*
X19828D01*
Y52217D01*
Y52434D01*
Y52650D01*
Y52867D01*
Y53084D01*
Y53085D01*
Y53301D01*
X21963D01*
Y53084D01*
D02*
G37*
%LPC*%
G36*
X25623Y76182D02*
X25604Y76180D01*
X25569Y76165D01*
X25541Y76138D01*
X25527Y76103D01*
X25525Y76084D01*
Y76084D01*
X25526Y76065D01*
X25527Y76045D01*
X25542Y76010D01*
X25569Y75983D01*
X25605Y75968D01*
X25624Y75966D01*
X25625Y75973D01*
X25647Y75975D01*
X25686Y75991D01*
X25715Y76021D01*
X25732Y76060D01*
X25733Y76074D01*
X25722D01*
Y76084D01*
X25720Y76103D01*
X25705Y76138D01*
X25678Y76165D01*
X25642Y76180D01*
X25623Y76182D01*
D02*
G37*
G36*
X24826D02*
X24807Y76180D01*
X24771Y76165D01*
X24744Y76138D01*
X24729Y76103D01*
X24728Y76084D01*
Y76074D01*
Y76064D01*
X24729Y76047D01*
X24742Y76015D01*
X24767Y75990D01*
X24799Y75977D01*
X24816Y75975D01*
X24826D01*
X24847Y75977D01*
X24886Y75994D01*
X24916Y76023D01*
X24932Y76063D01*
X24933Y76074D01*
X24924D01*
Y76084D01*
X24923Y76103D01*
X24908Y76138D01*
X24881Y76165D01*
X24845Y76180D01*
X24826Y76182D01*
D02*
G37*
G36*
X25230D02*
X25210Y76180D01*
X25175Y76165D01*
X25148Y76138D01*
X25133Y76103D01*
X25131Y76084D01*
Y76074D01*
X25121D01*
Y76074D01*
X25123Y76053D01*
X25140Y76014D01*
X25169Y75984D01*
X25208Y75968D01*
X25230Y75966D01*
X25249Y75967D01*
X25284Y75982D01*
X25311Y76009D01*
X25326Y76045D01*
X25328Y76064D01*
Y76074D01*
Y76084D01*
X25326Y76103D01*
X25311Y76138D01*
X25284Y76165D01*
X25249Y76180D01*
X25230Y76182D01*
D02*
G37*
G36*
X24029D02*
X24010Y76180D01*
X23974Y76165D01*
X23947Y76138D01*
X23932Y76103D01*
X23930Y76084D01*
Y76074D01*
X23920D01*
Y76074D01*
X23923Y76053D01*
X23939Y76014D01*
X23969Y75984D01*
X24008Y75968D01*
X24029Y75966D01*
X24050Y75968D01*
X24089Y75984D01*
X24119Y76014D01*
X24135Y76053D01*
X24137Y76074D01*
Y76074D01*
X24117D01*
Y76093D01*
X24116Y76111D01*
X24102Y76143D01*
X24078Y76167D01*
X24046Y76180D01*
X24029Y76182D01*
D02*
G37*
G36*
X24432Y76192D02*
X24411Y76190D01*
X24372Y76174D01*
X24342Y76144D01*
X24326Y76105D01*
X24324Y76084D01*
Y76074D01*
Y76064D01*
X24326Y76045D01*
X24341Y76009D01*
X24368Y75982D01*
X24403Y75967D01*
X24422Y75966D01*
X24444Y75968D01*
X24483Y75984D01*
X24512Y76014D01*
X24529Y76053D01*
X24531Y76074D01*
Y76074D01*
X24521D01*
Y76103D01*
X24519Y76121D01*
X24506Y76153D01*
X24481Y76177D01*
X24450Y76190D01*
X24432Y76192D01*
D02*
G37*
G36*
X25230Y76576D02*
X25210Y76574D01*
X25175Y76559D01*
X25148Y76532D01*
X25133Y76497D01*
X25131Y76477D01*
Y76467D01*
X25122D01*
X25123Y76458D01*
X25138Y76423D01*
X25165Y76396D01*
X25200Y76381D01*
X25220Y76379D01*
X25241Y76381D01*
X25281Y76397D01*
X25311Y76428D01*
X25328Y76468D01*
X25328Y76470D01*
Y76477D01*
X25326Y76497D01*
X25311Y76532D01*
X25284Y76559D01*
X25249Y76574D01*
X25230Y76576D01*
D02*
G37*
G36*
X25623D02*
X25604Y76574D01*
X25569Y76559D01*
X25541Y76532D01*
X25527Y76497D01*
X25525Y76477D01*
Y76467D01*
X25517D01*
X25517Y76466D01*
X25533Y76427D01*
X25563Y76397D01*
X25602Y76381D01*
X25623Y76379D01*
X25644Y76381D01*
X25682Y76397D01*
X25712Y76426D01*
X25727Y76464D01*
X25728Y76467D01*
X25722D01*
Y76477D01*
X25720Y76497D01*
X25705Y76532D01*
X25678Y76559D01*
X25642Y76574D01*
X25623Y76576D01*
D02*
G37*
G36*
X24826D02*
X24807Y76574D01*
X24771Y76559D01*
X24744Y76532D01*
X24729Y76497D01*
X24728Y76477D01*
Y76467D01*
X24722D01*
X24722Y76464D01*
X24738Y76426D01*
X24767Y76397D01*
X24805Y76381D01*
X24826Y76379D01*
X24846Y76381D01*
X24882Y76396D01*
X24909Y76423D01*
X24924Y76460D01*
X24925Y76467D01*
X24924D01*
Y76477D01*
X24923Y76497D01*
X24908Y76532D01*
X24881Y76559D01*
X24845Y76574D01*
X24826Y76576D01*
D02*
G37*
G36*
X24029D02*
X24010Y76574D01*
X23974Y76559D01*
X23947Y76532D01*
X23932Y76497D01*
X23930Y76477D01*
Y76467D01*
X23922D01*
X23922Y76466D01*
X23939Y76427D01*
X23969Y76397D01*
X24008Y76381D01*
X24029Y76379D01*
X24048Y76381D01*
X24084Y76396D01*
X24112Y76423D01*
X24126Y76459D01*
X24127Y76467D01*
X24117D01*
Y76487D01*
X24116Y76504D01*
X24102Y76536D01*
X24078Y76561D01*
X24046Y76574D01*
X24029Y76576D01*
D02*
G37*
G36*
X24432Y76586D02*
X24411Y76584D01*
X24372Y76567D01*
X24342Y76537D01*
X24326Y76498D01*
X24324Y76477D01*
X24326Y76458D01*
X24341Y76423D01*
X24368Y76396D01*
X24403Y76381D01*
X24422Y76379D01*
X24443Y76381D01*
X24481Y76397D01*
X24511Y76426D01*
X24527Y76464D01*
X24527Y76467D01*
X24521D01*
Y76497D01*
X24519Y76514D01*
X24506Y76546D01*
X24481Y76571D01*
X24450Y76584D01*
X24432Y76586D01*
D02*
G37*
G36*
X25230Y77393D02*
X25208Y77391D01*
X25169Y77374D01*
X25140Y77345D01*
X25123Y77306D01*
X25121Y77284D01*
Y77275D01*
X25123Y77255D01*
X25138Y77220D01*
X25165Y77193D01*
X25200Y77178D01*
X25220Y77176D01*
X25241Y77178D01*
X25281Y77195D01*
X25311Y77225D01*
X25328Y77265D01*
X25328Y77267D01*
Y77294D01*
X25326Y77313D01*
X25311Y77349D01*
X25284Y77376D01*
X25249Y77391D01*
X25230Y77393D01*
D02*
G37*
G36*
X25623D02*
X25602Y77391D01*
X25563Y77374D01*
X25533Y77345D01*
X25517Y77306D01*
X25515Y77284D01*
X25517Y77263D01*
X25533Y77224D01*
X25563Y77194D01*
X25602Y77178D01*
X25623Y77176D01*
X25644Y77178D01*
X25682Y77194D01*
X25712Y77223D01*
X25727Y77262D01*
X25729Y77282D01*
Y77306D01*
X25729Y77306D01*
X25713Y77345D01*
X25683Y77374D01*
X25644Y77391D01*
X25623Y77393D01*
D02*
G37*
G36*
X24836Y77383D02*
X24826D01*
X24805Y77381D01*
X24766Y77365D01*
X24736Y77335D01*
X24720Y77296D01*
Y77282D01*
X24722Y77262D01*
X24738Y77223D01*
X24767Y77194D01*
X24805Y77178D01*
X24826Y77176D01*
X24846Y77178D01*
X24882Y77193D01*
X24909Y77221D01*
X24924Y77257D01*
X24925Y77265D01*
X24924D01*
Y77294D01*
X24923Y77312D01*
X24909Y77343D01*
X24885Y77368D01*
X24853Y77381D01*
X24836Y77383D01*
D02*
G37*
G36*
X24028Y77392D02*
X24027Y77385D01*
X24005Y77383D01*
X23966Y77367D01*
X23937Y77337D01*
X23920Y77298D01*
X23920D01*
Y77285D01*
X23922Y77263D01*
X23939Y77224D01*
X23969Y77194D01*
X24008Y77178D01*
X24029Y77176D01*
X24048Y77178D01*
X24084Y77193D01*
X24112Y77220D01*
X24126Y77256D01*
X24128Y77275D01*
X24127D01*
X24126Y77294D01*
X24125Y77313D01*
X24110Y77348D01*
X24083Y77375D01*
X24047Y77390D01*
X24028Y77392D01*
D02*
G37*
G36*
X24422Y77393D02*
X24403Y77391D01*
X24368Y77376D01*
X24341Y77349D01*
X24326Y77313D01*
X24324Y77294D01*
Y77286D01*
Y77284D01*
Y77275D01*
X24326Y77255D01*
X24341Y77220D01*
X24368Y77193D01*
X24403Y77178D01*
X24422Y77176D01*
X24443Y77178D01*
X24481Y77194D01*
X24511Y77223D01*
X24527Y77262D01*
X24529Y77282D01*
Y77306D01*
X24529Y77306D01*
X24512Y77345D01*
X24483Y77374D01*
X24444Y77391D01*
X24422Y77393D01*
D02*
G37*
G36*
X24432Y76989D02*
X24411Y76987D01*
X24372Y76971D01*
X24342Y76941D01*
X24326Y76902D01*
X24324Y76881D01*
Y76871D01*
X24326Y76852D01*
X24341Y76816D01*
X24368Y76789D01*
X24403Y76775D01*
X24422Y76773D01*
X24443Y76775D01*
X24481Y76791D01*
X24511Y76820D01*
X24527Y76858D01*
X24528Y76871D01*
X24521D01*
Y76901D01*
X24519Y76918D01*
X24506Y76950D01*
X24481Y76974D01*
X24450Y76987D01*
X24432Y76989D01*
D02*
G37*
G36*
X24826Y76979D02*
X24807Y76977D01*
X24771Y76963D01*
X24744Y76936D01*
X24729Y76900D01*
X24728Y76881D01*
Y76871D01*
X24721D01*
X24722Y76858D01*
X24738Y76820D01*
X24767Y76791D01*
X24805Y76775D01*
X24826Y76773D01*
X24846Y76775D01*
X24882Y76789D01*
X24909Y76817D01*
X24924Y76853D01*
X24926Y76871D01*
X24924D01*
Y76881D01*
X24923Y76900D01*
X24908Y76936D01*
X24881Y76963D01*
X24845Y76977D01*
X24826Y76979D01*
D02*
G37*
G36*
X24029D02*
X24010Y76977D01*
X23974Y76963D01*
X23947Y76936D01*
X23932Y76900D01*
X23930Y76881D01*
Y76871D01*
X23921D01*
X23922Y76860D01*
X23939Y76821D01*
X23969Y76791D01*
X24008Y76775D01*
X24029Y76773D01*
X24048Y76775D01*
X24084Y76789D01*
X24112Y76817D01*
X24126Y76853D01*
X24128Y76871D01*
X24117D01*
Y76891D01*
X24116Y76908D01*
X24102Y76940D01*
X24078Y76964D01*
X24046Y76978D01*
X24029Y76979D01*
D02*
G37*
G36*
X25230D02*
X25210Y76977D01*
X25175Y76963D01*
X25148Y76936D01*
X25133Y76900D01*
X25131Y76881D01*
Y76871D01*
X25121D01*
X25123Y76852D01*
X25138Y76816D01*
X25165Y76789D01*
X25200Y76775D01*
X25220Y76773D01*
X25241Y76775D01*
X25281Y76791D01*
X25311Y76822D01*
X25328Y76861D01*
X25329Y76871D01*
X25328D01*
Y76881D01*
X25326Y76900D01*
X25311Y76936D01*
X25284Y76963D01*
X25249Y76977D01*
X25230Y76979D01*
D02*
G37*
G36*
X25623D02*
X25604Y76977D01*
X25569Y76963D01*
X25541Y76936D01*
X25527Y76900D01*
X25525Y76881D01*
Y76871D01*
X25516D01*
X25517Y76860D01*
X25533Y76821D01*
X25563Y76791D01*
X25602Y76775D01*
X25623Y76773D01*
X25644Y76775D01*
X25682Y76791D01*
X25712Y76820D01*
X25727Y76858D01*
X25729Y76871D01*
X25722D01*
Y76881D01*
X25720Y76900D01*
X25705Y76936D01*
X25678Y76963D01*
X25642Y76977D01*
X25623Y76979D01*
D02*
G37*
G36*
X35937Y52750D02*
X35918Y52748D01*
X35883Y52733D01*
X35856Y52706D01*
X35841Y52670D01*
X35840Y52650D01*
X35832D01*
X35834Y52632D01*
X35849Y52594D01*
X35878Y52566D01*
X35915Y52551D01*
X35935Y52549D01*
X35935Y52549D01*
X35955Y52551D01*
X35993Y52567D01*
X36021Y52597D01*
X36036Y52635D01*
X36037Y52655D01*
X36032Y52655D01*
X36032Y52655D01*
X36030Y52674D01*
X36016Y52708D01*
X35990Y52734D01*
X35956Y52749D01*
X35937Y52750D01*
D02*
G37*
G36*
X35070Y53186D02*
X35070Y53186D01*
X35050Y53184D01*
X35013Y53169D01*
X34986Y53140D01*
X34971Y53103D01*
X34970Y53084D01*
X34971Y53065D01*
X34986Y53028D01*
X35013Y53000D01*
X35050Y52984D01*
X35070Y52982D01*
X35090Y52984D01*
X35126Y53000D01*
X35154Y53028D01*
X35168Y53065D01*
X35170Y53084D01*
X35168Y53103D01*
X35154Y53140D01*
X35126Y53169D01*
X35090Y53184D01*
X35070Y53186D01*
D02*
G37*
G36*
X34637Y52750D02*
X34637Y52750D01*
X34618Y52749D01*
X34582Y52733D01*
X34555Y52706D01*
X34541Y52670D01*
X34540Y52650D01*
X34535D01*
X34537Y52635D01*
X34552Y52597D01*
X34581Y52568D01*
X34619Y52553D01*
X34640Y52552D01*
X34659Y52554D01*
X34695Y52569D01*
X34722Y52596D01*
X34736Y52632D01*
X34737Y52651D01*
X34736Y52670D01*
X34721Y52706D01*
X34693Y52734D01*
X34657Y52749D01*
X34637Y52750D01*
D02*
G37*
G36*
Y53184D02*
X34637Y53184D01*
X34618Y53182D01*
X34582Y53167D01*
X34555Y53139D01*
X34541Y53103D01*
X34540Y53084D01*
X34535D01*
X34537Y53068D01*
X34552Y53030D01*
X34581Y53001D01*
X34619Y52986D01*
X34640Y52985D01*
X34659Y52987D01*
X34695Y53002D01*
X34722Y53029D01*
X34736Y53065D01*
X34737Y53084D01*
X34736Y53103D01*
X34721Y53139D01*
X34693Y53167D01*
X34657Y53182D01*
X34637Y53184D01*
D02*
G37*
G36*
X35937Y53184D02*
X35918Y53181D01*
X35883Y53166D01*
X35856Y53139D01*
X35841Y53103D01*
X35840Y53084D01*
X35832D01*
X35834Y53065D01*
X35849Y53027D01*
X35878Y52999D01*
X35915Y52984D01*
X35935Y52982D01*
X35935Y52982D01*
X35955Y52984D01*
X35993Y53000D01*
X36021Y53030D01*
X36036Y53068D01*
X36037Y53088D01*
X36032Y53089D01*
X36032Y53089D01*
X36030Y53107D01*
X36016Y53141D01*
X35990Y53168D01*
X35956Y53182D01*
X35937Y53184D01*
D02*
G37*
G36*
X34205Y53186D02*
X34185Y53184D01*
X34148Y53169D01*
X34120Y53140D01*
X34104Y53104D01*
X34103Y53087D01*
X34104Y53069D01*
X34118Y53032D01*
X34146Y53003D01*
X34182Y52987D01*
X34202Y52985D01*
Y52985D01*
X34222Y52987D01*
X34258Y53003D01*
X34285Y53032D01*
X34299Y53069D01*
X34300Y53089D01*
X34307D01*
X34306Y53104D01*
X34290Y53141D01*
X34262Y53169D01*
X34225Y53184D01*
X34205Y53186D01*
D02*
G37*
G36*
X35500Y53184D02*
X35500Y53184D01*
X35480Y53182D01*
X35445Y53167D01*
X35418Y53139D01*
X35404Y53103D01*
X35402Y53084D01*
X35404Y53065D01*
X35419Y53029D01*
X35446Y53001D01*
X35483Y52986D01*
X35502Y52985D01*
X35502Y52985D01*
X35522Y52987D01*
X35557Y53002D01*
X35584Y53029D01*
X35598Y53065D01*
X35600Y53085D01*
X35605D01*
X35602Y53103D01*
X35586Y53140D01*
X35557Y53168D01*
X35520Y53182D01*
X35500Y53184D01*
D02*
G37*
G36*
Y52750D02*
X35500Y52750D01*
X35480Y52749D01*
X35445Y52733D01*
X35418Y52706D01*
X35404Y52670D01*
X35402Y52651D01*
X35404Y52632D01*
X35419Y52596D01*
X35446Y52568D01*
X35483Y52553D01*
X35502Y52552D01*
X35502Y52552D01*
X35522Y52554D01*
X35557Y52569D01*
X35584Y52596D01*
X35598Y52632D01*
X35600Y52652D01*
X35605D01*
X35602Y52670D01*
X35586Y52707D01*
X35557Y52735D01*
X35520Y52749D01*
X35500Y52750D01*
D02*
G37*
G36*
Y52317D02*
X35500Y52317D01*
X35480Y52315D01*
X35445Y52300D01*
X35418Y52273D01*
X35404Y52237D01*
X35402Y52218D01*
X35404Y52199D01*
X35419Y52163D01*
X35446Y52135D01*
X35483Y52120D01*
X35502Y52119D01*
X35502Y52119D01*
X35522Y52120D01*
X35557Y52135D01*
X35584Y52163D01*
X35598Y52199D01*
X35600Y52219D01*
X35605D01*
X35602Y52237D01*
X35586Y52274D01*
X35557Y52302D01*
X35520Y52316D01*
X35500Y52317D01*
D02*
G37*
G36*
X34205Y52320D02*
X34185Y52318D01*
X34148Y52303D01*
X34120Y52274D01*
X34104Y52237D01*
X34102Y52218D01*
X34104Y52199D01*
X34119Y52163D01*
X34147Y52135D01*
X34183Y52120D01*
X34202Y52119D01*
X34222Y52121D01*
X34258Y52137D01*
X34285Y52165D01*
X34299Y52203D01*
X34300Y52222D01*
X34307D01*
X34306Y52237D01*
X34290Y52275D01*
X34262Y52303D01*
X34225Y52318D01*
X34205Y52320D01*
D02*
G37*
G36*
X35070Y52320D02*
X35070Y52320D01*
X35050Y52318D01*
X35013Y52302D01*
X34986Y52274D01*
X34971Y52237D01*
X34970Y52218D01*
X34971Y52199D01*
X34986Y52162D01*
X35013Y52133D01*
X35050Y52118D01*
X35070Y52116D01*
X35090Y52118D01*
X35126Y52133D01*
X35154Y52162D01*
X35168Y52199D01*
X35170Y52218D01*
X35168Y52237D01*
X35154Y52274D01*
X35126Y52302D01*
X35090Y52318D01*
X35070Y52320D01*
D02*
G37*
G36*
X34205Y52753D02*
X34185Y52751D01*
X34148Y52736D01*
X34120Y52707D01*
X34104Y52670D01*
X34102Y52651D01*
X34104Y52632D01*
X34119Y52596D01*
X34147Y52568D01*
X34183Y52554D01*
X34202Y52552D01*
X34222Y52554D01*
X34258Y52570D01*
X34285Y52599D01*
X34299Y52636D01*
X34300Y52655D01*
X34307D01*
X34306Y52671D01*
X34290Y52708D01*
X34262Y52736D01*
X34225Y52751D01*
X34205Y52753D01*
D02*
G37*
G36*
X35070Y52753D02*
X35070Y52753D01*
X35050Y52751D01*
X35013Y52736D01*
X34986Y52707D01*
X34971Y52670D01*
X34970Y52651D01*
X34971Y52632D01*
X34986Y52595D01*
X35013Y52566D01*
X35050Y52551D01*
X35070Y52549D01*
X35090Y52551D01*
X35126Y52566D01*
X35154Y52595D01*
X35168Y52632D01*
X35170Y52651D01*
X35168Y52670D01*
X35154Y52707D01*
X35126Y52736D01*
X35090Y52751D01*
X35070Y52753D01*
D02*
G37*
G36*
X34637Y52317D02*
X34637Y52317D01*
X34618Y52315D01*
X34582Y52300D01*
X34555Y52273D01*
X34541Y52237D01*
X34540Y52217D01*
X34535D01*
X34537Y52202D01*
X34552Y52164D01*
X34581Y52135D01*
X34619Y52120D01*
X34640Y52119D01*
X34659Y52120D01*
X34695Y52135D01*
X34722Y52163D01*
X34736Y52199D01*
X34737Y52218D01*
X34736Y52237D01*
X34721Y52273D01*
X34693Y52301D01*
X34657Y52316D01*
X34637Y52317D01*
D02*
G37*
G36*
X35937Y52317D02*
X35918Y52315D01*
X35883Y52300D01*
X35856Y52272D01*
X35841Y52237D01*
X35840Y52217D01*
X35832D01*
X35834Y52198D01*
X35849Y52161D01*
X35878Y52133D01*
X35915Y52118D01*
X35935Y52116D01*
X35935Y52116D01*
X35955Y52118D01*
X35993Y52134D01*
X36021Y52164D01*
X36036Y52202D01*
X36037Y52222D01*
X36032Y52222D01*
X36032Y52222D01*
X36030Y52241D01*
X36016Y52275D01*
X35990Y52301D01*
X35956Y52316D01*
X35937Y52317D01*
D02*
G37*
G36*
X11464Y77779D02*
X11445Y77777D01*
X11409Y77763D01*
X11382Y77736D01*
X11367Y77700D01*
X11365Y77681D01*
Y77671D01*
X11356D01*
X11357Y77660D01*
X11374Y77621D01*
X11404Y77591D01*
X11443Y77575D01*
X11464Y77573D01*
X11483Y77575D01*
X11519Y77589D01*
X11547Y77617D01*
X11562Y77653D01*
X11563Y77671D01*
X11552D01*
Y77691D01*
X11551Y77708D01*
X11537Y77740D01*
X11513Y77764D01*
X11481Y77778D01*
X11464Y77779D01*
D02*
G37*
G36*
X13058D02*
X13039Y77777D01*
X13004Y77763D01*
X12976Y77736D01*
X12962Y77700D01*
X12960Y77681D01*
Y77671D01*
X12951D01*
X12952Y77660D01*
X12968Y77621D01*
X12998Y77591D01*
X13037Y77575D01*
X13058Y77573D01*
X13079Y77575D01*
X13117Y77591D01*
X13147Y77620D01*
X13162Y77658D01*
X13164Y77671D01*
X13157D01*
Y77681D01*
X13155Y77700D01*
X13140Y77736D01*
X13113Y77763D01*
X13077Y77777D01*
X13058Y77779D01*
D02*
G37*
G36*
X12665D02*
X12645Y77777D01*
X12610Y77763D01*
X12583Y77736D01*
X12568Y77700D01*
X12566Y77681D01*
Y77671D01*
X12556D01*
X12558Y77652D01*
X12573Y77616D01*
X12600Y77589D01*
X12636Y77575D01*
X12655Y77573D01*
X12676Y77575D01*
X12716Y77591D01*
X12746Y77622D01*
X12763Y77661D01*
X12764Y77671D01*
X12763D01*
Y77681D01*
X12761Y77700D01*
X12746Y77736D01*
X12719Y77763D01*
X12684Y77777D01*
X12665Y77779D01*
D02*
G37*
G36*
X11867Y77789D02*
X11846Y77787D01*
X11807Y77771D01*
X11777Y77741D01*
X11761Y77702D01*
X11759Y77681D01*
Y77671D01*
X11761Y77652D01*
X11776Y77616D01*
X11803Y77589D01*
X11838Y77575D01*
X11857Y77573D01*
X11878Y77575D01*
X11916Y77591D01*
X11946Y77620D01*
X11962Y77658D01*
X11963Y77671D01*
X11956D01*
Y77701D01*
X11954Y77718D01*
X11941Y77750D01*
X11917Y77774D01*
X11885Y77787D01*
X11867Y77789D01*
D02*
G37*
G36*
X12261Y77779D02*
X12242Y77777D01*
X12206Y77763D01*
X12179Y77736D01*
X12164Y77700D01*
X12163Y77681D01*
Y77671D01*
X12156D01*
X12157Y77658D01*
X12173Y77620D01*
X12202Y77591D01*
X12240Y77575D01*
X12261Y77573D01*
X12281Y77575D01*
X12317Y77589D01*
X12344Y77617D01*
X12359Y77653D01*
X12361Y77671D01*
X12359D01*
Y77681D01*
X12358Y77700D01*
X12343Y77736D01*
X12316Y77763D01*
X12280Y77777D01*
X12261Y77779D01*
D02*
G37*
G36*
X13058Y77376D02*
X13039Y77374D01*
X13004Y77359D01*
X12976Y77332D01*
X12962Y77297D01*
X12960Y77277D01*
Y77267D01*
X12952D01*
X12952Y77266D01*
X12968Y77227D01*
X12998Y77197D01*
X13037Y77181D01*
X13058Y77179D01*
X13079Y77181D01*
X13117Y77197D01*
X13147Y77226D01*
X13162Y77264D01*
X13163Y77267D01*
X13157D01*
Y77277D01*
X13155Y77297D01*
X13140Y77332D01*
X13113Y77359D01*
X13077Y77374D01*
X13058Y77376D01*
D02*
G37*
G36*
X12665D02*
X12645Y77374D01*
X12610Y77359D01*
X12583Y77332D01*
X12568Y77297D01*
X12566Y77277D01*
Y77267D01*
X12557D01*
X12558Y77258D01*
X12573Y77223D01*
X12600Y77196D01*
X12636Y77181D01*
X12655Y77179D01*
X12676Y77181D01*
X12716Y77197D01*
X12746Y77228D01*
X12763Y77268D01*
X12763Y77270D01*
Y77277D01*
X12761Y77297D01*
X12746Y77332D01*
X12719Y77359D01*
X12684Y77374D01*
X12665Y77376D01*
D02*
G37*
G36*
X11867Y77386D02*
X11846Y77384D01*
X11807Y77367D01*
X11777Y77337D01*
X11761Y77298D01*
X11759Y77277D01*
X11761Y77258D01*
X11776Y77223D01*
X11803Y77196D01*
X11838Y77181D01*
X11857Y77179D01*
X11878Y77181D01*
X11916Y77197D01*
X11946Y77226D01*
X11962Y77264D01*
X11962Y77267D01*
X11956D01*
Y77297D01*
X11954Y77314D01*
X11941Y77346D01*
X11917Y77371D01*
X11885Y77384D01*
X11867Y77386D01*
D02*
G37*
G36*
X12261Y77376D02*
X12242Y77374D01*
X12206Y77359D01*
X12179Y77332D01*
X12164Y77297D01*
X12163Y77277D01*
Y77267D01*
X12157D01*
X12157Y77264D01*
X12173Y77226D01*
X12202Y77197D01*
X12240Y77181D01*
X12261Y77179D01*
X12281Y77181D01*
X12317Y77196D01*
X12344Y77223D01*
X12359Y77260D01*
X12360Y77267D01*
X12359D01*
Y77277D01*
X12358Y77297D01*
X12343Y77332D01*
X12316Y77359D01*
X12280Y77374D01*
X12261Y77376D01*
D02*
G37*
G36*
X13058Y78193D02*
X13037Y78191D01*
X12998Y78174D01*
X12968Y78145D01*
X12952Y78106D01*
X12950Y78084D01*
X12952Y78063D01*
X12968Y78024D01*
X12998Y77994D01*
X13037Y77978D01*
X13058Y77976D01*
X13079Y77978D01*
X13117Y77994D01*
X13147Y78023D01*
X13162Y78062D01*
X13164Y78082D01*
Y78106D01*
X13164Y78106D01*
X13148Y78145D01*
X13118Y78174D01*
X13079Y78191D01*
X13058Y78193D01*
D02*
G37*
G36*
X12665D02*
X12643Y78191D01*
X12604Y78174D01*
X12575Y78145D01*
X12558Y78106D01*
X12556Y78084D01*
Y78075D01*
X12558Y78055D01*
X12573Y78020D01*
X12600Y77993D01*
X12636Y77978D01*
X12655Y77976D01*
X12676Y77978D01*
X12716Y77995D01*
X12746Y78025D01*
X12763Y78065D01*
X12763Y78067D01*
Y78094D01*
X12761Y78113D01*
X12746Y78149D01*
X12719Y78176D01*
X12684Y78191D01*
X12665Y78193D01*
D02*
G37*
G36*
X11857D02*
X11838Y78191D01*
X11803Y78176D01*
X11776Y78149D01*
X11761Y78113D01*
X11759Y78094D01*
Y78086D01*
Y78084D01*
Y78075D01*
X11761Y78055D01*
X11776Y78020D01*
X11803Y77993D01*
X11838Y77978D01*
X11857Y77976D01*
X11878Y77978D01*
X11916Y77994D01*
X11946Y78023D01*
X11962Y78062D01*
X11964Y78082D01*
Y78106D01*
X11964Y78106D01*
X11947Y78145D01*
X11918Y78174D01*
X11879Y78191D01*
X11857Y78193D01*
D02*
G37*
G36*
X12271Y78183D02*
X12261D01*
X12240Y78181D01*
X12201Y78165D01*
X12171Y78135D01*
X12155Y78096D01*
Y78082D01*
X12157Y78062D01*
X12173Y78023D01*
X12202Y77994D01*
X12240Y77978D01*
X12261Y77976D01*
X12281Y77978D01*
X12317Y77993D01*
X12344Y78021D01*
X12359Y78057D01*
X12360Y78065D01*
X12359D01*
Y78094D01*
X12358Y78112D01*
X12345Y78143D01*
X12320Y78168D01*
X12288Y78181D01*
X12271Y78183D01*
D02*
G37*
G36*
X11463Y78192D02*
X11462Y78185D01*
X11440Y78183D01*
X11401Y78167D01*
X11372Y78137D01*
X11355Y78098D01*
X11355D01*
Y78085D01*
X11357Y78063D01*
X11374Y78024D01*
X11404Y77994D01*
X11443Y77978D01*
X11464Y77976D01*
X11483Y77978D01*
X11519Y77993D01*
X11547Y78020D01*
X11562Y78056D01*
X11563Y78075D01*
X11562D01*
X11562Y78094D01*
X11560Y78113D01*
X11545Y78148D01*
X11518Y78175D01*
X11482Y78190D01*
X11463Y78192D01*
D02*
G37*
G36*
X11464Y77376D02*
X11445Y77374D01*
X11409Y77359D01*
X11382Y77332D01*
X11367Y77297D01*
X11365Y77277D01*
Y77267D01*
X11357D01*
X11357Y77266D01*
X11374Y77227D01*
X11404Y77197D01*
X11443Y77181D01*
X11464Y77179D01*
X11483Y77181D01*
X11519Y77196D01*
X11547Y77223D01*
X11562Y77259D01*
X11562Y77267D01*
X11552D01*
Y77287D01*
X11551Y77304D01*
X11537Y77336D01*
X11513Y77361D01*
X11481Y77374D01*
X11464Y77376D01*
D02*
G37*
G36*
Y76982D02*
X11445Y76980D01*
X11409Y76965D01*
X11382Y76938D01*
X11367Y76903D01*
X11365Y76884D01*
Y76874D01*
X11356D01*
Y76874D01*
X11358Y76853D01*
X11374Y76814D01*
X11404Y76784D01*
X11443Y76768D01*
X11464Y76766D01*
X11485Y76768D01*
X11524Y76784D01*
X11554Y76814D01*
X11570Y76853D01*
X11572Y76874D01*
Y76874D01*
X11552D01*
Y76893D01*
X11551Y76911D01*
X11537Y76943D01*
X11513Y76967D01*
X11481Y76980D01*
X11464Y76982D01*
D02*
G37*
G36*
X11867Y76992D02*
X11846Y76990D01*
X11807Y76974D01*
X11777Y76944D01*
X11761Y76905D01*
X11759Y76884D01*
Y76874D01*
Y76864D01*
X11761Y76845D01*
X11776Y76809D01*
X11803Y76782D01*
X11838Y76767D01*
X11857Y76766D01*
X11879Y76768D01*
X11918Y76784D01*
X11947Y76814D01*
X11964Y76853D01*
X11966Y76874D01*
Y76874D01*
X11956D01*
Y76903D01*
X11954Y76921D01*
X11941Y76953D01*
X11917Y76977D01*
X11885Y76990D01*
X11867Y76992D01*
D02*
G37*
G36*
X12665Y76982D02*
X12645Y76980D01*
X12610Y76965D01*
X12583Y76938D01*
X12568Y76903D01*
X12566Y76884D01*
Y76874D01*
X12556D01*
Y76874D01*
X12558Y76853D01*
X12575Y76814D01*
X12604Y76784D01*
X12643Y76768D01*
X12665Y76766D01*
X12684Y76767D01*
X12719Y76782D01*
X12746Y76809D01*
X12761Y76845D01*
X12763Y76864D01*
Y76874D01*
Y76884D01*
X12761Y76903D01*
X12746Y76938D01*
X12719Y76965D01*
X12684Y76980D01*
X12665Y76982D01*
D02*
G37*
G36*
X13058D02*
X13039Y76980D01*
X13004Y76965D01*
X12976Y76938D01*
X12962Y76903D01*
X12960Y76884D01*
Y76884D01*
X12961Y76865D01*
X12962Y76845D01*
X12977Y76810D01*
X13004Y76783D01*
X13040Y76768D01*
X13059Y76766D01*
X13060Y76773D01*
X13082Y76775D01*
X13121Y76791D01*
X13150Y76821D01*
X13167Y76860D01*
X13168Y76874D01*
X13157D01*
Y76884D01*
X13155Y76903D01*
X13140Y76938D01*
X13113Y76965D01*
X13077Y76980D01*
X13058Y76982D01*
D02*
G37*
G36*
X12261D02*
X12242Y76980D01*
X12206Y76965D01*
X12179Y76938D01*
X12164Y76903D01*
X12163Y76884D01*
Y76874D01*
Y76864D01*
X12164Y76847D01*
X12178Y76815D01*
X12202Y76790D01*
X12234Y76777D01*
X12251Y76775D01*
X12261D01*
X12282Y76777D01*
X12321Y76794D01*
X12351Y76823D01*
X12367Y76863D01*
X12368Y76874D01*
X12359D01*
Y76884D01*
X12358Y76903D01*
X12343Y76938D01*
X12316Y76965D01*
X12280Y76980D01*
X12261Y76982D01*
D02*
G37*
G36*
X15474Y77779D02*
X15455Y77777D01*
X15419Y77763D01*
X15392Y77736D01*
X15377Y77700D01*
X15375Y77681D01*
Y77671D01*
X15366D01*
X15367Y77660D01*
X15384Y77621D01*
X15414Y77591D01*
X15453Y77575D01*
X15474Y77573D01*
X15493Y77575D01*
X15529Y77589D01*
X15557Y77617D01*
X15572Y77653D01*
X15573Y77671D01*
X15562D01*
Y77691D01*
X15561Y77708D01*
X15547Y77740D01*
X15523Y77764D01*
X15491Y77778D01*
X15474Y77779D01*
D02*
G37*
G36*
Y77376D02*
X15455Y77374D01*
X15419Y77359D01*
X15392Y77332D01*
X15377Y77297D01*
X15375Y77277D01*
Y77267D01*
X15367D01*
X15367Y77266D01*
X15384Y77227D01*
X15414Y77197D01*
X15453Y77181D01*
X15474Y77179D01*
X15493Y77181D01*
X15529Y77196D01*
X15557Y77223D01*
X15572Y77259D01*
X15572Y77267D01*
X15562D01*
Y77287D01*
X15561Y77304D01*
X15547Y77336D01*
X15523Y77361D01*
X15491Y77374D01*
X15474Y77376D01*
D02*
G37*
G36*
X17068D02*
X17049Y77374D01*
X17014Y77359D01*
X16986Y77332D01*
X16972Y77297D01*
X16970Y77277D01*
Y77267D01*
X16962D01*
X16962Y77266D01*
X16978Y77227D01*
X17008Y77197D01*
X17047Y77181D01*
X17068Y77179D01*
X17089Y77181D01*
X17127Y77197D01*
X17157Y77226D01*
X17172Y77264D01*
X17173Y77267D01*
X17167D01*
Y77277D01*
X17165Y77297D01*
X17150Y77332D01*
X17123Y77359D01*
X17087Y77374D01*
X17068Y77376D01*
D02*
G37*
G36*
X16675D02*
X16655Y77374D01*
X16620Y77359D01*
X16593Y77332D01*
X16578Y77297D01*
X16576Y77277D01*
Y77267D01*
X16567D01*
X16568Y77258D01*
X16583Y77223D01*
X16610Y77196D01*
X16646Y77181D01*
X16665Y77179D01*
X16686Y77181D01*
X16726Y77197D01*
X16756Y77228D01*
X16773Y77268D01*
X16773Y77270D01*
Y77277D01*
X16771Y77297D01*
X16756Y77332D01*
X16729Y77359D01*
X16694Y77374D01*
X16675Y77376D01*
D02*
G37*
G36*
X15877Y77386D02*
X15856Y77384D01*
X15817Y77367D01*
X15787Y77337D01*
X15771Y77298D01*
X15769Y77277D01*
X15771Y77258D01*
X15786Y77223D01*
X15813Y77196D01*
X15848Y77181D01*
X15867Y77179D01*
X15888Y77181D01*
X15926Y77197D01*
X15956Y77226D01*
X15972Y77264D01*
X15972Y77267D01*
X15966D01*
Y77297D01*
X15964Y77314D01*
X15951Y77346D01*
X15927Y77371D01*
X15895Y77384D01*
X15877Y77386D01*
D02*
G37*
G36*
X16271Y77376D02*
X16252Y77374D01*
X16216Y77359D01*
X16189Y77332D01*
X16174Y77297D01*
X16173Y77277D01*
Y77267D01*
X16167D01*
X16167Y77264D01*
X16183Y77226D01*
X16212Y77197D01*
X16250Y77181D01*
X16271Y77179D01*
X16291Y77181D01*
X16327Y77196D01*
X16354Y77223D01*
X16369Y77260D01*
X16370Y77267D01*
X16369D01*
Y77277D01*
X16368Y77297D01*
X16353Y77332D01*
X16326Y77359D01*
X16290Y77374D01*
X16271Y77376D01*
D02*
G37*
G36*
X15473Y78192D02*
X15472Y78185D01*
X15450Y78183D01*
X15411Y78167D01*
X15382Y78137D01*
X15365Y78098D01*
X15365D01*
Y78085D01*
X15367Y78063D01*
X15384Y78024D01*
X15414Y77994D01*
X15453Y77978D01*
X15474Y77976D01*
X15493Y77978D01*
X15529Y77993D01*
X15557Y78020D01*
X15572Y78056D01*
X15573Y78075D01*
X15572D01*
X15572Y78094D01*
X15570Y78113D01*
X15555Y78148D01*
X15528Y78175D01*
X15492Y78190D01*
X15473Y78192D01*
D02*
G37*
G36*
X17068Y78193D02*
X17047Y78191D01*
X17008Y78174D01*
X16978Y78145D01*
X16962Y78106D01*
X16960Y78084D01*
X16962Y78063D01*
X16978Y78024D01*
X17008Y77994D01*
X17047Y77978D01*
X17068Y77976D01*
X17089Y77978D01*
X17127Y77994D01*
X17157Y78023D01*
X17172Y78062D01*
X17174Y78082D01*
Y78106D01*
X17174Y78106D01*
X17158Y78145D01*
X17128Y78174D01*
X17089Y78191D01*
X17068Y78193D01*
D02*
G37*
G36*
X16675D02*
X16653Y78191D01*
X16614Y78174D01*
X16585Y78145D01*
X16568Y78106D01*
X16566Y78084D01*
Y78075D01*
X16568Y78055D01*
X16583Y78020D01*
X16610Y77993D01*
X16646Y77978D01*
X16665Y77976D01*
X16686Y77978D01*
X16726Y77995D01*
X16756Y78025D01*
X16773Y78065D01*
X16773Y78067D01*
Y78094D01*
X16771Y78113D01*
X16756Y78149D01*
X16729Y78176D01*
X16694Y78191D01*
X16675Y78193D01*
D02*
G37*
G36*
X15867D02*
X15848Y78191D01*
X15813Y78176D01*
X15786Y78149D01*
X15771Y78113D01*
X15769Y78094D01*
Y78086D01*
Y78084D01*
Y78075D01*
X15771Y78055D01*
X15786Y78020D01*
X15813Y77993D01*
X15848Y77978D01*
X15867Y77976D01*
X15888Y77978D01*
X15926Y77994D01*
X15956Y78023D01*
X15972Y78062D01*
X15974Y78082D01*
Y78106D01*
X15974Y78106D01*
X15957Y78145D01*
X15928Y78174D01*
X15889Y78191D01*
X15867Y78193D01*
D02*
G37*
G36*
X16281Y78183D02*
X16271D01*
X16250Y78181D01*
X16211Y78165D01*
X16181Y78135D01*
X16165Y78096D01*
Y78082D01*
X16167Y78062D01*
X16183Y78023D01*
X16212Y77994D01*
X16250Y77978D01*
X16271Y77976D01*
X16291Y77978D01*
X16327Y77993D01*
X16354Y78021D01*
X16369Y78057D01*
X16370Y78065D01*
X16369D01*
Y78094D01*
X16368Y78112D01*
X16355Y78143D01*
X16330Y78168D01*
X16298Y78181D01*
X16281Y78183D01*
D02*
G37*
G36*
X17068Y77779D02*
X17049Y77777D01*
X17014Y77763D01*
X16986Y77736D01*
X16972Y77700D01*
X16970Y77681D01*
Y77671D01*
X16961D01*
X16962Y77660D01*
X16978Y77621D01*
X17008Y77591D01*
X17047Y77575D01*
X17068Y77573D01*
X17089Y77575D01*
X17127Y77591D01*
X17157Y77620D01*
X17172Y77658D01*
X17174Y77671D01*
X17167D01*
Y77681D01*
X17165Y77700D01*
X17150Y77736D01*
X17123Y77763D01*
X17087Y77777D01*
X17068Y77779D01*
D02*
G37*
G36*
X16675D02*
X16655Y77777D01*
X16620Y77763D01*
X16593Y77736D01*
X16578Y77700D01*
X16576Y77681D01*
Y77671D01*
X16566D01*
X16568Y77652D01*
X16583Y77616D01*
X16610Y77589D01*
X16646Y77575D01*
X16665Y77573D01*
X16686Y77575D01*
X16726Y77591D01*
X16756Y77622D01*
X16773Y77661D01*
X16774Y77671D01*
X16773D01*
Y77681D01*
X16771Y77700D01*
X16756Y77736D01*
X16729Y77763D01*
X16694Y77777D01*
X16675Y77779D01*
D02*
G37*
G36*
X15877Y77789D02*
X15856Y77787D01*
X15817Y77771D01*
X15787Y77741D01*
X15771Y77702D01*
X15769Y77681D01*
Y77671D01*
X15771Y77652D01*
X15786Y77616D01*
X15813Y77589D01*
X15848Y77575D01*
X15867Y77573D01*
X15888Y77575D01*
X15926Y77591D01*
X15956Y77620D01*
X15972Y77658D01*
X15973Y77671D01*
X15966D01*
Y77701D01*
X15964Y77718D01*
X15951Y77750D01*
X15927Y77774D01*
X15895Y77787D01*
X15877Y77789D01*
D02*
G37*
G36*
X16271Y77779D02*
X16252Y77777D01*
X16216Y77763D01*
X16189Y77736D01*
X16174Y77700D01*
X16173Y77681D01*
Y77671D01*
X16166D01*
X16167Y77658D01*
X16183Y77620D01*
X16212Y77591D01*
X16250Y77575D01*
X16271Y77573D01*
X16291Y77575D01*
X16327Y77589D01*
X16354Y77617D01*
X16369Y77653D01*
X16371Y77671D01*
X16369D01*
Y77681D01*
X16368Y77700D01*
X16353Y77736D01*
X16326Y77763D01*
X16290Y77777D01*
X16271Y77779D01*
D02*
G37*
G36*
X16675Y76982D02*
X16655Y76980D01*
X16620Y76965D01*
X16593Y76938D01*
X16578Y76903D01*
X16576Y76884D01*
Y76874D01*
X16566D01*
Y76874D01*
X16568Y76853D01*
X16585Y76814D01*
X16614Y76784D01*
X16653Y76768D01*
X16675Y76766D01*
X16694Y76767D01*
X16729Y76782D01*
X16756Y76809D01*
X16771Y76845D01*
X16773Y76864D01*
Y76874D01*
Y76884D01*
X16771Y76903D01*
X16756Y76938D01*
X16729Y76965D01*
X16694Y76980D01*
X16675Y76982D01*
D02*
G37*
G36*
X15877Y76992D02*
X15856Y76990D01*
X15817Y76974D01*
X15787Y76944D01*
X15771Y76905D01*
X15769Y76884D01*
Y76874D01*
Y76864D01*
X15771Y76845D01*
X15786Y76809D01*
X15813Y76782D01*
X15848Y76767D01*
X15867Y76766D01*
X15889Y76768D01*
X15928Y76784D01*
X15957Y76814D01*
X15974Y76853D01*
X15976Y76874D01*
Y76874D01*
X15966D01*
Y76903D01*
X15964Y76921D01*
X15951Y76953D01*
X15927Y76977D01*
X15895Y76990D01*
X15877Y76992D01*
D02*
G37*
G36*
X15474Y76982D02*
X15455Y76980D01*
X15419Y76965D01*
X15392Y76938D01*
X15377Y76903D01*
X15375Y76884D01*
Y76874D01*
X15366D01*
Y76874D01*
X15368Y76853D01*
X15384Y76814D01*
X15414Y76784D01*
X15453Y76768D01*
X15474Y76766D01*
X15495Y76768D01*
X15534Y76784D01*
X15564Y76814D01*
X15580Y76853D01*
X15582Y76874D01*
Y76874D01*
X15562D01*
Y76893D01*
X15561Y76911D01*
X15547Y76943D01*
X15523Y76967D01*
X15491Y76980D01*
X15474Y76982D01*
D02*
G37*
G36*
X17068D02*
X17049Y76980D01*
X17014Y76965D01*
X16986Y76938D01*
X16972Y76903D01*
X16970Y76884D01*
Y76884D01*
X16971Y76865D01*
X16972Y76845D01*
X16987Y76810D01*
X17014Y76783D01*
X17050Y76768D01*
X17069Y76766D01*
X17070Y76773D01*
X17092Y76775D01*
X17131Y76791D01*
X17160Y76821D01*
X17177Y76860D01*
X17178Y76874D01*
X17167D01*
Y76884D01*
X17165Y76903D01*
X17150Y76938D01*
X17123Y76965D01*
X17087Y76980D01*
X17068Y76982D01*
D02*
G37*
G36*
X16271D02*
X16252Y76980D01*
X16216Y76965D01*
X16189Y76938D01*
X16174Y76903D01*
X16173Y76884D01*
Y76874D01*
Y76864D01*
X16174Y76847D01*
X16188Y76815D01*
X16212Y76790D01*
X16244Y76777D01*
X16261Y76775D01*
X16271D01*
X16292Y76777D01*
X16331Y76794D01*
X16361Y76823D01*
X16377Y76863D01*
X16378Y76874D01*
X16369D01*
Y76884D01*
X16368Y76903D01*
X16353Y76938D01*
X16326Y76965D01*
X16290Y76980D01*
X16271Y76982D01*
D02*
G37*
G36*
X9073Y77779D02*
X9054Y77777D01*
X9019Y77763D01*
X8991Y77736D01*
X8977Y77700D01*
X8975Y77681D01*
Y77671D01*
X8966D01*
X8967Y77660D01*
X8983Y77621D01*
X9013Y77591D01*
X9052Y77575D01*
X9073Y77573D01*
X9094Y77575D01*
X9132Y77591D01*
X9162Y77620D01*
X9177Y77658D01*
X9179Y77671D01*
X9172D01*
Y77681D01*
X9170Y77700D01*
X9155Y77736D01*
X9128Y77763D01*
X9092Y77777D01*
X9073Y77779D01*
D02*
G37*
G36*
X8680D02*
X8660Y77777D01*
X8625Y77763D01*
X8598Y77736D01*
X8583Y77700D01*
X8581Y77681D01*
Y77671D01*
X8571D01*
X8573Y77652D01*
X8588Y77616D01*
X8615Y77589D01*
X8650Y77575D01*
X8670Y77573D01*
X8691Y77575D01*
X8731Y77591D01*
X8761Y77622D01*
X8778Y77661D01*
X8779Y77671D01*
X8778D01*
Y77681D01*
X8776Y77700D01*
X8761Y77736D01*
X8734Y77763D01*
X8699Y77777D01*
X8680Y77779D01*
D02*
G37*
G36*
X7882Y77789D02*
X7861Y77787D01*
X7822Y77771D01*
X7792Y77741D01*
X7776Y77702D01*
X7774Y77681D01*
Y77671D01*
X7776Y77652D01*
X7791Y77616D01*
X7818Y77589D01*
X7853Y77575D01*
X7872Y77573D01*
X7893Y77575D01*
X7931Y77591D01*
X7961Y77620D01*
X7977Y77658D01*
X7978Y77671D01*
X7971D01*
Y77701D01*
X7969Y77718D01*
X7956Y77750D01*
X7932Y77774D01*
X7900Y77787D01*
X7882Y77789D01*
D02*
G37*
G36*
X8276Y77779D02*
X8257Y77777D01*
X8221Y77763D01*
X8194Y77736D01*
X8179Y77700D01*
X8178Y77681D01*
Y77671D01*
X8171D01*
X8172Y77658D01*
X8188Y77620D01*
X8217Y77591D01*
X8255Y77575D01*
X8276Y77573D01*
X8296Y77575D01*
X8332Y77589D01*
X8359Y77617D01*
X8374Y77653D01*
X8376Y77671D01*
X8374D01*
Y77681D01*
X8373Y77700D01*
X8358Y77736D01*
X8331Y77763D01*
X8295Y77777D01*
X8276Y77779D01*
D02*
G37*
G36*
X7479D02*
X7460Y77777D01*
X7424Y77763D01*
X7397Y77736D01*
X7382Y77700D01*
X7380Y77681D01*
Y77671D01*
X7371D01*
X7372Y77660D01*
X7389Y77621D01*
X7419Y77591D01*
X7458Y77575D01*
X7479Y77573D01*
X7498Y77575D01*
X7534Y77589D01*
X7562Y77617D01*
X7576Y77653D01*
X7578Y77671D01*
X7567D01*
Y77691D01*
X7566Y77708D01*
X7552Y77740D01*
X7528Y77764D01*
X7496Y77778D01*
X7479Y77779D01*
D02*
G37*
G36*
X7478Y78192D02*
X7477Y78185D01*
X7455Y78183D01*
X7416Y78167D01*
X7387Y78137D01*
X7370Y78098D01*
X7370D01*
Y78085D01*
X7372Y78063D01*
X7389Y78024D01*
X7419Y77994D01*
X7458Y77978D01*
X7479Y77976D01*
X7498Y77978D01*
X7534Y77993D01*
X7562Y78020D01*
X7576Y78056D01*
X7578Y78075D01*
X7577D01*
X7576Y78094D01*
X7575Y78113D01*
X7560Y78148D01*
X7533Y78175D01*
X7497Y78190D01*
X7478Y78192D01*
D02*
G37*
G36*
X9073Y78193D02*
X9052Y78191D01*
X9013Y78174D01*
X8983Y78145D01*
X8967Y78106D01*
X8965Y78084D01*
X8967Y78063D01*
X8983Y78024D01*
X9013Y77994D01*
X9052Y77978D01*
X9073Y77976D01*
X9094Y77978D01*
X9132Y77994D01*
X9162Y78023D01*
X9177Y78062D01*
X9179Y78082D01*
Y78106D01*
X9179Y78106D01*
X9163Y78145D01*
X9133Y78174D01*
X9094Y78191D01*
X9073Y78193D01*
D02*
G37*
G36*
X8680D02*
X8658Y78191D01*
X8619Y78174D01*
X8590Y78145D01*
X8573Y78106D01*
X8571Y78084D01*
Y78075D01*
X8573Y78055D01*
X8588Y78020D01*
X8615Y77993D01*
X8650Y77978D01*
X8670Y77976D01*
X8691Y77978D01*
X8731Y77995D01*
X8761Y78025D01*
X8778Y78065D01*
X8778Y78067D01*
Y78094D01*
X8776Y78113D01*
X8761Y78149D01*
X8734Y78176D01*
X8699Y78191D01*
X8680Y78193D01*
D02*
G37*
G36*
X7872D02*
X7853Y78191D01*
X7818Y78176D01*
X7791Y78149D01*
X7776Y78113D01*
X7774Y78094D01*
Y78086D01*
Y78084D01*
Y78075D01*
X7776Y78055D01*
X7791Y78020D01*
X7818Y77993D01*
X7853Y77978D01*
X7872Y77976D01*
X7893Y77978D01*
X7931Y77994D01*
X7961Y78023D01*
X7977Y78062D01*
X7979Y78082D01*
Y78106D01*
X7979Y78106D01*
X7962Y78145D01*
X7933Y78174D01*
X7894Y78191D01*
X7872Y78193D01*
D02*
G37*
G36*
X8286Y78183D02*
X8276D01*
X8255Y78181D01*
X8216Y78165D01*
X8186Y78135D01*
X8170Y78096D01*
Y78082D01*
X8172Y78062D01*
X8188Y78023D01*
X8217Y77994D01*
X8255Y77978D01*
X8276Y77976D01*
X8296Y77978D01*
X8332Y77993D01*
X8359Y78021D01*
X8374Y78057D01*
X8375Y78065D01*
X8374D01*
Y78094D01*
X8373Y78112D01*
X8359Y78143D01*
X8335Y78168D01*
X8303Y78181D01*
X8286Y78183D01*
D02*
G37*
G36*
X8680Y76982D02*
X8660Y76980D01*
X8625Y76965D01*
X8598Y76938D01*
X8583Y76903D01*
X8581Y76884D01*
Y76874D01*
X8571D01*
Y76874D01*
X8573Y76853D01*
X8590Y76814D01*
X8619Y76784D01*
X8658Y76768D01*
X8680Y76766D01*
X8699Y76767D01*
X8734Y76782D01*
X8761Y76809D01*
X8776Y76845D01*
X8778Y76864D01*
Y76874D01*
Y76884D01*
X8776Y76903D01*
X8761Y76938D01*
X8734Y76965D01*
X8699Y76980D01*
X8680Y76982D01*
D02*
G37*
G36*
X7479D02*
X7460Y76980D01*
X7424Y76965D01*
X7397Y76938D01*
X7382Y76903D01*
X7380Y76884D01*
Y76874D01*
X7370D01*
Y76874D01*
X7373Y76853D01*
X7389Y76814D01*
X7419Y76784D01*
X7458Y76768D01*
X7479Y76766D01*
X7500Y76768D01*
X7539Y76784D01*
X7569Y76814D01*
X7585Y76853D01*
X7587Y76874D01*
Y76874D01*
X7567D01*
Y76893D01*
X7566Y76911D01*
X7552Y76943D01*
X7528Y76967D01*
X7496Y76980D01*
X7479Y76982D01*
D02*
G37*
G36*
X7882Y76992D02*
X7861Y76990D01*
X7822Y76974D01*
X7792Y76944D01*
X7776Y76905D01*
X7774Y76884D01*
Y76874D01*
Y76864D01*
X7776Y76845D01*
X7791Y76809D01*
X7818Y76782D01*
X7853Y76767D01*
X7872Y76766D01*
X7894Y76768D01*
X7933Y76784D01*
X7962Y76814D01*
X7979Y76853D01*
X7981Y76874D01*
Y76874D01*
X7971D01*
Y76903D01*
X7969Y76921D01*
X7956Y76953D01*
X7932Y76977D01*
X7900Y76990D01*
X7882Y76992D01*
D02*
G37*
G36*
X9073Y76982D02*
X9054Y76980D01*
X9019Y76965D01*
X8991Y76938D01*
X8977Y76903D01*
X8975Y76884D01*
Y76884D01*
X8975Y76865D01*
X8977Y76845D01*
X8992Y76810D01*
X9019Y76783D01*
X9055Y76768D01*
X9074Y76766D01*
X9075Y76773D01*
X9097Y76775D01*
X9136Y76791D01*
X9165Y76821D01*
X9182Y76860D01*
X9183Y76874D01*
X9172D01*
Y76884D01*
X9170Y76903D01*
X9155Y76938D01*
X9128Y76965D01*
X9092Y76980D01*
X9073Y76982D01*
D02*
G37*
G36*
X8680Y77376D02*
X8660Y77374D01*
X8625Y77359D01*
X8598Y77332D01*
X8583Y77297D01*
X8581Y77277D01*
Y77267D01*
X8572D01*
X8573Y77258D01*
X8588Y77223D01*
X8615Y77196D01*
X8650Y77181D01*
X8670Y77179D01*
X8691Y77181D01*
X8731Y77197D01*
X8761Y77228D01*
X8778Y77268D01*
X8778Y77270D01*
Y77277D01*
X8776Y77297D01*
X8761Y77332D01*
X8734Y77359D01*
X8699Y77374D01*
X8680Y77376D01*
D02*
G37*
G36*
X9073D02*
X9054Y77374D01*
X9019Y77359D01*
X8991Y77332D01*
X8977Y77297D01*
X8975Y77277D01*
Y77267D01*
X8967D01*
X8967Y77266D01*
X8983Y77227D01*
X9013Y77197D01*
X9052Y77181D01*
X9073Y77179D01*
X9094Y77181D01*
X9132Y77197D01*
X9162Y77226D01*
X9177Y77264D01*
X9178Y77267D01*
X9172D01*
Y77277D01*
X9170Y77297D01*
X9155Y77332D01*
X9128Y77359D01*
X9092Y77374D01*
X9073Y77376D01*
D02*
G37*
G36*
X8276D02*
X8257Y77374D01*
X8221Y77359D01*
X8194Y77332D01*
X8179Y77297D01*
X8178Y77277D01*
Y77267D01*
X8172D01*
X8172Y77264D01*
X8188Y77226D01*
X8217Y77197D01*
X8255Y77181D01*
X8276Y77179D01*
X8296Y77181D01*
X8332Y77196D01*
X8359Y77223D01*
X8374Y77260D01*
X8375Y77267D01*
X8374D01*
Y77277D01*
X8373Y77297D01*
X8358Y77332D01*
X8331Y77359D01*
X8295Y77374D01*
X8276Y77376D01*
D02*
G37*
G36*
X7479D02*
X7460Y77374D01*
X7424Y77359D01*
X7397Y77332D01*
X7382Y77297D01*
X7380Y77277D01*
Y77267D01*
X7372D01*
X7372Y77266D01*
X7389Y77227D01*
X7419Y77197D01*
X7458Y77181D01*
X7479Y77179D01*
X7498Y77181D01*
X7534Y77196D01*
X7562Y77223D01*
X7576Y77259D01*
X7577Y77267D01*
X7567D01*
Y77287D01*
X7566Y77304D01*
X7552Y77336D01*
X7528Y77361D01*
X7496Y77374D01*
X7479Y77376D01*
D02*
G37*
G36*
X7882Y77386D02*
X7861Y77384D01*
X7822Y77367D01*
X7792Y77337D01*
X7776Y77298D01*
X7774Y77277D01*
X7776Y77258D01*
X7791Y77223D01*
X7818Y77196D01*
X7853Y77181D01*
X7872Y77179D01*
X7893Y77181D01*
X7931Y77197D01*
X7961Y77226D01*
X7977Y77264D01*
X7977Y77267D01*
X7971D01*
Y77297D01*
X7969Y77314D01*
X7956Y77346D01*
X7932Y77371D01*
X7900Y77384D01*
X7882Y77386D01*
D02*
G37*
G36*
X8276Y76982D02*
X8257Y76980D01*
X8221Y76965D01*
X8194Y76938D01*
X8179Y76903D01*
X8178Y76884D01*
Y76874D01*
Y76864D01*
X8179Y76847D01*
X8192Y76815D01*
X8217Y76790D01*
X8249Y76777D01*
X8266Y76775D01*
X8276D01*
X8297Y76777D01*
X8336Y76794D01*
X8366Y76823D01*
X8382Y76863D01*
X8383Y76874D01*
X8374D01*
Y76884D01*
X8373Y76903D01*
X8358Y76938D01*
X8331Y76965D01*
X8295Y76980D01*
X8276Y76982D01*
D02*
G37*
G36*
X6835Y53186D02*
X6835Y53186D01*
X6816Y53184D01*
X6779Y53169D01*
X6751Y53140D01*
X6737Y53103D01*
X6736Y53084D01*
X6737Y53065D01*
X6751Y53028D01*
X6779Y53000D01*
X6816Y52984D01*
X6835Y52982D01*
X6855Y52984D01*
X6892Y53000D01*
X6919Y53028D01*
X6934Y53065D01*
X6935Y53084D01*
X6934Y53103D01*
X6919Y53140D01*
X6892Y53169D01*
X6855Y53184D01*
X6835Y53186D01*
D02*
G37*
G36*
X5970Y53186D02*
X5950Y53184D01*
X5914Y53169D01*
X5885Y53140D01*
X5870Y53104D01*
X5868Y53087D01*
X5870Y53069D01*
X5884Y53032D01*
X5912Y53003D01*
X5948Y52987D01*
X5968Y52985D01*
Y52985D01*
X5988Y52987D01*
X6024Y53003D01*
X6051Y53032D01*
X6064Y53069D01*
X6065Y53089D01*
X6073D01*
X6071Y53104D01*
X6056Y53141D01*
X6028Y53169D01*
X5991Y53184D01*
X5970Y53186D01*
D02*
G37*
G36*
X6403Y52750D02*
X6403Y52750D01*
X6384Y52749D01*
X6348Y52733D01*
X6321Y52706D01*
X6307Y52670D01*
X6305Y52650D01*
X6301D01*
X6302Y52635D01*
X6318Y52597D01*
X6347Y52568D01*
X6385Y52553D01*
X6405Y52552D01*
X6425Y52554D01*
X6460Y52569D01*
X6487Y52596D01*
X6501Y52632D01*
X6503Y52651D01*
X6501Y52670D01*
X6486Y52706D01*
X6459Y52734D01*
X6423Y52749D01*
X6403Y52750D01*
D02*
G37*
G36*
X7703Y52750D02*
X7684Y52748D01*
X7648Y52733D01*
X7621Y52706D01*
X7607Y52670D01*
X7605Y52650D01*
X7598D01*
X7600Y52632D01*
X7615Y52594D01*
X7643Y52566D01*
X7680Y52551D01*
X7700Y52549D01*
X7700Y52549D01*
X7721Y52551D01*
X7759Y52567D01*
X7787Y52597D01*
X7802Y52635D01*
X7803Y52655D01*
X7798Y52655D01*
X7798Y52655D01*
X7796Y52674D01*
X7782Y52708D01*
X7756Y52734D01*
X7721Y52749D01*
X7703Y52750D01*
D02*
G37*
G36*
Y53184D02*
X7684Y53181D01*
X7648Y53166D01*
X7621Y53139D01*
X7607Y53103D01*
X7605Y53084D01*
X7598D01*
X7600Y53065D01*
X7615Y53027D01*
X7643Y52999D01*
X7680Y52984D01*
X7700Y52982D01*
X7700Y52982D01*
X7721Y52984D01*
X7759Y53000D01*
X7787Y53030D01*
X7802Y53068D01*
X7803Y53088D01*
X7798Y53089D01*
X7798Y53089D01*
X7796Y53107D01*
X7782Y53141D01*
X7756Y53168D01*
X7721Y53182D01*
X7703Y53184D01*
D02*
G37*
G36*
X7265Y53184D02*
X7265Y53184D01*
X7246Y53182D01*
X7211Y53167D01*
X7184Y53139D01*
X7169Y53103D01*
X7168Y53084D01*
X7170Y53065D01*
X7184Y53029D01*
X7212Y53001D01*
X7248Y52986D01*
X7268Y52985D01*
X7268Y52985D01*
X7287Y52987D01*
X7323Y53002D01*
X7350Y53029D01*
X7364Y53065D01*
X7365Y53085D01*
X7370D01*
X7368Y53103D01*
X7352Y53140D01*
X7323Y53168D01*
X7286Y53182D01*
X7265Y53184D01*
D02*
G37*
G36*
X6403Y53184D02*
X6403Y53184D01*
X6384Y53182D01*
X6348Y53167D01*
X6321Y53139D01*
X6307Y53103D01*
X6305Y53084D01*
X6301D01*
X6302Y53068D01*
X6318Y53030D01*
X6347Y53001D01*
X6385Y52986D01*
X6405Y52985D01*
X6425Y52987D01*
X6460Y53002D01*
X6487Y53029D01*
X6501Y53065D01*
X6503Y53084D01*
X6501Y53103D01*
X6486Y53139D01*
X6459Y53167D01*
X6423Y53182D01*
X6403Y53184D01*
D02*
G37*
G36*
X7265Y52317D02*
X7265Y52317D01*
X7246Y52315D01*
X7211Y52300D01*
X7184Y52273D01*
X7169Y52237D01*
X7168Y52218D01*
X7170Y52199D01*
X7184Y52163D01*
X7212Y52135D01*
X7248Y52120D01*
X7268Y52119D01*
X7268Y52119D01*
X7287Y52120D01*
X7323Y52135D01*
X7350Y52163D01*
X7364Y52199D01*
X7365Y52219D01*
X7370D01*
X7368Y52237D01*
X7352Y52274D01*
X7323Y52302D01*
X7286Y52316D01*
X7265Y52317D01*
D02*
G37*
G36*
X6403Y52317D02*
X6403Y52317D01*
X6384Y52315D01*
X6348Y52300D01*
X6321Y52273D01*
X6307Y52237D01*
X6305Y52217D01*
X6301D01*
X6302Y52202D01*
X6318Y52164D01*
X6347Y52135D01*
X6385Y52120D01*
X6405Y52119D01*
X6425Y52120D01*
X6460Y52135D01*
X6487Y52163D01*
X6501Y52199D01*
X6503Y52218D01*
X6501Y52237D01*
X6486Y52273D01*
X6459Y52301D01*
X6423Y52316D01*
X6403Y52317D01*
D02*
G37*
G36*
X7703Y52317D02*
X7684Y52315D01*
X7648Y52300D01*
X7621Y52272D01*
X7607Y52237D01*
X7605Y52217D01*
X7598D01*
X7600Y52198D01*
X7615Y52161D01*
X7643Y52133D01*
X7680Y52118D01*
X7700Y52116D01*
X7700Y52116D01*
X7721Y52118D01*
X7759Y52134D01*
X7787Y52164D01*
X7802Y52202D01*
X7803Y52222D01*
X7798Y52222D01*
X7798Y52222D01*
X7796Y52241D01*
X7782Y52275D01*
X7756Y52301D01*
X7721Y52316D01*
X7703Y52317D01*
D02*
G37*
G36*
X6835Y52320D02*
X6835Y52320D01*
X6816Y52318D01*
X6779Y52302D01*
X6751Y52274D01*
X6737Y52237D01*
X6736Y52218D01*
X6737Y52199D01*
X6751Y52162D01*
X6779Y52133D01*
X6816Y52118D01*
X6835Y52116D01*
X6855Y52118D01*
X6892Y52133D01*
X6919Y52162D01*
X6934Y52199D01*
X6935Y52218D01*
X6934Y52237D01*
X6919Y52274D01*
X6892Y52302D01*
X6855Y52318D01*
X6835Y52320D01*
D02*
G37*
G36*
X5970Y52320D02*
X5950Y52318D01*
X5914Y52303D01*
X5885Y52274D01*
X5870Y52237D01*
X5868Y52218D01*
X5870Y52199D01*
X5885Y52163D01*
X5912Y52135D01*
X5948Y52120D01*
X5968Y52119D01*
X5988Y52121D01*
X6024Y52137D01*
X6051Y52165D01*
X6064Y52203D01*
X6065Y52222D01*
X6073D01*
X6071Y52237D01*
X6056Y52275D01*
X6028Y52303D01*
X5991Y52318D01*
X5970Y52320D01*
D02*
G37*
G36*
Y52753D02*
X5950Y52751D01*
X5914Y52736D01*
X5885Y52707D01*
X5870Y52670D01*
X5868Y52651D01*
X5870Y52632D01*
X5885Y52596D01*
X5912Y52568D01*
X5948Y52554D01*
X5968Y52552D01*
X5988Y52554D01*
X6024Y52570D01*
X6051Y52599D01*
X6064Y52636D01*
X6065Y52655D01*
X6073D01*
X6071Y52671D01*
X6056Y52708D01*
X6028Y52736D01*
X5991Y52751D01*
X5970Y52753D01*
D02*
G37*
G36*
X7265Y52750D02*
X7265Y52750D01*
X7246Y52749D01*
X7211Y52733D01*
X7184Y52706D01*
X7169Y52670D01*
X7168Y52651D01*
X7170Y52632D01*
X7184Y52596D01*
X7212Y52568D01*
X7248Y52553D01*
X7268Y52552D01*
X7268Y52552D01*
X7287Y52554D01*
X7323Y52569D01*
X7350Y52596D01*
X7364Y52632D01*
X7365Y52652D01*
X7370D01*
X7368Y52670D01*
X7352Y52707D01*
X7323Y52735D01*
X7286Y52749D01*
X7265Y52750D01*
D02*
G37*
G36*
X6835Y52753D02*
X6835Y52753D01*
X6816Y52751D01*
X6779Y52736D01*
X6751Y52707D01*
X6737Y52670D01*
X6736Y52651D01*
X6737Y52632D01*
X6751Y52595D01*
X6779Y52566D01*
X6816Y52551D01*
X6835Y52549D01*
X6855Y52551D01*
X6892Y52566D01*
X6919Y52595D01*
X6934Y52632D01*
X6935Y52651D01*
X6934Y52670D01*
X6919Y52707D01*
X6892Y52736D01*
X6855Y52751D01*
X6835Y52753D01*
D02*
G37*
G36*
X34874Y81404D02*
X34855Y81402D01*
X34819Y81387D01*
X34792Y81360D01*
X34778Y81324D01*
X34776Y81305D01*
D01*
X34778Y81286D01*
X34792Y81251D01*
X34819Y81223D01*
X34855Y81209D01*
X34874Y81207D01*
X34893Y81209D01*
X34929Y81223D01*
X34956Y81251D01*
X34971Y81286D01*
X34973Y81305D01*
D01*
X34971Y81324D01*
X34956Y81360D01*
X34929Y81387D01*
X34893Y81402D01*
X34874Y81404D01*
D02*
G37*
G36*
X13804Y53186D02*
X13804Y53186D01*
X13784Y53184D01*
X13748Y53169D01*
X13720Y53140D01*
X13706Y53103D01*
X13704Y53084D01*
X13706Y53065D01*
X13720Y53028D01*
X13748Y53000D01*
X13784Y52984D01*
X13804Y52982D01*
X13824Y52984D01*
X13860Y53000D01*
X13888Y53028D01*
X13903Y53065D01*
X13904Y53084D01*
X13903Y53103D01*
X13888Y53140D01*
X13860Y53169D01*
X13824Y53184D01*
X13804Y53186D01*
D02*
G37*
G36*
X12939Y53186D02*
X12919Y53184D01*
X12882Y53169D01*
X12854Y53140D01*
X12839Y53104D01*
X12837Y53087D01*
X12838Y53069D01*
X12853Y53032D01*
X12880Y53003D01*
X12917Y52987D01*
X12937Y52985D01*
Y52985D01*
X12956Y52987D01*
X12992Y53003D01*
X13019Y53032D01*
X13033Y53069D01*
X13034Y53089D01*
X13041D01*
X13040Y53104D01*
X13025Y53141D01*
X12996Y53169D01*
X12959Y53184D01*
X12939Y53186D01*
D02*
G37*
G36*
X13372Y52750D02*
X13372Y52750D01*
X13352Y52749D01*
X13317Y52733D01*
X13290Y52706D01*
X13276Y52670D01*
X13274Y52650D01*
X13269D01*
X13271Y52635D01*
X13286Y52597D01*
X13315Y52568D01*
X13354Y52553D01*
X13374Y52552D01*
X13393Y52554D01*
X13429Y52569D01*
X13456Y52596D01*
X13470Y52632D01*
X13471Y52651D01*
X13470Y52670D01*
X13455Y52706D01*
X13427Y52734D01*
X13391Y52749D01*
X13372Y52750D01*
D02*
G37*
G36*
X14672Y52750D02*
X14652Y52748D01*
X14617Y52733D01*
X14590Y52706D01*
X14576Y52670D01*
X14574Y52650D01*
X14567D01*
X14568Y52632D01*
X14583Y52594D01*
X14612Y52566D01*
X14649Y52551D01*
X14669Y52549D01*
X14669Y52549D01*
X14690Y52551D01*
X14727Y52567D01*
X14756Y52597D01*
X14770Y52635D01*
X14771Y52655D01*
X14767Y52655D01*
X14767Y52655D01*
X14765Y52674D01*
X14751Y52708D01*
X14724Y52734D01*
X14690Y52749D01*
X14672Y52750D01*
D02*
G37*
G36*
X13372Y53184D02*
X13372Y53184D01*
X13352Y53182D01*
X13317Y53167D01*
X13290Y53139D01*
X13276Y53103D01*
X13274Y53084D01*
X13269D01*
X13271Y53068D01*
X13286Y53030D01*
X13315Y53001D01*
X13354Y52986D01*
X13374Y52985D01*
X13393Y52987D01*
X13429Y53002D01*
X13456Y53029D01*
X13470Y53065D01*
X13471Y53084D01*
X13470Y53103D01*
X13455Y53139D01*
X13427Y53167D01*
X13391Y53182D01*
X13372Y53184D01*
D02*
G37*
G36*
X14672Y53184D02*
X14652Y53181D01*
X14617Y53166D01*
X14590Y53139D01*
X14576Y53103D01*
X14574Y53084D01*
X14567D01*
X14568Y53065D01*
X14583Y53027D01*
X14612Y52999D01*
X14649Y52984D01*
X14669Y52982D01*
X14669Y52982D01*
X14690Y52984D01*
X14727Y53000D01*
X14756Y53030D01*
X14770Y53068D01*
X14771Y53088D01*
X14767Y53089D01*
X14767Y53089D01*
X14765Y53107D01*
X14751Y53141D01*
X14724Y53168D01*
X14690Y53182D01*
X14672Y53184D01*
D02*
G37*
G36*
X14234Y53184D02*
X14234Y53184D01*
X14215Y53182D01*
X14179Y53167D01*
X14152Y53139D01*
X14138Y53103D01*
X14137Y53084D01*
X14138Y53065D01*
X14153Y53029D01*
X14181Y53001D01*
X14217Y52986D01*
X14237Y52985D01*
X14237Y52985D01*
X14256Y52987D01*
X14291Y53002D01*
X14318Y53029D01*
X14333Y53065D01*
X14334Y53085D01*
X14339D01*
X14337Y53103D01*
X14320Y53140D01*
X14291Y53168D01*
X14254Y53182D01*
X14234Y53184D01*
D02*
G37*
G36*
Y52317D02*
X14234Y52317D01*
X14215Y52315D01*
X14179Y52300D01*
X14152Y52273D01*
X14138Y52237D01*
X14137Y52218D01*
X14138Y52199D01*
X14153Y52163D01*
X14181Y52135D01*
X14217Y52120D01*
X14237Y52119D01*
X14237Y52119D01*
X14256Y52120D01*
X14291Y52135D01*
X14318Y52163D01*
X14333Y52199D01*
X14334Y52219D01*
X14339D01*
X14337Y52237D01*
X14320Y52274D01*
X14291Y52302D01*
X14254Y52316D01*
X14234Y52317D01*
D02*
G37*
G36*
X13372Y52317D02*
X13372Y52317D01*
X13352Y52315D01*
X13317Y52300D01*
X13290Y52273D01*
X13276Y52237D01*
X13274Y52217D01*
X13269D01*
X13271Y52202D01*
X13286Y52164D01*
X13315Y52135D01*
X13354Y52120D01*
X13374Y52119D01*
X13393Y52120D01*
X13429Y52135D01*
X13456Y52163D01*
X13470Y52199D01*
X13471Y52218D01*
X13470Y52237D01*
X13455Y52273D01*
X13427Y52301D01*
X13391Y52316D01*
X13372Y52317D01*
D02*
G37*
G36*
X14672Y52317D02*
X14652Y52315D01*
X14617Y52300D01*
X14590Y52272D01*
X14576Y52237D01*
X14574Y52217D01*
X14567D01*
X14568Y52198D01*
X14583Y52161D01*
X14612Y52133D01*
X14649Y52118D01*
X14669Y52116D01*
X14669Y52116D01*
X14690Y52118D01*
X14727Y52134D01*
X14756Y52164D01*
X14770Y52202D01*
X14771Y52222D01*
X14767Y52222D01*
X14767Y52222D01*
X14765Y52241D01*
X14751Y52275D01*
X14724Y52301D01*
X14690Y52316D01*
X14672Y52317D01*
D02*
G37*
G36*
X13804Y52320D02*
X13804Y52320D01*
X13784Y52318D01*
X13748Y52302D01*
X13720Y52274D01*
X13706Y52237D01*
X13704Y52218D01*
X13706Y52199D01*
X13720Y52162D01*
X13748Y52133D01*
X13784Y52118D01*
X13804Y52116D01*
X13824Y52118D01*
X13860Y52133D01*
X13888Y52162D01*
X13903Y52199D01*
X13904Y52218D01*
X13903Y52237D01*
X13888Y52274D01*
X13860Y52302D01*
X13824Y52318D01*
X13804Y52320D01*
D02*
G37*
G36*
X12939Y52320D02*
X12919Y52318D01*
X12882Y52303D01*
X12854Y52274D01*
X12839Y52237D01*
X12837Y52218D01*
X12838Y52199D01*
X12853Y52163D01*
X12881Y52135D01*
X12917Y52120D01*
X12937Y52119D01*
X12956Y52121D01*
X12992Y52137D01*
X13019Y52165D01*
X13033Y52203D01*
X13034Y52222D01*
X13041D01*
X13040Y52237D01*
X13025Y52275D01*
X12996Y52303D01*
X12959Y52318D01*
X12939Y52320D01*
D02*
G37*
G36*
Y52753D02*
X12919Y52751D01*
X12882Y52736D01*
X12854Y52707D01*
X12839Y52670D01*
X12837Y52651D01*
X12838Y52632D01*
X12853Y52596D01*
X12881Y52568D01*
X12917Y52554D01*
X12937Y52552D01*
X12956Y52554D01*
X12992Y52570D01*
X13019Y52599D01*
X13033Y52636D01*
X13034Y52655D01*
X13041D01*
X13040Y52671D01*
X13025Y52708D01*
X12996Y52736D01*
X12959Y52751D01*
X12939Y52753D01*
D02*
G37*
G36*
X14234Y52750D02*
X14234Y52750D01*
X14215Y52749D01*
X14179Y52733D01*
X14152Y52706D01*
X14138Y52670D01*
X14137Y52651D01*
X14138Y52632D01*
X14153Y52596D01*
X14181Y52568D01*
X14217Y52553D01*
X14237Y52552D01*
X14237Y52552D01*
X14256Y52554D01*
X14291Y52569D01*
X14318Y52596D01*
X14333Y52632D01*
X14334Y52652D01*
X14339D01*
X14337Y52670D01*
X14320Y52707D01*
X14291Y52735D01*
X14254Y52749D01*
X14234Y52750D01*
D02*
G37*
G36*
X13804Y52753D02*
X13804Y52753D01*
X13784Y52751D01*
X13748Y52736D01*
X13720Y52707D01*
X13706Y52670D01*
X13704Y52651D01*
X13706Y52632D01*
X13720Y52595D01*
X13748Y52566D01*
X13784Y52551D01*
X13804Y52549D01*
X13824Y52551D01*
X13860Y52566D01*
X13888Y52595D01*
X13903Y52632D01*
X13904Y52651D01*
X13903Y52670D01*
X13888Y52707D01*
X13860Y52736D01*
X13824Y52751D01*
X13804Y52753D01*
D02*
G37*
G36*
X27981Y53186D02*
X27981Y53186D01*
X27961Y53184D01*
X27925Y53169D01*
X27897Y53140D01*
X27883Y53103D01*
X27881Y53084D01*
X27883Y53065D01*
X27897Y53028D01*
X27925Y53000D01*
X27961Y52984D01*
X27981Y52982D01*
X28001Y52984D01*
X28038Y53000D01*
X28065Y53028D01*
X28080Y53065D01*
X28081Y53084D01*
X28080Y53103D01*
X28065Y53140D01*
X28038Y53169D01*
X28001Y53184D01*
X27981Y53186D01*
D02*
G37*
G36*
X28849Y52750D02*
X28829Y52748D01*
X28794Y52733D01*
X28767Y52706D01*
X28753Y52670D01*
X28751Y52650D01*
X28744D01*
X28745Y52632D01*
X28761Y52594D01*
X28789Y52566D01*
X28826Y52551D01*
X28846Y52549D01*
X28846Y52549D01*
X28867Y52551D01*
X28904Y52567D01*
X28933Y52597D01*
X28947Y52635D01*
X28949Y52655D01*
X28944Y52655D01*
X28944Y52655D01*
X28942Y52674D01*
X28928Y52708D01*
X28902Y52734D01*
X28867Y52749D01*
X28849Y52750D01*
D02*
G37*
G36*
X27549Y52750D02*
X27549Y52750D01*
X27529Y52749D01*
X27494Y52733D01*
X27467Y52706D01*
X27453Y52670D01*
X27451Y52650D01*
X27447D01*
X27448Y52635D01*
X27464Y52597D01*
X27493Y52568D01*
X27531Y52553D01*
X27551Y52552D01*
X27571Y52554D01*
X27606Y52569D01*
X27633Y52596D01*
X27647Y52632D01*
X27649Y52651D01*
X27647Y52670D01*
X27632Y52706D01*
X27605Y52734D01*
X27568Y52749D01*
X27549Y52750D01*
D02*
G37*
G36*
Y53184D02*
X27549Y53184D01*
X27529Y53182D01*
X27494Y53167D01*
X27467Y53139D01*
X27453Y53103D01*
X27451Y53084D01*
X27447D01*
X27448Y53068D01*
X27464Y53030D01*
X27493Y53001D01*
X27531Y52986D01*
X27551Y52985D01*
X27571Y52987D01*
X27606Y53002D01*
X27633Y53029D01*
X27647Y53065D01*
X27649Y53084D01*
X27647Y53103D01*
X27632Y53139D01*
X27605Y53167D01*
X27568Y53182D01*
X27549Y53184D01*
D02*
G37*
G36*
X28849Y53184D02*
X28829Y53181D01*
X28794Y53166D01*
X28767Y53139D01*
X28753Y53103D01*
X28751Y53084D01*
X28744D01*
X28745Y53065D01*
X28761Y53027D01*
X28789Y52999D01*
X28826Y52984D01*
X28846Y52982D01*
X28846Y52982D01*
X28867Y52984D01*
X28904Y53000D01*
X28933Y53030D01*
X28947Y53068D01*
X28949Y53088D01*
X28944Y53089D01*
X28944Y53089D01*
X28942Y53107D01*
X28928Y53141D01*
X28902Y53168D01*
X28867Y53182D01*
X28849Y53184D01*
D02*
G37*
G36*
X27116Y53186D02*
X27096Y53184D01*
X27059Y53169D01*
X27031Y53140D01*
X27016Y53104D01*
X27014Y53087D01*
X27015Y53069D01*
X27030Y53032D01*
X27057Y53003D01*
X27094Y52987D01*
X27114Y52985D01*
Y52985D01*
X27133Y52987D01*
X27170Y53003D01*
X27197Y53032D01*
X27210Y53069D01*
X27211Y53089D01*
X27218D01*
X27217Y53104D01*
X27202Y53141D01*
X27173Y53169D01*
X27136Y53184D01*
X27116Y53186D01*
D02*
G37*
G36*
X28411Y53184D02*
X28411Y53184D01*
X28392Y53182D01*
X28356Y53167D01*
X28329Y53139D01*
X28315Y53103D01*
X28314Y53084D01*
X28315Y53065D01*
X28330Y53029D01*
X28358Y53001D01*
X28394Y52986D01*
X28414Y52985D01*
X28414Y52985D01*
X28433Y52987D01*
X28469Y53002D01*
X28496Y53029D01*
X28510Y53065D01*
X28511Y53085D01*
X28516D01*
X28514Y53103D01*
X28498Y53140D01*
X28469Y53168D01*
X28431Y53182D01*
X28411Y53184D01*
D02*
G37*
G36*
Y52317D02*
X28411Y52317D01*
X28392Y52315D01*
X28356Y52300D01*
X28329Y52273D01*
X28315Y52237D01*
X28314Y52218D01*
X28315Y52199D01*
X28330Y52163D01*
X28358Y52135D01*
X28394Y52120D01*
X28414Y52119D01*
X28414Y52119D01*
X28433Y52120D01*
X28469Y52135D01*
X28496Y52163D01*
X28510Y52199D01*
X28511Y52219D01*
X28516D01*
X28514Y52237D01*
X28498Y52274D01*
X28469Y52302D01*
X28431Y52316D01*
X28411Y52317D01*
D02*
G37*
G36*
X27981Y52320D02*
X27981Y52320D01*
X27961Y52318D01*
X27925Y52302D01*
X27897Y52274D01*
X27883Y52237D01*
X27881Y52218D01*
X27883Y52199D01*
X27897Y52162D01*
X27925Y52133D01*
X27961Y52118D01*
X27981Y52116D01*
X28001Y52118D01*
X28038Y52133D01*
X28065Y52162D01*
X28080Y52199D01*
X28081Y52218D01*
X28080Y52237D01*
X28065Y52274D01*
X28038Y52302D01*
X28001Y52318D01*
X27981Y52320D01*
D02*
G37*
G36*
X27116Y52320D02*
X27096Y52318D01*
X27059Y52303D01*
X27031Y52274D01*
X27016Y52237D01*
X27014Y52218D01*
X27016Y52199D01*
X27031Y52163D01*
X27058Y52135D01*
X27094Y52120D01*
X27114Y52119D01*
X27133Y52121D01*
X27170Y52137D01*
X27197Y52165D01*
X27210Y52203D01*
X27211Y52222D01*
X27218D01*
X27217Y52237D01*
X27202Y52275D01*
X27173Y52303D01*
X27136Y52318D01*
X27116Y52320D01*
D02*
G37*
G36*
Y52753D02*
X27096Y52751D01*
X27059Y52736D01*
X27031Y52707D01*
X27016Y52670D01*
X27014Y52651D01*
X27016Y52632D01*
X27031Y52596D01*
X27058Y52568D01*
X27094Y52554D01*
X27114Y52552D01*
X27133Y52554D01*
X27170Y52570D01*
X27197Y52599D01*
X27210Y52636D01*
X27211Y52655D01*
X27218D01*
X27217Y52671D01*
X27202Y52708D01*
X27173Y52736D01*
X27136Y52751D01*
X27116Y52753D01*
D02*
G37*
G36*
X28411Y52750D02*
X28411Y52750D01*
X28392Y52749D01*
X28356Y52733D01*
X28329Y52706D01*
X28315Y52670D01*
X28314Y52651D01*
X28315Y52632D01*
X28330Y52596D01*
X28358Y52568D01*
X28394Y52553D01*
X28414Y52552D01*
X28414Y52552D01*
X28433Y52554D01*
X28469Y52569D01*
X28496Y52596D01*
X28510Y52632D01*
X28511Y52652D01*
X28516D01*
X28514Y52670D01*
X28498Y52707D01*
X28469Y52735D01*
X28431Y52749D01*
X28411Y52750D01*
D02*
G37*
G36*
X28849Y52317D02*
X28829Y52315D01*
X28794Y52300D01*
X28767Y52272D01*
X28753Y52237D01*
X28751Y52217D01*
X28744D01*
X28745Y52198D01*
X28761Y52161D01*
X28789Y52133D01*
X28826Y52118D01*
X28846Y52116D01*
X28846Y52116D01*
X28867Y52118D01*
X28904Y52134D01*
X28933Y52164D01*
X28947Y52202D01*
X28949Y52222D01*
X28944Y52222D01*
X28944Y52222D01*
X28942Y52241D01*
X28928Y52275D01*
X28902Y52301D01*
X28867Y52316D01*
X28849Y52317D01*
D02*
G37*
G36*
X27549Y52317D02*
X27549Y52317D01*
X27529Y52315D01*
X27494Y52300D01*
X27467Y52273D01*
X27453Y52237D01*
X27451Y52217D01*
X27447D01*
X27448Y52202D01*
X27464Y52164D01*
X27493Y52135D01*
X27531Y52120D01*
X27551Y52119D01*
X27571Y52120D01*
X27606Y52135D01*
X27633Y52163D01*
X27647Y52199D01*
X27649Y52218D01*
X27647Y52237D01*
X27632Y52273D01*
X27605Y52301D01*
X27568Y52316D01*
X27549Y52317D01*
D02*
G37*
G36*
X27981Y52753D02*
X27981Y52753D01*
X27961Y52751D01*
X27925Y52736D01*
X27897Y52707D01*
X27883Y52670D01*
X27881Y52651D01*
X27883Y52632D01*
X27897Y52595D01*
X27925Y52566D01*
X27961Y52551D01*
X27981Y52549D01*
X28001Y52551D01*
X28038Y52566D01*
X28065Y52595D01*
X28080Y52632D01*
X28081Y52651D01*
X28080Y52670D01*
X28065Y52707D01*
X28038Y52736D01*
X28001Y52751D01*
X27981Y52753D01*
D02*
G37*
G36*
X20895Y53186D02*
X20895Y53186D01*
X20875Y53184D01*
X20839Y53169D01*
X20811Y53140D01*
X20797Y53103D01*
X20795Y53084D01*
X20797Y53065D01*
X20811Y53028D01*
X20839Y53000D01*
X20875Y52984D01*
X20895Y52982D01*
X20915Y52984D01*
X20952Y53000D01*
X20979Y53028D01*
X20994Y53065D01*
X20995Y53084D01*
X20994Y53103D01*
X20979Y53140D01*
X20952Y53169D01*
X20915Y53184D01*
X20895Y53186D01*
D02*
G37*
G36*
X20463Y52750D02*
X20463Y52750D01*
X20443Y52749D01*
X20408Y52733D01*
X20381Y52706D01*
X20367Y52670D01*
X20365Y52650D01*
X20361D01*
X20362Y52635D01*
X20378Y52597D01*
X20407Y52568D01*
X20445Y52553D01*
X20465Y52552D01*
X20485Y52554D01*
X20520Y52569D01*
X20547Y52596D01*
X20561Y52632D01*
X20563Y52651D01*
X20561Y52670D01*
X20546Y52706D01*
X20519Y52734D01*
X20482Y52749D01*
X20463Y52750D01*
D02*
G37*
G36*
X21763Y52750D02*
X21743Y52748D01*
X21708Y52733D01*
X21681Y52706D01*
X21667Y52670D01*
X21665Y52650D01*
X21658D01*
X21660Y52632D01*
X21675Y52594D01*
X21703Y52566D01*
X21740Y52551D01*
X21760Y52549D01*
X21760Y52549D01*
X21781Y52551D01*
X21818Y52567D01*
X21847Y52597D01*
X21861Y52635D01*
X21863Y52655D01*
X21858Y52655D01*
X21858Y52655D01*
X21856Y52674D01*
X21842Y52708D01*
X21816Y52734D01*
X21781Y52749D01*
X21763Y52750D01*
D02*
G37*
G36*
X20030Y53186D02*
X20010Y53184D01*
X19973Y53169D01*
X19945Y53140D01*
X19930Y53104D01*
X19928Y53087D01*
X19929Y53069D01*
X19944Y53032D01*
X19971Y53003D01*
X20008Y52987D01*
X20028Y52985D01*
Y52985D01*
X20047Y52987D01*
X20084Y53003D01*
X20111Y53032D01*
X20124Y53069D01*
X20125Y53089D01*
X20132D01*
X20131Y53104D01*
X20116Y53141D01*
X20087Y53169D01*
X20050Y53184D01*
X20030Y53186D01*
D02*
G37*
G36*
X20463Y53184D02*
X20463Y53184D01*
X20443Y53182D01*
X20408Y53167D01*
X20381Y53139D01*
X20367Y53103D01*
X20365Y53084D01*
X20361D01*
X20362Y53068D01*
X20378Y53030D01*
X20407Y53001D01*
X20445Y52986D01*
X20465Y52985D01*
X20485Y52987D01*
X20520Y53002D01*
X20547Y53029D01*
X20561Y53065D01*
X20563Y53084D01*
X20561Y53103D01*
X20546Y53139D01*
X20519Y53167D01*
X20482Y53182D01*
X20463Y53184D01*
D02*
G37*
G36*
X21763Y53184D02*
X21743Y53181D01*
X21708Y53166D01*
X21681Y53139D01*
X21667Y53103D01*
X21665Y53084D01*
X21658D01*
X21660Y53065D01*
X21675Y53027D01*
X21703Y52999D01*
X21740Y52984D01*
X21760Y52982D01*
X21760Y52982D01*
X21781Y52984D01*
X21818Y53000D01*
X21847Y53030D01*
X21861Y53068D01*
X21863Y53088D01*
X21858Y53089D01*
X21858Y53089D01*
X21856Y53107D01*
X21842Y53141D01*
X21816Y53168D01*
X21781Y53182D01*
X21763Y53184D01*
D02*
G37*
G36*
X21325Y53184D02*
X21325Y53184D01*
X21306Y53182D01*
X21270Y53167D01*
X21243Y53139D01*
X21229Y53103D01*
X21228Y53084D01*
X21229Y53065D01*
X21244Y53029D01*
X21272Y53001D01*
X21308Y52986D01*
X21328Y52985D01*
X21328Y52985D01*
X21347Y52987D01*
X21383Y53002D01*
X21410Y53029D01*
X21424Y53065D01*
X21425Y53085D01*
X21430D01*
X21428Y53103D01*
X21412Y53140D01*
X21383Y53168D01*
X21345Y53182D01*
X21325Y53184D01*
D02*
G37*
G36*
Y52317D02*
X21325Y52317D01*
X21306Y52315D01*
X21270Y52300D01*
X21243Y52273D01*
X21229Y52237D01*
X21228Y52218D01*
X21229Y52199D01*
X21244Y52163D01*
X21272Y52135D01*
X21308Y52120D01*
X21328Y52119D01*
X21328Y52119D01*
X21347Y52120D01*
X21383Y52135D01*
X21410Y52163D01*
X21424Y52199D01*
X21425Y52219D01*
X21430D01*
X21428Y52237D01*
X21412Y52274D01*
X21383Y52302D01*
X21345Y52316D01*
X21325Y52317D01*
D02*
G37*
G36*
X20895Y52320D02*
X20895Y52320D01*
X20875Y52318D01*
X20839Y52302D01*
X20811Y52274D01*
X20797Y52237D01*
X20795Y52218D01*
X20797Y52199D01*
X20811Y52162D01*
X20839Y52133D01*
X20875Y52118D01*
X20895Y52116D01*
X20915Y52118D01*
X20952Y52133D01*
X20979Y52162D01*
X20994Y52199D01*
X20995Y52218D01*
X20994Y52237D01*
X20979Y52274D01*
X20952Y52302D01*
X20915Y52318D01*
X20895Y52320D01*
D02*
G37*
G36*
X20030Y52320D02*
X20010Y52318D01*
X19973Y52303D01*
X19945Y52274D01*
X19930Y52237D01*
X19928Y52218D01*
X19930Y52199D01*
X19945Y52163D01*
X19972Y52135D01*
X20008Y52120D01*
X20028Y52119D01*
X20047Y52121D01*
X20084Y52137D01*
X20111Y52165D01*
X20124Y52203D01*
X20125Y52222D01*
X20132D01*
X20131Y52237D01*
X20116Y52275D01*
X20087Y52303D01*
X20050Y52318D01*
X20030Y52320D01*
D02*
G37*
G36*
X20463Y52317D02*
X20463Y52317D01*
X20443Y52315D01*
X20408Y52300D01*
X20381Y52273D01*
X20367Y52237D01*
X20365Y52217D01*
X20361D01*
X20362Y52202D01*
X20378Y52164D01*
X20407Y52135D01*
X20445Y52120D01*
X20465Y52119D01*
X20485Y52120D01*
X20520Y52135D01*
X20547Y52163D01*
X20561Y52199D01*
X20563Y52218D01*
X20561Y52237D01*
X20546Y52273D01*
X20519Y52301D01*
X20482Y52316D01*
X20463Y52317D01*
D02*
G37*
G36*
X20030Y52753D02*
X20010Y52751D01*
X19973Y52736D01*
X19945Y52707D01*
X19930Y52670D01*
X19928Y52651D01*
X19930Y52632D01*
X19945Y52596D01*
X19972Y52568D01*
X20008Y52554D01*
X20028Y52552D01*
X20047Y52554D01*
X20084Y52570D01*
X20111Y52599D01*
X20124Y52636D01*
X20125Y52655D01*
X20132D01*
X20131Y52671D01*
X20116Y52708D01*
X20087Y52736D01*
X20050Y52751D01*
X20030Y52753D01*
D02*
G37*
G36*
X21325Y52750D02*
X21325Y52750D01*
X21306Y52749D01*
X21270Y52733D01*
X21243Y52706D01*
X21229Y52670D01*
X21228Y52651D01*
X21229Y52632D01*
X21244Y52596D01*
X21272Y52568D01*
X21308Y52553D01*
X21328Y52552D01*
X21328Y52552D01*
X21347Y52554D01*
X21383Y52569D01*
X21410Y52596D01*
X21424Y52632D01*
X21425Y52652D01*
X21430D01*
X21428Y52670D01*
X21412Y52707D01*
X21383Y52735D01*
X21345Y52749D01*
X21325Y52750D01*
D02*
G37*
G36*
X21763Y52317D02*
X21743Y52315D01*
X21708Y52300D01*
X21681Y52272D01*
X21667Y52237D01*
X21665Y52217D01*
X21658D01*
X21660Y52198D01*
X21675Y52161D01*
X21703Y52133D01*
X21740Y52118D01*
X21760Y52116D01*
X21760Y52116D01*
X21781Y52118D01*
X21818Y52134D01*
X21847Y52164D01*
X21861Y52202D01*
X21863Y52222D01*
X21858Y52222D01*
X21858Y52222D01*
X21856Y52241D01*
X21842Y52275D01*
X21816Y52301D01*
X21781Y52316D01*
X21763Y52317D01*
D02*
G37*
G36*
X20895Y52753D02*
X20895Y52753D01*
X20875Y52751D01*
X20839Y52736D01*
X20811Y52707D01*
X20797Y52670D01*
X20795Y52651D01*
X20797Y52632D01*
X20811Y52595D01*
X20839Y52566D01*
X20875Y52551D01*
X20895Y52549D01*
X20915Y52551D01*
X20952Y52566D01*
X20979Y52595D01*
X20994Y52632D01*
X20995Y52651D01*
X20994Y52670D01*
X20979Y52707D01*
X20952Y52736D01*
X20915Y52751D01*
X20895Y52753D01*
D02*
G37*
%LPD*%
D46*
X4455Y3116D02*
D03*
X3667D02*
D03*
X3116Y3667D02*
D03*
Y4455D02*
D03*
X3667Y5006D02*
D03*
X4455D02*
D03*
X5006Y4455D02*
D03*
Y3667D02*
D03*
X4455Y40616D02*
D03*
X3667D02*
D03*
X3116Y41167D02*
D03*
Y41955D02*
D03*
X3667Y42506D02*
D03*
X4455D02*
D03*
X5006Y41955D02*
D03*
Y41167D02*
D03*
X42455Y40616D02*
D03*
X41667D02*
D03*
X41116Y41167D02*
D03*
Y41955D02*
D03*
X41667Y42506D02*
D03*
X42455D02*
D03*
X43006Y41955D02*
D03*
Y41167D02*
D03*
X42455Y3116D02*
D03*
X41667D02*
D03*
X41116Y3667D02*
D03*
Y4455D02*
D03*
X41667Y5006D02*
D03*
X42455D02*
D03*
X43006Y4455D02*
D03*
Y3667D02*
D03*
X4455Y43616D02*
D03*
X3667D02*
D03*
X3116Y44167D02*
D03*
Y44955D02*
D03*
X3667Y45506D02*
D03*
X4455D02*
D03*
X5006Y44955D02*
D03*
Y44167D02*
D03*
X4455Y81116D02*
D03*
X3667D02*
D03*
X3116Y81667D02*
D03*
Y82455D02*
D03*
X3667Y83006D02*
D03*
X4455D02*
D03*
X5006Y82455D02*
D03*
Y81667D02*
D03*
X42455Y81116D02*
D03*
X41667D02*
D03*
X41116Y81667D02*
D03*
Y82455D02*
D03*
X41667Y83006D02*
D03*
X42455D02*
D03*
X43006Y82455D02*
D03*
Y81667D02*
D03*
X42455Y43616D02*
D03*
X41667D02*
D03*
X41116Y44167D02*
D03*
Y44955D02*
D03*
X41667Y45506D02*
D03*
X42455D02*
D03*
X43006Y44955D02*
D03*
Y44167D02*
D03*
D92*
X23501Y10231D02*
D03*
X37681Y10241D02*
D03*
X30631D02*
D03*
X16421D02*
D03*
X9431Y10291D02*
D03*
X34111Y15311D02*
D03*
X27711Y15251D02*
D03*
X13761Y15311D02*
D03*
X12261Y19191D02*
D03*
X35111Y15311D02*
D03*
X28711Y15251D02*
D03*
X14761D02*
D03*
X14261Y19191D02*
D03*
X34111Y14311D02*
D03*
X26911D02*
D03*
X12761D02*
D03*
X9561Y15561D02*
D03*
X33111Y14311D02*
D03*
X26046Y14481D02*
D03*
X12761Y15311D02*
D03*
X5931Y14311D02*
D03*
X32141Y14811D02*
D03*
X25181Y14481D02*
D03*
X11371Y14581D02*
D03*
X5901Y15181D02*
D03*
X35111Y14311D02*
D03*
X27911D02*
D03*
X13761D02*
D03*
X13261Y19191D02*
D03*
X20711Y14311D02*
D03*
X18711Y14601D02*
D03*
X19711Y15251D02*
D03*
Y14311D02*
D03*
X21711Y15101D02*
D03*
X20711Y15251D02*
D03*
X23501Y50731D02*
D03*
X37681Y50741D02*
D03*
X30631D02*
D03*
X16421D02*
D03*
X9431Y50791D02*
D03*
X34111Y55811D02*
D03*
X27711Y55751D02*
D03*
X13761Y55811D02*
D03*
X12261Y59691D02*
D03*
X35111Y55811D02*
D03*
X28711Y55751D02*
D03*
X14761D02*
D03*
X14261Y59691D02*
D03*
X34111Y54811D02*
D03*
X26911D02*
D03*
X12761D02*
D03*
X9561Y56061D02*
D03*
X33111Y54811D02*
D03*
X26046Y54981D02*
D03*
X12761Y55811D02*
D03*
X5931Y54811D02*
D03*
X32141Y55311D02*
D03*
X25181Y54981D02*
D03*
X11371Y55081D02*
D03*
X5901Y55681D02*
D03*
X35111Y54811D02*
D03*
X27911D02*
D03*
X13761D02*
D03*
X13261Y59691D02*
D03*
X20711Y54811D02*
D03*
X18711Y55101D02*
D03*
X19711Y55751D02*
D03*
Y54811D02*
D03*
X21711Y55601D02*
D03*
X20711Y55751D02*
D03*
X35140Y39411D02*
D03*
X35120Y38614D02*
D03*
X35140Y79911D02*
D03*
X35120Y79114D02*
D03*
D190*
X24721Y16991D02*
G03*
X24721Y16991I-610J0D01*
G01*
X6861Y33611D02*
G03*
X6861Y33611I-610J0D01*
G01*
X4651Y14251D02*
G03*
X4651Y14251I-610J0D01*
G01*
X24721Y57491D02*
G03*
X24721Y57491I-610J0D01*
G01*
X6861Y74111D02*
G03*
X6861Y74111I-610J0D01*
G01*
X4651Y54751D02*
G03*
X4651Y54751I-610J0D01*
G01*
D191*
X26872Y30366D02*
D03*
Y70866D02*
D03*
D192*
X3811Y1311D02*
D03*
X42400Y1341D02*
D03*
Y84819D02*
D03*
X3811D02*
D03*
D193*
X26882Y30366D02*
D03*
Y70866D02*
D03*
D194*
X26242Y30071D02*
D03*
Y30661D02*
D03*
X27522D02*
D03*
Y30071D02*
D03*
X26242Y70571D02*
D03*
Y71161D02*
D03*
X27522D02*
D03*
Y70571D02*
D03*
D195*
X26488Y31006D02*
D03*
X26685D02*
D03*
X26882D02*
D03*
X27079D02*
D03*
X27276D02*
D03*
Y29726D02*
D03*
X27079D02*
D03*
X26882D02*
D03*
X26685D02*
D03*
X26488D02*
D03*
Y71506D02*
D03*
X26685D02*
D03*
X26882D02*
D03*
X27079D02*
D03*
X27276D02*
D03*
Y70226D02*
D03*
X27079D02*
D03*
X26882D02*
D03*
X26685D02*
D03*
X26488D02*
D03*
D196*
X8348Y21921D02*
D03*
Y22276D02*
D03*
X7571Y21921D02*
D03*
Y22276D02*
D03*
X9224Y22856D02*
D03*
Y23211D02*
D03*
X8309Y22846D02*
D03*
Y23201D02*
D03*
X6754Y21921D02*
D03*
Y22276D02*
D03*
X6350Y21921D02*
D03*
Y22276D02*
D03*
X8348Y62421D02*
D03*
Y62776D02*
D03*
X7571Y62421D02*
D03*
Y62776D02*
D03*
X9224Y63356D02*
D03*
Y63711D02*
D03*
X8309Y63346D02*
D03*
Y63701D02*
D03*
X6754Y62421D02*
D03*
Y62776D02*
D03*
X6350Y62421D02*
D03*
Y62776D02*
D03*
D197*
X25842Y31026D02*
D03*
X25465D02*
D03*
X7838Y30741D02*
D03*
X7461D02*
D03*
X11642Y25601D02*
D03*
X12021D02*
D03*
X20720Y28931D02*
D03*
X20341D02*
D03*
X26530Y34507D02*
D03*
X26151D02*
D03*
X18606Y35191D02*
D03*
X18983D02*
D03*
X14595Y35219D02*
D03*
X14971D02*
D03*
X10579Y35209D02*
D03*
X10956D02*
D03*
X24508Y10391D02*
D03*
X24131D02*
D03*
X38688Y10011D02*
D03*
X38311D02*
D03*
X31578D02*
D03*
X31201D02*
D03*
X13553Y22748D02*
D03*
X13932D02*
D03*
X3979Y21781D02*
D03*
X3602D02*
D03*
X30812Y23081D02*
D03*
X31191D02*
D03*
X34272D02*
D03*
X34651D02*
D03*
X38242D02*
D03*
X38621D02*
D03*
X29192Y23080D02*
D03*
X29571D02*
D03*
X32622Y23081D02*
D03*
X33001D02*
D03*
X36582D02*
D03*
X36961D02*
D03*
X42176Y38428D02*
D03*
X42553D02*
D03*
X42556Y38028D02*
D03*
X42177D02*
D03*
X41491Y5841D02*
D03*
X41112D02*
D03*
X42387Y39567D02*
D03*
X42008D02*
D03*
X3201Y12621D02*
D03*
X3580D02*
D03*
X6141Y32111D02*
D03*
X5762D02*
D03*
X25541Y18041D02*
D03*
X25920D02*
D03*
X25901Y19131D02*
D03*
X25522D02*
D03*
X25531Y18731D02*
D03*
X25910D02*
D03*
X10615Y15750D02*
D03*
X10236D02*
D03*
X18125Y15366D02*
D03*
X17746D02*
D03*
X28391Y15898D02*
D03*
X28012D02*
D03*
X23263Y15061D02*
D03*
X22884D02*
D03*
X33070Y18191D02*
D03*
X33447D02*
D03*
X23028Y36561D02*
D03*
X22651D02*
D03*
X24508Y10011D02*
D03*
X24131D02*
D03*
X19755Y10331D02*
D03*
X19378D02*
D03*
X18344Y28841D02*
D03*
X18721D02*
D03*
X16274Y19321D02*
D03*
X16651D02*
D03*
X30371Y23561D02*
D03*
X29994D02*
D03*
X33821Y23551D02*
D03*
X33444D02*
D03*
X37791D02*
D03*
X37414D02*
D03*
X16278Y22561D02*
D03*
X15901D02*
D03*
X16598Y26721D02*
D03*
X16221D02*
D03*
X16268Y22161D02*
D03*
X15891D02*
D03*
X28781Y23081D02*
D03*
X28404D02*
D03*
X32171Y23561D02*
D03*
X31794D02*
D03*
X36111Y23551D02*
D03*
X35734D02*
D03*
X22808Y28881D02*
D03*
X22431D02*
D03*
X24394Y18921D02*
D03*
X24771D02*
D03*
X27499Y32315D02*
D03*
X27876D02*
D03*
X28597Y30607D02*
D03*
X28220D02*
D03*
X28597Y31037D02*
D03*
X28220D02*
D03*
X34134Y39815D02*
D03*
X33757D02*
D03*
X3881Y22651D02*
D03*
X3504D02*
D03*
X9941Y10401D02*
D03*
X10318D02*
D03*
X17051Y10411D02*
D03*
X17428D02*
D03*
X31201Y10401D02*
D03*
X31578D02*
D03*
X38311D02*
D03*
X38688D02*
D03*
X9358Y30221D02*
D03*
X8981D02*
D03*
X5695Y10331D02*
D03*
X5318D02*
D03*
X12664Y10361D02*
D03*
X12287D02*
D03*
X26841Y10331D02*
D03*
X26464D02*
D03*
X33930D02*
D03*
X33553D02*
D03*
X5360Y30961D02*
D03*
X4981D02*
D03*
X5360Y30351D02*
D03*
X4981D02*
D03*
X30371Y23081D02*
D03*
X29992D02*
D03*
X33821D02*
D03*
X33442D02*
D03*
X37791D02*
D03*
X37412D02*
D03*
X28781Y23561D02*
D03*
X28402D02*
D03*
X32171Y23081D02*
D03*
X31792D02*
D03*
X36111D02*
D03*
X35732D02*
D03*
X9941Y10801D02*
D03*
X10320D02*
D03*
X17051D02*
D03*
X17430D02*
D03*
X31201Y10791D02*
D03*
X31580D02*
D03*
X38311Y10801D02*
D03*
X38690D02*
D03*
X9941Y10011D02*
D03*
X10320D02*
D03*
X17051Y10021D02*
D03*
X17430D02*
D03*
X7910Y34621D02*
D03*
X7531D02*
D03*
X28596Y29657D02*
D03*
X28217D02*
D03*
X26530Y34087D02*
D03*
X26151D02*
D03*
X4982Y31571D02*
D03*
X5361D02*
D03*
X33373Y40895D02*
D03*
X32994D02*
D03*
X3502Y22251D02*
D03*
X3881D02*
D03*
X16121Y24381D02*
D03*
X16500D02*
D03*
X14511Y27911D02*
D03*
X14890D02*
D03*
X8971Y28731D02*
D03*
X9350D02*
D03*
X14521Y28461D02*
D03*
X14900D02*
D03*
X8971Y28291D02*
D03*
X9350D02*
D03*
X24131Y10795D02*
D03*
X24510D02*
D03*
X25842Y71526D02*
D03*
X25465D02*
D03*
X7838Y71241D02*
D03*
X7461D02*
D03*
X11642Y66101D02*
D03*
X12021D02*
D03*
X20720Y69431D02*
D03*
X20341D02*
D03*
X26530Y75007D02*
D03*
X26151D02*
D03*
X18606Y75691D02*
D03*
X18983D02*
D03*
X14595Y75718D02*
D03*
X14971D02*
D03*
X10579Y75709D02*
D03*
X10956D02*
D03*
X24508Y50891D02*
D03*
X24131D02*
D03*
X38688Y50511D02*
D03*
X38311D02*
D03*
X31578D02*
D03*
X31201D02*
D03*
X13553Y63248D02*
D03*
X13932D02*
D03*
X3979Y62281D02*
D03*
X3602D02*
D03*
X30812Y63581D02*
D03*
X31191D02*
D03*
X34272D02*
D03*
X34651D02*
D03*
X38242D02*
D03*
X38621D02*
D03*
X29192Y63580D02*
D03*
X29571D02*
D03*
X32622Y63581D02*
D03*
X33001D02*
D03*
X36582D02*
D03*
X36961D02*
D03*
X42176Y78928D02*
D03*
X42553D02*
D03*
X42556Y78528D02*
D03*
X42177D02*
D03*
X41491Y46341D02*
D03*
X41112D02*
D03*
X42387Y80067D02*
D03*
X42008D02*
D03*
X3201Y53121D02*
D03*
X3580D02*
D03*
X6141Y72611D02*
D03*
X5762D02*
D03*
X25541Y58541D02*
D03*
X25920D02*
D03*
X25901Y59631D02*
D03*
X25522D02*
D03*
X25531Y59231D02*
D03*
X25910D02*
D03*
X10615Y56250D02*
D03*
X10236D02*
D03*
X18125Y55866D02*
D03*
X17746D02*
D03*
X28391Y56398D02*
D03*
X28012D02*
D03*
X23263Y55561D02*
D03*
X22884D02*
D03*
X33070Y58691D02*
D03*
X33447D02*
D03*
X23028Y77061D02*
D03*
X22651D02*
D03*
X24508Y50511D02*
D03*
X24131D02*
D03*
X19755Y50831D02*
D03*
X19378D02*
D03*
X18344Y69341D02*
D03*
X18721D02*
D03*
X16274Y59821D02*
D03*
X16651D02*
D03*
X30371Y64061D02*
D03*
X29994D02*
D03*
X33821Y64051D02*
D03*
X33444D02*
D03*
X37791D02*
D03*
X37414D02*
D03*
X16278Y63061D02*
D03*
X15901D02*
D03*
X16598Y67221D02*
D03*
X16221D02*
D03*
X16268Y62661D02*
D03*
X15891D02*
D03*
X28781Y63581D02*
D03*
X28404D02*
D03*
X32171Y64061D02*
D03*
X31794D02*
D03*
X36111Y64051D02*
D03*
X35734D02*
D03*
X22808Y69381D02*
D03*
X22431D02*
D03*
X24394Y59421D02*
D03*
X24771D02*
D03*
X27499Y72815D02*
D03*
X27876D02*
D03*
X28597Y71107D02*
D03*
X28220D02*
D03*
X28597Y71537D02*
D03*
X28220D02*
D03*
X34134Y80315D02*
D03*
X33757D02*
D03*
X3881Y63151D02*
D03*
X3504D02*
D03*
X9941Y50901D02*
D03*
X10318D02*
D03*
X17051Y50911D02*
D03*
X17428D02*
D03*
X31201Y50901D02*
D03*
X31578D02*
D03*
X38311D02*
D03*
X38688D02*
D03*
X9358Y70721D02*
D03*
X8981D02*
D03*
X5695Y50831D02*
D03*
X5318D02*
D03*
X12664Y50861D02*
D03*
X12287D02*
D03*
X26841Y50831D02*
D03*
X26464D02*
D03*
X33930D02*
D03*
X33553D02*
D03*
X5360Y71461D02*
D03*
X4981D02*
D03*
X5360Y70851D02*
D03*
X4981D02*
D03*
X30371Y63581D02*
D03*
X29992D02*
D03*
X33821D02*
D03*
X33442D02*
D03*
X37791D02*
D03*
X37412D02*
D03*
X28781Y64061D02*
D03*
X28402D02*
D03*
X32171Y63581D02*
D03*
X31792D02*
D03*
X36111D02*
D03*
X35732D02*
D03*
X9941Y51301D02*
D03*
X10320D02*
D03*
X17051D02*
D03*
X17430D02*
D03*
X31201Y51291D02*
D03*
X31580D02*
D03*
X38311Y51301D02*
D03*
X38690D02*
D03*
X9941Y50511D02*
D03*
X10320D02*
D03*
X17051Y50521D02*
D03*
X17430D02*
D03*
X7910Y75121D02*
D03*
X7531D02*
D03*
X28596Y70157D02*
D03*
X28217D02*
D03*
X26530Y74587D02*
D03*
X26151D02*
D03*
X4982Y72071D02*
D03*
X5361D02*
D03*
X33373Y81395D02*
D03*
X32994D02*
D03*
X3502Y62751D02*
D03*
X3881D02*
D03*
X16121Y64881D02*
D03*
X16500D02*
D03*
X14511Y68411D02*
D03*
X14890D02*
D03*
X8971Y69231D02*
D03*
X9350D02*
D03*
X14521Y68961D02*
D03*
X14900D02*
D03*
X8971Y68791D02*
D03*
X9350D02*
D03*
X24131Y51295D02*
D03*
X24510D02*
D03*
D198*
X42586Y39018D02*
D03*
X41713D02*
D03*
X22981Y38941D02*
D03*
X23854D02*
D03*
X6971Y38331D02*
D03*
X7844D02*
D03*
X20431Y37941D02*
D03*
X19558D02*
D03*
X3441Y36191D02*
D03*
X4314D02*
D03*
X3348Y29181D02*
D03*
X4221D02*
D03*
X42586Y79518D02*
D03*
X41713D02*
D03*
X22981Y79441D02*
D03*
X23854D02*
D03*
X6971Y78831D02*
D03*
X7844D02*
D03*
X20431Y78441D02*
D03*
X19558D02*
D03*
X3441Y76691D02*
D03*
X4314D02*
D03*
X3348Y69681D02*
D03*
X4221D02*
D03*
D199*
X12833Y26911D02*
D03*
X13369D02*
D03*
X12833Y31971D02*
D03*
X13369D02*
D03*
X5279Y29071D02*
D03*
X4743D02*
D03*
X28633Y37401D02*
D03*
X29169D02*
D03*
X28633Y36851D02*
D03*
X29169D02*
D03*
X4345Y10101D02*
D03*
X4880D02*
D03*
X11313D02*
D03*
X11849D02*
D03*
X25490D02*
D03*
X26026D02*
D03*
X32579D02*
D03*
X33115D02*
D03*
X8613Y10251D02*
D03*
X8078D02*
D03*
X15582D02*
D03*
X15046D02*
D03*
X29759D02*
D03*
X29223D02*
D03*
X36848D02*
D03*
X36312D02*
D03*
X18403Y10091D02*
D03*
X18939D02*
D03*
X22673Y10261D02*
D03*
X22137D02*
D03*
X5809Y35231D02*
D03*
X5273D02*
D03*
X21809Y37941D02*
D03*
X21273D02*
D03*
X7703Y39031D02*
D03*
X8239D02*
D03*
X12259D02*
D03*
X11723D02*
D03*
X16269Y39031D02*
D03*
X15733D02*
D03*
X25089Y39031D02*
D03*
X24553D02*
D03*
X4153Y7031D02*
D03*
X4689D02*
D03*
X11173Y7021D02*
D03*
X11708D02*
D03*
X25300D02*
D03*
X25836D02*
D03*
X32389D02*
D03*
X32924D02*
D03*
X8995Y7031D02*
D03*
X9530D02*
D03*
X15963D02*
D03*
X16499D02*
D03*
X30140D02*
D03*
X30676D02*
D03*
X37229D02*
D03*
X37764D02*
D03*
X18750Y7021D02*
D03*
X18214D02*
D03*
X23590Y7031D02*
D03*
X23054D02*
D03*
X23691Y30406D02*
D03*
X24226D02*
D03*
X15849Y19311D02*
D03*
X15313D02*
D03*
X15089Y25711D02*
D03*
X14553D02*
D03*
X40583Y11381D02*
D03*
X41119D02*
D03*
X40583Y11921D02*
D03*
X41119D02*
D03*
X18259Y29511D02*
D03*
X17723D02*
D03*
X6693Y39031D02*
D03*
X7229D02*
D03*
X19549Y39031D02*
D03*
X19013D02*
D03*
X9249Y39031D02*
D03*
X8713D02*
D03*
X13279Y39031D02*
D03*
X12743D02*
D03*
X17279Y39031D02*
D03*
X16743D02*
D03*
X26243D02*
D03*
X26779D02*
D03*
X29869Y19605D02*
D03*
X29333D02*
D03*
X32379Y19621D02*
D03*
X31843D02*
D03*
X34839Y19581D02*
D03*
X34303D02*
D03*
X37369Y19611D02*
D03*
X36833D02*
D03*
X29869Y18855D02*
D03*
X29333D02*
D03*
X32379Y18871D02*
D03*
X31843D02*
D03*
X34839Y18831D02*
D03*
X34303D02*
D03*
X37369Y18861D02*
D03*
X36833D02*
D03*
X24259Y29061D02*
D03*
X23723D02*
D03*
X15873Y20631D02*
D03*
X16409D02*
D03*
X10559Y22771D02*
D03*
X10023D02*
D03*
X12833Y67411D02*
D03*
X13369D02*
D03*
X12833Y72471D02*
D03*
X13369D02*
D03*
X5279Y69571D02*
D03*
X4743D02*
D03*
X28633Y77901D02*
D03*
X29169D02*
D03*
X28633Y77351D02*
D03*
X29169D02*
D03*
X4345Y50601D02*
D03*
X4880D02*
D03*
X11313D02*
D03*
X11849D02*
D03*
X25490D02*
D03*
X26026D02*
D03*
X32579D02*
D03*
X33115D02*
D03*
X8613Y50751D02*
D03*
X8078D02*
D03*
X15582D02*
D03*
X15046D02*
D03*
X29759D02*
D03*
X29223D02*
D03*
X36848D02*
D03*
X36312D02*
D03*
X18403Y50591D02*
D03*
X18939D02*
D03*
X22673Y50761D02*
D03*
X22137D02*
D03*
X5809Y75731D02*
D03*
X5273D02*
D03*
X21809Y78441D02*
D03*
X21273D02*
D03*
X7703Y79531D02*
D03*
X8239D02*
D03*
X12259D02*
D03*
X11723D02*
D03*
X16269Y79531D02*
D03*
X15733D02*
D03*
X25089Y79531D02*
D03*
X24553D02*
D03*
X4153Y47531D02*
D03*
X4689D02*
D03*
X11173Y47521D02*
D03*
X11708D02*
D03*
X25300D02*
D03*
X25836D02*
D03*
X32389D02*
D03*
X32924D02*
D03*
X8995Y47531D02*
D03*
X9530D02*
D03*
X15963D02*
D03*
X16499D02*
D03*
X30140D02*
D03*
X30676D02*
D03*
X37229D02*
D03*
X37764D02*
D03*
X18750Y47521D02*
D03*
X18214D02*
D03*
X23590Y47531D02*
D03*
X23054D02*
D03*
X23691Y70906D02*
D03*
X24226D02*
D03*
X15849Y59811D02*
D03*
X15313D02*
D03*
X15089Y66211D02*
D03*
X14553D02*
D03*
X40583Y51881D02*
D03*
X41119D02*
D03*
X40583Y52421D02*
D03*
X41119D02*
D03*
X18259Y70011D02*
D03*
X17723D02*
D03*
X6693Y79531D02*
D03*
X7229D02*
D03*
X19549Y79531D02*
D03*
X19013D02*
D03*
X9249Y79531D02*
D03*
X8713D02*
D03*
X13279Y79531D02*
D03*
X12743D02*
D03*
X17279Y79531D02*
D03*
X16743D02*
D03*
X26243D02*
D03*
X26779D02*
D03*
X29869Y60105D02*
D03*
X29333D02*
D03*
X32379Y60121D02*
D03*
X31843D02*
D03*
X34839Y60081D02*
D03*
X34303D02*
D03*
X37369Y60111D02*
D03*
X36833D02*
D03*
X29869Y59355D02*
D03*
X29333D02*
D03*
X32379Y59371D02*
D03*
X31843D02*
D03*
X34839Y59331D02*
D03*
X34303D02*
D03*
X37369Y59361D02*
D03*
X36833D02*
D03*
X24259Y69561D02*
D03*
X23723D02*
D03*
X15873Y61131D02*
D03*
X16409D02*
D03*
X10559Y63271D02*
D03*
X10023D02*
D03*
D200*
X7831Y30279D02*
D03*
Y29743D02*
D03*
X15651Y23093D02*
D03*
Y23629D02*
D03*
X3604Y6348D02*
D03*
Y6884D02*
D03*
X11016Y5827D02*
D03*
Y6362D02*
D03*
X24888Y5893D02*
D03*
Y6429D02*
D03*
X31991Y5893D02*
D03*
Y6429D02*
D03*
X10416Y5893D02*
D03*
Y6429D02*
D03*
X17186Y5893D02*
D03*
Y6429D02*
D03*
X30771Y5743D02*
D03*
Y6279D02*
D03*
X38157Y5893D02*
D03*
Y6429D02*
D03*
X17802D02*
D03*
Y5893D02*
D03*
X23982Y6429D02*
D03*
Y5893D02*
D03*
X33041Y29923D02*
D03*
Y30459D02*
D03*
X32261Y29923D02*
D03*
Y30459D02*
D03*
X15651Y24093D02*
D03*
Y24629D02*
D03*
X36854Y40828D02*
D03*
Y41363D02*
D03*
X18771Y29363D02*
D03*
Y29899D02*
D03*
X39651Y19469D02*
D03*
Y18933D02*
D03*
X7831Y70779D02*
D03*
Y70243D02*
D03*
X15651Y63593D02*
D03*
Y64129D02*
D03*
X3604Y46848D02*
D03*
Y47384D02*
D03*
X11016Y46327D02*
D03*
Y46862D02*
D03*
X24888Y46393D02*
D03*
Y46929D02*
D03*
X31991Y46393D02*
D03*
Y46929D02*
D03*
X10416Y46393D02*
D03*
Y46929D02*
D03*
X17186Y46393D02*
D03*
Y46929D02*
D03*
X30771Y46243D02*
D03*
Y46779D02*
D03*
X38157Y46393D02*
D03*
Y46929D02*
D03*
X17802D02*
D03*
Y46393D02*
D03*
X23982Y46929D02*
D03*
Y46393D02*
D03*
X33041Y70423D02*
D03*
Y70959D02*
D03*
X32261Y70423D02*
D03*
Y70959D02*
D03*
X15651Y64593D02*
D03*
Y65129D02*
D03*
X36854Y81328D02*
D03*
Y81863D02*
D03*
X18771Y69863D02*
D03*
Y70399D02*
D03*
X39651Y59969D02*
D03*
Y59433D02*
D03*
D201*
X7321Y30078D02*
D03*
Y29701D02*
D03*
X20691Y29741D02*
D03*
Y30120D02*
D03*
X22811Y32141D02*
D03*
Y31762D02*
D03*
X21311Y30121D02*
D03*
Y29742D02*
D03*
X30701Y16981D02*
D03*
Y16602D02*
D03*
X18071Y18854D02*
D03*
Y19231D02*
D03*
X27000Y32346D02*
D03*
Y31967D02*
D03*
X17551Y36460D02*
D03*
Y36081D02*
D03*
X13551Y36461D02*
D03*
Y36082D02*
D03*
X9516Y36461D02*
D03*
Y36082D02*
D03*
X22701Y37380D02*
D03*
Y37001D02*
D03*
X26537Y33201D02*
D03*
Y33578D02*
D03*
X23131Y11160D02*
D03*
Y10781D02*
D03*
X37701Y11170D02*
D03*
Y10791D02*
D03*
X30621Y11170D02*
D03*
Y10791D02*
D03*
X16431Y11170D02*
D03*
Y10791D02*
D03*
X9471Y11170D02*
D03*
Y10791D02*
D03*
X16031Y11168D02*
D03*
Y10791D02*
D03*
X9071Y11168D02*
D03*
Y10791D02*
D03*
X15041Y30344D02*
D03*
Y30721D02*
D03*
X5911Y3371D02*
D03*
Y3750D02*
D03*
X4901Y39781D02*
D03*
Y39402D02*
D03*
X30278Y16983D02*
D03*
Y16604D02*
D03*
X4585Y10771D02*
D03*
Y11148D02*
D03*
X11554Y10771D02*
D03*
Y11148D02*
D03*
X25731Y10771D02*
D03*
Y11148D02*
D03*
X32820Y10771D02*
D03*
Y11148D02*
D03*
X8505Y13971D02*
D03*
Y14348D02*
D03*
X15491Y13971D02*
D03*
Y14348D02*
D03*
X29671Y13971D02*
D03*
Y14348D02*
D03*
X36751Y13971D02*
D03*
Y14348D02*
D03*
X9776Y33379D02*
D03*
Y33756D02*
D03*
X18645Y11148D02*
D03*
Y10771D02*
D03*
X22585Y14348D02*
D03*
Y13971D02*
D03*
X16411Y23408D02*
D03*
Y23031D02*
D03*
X16561Y24784D02*
D03*
Y25161D02*
D03*
X23211Y28874D02*
D03*
Y29251D02*
D03*
X26221Y22948D02*
D03*
Y22571D02*
D03*
X23981Y19148D02*
D03*
Y18771D02*
D03*
X16551Y25938D02*
D03*
Y25561D02*
D03*
X26231Y23574D02*
D03*
Y23951D02*
D03*
X39941Y41861D02*
D03*
Y41484D02*
D03*
X28851Y18853D02*
D03*
Y19230D02*
D03*
X31361Y18868D02*
D03*
Y19245D02*
D03*
X33821Y19205D02*
D03*
Y18828D02*
D03*
X36351Y19235D02*
D03*
Y18858D02*
D03*
X20091Y30121D02*
D03*
Y29744D02*
D03*
X16581Y27491D02*
D03*
Y27114D02*
D03*
X17441Y18854D02*
D03*
Y19231D02*
D03*
X14461Y31108D02*
D03*
Y30731D02*
D03*
X9361Y31208D02*
D03*
Y30831D02*
D03*
X30221Y10791D02*
D03*
Y11170D02*
D03*
X37301Y10791D02*
D03*
Y11170D02*
D03*
X4172Y11148D02*
D03*
Y10769D02*
D03*
X11141Y11148D02*
D03*
Y10769D02*
D03*
X25318Y11148D02*
D03*
Y10769D02*
D03*
X32407Y11148D02*
D03*
Y10769D02*
D03*
X8035Y13972D02*
D03*
Y14351D02*
D03*
X15024Y13972D02*
D03*
Y14351D02*
D03*
X29201Y13972D02*
D03*
Y14351D02*
D03*
X36291Y13972D02*
D03*
Y14351D02*
D03*
X7605Y14350D02*
D03*
Y13971D02*
D03*
X14594Y14350D02*
D03*
Y13971D02*
D03*
X28771Y14350D02*
D03*
Y13971D02*
D03*
X35861Y14350D02*
D03*
Y13971D02*
D03*
X7921Y33822D02*
D03*
Y34201D02*
D03*
X9771Y34231D02*
D03*
Y34610D02*
D03*
X20811Y36572D02*
D03*
Y36951D02*
D03*
X20801Y37730D02*
D03*
Y37351D02*
D03*
X9526Y35305D02*
D03*
Y35684D02*
D03*
X25789Y30555D02*
D03*
Y30176D02*
D03*
X13551Y35305D02*
D03*
Y35684D02*
D03*
X17561Y35322D02*
D03*
Y35701D02*
D03*
X26547Y32346D02*
D03*
Y31967D02*
D03*
X23531Y10781D02*
D03*
Y11160D02*
D03*
X18232Y10769D02*
D03*
Y11148D02*
D03*
X22115Y13972D02*
D03*
Y14351D02*
D03*
X21685Y14350D02*
D03*
Y13971D02*
D03*
X33341Y40470D02*
D03*
Y40091D02*
D03*
X8742Y21880D02*
D03*
Y22259D02*
D03*
X15511Y27901D02*
D03*
Y27522D02*
D03*
Y28451D02*
D03*
Y28830D02*
D03*
X16161Y27500D02*
D03*
Y27121D02*
D03*
X4101Y28650D02*
D03*
Y28271D02*
D03*
X3671Y28651D02*
D03*
Y28274D02*
D03*
X8732Y22884D02*
D03*
Y23263D02*
D03*
X7965Y21880D02*
D03*
Y22259D02*
D03*
X5942Y22260D02*
D03*
Y21881D02*
D03*
X7148Y22258D02*
D03*
Y21879D02*
D03*
X33541Y38701D02*
D03*
Y39080D02*
D03*
X34094Y39081D02*
D03*
Y38702D02*
D03*
X7321Y70578D02*
D03*
Y70201D02*
D03*
X20691Y70241D02*
D03*
Y70620D02*
D03*
X22811Y72641D02*
D03*
Y72262D02*
D03*
X21311Y70621D02*
D03*
Y70242D02*
D03*
X30701Y57481D02*
D03*
Y57102D02*
D03*
X18071Y59354D02*
D03*
Y59731D02*
D03*
X27000Y72846D02*
D03*
Y72467D02*
D03*
X17551Y76960D02*
D03*
Y76581D02*
D03*
X13551Y76961D02*
D03*
Y76582D02*
D03*
X9516Y76961D02*
D03*
Y76582D02*
D03*
X22701Y77880D02*
D03*
Y77501D02*
D03*
X26537Y73701D02*
D03*
Y74078D02*
D03*
X23131Y51660D02*
D03*
Y51281D02*
D03*
X37701Y51670D02*
D03*
Y51291D02*
D03*
X30621Y51670D02*
D03*
Y51291D02*
D03*
X16431Y51670D02*
D03*
Y51291D02*
D03*
X9471Y51670D02*
D03*
Y51291D02*
D03*
X16031Y51668D02*
D03*
Y51291D02*
D03*
X9071Y51668D02*
D03*
Y51291D02*
D03*
X15041Y70844D02*
D03*
Y71221D02*
D03*
X5911Y43871D02*
D03*
Y44250D02*
D03*
X4901Y80281D02*
D03*
Y79902D02*
D03*
X30278Y57483D02*
D03*
Y57104D02*
D03*
X4585Y51271D02*
D03*
Y51648D02*
D03*
X11554Y51271D02*
D03*
Y51648D02*
D03*
X25731Y51271D02*
D03*
Y51648D02*
D03*
X32820Y51271D02*
D03*
Y51648D02*
D03*
X8505Y54471D02*
D03*
Y54848D02*
D03*
X15491Y54471D02*
D03*
Y54848D02*
D03*
X29671Y54471D02*
D03*
Y54848D02*
D03*
X36751Y54471D02*
D03*
Y54848D02*
D03*
X9776Y73879D02*
D03*
Y74256D02*
D03*
X18645Y51648D02*
D03*
Y51271D02*
D03*
X22585Y54848D02*
D03*
Y54471D02*
D03*
X16411Y63908D02*
D03*
Y63531D02*
D03*
X16561Y65284D02*
D03*
Y65661D02*
D03*
X23211Y69374D02*
D03*
Y69751D02*
D03*
X26221Y63448D02*
D03*
Y63071D02*
D03*
X23981Y59648D02*
D03*
Y59271D02*
D03*
X16551Y66438D02*
D03*
Y66061D02*
D03*
X26231Y64074D02*
D03*
Y64451D02*
D03*
X39941Y82361D02*
D03*
Y81984D02*
D03*
X28851Y59353D02*
D03*
Y59730D02*
D03*
X31361Y59368D02*
D03*
Y59745D02*
D03*
X33821Y59705D02*
D03*
Y59328D02*
D03*
X36351Y59735D02*
D03*
Y59358D02*
D03*
X20091Y70621D02*
D03*
Y70244D02*
D03*
X16581Y67991D02*
D03*
Y67614D02*
D03*
X17441Y59354D02*
D03*
Y59731D02*
D03*
X14461Y71608D02*
D03*
Y71231D02*
D03*
X9361Y71708D02*
D03*
Y71331D02*
D03*
X30221Y51291D02*
D03*
Y51670D02*
D03*
X37301Y51291D02*
D03*
Y51670D02*
D03*
X4172Y51648D02*
D03*
Y51269D02*
D03*
X11141Y51648D02*
D03*
Y51269D02*
D03*
X25318Y51648D02*
D03*
Y51269D02*
D03*
X32407Y51648D02*
D03*
Y51269D02*
D03*
X8035Y54472D02*
D03*
Y54851D02*
D03*
X15024Y54472D02*
D03*
Y54851D02*
D03*
X29201Y54472D02*
D03*
Y54851D02*
D03*
X36291Y54472D02*
D03*
Y54851D02*
D03*
X7605Y54850D02*
D03*
Y54471D02*
D03*
X14594Y54850D02*
D03*
Y54471D02*
D03*
X28771Y54850D02*
D03*
Y54471D02*
D03*
X35861Y54850D02*
D03*
Y54471D02*
D03*
X7921Y74322D02*
D03*
Y74701D02*
D03*
X9771Y74731D02*
D03*
Y75110D02*
D03*
X20811Y77072D02*
D03*
Y77451D02*
D03*
X20801Y78230D02*
D03*
Y77851D02*
D03*
X9526Y75805D02*
D03*
Y76184D02*
D03*
X25789Y71055D02*
D03*
Y70676D02*
D03*
X13551Y75805D02*
D03*
Y76184D02*
D03*
X17561Y75822D02*
D03*
Y76201D02*
D03*
X26547Y72846D02*
D03*
Y72467D02*
D03*
X23531Y51281D02*
D03*
Y51660D02*
D03*
X18232Y51269D02*
D03*
Y51648D02*
D03*
X22115Y54472D02*
D03*
Y54851D02*
D03*
X21685Y54850D02*
D03*
Y54471D02*
D03*
X33341Y80970D02*
D03*
Y80591D02*
D03*
X8742Y62380D02*
D03*
Y62759D02*
D03*
X15511Y68401D02*
D03*
Y68022D02*
D03*
Y68951D02*
D03*
Y69330D02*
D03*
X16161Y68000D02*
D03*
Y67621D02*
D03*
X4101Y69150D02*
D03*
Y68771D02*
D03*
X3671Y69151D02*
D03*
Y68774D02*
D03*
X8732Y63384D02*
D03*
Y63763D02*
D03*
X7965Y62380D02*
D03*
Y62759D02*
D03*
X5942Y62760D02*
D03*
Y62381D02*
D03*
X7148Y62758D02*
D03*
Y62379D02*
D03*
X33541Y79201D02*
D03*
Y79580D02*
D03*
X34094Y79581D02*
D03*
Y79202D02*
D03*
D202*
X6958Y28786D02*
D03*
X7224D02*
D03*
X6958Y28589D02*
D03*
Y28392D02*
D03*
X7224Y28589D02*
D03*
Y28392D02*
D03*
X6958Y69286D02*
D03*
X7224D02*
D03*
X6958Y69089D02*
D03*
Y68892D02*
D03*
X7224Y69089D02*
D03*
Y68892D02*
D03*
D203*
X8536Y28747D02*
D03*
X7866D02*
D03*
Y28432D02*
D03*
X8536D02*
D03*
Y69247D02*
D03*
X7866D02*
D03*
Y68932D02*
D03*
X8536D02*
D03*
D204*
X25549Y31773D02*
D03*
X23817Y33347D02*
D03*
X25549D02*
D03*
X23817Y31773D02*
D03*
X25549Y72273D02*
D03*
X23817Y73847D02*
D03*
X25549D02*
D03*
X23817Y72273D02*
D03*
D205*
X4921Y36121D02*
D03*
X5755Y36501D02*
D03*
Y35747D02*
D03*
X19431Y36921D02*
D03*
X20265Y37301D02*
D03*
Y36547D02*
D03*
X4921Y76621D02*
D03*
X5755Y77001D02*
D03*
Y76247D02*
D03*
X19431Y77421D02*
D03*
X20265Y77801D02*
D03*
Y77047D02*
D03*
D206*
X15081Y39151D02*
D03*
Y38278D02*
D03*
X11101Y39151D02*
D03*
Y38278D02*
D03*
X38971Y18761D02*
D03*
Y19634D02*
D03*
X15081Y79651D02*
D03*
Y78778D02*
D03*
X11101Y79651D02*
D03*
Y78778D02*
D03*
X38971Y59261D02*
D03*
Y60134D02*
D03*
D207*
X20701Y38801D02*
D03*
X22278D02*
D03*
X26531Y38191D02*
D03*
X28108D02*
D03*
X18865Y6161D02*
D03*
X20442D02*
D03*
X22945Y6163D02*
D03*
X21367D02*
D03*
X37734Y38915D02*
D03*
X39312D02*
D03*
X6776Y6161D02*
D03*
X5199D02*
D03*
X13646D02*
D03*
X12069D02*
D03*
X27528D02*
D03*
X25951D02*
D03*
X34617Y6191D02*
D03*
X33039D02*
D03*
X7696Y6163D02*
D03*
X9274D02*
D03*
X14576D02*
D03*
X16154D02*
D03*
X28461Y6161D02*
D03*
X30038D02*
D03*
X35551Y6191D02*
D03*
X37128D02*
D03*
X20701Y79301D02*
D03*
X22278D02*
D03*
X26531Y78691D02*
D03*
X28108D02*
D03*
X18865Y46661D02*
D03*
X20442D02*
D03*
X22945Y46663D02*
D03*
X21367D02*
D03*
X37734Y79415D02*
D03*
X39312D02*
D03*
X6776Y46661D02*
D03*
X5199D02*
D03*
X13646D02*
D03*
X12069D02*
D03*
X27528D02*
D03*
X25951D02*
D03*
X34617Y46691D02*
D03*
X33039D02*
D03*
X7696Y46663D02*
D03*
X9274D02*
D03*
X14576D02*
D03*
X16154D02*
D03*
X28461Y46661D02*
D03*
X30038D02*
D03*
X35551Y46691D02*
D03*
X37128D02*
D03*
D208*
X6591Y37381D02*
D03*
Y35804D02*
D03*
X10101Y37341D02*
D03*
Y38918D02*
D03*
X14091Y37341D02*
D03*
Y38918D02*
D03*
X18091Y37321D02*
D03*
Y38898D02*
D03*
X18052Y7774D02*
D03*
Y9351D02*
D03*
X23632Y7774D02*
D03*
Y9351D02*
D03*
X3992D02*
D03*
Y7774D02*
D03*
X10961Y9351D02*
D03*
Y7774D02*
D03*
X25138Y9351D02*
D03*
Y7774D02*
D03*
X32227Y9351D02*
D03*
Y7774D02*
D03*
X9572Y9351D02*
D03*
Y7774D02*
D03*
X16541Y9351D02*
D03*
Y7774D02*
D03*
X30718Y9351D02*
D03*
Y7774D02*
D03*
X37807Y9351D02*
D03*
Y7774D02*
D03*
X6591Y77881D02*
D03*
Y76304D02*
D03*
X10101Y77841D02*
D03*
Y79418D02*
D03*
X14091Y77841D02*
D03*
Y79418D02*
D03*
X18091Y77821D02*
D03*
Y79398D02*
D03*
X18052Y48274D02*
D03*
Y49851D02*
D03*
X23632Y48274D02*
D03*
Y49851D02*
D03*
X3992D02*
D03*
Y48274D02*
D03*
X10961Y49851D02*
D03*
Y48274D02*
D03*
X25138Y49851D02*
D03*
Y48274D02*
D03*
X32227Y49851D02*
D03*
Y48274D02*
D03*
X9572Y49851D02*
D03*
Y48274D02*
D03*
X16541Y49851D02*
D03*
Y48274D02*
D03*
X30718Y49851D02*
D03*
Y48274D02*
D03*
X37807Y49851D02*
D03*
Y48274D02*
D03*
D209*
X27039Y34205D02*
D03*
X27413D02*
D03*
X27787D02*
D03*
Y33201D02*
D03*
X27413D02*
D03*
X27039D02*
D03*
Y74705D02*
D03*
X27413D02*
D03*
X27787D02*
D03*
Y73701D02*
D03*
X27413D02*
D03*
X27039D02*
D03*
D210*
X17971Y35727D02*
D03*
Y36101D02*
D03*
Y36475D02*
D03*
X18975D02*
D03*
Y36101D02*
D03*
Y35727D02*
D03*
X13965Y35720D02*
D03*
Y36094D02*
D03*
Y36469D02*
D03*
X14969D02*
D03*
Y36094D02*
D03*
Y35720D02*
D03*
X9949D02*
D03*
Y36094D02*
D03*
Y36469D02*
D03*
X10953D02*
D03*
Y36094D02*
D03*
Y35720D02*
D03*
X8332Y33766D02*
D03*
Y34140D02*
D03*
Y34514D02*
D03*
X9336D02*
D03*
Y34140D02*
D03*
Y33766D02*
D03*
X21239Y36617D02*
D03*
Y36991D02*
D03*
Y37365D02*
D03*
X22243D02*
D03*
Y36991D02*
D03*
Y36617D02*
D03*
X17971Y76227D02*
D03*
Y76601D02*
D03*
Y76975D02*
D03*
X18975D02*
D03*
Y76601D02*
D03*
Y76227D02*
D03*
X13965Y76220D02*
D03*
Y76594D02*
D03*
Y76968D02*
D03*
X14969D02*
D03*
Y76594D02*
D03*
Y76220D02*
D03*
X9949D02*
D03*
Y76594D02*
D03*
Y76968D02*
D03*
X10953D02*
D03*
Y76594D02*
D03*
Y76220D02*
D03*
X8332Y74266D02*
D03*
Y74640D02*
D03*
Y75014D02*
D03*
X9336D02*
D03*
Y74640D02*
D03*
Y74266D02*
D03*
X21239Y77117D02*
D03*
Y77491D02*
D03*
Y77865D02*
D03*
X22243D02*
D03*
Y77491D02*
D03*
Y77117D02*
D03*
D211*
X28889Y36181D02*
D03*
X29933D02*
D03*
X34963Y30241D02*
D03*
X33919D02*
D03*
X41333Y12581D02*
D03*
X40289D02*
D03*
X33973Y41985D02*
D03*
X35016D02*
D03*
X28889Y76681D02*
D03*
X29933D02*
D03*
X34963Y70741D02*
D03*
X33919D02*
D03*
X41333Y53081D02*
D03*
X40289D02*
D03*
X33973Y82485D02*
D03*
X35016D02*
D03*
D212*
X28777Y32461D02*
D03*
Y31707D02*
D03*
X33223Y41382D02*
D03*
Y42136D02*
D03*
X28777Y72961D02*
D03*
Y72207D02*
D03*
X33223Y81882D02*
D03*
Y82636D02*
D03*
D213*
X10261Y11787D02*
D03*
Y13835D02*
D03*
X17361Y11787D02*
D03*
Y13835D02*
D03*
X31491Y11787D02*
D03*
Y13835D02*
D03*
X38621Y11787D02*
D03*
Y13835D02*
D03*
X24421D02*
D03*
Y11787D02*
D03*
X30481Y32195D02*
D03*
Y30147D02*
D03*
X31351Y39807D02*
D03*
Y41855D02*
D03*
X10261Y52287D02*
D03*
Y54335D02*
D03*
X17361Y52287D02*
D03*
Y54335D02*
D03*
X31491Y52287D02*
D03*
Y54335D02*
D03*
X38621Y52287D02*
D03*
Y54335D02*
D03*
X24421D02*
D03*
Y52287D02*
D03*
X30481Y72695D02*
D03*
Y70647D02*
D03*
X31351Y80307D02*
D03*
Y82355D02*
D03*
D214*
X31152Y23571D02*
D03*
X30798D02*
D03*
X34258D02*
D03*
X34612D02*
D03*
X38582D02*
D03*
X38228D02*
D03*
X29178D02*
D03*
X29532D02*
D03*
X32962D02*
D03*
X32608D02*
D03*
X36568D02*
D03*
X36922D02*
D03*
X31152Y64071D02*
D03*
X30798D02*
D03*
X34258D02*
D03*
X34612D02*
D03*
X38582D02*
D03*
X38228D02*
D03*
X29178D02*
D03*
X29532D02*
D03*
X32962D02*
D03*
X32608D02*
D03*
X36568D02*
D03*
X36922D02*
D03*
D215*
X5172Y11029D02*
D03*
X5428D02*
D03*
X5684D02*
D03*
X5940D02*
D03*
X6196D02*
D03*
X6452D02*
D03*
X6708D02*
D03*
X6963D02*
D03*
X7219D02*
D03*
X7475D02*
D03*
X7731D02*
D03*
X7987D02*
D03*
X8243D02*
D03*
X8499D02*
D03*
X5172Y13273D02*
D03*
X5428D02*
D03*
X5684D02*
D03*
X5940D02*
D03*
X6196D02*
D03*
X6452D02*
D03*
X6708D02*
D03*
X6963D02*
D03*
X7219D02*
D03*
X7475D02*
D03*
X7731D02*
D03*
X7987D02*
D03*
X8243D02*
D03*
X8499D02*
D03*
X15467D02*
D03*
X15212D02*
D03*
X14956D02*
D03*
X14700D02*
D03*
X14444D02*
D03*
X14188D02*
D03*
X13932D02*
D03*
X13676D02*
D03*
X13420D02*
D03*
X13164D02*
D03*
X12908D02*
D03*
X12652D02*
D03*
X12397D02*
D03*
X12141D02*
D03*
X15467Y11029D02*
D03*
X15212D02*
D03*
X14956D02*
D03*
X14700D02*
D03*
X14444D02*
D03*
X14188D02*
D03*
X13932D02*
D03*
X13676D02*
D03*
X13420D02*
D03*
X13164D02*
D03*
X12908D02*
D03*
X12652D02*
D03*
X12397D02*
D03*
X12141D02*
D03*
X19232D02*
D03*
X19488D02*
D03*
X19744D02*
D03*
X20000D02*
D03*
X20255D02*
D03*
X20511D02*
D03*
X20767D02*
D03*
X21023D02*
D03*
X21279D02*
D03*
X21535D02*
D03*
X21791D02*
D03*
X22047D02*
D03*
X22303D02*
D03*
X22559D02*
D03*
X19232Y13273D02*
D03*
X19488D02*
D03*
X19744D02*
D03*
X20000D02*
D03*
X20255D02*
D03*
X20511D02*
D03*
X20767D02*
D03*
X21023D02*
D03*
X21279D02*
D03*
X21535D02*
D03*
X21791D02*
D03*
X22047D02*
D03*
X22303D02*
D03*
X22559D02*
D03*
X29645D02*
D03*
X29389D02*
D03*
X29133D02*
D03*
X28877D02*
D03*
X28621D02*
D03*
X28365D02*
D03*
X28109D02*
D03*
X27853D02*
D03*
X27597D02*
D03*
X27341D02*
D03*
X27086D02*
D03*
X26830D02*
D03*
X26574D02*
D03*
X26318D02*
D03*
X29645Y11029D02*
D03*
X29389D02*
D03*
X29133D02*
D03*
X28877D02*
D03*
X28621D02*
D03*
X28365D02*
D03*
X28109D02*
D03*
X27853D02*
D03*
X27597D02*
D03*
X27341D02*
D03*
X27086D02*
D03*
X26830D02*
D03*
X26574D02*
D03*
X26318D02*
D03*
X33406D02*
D03*
X33662D02*
D03*
X33918D02*
D03*
X34174D02*
D03*
X34430D02*
D03*
X34686D02*
D03*
X34942D02*
D03*
X35198D02*
D03*
X35454D02*
D03*
X35710D02*
D03*
X35965D02*
D03*
X36221D02*
D03*
X36477D02*
D03*
X36733D02*
D03*
X33406Y13273D02*
D03*
X33662D02*
D03*
X33918D02*
D03*
X34174D02*
D03*
X34430D02*
D03*
X34686D02*
D03*
X34942D02*
D03*
X35198D02*
D03*
X35454D02*
D03*
X35710D02*
D03*
X35965D02*
D03*
X36221D02*
D03*
X36477D02*
D03*
X36733D02*
D03*
X5172Y51529D02*
D03*
X5428D02*
D03*
X5684D02*
D03*
X5940D02*
D03*
X6196D02*
D03*
X6452D02*
D03*
X6708D02*
D03*
X6963D02*
D03*
X7219D02*
D03*
X7475D02*
D03*
X7731D02*
D03*
X7987D02*
D03*
X8243D02*
D03*
X8499D02*
D03*
X5172Y53773D02*
D03*
X5428D02*
D03*
X5684D02*
D03*
X5940D02*
D03*
X6196D02*
D03*
X6452D02*
D03*
X6708D02*
D03*
X6963D02*
D03*
X7219D02*
D03*
X7475D02*
D03*
X7731D02*
D03*
X7987D02*
D03*
X8243D02*
D03*
X8499D02*
D03*
X15467D02*
D03*
X15212D02*
D03*
X14956D02*
D03*
X14700D02*
D03*
X14444D02*
D03*
X14188D02*
D03*
X13932D02*
D03*
X13676D02*
D03*
X13420D02*
D03*
X13164D02*
D03*
X12908D02*
D03*
X12652D02*
D03*
X12397D02*
D03*
X12141D02*
D03*
X15467Y51529D02*
D03*
X15212D02*
D03*
X14956D02*
D03*
X14700D02*
D03*
X14444D02*
D03*
X14188D02*
D03*
X13932D02*
D03*
X13676D02*
D03*
X13420D02*
D03*
X13164D02*
D03*
X12908D02*
D03*
X12652D02*
D03*
X12397D02*
D03*
X12141D02*
D03*
X19232D02*
D03*
X19488D02*
D03*
X19744D02*
D03*
X20000D02*
D03*
X20255D02*
D03*
X20511D02*
D03*
X20767D02*
D03*
X21023D02*
D03*
X21279D02*
D03*
X21535D02*
D03*
X21791D02*
D03*
X22047D02*
D03*
X22303D02*
D03*
X22559D02*
D03*
X19232Y53773D02*
D03*
X19488D02*
D03*
X19744D02*
D03*
X20000D02*
D03*
X20255D02*
D03*
X20511D02*
D03*
X20767D02*
D03*
X21023D02*
D03*
X21279D02*
D03*
X21535D02*
D03*
X21791D02*
D03*
X22047D02*
D03*
X22303D02*
D03*
X22559D02*
D03*
X29645D02*
D03*
X29389D02*
D03*
X29133D02*
D03*
X28877D02*
D03*
X28621D02*
D03*
X28365D02*
D03*
X28109D02*
D03*
X27853D02*
D03*
X27597D02*
D03*
X27341D02*
D03*
X27086D02*
D03*
X26830D02*
D03*
X26574D02*
D03*
X26318D02*
D03*
X29645Y51529D02*
D03*
X29389D02*
D03*
X29133D02*
D03*
X28877D02*
D03*
X28621D02*
D03*
X28365D02*
D03*
X28109D02*
D03*
X27853D02*
D03*
X27597D02*
D03*
X27341D02*
D03*
X27086D02*
D03*
X26830D02*
D03*
X26574D02*
D03*
X26318D02*
D03*
X33406D02*
D03*
X33662D02*
D03*
X33918D02*
D03*
X34174D02*
D03*
X34430D02*
D03*
X34686D02*
D03*
X34942D02*
D03*
X35198D02*
D03*
X35454D02*
D03*
X35710D02*
D03*
X35965D02*
D03*
X36221D02*
D03*
X36477D02*
D03*
X36733D02*
D03*
X33406Y53773D02*
D03*
X33662D02*
D03*
X33918D02*
D03*
X34174D02*
D03*
X34430D02*
D03*
X34686D02*
D03*
X34942D02*
D03*
X35198D02*
D03*
X35454D02*
D03*
X35710D02*
D03*
X35965D02*
D03*
X36221D02*
D03*
X36477D02*
D03*
X36733D02*
D03*
D216*
X27425Y33656D02*
D03*
Y74156D02*
D03*
D217*
X6976Y21110D02*
D03*
Y61610D02*
D03*
D218*
X3137Y21060D02*
D03*
Y15982D02*
D03*
Y61560D02*
D03*
Y56482D02*
D03*
D219*
X8836Y21041D02*
D03*
Y18285D02*
D03*
Y17379D02*
D03*
Y61541D02*
D03*
Y58785D02*
D03*
Y57879D02*
D03*
D220*
X4279Y17458D02*
D03*
Y17891D02*
D03*
Y18324D02*
D03*
Y18757D02*
D03*
Y19190D02*
D03*
Y19623D02*
D03*
Y20056D02*
D03*
Y20490D02*
D03*
Y57958D02*
D03*
Y58391D02*
D03*
Y58824D02*
D03*
Y59257D02*
D03*
Y59690D02*
D03*
Y60123D02*
D03*
Y60556D02*
D03*
Y60990D02*
D03*
D221*
X4578Y21961D02*
D03*
X5332D02*
D03*
X36868Y42045D02*
D03*
X36114D02*
D03*
X23811Y29736D02*
D03*
X24565D02*
D03*
X16525Y19981D02*
D03*
X15771D02*
D03*
X12877Y25691D02*
D03*
X13631D02*
D03*
X4578Y62461D02*
D03*
X5332D02*
D03*
X36868Y82545D02*
D03*
X36114D02*
D03*
X23811Y70236D02*
D03*
X24565D02*
D03*
X16525Y60481D02*
D03*
X15771D02*
D03*
X12877Y66191D02*
D03*
X13631D02*
D03*
D222*
X4474Y30961D02*
D03*
X3641D02*
D03*
X9204Y38451D02*
D03*
X8371D02*
D03*
X13224D02*
D03*
X12391D02*
D03*
X4474Y30351D02*
D03*
X3641D02*
D03*
X17214Y38451D02*
D03*
X16381D02*
D03*
X4474Y31571D02*
D03*
X3641D02*
D03*
X4474Y71461D02*
D03*
X3641D02*
D03*
X9204Y78951D02*
D03*
X8371D02*
D03*
X13224D02*
D03*
X12391D02*
D03*
X4474Y70851D02*
D03*
X3641D02*
D03*
X17214Y78951D02*
D03*
X16381D02*
D03*
X4474Y72071D02*
D03*
X3641D02*
D03*
D223*
X19061Y38394D02*
D03*
Y37561D02*
D03*
X25671Y39034D02*
D03*
Y38201D02*
D03*
X6191Y38198D02*
D03*
Y39031D02*
D03*
X19061Y78894D02*
D03*
Y78061D02*
D03*
X25671Y79534D02*
D03*
Y78701D02*
D03*
X6191Y78698D02*
D03*
Y79531D02*
D03*
D224*
X28431Y39590D02*
D03*
Y41961D02*
D03*
Y80090D02*
D03*
Y82461D02*
D03*
D225*
X31212Y34391D02*
D03*
X28841D02*
D03*
X40294Y14338D02*
D03*
X42665D02*
D03*
X31212Y74891D02*
D03*
X28841D02*
D03*
X40294Y54838D02*
D03*
X42665D02*
D03*
D226*
X30351Y18830D02*
D03*
Y19381D02*
D03*
X32861Y19397D02*
D03*
Y18845D02*
D03*
X35321Y19357D02*
D03*
Y18805D02*
D03*
X37851Y18835D02*
D03*
Y19387D02*
D03*
X30851Y18830D02*
D03*
Y19381D02*
D03*
X33361Y19397D02*
D03*
Y18845D02*
D03*
X35831Y18785D02*
D03*
Y19337D02*
D03*
X38351Y19387D02*
D03*
Y18835D02*
D03*
X30351Y59330D02*
D03*
Y59881D02*
D03*
X32861Y59897D02*
D03*
Y59345D02*
D03*
X35321Y59857D02*
D03*
Y59305D02*
D03*
X37851Y59335D02*
D03*
Y59887D02*
D03*
X30851Y59330D02*
D03*
Y59881D02*
D03*
X33361Y59897D02*
D03*
Y59345D02*
D03*
X35831Y59285D02*
D03*
Y59837D02*
D03*
X38351Y59887D02*
D03*
Y59335D02*
D03*
D227*
X40221Y5721D02*
D03*
Y46221D02*
D03*
D228*
X5561Y39741D02*
D03*
X40121Y40211D02*
D03*
X5561Y80241D02*
D03*
X40121Y80711D02*
D03*
D229*
X20151Y31072D02*
D03*
Y32670D02*
D03*
X20651Y31072D02*
D03*
Y32670D02*
D03*
X21151Y31072D02*
D03*
Y32670D02*
D03*
X21651Y31072D02*
D03*
Y32670D02*
D03*
X22151Y31072D02*
D03*
Y32670D02*
D03*
X20151Y71572D02*
D03*
Y73170D02*
D03*
X20651Y71572D02*
D03*
Y73170D02*
D03*
X21151Y71572D02*
D03*
Y73170D02*
D03*
X21651Y71572D02*
D03*
Y73170D02*
D03*
X22151Y71572D02*
D03*
Y73170D02*
D03*
D230*
X38524Y40524D02*
D03*
Y41827D02*
D03*
Y81024D02*
D03*
Y82327D02*
D03*
D231*
X7526Y35527D02*
D03*
X8026D02*
D03*
X8526D02*
D03*
X9026D02*
D03*
X11511D02*
D03*
X12011D02*
D03*
X12511D02*
D03*
X13011D02*
D03*
X15521D02*
D03*
X16021D02*
D03*
X16521D02*
D03*
X17021D02*
D03*
X24076Y34727D02*
D03*
X24576D02*
D03*
X25076D02*
D03*
X25576D02*
D03*
X7526Y76027D02*
D03*
X8026D02*
D03*
X8526D02*
D03*
X9026D02*
D03*
X11511D02*
D03*
X12011D02*
D03*
X12511D02*
D03*
X13011D02*
D03*
X15521D02*
D03*
X16021D02*
D03*
X16521D02*
D03*
X17021D02*
D03*
X24076Y75227D02*
D03*
X24576D02*
D03*
X25076D02*
D03*
X25576D02*
D03*
D232*
X7592Y7060D02*
D03*
Y9382D02*
D03*
X14561Y7060D02*
D03*
Y9382D02*
D03*
X28738Y7060D02*
D03*
Y9382D02*
D03*
X35827Y7060D02*
D03*
Y9382D02*
D03*
X6072Y7060D02*
D03*
Y9382D02*
D03*
X13041Y7060D02*
D03*
Y9382D02*
D03*
X27218Y7060D02*
D03*
Y9382D02*
D03*
X34307Y7060D02*
D03*
Y9382D02*
D03*
X20132Y7060D02*
D03*
Y9382D02*
D03*
X21652Y7060D02*
D03*
Y9382D02*
D03*
X7592Y47560D02*
D03*
Y49882D02*
D03*
X14561Y47560D02*
D03*
Y49882D02*
D03*
X28738Y47560D02*
D03*
Y49882D02*
D03*
X35827Y47560D02*
D03*
Y49882D02*
D03*
X6072Y47560D02*
D03*
Y49882D02*
D03*
X13041Y47560D02*
D03*
Y49882D02*
D03*
X27218Y47560D02*
D03*
Y49882D02*
D03*
X34307Y47560D02*
D03*
Y49882D02*
D03*
X20132Y47560D02*
D03*
Y49882D02*
D03*
X21652Y47560D02*
D03*
Y49882D02*
D03*
D233*
X36936Y38935D02*
D03*
X34613D02*
D03*
X36936Y79435D02*
D03*
X34613D02*
D03*
D234*
X25565Y27477D02*
D03*
Y27280D02*
D03*
Y27083D02*
D03*
Y26886D02*
D03*
Y26690D02*
D03*
Y26493D02*
D03*
Y26296D02*
D03*
Y26099D02*
D03*
Y25902D02*
D03*
Y25705D02*
D03*
Y25508D02*
D03*
Y25312D02*
D03*
Y25115D02*
D03*
Y24918D02*
D03*
Y24721D02*
D03*
Y24524D02*
D03*
Y24327D02*
D03*
Y24130D02*
D03*
Y23934D02*
D03*
Y23737D02*
D03*
Y23540D02*
D03*
Y23343D02*
D03*
Y23146D02*
D03*
Y22949D02*
D03*
Y22753D02*
D03*
Y22556D02*
D03*
Y22359D02*
D03*
Y22162D02*
D03*
Y21965D02*
D03*
Y21768D02*
D03*
Y21571D02*
D03*
Y21375D02*
D03*
Y21178D02*
D03*
Y20981D02*
D03*
Y20784D02*
D03*
Y20587D02*
D03*
X17257D02*
D03*
Y20784D02*
D03*
Y20981D02*
D03*
Y21178D02*
D03*
Y21375D02*
D03*
Y21571D02*
D03*
Y21768D02*
D03*
Y21965D02*
D03*
Y22162D02*
D03*
Y22359D02*
D03*
Y22556D02*
D03*
Y22753D02*
D03*
Y22949D02*
D03*
Y23146D02*
D03*
Y23343D02*
D03*
Y23540D02*
D03*
Y23737D02*
D03*
Y23934D02*
D03*
Y24130D02*
D03*
Y24327D02*
D03*
Y24524D02*
D03*
Y24721D02*
D03*
Y24918D02*
D03*
Y25115D02*
D03*
Y25312D02*
D03*
Y25508D02*
D03*
Y25705D02*
D03*
Y25902D02*
D03*
Y26099D02*
D03*
Y26296D02*
D03*
Y26493D02*
D03*
Y26690D02*
D03*
Y26886D02*
D03*
Y27083D02*
D03*
Y27280D02*
D03*
Y27477D02*
D03*
X25565Y67977D02*
D03*
Y67780D02*
D03*
Y67583D02*
D03*
Y67386D02*
D03*
Y67190D02*
D03*
Y66993D02*
D03*
Y66796D02*
D03*
Y66599D02*
D03*
Y66402D02*
D03*
Y66205D02*
D03*
Y66008D02*
D03*
Y65812D02*
D03*
Y65615D02*
D03*
Y65418D02*
D03*
Y65221D02*
D03*
Y65024D02*
D03*
Y64827D02*
D03*
Y64630D02*
D03*
Y64434D02*
D03*
Y64237D02*
D03*
Y64040D02*
D03*
Y63843D02*
D03*
Y63646D02*
D03*
Y63449D02*
D03*
Y63253D02*
D03*
Y63056D02*
D03*
Y62859D02*
D03*
Y62662D02*
D03*
Y62465D02*
D03*
Y62268D02*
D03*
Y62071D02*
D03*
Y61875D02*
D03*
Y61678D02*
D03*
Y61481D02*
D03*
Y61284D02*
D03*
Y61087D02*
D03*
X17257D02*
D03*
Y61284D02*
D03*
Y61481D02*
D03*
Y61678D02*
D03*
Y61875D02*
D03*
Y62071D02*
D03*
Y62268D02*
D03*
Y62465D02*
D03*
Y62662D02*
D03*
Y62859D02*
D03*
Y63056D02*
D03*
Y63253D02*
D03*
Y63449D02*
D03*
Y63646D02*
D03*
Y63843D02*
D03*
Y64040D02*
D03*
Y64237D02*
D03*
Y64434D02*
D03*
Y64630D02*
D03*
Y64827D02*
D03*
Y65024D02*
D03*
Y65221D02*
D03*
Y65418D02*
D03*
Y65615D02*
D03*
Y65812D02*
D03*
Y66008D02*
D03*
Y66205D02*
D03*
Y66402D02*
D03*
Y66599D02*
D03*
Y66796D02*
D03*
Y66993D02*
D03*
Y67190D02*
D03*
Y67386D02*
D03*
Y67583D02*
D03*
Y67780D02*
D03*
Y67977D02*
D03*
D235*
X24856Y19878D02*
D03*
X24659D02*
D03*
X24462D02*
D03*
X24265D02*
D03*
X24069D02*
D03*
X23872D02*
D03*
X23675D02*
D03*
X23478D02*
D03*
X23281D02*
D03*
X23084D02*
D03*
X22887D02*
D03*
X22691D02*
D03*
X22494D02*
D03*
X22297D02*
D03*
X22100D02*
D03*
X21903D02*
D03*
X21706D02*
D03*
X21509D02*
D03*
X21313D02*
D03*
X21116D02*
D03*
X20919D02*
D03*
X20722D02*
D03*
X20525D02*
D03*
X20328D02*
D03*
X20131D02*
D03*
X19935D02*
D03*
X19738D02*
D03*
X19541D02*
D03*
X19344D02*
D03*
X19147D02*
D03*
X18950D02*
D03*
X18754D02*
D03*
X18557D02*
D03*
X18360D02*
D03*
X18163D02*
D03*
X17966D02*
D03*
Y28186D02*
D03*
X18163D02*
D03*
X18360D02*
D03*
X18557D02*
D03*
X18754D02*
D03*
X18950D02*
D03*
X19147D02*
D03*
X19344D02*
D03*
X19541D02*
D03*
X19738D02*
D03*
X19935D02*
D03*
X20131D02*
D03*
X20328D02*
D03*
X20525D02*
D03*
X20722D02*
D03*
X20919D02*
D03*
X21116D02*
D03*
X21313D02*
D03*
X21509D02*
D03*
X21706D02*
D03*
X21903D02*
D03*
X22100D02*
D03*
X22297D02*
D03*
X22494D02*
D03*
X22691D02*
D03*
X22887D02*
D03*
X23084D02*
D03*
X23281D02*
D03*
X23478D02*
D03*
X23675D02*
D03*
X23872D02*
D03*
X24069D02*
D03*
X24265D02*
D03*
X24462D02*
D03*
X24659D02*
D03*
X24856D02*
D03*
Y60378D02*
D03*
X24659D02*
D03*
X24462D02*
D03*
X24265D02*
D03*
X24069D02*
D03*
X23872D02*
D03*
X23675D02*
D03*
X23478D02*
D03*
X23281D02*
D03*
X23084D02*
D03*
X22887D02*
D03*
X22691D02*
D03*
X22494D02*
D03*
X22297D02*
D03*
X22100D02*
D03*
X21903D02*
D03*
X21706D02*
D03*
X21509D02*
D03*
X21313D02*
D03*
X21116D02*
D03*
X20919D02*
D03*
X20722D02*
D03*
X20525D02*
D03*
X20328D02*
D03*
X20131D02*
D03*
X19935D02*
D03*
X19738D02*
D03*
X19541D02*
D03*
X19344D02*
D03*
X19147D02*
D03*
X18950D02*
D03*
X18754D02*
D03*
X18557D02*
D03*
X18360D02*
D03*
X18163D02*
D03*
X17966D02*
D03*
Y68686D02*
D03*
X18163D02*
D03*
X18360D02*
D03*
X18557D02*
D03*
X18754D02*
D03*
X18950D02*
D03*
X19147D02*
D03*
X19344D02*
D03*
X19541D02*
D03*
X19738D02*
D03*
X19935D02*
D03*
X20131D02*
D03*
X20328D02*
D03*
X20525D02*
D03*
X20722D02*
D03*
X20919D02*
D03*
X21116D02*
D03*
X21313D02*
D03*
X21509D02*
D03*
X21706D02*
D03*
X21903D02*
D03*
X22100D02*
D03*
X22297D02*
D03*
X22494D02*
D03*
X22691D02*
D03*
X22887D02*
D03*
X23084D02*
D03*
X23281D02*
D03*
X23478D02*
D03*
X23675D02*
D03*
X23872D02*
D03*
X24069D02*
D03*
X24265D02*
D03*
X24462D02*
D03*
X24659D02*
D03*
X24856D02*
D03*
D236*
X33929Y41199D02*
D03*
Y41002D02*
D03*
Y40805D02*
D03*
Y40608D02*
D03*
Y40412D02*
D03*
X35819Y41199D02*
D03*
Y41002D02*
D03*
Y40805D02*
D03*
Y40608D02*
D03*
Y40412D02*
D03*
X33929Y81699D02*
D03*
Y81502D02*
D03*
Y81305D02*
D03*
Y81108D02*
D03*
Y80912D02*
D03*
X35819Y81699D02*
D03*
Y81502D02*
D03*
Y81305D02*
D03*
Y81108D02*
D03*
Y80912D02*
D03*
D237*
X13712Y27721D02*
D03*
Y28221D02*
D03*
Y28721D02*
D03*
Y29221D02*
D03*
Y29721D02*
D03*
Y30221D02*
D03*
Y30721D02*
D03*
Y31221D02*
D03*
X10110Y27721D02*
D03*
Y28221D02*
D03*
Y28721D02*
D03*
Y29221D02*
D03*
Y29721D02*
D03*
Y30221D02*
D03*
Y30721D02*
D03*
Y31221D02*
D03*
X13712Y68221D02*
D03*
Y68721D02*
D03*
Y69221D02*
D03*
Y69721D02*
D03*
Y70221D02*
D03*
Y70721D02*
D03*
Y71221D02*
D03*
Y71721D02*
D03*
X10110Y68221D02*
D03*
Y68721D02*
D03*
Y69221D02*
D03*
Y69721D02*
D03*
Y70221D02*
D03*
Y70721D02*
D03*
Y71221D02*
D03*
Y71721D02*
D03*
D238*
X33434Y16101D02*
D03*
Y16601D02*
D03*
Y17101D02*
D03*
Y17601D02*
D03*
X31308Y16101D02*
D03*
Y16601D02*
D03*
Y17101D02*
D03*
Y17601D02*
D03*
X33434Y56601D02*
D03*
Y57101D02*
D03*
Y57601D02*
D03*
Y58101D02*
D03*
X31308Y56601D02*
D03*
Y57101D02*
D03*
Y57601D02*
D03*
Y58101D02*
D03*
D239*
X16983Y30368D02*
D03*
X18439D02*
D03*
Y31234D02*
D03*
X16983D02*
D03*
Y70868D02*
D03*
X18439D02*
D03*
Y71734D02*
D03*
X16983D02*
D03*
D240*
X27811Y31411D02*
D03*
X28007D02*
D03*
X28204D02*
D03*
Y31923D02*
D03*
X28007D02*
D03*
X27811D02*
D03*
Y71911D02*
D03*
X28007D02*
D03*
X28204D02*
D03*
Y72423D02*
D03*
X28007D02*
D03*
X27811D02*
D03*
D241*
X28007Y31667D02*
D03*
Y72167D02*
D03*
D242*
X18520Y36113D02*
D03*
X14505Y36099D02*
D03*
X10490D02*
D03*
X8860Y34152D02*
D03*
X18520Y76613D02*
D03*
X14505Y76599D02*
D03*
X10490D02*
D03*
X8860Y74652D02*
D03*
D243*
X21761Y37001D02*
D03*
Y77501D02*
D03*
D244*
X7361Y41081D02*
D03*
X9361D02*
D03*
X11361D02*
D03*
X13361D02*
D03*
X15361D02*
D03*
X17361D02*
D03*
X19361D02*
D03*
X21361D02*
D03*
X23361D02*
D03*
X25361D02*
D03*
X7361Y81581D02*
D03*
X9361D02*
D03*
X11361D02*
D03*
X13361D02*
D03*
X15361D02*
D03*
X17361D02*
D03*
X19361D02*
D03*
X21361D02*
D03*
X23361D02*
D03*
X25361D02*
D03*
D245*
X19941Y34591D02*
D03*
Y35591D02*
D03*
X20941Y34591D02*
D03*
Y35591D02*
D03*
X21941Y34591D02*
D03*
Y35591D02*
D03*
X22941Y34591D02*
D03*
X21571Y16621D02*
D03*
X20571Y17621D02*
D03*
Y16621D02*
D03*
X19571Y17621D02*
D03*
Y16621D02*
D03*
X18571Y17621D02*
D03*
Y16621D02*
D03*
X17571Y17621D02*
D03*
Y16621D02*
D03*
X16571Y17621D02*
D03*
Y16621D02*
D03*
X15571Y17621D02*
D03*
Y16621D02*
D03*
X14571Y17621D02*
D03*
Y16621D02*
D03*
X13571Y17621D02*
D03*
Y16621D02*
D03*
X12571Y17621D02*
D03*
Y16621D02*
D03*
X11571Y17621D02*
D03*
Y16621D02*
D03*
X10571Y17621D02*
D03*
Y16621D02*
D03*
Y20861D02*
D03*
Y21861D02*
D03*
X11571Y20861D02*
D03*
Y21861D02*
D03*
X12571Y20861D02*
D03*
Y21861D02*
D03*
X13571Y20861D02*
D03*
Y21861D02*
D03*
X14571Y20861D02*
D03*
X10571Y23711D02*
D03*
Y24711D02*
D03*
X11571Y23711D02*
D03*
Y24711D02*
D03*
X12571Y23711D02*
D03*
Y24711D02*
D03*
X13571Y23711D02*
D03*
Y24711D02*
D03*
X14571Y23711D02*
D03*
X19941Y75091D02*
D03*
Y76091D02*
D03*
X20941Y75091D02*
D03*
Y76091D02*
D03*
X21941Y75091D02*
D03*
Y76091D02*
D03*
X22941Y75091D02*
D03*
X21571Y57121D02*
D03*
X20571Y58121D02*
D03*
Y57121D02*
D03*
X19571Y58121D02*
D03*
Y57121D02*
D03*
X18571Y58121D02*
D03*
Y57121D02*
D03*
X17571Y58121D02*
D03*
Y57121D02*
D03*
X16571Y58121D02*
D03*
Y57121D02*
D03*
X15571Y58121D02*
D03*
Y57121D02*
D03*
X14571Y58121D02*
D03*
Y57121D02*
D03*
X13571Y58121D02*
D03*
Y57121D02*
D03*
X12571Y58121D02*
D03*
Y57121D02*
D03*
X11571Y58121D02*
D03*
Y57121D02*
D03*
X10571Y58121D02*
D03*
Y57121D02*
D03*
Y61361D02*
D03*
Y62361D02*
D03*
X11571Y61361D02*
D03*
Y62361D02*
D03*
X12571Y61361D02*
D03*
Y62361D02*
D03*
X13571Y61361D02*
D03*
Y62361D02*
D03*
X14571Y61361D02*
D03*
X10571Y64211D02*
D03*
Y65211D02*
D03*
X11571Y64211D02*
D03*
Y65211D02*
D03*
X12571Y64211D02*
D03*
Y65211D02*
D03*
X13571Y64211D02*
D03*
Y65211D02*
D03*
X14571Y64211D02*
D03*
D246*
X22941Y35591D02*
D03*
X21571Y17621D02*
D03*
X14571Y21861D02*
D03*
Y24711D02*
D03*
X22941Y76091D02*
D03*
X21571Y58121D02*
D03*
X14571Y62361D02*
D03*
Y65211D02*
D03*
D247*
X38211Y17111D02*
D03*
X37211D02*
D03*
X36211D02*
D03*
X35211D02*
D03*
X39211D02*
D03*
X3801Y38011D02*
D03*
X4801D02*
D03*
X34646Y28051D02*
D03*
X33646D02*
D03*
X32646D02*
D03*
X36781D02*
D03*
X37781D02*
D03*
X38781D02*
D03*
X30511D02*
D03*
X29511D02*
D03*
X28511D02*
D03*
X38781Y25651D02*
D03*
X37781D02*
D03*
X36781D02*
D03*
X32646D02*
D03*
X33646D02*
D03*
X34646D02*
D03*
X30511D02*
D03*
X29511D02*
D03*
X28511D02*
D03*
X24161Y4011D02*
D03*
X25161D02*
D03*
X26161D02*
D03*
X27161D02*
D03*
X19061D02*
D03*
X20061D02*
D03*
X21061D02*
D03*
X22061D02*
D03*
X28691Y21191D02*
D03*
X29691D02*
D03*
X31861D02*
D03*
X32861D02*
D03*
X35011D02*
D03*
X36011D02*
D03*
X38141D02*
D03*
X39141D02*
D03*
X10111Y4011D02*
D03*
X9111D02*
D03*
X8111D02*
D03*
X7111D02*
D03*
X16011D02*
D03*
X15011D02*
D03*
X14011D02*
D03*
X13011D02*
D03*
X33061D02*
D03*
X32061D02*
D03*
X31061D02*
D03*
X30061D02*
D03*
X39011D02*
D03*
X38011D02*
D03*
X37011D02*
D03*
X36011D02*
D03*
X38211Y57611D02*
D03*
X37211D02*
D03*
X36211D02*
D03*
X35211D02*
D03*
X39211D02*
D03*
X3801Y78511D02*
D03*
X4801D02*
D03*
X34646Y68551D02*
D03*
X33646D02*
D03*
X32646D02*
D03*
X36781D02*
D03*
X37781D02*
D03*
X38781D02*
D03*
X30511D02*
D03*
X29511D02*
D03*
X28511D02*
D03*
X38781Y66151D02*
D03*
X37781D02*
D03*
X36781D02*
D03*
X32646D02*
D03*
X33646D02*
D03*
X34646D02*
D03*
X30511D02*
D03*
X29511D02*
D03*
X28511D02*
D03*
X24161Y44511D02*
D03*
X25161D02*
D03*
X26161D02*
D03*
X27161D02*
D03*
X19061D02*
D03*
X20061D02*
D03*
X21061D02*
D03*
X22061D02*
D03*
X28691Y61691D02*
D03*
X29691D02*
D03*
X31861D02*
D03*
X32861D02*
D03*
X35011D02*
D03*
X36011D02*
D03*
X38141D02*
D03*
X39141D02*
D03*
X10111Y44511D02*
D03*
X9111D02*
D03*
X8111D02*
D03*
X7111D02*
D03*
X16011D02*
D03*
X15011D02*
D03*
X14011D02*
D03*
X13011D02*
D03*
X33061D02*
D03*
X32061D02*
D03*
X31061D02*
D03*
X30061D02*
D03*
X39011D02*
D03*
X38011D02*
D03*
X37011D02*
D03*
X36011D02*
D03*
D248*
X33321Y35491D02*
D03*
Y36831D02*
D03*
X38621D02*
D03*
Y35491D02*
D03*
X33321Y31591D02*
D03*
Y32931D02*
D03*
X38621D02*
D03*
Y31591D02*
D03*
X33321Y75991D02*
D03*
Y77331D02*
D03*
X38621D02*
D03*
Y75991D02*
D03*
X33321Y72091D02*
D03*
Y73431D02*
D03*
X38621D02*
D03*
Y72091D02*
D03*
D249*
X42404Y22849D02*
D03*
X41064D02*
D03*
Y17549D02*
D03*
X42404D02*
D03*
Y63349D02*
D03*
X41064D02*
D03*
Y58049D02*
D03*
X42404D02*
D03*
D250*
X5061Y23191D02*
D03*
Y27923D02*
D03*
Y63691D02*
D03*
Y68423D02*
D03*
D251*
X6131Y25061D02*
D03*
Y26053D02*
D03*
X6921D02*
D03*
Y25061D02*
D03*
X6131Y65561D02*
D03*
Y66553D02*
D03*
X6921D02*
D03*
Y65561D02*
D03*
D252*
X4401Y32531D02*
D03*
Y35291D02*
D03*
Y73031D02*
D03*
Y75791D02*
D03*
D253*
X3421Y33021D02*
D03*
Y34801D02*
D03*
Y73521D02*
D03*
Y75301D02*
D03*
D254*
X41511Y32386D02*
D03*
Y34386D02*
D03*
Y36386D02*
D03*
Y30386D02*
D03*
Y28386D02*
D03*
Y26386D02*
D03*
Y72886D02*
D03*
Y74886D02*
D03*
Y76886D02*
D03*
Y70886D02*
D03*
Y68886D02*
D03*
Y66886D02*
D03*
D255*
X41741Y10111D02*
D03*
Y9111D02*
D03*
Y8111D02*
D03*
Y7111D02*
D03*
Y50611D02*
D03*
Y49611D02*
D03*
Y48611D02*
D03*
Y47611D02*
D03*
M02*
