G04 Layer_Color=32896*
%FSLAX24Y24*%
%MOIN*%
G70*
G01*
G75*
%ADD127C,0.0060*%
D127*
X34761Y33191D02*
Y32991D01*
X34661Y32891D01*
X34561Y32991D01*
Y33191D01*
X34461D02*
X34361D01*
X34411D01*
Y32891D01*
X34461D01*
X34361D01*
X34211D02*
Y33191D01*
X34011Y32891D01*
Y33191D01*
X33411D02*
X33611D01*
Y33041D01*
X33511D01*
X33611D01*
Y32891D01*
X33112Y33191D02*
X33311D01*
Y32891D01*
X33112D01*
X33311Y33041D02*
X33212D01*
X33012Y33191D02*
X32812D01*
X32912D01*
Y32891D01*
X32712D02*
X32562D01*
X32512Y32941D01*
X32562Y32991D01*
X32662D01*
X32712Y33041D01*
X32662Y33091D01*
X32512D01*
X38591Y33721D02*
Y33521D01*
X38491Y33421D01*
X38391Y33521D01*
Y33721D01*
X38291D02*
X38191D01*
X38241D01*
Y33421D01*
X38291D01*
X38191D01*
X38041D02*
Y33721D01*
X37841Y33421D01*
Y33721D01*
X37441D02*
Y33421D01*
X37291D01*
X37241Y33471D01*
Y33521D01*
X37291Y33571D01*
X37441D01*
X37291D01*
X37241Y33621D01*
Y33671D01*
X37291Y33721D01*
X37441D01*
X36942D02*
X37141D01*
Y33421D01*
X36942D01*
X37141Y33571D02*
X37042D01*
X36842Y33721D02*
Y33421D01*
X36692D01*
X36642Y33471D01*
Y33671D01*
X36692Y33721D01*
X36842D01*
X40767Y9218D02*
X40817Y9268D01*
X40917D01*
X40967Y9218D01*
Y9018D01*
X40917Y8968D01*
X40817D01*
X40767Y9018D01*
Y9118D01*
X40867D01*
X40667Y8968D02*
Y9268D01*
X40467Y8968D01*
Y9268D01*
X40367D02*
Y8968D01*
X40217D01*
X40167Y9018D01*
Y9218D01*
X40217Y9268D01*
X40367D01*
X3951Y35891D02*
X3751D01*
X3651Y35991D01*
X3751Y36091D01*
X3951D01*
Y36191D02*
X3651D01*
X3801D01*
Y36391D01*
X3951D01*
X3651D01*
X3951Y36691D02*
Y36491D01*
X3651D01*
Y36691D01*
X3801Y36491D02*
Y36591D01*
X3651Y36791D02*
X3851D01*
X3951Y36891D01*
X3851Y36991D01*
X3651D01*
X3801D01*
Y36791D01*
X3951Y37091D02*
Y37291D01*
Y37191D01*
X3651D01*
X5488Y7752D02*
X5188Y7952D01*
X5488D02*
X5188Y7752D01*
X5338Y8052D02*
Y8252D01*
X5188Y8352D02*
X5388D01*
X5488Y8452D01*
X5388Y8552D01*
X5188D01*
X5338D01*
Y8352D01*
X5188Y8652D02*
Y8752D01*
Y8702D01*
X5488D01*
X5438Y8652D01*
X6488Y7652D02*
X6188Y7852D01*
X6488D02*
X6188Y7652D01*
X6338Y7952D02*
Y8152D01*
X6188Y8252D02*
X6388D01*
X6488Y8352D01*
X6388Y8452D01*
X6188D01*
X6338D01*
Y8252D01*
X6188Y8752D02*
Y8552D01*
X6388Y8752D01*
X6438D01*
X6488Y8702D01*
Y8602D01*
X6438Y8552D01*
X7488Y7752D02*
X7188Y7952D01*
X7488D02*
X7188Y7752D01*
X7338Y8052D02*
Y8252D01*
X7488Y8352D02*
X7188D01*
Y8502D01*
X7238Y8552D01*
X7288D01*
X7338Y8502D01*
Y8352D01*
Y8502D01*
X7388Y8552D01*
X7438D01*
X7488Y8502D01*
Y8352D01*
X7188Y8652D02*
Y8752D01*
Y8702D01*
X7488D01*
X7438Y8652D01*
X8488Y7652D02*
X8188Y7852D01*
X8488D02*
X8188Y7652D01*
X8338Y7952D02*
Y8152D01*
X8488Y8252D02*
X8188D01*
Y8402D01*
X8238Y8452D01*
X8288D01*
X8338Y8402D01*
Y8252D01*
Y8402D01*
X8388Y8452D01*
X8438D01*
X8488Y8402D01*
Y8252D01*
X8188Y8752D02*
Y8552D01*
X8388Y8752D01*
X8438D01*
X8488Y8702D01*
Y8602D01*
X8438Y8552D01*
X15453Y7652D02*
X15403D01*
X15303Y7752D01*
X15403Y7852D01*
X15453D01*
X15303Y7752D02*
X15153D01*
X15303Y7952D02*
Y8152D01*
X15453Y8252D02*
X15153D01*
Y8402D01*
X15203Y8452D01*
X15253D01*
X15303Y8402D01*
Y8252D01*
Y8402D01*
X15353Y8452D01*
X15403D01*
X15453Y8402D01*
Y8252D01*
X15153Y8752D02*
Y8552D01*
X15353Y8752D01*
X15403D01*
X15453Y8702D01*
Y8602D01*
X15403Y8552D01*
X14453Y7752D02*
X14403D01*
X14303Y7852D01*
X14403Y7952D01*
X14453D01*
X14303Y7852D02*
X14153D01*
X14303Y8052D02*
Y8252D01*
X14453Y8352D02*
X14153D01*
Y8502D01*
X14203Y8552D01*
X14253D01*
X14303Y8502D01*
Y8352D01*
Y8502D01*
X14353Y8552D01*
X14403D01*
X14453Y8502D01*
Y8352D01*
X14153Y8652D02*
Y8752D01*
Y8702D01*
X14453D01*
X14403Y8652D01*
X13453Y7652D02*
X13403D01*
X13303Y7752D01*
X13403Y7852D01*
X13453D01*
X13303Y7752D02*
X13153D01*
X13303Y7952D02*
Y8152D01*
X13153Y8252D02*
X13353D01*
X13453Y8352D01*
X13353Y8452D01*
X13153D01*
X13303D01*
Y8252D01*
X13153Y8752D02*
Y8552D01*
X13353Y8752D01*
X13403D01*
X13453Y8702D01*
Y8602D01*
X13403Y8552D01*
X12531Y7752D02*
X12481D01*
X12381Y7852D01*
X12481Y7952D01*
X12531D01*
X12381Y7852D02*
X12231D01*
X12381Y8052D02*
Y8252D01*
X12231Y8352D02*
X12431D01*
X12531Y8452D01*
X12431Y8552D01*
X12231D01*
X12381D01*
Y8352D01*
X12231Y8652D02*
Y8752D01*
Y8702D01*
X12531D01*
X12481Y8652D01*
X22523Y7652D02*
Y7852D01*
X22473D01*
X22273Y7652D01*
X22223D01*
Y7852D01*
X22373Y7952D02*
Y8152D01*
X22523Y8252D02*
X22223D01*
Y8402D01*
X22273Y8452D01*
X22323D01*
X22373Y8402D01*
Y8252D01*
Y8402D01*
X22423Y8452D01*
X22473D01*
X22523Y8402D01*
Y8252D01*
X22223Y8752D02*
Y8552D01*
X22423Y8752D01*
X22473D01*
X22523Y8702D01*
Y8602D01*
X22473Y8552D01*
X21523Y7752D02*
Y7952D01*
X21473D01*
X21273Y7752D01*
X21223D01*
Y7952D01*
X21373Y8052D02*
Y8252D01*
X21523Y8352D02*
X21223D01*
Y8502D01*
X21273Y8552D01*
X21323D01*
X21373Y8502D01*
Y8352D01*
Y8502D01*
X21423Y8552D01*
X21473D01*
X21523Y8502D01*
Y8352D01*
X21223Y8652D02*
Y8752D01*
Y8702D01*
X21523D01*
X21473Y8652D01*
X20523Y7652D02*
Y7852D01*
X20473D01*
X20273Y7652D01*
X20223D01*
Y7852D01*
X20373Y7952D02*
Y8152D01*
X20223Y8252D02*
X20423D01*
X20523Y8352D01*
X20423Y8452D01*
X20223D01*
X20373D01*
Y8252D01*
X20223Y8752D02*
Y8552D01*
X20423Y8752D01*
X20473D01*
X20523Y8702D01*
Y8602D01*
X20473Y8552D01*
X19523Y7752D02*
Y7952D01*
X19473D01*
X19273Y7752D01*
X19223D01*
Y7952D01*
X19373Y8052D02*
Y8252D01*
X19223Y8352D02*
X19423D01*
X19523Y8452D01*
X19423Y8552D01*
X19223D01*
X19373D01*
Y8352D01*
X19223Y8652D02*
Y8752D01*
Y8702D01*
X19523D01*
X19473Y8652D01*
X29642Y7602D02*
Y7402D01*
X29343D01*
Y7602D01*
X29492Y7402D02*
Y7502D01*
X29343Y7702D02*
Y7802D01*
Y7752D01*
X29642D01*
X29592Y7702D01*
X29492Y7952D02*
Y8152D01*
X29642Y8252D02*
X29343D01*
Y8402D01*
X29392Y8452D01*
X29442D01*
X29492Y8402D01*
Y8252D01*
Y8402D01*
X29542Y8452D01*
X29592D01*
X29642Y8402D01*
Y8252D01*
X29343Y8752D02*
Y8552D01*
X29542Y8752D01*
X29592D01*
X29642Y8702D01*
Y8602D01*
X29592Y8552D01*
X28619Y7702D02*
Y7502D01*
X28319D01*
Y7702D01*
X28469Y7502D02*
Y7602D01*
X28319Y7802D02*
Y7902D01*
Y7852D01*
X28619D01*
X28569Y7802D01*
X28469Y8052D02*
Y8252D01*
X28619Y8352D02*
X28319D01*
Y8502D01*
X28369Y8552D01*
X28419D01*
X28469Y8502D01*
Y8352D01*
Y8502D01*
X28519Y8552D01*
X28569D01*
X28619Y8502D01*
Y8352D01*
X28319Y8652D02*
Y8752D01*
Y8702D01*
X28619D01*
X28569Y8652D01*
X27635Y7602D02*
Y7402D01*
X27335D01*
Y7602D01*
X27485Y7402D02*
Y7502D01*
X27335Y7702D02*
Y7802D01*
Y7752D01*
X27635D01*
X27585Y7702D01*
X27485Y7952D02*
Y8152D01*
X27335Y8252D02*
X27535D01*
X27635Y8352D01*
X27535Y8452D01*
X27335D01*
X27485D01*
Y8252D01*
X27335Y8752D02*
Y8552D01*
X27535Y8752D01*
X27585D01*
X27635Y8702D01*
Y8602D01*
X27585Y8552D01*
X26611Y7702D02*
Y7502D01*
X26311D01*
Y7702D01*
X26461Y7502D02*
Y7602D01*
X26311Y7802D02*
Y7902D01*
Y7852D01*
X26611D01*
X26561Y7802D01*
X26461Y8052D02*
Y8252D01*
X26311Y8352D02*
X26511D01*
X26611Y8452D01*
X26511Y8552D01*
X26311D01*
X26461D01*
Y8352D01*
X26311Y8652D02*
Y8752D01*
Y8702D01*
X26611D01*
X26561Y8652D01*
X36700Y7545D02*
Y7345D01*
X36400D01*
Y7545D01*
X36550Y7345D02*
Y7445D01*
X36400Y7845D02*
Y7645D01*
X36600Y7845D01*
X36650D01*
X36700Y7795D01*
Y7695D01*
X36650Y7645D01*
X36550Y7945D02*
Y8144D01*
X36700Y8244D02*
X36400D01*
Y8394D01*
X36450Y8444D01*
X36500D01*
X36550Y8394D01*
Y8244D01*
Y8394D01*
X36600Y8444D01*
X36650D01*
X36700Y8394D01*
Y8244D01*
X36400Y8744D02*
Y8544D01*
X36600Y8744D01*
X36650D01*
X36700Y8694D01*
Y8594D01*
X36650Y8544D01*
X35735Y7645D02*
Y7445D01*
X35435D01*
Y7645D01*
X35585Y7445D02*
Y7545D01*
X35435Y7945D02*
Y7745D01*
X35635Y7945D01*
X35685D01*
X35735Y7895D01*
Y7795D01*
X35685Y7745D01*
X35585Y8044D02*
Y8244D01*
X35735Y8344D02*
X35435D01*
Y8494D01*
X35485Y8544D01*
X35535D01*
X35585Y8494D01*
Y8344D01*
Y8494D01*
X35635Y8544D01*
X35685D01*
X35735Y8494D01*
Y8344D01*
X35435Y8644D02*
Y8744D01*
Y8694D01*
X35735D01*
X35685Y8644D01*
X34711Y7545D02*
Y7345D01*
X34411D01*
Y7545D01*
X34561Y7345D02*
Y7445D01*
X34411Y7845D02*
Y7645D01*
X34611Y7845D01*
X34661D01*
X34711Y7795D01*
Y7695D01*
X34661Y7645D01*
X34561Y7945D02*
Y8144D01*
X34411Y8244D02*
X34611D01*
X34711Y8344D01*
X34611Y8444D01*
X34411D01*
X34561D01*
Y8244D01*
X34411Y8744D02*
Y8544D01*
X34611Y8744D01*
X34661D01*
X34711Y8694D01*
Y8594D01*
X34661Y8544D01*
X33725Y7645D02*
Y7445D01*
X33425D01*
Y7645D01*
X33575Y7445D02*
Y7545D01*
X33425Y7945D02*
Y7745D01*
X33625Y7945D01*
X33675D01*
X33725Y7895D01*
Y7795D01*
X33675Y7745D01*
X33575Y8044D02*
Y8244D01*
X33425Y8344D02*
X33625D01*
X33725Y8444D01*
X33625Y8544D01*
X33425D01*
X33575D01*
Y8344D01*
X33425Y8644D02*
Y8744D01*
Y8694D01*
X33725D01*
X33675Y8644D01*
X4790Y24776D02*
X4540D01*
X4490Y24826D01*
Y24926D01*
X4540Y24976D01*
X4790D01*
X4740Y25275D02*
X4790Y25225D01*
Y25125D01*
X4740Y25075D01*
X4690D01*
X4640Y25125D01*
Y25225D01*
X4590Y25275D01*
X4540D01*
X4490Y25225D01*
Y25125D01*
X4540Y25075D01*
X4790Y25375D02*
X4490D01*
Y25525D01*
X4540Y25575D01*
X4590D01*
X4640Y25525D01*
Y25375D01*
Y25525D01*
X4690Y25575D01*
X4740D01*
X4790Y25525D01*
Y25375D01*
X4740Y25875D02*
X4790Y25825D01*
Y25725D01*
X4740Y25675D01*
X4540D01*
X4490Y25725D01*
Y25825D01*
X4540Y25875D01*
X4640D01*
Y25775D01*
X4490Y25975D02*
X4790D01*
X4490Y26175D01*
X4790D01*
Y26275D02*
X4490D01*
Y26425D01*
X4540Y26475D01*
X4740D01*
X4790Y26425D01*
Y26275D01*
X8274Y23772D02*
X8024D01*
X7974Y23822D01*
Y23922D01*
X8024Y23972D01*
X8274D01*
X8224Y24271D02*
X8274Y24222D01*
Y24122D01*
X8224Y24072D01*
X8174D01*
X8124Y24122D01*
Y24222D01*
X8074Y24271D01*
X8024D01*
X7974Y24222D01*
Y24122D01*
X8024Y24072D01*
X8274Y24371D02*
X7974D01*
Y24521D01*
X8024Y24571D01*
X8074D01*
X8124Y24521D01*
Y24371D01*
Y24521D01*
X8174Y24571D01*
X8224D01*
X8274Y24521D01*
Y24371D01*
Y24871D02*
Y24671D01*
X8124D01*
X8174Y24771D01*
Y24821D01*
X8124Y24871D01*
X8024D01*
X7974Y24821D01*
Y24721D01*
X8024Y24671D01*
X8274Y24971D02*
X8074D01*
X7974Y25071D01*
X8074Y25171D01*
X8274D01*
X8959Y26916D02*
Y26666D01*
X8909Y26616D01*
X8809D01*
X8759Y26666D01*
Y26916D01*
X8459Y26866D02*
X8509Y26916D01*
X8609D01*
X8659Y26866D01*
Y26816D01*
X8609Y26766D01*
X8509D01*
X8459Y26716D01*
Y26666D01*
X8509Y26616D01*
X8609D01*
X8659Y26666D01*
X8359Y26916D02*
Y26616D01*
X8209D01*
X8159Y26666D01*
Y26716D01*
X8209Y26766D01*
X8359D01*
X8209D01*
X8159Y26816D01*
Y26866D01*
X8209Y26916D01*
X8359D01*
X8059Y26616D02*
Y26916D01*
X7909D01*
X7859Y26866D01*
Y26766D01*
X7909Y26716D01*
X8059D01*
X42581Y35471D02*
X42631Y35421D01*
Y35321D01*
X42581Y35271D01*
X42381D01*
X42331Y35321D01*
Y35421D01*
X42381Y35471D01*
X42481D01*
Y35371D01*
X42331Y35571D02*
X42631D01*
X42331Y35771D01*
X42631D01*
Y35871D02*
X42331D01*
Y36021D01*
X42381Y36071D01*
X42581D01*
X42631Y36021D01*
Y35871D01*
X31111Y27271D02*
X30911Y26971D01*
Y27271D02*
X31111Y26971D01*
X30811Y27121D02*
X30611D01*
X30511Y26971D02*
Y27271D01*
X30411Y27171D01*
X30311Y27271D01*
Y26971D01*
X30211Y27271D02*
X30111D01*
X30161D01*
Y26971D01*
X30211D01*
X30111D01*
X29961D02*
Y27271D01*
X29761Y26971D01*
Y27271D01*
X20280Y13368D02*
X20580D01*
Y13518D01*
X20530Y13568D01*
X20430D01*
X20380Y13518D01*
Y13368D01*
X20580Y13668D02*
X20280D01*
Y13818D01*
X20330Y13868D01*
X20380D01*
X20430Y13818D01*
Y13668D01*
Y13818D01*
X20480Y13868D01*
X20530D01*
X20580Y13818D01*
Y13668D01*
X20530Y13968D02*
X20580Y14018D01*
Y14118D01*
X20530Y14168D01*
X20330D01*
X20280Y14118D01*
Y14018D01*
X20330Y13968D01*
X20530D01*
X20230Y14268D02*
Y14468D01*
X20580Y14768D02*
Y14568D01*
X20280D01*
Y14768D01*
X20430Y14568D02*
Y14668D01*
X20580Y14868D02*
Y15068D01*
Y14968D01*
X20280D01*
X20580Y15168D02*
X20280Y15368D01*
X20580D02*
X20280Y15168D01*
X20530Y15667D02*
X20580Y15618D01*
Y15518D01*
X20530Y15468D01*
X20330D01*
X20280Y15518D01*
Y15618D01*
X20330Y15667D01*
X20580Y15767D02*
X20280D01*
X20380D01*
X20580Y15967D01*
X20430Y15817D01*
X20280Y15967D01*
X19690Y13668D02*
X19990D01*
Y13818D01*
X19940Y13868D01*
X19840D01*
X19790Y13818D01*
Y13668D01*
X19990Y13968D02*
X19690D01*
Y14118D01*
X19740Y14168D01*
X19790D01*
X19840Y14118D01*
Y13968D01*
Y14118D01*
X19890Y14168D01*
X19940D01*
X19990Y14118D01*
Y13968D01*
X19690Y14468D02*
Y14268D01*
X19890Y14468D01*
X19940D01*
X19990Y14418D01*
Y14318D01*
X19940Y14268D01*
X19640Y14568D02*
Y14768D01*
X19990Y15068D02*
Y14868D01*
X19690D01*
Y15068D01*
X19840Y14868D02*
Y14968D01*
X19990Y15168D02*
Y15368D01*
Y15268D01*
X19690D01*
X19990Y15468D02*
X19690Y15667D01*
X19990D02*
X19690Y15468D01*
X19940Y15767D02*
X19990Y15817D01*
Y15917D01*
X19940Y15967D01*
X19740D01*
X19690Y15917D01*
Y15817D01*
X19740Y15767D01*
X19940D01*
X19101Y13668D02*
X19400D01*
Y13818D01*
X19350Y13868D01*
X19250D01*
X19201Y13818D01*
Y13668D01*
X19400Y13968D02*
X19101D01*
Y14118D01*
X19151Y14168D01*
X19201D01*
X19250Y14118D01*
Y13968D01*
Y14118D01*
X19300Y14168D01*
X19350D01*
X19400Y14118D01*
Y13968D01*
Y14468D02*
Y14268D01*
X19250D01*
X19300Y14368D01*
Y14418D01*
X19250Y14468D01*
X19151D01*
X19101Y14418D01*
Y14318D01*
X19151Y14268D01*
X19051Y14568D02*
Y14768D01*
X19400Y15068D02*
Y14868D01*
X19101D01*
Y15068D01*
X19250Y14868D02*
Y14968D01*
X19101Y15168D02*
X19400D01*
Y15318D01*
X19350Y15368D01*
X19250D01*
X19201Y15318D01*
Y15168D01*
Y15268D02*
X19101Y15368D01*
X19400Y15468D02*
X19101Y15667D01*
X19400D02*
X19101Y15468D01*
X19350Y15767D02*
X19400Y15817D01*
Y15917D01*
X19350Y15967D01*
X19151D01*
X19101Y15917D01*
Y15817D01*
X19151Y15767D01*
X19350D01*
X18511Y13068D02*
X18811D01*
Y13218D01*
X18761Y13268D01*
X18661D01*
X18611Y13218D01*
Y13068D01*
X18811Y13368D02*
X18511D01*
Y13518D01*
X18561Y13568D01*
X18611D01*
X18661Y13518D01*
Y13368D01*
Y13518D01*
X18711Y13568D01*
X18761D01*
X18811Y13518D01*
Y13368D01*
X18511Y13818D02*
X18811D01*
X18661Y13668D01*
Y13868D01*
X18461Y13968D02*
Y14168D01*
X18811Y14468D02*
Y14268D01*
X18511D01*
Y14468D01*
X18661Y14268D02*
Y14368D01*
X18761Y14768D02*
X18811Y14718D01*
Y14618D01*
X18761Y14568D01*
X18561D01*
X18511Y14618D01*
Y14718D01*
X18561Y14768D01*
X18511Y14868D02*
X18811D01*
Y15018D01*
X18761Y15068D01*
X18661D01*
X18611Y15018D01*
Y14868D01*
Y14968D02*
X18511Y15068D01*
X18761Y15368D02*
X18811Y15318D01*
Y15218D01*
X18761Y15168D01*
X18711D01*
X18661Y15218D01*
Y15318D01*
X18611Y15368D01*
X18561D01*
X18511Y15318D01*
Y15218D01*
X18561Y15168D01*
X18811Y15468D02*
X18511D01*
Y15618D01*
X18561Y15667D01*
X18761D01*
X18811Y15618D01*
Y15468D01*
Y15767D02*
X18611D01*
X18511Y15867D01*
X18611Y15967D01*
X18811D01*
X17921Y13368D02*
X18221D01*
Y13518D01*
X18171Y13568D01*
X18071D01*
X18021Y13518D01*
Y13368D01*
X18221Y13668D02*
X17921D01*
Y13818D01*
X17971Y13868D01*
X18021D01*
X18071Y13818D01*
Y13668D01*
Y13818D01*
X18121Y13868D01*
X18171D01*
X18221Y13818D01*
Y13668D01*
Y13968D02*
Y14168D01*
X18171D01*
X17971Y13968D01*
X17921D01*
X17872Y14268D02*
Y14468D01*
X18221Y14768D02*
Y14568D01*
X17921D01*
Y14768D01*
X18071Y14568D02*
Y14668D01*
X17921Y14868D02*
X18221D01*
Y15018D01*
X18171Y15068D01*
X18071D01*
X18021Y15018D01*
Y14868D01*
Y14968D02*
X17921Y15068D01*
X18221Y15168D02*
X17921Y15368D01*
X18221D02*
X17921Y15168D01*
X18221Y15667D02*
Y15468D01*
X17921D01*
Y15667D01*
X18071Y15468D02*
Y15568D01*
X17921Y15767D02*
X18221D01*
Y15917D01*
X18171Y15967D01*
X18071D01*
X18021Y15917D01*
Y15767D01*
Y15867D02*
X17921Y15967D01*
X20869Y13418D02*
X21169D01*
Y13568D01*
X21119Y13618D01*
X21019D01*
X20969Y13568D01*
Y13418D01*
X20869Y13718D02*
X21069D01*
X21169Y13818D01*
X21069Y13918D01*
X20869D01*
X21019D01*
Y13718D01*
X20869Y14218D02*
Y14018D01*
X21069Y14218D01*
X21119D01*
X21169Y14168D01*
Y14068D01*
X21119Y14018D01*
X21169Y14518D02*
Y14318D01*
X21019D01*
X21069Y14418D01*
Y14468D01*
X21019Y14518D01*
X20919D01*
X20869Y14468D01*
Y14368D01*
X20919Y14318D01*
X20819Y14618D02*
Y14818D01*
X20869Y14918D02*
X21169D01*
X21069Y15018D01*
X21169Y15118D01*
X20869D01*
X21169Y15218D02*
Y15318D01*
Y15268D01*
X20869D01*
Y15218D01*
Y15318D01*
X21119Y15667D02*
X21169Y15618D01*
Y15518D01*
X21119Y15468D01*
X21069D01*
X21019Y15518D01*
Y15618D01*
X20969Y15667D01*
X20919D01*
X20869Y15618D01*
Y15518D01*
X20919Y15468D01*
X21169Y15917D02*
Y15817D01*
X21119Y15767D01*
X20919D01*
X20869Y15817D01*
Y15917D01*
X20919Y15967D01*
X21119D01*
X21169Y15917D01*
X21459Y13368D02*
X21759D01*
Y13518D01*
X21709Y13568D01*
X21609D01*
X21559Y13518D01*
Y13368D01*
X21459Y13668D02*
X21659D01*
X21759Y13768D01*
X21659Y13868D01*
X21459D01*
X21609D01*
Y13668D01*
X21459Y14168D02*
Y13968D01*
X21659Y14168D01*
X21709D01*
X21759Y14118D01*
Y14018D01*
X21709Y13968D01*
X21759Y14268D02*
Y14468D01*
X21709D01*
X21509Y14268D01*
X21459D01*
X21409Y14568D02*
Y14768D01*
X21709Y15068D02*
X21759Y15018D01*
Y14918D01*
X21709Y14868D01*
X21659D01*
X21609Y14918D01*
Y15018D01*
X21559Y15068D01*
X21509D01*
X21459Y15018D01*
Y14918D01*
X21509Y14868D01*
X21709Y15368D02*
X21759Y15318D01*
Y15218D01*
X21709Y15168D01*
X21509D01*
X21459Y15218D01*
Y15318D01*
X21509Y15368D01*
X21759Y15468D02*
X21459D01*
Y15667D01*
X21759Y15767D02*
X21459D01*
X21559D01*
X21759Y15967D01*
X21609Y15817D01*
X21459Y15967D01*
X21471Y18299D02*
X21771D01*
Y18449D01*
X21721Y18499D01*
X21621D01*
X21571Y18449D01*
Y18299D01*
X21771Y18599D02*
X21471D01*
Y18749D01*
X21521Y18799D01*
X21571D01*
X21621Y18749D01*
Y18599D01*
Y18749D01*
X21671Y18799D01*
X21721D01*
X21771Y18749D01*
Y18599D01*
X21471Y19099D02*
Y18899D01*
X21671Y19099D01*
X21721D01*
X21771Y19049D01*
Y18949D01*
X21721Y18899D01*
X21471Y19199D02*
Y19299D01*
Y19249D01*
X21771D01*
X21721Y19199D01*
X21421Y19449D02*
Y19649D01*
X21721Y19949D02*
X21771Y19899D01*
Y19799D01*
X21721Y19749D01*
X21521D01*
X21471Y19799D01*
Y19899D01*
X21521Y19949D01*
X21721Y20249D02*
X21771Y20199D01*
Y20099D01*
X21721Y20049D01*
X21671D01*
X21621Y20099D01*
Y20199D01*
X21571Y20249D01*
X21521D01*
X21471Y20199D01*
Y20099D01*
X21521Y20049D01*
X21471Y20548D02*
Y20349D01*
X21671Y20548D01*
X21721D01*
X21771Y20498D01*
Y20399D01*
X21721Y20349D01*
X20879Y18299D02*
X21179D01*
Y18449D01*
X21129Y18499D01*
X21029D01*
X20979Y18449D01*
Y18299D01*
X20879Y18599D02*
X21079D01*
X21179Y18699D01*
X21079Y18799D01*
X20879D01*
X21029D01*
Y18599D01*
X20879Y19099D02*
Y18899D01*
X21079Y19099D01*
X21129D01*
X21179Y19049D01*
Y18949D01*
X21129Y18899D01*
X21179Y19399D02*
X21129Y19299D01*
X21029Y19199D01*
X20929D01*
X20879Y19249D01*
Y19349D01*
X20929Y19399D01*
X20979D01*
X21029Y19349D01*
Y19199D01*
X20829Y19499D02*
Y19699D01*
X20879Y19799D02*
X21179D01*
X21079Y19899D01*
X21179Y19999D01*
X20879D01*
X21179Y20249D02*
Y20149D01*
X21129Y20099D01*
X20929D01*
X20879Y20149D01*
Y20249D01*
X20929Y20299D01*
X21129D01*
X21179Y20249D01*
X21129Y20598D02*
X21179Y20548D01*
Y20449D01*
X21129Y20399D01*
X21079D01*
X21029Y20449D01*
Y20548D01*
X20979Y20598D01*
X20929D01*
X20879Y20548D01*
Y20449D01*
X20929Y20399D01*
X21179Y20698D02*
Y20798D01*
Y20748D01*
X20879D01*
Y20698D01*
Y20798D01*
X17922Y18299D02*
X18222D01*
Y18449D01*
X18172Y18499D01*
X18072D01*
X18022Y18449D01*
Y18299D01*
X18222Y18599D02*
X17922D01*
Y18749D01*
X17972Y18799D01*
X18022D01*
X18072Y18749D01*
Y18599D01*
Y18749D01*
X18122Y18799D01*
X18172D01*
X18222Y18749D01*
Y18599D01*
X17972Y18899D02*
X17922Y18949D01*
Y19049D01*
X17972Y19099D01*
X18172D01*
X18222Y19049D01*
Y18949D01*
X18172Y18899D01*
X18122D01*
X18072Y18949D01*
Y19099D01*
X17872Y19199D02*
Y19399D01*
X18222Y19699D02*
Y19499D01*
X17922D01*
Y19699D01*
X18072Y19499D02*
Y19599D01*
X17922Y19799D02*
X18222D01*
X18122Y19899D01*
X18222Y19999D01*
X17922D01*
X18222Y20099D02*
X17922D01*
Y20249D01*
X17972Y20299D01*
X18172D01*
X18222Y20249D01*
Y20099D01*
Y20399D02*
Y20498D01*
Y20449D01*
X17922D01*
Y20399D01*
Y20498D01*
X18222Y20798D02*
Y20698D01*
X18172Y20648D01*
X17972D01*
X17922Y20698D01*
Y20798D01*
X17972Y20848D01*
X18172D01*
X18222Y20798D01*
X18513Y18299D02*
X18813D01*
Y18449D01*
X18763Y18499D01*
X18663D01*
X18613Y18449D01*
Y18299D01*
X18813Y18599D02*
X18513D01*
Y18749D01*
X18563Y18799D01*
X18613D01*
X18663Y18749D01*
Y18599D01*
Y18749D01*
X18713Y18799D01*
X18763D01*
X18813Y18749D01*
Y18599D01*
X18763Y18899D02*
X18813Y18949D01*
Y19049D01*
X18763Y19099D01*
X18713D01*
X18663Y19049D01*
X18613Y19099D01*
X18563D01*
X18513Y19049D01*
Y18949D01*
X18563Y18899D01*
X18613D01*
X18663Y18949D01*
X18713Y18899D01*
X18763D01*
X18663Y18949D02*
Y19049D01*
X18463Y19199D02*
Y19399D01*
X18813Y19699D02*
Y19499D01*
X18513D01*
Y19699D01*
X18663Y19499D02*
Y19599D01*
X18513Y19799D02*
X18813D01*
X18713Y19899D01*
X18813Y19999D01*
X18513D01*
X18813Y20099D02*
X18513D01*
Y20249D01*
X18563Y20299D01*
X18763D01*
X18813Y20249D01*
Y20099D01*
X18763Y20598D02*
X18813Y20548D01*
Y20449D01*
X18763Y20399D01*
X18563D01*
X18513Y20449D01*
Y20548D01*
X18563Y20598D01*
X19105Y18299D02*
X19405D01*
Y18449D01*
X19355Y18499D01*
X19255D01*
X19205Y18449D01*
Y18299D01*
X19405Y18599D02*
X19105D01*
Y18749D01*
X19155Y18799D01*
X19205D01*
X19255Y18749D01*
Y18599D01*
Y18749D01*
X19305Y18799D01*
X19355D01*
X19405Y18749D01*
Y18599D01*
Y19099D02*
X19355Y18999D01*
X19255Y18899D01*
X19155D01*
X19105Y18949D01*
Y19049D01*
X19155Y19099D01*
X19205D01*
X19255Y19049D01*
Y18899D01*
X19055Y19199D02*
Y19399D01*
X19405Y19699D02*
Y19499D01*
X19105D01*
Y19699D01*
X19255Y19499D02*
Y19599D01*
X19105Y19799D02*
X19405D01*
Y19949D01*
X19355Y19999D01*
X19255D01*
X19205Y19949D01*
Y19799D01*
Y19899D02*
X19105Y19999D01*
X19405Y20099D02*
X19105Y20299D01*
X19405D02*
X19105Y20099D01*
Y20399D02*
Y20498D01*
Y20449D01*
X19405D01*
X19355Y20399D01*
X19696Y18299D02*
X19996D01*
Y18449D01*
X19946Y18499D01*
X19846D01*
X19796Y18449D01*
Y18299D01*
X19996Y18599D02*
X19696D01*
Y18749D01*
X19746Y18799D01*
X19796D01*
X19846Y18749D01*
Y18599D01*
Y18749D01*
X19896Y18799D01*
X19946D01*
X19996Y18749D01*
Y18599D01*
X19946Y18899D02*
X19996Y18949D01*
Y19049D01*
X19946Y19099D01*
X19896D01*
X19846Y19049D01*
Y18999D01*
Y19049D01*
X19796Y19099D01*
X19746D01*
X19696Y19049D01*
Y18949D01*
X19746Y18899D01*
X19646Y19199D02*
Y19399D01*
X19996Y19699D02*
Y19499D01*
X19696D01*
Y19699D01*
X19846Y19499D02*
Y19599D01*
X19996Y19799D02*
Y19999D01*
Y19899D01*
X19696D01*
X19996Y20099D02*
X19696Y20299D01*
X19996D02*
X19696Y20099D01*
Y20399D02*
Y20498D01*
Y20449D01*
X19996D01*
X19946Y20399D01*
X20288Y18299D02*
X20588D01*
Y18449D01*
X20538Y18499D01*
X20438D01*
X20388Y18449D01*
Y18299D01*
X20588Y18599D02*
X20288D01*
Y18749D01*
X20338Y18799D01*
X20388D01*
X20438Y18749D01*
Y18599D01*
Y18749D01*
X20488Y18799D01*
X20538D01*
X20588Y18749D01*
Y18599D01*
X20288Y18899D02*
Y18999D01*
Y18949D01*
X20588D01*
X20538Y18899D01*
X20238Y19149D02*
Y19349D01*
X20588Y19649D02*
Y19449D01*
X20288D01*
Y19649D01*
X20438Y19449D02*
Y19549D01*
X20588Y19749D02*
Y19949D01*
Y19849D01*
X20288D01*
X20588Y20049D02*
X20288Y20249D01*
X20588D02*
X20288Y20049D01*
X20588Y20548D02*
Y20349D01*
X20288D01*
Y20548D01*
X20438Y20349D02*
Y20449D01*
X20288Y20648D02*
X20588D01*
X20288Y20848D01*
X20588D01*
X32251Y17918D02*
Y17818D01*
X32201Y17768D01*
X32001D01*
X31951Y17818D01*
Y17918D01*
X32001Y17968D01*
X32201D01*
X32251Y17918D01*
Y18068D02*
X32051D01*
X31951Y18168D01*
X32051Y18268D01*
X32251D01*
X31951Y18368D02*
X32251D01*
Y18517D01*
X32201Y18567D01*
X32101D01*
X32051Y18517D01*
Y18368D01*
Y18467D02*
X31951Y18567D01*
X32251Y18867D02*
Y18667D01*
X31951D01*
Y18867D01*
X32101Y18667D02*
Y18767D01*
X32251Y19167D02*
Y18967D01*
X32101D01*
Y19067D01*
Y18967D01*
X31951D01*
X33481Y19175D02*
Y19375D01*
Y19275D01*
X33181D01*
X33431Y19475D02*
X33481Y19525D01*
Y19625D01*
X33431Y19675D01*
X33381D01*
X33331Y19625D01*
Y19575D01*
Y19625D01*
X33281Y19675D01*
X33231D01*
X33181Y19625D01*
Y19525D01*
X33231Y19475D01*
X30774Y19205D02*
Y19405D01*
Y19305D01*
X30474D01*
Y19705D02*
Y19505D01*
X30674Y19705D01*
X30724D01*
X30774Y19655D01*
Y19555D01*
X30724Y19505D01*
X29003Y19333D02*
Y19533D01*
Y19433D01*
X28703D01*
Y19633D02*
Y19733D01*
Y19683D01*
X29003D01*
X28953Y19633D01*
X36001Y19215D02*
Y19414D01*
Y19315D01*
X35701D01*
Y19664D02*
X36001D01*
X35851Y19514D01*
Y19714D01*
X9482Y38745D02*
X9282D01*
X9182Y38845D01*
X9282Y38945D01*
X9482D01*
Y39045D02*
X9182D01*
X9332D01*
Y39245D01*
X9482D01*
X9182D01*
X9482Y39545D02*
Y39345D01*
X9182D01*
Y39545D01*
X9332Y39345D02*
Y39445D01*
X9182Y39645D02*
X9382D01*
X9482Y39745D01*
X9382Y39845D01*
X9182D01*
X9332D01*
Y39645D01*
X9482Y39944D02*
Y40144D01*
Y40044D01*
X9182D01*
X30652Y13683D02*
X30951D01*
Y13833D01*
X30901Y13883D01*
X30802D01*
X30752Y13833D01*
Y13683D01*
X30652Y13983D02*
X30852D01*
X30951Y14083D01*
X30852Y14183D01*
X30652D01*
X30802D01*
Y13983D01*
X30652Y14483D02*
Y14283D01*
X30852Y14483D01*
X30901D01*
X30951Y14433D01*
Y14333D01*
X30901Y14283D01*
X30951Y14783D02*
Y14583D01*
X30802D01*
X30852Y14683D01*
Y14733D01*
X30802Y14783D01*
X30702D01*
X30652Y14733D01*
Y14633D01*
X30702Y14583D01*
X30602Y14883D02*
Y15083D01*
X30652Y15183D02*
X30951D01*
X30852Y15283D01*
X30951Y15383D01*
X30652D01*
X30951Y15482D02*
Y15582D01*
Y15532D01*
X30652D01*
Y15482D01*
Y15582D01*
X30901Y15932D02*
X30951Y15882D01*
Y15782D01*
X30901Y15732D01*
X30852D01*
X30802Y15782D01*
Y15882D01*
X30752Y15932D01*
X30702D01*
X30652Y15882D01*
Y15782D01*
X30702Y15732D01*
X30951Y16182D02*
Y16082D01*
X30901Y16032D01*
X30702D01*
X30652Y16082D01*
Y16182D01*
X30702Y16232D01*
X30901D01*
X30951Y16182D01*
X29382Y17354D02*
Y17654D01*
X29232D01*
X29182Y17604D01*
Y17504D01*
X29232Y17454D01*
X29382D01*
X29082Y17354D02*
Y17554D01*
X28982Y17654D01*
X28882Y17554D01*
Y17354D01*
Y17504D01*
X29082D01*
X28582Y17354D02*
X28782D01*
X28582Y17554D01*
Y17604D01*
X28632Y17654D01*
X28732D01*
X28782Y17604D01*
X28282Y17654D02*
X28382Y17604D01*
X28482Y17504D01*
Y17404D01*
X28432Y17354D01*
X28332D01*
X28282Y17404D01*
Y17454D01*
X28332Y17504D01*
X28482D01*
X28182Y17304D02*
X27982D01*
X27882Y17354D02*
Y17654D01*
X27782Y17554D01*
X27682Y17654D01*
Y17354D01*
X27433Y17654D02*
X27532D01*
X27582Y17604D01*
Y17404D01*
X27532Y17354D01*
X27433D01*
X27383Y17404D01*
Y17604D01*
X27433Y17654D01*
X27083Y17604D02*
X27133Y17654D01*
X27233D01*
X27283Y17604D01*
Y17554D01*
X27233Y17504D01*
X27133D01*
X27083Y17454D01*
Y17404D01*
X27133Y17354D01*
X27233D01*
X27283Y17404D01*
X26983Y17654D02*
X26883D01*
X26933D01*
Y17354D01*
X26983D01*
X26883D01*
X29667Y13575D02*
X29967D01*
Y13725D01*
X29917Y13775D01*
X29817D01*
X29767Y13725D01*
Y13575D01*
X29667Y13875D02*
X29867D01*
X29967Y13975D01*
X29867Y14075D01*
X29667D01*
X29817D01*
Y13875D01*
X29667Y14375D02*
Y14175D01*
X29867Y14375D01*
X29917D01*
X29967Y14325D01*
Y14225D01*
X29917Y14175D01*
X29967Y14475D02*
Y14674D01*
X29917D01*
X29717Y14475D01*
X29667D01*
X29617Y14774D02*
Y14974D01*
X29917Y15274D02*
X29967Y15224D01*
Y15124D01*
X29917Y15074D01*
X29867D01*
X29817Y15124D01*
Y15224D01*
X29767Y15274D01*
X29717D01*
X29667Y15224D01*
Y15124D01*
X29717Y15074D01*
X29917Y15574D02*
X29967Y15524D01*
Y15424D01*
X29917Y15374D01*
X29717D01*
X29667Y15424D01*
Y15524D01*
X29717Y15574D01*
X29967Y15674D02*
X29667D01*
Y15874D01*
X29967Y15974D02*
X29667D01*
X29767D01*
X29967Y16174D01*
X29817Y16024D01*
X29667Y16174D01*
X37802Y8499D02*
Y8299D01*
X37502D01*
Y8499D01*
X37652Y8299D02*
Y8399D01*
X37502Y8799D02*
Y8599D01*
X37702Y8799D01*
X37752D01*
X37802Y8749D01*
Y8649D01*
X37752Y8599D01*
X37502Y8899D02*
X37802D01*
Y9049D01*
X37752Y9099D01*
X37652D01*
X37602Y9049D01*
Y8899D01*
Y8999D02*
X37502Y9099D01*
X37802Y9399D02*
Y9199D01*
X37502D01*
Y9399D01*
X37652Y9199D02*
Y9299D01*
X37802Y9699D02*
Y9499D01*
X37652D01*
Y9599D01*
Y9499D01*
X37502D01*
X30764Y8588D02*
Y8388D01*
X30465D01*
Y8588D01*
X30615Y8388D02*
Y8488D01*
X30465Y8688D02*
Y8788D01*
Y8738D01*
X30764D01*
X30714Y8688D01*
X30465Y8938D02*
X30764D01*
Y9088D01*
X30714Y9138D01*
X30615D01*
X30565Y9088D01*
Y8938D01*
Y9038D02*
X30465Y9138D01*
X30764Y9437D02*
Y9238D01*
X30465D01*
Y9437D01*
X30615Y9238D02*
Y9337D01*
X30764Y9737D02*
Y9537D01*
X30615D01*
Y9637D01*
Y9537D01*
X30465D01*
X23658Y8614D02*
Y8814D01*
X23608D01*
X23408Y8614D01*
X23358D01*
Y8814D01*
Y8914D02*
X23658D01*
Y9064D01*
X23608Y9114D01*
X23508D01*
X23458Y9064D01*
Y8914D01*
Y9014D02*
X23358Y9114D01*
X23658Y9414D02*
Y9214D01*
X23358D01*
Y9414D01*
X23508Y9214D02*
Y9314D01*
X23658Y9714D02*
Y9514D01*
X23508D01*
Y9614D01*
Y9514D01*
X23358D01*
X16562Y8634D02*
X16512D01*
X16412Y8734D01*
X16512Y8834D01*
X16562D01*
X16412Y8734D02*
X16262D01*
Y8934D02*
X16562D01*
Y9084D01*
X16512Y9134D01*
X16412D01*
X16362Y9084D01*
Y8934D01*
Y9034D02*
X16262Y9134D01*
X16562Y9434D02*
Y9234D01*
X16262D01*
Y9434D01*
X16412Y9234D02*
Y9334D01*
X16562Y9733D02*
Y9534D01*
X16412D01*
Y9634D01*
Y9534D01*
X16262D01*
X9583Y8654D02*
X9283Y8853D01*
X9583D02*
X9283Y8654D01*
Y8953D02*
X9583D01*
Y9103D01*
X9533Y9153D01*
X9433D01*
X9383Y9103D01*
Y8953D01*
Y9053D02*
X9283Y9153D01*
X9583Y9453D02*
Y9253D01*
X9283D01*
Y9453D01*
X9433Y9253D02*
Y9353D01*
X9583Y9753D02*
Y9553D01*
X9433D01*
Y9653D01*
Y9553D01*
X9283D01*
X15144Y15168D02*
X15194Y15218D01*
Y15318D01*
X15144Y15368D01*
X15094D01*
X15044Y15318D01*
Y15268D01*
Y15318D01*
X14994Y15368D01*
X14944D01*
X14894Y15318D01*
Y15218D01*
X14944Y15168D01*
X15194Y15468D02*
X14994D01*
X14894Y15568D01*
X14994Y15667D01*
X15194D01*
X15144Y15767D02*
X15194Y15817D01*
Y15917D01*
X15144Y15967D01*
X15094D01*
X15044Y15917D01*
Y15867D01*
Y15917D01*
X14994Y15967D01*
X14944D01*
X14894Y15917D01*
Y15817D01*
X14944Y15767D01*
X35563Y13924D02*
X35863D01*
Y14074D01*
X35813Y14124D01*
X35713D01*
X35663Y14074D01*
Y13924D01*
X35563Y14224D02*
X35763D01*
X35863Y14324D01*
X35763Y14424D01*
X35563D01*
X35713D01*
Y14224D01*
X35613Y14524D02*
X35563Y14574D01*
Y14674D01*
X35613Y14724D01*
X35813D01*
X35863Y14674D01*
Y14574D01*
X35813Y14524D01*
X35763D01*
X35713Y14574D01*
Y14724D01*
X35513Y14824D02*
Y15024D01*
X35863Y15124D02*
X35613D01*
X35563Y15174D01*
Y15274D01*
X35613Y15324D01*
X35863D01*
Y15424D02*
Y15624D01*
Y15524D01*
X35563D01*
X35863Y15724D02*
X35563Y15924D01*
X35863D02*
X35563Y15724D01*
X35863Y16024D02*
X35563D01*
Y16174D01*
X35613Y16224D01*
X35813D01*
X35863Y16174D01*
Y16024D01*
X40737Y10282D02*
X40937D01*
Y10132D01*
X40837Y10182D01*
X40787D01*
X40737Y10132D01*
Y10032D01*
X40787Y9982D01*
X40887D01*
X40937Y10032D01*
X40637Y10282D02*
Y10082D01*
X40537Y9982D01*
X40437Y10082D01*
Y10282D01*
X40337Y10232D02*
X40287Y10282D01*
X40187D01*
X40137Y10232D01*
Y10182D01*
X40237Y10082D01*
Y10032D02*
Y9982D01*
X40947Y8255D02*
Y8055D01*
X40847Y7955D01*
X40747Y8055D01*
Y8255D01*
X40647Y7955D02*
Y8255D01*
X40547Y8155D01*
X40447Y8255D01*
Y7955D01*
X40197Y8255D02*
X40297D01*
X40347Y8205D01*
Y8005D01*
X40297Y7955D01*
X40197D01*
X40147Y8005D01*
Y8205D01*
X40197Y8255D01*
X40047D02*
X39847D01*
X39947D01*
Y7955D01*
X13491Y38745D02*
X13291D01*
X13191Y38845D01*
X13291Y38945D01*
X13491D01*
Y39045D02*
X13191D01*
X13341D01*
Y39245D01*
X13491D01*
X13191D01*
X13491Y39545D02*
Y39345D01*
X13191D01*
Y39545D01*
X13341Y39345D02*
Y39445D01*
X13191Y39645D02*
X13391D01*
X13491Y39745D01*
X13391Y39845D01*
X13191D01*
X13341D01*
Y39645D01*
X13491Y39944D02*
Y40144D01*
Y40044D01*
X13191D01*
X25518Y39045D02*
X25318D01*
X25219Y39145D01*
X25318Y39245D01*
X25518D01*
Y39345D02*
X25219D01*
Y39495D01*
X25268Y39545D01*
X25318D01*
X25368Y39495D01*
Y39345D01*
Y39495D01*
X25418Y39545D01*
X25468D01*
X25518Y39495D01*
Y39345D01*
Y39845D02*
Y39645D01*
X25219D01*
Y39845D01*
X25368Y39645D02*
Y39745D01*
X25518Y39944D02*
X25219D01*
Y40094D01*
X25268Y40144D01*
X25468D01*
X25518Y40094D01*
Y39944D01*
X21509Y38745D02*
X21309D01*
X21209Y38845D01*
X21309Y38945D01*
X21509D01*
Y39045D02*
X21209D01*
X21359D01*
Y39245D01*
X21509D01*
X21209D01*
X21509Y39545D02*
Y39345D01*
X21209D01*
Y39545D01*
X21359Y39345D02*
Y39445D01*
X21209Y39645D02*
X21409D01*
X21509Y39745D01*
X21409Y39845D01*
X21209D01*
X21359D01*
Y39645D01*
X21509Y39944D02*
Y40144D01*
Y40044D01*
X21209D01*
X17500Y38745D02*
X17300D01*
X17200Y38845D01*
X17300Y38945D01*
X17500D01*
Y39045D02*
X17200D01*
X17350D01*
Y39245D01*
X17500D01*
X17200D01*
X17500Y39545D02*
Y39345D01*
X17200D01*
Y39545D01*
X17350Y39345D02*
Y39445D01*
X17200Y39645D02*
X17400D01*
X17500Y39745D01*
X17400Y39845D01*
X17200D01*
X17350D01*
Y39645D01*
X17500Y39944D02*
Y40144D01*
Y40044D01*
X17200D01*
X32151Y35841D02*
Y35641D01*
X32051Y35541D01*
X31951Y35641D01*
Y35841D01*
X31851D02*
Y35541D01*
Y35691D01*
X31651D01*
Y35841D01*
Y35541D01*
X31351Y35841D02*
X31551D01*
Y35541D01*
X31351D01*
X31551Y35691D02*
X31451D01*
X31251Y35541D02*
Y35741D01*
X31151Y35841D01*
X31051Y35741D01*
Y35541D01*
Y35691D01*
X31251D01*
X30951Y35841D02*
X30751D01*
X30851D01*
Y35541D01*
X15676Y31843D02*
Y31644D01*
X15526D01*
X15576Y31743D01*
Y31793D01*
X15526Y31843D01*
X15426D01*
X15376Y31793D01*
Y31693D01*
X15426Y31644D01*
X15676Y31943D02*
X15476D01*
X15376Y32043D01*
X15476Y32143D01*
X15676D01*
X15980Y29544D02*
X16280D01*
Y29694D01*
X16230Y29744D01*
X16130D01*
X16080Y29694D01*
Y29544D01*
X16230Y30044D02*
X16280Y29994D01*
Y29894D01*
X16230Y29844D01*
X16030D01*
X15980Y29894D01*
Y29994D01*
X16030Y30044D01*
X15980Y30344D02*
Y30144D01*
X16180Y30344D01*
X16230D01*
X16280Y30294D01*
Y30194D01*
X16230Y30144D01*
X15930Y30444D02*
Y30644D01*
X15980Y30744D02*
X16280D01*
Y30894D01*
X16230Y30944D01*
X16130D01*
X16080Y30894D01*
Y30744D01*
X16280Y31044D02*
X15980D01*
X16080Y31144D01*
X15980Y31244D01*
X16280D01*
X15980Y31344D02*
X16280D01*
X16180Y31444D01*
X16280Y31544D01*
X15980D01*
X16280Y31644D02*
X15980D01*
Y31843D01*
X16230Y31943D02*
X16280Y31993D01*
Y32093D01*
X16230Y32143D01*
X16030D01*
X15980Y32093D01*
Y31993D01*
X16030Y31943D01*
X16230D01*
X16504Y29694D02*
X16804D01*
Y29844D01*
X16754Y29894D01*
X16654D01*
X16604Y29844D01*
Y29694D01*
X16504Y29994D02*
X16704D01*
X16804Y30094D01*
X16704Y30194D01*
X16504D01*
X16654D01*
Y29994D01*
X16504Y30294D02*
Y30394D01*
Y30344D01*
X16804D01*
X16754Y30294D01*
X16804Y30744D02*
X16754Y30644D01*
X16654Y30544D01*
X16554D01*
X16504Y30594D01*
Y30694D01*
X16554Y30744D01*
X16604D01*
X16654Y30694D01*
Y30544D01*
X16454Y30844D02*
Y31044D01*
X16754Y31344D02*
X16804Y31294D01*
Y31194D01*
X16754Y31144D01*
X16704D01*
X16654Y31194D01*
Y31294D01*
X16604Y31344D01*
X16554D01*
X16504Y31294D01*
Y31194D01*
X16554Y31144D01*
X16754Y31644D02*
X16804Y31594D01*
Y31494D01*
X16754Y31444D01*
X16554D01*
X16504Y31494D01*
Y31594D01*
X16554Y31644D01*
X16804Y31743D02*
X16504D01*
X16604D01*
X16804Y31943D01*
X16654Y31793D01*
X16504Y31943D01*
Y32043D02*
Y32143D01*
Y32093D01*
X16804D01*
X16754Y32043D01*
X17027Y29694D02*
X17327D01*
Y29844D01*
X17277Y29894D01*
X17177D01*
X17127Y29844D01*
Y29694D01*
X17027Y29994D02*
X17227D01*
X17327Y30094D01*
X17227Y30194D01*
X17027D01*
X17177D01*
Y29994D01*
X17027Y30294D02*
Y30394D01*
Y30344D01*
X17327D01*
X17277Y30294D01*
X17027Y30744D02*
Y30544D01*
X17227Y30744D01*
X17277D01*
X17327Y30694D01*
Y30594D01*
X17277Y30544D01*
X16977Y30844D02*
Y31044D01*
X17027Y31144D02*
X17327D01*
Y31294D01*
X17277Y31344D01*
X17177D01*
X17127Y31294D01*
Y31144D01*
Y31244D02*
X17027Y31344D01*
X17327Y31444D02*
X17027Y31644D01*
X17327D02*
X17027Y31444D01*
X17327Y31743D02*
X17027D01*
Y31893D01*
X17077Y31943D01*
X17277D01*
X17327Y31893D01*
Y31743D01*
X17027Y32043D02*
Y32143D01*
Y32093D01*
X17327D01*
X17277Y32043D01*
X17551Y29694D02*
X17851D01*
Y29844D01*
X17801Y29894D01*
X17701D01*
X17651Y29844D01*
Y29694D01*
X17551Y29994D02*
X17751D01*
X17851Y30094D01*
X17751Y30194D01*
X17551D01*
X17701D01*
Y29994D01*
X17551Y30294D02*
Y30394D01*
Y30344D01*
X17851D01*
X17801Y30294D01*
Y30544D02*
X17851Y30594D01*
Y30694D01*
X17801Y30744D01*
X17751D01*
X17701Y30694D01*
Y30644D01*
Y30694D01*
X17651Y30744D01*
X17601D01*
X17551Y30694D01*
Y30594D01*
X17601Y30544D01*
X17501Y30844D02*
Y31044D01*
X17851Y31144D02*
Y31344D01*
Y31244D01*
X17551D01*
X17851Y31444D02*
X17551Y31644D01*
X17851D02*
X17551Y31444D01*
X17851Y31743D02*
X17551D01*
Y31893D01*
X17601Y31943D01*
X17801D01*
X17851Y31893D01*
Y31743D01*
X17551Y32043D02*
Y32143D01*
Y32093D01*
X17851D01*
X17801Y32043D01*
X17551Y32689D02*
X17851D01*
Y32839D01*
X17801Y32889D01*
X17701D01*
X17651Y32839D01*
Y32689D01*
X17551Y32989D02*
X17751D01*
X17851Y33089D01*
X17751Y33189D01*
X17551D01*
X17701D01*
Y32989D01*
X17551Y33289D02*
Y33389D01*
Y33339D01*
X17851D01*
X17801Y33289D01*
X17851Y33739D02*
Y33539D01*
X17701D01*
X17751Y33639D01*
Y33689D01*
X17701Y33739D01*
X17601D01*
X17551Y33689D01*
Y33589D01*
X17601Y33539D01*
X17501Y33839D02*
Y34039D01*
X17801Y34338D02*
X17851Y34288D01*
Y34188D01*
X17801Y34139D01*
X17601D01*
X17551Y34188D01*
Y34288D01*
X17601Y34338D01*
X17851Y34438D02*
Y34638D01*
Y34538D01*
X17551D01*
X17801Y34938D02*
X17851Y34888D01*
Y34788D01*
X17801Y34738D01*
X17751D01*
X17701Y34788D01*
Y34888D01*
X17651Y34938D01*
X17601D01*
X17551Y34888D01*
Y34788D01*
X17601Y34738D01*
X17551Y35038D02*
Y35138D01*
Y35088D01*
X17851D01*
X17801Y35038D01*
X17027Y32689D02*
X17327D01*
Y32839D01*
X17277Y32889D01*
X17177D01*
X17127Y32839D01*
Y32689D01*
X17027Y32989D02*
X17227D01*
X17327Y33089D01*
X17227Y33189D01*
X17027D01*
X17177D01*
Y32989D01*
X17027Y33289D02*
Y33389D01*
Y33339D01*
X17327D01*
X17277Y33289D01*
X17027Y33689D02*
X17327D01*
X17177Y33539D01*
Y33739D01*
X16977Y33839D02*
Y34039D01*
X17027Y34139D02*
X17327D01*
Y34288D01*
X17277Y34338D01*
X17177D01*
X17127Y34288D01*
Y34139D01*
Y34238D02*
X17027Y34338D01*
X17327Y34438D02*
Y34638D01*
Y34538D01*
X17027D01*
X17277Y34938D02*
X17327Y34888D01*
Y34788D01*
X17277Y34738D01*
X17227D01*
X17177Y34788D01*
Y34888D01*
X17127Y34938D01*
X17077D01*
X17027Y34888D01*
Y34788D01*
X17077Y34738D01*
X17027Y35038D02*
Y35138D01*
Y35088D01*
X17327D01*
X17277Y35038D01*
X16504Y32689D02*
X16804D01*
Y32839D01*
X16754Y32889D01*
X16654D01*
X16604Y32839D01*
Y32689D01*
X16504Y32989D02*
X16704D01*
X16804Y33089D01*
X16704Y33189D01*
X16504D01*
X16654D01*
Y32989D01*
X16754Y33289D02*
X16804Y33339D01*
Y33439D01*
X16754Y33489D01*
X16554D01*
X16504Y33439D01*
Y33339D01*
X16554Y33289D01*
X16754D01*
X16454Y33589D02*
Y33789D01*
X16754Y34089D02*
X16804Y34039D01*
Y33939D01*
X16754Y33889D01*
X16554D01*
X16504Y33939D01*
Y34039D01*
X16554Y34089D01*
X16504Y34188D02*
X16704D01*
X16804Y34288D01*
X16704Y34388D01*
X16504D01*
X16654D01*
Y34188D01*
X16504Y34488D02*
X16804D01*
X16504Y34688D01*
X16804D01*
Y34788D02*
Y34988D01*
Y34888D01*
X16504D01*
X16804Y35088D02*
X16504Y35288D01*
X16804D02*
X16504Y35088D01*
X16754Y35388D02*
X16804Y35438D01*
Y35538D01*
X16754Y35588D01*
X16554D01*
X16504Y35538D01*
Y35438D01*
X16554Y35388D01*
X16754D01*
X15980Y32689D02*
X16280D01*
Y32839D01*
X16230Y32889D01*
X16130D01*
X16080Y32839D01*
Y32689D01*
X15980Y32989D02*
X16180D01*
X16280Y33089D01*
X16180Y33189D01*
X15980D01*
X16130D01*
Y32989D01*
X15980Y33289D02*
Y33389D01*
Y33339D01*
X16280D01*
X16230Y33289D01*
X15930Y33539D02*
Y33739D01*
X16230Y34039D02*
X16280Y33989D01*
Y33889D01*
X16230Y33839D01*
X16030D01*
X15980Y33889D01*
Y33989D01*
X16030Y34039D01*
X15980Y34139D02*
X16180D01*
X16280Y34238D01*
X16180Y34338D01*
X15980D01*
X16130D01*
Y34139D01*
X15980Y34438D02*
X16280D01*
X15980Y34638D01*
X16280D01*
X15980Y34738D02*
X16280D01*
Y34888D01*
X16230Y34938D01*
X16130D01*
X16080Y34888D01*
Y34738D01*
Y34838D02*
X15980Y34938D01*
X16280Y35038D02*
X15980Y35238D01*
X16280D02*
X15980Y35038D01*
X16230Y35338D02*
X16280Y35388D01*
Y35488D01*
X16230Y35538D01*
X16030D01*
X15980Y35488D01*
Y35388D01*
X16030Y35338D01*
X16230D01*
X15626Y32889D02*
X15676Y32839D01*
Y32739D01*
X15626Y32689D01*
X15426D01*
X15376Y32739D01*
Y32839D01*
X15426Y32889D01*
X15526D01*
Y32789D01*
X15376Y32989D02*
X15676D01*
X15376Y33189D01*
X15676D01*
Y33289D02*
X15376D01*
Y33439D01*
X15426Y33489D01*
X15626D01*
X15676Y33439D01*
Y33289D01*
X15626Y25881D02*
X15676Y25831D01*
Y25731D01*
X15626Y25681D01*
X15426D01*
X15376Y25731D01*
Y25831D01*
X15426Y25881D01*
X15526D01*
Y25781D01*
X15376Y25981D02*
X15676D01*
X15376Y26181D01*
X15676D01*
Y26281D02*
X15376D01*
Y26431D01*
X15426Y26481D01*
X15626D01*
X15676Y26431D01*
Y26281D01*
X15980Y25681D02*
X16280D01*
Y25831D01*
X16230Y25881D01*
X16130D01*
X16080Y25831D01*
Y25681D01*
X16280Y25981D02*
X15980D01*
Y26131D01*
X16030Y26181D01*
X16080D01*
X16130Y26131D01*
Y25981D01*
Y26131D01*
X16180Y26181D01*
X16230D01*
X16280Y26131D01*
Y25981D01*
X15980Y26481D02*
Y26281D01*
X16180Y26481D01*
X16230D01*
X16280Y26431D01*
Y26331D01*
X16230Y26281D01*
X16280Y26781D02*
Y26581D01*
X16130D01*
X16180Y26681D01*
Y26731D01*
X16130Y26781D01*
X16030D01*
X15980Y26731D01*
Y26631D01*
X16030Y26581D01*
X15930Y26881D02*
Y27081D01*
X16280Y27181D02*
Y27381D01*
Y27281D01*
X15980D01*
X16280Y27481D02*
Y27580D01*
Y27531D01*
X15980D01*
Y27481D01*
Y27580D01*
X16280Y27880D02*
Y27780D01*
X16230Y27730D01*
X16030D01*
X15980Y27780D01*
Y27880D01*
X16030Y27930D01*
X16230D01*
X16280Y27880D01*
X15980Y28030D02*
X16180D01*
X16280Y28130D01*
X16180Y28230D01*
X15980D01*
X16130D01*
Y28030D01*
X16230Y28330D02*
X16280Y28380D01*
Y28480D01*
X16230Y28530D01*
X16030D01*
X15980Y28480D01*
Y28380D01*
X16030Y28330D01*
X16230D01*
X16504Y25681D02*
X16804D01*
Y25831D01*
X16754Y25881D01*
X16654D01*
X16604Y25831D01*
Y25681D01*
X16504Y25981D02*
X16704D01*
X16804Y26081D01*
X16704Y26181D01*
X16504D01*
X16654D01*
Y25981D01*
X16754Y26281D02*
X16804Y26331D01*
Y26431D01*
X16754Y26481D01*
X16704D01*
X16654Y26431D01*
Y26381D01*
Y26431D01*
X16604Y26481D01*
X16554D01*
X16504Y26431D01*
Y26331D01*
X16554Y26281D01*
X16454Y26581D02*
Y26781D01*
X16804Y26881D02*
Y27081D01*
Y26981D01*
X16504D01*
X16804Y27181D02*
Y27281D01*
Y27231D01*
X16504D01*
Y27181D01*
Y27281D01*
X16804Y27580D02*
Y27481D01*
X16754Y27431D01*
X16554D01*
X16504Y27481D01*
Y27580D01*
X16554Y27630D01*
X16754D01*
X16804Y27580D01*
Y27730D02*
X16504D01*
Y27880D01*
X16554Y27930D01*
X16604D01*
X16654Y27880D01*
Y27730D01*
Y27880D01*
X16704Y27930D01*
X16754D01*
X16804Y27880D01*
Y27730D01*
X16504Y28030D02*
Y28130D01*
Y28080D01*
X16804D01*
X16754Y28030D01*
X17027Y25681D02*
X17327D01*
Y25831D01*
X17277Y25881D01*
X17177D01*
X17127Y25831D01*
Y25681D01*
X17327Y25981D02*
X17027D01*
Y26131D01*
X17077Y26181D01*
X17127D01*
X17177Y26131D01*
Y25981D01*
Y26131D01*
X17227Y26181D01*
X17277D01*
X17327Y26131D01*
Y25981D01*
X17027Y26481D02*
Y26281D01*
X17227Y26481D01*
X17277D01*
X17327Y26431D01*
Y26331D01*
X17277Y26281D01*
X17327Y26581D02*
Y26781D01*
X17277D01*
X17077Y26581D01*
X17027D01*
X16977Y26881D02*
Y27081D01*
X17327Y27181D02*
Y27381D01*
Y27281D01*
X17027D01*
X17327Y27481D02*
Y27580D01*
Y27531D01*
X17027D01*
Y27481D01*
Y27580D01*
X17327Y27880D02*
Y27780D01*
X17277Y27730D01*
X17077D01*
X17027Y27780D01*
Y27880D01*
X17077Y27930D01*
X17277D01*
X17327Y27880D01*
Y28030D02*
X17027D01*
Y28180D01*
X17077Y28230D01*
X17127D01*
X17177Y28180D01*
Y28030D01*
Y28180D01*
X17227Y28230D01*
X17277D01*
X17327Y28180D01*
Y28030D01*
X17277Y28330D02*
X17327Y28380D01*
Y28480D01*
X17277Y28530D01*
X17077D01*
X17027Y28480D01*
Y28380D01*
X17077Y28330D01*
X17277D01*
X17551Y25681D02*
X17851D01*
Y25831D01*
X17801Y25881D01*
X17701D01*
X17651Y25831D01*
Y25681D01*
X17551Y25981D02*
X17751D01*
X17851Y26081D01*
X17751Y26181D01*
X17551D01*
X17701D01*
Y25981D01*
X17551Y26481D02*
Y26281D01*
X17751Y26481D01*
X17801D01*
X17851Y26431D01*
Y26331D01*
X17801Y26281D01*
X17851Y26781D02*
X17801Y26681D01*
X17701Y26581D01*
X17601D01*
X17551Y26631D01*
Y26731D01*
X17601Y26781D01*
X17651D01*
X17701Y26731D01*
Y26581D01*
X17501Y26881D02*
Y27081D01*
X17551Y27181D02*
X17851D01*
X17751Y27281D01*
X17851Y27381D01*
X17551D01*
X17851Y27630D02*
Y27531D01*
X17801Y27481D01*
X17601D01*
X17551Y27531D01*
Y27630D01*
X17601Y27680D01*
X17801D01*
X17851Y27630D01*
X17801Y27980D02*
X17851Y27930D01*
Y27830D01*
X17801Y27780D01*
X17751D01*
X17701Y27830D01*
Y27930D01*
X17651Y27980D01*
X17601D01*
X17551Y27930D01*
Y27830D01*
X17601Y27780D01*
X17851Y28080D02*
Y28180D01*
Y28130D01*
X17551D01*
Y28080D01*
Y28180D01*
Y22517D02*
X17851D01*
Y22667D01*
X17801Y22717D01*
X17701D01*
X17651Y22667D01*
Y22517D01*
X17551Y22817D02*
X17751D01*
X17851Y22917D01*
X17751Y23017D01*
X17551D01*
X17701D01*
Y22817D01*
X17551Y23317D02*
Y23117D01*
X17751Y23317D01*
X17801D01*
X17851Y23267D01*
Y23167D01*
X17801Y23117D01*
X17851Y23417D02*
Y23617D01*
X17801D01*
X17601Y23417D01*
X17551D01*
X17501Y23717D02*
Y23917D01*
X17801Y24217D02*
X17851Y24167D01*
Y24067D01*
X17801Y24017D01*
X17751D01*
X17701Y24067D01*
Y24167D01*
X17651Y24217D01*
X17601D01*
X17551Y24167D01*
Y24067D01*
X17601Y24017D01*
X17801Y24517D02*
X17851Y24467D01*
Y24367D01*
X17801Y24317D01*
X17601D01*
X17551Y24367D01*
Y24467D01*
X17601Y24517D01*
X17851Y24617D02*
X17551D01*
Y24817D01*
X17851Y24917D02*
X17551D01*
X17651D01*
X17851Y25117D01*
X17701Y24967D01*
X17551Y25117D01*
X17027Y23117D02*
X17327D01*
Y23267D01*
X17277Y23317D01*
X17177D01*
X17127Y23267D01*
Y23117D01*
X17027Y23417D02*
X17227D01*
X17327Y23517D01*
X17227Y23617D01*
X17027D01*
X17177D01*
Y23417D01*
X17027Y23917D02*
Y23717D01*
X17227Y23917D01*
X17277D01*
X17327Y23867D01*
Y23767D01*
X17277Y23717D01*
X17077Y24017D02*
X17027Y24067D01*
Y24167D01*
X17077Y24217D01*
X17277D01*
X17327Y24167D01*
Y24067D01*
X17277Y24017D01*
X17227D01*
X17177Y24067D01*
Y24217D01*
X16977Y24317D02*
Y24517D01*
X17277Y24817D02*
X17327Y24767D01*
Y24667D01*
X17277Y24617D01*
X17077D01*
X17027Y24667D01*
Y24767D01*
X17077Y24817D01*
X17277Y25117D02*
X17327Y25067D01*
Y24967D01*
X17277Y24917D01*
X17227D01*
X17177Y24967D01*
Y25067D01*
X17127Y25117D01*
X17077D01*
X17027Y25067D01*
Y24967D01*
X17077Y24917D01*
X16504Y22567D02*
X16804D01*
Y22717D01*
X16754Y22767D01*
X16654D01*
X16604Y22717D01*
Y22567D01*
X16504Y22867D02*
X16704D01*
X16804Y22967D01*
X16704Y23067D01*
X16504D01*
X16654D01*
Y22867D01*
X16504Y23367D02*
Y23167D01*
X16704Y23367D01*
X16754D01*
X16804Y23317D01*
Y23217D01*
X16754Y23167D01*
X16804Y23667D02*
Y23467D01*
X16654D01*
X16704Y23567D01*
Y23617D01*
X16654Y23667D01*
X16554D01*
X16504Y23617D01*
Y23517D01*
X16554Y23467D01*
X16454Y23767D02*
Y23967D01*
X16504Y24067D02*
X16804D01*
X16704Y24167D01*
X16804Y24267D01*
X16504D01*
X16804Y24367D02*
Y24467D01*
Y24417D01*
X16504D01*
Y24367D01*
Y24467D01*
X16754Y24817D02*
X16804Y24767D01*
Y24667D01*
X16754Y24617D01*
X16704D01*
X16654Y24667D01*
Y24767D01*
X16604Y24817D01*
X16554D01*
X16504Y24767D01*
Y24667D01*
X16554Y24617D01*
X16804Y25067D02*
Y24967D01*
X16754Y24917D01*
X16554D01*
X16504Y24967D01*
Y25067D01*
X16554Y25117D01*
X16754D01*
X16804Y25067D01*
X15900Y24017D02*
X16200D01*
X15900Y24217D01*
X16200D01*
X15900Y24317D02*
X16200D01*
Y24467D01*
X16150Y24517D01*
X16050D01*
X16000Y24467D01*
Y24317D01*
Y24417D02*
X15900Y24517D01*
X16150Y24817D02*
X16200Y24767D01*
Y24667D01*
X16150Y24617D01*
X16100D01*
X16050Y24667D01*
Y24767D01*
X16000Y24817D01*
X15950D01*
X15900Y24767D01*
Y24667D01*
X15950Y24617D01*
X16200Y24917D02*
Y25117D01*
Y25017D01*
X15900D01*
X15626Y24317D02*
X15676Y24367D01*
Y24467D01*
X15626Y24517D01*
X15576D01*
X15526Y24467D01*
Y24417D01*
Y24467D01*
X15476Y24517D01*
X15426D01*
X15376Y24467D01*
Y24367D01*
X15426Y24317D01*
X15676Y24617D02*
X15476D01*
X15376Y24717D01*
X15476Y24817D01*
X15676D01*
X15626Y24917D02*
X15676Y24967D01*
Y25067D01*
X15626Y25117D01*
X15576D01*
X15526Y25067D01*
Y25017D01*
Y25067D01*
X15476Y25117D01*
X15426D01*
X15376Y25067D01*
Y24967D01*
X15426Y24917D01*
X15563Y13718D02*
X15863D01*
Y13868D01*
X15813Y13918D01*
X15713D01*
X15663Y13868D01*
Y13718D01*
X15563Y14018D02*
X15763D01*
X15863Y14118D01*
X15763Y14218D01*
X15563D01*
X15713D01*
Y14018D01*
X15563Y14318D02*
Y14418D01*
Y14368D01*
X15863D01*
X15813Y14318D01*
X15863Y14568D02*
Y14768D01*
X15813D01*
X15613Y14568D01*
X15563D01*
X15513Y14868D02*
Y15068D01*
X15813Y15368D02*
X15863Y15318D01*
Y15218D01*
X15813Y15168D01*
X15763D01*
X15713Y15218D01*
Y15318D01*
X15663Y15368D01*
X15613D01*
X15563Y15318D01*
Y15218D01*
X15613Y15168D01*
X15863Y15468D02*
X15563D01*
Y15618D01*
X15613Y15667D01*
X15813D01*
X15863Y15618D01*
Y15468D01*
X15563Y15767D02*
X15763D01*
X15863Y15867D01*
X15763Y15967D01*
X15563D01*
X15713D01*
Y15767D01*
X16153Y13718D02*
X16453D01*
Y13868D01*
X16403Y13918D01*
X16303D01*
X16253Y13868D01*
Y13718D01*
X16453Y14018D02*
X16153D01*
Y14168D01*
X16203Y14218D01*
X16253D01*
X16303Y14168D01*
Y14018D01*
Y14168D01*
X16353Y14218D01*
X16403D01*
X16453Y14168D01*
Y14018D01*
X16153Y14318D02*
Y14418D01*
Y14368D01*
X16453D01*
X16403Y14318D01*
X16153Y14768D02*
Y14568D01*
X16353Y14768D01*
X16403D01*
X16453Y14718D01*
Y14618D01*
X16403Y14568D01*
X16103Y14868D02*
Y15068D01*
X16153Y15168D02*
X16353D01*
X16453Y15268D01*
X16353Y15368D01*
X16153D01*
X16303D01*
Y15168D01*
X16453Y15468D02*
X16153D01*
Y15618D01*
X16203Y15667D01*
X16403D01*
X16453Y15618D01*
Y15468D01*
X16403Y15767D02*
X16453Y15817D01*
Y15917D01*
X16403Y15967D01*
X16353D01*
X16303Y15917D01*
X16253Y15967D01*
X16203D01*
X16153Y15917D01*
Y15817D01*
X16203Y15767D01*
X16253D01*
X16303Y15817D01*
X16353Y15767D01*
X16403D01*
X16303Y15817D02*
Y15917D01*
X16662Y14868D02*
X16962D01*
X16662Y15068D01*
X16962D01*
X16662Y15168D02*
X16962D01*
Y15318D01*
X16912Y15368D01*
X16812D01*
X16762Y15318D01*
Y15168D01*
Y15268D02*
X16662Y15368D01*
X16912Y15667D02*
X16962Y15618D01*
Y15518D01*
X16912Y15468D01*
X16862D01*
X16812Y15518D01*
Y15618D01*
X16762Y15667D01*
X16712D01*
X16662Y15618D01*
Y15518D01*
X16712Y15468D01*
X16962Y15767D02*
Y15967D01*
Y15867D01*
X16662D01*
X17332Y13518D02*
X17632D01*
Y13668D01*
X17582Y13718D01*
X17482D01*
X17432Y13668D01*
Y13518D01*
X17632Y13818D02*
X17332D01*
Y13968D01*
X17382Y14018D01*
X17432D01*
X17482Y13968D01*
Y13818D01*
Y13968D01*
X17532Y14018D01*
X17582D01*
X17632Y13968D01*
Y13818D01*
X17332Y14118D02*
Y14218D01*
Y14168D01*
X17632D01*
X17582Y14118D01*
X17632Y14568D02*
X17582Y14468D01*
X17482Y14368D01*
X17382D01*
X17332Y14418D01*
Y14518D01*
X17382Y14568D01*
X17432D01*
X17482Y14518D01*
Y14368D01*
X17282Y14668D02*
Y14868D01*
X17632Y14968D02*
X17332D01*
Y15118D01*
X17382Y15168D01*
X17582D01*
X17632Y15118D01*
Y14968D01*
X17332Y15268D02*
X17532D01*
X17632Y15368D01*
X17532Y15468D01*
X17332D01*
X17482D01*
Y15268D01*
X17582Y15767D02*
X17632Y15717D01*
Y15618D01*
X17582Y15568D01*
X17382D01*
X17332Y15618D01*
Y15717D01*
X17382Y15767D01*
X17332Y15867D02*
Y15967D01*
Y15917D01*
X17632D01*
X17582Y15867D01*
X17330Y18299D02*
X17630D01*
Y18449D01*
X17580Y18499D01*
X17480D01*
X17430Y18449D01*
Y18299D01*
X17630Y18599D02*
X17330D01*
Y18749D01*
X17380Y18799D01*
X17430D01*
X17480Y18749D01*
Y18599D01*
Y18749D01*
X17530Y18799D01*
X17580D01*
X17630Y18749D01*
Y18599D01*
X17330Y18899D02*
Y18999D01*
Y18949D01*
X17630D01*
X17580Y18899D01*
X17630Y19349D02*
Y19149D01*
X17480D01*
X17530Y19249D01*
Y19299D01*
X17480Y19349D01*
X17380D01*
X17330Y19299D01*
Y19199D01*
X17380Y19149D01*
X17280Y19449D02*
Y19649D01*
X17630Y19749D02*
X17330D01*
Y19899D01*
X17380Y19949D01*
X17580D01*
X17630Y19899D01*
Y19749D01*
X17330Y20049D02*
X17530D01*
X17630Y20149D01*
X17530Y20249D01*
X17330D01*
X17480D01*
Y20049D01*
X17580Y20548D02*
X17630Y20498D01*
Y20399D01*
X17580Y20349D01*
X17380D01*
X17330Y20399D01*
Y20498D01*
X17380Y20548D01*
X17580Y20648D02*
X17630Y20698D01*
Y20798D01*
X17580Y20848D01*
X17380D01*
X17330Y20798D01*
Y20698D01*
X17380Y20648D01*
X17580D01*
X16739Y18299D02*
X17038D01*
Y18449D01*
X16989Y18499D01*
X16889D01*
X16839Y18449D01*
Y18299D01*
X17038Y18599D02*
X16739D01*
Y18749D01*
X16789Y18799D01*
X16839D01*
X16889Y18749D01*
Y18599D01*
Y18749D01*
X16939Y18799D01*
X16989D01*
X17038Y18749D01*
Y18599D01*
X16739Y18899D02*
Y18999D01*
Y18949D01*
X17038D01*
X16989Y18899D01*
X16739Y19299D02*
X17038D01*
X16889Y19149D01*
Y19349D01*
X16689Y19449D02*
Y19649D01*
X16739Y19749D02*
X17038D01*
Y19899D01*
X16989Y19949D01*
X16889D01*
X16839Y19899D01*
Y19749D01*
X17038Y20049D02*
X16739D01*
X16839Y20149D01*
X16739Y20249D01*
X17038D01*
X16739Y20349D02*
X17038D01*
X16939Y20449D01*
X17038Y20548D01*
X16739D01*
X17038Y20648D02*
X16739D01*
X16889D01*
Y20848D01*
X17038D01*
X16739D01*
Y21148D02*
Y20948D01*
X16939Y21148D01*
X16989D01*
X17038Y21098D01*
Y20998D01*
X16989Y20948D01*
X16147Y18299D02*
X16447D01*
Y18449D01*
X16397Y18499D01*
X16297D01*
X16247Y18449D01*
Y18299D01*
X16447Y18599D02*
X16147D01*
Y18749D01*
X16197Y18799D01*
X16247D01*
X16297Y18749D01*
Y18599D01*
Y18749D01*
X16347Y18799D01*
X16397D01*
X16447Y18749D01*
Y18599D01*
X16147Y18899D02*
Y18999D01*
Y18949D01*
X16447D01*
X16397Y18899D01*
Y19149D02*
X16447Y19199D01*
Y19299D01*
X16397Y19349D01*
X16347D01*
X16297Y19299D01*
Y19249D01*
Y19299D01*
X16247Y19349D01*
X16197D01*
X16147Y19299D01*
Y19199D01*
X16197Y19149D01*
X16097Y19449D02*
Y19649D01*
X16147Y19749D02*
X16347D01*
X16447Y19849D01*
X16347Y19949D01*
X16147D01*
X16297D01*
Y19749D01*
X16447Y20049D02*
X16147D01*
Y20199D01*
X16197Y20249D01*
X16397D01*
X16447Y20199D01*
Y20049D01*
X16197Y20349D02*
X16147Y20399D01*
Y20498D01*
X16197Y20548D01*
X16397D01*
X16447Y20498D01*
Y20399D01*
X16397Y20349D01*
X16347D01*
X16297Y20399D01*
Y20548D01*
X15556Y18299D02*
X15855D01*
Y18449D01*
X15805Y18499D01*
X15705D01*
X15655Y18449D01*
Y18299D01*
X15556Y18599D02*
X15755D01*
X15855Y18699D01*
X15755Y18799D01*
X15556D01*
X15705D01*
Y18599D01*
X15556Y18899D02*
Y18999D01*
Y18949D01*
X15855D01*
X15805Y18899D01*
Y19149D02*
X15855Y19199D01*
Y19299D01*
X15805Y19349D01*
X15755D01*
X15705Y19299D01*
X15655Y19349D01*
X15606D01*
X15556Y19299D01*
Y19199D01*
X15606Y19149D01*
X15655D01*
X15705Y19199D01*
X15755Y19149D01*
X15805D01*
X15705Y19199D02*
Y19299D01*
X15506Y19449D02*
Y19649D01*
X15805Y19949D02*
X15855Y19899D01*
Y19799D01*
X15805Y19749D01*
X15755D01*
X15705Y19799D01*
Y19899D01*
X15655Y19949D01*
X15606D01*
X15556Y19899D01*
Y19799D01*
X15606Y19749D01*
X15805Y20249D02*
X15855Y20199D01*
Y20099D01*
X15805Y20049D01*
X15606D01*
X15556Y20099D01*
Y20199D01*
X15606Y20249D01*
X15855Y20349D02*
X15556D01*
Y20548D01*
X15134Y18499D02*
X15184Y18449D01*
Y18349D01*
X15134Y18299D01*
X14934D01*
X14884Y18349D01*
Y18449D01*
X14934Y18499D01*
X15034D01*
Y18399D01*
X14884Y18599D02*
X15184D01*
X14884Y18799D01*
X15184D01*
Y18899D02*
X14884D01*
Y19049D01*
X14934Y19099D01*
X15134D01*
X15184Y19049D01*
Y18899D01*
X34301Y39851D02*
X34351Y39901D01*
X34451D01*
X34501Y39851D01*
Y39651D01*
X34451Y39601D01*
X34351D01*
X34301Y39651D01*
Y39751D01*
X34401D01*
X34201Y39601D02*
Y39901D01*
X34001Y39601D01*
Y39901D01*
X33901D02*
Y39601D01*
X33751D01*
X33701Y39651D01*
Y39851D01*
X33751Y39901D01*
X33901D01*
X29301Y27251D02*
X29351Y27301D01*
X29451D01*
X29501Y27251D01*
Y27051D01*
X29451Y27001D01*
X29351D01*
X29301Y27051D01*
Y27151D01*
X29401D01*
X29201Y27001D02*
Y27301D01*
X29001Y27001D01*
Y27301D01*
X28901D02*
Y27001D01*
X28751D01*
X28701Y27051D01*
Y27251D01*
X28751Y27301D01*
X28901D01*
X29342Y26689D02*
X29392Y26739D01*
X29492D01*
X29542Y26689D01*
Y26489D01*
X29492Y26439D01*
X29392D01*
X29342Y26489D01*
Y26589D01*
X29442D01*
X29242Y26439D02*
Y26739D01*
X29042Y26439D01*
Y26739D01*
X28942D02*
Y26439D01*
X28793D01*
X28743Y26489D01*
Y26689D01*
X28793Y26739D01*
X28942D01*
X30704Y26689D02*
X30654Y26739D01*
X30554D01*
X30504Y26689D01*
Y26639D01*
X30554Y26589D01*
X30604D01*
X30554D01*
X30504Y26539D01*
Y26489D01*
X30554Y26439D01*
X30654D01*
X30704Y26489D01*
X30404Y26739D02*
Y26539D01*
X30304Y26439D01*
X30204Y26539D01*
Y26739D01*
X30104Y26689D02*
X30054Y26739D01*
X29954D01*
X29904Y26689D01*
Y26639D01*
X29954Y26589D01*
X30004D01*
X29954D01*
X29904Y26539D01*
Y26489D01*
X29954Y26439D01*
X30054D01*
X30104Y26489D01*
X28870Y32126D02*
X28920Y32176D01*
Y32276D01*
X28870Y32326D01*
X28820D01*
X28770Y32276D01*
Y32226D01*
Y32276D01*
X28720Y32326D01*
X28670D01*
X28620Y32276D01*
Y32176D01*
X28670Y32126D01*
X28920Y32426D02*
X28720D01*
X28620Y32526D01*
X28720Y32626D01*
X28920D01*
X28870Y32726D02*
X28920Y32776D01*
Y32876D01*
X28870Y32926D01*
X28820D01*
X28770Y32876D01*
Y32826D01*
Y32876D01*
X28720Y32926D01*
X28670D01*
X28620Y32876D01*
Y32776D01*
X28670Y32726D01*
X28351Y27251D02*
X28301Y27301D01*
X28201D01*
X28151Y27251D01*
Y27201D01*
X28201Y27151D01*
X28251D01*
X28201D01*
X28151Y27101D01*
Y27051D01*
X28201Y27001D01*
X28301D01*
X28351Y27051D01*
X28051Y27301D02*
Y27101D01*
X27951Y27001D01*
X27851Y27101D01*
Y27301D01*
X27751Y27251D02*
X27701Y27301D01*
X27601D01*
X27551Y27251D01*
Y27201D01*
X27601Y27151D01*
X27651D01*
X27601D01*
X27551Y27101D01*
Y27051D01*
X27601Y27001D01*
X27701D01*
X27751Y27051D01*
X42341Y19751D02*
Y19551D01*
X42191D01*
Y19651D01*
Y19551D01*
X42041D01*
X42291Y20051D02*
X42341Y20001D01*
Y19901D01*
X42291Y19851D01*
X42091D01*
X42041Y19901D01*
Y20001D01*
X42091Y20051D01*
X42191D01*
Y19951D01*
X42041Y20151D02*
X42341D01*
X42041Y20351D01*
X42341D01*
Y20451D02*
X42041D01*
Y20601D01*
X42091Y20651D01*
X42291D01*
X42341Y20601D01*
Y20451D01*
X40747Y7191D02*
X40797Y7241D01*
X40897D01*
X40947Y7191D01*
Y6991D01*
X40897Y6941D01*
X40797D01*
X40747Y6991D01*
Y7091D01*
X40847D01*
X40647Y6941D02*
Y7241D01*
X40447Y6941D01*
Y7241D01*
X40347D02*
Y6941D01*
X40197D01*
X40147Y6991D01*
Y7191D01*
X40197Y7241D01*
X40347D01*
X37881Y15924D02*
Y15724D01*
X37731D01*
X37781Y15824D01*
Y15874D01*
X37731Y15924D01*
X37631D01*
X37581Y15874D01*
Y15774D01*
X37631Y15724D01*
X37881Y16024D02*
X37681D01*
X37581Y16124D01*
X37681Y16224D01*
X37881D01*
X42481Y32327D02*
X42531Y32277D01*
Y32177D01*
X42481Y32127D01*
X42281D01*
X42231Y32177D01*
Y32277D01*
X42281Y32327D01*
X42381D01*
Y32227D01*
X42231Y32427D02*
X42531D01*
X42231Y32627D01*
X42531D01*
Y32727D02*
X42231D01*
Y32877D01*
X42281Y32927D01*
X42481D01*
X42531Y32877D01*
Y32727D01*
X35863Y22591D02*
Y22790D01*
X35813D01*
X35613Y22591D01*
X35563D01*
Y22790D01*
X35713Y22890D02*
Y23090D01*
X35563Y23190D02*
X35863D01*
X35763Y23290D01*
X35863Y23390D01*
X35563D01*
Y23490D02*
X35763D01*
X35863Y23590D01*
X35763Y23690D01*
X35563D01*
X35713D01*
Y23490D01*
X35863Y23790D02*
X35563Y23990D01*
X35863D02*
X35563Y23790D01*
X29711Y29621D02*
Y29821D01*
X29661D01*
X29461Y29621D01*
X29411D01*
Y29821D01*
X29561Y29921D02*
Y30121D01*
X29411Y30221D02*
X29711D01*
X29611Y30321D01*
X29711Y30421D01*
X29411D01*
X29711Y30521D02*
Y30621D01*
Y30571D01*
X29411D01*
Y30521D01*
Y30621D01*
Y30771D02*
X29711D01*
X29411Y30971D01*
X29711D01*
X31916Y22591D02*
X31866D01*
X31766Y22691D01*
X31866Y22790D01*
X31916D01*
X31766Y22691D02*
X31616D01*
X31766Y22890D02*
Y23090D01*
X31616Y23190D02*
X31916D01*
X31816Y23290D01*
X31916Y23390D01*
X31616D01*
Y23490D02*
X31816D01*
X31916Y23590D01*
X31816Y23690D01*
X31616D01*
X31766D01*
Y23490D01*
X31916Y23790D02*
X31616Y23990D01*
X31916D02*
X31616Y23790D01*
X30075Y22641D02*
X29776Y22840D01*
X30075D02*
X29776Y22641D01*
X29926Y22940D02*
Y23140D01*
X29776Y23240D02*
X30075D01*
X29976Y23340D01*
X30075Y23440D01*
X29776D01*
X30075Y23540D02*
Y23640D01*
Y23590D01*
X29776D01*
Y23540D01*
Y23640D01*
Y23790D02*
X30075D01*
X29776Y23990D01*
X30075D01*
X28420Y26734D02*
X28220Y26434D01*
Y26734D02*
X28420Y26434D01*
X28120Y26584D02*
X27920D01*
X27820Y26434D02*
Y26734D01*
X27720Y26634D01*
X27620Y26734D01*
Y26434D01*
X27521D02*
Y26634D01*
X27421Y26734D01*
X27321Y26634D01*
Y26434D01*
Y26584D01*
X27521D01*
X27221Y26734D02*
X27021Y26434D01*
Y26734D02*
X27221Y26434D01*
X27280Y4837D02*
Y5037D01*
X27230D01*
X27030Y4837D01*
X26980D01*
Y5037D01*
X27130Y5137D02*
Y5337D01*
X27280Y5437D02*
X26980D01*
Y5587D01*
X27030Y5637D01*
X27080D01*
X27130Y5587D01*
Y5437D01*
Y5587D01*
X27180Y5637D01*
X27230D01*
X27280Y5587D01*
Y5437D01*
X26980Y5937D02*
Y5737D01*
X27180Y5937D01*
X27230D01*
X27280Y5887D01*
Y5787D01*
X27230Y5737D01*
X26280Y4837D02*
Y5037D01*
X26230D01*
X26030Y4837D01*
X25980D01*
Y5037D01*
X26130Y5137D02*
Y5337D01*
X26280Y5437D02*
X25980D01*
Y5587D01*
X26030Y5637D01*
X26080D01*
X26130Y5587D01*
Y5437D01*
Y5587D01*
X26180Y5637D01*
X26230D01*
X26280Y5587D01*
Y5437D01*
X25980Y5737D02*
Y5837D01*
Y5787D01*
X26280D01*
X26230Y5737D01*
X25280Y4837D02*
Y5037D01*
X25230D01*
X25030Y4837D01*
X24980D01*
Y5037D01*
X25130Y5137D02*
Y5337D01*
X24980Y5437D02*
X25180D01*
X25280Y5537D01*
X25180Y5637D01*
X24980D01*
X25130D01*
Y5437D01*
X24980Y5937D02*
Y5737D01*
X25180Y5937D01*
X25230D01*
X25280Y5887D01*
Y5787D01*
X25230Y5737D01*
X24280Y4837D02*
Y5037D01*
X24230D01*
X24030Y4837D01*
X23980D01*
Y5037D01*
X24130Y5137D02*
Y5337D01*
X23980Y5437D02*
X24180D01*
X24280Y5537D01*
X24180Y5637D01*
X23980D01*
X24130D01*
Y5437D01*
X23980Y5737D02*
Y5837D01*
Y5787D01*
X24280D01*
X24230Y5737D01*
X30174Y5025D02*
Y4825D01*
X29874D01*
Y5025D01*
X30024Y4825D02*
Y4925D01*
X29874Y5125D02*
Y5225D01*
Y5175D01*
X30174D01*
X30124Y5125D01*
X30024Y5375D02*
Y5575D01*
X29874Y5675D02*
X30074D01*
X30174Y5774D01*
X30074Y5874D01*
X29874D01*
X30024D01*
Y5675D01*
X29874Y5974D02*
Y6074D01*
Y6024D01*
X30174D01*
X30124Y5974D01*
X31198Y5025D02*
Y4825D01*
X30898D01*
Y5025D01*
X31048Y4825D02*
Y4925D01*
X30898Y5125D02*
Y5225D01*
Y5175D01*
X31198D01*
X31148Y5125D01*
X31048Y5375D02*
Y5575D01*
X30898Y5675D02*
X31098D01*
X31198Y5774D01*
X31098Y5874D01*
X30898D01*
X31048D01*
Y5675D01*
X30898Y6174D02*
Y5974D01*
X31098Y6174D01*
X31148D01*
X31198Y6124D01*
Y6024D01*
X31148Y5974D01*
X32182Y5025D02*
Y4825D01*
X31882D01*
Y5025D01*
X32032Y4825D02*
Y4925D01*
X31882Y5125D02*
Y5225D01*
Y5175D01*
X32182D01*
X32132Y5125D01*
X32032Y5375D02*
Y5575D01*
X32182Y5675D02*
X31882D01*
Y5824D01*
X31932Y5874D01*
X31982D01*
X32032Y5824D01*
Y5675D01*
Y5824D01*
X32082Y5874D01*
X32132D01*
X32182Y5824D01*
Y5675D01*
X31882Y5974D02*
Y6074D01*
Y6024D01*
X32182D01*
X32132Y5974D01*
X33205Y5025D02*
Y4825D01*
X32906D01*
Y5025D01*
X33055Y4825D02*
Y4925D01*
X32906Y5125D02*
Y5225D01*
Y5175D01*
X33205D01*
X33155Y5125D01*
X33055Y5375D02*
Y5575D01*
X33205Y5675D02*
X32906D01*
Y5824D01*
X32956Y5874D01*
X33005D01*
X33055Y5824D01*
Y5675D01*
Y5824D01*
X33105Y5874D01*
X33155D01*
X33205Y5824D01*
Y5675D01*
X32906Y6174D02*
Y5974D01*
X33105Y6174D01*
X33155D01*
X33205Y6124D01*
Y6024D01*
X33155Y5974D01*
X36146Y5053D02*
Y4853D01*
X35846D01*
Y5053D01*
X35996Y4853D02*
Y4953D01*
X35846Y5353D02*
Y5153D01*
X36046Y5353D01*
X36096D01*
X36146Y5303D01*
Y5203D01*
X36096Y5153D01*
X35996Y5453D02*
Y5653D01*
X35846Y5753D02*
X36046D01*
X36146Y5853D01*
X36046Y5953D01*
X35846D01*
X35996D01*
Y5753D01*
X35846Y6053D02*
Y6153D01*
Y6103D01*
X36146D01*
X36096Y6053D01*
X37133Y5053D02*
Y4853D01*
X36833D01*
Y5053D01*
X36983Y4853D02*
Y4953D01*
X36833Y5353D02*
Y5153D01*
X37033Y5353D01*
X37083D01*
X37133Y5303D01*
Y5203D01*
X37083Y5153D01*
X36983Y5453D02*
Y5653D01*
X36833Y5753D02*
X37033D01*
X37133Y5853D01*
X37033Y5953D01*
X36833D01*
X36983D01*
Y5753D01*
X36833Y6252D02*
Y6053D01*
X37033Y6252D01*
X37083D01*
X37133Y6203D01*
Y6103D01*
X37083Y6053D01*
X38156Y5053D02*
Y4853D01*
X37856D01*
Y5053D01*
X38006Y4853D02*
Y4953D01*
X37856Y5353D02*
Y5153D01*
X38056Y5353D01*
X38106D01*
X38156Y5303D01*
Y5203D01*
X38106Y5153D01*
X38006Y5453D02*
Y5653D01*
X38156Y5753D02*
X37856D01*
Y5903D01*
X37906Y5953D01*
X37956D01*
X38006Y5903D01*
Y5753D01*
Y5903D01*
X38056Y5953D01*
X38106D01*
X38156Y5903D01*
Y5753D01*
X37856Y6053D02*
Y6153D01*
Y6103D01*
X38156D01*
X38106Y6053D01*
X39121Y5053D02*
Y4853D01*
X38821D01*
Y5053D01*
X38971Y4853D02*
Y4953D01*
X38821Y5353D02*
Y5153D01*
X39021Y5353D01*
X39071D01*
X39121Y5303D01*
Y5203D01*
X39071Y5153D01*
X38971Y5453D02*
Y5653D01*
X39121Y5753D02*
X38821D01*
Y5903D01*
X38871Y5953D01*
X38921D01*
X38971Y5903D01*
Y5753D01*
Y5903D01*
X39021Y5953D01*
X39071D01*
X39121Y5903D01*
Y5753D01*
X38821Y6252D02*
Y6053D01*
X39021Y6252D01*
X39071D01*
X39121Y6203D01*
Y6103D01*
X39071Y6053D01*
X19198Y4808D02*
Y5008D01*
X19148D01*
X18948Y4808D01*
X18898D01*
Y5008D01*
X19048Y5108D02*
Y5308D01*
X18898Y5408D02*
X19098D01*
X19198Y5508D01*
X19098Y5608D01*
X18898D01*
X19048D01*
Y5408D01*
X18898Y5708D02*
Y5808D01*
Y5758D01*
X19198D01*
X19148Y5708D01*
X20198Y4808D02*
Y5008D01*
X20148D01*
X19948Y4808D01*
X19898D01*
Y5008D01*
X20048Y5108D02*
Y5308D01*
X19898Y5408D02*
X20098D01*
X20198Y5508D01*
X20098Y5608D01*
X19898D01*
X20048D01*
Y5408D01*
X19898Y5908D02*
Y5708D01*
X20098Y5908D01*
X20148D01*
X20198Y5858D01*
Y5758D01*
X20148Y5708D01*
X21198Y4808D02*
Y5008D01*
X21148D01*
X20948Y4808D01*
X20898D01*
Y5008D01*
X21048Y5108D02*
Y5308D01*
X21198Y5408D02*
X20898D01*
Y5558D01*
X20948Y5608D01*
X20998D01*
X21048Y5558D01*
Y5408D01*
Y5558D01*
X21098Y5608D01*
X21148D01*
X21198Y5558D01*
Y5408D01*
X20898Y5708D02*
Y5808D01*
Y5758D01*
X21198D01*
X21148Y5708D01*
X22198Y4808D02*
Y5008D01*
X22148D01*
X21948Y4808D01*
X21898D01*
Y5008D01*
X22048Y5108D02*
Y5308D01*
X22198Y5408D02*
X21898D01*
Y5558D01*
X21948Y5608D01*
X21998D01*
X22048Y5558D01*
Y5408D01*
Y5558D01*
X22098Y5608D01*
X22148D01*
X22198Y5558D01*
Y5408D01*
X21898Y5908D02*
Y5708D01*
X22098Y5908D01*
X22148D01*
X22198Y5858D01*
Y5758D01*
X22148Y5708D01*
X13181Y4828D02*
X13131D01*
X13031Y4928D01*
X13131Y5028D01*
X13181D01*
X13031Y4928D02*
X12881D01*
X13031Y5128D02*
Y5328D01*
X12881Y5428D02*
X13081D01*
X13181Y5528D01*
X13081Y5628D01*
X12881D01*
X13031D01*
Y5428D01*
X12881Y5728D02*
Y5828D01*
Y5778D01*
X13181D01*
X13131Y5728D01*
X14102Y4828D02*
X14052D01*
X13952Y4928D01*
X14052Y5028D01*
X14102D01*
X13952Y4928D02*
X13802D01*
X13952Y5128D02*
Y5328D01*
X13802Y5428D02*
X14002D01*
X14102Y5528D01*
X14002Y5628D01*
X13802D01*
X13952D01*
Y5428D01*
X13802Y5928D02*
Y5728D01*
X14002Y5928D01*
X14052D01*
X14102Y5878D01*
Y5778D01*
X14052Y5728D01*
X15102Y4828D02*
X15052D01*
X14952Y4928D01*
X15052Y5028D01*
X15102D01*
X14952Y4928D02*
X14802D01*
X14952Y5128D02*
Y5328D01*
X15102Y5428D02*
X14802D01*
Y5578D01*
X14852Y5628D01*
X14902D01*
X14952Y5578D01*
Y5428D01*
Y5578D01*
X15002Y5628D01*
X15052D01*
X15102Y5578D01*
Y5428D01*
X14802Y5728D02*
Y5828D01*
Y5778D01*
X15102D01*
X15052Y5728D01*
X16102Y4828D02*
X16052D01*
X15952Y4928D01*
X16052Y5028D01*
X16102D01*
X15952Y4928D02*
X15802D01*
X15952Y5128D02*
Y5328D01*
X16102Y5428D02*
X15802D01*
Y5578D01*
X15852Y5628D01*
X15902D01*
X15952Y5578D01*
Y5428D01*
Y5578D01*
X16002Y5628D01*
X16052D01*
X16102Y5578D01*
Y5428D01*
X15802Y5928D02*
Y5728D01*
X16002Y5928D01*
X16052D01*
X16102Y5878D01*
Y5778D01*
X16052Y5728D01*
X10240Y4820D02*
X9940Y5020D01*
X10240D02*
X9940Y4820D01*
X10090Y5120D02*
Y5320D01*
X10240Y5420D02*
X9940D01*
Y5570D01*
X9990Y5620D01*
X10040D01*
X10090Y5570D01*
Y5420D01*
Y5570D01*
X10140Y5620D01*
X10190D01*
X10240Y5570D01*
Y5420D01*
X9940Y5920D02*
Y5720D01*
X10140Y5920D01*
X10190D01*
X10240Y5870D01*
Y5770D01*
X10190Y5720D01*
X9240Y4820D02*
X8940Y5020D01*
X9240D02*
X8940Y4820D01*
X9090Y5120D02*
Y5320D01*
X9240Y5420D02*
X8940D01*
Y5570D01*
X8990Y5620D01*
X9040D01*
X9090Y5570D01*
Y5420D01*
Y5570D01*
X9140Y5620D01*
X9190D01*
X9240Y5570D01*
Y5420D01*
X8940Y5720D02*
Y5820D01*
Y5770D01*
X9240D01*
X9190Y5720D01*
X8240Y4820D02*
X7940Y5020D01*
X8240D02*
X7940Y4820D01*
X8090Y5120D02*
Y5320D01*
X7940Y5420D02*
X8140D01*
X8240Y5520D01*
X8140Y5620D01*
X7940D01*
X8090D01*
Y5420D01*
X7940Y5920D02*
Y5720D01*
X8140Y5920D01*
X8190D01*
X8240Y5870D01*
Y5770D01*
X8190Y5720D01*
X7240Y4820D02*
X6940Y5020D01*
X7240D02*
X6940Y4820D01*
X7090Y5120D02*
Y5320D01*
X6940Y5420D02*
X7140D01*
X7240Y5520D01*
X7140Y5620D01*
X6940D01*
X7090D01*
Y5420D01*
X6940Y5720D02*
Y5820D01*
Y5770D01*
X7240D01*
X7190Y5720D01*
X7601Y39031D02*
X7301D01*
X7451D01*
Y39231D01*
X7601D01*
X7301D01*
X7601Y39331D02*
Y39531D01*
Y39431D01*
X7301D01*
Y39631D02*
X7601D01*
Y39781D01*
X7551Y39831D01*
X7451D01*
X7401Y39781D01*
Y39631D01*
Y39731D02*
X7301Y39831D01*
Y39931D02*
Y40031D01*
Y39981D01*
X7601D01*
X7551Y39931D01*
X15561Y39021D02*
X15261D01*
X15411D01*
Y39221D01*
X15561D01*
X15261D01*
X15561Y39321D02*
Y39521D01*
Y39421D01*
X15261D01*
Y39621D02*
X15561D01*
Y39771D01*
X15511Y39821D01*
X15411D01*
X15361Y39771D01*
Y39621D01*
Y39721D02*
X15261Y39821D01*
X15511Y39921D02*
X15561Y39971D01*
Y40071D01*
X15511Y40121D01*
X15461D01*
X15411Y40071D01*
Y40021D01*
Y40071D01*
X15361Y40121D01*
X15311D01*
X15261Y40071D01*
Y39971D01*
X15311Y39921D01*
X11531Y38991D02*
X11231D01*
X11381D01*
Y39191D01*
X11531D01*
X11231D01*
X11531Y39291D02*
Y39491D01*
Y39391D01*
X11231D01*
Y39591D02*
X11531D01*
Y39741D01*
X11481Y39791D01*
X11381D01*
X11331Y39741D01*
Y39591D01*
Y39691D02*
X11231Y39791D01*
Y40091D02*
Y39891D01*
X11431Y40091D01*
X11481D01*
X11531Y40041D01*
Y39941D01*
X11481Y39891D01*
X23514Y39045D02*
X23214D01*
X23364D01*
Y39245D01*
X23514D01*
X23214D01*
X23514Y39345D02*
Y39545D01*
Y39445D01*
X23214D01*
X23514Y39645D02*
X23214D01*
Y39795D01*
X23264Y39845D01*
X23314D01*
X23364Y39795D01*
Y39645D01*
Y39795D01*
X23414Y39845D01*
X23464D01*
X23514Y39795D01*
Y39645D01*
Y39944D02*
X23214D01*
Y40094D01*
X23264Y40144D01*
X23464D01*
X23514Y40094D01*
Y39944D01*
X42251Y24711D02*
X42051D01*
X41951Y24811D01*
X42051Y24911D01*
X42251D01*
Y25011D02*
Y25111D01*
Y25061D01*
X41951D01*
Y25011D01*
Y25111D01*
Y25261D02*
X42251D01*
X41951Y25461D01*
X42251D01*
X41951Y25861D02*
X42251D01*
X42151Y25961D01*
X42251Y26061D01*
X41951D01*
X42251Y26311D02*
Y26211D01*
X42201Y26161D01*
X42001D01*
X41951Y26211D01*
Y26311D01*
X42001Y26360D01*
X42201D01*
X42251Y26311D01*
Y26460D02*
Y26660D01*
Y26560D01*
X41951D01*
X36531Y35101D02*
Y34901D01*
X36431Y34801D01*
X36331Y34901D01*
Y35101D01*
X36231D02*
Y34801D01*
X36081D01*
X36031Y34851D01*
Y34901D01*
X36081Y34951D01*
X36231D01*
X36081D01*
X36031Y35001D01*
Y35051D01*
X36081Y35101D01*
X36231D01*
X35731D02*
X35931D01*
Y34801D01*
X35731D01*
X35931Y34951D02*
X35831D01*
X35631Y35101D02*
Y34801D01*
X35481D01*
X35431Y34851D01*
Y35051D01*
X35481Y35101D01*
X35631D01*
X41581Y14470D02*
X41381D01*
X41281Y14570D01*
X41381Y14670D01*
X41581D01*
X41281Y14770D02*
X41581D01*
X41481Y14870D01*
X41581Y14970D01*
X41281D01*
X41581Y15220D02*
Y15120D01*
X41531Y15070D01*
X41331D01*
X41281Y15120D01*
Y15220D01*
X41331Y15270D01*
X41531D01*
X41581Y15220D01*
Y15370D02*
Y15570D01*
Y15470D01*
X41281D01*
X5671Y36721D02*
Y36521D01*
X5521D01*
Y36621D01*
Y36521D01*
X5371D01*
Y36821D02*
X5571D01*
X5671Y36921D01*
X5571Y37021D01*
X5371D01*
X5521D01*
Y36821D01*
X5371Y37121D02*
X5671D01*
X5371Y37321D01*
X5671D01*
X5371Y37421D02*
Y37521D01*
Y37471D01*
X5671D01*
X5621Y37421D01*
X19551Y38391D02*
Y38191D01*
X19401D01*
Y38291D01*
Y38191D01*
X19251D01*
Y38491D02*
X19451D01*
X19551Y38591D01*
X19451Y38691D01*
X19251D01*
X19401D01*
Y38491D01*
X19251Y38791D02*
X19551D01*
X19251Y38991D01*
X19551D01*
X19251Y39291D02*
Y39091D01*
X19451Y39291D01*
X19501D01*
X19551Y39241D01*
Y39141D01*
X19501Y39091D01*
X39140Y40025D02*
Y39825D01*
X38990D01*
X39040Y39925D01*
Y39975D01*
X38990Y40025D01*
X38891D01*
X38841Y39975D01*
Y39875D01*
X38891Y39825D01*
X39140Y40125D02*
X38941D01*
X38841Y40225D01*
X38941Y40325D01*
X39140D01*
X28944Y14323D02*
X28644D01*
X28794D01*
Y14523D01*
X28944D01*
X28644D01*
X28944Y14773D02*
Y14673D01*
X28894Y14623D01*
X28694D01*
X28644Y14673D01*
Y14773D01*
X28694Y14823D01*
X28894D01*
X28944Y14773D01*
Y14923D02*
X28644D01*
Y15123D01*
X28944Y15223D02*
X28644D01*
Y15373D01*
X28694Y15422D01*
X28894D01*
X28944Y15373D01*
Y15223D01*
X28644Y15572D02*
X28944D01*
Y15672D02*
X28644D01*
X28844Y15522D02*
Y15672D01*
Y15722D01*
X28744Y15522D02*
Y15722D01*
X33245Y15389D02*
Y15189D01*
X33095D01*
Y15289D01*
Y15189D01*
X32945D01*
X33245Y15489D02*
X32945D01*
Y15689D01*
X33195Y15989D02*
X33245Y15939D01*
Y15839D01*
X33195Y15789D01*
X33145D01*
X33095Y15839D01*
Y15939D01*
X33045Y15989D01*
X32995D01*
X32945Y15939D01*
Y15839D01*
X32995Y15789D01*
X33245Y16089D02*
X32945D01*
X33095D01*
Y16289D01*
X33245D01*
X32945D01*
X32895Y16389D02*
Y16589D01*
X33195Y16888D02*
X33245Y16838D01*
Y16738D01*
X33195Y16688D01*
X32995D01*
X32945Y16738D01*
Y16838D01*
X32995Y16888D01*
X33195Y17188D02*
X33245Y17138D01*
Y17038D01*
X33195Y16988D01*
X33145D01*
X33095Y17038D01*
Y17138D01*
X33045Y17188D01*
X32995D01*
X32945Y17138D01*
Y17038D01*
X32995Y16988D01*
X27703Y23624D02*
X27404Y23824D01*
X27703D02*
X27404Y23624D01*
X27554Y23924D02*
Y24124D01*
X27404Y24224D02*
X27703D01*
X27603Y24324D01*
X27703Y24424D01*
X27404D01*
Y24524D02*
X27603D01*
X27703Y24624D01*
X27603Y24724D01*
X27404D01*
X27554D01*
Y24524D01*
X27703Y24824D02*
X27404Y25024D01*
X27703D02*
X27404Y24824D01*
X36547Y13924D02*
X36847D01*
Y14074D01*
X36797Y14124D01*
X36697D01*
X36647Y14074D01*
Y13924D01*
X36547Y14224D02*
X36747D01*
X36847Y14324D01*
X36747Y14424D01*
X36547D01*
X36697D01*
Y14224D01*
X36797Y14524D02*
X36847Y14574D01*
Y14674D01*
X36797Y14724D01*
X36747D01*
X36697Y14674D01*
X36647Y14724D01*
X36597D01*
X36547Y14674D01*
Y14574D01*
X36597Y14524D01*
X36647D01*
X36697Y14574D01*
X36747Y14524D01*
X36797D01*
X36697Y14574D02*
Y14674D01*
X36497Y14824D02*
Y15024D01*
X36847Y15124D02*
X36597D01*
X36547Y15174D01*
Y15274D01*
X36597Y15324D01*
X36847D01*
X36547Y15424D02*
X36847D01*
Y15574D01*
X36797Y15624D01*
X36697D01*
X36647Y15574D01*
Y15424D01*
Y15524D02*
X36547Y15624D01*
X36847Y15724D02*
X36547Y15924D01*
X36847D02*
X36547Y15724D01*
X36847Y16024D02*
X36547D01*
Y16174D01*
X36597Y16224D01*
X36797D01*
X36847Y16174D01*
Y16024D01*
X33314Y22641D02*
X33264D01*
X33164Y22740D01*
X33264Y22840D01*
X33314D01*
X33164Y22740D02*
X33014D01*
X33164Y22940D02*
Y23140D01*
X33014Y23240D02*
X33314D01*
X33214Y23340D01*
X33314Y23440D01*
X33014D01*
X33314Y23540D02*
Y23640D01*
Y23590D01*
X33014D01*
Y23540D01*
Y23640D01*
Y23790D02*
X33314D01*
X33014Y23990D01*
X33314D01*
X38805Y15624D02*
X38855Y15574D01*
Y15474D01*
X38805Y15424D01*
X38605D01*
X38555Y15474D01*
Y15574D01*
X38605Y15624D01*
X38705D01*
Y15524D01*
X38555Y15724D02*
X38855D01*
X38555Y15924D01*
X38855D01*
Y16024D02*
X38555D01*
Y16174D01*
X38605Y16224D01*
X38805D01*
X38855Y16174D01*
Y16024D01*
X18850Y26665D02*
X19150D01*
Y26815D01*
X19100Y26865D01*
X19000D01*
X18950Y26815D01*
Y26665D01*
Y26765D02*
X18850Y26865D01*
X19150Y27165D02*
Y26965D01*
X18850D01*
Y27165D01*
X19000Y26965D02*
Y27065D01*
X19100Y27465D02*
X19150Y27415D01*
Y27315D01*
X19100Y27265D01*
X19050D01*
X19000Y27315D01*
Y27415D01*
X18950Y27465D01*
X18900D01*
X18850Y27415D01*
Y27315D01*
X18900Y27265D01*
X19150Y27765D02*
Y27565D01*
X18850D01*
Y27765D01*
X19000Y27565D02*
Y27665D01*
X19150Y27865D02*
Y28065D01*
Y27965D01*
X18850D01*
X22851Y31481D02*
Y31681D01*
Y31581D01*
X22551D01*
Y31781D02*
X22851D01*
X22751Y31881D01*
X22851Y31981D01*
X22551D01*
X22801Y32281D02*
X22851Y32231D01*
Y32131D01*
X22801Y32081D01*
X22751D01*
X22701Y32131D01*
Y32231D01*
X22651Y32281D01*
X22601D01*
X22551Y32231D01*
Y32131D01*
X22601Y32081D01*
X22551Y32381D02*
X22751Y32581D01*
X22801Y32881D02*
X22851Y32831D01*
Y32731D01*
X22801Y32681D01*
X22751D01*
X22701Y32731D01*
Y32831D01*
X22651Y32881D01*
X22601D01*
X22551Y32831D01*
Y32731D01*
X22601Y32681D01*
X22851Y32981D02*
X22551D01*
X22651Y33081D01*
X22551Y33180D01*
X22851D01*
Y33280D02*
X22551D01*
Y33430D01*
X22601Y33480D01*
X22801D01*
X22851Y33430D01*
Y33280D01*
Y33580D02*
Y33680D01*
Y33630D01*
X22551D01*
Y33580D01*
Y33680D01*
X22851Y33980D02*
Y33880D01*
X22801Y33830D01*
X22601D01*
X22551Y33880D01*
Y33980D01*
X22601Y34030D01*
X22801D01*
X22851Y33980D01*
X20761Y32191D02*
X20811Y32141D01*
Y32041D01*
X20761Y31991D01*
X20711D01*
X20661Y32041D01*
Y32141D01*
X20611Y32191D01*
X20561D01*
X20511Y32141D01*
Y32041D01*
X20561Y31991D01*
X20811Y32291D02*
X20511D01*
X20611Y32391D01*
X20511Y32491D01*
X20811D01*
Y32741D02*
Y32641D01*
X20761Y32591D01*
X20561D01*
X20511Y32641D01*
Y32741D01*
X20561Y32791D01*
X20761D01*
X20811Y32741D01*
X20511Y32891D02*
X20711Y33091D01*
X20811Y33191D02*
Y33391D01*
Y33291D01*
X20511D01*
X20811Y33491D02*
X20511D01*
Y33640D01*
X20561Y33690D01*
X20761D01*
X20811Y33640D01*
Y33491D01*
Y33940D02*
Y33840D01*
X20761Y33790D01*
X20561D01*
X20511Y33840D01*
Y33940D01*
X20561Y33990D01*
X20761D01*
X20811Y33940D01*
X20794Y29933D02*
Y30133D01*
Y30033D01*
X20494D01*
X20794Y30233D02*
X20494D01*
Y30383D01*
X20544Y30433D01*
X20744D01*
X20794Y30383D01*
Y30233D01*
Y30533D02*
Y30633D01*
Y30583D01*
X20494D01*
Y30533D01*
Y30633D01*
X21788Y28063D02*
Y28263D01*
Y28163D01*
X21488D01*
X21738Y28563D02*
X21788Y28513D01*
Y28413D01*
X21738Y28363D01*
X21538D01*
X21488Y28413D01*
Y28513D01*
X21538Y28563D01*
X21788Y28663D02*
X21488D01*
X21588D01*
X21788Y28863D01*
X21638Y28713D01*
X21488Y28863D01*
Y28963D02*
X21688Y29163D01*
X21738Y29463D02*
X21788Y29413D01*
Y29313D01*
X21738Y29263D01*
X21688D01*
X21638Y29313D01*
Y29413D01*
X21588Y29463D01*
X21538D01*
X21488Y29413D01*
Y29313D01*
X21538Y29263D01*
X21788Y29563D02*
X21488D01*
X21588Y29662D01*
X21488Y29762D01*
X21788D01*
X21738Y30062D02*
X21788Y30012D01*
Y29912D01*
X21738Y29862D01*
X21538D01*
X21488Y29912D01*
Y30012D01*
X21538Y30062D01*
X21788Y30162D02*
X21488D01*
Y30362D01*
X21788Y30462D02*
X21488D01*
X21588D01*
X21788Y30662D01*
X21638Y30512D01*
X21488Y30662D01*
X27961Y31031D02*
Y30831D01*
X27661D01*
Y31031D01*
X27811Y30831D02*
Y30931D01*
X27661Y31131D02*
X27961D01*
Y31281D01*
X27911Y31331D01*
X27811D01*
X27761Y31281D01*
Y31131D01*
Y31231D02*
X27661Y31331D01*
Y31431D02*
X27861D01*
X27961Y31531D01*
X27861Y31631D01*
X27661D01*
X27811D01*
Y31431D01*
X27911Y31931D02*
X27961Y31881D01*
Y31781D01*
X27911Y31731D01*
X27861D01*
X27811Y31781D01*
Y31881D01*
X27761Y31931D01*
X27711D01*
X27661Y31881D01*
Y31781D01*
X27711Y31731D01*
X27961Y32231D02*
Y32031D01*
X27661D01*
Y32231D01*
X27811Y32031D02*
Y32131D01*
X8014Y27703D02*
Y27454D01*
X7964Y27404D01*
X7864D01*
X7814Y27454D01*
Y27703D01*
X7514Y27653D02*
X7564Y27703D01*
X7664D01*
X7714Y27653D01*
Y27603D01*
X7664Y27554D01*
X7564D01*
X7514Y27504D01*
Y27454D01*
X7564Y27404D01*
X7664D01*
X7714Y27454D01*
X7414Y27703D02*
Y27404D01*
X7264D01*
X7214Y27454D01*
Y27504D01*
X7264Y27554D01*
X7414D01*
X7264D01*
X7214Y27603D01*
Y27653D01*
X7264Y27703D01*
X7414D01*
X7114Y27404D02*
Y27703D01*
X6914Y27404D01*
Y27703D01*
X34761Y73691D02*
Y73491D01*
X34661Y73391D01*
X34561Y73491D01*
Y73691D01*
X34461D02*
X34361D01*
X34411D01*
Y73391D01*
X34461D01*
X34361D01*
X34211D02*
Y73691D01*
X34011Y73391D01*
Y73691D01*
X33411D02*
X33611D01*
Y73541D01*
X33511D01*
X33611D01*
Y73391D01*
X33112Y73691D02*
X33311D01*
Y73391D01*
X33112D01*
X33311Y73541D02*
X33212D01*
X33012Y73691D02*
X32812D01*
X32912D01*
Y73391D01*
X32712D02*
X32562D01*
X32512Y73441D01*
X32562Y73491D01*
X32662D01*
X32712Y73541D01*
X32662Y73591D01*
X32512D01*
X38591Y74221D02*
Y74021D01*
X38491Y73921D01*
X38391Y74021D01*
Y74221D01*
X38291D02*
X38191D01*
X38241D01*
Y73921D01*
X38291D01*
X38191D01*
X38041D02*
Y74221D01*
X37841Y73921D01*
Y74221D01*
X37441D02*
Y73921D01*
X37291D01*
X37241Y73971D01*
Y74021D01*
X37291Y74071D01*
X37441D01*
X37291D01*
X37241Y74121D01*
Y74171D01*
X37291Y74221D01*
X37441D01*
X36942D02*
X37141D01*
Y73921D01*
X36942D01*
X37141Y74071D02*
X37042D01*
X36842Y74221D02*
Y73921D01*
X36692D01*
X36642Y73971D01*
Y74171D01*
X36692Y74221D01*
X36842D01*
X40767Y49718D02*
X40817Y49768D01*
X40917D01*
X40967Y49718D01*
Y49518D01*
X40917Y49468D01*
X40817D01*
X40767Y49518D01*
Y49618D01*
X40867D01*
X40667Y49468D02*
Y49768D01*
X40467Y49468D01*
Y49768D01*
X40367D02*
Y49468D01*
X40217D01*
X40167Y49518D01*
Y49718D01*
X40217Y49768D01*
X40367D01*
X3951Y76391D02*
X3751D01*
X3651Y76491D01*
X3751Y76591D01*
X3951D01*
Y76691D02*
X3651D01*
X3801D01*
Y76891D01*
X3951D01*
X3651D01*
X3951Y77191D02*
Y76991D01*
X3651D01*
Y77191D01*
X3801Y76991D02*
Y77091D01*
X3651Y77291D02*
X3851D01*
X3951Y77391D01*
X3851Y77491D01*
X3651D01*
X3801D01*
Y77291D01*
X3951Y77591D02*
Y77791D01*
Y77691D01*
X3651D01*
X5488Y48252D02*
X5188Y48452D01*
X5488D02*
X5188Y48252D01*
X5338Y48552D02*
Y48752D01*
X5188Y48852D02*
X5388D01*
X5488Y48952D01*
X5388Y49052D01*
X5188D01*
X5338D01*
Y48852D01*
X5188Y49152D02*
Y49252D01*
Y49202D01*
X5488D01*
X5438Y49152D01*
X6488Y48152D02*
X6188Y48352D01*
X6488D02*
X6188Y48152D01*
X6338Y48452D02*
Y48652D01*
X6188Y48752D02*
X6388D01*
X6488Y48852D01*
X6388Y48952D01*
X6188D01*
X6338D01*
Y48752D01*
X6188Y49252D02*
Y49052D01*
X6388Y49252D01*
X6438D01*
X6488Y49202D01*
Y49102D01*
X6438Y49052D01*
X7488Y48252D02*
X7188Y48452D01*
X7488D02*
X7188Y48252D01*
X7338Y48552D02*
Y48752D01*
X7488Y48852D02*
X7188D01*
Y49002D01*
X7238Y49052D01*
X7288D01*
X7338Y49002D01*
Y48852D01*
Y49002D01*
X7388Y49052D01*
X7438D01*
X7488Y49002D01*
Y48852D01*
X7188Y49152D02*
Y49252D01*
Y49202D01*
X7488D01*
X7438Y49152D01*
X8488Y48152D02*
X8188Y48352D01*
X8488D02*
X8188Y48152D01*
X8338Y48452D02*
Y48652D01*
X8488Y48752D02*
X8188D01*
Y48902D01*
X8238Y48952D01*
X8288D01*
X8338Y48902D01*
Y48752D01*
Y48902D01*
X8388Y48952D01*
X8438D01*
X8488Y48902D01*
Y48752D01*
X8188Y49252D02*
Y49052D01*
X8388Y49252D01*
X8438D01*
X8488Y49202D01*
Y49102D01*
X8438Y49052D01*
X15453Y48152D02*
X15403D01*
X15303Y48252D01*
X15403Y48352D01*
X15453D01*
X15303Y48252D02*
X15153D01*
X15303Y48452D02*
Y48652D01*
X15453Y48752D02*
X15153D01*
Y48902D01*
X15203Y48952D01*
X15253D01*
X15303Y48902D01*
Y48752D01*
Y48902D01*
X15353Y48952D01*
X15403D01*
X15453Y48902D01*
Y48752D01*
X15153Y49252D02*
Y49052D01*
X15353Y49252D01*
X15403D01*
X15453Y49202D01*
Y49102D01*
X15403Y49052D01*
X14453Y48252D02*
X14403D01*
X14303Y48352D01*
X14403Y48452D01*
X14453D01*
X14303Y48352D02*
X14153D01*
X14303Y48552D02*
Y48752D01*
X14453Y48852D02*
X14153D01*
Y49002D01*
X14203Y49052D01*
X14253D01*
X14303Y49002D01*
Y48852D01*
Y49002D01*
X14353Y49052D01*
X14403D01*
X14453Y49002D01*
Y48852D01*
X14153Y49152D02*
Y49252D01*
Y49202D01*
X14453D01*
X14403Y49152D01*
X13453Y48152D02*
X13403D01*
X13303Y48252D01*
X13403Y48352D01*
X13453D01*
X13303Y48252D02*
X13153D01*
X13303Y48452D02*
Y48652D01*
X13153Y48752D02*
X13353D01*
X13453Y48852D01*
X13353Y48952D01*
X13153D01*
X13303D01*
Y48752D01*
X13153Y49252D02*
Y49052D01*
X13353Y49252D01*
X13403D01*
X13453Y49202D01*
Y49102D01*
X13403Y49052D01*
X12531Y48252D02*
X12481D01*
X12381Y48352D01*
X12481Y48452D01*
X12531D01*
X12381Y48352D02*
X12231D01*
X12381Y48552D02*
Y48752D01*
X12231Y48852D02*
X12431D01*
X12531Y48952D01*
X12431Y49052D01*
X12231D01*
X12381D01*
Y48852D01*
X12231Y49152D02*
Y49252D01*
Y49202D01*
X12531D01*
X12481Y49152D01*
X22523Y48152D02*
Y48352D01*
X22473D01*
X22273Y48152D01*
X22223D01*
Y48352D01*
X22373Y48452D02*
Y48652D01*
X22523Y48752D02*
X22223D01*
Y48902D01*
X22273Y48952D01*
X22323D01*
X22373Y48902D01*
Y48752D01*
Y48902D01*
X22423Y48952D01*
X22473D01*
X22523Y48902D01*
Y48752D01*
X22223Y49252D02*
Y49052D01*
X22423Y49252D01*
X22473D01*
X22523Y49202D01*
Y49102D01*
X22473Y49052D01*
X21523Y48252D02*
Y48452D01*
X21473D01*
X21273Y48252D01*
X21223D01*
Y48452D01*
X21373Y48552D02*
Y48752D01*
X21523Y48852D02*
X21223D01*
Y49002D01*
X21273Y49052D01*
X21323D01*
X21373Y49002D01*
Y48852D01*
Y49002D01*
X21423Y49052D01*
X21473D01*
X21523Y49002D01*
Y48852D01*
X21223Y49152D02*
Y49252D01*
Y49202D01*
X21523D01*
X21473Y49152D01*
X20523Y48152D02*
Y48352D01*
X20473D01*
X20273Y48152D01*
X20223D01*
Y48352D01*
X20373Y48452D02*
Y48652D01*
X20223Y48752D02*
X20423D01*
X20523Y48852D01*
X20423Y48952D01*
X20223D01*
X20373D01*
Y48752D01*
X20223Y49252D02*
Y49052D01*
X20423Y49252D01*
X20473D01*
X20523Y49202D01*
Y49102D01*
X20473Y49052D01*
X19523Y48252D02*
Y48452D01*
X19473D01*
X19273Y48252D01*
X19223D01*
Y48452D01*
X19373Y48552D02*
Y48752D01*
X19223Y48852D02*
X19423D01*
X19523Y48952D01*
X19423Y49052D01*
X19223D01*
X19373D01*
Y48852D01*
X19223Y49152D02*
Y49252D01*
Y49202D01*
X19523D01*
X19473Y49152D01*
X29642Y48102D02*
Y47902D01*
X29343D01*
Y48102D01*
X29492Y47902D02*
Y48002D01*
X29343Y48202D02*
Y48302D01*
Y48252D01*
X29642D01*
X29592Y48202D01*
X29492Y48452D02*
Y48652D01*
X29642Y48752D02*
X29343D01*
Y48902D01*
X29392Y48952D01*
X29442D01*
X29492Y48902D01*
Y48752D01*
Y48902D01*
X29542Y48952D01*
X29592D01*
X29642Y48902D01*
Y48752D01*
X29343Y49252D02*
Y49052D01*
X29542Y49252D01*
X29592D01*
X29642Y49202D01*
Y49102D01*
X29592Y49052D01*
X28619Y48202D02*
Y48002D01*
X28319D01*
Y48202D01*
X28469Y48002D02*
Y48102D01*
X28319Y48302D02*
Y48402D01*
Y48352D01*
X28619D01*
X28569Y48302D01*
X28469Y48552D02*
Y48752D01*
X28619Y48852D02*
X28319D01*
Y49002D01*
X28369Y49052D01*
X28419D01*
X28469Y49002D01*
Y48852D01*
Y49002D01*
X28519Y49052D01*
X28569D01*
X28619Y49002D01*
Y48852D01*
X28319Y49152D02*
Y49252D01*
Y49202D01*
X28619D01*
X28569Y49152D01*
X27635Y48102D02*
Y47902D01*
X27335D01*
Y48102D01*
X27485Y47902D02*
Y48002D01*
X27335Y48202D02*
Y48302D01*
Y48252D01*
X27635D01*
X27585Y48202D01*
X27485Y48452D02*
Y48652D01*
X27335Y48752D02*
X27535D01*
X27635Y48852D01*
X27535Y48952D01*
X27335D01*
X27485D01*
Y48752D01*
X27335Y49252D02*
Y49052D01*
X27535Y49252D01*
X27585D01*
X27635Y49202D01*
Y49102D01*
X27585Y49052D01*
X26611Y48202D02*
Y48002D01*
X26311D01*
Y48202D01*
X26461Y48002D02*
Y48102D01*
X26311Y48302D02*
Y48402D01*
Y48352D01*
X26611D01*
X26561Y48302D01*
X26461Y48552D02*
Y48752D01*
X26311Y48852D02*
X26511D01*
X26611Y48952D01*
X26511Y49052D01*
X26311D01*
X26461D01*
Y48852D01*
X26311Y49152D02*
Y49252D01*
Y49202D01*
X26611D01*
X26561Y49152D01*
X36700Y48045D02*
Y47845D01*
X36400D01*
Y48045D01*
X36550Y47845D02*
Y47945D01*
X36400Y48345D02*
Y48145D01*
X36600Y48345D01*
X36650D01*
X36700Y48295D01*
Y48195D01*
X36650Y48145D01*
X36550Y48445D02*
Y48644D01*
X36700Y48744D02*
X36400D01*
Y48894D01*
X36450Y48944D01*
X36500D01*
X36550Y48894D01*
Y48744D01*
Y48894D01*
X36600Y48944D01*
X36650D01*
X36700Y48894D01*
Y48744D01*
X36400Y49244D02*
Y49044D01*
X36600Y49244D01*
X36650D01*
X36700Y49194D01*
Y49094D01*
X36650Y49044D01*
X35735Y48145D02*
Y47945D01*
X35435D01*
Y48145D01*
X35585Y47945D02*
Y48045D01*
X35435Y48445D02*
Y48245D01*
X35635Y48445D01*
X35685D01*
X35735Y48395D01*
Y48295D01*
X35685Y48245D01*
X35585Y48544D02*
Y48744D01*
X35735Y48844D02*
X35435D01*
Y48994D01*
X35485Y49044D01*
X35535D01*
X35585Y48994D01*
Y48844D01*
Y48994D01*
X35635Y49044D01*
X35685D01*
X35735Y48994D01*
Y48844D01*
X35435Y49144D02*
Y49244D01*
Y49194D01*
X35735D01*
X35685Y49144D01*
X34711Y48045D02*
Y47845D01*
X34411D01*
Y48045D01*
X34561Y47845D02*
Y47945D01*
X34411Y48345D02*
Y48145D01*
X34611Y48345D01*
X34661D01*
X34711Y48295D01*
Y48195D01*
X34661Y48145D01*
X34561Y48445D02*
Y48644D01*
X34411Y48744D02*
X34611D01*
X34711Y48844D01*
X34611Y48944D01*
X34411D01*
X34561D01*
Y48744D01*
X34411Y49244D02*
Y49044D01*
X34611Y49244D01*
X34661D01*
X34711Y49194D01*
Y49094D01*
X34661Y49044D01*
X33725Y48145D02*
Y47945D01*
X33425D01*
Y48145D01*
X33575Y47945D02*
Y48045D01*
X33425Y48445D02*
Y48245D01*
X33625Y48445D01*
X33675D01*
X33725Y48395D01*
Y48295D01*
X33675Y48245D01*
X33575Y48544D02*
Y48744D01*
X33425Y48844D02*
X33625D01*
X33725Y48944D01*
X33625Y49044D01*
X33425D01*
X33575D01*
Y48844D01*
X33425Y49144D02*
Y49244D01*
Y49194D01*
X33725D01*
X33675Y49144D01*
X4790Y65276D02*
X4540D01*
X4490Y65326D01*
Y65426D01*
X4540Y65476D01*
X4790D01*
X4740Y65775D02*
X4790Y65725D01*
Y65625D01*
X4740Y65575D01*
X4690D01*
X4640Y65625D01*
Y65725D01*
X4590Y65775D01*
X4540D01*
X4490Y65725D01*
Y65625D01*
X4540Y65575D01*
X4790Y65875D02*
X4490D01*
Y66025D01*
X4540Y66075D01*
X4590D01*
X4640Y66025D01*
Y65875D01*
Y66025D01*
X4690Y66075D01*
X4740D01*
X4790Y66025D01*
Y65875D01*
X4740Y66375D02*
X4790Y66325D01*
Y66225D01*
X4740Y66175D01*
X4540D01*
X4490Y66225D01*
Y66325D01*
X4540Y66375D01*
X4640D01*
Y66275D01*
X4490Y66475D02*
X4790D01*
X4490Y66675D01*
X4790D01*
Y66775D02*
X4490D01*
Y66925D01*
X4540Y66975D01*
X4740D01*
X4790Y66925D01*
Y66775D01*
X8274Y64272D02*
X8024D01*
X7974Y64322D01*
Y64422D01*
X8024Y64472D01*
X8274D01*
X8224Y64771D02*
X8274Y64722D01*
Y64622D01*
X8224Y64572D01*
X8174D01*
X8124Y64622D01*
Y64722D01*
X8074Y64771D01*
X8024D01*
X7974Y64722D01*
Y64622D01*
X8024Y64572D01*
X8274Y64871D02*
X7974D01*
Y65021D01*
X8024Y65071D01*
X8074D01*
X8124Y65021D01*
Y64871D01*
Y65021D01*
X8174Y65071D01*
X8224D01*
X8274Y65021D01*
Y64871D01*
Y65371D02*
Y65171D01*
X8124D01*
X8174Y65271D01*
Y65321D01*
X8124Y65371D01*
X8024D01*
X7974Y65321D01*
Y65221D01*
X8024Y65171D01*
X8274Y65471D02*
X8074D01*
X7974Y65571D01*
X8074Y65671D01*
X8274D01*
X8959Y67416D02*
Y67166D01*
X8909Y67116D01*
X8809D01*
X8759Y67166D01*
Y67416D01*
X8459Y67366D02*
X8509Y67416D01*
X8609D01*
X8659Y67366D01*
Y67316D01*
X8609Y67266D01*
X8509D01*
X8459Y67216D01*
Y67166D01*
X8509Y67116D01*
X8609D01*
X8659Y67166D01*
X8359Y67416D02*
Y67116D01*
X8209D01*
X8159Y67166D01*
Y67216D01*
X8209Y67266D01*
X8359D01*
X8209D01*
X8159Y67316D01*
Y67366D01*
X8209Y67416D01*
X8359D01*
X8059Y67116D02*
Y67416D01*
X7909D01*
X7859Y67366D01*
Y67266D01*
X7909Y67216D01*
X8059D01*
X42581Y75971D02*
X42631Y75921D01*
Y75821D01*
X42581Y75771D01*
X42381D01*
X42331Y75821D01*
Y75921D01*
X42381Y75971D01*
X42481D01*
Y75871D01*
X42331Y76071D02*
X42631D01*
X42331Y76271D01*
X42631D01*
Y76371D02*
X42331D01*
Y76521D01*
X42381Y76571D01*
X42581D01*
X42631Y76521D01*
Y76371D01*
X31111Y67771D02*
X30911Y67471D01*
Y67771D02*
X31111Y67471D01*
X30811Y67621D02*
X30611D01*
X30511Y67471D02*
Y67771D01*
X30411Y67671D01*
X30311Y67771D01*
Y67471D01*
X30211Y67771D02*
X30111D01*
X30161D01*
Y67471D01*
X30211D01*
X30111D01*
X29961D02*
Y67771D01*
X29761Y67471D01*
Y67771D01*
X20280Y53868D02*
X20580D01*
Y54018D01*
X20530Y54068D01*
X20430D01*
X20380Y54018D01*
Y53868D01*
X20580Y54168D02*
X20280D01*
Y54318D01*
X20330Y54368D01*
X20380D01*
X20430Y54318D01*
Y54168D01*
Y54318D01*
X20480Y54368D01*
X20530D01*
X20580Y54318D01*
Y54168D01*
X20530Y54468D02*
X20580Y54518D01*
Y54618D01*
X20530Y54668D01*
X20330D01*
X20280Y54618D01*
Y54518D01*
X20330Y54468D01*
X20530D01*
X20230Y54768D02*
Y54968D01*
X20580Y55268D02*
Y55068D01*
X20280D01*
Y55268D01*
X20430Y55068D02*
Y55168D01*
X20580Y55368D02*
Y55568D01*
Y55468D01*
X20280D01*
X20580Y55668D02*
X20280Y55868D01*
X20580D02*
X20280Y55668D01*
X20530Y56167D02*
X20580Y56118D01*
Y56018D01*
X20530Y55968D01*
X20330D01*
X20280Y56018D01*
Y56118D01*
X20330Y56167D01*
X20580Y56267D02*
X20280D01*
X20380D01*
X20580Y56467D01*
X20430Y56317D01*
X20280Y56467D01*
X19690Y54168D02*
X19990D01*
Y54318D01*
X19940Y54368D01*
X19840D01*
X19790Y54318D01*
Y54168D01*
X19990Y54468D02*
X19690D01*
Y54618D01*
X19740Y54668D01*
X19790D01*
X19840Y54618D01*
Y54468D01*
Y54618D01*
X19890Y54668D01*
X19940D01*
X19990Y54618D01*
Y54468D01*
X19690Y54968D02*
Y54768D01*
X19890Y54968D01*
X19940D01*
X19990Y54918D01*
Y54818D01*
X19940Y54768D01*
X19640Y55068D02*
Y55268D01*
X19990Y55568D02*
Y55368D01*
X19690D01*
Y55568D01*
X19840Y55368D02*
Y55468D01*
X19990Y55668D02*
Y55868D01*
Y55768D01*
X19690D01*
X19990Y55968D02*
X19690Y56167D01*
X19990D02*
X19690Y55968D01*
X19940Y56267D02*
X19990Y56317D01*
Y56417D01*
X19940Y56467D01*
X19740D01*
X19690Y56417D01*
Y56317D01*
X19740Y56267D01*
X19940D01*
X19101Y54168D02*
X19400D01*
Y54318D01*
X19350Y54368D01*
X19250D01*
X19201Y54318D01*
Y54168D01*
X19400Y54468D02*
X19101D01*
Y54618D01*
X19151Y54668D01*
X19201D01*
X19250Y54618D01*
Y54468D01*
Y54618D01*
X19300Y54668D01*
X19350D01*
X19400Y54618D01*
Y54468D01*
Y54968D02*
Y54768D01*
X19250D01*
X19300Y54868D01*
Y54918D01*
X19250Y54968D01*
X19151D01*
X19101Y54918D01*
Y54818D01*
X19151Y54768D01*
X19051Y55068D02*
Y55268D01*
X19400Y55568D02*
Y55368D01*
X19101D01*
Y55568D01*
X19250Y55368D02*
Y55468D01*
X19101Y55668D02*
X19400D01*
Y55818D01*
X19350Y55868D01*
X19250D01*
X19201Y55818D01*
Y55668D01*
Y55768D02*
X19101Y55868D01*
X19400Y55968D02*
X19101Y56167D01*
X19400D02*
X19101Y55968D01*
X19350Y56267D02*
X19400Y56317D01*
Y56417D01*
X19350Y56467D01*
X19151D01*
X19101Y56417D01*
Y56317D01*
X19151Y56267D01*
X19350D01*
X18511Y53568D02*
X18811D01*
Y53718D01*
X18761Y53768D01*
X18661D01*
X18611Y53718D01*
Y53568D01*
X18811Y53868D02*
X18511D01*
Y54018D01*
X18561Y54068D01*
X18611D01*
X18661Y54018D01*
Y53868D01*
Y54018D01*
X18711Y54068D01*
X18761D01*
X18811Y54018D01*
Y53868D01*
X18511Y54318D02*
X18811D01*
X18661Y54168D01*
Y54368D01*
X18461Y54468D02*
Y54668D01*
X18811Y54968D02*
Y54768D01*
X18511D01*
Y54968D01*
X18661Y54768D02*
Y54868D01*
X18761Y55268D02*
X18811Y55218D01*
Y55118D01*
X18761Y55068D01*
X18561D01*
X18511Y55118D01*
Y55218D01*
X18561Y55268D01*
X18511Y55368D02*
X18811D01*
Y55518D01*
X18761Y55568D01*
X18661D01*
X18611Y55518D01*
Y55368D01*
Y55468D02*
X18511Y55568D01*
X18761Y55868D02*
X18811Y55818D01*
Y55718D01*
X18761Y55668D01*
X18711D01*
X18661Y55718D01*
Y55818D01*
X18611Y55868D01*
X18561D01*
X18511Y55818D01*
Y55718D01*
X18561Y55668D01*
X18811Y55968D02*
X18511D01*
Y56118D01*
X18561Y56167D01*
X18761D01*
X18811Y56118D01*
Y55968D01*
Y56267D02*
X18611D01*
X18511Y56367D01*
X18611Y56467D01*
X18811D01*
X17921Y53868D02*
X18221D01*
Y54018D01*
X18171Y54068D01*
X18071D01*
X18021Y54018D01*
Y53868D01*
X18221Y54168D02*
X17921D01*
Y54318D01*
X17971Y54368D01*
X18021D01*
X18071Y54318D01*
Y54168D01*
Y54318D01*
X18121Y54368D01*
X18171D01*
X18221Y54318D01*
Y54168D01*
Y54468D02*
Y54668D01*
X18171D01*
X17971Y54468D01*
X17921D01*
X17872Y54768D02*
Y54968D01*
X18221Y55268D02*
Y55068D01*
X17921D01*
Y55268D01*
X18071Y55068D02*
Y55168D01*
X17921Y55368D02*
X18221D01*
Y55518D01*
X18171Y55568D01*
X18071D01*
X18021Y55518D01*
Y55368D01*
Y55468D02*
X17921Y55568D01*
X18221Y55668D02*
X17921Y55868D01*
X18221D02*
X17921Y55668D01*
X18221Y56167D02*
Y55968D01*
X17921D01*
Y56167D01*
X18071Y55968D02*
Y56068D01*
X17921Y56267D02*
X18221D01*
Y56417D01*
X18171Y56467D01*
X18071D01*
X18021Y56417D01*
Y56267D01*
Y56367D02*
X17921Y56467D01*
X20869Y53918D02*
X21169D01*
Y54068D01*
X21119Y54118D01*
X21019D01*
X20969Y54068D01*
Y53918D01*
X20869Y54218D02*
X21069D01*
X21169Y54318D01*
X21069Y54418D01*
X20869D01*
X21019D01*
Y54218D01*
X20869Y54718D02*
Y54518D01*
X21069Y54718D01*
X21119D01*
X21169Y54668D01*
Y54568D01*
X21119Y54518D01*
X21169Y55018D02*
Y54818D01*
X21019D01*
X21069Y54918D01*
Y54968D01*
X21019Y55018D01*
X20919D01*
X20869Y54968D01*
Y54868D01*
X20919Y54818D01*
X20819Y55118D02*
Y55318D01*
X20869Y55418D02*
X21169D01*
X21069Y55518D01*
X21169Y55618D01*
X20869D01*
X21169Y55718D02*
Y55818D01*
Y55768D01*
X20869D01*
Y55718D01*
Y55818D01*
X21119Y56167D02*
X21169Y56118D01*
Y56018D01*
X21119Y55968D01*
X21069D01*
X21019Y56018D01*
Y56118D01*
X20969Y56167D01*
X20919D01*
X20869Y56118D01*
Y56018D01*
X20919Y55968D01*
X21169Y56417D02*
Y56317D01*
X21119Y56267D01*
X20919D01*
X20869Y56317D01*
Y56417D01*
X20919Y56467D01*
X21119D01*
X21169Y56417D01*
X21459Y53868D02*
X21759D01*
Y54018D01*
X21709Y54068D01*
X21609D01*
X21559Y54018D01*
Y53868D01*
X21459Y54168D02*
X21659D01*
X21759Y54268D01*
X21659Y54368D01*
X21459D01*
X21609D01*
Y54168D01*
X21459Y54668D02*
Y54468D01*
X21659Y54668D01*
X21709D01*
X21759Y54618D01*
Y54518D01*
X21709Y54468D01*
X21759Y54768D02*
Y54968D01*
X21709D01*
X21509Y54768D01*
X21459D01*
X21409Y55068D02*
Y55268D01*
X21709Y55568D02*
X21759Y55518D01*
Y55418D01*
X21709Y55368D01*
X21659D01*
X21609Y55418D01*
Y55518D01*
X21559Y55568D01*
X21509D01*
X21459Y55518D01*
Y55418D01*
X21509Y55368D01*
X21709Y55868D02*
X21759Y55818D01*
Y55718D01*
X21709Y55668D01*
X21509D01*
X21459Y55718D01*
Y55818D01*
X21509Y55868D01*
X21759Y55968D02*
X21459D01*
Y56167D01*
X21759Y56267D02*
X21459D01*
X21559D01*
X21759Y56467D01*
X21609Y56317D01*
X21459Y56467D01*
X21471Y58799D02*
X21771D01*
Y58949D01*
X21721Y58999D01*
X21621D01*
X21571Y58949D01*
Y58799D01*
X21771Y59099D02*
X21471D01*
Y59249D01*
X21521Y59299D01*
X21571D01*
X21621Y59249D01*
Y59099D01*
Y59249D01*
X21671Y59299D01*
X21721D01*
X21771Y59249D01*
Y59099D01*
X21471Y59599D02*
Y59399D01*
X21671Y59599D01*
X21721D01*
X21771Y59549D01*
Y59449D01*
X21721Y59399D01*
X21471Y59699D02*
Y59799D01*
Y59749D01*
X21771D01*
X21721Y59699D01*
X21421Y59949D02*
Y60149D01*
X21721Y60449D02*
X21771Y60399D01*
Y60299D01*
X21721Y60249D01*
X21521D01*
X21471Y60299D01*
Y60399D01*
X21521Y60449D01*
X21721Y60749D02*
X21771Y60699D01*
Y60599D01*
X21721Y60549D01*
X21671D01*
X21621Y60599D01*
Y60699D01*
X21571Y60749D01*
X21521D01*
X21471Y60699D01*
Y60599D01*
X21521Y60549D01*
X21471Y61048D02*
Y60849D01*
X21671Y61048D01*
X21721D01*
X21771Y60999D01*
Y60899D01*
X21721Y60849D01*
X20879Y58799D02*
X21179D01*
Y58949D01*
X21129Y58999D01*
X21029D01*
X20979Y58949D01*
Y58799D01*
X20879Y59099D02*
X21079D01*
X21179Y59199D01*
X21079Y59299D01*
X20879D01*
X21029D01*
Y59099D01*
X20879Y59599D02*
Y59399D01*
X21079Y59599D01*
X21129D01*
X21179Y59549D01*
Y59449D01*
X21129Y59399D01*
X21179Y59899D02*
X21129Y59799D01*
X21029Y59699D01*
X20929D01*
X20879Y59749D01*
Y59849D01*
X20929Y59899D01*
X20979D01*
X21029Y59849D01*
Y59699D01*
X20829Y59999D02*
Y60199D01*
X20879Y60299D02*
X21179D01*
X21079Y60399D01*
X21179Y60499D01*
X20879D01*
X21179Y60749D02*
Y60649D01*
X21129Y60599D01*
X20929D01*
X20879Y60649D01*
Y60749D01*
X20929Y60799D01*
X21129D01*
X21179Y60749D01*
X21129Y61098D02*
X21179Y61048D01*
Y60949D01*
X21129Y60899D01*
X21079D01*
X21029Y60949D01*
Y61048D01*
X20979Y61098D01*
X20929D01*
X20879Y61048D01*
Y60949D01*
X20929Y60899D01*
X21179Y61198D02*
Y61298D01*
Y61248D01*
X20879D01*
Y61198D01*
Y61298D01*
X17922Y58799D02*
X18222D01*
Y58949D01*
X18172Y58999D01*
X18072D01*
X18022Y58949D01*
Y58799D01*
X18222Y59099D02*
X17922D01*
Y59249D01*
X17972Y59299D01*
X18022D01*
X18072Y59249D01*
Y59099D01*
Y59249D01*
X18122Y59299D01*
X18172D01*
X18222Y59249D01*
Y59099D01*
X17972Y59399D02*
X17922Y59449D01*
Y59549D01*
X17972Y59599D01*
X18172D01*
X18222Y59549D01*
Y59449D01*
X18172Y59399D01*
X18122D01*
X18072Y59449D01*
Y59599D01*
X17872Y59699D02*
Y59899D01*
X18222Y60199D02*
Y59999D01*
X17922D01*
Y60199D01*
X18072Y59999D02*
Y60099D01*
X17922Y60299D02*
X18222D01*
X18122Y60399D01*
X18222Y60499D01*
X17922D01*
X18222Y60599D02*
X17922D01*
Y60749D01*
X17972Y60799D01*
X18172D01*
X18222Y60749D01*
Y60599D01*
Y60899D02*
Y60999D01*
Y60949D01*
X17922D01*
Y60899D01*
Y60999D01*
X18222Y61298D02*
Y61198D01*
X18172Y61148D01*
X17972D01*
X17922Y61198D01*
Y61298D01*
X17972Y61348D01*
X18172D01*
X18222Y61298D01*
X18513Y58799D02*
X18813D01*
Y58949D01*
X18763Y58999D01*
X18663D01*
X18613Y58949D01*
Y58799D01*
X18813Y59099D02*
X18513D01*
Y59249D01*
X18563Y59299D01*
X18613D01*
X18663Y59249D01*
Y59099D01*
Y59249D01*
X18713Y59299D01*
X18763D01*
X18813Y59249D01*
Y59099D01*
X18763Y59399D02*
X18813Y59449D01*
Y59549D01*
X18763Y59599D01*
X18713D01*
X18663Y59549D01*
X18613Y59599D01*
X18563D01*
X18513Y59549D01*
Y59449D01*
X18563Y59399D01*
X18613D01*
X18663Y59449D01*
X18713Y59399D01*
X18763D01*
X18663Y59449D02*
Y59549D01*
X18463Y59699D02*
Y59899D01*
X18813Y60199D02*
Y59999D01*
X18513D01*
Y60199D01*
X18663Y59999D02*
Y60099D01*
X18513Y60299D02*
X18813D01*
X18713Y60399D01*
X18813Y60499D01*
X18513D01*
X18813Y60599D02*
X18513D01*
Y60749D01*
X18563Y60799D01*
X18763D01*
X18813Y60749D01*
Y60599D01*
X18763Y61098D02*
X18813Y61048D01*
Y60949D01*
X18763Y60899D01*
X18563D01*
X18513Y60949D01*
Y61048D01*
X18563Y61098D01*
X19105Y58799D02*
X19405D01*
Y58949D01*
X19355Y58999D01*
X19255D01*
X19205Y58949D01*
Y58799D01*
X19405Y59099D02*
X19105D01*
Y59249D01*
X19155Y59299D01*
X19205D01*
X19255Y59249D01*
Y59099D01*
Y59249D01*
X19305Y59299D01*
X19355D01*
X19405Y59249D01*
Y59099D01*
Y59599D02*
X19355Y59499D01*
X19255Y59399D01*
X19155D01*
X19105Y59449D01*
Y59549D01*
X19155Y59599D01*
X19205D01*
X19255Y59549D01*
Y59399D01*
X19055Y59699D02*
Y59899D01*
X19405Y60199D02*
Y59999D01*
X19105D01*
Y60199D01*
X19255Y59999D02*
Y60099D01*
X19105Y60299D02*
X19405D01*
Y60449D01*
X19355Y60499D01*
X19255D01*
X19205Y60449D01*
Y60299D01*
Y60399D02*
X19105Y60499D01*
X19405Y60599D02*
X19105Y60799D01*
X19405D02*
X19105Y60599D01*
Y60899D02*
Y60999D01*
Y60949D01*
X19405D01*
X19355Y60899D01*
X19696Y58799D02*
X19996D01*
Y58949D01*
X19946Y58999D01*
X19846D01*
X19796Y58949D01*
Y58799D01*
X19996Y59099D02*
X19696D01*
Y59249D01*
X19746Y59299D01*
X19796D01*
X19846Y59249D01*
Y59099D01*
Y59249D01*
X19896Y59299D01*
X19946D01*
X19996Y59249D01*
Y59099D01*
X19946Y59399D02*
X19996Y59449D01*
Y59549D01*
X19946Y59599D01*
X19896D01*
X19846Y59549D01*
Y59499D01*
Y59549D01*
X19796Y59599D01*
X19746D01*
X19696Y59549D01*
Y59449D01*
X19746Y59399D01*
X19646Y59699D02*
Y59899D01*
X19996Y60199D02*
Y59999D01*
X19696D01*
Y60199D01*
X19846Y59999D02*
Y60099D01*
X19996Y60299D02*
Y60499D01*
Y60399D01*
X19696D01*
X19996Y60599D02*
X19696Y60799D01*
X19996D02*
X19696Y60599D01*
Y60899D02*
Y60999D01*
Y60949D01*
X19996D01*
X19946Y60899D01*
X20288Y58799D02*
X20588D01*
Y58949D01*
X20538Y58999D01*
X20438D01*
X20388Y58949D01*
Y58799D01*
X20588Y59099D02*
X20288D01*
Y59249D01*
X20338Y59299D01*
X20388D01*
X20438Y59249D01*
Y59099D01*
Y59249D01*
X20488Y59299D01*
X20538D01*
X20588Y59249D01*
Y59099D01*
X20288Y59399D02*
Y59499D01*
Y59449D01*
X20588D01*
X20538Y59399D01*
X20238Y59649D02*
Y59849D01*
X20588Y60149D02*
Y59949D01*
X20288D01*
Y60149D01*
X20438Y59949D02*
Y60049D01*
X20588Y60249D02*
Y60449D01*
Y60349D01*
X20288D01*
X20588Y60549D02*
X20288Y60749D01*
X20588D02*
X20288Y60549D01*
X20588Y61048D02*
Y60849D01*
X20288D01*
Y61048D01*
X20438Y60849D02*
Y60949D01*
X20288Y61148D02*
X20588D01*
X20288Y61348D01*
X20588D01*
X32251Y58418D02*
Y58318D01*
X32201Y58268D01*
X32001D01*
X31951Y58318D01*
Y58418D01*
X32001Y58468D01*
X32201D01*
X32251Y58418D01*
Y58568D02*
X32051D01*
X31951Y58668D01*
X32051Y58768D01*
X32251D01*
X31951Y58868D02*
X32251D01*
Y59017D01*
X32201Y59067D01*
X32101D01*
X32051Y59017D01*
Y58868D01*
Y58967D02*
X31951Y59067D01*
X32251Y59367D02*
Y59167D01*
X31951D01*
Y59367D01*
X32101Y59167D02*
Y59267D01*
X32251Y59667D02*
Y59467D01*
X32101D01*
Y59567D01*
Y59467D01*
X31951D01*
X33481Y59675D02*
Y59875D01*
Y59775D01*
X33181D01*
X33431Y59975D02*
X33481Y60025D01*
Y60125D01*
X33431Y60175D01*
X33381D01*
X33331Y60125D01*
Y60075D01*
Y60125D01*
X33281Y60175D01*
X33231D01*
X33181Y60125D01*
Y60025D01*
X33231Y59975D01*
X30774Y59705D02*
Y59905D01*
Y59805D01*
X30474D01*
Y60205D02*
Y60005D01*
X30674Y60205D01*
X30724D01*
X30774Y60155D01*
Y60055D01*
X30724Y60005D01*
X29003Y59833D02*
Y60033D01*
Y59933D01*
X28703D01*
Y60133D02*
Y60233D01*
Y60183D01*
X29003D01*
X28953Y60133D01*
X36001Y59715D02*
Y59914D01*
Y59815D01*
X35701D01*
Y60164D02*
X36001D01*
X35851Y60014D01*
Y60214D01*
X9482Y79245D02*
X9282D01*
X9182Y79345D01*
X9282Y79445D01*
X9482D01*
Y79545D02*
X9182D01*
X9332D01*
Y79745D01*
X9482D01*
X9182D01*
X9482Y80045D02*
Y79845D01*
X9182D01*
Y80045D01*
X9332Y79845D02*
Y79945D01*
X9182Y80145D02*
X9382D01*
X9482Y80245D01*
X9382Y80345D01*
X9182D01*
X9332D01*
Y80145D01*
X9482Y80444D02*
Y80644D01*
Y80544D01*
X9182D01*
X30652Y54183D02*
X30951D01*
Y54333D01*
X30901Y54383D01*
X30802D01*
X30752Y54333D01*
Y54183D01*
X30652Y54483D02*
X30852D01*
X30951Y54583D01*
X30852Y54683D01*
X30652D01*
X30802D01*
Y54483D01*
X30652Y54983D02*
Y54783D01*
X30852Y54983D01*
X30901D01*
X30951Y54933D01*
Y54833D01*
X30901Y54783D01*
X30951Y55283D02*
Y55083D01*
X30802D01*
X30852Y55183D01*
Y55233D01*
X30802Y55283D01*
X30702D01*
X30652Y55233D01*
Y55133D01*
X30702Y55083D01*
X30602Y55383D02*
Y55583D01*
X30652Y55683D02*
X30951D01*
X30852Y55783D01*
X30951Y55883D01*
X30652D01*
X30951Y55982D02*
Y56082D01*
Y56032D01*
X30652D01*
Y55982D01*
Y56082D01*
X30901Y56432D02*
X30951Y56382D01*
Y56282D01*
X30901Y56232D01*
X30852D01*
X30802Y56282D01*
Y56382D01*
X30752Y56432D01*
X30702D01*
X30652Y56382D01*
Y56282D01*
X30702Y56232D01*
X30951Y56682D02*
Y56582D01*
X30901Y56532D01*
X30702D01*
X30652Y56582D01*
Y56682D01*
X30702Y56732D01*
X30901D01*
X30951Y56682D01*
X29382Y57854D02*
Y58154D01*
X29232D01*
X29182Y58104D01*
Y58004D01*
X29232Y57954D01*
X29382D01*
X29082Y57854D02*
Y58054D01*
X28982Y58154D01*
X28882Y58054D01*
Y57854D01*
Y58004D01*
X29082D01*
X28582Y57854D02*
X28782D01*
X28582Y58054D01*
Y58104D01*
X28632Y58154D01*
X28732D01*
X28782Y58104D01*
X28282Y58154D02*
X28382Y58104D01*
X28482Y58004D01*
Y57904D01*
X28432Y57854D01*
X28332D01*
X28282Y57904D01*
Y57954D01*
X28332Y58004D01*
X28482D01*
X28182Y57804D02*
X27982D01*
X27882Y57854D02*
Y58154D01*
X27782Y58054D01*
X27682Y58154D01*
Y57854D01*
X27433Y58154D02*
X27532D01*
X27582Y58104D01*
Y57904D01*
X27532Y57854D01*
X27433D01*
X27383Y57904D01*
Y58104D01*
X27433Y58154D01*
X27083Y58104D02*
X27133Y58154D01*
X27233D01*
X27283Y58104D01*
Y58054D01*
X27233Y58004D01*
X27133D01*
X27083Y57954D01*
Y57904D01*
X27133Y57854D01*
X27233D01*
X27283Y57904D01*
X26983Y58154D02*
X26883D01*
X26933D01*
Y57854D01*
X26983D01*
X26883D01*
X29667Y54075D02*
X29967D01*
Y54225D01*
X29917Y54275D01*
X29817D01*
X29767Y54225D01*
Y54075D01*
X29667Y54375D02*
X29867D01*
X29967Y54475D01*
X29867Y54575D01*
X29667D01*
X29817D01*
Y54375D01*
X29667Y54875D02*
Y54675D01*
X29867Y54875D01*
X29917D01*
X29967Y54825D01*
Y54725D01*
X29917Y54675D01*
X29967Y54975D02*
Y55174D01*
X29917D01*
X29717Y54975D01*
X29667D01*
X29617Y55274D02*
Y55474D01*
X29917Y55774D02*
X29967Y55724D01*
Y55624D01*
X29917Y55574D01*
X29867D01*
X29817Y55624D01*
Y55724D01*
X29767Y55774D01*
X29717D01*
X29667Y55724D01*
Y55624D01*
X29717Y55574D01*
X29917Y56074D02*
X29967Y56024D01*
Y55924D01*
X29917Y55874D01*
X29717D01*
X29667Y55924D01*
Y56024D01*
X29717Y56074D01*
X29967Y56174D02*
X29667D01*
Y56374D01*
X29967Y56474D02*
X29667D01*
X29767D01*
X29967Y56674D01*
X29817Y56524D01*
X29667Y56674D01*
X37802Y48999D02*
Y48799D01*
X37502D01*
Y48999D01*
X37652Y48799D02*
Y48899D01*
X37502Y49299D02*
Y49099D01*
X37702Y49299D01*
X37752D01*
X37802Y49249D01*
Y49149D01*
X37752Y49099D01*
X37502Y49399D02*
X37802D01*
Y49549D01*
X37752Y49599D01*
X37652D01*
X37602Y49549D01*
Y49399D01*
Y49499D02*
X37502Y49599D01*
X37802Y49899D02*
Y49699D01*
X37502D01*
Y49899D01*
X37652Y49699D02*
Y49799D01*
X37802Y50199D02*
Y49999D01*
X37652D01*
Y50099D01*
Y49999D01*
X37502D01*
X30764Y49088D02*
Y48888D01*
X30465D01*
Y49088D01*
X30615Y48888D02*
Y48988D01*
X30465Y49188D02*
Y49288D01*
Y49238D01*
X30764D01*
X30714Y49188D01*
X30465Y49438D02*
X30764D01*
Y49588D01*
X30714Y49638D01*
X30615D01*
X30565Y49588D01*
Y49438D01*
Y49538D02*
X30465Y49638D01*
X30764Y49937D02*
Y49738D01*
X30465D01*
Y49937D01*
X30615Y49738D02*
Y49837D01*
X30764Y50237D02*
Y50037D01*
X30615D01*
Y50137D01*
Y50037D01*
X30465D01*
X23658Y49114D02*
Y49314D01*
X23608D01*
X23408Y49114D01*
X23358D01*
Y49314D01*
Y49414D02*
X23658D01*
Y49564D01*
X23608Y49614D01*
X23508D01*
X23458Y49564D01*
Y49414D01*
Y49514D02*
X23358Y49614D01*
X23658Y49914D02*
Y49714D01*
X23358D01*
Y49914D01*
X23508Y49714D02*
Y49814D01*
X23658Y50214D02*
Y50014D01*
X23508D01*
Y50114D01*
Y50014D01*
X23358D01*
X16562Y49134D02*
X16512D01*
X16412Y49234D01*
X16512Y49334D01*
X16562D01*
X16412Y49234D02*
X16262D01*
Y49434D02*
X16562D01*
Y49584D01*
X16512Y49634D01*
X16412D01*
X16362Y49584D01*
Y49434D01*
Y49534D02*
X16262Y49634D01*
X16562Y49934D02*
Y49734D01*
X16262D01*
Y49934D01*
X16412Y49734D02*
Y49834D01*
X16562Y50233D02*
Y50034D01*
X16412D01*
Y50134D01*
Y50034D01*
X16262D01*
X9583Y49154D02*
X9283Y49353D01*
X9583D02*
X9283Y49154D01*
Y49453D02*
X9583D01*
Y49603D01*
X9533Y49653D01*
X9433D01*
X9383Y49603D01*
Y49453D01*
Y49553D02*
X9283Y49653D01*
X9583Y49953D02*
Y49753D01*
X9283D01*
Y49953D01*
X9433Y49753D02*
Y49853D01*
X9583Y50253D02*
Y50053D01*
X9433D01*
Y50153D01*
Y50053D01*
X9283D01*
X15144Y55668D02*
X15194Y55718D01*
Y55818D01*
X15144Y55868D01*
X15094D01*
X15044Y55818D01*
Y55768D01*
Y55818D01*
X14994Y55868D01*
X14944D01*
X14894Y55818D01*
Y55718D01*
X14944Y55668D01*
X15194Y55968D02*
X14994D01*
X14894Y56068D01*
X14994Y56167D01*
X15194D01*
X15144Y56267D02*
X15194Y56317D01*
Y56417D01*
X15144Y56467D01*
X15094D01*
X15044Y56417D01*
Y56367D01*
Y56417D01*
X14994Y56467D01*
X14944D01*
X14894Y56417D01*
Y56317D01*
X14944Y56267D01*
X35563Y54424D02*
X35863D01*
Y54574D01*
X35813Y54624D01*
X35713D01*
X35663Y54574D01*
Y54424D01*
X35563Y54724D02*
X35763D01*
X35863Y54824D01*
X35763Y54924D01*
X35563D01*
X35713D01*
Y54724D01*
X35613Y55024D02*
X35563Y55074D01*
Y55174D01*
X35613Y55224D01*
X35813D01*
X35863Y55174D01*
Y55074D01*
X35813Y55024D01*
X35763D01*
X35713Y55074D01*
Y55224D01*
X35513Y55324D02*
Y55524D01*
X35863Y55624D02*
X35613D01*
X35563Y55674D01*
Y55774D01*
X35613Y55824D01*
X35863D01*
Y55924D02*
Y56124D01*
Y56024D01*
X35563D01*
X35863Y56224D02*
X35563Y56424D01*
X35863D02*
X35563Y56224D01*
X35863Y56524D02*
X35563D01*
Y56674D01*
X35613Y56724D01*
X35813D01*
X35863Y56674D01*
Y56524D01*
X40737Y50782D02*
X40937D01*
Y50632D01*
X40837Y50682D01*
X40787D01*
X40737Y50632D01*
Y50532D01*
X40787Y50482D01*
X40887D01*
X40937Y50532D01*
X40637Y50782D02*
Y50582D01*
X40537Y50482D01*
X40437Y50582D01*
Y50782D01*
X40337Y50732D02*
X40287Y50782D01*
X40187D01*
X40137Y50732D01*
Y50682D01*
X40237Y50582D01*
Y50532D02*
Y50482D01*
X40947Y48755D02*
Y48555D01*
X40847Y48455D01*
X40747Y48555D01*
Y48755D01*
X40647Y48455D02*
Y48755D01*
X40547Y48655D01*
X40447Y48755D01*
Y48455D01*
X40197Y48755D02*
X40297D01*
X40347Y48705D01*
Y48505D01*
X40297Y48455D01*
X40197D01*
X40147Y48505D01*
Y48705D01*
X40197Y48755D01*
X40047D02*
X39847D01*
X39947D01*
Y48455D01*
X13491Y79245D02*
X13291D01*
X13191Y79345D01*
X13291Y79445D01*
X13491D01*
Y79545D02*
X13191D01*
X13341D01*
Y79745D01*
X13491D01*
X13191D01*
X13491Y80045D02*
Y79845D01*
X13191D01*
Y80045D01*
X13341Y79845D02*
Y79945D01*
X13191Y80145D02*
X13391D01*
X13491Y80245D01*
X13391Y80345D01*
X13191D01*
X13341D01*
Y80145D01*
X13491Y80444D02*
Y80644D01*
Y80544D01*
X13191D01*
X25518Y79545D02*
X25318D01*
X25219Y79645D01*
X25318Y79745D01*
X25518D01*
Y79845D02*
X25219D01*
Y79995D01*
X25268Y80045D01*
X25318D01*
X25368Y79995D01*
Y79845D01*
Y79995D01*
X25418Y80045D01*
X25468D01*
X25518Y79995D01*
Y79845D01*
Y80345D02*
Y80145D01*
X25219D01*
Y80345D01*
X25368Y80145D02*
Y80245D01*
X25518Y80444D02*
X25219D01*
Y80594D01*
X25268Y80644D01*
X25468D01*
X25518Y80594D01*
Y80444D01*
X21509Y79245D02*
X21309D01*
X21209Y79345D01*
X21309Y79445D01*
X21509D01*
Y79545D02*
X21209D01*
X21359D01*
Y79745D01*
X21509D01*
X21209D01*
X21509Y80045D02*
Y79845D01*
X21209D01*
Y80045D01*
X21359Y79845D02*
Y79945D01*
X21209Y80145D02*
X21409D01*
X21509Y80245D01*
X21409Y80345D01*
X21209D01*
X21359D01*
Y80145D01*
X21509Y80444D02*
Y80644D01*
Y80544D01*
X21209D01*
X17500Y79245D02*
X17300D01*
X17200Y79345D01*
X17300Y79445D01*
X17500D01*
Y79545D02*
X17200D01*
X17350D01*
Y79745D01*
X17500D01*
X17200D01*
X17500Y80045D02*
Y79845D01*
X17200D01*
Y80045D01*
X17350Y79845D02*
Y79945D01*
X17200Y80145D02*
X17400D01*
X17500Y80245D01*
X17400Y80345D01*
X17200D01*
X17350D01*
Y80145D01*
X17500Y80444D02*
Y80644D01*
Y80544D01*
X17200D01*
X32151Y76341D02*
Y76141D01*
X32051Y76041D01*
X31951Y76141D01*
Y76341D01*
X31851D02*
Y76041D01*
Y76191D01*
X31651D01*
Y76341D01*
Y76041D01*
X31351Y76341D02*
X31551D01*
Y76041D01*
X31351D01*
X31551Y76191D02*
X31451D01*
X31251Y76041D02*
Y76241D01*
X31151Y76341D01*
X31051Y76241D01*
Y76041D01*
Y76191D01*
X31251D01*
X30951Y76341D02*
X30751D01*
X30851D01*
Y76041D01*
X15676Y72343D02*
Y72144D01*
X15526D01*
X15576Y72243D01*
Y72293D01*
X15526Y72343D01*
X15426D01*
X15376Y72293D01*
Y72193D01*
X15426Y72144D01*
X15676Y72443D02*
X15476D01*
X15376Y72543D01*
X15476Y72643D01*
X15676D01*
X15980Y70044D02*
X16280D01*
Y70194D01*
X16230Y70244D01*
X16130D01*
X16080Y70194D01*
Y70044D01*
X16230Y70544D02*
X16280Y70494D01*
Y70394D01*
X16230Y70344D01*
X16030D01*
X15980Y70394D01*
Y70494D01*
X16030Y70544D01*
X15980Y70844D02*
Y70644D01*
X16180Y70844D01*
X16230D01*
X16280Y70794D01*
Y70694D01*
X16230Y70644D01*
X15930Y70944D02*
Y71144D01*
X15980Y71244D02*
X16280D01*
Y71394D01*
X16230Y71444D01*
X16130D01*
X16080Y71394D01*
Y71244D01*
X16280Y71544D02*
X15980D01*
X16080Y71644D01*
X15980Y71744D01*
X16280D01*
X15980Y71844D02*
X16280D01*
X16180Y71944D01*
X16280Y72044D01*
X15980D01*
X16280Y72144D02*
X15980D01*
Y72343D01*
X16230Y72443D02*
X16280Y72493D01*
Y72593D01*
X16230Y72643D01*
X16030D01*
X15980Y72593D01*
Y72493D01*
X16030Y72443D01*
X16230D01*
X16504Y70194D02*
X16804D01*
Y70344D01*
X16754Y70394D01*
X16654D01*
X16604Y70344D01*
Y70194D01*
X16504Y70494D02*
X16704D01*
X16804Y70594D01*
X16704Y70694D01*
X16504D01*
X16654D01*
Y70494D01*
X16504Y70794D02*
Y70894D01*
Y70844D01*
X16804D01*
X16754Y70794D01*
X16804Y71244D02*
X16754Y71144D01*
X16654Y71044D01*
X16554D01*
X16504Y71094D01*
Y71194D01*
X16554Y71244D01*
X16604D01*
X16654Y71194D01*
Y71044D01*
X16454Y71344D02*
Y71544D01*
X16754Y71844D02*
X16804Y71794D01*
Y71694D01*
X16754Y71644D01*
X16704D01*
X16654Y71694D01*
Y71794D01*
X16604Y71844D01*
X16554D01*
X16504Y71794D01*
Y71694D01*
X16554Y71644D01*
X16754Y72144D02*
X16804Y72094D01*
Y71994D01*
X16754Y71944D01*
X16554D01*
X16504Y71994D01*
Y72094D01*
X16554Y72144D01*
X16804Y72243D02*
X16504D01*
X16604D01*
X16804Y72443D01*
X16654Y72293D01*
X16504Y72443D01*
Y72543D02*
Y72643D01*
Y72593D01*
X16804D01*
X16754Y72543D01*
X17027Y70194D02*
X17327D01*
Y70344D01*
X17277Y70394D01*
X17177D01*
X17127Y70344D01*
Y70194D01*
X17027Y70494D02*
X17227D01*
X17327Y70594D01*
X17227Y70694D01*
X17027D01*
X17177D01*
Y70494D01*
X17027Y70794D02*
Y70894D01*
Y70844D01*
X17327D01*
X17277Y70794D01*
X17027Y71244D02*
Y71044D01*
X17227Y71244D01*
X17277D01*
X17327Y71194D01*
Y71094D01*
X17277Y71044D01*
X16977Y71344D02*
Y71544D01*
X17027Y71644D02*
X17327D01*
Y71794D01*
X17277Y71844D01*
X17177D01*
X17127Y71794D01*
Y71644D01*
Y71744D02*
X17027Y71844D01*
X17327Y71944D02*
X17027Y72144D01*
X17327D02*
X17027Y71944D01*
X17327Y72243D02*
X17027D01*
Y72393D01*
X17077Y72443D01*
X17277D01*
X17327Y72393D01*
Y72243D01*
X17027Y72543D02*
Y72643D01*
Y72593D01*
X17327D01*
X17277Y72543D01*
X17551Y70194D02*
X17851D01*
Y70344D01*
X17801Y70394D01*
X17701D01*
X17651Y70344D01*
Y70194D01*
X17551Y70494D02*
X17751D01*
X17851Y70594D01*
X17751Y70694D01*
X17551D01*
X17701D01*
Y70494D01*
X17551Y70794D02*
Y70894D01*
Y70844D01*
X17851D01*
X17801Y70794D01*
Y71044D02*
X17851Y71094D01*
Y71194D01*
X17801Y71244D01*
X17751D01*
X17701Y71194D01*
Y71144D01*
Y71194D01*
X17651Y71244D01*
X17601D01*
X17551Y71194D01*
Y71094D01*
X17601Y71044D01*
X17501Y71344D02*
Y71544D01*
X17851Y71644D02*
Y71844D01*
Y71744D01*
X17551D01*
X17851Y71944D02*
X17551Y72144D01*
X17851D02*
X17551Y71944D01*
X17851Y72243D02*
X17551D01*
Y72393D01*
X17601Y72443D01*
X17801D01*
X17851Y72393D01*
Y72243D01*
X17551Y72543D02*
Y72643D01*
Y72593D01*
X17851D01*
X17801Y72543D01*
X17551Y73189D02*
X17851D01*
Y73339D01*
X17801Y73389D01*
X17701D01*
X17651Y73339D01*
Y73189D01*
X17551Y73489D02*
X17751D01*
X17851Y73589D01*
X17751Y73689D01*
X17551D01*
X17701D01*
Y73489D01*
X17551Y73789D02*
Y73889D01*
Y73839D01*
X17851D01*
X17801Y73789D01*
X17851Y74239D02*
Y74039D01*
X17701D01*
X17751Y74139D01*
Y74189D01*
X17701Y74239D01*
X17601D01*
X17551Y74189D01*
Y74089D01*
X17601Y74039D01*
X17501Y74339D02*
Y74539D01*
X17801Y74838D02*
X17851Y74788D01*
Y74688D01*
X17801Y74639D01*
X17601D01*
X17551Y74688D01*
Y74788D01*
X17601Y74838D01*
X17851Y74938D02*
Y75138D01*
Y75038D01*
X17551D01*
X17801Y75438D02*
X17851Y75388D01*
Y75288D01*
X17801Y75238D01*
X17751D01*
X17701Y75288D01*
Y75388D01*
X17651Y75438D01*
X17601D01*
X17551Y75388D01*
Y75288D01*
X17601Y75238D01*
X17551Y75538D02*
Y75638D01*
Y75588D01*
X17851D01*
X17801Y75538D01*
X17027Y73189D02*
X17327D01*
Y73339D01*
X17277Y73389D01*
X17177D01*
X17127Y73339D01*
Y73189D01*
X17027Y73489D02*
X17227D01*
X17327Y73589D01*
X17227Y73689D01*
X17027D01*
X17177D01*
Y73489D01*
X17027Y73789D02*
Y73889D01*
Y73839D01*
X17327D01*
X17277Y73789D01*
X17027Y74189D02*
X17327D01*
X17177Y74039D01*
Y74239D01*
X16977Y74339D02*
Y74539D01*
X17027Y74639D02*
X17327D01*
Y74788D01*
X17277Y74838D01*
X17177D01*
X17127Y74788D01*
Y74639D01*
Y74738D02*
X17027Y74838D01*
X17327Y74938D02*
Y75138D01*
Y75038D01*
X17027D01*
X17277Y75438D02*
X17327Y75388D01*
Y75288D01*
X17277Y75238D01*
X17227D01*
X17177Y75288D01*
Y75388D01*
X17127Y75438D01*
X17077D01*
X17027Y75388D01*
Y75288D01*
X17077Y75238D01*
X17027Y75538D02*
Y75638D01*
Y75588D01*
X17327D01*
X17277Y75538D01*
X16504Y73189D02*
X16804D01*
Y73339D01*
X16754Y73389D01*
X16654D01*
X16604Y73339D01*
Y73189D01*
X16504Y73489D02*
X16704D01*
X16804Y73589D01*
X16704Y73689D01*
X16504D01*
X16654D01*
Y73489D01*
X16754Y73789D02*
X16804Y73839D01*
Y73939D01*
X16754Y73989D01*
X16554D01*
X16504Y73939D01*
Y73839D01*
X16554Y73789D01*
X16754D01*
X16454Y74089D02*
Y74289D01*
X16754Y74589D02*
X16804Y74539D01*
Y74439D01*
X16754Y74389D01*
X16554D01*
X16504Y74439D01*
Y74539D01*
X16554Y74589D01*
X16504Y74688D02*
X16704D01*
X16804Y74788D01*
X16704Y74888D01*
X16504D01*
X16654D01*
Y74688D01*
X16504Y74988D02*
X16804D01*
X16504Y75188D01*
X16804D01*
Y75288D02*
Y75488D01*
Y75388D01*
X16504D01*
X16804Y75588D02*
X16504Y75788D01*
X16804D02*
X16504Y75588D01*
X16754Y75888D02*
X16804Y75938D01*
Y76038D01*
X16754Y76088D01*
X16554D01*
X16504Y76038D01*
Y75938D01*
X16554Y75888D01*
X16754D01*
X15980Y73189D02*
X16280D01*
Y73339D01*
X16230Y73389D01*
X16130D01*
X16080Y73339D01*
Y73189D01*
X15980Y73489D02*
X16180D01*
X16280Y73589D01*
X16180Y73689D01*
X15980D01*
X16130D01*
Y73489D01*
X15980Y73789D02*
Y73889D01*
Y73839D01*
X16280D01*
X16230Y73789D01*
X15930Y74039D02*
Y74239D01*
X16230Y74539D02*
X16280Y74489D01*
Y74389D01*
X16230Y74339D01*
X16030D01*
X15980Y74389D01*
Y74489D01*
X16030Y74539D01*
X15980Y74639D02*
X16180D01*
X16280Y74738D01*
X16180Y74838D01*
X15980D01*
X16130D01*
Y74639D01*
X15980Y74938D02*
X16280D01*
X15980Y75138D01*
X16280D01*
X15980Y75238D02*
X16280D01*
Y75388D01*
X16230Y75438D01*
X16130D01*
X16080Y75388D01*
Y75238D01*
Y75338D02*
X15980Y75438D01*
X16280Y75538D02*
X15980Y75738D01*
X16280D02*
X15980Y75538D01*
X16230Y75838D02*
X16280Y75888D01*
Y75988D01*
X16230Y76038D01*
X16030D01*
X15980Y75988D01*
Y75888D01*
X16030Y75838D01*
X16230D01*
X15626Y73389D02*
X15676Y73339D01*
Y73239D01*
X15626Y73189D01*
X15426D01*
X15376Y73239D01*
Y73339D01*
X15426Y73389D01*
X15526D01*
Y73289D01*
X15376Y73489D02*
X15676D01*
X15376Y73689D01*
X15676D01*
Y73789D02*
X15376D01*
Y73939D01*
X15426Y73989D01*
X15626D01*
X15676Y73939D01*
Y73789D01*
X15626Y66381D02*
X15676Y66331D01*
Y66231D01*
X15626Y66181D01*
X15426D01*
X15376Y66231D01*
Y66331D01*
X15426Y66381D01*
X15526D01*
Y66281D01*
X15376Y66481D02*
X15676D01*
X15376Y66681D01*
X15676D01*
Y66781D02*
X15376D01*
Y66931D01*
X15426Y66981D01*
X15626D01*
X15676Y66931D01*
Y66781D01*
X15980Y66181D02*
X16280D01*
Y66331D01*
X16230Y66381D01*
X16130D01*
X16080Y66331D01*
Y66181D01*
X16280Y66481D02*
X15980D01*
Y66631D01*
X16030Y66681D01*
X16080D01*
X16130Y66631D01*
Y66481D01*
Y66631D01*
X16180Y66681D01*
X16230D01*
X16280Y66631D01*
Y66481D01*
X15980Y66981D02*
Y66781D01*
X16180Y66981D01*
X16230D01*
X16280Y66931D01*
Y66831D01*
X16230Y66781D01*
X16280Y67281D02*
Y67081D01*
X16130D01*
X16180Y67181D01*
Y67231D01*
X16130Y67281D01*
X16030D01*
X15980Y67231D01*
Y67131D01*
X16030Y67081D01*
X15930Y67381D02*
Y67581D01*
X16280Y67681D02*
Y67881D01*
Y67781D01*
X15980D01*
X16280Y67981D02*
Y68080D01*
Y68031D01*
X15980D01*
Y67981D01*
Y68080D01*
X16280Y68380D02*
Y68280D01*
X16230Y68230D01*
X16030D01*
X15980Y68280D01*
Y68380D01*
X16030Y68430D01*
X16230D01*
X16280Y68380D01*
X15980Y68530D02*
X16180D01*
X16280Y68630D01*
X16180Y68730D01*
X15980D01*
X16130D01*
Y68530D01*
X16230Y68830D02*
X16280Y68880D01*
Y68980D01*
X16230Y69030D01*
X16030D01*
X15980Y68980D01*
Y68880D01*
X16030Y68830D01*
X16230D01*
X16504Y66181D02*
X16804D01*
Y66331D01*
X16754Y66381D01*
X16654D01*
X16604Y66331D01*
Y66181D01*
X16504Y66481D02*
X16704D01*
X16804Y66581D01*
X16704Y66681D01*
X16504D01*
X16654D01*
Y66481D01*
X16754Y66781D02*
X16804Y66831D01*
Y66931D01*
X16754Y66981D01*
X16704D01*
X16654Y66931D01*
Y66881D01*
Y66931D01*
X16604Y66981D01*
X16554D01*
X16504Y66931D01*
Y66831D01*
X16554Y66781D01*
X16454Y67081D02*
Y67281D01*
X16804Y67381D02*
Y67581D01*
Y67481D01*
X16504D01*
X16804Y67681D02*
Y67781D01*
Y67731D01*
X16504D01*
Y67681D01*
Y67781D01*
X16804Y68080D02*
Y67981D01*
X16754Y67931D01*
X16554D01*
X16504Y67981D01*
Y68080D01*
X16554Y68130D01*
X16754D01*
X16804Y68080D01*
Y68230D02*
X16504D01*
Y68380D01*
X16554Y68430D01*
X16604D01*
X16654Y68380D01*
Y68230D01*
Y68380D01*
X16704Y68430D01*
X16754D01*
X16804Y68380D01*
Y68230D01*
X16504Y68530D02*
Y68630D01*
Y68580D01*
X16804D01*
X16754Y68530D01*
X17027Y66181D02*
X17327D01*
Y66331D01*
X17277Y66381D01*
X17177D01*
X17127Y66331D01*
Y66181D01*
X17327Y66481D02*
X17027D01*
Y66631D01*
X17077Y66681D01*
X17127D01*
X17177Y66631D01*
Y66481D01*
Y66631D01*
X17227Y66681D01*
X17277D01*
X17327Y66631D01*
Y66481D01*
X17027Y66981D02*
Y66781D01*
X17227Y66981D01*
X17277D01*
X17327Y66931D01*
Y66831D01*
X17277Y66781D01*
X17327Y67081D02*
Y67281D01*
X17277D01*
X17077Y67081D01*
X17027D01*
X16977Y67381D02*
Y67581D01*
X17327Y67681D02*
Y67881D01*
Y67781D01*
X17027D01*
X17327Y67981D02*
Y68080D01*
Y68031D01*
X17027D01*
Y67981D01*
Y68080D01*
X17327Y68380D02*
Y68280D01*
X17277Y68230D01*
X17077D01*
X17027Y68280D01*
Y68380D01*
X17077Y68430D01*
X17277D01*
X17327Y68380D01*
Y68530D02*
X17027D01*
Y68680D01*
X17077Y68730D01*
X17127D01*
X17177Y68680D01*
Y68530D01*
Y68680D01*
X17227Y68730D01*
X17277D01*
X17327Y68680D01*
Y68530D01*
X17277Y68830D02*
X17327Y68880D01*
Y68980D01*
X17277Y69030D01*
X17077D01*
X17027Y68980D01*
Y68880D01*
X17077Y68830D01*
X17277D01*
X17551Y66181D02*
X17851D01*
Y66331D01*
X17801Y66381D01*
X17701D01*
X17651Y66331D01*
Y66181D01*
X17551Y66481D02*
X17751D01*
X17851Y66581D01*
X17751Y66681D01*
X17551D01*
X17701D01*
Y66481D01*
X17551Y66981D02*
Y66781D01*
X17751Y66981D01*
X17801D01*
X17851Y66931D01*
Y66831D01*
X17801Y66781D01*
X17851Y67281D02*
X17801Y67181D01*
X17701Y67081D01*
X17601D01*
X17551Y67131D01*
Y67231D01*
X17601Y67281D01*
X17651D01*
X17701Y67231D01*
Y67081D01*
X17501Y67381D02*
Y67581D01*
X17551Y67681D02*
X17851D01*
X17751Y67781D01*
X17851Y67881D01*
X17551D01*
X17851Y68130D02*
Y68031D01*
X17801Y67981D01*
X17601D01*
X17551Y68031D01*
Y68130D01*
X17601Y68180D01*
X17801D01*
X17851Y68130D01*
X17801Y68480D02*
X17851Y68430D01*
Y68330D01*
X17801Y68280D01*
X17751D01*
X17701Y68330D01*
Y68430D01*
X17651Y68480D01*
X17601D01*
X17551Y68430D01*
Y68330D01*
X17601Y68280D01*
X17851Y68580D02*
Y68680D01*
Y68630D01*
X17551D01*
Y68580D01*
Y68680D01*
Y63017D02*
X17851D01*
Y63167D01*
X17801Y63217D01*
X17701D01*
X17651Y63167D01*
Y63017D01*
X17551Y63317D02*
X17751D01*
X17851Y63417D01*
X17751Y63517D01*
X17551D01*
X17701D01*
Y63317D01*
X17551Y63817D02*
Y63617D01*
X17751Y63817D01*
X17801D01*
X17851Y63767D01*
Y63667D01*
X17801Y63617D01*
X17851Y63917D02*
Y64117D01*
X17801D01*
X17601Y63917D01*
X17551D01*
X17501Y64217D02*
Y64417D01*
X17801Y64717D02*
X17851Y64667D01*
Y64567D01*
X17801Y64517D01*
X17751D01*
X17701Y64567D01*
Y64667D01*
X17651Y64717D01*
X17601D01*
X17551Y64667D01*
Y64567D01*
X17601Y64517D01*
X17801Y65017D02*
X17851Y64967D01*
Y64867D01*
X17801Y64817D01*
X17601D01*
X17551Y64867D01*
Y64967D01*
X17601Y65017D01*
X17851Y65117D02*
X17551D01*
Y65317D01*
X17851Y65417D02*
X17551D01*
X17651D01*
X17851Y65617D01*
X17701Y65467D01*
X17551Y65617D01*
X17027Y63617D02*
X17327D01*
Y63767D01*
X17277Y63817D01*
X17177D01*
X17127Y63767D01*
Y63617D01*
X17027Y63917D02*
X17227D01*
X17327Y64017D01*
X17227Y64117D01*
X17027D01*
X17177D01*
Y63917D01*
X17027Y64417D02*
Y64217D01*
X17227Y64417D01*
X17277D01*
X17327Y64367D01*
Y64267D01*
X17277Y64217D01*
X17077Y64517D02*
X17027Y64567D01*
Y64667D01*
X17077Y64717D01*
X17277D01*
X17327Y64667D01*
Y64567D01*
X17277Y64517D01*
X17227D01*
X17177Y64567D01*
Y64717D01*
X16977Y64817D02*
Y65017D01*
X17277Y65317D02*
X17327Y65267D01*
Y65167D01*
X17277Y65117D01*
X17077D01*
X17027Y65167D01*
Y65267D01*
X17077Y65317D01*
X17277Y65617D02*
X17327Y65567D01*
Y65467D01*
X17277Y65417D01*
X17227D01*
X17177Y65467D01*
Y65567D01*
X17127Y65617D01*
X17077D01*
X17027Y65567D01*
Y65467D01*
X17077Y65417D01*
X16504Y63067D02*
X16804D01*
Y63217D01*
X16754Y63267D01*
X16654D01*
X16604Y63217D01*
Y63067D01*
X16504Y63367D02*
X16704D01*
X16804Y63467D01*
X16704Y63567D01*
X16504D01*
X16654D01*
Y63367D01*
X16504Y63867D02*
Y63667D01*
X16704Y63867D01*
X16754D01*
X16804Y63817D01*
Y63717D01*
X16754Y63667D01*
X16804Y64167D02*
Y63967D01*
X16654D01*
X16704Y64067D01*
Y64117D01*
X16654Y64167D01*
X16554D01*
X16504Y64117D01*
Y64017D01*
X16554Y63967D01*
X16454Y64267D02*
Y64467D01*
X16504Y64567D02*
X16804D01*
X16704Y64667D01*
X16804Y64767D01*
X16504D01*
X16804Y64867D02*
Y64967D01*
Y64917D01*
X16504D01*
Y64867D01*
Y64967D01*
X16754Y65317D02*
X16804Y65267D01*
Y65167D01*
X16754Y65117D01*
X16704D01*
X16654Y65167D01*
Y65267D01*
X16604Y65317D01*
X16554D01*
X16504Y65267D01*
Y65167D01*
X16554Y65117D01*
X16804Y65567D02*
Y65467D01*
X16754Y65417D01*
X16554D01*
X16504Y65467D01*
Y65567D01*
X16554Y65617D01*
X16754D01*
X16804Y65567D01*
X15900Y64517D02*
X16200D01*
X15900Y64717D01*
X16200D01*
X15900Y64817D02*
X16200D01*
Y64967D01*
X16150Y65017D01*
X16050D01*
X16000Y64967D01*
Y64817D01*
Y64917D02*
X15900Y65017D01*
X16150Y65317D02*
X16200Y65267D01*
Y65167D01*
X16150Y65117D01*
X16100D01*
X16050Y65167D01*
Y65267D01*
X16000Y65317D01*
X15950D01*
X15900Y65267D01*
Y65167D01*
X15950Y65117D01*
X16200Y65417D02*
Y65617D01*
Y65517D01*
X15900D01*
X15626Y64817D02*
X15676Y64867D01*
Y64967D01*
X15626Y65017D01*
X15576D01*
X15526Y64967D01*
Y64917D01*
Y64967D01*
X15476Y65017D01*
X15426D01*
X15376Y64967D01*
Y64867D01*
X15426Y64817D01*
X15676Y65117D02*
X15476D01*
X15376Y65217D01*
X15476Y65317D01*
X15676D01*
X15626Y65417D02*
X15676Y65467D01*
Y65567D01*
X15626Y65617D01*
X15576D01*
X15526Y65567D01*
Y65517D01*
Y65567D01*
X15476Y65617D01*
X15426D01*
X15376Y65567D01*
Y65467D01*
X15426Y65417D01*
X15563Y54218D02*
X15863D01*
Y54368D01*
X15813Y54418D01*
X15713D01*
X15663Y54368D01*
Y54218D01*
X15563Y54518D02*
X15763D01*
X15863Y54618D01*
X15763Y54718D01*
X15563D01*
X15713D01*
Y54518D01*
X15563Y54818D02*
Y54918D01*
Y54868D01*
X15863D01*
X15813Y54818D01*
X15863Y55068D02*
Y55268D01*
X15813D01*
X15613Y55068D01*
X15563D01*
X15513Y55368D02*
Y55568D01*
X15813Y55868D02*
X15863Y55818D01*
Y55718D01*
X15813Y55668D01*
X15763D01*
X15713Y55718D01*
Y55818D01*
X15663Y55868D01*
X15613D01*
X15563Y55818D01*
Y55718D01*
X15613Y55668D01*
X15863Y55968D02*
X15563D01*
Y56118D01*
X15613Y56167D01*
X15813D01*
X15863Y56118D01*
Y55968D01*
X15563Y56267D02*
X15763D01*
X15863Y56367D01*
X15763Y56467D01*
X15563D01*
X15713D01*
Y56267D01*
X16153Y54218D02*
X16453D01*
Y54368D01*
X16403Y54418D01*
X16303D01*
X16253Y54368D01*
Y54218D01*
X16453Y54518D02*
X16153D01*
Y54668D01*
X16203Y54718D01*
X16253D01*
X16303Y54668D01*
Y54518D01*
Y54668D01*
X16353Y54718D01*
X16403D01*
X16453Y54668D01*
Y54518D01*
X16153Y54818D02*
Y54918D01*
Y54868D01*
X16453D01*
X16403Y54818D01*
X16153Y55268D02*
Y55068D01*
X16353Y55268D01*
X16403D01*
X16453Y55218D01*
Y55118D01*
X16403Y55068D01*
X16103Y55368D02*
Y55568D01*
X16153Y55668D02*
X16353D01*
X16453Y55768D01*
X16353Y55868D01*
X16153D01*
X16303D01*
Y55668D01*
X16453Y55968D02*
X16153D01*
Y56118D01*
X16203Y56167D01*
X16403D01*
X16453Y56118D01*
Y55968D01*
X16403Y56267D02*
X16453Y56317D01*
Y56417D01*
X16403Y56467D01*
X16353D01*
X16303Y56417D01*
X16253Y56467D01*
X16203D01*
X16153Y56417D01*
Y56317D01*
X16203Y56267D01*
X16253D01*
X16303Y56317D01*
X16353Y56267D01*
X16403D01*
X16303Y56317D02*
Y56417D01*
X16662Y55368D02*
X16962D01*
X16662Y55568D01*
X16962D01*
X16662Y55668D02*
X16962D01*
Y55818D01*
X16912Y55868D01*
X16812D01*
X16762Y55818D01*
Y55668D01*
Y55768D02*
X16662Y55868D01*
X16912Y56167D02*
X16962Y56118D01*
Y56018D01*
X16912Y55968D01*
X16862D01*
X16812Y56018D01*
Y56118D01*
X16762Y56167D01*
X16712D01*
X16662Y56118D01*
Y56018D01*
X16712Y55968D01*
X16962Y56267D02*
Y56467D01*
Y56367D01*
X16662D01*
X17332Y54018D02*
X17632D01*
Y54168D01*
X17582Y54218D01*
X17482D01*
X17432Y54168D01*
Y54018D01*
X17632Y54318D02*
X17332D01*
Y54468D01*
X17382Y54518D01*
X17432D01*
X17482Y54468D01*
Y54318D01*
Y54468D01*
X17532Y54518D01*
X17582D01*
X17632Y54468D01*
Y54318D01*
X17332Y54618D02*
Y54718D01*
Y54668D01*
X17632D01*
X17582Y54618D01*
X17632Y55068D02*
X17582Y54968D01*
X17482Y54868D01*
X17382D01*
X17332Y54918D01*
Y55018D01*
X17382Y55068D01*
X17432D01*
X17482Y55018D01*
Y54868D01*
X17282Y55168D02*
Y55368D01*
X17632Y55468D02*
X17332D01*
Y55618D01*
X17382Y55668D01*
X17582D01*
X17632Y55618D01*
Y55468D01*
X17332Y55768D02*
X17532D01*
X17632Y55868D01*
X17532Y55968D01*
X17332D01*
X17482D01*
Y55768D01*
X17582Y56267D02*
X17632Y56217D01*
Y56118D01*
X17582Y56068D01*
X17382D01*
X17332Y56118D01*
Y56217D01*
X17382Y56267D01*
X17332Y56367D02*
Y56467D01*
Y56417D01*
X17632D01*
X17582Y56367D01*
X17330Y58799D02*
X17630D01*
Y58949D01*
X17580Y58999D01*
X17480D01*
X17430Y58949D01*
Y58799D01*
X17630Y59099D02*
X17330D01*
Y59249D01*
X17380Y59299D01*
X17430D01*
X17480Y59249D01*
Y59099D01*
Y59249D01*
X17530Y59299D01*
X17580D01*
X17630Y59249D01*
Y59099D01*
X17330Y59399D02*
Y59499D01*
Y59449D01*
X17630D01*
X17580Y59399D01*
X17630Y59849D02*
Y59649D01*
X17480D01*
X17530Y59749D01*
Y59799D01*
X17480Y59849D01*
X17380D01*
X17330Y59799D01*
Y59699D01*
X17380Y59649D01*
X17280Y59949D02*
Y60149D01*
X17630Y60249D02*
X17330D01*
Y60399D01*
X17380Y60449D01*
X17580D01*
X17630Y60399D01*
Y60249D01*
X17330Y60549D02*
X17530D01*
X17630Y60649D01*
X17530Y60749D01*
X17330D01*
X17480D01*
Y60549D01*
X17580Y61048D02*
X17630Y60999D01*
Y60899D01*
X17580Y60849D01*
X17380D01*
X17330Y60899D01*
Y60999D01*
X17380Y61048D01*
X17580Y61148D02*
X17630Y61198D01*
Y61298D01*
X17580Y61348D01*
X17380D01*
X17330Y61298D01*
Y61198D01*
X17380Y61148D01*
X17580D01*
X16739Y58799D02*
X17038D01*
Y58949D01*
X16989Y58999D01*
X16889D01*
X16839Y58949D01*
Y58799D01*
X17038Y59099D02*
X16739D01*
Y59249D01*
X16789Y59299D01*
X16839D01*
X16889Y59249D01*
Y59099D01*
Y59249D01*
X16939Y59299D01*
X16989D01*
X17038Y59249D01*
Y59099D01*
X16739Y59399D02*
Y59499D01*
Y59449D01*
X17038D01*
X16989Y59399D01*
X16739Y59799D02*
X17038D01*
X16889Y59649D01*
Y59849D01*
X16689Y59949D02*
Y60149D01*
X16739Y60249D02*
X17038D01*
Y60399D01*
X16989Y60449D01*
X16889D01*
X16839Y60399D01*
Y60249D01*
X17038Y60549D02*
X16739D01*
X16839Y60649D01*
X16739Y60749D01*
X17038D01*
X16739Y60849D02*
X17038D01*
X16939Y60949D01*
X17038Y61048D01*
X16739D01*
X17038Y61148D02*
X16739D01*
X16889D01*
Y61348D01*
X17038D01*
X16739D01*
Y61648D02*
Y61448D01*
X16939Y61648D01*
X16989D01*
X17038Y61598D01*
Y61498D01*
X16989Y61448D01*
X16147Y58799D02*
X16447D01*
Y58949D01*
X16397Y58999D01*
X16297D01*
X16247Y58949D01*
Y58799D01*
X16447Y59099D02*
X16147D01*
Y59249D01*
X16197Y59299D01*
X16247D01*
X16297Y59249D01*
Y59099D01*
Y59249D01*
X16347Y59299D01*
X16397D01*
X16447Y59249D01*
Y59099D01*
X16147Y59399D02*
Y59499D01*
Y59449D01*
X16447D01*
X16397Y59399D01*
Y59649D02*
X16447Y59699D01*
Y59799D01*
X16397Y59849D01*
X16347D01*
X16297Y59799D01*
Y59749D01*
Y59799D01*
X16247Y59849D01*
X16197D01*
X16147Y59799D01*
Y59699D01*
X16197Y59649D01*
X16097Y59949D02*
Y60149D01*
X16147Y60249D02*
X16347D01*
X16447Y60349D01*
X16347Y60449D01*
X16147D01*
X16297D01*
Y60249D01*
X16447Y60549D02*
X16147D01*
Y60699D01*
X16197Y60749D01*
X16397D01*
X16447Y60699D01*
Y60549D01*
X16197Y60849D02*
X16147Y60899D01*
Y60999D01*
X16197Y61048D01*
X16397D01*
X16447Y60999D01*
Y60899D01*
X16397Y60849D01*
X16347D01*
X16297Y60899D01*
Y61048D01*
X15556Y58799D02*
X15855D01*
Y58949D01*
X15805Y58999D01*
X15705D01*
X15655Y58949D01*
Y58799D01*
X15556Y59099D02*
X15755D01*
X15855Y59199D01*
X15755Y59299D01*
X15556D01*
X15705D01*
Y59099D01*
X15556Y59399D02*
Y59499D01*
Y59449D01*
X15855D01*
X15805Y59399D01*
Y59649D02*
X15855Y59699D01*
Y59799D01*
X15805Y59849D01*
X15755D01*
X15705Y59799D01*
X15655Y59849D01*
X15606D01*
X15556Y59799D01*
Y59699D01*
X15606Y59649D01*
X15655D01*
X15705Y59699D01*
X15755Y59649D01*
X15805D01*
X15705Y59699D02*
Y59799D01*
X15506Y59949D02*
Y60149D01*
X15805Y60449D02*
X15855Y60399D01*
Y60299D01*
X15805Y60249D01*
X15755D01*
X15705Y60299D01*
Y60399D01*
X15655Y60449D01*
X15606D01*
X15556Y60399D01*
Y60299D01*
X15606Y60249D01*
X15805Y60749D02*
X15855Y60699D01*
Y60599D01*
X15805Y60549D01*
X15606D01*
X15556Y60599D01*
Y60699D01*
X15606Y60749D01*
X15855Y60849D02*
X15556D01*
Y61048D01*
X15134Y58999D02*
X15184Y58949D01*
Y58849D01*
X15134Y58799D01*
X14934D01*
X14884Y58849D01*
Y58949D01*
X14934Y58999D01*
X15034D01*
Y58899D01*
X14884Y59099D02*
X15184D01*
X14884Y59299D01*
X15184D01*
Y59399D02*
X14884D01*
Y59549D01*
X14934Y59599D01*
X15134D01*
X15184Y59549D01*
Y59399D01*
X34301Y80351D02*
X34351Y80401D01*
X34451D01*
X34501Y80351D01*
Y80151D01*
X34451Y80101D01*
X34351D01*
X34301Y80151D01*
Y80251D01*
X34401D01*
X34201Y80101D02*
Y80401D01*
X34001Y80101D01*
Y80401D01*
X33901D02*
Y80101D01*
X33751D01*
X33701Y80151D01*
Y80351D01*
X33751Y80401D01*
X33901D01*
X29301Y67751D02*
X29351Y67801D01*
X29451D01*
X29501Y67751D01*
Y67551D01*
X29451Y67501D01*
X29351D01*
X29301Y67551D01*
Y67651D01*
X29401D01*
X29201Y67501D02*
Y67801D01*
X29001Y67501D01*
Y67801D01*
X28901D02*
Y67501D01*
X28751D01*
X28701Y67551D01*
Y67751D01*
X28751Y67801D01*
X28901D01*
X29342Y67189D02*
X29392Y67239D01*
X29492D01*
X29542Y67189D01*
Y66989D01*
X29492Y66939D01*
X29392D01*
X29342Y66989D01*
Y67089D01*
X29442D01*
X29242Y66939D02*
Y67239D01*
X29042Y66939D01*
Y67239D01*
X28942D02*
Y66939D01*
X28793D01*
X28743Y66989D01*
Y67189D01*
X28793Y67239D01*
X28942D01*
X30704Y67189D02*
X30654Y67239D01*
X30554D01*
X30504Y67189D01*
Y67139D01*
X30554Y67089D01*
X30604D01*
X30554D01*
X30504Y67039D01*
Y66989D01*
X30554Y66939D01*
X30654D01*
X30704Y66989D01*
X30404Y67239D02*
Y67039D01*
X30304Y66939D01*
X30204Y67039D01*
Y67239D01*
X30104Y67189D02*
X30054Y67239D01*
X29954D01*
X29904Y67189D01*
Y67139D01*
X29954Y67089D01*
X30004D01*
X29954D01*
X29904Y67039D01*
Y66989D01*
X29954Y66939D01*
X30054D01*
X30104Y66989D01*
X28870Y72626D02*
X28920Y72676D01*
Y72776D01*
X28870Y72826D01*
X28820D01*
X28770Y72776D01*
Y72726D01*
Y72776D01*
X28720Y72826D01*
X28670D01*
X28620Y72776D01*
Y72676D01*
X28670Y72626D01*
X28920Y72926D02*
X28720D01*
X28620Y73026D01*
X28720Y73126D01*
X28920D01*
X28870Y73226D02*
X28920Y73276D01*
Y73376D01*
X28870Y73426D01*
X28820D01*
X28770Y73376D01*
Y73326D01*
Y73376D01*
X28720Y73426D01*
X28670D01*
X28620Y73376D01*
Y73276D01*
X28670Y73226D01*
X28351Y67751D02*
X28301Y67801D01*
X28201D01*
X28151Y67751D01*
Y67701D01*
X28201Y67651D01*
X28251D01*
X28201D01*
X28151Y67601D01*
Y67551D01*
X28201Y67501D01*
X28301D01*
X28351Y67551D01*
X28051Y67801D02*
Y67601D01*
X27951Y67501D01*
X27851Y67601D01*
Y67801D01*
X27751Y67751D02*
X27701Y67801D01*
X27601D01*
X27551Y67751D01*
Y67701D01*
X27601Y67651D01*
X27651D01*
X27601D01*
X27551Y67601D01*
Y67551D01*
X27601Y67501D01*
X27701D01*
X27751Y67551D01*
X42341Y60251D02*
Y60051D01*
X42191D01*
Y60151D01*
Y60051D01*
X42041D01*
X42291Y60551D02*
X42341Y60501D01*
Y60401D01*
X42291Y60351D01*
X42091D01*
X42041Y60401D01*
Y60501D01*
X42091Y60551D01*
X42191D01*
Y60451D01*
X42041Y60651D02*
X42341D01*
X42041Y60851D01*
X42341D01*
Y60951D02*
X42041D01*
Y61101D01*
X42091Y61151D01*
X42291D01*
X42341Y61101D01*
Y60951D01*
X40747Y47691D02*
X40797Y47741D01*
X40897D01*
X40947Y47691D01*
Y47491D01*
X40897Y47441D01*
X40797D01*
X40747Y47491D01*
Y47591D01*
X40847D01*
X40647Y47441D02*
Y47741D01*
X40447Y47441D01*
Y47741D01*
X40347D02*
Y47441D01*
X40197D01*
X40147Y47491D01*
Y47691D01*
X40197Y47741D01*
X40347D01*
X37881Y56424D02*
Y56224D01*
X37731D01*
X37781Y56324D01*
Y56374D01*
X37731Y56424D01*
X37631D01*
X37581Y56374D01*
Y56274D01*
X37631Y56224D01*
X37881Y56524D02*
X37681D01*
X37581Y56624D01*
X37681Y56724D01*
X37881D01*
X42481Y72827D02*
X42531Y72777D01*
Y72677D01*
X42481Y72627D01*
X42281D01*
X42231Y72677D01*
Y72777D01*
X42281Y72827D01*
X42381D01*
Y72727D01*
X42231Y72927D02*
X42531D01*
X42231Y73127D01*
X42531D01*
Y73227D02*
X42231D01*
Y73377D01*
X42281Y73427D01*
X42481D01*
X42531Y73377D01*
Y73227D01*
X35863Y63091D02*
Y63290D01*
X35813D01*
X35613Y63091D01*
X35563D01*
Y63290D01*
X35713Y63390D02*
Y63590D01*
X35563Y63690D02*
X35863D01*
X35763Y63790D01*
X35863Y63890D01*
X35563D01*
Y63990D02*
X35763D01*
X35863Y64090D01*
X35763Y64190D01*
X35563D01*
X35713D01*
Y63990D01*
X35863Y64290D02*
X35563Y64490D01*
X35863D02*
X35563Y64290D01*
X29711Y70121D02*
Y70321D01*
X29661D01*
X29461Y70121D01*
X29411D01*
Y70321D01*
X29561Y70421D02*
Y70621D01*
X29411Y70721D02*
X29711D01*
X29611Y70821D01*
X29711Y70921D01*
X29411D01*
X29711Y71021D02*
Y71121D01*
Y71071D01*
X29411D01*
Y71021D01*
Y71121D01*
Y71271D02*
X29711D01*
X29411Y71471D01*
X29711D01*
X31916Y63091D02*
X31866D01*
X31766Y63191D01*
X31866Y63290D01*
X31916D01*
X31766Y63191D02*
X31616D01*
X31766Y63390D02*
Y63590D01*
X31616Y63690D02*
X31916D01*
X31816Y63790D01*
X31916Y63890D01*
X31616D01*
Y63990D02*
X31816D01*
X31916Y64090D01*
X31816Y64190D01*
X31616D01*
X31766D01*
Y63990D01*
X31916Y64290D02*
X31616Y64490D01*
X31916D02*
X31616Y64290D01*
X30075Y63141D02*
X29776Y63340D01*
X30075D02*
X29776Y63141D01*
X29926Y63440D02*
Y63640D01*
X29776Y63740D02*
X30075D01*
X29976Y63840D01*
X30075Y63940D01*
X29776D01*
X30075Y64040D02*
Y64140D01*
Y64090D01*
X29776D01*
Y64040D01*
Y64140D01*
Y64290D02*
X30075D01*
X29776Y64490D01*
X30075D01*
X28420Y67234D02*
X28220Y66934D01*
Y67234D02*
X28420Y66934D01*
X28120Y67084D02*
X27920D01*
X27820Y66934D02*
Y67234D01*
X27720Y67134D01*
X27620Y67234D01*
Y66934D01*
X27521D02*
Y67134D01*
X27421Y67234D01*
X27321Y67134D01*
Y66934D01*
Y67084D01*
X27521D01*
X27221Y67234D02*
X27021Y66934D01*
Y67234D02*
X27221Y66934D01*
X27280Y45337D02*
Y45537D01*
X27230D01*
X27030Y45337D01*
X26980D01*
Y45537D01*
X27130Y45637D02*
Y45837D01*
X27280Y45937D02*
X26980D01*
Y46087D01*
X27030Y46137D01*
X27080D01*
X27130Y46087D01*
Y45937D01*
Y46087D01*
X27180Y46137D01*
X27230D01*
X27280Y46087D01*
Y45937D01*
X26980Y46437D02*
Y46237D01*
X27180Y46437D01*
X27230D01*
X27280Y46387D01*
Y46287D01*
X27230Y46237D01*
X26280Y45337D02*
Y45537D01*
X26230D01*
X26030Y45337D01*
X25980D01*
Y45537D01*
X26130Y45637D02*
Y45837D01*
X26280Y45937D02*
X25980D01*
Y46087D01*
X26030Y46137D01*
X26080D01*
X26130Y46087D01*
Y45937D01*
Y46087D01*
X26180Y46137D01*
X26230D01*
X26280Y46087D01*
Y45937D01*
X25980Y46237D02*
Y46337D01*
Y46287D01*
X26280D01*
X26230Y46237D01*
X25280Y45337D02*
Y45537D01*
X25230D01*
X25030Y45337D01*
X24980D01*
Y45537D01*
X25130Y45637D02*
Y45837D01*
X24980Y45937D02*
X25180D01*
X25280Y46037D01*
X25180Y46137D01*
X24980D01*
X25130D01*
Y45937D01*
X24980Y46437D02*
Y46237D01*
X25180Y46437D01*
X25230D01*
X25280Y46387D01*
Y46287D01*
X25230Y46237D01*
X24280Y45337D02*
Y45537D01*
X24230D01*
X24030Y45337D01*
X23980D01*
Y45537D01*
X24130Y45637D02*
Y45837D01*
X23980Y45937D02*
X24180D01*
X24280Y46037D01*
X24180Y46137D01*
X23980D01*
X24130D01*
Y45937D01*
X23980Y46237D02*
Y46337D01*
Y46287D01*
X24280D01*
X24230Y46237D01*
X30174Y45525D02*
Y45325D01*
X29874D01*
Y45525D01*
X30024Y45325D02*
Y45425D01*
X29874Y45625D02*
Y45725D01*
Y45675D01*
X30174D01*
X30124Y45625D01*
X30024Y45875D02*
Y46075D01*
X29874Y46175D02*
X30074D01*
X30174Y46274D01*
X30074Y46374D01*
X29874D01*
X30024D01*
Y46175D01*
X29874Y46474D02*
Y46574D01*
Y46524D01*
X30174D01*
X30124Y46474D01*
X31198Y45525D02*
Y45325D01*
X30898D01*
Y45525D01*
X31048Y45325D02*
Y45425D01*
X30898Y45625D02*
Y45725D01*
Y45675D01*
X31198D01*
X31148Y45625D01*
X31048Y45875D02*
Y46075D01*
X30898Y46175D02*
X31098D01*
X31198Y46274D01*
X31098Y46374D01*
X30898D01*
X31048D01*
Y46175D01*
X30898Y46674D02*
Y46474D01*
X31098Y46674D01*
X31148D01*
X31198Y46624D01*
Y46524D01*
X31148Y46474D01*
X32182Y45525D02*
Y45325D01*
X31882D01*
Y45525D01*
X32032Y45325D02*
Y45425D01*
X31882Y45625D02*
Y45725D01*
Y45675D01*
X32182D01*
X32132Y45625D01*
X32032Y45875D02*
Y46075D01*
X32182Y46175D02*
X31882D01*
Y46324D01*
X31932Y46374D01*
X31982D01*
X32032Y46324D01*
Y46175D01*
Y46324D01*
X32082Y46374D01*
X32132D01*
X32182Y46324D01*
Y46175D01*
X31882Y46474D02*
Y46574D01*
Y46524D01*
X32182D01*
X32132Y46474D01*
X33205Y45525D02*
Y45325D01*
X32906D01*
Y45525D01*
X33055Y45325D02*
Y45425D01*
X32906Y45625D02*
Y45725D01*
Y45675D01*
X33205D01*
X33155Y45625D01*
X33055Y45875D02*
Y46075D01*
X33205Y46175D02*
X32906D01*
Y46324D01*
X32956Y46374D01*
X33005D01*
X33055Y46324D01*
Y46175D01*
Y46324D01*
X33105Y46374D01*
X33155D01*
X33205Y46324D01*
Y46175D01*
X32906Y46674D02*
Y46474D01*
X33105Y46674D01*
X33155D01*
X33205Y46624D01*
Y46524D01*
X33155Y46474D01*
X36146Y45553D02*
Y45353D01*
X35846D01*
Y45553D01*
X35996Y45353D02*
Y45453D01*
X35846Y45853D02*
Y45653D01*
X36046Y45853D01*
X36096D01*
X36146Y45803D01*
Y45703D01*
X36096Y45653D01*
X35996Y45953D02*
Y46153D01*
X35846Y46253D02*
X36046D01*
X36146Y46353D01*
X36046Y46453D01*
X35846D01*
X35996D01*
Y46253D01*
X35846Y46553D02*
Y46653D01*
Y46603D01*
X36146D01*
X36096Y46553D01*
X37133Y45553D02*
Y45353D01*
X36833D01*
Y45553D01*
X36983Y45353D02*
Y45453D01*
X36833Y45853D02*
Y45653D01*
X37033Y45853D01*
X37083D01*
X37133Y45803D01*
Y45703D01*
X37083Y45653D01*
X36983Y45953D02*
Y46153D01*
X36833Y46253D02*
X37033D01*
X37133Y46353D01*
X37033Y46453D01*
X36833D01*
X36983D01*
Y46253D01*
X36833Y46753D02*
Y46553D01*
X37033Y46753D01*
X37083D01*
X37133Y46703D01*
Y46603D01*
X37083Y46553D01*
X38156Y45553D02*
Y45353D01*
X37856D01*
Y45553D01*
X38006Y45353D02*
Y45453D01*
X37856Y45853D02*
Y45653D01*
X38056Y45853D01*
X38106D01*
X38156Y45803D01*
Y45703D01*
X38106Y45653D01*
X38006Y45953D02*
Y46153D01*
X38156Y46253D02*
X37856D01*
Y46403D01*
X37906Y46453D01*
X37956D01*
X38006Y46403D01*
Y46253D01*
Y46403D01*
X38056Y46453D01*
X38106D01*
X38156Y46403D01*
Y46253D01*
X37856Y46553D02*
Y46653D01*
Y46603D01*
X38156D01*
X38106Y46553D01*
X39121Y45553D02*
Y45353D01*
X38821D01*
Y45553D01*
X38971Y45353D02*
Y45453D01*
X38821Y45853D02*
Y45653D01*
X39021Y45853D01*
X39071D01*
X39121Y45803D01*
Y45703D01*
X39071Y45653D01*
X38971Y45953D02*
Y46153D01*
X39121Y46253D02*
X38821D01*
Y46403D01*
X38871Y46453D01*
X38921D01*
X38971Y46403D01*
Y46253D01*
Y46403D01*
X39021Y46453D01*
X39071D01*
X39121Y46403D01*
Y46253D01*
X38821Y46753D02*
Y46553D01*
X39021Y46753D01*
X39071D01*
X39121Y46703D01*
Y46603D01*
X39071Y46553D01*
X19198Y45308D02*
Y45508D01*
X19148D01*
X18948Y45308D01*
X18898D01*
Y45508D01*
X19048Y45608D02*
Y45808D01*
X18898Y45908D02*
X19098D01*
X19198Y46008D01*
X19098Y46108D01*
X18898D01*
X19048D01*
Y45908D01*
X18898Y46208D02*
Y46308D01*
Y46258D01*
X19198D01*
X19148Y46208D01*
X20198Y45308D02*
Y45508D01*
X20148D01*
X19948Y45308D01*
X19898D01*
Y45508D01*
X20048Y45608D02*
Y45808D01*
X19898Y45908D02*
X20098D01*
X20198Y46008D01*
X20098Y46108D01*
X19898D01*
X20048D01*
Y45908D01*
X19898Y46408D02*
Y46208D01*
X20098Y46408D01*
X20148D01*
X20198Y46358D01*
Y46258D01*
X20148Y46208D01*
X21198Y45308D02*
Y45508D01*
X21148D01*
X20948Y45308D01*
X20898D01*
Y45508D01*
X21048Y45608D02*
Y45808D01*
X21198Y45908D02*
X20898D01*
Y46058D01*
X20948Y46108D01*
X20998D01*
X21048Y46058D01*
Y45908D01*
Y46058D01*
X21098Y46108D01*
X21148D01*
X21198Y46058D01*
Y45908D01*
X20898Y46208D02*
Y46308D01*
Y46258D01*
X21198D01*
X21148Y46208D01*
X22198Y45308D02*
Y45508D01*
X22148D01*
X21948Y45308D01*
X21898D01*
Y45508D01*
X22048Y45608D02*
Y45808D01*
X22198Y45908D02*
X21898D01*
Y46058D01*
X21948Y46108D01*
X21998D01*
X22048Y46058D01*
Y45908D01*
Y46058D01*
X22098Y46108D01*
X22148D01*
X22198Y46058D01*
Y45908D01*
X21898Y46408D02*
Y46208D01*
X22098Y46408D01*
X22148D01*
X22198Y46358D01*
Y46258D01*
X22148Y46208D01*
X13181Y45328D02*
X13131D01*
X13031Y45428D01*
X13131Y45528D01*
X13181D01*
X13031Y45428D02*
X12881D01*
X13031Y45628D02*
Y45828D01*
X12881Y45928D02*
X13081D01*
X13181Y46028D01*
X13081Y46128D01*
X12881D01*
X13031D01*
Y45928D01*
X12881Y46228D02*
Y46328D01*
Y46278D01*
X13181D01*
X13131Y46228D01*
X14102Y45328D02*
X14052D01*
X13952Y45428D01*
X14052Y45528D01*
X14102D01*
X13952Y45428D02*
X13802D01*
X13952Y45628D02*
Y45828D01*
X13802Y45928D02*
X14002D01*
X14102Y46028D01*
X14002Y46128D01*
X13802D01*
X13952D01*
Y45928D01*
X13802Y46428D02*
Y46228D01*
X14002Y46428D01*
X14052D01*
X14102Y46378D01*
Y46278D01*
X14052Y46228D01*
X15102Y45328D02*
X15052D01*
X14952Y45428D01*
X15052Y45528D01*
X15102D01*
X14952Y45428D02*
X14802D01*
X14952Y45628D02*
Y45828D01*
X15102Y45928D02*
X14802D01*
Y46078D01*
X14852Y46128D01*
X14902D01*
X14952Y46078D01*
Y45928D01*
Y46078D01*
X15002Y46128D01*
X15052D01*
X15102Y46078D01*
Y45928D01*
X14802Y46228D02*
Y46328D01*
Y46278D01*
X15102D01*
X15052Y46228D01*
X16102Y45328D02*
X16052D01*
X15952Y45428D01*
X16052Y45528D01*
X16102D01*
X15952Y45428D02*
X15802D01*
X15952Y45628D02*
Y45828D01*
X16102Y45928D02*
X15802D01*
Y46078D01*
X15852Y46128D01*
X15902D01*
X15952Y46078D01*
Y45928D01*
Y46078D01*
X16002Y46128D01*
X16052D01*
X16102Y46078D01*
Y45928D01*
X15802Y46428D02*
Y46228D01*
X16002Y46428D01*
X16052D01*
X16102Y46378D01*
Y46278D01*
X16052Y46228D01*
X10240Y45320D02*
X9940Y45520D01*
X10240D02*
X9940Y45320D01*
X10090Y45620D02*
Y45820D01*
X10240Y45920D02*
X9940D01*
Y46070D01*
X9990Y46120D01*
X10040D01*
X10090Y46070D01*
Y45920D01*
Y46070D01*
X10140Y46120D01*
X10190D01*
X10240Y46070D01*
Y45920D01*
X9940Y46420D02*
Y46220D01*
X10140Y46420D01*
X10190D01*
X10240Y46370D01*
Y46270D01*
X10190Y46220D01*
X9240Y45320D02*
X8940Y45520D01*
X9240D02*
X8940Y45320D01*
X9090Y45620D02*
Y45820D01*
X9240Y45920D02*
X8940D01*
Y46070D01*
X8990Y46120D01*
X9040D01*
X9090Y46070D01*
Y45920D01*
Y46070D01*
X9140Y46120D01*
X9190D01*
X9240Y46070D01*
Y45920D01*
X8940Y46220D02*
Y46320D01*
Y46270D01*
X9240D01*
X9190Y46220D01*
X8240Y45320D02*
X7940Y45520D01*
X8240D02*
X7940Y45320D01*
X8090Y45620D02*
Y45820D01*
X7940Y45920D02*
X8140D01*
X8240Y46020D01*
X8140Y46120D01*
X7940D01*
X8090D01*
Y45920D01*
X7940Y46420D02*
Y46220D01*
X8140Y46420D01*
X8190D01*
X8240Y46370D01*
Y46270D01*
X8190Y46220D01*
X7240Y45320D02*
X6940Y45520D01*
X7240D02*
X6940Y45320D01*
X7090Y45620D02*
Y45820D01*
X6940Y45920D02*
X7140D01*
X7240Y46020D01*
X7140Y46120D01*
X6940D01*
X7090D01*
Y45920D01*
X6940Y46220D02*
Y46320D01*
Y46270D01*
X7240D01*
X7190Y46220D01*
X7601Y79531D02*
X7301D01*
X7451D01*
Y79731D01*
X7601D01*
X7301D01*
X7601Y79831D02*
Y80031D01*
Y79931D01*
X7301D01*
Y80131D02*
X7601D01*
Y80281D01*
X7551Y80331D01*
X7451D01*
X7401Y80281D01*
Y80131D01*
Y80231D02*
X7301Y80331D01*
Y80431D02*
Y80531D01*
Y80481D01*
X7601D01*
X7551Y80431D01*
X15561Y79521D02*
X15261D01*
X15411D01*
Y79721D01*
X15561D01*
X15261D01*
X15561Y79821D02*
Y80021D01*
Y79921D01*
X15261D01*
Y80121D02*
X15561D01*
Y80271D01*
X15511Y80321D01*
X15411D01*
X15361Y80271D01*
Y80121D01*
Y80221D02*
X15261Y80321D01*
X15511Y80421D02*
X15561Y80471D01*
Y80571D01*
X15511Y80621D01*
X15461D01*
X15411Y80571D01*
Y80521D01*
Y80571D01*
X15361Y80621D01*
X15311D01*
X15261Y80571D01*
Y80471D01*
X15311Y80421D01*
X11531Y79491D02*
X11231D01*
X11381D01*
Y79691D01*
X11531D01*
X11231D01*
X11531Y79791D02*
Y79991D01*
Y79891D01*
X11231D01*
Y80091D02*
X11531D01*
Y80241D01*
X11481Y80291D01*
X11381D01*
X11331Y80241D01*
Y80091D01*
Y80191D02*
X11231Y80291D01*
Y80591D02*
Y80391D01*
X11431Y80591D01*
X11481D01*
X11531Y80541D01*
Y80441D01*
X11481Y80391D01*
X23514Y79545D02*
X23214D01*
X23364D01*
Y79745D01*
X23514D01*
X23214D01*
X23514Y79845D02*
Y80045D01*
Y79945D01*
X23214D01*
X23514Y80145D02*
X23214D01*
Y80295D01*
X23264Y80345D01*
X23314D01*
X23364Y80295D01*
Y80145D01*
Y80295D01*
X23414Y80345D01*
X23464D01*
X23514Y80295D01*
Y80145D01*
Y80444D02*
X23214D01*
Y80594D01*
X23264Y80644D01*
X23464D01*
X23514Y80594D01*
Y80444D01*
X42251Y65211D02*
X42051D01*
X41951Y65311D01*
X42051Y65411D01*
X42251D01*
Y65511D02*
Y65611D01*
Y65561D01*
X41951D01*
Y65511D01*
Y65611D01*
Y65761D02*
X42251D01*
X41951Y65961D01*
X42251D01*
X41951Y66361D02*
X42251D01*
X42151Y66461D01*
X42251Y66561D01*
X41951D01*
X42251Y66811D02*
Y66711D01*
X42201Y66661D01*
X42001D01*
X41951Y66711D01*
Y66811D01*
X42001Y66860D01*
X42201D01*
X42251Y66811D01*
Y66960D02*
Y67160D01*
Y67060D01*
X41951D01*
X36531Y75601D02*
Y75401D01*
X36431Y75301D01*
X36331Y75401D01*
Y75601D01*
X36231D02*
Y75301D01*
X36081D01*
X36031Y75351D01*
Y75401D01*
X36081Y75451D01*
X36231D01*
X36081D01*
X36031Y75501D01*
Y75551D01*
X36081Y75601D01*
X36231D01*
X35731D02*
X35931D01*
Y75301D01*
X35731D01*
X35931Y75451D02*
X35831D01*
X35631Y75601D02*
Y75301D01*
X35481D01*
X35431Y75351D01*
Y75551D01*
X35481Y75601D01*
X35631D01*
X41581Y54970D02*
X41381D01*
X41281Y55070D01*
X41381Y55170D01*
X41581D01*
X41281Y55270D02*
X41581D01*
X41481Y55370D01*
X41581Y55470D01*
X41281D01*
X41581Y55720D02*
Y55620D01*
X41531Y55570D01*
X41331D01*
X41281Y55620D01*
Y55720D01*
X41331Y55770D01*
X41531D01*
X41581Y55720D01*
Y55870D02*
Y56070D01*
Y55970D01*
X41281D01*
X5671Y77221D02*
Y77021D01*
X5521D01*
Y77121D01*
Y77021D01*
X5371D01*
Y77321D02*
X5571D01*
X5671Y77421D01*
X5571Y77521D01*
X5371D01*
X5521D01*
Y77321D01*
X5371Y77621D02*
X5671D01*
X5371Y77821D01*
X5671D01*
X5371Y77921D02*
Y78021D01*
Y77971D01*
X5671D01*
X5621Y77921D01*
X19551Y78891D02*
Y78691D01*
X19401D01*
Y78791D01*
Y78691D01*
X19251D01*
Y78991D02*
X19451D01*
X19551Y79091D01*
X19451Y79191D01*
X19251D01*
X19401D01*
Y78991D01*
X19251Y79291D02*
X19551D01*
X19251Y79491D01*
X19551D01*
X19251Y79791D02*
Y79591D01*
X19451Y79791D01*
X19501D01*
X19551Y79741D01*
Y79641D01*
X19501Y79591D01*
X39140Y80525D02*
Y80325D01*
X38990D01*
X39040Y80425D01*
Y80475D01*
X38990Y80525D01*
X38891D01*
X38841Y80475D01*
Y80375D01*
X38891Y80325D01*
X39140Y80625D02*
X38941D01*
X38841Y80725D01*
X38941Y80825D01*
X39140D01*
X28944Y54823D02*
X28644D01*
X28794D01*
Y55023D01*
X28944D01*
X28644D01*
X28944Y55273D02*
Y55173D01*
X28894Y55123D01*
X28694D01*
X28644Y55173D01*
Y55273D01*
X28694Y55323D01*
X28894D01*
X28944Y55273D01*
Y55423D02*
X28644D01*
Y55623D01*
X28944Y55723D02*
X28644D01*
Y55873D01*
X28694Y55922D01*
X28894D01*
X28944Y55873D01*
Y55723D01*
X28644Y56072D02*
X28944D01*
Y56172D02*
X28644D01*
X28844Y56022D02*
Y56172D01*
Y56222D01*
X28744Y56022D02*
Y56222D01*
X33245Y55889D02*
Y55689D01*
X33095D01*
Y55789D01*
Y55689D01*
X32945D01*
X33245Y55989D02*
X32945D01*
Y56189D01*
X33195Y56489D02*
X33245Y56439D01*
Y56339D01*
X33195Y56289D01*
X33145D01*
X33095Y56339D01*
Y56439D01*
X33045Y56489D01*
X32995D01*
X32945Y56439D01*
Y56339D01*
X32995Y56289D01*
X33245Y56589D02*
X32945D01*
X33095D01*
Y56789D01*
X33245D01*
X32945D01*
X32895Y56889D02*
Y57089D01*
X33195Y57388D02*
X33245Y57338D01*
Y57238D01*
X33195Y57188D01*
X32995D01*
X32945Y57238D01*
Y57338D01*
X32995Y57388D01*
X33195Y57688D02*
X33245Y57638D01*
Y57538D01*
X33195Y57488D01*
X33145D01*
X33095Y57538D01*
Y57638D01*
X33045Y57688D01*
X32995D01*
X32945Y57638D01*
Y57538D01*
X32995Y57488D01*
X27703Y64124D02*
X27404Y64324D01*
X27703D02*
X27404Y64124D01*
X27554Y64424D02*
Y64624D01*
X27404Y64724D02*
X27703D01*
X27603Y64824D01*
X27703Y64924D01*
X27404D01*
Y65024D02*
X27603D01*
X27703Y65124D01*
X27603Y65224D01*
X27404D01*
X27554D01*
Y65024D01*
X27703Y65324D02*
X27404Y65524D01*
X27703D02*
X27404Y65324D01*
X36547Y54424D02*
X36847D01*
Y54574D01*
X36797Y54624D01*
X36697D01*
X36647Y54574D01*
Y54424D01*
X36547Y54724D02*
X36747D01*
X36847Y54824D01*
X36747Y54924D01*
X36547D01*
X36697D01*
Y54724D01*
X36797Y55024D02*
X36847Y55074D01*
Y55174D01*
X36797Y55224D01*
X36747D01*
X36697Y55174D01*
X36647Y55224D01*
X36597D01*
X36547Y55174D01*
Y55074D01*
X36597Y55024D01*
X36647D01*
X36697Y55074D01*
X36747Y55024D01*
X36797D01*
X36697Y55074D02*
Y55174D01*
X36497Y55324D02*
Y55524D01*
X36847Y55624D02*
X36597D01*
X36547Y55674D01*
Y55774D01*
X36597Y55824D01*
X36847D01*
X36547Y55924D02*
X36847D01*
Y56074D01*
X36797Y56124D01*
X36697D01*
X36647Y56074D01*
Y55924D01*
Y56024D02*
X36547Y56124D01*
X36847Y56224D02*
X36547Y56424D01*
X36847D02*
X36547Y56224D01*
X36847Y56524D02*
X36547D01*
Y56674D01*
X36597Y56724D01*
X36797D01*
X36847Y56674D01*
Y56524D01*
X33314Y63141D02*
X33264D01*
X33164Y63240D01*
X33264Y63340D01*
X33314D01*
X33164Y63240D02*
X33014D01*
X33164Y63440D02*
Y63640D01*
X33014Y63740D02*
X33314D01*
X33214Y63840D01*
X33314Y63940D01*
X33014D01*
X33314Y64040D02*
Y64140D01*
Y64090D01*
X33014D01*
Y64040D01*
Y64140D01*
Y64290D02*
X33314D01*
X33014Y64490D01*
X33314D01*
X38805Y56124D02*
X38855Y56074D01*
Y55974D01*
X38805Y55924D01*
X38605D01*
X38555Y55974D01*
Y56074D01*
X38605Y56124D01*
X38705D01*
Y56024D01*
X38555Y56224D02*
X38855D01*
X38555Y56424D01*
X38855D01*
Y56524D02*
X38555D01*
Y56674D01*
X38605Y56724D01*
X38805D01*
X38855Y56674D01*
Y56524D01*
X18850Y67165D02*
X19150D01*
Y67315D01*
X19100Y67365D01*
X19000D01*
X18950Y67315D01*
Y67165D01*
Y67265D02*
X18850Y67365D01*
X19150Y67665D02*
Y67465D01*
X18850D01*
Y67665D01*
X19000Y67465D02*
Y67565D01*
X19100Y67965D02*
X19150Y67915D01*
Y67815D01*
X19100Y67765D01*
X19050D01*
X19000Y67815D01*
Y67915D01*
X18950Y67965D01*
X18900D01*
X18850Y67915D01*
Y67815D01*
X18900Y67765D01*
X19150Y68265D02*
Y68065D01*
X18850D01*
Y68265D01*
X19000Y68065D02*
Y68165D01*
X19150Y68365D02*
Y68565D01*
Y68465D01*
X18850D01*
X22851Y71981D02*
Y72181D01*
Y72081D01*
X22551D01*
Y72281D02*
X22851D01*
X22751Y72381D01*
X22851Y72481D01*
X22551D01*
X22801Y72781D02*
X22851Y72731D01*
Y72631D01*
X22801Y72581D01*
X22751D01*
X22701Y72631D01*
Y72731D01*
X22651Y72781D01*
X22601D01*
X22551Y72731D01*
Y72631D01*
X22601Y72581D01*
X22551Y72881D02*
X22751Y73081D01*
X22801Y73381D02*
X22851Y73331D01*
Y73231D01*
X22801Y73181D01*
X22751D01*
X22701Y73231D01*
Y73331D01*
X22651Y73381D01*
X22601D01*
X22551Y73331D01*
Y73231D01*
X22601Y73181D01*
X22851Y73481D02*
X22551D01*
X22651Y73581D01*
X22551Y73680D01*
X22851D01*
Y73780D02*
X22551D01*
Y73930D01*
X22601Y73980D01*
X22801D01*
X22851Y73930D01*
Y73780D01*
Y74080D02*
Y74180D01*
Y74130D01*
X22551D01*
Y74080D01*
Y74180D01*
X22851Y74480D02*
Y74380D01*
X22801Y74330D01*
X22601D01*
X22551Y74380D01*
Y74480D01*
X22601Y74530D01*
X22801D01*
X22851Y74480D01*
X20761Y72691D02*
X20811Y72641D01*
Y72541D01*
X20761Y72491D01*
X20711D01*
X20661Y72541D01*
Y72641D01*
X20611Y72691D01*
X20561D01*
X20511Y72641D01*
Y72541D01*
X20561Y72491D01*
X20811Y72791D02*
X20511D01*
X20611Y72891D01*
X20511Y72991D01*
X20811D01*
Y73241D02*
Y73141D01*
X20761Y73091D01*
X20561D01*
X20511Y73141D01*
Y73241D01*
X20561Y73291D01*
X20761D01*
X20811Y73241D01*
X20511Y73391D02*
X20711Y73591D01*
X20811Y73691D02*
Y73891D01*
Y73791D01*
X20511D01*
X20811Y73991D02*
X20511D01*
Y74140D01*
X20561Y74190D01*
X20761D01*
X20811Y74140D01*
Y73991D01*
Y74440D02*
Y74340D01*
X20761Y74290D01*
X20561D01*
X20511Y74340D01*
Y74440D01*
X20561Y74490D01*
X20761D01*
X20811Y74440D01*
X20794Y70433D02*
Y70633D01*
Y70533D01*
X20494D01*
X20794Y70733D02*
X20494D01*
Y70883D01*
X20544Y70933D01*
X20744D01*
X20794Y70883D01*
Y70733D01*
Y71033D02*
Y71133D01*
Y71083D01*
X20494D01*
Y71033D01*
Y71133D01*
X21788Y68563D02*
Y68763D01*
Y68663D01*
X21488D01*
X21738Y69063D02*
X21788Y69013D01*
Y68913D01*
X21738Y68863D01*
X21538D01*
X21488Y68913D01*
Y69013D01*
X21538Y69063D01*
X21788Y69163D02*
X21488D01*
X21588D01*
X21788Y69363D01*
X21638Y69213D01*
X21488Y69363D01*
Y69463D02*
X21688Y69663D01*
X21738Y69963D02*
X21788Y69913D01*
Y69813D01*
X21738Y69763D01*
X21688D01*
X21638Y69813D01*
Y69913D01*
X21588Y69963D01*
X21538D01*
X21488Y69913D01*
Y69813D01*
X21538Y69763D01*
X21788Y70063D02*
X21488D01*
X21588Y70162D01*
X21488Y70262D01*
X21788D01*
X21738Y70562D02*
X21788Y70512D01*
Y70412D01*
X21738Y70362D01*
X21538D01*
X21488Y70412D01*
Y70512D01*
X21538Y70562D01*
X21788Y70662D02*
X21488D01*
Y70862D01*
X21788Y70962D02*
X21488D01*
X21588D01*
X21788Y71162D01*
X21638Y71012D01*
X21488Y71162D01*
X27961Y71531D02*
Y71331D01*
X27661D01*
Y71531D01*
X27811Y71331D02*
Y71431D01*
X27661Y71631D02*
X27961D01*
Y71781D01*
X27911Y71831D01*
X27811D01*
X27761Y71781D01*
Y71631D01*
Y71731D02*
X27661Y71831D01*
Y71931D02*
X27861D01*
X27961Y72031D01*
X27861Y72131D01*
X27661D01*
X27811D01*
Y71931D01*
X27911Y72431D02*
X27961Y72381D01*
Y72281D01*
X27911Y72231D01*
X27861D01*
X27811Y72281D01*
Y72381D01*
X27761Y72431D01*
X27711D01*
X27661Y72381D01*
Y72281D01*
X27711Y72231D01*
X27961Y72731D02*
Y72531D01*
X27661D01*
Y72731D01*
X27811Y72531D02*
Y72631D01*
X8014Y68203D02*
Y67954D01*
X7964Y67904D01*
X7864D01*
X7814Y67954D01*
Y68203D01*
X7514Y68153D02*
X7564Y68203D01*
X7664D01*
X7714Y68153D01*
Y68103D01*
X7664Y68053D01*
X7564D01*
X7514Y68004D01*
Y67954D01*
X7564Y67904D01*
X7664D01*
X7714Y67954D01*
X7414Y68203D02*
Y67904D01*
X7264D01*
X7214Y67954D01*
Y68004D01*
X7264Y68053D01*
X7414D01*
X7264D01*
X7214Y68103D01*
Y68153D01*
X7264Y68203D01*
X7414D01*
X7114Y67904D02*
Y68203D01*
X6914Y67904D01*
Y68203D01*
M02*
